<svg width="356" height="60" viewBox="0 0 356 60" fill="none" xmlns="http://www.w3.org/2000/svg">
<mask id="mask0_91_69132" style="mask-type:luminance" maskUnits="userSpaceOnUse" x="0" y="0" width="356" height="61">
<path d="M356 0H0V61H356V0Z" fill="white"/>
</mask>
<g mask="url(#mask0_91_69132)">
<path d="M48.1288 0.078125C54.6303 0.078125 59.8835 5.32773 59.8835 11.8248V16.8838C59.8835 23.3809 54.6303 28.6306 48.1288 28.6306H-0.0351562V11.8248C-0.0351562 5.32773 5.21816 0.078125 11.7198 0.078125H48.1288Z" fill="white"/>
<path d="M48.1288 59.9741C54.6303 59.9741 59.8835 54.7246 59.8835 48.2276V43.1686C59.8835 36.6716 54.6303 31.4219 48.1288 31.4219H-0.0351562V48.2276C-0.0351562 54.7246 5.21816 59.9741 11.7198 59.9741H48.1288Z" fill="#00BB00"/>
<path d="M80.3901 42.565H88.6429C90.6016 42.565 92.1279 42.0797 93.1851 41.0922C94.2604 40.122 94.7976 38.8227 94.7976 37.194C94.7976 35.5655 94.2604 34.2835 93.1851 33.2785C92.1104 32.2738 90.6016 31.7712 88.6429 31.7712H80.3901V42.5478V42.565ZM80.3901 26.5908H86.9091C88.5559 26.5908 89.8736 26.123 90.8619 25.1702C91.8326 24.2173 92.3354 23.0218 92.3354 21.5492C92.3354 20.0765 91.8501 18.9503 90.8619 17.9801C89.8736 17.0099 88.5559 16.5075 86.9091 16.5075H80.3901V26.6083V26.5908ZM74.2871 48.1957V10.8594H87.3249C90.6191 10.8594 93.2891 11.8469 95.3176 13.8047C97.3459 15.7625 98.3691 18.2054 98.3691 21.116C98.3691 24.2 97.2249 26.6255 94.9536 28.3752C98.9241 30.0905 100.9 33.1225 100.9 37.4712C100.9 40.6937 99.7561 43.2928 97.4499 45.2505C95.1614 47.2083 92.1969 48.1957 88.5909 48.1957H74.2871Z" fill="white"/>
<path d="M116.208 26.416C114.665 26.416 113.209 26.8838 111.839 27.802C110.469 28.7375 109.603 30.141 109.204 32.0295H123.195C122.918 30.2103 122.137 28.807 120.855 27.854C119.572 26.8838 118.029 26.416 116.191 26.416H116.208ZM116.676 48.5925C112.914 48.5925 109.741 47.2933 107.123 44.6943C104.505 42.0955 103.205 38.873 103.205 35.0268C103.205 31.1805 104.488 27.9405 107.036 25.3593C109.585 22.7603 112.775 21.4609 116.555 21.4609C120.335 21.4609 123.646 22.8296 126.021 25.567C128.396 28.3045 129.489 31.8563 129.281 36.2395H108.978C109.186 38.336 110.036 40.0338 111.527 41.3158C113.018 42.598 114.734 43.239 116.659 43.239C119.572 43.239 121.878 42.1648 123.594 40.0338L127.755 43.6028C125.12 46.9293 121.427 48.5925 116.659 48.5925H116.676Z" fill="white"/>
<path d="M132.99 48.1709V21.9056H138.781V24.695C140.462 22.6332 142.734 21.5938 145.56 21.5938C146.479 21.5938 147.207 21.6804 147.762 21.8536V27.8481C146.964 27.5016 145.941 27.3284 144.71 27.3284C141.971 27.3284 139.994 28.4199 138.763 30.5856V48.1884H132.973L132.99 48.1709Z" fill="white"/>
<path d="M161.287 26.416C159.744 26.416 158.287 26.8838 156.918 27.802C155.548 28.7375 154.681 30.141 154.282 32.0295H168.274C167.996 30.2103 167.216 28.807 165.933 27.854C164.65 26.8838 163.107 26.416 161.287 26.416ZM161.755 48.5925C157.992 48.5925 154.82 47.2933 152.201 44.6943C149.583 42.0955 148.283 38.873 148.283 35.0268C148.283 31.1805 149.566 27.9405 152.115 25.3593C154.664 22.7777 157.854 21.4609 161.633 21.4609C165.413 21.4609 168.724 22.8296 171.1 25.567C173.475 28.3045 174.567 31.8563 174.359 36.2395H154.057C154.265 38.336 155.114 40.0338 156.605 41.3158C158.096 42.598 159.813 43.239 161.737 43.239C164.65 43.239 166.956 42.1648 168.672 40.0338L172.833 43.6028C170.198 46.9293 166.505 48.5925 161.737 48.5925H161.755Z" fill="white"/>
<path d="M178.051 48.1785V10.8594H183.842V33.885L194.366 21.913H201.457L190.465 34.3007L202.775 48.1785H195.458L183.842 35.0457V48.1785H178.051Z" fill="white"/>
<path d="M213.921 26.416C212.378 26.416 210.921 26.8838 209.552 27.802C208.182 28.7375 207.315 30.141 206.917 32.0295H220.908C220.631 30.2103 219.85 28.8068 218.567 27.854C217.284 26.8838 215.741 26.416 213.904 26.416H213.921ZM214.389 48.5925C210.627 48.5925 207.454 47.2933 204.836 44.6943C202.218 42.0955 200.918 38.873 200.918 35.0268C200.918 31.1805 202.201 27.9405 204.749 25.359C207.298 22.7603 210.488 21.4609 214.268 21.4609C218.047 21.4609 221.359 22.8296 223.734 25.567C226.109 28.3045 227.201 31.8563 226.994 36.2395H206.691C206.899 38.336 207.749 40.0338 209.24 41.3158C210.731 42.598 212.447 43.239 214.372 43.239C217.284 43.239 219.591 42.1648 221.307 40.0338L225.468 43.6028C222.832 46.9293 219.14 48.5925 214.372 48.5925H214.389Z" fill="white"/>
<path d="M247.652 42.5805H255.904C257.864 42.5805 259.389 42.0955 260.447 41.108C261.522 40.1377 262.059 38.8382 262.059 37.2097C262.059 35.581 261.522 34.299 260.447 33.2942C259.372 32.2892 257.864 31.8042 255.904 31.8042H247.652V42.5805ZM247.652 26.6065H254.172C255.817 26.6065 257.137 26.1387 258.124 25.1857C259.094 24.2329 259.597 23.0375 259.597 21.5648C259.597 20.0922 259.112 18.966 258.124 17.9958C257.154 17.0255 255.817 16.5231 254.172 16.5231H247.652V26.6237V26.6065ZM241.549 48.2115V10.875H254.587C257.882 10.875 260.552 11.8626 262.579 13.8204C264.607 15.7781 265.632 18.221 265.632 21.1317C265.632 24.2156 264.487 26.6412 262.217 28.391C266.169 30.1062 268.162 33.1382 268.162 37.487C268.162 40.7095 267.017 43.3082 264.712 45.266C262.424 47.2237 259.459 48.2115 255.852 48.2115H241.549Z" fill="white"/>
<path d="M284.201 43.2511C287.148 43.2511 289.421 42.0904 291.033 39.7861V30.3784C289.456 28.0221 287.183 26.8614 284.201 26.8614C281.931 26.8614 280.041 27.6409 278.566 29.2004C277.093 30.7596 276.366 32.7174 276.366 35.0564C276.366 37.3951 277.111 39.3531 278.566 40.9124C280.041 42.4716 281.913 43.2511 284.201 43.2511ZM291.033 48.2064V46.0059C289.073 47.7559 286.593 48.6394 283.611 48.6394C279.833 48.6394 276.678 47.3226 274.198 44.6891C271.701 42.0559 270.471 38.8506 270.471 35.0736C270.471 31.2966 271.718 28.0914 274.198 25.4579C276.693 22.8246 279.833 21.5078 283.611 21.5078C286.558 21.5078 289.021 22.4088 291.033 24.1933V21.941H296.823V48.2236H291.033V48.2064Z" fill="white"/>
<path d="M302.354 48.1908V21.908H308.144V24.3855C309.861 22.4624 312.341 21.4922 315.564 21.4922C318.789 21.4922 321.374 22.5144 323.299 24.5588C325.221 26.6033 326.194 29.3233 326.194 32.6845V48.1908H320.401V33.36C320.401 31.4023 319.881 29.8258 318.859 28.6303C317.819 27.4348 316.346 26.8458 314.421 26.8458C311.404 26.8458 309.324 28.2838 308.161 31.1598V48.1908H302.371H302.354Z" fill="white"/>
<path d="M331.373 48.194V10.875H337.166V33.9005L347.688 21.9113H354.778L343.788 34.3165L356.096 48.194H348.781L337.166 35.0615V48.194H331.373Z" fill="white"/>
</g>
</svg>
