<svg width="48" height="46" viewBox="0 0 48 46" fill="none" xmlns="http://www.w3.org/2000/svg">
<path fill-rule="evenodd" clip-rule="evenodd" d="M23.8221 0C30.3611 0 35.9751 3.24831 39.2443 8.92134L45.1908 19.2395C48.46 24.9126 48.46 31.4069 45.1914 37.0798C41.9215 42.753 36.3084 46 29.7693 46H17.8732C11.3347 46 5.7214 42.753 2.45157 37.0798C-0.817686 31.4069 -0.817089 24.9126 2.45276 19.2395L8.39989 8.92015C11.6691 3.2471 17.2836 0 23.8221 0ZM29.7691 42.4323C35.0002 42.4323 39.491 39.8348 42.1069 35.296C44.7222 30.7571 44.7222 25.5624 42.1063 21.0235L36.1593 10.7047C33.5445 6.1664 29.0532 3.56787 23.8221 3.56787C18.5915 3.56787 14.1001 6.1658 11.4843 10.7041L5.53715 21.0235C2.92067 25.5624 2.92008 30.7571 5.53656 35.296C8.15183 39.8348 12.6426 42.4323 17.8731 42.4323H29.7691ZM33.0751 12.4883C31.1138 9.08471 27.7449 7.13655 23.8217 7.13655C19.8984 7.13655 16.5303 9.08412 14.5684 12.4883L8.62071 22.8078C6.65879 26.2119 6.65879 30.1081 8.62011 33.5118C10.582 36.9154 13.9502 38.8641 17.8734 38.8641H29.7689C33.6927 38.8641 37.0609 36.9154 39.0228 33.5118C40.9841 30.1081 40.9841 26.2119 39.0222 22.8078L33.0751 12.4883ZM35.9377 31.7285C34.6303 33.998 32.384 35.2964 29.7687 35.2964H17.8734C15.2581 35.2964 13.0124 33.998 11.7045 31.7285C10.3971 29.4592 10.3971 26.8617 11.7045 24.5924L17.6528 14.2717C18.9607 12.0028 21.2058 10.7044 23.8217 10.7044C26.4375 10.7044 28.6825 12.0028 29.9905 14.2723L35.9371 24.5924C37.2456 26.8617 37.2456 29.4592 35.9377 31.7285ZM26.9062 16.056C26.2528 14.9213 25.1302 14.2721 23.8217 14.2721C22.5137 14.2721 21.3911 14.9213 20.7378 16.056L14.7895 26.376C14.1355 27.5109 14.1355 28.8098 14.7895 29.9439C15.4429 31.0791 16.5666 31.7283 17.8733 31.7283H29.7687C31.0766 31.7283 32.1992 31.0791 32.8538 29.9439C33.5072 28.8098 33.5072 27.5109 32.8538 26.376L26.9062 16.056ZM29.3275 27.9047C29.234 28.0673 29.0735 28.1604 28.8857 28.1604H23.8222H18.7585C18.5707 28.1604 18.4104 28.0673 18.3162 27.9047C18.222 27.7418 18.222 27.5561 18.3162 27.393L20.848 23.0004L23.3799 18.6072C23.474 18.4448 23.6344 18.3516 23.8222 18.3516C24.0099 18.3516 24.1703 18.4448 24.2638 18.6072L26.7958 23.0004L29.3275 27.393C29.4212 27.5561 29.4212 27.7418 29.3275 27.9047Z" fill="white"/>
</svg>
