<svg width="193" height="30" viewBox="0 0 193 30" fill="none" xmlns="http://www.w3.org/2000/svg">
<g clip-path="url(#clip0_7006_8427)">
<path fill-rule="evenodd" clip-rule="evenodd" d="M19.8225 0.580077C18.5777 1.26444 18.3675 1.77188 15.7967 10.2953C13.7432 17.1043 13.5492 18.0072 13.8756 19.2312C14.0897 20.0344 14.6308 20.868 15.1949 21.2634C16.4116 22.1162 39.2752 29.1443 40.8233 29.1415C42.5697 29.138 43.8963 28.277 44.494 26.759C45.6307 23.8726 48.9655 12.2013 48.9655 11.1099C48.9655 9.3624 48.1088 8.01954 46.6064 7.41211C43.4496 6.13591 23.0121 0.0634232 21.9174 0.076192C21.2551 0.0839866 20.3125 0.310938 19.8225 0.580077ZM33.7256 6.45292C40.0762 8.40783 45.4917 10.2297 45.7609 10.5014C46.1793 10.924 45.9346 12.041 44.0745 18.2058C42.8785 22.1712 41.6831 25.6391 41.4189 25.9126C41.0076 26.3373 39.2012 25.8753 28.9397 22.7212C22.1498 20.634 16.8622 18.8273 16.7601 18.5589C16.546 17.9979 20.3953 4.8544 21.1126 3.69664C21.3846 3.25765 21.7359 2.89879 21.8935 2.89879C22.0507 2.89879 27.3754 4.49803 33.7256 6.45292ZM6.13 5.29232C5.93592 5.82848 5.7078 6.46711 5.62322 6.71072C5.50495 7.05042 6.52271 7.15397 9.97787 7.15397H14.4866L14.8429 5.73557L15.1991 4.31718H10.8409H6.48236L6.13 5.29232ZM7.32325 12.473L6.94843 13.8913H9.66938C12.2506 13.8913 12.4008 13.8477 12.602 13.0378C12.7188 12.5684 12.9108 11.93 13.0287 11.6194C13.2137 11.1322 12.8628 11.0546 10.4706 11.0546H7.69771L7.32325 12.473ZM0.514714 19.1216C0.320635 19.6582 0.0925145 20.2964 0.00793426 20.54C-0.11104 20.8822 1.08361 20.9833 5.24453 20.9833H10.6352L10.8472 20.1298C10.9641 19.6602 11.156 19.022 11.274 18.7113C11.4642 18.21 10.8918 18.1465 6.17772 18.1465H0.867073L0.514714 19.1216ZM7.18286 25.1498C6.98878 25.6863 6.76066 26.3246 6.67609 26.5682C6.55641 26.9118 7.89215 27.0114 12.6146 27.0114H18.7071L18.9192 26.1579C19.036 25.6884 19.228 25.0501 19.346 24.7395C19.5369 24.2363 18.9041 24.1747 13.5478 24.1747H7.53522L7.18286 25.1498Z" fill="#01C3F4"/>
<path fill-rule="evenodd" clip-rule="evenodd" d="M23.029 6.85296C22.4235 8.60751 22.5268 8.77807 24.5357 9.34295L26.4276 9.8752L26.8411 8.48057C27.0684 7.71322 27.2044 7.04445 27.1425 6.99409C27.0317 6.90366 23.6445 5.73633 23.493 5.73633C23.4494 5.73633 23.2409 6.2388 23.029 6.85296Z" fill="#18181A"/>
<path fill-rule="evenodd" clip-rule="evenodd" d="M147.434 7.80843C147.434 10.9452 147.433 10.9481 146.716 10.2798C146.246 9.84183 145.277 9.557 143.912 9.45539C142.14 9.32332 141.591 9.44125 140.274 10.237C136.452 12.545 136.435 18.9842 140.246 21.2832C141.985 22.3329 145.541 22.285 146.709 21.1961C147.418 20.5346 147.434 20.5368 147.434 21.3028C147.434 21.973 147.634 22.0847 148.842 22.0847H150.251V13.3764V4.66797H148.842H147.434V7.80843ZM65.4515 9.975C64.8081 10.3128 63.8574 11.1625 63.3387 11.8636C62.5207 12.9689 62.395 13.4805 62.395 15.7065C62.395 18.7276 63.1753 20.1957 65.4036 21.3673C67.754 22.6029 72.107 22.1671 73.3947 20.567C73.7517 20.1232 73.6771 19.8772 72.9796 19.2023C72.1806 18.4287 72.0799 18.4141 71.321 18.9617C70.8485 19.3027 69.804 19.5448 68.804 19.5448C67.3839 19.5448 66.9201 19.3652 66.0652 18.4841C65.499 17.9007 65.0359 17.2475 65.0359 17.0328C65.0359 16.7726 66.6416 16.642 69.8343 16.642H74.6327L74.4613 14.8009C74.2806 12.8641 73.5453 11.5472 71.9647 10.3313C70.6579 9.32586 67.0624 9.1292 65.4515 9.975ZM77.9765 9.98661C77.2505 10.2972 76.656 10.7076 76.656 10.8992C76.656 11.1865 77.255 12.5752 77.5318 12.9294C77.5733 12.9826 78.067 12.7794 78.6284 12.4779C80.1404 11.6655 82.8313 11.757 83.6986 12.6506C84.9095 13.8985 84.6106 14.463 82.7302 14.4808C78.7984 14.5179 76.5793 15.6002 76.1955 17.6685C75.9363 19.0669 76.7853 20.8587 78.0195 21.5165C79.3769 22.2397 82.0204 22.2469 83.364 21.531C84.2951 21.035 84.4029 21.035 84.4029 21.531C84.4029 21.9352 84.7835 22.0847 85.8113 22.0847H87.2198V17.531C87.2198 12.4093 86.8821 11.2772 85.0017 10.0962C83.6003 9.21555 79.9153 9.15822 77.9765 9.98661ZM91.7615 10.2148C90.0766 11.384 89.5266 12.6903 90.0421 14.3002C90.5224 15.7998 91.5467 16.4232 94.4352 16.9736C95.5877 17.1931 96.7673 17.6166 97.0568 17.9145C98.5152 19.4174 94.5458 20.2839 91.7394 19.0749C90.4517 18.52 90.4485 18.5212 90.0329 19.5542C89.4945 20.8939 89.691 21.1649 91.5985 21.7154C93.8447 22.3634 97.5304 22.0583 98.7452 21.1238C100.512 19.7647 100.699 16.8379 99.0893 15.7508C98.6511 15.4555 97.2275 14.9834 95.9254 14.7018C93.1359 14.0995 92.3672 13.5875 92.8517 12.6547C93.3253 11.7424 95.2559 11.4681 97.1244 12.0476C98.7097 12.5393 98.7135 12.5381 99.2995 11.4863L99.8864 10.4322L98.6702 9.9086C96.7142 9.06642 93.1922 9.22245 91.7615 10.2148ZM101.04 9.81535C101.139 10.0777 102.3 12.8698 103.62 16.0205L106.021 21.7483L104.889 24.1138L103.757 26.4792L105.432 26.3685L107.106 26.2575L110.683 17.912L114.259 9.56644L113.206 9.45032C112.627 9.38609 111.971 9.40823 111.747 9.49894C111.523 9.58965 110.548 11.5585 109.58 13.8738C108.611 16.1891 107.735 18.0858 107.633 18.0886C107.531 18.0912 106.655 16.175 105.687 13.8299L103.927 9.56644L102.393 9.4525C101.239 9.36686 100.904 9.45649 101.04 9.81535ZM118.383 9.89916C117.802 10.1666 116.901 10.8542 116.38 11.4272C112.547 15.6503 115.5 22.0847 121.273 22.0847C123.354 22.0847 124.633 21.5502 125.901 20.1519L126.729 19.2386L125.624 18.65C124.578 18.0923 124.471 18.1007 123.604 18.8031C120.573 21.2603 116.345 17.6322 118.015 14.0063C118.984 11.9017 121.822 11.2218 123.604 12.6666C124.471 13.369 124.578 13.3774 125.624 12.8197L126.729 12.2312L125.901 11.3179C125.446 10.8157 124.646 10.1753 124.123 9.89481C122.929 9.25511 119.778 9.25765 118.383 9.89916ZM129.122 15.7131V22.0847H130.531H131.939V18.0771C131.939 14.3357 131.996 14.0113 132.781 13.2026C133.243 12.7257 134.193 12.2254 134.893 12.0901C136.069 11.8629 136.165 11.7467 136.165 10.5668V9.28957L134.729 9.48805C133.939 9.59691 133.016 9.94525 132.677 10.2613C131.875 11.0102 131.532 10.9899 131.66 10.2014C131.741 9.70576 131.474 9.54176 130.443 9.45395L129.122 9.3411V15.7131ZM155.312 9.90642C153.067 10.9133 152.353 13.5905 153.859 15.3498C154.445 16.0331 155.387 16.4453 157.467 16.9258C159.606 17.4206 160.311 17.7345 160.404 18.2364C160.472 18.5991 160.365 19.0636 160.167 19.2683C159.614 19.838 156.099 19.6775 154.878 19.027C153.806 18.4559 153.787 18.4617 153.255 19.5234C152.957 20.1141 152.715 20.6693 152.715 20.7574C152.715 21.2683 155.871 22.0847 157.846 22.0847C161.442 22.0847 163.279 20.7175 163.279 18.0389C163.279 16.2316 162.225 15.4257 158.852 14.6521C156.028 14.0048 155.367 13.3902 156.378 12.3502C157.057 11.6513 159.909 11.5948 161.108 12.2562C161.753 12.611 161.915 12.5262 162.387 11.586C163.103 10.159 163.12 10.2003 161.606 9.76709C159.782 9.24495 156.632 9.31461 155.312 9.90642ZM171.377 15.7349V22.0847H172.755H174.132L174.252 18.1217C174.36 14.5226 174.448 14.073 175.219 13.2286C175.686 12.7175 176.597 12.1967 177.244 12.0715C178.302 11.8669 178.42 11.7214 178.42 10.6147C178.42 9.5149 178.318 9.385 177.451 9.38646C176.919 9.38718 175.969 9.71121 175.339 10.1067C174.198 10.8237 174.194 10.8237 174.194 10.1053C174.194 9.50693 173.956 9.385 172.786 9.385H171.377V15.7349ZM180.885 13.7509C180.885 18.7872 181.303 20.2426 183.065 21.3495C184.617 22.3246 187.355 22.3307 188.896 21.363C190.037 20.6461 190.04 20.6461 190.04 21.3645C190.04 21.9628 190.279 22.0847 191.448 22.0847H192.857V15.7349V9.385H191.448H190.04V12.8437C190.04 17.8695 189.176 19.5448 186.581 19.5448C186.009 19.5448 185.167 19.233 184.71 18.8522C183.932 18.2045 183.87 17.8717 183.76 13.7722L183.643 9.385H182.264H180.885V13.7509ZM70.9341 12.852C72.4056 14.5752 72.0792 14.8278 68.3812 14.8278C64.7979 14.8278 64.5028 14.6427 65.6599 13.1202C66.9983 11.36 69.5491 11.23 70.9341 12.852ZM146.404 12.9855C147.246 13.8538 147.434 14.3524 147.434 15.7349C147.434 18.0484 146.05 19.5448 143.912 19.5448C141.774 19.5448 140.391 18.0484 140.391 15.7349C140.391 13.4214 141.774 11.9249 143.912 11.9249C145.059 11.9249 145.597 12.1539 146.404 12.9855ZM84.4029 17.5226C84.4029 18.7403 82.8629 19.9076 81.2566 19.9076C79.7769 19.9076 79.121 19.3892 79.121 18.2204C79.121 17.0919 80.0062 16.666 82.3781 16.6529C84.2898 16.6427 84.4029 16.691 84.4029 17.5226ZM166.057 18.3336C165.745 18.4196 165.304 18.9105 165.077 19.4246C164.506 20.7131 165.364 22.0847 166.738 22.0847C167.975 22.0847 168.561 21.4857 168.561 20.2186C168.561 19.347 167.425 17.9961 166.809 18.1355C166.707 18.1587 166.369 18.248 166.057 18.3336Z" fill="#18181A"/>
</g>
<defs>
<clipPath id="clip0_7006_8427">
<rect width="192.857" height="30" fill="white"/>
</clipPath>
</defs>
</svg>
