<svg width="56" height="56" viewBox="0 0 56 56" fill="none" xmlns="http://www.w3.org/2000/svg">
<path d="M0 28C0 12.536 12.536 0 28 0C43.464 0 56 12.536 56 28C56 43.464 43.464 56 28 56C12.536 56 0 43.464 0 28Z" fill="#E9F8F1"/>
<g filter="url(#filter0_d_34_26111)">
<path fill-rule="evenodd" clip-rule="evenodd" d="M28 16C22.8454 16 18.6667 20.1787 18.6667 25.3333C18.6667 28.7392 20.491 31.719 23.2157 33.3488C23.3265 33.3386 23.44 33.3333 23.5556 33.3333H26.6667V29.3333H25.3334C24.597 29.3333 24 28.7364 24 28C24 27.2636 24.597 26.6667 25.3334 26.6667H28H30.6667C31.4031 26.6667 32 27.2636 32 28C32 28.7364 31.4031 29.3333 30.6667 29.3333H29.3334V33.3333H32.4445C32.56 33.3333 32.6735 33.3386 32.7843 33.3488C35.5091 31.719 37.3334 28.7392 37.3334 25.3333C37.3334 20.1787 33.1547 16 28 16ZM24 37.3333L24 36L32 36V37.3333C32 38.8061 30.8061 40 29.3334 40H26.6667C25.1939 40 24 38.8061 24 37.3333Z" fill="#27B973"/>
</g>
<defs>
<filter id="filter0_d_34_26111" x="16.6667" y="15" width="22.6667" height="28" filterUnits="userSpaceOnUse" color-interpolation-filters="sRGB">
<feFlood flood-opacity="0" result="BackgroundImageFix"/>
<feColorMatrix in="SourceAlpha" type="matrix" values="0 0 0 0 0 0 0 0 0 0 0 0 0 0 0 0 0 0 127 0" result="hardAlpha"/>
<feOffset dy="1"/>
<feGaussianBlur stdDeviation="1"/>
<feComposite in2="hardAlpha" operator="out"/>
<feColorMatrix type="matrix" values="0 0 0 0 0.0627451 0 0 0 0 0.0941176 0 0 0 0 0.156863 0 0 0 0.04 0"/>
<feBlend mode="normal" in2="BackgroundImageFix" result="effect1_dropShadow_34_26111"/>
<feBlend mode="normal" in="SourceGraphic" in2="effect1_dropShadow_34_26111" result="shape"/>
</filter>
</defs>
</svg>
