<svg width="56" height="56" viewBox="0 0 56 56" fill="none" xmlns="http://www.w3.org/2000/svg">
<path d="M0 28C0 12.536 12.536 0 28 0C43.464 0 56 12.536 56 28C56 43.464 43.464 56 28 56C12.536 56 0 43.464 0 28Z" fill="#E9F8F1"/>
<path d="M14.6667 18.6667C14.6667 16.4576 16.4575 14.6667 18.6667 14.6667H22.6667C24.8758 14.6667 26.6667 16.4576 26.6667 18.6667V22.6667C26.6667 24.8759 24.8758 26.6667 22.6667 26.6667H18.6667C16.4575 26.6667 14.6667 24.8759 14.6667 22.6667V18.6667Z" fill="#27B973"/>
<path d="M14.6667 33.3334C14.6667 31.1243 16.4575 29.3334 18.6667 29.3334H22.6667C24.8758 29.3334 26.6667 31.1243 26.6667 33.3334V37.3334C26.6667 39.5426 24.8758 41.3334 22.6667 41.3334H18.6667C16.4575 41.3334 14.6667 39.5426 14.6667 37.3334V33.3334Z" fill="#27B973"/>
<path d="M29.3334 18.6667C29.3334 16.4576 31.1242 14.6667 33.3334 14.6667H37.3334C39.5425 14.6667 41.3334 16.4576 41.3334 18.6667V22.6667C41.3334 24.8759 39.5425 26.6667 37.3334 26.6667H33.3334C31.1242 26.6667 29.3334 24.8759 29.3334 22.6667V18.6667Z" fill="#27B973"/>
<path d="M36.6667 30.6667C36.6667 29.9304 36.0697 29.3334 35.3334 29.3334C34.597 29.3334 34 29.9304 34 30.6667V34.0001H30.6667C29.9303 34.0001 29.3334 34.597 29.3334 35.3334C29.3334 36.0698 29.9303 36.6667 30.6667 36.6667H34V40.0001C34 40.7365 34.597 41.3334 35.3334 41.3334C36.0697 41.3334 36.6667 40.7365 36.6667 40.0001V36.6667H40C40.7364 36.6667 41.3334 36.0698 41.3334 35.3334C41.3334 34.597 40.7364 34.0001 40 34.0001H36.6667V30.6667Z" fill="#27B973"/>
</svg>
