<svg width="56" height="56" viewBox="0 0 56 56" fill="none" xmlns="http://www.w3.org/2000/svg">
<path d="M0 28C0 12.536 12.536 0 28 0C43.464 0 56 12.536 56 28C56 43.464 43.464 56 28 56C12.536 56 0 43.464 0 28Z" fill="#E9F8F1"/>
<g clip-path="url(#clip0_34_26125)">
<g filter="url(#filter0_d_34_26125)">
<path fill-rule="evenodd" clip-rule="evenodd" d="M28 41.3334C35.3638 41.3334 41.3334 35.3639 41.3334 28.0001C41.3334 20.6363 35.3638 14.6667 28 14.6667C20.6362 14.6667 14.6667 20.6363 14.6667 28.0001C14.6667 35.3639 20.6362 41.3334 28 41.3334ZM21.3334 24.6667C21.3334 23.5622 22.2288 22.6667 23.3334 22.6667C24.4379 22.6667 25.3334 23.5622 25.3334 24.6667C25.3334 25.7713 24.4379 26.6667 23.3334 26.6667C22.2288 26.6667 21.3334 25.7713 21.3334 24.6667ZM30.3852 24.6667C30.3852 23.5622 31.2806 22.6667 32.3852 22.6667C33.4897 22.6667 34.3852 23.5622 34.3852 24.6667C34.3852 25.7713 33.4897 26.6667 32.3852 26.6667C31.2806 26.6667 30.3852 25.7713 30.3852 24.6667ZM23.8595 31.4041C23.5302 30.7455 22.7293 30.4785 22.0707 30.8078C21.4121 31.1371 21.1451 31.938 21.4744 32.5967C22.1346 33.9171 24.2731 36.0004 28.0003 36.0004C31.7275 36.0004 33.866 33.9171 34.5262 32.5967C34.8555 31.938 34.5886 31.1371 33.9299 30.8078C33.2713 30.4785 32.4704 30.7455 32.1411 31.4041C31.9124 31.8614 30.6731 33.3337 28.0003 33.3337C25.3275 33.3337 24.0882 31.8614 23.8595 31.4041Z" fill="#27B973"/>
</g>
</g>
<defs>
<filter id="filter0_d_34_26125" x="12.6667" y="13.6667" width="30.6667" height="30.6667" filterUnits="userSpaceOnUse" color-interpolation-filters="sRGB">
<feFlood flood-opacity="0" result="BackgroundImageFix"/>
<feColorMatrix in="SourceAlpha" type="matrix" values="0 0 0 0 0 0 0 0 0 0 0 0 0 0 0 0 0 0 127 0" result="hardAlpha"/>
<feOffset dy="1"/>
<feGaussianBlur stdDeviation="1"/>
<feComposite in2="hardAlpha" operator="out"/>
<feColorMatrix type="matrix" values="0 0 0 0 0.0627451 0 0 0 0 0.0941176 0 0 0 0 0.156863 0 0 0 0.04 0"/>
<feBlend mode="normal" in2="BackgroundImageFix" result="effect1_dropShadow_34_26125"/>
<feBlend mode="normal" in="SourceGraphic" in2="effect1_dropShadow_34_26125" result="shape"/>
</filter>
<clipPath id="clip0_34_26125">
<rect width="32" height="32" fill="white" transform="translate(12 12)"/>
</clipPath>
</defs>
</svg>
