<svg width="405" height="72" viewBox="0 0 405 72" fill="none" xmlns="http://www.w3.org/2000/svg">
<path d="M15.4887 49.0066H40.4842C41.8282 49.0066 42.8137 48.4542 43.438 47.3496L55.4675 26.1628C56.0918 25.0582 56.0918 23.9277 55.4675 22.7766L43.438 1.65695C42.8137 0.552317 41.8282 0 40.4842 0H15.4887C14.1446 0 13.1592 0.552317 12.5348 1.65695L0.505339 22.7741C-0.118967 23.9277 -0.118967 25.0556 0.505339 26.1602L12.5348 47.347C13.1592 48.4517 14.142 49.004 15.4887 49.004V49.0066ZM11.7429 24.5033L19.9543 10.0888H36.0186L44.23 24.5033L36.0186 38.9177H19.9543L11.7429 24.5033Z" fill="#72FB66"/>
<path d="M69.0122 47.0605L71.3186 40.936H98.1147L100.421 47.0605C100.901 48.3587 101.886 49.0066 103.375 49.0066H109.497C110.407 49.0066 111.057 48.7304 111.442 48.1781C111.826 47.6258 111.849 46.916 111.514 46.0514L94.4385 1.94602C93.9587 0.647811 92.999 0 91.5569 0H77.8712C76.4317 0 75.4694 0.647811 74.9896 1.94602L57.9166 46.0514C57.5812 46.916 57.6045 47.6258 57.9889 48.1781C58.3732 48.7304 59.0208 49.0066 59.934 49.0066H66.0558C67.5444 49.0066 68.5298 48.3587 69.0097 47.0605H69.0122ZM73.2611 35.7458L82.8424 10.4502H86.5883L94.4411 31.2782H81.9782C80.3942 31.2782 79.0011 32.0473 77.799 33.5855L75.8538 36.1071C75.5649 36.5407 75.1341 36.7549 74.5562 36.7549H73.9809C73.3566 36.7549 73.1167 36.4194 73.2611 35.7458Z" fill="#72FB66"/>
<path d="M166.4 48.142C166.59 47.5664 166.423 46.9418 165.896 46.2682L149.257 24.2865L165.177 2.73836C165.706 2.06732 165.873 1.44015 165.68 0.864609C165.486 0.289063 164.983 0 164.168 0H156.821C155.523 0 154.515 0.50328 153.795 1.51242L129.808 34.7341C129.615 35.0231 129.305 35.1677 128.872 35.1677H127.791C127.502 35.1677 127.324 35.0722 127.251 34.8786C127.179 34.6876 127.215 34.494 127.36 34.303L129.233 31.5647C129.762 30.7956 130.025 29.74 130.025 28.3927V2.52156C130.025 0.841381 129.184 0 127.504 0H121.452C119.77 0 118.932 0.841381 118.932 2.52156V46.4824C118.932 48.1652 119.77 49.004 121.452 49.004H129.088C130.337 49.004 131.418 48.4026 132.331 47.2025L143.065 32.6461L154.159 47.4916C154.878 48.5007 155.887 49.004 157.185 49.004H164.893C165.708 49.004 166.214 48.7149 166.405 48.1394L166.4 48.142Z" fill="#72FB66"/>
<path d="M226.333 1.87375C225.18 0.624583 224.171 0 223.307 0H215.24C214.136 0 213.127 0.529089 212.214 1.58469L209.477 4.75664H207.315L204.578 1.58469C203.665 0.529089 202.656 0 201.552 0H191.971C190.866 0 189.858 0.529089 188.945 1.58469L186.207 4.75664H184.768C184.288 4.75664 184.048 4.51661 184.048 4.03656V2.52414C184.048 0.843962 183.207 0.00258092 181.528 0.00258092H175.476C173.794 0.00258092 172.955 0.843962 172.955 2.52414V46.485C172.955 48.1678 173.794 49.0066 175.476 49.0066H181.528C183.207 49.0066 184.048 48.1678 184.048 46.485V11.5316C184.048 10.5715 184.528 10.0914 185.488 10.0914H194.78C195.74 10.0914 196.22 10.5715 196.22 11.5316V46.485C196.22 48.1678 197.058 49.0066 198.74 49.0066H204.792C206.472 49.0066 207.313 48.1678 207.313 46.485V11.5316C207.313 10.5715 207.792 10.0914 208.752 10.0914H218.044C219.004 10.0914 219.484 10.5715 219.484 11.5316V46.485C219.484 48.1678 220.325 49.0066 222.004 49.0066H228.057C229.736 49.0066 230.577 48.1678 230.577 46.485V8.28734C230.577 7.08721 230.169 6.05226 229.352 5.18765L226.326 1.87375H226.333Z" fill="#72FB66"/>
<path d="M281.512 1.65695C280.888 0.552317 279.902 0 278.558 0H253.563C252.219 0 251.233 0.552317 250.609 1.65695L238.58 22.7715C237.955 23.9252 237.955 25.053 238.58 26.1576L250.609 47.3444C251.233 48.4491 252.219 49.0014 253.563 49.0014H278.558C279.902 49.0014 280.888 48.4491 281.512 47.3444L293.542 26.1576C294.166 25.053 294.166 23.9226 293.542 22.7715L281.512 1.65695ZM274.093 38.9151H258.029L249.817 24.5007L258.029 10.0862H274.093L282.304 24.5007L274.093 38.9151Z" fill="#72FB66"/>
<path d="M346.559 0H340.507C338.825 0 337.986 0.841381 337.986 2.52156V29.9077C337.986 31.4924 338.249 32.8164 338.778 33.872L340.723 37.6195C340.914 37.9551 340.963 38.257 340.868 38.5203C340.77 38.7861 340.579 38.9177 340.293 38.9177H339.356C338.925 38.9177 338.636 38.75 338.492 38.4145L319.043 1.80148C318.468 0.601355 317.482 0 316.089 0H304.06C302.377 0 301.539 0.841381 301.539 2.52156V46.4824C301.539 48.1652 302.377 49.004 304.06 49.004H310.112C311.791 49.004 312.632 48.1652 312.632 46.4824V19.0962C312.632 17.5116 312.366 16.1901 311.84 15.132L309.895 11.3845C309.701 11.0489 309.655 10.7495 309.751 10.4837C309.846 10.2205 310.039 10.0862 310.326 10.0862H311.262C311.696 10.0862 311.982 10.254 312.126 10.5895L331.575 47.1999C332.151 48.4026 333.136 49.0014 334.529 49.0014H346.559C348.238 49.0014 349.079 48.1626 349.079 46.4798V2.52156C349.079 0.841381 348.238 0 346.559 0Z" fill="#72FB66"/>
<path d="M401.665 0H359.524C357.842 0 357.004 0.841381 357.004 2.52156V7.56727C357.004 9.25003 357.842 10.0888 359.524 10.0888H375.444V46.4824C375.444 48.1652 376.283 49.004 377.965 49.004H384.017C385.696 49.004 386.537 48.1652 386.537 46.4824V17.8006C386.537 16.5515 386.008 15.5423 384.953 14.7732L381.927 12.5381C381.638 12.3471 381.494 12.0581 381.494 11.6735V10.8089C381.494 10.3289 381.734 10.0888 382.214 10.0888H401.662C403.342 10.0888 404.183 9.25003 404.183 7.56727V2.52156C404.183 0.841381 403.342 0 401.662 0H401.665Z" fill="#72FB66"/>
<path d="M4.24116 61.3128C4.79065 60.9463 5.47945 60.7631 6.3024 60.7631C7.20532 60.7631 7.94056 60.9824 8.51327 61.4186C9.08598 61.8548 9.491 62.4665 9.73092 63.2562L12.2024 62.5697C11.787 61.305 11.0724 60.3036 10.0586 59.5629C9.0447 58.8222 7.79093 58.4531 6.29982 58.4531C4.99961 58.4531 3.87999 58.737 2.93837 59.3022C1.99675 59.8675 1.27183 60.6598 0.763614 61.6767C0.255398 62.6936 0 63.8756 0 65.2255C0 66.5753 0.255398 67.7574 0.763614 68.7742C1.27183 69.7911 1.99675 70.5835 2.93837 71.1487C3.87999 71.7139 4.99961 71.9978 6.29982 71.9978C7.79093 71.9978 9.0447 71.6287 10.0586 70.888C11.0724 70.1473 11.787 69.1459 12.2024 67.8812L9.73092 67.1947C9.491 67.9767 9.0834 68.5884 8.51327 69.0272C7.94056 69.4659 7.20532 69.6853 6.3024 69.6853C5.47687 69.6853 4.79065 69.5021 4.24116 69.1356C3.69166 68.7691 3.27632 68.2503 3.00028 67.5818C2.72425 66.9134 2.58494 66.1288 2.58494 65.2255C2.58494 64.3221 2.72425 63.5375 3.00028 62.8691C3.27632 62.2006 3.69166 61.6844 4.24116 61.3154V61.3128Z" fill="white"/>
<path d="M16.898 58.7188L12.9277 71.7189H15.4533L16.2763 69.0115H21.1701L22.006 71.7189H24.5316L20.5613 58.7188H16.898ZM16.9754 66.7196L18.7064 61.0209L20.4633 66.7196H16.9754Z" fill="white"/>
<path d="M34.636 59.5654C34.1407 59.1731 33.5035 58.9176 32.7269 58.7988C32.5593 58.7679 32.3684 58.7498 32.1542 58.7395C31.9401 58.7291 31.7698 58.7266 31.6434 58.7266H26.1562V71.7267H28.6096V67.321H31.6409C31.7621 67.321 31.9298 67.3159 32.1465 67.303C32.3632 67.2901 32.5567 67.272 32.7244 67.2488C33.4931 67.1275 34.1278 66.872 34.6231 66.4822C35.1184 66.0925 35.4873 65.5996 35.7246 65.0059C35.962 64.4123 36.0807 63.7516 36.0807 63.0238C36.0807 62.296 35.962 61.6353 35.7298 61.0417C35.495 60.448 35.1287 59.9577 34.6334 59.5654H34.636ZM33.506 63.7671C33.4364 64.0278 33.3126 64.2678 33.132 64.4794C32.9514 64.6937 32.696 64.8459 32.3658 64.9363C32.2394 64.9724 32.1001 64.9956 31.9504 65.0085C31.8008 65.0214 31.6615 65.0266 31.5351 65.0266H28.6122V61.0184H31.5351C31.6615 61.0184 31.8008 61.0236 31.9504 61.0365C32.1001 61.0494 32.2394 61.0726 32.3658 61.1088C32.696 61.1991 32.9514 61.3514 33.132 61.5656C33.3126 61.7798 33.4364 62.0172 33.506 62.2779C33.5757 62.5386 33.6092 62.7889 33.6092 63.0238C33.6092 63.2587 33.5757 63.5064 33.506 63.7697V63.7671Z" fill="white"/>
<path d="M40.5263 58.7188H38.0703V71.7189H40.5263V58.7188Z" fill="white"/>
<path d="M42.1484 61.0132H46.2451V71.7189H48.6985V61.0132H52.7952V58.7188H42.1484V61.0132Z" fill="white"/>
<path d="M56.9488 58.7188L52.9785 71.7189H55.5041L56.3271 69.0115H61.2209L62.0568 71.7189H64.5824L60.6121 58.7188H56.9488ZM57.0236 66.7196L58.7546 61.0209L60.5115 66.7196H57.0236Z" fill="white"/>
<path d="M68.8407 58.7188H66.3848V71.7189H74.4363V69.427H68.8407V58.7188Z" fill="white"/>
<path d="M81.3153 58.7188H78.8594V71.7189H81.3153V58.7188Z" fill="white"/>
<path d="M92.1607 67.3855L86.511 58.7188H84.0215V71.7189H86.511V63.0521L92.1607 71.7189H94.6502V58.7188H92.1607V67.3855Z" fill="white"/>
<path d="M101.78 69.4089L98.5295 58.7188H96.0039L99.9742 71.7189H103.637L107.608 58.7188H105.082L101.78 69.4089Z" fill="white"/>
<path d="M108.963 71.7189H117.445V69.427H111.419V66.0873H116.364V63.7928H111.419V61.0132H117.445V58.7188H108.963V71.7189Z" fill="white"/>
<path d="M128.443 65.1974C128.066 64.9367 127.674 64.7302 127.266 64.5831C126.856 64.436 126.485 64.3173 126.147 64.2269L123.889 63.6127C123.613 63.5404 123.342 63.4501 123.077 63.3417C122.811 63.2333 122.592 63.0913 122.419 62.9132C122.243 62.7352 122.158 62.5055 122.158 62.2216C122.158 61.9144 122.264 61.6512 122.478 61.4266C122.692 61.2047 122.968 61.0343 123.309 60.9156C123.649 60.7995 124.011 60.7453 124.398 60.7582C124.79 60.7711 125.164 60.8511 125.52 61.0034C125.878 61.1531 126.185 61.3724 126.446 61.6615C126.704 61.9506 126.882 62.3067 126.977 62.7274L129.629 62.2758C129.418 61.4628 129.075 60.7762 128.6 60.2136C128.125 59.651 127.535 59.2225 126.83 58.9283C126.126 58.6341 125.326 58.4792 124.429 58.4689C123.538 58.4637 122.726 58.6005 121.993 58.8844C121.258 59.1683 120.672 59.5968 120.234 60.1749C119.795 60.753 119.576 61.4782 119.576 62.3506C119.576 62.97 119.679 63.4836 119.888 63.8888C120.094 64.294 120.355 64.6218 120.67 64.8696C120.982 65.1173 121.307 65.3058 121.64 65.4374C121.973 65.569 122.267 65.6722 122.519 65.7445L125.894 66.7382C126.147 66.8156 126.356 66.9033 126.521 66.9988C126.686 67.0943 126.815 67.1976 126.905 67.306C126.995 67.4144 127.06 67.5305 127.099 67.6544C127.137 67.7783 127.158 67.9047 127.158 68.039C127.158 68.4003 127.037 68.7048 126.792 68.95C126.549 69.1978 126.237 69.3836 125.858 69.5101C125.478 69.6365 125.086 69.6985 124.684 69.6985C123.962 69.6985 123.319 69.4972 122.752 69.0946C122.187 68.6919 121.813 68.1164 121.632 67.3705L119.07 67.7499C119.202 68.63 119.517 69.3862 120.015 70.0211C120.51 70.656 121.144 71.1438 121.918 71.4845C122.692 71.8252 123.559 71.9955 124.521 71.9955C125.182 71.9955 125.824 71.9103 126.448 71.7426C127.07 71.5748 127.63 71.3193 128.123 70.9786C128.615 70.6379 129.008 70.2069 129.299 69.6882C129.591 69.1668 129.738 68.5577 129.738 67.8609C129.738 67.2053 129.616 66.6633 129.371 66.2349C129.129 65.8065 128.817 65.4632 128.443 65.2025V65.1974Z" fill="white"/>
<path d="M130.637 61.0132H134.733V71.7189H137.189V61.0132H141.286V58.7188H130.637V61.0132Z" fill="white"/>
<path d="M149.226 67.3494L144.931 58.7188H142.73V71.7189H145.021V63.9554L148.793 71.7189H149.66L153.431 63.9554V71.7189H155.725V58.7188H153.522L149.226 67.3494Z" fill="white"/>
<path d="M158.252 71.7189H166.734V69.427H160.708V66.0873H165.653V63.7928H160.708V61.0132H166.734V58.7188H158.252V71.7189Z" fill="white"/>
<path d="M177.04 67.3855L171.39 58.7188H168.9V71.7189H171.39V63.0521L177.04 71.7189H179.532V58.7188H177.04V67.3855Z" fill="white"/>
<path d="M180.975 61.0132H185.071V71.7189H187.527V61.0132H191.624V58.7188H180.975V61.0132Z" fill="white"/>
</svg>
