<svg width="144" height="35" viewBox="0 0 144 35" fill="none" xmlns="http://www.w3.org/2000/svg">
<path d="M1.30772 19.648C1.30772 18.864 1.29972 18.128 1.28372 17.44C1.28372 16.752 1.26772 16.112 1.23572 15.52L4.69172 15.424L4.95572 16.912H5.07572C5.33172 16.672 5.65972 16.424 6.05972 16.168C6.45972 15.912 6.91572 15.696 7.42772 15.52C7.93972 15.328 8.49972 15.232 9.10772 15.232C9.87572 15.232 10.5237 15.368 11.0517 15.64C11.5957 15.912 12.0277 16.288 12.3477 16.768C12.6837 17.248 12.9237 17.816 13.0677 18.472C13.2277 19.128 13.3077 19.832 13.3077 20.584V28H9.25172V20.68C9.25172 20.296 9.20372 19.968 9.10772 19.696C9.02772 19.408 8.90772 19.168 8.74772 18.976C8.60372 18.784 8.41972 18.648 8.19572 18.568C7.98772 18.488 7.75572 18.448 7.49972 18.448C7.17972 18.448 6.89172 18.496 6.63572 18.592C6.37972 18.688 6.14772 18.816 5.93972 18.976C5.73172 19.136 5.53972 19.296 5.36372 19.456V28H1.30772V19.648ZM21.9093 28.288C20.4853 28.288 19.2853 28.04 18.3093 27.544C17.3493 27.032 16.6133 26.304 16.1013 25.36C15.5893 24.4 15.3333 23.248 15.3333 21.904C15.3333 21.04 15.4613 20.216 15.7173 19.432C15.9733 18.632 16.3573 17.92 16.8693 17.296C17.3813 16.656 18.0293 16.152 18.8133 15.784C19.6133 15.416 20.5493 15.232 21.6213 15.232C22.7253 15.232 23.6533 15.432 24.4053 15.832C25.1573 16.232 25.7413 16.784 26.1573 17.488C26.5733 18.192 26.8373 19 26.9493 19.912C27.0773 20.808 27.0613 21.76 26.9013 22.768H17.4693L19.6533 21.16C19.3013 22.136 19.2053 22.928 19.3653 23.536C19.5253 24.144 19.8853 24.592 20.4453 24.88C21.0053 25.168 21.6773 25.312 22.4613 25.312C23.0533 25.312 23.6693 25.256 24.3093 25.144C24.9653 25.016 25.5413 24.88 26.0373 24.736L26.4453 27.496C25.7573 27.752 25.0133 27.944 24.2133 28.072C23.4133 28.216 22.6453 28.288 21.9093 28.288ZM17.4933 20.656H23.3493C23.3653 20.576 23.3733 20.512 23.3733 20.464C23.3733 20.416 23.3733 20.376 23.3733 20.344C23.3733 19.928 23.3173 19.552 23.2053 19.216C23.0933 18.864 22.9013 18.576 22.6293 18.352C22.3573 18.128 21.9813 18.016 21.5013 18.016C20.9413 18.016 20.4853 18.192 20.1333 18.544C19.7813 18.88 19.5413 19.32 19.4133 19.864C19.3013 20.408 19.3013 20.976 19.4133 21.568L17.4933 20.656ZM33.2583 28.288C32.1703 28.288 31.3143 28.048 30.6903 27.568C30.0823 27.072 29.6503 26.408 29.3943 25.576C29.1543 24.744 29.0343 23.832 29.0343 22.84V15.52H33.0903V22.792C33.0903 23.528 33.2263 24.096 33.4983 24.496C33.7703 24.88 34.2263 25.072 34.8663 25.072C35.1703 25.072 35.4423 25.024 35.6823 24.928C35.9383 24.832 36.1623 24.712 36.3543 24.568C36.5623 24.408 36.7463 24.24 36.9063 24.064V15.52H40.9623V23.872C40.9623 24.656 40.9623 25.392 40.9623 26.08C40.9783 26.768 41.0023 27.408 41.0343 28H38.2263L37.3383 26.416H37.2423C36.9863 26.704 36.6583 26.992 36.2583 27.28C35.8583 27.568 35.4023 27.808 34.8903 28C34.3783 28.192 33.8343 28.288 33.2583 28.288ZM43.589 28V19.576C43.589 18.68 43.581 17.92 43.565 17.296C43.549 16.672 43.533 16.08 43.517 15.52L46.973 15.424L47.309 17.416H47.381C47.845 16.744 48.421 16.2 49.109 15.784C49.797 15.368 50.621 15.2 51.581 15.28V18.832C50.829 18.736 50.093 18.76 49.373 18.904C48.669 19.032 48.093 19.36 47.645 19.888V28H43.589ZM59.2195 28.288C58.4195 28.288 57.6355 28.168 56.8675 27.928C56.0995 27.672 55.4035 27.288 54.7795 26.776C54.1715 26.264 53.6835 25.592 53.3155 24.76C52.9475 23.928 52.7635 22.928 52.7635 21.76C52.7635 20.592 52.9475 19.592 53.3155 18.76C53.6835 17.928 54.1715 17.256 54.7795 16.744C55.4035 16.232 56.0995 15.856 56.8675 15.616C57.6355 15.36 58.4195 15.232 59.2195 15.232C60.0195 15.232 60.8035 15.36 61.5715 15.616C62.3555 15.856 63.0515 16.232 63.6595 16.744C64.2835 17.256 64.7715 17.928 65.1235 18.76C65.4915 19.592 65.6755 20.592 65.6755 21.76C65.6755 22.928 65.4915 23.928 65.1235 24.76C64.7715 25.592 64.2835 26.264 63.6595 26.776C63.0515 27.288 62.3555 27.672 61.5715 27.928C60.8035 28.168 60.0195 28.288 59.2195 28.288ZM59.2195 25.36C59.5555 25.36 59.8595 25.296 60.1315 25.168C60.4035 25.04 60.6435 24.84 60.8515 24.568C61.0595 24.296 61.2195 23.928 61.3315 23.464C61.4435 23 61.4995 22.432 61.4995 21.76C61.4995 21.088 61.4435 20.52 61.3315 20.056C61.2195 19.592 61.0595 19.224 60.8515 18.952C60.6435 18.68 60.4035 18.48 60.1315 18.352C59.8595 18.224 59.5555 18.16 59.2195 18.16C58.8995 18.16 58.5955 18.224 58.3075 18.352C58.0355 18.48 57.7955 18.68 57.5875 18.952C57.3795 19.224 57.2195 19.592 57.1075 20.056C56.9955 20.52 56.9395 21.088 56.9395 21.76C56.9395 22.432 56.9955 23 57.1075 23.464C57.2195 23.928 57.3795 24.296 57.5875 24.568C57.7955 24.84 58.0355 25.04 58.3075 25.168C58.5955 25.296 58.8995 25.36 59.2195 25.36ZM73.0505 19.912C73.0505 19.192 73.0425 18.44 73.0265 17.656C73.0105 16.872 72.9865 16.16 72.9545 15.52L76.3865 15.424L76.6745 17.032H76.7705C77.2345 16.552 77.7785 16.136 78.4025 15.784C79.0425 15.416 79.7625 15.232 80.5625 15.232C81.5705 15.232 82.4345 15.496 83.1545 16.024C83.8745 16.536 84.4265 17.256 84.8105 18.184C85.1945 19.112 85.3865 20.208 85.3865 21.472C85.3865 22.848 85.1545 24.048 84.6905 25.072C84.2265 26.08 83.5945 26.872 82.7945 27.448C82.0105 28.008 81.1305 28.288 80.1545 28.288C79.7225 28.288 79.3225 28.224 78.9545 28.096C78.5865 27.984 78.2505 27.824 77.9465 27.616C77.6425 27.408 77.3785 27.16 77.1545 26.872H77.1065V33.376H73.0505V19.912ZM79.0025 25.144C79.5465 25.144 79.9785 24.984 80.2985 24.664C80.6345 24.328 80.8665 23.896 80.9945 23.368C81.1385 22.84 81.2105 22.272 81.2105 21.664C81.2105 20.848 81.1065 20.208 80.8985 19.744C80.7065 19.28 80.4505 18.952 80.1305 18.76C79.8105 18.552 79.4585 18.448 79.0745 18.448C78.8025 18.448 78.5385 18.496 78.2825 18.592C78.0265 18.688 77.7945 18.824 77.5865 19C77.3945 19.16 77.2345 19.336 77.1065 19.528V23.44C77.1385 23.728 77.2345 24.008 77.3945 24.28C77.5705 24.536 77.7945 24.744 78.0665 24.904C78.3545 25.064 78.6665 25.144 79.0025 25.144ZM91.6645 28.288C90.5765 28.288 89.7205 28.048 89.0965 27.568C88.4885 27.072 88.0565 26.408 87.8005 25.576C87.5605 24.744 87.4405 23.832 87.4405 22.84V15.52H91.4965V22.792C91.4965 23.528 91.6325 24.096 91.9045 24.496C92.1765 24.88 92.6325 25.072 93.2725 25.072C93.5765 25.072 93.8485 25.024 94.0885 24.928C94.3445 24.832 94.5685 24.712 94.7605 24.568C94.9685 24.408 95.1525 24.24 95.3125 24.064V15.52H99.3685V23.872C99.3685 24.656 99.3685 25.392 99.3685 26.08C99.3845 26.768 99.4085 27.408 99.4405 28H96.6325L95.7445 26.416H95.6485C95.3925 26.704 95.0645 26.992 94.6645 27.28C94.2645 27.568 93.8085 27.808 93.2965 28C92.7845 28.192 92.2405 28.288 91.6645 28.288ZM101.323 25.528L107.011 18.544H101.707L101.899 15.52H111.787V18.04L106.243 24.904L111.979 24.928L111.787 28H101.323V25.528ZM113.065 25.528L118.753 18.544H113.449L113.641 15.52H123.529V18.04L117.985 24.904L123.721 24.928L123.529 28H113.065V25.528ZM125.48 10.048L129.536 9.952V28H125.48V10.048ZM138.159 28.288C136.735 28.288 135.535 28.04 134.559 27.544C133.599 27.032 132.863 26.304 132.351 25.36C131.839 24.4 131.583 23.248 131.583 21.904C131.583 21.04 131.711 20.216 131.967 19.432C132.223 18.632 132.607 17.92 133.119 17.296C133.631 16.656 134.279 16.152 135.063 15.784C135.863 15.416 136.799 15.232 137.871 15.232C138.975 15.232 139.903 15.432 140.655 15.832C141.407 16.232 141.991 16.784 142.407 17.488C142.823 18.192 143.087 19 143.199 19.912C143.327 20.808 143.311 21.76 143.151 22.768H133.719L135.903 21.16C135.551 22.136 135.455 22.928 135.615 23.536C135.775 24.144 136.135 24.592 136.695 24.88C137.255 25.168 137.927 25.312 138.711 25.312C139.303 25.312 139.919 25.256 140.559 25.144C141.215 25.016 141.791 24.88 142.287 24.736L142.695 27.496C142.007 27.752 141.263 27.944 140.463 28.072C139.663 28.216 138.895 28.288 138.159 28.288ZM133.743 20.656H139.599C139.615 20.576 139.623 20.512 139.623 20.464C139.623 20.416 139.623 20.376 139.623 20.344C139.623 19.928 139.567 19.552 139.455 19.216C139.343 18.864 139.151 18.576 138.879 18.352C138.607 18.128 138.231 18.016 137.751 18.016C137.191 18.016 136.735 18.192 136.383 18.544C136.031 18.88 135.791 19.32 135.663 19.864C135.551 20.408 135.551 20.976 135.663 21.568L133.743 20.656Z" fill="black"/>
</svg>
