<svg width="33" height="32" viewBox="0 0 33 32" fill="none" xmlns="http://www.w3.org/2000/svg">
<path d="M16.3334 19.6995C20.1994 19.6995 23.3334 16.6328 23.3334 12.8498C23.3334 9.06674 20.1994 6 16.3334 6C12.4674 6 9.33337 9.06674 9.33337 12.8498C9.33337 16.6328 12.4674 19.6995 16.3334 19.6995Z" fill="#1F945C"/>
<path d="M11.3334 26.5098V20.1735C12.7635 21.1102 14.4832 21.6565 16.3334 21.6565C18.1835 21.6565 19.9033 21.1102 21.3334 20.1735V26.5098C21.3334 26.9201 20.8484 27.1482 20.521 26.8919L17.5828 24.5917C16.8523 24.0199 15.8144 24.0199 15.084 24.5917L12.1457 26.8919C11.8183 27.1482 11.3334 26.9201 11.3334 26.5098Z" fill="#1F945C"/>
</svg>
