<svg width="32" height="32" viewBox="0 0 32 32" fill="none" xmlns="http://www.w3.org/2000/svg">
<path fill-rule="evenodd" clip-rule="evenodd" d="M6.66663 13.3333H6.76114C7.34583 17.4209 10.579 20.6541 14.6666 21.2388V22.6666C14.6666 24.0171 14.4187 25.0512 13.989 25.7076C13.6159 26.2774 13.0461 26.6666 12 26.6666H10.6666C9.93025 26.6666 9.33329 27.2636 9.33329 28C9.33329 28.7363 9.93025 29.3333 10.6666 29.3333H21.3333C22.0697 29.3333 22.6666 28.7363 22.6666 28C22.6666 27.2636 22.0697 26.6666 21.3333 26.6666H20C18.9538 26.6666 18.384 26.2774 18.0109 25.7076C17.5812 25.0512 17.3333 24.0171 17.3333 22.6666V21.2388C21.4209 20.6541 24.6541 17.4209 25.2388 13.3333H25.3333C27.5424 13.3333 29.3333 11.5424 29.3333 9.33329C29.3333 7.12415 27.5424 5.33329 25.3333 5.33329H25.1057C24.5566 3.7797 23.0749 2.66663 21.3333 2.66663H10.6666C8.925 2.66663 7.44335 3.7797 6.89423 5.33329H6.66663C4.45749 5.33329 2.66663 7.12415 2.66663 9.33329C2.66663 11.5424 4.45749 13.3333 6.66663 13.3333ZM5.33329 9.33329C5.33329 8.59691 5.93025 7.99996 6.66663 7.99996V10.6666C5.93025 10.6666 5.33329 10.0697 5.33329 9.33329ZM25.3333 7.99996V10.6666C26.0697 10.6666 26.6666 10.0697 26.6666 9.33329C26.6666 8.59691 26.0697 7.99996 25.3333 7.99996Z" fill="#1F945C"/>
</svg>
