<svg width="33" height="32" viewBox="0 0 33 32" fill="none" xmlns="http://www.w3.org/2000/svg">
<path d="M8.8394 20.4047C5.05351 16.5037 5.0535 10.1629 8.8394 6.26192C9.35225 5.73349 9.33961 4.88936 8.81117 4.37652C8.28274 3.86367 7.43861 3.87631 6.92577 4.40475C2.13583 9.34031 2.13583 17.3264 6.92577 22.2619C7.43861 22.7904 8.28274 22.803 8.81117 22.2902C9.33961 21.7773 9.35225 20.9332 8.8394 20.4047Z" fill="#1F945C"/>
<path d="M12.2901 16.8493C10.41 14.912 10.41 11.7549 12.2901 9.81756C12.803 9.28912 12.7903 8.445 12.2619 7.93215C11.7335 7.41931 10.8893 7.43195 10.3765 7.96038C7.4923 10.9323 7.4923 15.7346 10.3765 18.7064C10.8893 19.2349 11.7335 19.2475 12.2619 18.7347C12.7903 18.2218 12.803 17.3777 12.2901 16.8493Z" fill="#1F945C"/>
<path d="M24.5221 4.37652C23.9937 4.88936 23.981 5.73349 24.4939 6.26192C28.2798 10.1629 28.2798 16.5037 24.4939 20.4047C23.981 20.9332 23.9937 21.7773 24.5221 22.2902C25.0506 22.803 25.8947 22.7904 26.4075 22.2619C31.1975 17.3264 31.1975 9.34031 26.4075 4.40475C25.8947 3.87631 25.0506 3.86367 24.5221 4.37652Z" fill="#1F945C"/>
<path d="M21.0432 9.81756C22.9233 11.7549 22.9233 14.912 21.0432 16.8493C20.5303 17.3777 20.543 18.2218 21.0714 18.7347C21.5998 19.2475 22.444 19.2349 22.9568 18.7064C25.841 15.7346 25.841 10.9323 22.9568 7.96038C22.444 7.43195 21.5998 7.41931 21.0714 7.93215C20.543 8.445 20.5303 9.28912 21.0432 9.81756Z" fill="#1F945C"/>
<path d="M19.3333 13.3333C19.3333 11.8606 18.1394 10.6667 16.6666 10.6667C15.1939 10.6667 14 11.8606 14 13.3333C14 14.3204 14.5362 15.1822 15.3333 15.6432V26.6667H14C13.2636 26.6667 12.6666 27.2636 12.6666 28C12.6666 28.7364 13.2636 29.3333 14 29.3333H19.3333C20.0697 29.3333 20.6666 28.7364 20.6666 28C20.6666 27.2636 20.0697 26.6667 19.3333 26.6667H18V15.6432C18.797 15.1822 19.3333 14.3204 19.3333 13.3333Z" fill="#1F945C"/>
</svg>
