<svg width="34" height="34" viewBox="0 0 34 34" fill="none" xmlns="http://www.w3.org/2000/svg">
<path d="M18.8014 32.6667H21.2507L19.5013 30.9525C17.9566 29.4388 17.0001 27.332 17.0001 25C17.0001 20.3977 20.731 16.6667 25.3334 16.6667C27.6654 16.6667 29.7722 17.6233 31.2858 19.168L33.0001 20.9173V18.4681V13V12.9554C33.0001 11.1264 33.0001 9.69244 32.9059 8.53996C32.8101 7.36643 32.6116 6.39695 32.1645 5.51945C31.4294 4.07687 30.2566 2.90402 28.814 2.16899C27.9365 1.72188 26.967 1.5234 25.7935 1.42752C24.641 1.33336 23.2071 1.33337 21.3782 1.33337H21.3334H13.3334H13.2887C11.4597 1.33337 10.0258 1.33336 8.87333 1.42752C7.69981 1.5234 6.73033 1.72188 5.85282 2.16899C4.41024 2.90402 3.23739 4.07687 2.50236 5.51945C2.05525 6.39695 1.85678 7.36643 1.7609 8.53996C1.66674 9.69242 1.66674 11.1263 1.66675 12.9553V13V21V21.0448C1.66674 22.8737 1.66674 24.3077 1.7609 25.4601C1.85678 26.6336 2.05525 27.6031 2.50236 28.4806C3.23739 29.9232 4.41024 31.0961 5.85282 31.8311C6.73033 32.2782 7.69981 32.4767 8.87333 32.5726C10.0258 32.6667 11.4598 32.6667 13.2887 32.6667H13.3334H18.8014ZM12.1549 13.7071L12.862 13L12.1549 12.2929L9.09771 9.23574C8.96754 9.10557 8.96754 8.89451 9.09771 8.76434L8.39061 8.05723L9.09771 8.76434C9.22789 8.63416 9.43894 8.63416 9.56912 8.76434L13.0977 12.2929C13.4882 12.6835 13.4882 13.3166 13.0977 13.7071L9.56912 17.2357C9.43894 17.3659 9.22789 17.3659 9.09771 17.2357C8.96754 17.1056 8.96754 16.8945 9.09771 16.7643L12.1549 13.7071ZM25.3334 32.6667C29.5676 32.6667 33.0001 29.2342 33.0001 25C33.0001 20.7659 29.5676 17.3334 25.3334 17.3334C21.0992 17.3334 17.6667 20.7659 17.6667 25C17.6667 29.2342 21.0992 32.6667 25.3334 32.6667ZM25.3335 28C25.1494 28.0001 25.0002 27.8508 25.0002 27.6667L25 25.8536C25 25.6695 25.1492 25.5203 25.3333 25.5203C25.5174 25.5203 25.6666 25.6695 25.6666 25.8536L25.6668 27.6667C25.6668 27.8508 25.5176 28 25.3335 28ZM25.3464 22.6669C25.1623 22.6669 25.0131 22.5176 25.0131 22.3335C25.0131 22.1493 25.1625 22.0001 25.3464 22.0001C25.5304 22.0001 25.6798 22.1493 25.6798 22.3335C25.6798 22.5176 25.5305 22.6669 25.3464 22.6669Z" fill="#1F945C" stroke="white" stroke-width="2"/>
</svg>
