<svg width="32" height="32" viewBox="0 0 32 32" fill="none" xmlns="http://www.w3.org/2000/svg">
<g clip-path="url(#clip0_6561_595)">
<path d="M29.3616 4.90057L16.5616 0.100484C16.2003 -0.033169 15.803 -0.033169 15.4416 0.100484L2.64164 4.90057C2.33586 5.01444 2.07222 5.21909 1.88605 5.48705C1.69987 5.75502 1.60008 6.0735 1.60004 6.39979C1.64581 11.4062 2.90225 16.3272 5.2621 20.7427C7.62195 25.1582 11.0151 28.9372 15.152 31.757C15.4063 31.916 15.7002 32.0002 16 32.0002C16.2999 32.0002 16.5937 31.916 16.848 31.757C20.9849 28.9372 24.3781 25.1582 26.738 20.7427C29.0978 16.3272 30.3543 11.4062 30.4 6.39979C30.4002 6.07388 30.3009 5.75567 30.1153 5.48775C29.9298 5.21983 29.6668 5.01496 29.3616 4.90057ZM23.5312 12.3311L15.5312 20.3312C15.2312 20.6313 14.8243 20.8 14.4 20.8C14.3472 20.8 14.296 20.8 14.24 20.792C14.0047 20.7687 13.7774 20.6934 13.5746 20.5717C13.3718 20.45 13.1985 20.2848 13.0672 20.088L9.86724 15.2879C9.75062 15.1131 9.66958 14.9171 9.62875 14.7109C9.58791 14.5048 9.58807 14.2926 9.62922 14.0865C9.67038 13.8805 9.75172 13.6845 9.8686 13.5099C9.98549 13.3352 10.1356 13.1853 10.3104 13.0687C10.4853 12.9521 10.6813 12.8711 10.8875 12.8302C11.0936 12.7894 11.3058 12.7895 11.5118 12.8307C11.7179 12.8719 11.9138 12.9532 12.0885 13.0701C12.2631 13.187 12.413 13.3371 12.5296 13.5119L14.6464 16.6896L21.2672 10.0687C21.569 9.7772 21.9732 9.61593 22.3927 9.61957C22.8122 9.62322 23.2135 9.79149 23.5101 10.0881C23.8068 10.3848 23.9751 10.7861 23.9787 11.2056C23.9824 11.6252 23.8211 12.0293 23.5296 12.3311H23.5312Z" fill="#1F945C"/>
</g>
<defs>
<clipPath id="clip0_6561_595">
<rect width="32" height="32" fill="white"/>
</clipPath>
</defs>
</svg>
