<svg width="33" height="32" viewBox="0 0 33 32" fill="none" xmlns="http://www.w3.org/2000/svg">
<path d="M23.1181 4H7.54864C6.8458 3.99998 6.23941 3.99996 5.74 4.04076C5.21287 4.08383 4.68858 4.17892 4.18407 4.43598C3.43142 4.81947 2.8195 5.43139 2.43601 6.18404C2.17895 6.68855 2.08386 7.21284 2.04079 7.73997C1.99999 8.23938 2.00001 8.84571 2.00003 9.54855V22.4514C2.00001 23.1542 1.99999 23.7606 2.04079 24.26C2.08386 24.7872 2.17895 25.3115 2.43601 25.816C2.8195 26.5686 3.43142 27.1805 4.18407 27.564C4.68858 27.8211 5.21287 27.9162 5.74 27.9592C6.23942 28 6.84576 28 7.54861 28H23.1181C23.821 28 24.4273 28 24.9267 27.9592C25.4539 27.9162 25.9782 27.8211 26.4827 27.564C27.2353 27.1805 27.8472 26.5686 28.2307 25.816C28.4878 25.3115 28.5829 24.7872 28.6259 24.26C28.6625 23.8121 28.6663 23.2781 28.6667 22.6656C28.5109 22.6667 28.3489 22.6667 28.1815 22.6667H23.8186C23.2998 22.6667 22.833 22.6667 22.4445 22.635C22.0286 22.601 21.5866 22.5241 21.1534 22.3034C20.5262 21.9838 20.0163 21.4738 19.6967 20.8466C19.476 20.4134 19.399 19.9715 19.365 19.5555C19.3333 19.1671 19.3333 18.7003 19.3334 18.1815V15.1519C19.3333 14.6331 19.3333 14.1662 19.365 13.7778C19.399 13.3619 19.476 12.9199 19.6967 12.4867C20.0163 11.8595 20.5262 11.3496 21.1534 11.03C21.5866 10.8093 22.0286 10.7323 22.4445 10.6983C22.8329 10.6666 23.2998 10.6666 23.8186 10.6667H28.1815C28.3489 10.6667 28.511 10.6667 28.6667 10.6677V9.54858C28.6667 8.84573 28.6667 8.23939 28.6259 7.73997C28.5829 7.21284 28.4878 6.68855 28.2307 6.18404C27.8472 5.43139 27.2353 4.81947 26.4827 4.43598C25.9782 4.17892 25.4539 4.08383 24.9267 4.04076C24.4273 3.99996 23.8209 3.99998 23.1181 4Z" fill="#1F945C"/>
<path d="M22.364 13.406C22.3646 13.4057 22.3675 13.4042 22.3744 13.4018C22.3816 13.3992 22.395 13.3949 22.4167 13.3898C22.4623 13.3791 22.5375 13.3663 22.6617 13.3562C22.9283 13.3344 23.2846 13.3333 23.8667 13.3333H28.1334C28.7154 13.3333 29.0718 13.3344 29.3384 13.3562C29.4626 13.3663 29.5377 13.3791 29.5834 13.3898C29.6051 13.3949 29.6184 13.3992 29.6257 13.4018C29.6326 13.4042 29.6355 13.4057 29.636 13.406C29.7615 13.4699 29.8635 13.5719 29.9274 13.6973C29.9276 13.6979 29.9291 13.7008 29.9316 13.7077C29.9342 13.7149 29.9385 13.7283 29.9436 13.75C29.9543 13.7956 29.9671 13.8708 29.9772 13.995C29.999 14.2616 30 14.618 30 15.2V18.1333C30 18.7154 29.999 19.0717 29.9772 19.3384C29.9671 19.4626 29.9543 19.5377 29.9436 19.5833C29.9385 19.605 29.9342 19.6184 29.9316 19.6256C29.9291 19.6326 29.9276 19.6355 29.9274 19.636C29.8635 19.7614 29.7615 19.8634 29.636 19.9273C29.6355 19.9276 29.6326 19.9291 29.6257 19.9316C29.6184 19.9341 29.6051 19.9384 29.5834 19.9435C29.5377 19.9543 29.4626 19.967 29.3384 19.9772C29.0718 19.999 28.7154 20 28.1334 20H23.8667C23.2846 20 22.9283 19.999 22.6617 19.9772C22.5375 19.967 22.4623 19.9543 22.4167 19.9435C22.395 19.9384 22.3816 19.9341 22.3744 19.9316C22.3675 19.9291 22.3646 19.9276 22.364 19.9273C22.2386 19.8634 22.1366 19.7614 22.0727 19.636C22.0724 19.6355 22.0709 19.6326 22.0685 19.6256C22.0659 19.6184 22.0616 19.605 22.0565 19.5833C22.0458 19.5377 22.033 19.4626 22.0229 19.3384C22.0011 19.0717 22 18.7154 22 18.1333V15.2C22 14.618 22.0011 14.2616 22.0229 13.995C22.033 13.8708 22.0458 13.7956 22.0565 13.75C22.0616 13.7283 22.0659 13.7149 22.0685 13.7077C22.0709 13.7008 22.0724 13.6979 22.0727 13.6973C22.1366 13.5719 22.2386 13.4699 22.364 13.406Z" fill="#1F945C"/>
</svg>
