<svg width="33" height="32" viewBox="0 0 33 32" fill="none" xmlns="http://www.w3.org/2000/svg">
<path d="M3 6.66663C3 4.45749 4.79086 2.66663 7 2.66663H11C13.2091 2.66663 15 4.45749 15 6.66663V10.6666C15 12.8758 13.2091 14.6666 11 14.6666H7C4.79086 14.6666 3 12.8758 3 10.6666V6.66663Z" fill="#1F945C"/>
<path d="M3 21.3333C3 19.1242 4.79086 17.3333 7 17.3333H11C13.2091 17.3333 15 19.1242 15 21.3333V25.3333C15 27.5424 13.2091 29.3333 11 29.3333H7C4.79086 29.3333 3 27.5424 3 25.3333V21.3333Z" fill="#1F945C"/>
<path d="M17.6667 6.66663C17.6667 4.45749 19.4575 2.66663 21.6667 2.66663H25.6667C27.8758 2.66663 29.6667 4.45749 29.6667 6.66663V10.6666C29.6667 12.8758 27.8758 14.6666 25.6667 14.6666H21.6667C19.4575 14.6666 17.6667 12.8758 17.6667 10.6666V6.66663Z" fill="#1F945C"/>
<path d="M25 18.6666C25 17.9302 24.403 17.3333 23.6667 17.3333C22.9303 17.3333 22.3333 17.9302 22.3333 18.6666V22H19C18.2636 22 17.6667 22.5969 17.6667 23.3333C17.6667 24.0697 18.2636 24.6666 19 24.6666H22.3333V28C22.3333 28.7363 22.9303 29.3333 23.6667 29.3333C24.403 29.3333 25 28.7363 25 28V24.6666H28.3333C29.0697 24.6666 29.6667 24.0697 29.6667 23.3333C29.6667 22.5969 29.0697 22 28.3333 22H25V18.6666Z" fill="#1F945C"/>
</svg>
