<svg width="32" height="32" viewBox="0 0 32 32" fill="none" xmlns="http://www.w3.org/2000/svg">
<path fill-rule="evenodd" clip-rule="evenodd" d="M2.66669 6.9333C2.66669 5.43982 2.66669 4.69308 2.95734 4.12265C3.213 3.62089 3.62095 3.21294 4.12271 2.95728C4.69314 2.66663 5.43988 2.66663 6.93335 2.66663H10.0898C11.5833 2.66663 12.33 2.66663 12.9004 2.95728C13.4022 3.21294 13.8101 3.62089 14.0658 4.12265C14.3564 4.69308 14.3564 5.43982 14.3564 6.93329V9.158L15.0804 8.43407C15.5774 7.93705 16.0061 7.50825 16.3881 7.18396C16.7913 6.84168 17.2293 6.53819 17.7678 6.36321C18.5712 6.10218 19.4366 6.10218 20.2399 6.36321C20.7784 6.53819 21.2164 6.84168 21.6196 7.18396C22.0016 7.50823 22.4303 7.93695 22.9272 8.4339L23.5657 9.07242C24.0627 9.56936 24.4915 9.99816 24.8158 10.3801C25.158 10.7833 25.4615 11.2213 25.6365 11.7598C25.8975 12.5632 25.8975 13.4286 25.6365 14.2319C25.4615 14.7704 25.1581 15.2084 24.8158 15.6116C24.4915 15.9936 24.0627 16.4223 23.5658 16.9193L23.1517 17.3333H23.7847C24.4876 17.3333 25.094 17.3332 25.5934 17.3741C26.1205 17.4171 26.6448 17.5122 27.1493 17.7693C27.902 18.1528 28.5139 18.7647 28.8974 19.5173C29.1544 20.0218 29.2495 20.5461 29.2926 21.0733C29.3334 21.5727 29.3334 22.179 29.3334 22.8819V23.7847C29.3334 24.4876 29.3334 25.0939 29.2926 25.5933C29.2495 26.1205 29.1544 26.6448 28.8974 27.1493C28.5139 27.9019 27.902 28.5138 27.1493 28.8973C26.6448 29.1544 26.1205 29.2495 25.5934 29.2925C25.094 29.3333 24.4877 29.3333 23.7849 29.3333H10.4319C9.83041 29.5424 9.18426 29.6561 8.51157 29.6561C5.28353 29.6561 2.66669 27.0392 2.66669 23.8112V6.9333ZM14.3564 22.3573L21.6437 15.07C22.1873 14.5265 22.5376 14.1748 22.7829 13.8858C23.0181 13.6087 23.0775 13.4783 23.1004 13.4079C23.1874 13.1401 23.1874 12.8516 23.1004 12.5838C23.0775 12.5135 23.0181 12.383 22.7829 12.1059C22.5376 11.817 22.1873 11.4653 21.6437 10.9217L21.078 10.356C20.5345 9.81242 20.1827 9.46217 19.8938 9.21686C19.6167 8.98166 19.4863 8.92223 19.4159 8.89936C19.1481 8.81235 18.8596 8.81235 18.5918 8.89936C18.5215 8.92223 18.391 8.98167 18.1139 9.21687C17.825 9.46217 17.4733 9.81242 16.9297 10.356L14.3564 12.9292V22.3573ZM6.66669 23.3333C6.66669 22.2287 7.56212 21.3333 8.66669 21.3333C9.77126 21.3333 10.6667 22.2287 10.6667 23.3333C10.6667 24.4379 9.77126 25.3333 8.66669 25.3333C7.56212 25.3333 6.66669 24.4379 6.66669 23.3333ZM13.8184 26.6666L20.485 20H23.7334C24.5021 20 24.9985 20.001 25.3762 20.0319C25.7385 20.0615 25.8728 20.1117 25.9387 20.1453C26.1896 20.2731 26.3935 20.4771 26.5214 20.728C26.555 20.7939 26.6052 20.9282 26.6348 21.2904C26.6657 21.6682 26.6667 22.1646 26.6667 22.9333V23.7333C26.6667 24.502 26.6657 24.9984 26.6348 25.3762C26.6052 25.7384 26.555 25.8727 26.5214 25.9386C26.3935 26.1895 26.1896 26.3935 25.9387 26.5213C25.8727 26.5549 25.7385 26.6051 25.3762 26.6347C24.9985 26.6656 24.5021 26.6666 23.7334 26.6666H13.8184Z" fill="#1F945C"/>
</svg>
