<svg width="33" height="32" viewBox="0 0 33 32" fill="none" xmlns="http://www.w3.org/2000/svg">
<path fill-rule="evenodd" clip-rule="evenodd" d="M31.3334 16C31.3334 24.1002 24.7669 30.6667 16.6667 30.6667C8.56652 30.6667 2.00003 24.1002 2.00003 16C2.00003 7.89986 8.56652 1.33337 16.6667 1.33337C24.7669 1.33337 31.3334 7.89986 31.3334 16ZM9.99973 11.3334C9.99973 10.2288 10.8952 9.33337 11.9997 9.33337C13.1043 9.33337 13.9997 10.2288 13.9997 11.3334C13.9997 12.4379 13.1043 13.3334 11.9997 13.3334C10.8952 13.3334 9.99973 12.4379 9.99973 11.3334ZM19.3331 11.3334C19.3331 10.2288 20.2285 9.33337 21.3331 9.33337C22.4376 9.33337 23.3331 10.2288 23.3331 11.3334C23.3331 12.4379 22.4376 13.3334 21.3331 13.3334C20.2285 13.3334 19.3331 12.4379 19.3331 11.3334ZM11.2305 19.4872C10.9473 18.8075 10.1666 18.486 9.48691 18.7693C8.80717 19.0525 8.48573 19.8331 8.76896 20.5129C9.47866 22.2161 12.0028 25.3334 16.6664 25.3334C21.33 25.3334 23.8541 22.2161 24.5638 20.5129C24.8471 19.8331 24.5256 19.0525 23.8459 18.7693C23.1661 18.486 22.3855 18.8075 22.1023 19.4872C21.7009 20.4506 20.0028 22.6667 16.6664 22.6667C13.33 22.6667 11.6319 20.4506 11.2305 19.4872Z" fill="#1F945C"/>
</svg>
