<svg width="119" height="49" viewBox="0 0 119 49" fill="none" xmlns="http://www.w3.org/2000/svg">
<path d="M44.7001 34.2521C39.851 44.1222 28.068 49.9953 15.7436 45.4707C9.82492 43.2977 5.13858 38.586 2.98434 32.6604C-2.85656 16.5926 8.95942 1.46364 24.2423 1.46364C25.2532 1.46364 26.2487 1.53073 27.2254 1.65904V0.183689C26.2475 0.0631828 25.2522 0 24.2423 0C8.15124 0 -4.3285 15.7585 1.42557 32.6534C3.70714 39.3524 8.96698 44.6701 15.6507 46.9968C28.8666 51.5978 41.4188 45.0194 46.3198 34.2521H44.7001Z" fill="#E2051B"/>
<path d="M24.2615 7.15834C29.8512 7.16444 34.8207 9.86925 37.9348 14.037H39.2814C36.0102 9.23159 30.4993 6.0672 24.262 6.06061C24.2513 6.06061 24.2422 6.0694 24.2422 6.08037V7.13907C24.2422 7.14981 24.251 7.15834 24.2615 7.15834Z" fill="#E2051B"/>
<path d="M38.0692 34.2588C33.8053 40.1283 25.9078 43.1953 17.7041 40.1019C13.3758 38.47 9.96456 35.0131 8.34943 30.6783C6.52598 25.7843 6.90433 21.0116 8.74852 17.054L7.79764 16.5051C5.74512 20.8433 5.34872 26.1107 7.49222 31.5072C9.24664 35.9247 12.8023 39.4223 17.2467 41.1072C26.2764 44.5304 34.967 40.9377 39.393 34.2778C39.4003 34.2669 39.3923 34.2522 39.3791 34.2522H38.0821C38.077 34.2522 38.0721 34.2544 38.0692 34.2588Z" fill="#E2051B"/>
<path d="M41.2748 34.2521C41.2741 34.2521 41.2733 34.2526 41.2728 34.2534C37.8323 40.0838 31.4884 44.0061 24.2424 44.0061C23.0603 44.0061 21.904 43.8958 20.7784 43.696C20.7623 43.6931 20.748 43.7053 20.748 43.7212V44.9577C20.748 44.9704 20.7575 44.9816 20.7702 44.9838C21.9003 45.1726 23.0593 45.2758 24.2424 45.2758C32.2175 45.2758 39.1703 40.8139 42.7358 34.2558C42.7365 34.2541 42.7355 34.2521 42.7336 34.2521H41.2748Z" fill="white"/>
<path d="M16.8751 4.46952C11.2543 6.40299 6.78358 10.7783 4.68667 16.3404C2.85688 21.1938 2.82273 25.9282 4.05267 30.1289C4.05804 30.1479 4.07902 30.1584 4.0978 30.1511L5.22554 29.7254C5.24188 29.7193 5.25066 29.702 5.24578 29.6849C4.08634 25.6565 4.16513 21.1097 6.0042 16.4594C7.95572 11.5252 11.9324 7.62318 16.9176 5.80558C26.9384 2.15208 36.5394 6.41592 41.1535 14.0247C41.1582 14.0325 41.1665 14.0371 41.1755 14.0371H42.5806C42.6006 14.0371 42.6135 14.0151 42.6038 13.9978C37.9111 5.62067 27.659 0.760162 16.8751 4.46952Z" fill="white"/>
<path d="M25.9288 19.9766V23.2398H23.5121V21.9611H19.1075C18.2132 21.9611 17.8991 22.5541 17.8991 23.5099V25.6541C17.8991 26.8277 18.2735 27.0697 19.1195 27.0697H23.5121V25.7878H25.9288V29.0512H19.0592C16.5337 29.0512 15.4096 28.1077 15.4096 25.5304V23.6309C15.4096 21.1502 16.2073 19.9766 18.7328 19.9766H25.9288Z" fill="white"/>
<path d="M35.8218 23.508C35.8218 22.5533 35.5076 21.9612 34.6133 21.9612H31.3369C30.4427 21.9612 30.1285 22.5533 30.1285 23.508V25.6559C30.1285 26.8281 30.5032 27.0696 31.3491 27.0696H34.6014C35.4469 27.0696 35.8218 26.8281 35.8218 25.6559V23.508ZM38.3112 23.6317V25.5289C38.3112 28.1027 37.1874 29.0452 34.6619 29.0452H31.2889C28.7631 29.0452 27.6395 28.1027 27.6395 25.5289V23.6317C27.6395 21.1548 28.4372 19.9824 30.9625 19.9824H34.9882C37.5138 19.9824 38.311 21.1548 38.3112 23.6317Z" fill="white"/>
<path d="M44.0899 19.9825L48.2278 26.9428V19.9825H50.6733V29.0451H46.701L42.5999 22.085V29.0451H40.1544V19.9825H44.0899Z" fill="white"/>
<path d="M63.1104 25.779C63.1104 26.839 62.9806 27.2244 62.9121 27.4486C62.7165 28.086 62.3135 28.5726 61.6304 28.82C61.2989 28.9398 60.7435 29.0469 60.017 29.0469H52.5912V27.0648H59.5852C60.5027 27.0648 60.6964 26.5082 60.6966 25.7859L60.6939 25.3826L52.6088 25.3802L52.5915 23.2396C52.5915 22.1795 52.721 21.7943 52.7898 21.5701C52.9852 20.9327 53.3884 20.446 54.0715 20.1989C54.4025 20.0789 54.9582 19.972 55.6849 19.972H62.5274V21.9538H56.1196C55.188 21.9538 55.0084 22.5105 55.0082 23.2323L55.0094 23.3984L63.0929 23.4006L63.1104 25.779Z" fill="white"/>
<path d="M74.472 21.9598H70.4213V29.0404H68.0039V21.9598H63.953V19.9781H74.472V21.9598Z" fill="white"/>
<path d="M78.4322 22.0105L77.5723 24.8897H81.1543L80.2944 22.0105H78.4322ZM84.9017 29.0947H82.4365L81.801 26.992H76.9256L76.2901 29.0947H73.8249L76.5799 20.0319H82.1464L84.9017 29.0947Z" fill="white"/>
<path d="M90.1459 19.9825L94.2838 26.9428V19.9825H96.7293V29.0451H92.7568L88.6556 22.085V29.0451H86.2101V19.9825H90.1459Z" fill="white"/>
<path d="M108.57 21.9598H104.519V29.0404H102.102V21.9598H98.0511V19.9781H108.57V21.9598Z" fill="white"/>
<path d="M112.53 22.0105L111.671 24.8897H115.253L114.393 22.0105H112.53ZM119 29.0947H116.535L115.899 26.992H111.024L110.388 29.0947H107.923L110.678 20.0319H116.245L119 29.0947Z" fill="white"/>
<path d="M61.4028 41.2816H65.8482C66.7422 41.2816 67.0564 40.6896 67.0564 39.7348V37.5872C67.0564 36.415 66.6819 36.1735 65.836 36.1735H61.4028V41.2816ZM58.9861 34.1944H65.8965C68.422 34.1944 69.5461 35.137 69.5461 37.7108V39.6082C69.5461 42.0852 68.7484 43.2573 66.2229 43.2573H58.9861V34.1944Z" fill="white"/>
<path d="M73.8009 36.1734V37.7351H80.6403V39.7169H73.8009V41.2815H81.9034V43.2574H71.3842V34.1946H81.9034V36.1734H73.8009Z" fill="white"/>
<path d="M93.9126 34.1888V37.452H91.4959V36.1732H87.0911C86.1971 36.1732 85.8829 36.766 85.8829 37.722V39.866C85.8829 41.0398 86.2573 41.2816 87.1033 41.2816H91.4959V39.9999H93.9126V43.2634H87.043C84.5173 43.2634 83.3934 42.3198 83.3934 39.7426V37.8428C83.3934 35.3624 84.1911 34.1888 86.7166 34.1888H93.9126Z" fill="white"/>
<path d="M103.806 37.7202C103.806 36.7654 103.491 36.1734 102.597 36.1734H99.3207C98.4265 36.1734 98.1123 36.7654 98.1123 37.7202V39.8681C98.1123 41.04 98.487 41.2817 99.3329 41.2817H102.585C103.431 41.2817 103.806 41.04 103.806 39.8681V37.7202ZM106.295 37.8439V39.741C106.295 42.3148 105.171 43.2574 102.646 43.2574H99.2727C96.7469 43.2574 95.6233 42.3148 95.6233 39.741V37.8439C95.6233 35.3669 96.421 34.1945 98.9463 34.1945H102.972C105.498 34.1945 106.295 35.3669 106.295 37.8439Z" fill="white"/>
<path d="M110.568 39.1807H115.361C115.814 39.1807 116.181 38.8134 116.181 38.3601V36.9953C116.181 36.5423 115.814 36.1747 115.361 36.1747H110.568V39.1807ZM117.342 41.01L118.67 43.2592H115.927L114.777 41.2833H110.568V43.256H108.151V34.1931H115.577C117.384 34.1931 118.285 34.7322 118.569 36.1749C118.638 36.5262 118.67 37.239 118.67 37.6756C118.67 38.112 118.647 38.7839 118.588 39.1666C118.443 40.1021 118.085 40.6968 117.342 41.01Z" fill="white"/>
</svg>
