<svg width="329" height="240" viewBox="0 0 329 240" fill="none" xmlns="http://www.w3.org/2000/svg">
<path d="M119.961 0.433609C81.3924 0.433609 44.9591 19.2649 22.5 50.8071C-0.331365 82.8723 -5.74232 123.458 7.65581 162.155C18.9385 194.743 45.1136 220.95 77.6747 232.259C147.002 256.339 206.067 219.04 228.711 169.676H221.179C208.893 194.609 187.977 214.087 162.267 224.531C134.639 235.755 104.483 235.578 75.0579 224.016C48.2838 213.497 26.8357 192.198 16.2126 165.582C1.29794 128.212 5.06226 88.5998 26.5408 56.9016C47.615 25.8 82.5383 7.23213 119.961 7.23213C124.794 7.23213 129.678 7.54704 134.484 8.16766V1.31601C129.669 0.730621 124.784 0.433609 119.961 0.433609ZM119.949 240C105.801 240 91.5585 237.541 77.5322 232.669C61.3849 227.06 46.4426 217.681 34.3215 205.543C22.2025 193.408 12.8397 178.453 7.24605 162.297C-6.19816 123.465 -0.767148 82.7368 22.1472 50.5551C44.687 18.899 81.2526 0 119.961 0C124.866 0 129.834 0.305695 134.727 0.908966L134.917 0.932266V8.66142L134.672 8.62946C129.807 7.98987 124.857 7.66574 119.961 7.66574C82.6824 7.66574 47.893 26.1626 26.8996 57.1449C5.50346 88.7218 1.75486 128.187 16.6159 165.422C27.1939 191.927 48.5532 213.137 75.2167 223.613C140.689 249.338 198.039 215.795 220.849 169.363L220.909 169.242H229.384L229.245 169.549C217.077 196.28 195.616 217.607 168.812 229.601C155.087 235.744 140.483 239.201 125.407 239.878C123.59 239.959 121.771 240 119.949 240Z" fill="white"/>
<path d="M187.725 69.3579H193.859C177.121 45.0056 149.616 30.4497 120.177 30.3792V35.3696C133.671 35.4026 146.57 38.5333 158.518 44.6744C169.918 50.5342 180.015 59.0677 187.725 69.3579ZM194.68 69.7915H187.508L187.443 69.7042C171.6 48.5021 146.405 35.8287 120.046 35.8027C119.879 35.8027 119.744 35.6672 119.744 35.5013V30.254C119.744 30.0838 119.882 29.9456 120.053 29.9456C149.817 29.9754 177.629 44.7443 194.449 69.4527L194.68 69.7915Z" fill="white"/>
<path d="M188.46 169.612L188.46 169.613C188.46 169.613 188.46 169.613 188.46 169.612ZM38.8028 82.0759C28.1727 104.695 27.5841 130.647 37.1486 155.181C45.7656 177.285 63.3909 194.765 85.5063 203.14C133.273 221.23 174.622 199.396 194.501 169.676H188.414C177.68 184.426 162.247 195.5 144.947 200.862C126.231 206.664 106.081 205.75 86.676 198.221C65.656 190.065 49.0529 173.069 41.1248 151.592C32.8162 129.086 33.5279 105.294 43.1243 84.5708L38.8028 82.0759ZM119.981 210.06C108.478 210.06 96.8112 207.885 85.3529 203.546C63.1231 195.127 45.4062 177.557 36.7448 155.339C27.1066 130.616 27.7337 104.456 38.5112 81.6775L38.612 81.465L43.6847 84.3935L43.6013 84.5735C33.9745 105.233 33.2401 128.981 41.5313 151.442C49.4166 172.803 65.9286 189.705 86.8326 197.816C124.446 212.412 165.146 200.975 188.109 169.358C188.162 169.285 188.246 169.242 188.336 169.242H194.76C194.869 169.242 194.968 169.302 195.02 169.398C195.071 169.494 195.066 169.61 195.006 169.7C183.958 186.325 167.523 198.983 148.726 205.34C139.417 208.489 129.757 210.06 119.981 210.06Z" fill="white"/>
<path d="M102.912 222.283C108.611 223.23 114.347 223.71 119.961 223.71C157.87 223.71 192.715 203.013 210.982 169.676H204.236C195.727 184.057 183.614 196.114 169.199 204.547C154.302 213.263 137.276 217.87 119.961 217.87C114.347 217.87 108.612 217.36 102.912 216.353V222.283ZM119.961 224.145C114.3 224.145 108.516 223.658 102.77 222.699C102.601 222.671 102.478 222.526 102.478 222.354V216.239C102.478 216.138 102.522 216.044 102.599 215.98C102.675 215.915 102.776 215.887 102.875 215.906C108.587 216.921 114.336 217.437 119.961 217.437C154.252 217.437 186.426 199.01 203.926 169.349L203.989 169.242H211.459L211.591 169.459L211.53 169.575C193.236 203.233 158.148 224.145 119.961 224.145Z" fill="white"/>
<path d="M78.4147 24.4327C54.8261 33.7565 35.5384 52.6085 25.4975 76.1537C15.2556 100.172 13.4918 125.352 20.3961 148.975L25.8769 146.907C19.8698 125.995 21.0606 103.65 29.3225 82.285C39.197 56.7511 59.6788 36.9837 85.5157 28.0518C108.772 20.0126 132.63 20.1421 154.511 28.4253C174.874 36.1349 192.333 50.6702 203.68 69.3579H210.425C188.217 29.8524 135.784 1.75635 78.4147 24.4327ZM20.3614 149.425C20.3028 149.425 20.2443 149.412 20.1912 149.385C20.0969 149.338 20.0259 149.253 19.9966 149.153C13.0447 125.416 14.8084 100.114 25.0986 75.9841C35.1845 52.3326 54.5594 33.3956 78.2554 24.0295C104.46 13.6726 131.447 13.1084 156.3 22.3975C179.397 31.0307 198.78 47.6804 210.877 69.2787C210.938 69.3861 210.936 69.514 210.874 69.6208C210.812 69.7275 210.7 69.7915 210.577 69.7915H203.619C203.505 69.7915 203.399 69.7308 203.34 69.6338C179.183 29.7911 130.79 12.8607 85.6577 28.4616C59.9411 37.3517 39.5553 57.0264 29.7269 82.4417C21.4915 103.737 20.3099 126.006 26.31 146.843C26.3631 147.03 26.2667 147.222 26.0851 147.291L20.4953 149.401C20.4519 149.417 20.4069 149.425 20.3614 149.425Z" fill="white"/>
<path d="M163.354 138.476C152.58 160.407 126.399 173.457 99.0149 163.403C85.8639 158.575 75.4513 148.106 70.6647 134.94C57.6866 99.2382 83.9409 65.6228 117.898 65.6228C120.144 65.6228 122.356 65.7718 124.527 66.0569V62.7788C122.354 62.511 120.142 62.3707 117.898 62.3707C82.1452 62.3707 54.4161 97.385 67.2012 134.924C72.2707 149.809 83.9577 161.624 98.8084 166.794C128.173 177.017 156.063 162.401 166.953 138.476H163.354Z" fill="#E2051B"/>
<path d="M117.941 78.2762C130.361 78.2898 141.403 84.2997 148.322 93.5601H151.314C144.046 82.8829 131.801 75.8518 117.942 75.8372C117.918 75.8372 117.898 75.8567 117.898 75.8811V78.2334C117.898 78.2573 117.918 78.2762 117.941 78.2762Z" fill="#E2051B"/>
<path d="M148.62 138.491C139.147 151.533 121.599 158.348 103.371 151.474C93.7537 147.848 86.1741 140.167 82.5854 130.536C78.5338 119.662 79.3745 109.057 83.4721 100.263L81.3593 99.0439C76.7988 108.683 75.918 120.387 80.6807 132.377C84.5789 142.193 92.4794 149.964 102.354 153.708C122.418 161.314 141.728 153.331 151.562 138.534C151.578 138.509 151.56 138.477 151.531 138.477H148.649C148.638 138.477 148.627 138.482 148.62 138.491Z" fill="#E2051B"/>
<path d="M155.743 138.477C155.742 138.477 155.74 138.478 155.739 138.48C148.094 151.434 133.999 160.15 117.899 160.15C115.272 160.15 112.703 159.905 110.202 159.461C110.166 159.454 110.134 159.481 110.134 159.516V162.264C110.134 162.292 110.155 162.317 110.184 162.322C112.695 162.741 115.27 162.971 117.899 162.971C135.619 162.971 151.067 153.057 158.99 138.485C158.991 138.481 158.989 138.477 158.985 138.477H155.743Z" fill="white"/>
<path d="M101.529 72.3016C89.0402 76.5977 79.1067 86.3193 74.4475 98.6778C70.3818 109.462 70.3059 119.981 73.0388 129.315C73.0507 129.357 73.0973 129.38 73.139 129.364L75.6448 128.418C75.6811 128.405 75.7006 128.366 75.6898 128.328C73.1136 119.378 73.2886 109.275 77.3749 98.9424C81.7111 87.979 90.547 79.3088 101.624 75.2703C123.889 67.1525 145.222 76.6264 155.474 93.5325C155.485 93.5498 155.503 93.5601 155.523 93.5601H158.645C158.689 93.5601 158.718 93.5113 158.697 93.4729C148.27 74.8594 125.49 64.0597 101.529 72.3016Z" fill="white"/>
<path d="M121.646 106.757V114.008H116.276V111.167H106.489C104.502 111.167 103.804 112.484 103.804 114.608V119.372C103.804 121.98 104.636 122.518 106.516 122.518H116.276V119.669H121.646V126.92H106.382C100.771 126.92 98.2729 124.824 98.2729 119.097V114.877C98.2729 109.365 100.045 106.757 105.657 106.757H121.646Z" fill="white"/>
<path d="M143.627 114.604C143.627 112.483 142.929 111.167 140.942 111.167H133.662C131.675 111.167 130.977 112.483 130.977 114.604V119.377C130.977 121.981 131.81 122.518 133.689 122.518H140.915C142.794 122.518 143.627 121.981 143.627 119.377V114.604ZM149.158 114.879V119.094C149.158 124.813 146.661 126.907 141.05 126.907H133.555C127.943 126.907 125.447 124.813 125.447 119.094V114.879C125.447 109.375 127.219 106.77 132.83 106.77H141.775C147.387 106.77 149.158 109.375 149.158 114.879Z" fill="white"/>
<path d="M161.998 106.77L171.193 122.236V106.77H176.626V126.907H167.8L158.688 111.442V126.907H153.254V106.77H161.998Z" fill="white"/>
<path d="M204.261 119.65C204.261 122.005 203.972 122.861 203.82 123.359C203.385 124.776 202.49 125.857 200.972 126.407C200.236 126.673 199.001 126.911 197.387 126.911H180.888V122.507H196.428C198.466 122.507 198.897 121.27 198.897 119.665L198.891 118.769L180.927 118.764L180.888 114.007C180.888 111.652 181.176 110.796 181.329 110.298C181.763 108.882 182.659 107.8 184.177 107.251C184.912 106.984 186.147 106.747 187.762 106.747H202.965V111.15H188.727C186.657 111.15 186.259 112.387 186.258 113.991L186.261 114.36L204.222 114.365L204.261 119.65Z" fill="white"/>
<path d="M229.505 111.164H220.505V126.897H215.134V111.164H206.133V106.761H229.505V111.164Z" fill="white"/>
<path d="M238.304 111.276L236.394 117.674H244.353L242.442 111.276H238.304ZM252.679 127.017H247.202L245.79 122.345H234.957L233.545 127.017H228.067L234.189 106.88H246.557L252.679 127.017Z" fill="white"/>
<path d="M264.331 106.77L273.526 122.236V106.77H278.959V126.907H270.133L261.02 111.442V126.907H255.586V106.77H264.331Z" fill="white"/>
<path d="M305.268 111.164H296.268V126.897H290.897V111.164H281.896V106.761H305.268V111.164Z" fill="white"/>
<path d="M314.068 111.276L312.158 117.674H320.117L318.206 111.276H314.068ZM328.443 127.017H322.965L321.553 122.345H310.721L309.309 127.017H303.831L309.953 106.88H322.321L328.443 127.017Z" fill="white"/>
<path d="M200.466 154.096H210.344C212.33 154.096 213.028 152.78 213.028 150.659V145.887C213.028 143.283 212.196 142.746 210.317 142.746H200.466V154.096ZM195.097 138.349H210.451C216.062 138.349 218.56 140.443 218.56 146.162V150.378C218.56 155.881 216.788 158.486 211.176 158.486H195.097V138.349Z" fill="white"/>
<path d="M228.014 142.745V146.215H243.211V150.619H228.014V154.095H246.017V158.486H222.645V138.349H246.017V142.745H228.014Z" fill="white"/>
<path d="M272.701 138.335V145.586H267.331V142.745H257.544C255.557 142.745 254.859 144.062 254.859 146.186V150.95C254.859 153.558 255.691 154.095 257.571 154.095H267.331V151.247H272.701V158.499H257.437C251.825 158.499 249.328 156.402 249.328 150.676V146.454C249.328 140.943 251.1 138.335 256.712 138.335H272.701Z" fill="white"/>
<path d="M294.682 146.182C294.682 144.061 293.984 142.745 291.997 142.745H284.717C282.73 142.745 282.032 144.061 282.032 146.182V150.955C282.032 153.559 282.865 154.096 284.744 154.096H291.971C293.85 154.096 294.682 153.559 294.682 150.955V146.182ZM300.214 146.457V150.672C300.214 156.391 297.717 158.486 292.105 158.486H284.611C278.998 158.486 276.502 156.391 276.502 150.672V146.457C276.502 140.953 278.274 138.349 283.885 138.349H292.83C298.442 138.349 300.214 140.953 300.214 146.457Z" fill="white"/>
<path d="M309.708 149.428H320.357C321.364 149.428 322.181 148.611 322.181 147.604V144.572C322.181 143.565 321.364 142.748 320.357 142.748H309.708V149.428ZM324.76 153.492L327.711 158.49H321.616L319.06 154.099H309.708V158.483H304.338V138.346H320.837C324.853 138.346 326.855 139.544 327.485 142.749C327.639 143.53 327.711 145.113 327.711 146.084C327.711 147.053 327.658 148.546 327.527 149.396C327.205 151.475 326.41 152.796 324.76 153.492Z" fill="white"/>
</svg>
