<svg width="0" height="0" class="hidden">
    <symbol version="1.1" xmlns="http://www.w3.org/2000/svg" viewBox="0 0 466 512" id="phone">
        <path fill="currentColor" d="M45.605 345.109l65.813-7.88c15.805-1.901 31.352 3.805 42.493 15.488l47.676 49.999c73.328-39.129 133.439-101.897 170.752-179.067l-47.935-50.269c-11.143-11.684-16.584-27.988-14.769-44.563l7.512-68.475c3.109-27.444 25.135-48.095 51.563-48.095h44.825c29.279 0 53.635 25.542 51.822 56.247-13.733 232.051-190.703 417.368-411.721 431.769-29.279 1.901-53.635-23.64-53.635-54.344v-47.008c-0.259-27.443 19.433-50.541 45.603-53.802zM207.030 229.355h-103.643c-14.251 0-25.91-12.227-25.91-27.172s11.66-27.173 25.91-27.173h41.198l-111.675-117.113c-10.105-10.597-10.105-27.716 0-38.313s26.428-10.597 36.534 0l111.675 117.113v-43.204c0-14.945 11.66-27.172 25.911-27.172s25.91 12.228 25.91 27.172v108.69c0 14.945-11.659 27.173-25.91 27.173z"></path>
    </symbol>
    <symbol version="1.1" xmlns="http://www.w3.org/2000/svg" viewBox="0 0 3264 512" id="arrow">
        <path fill="currentColor" d="M3222.631 278.628c12.493-12.497 12.493-32.758 0-45.255l-203.648-203.647c-12.499-12.497-32.762-12.497-45.255 0-12.499 12.497-12.499 32.758 0 45.255l181.017 181.019-181.017 181.019c-12.499 12.497-12.499 32.759 0 45.255 12.493 12.497 32.755 12.497 45.255 0l203.648-203.647zM0 288h3200v-64h-3200v64z"></path>
    </symbol>
    <symbol version="1.1" xmlns="http://www.w3.org/2000/svg" viewBox="0 0 448 448" id="check">
        <path fill="currentColor" d="M417.75 141.5c0 6.25-2.5 12.5-7 17l-215 215c-4.5 4.5-10.75 7-17 7s-12.5-2.5-17-7l-124.5-124.5c-4.5-4.5-7-10.75-7-17s2.5-12.5 7-17l34-34c4.5-4.5 10.75-7 17-7s12.5 2.5 17 7l73.5 73.75 164-164.25c4.5-4.5 10.75-7 17-7s12.5 2.5 17 7l34 34c4.5 4.5 7 10.75 7 17z"></path>
    </symbol>
    <symbol version="1.1" xmlns="http://www.w3.org/2000/svg" viewBox="0 0 340 448" id="pin">
        <path fill="currentColor" d="M152.975 438.961c-127.136-184.309-150.734-203.225-150.734-270.961 0-92.784 75.216-168 168-168s168 75.216 168 168c0 67.736-23.599 86.652-150.734 270.961-8.344 12.053-26.189 12.051-34.531 0zM170.24 237.999c38.661 0 69.999-31.339 69.999-69.999s-31.339-70-69.999-70c-38.66 0-70 31.34-70 70s31.34 69.999 70 69.999z"></path>
    </symbol>
    <symbol version="1.1" xmlns="http://www.w3.org/2000/svg" viewBox="0 0 466 448" id="email">
        <path fill="currentColor" d="M463.68 406.001c0 23.196-18.803 41.999-42.001 41.999h-363.999c-23.196 0-42-18.803-42-41.999v-230.367c0-6.369 1.449-12.654 4.236-18.381s6.84-10.744 11.853-14.673c21.799-17.088 39.813-30.944 143.675-106.322 14.721-10.734 43.933-36.561 64.236-36.255 20.298-0.31 49.522 25.526 64.236 36.254 103.852 75.37 121.89 89.246 143.675 106.323 5.012 3.929 9.066 8.947 11.852 14.673 2.788 5.726 4.236 12.012 4.236 18.381v230.367zM406.223 233.971c-2.243-3.262-6.738-4.021-9.922-1.668-19.99 14.764-48.529 35.616-92.385 67.444-14.721 10.732-43.933 36.558-64.236 36.252-20.309 0.301-49.49-25.5-64.236-36.252-43.85-31.824-72.392-52.678-92.384-67.444-3.184-2.353-7.679-1.593-9.922 1.668l-7.938 11.546c-1.029 1.496-1.436 3.333-1.136 5.123 0.3 1.792 1.285 3.396 2.745 4.473 20.026 14.787 48.522 35.605 92.14 67.261 17.74 12.933 49.459 41.836 80.731 41.626 31.258 0.211 62.965-28.675 80.73-41.626 43.619-31.657 72.115-52.475 92.141-67.261 1.46-1.077 2.444-2.681 2.745-4.473 0.299-1.79-0.108-3.627-1.136-5.123l-7.937-11.546z"></path>
    </symbol>
</svg>