<svg width="410" height="68" viewBox="0 0 410 68" fill="none" xmlns="http://www.w3.org/2000/svg">
<rect x="0.5" y="0.5" width="409" height="67" rx="33.5" fill="white"/>
<rect x="0.5" y="0.5" width="409" height="67" rx="33.5" stroke="#BFC2C5"/>
<g filter="url(#filter0_d_13_6117)">
<rect x="30" y="19" width="94" height="30" rx="8" fill="white" shape-rendering="crispEdges"/>
<rect x="30.3" y="19.3" width="93.4" height="29.4" rx="7.7" stroke="#DCE1E6" stroke-width="0.6" shape-rendering="crispEdges"/>
<path d="M44.4219 34.3594H41.5234L41.5078 32.9297H44.0391C44.4661 32.9297 44.8281 32.8672 45.125 32.7422C45.4271 32.612 45.6562 32.4271 45.8125 32.1875C45.9688 31.9427 46.0469 31.6484 46.0469 31.3047C46.0469 30.9245 45.974 30.6146 45.8281 30.375C45.6823 30.1354 45.4583 29.9609 45.1562 29.8516C44.8594 29.7422 44.4792 29.6875 44.0156 29.6875H42.1172V39.5H40.1562V28.125H44.0156C44.6406 28.125 45.1979 28.1849 45.6875 28.3047C46.1823 28.4245 46.6016 28.612 46.9453 28.8672C47.2943 29.1172 47.5573 29.4349 47.7344 29.8203C47.9167 30.2057 48.0078 30.6641 48.0078 31.1953C48.0078 31.6641 47.8958 32.0938 47.6719 32.4844C47.4479 32.8698 47.1172 33.1849 46.6797 33.4297C46.2422 33.6745 45.6979 33.8203 45.0469 33.8672L44.4219 34.3594ZM44.3359 39.5H40.9062L41.7891 37.9453H44.3359C44.7786 37.9453 45.1484 37.8724 45.4453 37.7266C45.7422 37.5755 45.9635 37.3698 46.1094 37.1094C46.2604 36.8438 46.3359 36.5339 46.3359 36.1797C46.3359 35.8099 46.2708 35.4896 46.1406 35.2188C46.0104 34.9427 45.8047 34.7318 45.5234 34.5859C45.2422 34.4349 44.875 34.3594 44.4219 34.3594H42.2188L42.2344 32.9297H45.1016L45.5469 33.4688C46.1719 33.4896 46.6849 33.6276 47.0859 33.8828C47.4922 34.138 47.7943 34.4688 47.9922 34.875C48.1901 35.2812 48.2891 35.7188 48.2891 36.1875C48.2891 36.9115 48.1302 37.5182 47.8125 38.0078C47.5 38.4974 47.0495 38.8698 46.4609 39.125C45.8724 39.375 45.1641 39.5 44.3359 39.5ZM53.2113 38.1562C53.5185 38.1562 53.7946 38.0964 54.0394 37.9766C54.2894 37.8516 54.4899 37.6797 54.6409 37.4609C54.7972 37.2422 54.8831 36.9896 54.8988 36.7031H56.6722C56.6618 37.25 56.5003 37.7474 56.1878 38.1953C55.8753 38.6432 55.4613 39 54.9456 39.2656C54.43 39.526 53.8597 39.6562 53.2347 39.6562C52.5889 39.6562 52.0264 39.5469 51.5472 39.3281C51.068 39.1042 50.6696 38.7969 50.3519 38.4062C50.0342 38.0156 49.7946 37.5651 49.6331 37.0547C49.4769 36.5443 49.3988 35.9974 49.3988 35.4141V35.1406C49.3988 34.5573 49.4769 34.0104 49.6331 33.5C49.7946 32.9844 50.0342 32.5312 50.3519 32.1406C50.6696 31.75 51.068 31.4453 51.5472 31.2266C52.0264 31.0026 52.5863 30.8906 53.2269 30.8906C53.904 30.8906 54.4977 31.026 55.0081 31.2969C55.5185 31.5625 55.9196 31.9349 56.2113 32.4141C56.5081 32.888 56.6618 33.4401 56.6722 34.0703H54.8988C54.8831 33.7578 54.805 33.4766 54.6644 33.2266C54.529 32.9714 54.3363 32.7682 54.0863 32.6172C53.8415 32.4661 53.5472 32.3906 53.2034 32.3906C52.8232 32.3906 52.5081 32.4688 52.2581 32.625C52.0081 32.776 51.8128 32.9844 51.6722 33.25C51.5316 33.5104 51.43 33.8047 51.3675 34.1328C51.3102 34.4557 51.2816 34.7917 51.2816 35.1406V35.4141C51.2816 35.763 51.3102 36.1016 51.3675 36.4297C51.4248 36.7578 51.5238 37.0521 51.6644 37.3125C51.8102 37.5677 52.0081 37.7734 52.2581 37.9297C52.5081 38.0807 52.8258 38.1562 53.2113 38.1562ZM61.5241 39.6562C60.8991 39.6562 60.334 39.5547 59.8288 39.3516C59.3288 39.1432 58.9017 38.8542 58.5475 38.4844C58.1985 38.1146 57.9303 37.6797 57.7428 37.1797C57.5553 36.6797 57.4616 36.1406 57.4616 35.5625V35.25C57.4616 34.5885 57.5579 33.9896 57.7506 33.4531C57.9433 32.9167 58.2116 32.4583 58.5553 32.0781C58.8991 31.6927 59.3053 31.3984 59.7741 31.1953C60.2428 30.9922 60.7506 30.8906 61.2975 30.8906C61.9017 30.8906 62.4303 30.9922 62.8834 31.1953C63.3366 31.3984 63.7116 31.6849 64.0084 32.0547C64.3105 32.4193 64.5345 32.8542 64.6803 33.3594C64.8314 33.8646 64.9069 34.4219 64.9069 35.0312V35.8359H58.3756V34.4844H63.0475V34.3359C63.0371 33.9974 62.9694 33.6797 62.8444 33.3828C62.7246 33.0859 62.5397 32.8464 62.2897 32.6641C62.0397 32.4818 61.7064 32.3906 61.2897 32.3906C60.9772 32.3906 60.6985 32.4583 60.4538 32.5938C60.2142 32.724 60.0136 32.9141 59.8522 33.1641C59.6907 33.4141 59.5657 33.7161 59.4772 34.0703C59.3939 34.4193 59.3522 34.8125 59.3522 35.25V35.5625C59.3522 35.9323 59.4017 36.276 59.5006 36.5938C59.6048 36.9062 59.7558 37.1797 59.9538 37.4141C60.1517 37.6484 60.3913 37.8333 60.6725 37.9688C60.9538 38.099 61.2741 38.1641 61.6334 38.1641C62.0866 38.1641 62.4902 38.0729 62.8444 37.8906C63.1985 37.7083 63.5058 37.4505 63.7663 37.1172L64.7584 38.0781C64.5761 38.3438 64.3392 38.599 64.0475 38.8438C63.7558 39.0833 63.3991 39.2786 62.9772 39.4297C62.5605 39.5807 62.0761 39.6562 61.5241 39.6562ZM75.3919 31.0469V32.5469H71.22V31.0469H75.3919ZM71.6653 31.0469V39.5H69.7825V31.0469H71.6653ZM76.8684 31.0469V39.5H74.9778V31.0469H76.8684ZM78.1813 35.3672V35.1875C78.1813 34.5781 78.2698 34.013 78.4469 33.4922C78.624 32.9661 78.8792 32.5104 79.2125 32.125C79.551 31.7344 79.9625 31.4323 80.4469 31.2188C80.9365 31 81.4885 30.8906 82.1031 30.8906C82.7229 30.8906 83.275 31 83.7594 31.2188C84.249 31.4323 84.663 31.7344 85.0016 32.125C85.3401 32.5104 85.5979 32.9661 85.775 33.4922C85.9521 34.013 86.0406 34.5781 86.0406 35.1875V35.3672C86.0406 35.9766 85.9521 36.5417 85.775 37.0625C85.5979 37.5833 85.3401 38.0391 85.0016 38.4297C84.663 38.8151 84.2516 39.1172 83.7672 39.3359C83.2828 39.5495 82.7333 39.6562 82.1188 39.6562C81.499 39.6562 80.9443 39.5495 80.4547 39.3359C79.9703 39.1172 79.5589 38.8151 79.2203 38.4297C78.8818 38.0391 78.624 37.5833 78.4469 37.0625C78.2698 36.5417 78.1813 35.9766 78.1813 35.3672ZM80.0641 35.1875V35.3672C80.0641 35.7474 80.1031 36.1068 80.1813 36.4453C80.2594 36.7839 80.3818 37.0807 80.5484 37.3359C80.7151 37.5911 80.9286 37.7917 81.1891 37.9375C81.4495 38.0833 81.7594 38.1562 82.1188 38.1562C82.4677 38.1562 82.7698 38.0833 83.025 37.9375C83.2854 37.7917 83.499 37.5911 83.6656 37.3359C83.8323 37.0807 83.9547 36.7839 84.0328 36.4453C84.1161 36.1068 84.1578 35.7474 84.1578 35.3672V35.1875C84.1578 34.8125 84.1161 34.4583 84.0328 34.125C83.9547 33.7865 83.8297 33.487 83.6578 33.2266C83.4911 32.9661 83.2776 32.763 83.0172 32.6172C82.762 32.4661 82.4573 32.3906 82.1031 32.3906C81.749 32.3906 81.4417 32.4661 81.1813 32.6172C80.926 32.763 80.7151 32.9661 80.5484 33.2266C80.3818 33.487 80.2594 33.7865 80.1813 34.125C80.1031 34.4583 80.0641 34.8125 80.0641 35.1875ZM90.7519 38.1562C91.0592 38.1562 91.3352 38.0964 91.58 37.9766C91.83 37.8516 92.0305 37.6797 92.1816 37.4609C92.3378 37.2422 92.4238 36.9896 92.4394 36.7031H94.2128C94.2024 37.25 94.0409 37.7474 93.7284 38.1953C93.4159 38.6432 93.0019 39 92.4863 39.2656C91.9706 39.526 91.4003 39.6562 90.7753 39.6562C90.1295 39.6562 89.567 39.5469 89.0878 39.3281C88.6086 39.1042 88.2102 38.7969 87.8925 38.4062C87.5748 38.0156 87.3352 37.5651 87.1738 37.0547C87.0175 36.5443 86.9394 35.9974 86.9394 35.4141V35.1406C86.9394 34.5573 87.0175 34.0104 87.1738 33.5C87.3352 32.9844 87.5748 32.5312 87.8925 32.1406C88.2102 31.75 88.6086 31.4453 89.0878 31.2266C89.567 31.0026 90.1269 30.8906 90.7675 30.8906C91.4446 30.8906 92.0383 31.026 92.5488 31.2969C93.0592 31.5625 93.4602 31.9349 93.7519 32.4141C94.0488 32.888 94.2024 33.4401 94.2128 34.0703H92.4394C92.4238 33.7578 92.3456 33.4766 92.205 33.2266C92.0696 32.9714 91.8769 32.7682 91.6269 32.6172C91.3821 32.4661 91.0878 32.3906 90.7441 32.3906C90.3639 32.3906 90.0488 32.4688 89.7988 32.625C89.5488 32.776 89.3534 32.9844 89.2128 33.25C89.0722 33.5104 88.9706 33.8047 88.9081 34.1328C88.8508 34.4557 88.8222 34.7917 88.8222 35.1406V35.4141C88.8222 35.763 88.8508 36.1016 88.9081 36.4297C88.9654 36.7578 89.0644 37.0521 89.205 37.3125C89.3508 37.5677 89.5488 37.7734 89.7988 37.9297C90.0488 38.0807 90.3665 38.1562 90.7519 38.1562ZM99.26 31.0469V39.5H97.3694V31.0469H99.26ZM102.033 31.0469V32.5312H94.6428V31.0469H102.033ZM104.37 33.7344H106.862C107.591 33.7344 108.211 33.8568 108.721 34.1016C109.232 34.3464 109.62 34.6875 109.885 35.125C110.156 35.5573 110.292 36.0521 110.292 36.6094C110.292 37.0208 110.216 37.4036 110.065 37.7578C109.914 38.1068 109.69 38.4115 109.393 38.6719C109.101 38.9323 108.742 39.1354 108.315 39.2812C107.893 39.4271 107.409 39.5 106.862 39.5H103.12V31.0469H105.01V38.0078H106.862C107.237 38.0078 107.536 37.9427 107.76 37.8125C107.984 37.6823 108.146 37.513 108.245 37.3047C108.349 37.0964 108.401 36.875 108.401 36.6406C108.401 36.401 108.349 36.1745 108.245 35.9609C108.146 35.7474 107.984 35.5729 107.76 35.4375C107.536 35.3021 107.237 35.2344 106.862 35.2344H104.37V33.7344ZM113.62 31.0469V39.5H111.737V31.0469H113.62Z" fill="#3770B1"/>
</g>
<path d="M149.156 28.125V39.5H147.203V29.6875H142.148V39.5H140.195V28.125H149.156ZM150.649 35.3672V35.1875C150.649 34.5781 150.737 34.013 150.914 33.4922C151.091 32.9661 151.347 32.5104 151.68 32.125C152.019 31.7344 152.43 31.4323 152.914 31.2188C153.404 31 153.956 30.8906 154.571 30.8906C155.19 30.8906 155.743 31 156.227 31.2188C156.716 31.4323 157.131 31.7344 157.469 32.125C157.808 32.5104 158.065 32.9661 158.243 33.4922C158.42 34.013 158.508 34.5781 158.508 35.1875V35.3672C158.508 35.9766 158.42 36.5417 158.243 37.0625C158.065 37.5833 157.808 38.0391 157.469 38.4297C157.131 38.8151 156.719 39.1172 156.235 39.3359C155.75 39.5495 155.201 39.6562 154.586 39.6562C153.966 39.6562 153.412 39.5495 152.922 39.3359C152.438 39.1172 152.026 38.8151 151.688 38.4297C151.349 38.0391 151.091 37.5833 150.914 37.0625C150.737 36.5417 150.649 35.9766 150.649 35.3672ZM152.532 35.1875V35.3672C152.532 35.7474 152.571 36.1068 152.649 36.4453C152.727 36.7839 152.849 37.0807 153.016 37.3359C153.183 37.5911 153.396 37.7917 153.657 37.9375C153.917 38.0833 154.227 38.1562 154.586 38.1562C154.935 38.1562 155.237 38.0833 155.493 37.9375C155.753 37.7917 155.966 37.5911 156.133 37.3359C156.3 37.0807 156.422 36.7839 156.5 36.4453C156.584 36.1068 156.625 35.7474 156.625 35.3672V35.1875C156.625 34.8125 156.584 34.4583 156.5 34.125C156.422 33.7865 156.297 33.487 156.125 33.2266C155.959 32.9661 155.745 32.763 155.485 32.6172C155.229 32.4661 154.925 32.3906 154.571 32.3906C154.216 32.3906 153.909 32.4661 153.649 32.6172C153.394 32.763 153.183 32.9661 153.016 33.2266C152.849 33.487 152.727 33.7865 152.649 34.125C152.571 34.4583 152.532 34.8125 152.532 35.1875ZM163.219 38.1562C163.527 38.1562 163.803 38.0964 164.048 37.9766C164.298 37.8516 164.498 37.6797 164.649 37.4609C164.805 37.2422 164.891 36.9896 164.907 36.7031H166.68C166.67 37.25 166.508 37.7474 166.196 38.1953C165.883 38.6432 165.469 39 164.954 39.2656C164.438 39.526 163.868 39.6562 163.243 39.6562C162.597 39.6562 162.034 39.5469 161.555 39.3281C161.076 39.1042 160.678 38.7969 160.36 38.4062C160.042 38.0156 159.803 37.5651 159.641 37.0547C159.485 36.5443 159.407 35.9974 159.407 35.4141V35.1406C159.407 34.5573 159.485 34.0104 159.641 33.5C159.803 32.9844 160.042 32.5312 160.36 32.1406C160.678 31.75 161.076 31.4453 161.555 31.2266C162.034 31.0026 162.594 30.8906 163.235 30.8906C163.912 30.8906 164.506 31.026 165.016 31.2969C165.527 31.5625 165.928 31.9349 166.219 32.4141C166.516 32.888 166.67 33.4401 166.68 34.0703H164.907C164.891 33.7578 164.813 33.4766 164.673 33.2266C164.537 32.9714 164.344 32.7682 164.094 32.6172C163.85 32.4661 163.555 32.3906 163.212 32.3906C162.831 32.3906 162.516 32.4688 162.266 32.625C162.016 32.776 161.821 32.9844 161.68 33.25C161.54 33.5104 161.438 33.8047 161.376 34.1328C161.318 34.4557 161.29 34.7917 161.29 35.1406V35.4141C161.29 35.763 161.318 36.1016 161.376 36.4297C161.433 36.7578 161.532 37.0521 161.673 37.3125C161.818 37.5677 162.016 37.7734 162.266 37.9297C162.516 38.0807 162.834 38.1562 163.219 38.1562ZM171.728 31.0469V39.5H169.837V31.0469H171.728ZM174.501 31.0469V32.5312H167.11V31.0469H174.501ZM176.837 33.7344H179.329C180.059 33.7344 180.678 33.8568 181.189 34.1016C181.699 34.3464 182.087 34.6875 182.353 35.125C182.624 35.5573 182.759 36.0521 182.759 36.6094C182.759 37.0208 182.684 37.4036 182.533 37.7578C182.381 38.1068 182.158 38.4115 181.861 38.6719C181.569 38.9323 181.21 39.1354 180.783 39.2812C180.361 39.4271 179.876 39.5 179.329 39.5H175.587V31.0469H177.478V38.0078H179.329C179.704 38.0078 180.004 37.9427 180.228 37.8125C180.452 37.6823 180.613 37.513 180.712 37.3047C180.816 37.0964 180.868 36.875 180.868 36.6406C180.868 36.401 180.816 36.1745 180.712 35.9609C180.613 35.7474 180.452 35.5729 180.228 35.4375C180.004 35.3021 179.704 35.2344 179.329 35.2344H176.837V33.7344ZM186.087 31.0469V39.5H184.204V31.0469H186.087ZM195.111 38.1562C195.419 38.1562 195.695 38.0964 195.939 37.9766C196.189 37.8516 196.39 37.6797 196.541 37.4609C196.697 37.2422 196.783 36.9896 196.799 36.7031H198.572C198.562 37.25 198.4 37.7474 198.088 38.1953C197.775 38.6432 197.361 39 196.846 39.2656C196.33 39.526 195.76 39.6562 195.135 39.6562C194.489 39.6562 193.926 39.5469 193.447 39.3281C192.968 39.1042 192.57 38.7969 192.252 38.4062C191.934 38.0156 191.695 37.5651 191.533 37.0547C191.377 36.5443 191.299 35.9974 191.299 35.4141V35.1406C191.299 34.5573 191.377 34.0104 191.533 33.5C191.695 32.9844 191.934 32.5312 192.252 32.1406C192.57 31.75 192.968 31.4453 193.447 31.2266C193.926 31.0026 194.486 30.8906 195.127 30.8906C195.804 30.8906 196.398 31.026 196.908 31.2969C197.419 31.5625 197.82 31.9349 198.111 32.4141C198.408 32.888 198.562 33.4401 198.572 34.0703H196.799C196.783 33.7578 196.705 33.4766 196.564 33.2266C196.429 32.9714 196.236 32.7682 195.986 32.6172C195.741 32.4661 195.447 32.3906 195.103 32.3906C194.723 32.3906 194.408 32.4688 194.158 32.625C193.908 32.776 193.713 32.9844 193.572 33.25C193.432 33.5104 193.33 33.8047 193.268 34.1328C193.21 34.4557 193.182 34.7917 193.182 35.1406V35.4141C193.182 35.763 193.21 36.1016 193.268 36.4297C193.325 36.7578 193.424 37.0521 193.564 37.3125C193.71 37.5677 193.908 37.7734 194.158 37.9297C194.408 38.0807 194.726 38.1562 195.111 38.1562ZM199.338 35.3672V35.1875C199.338 34.5781 199.427 34.013 199.604 33.4922C199.781 32.9661 200.036 32.5104 200.369 32.125C200.708 31.7344 201.119 31.4323 201.604 31.2188C202.093 31 202.645 30.8906 203.26 30.8906C203.88 30.8906 204.432 31 204.916 31.2188C205.406 31.4323 205.82 31.7344 206.158 32.125C206.497 32.5104 206.755 32.9661 206.932 33.4922C207.109 34.013 207.197 34.5781 207.197 35.1875V35.3672C207.197 35.9766 207.109 36.5417 206.932 37.0625C206.755 37.5833 206.497 38.0391 206.158 38.4297C205.82 38.8151 205.408 39.1172 204.924 39.3359C204.44 39.5495 203.89 39.6562 203.276 39.6562C202.656 39.6562 202.101 39.5495 201.612 39.3359C201.127 39.1172 200.716 38.8151 200.377 38.4297C200.039 38.0391 199.781 37.5833 199.604 37.0625C199.427 36.5417 199.338 35.9766 199.338 35.3672ZM201.221 35.1875V35.3672C201.221 35.7474 201.26 36.1068 201.338 36.4453C201.416 36.7839 201.539 37.0807 201.705 37.3359C201.872 37.5911 202.086 37.7917 202.346 37.9375C202.606 38.0833 202.916 38.1562 203.276 38.1562C203.625 38.1562 203.927 38.0833 204.182 37.9375C204.442 37.7917 204.656 37.5911 204.822 37.3359C204.989 37.0807 205.112 36.7839 205.19 36.4453C205.273 36.1068 205.315 35.7474 205.315 35.3672V35.1875C205.315 34.8125 205.273 34.4583 205.19 34.125C205.112 33.7865 204.987 33.487 204.815 33.2266C204.648 32.9661 204.434 32.763 204.174 32.6172C203.919 32.4661 203.614 32.3906 203.26 32.3906C202.906 32.3906 202.599 32.4661 202.338 32.6172C202.083 32.763 201.872 32.9661 201.705 33.2266C201.539 33.487 201.416 33.7865 201.338 34.125C201.26 34.4583 201.221 34.8125 201.221 35.1875ZM208.096 35.3672V35.1875C208.096 34.5781 208.185 34.013 208.362 33.4922C208.539 32.9661 208.794 32.5104 209.128 32.125C209.466 31.7344 209.878 31.4323 210.362 31.2188C210.851 31 211.404 30.8906 212.018 30.8906C212.638 30.8906 213.19 31 213.674 31.2188C214.164 31.4323 214.578 31.7344 214.917 32.125C215.255 32.5104 215.513 32.9661 215.69 33.4922C215.867 34.013 215.956 34.5781 215.956 35.1875V35.3672C215.956 35.9766 215.867 36.5417 215.69 37.0625C215.513 37.5833 215.255 38.0391 214.917 38.4297C214.578 38.8151 214.167 39.1172 213.682 39.3359C213.198 39.5495 212.648 39.6562 212.034 39.6562C211.414 39.6562 210.859 39.5495 210.37 39.3359C209.885 39.1172 209.474 38.8151 209.135 38.4297C208.797 38.0391 208.539 37.5833 208.362 37.0625C208.185 36.5417 208.096 35.9766 208.096 35.3672ZM209.979 35.1875V35.3672C209.979 35.7474 210.018 36.1068 210.096 36.4453C210.174 36.7839 210.297 37.0807 210.463 37.3359C210.63 37.5911 210.844 37.7917 211.104 37.9375C211.364 38.0833 211.674 38.1562 212.034 38.1562C212.383 38.1562 212.685 38.0833 212.94 37.9375C213.2 37.7917 213.414 37.5911 213.581 37.3359C213.747 37.0807 213.87 36.7839 213.948 36.4453C214.031 36.1068 214.073 35.7474 214.073 35.3672V35.1875C214.073 34.8125 214.031 34.4583 213.948 34.125C213.87 33.7865 213.745 33.487 213.573 33.2266C213.406 32.9661 213.193 32.763 212.932 32.6172C212.677 32.4661 212.372 32.3906 212.018 32.3906C211.664 32.3906 211.357 32.4661 211.096 32.6172C210.841 32.763 210.63 32.9661 210.463 33.2266C210.297 33.487 210.174 33.7865 210.096 34.125C210.018 34.4583 209.979 34.8125 209.979 35.1875ZM222.518 27.3438H224.042C224.042 27.8073 223.977 28.1901 223.847 28.4922C223.722 28.7891 223.534 29.0339 223.284 29.2266C223.039 29.4141 222.735 29.5651 222.37 29.6797C222.011 29.7943 221.594 29.8984 221.12 29.9922C220.683 30.0859 220.287 30.2344 219.933 30.4375C219.584 30.6354 219.289 30.9141 219.05 31.2734C218.815 31.6276 218.646 32.0833 218.542 32.6406C218.438 33.1979 218.406 33.8776 218.448 34.6797V35.2109L216.956 35.3438V34.8125C216.956 33.8177 217.047 32.9505 217.229 32.2109C217.412 31.4714 217.669 30.849 218.003 30.3438C218.341 29.8333 218.742 29.4271 219.206 29.125C219.675 28.8229 220.196 28.6146 220.768 28.5C221.159 28.4167 221.485 28.3333 221.745 28.25C222.005 28.1615 222.198 28.0495 222.323 27.9141C222.453 27.7734 222.518 27.5833 222.518 27.3438ZM221.198 31.5234C221.761 31.5234 222.261 31.6224 222.698 31.8203C223.136 32.013 223.505 32.2839 223.808 32.6328C224.11 32.9818 224.339 33.3932 224.495 33.8672C224.656 34.3411 224.737 34.8568 224.737 35.4141V35.5859C224.737 36.1693 224.651 36.7083 224.479 37.2031C224.308 37.6979 224.055 38.1302 223.722 38.5C223.388 38.8646 222.979 39.151 222.495 39.3594C222.016 39.5625 221.466 39.6641 220.847 39.6641C220.232 39.6641 219.683 39.5573 219.198 39.3438C218.714 39.1302 218.305 38.8333 217.972 38.4531C217.638 38.0677 217.386 37.6172 217.214 37.1016C217.042 36.5859 216.956 36.0234 216.956 35.4141V35.2422C216.951 35.1328 216.979 35.026 217.042 34.9219C217.11 34.8177 217.19 34.7057 217.284 34.5859C217.378 34.4661 217.461 34.3281 217.534 34.1719C217.794 33.6458 218.102 33.1849 218.456 32.7891C218.81 32.3932 219.214 32.0833 219.667 31.8594C220.125 31.6354 220.636 31.5234 221.198 31.5234ZM220.831 33.0156C220.362 33.0156 219.979 33.1276 219.683 33.3516C219.391 33.5703 219.175 33.862 219.034 34.2266C218.899 34.5911 218.831 34.987 218.831 35.4141V35.5859C218.831 35.9349 218.87 36.2656 218.948 36.5781C219.026 36.8906 219.143 37.1667 219.3 37.4062C219.461 37.6406 219.669 37.8255 219.925 37.9609C220.185 38.0964 220.492 38.1641 220.847 38.1641C221.206 38.1641 221.511 38.0964 221.761 37.9609C222.016 37.8255 222.222 37.6406 222.378 37.4062C222.539 37.1667 222.656 36.8906 222.729 36.5781C222.808 36.2656 222.847 35.9349 222.847 35.5859V35.4141C222.847 35.0911 222.808 34.7865 222.729 34.5C222.656 34.2135 222.539 33.9609 222.378 33.7422C222.216 33.5182 222.008 33.3411 221.753 33.2109C221.498 33.0807 221.19 33.0156 220.831 33.0156ZM238.245 38.0078L238.097 42.0078H236.37V39.5H235.355V38.0078H238.245ZM225.761 31.0469H227.644V38H230.331V31.0469H232.222V38H234.902V31.0469H236.784V39.5H225.761V31.0469ZM243.05 39.6562C242.425 39.6562 241.86 39.5547 241.355 39.3516C240.855 39.1432 240.428 38.8542 240.074 38.4844C239.725 38.1146 239.457 37.6797 239.269 37.1797C239.082 36.6797 238.988 36.1406 238.988 35.5625V35.25C238.988 34.5885 239.084 33.9896 239.277 33.4531C239.47 32.9167 239.738 32.4583 240.082 32.0781C240.425 31.6927 240.832 31.3984 241.3 31.1953C241.769 30.9922 242.277 30.8906 242.824 30.8906C243.428 30.8906 243.957 30.9922 244.41 31.1953C244.863 31.3984 245.238 31.6849 245.535 32.0547C245.837 32.4193 246.061 32.8542 246.207 33.3594C246.358 33.8646 246.433 34.4219 246.433 35.0312V35.8359H239.902V34.4844H244.574V34.3359C244.563 33.9974 244.496 33.6797 244.371 33.3828C244.251 33.0859 244.066 32.8464 243.816 32.6641C243.566 32.4818 243.233 32.3906 242.816 32.3906C242.503 32.3906 242.225 32.4583 241.98 32.5938C241.74 32.724 241.54 32.9141 241.378 33.1641C241.217 33.4141 241.092 33.7161 241.003 34.0703C240.92 34.4193 240.878 34.8125 240.878 35.25V35.5625C240.878 35.9323 240.928 36.276 241.027 36.5938C241.131 36.9062 241.282 37.1797 241.48 37.4141C241.678 37.6484 241.918 37.8333 242.199 37.9688C242.48 38.099 242.8 38.1641 243.16 38.1641C243.613 38.1641 244.016 38.0729 244.371 37.8906C244.725 37.7083 245.032 37.4505 245.293 37.1172L246.285 38.0781C246.102 38.3438 245.865 38.599 245.574 38.8438C245.282 39.0833 244.925 39.2786 244.503 39.4297C244.087 39.5807 243.602 39.6562 243.05 39.6562ZM251.035 38.1562C251.342 38.1562 251.618 38.0964 251.863 37.9766C252.113 37.8516 252.314 37.6797 252.465 37.4609C252.621 37.2422 252.707 36.9896 252.723 36.7031H254.496C254.486 37.25 254.324 37.7474 254.012 38.1953C253.699 38.6432 253.285 39 252.769 39.2656C252.254 39.526 251.683 39.6562 251.058 39.6562C250.413 39.6562 249.85 39.5469 249.371 39.3281C248.892 39.1042 248.493 38.7969 248.176 38.4062C247.858 38.0156 247.618 37.5651 247.457 37.0547C247.301 36.5443 247.223 35.9974 247.223 35.4141V35.1406C247.223 34.5573 247.301 34.0104 247.457 33.5C247.618 32.9844 247.858 32.5312 248.176 32.1406C248.493 31.75 248.892 31.4453 249.371 31.2266C249.85 31.0026 250.41 30.8906 251.051 30.8906C251.728 30.8906 252.321 31.026 252.832 31.2969C253.342 31.5625 253.743 31.9349 254.035 32.4141C254.332 32.888 254.486 33.4401 254.496 34.0703H252.723C252.707 33.7578 252.629 33.4766 252.488 33.2266C252.353 32.9714 252.16 32.7682 251.91 32.6172C251.665 32.4661 251.371 32.3906 251.027 32.3906C250.647 32.3906 250.332 32.4688 250.082 32.625C249.832 32.776 249.637 32.9844 249.496 33.25C249.355 33.5104 249.254 33.8047 249.191 34.1328C249.134 34.4557 249.105 34.7917 249.105 35.1406V35.4141C249.105 35.763 249.134 36.1016 249.191 36.4297C249.249 36.7578 249.348 37.0521 249.488 37.3125C249.634 37.5677 249.832 37.7734 250.082 37.9297C250.332 38.0807 250.65 38.1562 251.035 38.1562ZM259.543 31.0469V39.5H257.652V31.0469H259.543ZM262.317 31.0469V32.5312H254.926V31.0469H262.317ZM267.364 35.8828H264.661L264.645 34.5547H266.864C267.228 34.5547 267.528 34.5182 267.762 34.4453C268.002 34.3724 268.179 34.263 268.293 34.1172C268.408 33.9661 268.465 33.7839 268.465 33.5703C268.465 33.3932 268.431 33.2396 268.364 33.1094C268.296 32.974 268.192 32.8646 268.051 32.7812C267.916 32.6927 267.744 32.6302 267.536 32.5938C267.332 32.5521 267.096 32.5312 266.825 32.5312H265.286V39.5H263.403V31.0469H266.825C267.366 31.0469 267.853 31.0938 268.286 31.1875C268.723 31.2812 269.096 31.4245 269.403 31.6172C269.71 31.8099 269.944 32.0547 270.106 32.3516C270.273 32.6432 270.356 32.987 270.356 33.3828C270.356 33.6432 270.299 33.888 270.184 34.1172C270.075 34.3464 269.911 34.5495 269.692 34.7266C269.473 34.9036 269.205 35.0495 268.887 35.1641C268.569 35.2734 268.205 35.3411 267.793 35.3672L267.364 35.8828ZM267.364 39.5H264.114L264.864 38.0156H267.364C267.697 38.0156 267.973 37.974 268.192 37.8906C268.411 37.8073 268.572 37.6875 268.676 37.5312C268.786 37.3698 268.84 37.1797 268.84 36.9609C268.84 36.737 268.788 36.5443 268.684 36.3828C268.58 36.2214 268.418 36.099 268.2 36.0156C267.986 35.9271 267.707 35.8828 267.364 35.8828H265.215L265.231 34.5547H267.786L268.325 35.0703C268.861 35.1068 269.306 35.2214 269.661 35.4141C270.015 35.6068 270.28 35.849 270.457 36.1406C270.635 36.4323 270.723 36.75 270.723 37.0938C270.723 37.4896 270.648 37.8385 270.497 38.1406C270.351 38.4427 270.132 38.6953 269.84 38.8984C269.554 39.0964 269.202 39.2474 268.786 39.3516C268.369 39.4505 267.895 39.5 267.364 39.5ZM276.794 37.8047V33.7734C276.794 33.4714 276.739 33.2109 276.63 32.9922C276.52 32.7734 276.354 32.6042 276.13 32.4844C275.911 32.3646 275.635 32.3047 275.302 32.3047C274.994 32.3047 274.729 32.3568 274.505 32.4609C274.281 32.5651 274.106 32.7057 273.981 32.8828C273.856 33.0599 273.794 33.2604 273.794 33.4844H271.919C271.919 33.151 271.999 32.8281 272.161 32.5156C272.322 32.2031 272.557 31.9245 272.864 31.6797C273.171 31.4349 273.539 31.2422 273.966 31.1016C274.393 30.9609 274.872 30.8906 275.403 30.8906C276.039 30.8906 276.601 30.9974 277.091 31.2109C277.585 31.4245 277.973 31.7474 278.255 32.1797C278.541 32.6068 278.684 33.1432 278.684 33.7891V37.5469C278.684 37.9323 278.71 38.2786 278.762 38.5859C278.82 38.888 278.901 39.151 279.005 39.375V39.5H277.075C276.986 39.2969 276.916 39.0391 276.864 38.7266C276.817 38.4089 276.794 38.1016 276.794 37.8047ZM277.067 34.3594L277.083 35.5234H275.731C275.382 35.5234 275.075 35.5573 274.809 35.625C274.544 35.6875 274.322 35.7812 274.145 35.9062C273.968 36.0312 273.835 36.1823 273.747 36.3594C273.658 36.5365 273.614 36.737 273.614 36.9609C273.614 37.1849 273.666 37.3906 273.77 37.5781C273.874 37.7604 274.026 37.9036 274.223 38.0078C274.427 38.112 274.671 38.1641 274.958 38.1641C275.343 38.1641 275.679 38.0859 275.966 37.9297C276.257 37.7682 276.486 37.5729 276.653 37.3438C276.82 37.1094 276.908 36.888 276.919 36.6797L277.528 37.5156C277.466 37.7292 277.359 37.9583 277.208 38.2031C277.057 38.4479 276.859 38.6823 276.614 38.9062C276.374 39.125 276.085 39.3047 275.747 39.4453C275.414 39.5859 275.028 39.6562 274.591 39.6562C274.039 39.6562 273.546 39.5469 273.114 39.3281C272.682 39.1042 272.343 38.8047 272.098 38.4297C271.854 38.0495 271.731 37.6198 271.731 37.1406C271.731 36.6927 271.815 36.2969 271.981 35.9531C272.153 35.6042 272.403 35.3125 272.731 35.0781C273.065 34.8438 273.471 34.6667 273.95 34.5469C274.429 34.4219 274.976 34.3594 275.591 34.3594H277.067Z" fill="#898E92"/>
<path fill-rule="evenodd" clip-rule="evenodd" d="M368.127 24.1621C372.545 24.1621 376.127 27.7448 376.127 32.1631C376.127 34.0514 375.47 35.785 374.376 37.1533L379.78 42.5576C380.073 42.8505 380.073 43.3254 379.78 43.6182C379.487 43.911 379.013 43.9108 378.72 43.6182L373.334 38.2324C371.934 39.4342 370.116 40.1631 368.127 40.1631C363.709 40.1631 360.127 36.5811 360.127 32.1631C360.127 27.7448 363.709 24.1621 368.127 24.1621ZM368.127 25.6631C364.537 25.6631 361.627 28.5732 361.627 32.1631C361.627 35.7527 364.537 38.6631 368.127 38.6631C371.717 38.6631 374.627 35.7527 374.627 32.1631C374.627 28.5732 371.717 25.6631 368.127 25.6631Z" fill="#AEB7C2" stroke="#AEB7C2" stroke-width="0.7"/>
<defs>
<filter id="filter0_d_13_6117" x="21" y="12" width="112" height="48" filterUnits="userSpaceOnUse" color-interpolation-filters="sRGB">
<feFlood flood-opacity="0" result="BackgroundImageFix"/>
<feColorMatrix in="SourceAlpha" type="matrix" values="0 0 0 0 0 0 0 0 0 0 0 0 0 0 0 0 0 0 127 0" result="hardAlpha"/>
<feOffset dy="2"/>
<feGaussianBlur stdDeviation="4.5"/>
<feComposite in2="hardAlpha" operator="out"/>
<feColorMatrix type="matrix" values="0 0 0 0 0.682353 0 0 0 0 0.717647 0 0 0 0 0.760784 0 0 0 0.23 0"/>
<feBlend mode="normal" in2="BackgroundImageFix" result="effect1_dropShadow_13_6117"/>
<feBlend mode="normal" in="SourceGraphic" in2="effect1_dropShadow_13_6117" result="shape"/>
</filter>
</defs>
</svg>
