<svg width="70" height="70" viewBox="0 0 70 70" fill="none" xmlns="http://www.w3.org/2000/svg">
<rect width="70" height="70" rx="35" fill="url(#paint0_linear_64_179)"/>
<rect width="70" height="70" rx="35" fill="url(#paint1_radial_64_179)"/>
<path fill-rule="evenodd" clip-rule="evenodd" d="M35.4082 52.8944C31.679 52.8944 29.946 52.362 26.9336 50.2324C25.0281 52.6282 18.9943 54.5005 18.7311 51.2972C18.7311 48.8927 18.1867 46.8607 17.5697 44.6424C16.8348 41.9095 16 38.866 16 34.4561C16 23.9237 24.8376 16 35.3084 16C45.7883 16 53.9999 24.3141 53.9999 34.5537C54.035 44.6349 45.7171 52.8406 35.4082 52.8944ZM35.5625 25.1038C30.4632 24.8465 26.489 28.2982 25.6089 33.7108C24.883 38.1917 26.1714 43.6486 27.2693 43.9326C27.7956 44.0568 29.1203 43.0098 29.946 42.2023C31.3113 43.1247 32.9012 43.6787 34.5554 43.8084C39.8391 44.0569 44.3538 40.1232 44.7086 34.9619C44.9151 29.7896 40.847 25.4087 35.5625 25.1127V25.1038Z" fill="white"/>
<defs>
<linearGradient id="paint0_linear_64_179" x1="8.24929" y1="53.2375" x2="70" y2="35" gradientUnits="userSpaceOnUse">
<stop stop-color="#44CCFF"/>
<stop offset="0.662" stop-color="#5533EE"/>
<stop offset="1" stop-color="#9933DD"/>
</linearGradient>
<radialGradient id="paint1_radial_64_179" cx="0" cy="0" r="1" gradientUnits="userSpaceOnUse" gradientTransform="translate(-1.66536 -30.743) rotate(51.356) scale(84.9462 35)">
<stop stop-color="#0000FF"/>
<stop offset="1" stop-opacity="0"/>
</radialGradient>
</defs>
</svg>
