<svg width="14" height="15" viewBox="0 0 14 15" fill="none" xmlns="http://www.w3.org/2000/svg">
<path d="M13.9612 4.88181C14.054 5.13675 13.9757 5.42098 13.7755 5.60266L12.5193 6.75718C12.5513 7.00039 12.5687 7.24946 12.5687 7.50147C12.5687 7.75347 12.5513 8.00254 12.5193 8.24575L13.7755 9.40027C13.9757 9.58195 14.054 9.86619 13.9612 10.1211C13.8335 10.4698 13.6798 10.8039 13.5028 11.1262L13.3665 11.3635C13.175 11.6859 12.9603 11.9906 12.7253 12.2778C12.5542 12.4888 12.2698 12.5591 12.0146 12.477L10.3986 11.9584C10.0099 12.2602 9.58053 12.5122 9.12216 12.7027L8.75952 14.3759C8.7015 14.6425 8.49842 14.8535 8.23152 14.8974C7.83117 14.9648 7.41921 15 6.99855 15C6.57789 15 6.16593 14.9648 5.76558 14.8974C5.49868 14.8535 5.2956 14.6425 5.23758 14.3759L4.87494 12.7027C4.41657 12.5122 3.98721 12.2602 3.59846 11.9584L1.98545 12.48C1.73015 12.562 1.44584 12.4888 1.27468 12.2807C1.03969 11.9936 0.825008 11.6888 0.633535 11.3665L0.497184 11.1291C0.320216 10.8068 0.166458 10.4727 0.0388097 10.124C-0.0540255 9.86911 0.0243042 9.58488 0.22448 9.4032L1.48066 8.24868C1.44874 8.00254 1.43134 7.75347 1.43134 7.50147C1.43134 7.24946 1.44874 7.00039 1.48066 6.75718L0.22448 5.60266C0.0243042 5.42098 -0.0540255 5.13675 0.0388097 4.88181C0.166458 4.53311 0.320216 4.19906 0.497184 3.87673L0.633535 3.63938C0.825008 3.31705 1.03969 3.01231 1.27468 2.72514C1.44584 2.51416 1.73015 2.44384 1.98545 2.52588L3.60136 3.04454C3.99011 2.74272 4.41947 2.49072 4.87785 2.30025L5.24048 0.627076C5.2985 0.360422 5.50158 0.149443 5.76848 0.105489C6.16883 0.0351631 6.58079 0 7.00145 0C7.42211 0 7.83407 0.0351631 8.23442 0.102559C8.50132 0.146513 8.7044 0.357492 8.76242 0.624145L9.12506 2.29732C9.58343 2.48779 10.0128 2.73979 10.4015 3.04161L12.0175 2.52295C12.2727 2.44091 12.5571 2.51416 12.7282 2.72221C12.9632 3.00938 13.1779 3.31412 13.3694 3.63645L13.5057 3.8738C13.6827 4.19613 13.8364 4.53018 13.9641 4.87888L13.9612 4.88181ZM7.00145 9.84567C7.61699 9.84567 8.20731 9.59869 8.64256 9.15907C9.07781 8.71945 9.32233 8.12319 9.32233 7.50147C9.32233 6.87974 9.07781 6.28348 8.64256 5.84386C8.20731 5.40424 7.61699 5.15726 7.00145 5.15726C6.38591 5.15726 5.79559 5.40424 5.36034 5.84386C4.92509 6.28348 4.68057 6.87974 4.68057 7.50147C4.68057 8.12319 4.92509 8.71945 5.36034 9.15907C5.79559 9.59869 6.38591 9.84567 7.00145 9.84567Z" fill="#F7F7F7"/>
</svg>
