<svg width="0" height="0" class="hidden">
    <symbol fill="currentColor"  version="1.1" xmlns="http://www.w3.org/2000/svg" viewBox="0 0 512 512" id="logo">
        <path d="M389.858 0h-267.716c-32.394 0-63.461 12.868-86.367 35.775s-35.775 53.974-35.775 86.367v267.716c0.003 28.715 10.121 56.51 28.581 78.507 18.459 21.995 44.078 36.784 72.356 41.77v-310.76h82.159c-5.564 11.931-8.397 24.954-8.293 38.118 0 50.413 33.88 84.277 84.313 84.277 50.866 0 87.771-35.674 87.771-84.803 0-33.664-22.599-83.733-84.892-83.733-34.84 0-62.51 15.99-76.725 41.757v-91.593c30.060-28.141 70.623-30.785 84.223-30.785 88.731 0 155.733 70.84 155.733 164.787 0 43.208-14.486 83.698-40.762 113.994-28.829 33.247-68.577 50.812-114.916 50.812-24.103 0-57.024-6.012-84.277-32.595v142.387h204.626c16.041 0.002 31.924-3.155 46.745-9.293 14.82-6.137 28.286-15.134 39.629-26.476 11.342-11.342 20.339-24.808 26.476-39.628s9.295-30.704 9.292-46.745v-267.716c0-16.043-3.16-31.928-9.301-46.75s-15.14-28.288-26.486-39.63-24.815-20.338-39.638-26.474c-14.824-6.136-30.71-9.292-46.753-9.287z"></path>
        <path d="M227.629 69.22h-21.549v124.605h21.549v-124.605z"></path>
        <path d="M249.149 66.28h-21.549v124.605h21.549v-124.605z"></path>
        <path d="M206.029 79.84h-21.549v124.605h21.549v-124.605z"></path>
    </symbol>
    <symbol fill="currentColor" version="1.1" xmlns="http://www.w3.org/2000/svg" viewBox="0 0 512 512" id="mobile">
        
        <path d="M164.267 462.927c-8.117 0-15.125-2.948-21.025-8.844-5.895-5.898-8.842-12.906-8.842-21.024v-354.133c0-8.118 2.947-15.126 8.842-21.024 5.899-5.895 12.907-8.843 21.025-8.843h183.466c8.117 0 15.125 2.947 21.025 8.843 5.895 5.898 8.842 12.906 8.842 21.024v34.133h-12.8v-34.133c0-4.978-1.601-9.067-4.8-12.267s-7.289-4.8-12.267-4.8h-183.466c-4.977 0-9.067 1.6-12.268 4.8s-4.799 7.289-4.799 12.267v354.133c0 4.978 1.6 9.067 4.799 12.267s7.29 4.8 12.268 4.8h183.466c4.978 0 9.067-1.601 12.267-4.8s4.8-7.289 4.8-12.267v-34.133h12.8v34.133c0 8.178-2.947 15.2-8.842 21.067-5.899 5.866-12.908 8.8-21.025 8.8h-183.466zM266.769 132.617c2.776-2.609 4.164-5.929 4.164-9.957s-1.389-7.347-4.164-9.957c-2.781-2.606-6.1-3.909-9.957-3.909-3.858 0-7.092 1.303-9.702 3.909-2.606 2.61-3.91 5.929-3.91 9.957s1.304 7.348 3.91 9.957c2.609 2.606 5.843 3.91 9.702 3.91 3.858 0 7.176-1.304 9.957-3.91zM339.558 307.194l-8.89-9.243c6.517-5.215 11.791-11.438 15.824-18.666 4.029-7.231 6.043-15.054 6.043-23.466 0-8.416-2.007-16.248-6.021-23.494-4.018-7.243-9.3-13.575-15.846-18.997l8.89-8.891c7.702 6.4 13.923 13.98 18.666 22.741 4.74 8.761 7.11 18.244 7.11 28.447 0 10.201-2.37 19.688-7.11 28.459-4.743 8.767-10.965 16.471-18.666 23.11zM381.867 349.151l-8.892-8.892c11.136-11.221 19.67-24.161 25.6-38.821 5.928-14.659 8.892-29.869 8.892-45.627 0-15.762-2.992-30.959-8.976-45.594-5.988-14.638-14.848-27.349-26.581-38.132l9.6-9.6c12.675 12.483 22.303 26.745 28.885 42.784s9.873 32.889 9.873 50.55c0 17.657-3.289 34.531-9.868 50.623-6.577 16.092-16.089 30.329-28.532 42.71z"></path>
    </symbol>
    <symbol fill="currentColor" version="1.1" xmlns="http://www.w3.org/2000/svg" viewBox="0 0 512 512" id="desktop">
        <path fill="currentColor" d="M70.4 398.927v-12.8h188.8v12.8h-188.8zM121.6 351.994c-8.48 0-15.579-2.857-21.296-8.571-5.713-5.718-8.57-12.817-8.57-21.296v-179.2c0-8.48 2.857-15.579 8.57-21.296 5.717-5.714 12.817-8.571 21.296-8.571h268.8c5.572 0 10.519 1.168 14.843 3.504 4.327 2.34 7.913 5.439 10.757 9.296h-294.4c-4.267 0-8.177 1.778-11.733 5.333-3.556 3.556-5.334 7.467-5.334 11.734v179.2c0 4.266 1.778 8.178 5.334 11.733 3.555 3.555 7.466 5.334 11.733 5.334h137.6v12.8h-137.6zM434.133 377.060v-167.467c0-2.489-0.889-4.623-2.666-6.4s-3.911-2.667-6.4-2.667h-82.133c-2.251 0-4.325 0.889-6.224 2.667-1.896 1.778-2.842 3.911-2.842 6.4v167.467c0 2.488 0.947 4.623 2.842 6.4 1.899 1.777 3.973 2.666 6.224 2.666h82.133c2.49 0 4.623-0.889 6.4-2.666s2.666-3.911 2.666-6.4zM343.643 398.927c-6.095 0-11.38-2.24-15.856-6.721-4.48-4.476-6.719-9.762-6.719-15.856v-166.4c0-5.994 2.24-11.198 6.719-15.611 4.477-4.409 9.762-6.613 15.856-6.613h81.066c5.995 0 11.199 2.204 15.611 6.613 4.409 4.412 6.613 9.617 6.613 15.611v166.4c0 6.094-2.204 11.38-6.613 15.856-4.413 4.48-9.616 6.721-15.611 6.721h-81.066zM383.899 260.26c3.978 0 7.301-1.377 9.967-4.127 2.668-2.756 4.001-5.968 4.001-9.638 0-3.739-1.332-7.004-3.995-9.792-2.663-2.785-6.087-4.176-10.273-4.176-3.406 0-6.502 1.389-9.291 4.171-2.783 2.78-4.176 6.145-4.176 10.095 0 3.644 1.437 6.8 4.31 9.467s6.024 4 9.455 4z"></path>
    </symbol>
    <symbol fill="currentColor" version="1.1" xmlns="http://www.w3.org/2000/svg" viewBox="0 0 512 512" id="audience">
        
        <path d="M394.31 461.7c-3.673 0-6.933-0.978-9.776-2.932-2.845-1.956-4.859-4.832-6.043-8.625-41.721-6.637-77.87-25.216-108.448-55.733s-52.205-69.421-64.886-116.709c-39.232 14.695-70.817 37.864-94.757 69.509s-37.45 67.733-40.533 108.266h-12.8c2.371-44.682 16.358-83.852 41.957-117.509 25.6-33.661 60.029-58.194 103.286-73.6-7.466-35.91-9.067-69.986-4.801-102.224s13.867-58.371 28.8-78.4c-0.946-1.422-1.626-2.963-2.043-4.624-0.415-1.657-0.623-3.374-0.623-5.152-0.236-4.743 1.305-8.773 4.624-12.090s7.465-4.976 12.444-4.976c4.743 0 8.773 1.6 12.090 4.8s4.976 7.289 4.976 12.267c0 4.74-1.659 8.768-4.976 12.085-3.318 3.321-7.347 4.981-12.090 4.981-0.712 0-1.451-0.061-2.219-0.181-0.772-0.117-1.394-0.234-1.867-0.352-12.327 16.946-20.683 35.791-25.067 56.534-4.386 20.739-5.218 45.924-2.49 75.552 4.621-14.812 12.208-27.079 22.756-36.799 10.547-9.718 23.76-17.244 39.644-22.577 9.125-4.149 19.379-7.261 30.756-9.333 11.378-2.073 23.824-3.228 37.334-3.466 1.539-2.845 3.644-5.244 6.31-7.2 2.668-1.956 5.779-2.933 9.334-2.933 4.74 0 8.771 1.659 12.090 4.976 3.318 3.321 4.976 7.351 4.976 12.090s-1.659 8.769-4.976 12.090c-3.32 3.317-7.351 4.976-12.090 4.976-3.673 0-6.931-0.978-9.776-2.934s-4.861-4.71-6.048-8.266c-13.745 0.238-25.863 1.305-36.352 3.2s-19.882 4.621-28.18 8.176c-19.318 6.4-33.569 16.652-42.752 30.757-9.189 14.106-13.427 31.882-12.714 53.334 12.089-3.439 24.859-5.897 38.315-7.376 13.45-1.483 25.805-2.105 37.065-1.867 1.539-3.082 3.644-5.601 6.31-7.557 2.668-1.956 5.779-2.934 9.334-2.934 4.74 0 8.771 1.659 12.090 4.976 3.318 3.321 4.976 7.351 4.976 12.090 0 4.741-1.659 8.771-4.976 12.091-3.32 3.318-7.351 4.975-12.090 4.975-3.673 0-6.931-0.976-9.776-2.932s-4.861-4.712-6.048-8.267c-10.428-0.239-22.25 0.442-35.466 2.043-13.213 1.599-25.747 4.298-37.6 8.089 3.91 21.218 14.399 37.069 31.466 47.558s41.186 15.615 72.357 15.375c7.584 0 15.969-0.413 25.158-1.243 9.183-0.831 18.695-1.959 28.532-3.381 1.185-3.555 3.287-6.458 6.31-8.709s6.371-3.376 10.043-3.376c4.976 0 9.066 1.659 12.266 4.975 3.2 3.318 4.801 7.349 4.801 12.091 0 4.74-1.601 8.767-4.801 12.085-3.2 3.321-7.289 4.982-12.266 4.982-2.963 0-5.777-0.8-8.443-2.399-2.668-1.601-4.652-3.705-5.958-6.315-11.257 1.661-21.596 2.845-31.019 3.557s-18.164 1.067-26.223 1.067c-18.728 0-35.469-2.014-50.226-6.043-14.754-4.031-27.288-10.253-37.6-18.666 15.41 32 35.47 57.688 60.182 77.066 24.711 19.377 52.471 31.615 83.286 36.709 1.543-2.961 3.587-5.33 6.132-7.108 2.55-1.779 5.483-2.668 8.801-2.668 4.976 0 9.066 1.659 12.266 4.976s4.801 7.347 4.801 12.090c0 4.74-1.601 8.769-4.801 12.087-3.2 3.32-7.289 4.98-12.266 4.98z"></path>
    </symbol>
    <symbol fill="currentColor" version="1.1" xmlns="http://www.w3.org/2000/svg" viewBox="0 0 512 512" id="attach">
        
        <path d="M366.62 330.491c0 30.933-10.55 57.183-31.649 78.752-21.099 21.57-46.896 32.356-77.392 32.356-30.752 0-56.77-10.769-78.053-32.309-21.284-21.543-31.926-47.81-31.926-78.8v-184c0-21.138 7.228-39.104 21.685-53.899 14.462-14.794 32.213-22.192 53.254-22.192 21.038 0 38.874 7.397 53.509 22.192s21.951 32.761 21.951 53.899v174.4c0 11.378-3.882 21.125-11.648 29.242-7.762 8.118-17.389 12.177-28.885 12.177-11.042 0-20.678-4.050-28.906-12.15s-12.341-17.857-12.341-29.269v-171.2h12.8v171.2c0 7.94 2.75 14.695 8.25 20.267 5.5 5.567 12.13 8.353 19.888 8.353 7.865 0 14.505-2.786 19.92-8.353 5.416-5.572 8.122-12.327 8.122-20.267v-174.934c0-17.305-6.043-32.090-18.134-44.358-12.089-12.266-26.879-18.4-44.368-18.4-17.485 0-32.24 6.181-44.266 18.544-12.021 12.367-18.032 27.282-18.032 44.747v184c0 27.378 9.415 50.606 28.244 69.685 18.832 19.082 41.823 28.624 68.977 28.624 27.015 0 49.862-9.6 68.538-28.8 18.678-19.2 27.897-42.37 27.66-69.509v-180.8h12.8v180.8z"></path>
    </symbol>
    <symbol fill="currentColor" version="1.1" xmlns="http://www.w3.org/2000/svg" viewBox="0 0 512 512" id="arrow-left">
        
        <path d="M364.443 262.043h-219.019l93.153 93.514-9.244 9.243-108.8-108.8 108.8-109.157 9.244 9.248-93.153 93.153h219.019v12.8z"></path>
    </symbol>
    <symbol fill="currentColor" version="1.1" xmlns="http://www.w3.org/2000/svg" viewBox="0 0 512 512" id="diversity">
        
        <path d="M198.4 458.134c-16.355 0-30.578-5.156-42.667-15.467s-20.089-23.289-24-38.934c-3.911 7.111-9.511 12.534-16.8 16.268-7.289 3.733-15.022 5.599-23.2 5.599-13.867 0-25.689-4.889-35.467-14.667s-14.667-21.599-14.667-35.466c0-12.445 4.444-23.822 13.334-34.134s20.089-15.288 33.6-14.933c-7.822-6.4-14.044-14.401-18.666-23.999-4.622-9.601-6.934-19.557-6.934-29.866 0-11.024 2.667-21.424 8-31.202s12.8-17.865 22.4-24.266c0.711 2.133 1.689 4.444 2.933 6.933l3.467 6.934c-7.111 5.333-12.445 11.643-16 18.932s-5.334 15.022-5.334 23.201c0 22.755 8.178 37.599 24.534 44.534 16.356 6.933 33.6 12.177 51.733 15.732l3.2 5.868c-3.911 11.378-7.023 20.978-9.333 28.8s-3.467 15.111-3.467 21.868c0 14.221 5.155 26.576 15.466 37.065s22.756 15.734 37.334 15.734c15.643 0 28.444-5.599 38.4-16.8 9.955-11.199 18.133-24.534 24.533-39.999 6.4-15.467 11.377-31.467 14.932-48 3.557-16.534 6.579-30.312 9.067-41.334l14.933 4.267c-2.845 13.512-6.223 29.334-10.132 47.466-3.911 18.135-9.512 35.291-16.8 51.468s-16.8 29.955-28.534 41.334c-11.733 11.377-27.022 17.067-45.867 17.067zM91.734 410.666c9.6 0 17.867-3.466 24.8-10.401 6.933-6.933 10.4-15.2 10.4-24.8s-3.466-17.867-10.4-24.8c-6.933-6.934-15.2-10.401-24.8-10.401s-17.867 3.466-24.8 10.401c-6.934 6.933-10.4 15.2-10.4 24.8s3.467 17.867 10.4 24.8c6.933 6.934 15.2 10.401 24.8 10.401zM214.934 321.601c-13.869-12.445-26.578-24.089-38.134-34.934s-21.512-21.511-29.867-32c-8.356-10.489-14.845-20.978-19.467-31.468s-6.933-21.422-6.933-32.8c0-19.2 6.578-35.377 19.733-48.532s29.334-19.733 48.534-19.733c4.621 0 8.799 0.267 12.534 0.8 3.732 0.534 7.201 1.334 10.399 2.4-1.776-3.2-3.198-6.489-4.267-9.867-1.065-3.377-1.599-7.022-1.599-10.933 0-13.867 4.889-25.689 14.667-35.466s21.6-14.667 35.466-14.667c13.867 0 25.689 4.889 35.466 14.667s14.667 21.6 14.667 35.466c0 3.911-0.534 7.555-1.599 10.933-1.068 3.378-2.49 6.667-4.267 9.867 3.199-1.067 6.666-1.867 10.399-2.4 3.734-0.533 7.912-0.8 12.534-0.8 14.579 0 27.467 3.911 38.666 11.733 11.201 7.822 19.288 17.956 24.267 30.4-2.488-0.356-5.245-0.534-8.267-0.534s-5.777 0.178-8.267 0.534c-4.267-8.178-10.488-14.756-18.666-19.733s-17.421-7.466-27.733-7.466c-13.512 0-24.356 3.378-32.534 10.133-8.176 6.756-18.666 17.6-31.466 32.532h-6.934c-13.155-15.288-23.821-26.221-32-32.799-8.177-6.578-18.666-9.867-31.466-9.867-15.288 0-28 5.066-38.133 15.2s-15.2 22.844-15.2 38.132c0 8.179 2.044 16.712 6.133 25.6 4.089 8.89 10.044 18.224 17.867 28.001s17.245 20.178 28.267 31.2c11.022 11.022 23.644 22.934 37.868 35.734l-10.666 10.666zM280.8 129.333c6.934-6.933 10.401-15.2 10.401-24.8s-3.466-17.867-10.401-24.8c-6.933-6.933-15.2-10.4-24.8-10.4s-17.867 3.466-24.799 10.4c-6.934 6.933-10.4 15.2-10.4 24.8s3.466 17.867 10.4 24.8c6.933 6.934 15.2 10.4 24.799 10.4s17.867-3.466 24.8-10.4zM311.999 458.666c-4.267 0-8.443-0.355-12.532-1.067s-8.089-1.956-12-3.733c1.421-1.779 2.844-3.911 4.267-6.4 1.421-2.49 2.666-4.801 3.733-6.934 2.845 1.067 5.777 1.779 8.8 2.134s5.957 0.534 8.801 0.534c14.577 0 27.111-5.245 37.599-15.734s15.734-23.023 15.734-37.599c0-6.757-1.157-13.957-3.468-21.601s-5.422-17.156-9.332-28.534l3.733-5.866c18.488-3.555 35.823-8.889 52-16s24.265-22.045 24.265-44.8c0-18.133-6.31-31.645-18.932-40.534s-26.933-13.333-42.935-13.333c-14.221 0-30.754 2.311-49.599 6.933s-40.534 11.022-65.067 19.2l-4.267-14.934c23.466-7.466 44.623-13.867 63.466-19.2 18.845-5.333 36.267-8.001 52.269-8.001 20.622 0 39.11 6.045 55.466 18.135 16.355 12.089 24.531 29.333 24.531 51.732 0 10.312-2.222 20-6.666 29.066-4.444 9.067-10.578 17.156-18.399 24.267 13.512 0 24.711 4.978 33.599 14.933 8.89 9.955 13.334 21.334 13.334 34.133 0 13.512-4.889 25.245-14.667 35.2s-21.599 14.933-35.466 14.933c-8.178 0-15.911-1.867-23.2-5.599-7.289-3.734-12.889-9.156-16.8-16.268-3.91 15.645-12.089 28.712-24.531 39.2-12.445 10.489-27.024 15.734-43.735 15.734zM445.334 400.266c6.755-6.933 10.132-15.2 10.132-24.8s-3.466-17.956-10.401-25.067c-6.933-7.11-15.2-10.666-24.8-10.666s-17.867 3.468-24.8 10.401c-6.934 6.934-10.401 15.2-10.401 24.801 0 9.599 3.555 17.954 10.666 25.066s15.467 10.666 25.066 10.666c9.601 0 17.779-3.466 24.535-10.401z"></path>
    </symbol>
    <symbol fill="currentColor" version="1.1" xmlns="http://www.w3.org/2000/svg" viewBox="0 0 512 512" id="advantages">
        
        <path d="M123.734 420.267c-9.245 0-16.889-3.022-22.933-9.066-6.044-6.045-9.067-13.689-9.067-22.934v-68.267c0-9.245 3.022-16.889 9.067-22.934 6.044-6.043 13.689-9.066 22.933-9.066h264.534c6.045 0 11.378 1.333 16 4 4.622 2.666 8.356 6.312 11.201 10.933h-291.734c-4.978 0-9.067 1.601-12.267 4.799-3.2 3.202-4.8 7.289-4.8 12.267v68.267c0 4.978 1.6 9.066 4.8 12.267 3.2 3.199 7.289 4.799 12.267 4.799h179.2v14.933h-179.2zM123.734 224.532c-9.245 0-16.889-3.021-22.933-9.066s-9.067-13.689-9.067-22.934v-68.799c0-9.245 3.022-16.889 9.067-22.933s13.689-9.067 22.933-9.067h264.534c9.245 0 16.889 3.022 22.934 9.067 6.043 6.044 9.066 13.689 9.066 22.933v68.799c0 9.245-3.022 16.889-9.066 22.934-6.045 6.045-13.689 9.066-22.934 9.066h-264.534zM123.734 209.599h264.534c4.978 0 9.066-1.599 12.267-4.799 3.199-3.2 4.799-7.289 4.799-12.268v-68.799c0-4.978-1.601-9.067-4.799-12.267-3.202-3.2-7.289-4.8-12.267-4.8h-264.534c-4.978 0-9.067 1.6-12.267 4.8s-4.8 7.289-4.8 12.267v68.799c0 4.978 1.6 9.067 4.8 12.268s7.289 4.799 12.267 4.799zM405.334 469.334v-49.067h-49.067v-14.933h49.067v-49.067h14.933v49.067h49.067v14.933h-49.067v49.067h-14.933z"></path>
    </symbol>
    <symbol fill="currentColor" version="1.1" xmlns="http://www.w3.org/2000/svg" viewBox="0 0 512 512" id="role">
        
        <path d="M155.733 441.6v-76.8c-20.267-18.488-36-39.023-47.2-61.601s-16.8-45.599-16.8-69.065c0-45.512 16-84.178 48-116.001s70.755-47.733 116.267-47.733c36.621 0 69.957 11.289 100 33.867s49.51 51.644 58.399 87.201l20.269 81.066c1.421 4.976 0.533 9.51-2.668 13.599s-7.466 6.134-12.8 6.134h-41.6v74.666c0 8.889-3.111 16.443-9.334 22.666s-13.778 9.334-22.666 9.334h-53.334v42.666h-14.933v-57.6h68.267c4.978 0 9.066-1.601 12.267-4.799 3.2-3.202 4.799-7.289 4.799-12.267v-89.6h57.6l-20.267-82.666c-8.178-32.712-25.777-59.112-52.799-79.201-27.024-20.089-57.423-30.133-91.201-30.133-41.245 0-76.445 14.489-105.6 43.467s-43.733 64.089-43.733 105.334c0 21.333 4.356 41.51 13.067 60.532s21.067 36 37.067 50.934l13.867 12.8v83.2h-14.934zM246.934 308.267h18.131l1.068-17.601c6.4-1.065 12.532-3.11 18.399-6.132 5.866-3.022 10.755-7.023 14.666-12l14.933 7.999 9.067-15.467-13.866-10.132c2.845-6.755 4.267-13.512 4.267-20.267s-1.421-13.512-4.267-20.267l13.866-10.132-9.067-15.468-14.933 7.999c-3.91-4.976-8.8-8.977-14.666-12-5.868-3.023-12-5.065-18.399-6.132l-1.068-17.601h-18.131l-1.069 17.601c-6.4 1.066-12.532 3.109-18.399 6.132-5.866 3.023-10.756 7.023-14.666 12l-14.934-7.999-9.067 15.468 13.867 10.132c-2.845 6.755-4.267 13.512-4.267 20.267s1.422 13.512 4.267 20.267l-13.867 10.132 9.067 15.467 14.934-7.999c3.91 4.976 8.799 8.977 14.666 12 5.868 3.022 12 5.067 18.399 6.132l1.069 17.601zM226.133 264.534c-8.179-8.178-12.268-18.133-12.268-29.867s4.089-21.689 12.268-29.867c8.179-8.178 18.133-12.268 29.867-12.268s21.688 4.089 29.866 12.268c8.178 8.178 12.267 18.133 12.267 29.867s-4.089 21.689-12.267 29.867c-8.178 8.178-18.134 12.267-29.867 12.267s-21.689-4.089-29.867-12.267z"></path>
    </symbol>
    <symbol fill="currentColor" version="1.1" xmlns="http://www.w3.org/2000/svg" viewBox="0 0 512 512" id="action">
        
        <path d="M442.134 452.267l-57.601-57.067c-5.688 4.623-12 8.178-18.932 10.666-6.934 2.49-14.312 3.734-22.134 3.734-18.333 0-34.028-6.506-47.084-19.519s-19.582-28.659-19.582-46.933c0-18.276 6.506-33.903 19.519-46.88s28.659-19.466 46.933-19.466c18.275 0 33.903 6.474 46.88 19.423 12.978 12.952 19.466 28.522 19.466 46.71 0 7.793-1.244 15.163-3.734 22.111-2.488 6.948-6.043 13.266-10.666 18.954l57.067 57.6-10.132 10.666zM125.867 410.132c-18.186 0-33.755-6.488-46.704-19.466-12.953-12.978-19.43-28.889-19.43-47.732 0-18.188 6.477-33.758 19.43-46.71 12.95-12.95 28.517-19.423 46.704-19.423 18.845 0 34.756 6.474 47.734 19.423 12.977 12.952 19.466 28.522 19.466 46.71 0 18.844-6.488 34.755-19.466 47.732s-28.889 19.466-47.734 19.466zM125.867 395.199c14.934 0 27.378-4.976 37.333-14.933 9.955-9.955 14.934-22.399 14.934-37.332 0-14.080-4.978-26.134-14.934-36.161s-22.4-15.039-37.334-15.039c-14.080 0-26.133 5.012-36.16 15.039s-15.040 22.081-15.040 36.161c0 14.933 5.013 27.377 15.040 37.332 10.026 9.957 22.080 14.933 36.16 14.933zM343.466 395.199c14.080 0 26.132-4.976 36.159-14.933 10.026-9.955 15.041-22.399 15.041-37.332 0-14.080-5.014-26.134-15.041-36.161s-22.079-15.039-36.159-15.039c-14.933 0-27.378 5.012-37.334 15.039s-14.933 22.081-14.933 36.161c0 14.933 4.978 27.377 14.933 37.332 9.955 9.957 22.4 14.933 37.334 14.933zM125.867 193.601c-18.186 0-33.755-6.49-46.704-19.468-12.953-12.977-19.43-28.888-19.43-47.733 0-18.186 6.477-33.757 19.43-46.709 12.95-12.95 28.517-19.424 46.704-19.424 18.845 0 34.756 6.474 47.734 19.424 12.977 12.953 19.466 28.523 19.466 46.709 0 18.845-6.488 34.756-19.466 47.733s-28.889 19.468-47.734 19.468zM343.466 193.601c-18.845 0-34.757-6.49-47.734-19.468s-19.466-28.888-19.466-47.733c0-18.186 6.488-33.757 19.466-46.709 12.978-12.95 28.889-19.424 47.734-19.424 18.186 0 33.756 6.474 46.71 19.424 12.949 12.953 19.423 28.523 19.423 46.709 0 18.845-6.475 34.756-19.423 47.733-12.954 12.977-28.524 19.468-46.71 19.468zM125.867 178.667c14.934 0 27.378-4.978 37.333-14.934s14.934-22.4 14.934-37.334c0-14.080-4.978-26.133-14.934-36.16s-22.4-15.040-37.334-15.040c-14.080 0-26.133 5.013-36.16 15.040s-15.040 22.080-15.040 36.16c0 14.934 5.013 27.378 15.040 37.334s22.080 14.934 36.16 14.934zM343.466 178.667c14.080 0 26.132-4.978 36.159-14.934s15.041-22.4 15.041-37.334c0-14.080-5.014-26.133-15.041-36.16s-22.079-15.040-36.159-15.040c-14.933 0-27.378 5.013-37.334 15.040s-14.933 22.080-14.933 36.16c0 14.934 4.978 27.378 14.933 37.334s22.4 14.934 37.334 14.934z"></path>
    </symbol>
    <symbol fill="currentColor" version="1.1" xmlns="http://www.w3.org/2000/svg" viewBox="0 0 512 512" id="chat">
        
        <path d="M256 138.667c3.2 0 5.777-0.977 7.733-2.934s2.934-4.533 2.934-7.733c0-3.2-0.978-5.778-2.934-7.733s-4.533-2.933-7.733-2.933c-3.2 0-5.777 0.978-7.733 2.933s-2.934 4.533-2.934 7.733c0 3.2 0.978 5.778 2.934 7.733s4.533 2.934 7.733 2.934zM248.534 304h14.933v-130.133h-14.934v130.133zM70.4 416v-313.6c0-9.245 3.022-16.889 9.067-22.933s13.689-9.067 22.933-9.067h307.2c9.245 0 16.889 3.022 22.934 9.067 6.043 6.044 9.066 13.689 9.066 22.933v221.866c0 9.245-3.022 16.889-9.066 22.934-6.045 6.043-13.689 9.066-22.934 9.066h-279.466l-59.733 59.733zM123.734 341.334h285.866c4.267 0 8.178-1.779 11.733-5.334s5.334-7.466 5.334-11.733v-221.867c0-4.266-1.779-8.178-5.334-11.733s-7.466-5.334-11.733-5.334h-307.2c-4.266 0-8.178 1.778-11.733 5.334s-5.334 7.466-5.334 11.733v277.334l38.4-38.4z"></path>
    </symbol>
    <symbol fill="currentColor" version="1.1" xmlns="http://www.w3.org/2000/svg" viewBox="0 0 512 512" id="phone-burger">
        
        <path d="M256 85.334v-14.933h185.6v14.933h-185.6zM256 153.6v-14.934h185.6v14.934h-185.6zM256 221.867v-14.934h185.6v14.934h-185.6zM375.999 441.6c-33.421 0-68.176-8.8-104.265-26.401-36.089-17.599-69.868-42.221-101.334-73.866s-56-65.421-73.6-101.334-26.4-70.578-26.4-104c0-6.553 2.133-12.013 6.4-16.379 4.266-4.37 9.6-6.555 16-6.555h42.667c6.044 0 11.289 1.867 15.733 5.6s7.555 8.623 9.333 14.667l9.6 43.733c1.067 6.045 0.888 11.379-0.534 16s-3.911 8.356-7.466 11.201l-45.334 41.066c9.245 16.711 19.289 32.088 30.134 46.133s22.311 27.289 34.4 39.733c12.8 12.8 26.667 24.712 41.6 35.734s31.466 21.511 49.601 31.467l44.266-45.334c3.555-3.911 7.378-6.4 11.467-7.466s8.8-1.244 14.133-0.533l36.267 7.465c6.045 1.423 10.933 4.446 14.667 9.067 3.733 4.622 5.599 9.955 5.599 16v41.6c0 6.4-2.185 11.733-6.555 16-4.365 4.267-9.825 6.4-16.379 6.4zM109.867 231.466l42.667-38.4c1.778-1.422 2.934-3.377 3.467-5.866 0.534-2.49 0.445-4.801-0.267-6.934l-9.6-43.733c-0.711-2.845-1.956-4.978-3.733-6.4s-4.089-2.133-6.934-2.133h-42.666c-2.133 0-3.911 0.711-5.334 2.133s-2.133 3.2-2.133 5.333c0 14.578 2.222 30.044 6.666 46.399 4.445 16.357 10.4 32.889 17.867 49.601zM286.933 405.334c14.579 7.466 30.31 12.889 47.2 16.266s31.022 5.067 42.401 5.067c2.134 0 3.911-0.712 5.334-2.134s2.134-3.2 2.134-5.334v-41.6c0-2.845-0.712-5.156-2.134-6.933-1.421-1.779-3.555-3.022-6.4-3.734l-36.267-7.466c-2.134-0.712-4-0.8-5.599-0.266-1.601 0.533-3.288 1.688-5.067 3.466l-41.6 42.666z"></path>
    </symbol>
    <symbol fill="currentColor" version="1.1" xmlns="http://www.w3.org/2000/svg" viewBox="0 0 512 512" id="connect">
        
        <path d="M343.466 441.6v-43.675c-17.067-3.832-31.942-11.496-44.624-22.99-12.679-11.496-21.27-25.541-25.776-42.134h13.156c5.334 15.645 14.616 28.445 27.846 38.4s28.718 14.933 46.464 14.933h64c4.683 0 8.697 1.674 12.042 5.024 3.35 3.345 5.024 7.359 5.024 12.042v38.4h-98.134zM392.458 335.29c-7.972 0-14.633-2.681-19.983-8.047-5.356-5.363-8.031-12.029-8.031-20 0-7.969 2.681-14.708 8.047-20.219 5.363-5.511 12.029-8.267 20-8.267 7.969 0 14.708 2.762 20.219 8.284 5.511 5.521 8.267 12.266 8.267 20.234 0 7.972-2.762 14.633-8.284 19.983-5.521 5.356-12.266 8.031-20.234 8.031zM216.534 282.666c0-35.794 12.563-66.164 37.69-91.108 25.124-24.95 55.582-37.424 91.377-37.424v12.8c-32.401 0-59.88 11.188-82.437 33.563-22.553 22.38-33.829 49.77-33.829 82.171h-12.8zM269.866 282.666c0-21.216 7.347-39.141 22.043-53.775 14.695-14.638 32.592-21.958 53.69-21.958v12.8c-17.421 0-32.266 6.134-44.534 18.399-12.266 12.268-18.399 27.112-18.399 44.534h-12.8zM70.4 232.89v-38.4c0-4.681 1.659-8.697 4.976-12.047 3.321-3.345 7.351-5.019 12.091-5.019h64c17.745 0 33.234-4.976 46.464-14.933s22.512-22.756 27.846-38.4h13.689c-3.792 16.117-12.188 29.975-25.184 41.573-12.994 11.599-28.245 19.411-45.749 23.435v43.791h-98.133zM119.392 126.933c-7.972 0-14.633-2.761-19.984-8.282-5.355-5.522-8.032-12.189-8.032-20s2.683-14.473 8.048-19.984c5.362-5.511 12.028-8.267 20-8.267 7.968 0 14.707 2.761 20.218 8.282s8.267 12.189 8.267 20c0 7.811-2.761 14.473-8.282 19.984s-12.267 8.267-20.234 8.267z"></path>
    </symbol>
    <symbol fill="currentColor" version="1.1" xmlns="http://www.w3.org/2000/svg" viewBox="0 0 512 512" id="home">
        
        <path d="M113.067 420.267v-214.4l142.933-108.266 142.933 108.266v214.4h-14.933v-206.934l-128-97.067-128 97.067v206.934h-14.933zM178.133 404.801h155.733v-70.4h-155.733v70.4zM178.133 319.467h155.733v-70.4h-155.733v70.4zM163.2 419.734v-185.6h185.6v185.6h-185.6z"></path>
    </symbol>
    <symbol fill="currentColor" version="1.1" xmlns="http://www.w3.org/2000/svg" viewBox="0 0 512 512" id="phone">
        
        <path d="M409.243 239.992c-3.673-40.136-19.56-74.186-47.659-102.15-28.097-27.968-62.106-43.788-102.028-47.462v-12.88c21.806 1.66 42.252 6.922 61.334 15.787 19.079 8.867 35.849 20.569 50.309 35.104 14.461 14.539 26.136 31.321 35.024 50.347 8.889 19.029 14.162 39.446 15.819 61.254h-12.8zM322.844 239.992c-3.673-16-11.139-29.778-22.4-41.334-11.257-11.556-24.887-18.875-40.887-21.958v-12.799c19.557 3.083 36.207 11.588 49.952 25.514 13.749 13.923 22.462 30.783 26.134 50.577h-12.8zM396.976 420.258c-32.712 0-67.050-8.86-103.018-26.576-35.971-17.722-69.9-42.522-101.782-74.401-31.524-31.882-56.145-65.721-73.867-101.514-17.718-35.791-26.576-70.041-26.576-102.752 0-6.4 2.192-11.882 6.576-16.448 4.388-4.561 9.781-6.843 16.181-6.843h40.176c6.283 0 11.585 1.867 15.91 5.6 4.327 3.734 7.38 8.741 9.156 15.024l9.958 42.309c0.827 5.806 0.531 11.020-0.891 15.643-1.422 4.621-3.792 8.356-7.11 11.201l-45.69 41.424c9.718 17.183 20.059 32.975 31.024 47.376 10.963 14.399 22.488 27.822 34.576 40.267 13.273 13.51 27.614 25.897 43.024 37.157 15.406 11.259 32.413 21.986 51.019 32.176l44.624-45.686c3.555-3.911 7.32-6.462 11.291-7.647 3.968-1.185 8.618-1.421 13.952-0.71l34.134 7.466c6.282 1.185 11.289 4.147 15.024 8.89 3.733 4.74 5.599 10.252 5.599 16.534v38.752c0 6.4-2.28 11.795-6.842 16.181-4.565 4.385-10.049 6.577-16.449 6.577z"></path>
    </symbol>
    <symbol fill="currentColor" version="1.1" xmlns="http://www.w3.org/2000/svg" viewBox="0 0 512 512" id="mail">
        
        <path d="M256 250.31l-172.8-115.553v234.31c0 4.978 1.6 9.066 4.8 12.267 3.2 3.199 7.289 4.799 12.266 4.799h192v12.8h-192c-8.48 0-15.579-2.857-21.296-8.571-5.713-5.717-8.57-12.815-8.57-21.296v-226.133c0-8.48 2.857-15.579 8.57-21.296 5.718-5.713 12.816-8.57 21.296-8.57h311.466c8.481 0 15.579 2.857 21.296 8.57 5.714 5.718 8.571 12.816 8.571 21.296v149.333h-12.8v-157.51l-172.8 115.553zM256 234.31l164.267-108.444h-328.534l164.267 108.444zM396.090 456.709l-8.714-8.709 48-49.067h-113.243v-12.8h113.776l-49.067-49.067 9.247-8.709 64.178 64.176-64.178 64.176zM83.2 134.757v0z"></path>
    </symbol>
    <symbol fill="currentColor" version="1.1" xmlns="http://www.w3.org/2000/svg" viewBox="0 0 512 512" id="local_shipping">
       
        <path d="M80.161 386.584c-10.311-10.368-15.466-22.961-15.466-37.776h-24.176v-205.867c0-8.48 2.857-15.579 8.57-21.297 5.718-5.713 12.816-8.57 21.296-8.57h279.466v75.376h43.024l78.576 105.6v54.757h-30.933c0 14.816-5.193 27.408-15.578 37.776-10.386 10.371-22.999 15.557-37.841 15.557-14.737 0-27.236-5.187-37.498-15.557-10.261-10.368-15.392-22.961-15.392-37.776h-163.2c0 14.933-5.243 27.555-15.728 37.866s-23.048 15.467-37.691 15.467c-14.642 0-27.118-5.187-37.429-15.557zM146.476 377.608c7.822-7.822 11.733-17.363 11.733-28.625 0-11.257-3.911-20.796-11.733-28.618s-17.363-11.733-28.624-11.733c-11.26 0-20.802 3.911-28.624 11.733s-11.733 17.361-11.733 28.618c0 11.261 3.911 20.803 11.733 28.625s17.364 11.733 28.624 11.733c11.26 0 20.802-3.911 28.624-11.733zM53.319 336.007h11.733c2.133-10.784 8.272-20.176 18.416-28.176 10.141-8 21.564-12 34.272-12 11.992 0 23.218 3.911 33.674 11.733 10.453 7.822 16.747 17.303 18.881 28.442h166.756v-210.133h-266.666c-4.266 0-8.178 1.778-11.733 5.333s-5.334 7.466-5.334 11.733v193.066zM415.985 377.608c7.822-7.822 11.733-17.363 11.733-28.625 0-11.257-3.911-20.796-11.733-28.618s-17.363-11.733-28.623-11.733c-11.257 0-20.796 3.911-28.619 11.733s-11.733 17.361-11.733 28.618c0 11.261 3.911 20.803 11.733 28.625s17.363 11.733 28.619 11.733c11.26 0 20.801-3.911 28.623-11.733zM349.851 292.632h105.243l-69.686-91.382h-35.558v91.382z"></path>
    </symbol>
    <symbol fill="currentColor" version="1.1" xmlns="http://www.w3.org/2000/svg" viewBox="0 0 512 512" id="gavel">
       
        <path d="M88.519 434.125v-12.8h228.267v12.8h-228.267zM217.227 311.817l-100.976-100.981 24.176-25.243 102.048 100.976-25.248 25.248zM329.228 199.816l-100.977-102.048 25.244-24.175 100.981 100.975-25.248 25.248zM440.875 407.459l-260.624-260.624 9.243-9.243 260.624 260.624-9.243 9.243z"></path>
    </symbol>
    <symbol fill="currentColor" version="1.1" xmlns="http://www.w3.org/2000/svg" viewBox="0 0 512 512" id="garage_money">
       
        <path d="M100.237 441.608c-8.534 0-15.645-2.786-21.334-8.358-5.689-5.567-8.534-12.738-8.534-21.509v-311.466c0-8.534 2.844-15.644 8.534-21.334s12.8-8.534 21.334-8.534h311.466c8.534 0 15.644 2.844 21.334 8.534s8.534 12.8 8.534 21.334v153.6h-12.8v-153.6c0-4.266-1.778-8.178-5.334-11.733s-7.466-5.334-11.733-5.334h-311.466c-4.266 0-8.178 1.778-11.733 5.334s-5.334 7.467-5.334 11.733v311.466c0 4.267 1.778 8.178 5.334 11.733s7.467 5.334 11.733 5.334h108.8v12.8h-108.8zM141.197 368.007h-0.325c1.948 0 3.484-0.644 4.608-1.93 1.126-1.291 1.69-2.901 1.69-4.827v-36.618h61.867v-12.8h-61.867v-65.046h230.4v-4.645l-30.933-88.534c-0.473-2.489-1.724-4.356-3.755-5.6-2.030-1.245-4.334-1.867-6.912-1.867h-160c-2.251 0-4.404 0.622-6.459 1.867-2.052 1.244-3.454 3.111-4.208 5.6l-30.934 88.534v119.109c0 1.926 0.65 3.536 1.952 4.827 1.301 1.286 2.926 1.93 4.875 1.93zM150.728 233.965l25.6-75.024h159.285l25.957 75.024h-210.843zM187.438 288.738c2.784-2.83 4.175-6.060 4.175-9.69 0-3.627-1.416-6.832-4.246-9.616-2.83-2.788-6.059-4.182-9.69-4.182-3.626 0-6.833 1.416-9.616 4.25-2.787 2.83-4.181 6.058-4.181 9.685 0 3.63 1.417 6.837 4.25 9.622 2.83 2.784 6.059 4.175 9.685 4.175 3.631 0 6.837-1.416 9.622-4.246zM301.837 427.741h121.558c1.806-7.111 5.11-13.69 9.909-19.734 4.8-6.045 10.756-10.311 17.867-12.8v-43.733c-7.111-2.489-13.067-6.755-17.867-12.8s-8.089-12.622-9.866-19.733h-121.558c-1.806 7.111-5.11 13.688-9.909 19.733-4.8 6.045-10.756 10.311-17.867 12.8v43.733c7.111 2.489 13.067 6.755 17.867 12.8s8.089 12.623 9.866 19.734zM377.837 388.541c4.089-4.089 6.134-9.156 6.134-15.2s-2.045-11.111-6.134-15.2c-4.089-4.089-9.156-6.134-15.2-6.134s-11.111 2.044-15.2 6.134c-4.089 4.089-6.134 9.156-6.134 15.2s2.044 11.111 6.134 15.2c4.089 4.089 9.156 6.134 15.2 6.134s11.111-2.044 15.2-6.134zM294.37 441.608c-9.245 0-17.245-3.378-24-10.134s-10.133-14.755-10.133-24v-68.267c0-9.245 3.377-17.245 10.133-24s14.756-10.133 24-10.133h136.534c9.245 0 17.244 3.377 24 10.133s10.134 14.756 10.134 24v68.267c0 9.245-3.378 17.244-10.134 24s-14.755 10.134-24 10.134h-136.534z"></path>
    </symbol>
    <symbol fill="currentColor" version="1.1" xmlns="http://www.w3.org/2000/svg" viewBox="0 0 512 512" id="front_loader">
       
        <path d="M97.585 407.459c-13.568 0-25.138-4.786-34.709-14.357-9.572-9.568-14.358-21.138-14.358-34.71v-114.133c0-8.302 2.947-15.356 8.843-21.162 5.898-5.803 12.907-8.704 21.024-8.704h115.733v-106.133h81.243c13.728 0 25.339 4.769 34.832 14.309 9.49 9.543 14.235 21.129 14.235 34.757v92.266h32v-31.291c0-3.655 0.724-7.139 2.171-10.453 1.448-3.316 3.332-6.291 5.654-8.922l26.49-26.492 74.843 141.157h-82.491c-7.050 0-13.168-2.592-18.353-7.776-5.188-5.188-7.959-11.485-8.315-18.891v-24.534h-32v53.158c7.822 4.622 13.956 10.627 18.4 18.016 4.445 7.392 6.668 15.667 6.668 24.827 0 13.572-4.784 25.141-14.352 34.71-9.572 9.572-21.144 14.357-34.714 14.357-12.207 0-22.962-3.97-32.267-11.909-9.301-7.943-14.723-18.019-16.267-30.224h-105.419c-1.778 12.205-7.26 22.281-16.447 30.224-9.184 7.939-19.999 11.909-32.443 11.909zM97.516 394.659c9.916 0 18.451-3.586 25.605-10.757 7.154-7.172 10.731-15.736 10.731-25.691 0-9.952-3.506-18.455-10.518-25.509-7.008-7.051-15.57-10.577-25.686-10.577-10.115 0-18.7 3.507-25.754 10.518-7.050 7.008-10.576 15.49-10.576 25.445 0 9.952 3.614 18.534 10.842 25.749s15.68 10.821 25.355 10.821zM326.118 383.902c7.050-7.172 10.577-15.736 10.577-25.691 0-9.952-3.505-18.455-10.512-25.509-7.012-7.051-15.493-10.577-25.445-10.577-9.955 0-18.541 3.507-25.755 10.518-7.214 7.008-10.821 15.49-10.821 25.445 0 9.952 3.587 18.534 10.762 25.749 7.172 7.214 15.733 10.821 25.685 10.821 9.955 0 18.459-3.586 25.509-10.757zM194.118 351.993v-124.8h-115.733c-4.978 0-9.067 1.601-12.267 4.8s-4.8 7.288-4.8 12.266v80.357c4.622-4.978 10.075-8.772 16.358-11.382 6.279-2.606 12.915-3.909 19.91-3.909 12.207 0 22.932 4 32.177 12s14.637 18.223 16.181 30.667h48.175zM206.918 351.993h44.976c1.543-12.445 6.899-22.666 16.069-30.667s19.991-12 32.464-12c1.778 0 3.644 0.089 5.6 0.267 1.955 0.178 3.822 0.445 5.6 0.8v-48h-104.709v89.6zM444.61 300.793l-57.248-107.376-12.8 13.334c-1.656 1.422-2.96 3.2-3.909 5.333s-1.424 4.325-1.424 6.576v68.266c0.356 3.673 1.839 6.904 4.448 9.691 2.606 2.784 5.746 4.175 9.419 4.175h61.515zM206.918 249.593h104.709v-92.101c0-10.244-3.511-18.876-10.533-25.898-7.023-7.022-15.6-10.533-25.733-10.533h-68.443v128.533zM194.118 351.993v0zM206.918 351.993v0z"></path>
    </symbol>
    <symbol fill="currentColor" version="1.1" xmlns="http://www.w3.org/2000/svg" viewBox="0 0 512 512" id="traffic_jam">
       
        <path d="M55.437 441.596c-1.539 0-2.992-0.697-4.358-2.091-1.361-1.39-2.042-2.827-2.042-4.31v-158.224l40.357-95.108c1.802-4.118 4.475-7.458 8.017-10.022 3.544-2.564 7.686-3.845 12.427-3.845h173.157c4.384 0 8.531 1.274 12.442 3.824 3.911 2.546 6.636 5.893 8.176 10.043l39.824 95.109v158.224c0 1.483-0.697 2.92-2.091 4.31-1.39 1.394-2.827 2.091-4.31 2.091-1.896 0-3.437-0.697-4.624-2.091-1.184-1.39-1.776-2.827-1.776-4.31v-33.599h-268.8v33.599c0 1.483-0.697 2.92-2.090 4.31-1.391 1.394-2.827 2.091-4.309 2.091zM68.947 264.706h254.582l-35.382-83.909h-183.819l-35.381 83.909zM61.837 388.796h268.8v-111.291h-268.8v111.291zM132.327 347.906c3.851-3.791 5.776-8.531 5.776-14.219s-1.939-10.608-5.819-14.757c-3.879-4.149-8.65-6.224-14.314-6.224-5.66 0-10.475 2.060-14.443 6.181-3.971 4.118-5.957 9.11-5.957 14.976 0 5.572 1.965 10.252 5.894 14.043 3.929 3.793 8.759 5.691 14.49 5.691 5.728 0 10.519-1.897 14.373-5.691zM288.947 347.906c3.972-3.791 5.957-8.531 5.957-14.219s-2-10.608-6-14.757c-3.997-4.149-8.767-6.224-14.31-6.224s-10.299 2.060-14.267 6.181c-3.971 4.118-5.957 9.11-5.957 14.976 0 5.572 1.964 10.252 5.894 14.043 3.929 3.793 8.699 5.691 14.31 5.691 5.614 0 10.405-1.897 14.373-5.691zM386.104 381.505v-161.066l-40.709-97.242h-196.090l-0.47 0.975c1.851-4.090 4.675-7.406 8.469-9.952 3.794-2.549 8.002-3.824 12.625-3.824h169.243c4.444 0 8.498 1.281 12.16 3.844 3.661 2.564 6.423 5.904 8.282 10.022l39.291 93.333v150.043c0 3.616-1.408 6.832-4.224 9.649-2.812 2.812-6.027 4.219-9.642 4.219h1.067zM443.704 321.421v-161.066l-40.176-94.757h-193.601l-0.47 0.976c1.852-4.089 4.675-7.407 8.47-9.952 3.79-2.55 7.995-3.824 12.618-3.824h166.757c4.445 0 8.498 1.282 12.16 3.846s6.423 5.904 8.283 10.022l38.757 91.376v149.514c0 3.613-1.408 6.827-4.224 9.642-2.812 2.816-6.026 4.224-9.642 4.224h1.067z"></path>
    </symbol>
    <symbol fill="currentColor" version="1.1" xmlns="http://www.w3.org/2000/svg" viewBox="0 0 512 512" id="garage_door_open">
       
        <path d="M125.852 387.022h54.576v-174.223h151.466v174.223h54.224v-196.267l-130.133-102.047-130.133 101.627v196.688zM192.876 270.222h126.219v-44.624h-126.219v44.624zM256.252 168.355c3.495 0 6.459-1.209 8.891-3.625 2.428-2.418 3.642-5.471 3.642-9.158s-1.211-6.744-3.632-9.173c-2.421-2.428-5.536-3.643-9.344-3.643-2.966 0-5.81 1.225-8.534 3.675-2.728 2.45-4.091 5.485-4.091 9.104 0 3.688 1.377 6.745 4.134 9.173 2.756 2.432 5.733 3.648 8.933 3.648zM113.052 399.822v-198.048h-21.867l164.799-128.886 164.266 128.886h-21.334v198.048h-79.824v-116.8h-126.219v116.8h-79.825z"></path>
    </symbol>
    <symbol fill="currentColor" version="1.1" xmlns="http://www.w3.org/2000/svg" viewBox="0 0 512 512" id="account_balance">
       
        <path d="M149.691 366.925v-183.466h12.8v183.466h-12.8zM249.958 366.925v-183.466h12.8v183.466h-12.8zM85.334 420.259v-12.8h341.334v12.8h-341.334zM349.509 366.925v-183.466h12.8v183.466h-12.8zM85.334 142.925v-7.824l170.666-82.843 170.667 82.843v7.824h-341.334zM125.509 130.125h260.981l-130.491-63.291-130.491 63.291z"></path>
    </symbol>
    <symbol fill="currentColor" version="1.1" xmlns="http://www.w3.org/2000/svg" viewBox="0 0 512 512" id="directions_car">
       
        <path d="M102.371 377.25v36.624c0 1.813-0.614 3.332-1.841 4.56s-2.747 1.841-4.559 1.841h2.133c-1.814 0-3.334-0.613-4.56-1.841s-1.84-2.747-1.84-4.56v-152.891l41.6-120.176c0.711-2.016 2.050-3.586 4.016-4.709 1.97-1.127 4.067-1.69 6.294-1.69h226.848c1.945 0 3.625 0.556 5.039 1.668 1.416 1.117 2.461 2.694 3.137 4.732l41.6 120.176v152.891c0 1.813-0.613 3.332-1.841 4.56s-2.747 1.841-4.56 1.841h2.134c-1.974 0-3.533-0.613-4.677-1.841-1.149-1.227-1.723-2.747-1.723-4.56v-36.624h-307.2zM109.838 248.184h292.267l-35.558-100.976h-221.152l-35.558 100.976zM156.392 333.517c5.825 0 10.72-2.057 14.689-6.171 3.971-4.11 5.957-9.027 5.957-14.752 0-5.923-2.058-10.849-6.171-14.779-4.114-3.932-8.994-5.899-14.641-5.899-5.845 0-10.772 2-14.779 6-4.007 3.997-6.011 8.944-6.011 14.842 0 5.899 2.036 10.834 6.112 14.805 4.074 3.968 9.023 5.952 14.843 5.952zM355.965 333.517c5.774 0 10.642-2.057 14.603-6.171 3.957-4.11 5.937-9.027 5.937-14.752 0-5.923-2.013-10.849-6.038-14.779-4.027-3.932-8.918-5.899-14.667-5.899-5.752 0-10.673 2-14.762 6-4.089 3.997-6.134 8.944-6.134 14.842 0 5.899 2.115 10.834 6.347 14.805 4.231 3.968 9.135 5.952 14.714 5.952zM104.504 364.45h302.933v-103.466h-302.933v103.466z"></path>
    </symbol>
    <symbol fill="currentColor" version="1.1" xmlns="http://www.w3.org/2000/svg" viewBox="0 0 512 512" id="arrow-down">
        <path d="M262.043 147.558v219.019l93.514-93.154 9.243 9.243-108.8 108.8-109.157-108.8 9.248-9.243 93.153 93.154v-219.019h12.8z"></path>
    </symbol>
    <symbol fill="currentColor" version="1.1" xmlns="http://www.w3.org/2000/svg" viewBox="0 0 512 512" id="download">

        <path d="M256 330.31l-65.423-65.42 9.246-8.89 49.776 49.423v-192.357h12.8v192.357l49.776-49.423 9.247 8.89-65.423 65.42zM142.934 398.933c-8.48 0-15.579-2.857-21.296-8.571-5.713-5.717-8.57-12.815-8.57-21.296v-50.49h12.8v50.49c0 4.267 1.778 8.178 5.333 11.733s7.466 5.334 11.733 5.334h226.133c4.267 0 8.178-1.779 11.733-5.334s5.334-7.466 5.334-11.733v-50.49h12.8v50.49c0 8.481-2.857 15.579-8.571 21.296-5.717 5.714-12.815 8.571-21.296 8.571h-226.133z"></path>
    </symbol>
    <symbol fill="currentColor" version="1.1" xmlns="http://www.w3.org/2000/svg" viewBox="0 0 512 512" id="arrow-top">
        <path d="M249.957 364.443v-219.019l-93.514 93.153-9.243-9.244 108.8-108.8 109.156 108.8-9.247 9.244-93.154-93.153v219.019h-12.8z"></path>
    </symbol>
    <symbol fill="currentColor" version="1.1" xmlns="http://www.w3.org/2000/svg" viewBox="0 0 512 512" id="arrow-right">
       
        <path d="M147.558 249.957h219.019l-93.154-93.514 9.243-9.243 108.8 108.8-108.8 109.156-9.243-9.247 93.154-93.154h-219.019v-12.8z"></path>
    </symbol>
    <symbol fill="currentColor" version="1.1" xmlns="http://www.w3.org/2000/svg" viewBox="0 0 512 512" id="delivery_truck_speed">
       
        <path d="M127.067 384.266c-9.543-9.777-14.195-21.599-13.957-35.466h-45.867l2.843-12.8h44.8c2.966-10.312 8.803-18.757 17.515-25.334s18.637-9.866 29.776-9.866c11.139 0 21.066 3.288 29.776 9.866s14.667 15.022 17.867 25.334h104.534l48.181-210.133h-235.733v0.358c0.711-3.793 2.518-6.935 5.418-9.424 2.905-2.489 6.432-3.734 10.582-3.734h235.91l-16.891 72.534h40.001l55.291 73.957-17.601 89.243h-19.2c0.239 13.866-4.413 25.688-13.957 35.466-9.541 9.777-21.243 14.667-35.109 14.667s-25.57-4.889-35.11-14.667c-9.543-9.777-14.196-21.599-13.957-35.466h-110.933c0.239 13.866-4.413 25.688-13.957 35.466-9.541 9.777-21.243 14.667-35.109 14.667s-25.57-4.889-35.109-14.667zM338.352 285.334h100.625l4.267-22.759-47.824-64.176h-36.976l-20.091 86.934zM355.418 155.733l7.115-29.867-48.181 210.133 7.113-29.866 16.534-73.6 17.418-76.8zM43.6 274.134l3.019-12.8h89.066l-3.018 12.8h-89.067zM86.266 200.534l3.019-12.8h110.4l-3.019 12.8h-110.4zM162.176 386.134c10.072 0 18.637-3.586 25.69-10.757 7.050-7.168 10.576-15.671 10.576-25.51 0-10.072-3.526-18.637-10.576-25.69-7.053-7.050-15.618-10.576-25.69-10.576-9.839 0-18.341 3.526-25.51 10.576-7.172 7.053-10.757 15.618-10.757 25.69 0 9.839 3.586 18.341 10.757 25.51 7.168 7.171 15.671 10.757 25.51 10.757zM371.243 386.134c10.072 0 18.637-3.586 25.69-10.757 7.050-7.168 10.576-15.671 10.576-25.51 0-10.072-3.526-18.637-10.576-25.69-7.053-7.050-15.618-10.576-25.69-10.576-9.839 0-18.341 3.526-25.51 10.576-7.171 7.053-10.757 15.618-10.757 25.69 0 9.839 3.586 18.341 10.757 25.51 7.168 7.171 15.671 10.757 25.51 10.757z"></path>
    </symbol>
    <symbol fill="currentColor" version="1.1" xmlns="http://www.w3.org/2000/svg" viewBox="0 0 512 512" id="home_pin">
       
        <path d="M205.867 267.733h32v-49.066h36.266v49.066h32v-81.776l-50.133-33.066-50.133 33.066v81.776zM256 424.709c39.822-34.133 71.911-69.954 96.266-107.467 24.356-37.511 36.533-69.835 36.533-96.976 0-39.822-12.532-72.71-37.599-98.666-25.066-25.956-56.8-38.934-95.2-38.934s-70.134 12.978-95.2 38.934c-25.067 25.956-37.6 58.844-37.6 98.666 0 27.141 12.237 59.466 36.709 96.976 24.477 37.512 56.506 73.334 96.090 107.467zM256 442.132c-48-43.022-84.267-83.2-108.8-120.534s-36.8-71.11-36.8-101.334c0-42.666 13.956-78.31 41.867-106.933s62.488-42.933 103.733-42.933c41.245 0 75.822 14.311 103.733 42.933s41.866 64.266 41.866 106.933c0 30.224-12.266 64-36.799 101.334s-60.8 77.512-108.8 120.534z"></path>
    </symbol>
    <symbol fill="currentColor" version="1.1" xmlns="http://www.w3.org/2000/svg" viewBox="0 0 512 512" id="lens_blur">
       
        <path d="M56.533 306.134c-2.133-2.134-3.2-4.682-3.2-7.642 0-2.966 1.066-5.514 3.2-7.647s4.681-3.2 7.643-3.2c2.966 0 5.515 1.067 7.648 3.2s3.2 4.682 3.2 7.647c0 2.961-1.067 5.509-3.2 7.642s-4.683 3.2-7.648 3.2c-2.962 0-5.51-1.067-7.642-3.2zM56.533 221.156c-2.133-2.133-3.2-4.681-3.2-7.648 0-2.961 1.066-5.509 3.2-7.643s4.681-3.2 7.643-3.2c2.966 0 5.515 1.066 7.648 3.2s3.2 4.681 3.2 7.643c0 2.966-1.067 5.514-3.2 7.648s-4.683 3.2-7.648 3.2c-2.962 0-5.51-1.066-7.642-3.2zM116.091 395.909c-3.2-3.2-4.8-7.17-4.8-11.909s1.6-8.709 4.8-11.909c3.2-3.2 7.169-4.801 11.909-4.801s8.709 1.601 11.91 4.801c3.2 3.2 4.8 7.17 4.8 11.909s-1.6 8.709-4.8 11.909c-3.2 3.2-7.169 4.801-11.91 4.801s-8.71-1.601-11.909-4.801zM116.091 310.576c-3.2-3.2-4.8-7.228-4.8-12.085 0-4.861 1.6-8.892 4.8-12.091s7.169-4.799 11.909-4.799c4.739 0 8.709 1.599 11.91 4.799s4.8 7.231 4.8 12.091c0 4.857-1.6 8.885-4.8 12.085s-7.169 4.801-11.91 4.801c-4.739 0-8.71-1.601-11.909-4.801zM116.091 225.601c-3.2-3.202-4.8-7.231-4.8-12.091 0-4.857 1.6-8.885 4.8-12.085s7.169-4.801 11.909-4.801c4.739 0 8.709 1.601 11.91 4.801s4.8 7.227 4.8 12.085c0 4.861-1.6 8.89-4.8 12.091-3.2 3.198-7.169 4.799-11.91 4.799s-8.71-1.601-11.909-4.799zM116.091 139.91c-3.2-3.2-4.8-7.169-4.8-11.91s1.6-8.71 4.8-11.909c3.2-3.2 7.169-4.8 11.909-4.8s8.709 1.6 11.91 4.8c3.2 3.2 4.8 7.169 4.8 11.909s-1.6 8.709-4.8 11.91c-3.2 3.2-7.169 4.8-11.91 4.8s-8.71-1.6-11.909-4.8zM197.333 314.666c-4.506-4.505-6.756-9.897-6.756-16.176 0-6.282 2.251-11.677 6.756-16.181 4.506-4.502 9.897-6.753 16.176-6.753 6.282 0 11.677 2.251 16.181 6.753 4.502 4.504 6.754 9.899 6.754 16.181 0 6.279-2.251 11.67-6.754 16.176-4.504 4.505-9.899 6.757-16.181 6.757-6.279 0-11.67-2.251-16.176-6.757zM197.333 229.69c-4.506-4.504-6.756-9.899-6.756-16.181 0-6.279 2.251-11.67 6.756-16.176s9.897-6.756 16.176-6.756c6.282 0 11.677 2.251 16.181 6.756 4.502 4.506 6.754 9.897 6.754 16.176 0 6.282-2.251 11.677-6.754 16.181-4.504 4.502-9.899 6.754-16.181 6.754-6.279 0-11.67-2.251-16.176-6.754zM201.424 395.909c-3.2-3.2-4.801-7.17-4.801-11.909s1.601-8.709 4.801-11.909c3.2-3.2 7.227-4.801 12.085-4.801 4.861 0 8.89 1.601 12.091 4.801 3.198 3.2 4.799 7.17 4.799 11.909s-1.601 8.709-4.799 11.909c-3.202 3.2-7.231 4.801-12.091 4.801-4.857 0-8.885-1.601-12.085-4.801zM201.424 139.91c-3.2-3.2-4.801-7.169-4.801-11.91s1.601-8.71 4.801-11.909c3.2-3.2 7.227-4.8 12.085-4.8 4.861 0 8.89 1.6 12.091 4.8 3.198 3.2 4.799 7.169 4.799 11.909s-1.601 8.709-4.799 11.91c-3.202 3.2-7.231 4.8-12.091 4.8-4.857 0-8.885-1.6-12.085-4.8zM205.867 455.466c-2.133-2.134-3.2-4.682-3.2-7.642 0-2.966 1.066-5.514 3.2-7.647s4.681-3.2 7.643-3.2c2.966 0 5.514 1.067 7.648 3.2s3.2 4.682 3.2 7.647c0 2.961-1.066 5.509-3.2 7.642s-4.681 3.2-7.648 3.2c-2.961 0-5.509-1.067-7.643-3.2zM205.867 71.824c-2.133-2.133-3.2-4.683-3.2-7.648 0-2.962 1.066-5.51 3.2-7.642s4.681-3.2 7.643-3.2c2.966 0 5.514 1.066 7.648 3.2s3.2 4.681 3.2 7.642c0 2.966-1.066 5.515-3.2 7.648s-4.681 3.2-7.648 3.2c-2.961 0-5.509-1.067-7.643-3.2zM282.31 314.666c-4.502-4.505-6.753-9.897-6.753-16.176 0-6.282 2.251-11.677 6.753-16.181 4.504-4.502 9.899-6.753 16.181-6.753 6.279 0 11.67 2.251 16.176 6.753 4.505 4.504 6.757 9.899 6.757 16.181 0 6.279-2.251 11.67-6.757 16.176s-9.897 6.757-16.176 6.757c-6.282 0-11.677-2.251-16.181-6.757zM282.31 229.69c-4.502-4.504-6.753-9.899-6.753-16.181 0-6.279 2.251-11.67 6.753-16.176 4.504-4.506 9.899-6.756 16.181-6.756 6.279 0 11.67 2.251 16.176 6.756s6.757 9.897 6.757 16.176c0 6.282-2.251 11.677-6.757 16.181-4.505 4.502-9.897 6.754-16.176 6.754-6.282 0-11.677-2.251-16.181-6.754zM286.399 395.909c-3.2-3.2-4.799-7.17-4.799-11.909s1.599-8.709 4.799-11.909c3.2-3.2 7.231-4.801 12.091-4.801 4.857 0 8.885 1.601 12.085 4.801s4.801 7.17 4.801 11.909c0 4.74-1.601 8.709-4.801 11.909s-7.228 4.801-12.085 4.801c-4.861 0-8.892-1.601-12.091-4.801zM286.399 139.91c-3.2-3.2-4.799-7.169-4.799-11.91s1.599-8.71 4.799-11.909c3.2-3.2 7.231-4.8 12.091-4.8 4.857 0 8.885 1.6 12.085 4.8s4.801 7.169 4.801 11.909c0 4.739-1.601 8.709-4.801 11.91s-7.228 4.8-12.085 4.8c-4.861 0-8.892-1.6-12.091-4.8zM291.557 455.466c-2.134-2.134-3.2-4.682-3.2-7.642 0-2.966 1.067-5.514 3.2-7.647s4.682-3.2 7.642-3.2c2.963 0 5.511 1.067 7.644 3.2s3.2 4.682 3.2 7.647c0 2.961-1.067 5.509-3.2 7.642s-4.681 3.2-7.644 3.2c-2.961 0-5.509-1.067-7.642-3.2zM290.844 71.824c-2.134-2.133-3.2-4.683-3.2-7.648 0-2.962 1.067-5.51 3.2-7.642s4.681-3.2 7.647-3.2c2.961 0 5.509 1.066 7.642 3.2s3.2 4.681 3.2 7.642c0 2.966-1.067 5.515-3.2 7.648s-4.681 3.2-7.642 3.2c-2.966 0-5.514-1.067-7.647-3.2zM372.091 395.909c-3.2-3.2-4.801-7.17-4.801-11.909s1.601-8.709 4.801-11.909c3.2-3.2 7.17-4.801 11.909-4.801s8.709 1.601 11.909 4.801c3.2 3.2 4.801 7.17 4.801 11.909s-1.601 8.709-4.801 11.909c-3.2 3.2-7.17 4.801-11.909 4.801s-8.709-1.601-11.909-4.801zM372.091 310.576c-3.2-3.2-4.801-7.228-4.801-12.085 0-4.861 1.601-8.892 4.801-12.091s7.17-4.799 11.909-4.799c4.74 0 8.709 1.599 11.909 4.799s4.801 7.231 4.801 12.091c0 4.857-1.601 8.885-4.801 12.085s-7.17 4.801-11.909 4.801c-4.74 0-8.709-1.601-11.909-4.801zM372.091 225.601c-3.2-3.202-4.801-7.231-4.801-12.091 0-4.857 1.601-8.885 4.801-12.085s7.17-4.801 11.909-4.801c4.74 0 8.709 1.601 11.909 4.801s4.801 7.227 4.801 12.085c0 4.861-1.601 8.89-4.801 12.091-3.2 3.198-7.17 4.799-11.909 4.799s-8.709-1.601-11.909-4.799zM372.091 139.91c-3.2-3.2-4.801-7.169-4.801-11.91s1.601-8.71 4.801-11.909c3.2-3.2 7.17-4.8 11.909-4.8s8.709 1.6 11.909 4.8c3.2 3.2 4.801 7.169 4.801 11.909s-1.601 8.709-4.801 11.91c-3.2 3.2-7.17 4.8-11.909 4.8s-8.709-1.6-11.909-4.8zM440.176 306.134c-2.134-2.134-3.2-4.682-3.2-7.642 0-2.966 1.067-5.514 3.2-7.647s4.681-3.2 7.647-3.2c2.961 0 5.509 1.067 7.642 3.2s3.2 4.682 3.2 7.647c0 2.961-1.067 5.509-3.2 7.642s-4.681 3.2-7.642 3.2c-2.966 0-5.514-1.067-7.647-3.2zM440.176 221.156c-2.134-2.133-3.2-4.681-3.2-7.648 0-2.961 1.067-5.509 3.2-7.643s4.681-3.2 7.647-3.2c2.961 0 5.509 1.066 7.642 3.2s3.2 4.681 3.2 7.643c0 2.966-1.067 5.514-3.2 7.648s-4.681 3.2-7.642 3.2c-2.966 0-5.514-1.066-7.647-3.2z"></path>
    </symbol>
    <symbol fill="currentColor" version="1.1" xmlns="http://www.w3.org/2000/svg" viewBox="0 0 512 512" id="linked_camera">
       
        <path d="M427.377 162.133c0-27.616-9.579-51.053-28.737-70.309-19.161-19.26-42.53-28.891-70.106-28.891v-13.867c31.288 0 57.955 11.022 80 33.067s33.067 48.711 33.067 80h-14.224zM372.976 162.133c0-12.327-4.327-22.816-12.976-31.466-8.651-8.651-19.14-12.976-31.467-12.976v-14.224c16.416 0 30.296 5.659 41.642 16.976 11.349 11.321 16.904 25.218 16.668 41.691h-13.866zM100.266 420.267c-8.48 0-15.579-2.857-21.296-8.571-5.713-5.717-8.57-12.815-8.57-21.296v-225.424c0-8.534 2.857-15.644 8.57-21.333 5.718-5.689 12.816-8.534 21.296-8.534h64l39.466-43.376h103.466v12.8h-97.776l-39.466 43.376h-69.691c-4.978 0-9.067 1.661-12.266 4.982-3.2 3.317-4.8 7.345-4.8 12.085v225.424c0 4.978 1.6 9.066 4.8 12.267 3.2 3.199 7.289 4.799 12.267 4.799h311.466c4.978 0 9.066-1.601 12.267-4.799 3.199-3.202 4.799-7.289 4.799-12.267v-206.934h12.8v206.934c0 8.481-2.845 15.579-8.534 21.296-5.688 5.714-12.8 8.571-21.334 8.571h-311.466zM256 351.29c20.74 0 38.192-7.082 52.357-21.248 14.162-14.162 21.243-31.613 21.243-52.352 0-20.743-7.081-38.195-21.243-52.357-14.166-14.162-31.618-21.243-52.357-21.243s-38.192 7.081-52.357 21.243c-14.162 14.162-21.243 31.614-21.243 52.357 0 20.74 7.081 38.19 21.243 52.352 14.166 14.166 31.618 21.248 52.357 21.248zM256 338.49c-17.305 0-31.763-5.808-43.376-17.423-11.615-11.615-17.423-26.075-17.423-43.377 0-17.304 5.808-31.764 17.423-43.38 11.614-11.614 26.071-17.42 43.376-17.42s31.763 5.806 43.377 17.42c11.615 11.615 17.423 26.076 17.423 43.38 0 17.302-5.808 31.761-17.423 43.377-11.614 11.615-26.071 17.423-43.377 17.423z"></path>
    </symbol>
    <symbol fill="currentColor" version="1.1" xmlns="http://www.w3.org/2000/svg" viewBox="0 0 512 512" id="ads_click">
       
        <path d="M241.601 355.2c-24.534-3.911-44.979-15.111-61.334-33.599-16.356-18.49-24.534-40.356-24.534-65.601 0-27.851 9.748-51.526 29.242-71.024 19.499-19.494 43.173-29.242 71.025-29.242 25.245 0 47.111 8.089 65.601 24.267 18.488 16.178 29.688 36.533 33.599 61.066l-16.532-4.799c-4.594-19.2-14.486-34.934-29.675-47.202-15.192-12.266-32.856-18.399-52.992-18.399-23.466 0-43.556 8.356-60.266 25.067-16.712 16.71-25.067 36.799-25.067 60.266 0 20.267 6.222 38.045 18.667 53.334 12.444 15.288 28.089 25.245 46.934 29.866l5.333 16zM267.199 441.067c-1.865 0.355-3.733 0.533-5.599 0.533h-5.599c-25.675 0-49.802-4.869-72.385-14.608-22.581-9.74-42.223-22.957-58.927-39.654-16.704-16.697-29.929-36.328-39.674-58.896-9.742-22.57-14.614-46.688-14.614-72.353 0-25.66 4.87-49.791 14.608-72.388 9.739-22.6 22.956-42.257 39.653-58.971 16.697-16.719 36.329-29.952 58.895-39.702 22.571-9.753 46.688-14.63 72.353-14.63 25.659 0 49.791 4.873 72.389 14.618 22.599 9.742 42.257 22.966 58.972 39.669 16.717 16.704 29.952 36.347 39.7 58.929 9.753 22.581 14.63 46.708 14.63 72.383v5.334c0 1.779-0.178 3.555-0.533 5.334l-14.401-4.267v-6.4c0-47.645-16.534-88-49.599-121.066-33.069-33.066-73.423-49.6-121.067-49.6s-88 16.534-121.067 49.6c-33.066 33.066-49.6 73.421-49.6 121.067s16.534 87.999 49.6 121.067c33.066 33.065 73.421 49.599 121.067 49.599h6.4l4.799 14.401zM416.533 432.534l-105.599-106.134-17.601 53.334-37.334-123.733 123.733 37.334-53.334 17.601 106.134 105.599-16.002 16.002z"></path>
    </symbol>
    <symbol fill="currentColor" version="1.1" xmlns="http://www.w3.org/2000/svg" viewBox="0 0 512 512" id="eye_tracking">
       
        <path d="M132.624 462.933h-53.691c-8.48 0-15.578-2.857-21.296-8.571-5.714-5.717-8.571-12.815-8.571-21.296v-53.69h12.8v53.69c0 4.978 1.6 9.067 4.8 12.267s7.289 4.799 12.266 4.799h53.69v12.8zM379.377 462.933v-12.8h53.69c4.978 0 9.067-1.599 12.267-4.799s4.799-7.289 4.799-12.267v-53.69h12.8v53.69c0 8.481-2.857 15.579-8.571 21.296-5.717 5.714-12.815 8.571-21.296 8.571h-53.69zM256.027 372.623c-36.69 0-69.453-10.103-98.288-30.314-28.832-20.207-51.011-48.976-66.538-86.31 15.527-37.334 37.712-66.164 66.555-86.49 28.839-20.323 61.646-30.486 98.421-30.486 36.594 0 69.298 10.162 98.113 30.486 28.813 20.327 50.985 49.157 66.512 86.49-15.527 37.334-37.7 66.103-66.517 86.31-28.819 20.211-61.572 30.314-98.256 30.314zM255.824 359.824c33.067 0 62.695-9.008 88.885-27.024 26.194-18.015 46.757-43.615 61.691-76.8-14.933-33.185-35.497-58.843-61.691-76.976-26.19-18.133-55.818-27.2-88.885-27.2s-62.638 9.066-88.715 27.2c-26.073 18.133-46.695 43.791-61.867 76.976 15.171 33.185 35.793 58.784 61.867 76.8 26.077 18.015 55.648 27.024 88.715 27.024zM256.080 312.358c15.725 0 29.036-5.451 39.931-16.351 10.897-10.899 16.346-24.26 16.346-40.086 0-15.725-5.439-29.036-16.314-39.931-10.877-10.897-24.211-16.346-40.001-16.346s-29.138 5.439-40.042 16.315c-10.905 10.875-16.358 24.209-16.358 39.999s5.451 29.138 16.352 40.044c10.899 10.904 24.261 16.356 40.086 16.356zM256.086 299.558c-12.153 0-22.463-4.236-30.934-12.709-8.474-8.469-12.709-18.78-12.709-30.934 0-12.15 4.236-22.433 12.709-30.848 8.47-8.416 18.78-12.624 30.934-12.624 12.15 0 22.433 4.183 30.848 12.549s12.624 18.674 12.624 30.923c0 12.153-4.183 22.465-12.549 30.933-8.366 8.474-18.675 12.709-30.923 12.709zM49.066 132.624v-53.691c0-8.48 2.857-15.578 8.571-21.296 5.718-5.714 12.816-8.571 21.296-8.571h53.69v12.8h-53.691c-4.978 0-9.067 1.6-12.266 4.8s-4.8 7.289-4.8 12.266v53.69h-12.8zM450.134 132.624v-53.691c0-4.978-1.599-9.067-4.799-12.266s-7.289-4.8-12.267-4.8h-53.69v-12.8h53.69c8.481 0 15.579 2.857 21.296 8.57 5.714 5.718 8.571 12.816 8.571 21.296v53.691h-12.8z"></path>
    </symbol>
    <symbol fill="currentColor" version="1.1" xmlns="http://www.w3.org/2000/svg" viewBox="0 0 512 512" id="document_scanner">
       
        <path d="M56.533 111.29v-76.091h76.442v12.8h-63.642v63.29h-12.8zM442.666 111.29v-63.291h-63.29v-12.8h76.090v76.091h-12.8zM56.533 476.8v-76.444h12.8v63.644h63.642v12.8h-76.442zM379.377 476.8v-12.8h63.29v-63.644h12.8v76.443h-76.090zM133.333 382.933c0 4.267 1.778 8.178 5.333 11.733s7.466 5.334 11.733 5.334h211.2c4.267 0 8.178-1.779 11.733-5.334s5.334-7.466 5.334-11.733v-253.867c0-4.266-1.779-8.178-5.334-11.733s-7.466-5.334-11.733-5.334h-211.2c-4.267 0-8.178 1.778-11.733 5.334s-5.333 7.466-5.333 11.733v253.867zM150.4 412.8c-8.48 0-15.578-2.857-21.296-8.571-5.713-5.717-8.57-12.815-8.57-21.296v-253.867c0-8.48 2.857-15.579 8.57-21.296 5.718-5.713 12.816-8.57 21.296-8.57h211.2c8.481 0 15.579 2.857 21.296 8.57 5.714 5.718 8.571 12.816 8.571 21.296v253.867c0 8.481-2.857 15.579-8.571 21.296-5.717 5.714-12.815 8.571-21.296 8.571h-211.2zM206.934 198.4h98.133v-12.8h-98.133v12.8zM206.934 262.4h98.133v-12.8h-98.133v12.8zM206.934 326.4h98.133v-12.8h-98.133v12.8zM133.333 382.933v0z"></path>
    </symbol>
    <symbol fill="currentColor" version="1.1" xmlns="http://www.w3.org/2000/svg" viewBox="0 0 512 512" id="contactless_off">
       
        <path d="M313.243 351.281l-12.087-5.334c2.134-5.81 3.911-11.618 5.334-17.423 1.423-5.808 2.845-11.731 4.267-17.776l11.020 11.018c-1.067 4.978-2.37 9.957-3.91 14.933-1.539 4.978-3.080 9.839-4.623 14.582zM243.556 322.481l-12.090-4.267c3.439-9.839 5.958-20.002 7.557-30.491 1.601-10.489 2.399-21.065 2.399-31.732v-7.376c0-2.55-0.060-5.011-0.181-7.381l12.981 12.981c0 11.734-0.798 23.316-2.399 34.751-1.599 11.438-4.356 22.61-8.267 33.515zM173.51 293.325l-12.086-5.334c1.302-4.978 2.457-10.223 3.466-15.734 1.006-5.511 1.51-10.933 1.51-16.266s-0.445-10.815-1.333-16.444c-0.889-5.632-2.103-10.817-3.643-15.556l12.086-5.333c1.776 5.806 3.171 11.938 4.181 18.399 1.005 6.459 1.508 12.771 1.508 18.934 0 6.161-0.504 12.472-1.508 18.932-1.011 6.462-2.405 12.594-4.181 18.401zM328.358 271.814l-11.914-11.914c0.237-16.234-0.887-32.322-3.376-48.266-2.49-15.941-6.459-31.14-11.911-45.6l12.087-5.333c5.334 14.933 9.332 30.429 12 46.491 2.666 16.060 4 32.326 4 48.8 0 2.606-0.149 5.152-0.443 7.642-0.296 2.488-0.442 5.216-0.442 8.18zM262.576 206.034l-15.109-15.468 11.909-5.153c0.476 3.081 1.13 6.369 1.957 9.868 0.827 3.495 1.243 7.079 1.243 10.752zM455.824 474.3l-78.048-78.043c-16.591 14.339-35.137 25.481-55.642 33.423-20.505 7.94-42.549 11.911-66.134 11.911-25.6 0-49.69-4.832-72.267-14.491-22.577-9.656-42.281-22.902-59.109-39.733-16.832-16.829-30.076-36.533-39.733-59.111-9.66-22.577-14.49-46.666-14.49-72.266 0-23.584 3.969-45.63 11.909-66.133 7.943-20.506 19.085-39.053 33.424-55.644l-67.734-67.734 9.242-9.248 407.824 407.825-9.243 9.241zM256 428.791c21.688 0 42.075-3.676 61.156-11.025 19.080-7.346 36.325-17.478 51.734-30.399l-244.267-244.267c-12.921 15.41-23.055 32.654-30.4 51.733-7.35 19.082-11.024 39.469-11.024 61.159 0 48 16.8 88.8 50.4 122.399 33.6 33.601 74.4 50.401 122.4 50.401zM412.8 355.899l-9.424-9.419c8.060-13.276 14.314-27.498 18.758-42.666 4.444-15.171 6.666-31.113 6.666-47.822 0-48-16.8-88.801-50.399-122.401-33.601-33.6-74.401-50.4-122.401-50.4-16.712 0-32.652 2.222-47.824 6.667-15.167 4.445-29.391 10.697-42.666 18.757l-9.418-9.424c14.222-9.127 29.777-16.208 46.666-21.243 16.889-5.038 34.637-7.558 53.243-7.558 25.6 0 49.69 4.83 72.267 14.49 22.577 9.657 42.281 22.901 59.108 39.733 16.833 16.828 30.077 36.531 39.733 59.109 9.661 22.577 14.491 46.667 14.491 72.267 0 18.606-2.519 36.353-7.557 53.241-5.034 16.889-12.115 32.445-21.243 46.667z"></path>
    </symbol>
    <symbol fill="currentColor" version="1.1" xmlns="http://www.w3.org/2000/svg" viewBox="0 0 512 512" id="local_see">
       
        <path d="M256 372.623c17.779 0 33.304-5.363 46.577-16.091 13.276-10.726 21.81-24.447 25.6-41.156-2.134-1.779-4.327-3.734-6.576-5.868-2.251-2.134-4.444-4.089-6.577-5.866 0.236 0.71 0.413 1.421 0.534 2.134 0.118 0.71 0.176 1.421 0.176 2.134-2.015 14.933-8.564 27.319-19.642 37.157-11.083 9.837-24.447 14.756-40.091 14.756-17.305 0-31.763-5.808-43.376-17.423-11.615-11.615-17.423-26.075-17.423-43.377 0-16.949 5.571-31.202 16.71-42.757 11.143-11.556 25.129-17.57 41.957-18.043 0.949 0 1.838 0.118 2.666 0.353 0.829 0.237 1.719 0.476 2.668 0.714-1.756-2.317-3.494-4.601-5.21-6.852-1.72-2.251-3.243-4.649-4.566-7.196-19.321 1.661-35.321 9.455-48 23.381-12.682 13.923-19.024 30.724-19.024 50.4 0 20.74 7.081 38.19 21.243 52.352 14.166 14.166 31.618 21.248 52.357 21.248zM203.733 113.067h17.066c-0.355 2.073-0.563 4.147-0.625 6.224-0.056 2.073-0.085 4.265-0.085 6.576h-10.666l-39.466 43.376h-69.691c-4.978 0-9.067 1.661-12.266 4.981-3.2 3.318-4.8 7.347-4.8 12.087v225.423c0 4.978 1.6 9.067 4.8 12.267s7.289 4.799 12.267 4.799h311.466c4.978 0 9.066-1.599 12.267-4.799 3.199-3.2 4.799-7.289 4.799-12.267v-85.509c2.173-1.91 4.345-3.898 6.518-5.968 2.173-2.065 4.267-4.106 6.282-6.122v97.599c0 8.481-2.845 15.579-8.534 21.296-5.688 5.714-12.8 8.571-21.334 8.571h-311.466c-8.48 0-15.579-2.857-21.296-8.571-5.713-5.717-8.57-12.815-8.57-21.296v-225.423c0-8.534 2.857-15.645 8.57-21.334 5.718-5.689 12.816-8.534 21.296-8.534h64l39.466-43.376zM384 294.224c44.895-41.202 74.549-73.076 88.96-95.621 14.411-22.543 21.616-45.84 21.616-69.894 0-34.926-11.12-62.62-33.36-83.082-22.245-20.462-47.962-30.694-77.159-30.694-29.194 0-54.933 10.235-77.214 30.704-22.281 20.466-33.42 48.169-33.42 83.109 0 23.936 7.205 47.201 21.616 69.792 14.411 22.589 44.065 54.483 88.96 95.686zM384 277.334c-42.513-39.577-69.438-69.512-80.773-89.808s-17.003-39.722-17.003-58.282c0-33.073 10.334-58.172 30.998-75.296 20.668-17.12 42.952-25.68 66.849-25.68 23.894 0 46.15 8.55 66.774 25.648 20.622 17.095 30.933 42.156 30.933 75.184 0 18.489-5.687 37.934-17.056 58.336-11.372 20.405-38.277 50.373-80.72 89.899zM356.442 170.667l10.491-34.133-28.443-22.933h34.486l11.024-33.957 11.327 33.958h34.183l-27.884 23.104 10.757 33.963-28.411-21.013-27.53 21.013z"></path>
    </symbol>
    <symbol fill="currentColor" version="1.1" xmlns="http://www.w3.org/2000/svg" viewBox="0 0 512 512" id="car_tag">
       
        <path d="M134.965 333.51c5.906 0 10.843-2.015 14.811-6.043 3.971-4.027 5.958-8.948 5.958-14.757 0-6.006-2.014-10.972-6.042-14.901-4.032-3.932-8.912-5.898-14.64-5.898-5.93 0-10.9 1.957-14.906 5.871-4.007 3.915-6.011 8.865-6.011 14.848 0 5.98 1.996 10.957 5.989 14.928 3.99 3.968 8.937 5.953 14.843 5.953zM334.577 333.51c6.043 0 11.17-2.222 15.38-6.668 4.207-4.444 6.072-9.805 5.599-16.086 0-0.237-0.060-0.594-0.181-1.067-0.118-0.476-0.176-0.831-0.176-1.067-5.451-1.776-10.615-4.106-15.493-6.986-4.874-2.881-9.607-6.419-14.198-10.614l2.134 2.134c-3.911 1.539-7.228 4.075-9.952 7.61-2.728 3.534-4.091 7.576-4.091 12.123 0 5.69 2.010 10.549 6.031 14.577 4.019 4.027 9 6.043 14.945 6.043zM81.067 377.243v36.623c0 1.832-0.61 3.357-1.829 4.575-1.216 1.217-2.74 1.825-4.57 1.825h2.133c-1.831 0-3.356-0.608-4.576-1.825-1.216-1.219-1.824-2.745-1.824-4.575v-152.89l41.6-120.177c0.711-2.016 2.014-3.585 3.909-4.709 1.898-1.127 4.032-1.69 6.4-1.69h76.091v0.357c0 1.948 0.089 4.021 0.266 6.219 0.178 2.201 0.504 4.275 0.976 6.224h-75.552l-35.558 100.976h193.243l12.8 12.8h-211.376v103.466h302.933v-53.334c1.539-0.356 3.258-0.74 5.158-1.152 1.894-0.416 3.731-0.744 5.509-0.981l2.134-2.134v107.024c0 1.832-0.608 3.357-1.825 4.575-1.219 1.217-2.745 1.825-4.575 1.825h2.134c-1.991 0-3.555-0.608-4.693-1.825-1.139-1.219-1.707-2.745-1.707-4.575v-36.623h-307.2zM328.976 115.584c2.55-2.592 3.825-5.585 3.825-8.981s-1.293-6.366-3.882-8.912c-2.592-2.549-5.586-3.824-8.981-3.824-3.397 0-6.368 1.294-8.912 3.882-2.55 2.592-3.825 5.585-3.825 8.981s1.293 6.366 3.882 8.912c2.592 2.549 5.586 3.824 8.982 3.824 3.394 0 6.366-1.294 8.911-3.882zM360.001 253.51l-103.825-104.177c-2.026-1.956-3.63-4.23-4.811-6.821-1.176-2.592-1.764-5.355-1.764-8.288v-75.734c0-6.439 2.217-11.753 6.651-15.941s9.741-6.283 15.925-6.283h75.382c2.934 0 5.695 0.556 8.288 1.669s4.865 2.631 6.822 4.555l104.177 104.176c4.504 4.739 6.757 10.131 6.757 16.176s-2.253 11.32-6.757 15.825l-74.842 74.843c-4.446 4.504-9.69 6.756-15.734 6.756-6.045 0-11.467-2.253-16.266-6.756zM363.733 239.29c3.2 3.2 7.2 4.801 12 4.801 4.801 0 8.8-1.601 12.002-4.801l64.889-64.889c3.2-3.202 4.801-7.201 4.801-12.001s-1.601-8.8-4.801-12l-96.533-96.534c-1.543-1.778-3.44-3.022-5.692-3.733-2.25-0.711-4.442-1.066-6.576-1.066h-72.89c-2.488 0-4.533 0.8-6.134 2.4-1.599 1.6-2.399 3.645-2.399 6.133v72.891c0 2.133 0.355 4.325 1.067 6.576s1.956 4.148 3.733 5.691l96.534 96.532z"></path>
    </symbol>
    <symbol fill="currentColor" version="1.1" xmlns="http://www.w3.org/2000/svg" viewBox="0 0 512 512" id="shield_locked">
       
        <path d="M256 440.534c-40.888-12.8-74.933-38.045-102.133-75.733s-40.8-80.355-40.8-128v-110.933l142.933-53.334 142.933 53.334v116.266c-2.488-0.355-4.898-0.623-7.226-0.8-2.329-0.178-4.721-0.266-7.175-0.266h-0.533v-105.067l-128-47.466-128 47.466v100.8c0 43.022 12.089 82.133 36.267 117.334s54.755 58.666 91.733 70.4c3.794-1.106 7.499-2.449 11.114-4.031 3.613-1.579 7.197-3.258 10.752-5.034v16.532c-3.463 1.894-7.016 3.553-10.66 4.976-3.646 1.421-7.38 2.608-11.206 3.557zM346.132 441.6c-4.976 0-9.421-1.956-13.332-5.866-3.911-3.911-5.866-8.356-5.866-13.334v-56.534c0-4.978 1.954-9.245 5.866-12.8s8.356-5.334 13.332-5.334h2.135v-21.334c0-10.312 3.466-18.934 10.399-25.866 6.934-6.934 15.556-10.401 25.866-10.401 10.312 0 18.934 3.466 25.868 10.401 6.933 6.933 10.399 15.555 10.399 25.866v21.334h2.134c5.125 0 9.518 1.779 13.179 5.334 3.659 3.555 5.488 7.822 5.488 12.8v56.534c0 4.978-1.829 9.423-5.488 13.334-3.661 3.91-8.054 5.866-13.179 5.866h-76.8zM363.199 347.733h42.666v-21.334c0-6.045-2.043-11.111-6.132-15.2s-9.156-6.134-15.202-6.134c-6.043 0-11.111 2.045-15.2 6.134s-6.134 9.154-6.134 15.2v21.334z"></path>
    </symbol>
    <symbol fill="currentColor" version="1.1" xmlns="http://www.w3.org/2000/svg" viewBox="0 0 512 512" id="clinical_notes">
        <path d="M330.933 317.066c-8.711-8.711-13.066-19.288-13.066-31.734 0-12.443 4.356-23.021 13.066-31.732s19.288-13.068 31.734-13.068c12.445 0 23.023 4.357 31.734 13.068s13.066 19.289 13.066 31.732c0 12.445-4.356 23.023-13.066 31.734s-19.288 13.066-31.734 13.066c-12.445 0-23.023-4.356-31.734-13.066zM385.333 308c6.223-6.223 9.334-13.778 9.334-22.668 0-8.889-3.111-16.443-9.334-22.666s-13.778-9.334-22.666-9.334c-8.889 0-16.443 3.111-22.666 9.334s-9.334 13.778-9.334 22.666c0 8.89 3.111 16.445 9.334 22.668s13.778 9.332 22.666 9.332c8.889 0 16.443-3.11 22.666-9.332zM253.867 449.067v-42.666c0-4.113 0.983-7.981 2.949-11.6 1.962-3.623 4.714-6.512 8.25-8.666 9.192-5.435 18.838-10.022 28.94-13.754 10.105-3.734 20.369-6.615 30.793-8.646l37.868 50.666 37.334-50.666c10.599 2.031 20.958 4.912 31.077 8.646 10.12 3.733 19.85 8.318 29.191 13.754 3.555 2.134 6.221 4.978 7.999 8.534s2.845 7.289 3.2 11.199v43.201h-217.6zM266.132 436.267h96.71l-43.199-57.6c-9.59 2.353-18.803 5.284-27.638 8.789-8.832 3.502-17.456 7.564-25.873 12.188v36.623zM362.842 436.267h95.824v-36.623c-8.416-4.623-17.101-8.593-26.054-11.911-8.952-3.316-18.104-6.161-27.455-8.531l-42.315 57.066zM121.856 420.267c-8.288 0-15.382-2.971-21.28-8.912-5.895-5.941-8.843-12.926-8.843-20.954v-268.8c0-8.028 2.971-15.013 8.912-20.954s12.926-8.912 20.954-8.912h268.8c8.028 0 15.014 2.971 20.954 8.912s8.912 12.926 8.912 20.954v75.376c-2.015-1.54-4.060-2.932-6.134-4.176-2.072-1.244-4.294-2.637-6.666-4.176v-67.024c0-4.978-1.601-9.067-4.799-12.267-3.202-3.2-7.289-4.8-12.267-4.8h-268.8c-4.978 0-9.067 1.6-12.267 4.8s-4.8 7.289-4.8 12.267v268.8c0 4.978 1.6 9.066 4.8 12.267 3.2 3.199 7.289 4.799 12.267 4.799h69.69c0.236-0.239 0.413-0.356 0.534-0.356 0.118 0 0.176-0.237 0.176-0.71v13.866h-70.144zM163.2 182.4h167.466c3.2-0.594 6.259-1.008 9.173-1.243 2.915-0.239 5.901-0.714 8.96-1.425v-10.132h-185.6v12.8zM163.2 262.4h95.466c0.712-2.373 1.343-4.58 1.894-6.629s1.106-4.106 1.664-6.172h-99.024v12.8zM163.2 342.4h57.6c4.028-3.082 8.088-6.016 12.175-8.8 4.089-2.786 8.445-5.185 13.068-7.2v3.2h-82.844v12.8zM104.534 407.466v0z"></path>
    </symbol>
    <symbol version="1.1" xmlns="http://www.w3.org/2000/svg" viewBox="0 0 512 512" id="check">
        <path fill="none" stroke-linejoin="miter" stroke-linecap="butt" stroke-miterlimit="4" stroke-width="25.6" stroke="currentColor" d="M120.6 258.852l95.373 97.884 183.216-188.236"></path>
    </symbol>
</svg>