<svg width="140" height="64" viewBox="0 0 140 64" fill="none" xmlns="http://www.w3.org/2000/svg">
<g clip-path="url(#clip0_160_98658)">
<path d="M117.608 26.1241C119.668 26.1241 121.127 25.7562 122.214 24.9637V21.3694C121.098 22.1336 119.753 22.6147 117.865 22.6147C114.689 22.6147 113.373 20.1807 113.373 16.3317C113.373 12.2845 114.975 10.2185 117.894 10.2185C119.61 10.2185 121.298 10.8128 122.185 11.3788V7.64298C121.241 7.13355 119.61 6.76562 117.379 6.76562C111.685 6.76562 108.738 10.8128 108.738 16.4732C108.767 22.6713 111.657 26.1241 117.608 26.1241ZM89.7698 24.4826V20.8883C88.3965 21.8222 86.0504 22.643 83.9046 22.643C80.6431 22.643 79.4128 21.1147 79.2125 18.0015H89.97V15.6807C89.97 9.19959 87.0804 6.76562 82.6458 6.76562C77.2098 6.76562 74.6349 10.8694 74.6349 16.5015C74.6349 22.9826 77.8679 26.1241 83.5327 26.1241C86.3651 26.1241 88.4537 25.36 89.7698 24.4826ZM48.9428 7.10525V14.4637H42.9918V7.10525H38.5286V25.7562H42.9918V17.9732H48.9428V25.7562H53.406V7.10525H48.9428ZM73.5191 22.2468H71.545V7.10525H58.5559V8.69015C58.5559 13.2468 58.2698 19.1335 56.6962 22.2468H55.2657V30.0015H59.3856V25.7562H69.3706V30.0015H73.4905V22.2468H73.5191ZM103.989 25.7562H109.053L101.901 15.709L108.195 7.10525H103.703L97.4087 15.709V7.10525H92.9455V25.7562H97.4087V16.5864L103.989 25.7562ZM82.5314 10.2185C84.7343 10.2185 85.421 12.0298 85.421 14.3788V14.7468H79.2125C79.327 11.7751 80.4142 10.2185 82.5314 10.2185ZM67.0818 22.2468H60.7875C62.0177 19.4449 62.3611 14.3505 62.3611 11.1241V10.5581H67.0818V22.2468Z" fill="black"/>
<path d="M34.8093 25.7547H30.2602V3.48113H28.2289C24.5095 3.48113 22.564 5.32075 22.564 8.06604C22.564 11.1792 23.9087 12.6226 26.6839 14.4623L28.9728 15.9906L22.3924 25.7547H17.5L23.4223 17.0377C20.0177 14.6321 18.1008 12.283 18.1008 8.32075C18.1008 3.36792 21.5913 0 28.2003 0H34.7807V25.7547H34.8093Z" fill="#FC3F1D"/>
</g>
<path d="M11.525 42.2949C11.5689 42.2064 11.6366 42.1318 11.7205 42.0797C11.8044 42.0276 11.9012 42 12 42C12.0988 42 12.1956 42.0276 12.2796 42.0797C12.3635 42.1318 12.4312 42.2064 12.475 42.2949L14.785 46.9739C14.9372 47.2819 15.1618 47.5483 15.4397 47.7503C15.7175 47.9524 16.0402 48.084 16.38 48.1339L21.546 48.8899C21.6439 48.9041 21.7359 48.9454 21.8115 49.0091C21.8872 49.0728 21.9435 49.1564 21.974 49.2505C22.0046 49.3446 22.0083 49.4453 21.9846 49.5413C21.9609 49.6374 21.9108 49.7248 21.84 49.7939L18.104 53.4319C17.8576 53.672 17.6733 53.9684 17.5669 54.2955C17.4604 54.6227 17.4351 54.9708 17.493 55.3099L18.375 60.4499C18.3923 60.5477 18.3817 60.6485 18.3445 60.7406C18.3073 60.8327 18.245 60.9125 18.1646 60.9709C18.0842 61.0293 17.989 61.0639 17.8899 61.0708C17.7908 61.0777 17.6917 61.0566 17.604 61.0099L12.986 58.5819C12.6817 58.4221 12.3432 58.3386 11.9995 58.3386C11.6559 58.3386 11.3173 58.4221 11.013 58.5819L6.39603 61.0099C6.30836 61.0563 6.20943 61.0772 6.11048 61.0701C6.01153 61.0631 5.91655 61.0285 5.83632 60.9701C5.7561 60.9118 5.69386 60.8321 5.65669 60.7401C5.61951 60.6482 5.60889 60.5476 5.62603 60.4499L6.50703 55.3109C6.56523 54.9716 6.54001 54.6233 6.43357 54.2959C6.32712 53.9686 6.14264 53.672 5.89603 53.4319L2.16003 49.7949C2.08862 49.7259 2.03802 49.6383 2.01399 49.542C1.98996 49.4456 1.99347 49.3445 2.02411 49.2501C2.05475 49.1557 2.1113 49.0717 2.18731 49.0079C2.26332 48.944 2.35573 48.9028 2.45403 48.8889L7.61903 48.1339C7.95929 48.0844 8.28242 47.953 8.56061 47.7509C8.83881 47.5488 9.06373 47.2822 9.21603 46.9739L11.525 42.2949Z" fill="#F4D246" stroke="#F4D246" stroke-width="2" stroke-linecap="round" stroke-linejoin="round"/>
<path d="M40.525 42.2949C40.5688 42.2064 40.6365 42.1318 40.7205 42.0797C40.8044 42.0276 40.9012 42 41 42C41.0988 42 41.1956 42.0276 41.2795 42.0797C41.3635 42.1318 41.4312 42.2064 41.475 42.2949L43.785 46.9739C43.9372 47.2819 44.1618 47.5483 44.4396 47.7503C44.7174 47.9524 45.0401 48.084 45.38 48.1339L50.546 48.8899C50.6439 48.9041 50.7358 48.9454 50.8115 49.0091C50.8871 49.0728 50.9434 49.1564 50.974 49.2505C51.0046 49.3446 51.0083 49.4453 50.9846 49.5413C50.9609 49.6374 50.9108 49.7248 50.84 49.7939L47.104 53.4319C46.8576 53.672 46.6733 53.9684 46.5668 54.2955C46.4604 54.6227 46.4351 54.9708 46.493 55.3099L47.375 60.4499C47.3923 60.5477 47.3817 60.6485 47.3445 60.7406C47.3073 60.8327 47.2449 60.9125 47.1645 60.9709C47.0842 61.0293 46.989 61.0639 46.8899 61.0708C46.7908 61.0777 46.6917 61.0566 46.604 61.0099L41.986 58.5819C41.6817 58.4221 41.3432 58.3386 40.9995 58.3386C40.6558 58.3386 40.3173 58.4221 40.013 58.5819L35.396 61.0099C35.3083 61.0563 35.2094 61.0772 35.1105 61.0701C35.0115 61.0631 34.9165 61.0285 34.8363 60.9701C34.7561 60.9118 34.6938 60.8321 34.6567 60.7401C34.6195 60.6482 34.6089 60.5476 34.626 60.4499L35.507 55.3109C35.5652 54.9716 35.54 54.6233 35.4335 54.2959C35.3271 53.9686 35.1426 53.672 34.896 53.4319L31.16 49.7949C31.0886 49.7259 31.038 49.6383 31.014 49.542C30.9899 49.4456 30.9934 49.3445 31.0241 49.2501C31.0547 49.1557 31.1113 49.0717 31.1873 49.0079C31.2633 48.944 31.3557 48.9028 31.454 48.8889L36.619 48.1339C36.9593 48.0844 37.2824 47.953 37.5606 47.7509C37.8388 47.5488 38.0637 47.2822 38.216 46.9739L40.525 42.2949Z" fill="#F4D246" stroke="#F4D246" stroke-width="2" stroke-linecap="round" stroke-linejoin="round"/>
<path d="M69.525 42.2949C69.5688 42.2064 69.6365 42.1318 69.7205 42.0797C69.8044 42.0276 69.9012 42 70 42C70.0988 42 70.1956 42.0276 70.2795 42.0797C70.3635 42.1318 70.4312 42.2064 70.475 42.2949L72.785 46.9739C72.9372 47.2819 73.1618 47.5483 73.4396 47.7503C73.7174 47.9524 74.0401 48.084 74.38 48.1339L79.546 48.8899C79.6439 48.9041 79.7358 48.9454 79.8115 49.0091C79.8871 49.0728 79.9434 49.1564 79.974 49.2505C80.0046 49.3446 80.0083 49.4453 79.9846 49.5413C79.9609 49.6374 79.9108 49.7248 79.84 49.7939L76.104 53.4319C75.8576 53.672 75.6733 53.9684 75.5668 54.2955C75.4604 54.6227 75.4351 54.9708 75.493 55.3099L76.375 60.4499C76.3923 60.5477 76.3817 60.6485 76.3445 60.7406C76.3073 60.8327 76.2449 60.9125 76.1645 60.9709C76.0842 61.0293 75.989 61.0639 75.8899 61.0708C75.7908 61.0777 75.6917 61.0566 75.604 61.0099L70.986 58.5819C70.6817 58.4221 70.3432 58.3386 69.9995 58.3386C69.6558 58.3386 69.3173 58.4221 69.013 58.5819L64.396 61.0099C64.3083 61.0563 64.2094 61.0772 64.1105 61.0701C64.0115 61.0631 63.9165 61.0285 63.8363 60.9701C63.7561 60.9118 63.6938 60.8321 63.6567 60.7401C63.6195 60.6482 63.6089 60.5476 63.626 60.4499L64.507 55.3109C64.5652 54.9716 64.54 54.6233 64.4335 54.2959C64.3271 53.9686 64.1426 53.672 63.896 53.4319L60.16 49.7949C60.0886 49.7259 60.038 49.6383 60.014 49.542C59.9899 49.4456 59.9934 49.3445 60.0241 49.2501C60.0547 49.1557 60.1113 49.0717 60.1873 49.0079C60.2633 48.944 60.3557 48.9028 60.454 48.8889L65.619 48.1339C65.9593 48.0844 66.2824 47.953 66.5606 47.7509C66.8388 47.5488 67.0637 47.2822 67.216 46.9739L69.525 42.2949Z" fill="#F4D246" stroke="#F4D246" stroke-width="2" stroke-linecap="round" stroke-linejoin="round"/>
<path d="M98.525 42.2949C98.5688 42.2064 98.6365 42.1318 98.7205 42.0797C98.8044 42.0276 98.9012 42 99 42C99.0988 42 99.1956 42.0276 99.2795 42.0797C99.3635 42.1318 99.4312 42.2064 99.475 42.2949L101.785 46.9739C101.937 47.2819 102.162 47.5483 102.44 47.7503C102.717 47.9524 103.04 48.084 103.38 48.1339L108.546 48.8899C108.644 48.9041 108.736 48.9454 108.811 49.0091C108.887 49.0728 108.943 49.1564 108.974 49.2505C109.005 49.3446 109.008 49.4453 108.985 49.5413C108.961 49.6374 108.911 49.7248 108.84 49.7939L105.104 53.4319C104.858 53.672 104.673 53.9684 104.567 54.2955C104.46 54.6227 104.435 54.9708 104.493 55.3099L105.375 60.4499C105.392 60.5477 105.382 60.6485 105.344 60.7406C105.307 60.8327 105.245 60.9125 105.165 60.9709C105.084 61.0293 104.989 61.0639 104.89 61.0708C104.791 61.0777 104.692 61.0566 104.604 61.0099L99.986 58.5819C99.6817 58.4221 99.3432 58.3386 98.9995 58.3386C98.6558 58.3386 98.3173 58.4221 98.013 58.5819L93.396 61.0099C93.3083 61.0563 93.2094 61.0772 93.1105 61.0701C93.0115 61.0631 92.9165 61.0285 92.8363 60.9701C92.7561 60.9118 92.6938 60.8321 92.6567 60.7401C92.6195 60.6482 92.6089 60.5476 92.626 60.4499L93.507 55.3109C93.5652 54.9716 93.54 54.6233 93.4335 54.2959C93.3271 53.9686 93.1426 53.672 92.896 53.4319L89.16 49.7949C89.0886 49.7259 89.038 49.6383 89.014 49.542C88.9899 49.4456 88.9934 49.3445 89.0241 49.2501C89.0547 49.1557 89.1113 49.0717 89.1873 49.0079C89.2633 48.944 89.3557 48.9028 89.454 48.8889L94.619 48.1339C94.9593 48.0844 95.2824 47.953 95.5606 47.7509C95.8388 47.5488 96.0637 47.2822 96.216 46.9739L98.525 42.2949Z" fill="#F4D246" stroke="#F4D246" stroke-width="2" stroke-linecap="round" stroke-linejoin="round"/>
<path d="M127.525 42.2949C127.569 42.2064 127.637 42.1318 127.72 42.0797C127.804 42.0276 127.901 42 128 42C128.099 42 128.196 42.0276 128.28 42.0797C128.363 42.1318 128.431 42.2064 128.475 42.2949L130.785 46.9739C130.937 47.2819 131.162 47.5483 131.44 47.7503C131.717 47.9524 132.04 48.084 132.38 48.1339L137.546 48.8899C137.644 48.9041 137.736 48.9454 137.811 49.0091C137.887 49.0728 137.943 49.1564 137.974 49.2505C138.005 49.3446 138.008 49.4453 137.985 49.5413C137.961 49.6374 137.911 49.7248 137.84 49.7939L134.104 53.4319C133.858 53.672 133.673 53.9684 133.567 54.2955C133.46 54.6227 133.435 54.9708 133.493 55.3099L134.375 60.4499C134.392 60.5477 134.382 60.6485 134.344 60.7406C134.307 60.8327 134.245 60.9125 134.165 60.9709C134.084 61.0293 133.989 61.0639 133.89 61.0708C133.791 61.0777 133.692 61.0566 133.604 61.0099L128.986 58.5819C128.682 58.4221 128.343 58.3386 127.999 58.3386C127.656 58.3386 127.317 58.4221 127.013 58.5819L122.396 61.0099C122.308 61.0563 122.209 61.0772 122.11 61.0701C122.012 61.0631 121.917 61.0285 121.836 60.9701C121.756 60.9118 121.694 60.8321 121.657 60.7401C121.619 60.6482 121.609 60.5476 121.626 60.4499L122.507 55.3109C122.565 54.9716 122.54 54.6233 122.434 54.2959C122.327 53.9686 122.143 53.672 121.896 53.4319L118.16 49.7949C118.089 49.7259 118.038 49.6383 118.014 49.542C117.99 49.4456 117.993 49.3445 118.024 49.2501C118.055 49.1557 118.111 49.0717 118.187 49.0079C118.263 48.944 118.356 48.9028 118.454 48.8889L123.619 48.1339C123.959 48.0844 124.282 47.953 124.561 47.7509C124.839 47.5488 125.064 47.2822 125.216 46.9739L127.525 42.2949Z" fill="#F4D246" stroke="#F4D246" stroke-width="2" stroke-linecap="round" stroke-linejoin="round"/>
<defs>
<clipPath id="clip0_160_98658">
<rect width="105" height="30" fill="white" transform="translate(17.5)"/>
</clipPath>
</defs>
</svg>
