<svg width="147" height="468" viewBox="0 0 147 468" fill="none" xmlns="http://www.w3.org/2000/svg">
<path d="M65.197 269.213C66.7318 269.213 67.9753 267.969 67.9753 266.434C67.9753 264.899 66.7318 263.655 65.197 263.655C63.6622 263.655 62.4186 264.899 62.4186 266.434C62.4186 267.969 63.6622 269.213 65.197 269.213Z" fill="white"/>
<path d="M65.197 281.024C66.7318 281.024 67.9753 279.78 67.9753 278.245C67.9753 276.71 66.7318 275.466 65.197 275.466C63.6622 275.466 62.4186 276.71 62.4186 278.245C62.4186 279.78 63.6622 281.024 65.197 281.024Z" fill="white"/>
<path d="M65.197 292.835C66.7318 292.835 67.9753 291.591 67.9753 290.056C67.9753 288.521 66.7318 287.277 65.197 287.277C63.6622 287.277 62.4186 288.521 62.4186 290.056C62.4186 291.591 63.6622 292.835 65.197 292.835Z" fill="white"/>
<path d="M65.197 304.646C66.7318 304.646 67.9753 303.402 67.9753 301.868C67.9753 300.333 66.7318 299.089 65.197 299.089C63.6622 299.089 62.4186 300.333 62.4186 301.868C62.4186 303.402 63.6622 304.646 65.197 304.646Z" fill="white"/>
<path d="M65.197 257.402C66.7318 257.402 67.9753 256.158 67.9753 254.623C67.9753 253.088 66.7318 251.844 65.197 251.844C63.6622 251.844 62.4186 253.088 62.4186 254.623C62.4186 256.158 63.6622 257.402 65.197 257.402Z" fill="white"/>
<path d="M129.133 171.107L125.918 174.322L133.244 181.649L125.918 188.975L129.133 192.191L136.459 184.864L143.785 192.191L147 188.975L139.674 181.649L147 174.322L143.785 171.107L136.459 178.433L129.133 171.107Z" fill="white"/>
<path d="M129.133 197.02L125.918 200.235L133.244 207.562L125.918 214.888L129.133 218.104L136.459 210.777L143.785 218.104L147 214.888L139.674 207.562L147 200.235L143.785 197.02L136.459 204.346L129.133 197.02Z" fill="white"/>
<path d="M100.55 303.929L100.55 175.683L87.4329 175.683L87.4329 303.929L100.55 303.929ZM101.982 174.25L101.982 305.362L86.0016 305.362L86.0016 174.25L101.982 174.25Z" fill="#E2051B"/>
<path d="M86.0007 174.25L86.0007 1.433L34.3898 1.433L34.3898 174.25L86.0007 174.25ZM87.4329 0.000595093L87.4329 175.683L32.9584 175.683L32.9584 0.000597474L87.4329 0.000595093Z" fill="#E2051B"/>
<path d="M132.485 467.861L132.485 387.225L118.846 387.225L118.846 467.861L132.485 467.861Z" fill="white"/>
<path d="M140.973 387.225L140.973 235.956L132.485 235.956L132.485 387.225L140.973 387.225Z" fill="white"/>
<path d="M56.1038 95.7146L56.1038 138.682" stroke="white" stroke-width="2.16084" stroke-miterlimit="10"/>
<path d="M52.9211 95.7146L52.9211 138.682" stroke="white" stroke-width="2.16084" stroke-miterlimit="10"/>
<path d="M48.943 95.7146L48.943 138.682" stroke="white" stroke-width="4.32167" stroke-miterlimit="10"/>
<path d="M42.5778 95.7146L42.5778 138.682" stroke="white" stroke-width="7.56293" stroke-miterlimit="10"/>
<path d="M36.2128 95.7146L36.2128 138.682" stroke="white" stroke-width="2.16084" stroke-miterlimit="10"/>
<path d="M29.0519 95.7146L29.0519 138.682" stroke="white" stroke-width="3.24126" stroke-miterlimit="10"/>
<path d="M21.8911 95.7146L21.8911 138.682" stroke="white" stroke-width="5.40209" stroke-miterlimit="10"/>
<path d="M17.1173 95.7146L17.1173 138.682" stroke="white" stroke-width="3.24126" stroke-miterlimit="10"/>
<path d="M13.5369 95.7146L13.5369 138.682L11.1499 138.682L11.1499 95.7146L13.5369 95.7146Z" fill="white"/>
<path d="M6.7738 95.7146L6.7738 138.682" stroke="white" stroke-width="5.40209" stroke-miterlimit="10"/>
<path d="M2 95.7146L2 138.682" stroke="white" stroke-width="3.24126" stroke-miterlimit="10"/>
</svg>
