<svg width="376" height="78" viewBox="0 0 376 78" fill="none" xmlns="http://www.w3.org/2000/svg">
<path d="M136.151 48.9012L108.397 78H112.674L139.456 49.9214V48.9012H136.151ZM126.455 48.9012L98.7004 78H102.978L130.733 48.9012H126.455ZM116.759 48.9012L89.0041 78H93.2817L121.036 48.9012H116.759ZM107.062 48.9012L79.3078 78H83.5855L111.34 48.9012H107.062ZM97.3654 48.9012L69.6108 78H73.8892L101.644 48.9012H97.3654ZM87.6691 48.9012L59.9145 78H64.1921L91.9467 48.9012H87.6691ZM77.9729 48.9012L50.2183 78H54.4959L82.2505 48.9012H77.9729ZM68.2766 48.9012L40.522 78H44.7996L72.5542 48.9012H68.2766ZM58.5803 48.9012L30.8257 78H35.1033L62.8579 48.9012H58.5803ZM48.8833 48.9012L21.1294 78H25.407L53.1616 48.9012H48.8833ZM39.187 48.9012L11.4332 78H15.7108L43.4646 48.9012H39.187ZM29.4915 48.9012L1.7369 78H6.01374L33.7683 48.9012H29.4915ZM19.7944 48.9012L0 69.6555V74.1396L24.0728 48.9012H19.7944ZM10.0982 48.9012L0 59.4894V63.9743L14.3758 48.9012H10.0982ZM0.401907 48.9012L0 49.3233V53.8083L4.6795 48.9012H0.401907ZM118.094 78H122.371L139.456 60.0875V55.6033L118.094 78ZM127.789 78H132.068L139.456 70.2543V65.7686L127.789 78ZM137.485 78H139.456V75.9347L137.485 78Z" fill="white"/>
<path d="M183.431 48.9016L195.26 36.4989H190.983L179.153 48.9016H183.431ZM173.735 48.9016L185.564 36.4989H181.287L169.457 48.9016H173.735ZM193.127 48.9016L204.957 36.4989H200.68L188.849 48.9016H193.127ZM154.342 48.9016L166.172 36.4989H161.894L150.064 48.9016H154.342ZM144.646 48.9016L156.475 36.4989H152.197L140.367 48.9016H144.646ZM202.823 48.9016L214.653 36.4989H210.376L198.546 48.9016H202.823ZM164.038 48.9016L175.868 36.4989H171.59L159.761 48.9016H164.038ZM142.501 36.4989L139.456 39.6919V44.176L146.778 36.4989H142.501ZM270.698 48.9016L278.764 40.4457V36.4989H278.251L266.421 48.9016H270.698ZM276.117 48.9016H278.764V46.1269L276.117 48.9016ZM261.002 48.9016L272.832 36.4989H268.555L256.725 48.9016H261.002ZM251.305 48.9016L263.136 36.4989H258.857L247.028 48.9016H251.305ZM212.52 48.9016L224.35 36.4989H220.072L208.242 48.9016H212.52ZM222.217 48.9016L234.046 36.4989H229.769L217.939 48.9016H222.217ZM231.913 48.9016L243.743 36.4989H239.465L227.635 48.9016H231.913ZM237.332 48.9016L249.161 36.4989H253.439L241.609 48.9016H237.332Z" fill="white"/>
<path d="M278.764 48.9013V48.909L278.771 48.9013H278.764ZM284.359 63.3755L298.164 48.9013H293.887L280.081 63.3755H284.359ZM284.19 48.9013L278.764 54.591V59.0751L288.467 48.9013H284.19ZM294.055 63.3755L307.861 48.9013H303.583L289.778 63.3755H294.055ZM316.778 55.3993L309.171 63.3755H313.448L316.778 59.8843V55.3993ZM299.474 63.3755L313.279 48.9013H316.778V49.7182L303.751 63.3755H299.474Z" fill="white"/>
<path d="M163.253 3.4734C163.253 4.97565 164.471 6.19287 165.973 6.19287C167.476 6.19287 168.693 4.97565 168.693 3.4734C168.693 1.97115 167.476 0.753935 165.973 0.753935C164.471 0.753935 163.253 1.97115 163.253 3.4734Z" fill="white"/>
<path d="M151.693 3.4734C151.693 4.97565 152.91 6.19287 154.413 6.19287C155.915 6.19287 157.133 4.97565 157.133 3.4734C157.133 1.97115 155.915 0.753935 154.413 0.753935C152.91 0.753935 151.693 1.97115 151.693 3.4734Z" fill="white"/>
<path d="M140.132 3.4734C140.132 4.97565 141.35 6.19287 142.852 6.19287C144.354 6.19287 145.572 4.97565 145.572 3.4734C145.572 1.97115 144.354 0.753935 142.852 0.753935C141.35 0.753935 140.132 1.97115 140.132 3.4734Z" fill="white"/>
<path d="M128.572 3.4734C128.572 4.97565 129.789 6.19287 131.292 6.19287C132.794 6.19287 134.011 4.97565 134.011 3.4734C134.011 1.97115 132.794 0.753935 131.292 0.753935C129.789 0.753935 128.572 1.97115 128.572 3.4734Z" fill="white"/>
<path d="M117.011 3.4734C117.011 4.97565 118.228 6.19287 119.731 6.19287C121.233 6.19287 122.45 4.97565 122.45 3.4734C122.45 1.97115 121.233 0.753935 119.731 0.753935C118.228 0.753935 117.011 1.97115 117.011 3.4734Z" fill="white"/>
<path d="M105.451 3.4734C105.451 4.97565 106.668 6.19287 108.171 6.19287C109.672 6.19287 110.89 4.97565 110.89 3.4734C110.89 1.97115 109.672 0.753935 108.171 0.753935C106.668 0.753935 105.451 1.97115 105.451 3.4734Z" fill="white"/>
<path d="M93.8896 3.4734C93.8896 4.97565 95.107 6.19287 96.6095 6.19287C98.1112 6.19287 99.3293 4.97565 99.3293 3.4734C99.3293 1.97115 98.1112 0.753935 96.6095 0.753935C95.107 0.753935 93.8896 1.97115 93.8896 3.4734Z" fill="white"/>
<path d="M174.814 3.4734C174.814 4.97565 176.032 6.19287 177.534 6.19287C179.037 6.19287 180.254 4.97565 180.254 3.4734C180.254 1.97115 179.037 0.753935 177.534 0.753935C176.032 0.753935 174.814 1.97115 174.814 3.4734Z" fill="white"/>
<path d="M82.3291 3.4734C82.3291 4.97565 83.5465 6.19287 85.0489 6.19287C86.5514 6.19287 87.7688 4.97565 87.7688 3.4734C87.7688 1.97115 86.5514 0.753935 85.0489 0.753935C83.5465 0.753935 82.3291 1.97115 82.3291 3.4734Z" fill="white"/>
<path d="M372.378 53.365C373.881 53.365 375.098 52.1478 375.098 50.6455C375.098 49.1433 373.881 47.9261 372.378 47.9261C370.876 47.9261 369.658 49.1433 369.658 50.6455C369.658 52.1478 370.876 53.365 372.378 53.365Z" fill="white"/>
<path d="M372.378 64.9238C373.881 64.9238 375.098 63.7066 375.098 62.2044C375.098 60.7021 373.881 59.4849 372.378 59.4849C370.876 59.4849 369.658 60.7021 369.658 62.2044C369.658 63.7066 370.876 64.9238 372.378 64.9238Z" fill="white"/>
<path d="M372.378 76.4822C373.881 76.4822 375.098 75.265 375.098 73.7635C375.098 72.2612 373.881 71.044 372.378 71.044C370.876 71.044 369.658 72.2612 369.658 73.7635C369.658 75.265 370.876 76.4822 372.378 76.4822Z" fill="white"/>
<path d="M372.378 41.8057C373.881 41.8057 375.098 40.5884 375.098 39.0862C375.098 37.5839 373.881 36.3667 372.378 36.3667C370.876 36.3667 369.658 37.5839 369.658 39.0862C369.658 40.5884 370.876 41.8057 372.378 41.8057Z" fill="white"/>
<path d="M46.9956 3.14698L43.8481 -3.43323e-05L36.677 7.17011L29.5051 -3.43323e-05L26.3584 3.14698L33.5295 10.3171L26.3584 17.4873L29.5051 20.6343L36.677 13.4641L43.8481 20.6343L46.9956 17.4873L39.8237 10.3171L46.9956 3.14698Z" fill="white"/>
</svg>
