<svg width="727" height="485" viewBox="0 0 727 485" fill="none" xmlns="http://www.w3.org/2000/svg">
<path d="M448.151 455.901L420.397 485H424.674L451.456 456.921V455.901H448.151ZM438.455 455.901L410.7 485H414.978L442.733 455.901H438.455ZM428.759 455.901L401.004 485H405.282L433.036 455.901H428.759ZM419.062 455.901L391.308 485H395.585L423.34 455.901H419.062ZM409.365 455.901L381.611 485H385.889L413.644 455.901H409.365ZM399.669 455.901L371.915 485H376.192L403.947 455.901H399.669ZM389.973 455.901L362.218 485H366.496L394.25 455.901H389.973ZM380.277 455.901L352.522 485H356.8L384.554 455.901H380.277ZM370.58 455.901L342.826 485H347.103L374.858 455.901H370.58ZM360.883 455.901L333.129 485H337.407L365.162 455.901H360.883ZM351.187 455.901L323.433 485H327.711L355.465 455.901H351.187ZM341.491 455.901L313.737 485H318.014L345.768 455.901H341.491ZM331.794 455.901L312 476.655V481.14L336.073 455.901H331.794ZM322.098 455.901L312 466.489V470.974L326.376 455.901H322.098ZM312.402 455.901L312 456.323V460.808L316.68 455.901H312.402ZM430.094 485H434.371L451.456 467.087V462.603L430.094 485ZM439.789 485H444.068L451.456 477.254V472.769L439.789 485ZM449.485 485H451.456V482.935L449.485 485Z" fill="white"/>
<path d="M495.431 455.902L507.26 443.499H502.983L491.153 455.902H495.431ZM485.735 455.902L497.564 443.499H493.287L481.457 455.902H485.735ZM505.127 455.902L516.957 443.499H512.68L500.849 455.902H505.127ZM466.342 455.902L478.172 443.499H473.894L462.064 455.902H466.342ZM456.646 455.902L468.475 443.499H464.197L452.367 455.902H456.646ZM514.823 455.902L526.653 443.499H522.376L510.546 455.902H514.823ZM476.038 455.902L487.868 443.499H483.59L471.761 455.902H476.038ZM454.501 443.499L451.456 446.692V451.176L458.778 443.499H454.501ZM582.698 455.902L590.764 447.446V443.499H590.251L578.421 455.902H582.698ZM588.117 455.902H590.764V453.127L588.117 455.902ZM573.002 455.902L584.832 443.499H580.555L568.725 455.902H573.002ZM563.305 455.902L575.136 443.499H570.857L559.028 455.902H563.305ZM524.52 455.902L536.35 443.499H532.072L520.242 455.902H524.52ZM534.217 455.902L546.046 443.499H541.769L529.939 455.902H534.217ZM543.913 455.902L555.743 443.499H551.465L539.635 455.902H543.913ZM549.332 455.902L561.161 443.499H565.439L553.609 455.902H549.332Z" fill="white"/>
<path d="M590.764 455.901V455.909L590.771 455.901H590.764ZM596.359 470.375L610.164 455.901H605.887L592.081 470.375H596.359ZM596.19 455.901L590.764 461.591V466.075L600.467 455.901H596.19ZM606.055 470.375L619.861 455.901H615.583L601.778 470.375H606.055ZM628.778 462.399L621.171 470.375H625.448L628.778 466.884V462.399ZM611.474 470.375L625.279 455.901H628.778V456.718L615.751 470.375H611.474Z" fill="white"/>
<path d="M475.253 410.473C475.253 411.976 476.471 413.193 477.973 413.193C479.476 413.193 480.693 411.976 480.693 410.473C480.693 408.971 479.476 407.754 477.973 407.754C476.471 407.754 475.253 408.971 475.253 410.473Z" fill="white"/>
<path d="M463.693 410.473C463.693 411.976 464.91 413.193 466.413 413.193C467.915 413.193 469.133 411.976 469.133 410.473C469.133 408.971 467.915 407.754 466.413 407.754C464.91 407.754 463.693 408.971 463.693 410.473Z" fill="white"/>
<path d="M452.132 410.473C452.132 411.976 453.35 413.193 454.852 413.193C456.354 413.193 457.572 411.976 457.572 410.473C457.572 408.971 456.354 407.754 454.852 407.754C453.35 407.754 452.132 408.971 452.132 410.473Z" fill="white"/>
<path d="M440.572 410.473C440.572 411.976 441.789 413.193 443.292 413.193C444.794 413.193 446.011 411.976 446.011 410.473C446.011 408.971 444.794 407.754 443.292 407.754C441.789 407.754 440.572 408.971 440.572 410.473Z" fill="white"/>
<path d="M429.011 410.473C429.011 411.976 430.228 413.193 431.731 413.193C433.233 413.193 434.45 411.976 434.45 410.473C434.45 408.971 433.233 407.754 431.731 407.754C430.228 407.754 429.011 408.971 429.011 410.473Z" fill="white"/>
<path d="M417.451 410.473C417.451 411.976 418.668 413.193 420.171 413.193C421.672 413.193 422.89 411.976 422.89 410.473C422.89 408.971 421.672 407.754 420.171 407.754C418.668 407.754 417.451 408.971 417.451 410.473Z" fill="white"/>
<path d="M405.89 410.473C405.89 411.976 407.107 413.193 408.609 413.193C410.111 413.193 411.329 411.976 411.329 410.473C411.329 408.971 410.111 407.754 408.609 407.754C407.107 407.754 405.89 408.971 405.89 410.473Z" fill="white"/>
<path d="M486.814 410.473C486.814 411.976 488.032 413.193 489.534 413.193C491.037 413.193 492.254 411.976 492.254 410.473C492.254 408.971 491.037 407.754 489.534 407.754C488.032 407.754 486.814 408.971 486.814 410.473Z" fill="white"/>
<path d="M394.329 410.473C394.329 411.976 395.546 413.193 397.049 413.193C398.551 413.193 399.769 411.976 399.769 410.473C399.769 408.971 398.551 407.754 397.049 407.754C395.546 407.754 394.329 408.971 394.329 410.473Z" fill="white"/>
<path d="M684.378 460.365C685.881 460.365 687.098 459.148 687.098 457.646C687.098 456.143 685.881 454.926 684.378 454.926C682.876 454.926 681.658 456.143 681.658 457.646C681.658 459.148 682.876 460.365 684.378 460.365Z" fill="white"/>
<path d="M684.378 471.924C685.881 471.924 687.098 470.707 687.098 469.204C687.098 467.702 685.881 466.485 684.378 466.485C682.876 466.485 681.658 467.702 681.658 469.204C681.658 470.707 682.876 471.924 684.378 471.924Z" fill="white"/>
<path d="M684.378 483.482C685.881 483.482 687.098 482.265 687.098 480.763C687.098 479.261 685.881 478.044 684.378 478.044C682.876 478.044 681.658 479.261 681.658 480.763C681.658 482.265 682.876 483.482 684.378 483.482Z" fill="white"/>
<path d="M684.378 448.806C685.881 448.806 687.098 447.588 687.098 446.086C687.098 444.584 685.881 443.367 684.378 443.367C682.876 443.367 681.658 444.584 681.658 446.086C681.658 447.588 682.876 448.806 684.378 448.806Z" fill="white"/>
<path d="M358.996 410.147L355.848 407L348.677 414.17L341.505 407L338.358 410.147L345.53 417.317L338.358 424.487L341.505 427.634L348.677 420.464L355.848 427.634L358.996 424.487L351.824 417.317L358.996 410.147Z" fill="white"/>
<path d="M710.52 16.479H727V4.00543e-05H710.52V16.479Z" fill="white"/>
<path d="M710.52 65.6545H727V27.8906H710.52V65.6545Z" fill="white"/>
<path d="M710.52 202.061H727V76.2964H710.52V202.061Z" fill="white"/>
<path d="M662.55 65.6545H679.032V51.8079H662.55V65.6545Z" fill="white"/>
<path d="M662.55 95.407H679.032V78.928H662.55V95.407Z" fill="white"/>
<path d="M662.55 113.03H679.032V202.061H662.55V113.03Z" fill="white"/>
<path d="M642.064 42.7095H640.261V3.05758H642.064V42.7095Z" fill="#E2051B"/>
<path d="M638.458 42.7095H636.656V3.05758H638.458V42.7095Z" fill="#E2051B"/>
<path d="M632.6 42.7095H629.896V3.05758H632.6V42.7095Z" fill="#E2051B"/>
<path d="M625.389 42.7095H622.686V3.05758H625.389V42.7095Z" fill="#E2051B"/>
<path d="M616.376 42.7095H613.672V3.05758H616.376V42.7095Z" fill="#E2051B"/>
<path d="M612.321 42.7095H610.518V3.05758H612.321V42.7095Z" fill="#E2051B"/>
<path d="M558.243 42.7095H556.44V3.05758H558.243V42.7095Z" fill="#E2051B"/>
<path d="M554.637 42.7095H552.834V3.05758H554.637V42.7095Z" fill="#E2051B"/>
<path d="M550.131 42.7095H548.328V3.05758H550.131V42.7095Z" fill="#E2051B"/>
<path d="M537.512 42.7095H535.709V3.05758H537.512V42.7095Z" fill="#E2051B"/>
<path d="M506.868 42.7095H505.065V3.05758H506.868V42.7095Z" fill="#E2051B"/>
<path d="M461.803 42.7095H460V3.05758H461.803V42.7095Z" fill="#E2051B"/>
<path d="M465.408 42.7095H463.605V3.05758H465.408V42.7095Z" fill="#E2051B"/>
<path d="M486.138 42.7095H484.335V3.05758H486.138V42.7095Z" fill="#E2051B"/>
<path d="M605.561 42.7095H602.857V3.05758H605.561V42.7095Z" fill="#E2051B"/>
<path d="M600.604 42.7095H596.999V3.05758H600.604V42.7095Z" fill="#E2051B"/>
<path d="M594.295 42.7095H590.689V3.05758H594.295V42.7095Z" fill="#E2051B"/>
<path d="M586.633 42.7095H582.127V3.05758H586.633V42.7095Z" fill="#E2051B"/>
<path d="M578.972 42.7095H575.367V3.05758H578.972V42.7095Z" fill="#E2051B"/>
<path d="M573.565 42.7095H569.959V3.05758H573.565V42.7095Z" fill="#E2051B"/>
<path d="M565.453 42.7095H561.848V3.05758H565.453V42.7095Z" fill="#E2051B"/>
<path d="M546.075 42.7095H539.766V3.05758H546.075V42.7095Z" fill="#E2051B"/>
<path d="M533.457 42.7095H527.147V3.05758H533.457V42.7095Z" fill="#E2051B"/>
<path d="M524.443 42.7095H521.739V3.05758H524.443V42.7095Z" fill="#E2051B"/>
<path d="M512.726 42.7095H510.022V3.05758H512.726V42.7095Z" fill="#E2051B"/>
<path d="M493.799 42.7095H491.095V3.05758H493.799V42.7095Z" fill="#E2051B"/>
<path d="M471.717 42.7095H468.112V3.05758H471.717V42.7095Z" fill="#E2051B"/>
<path d="M519.486 42.7095H515.881V3.05758H519.486V42.7095Z" fill="#E2051B"/>
<path d="M502.812 42.7095H498.305V3.05758H502.812V42.7095Z" fill="#E2051B"/>
<path d="M480.279 42.7095H473.97V3.05758H480.279V42.7095Z" fill="#E2051B"/>
<path d="M168.966 282L166.081 284.886L172.656 291.461L166.081 298.035L168.966 300.921L175.541 294.346L182.115 300.921L185 298.035L178.425 291.461L185 284.886L182.115 282L175.541 288.575L168.966 282Z" fill="white"/>
<path d="M152.503 297.074L152.503 285.846L130.079 285.846L130.079 297.074L152.503 297.074ZM153.788 284.561L153.788 298.36L128.794 298.36L128.794 284.561L153.788 284.561Z" fill="white"/>
<path d="M108.734 297.074L108.734 285.846L89.9587 285.846L89.9587 297.074L108.734 297.074ZM110.018 284.561L110.018 298.36L88.6728 298.36L88.6728 284.561L110.018 284.561Z" fill="white"/>
<path d="M61.8354 297.074L61.8354 285.846L1.28531 285.846L1.28531 297.074L61.8354 297.074ZM63.1206 284.561L63.1206 298.36L9.91821e-05 298.36L9.85789e-05 284.561L63.1206 284.561Z" fill="white"/>
<path d="M106.897 332.803L106.897 321.575L1.28506 321.575L1.28506 332.803L106.897 332.803ZM108.182 320.289L108.182 334.088L-0.000152588 334.088L-0.000153191 320.289L108.182 320.289Z" fill="white"/>
</svg>
