<svg width="287" height="76" viewBox="0 0 287 76" fill="none" xmlns="http://www.w3.org/2000/svg">
<path d="M0 46.8459H124.774V12.2695H0V46.8459Z" fill="#E2051B"/>
<path d="M124.773 55.0789H206.012V46.8461H124.773V55.0789Z" fill="#E2051B"/>
<path d="M206.012 60.0183H286.427V55.0789H206.012V60.0183Z" fill="#E2051B"/>
<path d="M124.773 75.9341H135.203V65.5064H124.773V75.9341Z" fill="#E2051B"/>
<path d="M114.344 65.5066H124.773V55.0789H114.344V65.5066Z" fill="#E2051B"/>
<path d="M157.385 2.9109L154.474 -3.8147e-06L147.841 6.63291L141.207 -3.8147e-06L138.296 2.9109L144.93 9.54309L138.296 16.176L141.207 19.0862L147.841 12.454L154.474 19.0862L157.385 16.176L150.751 9.54309L157.385 2.9109Z" fill="#E2051B"/>
<path d="M190.883 2.9109L187.971 -3.8147e-06L181.338 6.63291L174.705 -3.8147e-06L171.794 2.9109L178.427 9.54309L171.794 16.176L174.705 19.0862L181.338 12.454L187.971 19.0862L190.883 16.176L184.25 9.54309L190.883 2.9109Z" fill="#E2051B"/>
<path d="M224.381 2.9109L221.47 -3.8147e-06L214.836 6.63291L208.203 -3.8147e-06L205.292 2.9109L211.925 9.54309L205.292 16.176L208.203 19.0862L214.836 12.454L221.47 19.0862L224.381 16.176L217.748 9.54309L224.381 2.9109Z" fill="#E2051B"/>
</svg>
