<svg width="210" height="203" viewBox="0 0 210 203" fill="none" xmlns="http://www.w3.org/2000/svg">
<path d="M202.55 65.6545H219.032V51.8079H202.55V65.6545Z" fill="white"/>
<path d="M202.55 95.407H219.032V78.928H202.55V95.407Z" fill="white"/>
<path d="M202.55 113.03H219.032V202.061H202.55V113.03Z" fill="white"/>
<path d="M182.064 42.7095H180.261V3.05758H182.064V42.7095Z" fill="#E2051B"/>
<path d="M178.458 42.7095H176.656V3.05758H178.458V42.7095Z" fill="#E2051B"/>
<path d="M172.6 42.7095H169.896V3.05758H172.6V42.7095Z" fill="#E2051B"/>
<path d="M165.389 42.7095H162.686V3.05758H165.389V42.7095Z" fill="#E2051B"/>
<path d="M156.376 42.7095H153.672V3.05758H156.376V42.7095Z" fill="#E2051B"/>
<path d="M152.321 42.7095H150.518V3.05758H152.321V42.7095Z" fill="#E2051B"/>
<path d="M98.2426 42.7095H96.4399V3.05758H98.2426V42.7095Z" fill="#E2051B"/>
<path d="M94.6371 42.7095H92.8345V3.05758H94.6371V42.7095Z" fill="#E2051B"/>
<path d="M90.1307 42.7095H88.3281V3.05758H90.1307V42.7095Z" fill="#E2051B"/>
<path d="M77.5121 42.7095H75.7095V3.05758H77.5121V42.7095Z" fill="#E2051B"/>
<path d="M46.868 42.7095H45.0654V3.05758H46.868V42.7095Z" fill="#E2051B"/>
<path d="M1.80261 42.7095H0V3.05758H1.80261V42.7095Z" fill="#E2051B"/>
<path d="M5.40808 42.7095H3.60547V3.05758H5.40808V42.7095Z" fill="#E2051B"/>
<path d="M26.1381 42.7095H24.3354V3.05758H26.1381V42.7095Z" fill="#E2051B"/>
<path d="M145.561 42.7095H142.857V3.05758H145.561V42.7095Z" fill="#E2051B"/>
<path d="M140.604 42.7095H136.999V3.05758H140.604V42.7095Z" fill="#E2051B"/>
<path d="M134.295 42.7095H130.689V3.05758H134.295V42.7095Z" fill="#E2051B"/>
<path d="M126.633 42.7095H122.127V3.05758H126.633V42.7095Z" fill="#E2051B"/>
<path d="M118.972 42.7095H115.367V3.05758H118.972V42.7095Z" fill="#E2051B"/>
<path d="M113.565 42.7095H109.959V3.05758H113.565V42.7095Z" fill="#E2051B"/>
<path d="M105.453 42.7095H101.848V3.05758H105.453V42.7095Z" fill="#E2051B"/>
<path d="M86.0748 42.7095H79.7656V3.05758H86.0748V42.7095Z" fill="#E2051B"/>
<path d="M73.4566 42.7095H67.1475V3.05758H73.4566V42.7095Z" fill="#E2051B"/>
<path d="M64.4432 42.7095H61.7393V3.05758H64.4432V42.7095Z" fill="#E2051B"/>
<path d="M52.7264 42.7095H50.0225V3.05758H52.7264V42.7095Z" fill="#E2051B"/>
<path d="M33.7991 42.7095H31.0952V3.05758H33.7991V42.7095Z" fill="#E2051B"/>
<path d="M11.717 42.7095H8.11182V3.05758H11.717V42.7095Z" fill="#E2051B"/>
<path d="M59.4861 42.7095H55.8809V3.05758H59.4861V42.7095Z" fill="#E2051B"/>
<path d="M42.8117 42.7095H38.3052V3.05758H42.8117V42.7095Z" fill="#E2051B"/>
<path d="M20.2794 42.7095H13.9702V3.05758H20.2794V42.7095Z" fill="#E2051B"/>
</svg>
