<svg width="1206" height="82" viewBox="0 0 1206 82" fill="none" xmlns="http://www.w3.org/2000/svg">
<path d="M0 52.8459H124.774V18.2695H0V52.8459Z" fill="#E2051B"/>
<path d="M124.773 61.0789H206.012V52.8461H124.773V61.0789Z" fill="#E2051B"/>
<path d="M206.012 66.0183H286.427V61.0789H206.012V66.0183Z" fill="#E2051B"/>
<path d="M124.773 81.9341H135.203V71.5064H124.773V81.9341Z" fill="#E2051B"/>
<path d="M114.344 71.5066H124.773V61.0789H114.344V71.5066Z" fill="#E2051B"/>
<path d="M157.385 8.9109L154.474 6L147.841 12.6329L141.207 6L138.296 8.9109L144.93 15.5431L138.296 22.176L141.207 25.0862L147.841 18.454L154.474 25.0862L157.385 22.176L150.751 15.5431L157.385 8.9109Z" fill="#E2051B"/>
<path d="M190.883 8.9109L187.971 6L181.338 12.6329L174.705 6L171.794 8.9109L178.427 15.5431L171.794 22.176L174.705 25.0862L181.338 18.454L187.971 25.0862L190.883 22.176L184.25 15.5431L190.883 8.9109Z" fill="#E2051B"/>
<path d="M224.381 8.9109L221.47 6L214.836 12.6329L208.203 6L205.292 8.9109L211.925 15.5431L205.292 22.176L208.203 25.0862L214.836 18.454L221.47 25.0862L224.381 22.176L217.748 15.5431L224.381 8.9109Z" fill="#E2051B"/>
<path d="M966.151 48.9012L938.397 78H942.674L969.456 49.9214V48.9012H966.151ZM956.455 48.9012L928.7 78H932.978L960.733 48.9012H956.455ZM946.759 48.9012L919.004 78H923.282L951.036 48.9012H946.759ZM937.062 48.9012L909.308 78H913.585L941.34 48.9012H937.062ZM927.365 48.9012L899.611 78H903.889L931.644 48.9012H927.365ZM917.669 48.9012L889.915 78H894.192L921.947 48.9012H917.669ZM907.973 48.9012L880.218 78H884.496L912.25 48.9012H907.973ZM898.277 48.9012L870.522 78H874.8L902.554 48.9012H898.277ZM888.58 48.9012L860.826 78H865.103L892.858 48.9012H888.58ZM878.883 48.9012L851.129 78H855.407L883.162 48.9012H878.883ZM869.187 48.9012L841.433 78H845.711L873.465 48.9012H869.187ZM859.491 48.9012L831.737 78H836.014L863.768 48.9012H859.491ZM849.794 48.9012L830 69.6555V74.1396L854.073 48.9012H849.794ZM840.098 48.9012L830 59.4894V63.9743L844.376 48.9012H840.098ZM830.402 48.9012L830 49.3233V53.8083L834.68 48.9012H830.402ZM948.094 78H952.371L969.456 60.0875V55.6033L948.094 78ZM957.789 78H962.068L969.456 70.2543V65.7686L957.789 78ZM967.485 78H969.456V75.9347L967.485 78Z" fill="white"/>
<path d="M1013.43 48.9016L1025.26 36.4989H1020.98L1009.15 48.9016H1013.43ZM1003.73 48.9016L1015.56 36.4989H1011.29L999.457 48.9016H1003.73ZM1023.13 48.9016L1034.96 36.4989H1030.68L1018.85 48.9016H1023.13ZM984.342 48.9016L996.172 36.4989H991.894L980.064 48.9016H984.342ZM974.646 48.9016L986.475 36.4989H982.197L970.367 48.9016H974.646ZM1032.82 48.9016L1044.65 36.4989H1040.38L1028.55 48.9016H1032.82ZM994.038 48.9016L1005.87 36.4989H1001.59L989.761 48.9016H994.038ZM972.501 36.4989L969.456 39.6919V44.176L976.778 36.4989H972.501ZM1100.7 48.9016L1108.76 40.4457V36.4989H1108.25L1096.42 48.9016H1100.7ZM1106.12 48.9016H1108.76V46.1269L1106.12 48.9016ZM1091 48.9016L1102.83 36.4989H1098.55L1086.72 48.9016H1091ZM1081.31 48.9016L1093.14 36.4989H1088.86L1077.03 48.9016H1081.31ZM1042.52 48.9016L1054.35 36.4989H1050.07L1038.24 48.9016H1042.52ZM1052.22 48.9016L1064.05 36.4989H1059.77L1047.94 48.9016H1052.22ZM1061.91 48.9016L1073.74 36.4989H1069.46L1057.64 48.9016H1061.91ZM1067.33 48.9016L1079.16 36.4989H1083.44L1071.61 48.9016H1067.33Z" fill="white"/>
<path d="M1108.76 48.9013V48.909L1108.77 48.9013H1108.76ZM1114.36 63.3755L1128.16 48.9013H1123.89L1110.08 63.3755H1114.36ZM1114.19 48.9013L1108.76 54.591V59.0751L1118.47 48.9013H1114.19ZM1124.06 63.3755L1137.86 48.9013H1133.58L1119.78 63.3755H1124.06ZM1146.78 55.3993L1139.17 63.3755H1143.45L1146.78 59.8843V55.3993ZM1129.47 63.3755L1143.28 48.9013H1146.78V49.7182L1133.75 63.3755H1129.47Z" fill="white"/>
<path d="M993.253 3.4734C993.253 4.97565 994.471 6.19287 995.973 6.19287C997.476 6.19287 998.693 4.97565 998.693 3.4734C998.693 1.97115 997.476 0.753935 995.973 0.753935C994.471 0.753935 993.253 1.97115 993.253 3.4734Z" fill="white"/>
<path d="M981.693 3.4734C981.693 4.97565 982.91 6.19287 984.413 6.19287C985.915 6.19287 987.133 4.97565 987.133 3.4734C987.133 1.97115 985.915 0.753935 984.413 0.753935C982.91 0.753935 981.693 1.97115 981.693 3.4734Z" fill="white"/>
<path d="M970.132 3.4734C970.132 4.97565 971.35 6.19287 972.852 6.19287C974.354 6.19287 975.572 4.97565 975.572 3.4734C975.572 1.97115 974.354 0.753935 972.852 0.753935C971.35 0.753935 970.132 1.97115 970.132 3.4734Z" fill="white"/>
<path d="M958.572 3.4734C958.572 4.97565 959.789 6.19287 961.292 6.19287C962.794 6.19287 964.011 4.97565 964.011 3.4734C964.011 1.97115 962.794 0.753935 961.292 0.753935C959.789 0.753935 958.572 1.97115 958.572 3.4734Z" fill="white"/>
<path d="M947.011 3.4734C947.011 4.97565 948.228 6.19287 949.731 6.19287C951.233 6.19287 952.45 4.97565 952.45 3.4734C952.45 1.97115 951.233 0.753935 949.731 0.753935C948.228 0.753935 947.011 1.97115 947.011 3.4734Z" fill="white"/>
<path d="M935.451 3.4734C935.451 4.97565 936.668 6.19287 938.171 6.19287C939.672 6.19287 940.89 4.97565 940.89 3.4734C940.89 1.97115 939.672 0.753935 938.171 0.753935C936.668 0.753935 935.451 1.97115 935.451 3.4734Z" fill="white"/>
<path d="M923.89 3.4734C923.89 4.97565 925.107 6.19287 926.609 6.19287C928.111 6.19287 929.329 4.97565 929.329 3.4734C929.329 1.97115 928.111 0.753935 926.609 0.753935C925.107 0.753935 923.89 1.97115 923.89 3.4734Z" fill="white"/>
<path d="M1004.81 3.4734C1004.81 4.97565 1006.03 6.19287 1007.53 6.19287C1009.04 6.19287 1010.25 4.97565 1010.25 3.4734C1010.25 1.97115 1009.04 0.753935 1007.53 0.753935C1006.03 0.753935 1004.81 1.97115 1004.81 3.4734Z" fill="white"/>
<path d="M912.329 3.4734C912.329 4.97565 913.546 6.19287 915.049 6.19287C916.551 6.19287 917.769 4.97565 917.769 3.4734C917.769 1.97115 916.551 0.753935 915.049 0.753935C913.546 0.753935 912.329 1.97115 912.329 3.4734Z" fill="white"/>
<path d="M1202.38 53.365C1203.88 53.365 1205.1 52.1478 1205.1 50.6455C1205.1 49.1433 1203.88 47.9261 1202.38 47.9261C1200.88 47.9261 1199.66 49.1433 1199.66 50.6455C1199.66 52.1478 1200.88 53.365 1202.38 53.365Z" fill="white"/>
<path d="M1202.38 64.9238C1203.88 64.9238 1205.1 63.7066 1205.1 62.2044C1205.1 60.7021 1203.88 59.4849 1202.38 59.4849C1200.88 59.4849 1199.66 60.7021 1199.66 62.2044C1199.66 63.7066 1200.88 64.9238 1202.38 64.9238Z" fill="white"/>
<path d="M1202.38 76.4822C1203.88 76.4822 1205.1 75.265 1205.1 73.7635C1205.1 72.2612 1203.88 71.044 1202.38 71.044C1200.88 71.044 1199.66 72.2612 1199.66 73.7635C1199.66 75.265 1200.88 76.4822 1202.38 76.4822Z" fill="white"/>
<path d="M1202.38 41.8057C1203.88 41.8057 1205.1 40.5884 1205.1 39.0862C1205.1 37.5839 1203.88 36.3667 1202.38 36.3667C1200.88 36.3667 1199.66 37.5839 1199.66 39.0862C1199.66 40.5884 1200.88 41.8057 1202.38 41.8057Z" fill="white"/>
<path d="M876.996 3.14698L873.848 -3.43323e-05L866.677 7.17011L859.505 -3.43323e-05L856.358 3.14698L863.53 10.3171L856.358 17.4873L859.505 20.6343L866.677 13.4641L873.848 20.6343L876.996 17.4873L869.824 10.3171L876.996 3.14698Z" fill="white"/>
</svg>
