<svg width="442" height="172" viewBox="0 0 442 172" fill="none" xmlns="http://www.w3.org/2000/svg">
<g filter="url(#filter0_d_19_4097)">
<path d="M133.316 54.0425C133.316 64.6457 124.721 73.2412 114.118 73.2412C104.313 73.2412 96.4923 65.3931 91.2426 57.1127C84.5316 46.5275 72.713 39.5011 59.252 39.501H54.3135C33.4069 39.5012 16.459 56.4498 16.459 77.3564V82.2939C16.459 103.201 33.4077 120.149 54.3145 120.149H59.252C68.6477 120.149 77.243 116.726 83.86 111.058C91.0096 104.934 99.1902 98.998 108.604 98.998C122.252 98.998 133.316 110.062 133.316 123.711V124.387C133.316 138.408 144.683 149.775 158.705 149.775H387.604C408.51 149.775 425.459 132.827 425.459 111.92V49.377C425.459 28.4701 408.51 11.5215 387.604 11.5215H164.176C147.133 11.5215 133.316 25.3379 133.316 42.3813V54.0425Z" fill="white"/>
</g>
<path d="M181.173 77.1465V73.0779L188.954 66.5207C189.586 65.994 190.284 65.4147 191.048 64.7827C191.812 64.1507 192.536 63.466 193.22 62.7286C193.931 61.9649 194.524 61.1749 194.998 60.3586C195.472 59.5422 195.709 58.6863 195.709 57.791C195.709 56.448 195.301 55.3946 194.484 54.6309C193.694 53.8672 192.562 53.4854 191.087 53.4854C189.797 53.4854 188.744 53.7619 187.927 54.3149C187.111 54.8679 186.597 55.6184 186.387 56.5665H181.528C181.712 54.8021 182.279 53.3669 183.227 52.2609C184.201 51.1285 185.399 50.2858 186.821 49.7328C188.243 49.1534 189.731 48.8638 191.285 48.8638C193.049 48.8638 194.629 49.1929 196.025 49.8513C197.421 50.4833 198.527 51.4313 199.343 52.6954C200.186 53.9331 200.607 55.4473 200.607 57.238C200.607 58.8444 200.291 60.2927 199.659 61.5831C199.053 62.8735 198.224 64.0585 197.171 65.1382C196.144 66.1915 195.011 67.2317 193.773 68.2588L188.441 72.6434H200.686V77.1465H181.173ZM218.1 77.1465V56.3295H223.986L230.069 65.8097L236.033 56.3295H241.84V77.1465H237.021V62.4521L230.701 72.5644H229.279L222.88 62.4126V77.1465H218.1ZM254.154 77.423C253.233 77.423 252.337 77.2913 251.468 77.028C250.626 76.7646 249.862 76.3828 249.177 75.8825C248.493 75.3558 247.953 74.7106 247.558 73.9469C247.163 73.1569 246.965 72.2352 246.965 71.1818C246.965 69.8388 247.229 68.7459 247.755 67.9032C248.282 67.0342 248.993 66.3759 249.888 65.9282C250.81 65.4805 251.85 65.1777 253.009 65.0197C254.168 64.8353 255.379 64.7432 256.643 64.7432H260.712C260.712 63.8215 260.567 63.0315 260.277 62.3731C259.987 61.6884 259.527 61.1486 258.895 60.7536C258.289 60.3586 257.499 60.1611 256.525 60.1611C255.892 60.1611 255.3 60.2401 254.747 60.3981C254.22 60.5297 253.759 60.7536 253.364 61.0696C252.996 61.3592 252.732 61.7411 252.574 62.2151H247.637C247.821 61.1354 248.19 60.2137 248.743 59.45C249.322 58.66 250.02 58.0148 250.836 57.5145C251.679 57.0141 252.601 56.6455 253.601 56.4085C254.602 56.1451 255.616 56.0134 256.643 56.0134C258.671 56.0134 260.317 56.4085 261.581 57.1985C262.871 57.9885 263.819 59.1209 264.425 60.5956C265.03 62.0703 265.333 63.8478 265.333 65.9282V77.1465H261.067L260.949 74.6184C260.369 75.3558 259.698 75.9351 258.934 76.3565C258.197 76.7515 257.42 77.028 256.604 77.186C255.787 77.344 254.971 77.423 254.154 77.423ZM255.26 73.5124C256.34 73.5124 257.288 73.3149 258.105 72.9199C258.921 72.5249 259.566 71.9719 260.04 71.2608C260.514 70.5498 260.751 69.7203 260.751 68.7723V68.1403H256.999C256.314 68.1403 255.655 68.1666 255.023 68.2193C254.391 68.2456 253.825 68.3509 253.325 68.5353C252.851 68.6933 252.469 68.9434 252.179 69.2858C251.89 69.6281 251.745 70.1153 251.745 70.7473C251.745 71.353 251.903 71.8665 252.219 72.2879C252.535 72.6829 252.956 72.9857 253.483 73.1964C254.036 73.4071 254.628 73.5124 255.26 73.5124ZM271.119 84.8097V56.3295H275.622L275.859 59.1735C276.676 58.0675 277.676 57.2643 278.861 56.764C280.046 56.2636 281.297 56.0134 282.614 56.0134C284.615 56.0134 286.288 56.4875 287.631 57.4355C288.974 58.3835 289.974 59.6739 290.633 61.3066C291.291 62.913 291.62 64.73 291.62 66.7577C291.62 68.7854 291.278 70.6025 290.593 72.2089C289.935 73.8152 288.908 75.0924 287.512 76.0405C286.143 76.9621 284.378 77.423 282.219 77.423C281.218 77.423 280.323 77.3177 279.533 77.107C278.743 76.87 278.045 76.5671 277.439 76.1985C276.86 75.8035 276.36 75.3821 275.938 74.9344V84.8097H271.119ZM281.547 73.0779C282.89 73.0779 283.944 72.7882 284.708 72.2089C285.471 71.6032 286.024 70.8263 286.367 69.8783C286.709 68.9039 286.88 67.8769 286.88 66.7972C286.88 65.6649 286.696 64.6115 286.327 63.6371C285.985 62.6628 285.419 61.8728 284.629 61.2671C283.839 60.6614 282.785 60.3586 281.468 60.3586C280.257 60.3586 279.23 60.6614 278.387 61.2671C277.571 61.8464 276.952 62.6233 276.531 63.5976C276.109 64.572 275.899 65.6254 275.899 66.7577C275.899 67.9164 276.096 68.9829 276.491 69.9573C276.886 70.9053 277.505 71.669 278.348 72.2484C279.191 72.8014 280.257 73.0779 281.547 73.0779ZM296.529 77.1465V56.3295H301.349V64.6642H304.667L310.078 56.3295H315.529L308.854 66.1652L315.766 77.1465H310.197L305.022 68.9303H301.349V77.1465H296.529ZM319.548 77.1465V56.3295H324.367V69.8783C324.525 69.5886 324.723 69.2726 324.96 68.9303C325.223 68.5879 325.447 68.3114 325.631 68.1008L334.558 56.3295H338.825V77.1465H334.045V63.7556C333.834 64.098 333.61 64.4272 333.373 64.7432C333.163 65.0328 332.952 65.3094 332.741 65.5727L323.933 77.1465H319.548Z" fill="#213850"/>
<path d="M185.75 113.433C184.673 113.433 183.775 113.206 183.054 112.752C182.343 112.287 181.81 111.655 181.454 110.856C181.108 110.046 180.936 109.122 180.936 108.086C180.936 107.058 181.113 106.145 181.469 105.345C181.824 104.535 182.358 103.898 183.069 103.434C183.79 102.96 184.693 102.723 185.779 102.723C186.55 102.723 187.211 102.847 187.764 103.094C188.327 103.331 188.782 103.661 189.127 104.086C189.473 104.511 189.71 105.009 189.838 105.582H188.535C188.387 105.069 188.066 104.659 187.572 104.353C187.088 104.047 186.476 103.893 185.735 103.893C184.905 103.893 184.234 104.091 183.72 104.486C183.217 104.871 182.846 105.38 182.609 106.012C182.372 106.634 182.254 107.31 182.254 108.041C182.254 108.811 182.377 109.517 182.624 110.159C182.871 110.801 183.256 111.315 183.78 111.7C184.303 112.075 184.97 112.263 185.779 112.263C186.273 112.263 186.713 112.194 187.098 112.055C187.493 111.917 187.819 111.72 188.075 111.463C188.342 111.206 188.525 110.91 188.624 110.574H190.031C189.883 111.147 189.616 111.65 189.231 112.085C188.856 112.51 188.377 112.84 187.794 113.077C187.211 113.314 186.53 113.433 185.75 113.433ZM195.585 113.403C194.765 113.403 194.079 113.235 193.526 112.9C192.973 112.554 192.558 112.08 192.282 111.478C192.015 110.875 191.882 110.189 191.882 109.419C191.882 108.639 192.015 107.952 192.282 107.36C192.558 106.757 192.973 106.283 193.526 105.938C194.079 105.592 194.775 105.419 195.615 105.419C196.434 105.419 197.116 105.592 197.659 105.938C198.212 106.283 198.622 106.757 198.888 107.36C199.165 107.952 199.303 108.639 199.303 109.419C199.303 110.189 199.165 110.875 198.888 111.478C198.612 112.08 198.197 112.554 197.644 112.9C197.101 113.235 196.415 113.403 195.585 113.403ZM195.585 112.292C196.158 112.292 196.622 112.164 196.977 111.907C197.343 111.65 197.609 111.305 197.777 110.87C197.955 110.436 198.044 109.952 198.044 109.419C198.044 108.885 197.955 108.402 197.777 107.967C197.609 107.532 197.343 107.187 196.977 106.93C196.622 106.673 196.158 106.545 195.585 106.545C195.022 106.545 194.558 106.673 194.193 106.93C193.837 107.187 193.57 107.532 193.393 107.967C193.225 108.402 193.141 108.885 193.141 109.419C193.141 109.952 193.225 110.436 193.393 110.87C193.57 111.305 193.837 111.65 194.193 111.907C194.558 112.164 195.022 112.292 195.585 112.292ZM204.865 113.403C204.371 113.403 203.932 113.334 203.547 113.196C203.162 113.048 202.831 112.845 202.554 112.589C202.278 112.322 202.051 112.011 201.873 111.655C201.695 111.29 201.562 110.895 201.473 110.47C201.384 110.046 201.34 109.596 201.34 109.122C201.34 108.362 201.354 107.656 201.384 107.004C201.424 106.343 201.532 105.755 201.71 105.241C201.888 104.718 202.189 104.284 202.614 103.938C203.038 103.592 203.636 103.35 204.406 103.212C204.801 103.143 205.191 103.084 205.576 103.034C205.961 102.985 206.351 102.936 206.746 102.886C206.875 102.866 207.008 102.847 207.146 102.827C207.285 102.807 207.428 102.782 207.576 102.753C207.734 102.723 207.882 102.699 208.02 102.679V103.834C207.912 103.874 207.793 103.908 207.665 103.938C207.546 103.958 207.418 103.977 207.28 103.997C207.151 104.017 207.018 104.032 206.88 104.042C206.751 104.051 206.623 104.066 206.495 104.086C206.366 104.096 206.243 104.111 206.124 104.13C205.779 104.17 205.413 104.209 205.028 104.249C204.643 104.279 204.278 104.358 203.932 104.486C203.596 104.604 203.31 104.837 203.073 105.182C202.954 105.36 202.851 105.572 202.762 105.819C202.683 106.066 202.623 106.318 202.584 106.575C202.554 106.821 202.535 107.058 202.525 107.286C202.722 107.009 202.964 106.787 203.251 106.619C203.537 106.441 203.843 106.313 204.169 106.234C204.495 106.145 204.806 106.101 205.102 106.101C205.813 106.101 206.416 106.249 206.909 106.545C207.403 106.831 207.778 107.241 208.035 107.774C208.292 108.308 208.42 108.93 208.42 109.641C208.42 110.352 208.282 110.994 208.005 111.567C207.729 112.129 207.324 112.579 206.791 112.915C206.267 113.24 205.626 113.403 204.865 113.403ZM204.895 112.292C205.389 112.292 205.803 112.174 206.139 111.937C206.475 111.7 206.727 111.384 206.894 110.989C207.072 110.594 207.161 110.159 207.161 109.685C207.161 109.221 207.072 108.806 206.894 108.441C206.727 108.066 206.475 107.769 206.139 107.552C205.813 107.335 205.408 107.226 204.924 107.226C204.45 107.226 204.041 107.34 203.695 107.567C203.359 107.794 203.097 108.1 202.91 108.485C202.732 108.861 202.643 109.271 202.643 109.715C202.643 110.169 202.727 110.594 202.895 110.989C203.063 111.384 203.31 111.7 203.636 111.937C203.971 112.174 204.391 112.292 204.895 112.292ZM214.033 113.403C213.214 113.403 212.532 113.235 211.989 112.9C211.456 112.554 211.056 112.08 210.789 111.478C210.533 110.875 210.404 110.194 210.404 109.433C210.404 108.693 210.538 108.021 210.804 107.419C211.081 106.807 211.495 106.323 212.048 105.967C212.611 105.602 213.322 105.419 214.182 105.419C214.715 105.419 215.189 105.508 215.604 105.686C216.028 105.864 216.379 106.125 216.655 106.471C216.932 106.807 217.124 107.231 217.233 107.745H215.944C215.796 107.31 215.559 107.004 215.233 106.826C214.917 106.639 214.542 106.545 214.107 106.545C213.515 106.545 213.041 106.683 212.685 106.96C212.33 107.236 212.068 107.597 211.9 108.041C211.742 108.476 211.663 108.94 211.663 109.433C211.663 109.947 211.747 110.421 211.915 110.856C212.083 111.29 212.345 111.641 212.7 111.907C213.056 112.164 213.515 112.292 214.078 112.292C214.493 112.292 214.883 112.203 215.248 112.026C215.623 111.848 215.87 111.532 215.989 111.078H217.292C217.193 111.611 216.981 112.05 216.655 112.396C216.339 112.742 215.949 112.998 215.485 113.166C215.031 113.324 214.547 113.403 214.033 113.403ZM221.154 113.314V106.619H218.473V105.508H225.095V106.619H222.414V113.314H221.154ZM226.663 113.314V105.508H229.684C230.03 105.508 230.371 105.533 230.706 105.582C231.052 105.622 231.363 105.711 231.64 105.849C231.926 105.977 232.153 106.17 232.321 106.426C232.499 106.683 232.588 107.024 232.588 107.449C232.588 107.705 232.548 107.942 232.469 108.16C232.39 108.367 232.272 108.55 232.114 108.708C231.966 108.866 231.773 109.004 231.536 109.122C232.069 109.241 232.454 109.473 232.691 109.819C232.928 110.164 233.047 110.559 233.047 111.004C233.047 111.399 232.973 111.744 232.825 112.041C232.686 112.327 232.489 112.564 232.232 112.752C231.985 112.939 231.694 113.082 231.358 113.181C231.032 113.27 230.682 113.314 230.306 113.314H226.663ZM227.951 112.218H230.01C230.316 112.218 230.603 112.189 230.869 112.129C231.136 112.07 231.353 111.962 231.521 111.804C231.689 111.636 231.773 111.399 231.773 111.093C231.773 110.777 231.699 110.54 231.551 110.382C231.413 110.214 231.23 110.1 231.003 110.041C230.785 109.972 230.548 109.932 230.292 109.922C230.035 109.912 229.793 109.907 229.566 109.907H227.951V112.218ZM227.951 108.841H229.033C229.23 108.841 229.457 108.831 229.714 108.811C229.981 108.792 230.237 108.747 230.484 108.678C230.741 108.599 230.948 108.481 231.106 108.323C231.274 108.165 231.358 107.947 231.358 107.671C231.358 107.305 231.255 107.054 231.047 106.915C230.85 106.767 230.613 106.683 230.336 106.663C230.06 106.634 229.803 106.619 229.566 106.619H227.951V108.841ZM238.585 113.403C237.756 113.403 237.069 113.235 236.526 112.9C235.983 112.554 235.578 112.08 235.311 111.478C235.045 110.875 234.911 110.189 234.911 109.419C234.911 108.639 235.05 107.952 235.326 107.36C235.613 106.757 236.027 106.283 236.57 105.938C237.114 105.592 237.78 105.419 238.57 105.419C239.153 105.419 239.661 105.533 240.096 105.76C240.54 105.977 240.906 106.273 241.192 106.649C241.488 107.024 241.701 107.444 241.829 107.908C241.967 108.372 242.027 108.851 242.007 109.345C241.997 109.433 241.992 109.522 241.992 109.611C241.992 109.7 241.987 109.789 241.977 109.878H236.185C236.225 110.332 236.338 110.742 236.526 111.107C236.714 111.473 236.98 111.764 237.326 111.981C237.672 112.189 238.101 112.292 238.615 112.292C238.871 112.292 239.128 112.263 239.385 112.203C239.652 112.134 239.889 112.021 240.096 111.863C240.313 111.705 240.466 111.492 240.555 111.226H241.844C241.725 111.729 241.503 112.144 241.177 112.47C240.851 112.786 240.461 113.023 240.007 113.181C239.553 113.329 239.079 113.403 238.585 113.403ZM236.215 108.782H240.733C240.723 108.337 240.624 107.947 240.437 107.611C240.249 107.276 239.992 107.014 239.666 106.826C239.35 106.639 238.97 106.545 238.526 106.545C238.042 106.545 237.632 106.649 237.296 106.856C236.97 107.063 236.719 107.335 236.541 107.671C236.363 108.007 236.254 108.377 236.215 108.782ZM244.143 113.314V105.508H245.403V108.93H249.313V105.508H250.572V113.314H249.313V110.041H245.403V113.314H244.143ZM253.007 113.314V105.508H254.266V108.93H258.177V105.508H259.436V113.314H258.177V110.041H254.266V113.314H253.007ZM265.277 113.403C264.458 113.403 263.771 113.235 263.218 112.9C262.665 112.554 262.25 112.08 261.974 111.478C261.707 110.875 261.574 110.189 261.574 109.419C261.574 108.639 261.707 107.952 261.974 107.36C262.25 106.757 262.665 106.283 263.218 105.938C263.771 105.592 264.467 105.419 265.307 105.419C266.127 105.419 266.808 105.592 267.351 105.938C267.904 106.283 268.314 106.757 268.581 107.36C268.857 107.952 268.995 108.639 268.995 109.419C268.995 110.189 268.857 110.875 268.581 111.478C268.304 112.08 267.889 112.554 267.336 112.9C266.793 113.235 266.107 113.403 265.277 113.403ZM265.277 112.292C265.85 112.292 266.314 112.164 266.67 111.907C267.035 111.65 267.302 111.305 267.47 110.87C267.647 110.436 267.736 109.952 267.736 109.419C267.736 108.885 267.647 108.402 267.47 107.967C267.302 107.532 267.035 107.187 266.67 106.93C266.314 106.673 265.85 106.545 265.277 106.545C264.714 106.545 264.25 106.673 263.885 106.93C263.529 107.187 263.263 107.532 263.085 107.967C262.917 108.402 262.833 108.885 262.833 109.419C262.833 109.952 262.917 110.436 263.085 110.87C263.263 111.305 263.529 111.65 263.885 111.907C264.25 112.164 264.714 112.292 265.277 112.292ZM271.124 113.314V105.508H272.383V111.492C272.453 111.354 272.546 111.206 272.665 111.048C272.783 110.88 272.877 110.752 272.946 110.663L276.724 105.508H277.968V113.314H276.709V107.33C276.63 107.478 276.541 107.616 276.442 107.745C276.353 107.873 276.269 107.992 276.19 108.1L272.354 113.314H271.124ZM274.65 104.412C273.87 104.412 273.257 104.244 272.813 103.908C272.378 103.573 272.151 103.084 272.132 102.442H273.287C273.307 102.787 273.435 103.039 273.672 103.197C273.919 103.355 274.25 103.434 274.665 103.434C275.079 103.434 275.405 103.355 275.642 103.197C275.889 103.039 276.022 102.787 276.042 102.442H277.198C277.188 102.866 277.079 103.227 276.872 103.523C276.664 103.819 276.373 104.042 275.998 104.19C275.622 104.338 275.173 104.412 274.65 104.412ZM284.83 116.129V105.508H286.03L286.089 106.708C286.355 106.283 286.716 105.962 287.17 105.745C287.634 105.528 288.133 105.419 288.666 105.419C289.456 105.419 290.103 105.597 290.607 105.952C291.11 106.298 291.481 106.772 291.718 107.374C291.965 107.977 292.088 108.658 292.088 109.419C292.088 110.179 291.965 110.86 291.718 111.463C291.471 112.065 291.091 112.539 290.577 112.885C290.064 113.231 289.407 113.403 288.607 113.403C288.212 113.403 287.856 113.364 287.54 113.285C287.224 113.196 286.948 113.073 286.711 112.915C286.474 112.757 286.267 112.579 286.089 112.381V116.129H284.83ZM288.503 112.292C289.076 112.292 289.53 112.164 289.866 111.907C290.202 111.641 290.444 111.29 290.592 110.856C290.75 110.421 290.829 109.942 290.829 109.419C290.829 108.885 290.75 108.402 290.592 107.967C290.444 107.532 290.197 107.187 289.851 106.93C289.506 106.673 289.046 106.545 288.474 106.545C287.96 106.545 287.521 106.678 287.155 106.945C286.8 107.202 286.528 107.552 286.341 107.997C286.153 108.431 286.059 108.91 286.059 109.433C286.059 109.977 286.148 110.465 286.326 110.9C286.504 111.334 286.775 111.675 287.14 111.922C287.506 112.169 287.96 112.292 288.503 112.292ZM296.659 113.403C296.304 113.403 295.958 113.359 295.622 113.27C295.297 113.171 295 113.028 294.734 112.84C294.477 112.643 294.27 112.401 294.112 112.115C293.963 111.818 293.889 111.478 293.889 111.093C293.889 110.648 293.968 110.273 294.126 109.967C294.294 109.661 294.516 109.419 294.793 109.241C295.069 109.063 295.39 108.935 295.756 108.856C296.121 108.777 296.501 108.737 296.896 108.737H299.192C299.192 108.293 299.128 107.908 299 107.582C298.881 107.256 298.684 107.004 298.407 106.826C298.131 106.639 297.765 106.545 297.311 106.545C297.035 106.545 296.778 106.575 296.541 106.634C296.304 106.693 296.101 106.787 295.934 106.915C295.766 107.044 295.642 107.216 295.563 107.434H294.215C294.284 107.078 294.418 106.777 294.615 106.53C294.823 106.273 295.069 106.066 295.356 105.908C295.652 105.74 295.968 105.617 296.304 105.538C296.64 105.459 296.975 105.419 297.311 105.419C298.062 105.419 298.664 105.572 299.118 105.878C299.573 106.175 299.903 106.599 300.111 107.152C300.318 107.695 300.422 108.342 300.422 109.093V113.314H299.37L299.296 112.322C299.079 112.618 298.817 112.845 298.511 113.003C298.205 113.161 297.889 113.265 297.563 113.314C297.247 113.374 296.946 113.403 296.659 113.403ZM296.778 112.292C297.272 112.292 297.696 112.213 298.052 112.055C298.417 111.887 298.699 111.646 298.896 111.33C299.094 111.014 299.192 110.628 299.192 110.174V109.789H297.815C297.489 109.789 297.168 109.794 296.852 109.804C296.536 109.814 296.25 109.853 295.993 109.922C295.736 109.991 295.529 110.11 295.371 110.278C295.223 110.446 295.148 110.688 295.148 111.004C295.148 111.3 295.223 111.542 295.371 111.729C295.529 111.917 295.731 112.06 295.978 112.159C296.235 112.248 296.501 112.292 296.778 112.292ZM305.646 113.403C305.271 113.403 304.896 113.369 304.52 113.3C304.145 113.231 303.795 113.117 303.469 112.959C303.153 112.791 302.896 112.569 302.698 112.292C302.501 112.006 302.392 111.65 302.373 111.226H303.602C303.651 111.492 303.795 111.705 304.032 111.863C304.269 112.021 304.535 112.134 304.831 112.203C305.138 112.263 305.409 112.292 305.646 112.292C305.923 112.292 306.204 112.263 306.49 112.203C306.787 112.144 307.034 112.026 307.231 111.848C307.439 111.67 307.542 111.409 307.542 111.063C307.542 110.727 307.458 110.48 307.29 110.322C307.132 110.164 306.92 110.061 306.653 110.011C306.397 109.962 306.115 109.937 305.809 109.937H304.417V108.826H305.557C305.745 108.826 305.937 108.811 306.135 108.782C306.332 108.742 306.515 108.683 306.683 108.604C306.851 108.515 306.984 108.392 307.083 108.234C307.192 108.076 307.246 107.873 307.246 107.626C307.246 107.35 307.167 107.133 307.009 106.975C306.851 106.817 306.648 106.708 306.402 106.649C306.155 106.58 305.903 106.545 305.646 106.545C305.409 106.545 305.157 106.57 304.891 106.619C304.634 106.668 304.412 106.767 304.224 106.915C304.036 107.054 303.923 107.261 303.883 107.537H302.639C302.659 107.004 302.822 106.584 303.128 106.278C303.434 105.972 303.814 105.755 304.269 105.627C304.723 105.488 305.177 105.419 305.631 105.419C305.977 105.419 306.318 105.454 306.653 105.523C306.989 105.592 307.295 105.711 307.572 105.878C307.848 106.036 308.066 106.249 308.224 106.515C308.391 106.782 308.475 107.113 308.475 107.508C308.475 107.863 308.391 108.179 308.224 108.456C308.056 108.732 307.799 108.955 307.453 109.122C307.957 109.28 308.308 109.527 308.505 109.863C308.703 110.199 308.801 110.599 308.801 111.063C308.801 111.478 308.712 111.833 308.535 112.129C308.357 112.416 308.115 112.658 307.809 112.855C307.513 113.043 307.177 113.181 306.802 113.27C306.426 113.359 306.041 113.403 305.646 113.403ZM310.87 116.129V105.508H312.07L312.129 106.708C312.396 106.283 312.756 105.962 313.211 105.745C313.675 105.528 314.174 105.419 314.707 105.419C315.497 105.419 316.144 105.597 316.647 105.952C317.151 106.298 317.521 106.772 317.758 107.374C318.005 107.977 318.129 108.658 318.129 109.419C318.129 110.179 318.005 110.86 317.758 111.463C317.511 112.065 317.131 112.539 316.618 112.885C316.104 113.231 315.447 113.403 314.648 113.403C314.253 113.403 313.897 113.364 313.581 113.285C313.265 113.196 312.988 113.073 312.751 112.915C312.514 112.757 312.307 112.579 312.129 112.381V116.129H310.87ZM314.544 112.292C315.117 112.292 315.571 112.164 315.907 111.907C316.242 111.641 316.484 111.29 316.632 110.856C316.79 110.421 316.869 109.942 316.869 109.419C316.869 108.885 316.79 108.402 316.632 107.967C316.484 107.532 316.237 107.187 315.892 106.93C315.546 106.673 315.087 106.545 314.514 106.545C314.001 106.545 313.561 106.678 313.196 106.945C312.84 107.202 312.569 107.552 312.381 107.997C312.194 108.431 312.1 108.91 312.1 109.433C312.1 109.977 312.189 110.465 312.366 110.9C312.544 111.334 312.816 111.675 313.181 111.922C313.546 112.169 314.001 112.292 314.544 112.292ZM322.7 113.403C322.344 113.403 321.999 113.359 321.663 113.27C321.337 113.171 321.041 113.028 320.774 112.84C320.518 112.643 320.31 112.401 320.152 112.115C320.004 111.818 319.93 111.478 319.93 111.093C319.93 110.648 320.009 110.273 320.167 109.967C320.335 109.661 320.557 109.419 320.834 109.241C321.11 109.063 321.431 108.935 321.796 108.856C322.162 108.777 322.542 108.737 322.937 108.737H325.233C325.233 108.293 325.169 107.908 325.04 107.582C324.922 107.256 324.724 107.004 324.448 106.826C324.171 106.639 323.806 106.545 323.352 106.545C323.075 106.545 322.818 106.575 322.581 106.634C322.344 106.693 322.142 106.787 321.974 106.915C321.806 107.044 321.683 107.216 321.604 107.434H320.256C320.325 107.078 320.458 106.777 320.656 106.53C320.863 106.273 321.11 106.066 321.396 105.908C321.693 105.74 322.009 105.617 322.344 105.538C322.68 105.459 323.016 105.419 323.352 105.419C324.102 105.419 324.705 105.572 325.159 105.878C325.613 106.175 325.944 106.599 326.151 107.152C326.359 107.695 326.462 108.342 326.462 109.093V113.314H325.411L325.337 112.322C325.119 112.618 324.858 112.845 324.552 113.003C324.245 113.161 323.929 113.265 323.604 113.314C323.288 113.374 322.986 113.403 322.7 113.403ZM322.818 112.292C323.312 112.292 323.737 112.213 324.092 112.055C324.458 111.887 324.739 111.646 324.937 111.33C325.134 111.014 325.233 110.628 325.233 110.174V109.789H323.855C323.529 109.789 323.209 109.794 322.893 109.804C322.576 109.814 322.29 109.853 322.033 109.922C321.777 109.991 321.569 110.11 321.411 110.278C321.263 110.446 321.189 110.688 321.189 111.004C321.189 111.3 321.263 111.542 321.411 111.729C321.569 111.917 321.772 112.06 322.019 112.159C322.275 112.248 322.542 112.292 322.818 112.292ZM332.146 113.403C331.652 113.403 331.213 113.334 330.828 113.196C330.442 113.048 330.112 112.845 329.835 112.589C329.559 112.322 329.331 112.011 329.154 111.655C328.976 111.29 328.843 110.895 328.754 110.47C328.665 110.046 328.62 109.596 328.62 109.122C328.62 108.362 328.635 107.656 328.665 107.004C328.704 106.343 328.813 105.755 328.991 105.241C329.169 104.718 329.47 104.284 329.894 103.938C330.319 103.592 330.916 103.35 331.687 103.212C332.082 103.143 332.472 103.084 332.857 103.034C333.242 102.985 333.632 102.936 334.027 102.886C334.156 102.866 334.289 102.847 334.427 102.827C334.565 102.807 334.709 102.782 334.857 102.753C335.015 102.723 335.163 102.699 335.301 102.679V103.834C335.192 103.874 335.074 103.908 334.946 103.938C334.827 103.958 334.699 103.977 334.56 103.997C334.432 104.017 334.299 104.032 334.16 104.042C334.032 104.051 333.904 104.066 333.775 104.086C333.647 104.096 333.524 104.111 333.405 104.13C333.059 104.17 332.694 104.209 332.309 104.249C331.924 104.279 331.558 104.358 331.213 104.486C330.877 104.604 330.591 104.837 330.354 105.182C330.235 105.36 330.131 105.572 330.042 105.819C329.963 106.066 329.904 106.318 329.865 106.575C329.835 106.821 329.815 107.058 329.805 107.286C330.003 107.009 330.245 106.787 330.531 106.619C330.818 106.441 331.124 106.313 331.45 106.234C331.776 106.145 332.087 106.101 332.383 106.101C333.094 106.101 333.696 106.249 334.19 106.545C334.684 106.831 335.059 107.241 335.316 107.774C335.573 108.308 335.701 108.93 335.701 109.641C335.701 110.352 335.563 110.994 335.286 111.567C335.01 112.129 334.605 112.579 334.072 112.915C333.548 113.24 332.906 113.403 332.146 113.403ZM332.176 112.292C332.669 112.292 333.084 112.174 333.42 111.937C333.756 111.7 334.007 111.384 334.175 110.989C334.353 110.594 334.442 110.159 334.442 109.685C334.442 109.221 334.353 108.806 334.175 108.441C334.007 108.066 333.756 107.769 333.42 107.552C333.094 107.335 332.689 107.226 332.205 107.226C331.731 107.226 331.321 107.34 330.976 107.567C330.64 107.794 330.378 108.1 330.191 108.485C330.013 108.861 329.924 109.271 329.924 109.715C329.924 110.169 330.008 110.594 330.176 110.989C330.344 111.384 330.591 111.7 330.916 111.937C331.252 112.174 331.672 112.292 332.176 112.292ZM341.244 113.403C340.424 113.403 339.738 113.235 339.185 112.9C338.632 112.554 338.217 112.08 337.94 111.478C337.674 110.875 337.54 110.189 337.54 109.419C337.54 108.639 337.674 107.952 337.94 107.36C338.217 106.757 338.632 106.283 339.185 105.938C339.738 105.592 340.434 105.419 341.273 105.419C342.093 105.419 342.774 105.592 343.317 105.938C343.87 106.283 344.28 106.757 344.547 107.36C344.823 107.952 344.962 108.639 344.962 109.419C344.962 110.189 344.823 110.875 344.547 111.478C344.27 112.08 343.856 112.554 343.303 112.9C342.759 113.235 342.073 113.403 341.244 113.403ZM341.244 112.292C341.816 112.292 342.28 112.164 342.636 111.907C343.001 111.65 343.268 111.305 343.436 110.87C343.614 110.436 343.703 109.952 343.703 109.419C343.703 108.885 343.614 108.402 343.436 107.967C343.268 107.532 343.001 107.187 342.636 106.93C342.28 106.673 341.816 106.545 341.244 106.545C340.681 106.545 340.217 106.673 339.851 106.93C339.496 107.187 339.229 107.532 339.051 107.967C338.883 108.402 338.799 108.885 338.799 109.419C338.799 109.952 338.883 110.436 339.051 110.87C339.229 111.305 339.496 111.65 339.851 111.907C340.217 112.164 340.681 112.292 341.244 112.292ZM348.913 113.314V106.619H346.231V105.508H352.853V106.619H350.172V113.314H348.913ZM354.421 113.314V105.508H355.68V108.871H357.043L359.353 105.508H360.79L358.183 109.226L361.012 113.314H359.531L357.191 109.967H355.68V113.314H354.421ZM362.546 113.314V105.508H363.805V111.492C363.875 111.354 363.968 111.206 364.087 111.048C364.205 110.88 364.299 110.752 364.368 110.663L368.146 105.508H369.39V113.314H368.131V107.33C368.052 107.478 367.963 107.616 367.864 107.745C367.775 107.873 367.691 107.992 367.612 108.1L363.776 113.314H362.546Z" fill="#213850"/>
<rect width="49.3763" height="49.3763" rx="24.6881" transform="matrix(-0.664228 0.74753 0.74753 0.664228 56.4629 45.2617)" fill="#78C4FF"/>
<path d="M55.621 79.5526L58.6738 76.1169C58.8188 75.9537 58.893 75.7397 58.8802 75.5218C58.8673 75.3039 58.7684 75.1001 58.6053 74.9551C58.4421 74.8101 58.2281 74.7359 58.0102 74.7488C57.7923 74.7616 57.5884 74.8605 57.4435 75.0236L53.0705 79.945C52.9984 80.0256 52.943 80.1197 52.9074 80.2219C52.8718 80.324 52.8568 80.4322 52.8632 80.5402C52.8695 80.6481 52.8972 80.7538 52.9446 80.851C52.9919 80.9483 53.058 81.0352 53.1391 81.1068L58.0605 85.4797C58.2236 85.6247 58.4377 85.6989 58.6555 85.6861C58.8734 85.6732 59.0773 85.5743 59.2222 85.4112C59.3672 85.248 59.4414 85.034 59.4286 84.8161C59.4157 84.5982 59.3168 84.3944 59.1537 84.2494L55.7173 81.196L63.5931 80.7313C63.811 80.7183 64.0149 80.6194 64.1598 80.4561C64.3048 80.2929 64.3789 80.0788 64.366 79.8608C64.3531 79.6429 64.2541 79.4391 64.0908 79.2941C63.9276 79.1492 63.7135 79.075 63.4956 79.088L55.621 79.5526Z" fill="white"/>
<path d="M58.2129 48.9336C41.0329 48.9336 27.1056 62.8611 27.1055 80.041C27.1055 97.221 41.0329 111.148 58.2129 111.148C75.3928 111.148 89.3203 97.221 89.3203 80.041C89.3202 62.8612 75.3927 48.9337 58.2129 48.9336Z" stroke="#599AFB" stroke-opacity="0.14" stroke-width="0.758712"/>
<defs>
<filter id="filter0_d_19_4097" x="0.000232697" y="0.000358105" width="441.918" height="171.171" filterUnits="userSpaceOnUse" color-interpolation-filters="sRGB">
<feFlood flood-opacity="0" result="BackgroundImageFix"/>
<feColorMatrix in="SourceAlpha" type="matrix" values="0 0 0 0 0 0 0 0 0 0 0 0 0 0 0 0 0 0 127 0" result="hardAlpha"/>
<feOffset dy="4.93763"/>
<feGaussianBlur stdDeviation="8.22938"/>
<feComposite in2="hardAlpha" operator="out"/>
<feColorMatrix type="matrix" values="0 0 0 0 0.441667 0 0 0 0 0.720834 0 0 0 0 1 0 0 0 0.09 0"/>
<feBlend mode="normal" in2="BackgroundImageFix" result="effect1_dropShadow_19_4097"/>
<feBlend mode="normal" in="SourceGraphic" in2="effect1_dropShadow_19_4097" result="shape"/>
</filter>
</defs>
</svg>
