<svg width="579" height="188" viewBox="0 0 579 188" fill="none" xmlns="http://www.w3.org/2000/svg">
<g filter="url(#filter0_d_19_4112)">
<path d="M561.465 118.754C561.465 140.937 543.481 158.921 521.298 158.921L516.059 158.921C503.332 158.921 491.989 153.002 484.631 143.767C478.329 135.859 470.189 128.319 460.086 127.889C447.539 127.355 437.356 137.832 430.092 148.076C422.815 158.337 410.842 165.034 397.305 165.034L57.6318 165.034C35.4484 165.034 17.4651 147.051 17.4648 124.867L17.4648 52.3916C17.4648 30.208 35.4482 12.2246 57.6318 12.2246L397.305 12.2246C419.488 12.2248 437.472 30.2081 437.472 52.3916L437.472 77.1136C437.472 89.6687 447.366 99.9933 459.91 100.527C470.466 100.976 479.561 93.6932 486.801 85.9974C494.126 78.2109 504.524 73.3487 516.059 73.3486L521.298 73.3486C543.481 73.3486 561.465 91.332 561.465 113.516L561.465 118.754Z" fill="white"/>
</g>
<path d="M55.7528 83.3358V78.0128L65.309 72.0611L55.7528 66.1094V60.7445L71.5122 70.678V73.3185L55.7528 83.3358ZM78.014 86.8984V82.5814L86.2709 75.6238C86.9415 75.0649 87.682 74.4502 88.4923 73.7796C89.3026 73.109 90.0711 72.3825 90.7976 71.6001C91.552 70.7897 92.1807 69.9515 92.6837 69.0853C93.1866 68.2191 93.4381 67.3109 93.4381 66.3609C93.4381 64.9359 93.005 63.8182 92.1388 63.0078C91.3005 62.1975 90.099 61.7924 88.5342 61.7924C87.1651 61.7924 86.0474 62.0857 85.1812 62.6725C84.315 63.2593 83.7701 64.0557 83.5466 65.0616H78.3912C78.5868 63.1895 79.1876 61.6666 80.1935 60.493C81.2273 59.2915 82.4987 58.3974 84.0076 57.8106C85.5165 57.1959 87.0952 56.8885 88.7438 56.8885C90.6159 56.8885 92.2925 57.2378 93.7734 57.9363C95.2543 58.6069 96.4279 59.6129 97.2941 60.9541C98.1883 62.2674 98.6353 63.8741 98.6353 65.7741C98.6353 67.4786 98.3 69.0154 97.6294 70.3846C96.9868 71.7538 96.1066 73.0112 94.9889 74.1568C93.8991 75.2745 92.6976 76.3782 91.3843 77.4679L85.726 82.1203H98.7192V86.8984H78.014ZM115.674 87.2337C113.523 87.2337 111.692 86.8565 110.183 86.1021C108.675 85.3197 107.459 84.23 106.537 82.8328C105.615 81.4357 104.93 79.8291 104.483 78.0128C104.064 76.1966 103.855 74.2406 103.855 72.1449C103.855 70.0213 104.064 68.0374 104.483 66.1933C104.93 64.3491 105.615 62.7424 106.537 61.3732C107.487 59.9761 108.716 58.8864 110.225 58.104C111.734 57.2937 113.564 56.8885 115.716 56.8885C117.923 56.8885 119.782 57.3076 121.29 58.1459C122.827 58.9842 124.043 60.1158 124.937 61.5409C125.859 62.9659 126.516 64.5866 126.907 66.4028C127.326 68.2191 127.536 70.1191 127.536 72.103C127.536 74.059 127.326 75.9451 126.907 77.7613C126.516 79.5776 125.859 81.1982 124.937 82.6233C124.015 84.0483 122.785 85.18 121.249 86.0183C119.74 86.8286 117.882 87.2337 115.674 87.2337ZM115.674 82.4556C117.099 82.4556 118.245 82.1203 119.111 81.4497C120.005 80.7791 120.676 79.9269 121.123 78.893C121.57 77.8312 121.863 76.6995 122.003 75.498C122.171 74.2965 122.254 73.1648 122.254 72.103C122.254 71.0412 122.185 69.9235 122.045 68.75C121.905 67.5485 121.612 66.4168 121.165 65.355C120.718 64.2932 120.061 63.427 119.195 62.7564C118.329 62.0857 117.169 61.7504 115.716 61.7504C114.263 61.7504 113.089 62.0857 112.195 62.7564C111.329 63.427 110.672 64.2932 110.225 65.355C109.778 66.3889 109.471 67.5065 109.303 68.7081C109.164 69.9096 109.094 71.0412 109.094 72.103C109.094 73.1648 109.164 74.2965 109.303 75.498C109.443 76.6716 109.722 77.7893 110.142 78.8511C110.589 79.9129 111.245 80.7791 112.111 81.4497C113.006 82.1203 114.193 82.4556 115.674 82.4556Z" fill="#213850"/>
<path d="M57.3822 125.995C56.24 125.995 55.2865 125.754 54.5216 125.272C53.7671 124.779 53.2013 124.109 52.8241 123.26C52.4573 122.401 52.274 121.421 52.274 120.321C52.274 119.231 52.4626 118.262 52.8398 117.413C53.217 116.554 53.7829 115.878 54.5373 115.386C55.3022 114.883 56.261 114.631 57.4136 114.631C58.2309 114.631 58.933 114.762 59.5197 115.024C60.117 115.276 60.599 115.627 60.9657 116.077C61.3325 116.528 61.584 117.057 61.7202 117.665H60.337C60.1799 117.12 59.8393 116.685 59.3154 116.36C58.802 116.035 58.1523 115.873 57.3664 115.873C56.4863 115.873 55.7737 116.082 55.2289 116.502C54.6945 116.91 54.3015 117.45 54.05 118.12C53.7986 118.781 53.6728 119.498 53.6728 120.274C53.6728 121.091 53.8038 121.84 54.0658 122.521C54.3277 123.202 54.7364 123.747 55.2917 124.156C55.8471 124.554 56.5544 124.753 57.4136 124.753C57.9375 124.753 58.4038 124.68 58.8124 124.533C59.2316 124.386 59.5774 124.177 59.8498 123.904C60.1327 123.632 60.3266 123.318 60.4314 122.961H61.9245C61.7673 123.569 61.4844 124.104 61.0758 124.565C60.6776 125.015 60.1694 125.366 59.5512 125.618C58.933 125.869 58.2099 125.995 57.3822 125.995ZM66.2897 125.869V118.765H63.4448V117.586H70.4705V118.765H67.6257V125.869H66.2897ZM74.7904 125.963C74.4132 125.963 74.0464 125.916 73.6902 125.822C73.3444 125.717 73.03 125.565 72.7471 125.366C72.4747 125.157 72.2546 124.9 72.087 124.596C71.9298 124.282 71.8512 123.92 71.8512 123.512C71.8512 123.04 71.935 122.642 72.1027 122.317C72.2808 121.992 72.5166 121.735 72.81 121.547C73.1034 121.358 73.4439 121.222 73.8316 121.138C74.2193 121.054 74.6227 121.012 75.0419 121.012H77.4781C77.4781 120.541 77.41 120.132 77.2738 119.786C77.148 119.441 76.9384 119.173 76.6451 118.985C76.3517 118.786 75.964 118.686 75.482 118.686C75.1886 118.686 74.9161 118.718 74.6646 118.781C74.4132 118.843 74.1984 118.943 74.0202 119.079C73.8421 119.215 73.7111 119.399 73.6273 119.629H72.197C72.2704 119.252 72.4118 118.932 72.6214 118.671C72.8414 118.398 73.1034 118.178 73.4072 118.01C73.7216 117.832 74.0569 117.701 74.4132 117.617C74.7694 117.534 75.1257 117.492 75.482 117.492C76.2783 117.492 76.9175 117.654 77.3995 117.979C77.8815 118.293 78.2325 118.744 78.4526 119.331C78.6726 119.907 78.7826 120.593 78.7826 121.39V125.869H77.6667L77.5881 124.816C77.3576 125.13 77.0799 125.371 76.7551 125.539C76.4302 125.707 76.0949 125.817 75.7492 125.869C75.4139 125.932 75.0943 125.963 74.7904 125.963ZM74.9161 124.785C75.44 124.785 75.8906 124.701 76.2678 124.533C76.6555 124.355 76.9542 124.098 77.1637 123.763C77.3733 123.428 77.4781 123.019 77.4781 122.537V122.128H76.0164C75.6706 122.128 75.33 122.134 74.9947 122.144C74.6594 122.155 74.3555 122.196 74.0831 122.27C73.8107 122.343 73.5906 122.469 73.423 122.647C73.2658 122.825 73.1872 123.082 73.1872 123.417C73.1872 123.732 73.2658 123.988 73.423 124.187C73.5906 124.386 73.8054 124.538 74.0674 124.643C74.3398 124.737 74.6227 124.785 74.9161 124.785ZM81.324 125.869V117.586H82.6599V121.217H86.8094V117.586H88.1453V125.869H86.8094V122.396H82.6599V125.869H81.324ZM90.0214 128.415V124.706C90.3253 124.706 90.5663 124.622 90.7444 124.455C90.933 124.287 91.0797 124.067 91.1845 123.794C91.2893 123.522 91.3678 123.229 91.4202 122.914C91.4726 122.589 91.5145 122.28 91.546 121.987C91.5984 121.505 91.6298 121.028 91.6403 120.557C91.6612 120.075 91.6717 119.692 91.6717 119.409C91.6822 119.105 91.6874 118.802 91.6874 118.498C91.6874 118.194 91.6874 117.89 91.6874 117.586H97.5658V124.706H98.6503V128.415H97.3615V125.869H91.3102V128.415H90.0214ZM92.1432 124.706H96.2298V118.765H92.9606C92.9501 119.205 92.9396 119.697 92.9291 120.242C92.9186 120.787 92.8977 121.295 92.8662 121.767C92.8558 122.039 92.8296 122.348 92.7877 122.694C92.7562 123.04 92.6934 123.391 92.599 123.747C92.5047 124.093 92.3528 124.413 92.1432 124.706ZM103.173 125.963C102.796 125.963 102.429 125.916 102.073 125.822C101.727 125.717 101.413 125.565 101.13 125.366C100.858 125.157 100.638 124.9 100.47 124.596C100.313 124.282 100.234 123.92 100.234 123.512C100.234 123.04 100.318 122.642 100.486 122.317C100.664 121.992 100.9 121.735 101.193 121.547C101.486 121.358 101.827 121.222 102.215 121.138C102.602 121.054 103.006 121.012 103.425 121.012H105.861C105.861 120.541 105.793 120.132 105.657 119.786C105.531 119.441 105.321 119.173 105.028 118.985C104.735 118.786 104.347 118.686 103.865 118.686C103.572 118.686 103.299 118.718 103.048 118.781C102.796 118.843 102.581 118.943 102.403 119.079C102.225 119.215 102.094 119.399 102.01 119.629H100.58C100.653 119.252 100.795 118.932 101.004 118.671C101.224 118.398 101.486 118.178 101.79 118.01C102.105 117.832 102.44 117.701 102.796 117.617C103.152 117.534 103.509 117.492 103.865 117.492C104.661 117.492 105.3 117.654 105.782 117.979C106.264 118.293 106.615 118.744 106.836 119.331C107.056 119.907 107.166 120.593 107.166 121.39V125.869H106.05L105.971 124.816C105.741 125.13 105.463 125.371 105.138 125.539C104.813 125.707 104.478 125.817 104.132 125.869C103.797 125.932 103.477 125.963 103.173 125.963ZM103.299 124.785C103.823 124.785 104.274 124.701 104.651 124.533C105.039 124.355 105.337 124.098 105.547 123.763C105.756 123.428 105.861 123.019 105.861 122.537V122.128H104.399C104.054 122.128 103.713 122.134 103.378 122.144C103.042 122.155 102.739 122.196 102.466 122.27C102.194 122.343 101.974 122.469 101.806 122.647C101.649 122.825 101.57 123.082 101.57 123.417C101.57 123.732 101.649 123.988 101.806 124.187C101.974 124.386 102.188 124.538 102.45 124.643C102.723 124.737 103.006 124.785 103.299 124.785ZM109.707 128.855V117.586H110.98L111.043 118.859C111.326 118.409 111.708 118.068 112.19 117.837C112.683 117.607 113.212 117.492 113.778 117.492C114.616 117.492 115.302 117.68 115.837 118.058C116.371 118.424 116.764 118.927 117.016 119.566C117.278 120.206 117.409 120.929 117.409 121.735C117.409 122.542 117.278 123.265 117.016 123.904C116.754 124.544 116.35 125.047 115.805 125.413C115.26 125.78 114.564 125.963 113.715 125.963C113.296 125.963 112.919 125.922 112.583 125.838C112.248 125.743 111.955 125.612 111.703 125.445C111.452 125.277 111.232 125.089 111.043 124.879V128.855H109.707ZM113.605 124.785C114.213 124.785 114.695 124.648 115.051 124.376C115.407 124.093 115.664 123.721 115.821 123.26C115.989 122.799 116.073 122.291 116.073 121.735C116.073 121.17 115.989 120.656 115.821 120.195C115.664 119.734 115.402 119.367 115.035 119.095C114.668 118.822 114.181 118.686 113.573 118.686C113.029 118.686 112.562 118.828 112.175 119.111C111.797 119.383 111.509 119.755 111.31 120.227C111.111 120.688 111.011 121.196 111.011 121.751C111.011 122.327 111.106 122.846 111.294 123.307C111.483 123.768 111.771 124.13 112.159 124.392C112.547 124.654 113.029 124.785 113.605 124.785ZM121.536 125.869V118.765H118.691V117.586H125.717V118.765H122.872V125.869H121.536ZM127.381 125.869V117.586H128.717V121.217H132.866V117.586H134.202V125.869H132.866V122.396H128.717V125.869H127.381ZM136.785 125.869V117.586H138.153V120.745H139.646C140.138 120.745 140.584 120.787 140.982 120.871C141.38 120.955 141.721 121.091 142.003 121.28C142.286 121.468 142.501 121.725 142.648 122.05C142.795 122.364 142.868 122.762 142.868 123.244C142.868 123.705 142.789 124.104 142.632 124.439C142.475 124.774 142.25 125.047 141.956 125.256C141.673 125.466 141.333 125.623 140.935 125.728C140.547 125.822 140.123 125.869 139.662 125.869H136.785ZM138.153 124.706H138.593C138.959 124.706 139.316 124.701 139.662 124.69C140.007 124.669 140.316 124.617 140.589 124.533C140.872 124.449 141.097 124.313 141.265 124.124C141.432 123.925 141.516 123.648 141.516 123.291C141.516 122.956 141.448 122.699 141.312 122.521C141.186 122.333 141.018 122.196 140.809 122.113C140.599 122.018 140.369 121.961 140.117 121.94C139.876 121.919 139.635 121.908 139.394 121.908H138.153V124.706ZM144.015 125.869V117.586H145.351V125.869H144.015ZM147.091 125.869L150.046 121.641L147.233 117.586H148.836L150.942 120.73L152.985 117.586H154.541L151.744 121.688L154.746 125.869H153.158L150.864 122.71L148.6 125.869H147.091ZM161.193 125.869V117.586H162.985L165.672 121.735L168.313 117.586H170.073V125.869H168.753V119.063L165.829 123.747H165.452L162.513 119.063V125.869H161.193ZM175.311 125.963C174.933 125.963 174.567 125.916 174.21 125.822C173.865 125.717 173.55 125.565 173.267 125.366C172.995 125.157 172.775 124.9 172.607 124.596C172.45 124.282 172.371 123.92 172.371 123.512C172.371 123.04 172.455 122.642 172.623 122.317C172.801 121.992 173.037 121.735 173.33 121.547C173.624 121.358 173.964 121.222 174.352 121.138C174.739 121.054 175.143 121.012 175.562 121.012H177.998C177.998 120.541 177.93 120.132 177.794 119.786C177.668 119.441 177.459 119.173 177.165 118.985C176.872 118.786 176.484 118.686 176.002 118.686C175.709 118.686 175.436 118.718 175.185 118.781C174.933 118.843 174.719 118.943 174.54 119.079C174.362 119.215 174.231 119.399 174.147 119.629H172.717C172.79 119.252 172.932 118.932 173.142 118.671C173.362 118.398 173.624 118.178 173.927 118.01C174.242 117.832 174.577 117.701 174.933 117.617C175.29 117.534 175.646 117.492 176.002 117.492C176.798 117.492 177.438 117.654 177.92 117.979C178.402 118.293 178.753 118.744 178.973 119.331C179.193 119.907 179.303 120.593 179.303 121.39V125.869H178.187L178.108 124.816C177.878 125.13 177.6 125.371 177.275 125.539C176.95 125.707 176.615 125.817 176.269 125.869C175.934 125.932 175.614 125.963 175.311 125.963ZM175.436 124.785C175.96 124.785 176.411 124.701 176.788 124.533C177.176 124.355 177.474 124.098 177.684 123.763C177.893 123.428 177.998 123.019 177.998 122.537V122.128H176.536C176.191 122.128 175.85 122.134 175.515 122.144C175.18 122.155 174.876 122.196 174.603 122.27C174.331 122.343 174.111 122.469 173.943 122.647C173.786 122.825 173.707 123.082 173.707 123.417C173.707 123.732 173.786 123.988 173.943 124.187C174.111 124.386 174.326 124.538 174.588 124.643C174.86 124.737 175.143 124.785 175.436 124.785ZM181.844 128.855V117.586H183.117L183.18 118.859C183.463 118.409 183.845 118.068 184.327 117.837C184.82 117.607 185.349 117.492 185.915 117.492C186.753 117.492 187.44 117.68 187.974 118.058C188.508 118.424 188.901 118.927 189.153 119.566C189.415 120.206 189.546 120.929 189.546 121.735C189.546 122.542 189.415 123.265 189.153 123.904C188.891 124.544 188.487 125.047 187.942 125.413C187.398 125.78 186.701 125.963 185.852 125.963C185.433 125.963 185.056 125.922 184.72 125.838C184.385 125.743 184.092 125.612 183.84 125.445C183.589 125.277 183.369 125.089 183.18 124.879V128.855H181.844ZM185.742 124.785C186.35 124.785 186.832 124.648 187.188 124.376C187.544 124.093 187.801 123.721 187.958 123.26C188.126 122.799 188.21 122.291 188.21 121.735C188.21 121.17 188.126 120.656 187.958 120.195C187.801 119.734 187.539 119.367 187.172 119.095C186.806 118.822 186.318 118.686 185.711 118.686C185.166 118.686 184.699 118.828 184.312 119.111C183.935 119.383 183.646 119.755 183.447 120.227C183.248 120.688 183.149 121.196 183.149 121.751C183.149 122.327 183.243 122.846 183.432 123.307C183.62 123.768 183.908 124.13 184.296 124.392C184.684 124.654 185.166 124.785 185.742 124.785ZM195.355 125.963C194.485 125.963 193.757 125.785 193.17 125.429C192.583 125.062 192.143 124.559 191.85 123.92C191.567 123.281 191.426 122.553 191.426 121.735C191.426 120.908 191.567 120.179 191.85 119.551C192.143 118.912 192.583 118.409 193.17 118.042C193.757 117.675 194.496 117.492 195.386 117.492C196.256 117.492 196.979 117.675 197.555 118.042C198.142 118.409 198.577 118.912 198.86 119.551C199.153 120.179 199.3 120.908 199.3 121.735C199.3 122.553 199.153 123.281 198.86 123.92C198.567 124.559 198.127 125.062 197.54 125.429C196.963 125.785 196.235 125.963 195.355 125.963ZM195.355 124.785C195.963 124.785 196.455 124.648 196.832 124.376C197.22 124.104 197.503 123.737 197.681 123.276C197.87 122.815 197.964 122.301 197.964 121.735C197.964 121.17 197.87 120.656 197.681 120.195C197.503 119.734 197.22 119.367 196.832 119.095C196.455 118.822 195.963 118.686 195.355 118.686C194.758 118.686 194.265 118.822 193.878 119.095C193.5 119.367 193.217 119.734 193.029 120.195C192.851 120.656 192.762 121.17 192.762 121.735C192.762 122.301 192.851 122.815 193.029 123.276C193.217 123.737 193.5 124.104 193.878 124.376C194.265 124.648 194.758 124.785 195.355 124.785ZM201.559 125.869V117.586H202.895V121.154H204.341L206.793 117.586H208.318L205.551 121.531L208.553 125.869H206.982L204.498 122.317H202.895V125.869H201.559ZM215.156 129.421V128.148C215.67 128.148 216.078 128.075 216.382 127.928C216.686 127.792 216.937 127.572 217.137 127.268C217.346 126.975 217.545 126.597 217.734 126.136L214.103 117.586H215.675L218.472 124.565L220.767 117.586H222.276L219.95 124.109C219.835 124.444 219.704 124.821 219.557 125.24C219.41 125.66 219.248 126.084 219.07 126.514C218.892 126.954 218.693 127.357 218.472 127.724C218.263 128.101 218.027 128.405 217.765 128.635C217.545 128.835 217.33 128.992 217.121 129.107C216.911 129.222 216.655 129.301 216.351 129.343C216.057 129.395 215.659 129.421 215.156 129.421ZM223.279 128.415V124.706C223.583 124.706 223.824 124.622 224.002 124.455C224.191 124.287 224.338 124.067 224.442 123.794C224.547 123.522 224.626 123.229 224.678 122.914C224.731 122.589 224.773 122.28 224.804 121.987C224.856 121.505 224.888 121.028 224.898 120.557C224.919 120.075 224.93 119.692 224.93 119.409C224.94 119.105 224.945 118.802 224.945 118.498C224.945 118.194 224.945 117.89 224.945 117.586H230.824V124.706H231.908V128.415H230.619V125.869H224.568V128.415H223.279ZM225.401 124.706H229.488V118.765H226.219C226.208 119.205 226.198 119.697 226.187 120.242C226.177 120.787 226.156 121.295 226.124 121.767C226.114 122.039 226.088 122.348 226.046 122.694C226.014 123.04 225.951 123.391 225.857 123.747C225.763 124.093 225.611 124.413 225.401 124.706ZM237.39 125.963C236.52 125.963 235.792 125.785 235.205 125.429C234.619 125.062 234.178 124.559 233.885 123.92C233.602 123.281 233.461 122.553 233.461 121.735C233.461 120.908 233.602 120.179 233.885 119.551C234.178 118.912 234.619 118.409 235.205 118.042C235.792 117.675 236.531 117.492 237.422 117.492C238.291 117.492 239.014 117.675 239.591 118.042C240.177 118.409 240.612 118.912 240.895 119.551C241.188 120.179 241.335 120.908 241.335 121.735C241.335 122.553 241.188 123.281 240.895 123.92C240.602 124.559 240.162 125.062 239.575 125.429C238.999 125.785 238.27 125.963 237.39 125.963ZM237.39 124.785C237.998 124.785 238.49 124.648 238.868 124.376C239.255 124.104 239.538 123.737 239.716 123.276C239.905 122.815 239.999 122.301 239.999 121.735C239.999 121.17 239.905 120.656 239.716 120.195C239.538 119.734 239.255 119.367 238.868 119.095C238.49 118.822 237.998 118.686 237.39 118.686C236.793 118.686 236.3 118.822 235.913 119.095C235.535 119.367 235.253 119.734 235.064 120.195C234.886 120.656 234.797 121.17 234.797 121.735C234.797 122.301 234.886 122.815 235.064 123.276C235.253 123.737 235.535 124.104 235.913 124.376C236.3 124.648 236.793 124.785 237.39 124.785ZM247.237 125.963C246.713 125.963 246.247 125.89 245.838 125.743C245.429 125.586 245.078 125.371 244.785 125.099C244.492 124.816 244.251 124.486 244.062 124.109C243.873 123.721 243.732 123.302 243.638 122.851C243.543 122.401 243.496 121.924 243.496 121.421C243.496 120.614 243.512 119.865 243.543 119.173C243.585 118.471 243.701 117.848 243.889 117.303C244.078 116.748 244.397 116.287 244.848 115.92C245.298 115.553 245.932 115.297 246.75 115.15C247.169 115.076 247.583 115.014 247.991 114.961C248.4 114.909 248.814 114.856 249.233 114.804C249.369 114.783 249.511 114.762 249.657 114.741C249.804 114.72 249.956 114.694 250.113 114.663C250.281 114.631 250.438 114.605 250.585 114.584V115.81C250.47 115.852 250.344 115.889 250.208 115.92C250.082 115.941 249.946 115.962 249.799 115.983C249.663 116.004 249.521 116.02 249.375 116.03C249.238 116.04 249.102 116.056 248.966 116.077C248.83 116.088 248.699 116.103 248.573 116.124C248.206 116.166 247.819 116.208 247.41 116.25C247.001 116.281 246.614 116.365 246.247 116.502C245.891 116.627 245.587 116.873 245.335 117.24C245.209 117.429 245.099 117.654 245.005 117.916C244.921 118.178 244.858 118.445 244.816 118.718C244.785 118.98 244.764 119.231 244.754 119.472C244.963 119.179 245.22 118.943 245.524 118.765C245.828 118.576 246.152 118.44 246.498 118.356C246.844 118.262 247.174 118.215 247.488 118.215C248.243 118.215 248.882 118.372 249.406 118.686C249.93 118.99 250.328 119.425 250.601 119.991C250.873 120.557 251.009 121.217 251.009 121.971C251.009 122.726 250.862 123.407 250.569 124.014C250.276 124.612 249.846 125.089 249.28 125.445C248.725 125.791 248.044 125.963 247.237 125.963ZM247.268 124.785C247.792 124.785 248.232 124.659 248.589 124.407C248.945 124.156 249.212 123.821 249.39 123.401C249.579 122.982 249.673 122.521 249.673 122.018C249.673 121.526 249.579 121.086 249.39 120.698C249.212 120.3 248.945 119.986 248.589 119.755C248.243 119.525 247.813 119.409 247.3 119.409C246.797 119.409 246.362 119.53 245.995 119.771C245.639 120.012 245.361 120.337 245.162 120.745C244.974 121.143 244.879 121.578 244.879 122.05C244.879 122.532 244.968 122.982 245.147 123.401C245.325 123.821 245.587 124.156 245.932 124.407C246.289 124.659 246.734 124.785 247.268 124.785ZM253.275 128.855V117.586H254.548L254.611 118.859C254.894 118.409 255.277 118.068 255.759 117.837C256.251 117.607 256.78 117.492 257.346 117.492C258.184 117.492 258.871 117.68 259.405 118.058C259.939 118.424 260.332 118.927 260.584 119.566C260.846 120.206 260.977 120.929 260.977 121.735C260.977 122.542 260.846 123.265 260.584 123.904C260.322 124.544 259.918 125.047 259.374 125.413C258.829 125.78 258.132 125.963 257.283 125.963C256.864 125.963 256.487 125.922 256.152 125.838C255.816 125.743 255.523 125.612 255.271 125.445C255.02 125.277 254.8 125.089 254.611 124.879V128.855H253.275ZM257.173 124.785C257.781 124.785 258.263 124.648 258.619 124.376C258.975 124.093 259.232 123.721 259.389 123.26C259.557 122.799 259.641 122.291 259.641 121.735C259.641 121.17 259.557 120.656 259.389 120.195C259.232 119.734 258.97 119.367 258.603 119.095C258.237 118.822 257.749 118.686 257.142 118.686C256.597 118.686 256.131 118.828 255.743 119.111C255.366 119.383 255.077 119.755 254.878 120.227C254.679 120.688 254.58 121.196 254.58 121.751C254.58 122.327 254.674 122.846 254.863 123.307C255.051 123.768 255.339 124.13 255.727 124.392C256.115 124.654 256.597 124.785 257.173 124.785ZM266.755 125.963C265.874 125.963 265.146 125.785 264.57 125.429C263.994 125.062 263.564 124.559 263.281 123.92C262.998 123.281 262.857 122.553 262.857 121.735C262.857 120.908 263.003 120.179 263.297 119.551C263.601 118.912 264.041 118.409 264.617 118.042C265.193 117.675 265.901 117.492 266.739 117.492C267.357 117.492 267.897 117.612 268.358 117.853C268.829 118.084 269.217 118.398 269.521 118.796C269.835 119.194 270.061 119.64 270.197 120.132C270.344 120.625 270.406 121.133 270.385 121.657C270.375 121.751 270.37 121.845 270.37 121.94C270.37 122.034 270.364 122.128 270.354 122.223H264.208C264.25 122.705 264.371 123.14 264.57 123.527C264.769 123.915 265.052 124.224 265.419 124.455C265.785 124.675 266.241 124.785 266.786 124.785C267.059 124.785 267.331 124.753 267.603 124.69C267.886 124.617 268.138 124.496 268.358 124.329C268.588 124.161 268.751 123.936 268.845 123.653H270.213C270.087 124.187 269.851 124.627 269.505 124.973C269.159 125.309 268.746 125.56 268.264 125.728C267.782 125.885 267.279 125.963 266.755 125.963ZM264.24 121.06H269.034C269.023 120.588 268.918 120.174 268.719 119.818C268.52 119.462 268.248 119.184 267.902 118.985C267.567 118.786 267.163 118.686 266.692 118.686C266.178 118.686 265.744 118.796 265.387 119.016C265.041 119.236 264.774 119.525 264.586 119.881C264.397 120.237 264.282 120.63 264.24 121.06ZM272.653 125.869V117.586H273.989V121.217H278.138V117.586H279.474V125.869H278.138V122.396H273.989V125.869H272.653ZM282.057 125.869V117.586H283.393V123.936C283.467 123.789 283.566 123.632 283.692 123.464C283.818 123.286 283.917 123.15 283.991 123.056L287.998 117.586H289.319V125.869H287.983V119.519C287.899 119.676 287.805 119.823 287.7 119.959C287.606 120.096 287.516 120.221 287.433 120.337L283.362 125.869H282.057ZM291.373 125.869L293.526 122.6C292.929 122.432 292.458 122.16 292.112 121.783C291.766 121.395 291.593 120.881 291.593 120.242C291.593 119.739 291.666 119.32 291.813 118.985C291.96 118.639 292.175 118.367 292.458 118.168C292.74 117.958 293.081 117.811 293.479 117.727C293.877 117.633 294.333 117.586 294.847 117.586H298.179V125.869H296.843V122.804H294.941L292.929 125.869H291.373ZM295.853 121.641H296.843V118.765H295.067C294.752 118.765 294.464 118.781 294.202 118.812C293.94 118.843 293.715 118.912 293.526 119.016C293.348 119.111 293.207 119.252 293.102 119.441C292.997 119.619 292.945 119.865 292.945 120.179C292.945 120.525 293.029 120.798 293.196 120.997C293.374 121.196 293.6 121.343 293.872 121.437C294.155 121.521 294.469 121.578 294.815 121.61C295.161 121.631 295.507 121.641 295.853 121.641ZM305.467 125.869V117.586H308.673C309.04 117.586 309.402 117.612 309.758 117.665C310.125 117.707 310.455 117.801 310.748 117.948C311.052 118.084 311.293 118.288 311.471 118.561C311.66 118.833 311.754 119.194 311.754 119.645C311.754 119.917 311.712 120.169 311.628 120.399C311.545 120.619 311.419 120.813 311.251 120.981C311.094 121.149 310.89 121.295 310.638 121.421C311.204 121.547 311.613 121.793 311.864 122.16C312.116 122.527 312.241 122.946 312.241 123.417C312.241 123.836 312.163 124.203 312.006 124.517C311.859 124.821 311.649 125.073 311.377 125.272C311.115 125.471 310.806 125.623 310.45 125.728C310.104 125.822 309.732 125.869 309.334 125.869H305.467ZM306.835 124.706H309.019C309.344 124.706 309.648 124.675 309.931 124.612C310.214 124.549 310.444 124.434 310.622 124.266C310.801 124.088 310.89 123.836 310.89 123.512C310.89 123.176 310.811 122.925 310.654 122.757C310.507 122.579 310.313 122.458 310.072 122.396C309.842 122.322 309.59 122.28 309.318 122.27C309.045 122.259 308.789 122.254 308.548 122.254H306.835V124.706ZM306.835 121.122H307.982C308.191 121.122 308.432 121.112 308.705 121.091C308.988 121.07 309.26 121.023 309.522 120.95C309.795 120.866 310.015 120.74 310.182 120.572C310.36 120.405 310.45 120.174 310.45 119.881C310.45 119.493 310.34 119.226 310.119 119.079C309.91 118.922 309.658 118.833 309.365 118.812C309.072 118.781 308.799 118.765 308.548 118.765H306.835V121.122ZM319.242 125.869V117.586H320.578V121.154H322.024L324.476 117.586H326.001L323.234 121.531L326.236 125.869H324.665L322.181 122.317H320.578V125.869H319.242ZM330.367 125.963C329.989 125.963 329.623 125.916 329.266 125.822C328.921 125.717 328.606 125.565 328.323 125.366C328.051 125.157 327.831 124.9 327.663 124.596C327.506 124.282 327.428 123.92 327.428 123.512C327.428 123.04 327.511 122.642 327.679 122.317C327.857 121.992 328.093 121.735 328.386 121.547C328.68 121.358 329.02 121.222 329.408 121.138C329.796 121.054 330.199 121.012 330.618 121.012H333.054C333.054 120.541 332.986 120.132 332.85 119.786C332.724 119.441 332.515 119.173 332.221 118.985C331.928 118.786 331.54 118.686 331.058 118.686C330.765 118.686 330.492 118.718 330.241 118.781C329.989 118.843 329.775 118.943 329.597 119.079C329.418 119.215 329.287 119.399 329.204 119.629H327.773C327.847 119.252 327.988 118.932 328.198 118.671C328.418 118.398 328.68 118.178 328.984 118.01C329.298 117.832 329.633 117.701 329.989 117.617C330.346 117.534 330.702 117.492 331.058 117.492C331.855 117.492 332.494 117.654 332.976 117.979C333.458 118.293 333.809 118.744 334.029 119.331C334.249 119.907 334.359 120.593 334.359 121.39V125.869H333.243L333.164 124.816C332.934 125.13 332.656 125.371 332.331 125.539C332.007 125.707 331.671 125.817 331.325 125.869C330.99 125.932 330.671 125.963 330.367 125.963ZM330.492 124.785C331.016 124.785 331.467 124.701 331.844 124.533C332.232 124.355 332.53 124.098 332.74 123.763C332.95 123.428 333.054 123.019 333.054 122.537V122.128H331.593C331.247 122.128 330.906 122.134 330.571 122.144C330.236 122.155 329.932 122.196 329.659 122.27C329.387 122.343 329.167 122.469 328.999 122.647C328.842 122.825 328.764 123.082 328.764 123.417C328.764 123.732 328.842 123.988 328.999 124.187C329.167 124.386 329.382 124.538 329.644 124.643C329.916 124.737 330.199 124.785 330.492 124.785ZM338.834 125.869V118.765H335.989V117.586H343.014V118.765H340.17V125.869H338.834ZM347.334 125.963C346.957 125.963 346.59 125.916 346.234 125.822C345.888 125.717 345.574 125.565 345.291 125.366C345.019 125.157 344.798 124.9 344.631 124.596C344.474 124.282 344.395 123.92 344.395 123.512C344.395 123.04 344.479 122.642 344.647 122.317C344.825 121.992 345.06 121.735 345.354 121.547C345.647 121.358 345.988 121.222 346.375 121.138C346.763 121.054 347.167 121.012 347.586 121.012H350.022C350.022 120.541 349.954 120.132 349.818 119.786C349.692 119.441 349.482 119.173 349.189 118.985C348.896 118.786 348.508 118.686 348.026 118.686C347.732 118.686 347.46 118.718 347.208 118.781C346.957 118.843 346.742 118.943 346.564 119.079C346.386 119.215 346.255 119.399 346.171 119.629H344.741C344.814 119.252 344.956 118.932 345.165 118.671C345.385 118.398 345.647 118.178 345.951 118.01C346.265 117.832 346.601 117.701 346.957 117.617C347.313 117.534 347.67 117.492 348.026 117.492C348.822 117.492 349.461 117.654 349.943 117.979C350.425 118.293 350.776 118.744 350.996 119.331C351.216 119.907 351.326 120.593 351.326 121.39V125.869H350.211L350.132 124.816C349.901 125.13 349.624 125.371 349.299 125.539C348.974 125.707 348.639 125.817 348.293 125.869C347.958 125.932 347.638 125.963 347.334 125.963ZM347.46 124.785C347.984 124.785 348.434 124.701 348.812 124.533C349.199 124.355 349.498 124.098 349.708 123.763C349.917 123.428 350.022 123.019 350.022 122.537V122.128H348.56C348.214 122.128 347.874 122.134 347.539 122.144C347.203 122.155 346.899 122.196 346.627 122.27C346.355 122.343 346.134 122.469 345.967 122.647C345.81 122.825 345.731 123.082 345.731 123.417C345.731 123.732 345.81 123.988 345.967 124.187C346.134 124.386 346.349 124.538 346.611 124.643C346.884 124.737 347.167 124.785 347.46 124.785ZM353.113 125.885V124.722C353.323 124.722 353.512 124.68 353.679 124.596C353.847 124.502 353.994 124.366 354.119 124.187C354.266 123.978 354.381 123.674 354.465 123.276C354.549 122.878 354.607 122.453 354.638 122.003C354.68 121.5 354.711 121.007 354.732 120.525C354.753 120.033 354.769 119.545 354.779 119.063C354.8 118.581 354.811 118.089 354.811 117.586H360.563V125.869H359.227V118.765H356.115C356.105 119.121 356.089 119.483 356.068 119.849C356.058 120.206 356.042 120.567 356.021 120.934C356.011 121.29 355.995 121.652 355.974 122.018C355.963 122.437 355.922 122.909 355.848 123.433C355.775 123.957 355.618 124.434 355.377 124.863C355.146 125.272 354.863 125.544 354.528 125.681C354.203 125.817 353.732 125.885 353.113 125.885ZM366.749 125.963C365.88 125.963 365.151 125.785 364.565 125.429C363.978 125.062 363.538 124.559 363.244 123.92C362.961 123.281 362.82 122.553 362.82 121.735C362.82 120.908 362.961 120.179 363.244 119.551C363.538 118.912 363.978 118.409 364.565 118.042C365.151 117.675 365.89 117.492 366.781 117.492C367.651 117.492 368.374 117.675 368.95 118.042C369.537 118.409 369.971 118.912 370.254 119.551C370.548 120.179 370.694 120.908 370.694 121.735C370.694 122.553 370.548 123.281 370.254 123.92C369.961 124.559 369.521 125.062 368.934 125.429C368.358 125.785 367.63 125.963 366.749 125.963ZM366.749 124.785C367.357 124.785 367.85 124.648 368.227 124.376C368.615 124.104 368.897 123.737 369.076 123.276C369.264 122.815 369.358 122.301 369.358 121.735C369.358 121.17 369.264 120.656 369.076 120.195C368.897 119.734 368.615 119.367 368.227 119.095C367.85 118.822 367.357 118.686 366.749 118.686C366.152 118.686 365.66 118.822 365.272 119.095C364.895 119.367 364.612 119.734 364.423 120.195C364.245 120.656 364.156 121.17 364.156 121.735C364.156 122.301 364.245 122.815 364.423 123.276C364.612 123.737 364.895 124.104 365.272 124.376C365.66 124.648 366.152 124.785 366.749 124.785ZM372.953 125.869V117.586H378.675V118.765H374.289V125.869H372.953ZM383.992 125.963C383.112 125.963 382.384 125.785 381.808 125.429C381.231 125.062 380.802 124.559 380.519 123.92C380.236 123.281 380.095 122.553 380.095 121.735C380.095 120.908 380.241 120.179 380.535 119.551C380.838 118.912 381.279 118.409 381.855 118.042C382.431 117.675 383.138 117.492 383.977 117.492C384.595 117.492 385.135 117.612 385.596 117.853C386.067 118.084 386.455 118.398 386.759 118.796C387.073 119.194 387.298 119.64 387.435 120.132C387.581 120.625 387.644 121.133 387.623 121.657C387.613 121.751 387.607 121.845 387.607 121.94C387.607 122.034 387.602 122.128 387.592 122.223H381.446C381.488 122.705 381.609 123.14 381.808 123.527C382.007 123.915 382.29 124.224 382.656 124.455C383.023 124.675 383.479 124.785 384.024 124.785C384.296 124.785 384.569 124.753 384.841 124.69C385.124 124.617 385.376 124.496 385.596 124.329C385.826 124.161 385.989 123.936 386.083 123.653H387.45C387.325 124.187 387.089 124.627 386.743 124.973C386.397 125.309 385.983 125.56 385.501 125.728C385.019 125.885 384.516 125.963 383.992 125.963ZM381.478 121.06H386.272C386.261 120.588 386.156 120.174 385.957 119.818C385.758 119.462 385.486 119.184 385.14 118.985C384.805 118.786 384.401 118.686 383.93 118.686C383.416 118.686 382.981 118.796 382.625 119.016C382.279 119.236 382.012 119.525 381.823 119.881C381.635 120.237 381.52 120.63 381.478 121.06Z" fill="#213850"/>
<rect x="518.197" y="79.0898" width="52.3917" height="52.3917" rx="26.1958" transform="rotate(44.3952 518.197 79.0898)" fill="#78C4FF"/>
<path d="M521.612 115.327L518.127 111.916C517.962 111.754 517.868 111.532 517.865 111.301C517.863 111.069 517.952 110.846 518.114 110.681C518.276 110.515 518.497 110.421 518.729 110.418C518.961 110.416 519.184 110.506 519.349 110.668L524.341 115.555C524.423 115.635 524.488 115.73 524.534 115.836C524.579 115.941 524.603 116.055 524.604 116.169C524.605 116.284 524.584 116.398 524.541 116.505C524.498 116.611 524.434 116.708 524.354 116.79L519.466 121.781C519.304 121.946 519.083 122.041 518.852 122.043C518.62 122.046 518.397 121.956 518.232 121.794C518.066 121.632 517.972 121.411 517.969 121.179C517.967 120.948 518.057 120.725 518.219 120.559L521.631 117.074L513.26 117.162C513.029 117.165 512.806 117.075 512.64 116.913C512.475 116.751 512.38 116.53 512.378 116.298C512.376 116.066 512.465 115.843 512.627 115.678C512.79 115.512 513.011 115.418 513.242 115.416L521.612 115.327Z" fill="white"/>
<path d="M550.584 116.362C550.584 134.591 535.806 149.369 517.577 149.369C499.348 149.369 484.57 134.592 484.57 116.362C484.57 98.1332 499.348 83.3555 517.577 83.3555C535.806 83.3556 550.584 98.1333 550.584 116.362Z" stroke="#599AFB" stroke-opacity="0.14" stroke-width="0.805046"/>
<defs>
<filter id="filter0_d_19_4112" x="0.000959396" y="-0.000109673" width="578.928" height="187.736" filterUnits="userSpaceOnUse" color-interpolation-filters="sRGB">
<feFlood flood-opacity="0" result="BackgroundImageFix"/>
<feColorMatrix in="SourceAlpha" type="matrix" values="0 0 0 0 0 0 0 0 0 0 0 0 0 0 0 0 0 0 127 0" result="hardAlpha"/>
<feOffset dy="5.23917"/>
<feGaussianBlur stdDeviation="8.73194"/>
<feComposite in2="hardAlpha" operator="out"/>
<feColorMatrix type="matrix" values="0 0 0 0 0.441667 0 0 0 0 0.720834 0 0 0 0 1 0 0 0 0.09 0"/>
<feBlend mode="normal" in2="BackgroundImageFix" result="effect1_dropShadow_19_4112"/>
<feBlend mode="normal" in="SourceGraphic" in2="effect1_dropShadow_19_4112" result="shape"/>
</filter>
</defs>
</svg>
