<svg width="0" height="0" class="hidden">
    <symbol version="1.1" xmlns="http://www.w3.org/2000/svg" viewBox="0 0 799 448" id="logo">
        <path fill="currentColor" d="M792.809 317.023l-62.267-35.928c-1.425-0.945-3.098-1.449-4.809-1.449l-1.446-69.679c-0.108-4.063-1.279-8.026-3.401-11.496-2.116-3.469-5.106-6.323-8.669-8.278l-57.441-31.1c0.497-1.316 0.745-2.714 0.723-4.12l-2.656-97.166c-0.032-2.036-0.605-4.027-1.668-5.765-1.058-1.738-2.569-3.16-4.367-4.118l-85.687-46.512c-1.781-0.966-3.783-1.451-5.808-1.409s-4.005 0.611-5.743 1.649l-83.053 50.873c-1.729 1.057-3.15 2.548-4.124 4.326s-1.465 3.779-1.425 5.805l2.658 97.165c0.029 2.037 0.604 4.028 1.665 5.766s2.568 3.16 4.365 4.117l85.674 46.292c1.787 0.972 3.794 1.46 5.824 1.418 2.035-0.042 4.021-0.614 5.764-1.659l83.026-50.873c1.571-0.967 2.887-2.289 3.859-3.86l57.436 31.1c3.174 1.751 5.84 4.292 7.74 7.376 1.905 3.084 2.979 6.607 3.12 10.227l1.452 69.678c-1.517 0.263-2.979 0.751-4.351 1.449l-62.267 35.928c-1.776 1.021-3.249 2.497-4.27 4.277-1.015 1.78-1.543 3.798-1.522 5.848v71.849c0.011 2.044 0.55 4.050 1.565 5.824 1.009 1.774 2.467 3.255 4.226 4.299l62.267 35.928c1.743 1.065 3.751 1.628 5.797 1.628 2.040 0 4.048-0.564 5.792-1.628l62.267-35.928c1.776-1.021 3.249-2.497 4.27-4.277 1.015-1.779 1.543-3.798 1.522-5.847v-71.849c-0.081-2.026-0.68-3.997-1.732-5.727-1.058-1.73-2.542-3.161-4.307-4.157z"></path>
        <path fill="currentColor" d="M1.451 180.803l-1.449-52.316c-0.038-2.025 0.453-4.025 1.427-5.801s2.395-3.266 4.123-4.323l44.644-27.473c1.746-1.055 3.737-1.633 5.776-1.679s4.054 0.443 5.845 1.418l46.093 25.076c1.797 0.958 3.304 2.38 4.365 4.118s1.635 3.729 1.665 5.766l1.449 52.323c0.039 2.025-0.453 4.025-1.427 5.801s-2.395 3.266-4.123 4.323l-44.644 27.247c-1.749 1.049-3.742 1.623-5.78 1.662s-4.053-0.455-5.841-1.435l-46.093-24.815c-1.798-0.958-3.306-2.381-4.367-4.121s-1.635-3.732-1.664-5.769z"></path>
        <path fill="currentColor" d="M127.197 235.281v43.16c-0.031 0.501-0.244 0.975-0.599 1.33s-0.829 0.569-1.33 0.6h-10.625c-0.502-0.031-0.975-0.244-1.33-0.6s-0.569-0.829-0.6-1.33v-43.16c-0.031-0.502-0.244-0.975-0.6-1.33s-0.829-0.569-1.33-0.6h-19.306c-0.501-0.031-0.975-0.244-1.33-0.6s-0.568-0.829-0.6-1.33v-7.472c0.031-0.502 0.245-0.975 0.6-1.33s0.829-0.569 1.33-0.6h57.199c0.501 0.031 0.975 0.244 1.33 0.6s0.569 0.829 0.6 1.33v7.472c-0.031 0.502-0.244 0.975-0.6 1.33s-0.829 0.569-1.33 0.6h-19.293c-0.273-0.030-0.549-0.002-0.81 0.081s-0.503 0.22-0.708 0.402c-0.206 0.182-0.371 0.404-0.486 0.654s-0.176 0.519-0.18 0.794z"></path>
        <path fill="currentColor" d="M206.38 259.891c0 16.876-6.758 21.697-20.515 21.697-5.367 0.065-10.696-0.917-15.687-2.891-0.304-0.122-0.635-0.164-0.96-0.123s-0.635 0.163-0.9 0.356c-0.266 0.193-0.478 0.449-0.617 0.746s-0.202 0.623-0.181 0.951c0.121 2.089 0.121 4.182 0 6.271v7.713c-0.031 0.502-0.244 0.975-0.6 1.33s-0.829 0.568-1.33 0.6h-10.165c-0.502-0.031-0.975-0.245-1.33-0.6s-0.569-0.829-0.6-1.33v-54.012c0.031-0.502 0.244-0.975 0.6-1.33s0.829-0.569 1.33-0.6h7.967c0.432 0.014 0.848 0.161 1.194 0.42s0.602 0.619 0.736 1.029l0.24 1.69c0.045 0.314 0.17 0.61 0.364 0.861s0.45 0.446 0.742 0.568c0.293 0.122 0.612 0.166 0.926 0.127s0.613-0.158 0.868-0.347c5.759-3.489 12.334-5.4 19.066-5.543 13.51-0.007 18.853 8.434 18.853 22.418zM191.901 259.891c0-9.883-2.898-11.813-9.657-11.813-4.653 0.057-9.248 1.040-13.517 2.891-0.382 0.149-0.705 0.417-0.924 0.765s-0.317 0.756-0.285 1.165v15.673c0.022 0.466 0.201 0.91 0.508 1.26s0.723 0.587 1.182 0.67c3.972 0.839 8.010 1.324 12.068 1.449 7.693-0.247 10.591-1.697 10.591-12.061h0.035z"></path>
        <path fill="currentColor" d="M265.488 253.128v25.316c-0.031 0.502-0.244 0.975-0.599 1.33s-0.829 0.568-1.33 0.6h-7.72c-0.431-0.014-0.848-0.161-1.194-0.42s-0.602-0.619-0.736-1.029l-0.481-2.651c-0.081-0.319-0.238-0.615-0.456-0.861s-0.494-0.437-0.801-0.556c-0.308-0.118-0.639-0.161-0.967-0.125s-0.641 0.15-0.915 0.332c-5.261 4.049-11.707 6.252-18.345 6.271-9.897 0-17.136-4.121-17.136-11.813v-4.334c0-6.751 6.030-10.852 15.927-10.852h20.276v-1.208c0-3.86-2.17-5.062-9.41-5.062-5.069 0-13.276 0.24-21.237 0.48-0.477 0.020-0.944-0.145-1.302-0.459s-0.584-0.755-0.628-1.23l-0.721-5.303c-0.058-0.256-0.058-0.522-0.001-0.78s0.171-0.498 0.332-0.705c0.162-0.208 0.368-0.377 0.602-0.496s0.493-0.183 0.756-0.191c8.491-1.027 17.031-1.591 25.584-1.69 13.263-0.24 20.502 3.372 20.502 15.433zM228.805 267.592c0 2.651 2.17 3.86 6.999 3.86 4.97-0.235 9.83-1.552 14.238-3.86 0.323-0.138 0.593-0.377 0.767-0.682s0.245-0.658 0.201-1.007v-1.69c-0.031-0.501-0.245-0.975-0.6-1.33s-0.829-0.568-1.33-0.599h-14.485c-4.341 0-6.031 1.449-6.031 3.619v1.69h0.241z"></path>
        <path fill="currentColor" d="M326.811 280.386h-9.897c-0.502-0.031-0.975-0.245-1.33-0.6s-0.568-0.829-0.6-1.33v-13.503c-0.031-0.501-0.244-0.975-0.6-1.33s-0.829-0.569-1.33-0.6h-19.066c-0.502 0.031-0.975 0.244-1.33 0.6s-0.569 0.829-0.6 1.33v13.503c-0.031 0.502-0.244 0.975-0.6 1.33s-0.829 0.568-1.33 0.6h-10.138c-0.502-0.031-0.975-0.245-1.33-0.6s-0.569-0.829-0.6-1.33v-37.851c0.031-0.501 0.244-0.975 0.6-1.33s0.829-0.568 1.33-0.599h10.138c0.501 0.031 0.975 0.244 1.33 0.599s0.569 0.829 0.6 1.33v11.333c0.031 0.502 0.245 0.975 0.6 1.33s0.829 0.568 1.33 0.6h19.087c0.501-0.031 0.975-0.245 1.33-0.6s0.568-0.829 0.6-1.33v-11.333c0.031-0.501 0.244-0.975 0.599-1.33s0.829-0.568 1.33-0.599h9.877c0.502 0.031 0.975 0.244 1.33 0.599s0.569 0.829 0.6 1.33v38.092c-0.044 0.475-0.268 0.915-0.628 1.23s-0.825 0.479-1.302 0.459z"></path>
        <path fill="currentColor" d="M385.189 241.805l-0.968 5.302c-0.084 0.458-0.319 0.875-0.67 1.182s-0.795 0.486-1.26 0.507c-5.069 0-9.897-0.24-13.517-0.24-10.859 0-14.238 2.411-14.238 10.852 0 8.681 3.619 10.852 14.238 10.852 3.139 0 8.929 0 14.479-0.481 0.495 0.013 0.973 0.183 1.363 0.488s0.673 0.725 0.807 1.202l0.721 5.302c0.085 0.446 0.010 0.908-0.21 1.305s-0.574 0.703-0.998 0.866c-6.050 1.676-12.308 2.488-18.585 2.411-19.547 0-26.786-5.783-26.786-21.938s7.239-21.938 26.786-21.938c5.943-0.068 11.868 0.662 17.617 2.17 0.423 0.16 0.778 0.463 1.001 0.857s0.302 0.854 0.221 1.3z"></path>
        <path fill="currentColor" d="M434.177 266.874l-4.808 12.294c-0.124 0.351-0.352 0.654-0.654 0.871s-0.664 0.334-1.035 0.339h-10.639c-0.321 0.021-0.641-0.044-0.928-0.189s-0.529-0.365-0.702-0.636c-0.173-0.271-0.269-0.584-0.28-0.905s0.066-0.64 0.22-0.921l21.477-52.082c0.344-1.068 1.022-1.997 1.935-2.649s2.012-0.993 3.133-0.971h13.997c1.129-0.057 2.244 0.27 3.164 0.928s1.591 1.606 1.904 2.692l21.477 52.082c0.105 0.286 0.142 0.591 0.109 0.894s-0.135 0.593-0.298 0.85c-0.163 0.256-0.384 0.472-0.644 0.63s-0.553 0.252-0.856 0.279h-10.619c-0.371-0.004-0.732-0.122-1.035-0.339s-0.531-0.52-0.655-0.871l-4.808-12.294c-0.124-0.35-0.353-0.654-0.655-0.87s-0.663-0.335-1.035-0.339h-25.585c-1.222 0.007-1.944 0.487-2.184 1.208zM451.794 238.426c-0.815-1.845-1.383-3.789-1.69-5.783h-2.658c-0.534 1.963-1.179 3.893-1.93 5.783l-5.55 13.984c-0.104 0.286-0.141 0.591-0.109 0.894s0.136 0.593 0.298 0.85c0.164 0.256 0.384 0.472 0.644 0.63s0.553 0.252 0.857 0.279h13.983c0.321 0.021 0.641-0.044 0.928-0.189s0.529-0.365 0.702-0.636 0.269-0.584 0.28-0.905c0.010-0.321-0.066-0.639-0.22-0.921l-5.536-13.984z"></path>
        <path fill="currentColor" d="M533.144 241.075l-0.48 6.030c-0.044 0.476-0.268 0.916-0.628 1.231s-0.825 0.479-1.302 0.459h-21.237c-3.86 0-5.309 0.961-5.309 3.372v26.299c-0.031 0.502-0.244 0.975-0.6 1.33s-0.829 0.569-1.33 0.6h-10.137c-0.502-0.031-0.975-0.244-1.33-0.6s-0.569-0.829-0.6-1.33v-30.138c0-6.992 4.341-10.364 13.276-10.364 9.342-0.178 18.687 0.143 27.995 0.961 0.472 0.134 0.889 0.414 1.192 0.801s0.474 0.859 0.49 1.349z"></path>
        <path fill="currentColor" d="M594.221 259.891c0 16.876-6.758 21.697-20.516 21.697-5.365 0.065-10.698-0.917-15.685-2.891-0.308-0.122-0.637-0.164-0.961-0.123-0.329 0.041-0.637 0.163-0.901 0.356s-0.475 0.449-0.615 0.746c-0.14 0.296-0.205 0.623-0.183 0.951 0.124 2.089 0.124 4.182 0 6.271v7.713c-0.032 0.502-0.243 0.975-0.599 1.33s-0.826 0.568-1.328 0.6h-10.142c-0.502-0.031-0.972-0.245-1.328-0.6s-0.567-0.829-0.599-1.33v-54.012c0.032-0.502 0.243-0.975 0.599-1.33s0.826-0.569 1.328-0.6h7.972c0.427 0.014 0.847 0.161 1.193 0.42s0.599 0.619 0.734 1.029l0.243 1.69c0.043 0.314 0.167 0.61 0.362 0.861s0.448 0.446 0.739 0.568c0.297 0.122 0.615 0.166 0.928 0.127s0.615-0.158 0.869-0.347c5.759-3.489 12.334-5.4 19.065-5.543 13.483-0.007 18.827 8.434 18.827 22.418zM579.739 259.891c0-9.883-2.898-11.813-9.656-11.813-4.653 0.057-9.246 1.040-13.516 2.891-0.383 0.149-0.707 0.417-0.923 0.765s-0.319 0.756-0.286 1.165v15.673c0.021 0.466 0.199 0.91 0.507 1.26s0.723 0.587 1.182 0.67c3.972 0.839 8.010 1.324 12.069 1.449 7.692-0.247 10.59-1.697 10.59-12.061h0.032z"></path>
        <path fill="currentColor" d="M657.184 259.658c0 16.154-7.238 21.938-27.031 21.938-19.798 0-27.037-5.79-27.037-21.938s7.481-22.185 27.037-22.185c19.793 0 27.031 6.030 27.031 22.185zM617.841 259.658c0 9.615 2.661 12.054 12.312 12.054 9.408 0 12.306-2.411 12.306-12.054 0-9.884-2.898-12.294-12.306-12.294-9.413 0-12.312 2.404-12.312 12.294z"></path>
    </symbol>
    <symbol version="1.1" xmlns="http://www.w3.org/2000/svg" viewBox="0 0 448 448" id="shop">
        <path fill="currentColor" d="M214.671 54.019c21.565 0.001 42.244 8.569 57.493 23.818 14.78 14.781 23.258 34.664 23.766 55.511h37.74c11.043 0.001 21.632 4.392 29.442 12.199 7.811 7.811 12.199 18.407 12.199 29.453v132.229c-0.022 18.052-7.193 35.361-19.957 48.126-12.765 12.764-30.074 19.935-48.126 19.957h-185.114c-18.050-0.021-35.361-7.196-48.125-19.957-12.764-12.765-19.948-30.074-19.971-48.126v-132.229c0-11.046 4.388-21.642 12.198-29.453 7.811-7.81 18.409-12.199 29.454-12.199h37.728c0.509-20.846 8.988-40.73 23.766-55.511 15.25-15.25 35.939-23.818 57.506-23.818zM95.671 163.766c-2.98 0-5.845 1.175-7.952 3.281-2.108 2.108-3.294 4.971-3.294 7.952v132.229c0.001 9.992 3.976 19.571 11.040 26.636 7.067 7.067 16.655 11.041 26.649 11.041h185.114c9.992-0.001 19.571-3.975 26.636-11.041s11.039-16.645 11.041-26.636v-132.229c0-2.981-1.187-5.844-3.294-7.952-2.107-2.103-4.962-3.279-7.94-3.281h-37.689v24.462c-0.001 4.029-1.602 7.894-4.452 10.744s-6.724 4.452-10.757 4.452c-4.031-0.001-7.894-1.602-10.744-4.452s-4.451-6.713-4.452-10.744v-24.462h-101.809v24.462c-0.001 4.031-1.614 7.894-4.466 10.744-2.85 2.85-6.712 4.451-10.744 4.452-4.032 0-7.906-1.601-10.757-4.452-2.849-2.85-4.451-6.715-4.452-10.744v-24.462h-37.676zM214.671 84.425c-13.501 0-26.457 5.367-36.003 14.913-9.076 9.077-14.364 21.231-14.863 34.009h101.72c-0.499-12.779-5.785-24.931-14.863-34.009-9.545-9.545-22.491-14.913-35.99-14.913z"></path>
    </symbol>
    <symbol version="1.1" xmlns="http://www.w3.org/2000/svg" viewBox="0 0 448 448" id="profile">
        <path stroke-linejoin="miter" stroke-linecap="butt" stroke-miterlimit="4" stroke-width="6.4112" stroke="currentColor" fill="currentColor" d="M231.103 71.48c24.392 0 48.114 8.006 67.516 22.788 19.401 14.784 33.418 35.532 39.889 59.049 6.471 23.52 5.041 48.517-4.066 71.146-8.278 20.566-22.496 38.129-40.751 50.53 39.229 14.449 72.739 42.398 94.847 80.616h-0.013c1.042 1.717 1.745 3.625 2.046 5.611 0.304 2.005 0.202 4.054-0.297 6.022-0.499 1.97-1.398 3.821-2.625 5.443-1.227 1.62-2.768 2.985-4.529 4.002-1.759 1.015-3.699 1.677-5.713 1.93-2.016 0.252-4.066 0.087-6.023-0.464-1.956-0.552-3.79-1.484-5.379-2.754-1.568-1.253-2.867-2.808-3.834-4.567v0.012c-27.75-47.957-76.748-76.537-131.069-76.537-54.32 0.003-103.309 28.581-131.058 76.537l-0.013-0.012c-0.966 1.757-2.255 3.315-3.822 4.567-1.589 1.27-3.422 2.202-5.379 2.754s-4.005 0.715-6.022 0.464c-2.017-0.253-3.966-0.914-5.726-1.93-1.759-1.017-3.29-2.382-4.516-4.002-1.227-1.622-2.125-3.473-2.625-5.443-0.498-1.967-0.6-4.015-0.296-6.022 0.305-2.009 1.010-3.942 2.072-5.675 22.105-38.196 55.593-66.122 94.796-80.552-18.253-12.402-32.463-29.967-40.74-50.53-9.108-22.629-10.537-47.626-4.066-71.146 6.472-23.517 20.477-44.265 39.876-59.049 19.402-14.785 43.124-22.788 67.518-22.788zM246.905 103.533c-15.701-3.123-31.985-1.519-46.774 4.606-14.788 6.126-27.432 16.493-36.326 29.802-8.893 13.31-13.639 28.963-13.639 44.972l0.103 4.015c1.013 19.998 9.412 38.969 23.637 53.195 15.172 15.171 35.741 23.69 57.198 23.715 16.008 0 31.662-4.733 44.971-13.626 13.311-8.894 23.689-21.536 29.814-36.326 6.126-14.788 7.729-31.061 4.608-46.761-3.124-15.701-10.839-30.127-22.159-41.447-11.317-11.317-25.736-19.022-41.433-22.145z"></path>
    </symbol>
    <symbol version="1.1" xmlns="http://www.w3.org/2000/svg" viewBox="0 0 448 448" id="loop">
        <path fill="none" stroke-linejoin="round" stroke-linecap="round" stroke-miterlimit="4" stroke-width="33.6" stroke="currentColor" d="M209.479 325.625c64.146 0 116.146-52 116.146-116.146s-52-116.146-116.146-116.146c-64.145 0-116.146 52-116.146 116.146s52 116.146 116.146 116.146z"></path>
        <path fill="none" stroke-linejoin="round" stroke-linecap="round" stroke-miterlimit="4" stroke-width="33.6" stroke="currentColor" d="M354.676 354.676l-63.155-63.155"></path>
    </symbol>
    <symbol version="1.1" xmlns="http://www.w3.org/2000/svg" viewBox="0 0 448 448" id="chevron-down">
        <path fill="currentColor" d="M222.674 248.515l92.4-92.4c3.52-3.401 8.236-5.282 13.13-5.239s9.576 2.005 13.037 5.467c3.462 3.461 5.425 8.143 5.467 13.037 0.043 4.895-1.839 9.61-5.238 13.131l-105.598 105.597c-3.501 3.5-8.247 5.466-13.197 5.466s-9.697-1.966-13.198-5.466l-105.597-105.597c-3.4-3.521-5.282-8.236-5.239-13.131s2.005-9.576 5.467-13.037 8.143-5.424 13.037-5.467c4.895-0.043 9.61 1.839 13.131 5.239l92.4 92.4z"></path>
    </symbol>
    <symbol version="1.1" xmlns="http://www.w3.org/2000/svg" viewBox="0 0 448 448" id="chevron-left">
        <path fill="currentColor" d="M199.496 225.316l92.399-92.4c3.4-3.521 5.282-8.236 5.239-13.13s-2.006-9.576-5.467-13.037c-3.461-3.461-8.143-5.424-13.037-5.467s-9.61 1.839-13.13 5.239l-105.597 105.598c-3.5 3.5-5.466 8.247-5.466 13.197s1.966 9.697 5.466 13.197l105.597 105.597c3.521 3.401 8.236 5.281 13.13 5.24 4.894-0.043 9.576-2.007 13.037-5.467s5.424-8.142 5.467-13.037c0.042-4.894-1.839-9.61-5.239-13.13l-92.399-92.4z"></path>
    </symbol>
    <symbol version="1.1" xmlns="http://www.w3.org/2000/svg" viewBox="0 0 448 448" id="chevron-right">
        <path fill="currentColor" d="M248.504 225.316l-92.399-92.4c-3.4-3.521-5.282-8.236-5.239-13.13s2.006-9.576 5.467-13.037c3.461-3.461 8.143-5.424 13.037-5.467s9.61 1.839 13.13 5.239l105.597 105.598c3.5 3.5 5.466 8.247 5.466 13.197s-1.966 9.697-5.466 13.197l-105.597 105.597c-3.521 3.401-8.236 5.281-13.13 5.24-4.894-0.043-9.576-2.007-13.037-5.467s-5.424-8.142-5.467-13.037c-0.042-4.894 1.839-9.61 5.239-13.13l92.399-92.4z"></path>
    </symbol>
    <symbol version="1.1" xmlns="http://www.w3.org/2000/svg" viewBox="0 0 448 448" id="branch">
        <path stroke-linejoin="miter" stroke-linecap="butt" stroke-miterlimit="4" stroke-width="5.6" stroke="currentColor" fill="currentColor" d="M74.32 71.987c7.192-0.794 14.803 2.544 19.852 8.44l3.136 3.391c15.922 16.288 34.827 22.512 56.747 22.513 14.070 0 27.482-1.757 40.687-3.555 13.145-1.789 26.152-3.627 39.101-3.628 75.081 0 130.228 48.423 130.23 116.011 0 18.342-3.793 35.245-10.664 50.239 7.105 10.050 15.010 22.019 21.601 33.96 4.131 7.482 7.791 14.989 10.41 22.040 2.606 7.017 4.247 13.75 4.247 19.615 0 14.121-10.099 26.537-23.552 26.54-3.185 0-6.449-0.788-9.279-2.789-2.843-2.012-5.040-5.103-6.362-9.333-2.432-7.769-4.523-15.215-6.545-22.294-2.027-7.095-3.991-13.821-6.179-20.235-1.87-5.475-3.924-10.698-6.291-15.695-23.345 23.595-57.732 37.552-98.237 37.552-54.409 0-99.494-19.397-130.957-53.721-31.442-34.304-49.073-83.283-49.073-142.079 0-8.442 0.939-35.443 4.776-50.951 2.435-9.986 8.89-15.197 16.352-16.023zM83.654 111.161c-1.081 7.951-1.276 18.284-1.276 27.8 0 51.236 14.724 92.857 40.797 121.642 26.046 28.756 63.66 44.972 110.049 44.972 30.346 0 55.763-9.345 73.556-25.228 2.742-2.449 5.277-5.081 7.655-7.84-9.679-9.552-22.085-16.404-35.455-22.658-15.684-7.338-32.844-13.987-47.049-23.425-36.915-18.448-64.205-28.913-86.461-49l-5.305-4.776 7.146-0.109c4.184-0.056 9.937 0.932 16.479 2.516 6.603 1.598 14.23 3.857 22.239 6.471 16.023 5.23 33.741 11.911 48.234 17.645h-0.019c47.813 15.264 76.569 24.924 97.181 41.599 2.251-7.989 3.463-16.554 3.463-25.611 0-50.395-41.298-86.826-101.045-86.826-10.237 0.001-20.979 1.379-33.486 3.099h-0.019c-13.707 1.869-29.201 4.083-46.284 4.083-24.965-0.001-52.269-8.741-70.401-24.354z"></path>
    </symbol>
    <symbol version="1.1" xmlns="http://www.w3.org/2000/svg" viewBox="0 0 448 448" id="sunrise-alt">
        <path fill="currentColor" d="M242.667 93.333c0-10.309-8.357-18.667-18.667-18.667s-18.667 8.358-18.667 18.667v18.667c0 10.309 8.357 18.667 18.667 18.667s18.667-8.358 18.667-18.667v-18.667z"></path>
        <path fill="currentColor" d="M168.531 354.667c-0.363 0.011-0.726 0.011-1.089 0h-111.441c-10.309 0-18.667-8.357-18.667-18.667s8.358-18.667 18.667-18.667h70.988c-9.527-16.47-14.988-35.597-14.988-56 0-61.856 50.144-112 112-112s112 50.144 112 112c0 20.403-5.462 39.53-14.987 56h70.987c10.31 0 18.667 8.357 18.667 18.667s-8.357 18.667-18.667 18.667h-111.442c-0.362 0.011-0.726 0.011-1.088 0h-110.94zM224 186.667c-41.237 0-74.667 33.43-74.667 74.667 0 22.288 9.75 42.297 25.277 56h98.78c15.527-13.703 25.277-33.712 25.277-56 0-41.237-33.43-74.667-74.667-74.667z"></path>
        <path fill="currentColor" d="M355.994 155.739l-13.199 13.199c-7.289 7.29-19.109 7.29-26.398 0s-7.289-19.109 0-26.399l13.199-13.199c7.289-7.29 19.109-7.29 26.398 0s7.289 19.109 0 26.399z"></path>
        <path fill="currentColor" d="M74.667 280c10.309 0 18.667-8.357 18.667-18.667s-8.358-18.667-18.667-18.667h-18.667c-10.309 0-18.667 8.357-18.667 18.667s8.358 18.667 18.667 18.667h18.667z"></path>
        <path fill="currentColor" d="M410.667 261.333c0 10.31-8.357 18.667-18.667 18.667h-18.667c-10.31 0-18.667-8.357-18.667-18.667s8.357-18.667 18.667-18.667h18.667c10.31 0 18.667 8.357 18.667 18.667z"></path>
        <path fill="currentColor" d="M105.206 168.938c7.29 7.29 19.109 7.29 26.399 0s7.29-19.109 0-26.399l-13.199-13.199c-7.29-7.29-19.109-7.29-26.399 0s-7.29 19.109 0 26.399l13.199 13.199z"></path>
    </symbol>
    <symbol version="1.1" xmlns="http://www.w3.org/2000/svg" viewBox="0 0 448 448" id="delivery">
        <path fill="none" stroke-linejoin="round" stroke-linecap="round" stroke-miterlimit="4" stroke-width="37.3333" stroke="currentColor" d="M171.862 307.151c0 26.243-20.749 47.516-46.345 47.516s-46.345-21.273-46.345-47.516M171.862 307.151c0-26.242-20.749-47.514-46.345-47.514s-46.345 21.273-46.345 47.514M171.862 307.151h104.276M79.173 307.151h-23.173v-195.151c0-10.309 8.358-18.667 18.667-18.667h201.471v213.817M380.414 307.151c0 26.243-20.75 47.516-46.344 47.516-25.596 0-46.346-21.273-46.346-47.516M380.414 307.151c0-26.242-20.75-47.514-46.344-47.514-25.596 0-46.346 21.273-46.346 47.514M380.414 307.151h11.586v-95.030l-57.93-59.393h-57.932v154.423M287.724 307.151h-11.586"></path>
    </symbol>
    <symbol version="1.1" xmlns="http://www.w3.org/2000/svg" viewBox="0 0 448 448" id="wa">
        <path fill="currentColor" d="M59.67 314.238l-26.639 97.264 99.536-26.099c27.426 14.955 58.303 22.837 89.725 22.851h0.081c103.483 0 187.721-84.216 187.765-187.704 0.020-50.158-19.499-97.317-54.944-132.797-35.454-35.48-82.596-55.026-132.821-55.050-103.499 0-187.724 84.2-187.766 187.696-0.010 33.082 8.634 65.374 25.064 93.839zM66.31 220.409c0.032-86.018 70.038-156 156.124-156 41.687 0.017 80.865 16.264 110.333 45.752s45.682 68.688 45.668 110.375c-0.036 86.025-70.042 156.014-156.061 156.014h-0.060c-28.011-0.014-55.475-7.532-79.431-21.75l-5.704-3.38-59.067 15.487 15.77-57.568-3.713-5.9c-15.621-24.843-23.87-53.553-23.857-83.030z"></path>
        <path fill="currentColor" d="M175.447 141.928c-3.517-7.811-7.217-7.969-10.557-8.106-2.736-0.116-5.866-0.109-8.992-0.109-3.13 0-8.211 1.175-12.509 5.87-4.301 4.695-16.423 16.043-16.423 39.126s16.814 45.386 19.156 48.52c2.346 3.13 32.455 52.012 80.145 70.815 39.63 15.63 47.693 12.519 56.299 11.74 8.602-0.781 27.756-11.348 31.665-22.305 3.909-10.954 3.909-20.339 2.738-22.302-1.176-1.959-4.301-3.13-8.996-5.476-4.69-2.345-27.756-13.697-32.057-15.262s-7.427-2.346-10.557 2.349c-3.126 4.695-12.111 15.259-14.851 18.389-2.736 3.133-5.472 3.524-10.167 1.178-4.691-2.352-19.803-7.301-37.727-23.284-13.948-12.435-23.362-27.792-26.101-32.487-2.736-4.695-0.292-7.234 2.061-9.572 2.107-2.103 4.691-5.479 7.041-8.218 2.338-2.74 3.122-4.695 4.684-7.821 1.565-3.133 0.784-5.873-0.39-8.218-1.171-2.345-10.29-25.549-14.461-34.825z"></path>
    </symbol>
    <symbol version="1.1" xmlns="http://www.w3.org/2000/svg" viewBox="0 0 448 448" id="tg">
        <path fill="currentColor" d="M402.864 60.893c0 3.16 0 6.32 0 9.479-19.686 97.827-39.252 195.778-58.697 293.854-7.448 13.552-18.263 17.078-32.448 10.573-45.582-34.823-91.034-69.823-136.354-105 54.825-48.927 109.513-98.023 164.063-147.292 2.821-2.577 5.372-5.372 7.655-8.386 1.090-4.255-0.489-5.835-4.739-4.739-3.606 1.317-7.007 3.018-10.207 5.104-68.977 44.149-138.126 88.021-207.449 131.615-27.047-9.259-54.148-18.374-81.302-27.345-6.183-2.339-10.801-6.35-13.854-12.031 0-2.675 0-5.348 0-8.021 3.137-4.467 7.269-7.749 12.396-9.843 111.62-43.608 223.183-87.358 334.688-131.251 7.179-3.229 14.47-3.715 21.875-1.458 1.717 1.396 3.175 2.975 4.374 4.739z"></path>
    </symbol>

    <symbol version="1.1" xmlns="http://www.w3.org/2000/svg" viewBox="0 0 448 448" id="download">
        <path fill="currentColor" d="M250.391 261.331l73.718-73.718c3.5-3.5 8.249-5.467 13.199-5.467s9.699 1.967 13.199 5.467c3.502 3.502 5.467 8.249 5.467 13.201 0 4.95-1.966 9.697-5.467 13.199l-105.594 105.594c-1.73 1.74-3.787 3.121-6.052 4.064-2.266 0.943-4.695 1.428-7.147 1.428-2.455 0-4.883-0.485-7.149-1.428-2.264-0.943-4.321-2.324-6.050-4.064l-105.595-105.594c-3.501-3.502-5.467-8.249-5.467-13.199 0-4.952 1.967-9.699 5.467-13.201 3.5-3.5 8.249-5.467 13.199-5.467s9.699 1.967 13.199 5.467l73.731 73.731v-178.955c0.002-4.952 1.971-9.7 5.473-13.2 3.504-3.5 8.253-5.466 13.205-5.464 4.95 0.002 9.699 1.971 13.199 5.473s5.466 8.252 5.464 13.204v178.929z"></path>
        <path fill="none" stroke-linejoin="miter" stroke-linecap="round" stroke-miterlimit="4" stroke-width="37.3333" stroke="currentColor" d="M93.333 373.333h280"></path>
    </symbol>
    <symbol version="1.1" xmlns="http://www.w3.org/2000/svg" viewBox="0 0 448 448" id="star">
        <path fill="currentColor" d="M108.538 388.933c6.851 5.348 15.541 3.509 25.902-4.010l77.353-56.883c6.573-4.833 15.525-4.838 22.103-0.009l77.513 56.892c10.36 7.519 18.883 9.358 25.902 4.010 6.853-5.18 8.355-13.703 4.179-25.902l-30.541-90.884c-2.608-7.763 0.147-16.318 6.797-21.101l78.053-56.127c10.362-7.353 14.539-15.041 11.866-23.396-2.675-8.021-10.528-12.032-23.395-11.865l-95.725 0.585c-8.169 0.050-15.422-5.219-17.901-13.003l-29.088-91.357c-4.010-12.366-10.026-18.549-18.717-18.549-8.521 0-14.538 6.183-18.547 18.549l-29.089 91.357c-2.478 7.784-9.731 13.053-17.901 13.003l-95.723-0.585c-12.867-0.167-20.722 3.843-23.395 11.865-2.841 8.355 1.504 16.044 11.865 23.396l78.053 56.127c6.649 4.782 9.405 13.337 6.797 21.101l-30.538 90.884c-4.178 12.199-2.674 20.722 4.178 25.902z"></path>
        <path fill="none" stroke-linejoin="miter" stroke-linecap="butt" stroke-miterlimit="4" stroke-width="9.3333" stroke="currentColor" d="M223.845 79.278c-0.168-1.003-0.502-1.337-1.004-1.337-0.332 0-0.666 0.334-0.834 1.337l-29.077 96.757c-2.173 6.851-6.517 9.692-13.369 9.525l-101.101-1.838c-1.003 0-1.337 0-1.504 0.502-0.167 0.5 0 0.836 0.835 1.336l83.221 57.486c5.849 4.011 7.186 9.191 4.846 15.708l-33.016 94.901c-0.159 0.457-0.355 1.159-0.421 1.639-0.077 0.56 0.413 0.948 0.928 0.713 0.223-0.101 0.476-0.284 0.758-0.495l80.379-61.331c5.348-4.176 11.532-4.176 16.878 0l80.381 61.331c0.284 0.213 0.538 0.396 0.762 0.497 0.513 0.233 1.001-0.153 0.924-0.711-0.063-0.483-0.261-1.187-0.422-1.646l-33.014-94.898c-2.341-6.517-1.004-11.697 4.846-15.708l83.22-57.486c0.668-0.5 1.002-0.836 0.836-1.336-0.168-0.502-0.5-0.502-1.503-0.502l-101.102 1.838M108.538 388.933c6.851 5.348 15.541 3.509 25.902-4.010l77.353-56.883c6.573-4.833 15.525-4.838 22.103-0.009l77.513 56.892c10.36 7.519 18.883 9.358 25.902 4.010 6.853-5.18 8.355-13.703 4.179-25.902l-30.541-90.884c-2.608-7.763 0.147-16.318 6.797-21.101l78.053-56.127c10.362-7.353 14.539-15.041 11.866-23.396-2.675-8.021-10.528-12.032-23.395-11.865l-95.725 0.585c-8.169 0.050-15.422-5.219-17.901-13.003l-29.088-91.357c-4.010-12.366-10.026-18.549-18.717-18.549-8.521 0-14.538 6.183-18.547 18.549l-29.089 91.357c-2.478 7.784-9.731 13.053-17.901 13.003l-95.723-0.585c-12.867-0.167-20.722 3.843-23.395 11.865-2.841 8.355 1.504 16.044 11.865 23.396l78.053 56.127c6.649 4.782 9.405 13.337 6.797 21.101l-30.538 90.884c-4.178 12.199-2.674 20.722 4.178 25.902z"></path>
    </symbol>
    <symbol version="1.1" xmlns="http://www.w3.org/2000/svg" viewBox="0 0 448 448" id="vk">
        <path  fill="currentColor" d="M447.563 334.688c0 3.791 0 7.584 0 11.375-2.849 4.937-7.224 7.707-13.126 8.312-19.54 0.584-39.082 0.584-58.625 0-5.973-1.236-11.224-3.862-15.749-7.875-16.918-19.249-35-37.333-54.251-54.249-5.389-4.008-10.931-7.801-16.625-11.375-7.545-4.743-15.421-5.619-23.625-2.625-1.051 0.79-1.781 1.809-2.188 3.061-1.129 19.497-1.714 39.039-1.751 58.625-0.383 5.055-2.862 8.701-7.437 10.939-27.384 6.128-54.217 4.086-80.5-6.125-34.145-13.72-62.874-34.866-86.188-63.439-34.004-42.896-60.837-90.145-80.5-141.75-2.783-8.483-5.263-16.942-7.438-25.375 0-4.666 0-9.334 0-14 2.791-4.464 6.874-6.943 12.25-7.438 19.542-0.584 39.083-0.584 58.625 0 6.807 0.999 11.62 4.644 14.438 10.938 11.943 34.392 27.401 67.058 46.375 98 8.145 13.399 18.208 25.213 30.188 35.437 9.576 5.182 14.68 2.412 15.313-8.312 0.584-27.416 0.584-54.833 0-82.25-0.683-6.712-2.433-13.129-5.25-19.25-4.375-6.416-8.75-12.834-13.125-19.25-1.736-8.057 1.326-13.161 9.188-15.313 28.001-0.584 56.001-0.584 84.001 0 6.765 1.394 10.121 5.624 10.061 12.688 0.291 35.291 0.584 70.584 0.875 105.875 1.693 7.254 5.923 9.442 12.688 6.563 5.897-3.562 11.293-7.791 16.188-12.688 25.786-30.832 46.495-64.957 62.125-102.375 3.414-5.867 8.518-9.221 15.312-10.063 19.542-0.584 39.084-0.584 58.625 0 7.547 0.4 11.338 4.337 11.375 11.813-0.622 6.097-2.227 11.931-4.812 17.5-18.577 35.172-39.577 68.712-63 100.625-1.807 3.028-3.119 6.235-3.937 9.625 0.599 3.955 2.203 7.455 4.812 10.5 25.349 23.587 48.1 49.254 68.249 77 2.981 4.795 5.46 9.753 7.439 14.875z"></path>
    </symbol>
    <symbol version="1.1" xmlns="http://www.w3.org/2000/svg" viewBox="0 0 448 448" id="google">
        <path  fill="currentColor" d="M207.958 37.333c10.939 0 21.875 0 32.812 0 35.149 3.735 66.989 16.009 95.521 36.823 1.249 0.826 1.613 1.92 1.094 3.281-14.34 18.472-28.679 36.945-43.021 55.417-34.935-25.303-72.729-30.529-113.385-15.677-43.151 19.559-67.092 52.979-71.823 100.26-0.702 47.37 19.107 83.22 59.427 107.554 36.946 18.909 73.889 18.909 110.834 0 26.025-14.73 44.012-36.241 53.958-64.533-36.456-0.728-72.914-0.971-109.375-0.728 0-23.821 0-47.639 0-71.46 62.222 0 124.445 0 186.667 0 0 17.257 0 34.515 0 51.772-9.145 73.11-47.061 125.246-113.751 156.406-18.362 7.508-37.32 12.247-56.874 14.218-10.696 0-21.388 0-32.084 0-73.11-9.145-125.245-47.061-156.406-113.751-7.508-18.362-12.247-37.32-14.219-56.874 0-10.696 0-21.388 0-32.084 9.145-73.11 47.061-125.245 113.75-156.406 18.363-7.508 37.321-12.247 56.875-14.219z"></path>
    </symbol>
    <symbol version="1.1" xmlns="http://www.w3.org/2000/svg" viewBox="0 0 448 448" id="check">
        <path  fill="currentColor" d="M195.726 312.319c-2.451 0.004-4.878-0.474-7.144-1.409-2.264-0.935-4.322-2.309-6.055-4.041l-79.184-79.203c-1.784-1.721-3.208-3.78-4.187-6.057-0.98-2.275-1.497-4.725-1.52-7.203s0.448-4.937 1.384-7.231c0.937-2.296 2.321-4.381 4.073-6.134 1.751-1.755 3.835-3.142 6.128-4.082 2.293-0.939 4.751-1.413 7.229-1.394 2.478 0.021 4.928 0.534 7.206 1.51s4.339 2.397 6.062 4.179l65.987 65.987 118.813-118.777c3.5-3.503 8.247-5.471 13.199-5.473s9.701 1.964 13.205 5.464c3.502 3.5 5.471 8.249 5.473 13.2s-1.964 9.701-5.464 13.204l-132.011 132.011c-1.734 1.732-3.791 3.106-6.055 4.041-2.266 0.935-4.693 1.413-7.142 1.409z"></path>
    </symbol>
    <symbol version="1.1" xmlns="http://www.w3.org/2000/svg" viewBox="0 0 448 448" id="info">
        <path  fill="currentColor" d="M224 261.333c-4.614 0-9.126 1.368-12.964 3.933-3.836 2.563-6.826 6.207-8.592 10.47-1.768 4.265-2.229 8.956-1.329 13.483 0.902 4.525 3.123 8.684 6.386 11.947s7.422 5.484 11.947 6.386c4.527 0.9 9.219 0.439 13.483-1.327 4.263-1.768 7.907-4.758 10.47-8.594 2.565-3.838 3.933-8.35 3.933-12.964 0-6.188-2.458-12.124-6.834-16.499s-10.311-6.834-16.499-6.834zM224 233.333c4.95 0 9.699-1.967 13.199-5.467s5.467-8.249 5.467-13.199v-56c0-4.951-1.967-9.698-5.467-13.199s-8.249-5.467-13.199-5.467c-4.95 0-9.699 1.967-13.199 5.467s-5.467 8.249-5.467 13.199v56c0 4.95 1.967 9.699 5.467 13.199s8.249 5.467 13.199 5.467zM224 37.333c-36.919 0-73.009 10.948-103.706 31.459s-54.623 49.665-68.751 83.773c-14.129 34.108-17.825 71.641-10.622 107.851s24.981 69.47 51.087 95.577c26.106 26.105 59.367 43.883 95.576 51.087 36.21 7.202 73.743 3.506 107.85-10.623 34.11-14.129 63.263-38.054 83.774-68.751s31.459-66.787 31.459-103.706c-0.054-49.49-19.74-96.938-54.734-131.933s-82.441-54.679-131.932-54.734zM224 373.333c-29.534 0-58.407-8.758-82.965-25.166-24.558-16.41-43.698-39.732-55.001-67.019s-14.26-57.314-8.498-86.281c5.762-28.968 19.985-55.577 40.869-76.461s47.493-35.107 76.461-40.87c28.967-5.762 58.994-2.805 86.281 8.498s50.609 30.443 67.019 55.001c16.408 24.558 25.166 53.429 25.166 82.965-0.045 39.592-15.794 77.549-43.788 105.545-27.996 27.994-65.953 43.743-105.545 43.788z"></path>
    </symbol>
    <symbol version="1.1" xmlns="http://www.w3.org/2000/svg" viewBox="0 0 448 448" id="edit">
        <path fill="none" stroke-linejoin="round" stroke-linecap="round" stroke-miterlimit="4" stroke-width="37.3333" stroke="currentColor" d="M168 130.667h-56c-9.901 0-19.397 3.933-26.399 10.935s-10.935 16.497-10.935 26.399v168c0 9.901 3.933 19.397 10.935 26.398s16.497 10.935 26.399 10.935h168c9.901 0 19.397-3.933 26.398-10.935s10.935-16.498 10.935-26.398v-56"></path>
        <path fill="none"  stroke-linejoin="round" stroke-linecap="round" stroke-miterlimit="4" stroke-width="37.3333" stroke="currentColor" d="M168 280.004h56l158.667-158.666c7.426-7.426 11.598-17.498 11.598-28s-4.172-20.574-11.598-28c-7.426-7.426-17.498-11.598-28-11.598s-20.574 4.172-28 11.598l-158.667 158.666v56z"></path>
        <path fill="none"  stroke-linejoin="round" stroke-linecap="round" stroke-miterlimit="4" stroke-width="37.3333" stroke="currentColor" d="M298.667 93.333l56 56"></path>
    </symbol>
    <symbol version="1.1" xmlns="http://www.w3.org/2000/svg" viewBox="0 0 448 448" id="tips">
        <path fill="currentColor" d="M224 37.333c-36.919 0-73.009 10.948-103.706 31.459s-54.623 49.665-68.751 83.773c-14.129 34.108-17.825 71.641-10.622 107.851s24.981 69.47 51.087 95.577c26.106 26.105 59.367 43.883 95.576 51.087 36.21 7.202 73.743 3.506 107.85-10.623 34.11-14.129 63.263-38.054 83.774-68.751s31.459-66.787 31.459-103.706c-0.054-49.49-19.74-96.938-54.734-131.933s-82.441-54.679-131.932-54.734zM224 373.333c-29.534 0-58.407-8.758-82.965-25.166-24.558-16.41-43.698-39.732-55.001-67.019s-14.26-57.314-8.498-86.281c5.762-28.968 19.985-55.577 40.869-76.461s47.493-35.107 76.461-40.87c28.967-5.762 58.994-2.805 86.281 8.498s50.609 30.443 67.019 55.001c16.408 24.558 25.166 53.429 25.166 82.965-0.045 39.592-15.794 77.549-43.788 105.545-27.996 27.994-65.953 43.743-105.545 43.788z"></path>
        <path fill="currentColor" d="M211.906 258.981c-1.801 0-3.323-1.346-3.616-3.123-0.032-0.196-0.045-0.375-0.045-0.573 0-1.107 0-2.139 0-3.099 0-5.749 0.958-10.802 2.875-15.157s4.443-8.275 7.579-11.76c3.136-3.659 6.446-7.056 9.931-10.192 3.659-3.136 7.144-6.36 10.453-9.669 2.613-2.44 4.965-4.965 7.056-7.579s3.659-5.314 4.704-8.101c1.219-2.962 1.829-5.749 1.829-8.363 0-4.53-1.045-8.275-3.136-11.237-1.917-3.136-4.792-5.488-8.624-7.056-3.659-1.742-8.014-2.613-13.067-2.613-4.878 0-9.32 0.697-13.328 2.091s-7.317 3.571-9.931 6.533c-4.725 5.040-10.046 10.715-16.955 10.715h-2.103c-9.509 0-17.473-8.229-14.11-17.124 0.747-1.974 1.611-3.845 2.593-5.612 3.485-6.272 8.014-11.325 13.589-15.157s11.76-6.621 18.555-8.363c6.968-1.917 14.2-2.875 21.691-2.875 9.757 0 18.99 1.655 27.701 4.965s15.768 8.537 21.168 15.68c5.576 7.143 8.363 16.464 8.363 27.963 0 5.923-0.958 11.325-2.875 16.203-1.742 4.704-4.269 9.234-7.579 13.589-3.31 4.181-7.23 8.45-11.76 12.805-3.31 3.485-6.707 6.795-10.192 9.931s-6.446 6.533-8.885 10.192c-2.145 3.218-3.414 7.043-3.808 11.476-0.108 1.225-0.373 2.451-0.373 3.681 0 1.010-0.819 1.829-1.829 1.829h-25.87zM224.187 319.872c-5.576 0-10.366-1.742-14.373-5.227-4.008-3.659-6.011-8.712-6.011-15.157 0-6.621 2.003-11.672 6.011-15.157s8.798-5.227 14.373-5.227c5.576 0 10.366 1.742 14.373 5.227s6.011 8.536 6.011 15.157c0 6.446-2.003 11.499-6.011 15.157-4.008 3.485-8.798 5.227-14.373 5.227z"></path>
    </symbol>
    <symbol version="1.1" xmlns="http://www.w3.org/2000/svg" viewBox="0 0 448 448" id="exclamation">
        <path fill="currentColor" d="M224.018 261.324c-4.615 0-9.126 1.368-12.963 3.933s-6.828 6.208-8.594 10.472c-1.766 4.263-2.228 8.955-1.328 13.481s3.123 8.683 6.386 11.947c3.263 3.263 7.421 5.485 11.947 6.385s9.218 0.439 13.481-1.327 7.908-4.757 10.472-8.594c2.564-3.837 3.933-8.349 3.933-12.963 0-6.189-2.458-12.123-6.835-16.5s-10.31-6.834-16.499-6.834zM224.018 233.324c4.951 0 9.698-1.966 13.199-5.467s5.468-8.249 5.468-13.199v-56c0-4.951-1.967-9.699-5.468-13.2s-8.248-5.467-13.199-5.467c-4.95 0-9.698 1.967-13.199 5.467s-5.467 8.249-5.467 13.2v56c0 4.95 1.966 9.698 5.467 13.199s8.249 5.467 13.199 5.467zM224.018 37.324c-36.919 0-73.009 10.948-103.706 31.459s-54.623 49.665-68.751 83.773c-14.128 34.109-17.825 71.641-10.623 107.851s24.981 69.471 51.086 95.577c26.106 26.106 59.367 43.884 95.577 51.087s73.742 3.506 107.851-10.622 63.262-38.054 83.773-68.751c20.511-30.697 31.459-66.787 31.459-103.706-0.055-49.49-19.739-96.937-54.734-131.933s-82.443-54.679-131.932-54.734zM224.018 373.324c-29.535 0-58.407-8.758-82.965-25.167s-43.698-39.731-55.001-67.019c-11.303-27.287-14.26-57.313-8.498-86.281s19.985-55.577 40.869-76.461c20.885-20.885 47.493-35.108 76.461-40.87s58.994-2.805 86.281 8.498c27.287 11.302 50.61 30.443 67.019 55s25.167 53.43 25.167 82.965c-0.045 39.592-15.793 77.549-43.788 105.545s-65.953 43.744-105.545 43.788z"></path>
    </symbol>
    <symbol version="1.1" xmlns="http://www.w3.org/2000/svg" viewBox="0 0 448 448" id="check-big">
        <path fill="currentColor" d="M224.018 37.324c-36.919 0-73.009 10.948-103.706 31.459s-54.623 49.665-68.751 83.773c-14.128 34.109-17.825 71.641-10.623 107.851s24.981 69.471 51.086 95.577c26.106 26.106 59.367 43.884 95.577 51.087s73.742 3.506 107.851-10.622 63.262-38.054 83.773-68.751c20.511-30.697 31.459-66.787 31.459-103.706-0.055-49.49-19.739-96.937-54.734-131.933s-82.443-54.679-131.932-54.734zM224.018 373.324c-29.535 0-58.407-8.758-82.965-25.167s-43.698-39.731-55.001-67.019c-11.303-27.287-14.26-57.313-8.498-86.281s19.985-55.577 40.869-76.461c20.885-20.885 47.493-35.108 76.461-40.87s58.994-2.805 86.281 8.498c27.287 11.302 50.61 30.443 67.019 55s25.167 53.43 25.167 82.965c-0.045 39.592-15.793 77.549-43.788 105.545s-65.953 43.744-105.545 43.788z"></path>
        <path fill="currentColor" d="M310.003 166.134c4.355-0.001 8.534 1.728 11.614 4.805s4.81 7.253 4.813 11.607c0.001 3.811-1.319 7.489-3.712 10.411l-1.093 1.203-102.908 102.908c-1.524 1.523-3.333 2.732-5.325 3.555s-4.127 1.235-6.282 1.231c-2.153 0.003-4.285-0.409-6.275-1.231-1.992-0.823-3.807-2.031-5.332-3.555l-61.722-61.749c-1.556-1.508-2.8-3.307-3.657-5.298-0.862-2.003-1.32-4.157-1.34-6.337s0.393-4.34 1.217-6.357 2.043-3.851 3.582-5.393c1.541-1.543 3.377-2.762 5.393-3.589s4.178-1.248 6.357-1.231c2.179 0.018 4.334 0.468 6.337 1.326 1.995 0.855 3.8 2.1 5.312 3.657l50.114 50.114 91.3-91.267 1.203-1.094c2.92-2.394 6.595-3.717 10.404-3.718z"></path>
    </symbol>
    <symbol version="1.1" xmlns="http://www.w3.org/2000/svg" viewBox="0 0 448 448" id="plus">
        <path fill="currentColor" d="M354.595 205.37h-112.001v-112c0-4.951-1.967-9.699-5.467-13.199s-8.249-5.467-13.199-5.467c-4.951 0-9.699 1.967-13.199 5.467s-5.467 8.249-5.467 13.199v112h-112c-4.951 0-9.699 1.967-13.199 5.467s-5.467 8.249-5.467 13.199c0 4.951 1.967 9.698 5.467 13.199s8.249 5.467 13.199 5.467h112v112.001c0 4.95 1.967 9.696 5.467 13.199 3.501 3.5 8.249 5.466 13.199 5.466s9.698-1.966 13.199-5.466c3.5-3.503 5.467-8.249 5.467-13.199v-112.001h112.001c4.95 0 9.696-1.967 13.199-5.467 3.5-3.501 5.466-8.249 5.466-13.199s-1.966-9.699-5.466-13.199c-3.503-3.501-8.249-5.467-13.199-5.467z"></path>
    </symbol>
    <symbol version="1.1" xmlns="http://www.w3.org/2000/svg" viewBox="0 0 448 448" id="minus">
        <path fill="currentColor"  d="M205.261 205.297h149.334c4.95 0 9.696 1.967 13.199 5.467 3.5 3.501 5.466 8.249 5.466 13.199s-1.966 9.698-5.466 13.199c-3.503 3.501-8.249 5.467-13.199 5.467h-261.335c-4.951 0-9.698-1.967-13.199-5.467s-5.467-8.249-5.467-13.199c0-4.951 1.967-9.698 5.467-13.199s8.249-5.467 13.199-5.467h112z"></path>
    </symbol>
    <symbol version="1.1" xmlns="http://www.w3.org/2000/svg" viewBox="0 0 448 448" id="cross">
        <path fill="currentColor"  d="M248.597 222.13l65.987-66.005c1.783-1.722 3.205-3.782 4.183-6.059s1.493-4.727 1.516-7.205c0.021-2.478-0.452-4.937-1.391-7.231-0.937-2.294-2.324-4.378-4.077-6.131s-3.836-3.139-6.13-4.077c-2.294-0.938-4.753-1.411-7.231-1.389s-4.928 0.536-7.205 1.515c-2.277 0.978-4.336 2.401-6.059 4.183l-66.005 65.986-65.986-65.986c-1.722-1.783-3.782-3.205-6.059-4.183s-4.727-1.493-7.205-1.515c-2.478-0.021-4.937 0.451-7.231 1.389s-4.378 2.324-6.131 4.077c-1.753 1.753-3.139 3.837-4.077 6.131s-1.411 4.752-1.389 7.231c0.021 2.478 0.536 4.928 1.515 7.205s2.401 4.337 4.183 6.059l65.986 65.986-65.986 66.005c-1.783 1.723-3.205 3.782-4.183 6.059s-1.493 4.726-1.515 7.205c-0.021 2.479 0.451 4.937 1.389 7.231s2.325 4.377 4.077 6.13c1.753 1.753 3.837 3.14 6.131 4.077 2.294 0.939 4.752 1.411 7.231 1.391 2.478-0.022 4.928-0.538 7.205-1.516s4.337-2.401 6.059-4.183l65.986-65.987 66.005 65.987c1.723 1.783 3.782 3.205 6.059 4.183s4.726 1.493 7.205 1.516c2.479 0.021 4.937-0.452 7.231-1.391 2.294-0.937 4.377-2.324 6.13-4.077s3.14-3.836 4.077-6.13c0.939-2.294 1.411-4.753 1.391-7.231-0.022-2.479-0.538-4.928-1.516-7.205s-2.401-4.336-4.183-6.059l-65.987-65.987z"></path>
    </symbol>
    <symbol version="1.1" xmlns="http://www.w3.org/2000/svg" viewBox="0 0 448 448" id="list-view">
        <path fill="currentColor"  d="M26.133 56h78.4c4.124 0 7.467 3.343 7.467 7.467v59.733c0 4.124-3.343 7.467-7.467 7.467h-78.4c-4.124 0-7.467-3.343-7.467-7.467v-59.733c0-4.124 3.343-7.467 7.467-7.467z"></path>
        <path fill="currentColor"  d="M26.133 186.667h78.4c4.124 0 7.467 3.343 7.467 7.467v59.733c0 4.124-3.343 7.467-7.467 7.467h-78.4c-4.124 0-7.467-3.343-7.467-7.467v-59.733c0-4.124 3.343-7.467 7.467-7.467z"></path>
        <path fill="currentColor"  d="M26.133 317.333h78.4c4.124 0 7.467 3.343 7.467 7.467v59.733c0 4.124-3.343 7.467-7.467 7.467h-78.4c-4.124 0-7.467-3.343-7.467-7.467v-59.733c0-4.124 3.343-7.467 7.467-7.467z"></path>
        <path fill="currentColor"  d="M156.8 56h265.067c4.124 0 7.467 3.343 7.467 7.467v59.733c0 4.124-3.343 7.467-7.467 7.467h-265.067c-4.124 0-7.467-3.343-7.467-7.467v-59.733c0-4.124 3.343-7.467 7.467-7.467z"></path>
        <path fill="currentColor"  d="M156.8 186.667h265.067c4.124 0 7.467 3.343 7.467 7.467v59.733c0 4.124-3.343 7.467-7.467 7.467h-265.067c-4.124 0-7.467-3.343-7.467-7.467v-59.733c0-4.124 3.343-7.467 7.467-7.467z"></path>
        <path fill="currentColor"  d="M156.8 317.333h265.067c4.124 0 7.467 3.343 7.467 7.467v59.733c0 4.124-3.343 7.467-7.467 7.467h-265.067c-4.124 0-7.467-3.343-7.467-7.467v-59.733c0-4.124 3.343-7.467 7.467-7.467z"></path>
    </symbol>
    <symbol version="1.1" xmlns="http://www.w3.org/2000/svg" viewBox="0 0 448 448" id="grid-view">
        <path fill="currentColor"  d="M26.133 37.333h78.4c4.124 0 7.467 3.343 7.467 7.467v78.4c0 4.124-3.343 7.467-7.467 7.467h-78.4c-4.124 0-7.467-3.343-7.467-7.467v-78.4c0-4.124 3.343-7.467 7.467-7.467z"></path>
        <path fill="currentColor"  d="M175.467 37.333h78.4c4.124 0 7.467 3.343 7.467 7.467v78.4c0 4.124-3.343 7.467-7.467 7.467h-78.4c-4.124 0-7.467-3.343-7.467-7.467v-78.4c0-4.124 3.343-7.467 7.467-7.467z"></path>
        <path fill="currentColor"  d="M324.8 37.333h78.4c4.124 0 7.467 3.343 7.467 7.467v78.4c0 4.124-3.343 7.467-7.467 7.467h-78.4c-4.124 0-7.467-3.343-7.467-7.467v-78.4c0-4.124 3.343-7.467 7.467-7.467z"></path>
        <path fill="currentColor"  d="M26.133 168h78.4c4.124 0 7.467 3.343 7.467 7.467v78.4c0 4.124-3.343 7.467-7.467 7.467h-78.4c-4.124 0-7.467-3.343-7.467-7.467v-78.4c0-4.124 3.343-7.467 7.467-7.467z"></path>
        <path fill="currentColor"  d="M175.467 168h78.4c4.124 0 7.467 3.343 7.467 7.467v78.4c0 4.124-3.343 7.467-7.467 7.467h-78.4c-4.124 0-7.467-3.343-7.467-7.467v-78.4c0-4.124 3.343-7.467 7.467-7.467z"></path>
        <path fill="currentColor"  d="M324.8 168h78.4c4.124 0 7.467 3.343 7.467 7.467v78.4c0 4.124-3.343 7.467-7.467 7.467h-78.4c-4.124 0-7.467-3.343-7.467-7.467v-78.4c0-4.124 3.343-7.467 7.467-7.467z"></path>
        <path fill="currentColor"  d="M26.133 298.667h78.4c4.124 0 7.467 3.343 7.467 7.467v78.4c0 4.124-3.343 7.467-7.467 7.467h-78.4c-4.124 0-7.467-3.343-7.467-7.467v-78.4c0-4.124 3.343-7.467 7.467-7.467z"></path>
        <path fill="currentColor"  d="M175.467 298.667h78.4c4.124 0 7.467 3.343 7.467 7.467v78.4c0 4.124-3.343 7.467-7.467 7.467h-78.4c-4.124 0-7.467-3.343-7.467-7.467v-78.4c0-4.124 3.343-7.467 7.467-7.467z"></path>
        <path fill="currentColor"  d="M324.8 298.667h78.4c4.124 0 7.467 3.343 7.467 7.467v78.4c0 4.124-3.343 7.467-7.467 7.467h-78.4c-4.124 0-7.467-3.343-7.467-7.467v-78.4c0-4.124 3.343-7.467 7.467-7.467z"></path>
    </symbol>
    <symbol version="1.1" xmlns="http://www.w3.org/2000/svg" viewBox="0 0 448 448" id="category-o">
        <path fill="none" stroke-linejoin="round" stroke-linecap="round" stroke-miterlimit="4" stroke-width="25.4787" stroke="currentColor" d="M237.416 122.379l48.481 64.87c39.881 53.338 1.861 129.356-64.667 129.356-66.53 0-104.549-76.018-64.689-129.356l48.501-64.87c8.094-10.825 24.28-10.825 32.374 0z"></path>
    </symbol>
    <symbol version="1.1" xmlns="http://www.w3.org/2000/svg" viewBox="0 0 560 448" id="category-npk">
        <path fill="currentColor" d="M149.983 122.354c5.243 0 9.361 1.685 12.357 5.056 3.185 3.183 4.775 7.49 4.775 12.92v164.868c0 5.43-1.59 9.83-4.775 13.201-3.183 3.371-7.302 5.055-12.357 5.055-5.992 0-10.58-2.152-13.763-6.459l-102.516-133.412v121.615c0 5.43-1.498 9.83-4.494 13.201s-7.115 5.055-12.358 5.055c-5.243 0-9.362-1.684-12.358-5.055s-4.494-7.771-4.494-13.201v-164.868c0-5.43 1.592-9.737 4.775-12.92 3.183-3.37 7.396-5.056 12.639-5.056 5.805 0 10.298 2.153 13.482 6.46l102.235 132.85v-121.334c0-5.43 1.499-9.737 4.495-12.92 3.183-3.371 7.302-5.056 12.357-5.056z"></path>
        <path fill="currentColor" d="M222.288 323.508c-5.43 0-9.83-1.59-13.201-4.775-3.183-3.369-4.775-7.864-4.775-13.481v-164.307c0-5.43 1.499-9.643 4.495-12.639 3.183-2.996 7.489-4.494 12.919-4.494h69.093c21.159 0 37.638 5.337 49.433 16.009 11.797 10.486 17.694 25.278 17.694 44.377 0 19.098-5.897 33.985-17.694 44.658-11.795 10.672-28.274 16.009-49.433 16.009h-50.275v60.387c0 5.617-1.686 10.112-5.055 13.481-3.185 3.185-7.584 4.775-13.201 4.775zM286.326 217.060c24.903 0 37.356-10.86 37.356-32.58s-12.453-32.581-37.356-32.581h-45.782v65.16h45.782z"></path>
        <path fill="currentColor" d="M537.613 294.525c3.745 3.558 5.617 7.584 5.617 12.077 0 4.308-1.684 8.146-5.055 11.517-3.183 3.183-7.022 4.773-11.515 4.773-4.682 0-8.988-1.966-12.919-5.897l-93.529-87.631v75.833c0 5.43-1.686 9.83-5.055 13.201-3.185 3.371-7.584 5.055-13.201 5.055-5.43 0-9.83-1.684-13.201-5.055-3.183-3.371-4.775-7.771-4.775-13.201v-164.868c0-5.43 1.592-9.737 4.775-12.92 3.371-3.371 7.771-5.056 13.201-5.056 5.617 0 10.017 1.685 13.201 5.056 3.369 3.183 5.055 7.49 5.055 12.92v72.183l90.44-84.822c3.369-3.371 7.207-5.055 11.515-5.055 4.306 0 8.051 1.685 11.234 5.055 3.371 3.183 5.057 6.928 5.057 11.235s-1.874 8.239-5.619 11.796l-75.553 69.093 80.328 74.71z"></path>
    </symbol>
    <symbol version="1.1" xmlns="http://www.w3.org/2000/svg" viewBox="0 0 448 448" id="category-k">
        <path fill="currentColor" d="M300.345 295.165c4.168 3.959 6.253 8.439 6.253 13.442 0 4.794-1.876 9.065-5.628 12.817-3.543 3.543-7.814 5.314-12.817 5.314-5.21 0-10.003-2.19-14.379-6.565l-104.095-97.531v84.401c0 6.044-1.876 10.942-5.627 14.693-3.543 3.752-8.44 5.628-14.692 5.628-6.044 0-10.941-1.876-14.692-5.628-3.543-3.75-5.314-8.648-5.314-14.693v-183.494c0-6.044 1.771-10.837 5.314-14.38 3.751-3.751 8.649-5.627 14.692-5.627 6.252 0 11.149 1.876 14.692 5.627 3.751 3.543 5.627 8.336 5.627 14.38v80.337l100.656-94.404c3.75-3.751 8.023-5.627 12.817-5.627s8.96 1.876 12.503 5.627c3.752 3.543 5.628 7.71 5.628 12.504s-2.085 9.17-6.253 13.129l-84.088 76.898 89.402 83.153z"></path>
    </symbol>
    <symbol version="1.1" xmlns="http://www.w3.org/2000/svg" viewBox="0 0 448 448" id="category-all">
        <path stroke-linejoin="miter" stroke-linecap="butt" stroke-miterlimit="4" stroke-width="5.6" stroke="currentColor" fill="currentColor" d="M74.32 71.987c7.192-0.794 14.803 2.544 19.852 8.44l3.136 3.391c15.922 16.288 34.827 22.512 56.747 22.513 14.070 0 27.482-1.757 40.687-3.555 13.145-1.789 26.152-3.627 39.101-3.628 75.081 0 130.228 48.423 130.23 116.011 0 18.342-3.793 35.245-10.664 50.239 7.105 10.050 15.010 22.019 21.601 33.96 4.131 7.482 7.791 14.989 10.41 22.040 2.606 7.017 4.247 13.75 4.247 19.615 0 14.121-10.099 26.537-23.552 26.54-3.185 0-6.449-0.788-9.279-2.789-2.843-2.012-5.040-5.103-6.362-9.333-2.432-7.769-4.523-15.215-6.545-22.294-2.027-7.095-3.991-13.821-6.179-20.235-1.87-5.475-3.924-10.698-6.291-15.695-23.345 23.595-57.732 37.552-98.237 37.552-54.409 0-99.494-19.397-130.957-53.721-31.442-34.304-49.073-83.283-49.073-142.079 0-8.442 0.939-35.443 4.776-50.951 2.435-9.986 8.89-15.197 16.352-16.023zM83.654 111.161c-1.081 7.951-1.276 18.284-1.276 27.8 0 51.236 14.724 92.857 40.797 121.642 26.046 28.756 63.66 44.972 110.049 44.972 30.346 0 55.763-9.345 73.556-25.228 2.742-2.449 5.277-5.081 7.655-7.84-9.679-9.552-22.085-16.404-35.455-22.658-15.684-7.338-32.844-13.987-47.049-23.425-36.915-18.448-64.205-28.913-86.461-49l-5.305-4.776 7.146-0.109c4.184-0.056 9.937 0.932 16.479 2.516 6.603 1.598 14.23 3.857 22.239 6.471 16.023 5.23 33.741 11.911 48.234 17.645h-0.019c47.813 15.264 76.569 24.924 97.181 41.599 2.251-7.989 3.463-16.554 3.463-25.611 0-50.395-41.298-86.826-101.045-86.826-10.237 0.001-20.979 1.379-33.486 3.099h-0.019c-13.707 1.869-29.201 4.083-46.284 4.083-24.965-0.001-52.269-8.741-70.401-24.354z"></path>
    </symbol>
    <symbol version="1.1" xmlns="http://www.w3.org/2000/svg" viewBox="0 0 448 448" id="category-np">
        <path fill="currentColor" d="M189.941 122.354c5.243 0 9.363 1.685 12.359 5.056 3.183 3.183 4.775 7.49 4.775 12.92v164.868c0 5.43-1.592 9.83-4.775 13.201s-7.302 5.055-12.359 5.055c-5.992 0-10.578-2.152-13.761-6.459l-102.517-133.412v121.615c0 5.43-1.498 9.83-4.494 13.201s-7.116 5.055-12.358 5.055c-5.243 0-9.362-1.684-12.358-5.055s-4.494-7.771-4.494-13.201v-164.868c0-5.43 1.592-9.737 4.775-12.92 3.183-3.37 7.396-5.056 12.639-5.056 5.805 0 10.298 2.153 13.482 6.46l102.235 132.85v-121.334c0-5.43 1.499-9.737 4.495-12.92 3.183-3.371 7.302-5.056 12.357-5.056z"></path>
        <path fill="currentColor" d="M262.099 323.435c-5.43 0-9.83-1.59-13.199-4.775-3.185-3.369-4.775-7.864-4.775-13.481v-164.307c0-5.43 1.497-9.643 4.493-12.639 3.183-2.996 7.489-4.494 12.919-4.494h69.095c21.159 0 37.636 5.337 49.433 16.009 11.795 10.486 17.694 25.278 17.694 44.377s-5.899 33.985-17.694 44.658c-11.797 10.672-28.274 16.009-49.433 16.009h-50.275v60.387c0 5.617-1.686 10.112-5.057 13.481-3.183 3.185-7.582 4.775-13.201 4.775zM326.137 216.987c24.903 0 37.356-10.86 37.356-32.58s-12.453-32.581-37.356-32.581h-45.78v65.16h45.78z"></path>
    </symbol>
    <symbol version="1.1" xmlns="http://www.w3.org/2000/svg" viewBox="0 0 448 448" id="category-n">
        <path fill="currentColor" d="M363.629 18.667c10.754 0 19.204 3.457 25.349 10.37 6.528 6.529 9.794 15.362 9.794 26.5v338.164c0 11.137-3.267 20.162-9.794 27.072-6.528 6.914-14.978 10.371-25.349 10.371-12.286 0-21.698-4.418-28.226-13.25l-210.273-273.641v249.447c0 11.137-3.073 20.162-9.217 27.072-6.145 6.914-14.594 10.371-25.348 10.371s-19.203-3.457-25.347-10.371c-6.145-6.91-9.218-15.936-9.218-27.072v-338.164c0-11.137 3.265-19.971 9.794-26.5 6.529-6.913 15.17-10.37 25.924-10.37 11.906 0 21.123 4.417 27.652 13.25l209.697 272.49v-248.871c0-11.137 3.071-19.971 9.216-26.5 6.528-6.913 14.976-10.37 25.346-10.37z"></path>
    </symbol>
    <symbol version="1.1" xmlns="http://www.w3.org/2000/svg" viewBox="0 0 448 448" id="file">
        <path fill="currentColor" d="M381.514 67.28c5.048 5.047 10.094 10.094 15.142 15.142 18.477 27.552 19.11 55.583 1.893 84.091-57.134 58.922-114.996 117.145-173.589 174.671-35.634 25.057-72.767 27.404-111.4 7.031-4.541-2.789-8.958-5.583-13.249-8.383-6.129-6.129-12.257-12.258-18.386-18.388-22.978-31.85-27.755-66.189-14.33-103.016 3.479-7.721 7.805-14.931 12.978-21.631 27.219-27.94 54.798-55.52 82.738-82.738 9.307-3.1 15.796-0.035 19.468 9.193 0.515 3.682-0.205 7.107-2.163 10.275-26.498 26.858-52.996 53.717-79.494 80.575-17.307 25.955-18.749 52.813-4.326 80.574 19.331 30.668 46.91 43.646 82.738 38.937 10.308-2.268 19.681-6.594 28.12-12.978 56.241-55.52 112.121-111.4 167.639-167.641 11.536-17.85 11.536-35.695 0-53.536-14.577-18.022-32.782-23.429-54.617-16.223-3.405 1.521-6.65 3.324-9.736 5.407-51.193 50.472-102.025 101.305-152.498 152.499-4.112 9.124-1.949 16.515 6.489 22.172 4.945 2.705 9.992 2.884 15.142 0.541 41.639-41.279 83.279-82.558 124.919-123.837 8.070-5.583 14.918-4.321 20.549 3.785 1.982 3.868 2.164 7.834 0.54 11.897-42.722 43.442-85.803 86.524-129.245 129.245-16.039 10.094-32.081 10.094-48.129 0-16.341-12.109-22.29-27.971-17.846-47.588 1.361-4.442 3.343-8.588 5.949-12.438 51.914-52.636 104.189-104.91 156.824-156.825 29.176-19.918 58.467-20.188 87.875-0.811z"></path>
    </symbol>
    <symbol version="1.1" xmlns="http://www.w3.org/2000/svg" viewBox="0 0 448 448" id="contact-arrow">
        <path  fill="currentColor" d="M258.215 166.396h-104.254c-4.951 0-9.698-1.967-13.199-5.467s-5.467-8.249-5.467-13.199c0-4.951 1.967-9.698 5.467-13.199s8.249-5.467 13.199-5.467h149.332c2.456-0.007 4.886 0.47 7.154 1.406s4.329 2.31 6.062 4.045c1.736 1.735 3.111 3.796 4.046 6.064s1.414 4.699 1.406 7.152v149.334c0 4.95-1.966 9.699-5.466 13.199-3.503 3.5-8.249 5.466-13.202 5.466-4.95 0-9.696-1.966-13.199-5.466-3.5-3.5-5.466-8.249-5.466-13.199v-104.272l-126.542 126.541c-3.503 3.5-8.252 5.466-13.204 5.463-4.952 0-9.7-1.968-13.2-5.471s-5.466-8.252-5.464-13.205c0.002-4.95 1.971-9.699 5.473-13.199l126.523-126.523z"></path>
    </symbol>
    <symbol version="1.1" xmlns="http://www.w3.org/2000/svg" viewBox="0 0 448 448" id="contact-email">
        <path fill="currentColor" d="M438.357 105.036c-5.554-18.551-17.838-29.837-36.858-33.857-121.714-0.571-243.428-0.571-365.142 0-19.018 4.021-31.304 15.306-36.857 33.857 0 76.001 0 151.999 0 228 5.382 18.707 17.668 29.994 36.857 33.858 121.714 0.571 243.428 0.571 365.142 0 19.19-3.864 31.475-15.15 36.858-33.858 0-76 0-151.998 0-228zM44.929 100.75c115.857-1 231.857-1.143 347.999-0.429-55.142 55.142-110.285 110.287-165.429 165.429-5.714 4-11.427 4-17.143 0-55.029-55.173-110.173-110.173-165.428-165zM28.643 126.464c32.684 32.256 65.256 64.684 97.714 97.286-32.428 32.427-64.857 64.858-97.286 97.285-0.428-64.856-0.571-129.714-0.428-194.571zM408.357 126.464c1 64.713 1.142 129.571 0.429 194.571-32.429-32.427-64.858-64.858-97.286-97.285 32.459-32.315 64.746-64.745 96.858-97.286zM146.929 244.75c14.97 14.541 29.828 29.256 44.571 44.142 18.286 12 36.573 12 54.858 0 14.715-14.715 29.429-29.429 44.142-44.142 31.002 31 62 62 93 93-109.714 0.571-219.427 0.571-329.142 0 31.030-30.888 61.887-61.887 92.571-93z"></path>
    </symbol>
    <symbol version="1.1" xmlns="http://www.w3.org/2000/svg" viewBox="0 0 448 448" id="contact-pin">
        <path fill="none" stroke-linejoin="round" stroke-linecap="round" stroke-miterlimit="4" stroke-width="31.0858" stroke="currentColor" d="M219.429 41.188c-68.143 0-123.429 52.62-123.429 117.429 0 74.571 82.286 192.745 112.499 233.563 1.254 1.723 2.899 3.125 4.799 4.091s4 1.47 6.131 1.47c2.131 0 4.232-0.504 6.131-1.47s3.542-2.368 4.797-4.091c30.214-40.8 112.501-158.931 112.501-233.563 0-64.809-55.286-117.429-123.429-117.429z"></path>
        <path fill="none" stroke-linejoin="round" stroke-linecap="round" stroke-miterlimit="4" stroke-width="31.0858" stroke="currentColor" d="M219.456 205.723c22.722 0 41.142-18.421 41.142-41.143 0-22.723-18.421-41.143-41.142-41.143-22.723 0-41.144 18.42-41.144 41.143 0 22.722 18.421 41.143 41.144 41.143z"></path>
    </symbol>
    <symbol version="1.1" xmlns="http://www.w3.org/2000/svg" viewBox="0 0 448 448" id="logistic-icon-4">
        <path fill="currentColor" d="M189.441-0.461c-16.115 4.596-26.179 15.096-30.187 31.5-1.31 10.477-2.331 20.977-3.063 31.5-17.692 3.038-34.902 7.85-51.625 14.437-23.274 8.628-42.67 22.481-58.188 41.563-16.829 28.485-14.204 55.026 7.875 79.625 21.745 19.699 46.974 33.115 75.687 40.25 0.003 35.452 14.587 63.015 43.751 82.687-5.331 14.098-10.581 28.244-15.751 42.438-21.613 0.48-43.196 1.21-64.75 2.188-16.789 5.121-28.601 15.767-35.438 31.938-2.899 10.43-5.524 20.93-7.875 31.499-2.285 8.242 0.194 14.367 7.438 18.375 3.5 0 7 0 10.5 0 3.482-1.588 5.96-4.212 7.438-7.874 2.471-9.593 4.805-19.218 7-28.875 2.13-7.628 6.651-13.315 13.563-17.063 7.668-2.508 15.543-3.528 23.625-3.063-0.146 16.337 0 32.669 0.438 49 1.477 3.662 3.957 6.286 7.438 7.874 3.5 0 7 0 10.5 0 3.482-1.588 5.961-4.212 7.438-7.874 0.438-16.332 0.584-32.664 0.438-49 5.549-0.145 11.090 0 16.624 0.438 9.476 7.365 19.976 12.906 31.5 16.625 33.139 9.159 63.472 3.617 91-16.625 5.534-0.438 11.075-0.582 16.624-0.438-0.146 16.337 0 32.669 0.438 49 1.477 3.662 3.957 6.286 7.438 7.874 3.5 0 7 0 10.5 0 3.482-1.588 5.961-4.212 7.438-7.874 0.438-16.332 0.584-32.664 0.438-49 6.166-0.143 12.291 0.295 18.375 1.312 9.747 2.748 16.018 9.019 18.813 18.814 2.195 9.657 4.528 19.281 7 28.875 1.477 3.662 3.957 6.286 7.438 7.874 3.5 0 7 0 10.5 0 7.243-4.008 9.723-10.133 7.438-18.375-2.195-9.657-4.529-19.281-7-28.875-6.411-17.494-18.515-29.015-36.313-34.562-21.553-0.979-43.137-1.708-64.749-2.188-5.17-14.193-10.42-28.339-15.751-42.438 29.162-19.671 43.745-47.233 43.751-82.687 31.256-7.382 57.944-22.55 80.063-45.5 15.481-19.096 18.689-40.097 9.625-63-5.727-11.281-13.457-21.053-23.188-29.312-27.745-20.135-58.662-32.822-92.75-38.063-0.731-10.523-1.753-21.023-3.063-31.5-4.008-16.403-14.072-26.904-30.187-31.5-22.75 0-45.5 0-68.25 0zM198.192 25.789c18.414-0.387 36.789 0.051 55.125 1.313 2.831 1.19 5.018 3.086 6.562 5.688 1.745 8.274 3.058 16.587 3.938 24.938-13.391-0.706-26.808-1.435-40.249-2.188-13.442 0.752-26.86 1.481-40.25 2.188 0.881-8.351 2.193-16.663 3.938-24.938 2.656-3.984 6.301-6.318 10.937-7zM219.192 82.664c35.605-0.268 70.314 5.128 104.125 16.188 20.274 6.849 37.921 17.786 52.937 32.813 9.996 12.778 10.871 26.195 2.625 40.249-16.221 19.114-36.492 31.363-60.813 36.75 1.714-24.74 2.443-49.532 2.187-74.375-1.312-3.645-3.791-6.125-7.437-7.437-59.5-14.584-119-14.584-178.501 0-3.645 1.312-6.125 3.791-7.437 7.437-0.23 24.843 0.499 49.633 2.187 74.375-22.587-5.249-41.983-16.332-58.187-33.25-11.519-14.108-11.811-28.401-0.875-42.875 11.344-12.604 24.907-22.083 40.688-28.438 34.941-13.842 71.108-20.987 108.5-21.438zM202.567 143.039c30.632-1.336 60.966 0.998 91 7-1.185 32.669-2.497 65.336-3.938 98-4.123 28.913-20.017 48.016-47.688 57.312-36.722 7.524-63.409-5.456-80.063-38.937-2.006-5.697-3.465-11.53-4.375-17.5-1.402-32.957-2.715-65.916-3.937-98.875 16.347-3.085 32.68-5.42 49-7zM198.192 332.040c16.917 3.499 33.834 3.499 50.75 0 4.806 13.688 9.327 27.395 13.563 41.124-17.987 11.553-37.382 14.616-58.188 9.188-7.076-2.008-13.639-5.071-19.687-9.188 4.236-13.729 8.757-27.437 13.563-41.124z"></path>
    </symbol>
    <symbol version="1.1" xmlns="http://www.w3.org/2000/svg" viewBox="0 0 448 448" id="logistic-icon-3">
        <path fill="currentColor" d="M447.539 44.165c-2.172-5.233-5.963-8.879-11.375-10.938-141.75-0.583-283.5-0.583-425.25 0-5.411 2.059-9.203 5.705-11.375 10.938 0 97.416 0 194.834 0 292.25 2.172 5.232 5.964 8.879 11.375 10.937 7.87 0.438 15.745 0.582 23.625 0.438-1.27 5.154-1.853 10.404-1.75 15.75 1.315 26.841 15.023 43.613 41.125 50.313 15.933 2.508 30.224-1.139 42.875-10.937 16.671 12.257 34.755 14.737 54.25 7.437 25.123-13.652 34.457-34.506 28-62.562 16.335 0 32.666 0 49 0-1.27 5.154-1.853 10.404-1.751 15.75 1.316 26.841 15.023 43.613 41.125 50.313 15.933 2.508 30.225-1.139 42.875-10.937 16.671 12.257 34.755 14.737 54.25 7.437 25.123-13.652 34.456-34.506 28-62.562 7.88 0.145 15.755 0 23.625-0.438 5.411-2.058 9.203-5.705 11.375-10.937 0-97.416 0-194.834 0-292.25zM34.539 67.789c22.75 0 45.5 0 68.25 0-0.146 65.334 0 130.667 0.438 196 5.484 11.944 14.379 15.298 26.687 10.063 3.489-2.614 5.969-5.968 7.438-10.063 0.438-65.333 0.584-130.666 0.438-196 22.75 0 45.5 0 68.25 0-0.146 65.334 0 130.667 0.438 196 5.483 11.944 14.378 15.298 26.687 10.063 3.489-2.614 5.969-5.968 7.438-10.063 0.438-65.333 0.584-130.666 0.438-196 22.75 0 45.5 0 68.25 0-0.146 65.334 0 130.667 0.438 196 5.483 11.944 14.378 15.298 26.688 10.063 3.489-2.614 5.968-5.968 7.437-10.063 0.438-65.333 0.584-130.666 0.438-196 22.75 0 45.5 0 68.25 0 0 81.667 0 163.334 0 245-126 0-252 0-378 0 0-81.667 0-163.334 0-245zM78.289 348.664c17.124-0.527 23.103 7.348 17.938 23.625-6.128 6.495-13.274 7.807-21.438 3.938-6.075-5.409-7.679-11.971-4.813-19.687 2.105-3.42 4.876-6.044 8.313-7.875zM144.789 348.664c17.124-0.527 23.103 7.348 17.938 23.625-6.127 6.495-13.274 7.807-21.437 3.938-6.075-5.409-7.68-11.971-4.813-19.687 2.104-3.42 4.875-6.044 8.312-7.875zM291.789 348.664c17.124-0.527 23.103 7.348 17.938 23.625-6.128 6.495-13.274 7.807-21.438 3.938-6.075-5.409-7.679-11.971-4.813-19.687 2.106-3.42 4.876-6.044 8.313-7.875zM358.289 348.664c17.124-0.527 23.103 7.348 17.938 23.625-6.127 6.495-13.274 7.807-21.437 3.938-6.076-5.409-7.68-11.971-4.814-19.687 2.106-3.42 4.876-6.044 8.313-7.875z"></path>
    </symbol>
    <symbol version="1.1" xmlns="http://www.w3.org/2000/svg" viewBox="0 0 448 448" id="logistic-icon-2">
        <path fill="none" stroke-linejoin="round" stroke-linecap="round" stroke-miterlimit="4" stroke-width="36.9231" stroke="currentColor" d="M169.961 303.769c0 25.954-20.522 46.994-45.836 46.994s-45.835-21.040-45.835-46.994M169.961 303.769c0-25.953-20.522-46.993-45.836-46.993s-45.835 21.040-45.835 46.993M169.961 303.769h103.13M78.29 303.769h-22.918v-193.007c0-10.196 8.266-18.462 18.462-18.462h199.257v211.468M376.22 303.769c0 25.954-20.521 46.994-45.835 46.994s-45.835-21.040-45.835-46.994M376.22 303.769c0-25.953-20.521-46.993-45.835-46.993s-45.835 21.040-45.835 46.993M376.22 303.769h11.459v-93.986l-57.295-58.741h-57.295v152.726M284.55 303.769h-11.459"></path>
    </symbol>
    <symbol version="1.1" xmlns="http://www.w3.org/2000/svg" viewBox="0 0 448 448" id="logistic-icon-1">
        <path opacity="0.972" fill="currentColor" d="M68.808 18.442c-6.331 2.498-10.694 6.993-13.089 13.486-4.393 69.524-8.491 139.068-12.296 208.63-12.172-2.116-20.633 2.38-25.385 13.486 0 55.793 0 111.587 0 167.38 0.793 1.322 1.851 2.38 3.173 3.173 133.269 0 266.539 0 399.807 0 1.322-0.793 2.38-1.851 3.174-3.173 0-84.616 0-169.23 0-253.846-0.609-0.533-1.138-1.195-1.588-1.984-46.19-18.216-92.596-35.8-139.218-52.752-12.106 0.226-20.038 6.044-23.799 17.452-0.396 36.753-0.529 73.509-0.396 110.264-4.231 0-8.461 0-12.692 0-3.818-67.425-7.653-134.853-11.502-202.284-0.343-9.697-4.97-16.308-13.882-19.832-14.808 0-29.615 0-44.423 0-6.331 2.498-10.695 6.993-13.089 13.486-4.394 69.524-8.492 139.068-12.296 208.63-4.231 0-8.463 0-12.692 0-3.819-67.425-7.653-134.853-11.503-202.284-0.343-9.697-4.97-16.308-13.882-19.832-14.808 0-29.615 0-44.423 0zM74.361 31.135c11.109-0.132 22.215 0 33.317 0.397 4.147 0.742 6.131 3.254 5.95 7.536 0.289 5.832 0.686 11.649 1.19 17.452-15.865 0-31.731 0-47.596 0 0.398-7.165 1.059-14.304 1.983-21.418 1.24-2.001 2.959-3.324 5.156-3.966zM182.245 31.135c11.109-0.132 22.215 0 33.317 0.397 4.147 0.742 6.131 3.254 5.949 7.536 0.288 5.832 0.686 11.649 1.19 17.452-15.865 0-31.731 0-47.596 0 0.397-7.165 1.059-14.304 1.983-21.418 1.241-2.001 2.959-3.324 5.157-3.966zM66.428 69.212c16.394 0 32.788 0 49.182 0 0.115 6.354 0.379 12.7 0.794 19.039-16.923 0-33.846 0-50.77 0 0.415-6.339 0.679-12.684 0.793-19.039zM174.312 69.212c16.394 0 32.789 0 49.183 0 0.114 6.354 0.378 12.7 0.793 19.039-16.923 0-33.846 0-50.769 0 0.415-6.339 0.679-12.684 0.793-19.039zM64.841 100.942c17.452 0 34.904 0 52.356 0 2.644 46.539 5.288 93.076 7.933 139.615-22.741 0-45.481 0-68.221 0 2.644-46.539 5.288-93.076 7.933-139.615zM172.726 100.942c17.452 0 34.904 0 52.356 0 2.643 46.539 5.288 93.076 7.932 139.615-22.74 0-45.48 0-68.221 0 2.644-46.539 5.288-93.076 7.933-139.615zM281.404 126.327c43.202 16.076 86.303 32.469 129.303 49.182 0.79 4.73 1.054 9.491 0.793 14.28-46.538 0-93.076 0-139.615 0-0.132-17.719 0-35.434 0.397-53.15 0.709-5.595 3.749-9.034 9.122-10.312zM271.884 202.481c46.539 0 93.077 0 139.615 0 0 4.231 0 8.461 0 12.692-46.538 0-93.076 0-139.615 0 0-4.231 0-8.461 0-12.692zM271.884 227.865c46.539 0 93.077 0 139.615 0 0 61.346 0 122.692 0 184.038-10.576 0-21.154 0-31.73 0 0.378-23.849-0.018-47.646-1.19-71.394-2.629-5.275-6.728-8.844-12.296-10.71-16.394-0.529-32.788-0.529-49.182 0-5.568 1.865-9.667 5.435-12.296 10.71-1.172 23.748-1.568 47.545-1.19 71.394-10.576 0-21.154 0-31.731 0 0-61.346 0-122.692 0-184.038zM37.077 253.25c74.038 0 148.077 0 222.115 0 0 52.885 0 105.77 0 158.654-35.961 0-71.924 0-107.884 0 0-6.347 0-12.692 0-19.039 24.583 3.838 46.53-1.847 65.841-17.055 11.244-10.203 18.515-22.763 21.816-37.68 1.258-12.391 1.522-24.819 0.793-37.284-0.396-1.453-1.322-2.379-2.776-2.776-14.578-0.738-29.121-0.474-43.629 0.794-21.827 5.307-37.957 17.867-48.39 37.68-11.281-21.12-28.734-33.945-52.356-38.474-13.221-0.529-26.442-0.529-39.663 0-0.727 0.297-1.388 0.694-1.983 1.19-0.9 6.003-1.297 12.085-1.19 18.245-0.99 35.721 15.139 59.915 48.389 72.584 3.649 1.045 7.35 1.838 11.106 2.38 9.781 0.396 19.563 0.529 29.351 0.396 0 6.347 0 12.692 0 19.039-35.962 0-71.924 0-107.885 0-0.132-50.77 0-101.54 0.397-152.307 0.54-3.578 2.523-5.693 5.95-6.347zM62.461 310.365c19.631-2.57 37.612 1.529 53.942 12.296 15.089 12.74 22.361 29.002 21.814 48.786-13.089-11.502-26.177-23.006-39.266-34.507-9.652-3.041-12.957 0.264-9.916 9.916 12.56 10.974 25.12 21.947 37.68 32.921-28.076 1.239-48.040-10.792-59.892-36.094-3.372-10.832-4.826-21.938-4.363-33.317zM207.63 310.365c6.611 0 13.222 0 19.831 0 2.87 28.507-7.971 49.792-32.524 63.858-10.109 4.549-20.685 6.399-31.731 5.553 12.56-10.974 25.121-21.947 37.68-32.921 3.041-9.652-0.264-12.957-9.916-9.916-13.089 11.502-26.178 23.006-39.267 34.507 0.367-29.981 14.777-49.68 43.233-59.098 4.341-0.688 8.572-1.349 12.692-1.984zM322.654 342.096c12.694-0.132 25.387 0 38.077 0.396 3.57 0.396 5.553 2.38 5.949 5.949 0.397 21.153 0.529 42.306 0.397 63.462-16.923 0-33.847 0-50.77 0-0.132-21.156 0-42.31 0.396-63.462 0.54-3.578 2.523-5.693 5.95-6.346z"></path>
        <path fill="none" opacity="0.972" stroke-linejoin="miter" stroke-linecap="butt" stroke-miterlimit="4" stroke-width="10.1539" stroke="currentColor" d="M68.808 18.442c-6.331 2.498-10.694 6.993-13.089 13.486-4.393 69.524-8.491 139.068-12.296 208.63-12.172-2.116-20.633 2.38-25.385 13.486 0 55.793 0 111.587 0 167.38 0.793 1.322 1.851 2.38 3.173 3.173 133.269 0 266.539 0 399.807 0 1.322-0.793 2.38-1.851 3.174-3.173 0-84.616 0-169.23 0-253.846-0.609-0.533-1.138-1.195-1.588-1.984-46.19-18.216-92.596-35.8-139.218-52.752-12.106 0.226-20.038 6.044-23.799 17.452-0.396 36.753-0.529 73.509-0.396 110.264-4.231 0-8.461 0-12.692 0-3.818-67.425-7.653-134.853-11.502-202.284-0.343-9.697-4.97-16.308-13.882-19.832-14.808 0-29.615 0-44.423 0-6.331 2.498-10.695 6.993-13.089 13.486-4.394 69.524-8.492 139.068-12.296 208.63-4.231 0-8.463 0-12.692 0-3.819-67.425-7.653-134.853-11.503-202.284-0.343-9.697-4.97-16.308-13.882-19.832-14.808 0-29.615 0-44.423 0zM74.361 31.135c11.109-0.132 22.215 0 33.317 0.397 4.147 0.742 6.131 3.254 5.95 7.536 0.289 5.832 0.686 11.649 1.19 17.452-15.865 0-31.731 0-47.596 0 0.398-7.165 1.059-14.304 1.983-21.418 1.24-2.001 2.959-3.324 5.156-3.966zM182.245 31.135c11.109-0.132 22.215 0 33.317 0.397 4.147 0.742 6.131 3.254 5.949 7.536 0.288 5.832 0.686 11.649 1.19 17.452-15.865 0-31.731 0-47.596 0 0.397-7.165 1.059-14.304 1.983-21.418 1.241-2.001 2.959-3.324 5.157-3.966zM66.428 69.212c16.394 0 32.788 0 49.182 0 0.115 6.354 0.379 12.7 0.794 19.039-16.923 0-33.846 0-50.77 0 0.415-6.339 0.679-12.684 0.793-19.039zM174.312 69.212c16.394 0 32.789 0 49.183 0 0.114 6.354 0.378 12.7 0.793 19.039-16.923 0-33.846 0-50.769 0 0.415-6.339 0.679-12.684 0.793-19.039zM64.841 100.942c17.452 0 34.904 0 52.356 0 2.644 46.539 5.288 93.076 7.933 139.615-22.741 0-45.481 0-68.221 0 2.644-46.539 5.288-93.076 7.933-139.615zM172.726 100.942c17.452 0 34.904 0 52.356 0 2.643 46.539 5.288 93.076 7.932 139.615-22.74 0-45.48 0-68.221 0 2.644-46.539 5.288-93.076 7.933-139.615zM281.404 126.327c43.202 16.076 86.303 32.469 129.303 49.182 0.79 4.73 1.054 9.491 0.793 14.28-46.538 0-93.076 0-139.615 0-0.132-17.719 0-35.434 0.397-53.15 0.709-5.595 3.749-9.034 9.122-10.312zM271.884 202.481c46.539 0 93.077 0 139.615 0 0 4.231 0 8.461 0 12.692-46.538 0-93.076 0-139.615 0 0-4.231 0-8.461 0-12.692zM271.884 227.865c46.539 0 93.077 0 139.615 0 0 61.346 0 122.692 0 184.038-10.576 0-21.154 0-31.73 0 0.378-23.849-0.018-47.646-1.19-71.394-2.629-5.275-6.728-8.844-12.296-10.71-16.394-0.529-32.788-0.529-49.182 0-5.568 1.865-9.667 5.435-12.296 10.71-1.172 23.748-1.568 47.545-1.19 71.394-10.576 0-21.154 0-31.731 0 0-61.346 0-122.692 0-184.038zM37.077 253.25c74.038 0 148.077 0 222.115 0 0 52.885 0 105.77 0 158.654-35.961 0-71.924 0-107.884 0 0-6.347 0-12.692 0-19.039 24.583 3.838 46.53-1.847 65.841-17.055 11.244-10.203 18.515-22.763 21.816-37.68 1.258-12.391 1.522-24.819 0.793-37.284-0.396-1.453-1.322-2.379-2.776-2.776-14.578-0.738-29.121-0.474-43.629 0.794-21.827 5.307-37.957 17.867-48.39 37.68-11.281-21.12-28.734-33.945-52.356-38.474-13.221-0.529-26.442-0.529-39.663 0-0.727 0.297-1.388 0.694-1.983 1.19-0.9 6.003-1.297 12.085-1.19 18.245-0.99 35.721 15.139 59.915 48.389 72.584 3.649 1.045 7.35 1.838 11.106 2.38 9.781 0.396 19.563 0.529 29.351 0.396 0 6.347 0 12.692 0 19.039-35.962 0-71.924 0-107.885 0-0.132-50.77 0-101.54 0.397-152.307 0.54-3.578 2.523-5.693 5.95-6.347zM62.461 310.365c19.631-2.57 37.612 1.529 53.942 12.296 15.089 12.74 22.361 29.002 21.814 48.786-13.089-11.502-26.177-23.006-39.266-34.507-9.652-3.041-12.957 0.264-9.916 9.916 12.56 10.974 25.12 21.947 37.68 32.921-28.076 1.239-48.040-10.792-59.892-36.094-3.372-10.832-4.826-21.938-4.363-33.317zM207.63 310.365c6.611 0 13.222 0 19.831 0 2.87 28.507-7.971 49.792-32.524 63.858-10.109 4.549-20.685 6.399-31.731 5.553 12.56-10.974 25.121-21.947 37.68-32.921 3.041-9.652-0.264-12.957-9.916-9.916-13.089 11.502-26.178 23.006-39.267 34.507 0.367-29.981 14.777-49.68 43.233-59.098 4.341-0.688 8.572-1.349 12.692-1.984zM322.654 342.096c12.694-0.132 25.387 0 38.077 0.396 3.57 0.396 5.553 2.38 5.949 5.949 0.397 21.153 0.529 42.306 0.397 63.462-16.923 0-33.847 0-50.77 0-0.132-21.156 0-42.31 0.396-63.462 0.54-3.578 2.523-5.693 5.95-6.346z"></path>
        <path opacity="0.95" fill="currentColor" d="M335.829 258.516c6.929-0.144 13.853 0 20.77 0.433 1.585 0.432 2.596 1.442 3.028 3.028 0.578 2.308 0.578 4.616 0 6.923-0.432 1.586-1.443 2.596-3.028 3.029-6.923 0.577-13.846 0.577-20.77 0-2.61-1.323-3.763-3.486-3.461-6.49-0.189-3.087 0.966-5.393 3.461-6.923z"></path>
        <path opacity="0.95" fill="currentColor" d="M335.829 286.201c6.929-0.144 13.853 0 20.77 0.433 1.585 0.433 2.596 1.443 3.028 3.029 0.578 2.308 0.578 4.614 0 6.923-0.432 1.586-1.443 2.596-3.028 3.028-6.923 0.578-13.846 0.578-20.77 0-2.61-1.323-3.763-3.486-3.461-6.49-0.189-3.085 0.966-5.393 3.461-6.923z"></path>
    </symbol>
    <symbol version="1.1" xmlns="http://www.w3.org/2000/svg" viewBox="0 0 448 448" id="auto">
        <path fill="none" stroke-linejoin="round" stroke-linecap="round" stroke-miterlimit="4" stroke-width="36.5714" stroke="currentColor" d="M168.373 300.893c0 25.706-20.326 46.544-45.399 46.544s-45.399-20.839-45.399-46.544M168.373 300.893c0-25.707-20.326-46.546-45.399-46.546s-45.399 20.839-45.399 46.546M168.373 300.893h102.147M77.574 300.893h-22.7v-191.17c0-10.099 8.187-18.286 18.286-18.286h197.359v209.455M372.669 300.893c0 25.706-20.326 46.544-45.4 46.544s-45.399-20.839-45.399-46.544M372.669 300.893c0-25.707-20.326-46.546-45.4-46.546s-45.399 20.839-45.399 46.546M372.669 300.893h11.349v-93.091l-56.749-58.182h-56.749v151.273M281.87 300.893h-11.351"></path>
    </symbol>
    <symbol version="1.1" xmlns="http://www.w3.org/2000/svg" viewBox="0 0 448 448" id="rail">
        <path fill="currentColor" d="M447.563 44.188c-2.173-5.233-5.964-8.879-11.376-10.938-141.75-0.583-283.5-0.583-425.249 0-5.411 2.059-9.203 5.705-11.375 10.938 0 97.417 0 194.833 0 292.251 2.172 5.232 5.964 8.877 11.375 10.937 7.87 0.438 15.745 0.582 23.625 0.438-1.27 5.153-1.853 10.403-1.75 15.75 1.315 26.839 15.023 43.611 41.125 50.312 15.933 2.507 30.224-1.14 42.875-10.937 16.671 12.257 34.756 14.736 54.251 7.437 25.123-13.653 34.455-34.506 28-62.562 16.332 0 32.666 0 49 0-1.27 5.153-1.854 10.403-1.75 15.75 1.315 26.839 15.022 43.611 41.124 50.312 15.933 2.507 30.225-1.14 42.876-10.937 16.671 12.257 34.755 14.736 54.25 7.437 25.123-13.653 34.455-34.506 28-62.562 7.879 0.144 15.754 0 23.624-0.438 5.412-2.059 9.204-5.705 11.376-10.937 0-97.418 0-194.834 0-292.251zM34.563 67.813c22.75 0 45.5 0 68.25 0-0.146 65.334 0 130.667 0.438 196.001 5.484 11.943 14.379 15.296 26.688 10.062 3.489-2.614 5.968-5.967 7.438-10.062 0.438-65.334 0.584-130.667 0.438-196.001 22.751 0 45.501 0 68.251 0-0.147 65.334 0 130.667 0.437 196.001 5.484 11.943 14.379 15.296 26.687 10.062 3.49-2.614 5.97-5.967 7.438-10.062 0.438-65.334 0.584-130.667 0.438-196.001 22.75 0 45.5 0 68.25 0-0.147 65.334 0 130.667 0.437 196.001 5.484 11.943 14.379 15.296 26.687 10.062 3.49-2.614 5.97-5.967 7.438-10.062 0.438-65.334 0.584-130.667 0.438-196.001 22.75 0 45.5 0 68.25 0 0 81.667 0 163.333 0 245.001-126 0-252 0-378.001 0 0-81.668 0-163.334 0-245.001zM78.313 348.688c17.124-0.528 23.103 7.347 17.938 23.625-6.128 6.493-13.274 7.806-21.438 3.937-6.075-5.41-7.679-11.971-4.813-19.687 2.105-3.42 4.876-6.045 8.313-7.875zM144.813 348.688c17.123-0.528 23.101 7.347 17.937 23.625-6.128 6.493-13.273 7.806-21.437 3.937-6.076-5.41-7.68-11.971-4.813-19.687 2.105-3.42 4.876-6.045 8.313-7.875zM291.813 348.688c17.123-0.528 23.101 7.347 17.937 23.625-6.128 6.493-13.273 7.806-21.437 3.937-6.076-5.41-7.68-11.971-4.813-19.687 2.106-3.42 4.875-6.045 8.313-7.875zM358.313 348.688c17.123-0.528 23.101 7.347 17.937 23.625-6.128 6.493-13.273 7.806-21.437 3.937-6.076-5.41-7.68-11.971-4.813-19.687 2.106-3.42 4.875-6.045 8.313-7.875z"></path>
    </symbol>
</svg>