<svg width="15" height="15" viewBox="0 0 15 15" fill="none" xmlns="http://www.w3.org/2000/svg">
<circle cx="7.5" cy="7.5" r="7.5" fill="url(#paint0_linear_92_12120)"/>
<path d="M6.76705 11V5.54545H7.60511V11H6.76705ZM7.19318 4.63636C7.02983 4.63636 6.88897 4.58073 6.7706 4.46946C6.65459 4.35819 6.59659 4.22443 6.59659 4.06818C6.59659 3.91193 6.65459 3.77817 6.7706 3.6669C6.88897 3.55563 7.02983 3.5 7.19318 3.5C7.35653 3.5 7.49621 3.55563 7.61222 3.6669C7.73059 3.77817 7.78977 3.91193 7.78977 4.06818C7.78977 4.22443 7.73059 4.35819 7.61222 4.46946C7.49621 4.58073 7.35653 4.63636 7.19318 4.63636Z" fill="white"/>
<defs>
<linearGradient id="paint0_linear_92_12120" x1="7.5" y1="0" x2="7.5" y2="15" gradientUnits="userSpaceOnUse">
<stop stop-color="#EB266B"/>
<stop offset="1" stop-color="#F26316"/>
</linearGradient>
</defs>
</svg>
