<svg width="45" height="45" fill="none" xmlns="http://www.w3.org/2000/svg"><g clip-path="url(#a)"><path d="M22.5 45C34.926 45 45 34.926 45 22.5S34.926 0 22.5 0 0 10.074 0 22.5 10.074 45 22.5 45Z" fill="#D80027"/><path d="m21.579 18.386 1.846 2.544 2.99-.97-1.85 2.542 1.846 2.544-2.988-.973-1.85 2.542.003-3.143-2.99-.974 2.99-.969.003-3.143Z" fill="#F0F0F0"/><path d="M16.54 28.859a6.359 6.359 0 1 1 3.025-11.954 7.826 7.826 0 1 0 0 11.189c-.9.488-1.93.765-3.024.765Z" fill="#F0F0F0"/></g><defs><clipPath id="a"><path fill="#fff" d="M0 0h45v45H0z"/></clipPath></defs></svg>