<svg width="60" height="60" viewBox="0 0 60 60" fill="none" xmlns="http://www.w3.org/2000/svg">
<rect width="60" height="60" rx="30" fill="#E2E2E2"/>
<path d="M19.1431 38.4192C19.1431 38.4192 20.3227 36.3585 25.1702 35.0596C30.0176 33.7608 34.1215 36.1503 38.9689 34.8514C43.8163 33.5525 44.996 31.4919 44.996 31.4919L39.7623 11.9594C39.7623 11.9594 38.5826 14.02 33.7352 15.3189C28.8878 16.6178 24.7839 14.2283 19.9364 15.5271C15.089 16.826 13.9093 18.8867 13.9093 18.8867L19.1431 38.4192Z" fill="#6C6C6C"/>
<path fill-rule="evenodd" clip-rule="evenodd" d="M39.8511 11.2753C40.1282 11.3113 40.3563 11.5109 40.4286 11.7808L45.6623 31.3133C45.7095 31.4892 45.6851 31.6766 45.5947 31.8346L44.996 31.4919C45.5947 31.8346 45.5944 31.835 45.5942 31.8355L45.5936 31.8364L45.5924 31.8385L45.5897 31.8431C45.5878 31.8464 45.5855 31.8503 45.5829 31.8546C45.5777 31.8632 45.5712 31.8738 45.5633 31.8861C45.5475 31.9109 45.5262 31.943 45.4987 31.9818C45.4438 32.0593 45.3644 32.1632 45.2556 32.2878C45.038 32.5372 44.7038 32.8681 44.2149 33.2359C43.2359 33.9722 41.6469 34.848 39.1475 35.5177C36.5943 36.2018 34.243 35.9153 32.0321 35.6459L31.9861 35.6403C29.7347 35.366 27.6252 35.1159 25.3487 35.7259C23.0007 36.3551 21.5761 37.159 20.7534 37.7778C20.3416 38.0875 20.0778 38.3529 19.9228 38.5305C19.9133 38.5414 19.9042 38.5519 19.8955 38.5622L22.8522 49.5965C22.9508 49.9645 22.7324 50.3427 22.3644 50.4414C21.9964 50.54 21.6181 50.3216 21.5195 49.9536L18.4769 38.5984C18.4769 38.5981 18.4768 38.5979 18.4767 38.5977L12.8069 17.4375C12.7083 17.0695 12.9267 16.6912 13.2947 16.5926C13.6626 16.494 14.0409 16.7124 14.1395 17.0804L14.2511 17.497C14.3813 17.3841 14.5272 17.2654 14.6905 17.1427C15.6695 16.4064 17.2585 15.5305 19.7579 14.8608C22.3111 14.1767 24.6624 14.4632 26.8733 14.7327L26.9192 14.7383C29.1707 15.0126 31.2801 15.2626 33.5567 14.6526C35.9047 14.0234 37.3292 13.2195 38.1519 12.6008C38.5638 12.291 38.8276 12.0256 38.9825 11.848C39.0601 11.7591 39.1108 11.6919 39.1393 11.6516C39.1536 11.6315 39.1623 11.6181 39.1662 11.612C39.167 11.6108 39.1675 11.6099 39.1679 11.6093C39.308 11.3714 39.5768 11.2397 39.8511 11.2753ZM39.1646 11.615C39.1646 11.615 39.1646 11.6149 39.1646 11.615V11.615ZM39.4205 13.349C39.2904 13.4619 39.1444 13.5806 38.9812 13.7034C38.0022 14.4397 36.4132 15.3155 33.9137 15.9852C31.3606 16.6693 29.0093 16.3828 26.7984 16.1134L26.7524 16.1078C24.501 15.8335 22.3915 15.5834 20.115 16.1934C17.767 16.8226 16.3424 17.6265 15.5197 18.2453C15.1078 18.555 14.8441 18.8204 14.6891 18.998C14.6796 19.0089 14.6705 19.0194 14.6618 19.0297L19.4848 37.0295C19.615 36.9166 19.761 36.7979 19.9242 36.6752C20.9032 35.9389 22.4922 35.063 24.9916 34.3933C27.5448 33.7092 29.8961 33.9957 32.107 34.2652L32.153 34.2708C34.4044 34.5451 36.5138 34.7951 38.7904 34.1851C41.1384 33.5559 42.5629 32.752 43.3856 32.1333C43.7975 31.8235 44.0613 31.5581 44.2163 31.3805C44.2258 31.3697 44.2348 31.3591 44.2435 31.3489L39.4205 13.349ZM44.4021 31.1411C44.4023 31.1407 44.4023 31.1408 44.4019 31.1413L44.4021 31.1411Z" fill="#6C6C6C"/>
</svg>
