<svg width="24" height="29" viewBox="0 0 24 29" fill="none" xmlns="http://www.w3.org/2000/svg">
<g clip-path="url(#clip0_74_998)">
<path fill-rule="evenodd" clip-rule="evenodd" d="M11.3725 0.0754319L2.11179 2.3307C0.927306 2.61962 0.09375 3.67671 0.09375 4.89197V16.0993C0.09375 20.5357 2.63108 24.5846 6.63116 26.5333L11.42 28.8658C11.6036 28.955 11.8023 29 12.0011 29C12.2001 29 12.3987 28.9551 12.5822 28.8658L17.3711 26.5333C21.3712 24.5846 23.9085 20.5357 23.9085 16.0993V4.89197C23.9085 3.67671 23.075 2.61962 21.8905 2.3307L12.6298 0.0754319C12.423 0.025144 12.2121 0 12.0011 0C11.7902 0 11.579 0.025144 11.3725 0.0754319ZM18.2288 11.4773C18.7453 10.9627 18.7453 10.1283 18.2288 9.61363C17.7122 9.09841 16.8745 9.09841 16.3573 9.61363L10.6781 15.2721L7.64471 12.2495C7.12789 11.7348 6.29014 11.7348 5.77361 12.2495C5.25708 12.7641 5.25708 13.5991 5.77361 14.1137L9.74245 18.0686C10.259 18.5833 11.097 18.5833 11.6136 18.0686L18.2288 11.4773Z" fill="#FEFEFE"/>
</g>
<defs>
<clipPath id="clip0_74_998">
<rect width="24" height="29" fill="white"/>
</clipPath>
</defs>
</svg>
