<svg width="30" height="36" viewBox="0 0 30 36" fill="none" xmlns="http://www.w3.org/2000/svg">
<g clip-path="url(#clip0_74_1109)">
<path fill-rule="evenodd" clip-rule="evenodd" d="M14.2157 0.0936396L2.63974 2.89329C1.15913 3.25194 0.117188 4.56419 0.117188 6.07279V19.9854C0.117188 25.4926 3.28885 30.5188 8.28895 32.9379L14.2751 35.8335C14.5046 35.9442 14.7529 36 15.0014 36C15.2501 36 15.4984 35.9443 15.7278 35.8335L21.7139 32.9379C26.714 30.5188 29.8857 25.4926 29.8857 19.9854V6.07279C29.8857 4.56419 28.8437 3.25194 27.3631 2.89329L15.7872 0.0936396C15.5288 0.0312132 15.2651 0 15.0014 0C14.7378 0 14.4737 0.0312132 14.2157 0.0936396ZM22.786 14.2477C23.4316 13.6088 23.4316 12.573 22.786 11.9342C22.1403 11.2946 21.0931 11.2946 20.4466 11.9342L13.3476 18.9584L9.55588 15.2062C8.90986 14.5674 7.86268 14.5674 7.21701 15.2062C6.57135 15.8451 6.57135 16.8816 7.21701 17.5205L12.1781 22.43C12.8237 23.0689 13.8713 23.0689 14.5169 22.43L22.786 14.2477Z" fill="#BF2535"/>
</g>
<defs>
<clipPath id="clip0_74_1109">
<rect width="30" height="36" fill="white"/>
</clipPath>
</defs>
</svg>
