<svg width="28" height="527" viewBox="0 0 28 527" fill="none" xmlns="http://www.w3.org/2000/svg">
<line x1="2.18557e-08" y1="523.5" x2="32" y2="523.5" stroke="#2F5575" stroke-opacity="0.08"/>
<line x1="2.18557e-08" y1="519.25" x2="32" y2="519.25" stroke="#2F5575" stroke-opacity="0.08"/>
<line x1="2.18557e-08" y1="515" x2="32" y2="515" stroke="#2F5575" stroke-opacity="0.08"/>
<line x1="2.18557e-08" y1="510.75" x2="32" y2="510.75" stroke="#2F5575" stroke-opacity="0.08"/>
<line x1="2.18557e-08" y1="506.5" x2="32" y2="506.5" stroke="#2F5575" stroke-opacity="0.08"/>
<line x1="2.18557e-08" y1="502.25" x2="32" y2="502.25" stroke="#2F5575" stroke-opacity="0.2"/>
<line x1="2.18557e-08" y1="498" x2="32" y2="498" stroke="#2F5575" stroke-opacity="0.2"/>
<line x1="2.18557e-08" y1="493.75" x2="32" y2="493.75" stroke="#2F5575" stroke-opacity="0.08"/>
<line x1="2.18557e-08" y1="489.5" x2="32" y2="489.5" stroke="#2F5575" stroke-opacity="0.08"/>
<line x1="2.18557e-08" y1="485.25" x2="32" y2="485.25" stroke="#2F5575" stroke-opacity="0.08"/>
<line x1="2.18557e-08" y1="481" x2="32" y2="481" stroke="#2F5575" stroke-opacity="0.08"/>
<line x1="2.18557e-08" y1="476.75" x2="32" y2="476.75" stroke="#2F5575" stroke-opacity="0.08"/>
<line x1="2.18557e-08" y1="472.5" x2="32" y2="472.5" stroke="#2F5575" stroke-opacity="0.08"/>
<line x1="2.18557e-08" y1="468.25" x2="32" y2="468.25" stroke="#2F5575" stroke-opacity="0.08"/>
<line x1="2.18557e-08" y1="464" x2="32" y2="464" stroke="#2F5575" stroke-opacity="0.08"/>
<line x1="2.18557e-08" y1="459.75" x2="32" y2="459.75" stroke="#2F5575" stroke-opacity="0.2"/>
<line x1="2.18557e-08" y1="455.5" x2="32" y2="455.5" stroke="#2F5575" stroke-opacity="0.2"/>
<line x1="2.18557e-08" y1="451.25" x2="32" y2="451.25" stroke="#2F5575" stroke-opacity="0.08"/>
<line x1="2.18557e-08" y1="447" x2="32" y2="447" stroke="#2F5575" stroke-opacity="0.08"/>
<line x1="2.18557e-08" y1="442.75" x2="32" y2="442.75" stroke="#2F5575" stroke-opacity="0.4"/>
<line x1="2.18557e-08" y1="438.5" x2="32" y2="438.5" stroke="#2F5575" stroke-opacity="0.08"/>
<line x1="2.18557e-08" y1="434.25" x2="32" y2="434.25" stroke="#2F5575" stroke-opacity="0.08"/>
<line x1="2.18557e-08" y1="430" x2="32" y2="430" stroke="#2F5575" stroke-opacity="0.08"/>
<line x1="2.18557e-08" y1="425.75" x2="32" y2="425.75" stroke="#2F5575" stroke-opacity="0.08"/>
<line x1="2.18557e-08" y1="421.5" x2="32" y2="421.5" stroke="#2F5575" stroke-opacity="0.2"/>
<line x1="2.18557e-08" y1="417.25" x2="32" y2="417.25" stroke="#2F5575" stroke-opacity="0.2"/>
<line x1="2.18557e-08" y1="413" x2="32" y2="413" stroke="#2F5575" stroke-opacity="0.08"/>
<line x1="2.18557e-08" y1="408.75" x2="32" y2="408.75" stroke="#2F5575"/>
<line x1="2.18557e-08" y1="404.5" x2="32" y2="404.5" stroke="#2F5575" stroke-opacity="0.08"/>
<line x1="2.18557e-08" y1="400.25" x2="32" y2="400.25" stroke="#2F5575" stroke-opacity="0.08"/>
<line x1="2.18557e-08" y1="396" x2="32" y2="396" stroke="#2F5575" stroke-opacity="0.08"/>
<line x1="2.18557e-08" y1="391.75" x2="32" y2="391.75" stroke="#2F5575" stroke-opacity="0.08"/>
<line x1="2.18557e-08" y1="387.5" x2="32" y2="387.5" stroke="#2F5575" stroke-opacity="0.08"/>
<line x1="2.18557e-08" y1="383.25" x2="32" y2="383.25" stroke="#2F5575" stroke-opacity="0.08"/>
<line x1="2.18557e-08" y1="379" x2="32" y2="379" stroke="#2F5575" stroke-opacity="0.08"/>
<line x1="2.18557e-08" y1="374.75" x2="32" y2="374.75" stroke="#2F5575" stroke-opacity="0.2"/>
<line x1="2.18557e-08" y1="370.5" x2="32" y2="370.5" stroke="#2F5575" stroke-opacity="0.2"/>
<line x1="2.18557e-08" y1="366.25" x2="32" y2="366.25" stroke="#2F5575" stroke-opacity="0.08"/>
<line x1="2.18557e-08" y1="362" x2="32" y2="362" stroke="#2F5575" stroke-opacity="0.08"/>
<line x1="2.18557e-08" y1="357.75" x2="32" y2="357.75" stroke="#2F5575" stroke-opacity="0.08"/>
<line x1="2.18557e-08" y1="353.5" x2="32" y2="353.5" stroke="#2F5575" stroke-opacity="0.08"/>
<line x1="2.18557e-08" y1="349.25" x2="32" y2="349.25" stroke="#2F5575" stroke-opacity="0.08"/>
<line x1="2.18557e-08" y1="345" x2="32" y2="345" stroke="#2F5575" stroke-opacity="0.08"/>
<line x1="2.18557e-08" y1="340.75" x2="32" y2="340.75" stroke="#2F5575" stroke-opacity="0.08"/>
<line x1="2.18557e-08" y1="336.5" x2="32" y2="336.5" stroke="#2F5575" stroke-opacity="0.08"/>
<line x1="2.18557e-08" y1="332.25" x2="32" y2="332.25" stroke="#2F5575" stroke-opacity="0.2"/>
<line x1="2.18557e-08" y1="328" x2="32" y2="328" stroke="#2F5575" stroke-opacity="0.2"/>
<line x1="2.18557e-08" y1="323.75" x2="32" y2="323.75" stroke="#2F5575" stroke-opacity="0.08"/>
<line x1="2.18557e-08" y1="319.5" x2="32" y2="319.5" stroke="#2F5575" stroke-opacity="0.08"/>
<line x1="2.18557e-08" y1="315.25" x2="32" y2="315.25" stroke="#2F5575" stroke-opacity="0.08"/>
<line x1="2.18557e-08" y1="311" x2="32" y2="311" stroke="#2F5575" stroke-opacity="0.08"/>
<line x1="2.18557e-08" y1="306.75" x2="32" y2="306.75" stroke="#2F5575" stroke-opacity="0.08"/>
<line x1="2.18557e-08" y1="302.5" x2="32" y2="302.5" stroke="#2F5575" stroke-opacity="0.08"/>
<line x1="2.18557e-08" y1="298.25" x2="32" y2="298.25" stroke="#2F5575" stroke-opacity="0.4"/>
<line x1="2.18557e-08" y1="294" x2="32" y2="294" stroke="#2F5575" stroke-opacity="0.08"/>
<line x1="2.18557e-08" y1="289.75" x2="32" y2="289.75" stroke="#2F5575" stroke-opacity="0.2"/>
<line x1="2.18557e-08" y1="285.5" x2="32" y2="285.5" stroke="#2F5575" stroke-opacity="0.2"/>
<line x1="2.18557e-08" y1="281.25" x2="32" y2="281.25" stroke="#2F5575" stroke-opacity="0.08"/>
<line x1="2.18557e-08" y1="277" x2="32" y2="277" stroke="#2F5575" stroke-opacity="0.08"/>
<line x1="2.18557e-08" y1="272.75" x2="32" y2="272.75" stroke="#2F5575" stroke-opacity="0.08"/>
<line x1="2.18557e-08" y1="268.5" x2="32" y2="268.5" stroke="#2F5575" stroke-opacity="0.08"/>
<line x1="2.18557e-08" y1="264.25" x2="32" y2="264.25" stroke="#2F5575" stroke-opacity="0.08"/>
<line x1="2.18557e-08" y1="260" x2="32" y2="260" stroke="#2F5575" stroke-opacity="0.08"/>
<line x1="2.18557e-08" y1="255.75" x2="32" y2="255.75" stroke="#2F5575" stroke-opacity="0.08"/>
<line x1="2.18557e-08" y1="251.5" x2="32" y2="251.5" stroke="#2F5575" stroke-opacity="0.08"/>
<line x1="2.18557e-08" y1="247.25" x2="32" y2="247.25" stroke="#2F5575" stroke-opacity="0.2"/>
<line x1="2.18557e-08" y1="243" x2="32" y2="243" stroke="#2F5575" stroke-opacity="0.08"/>
<line x1="2.18557e-08" y1="238.75" x2="32" y2="238.75" stroke="#2F5575" stroke-opacity="0.08"/>
<line x1="2.18557e-08" y1="234.5" x2="32" y2="234.5" stroke="#2F5575" stroke-opacity="0.08"/>
<line x1="2.18557e-08" y1="230.25" x2="32" y2="230.25" stroke="#2F5575" stroke-opacity="0.08"/>
<line x1="2.18557e-08" y1="226" x2="32" y2="226" stroke="#2F5575" stroke-opacity="0.08"/>
<line x1="2.18557e-08" y1="221.75" x2="32" y2="221.75" stroke="#2F5575" stroke-opacity="0.08"/>
<line x1="2.18557e-08" y1="217.5" x2="32" y2="217.5" stroke="#2F5575" stroke-opacity="0.08"/>
<line x1="2.18557e-08" y1="213.25" x2="32" y2="213.25" stroke="#2F5575" stroke-opacity="0.08"/>
<line x1="2.18557e-08" y1="209" x2="32" y2="209" stroke="#2F5575" stroke-opacity="0.2"/>
<line x1="2.18557e-08" y1="204.75" x2="32" y2="204.75" stroke="#2F5575"/>
<line x1="2.18557e-08" y1="200.5" x2="32" y2="200.5" stroke="#2F5575" stroke-opacity="0.2"/>
<line x1="2.18557e-08" y1="196.25" x2="32" y2="196.25" stroke="#2F5575" stroke-opacity="0.08"/>
<line x1="2.18557e-08" y1="192" x2="32" y2="192" stroke="#2F5575" stroke-opacity="0.08"/>
<line x1="2.18557e-08" y1="187.75" x2="32" y2="187.75" stroke="#2F5575" stroke-opacity="0.4"/>
<line x1="2.18557e-08" y1="183.5" x2="32" y2="183.5" stroke="#2F5575" stroke-opacity="0.08"/>
<line x1="2.18557e-08" y1="179.25" x2="32" y2="179.25" stroke="#2F5575" stroke-opacity="0.08"/>
<line x1="2.18557e-08" y1="175" x2="32" y2="175" stroke="#2F5575" stroke-opacity="0.08"/>
<line x1="2.18557e-08" y1="170.75" x2="32" y2="170.75" stroke="#2F5575" stroke-opacity="0.08"/>
<line x1="2.18557e-08" y1="166.5" x2="32" y2="166.5" stroke="#2F5575" stroke-opacity="0.08"/>
<line x1="2.18557e-08" y1="162.25" x2="32" y2="162.25" stroke="#2F5575" stroke-opacity="0.08"/>
<line x1="2.18557e-08" y1="158" x2="32" y2="158" stroke="#2F5575" stroke-opacity="0.08"/>
<line x1="2.18557e-08" y1="153.75" x2="32" y2="153.75" stroke="#2F5575" stroke-opacity="0.08"/>
<line x1="2.18557e-08" y1="149.5" x2="32" y2="149.5" stroke="#2F5575" stroke-opacity="0.08"/>
<line x1="2.18557e-08" y1="145.25" x2="32" y2="145.25" stroke="#2F5575" stroke-opacity="0.2"/>
<line x1="2.18557e-08" y1="141" x2="32" y2="141" stroke="#2F5575" stroke-opacity="0.2"/>
<line x1="2.18557e-08" y1="136.75" x2="32" y2="136.75" stroke="#2F5575" stroke-opacity="0.08"/>
<line x1="2.18557e-08" y1="132.5" x2="32" y2="132.5" stroke="#2F5575" stroke-opacity="0.08"/>
<line x1="2.18557e-08" y1="128.25" x2="32" y2="128.25" stroke="#2F5575" stroke-opacity="0.08"/>
<line x1="2.18557e-08" y1="124" x2="32" y2="124" stroke="#2F5575" stroke-opacity="0.08"/>
<line x1="2.18557e-08" y1="119.75" x2="32" y2="119.75" stroke="#2F5575" stroke-opacity="0.08"/>
<line x1="2.18557e-08" y1="115.5" x2="32" y2="115.5" stroke="#2F5575" stroke-opacity="0.08"/>
<line x1="2.18557e-08" y1="111.25" x2="32" y2="111.25" stroke="#2F5575" stroke-opacity="0.4"/>
<line x1="2.18557e-08" y1="107" x2="32" y2="107" stroke="#2F5575" stroke-opacity="0.08"/>
<line x1="2.18557e-08" y1="102.75" x2="32" y2="102.75" stroke="#2F5575" stroke-opacity="0.2"/>
<line x1="2.18557e-08" y1="98.5" x2="32" y2="98.5" stroke="#2F5575" stroke-opacity="0.2"/>
<line x1="2.18557e-08" y1="94.25" x2="32" y2="94.25" stroke="#2F5575" stroke-opacity="0.08"/>
<line x1="2.18557e-08" y1="90" x2="32" y2="90" stroke="#2F5575" stroke-opacity="0.08"/>
<line x1="2.18557e-08" y1="85.75" x2="32" y2="85.75" stroke="#2F5575" stroke-opacity="0.08"/>
<line x1="2.18557e-08" y1="81.5" x2="32" y2="81.5" stroke="#2F5575" stroke-opacity="0.08"/>
<line x1="2.18557e-08" y1="77.25" x2="32" y2="77.25" stroke="#2F5575" stroke-opacity="0.08"/>
<line x1="2.18557e-08" y1="73" x2="32" y2="73" stroke="#2F5575" stroke-opacity="0.08"/>
<line x1="2.18557e-08" y1="68.75" x2="32" y2="68.75" stroke="#2F5575" stroke-opacity="0.08"/>
<line x1="2.18557e-08" y1="64.5" x2="32" y2="64.5" stroke="#2F5575" stroke-opacity="0.08"/>
<line x1="2.18557e-08" y1="60.25" x2="32" y2="60.25" stroke="#2F5575" stroke-opacity="0.2"/>
<line x1="2.18557e-08" y1="56" x2="32" y2="56" stroke="#2F5575" stroke-opacity="0.2"/>
<line x1="2.18557e-08" y1="51.75" x2="32" y2="51.75" stroke="#2F5575" stroke-opacity="0.08"/>
<line x1="2.18557e-08" y1="47.5" x2="32" y2="47.5" stroke="#2F5575" stroke-opacity="0.08"/>
<line x1="2.18557e-08" y1="43.25" x2="32" y2="43.25" stroke="#2F5575" stroke-opacity="0.08"/>
<line x1="2.18557e-08" y1="39" x2="32" y2="39" stroke="#2F5575" stroke-opacity="0.08"/>
<line x1="2.18557e-08" y1="34.75" x2="32" y2="34.75" stroke="#2F5575" stroke-opacity="0.08"/>
<line x1="2.18557e-08" y1="30.5" x2="32" y2="30.5" stroke="#2F5575" stroke-opacity="0.08"/>
<line x1="2.18557e-08" y1="26.25" x2="32" y2="26.25" stroke="#2F5575" stroke-opacity="0.08"/>
<line x1="2.18557e-08" y1="22" x2="32" y2="22" stroke="#2F5575" stroke-opacity="0.08"/>
<line x1="2.18557e-08" y1="17.75" x2="32" y2="17.75" stroke="#2F5575" stroke-opacity="0.2"/>
<line x1="2.18557e-08" y1="13.5" x2="32" y2="13.5" stroke="#2F5575" stroke-opacity="0.2"/>
<line x1="2.18557e-08" y1="9.25" x2="32" y2="9.25" stroke="#2F5575" stroke-opacity="0.08"/>
<line x1="2.18557e-08" y1="5" x2="32" y2="5" stroke="#2F5575" stroke-opacity="0.08"/>
<line x1="2.18557e-08" y1="0.75" x2="32" y2="0.750001" stroke="#2F5575"/>
</svg>
