<svg width="740" height="20" viewBox="0 0 740 20" fill="none" xmlns="http://www.w3.org/2000/svg">
<line x1="0.5" y1="2.18557e-08" x2="0.499999" y2="20" stroke="#2F5575"/>
<line x1="4.75" y1="2.18557e-08" x2="4.75" y2="20" stroke="#2F5575" stroke-opacity="0.08"/>
<line x1="9" y1="2.18557e-08" x2="9" y2="20" stroke="#2F5575" stroke-opacity="0.08"/>
<line x1="13.25" y1="2.18557e-08" x2="13.25" y2="20" stroke="#2F5575" stroke-opacity="0.08"/>
<line x1="17.5" y1="2.18557e-08" x2="17.5" y2="20" stroke="#2F5575" stroke-opacity="0.2"/>
<line x1="21.75" y1="2.18557e-08" x2="21.75" y2="20" stroke="#2F5575" stroke-opacity="0.2"/>
<line x1="26" y1="2.18557e-08" x2="26" y2="20" stroke="#2F5575" stroke-opacity="0.08"/>
<line x1="30.25" y1="2.18557e-08" x2="30.25" y2="20" stroke="#2F5575" stroke-opacity="0.08"/>
<line x1="34.5" y1="2.18557e-08" x2="34.5" y2="20" stroke="#2F5575" stroke-opacity="0.08"/>
<line x1="38.75" y1="2.18557e-08" x2="38.75" y2="20" stroke="#2F5575" stroke-opacity="0.08"/>
<line x1="43" y1="2.18557e-08" x2="43" y2="20" stroke="#2F5575" stroke-opacity="0.08"/>
<line x1="47.25" y1="2.18557e-08" x2="47.25" y2="20" stroke="#2F5575" stroke-opacity="0.08"/>
<line x1="51.5" y1="2.18557e-08" x2="51.5" y2="20" stroke="#2F5575" stroke-opacity="0.08"/>
<line x1="55.75" y1="2.18557e-08" x2="55.75" y2="20" stroke="#2F5575" stroke-opacity="0.08"/>
<line x1="60" y1="2.18557e-08" x2="60" y2="20" stroke="#2F5575" stroke-opacity="0.2"/>
<line x1="64.25" y1="2.18557e-08" x2="64.25" y2="20" stroke="#2F5575" stroke-opacity="0.2"/>
<line x1="68.5" y1="2.18557e-08" x2="68.5" y2="20" stroke="#2F5575" stroke-opacity="0.08"/>
<line x1="72.75" y1="2.18557e-08" x2="72.75" y2="20" stroke="#2F5575" stroke-opacity="0.08"/>
<line x1="77" y1="2.18557e-08" x2="77" y2="20" stroke="#2F5575" stroke-opacity="0.08"/>
<line x1="81.25" y1="2.18557e-08" x2="81.25" y2="20" stroke="#2F5575" stroke-opacity="0.4"/>
<line x1="85.5" y1="2.18557e-08" x2="85.5" y2="20" stroke="#2F5575" stroke-opacity="0.08"/>
<line x1="89.75" y1="2.18557e-08" x2="89.75" y2="20" stroke="#2F5575" stroke-opacity="0.08"/>
<line x1="94" y1="2.18557e-08" x2="94" y2="20" stroke="#2F5575" stroke-opacity="0.08"/>
<line x1="98.25" y1="2.18557e-08" x2="98.25" y2="20" stroke="#2F5575" stroke-opacity="0.08"/>
<line x1="102.5" y1="2.18557e-08" x2="102.5" y2="20" stroke="#2F5575" stroke-opacity="0.2"/>
<line x1="106.75" y1="2.18557e-08" x2="106.75" y2="20" stroke="#2F5575" stroke-opacity="0.2"/>
<line x1="111" y1="2.18557e-08" x2="111" y2="20" stroke="#2F5575" stroke-opacity="0.08"/>
<line x1="115.25" y1="2.18557e-08" x2="115.25" y2="20" stroke="#2F5575" stroke-opacity="0.08"/>
<line x1="119.5" y1="2.18557e-08" x2="119.5" y2="20" stroke="#2F5575" stroke-opacity="0.08"/>
<line x1="123.75" y1="2.18557e-08" x2="123.75" y2="20" stroke="#2F5575" stroke-opacity="0.08"/>
<line x1="128" y1="2.18557e-08" x2="128" y2="20" stroke="#2F5575" stroke-opacity="0.08"/>
<line x1="132.25" y1="2.18557e-08" x2="132.25" y2="20" stroke="#2F5575" stroke-opacity="0.08"/>
<line x1="136.5" y1="2.18557e-08" x2="136.5" y2="20" stroke="#2F5575" stroke-opacity="0.08"/>
<line x1="140.75" y1="2.18557e-08" x2="140.75" y2="20" stroke="#2F5575" stroke-opacity="0.08"/>
<line x1="145" y1="2.18557e-08" x2="145" y2="20" stroke="#2F5575" stroke-opacity="0.2"/>
<line x1="149.25" y1="2.18557e-08" x2="149.25" y2="20" stroke="#2F5575" stroke-opacity="0.2"/>
<line x1="153.5" y1="2.18557e-08" x2="153.5" y2="20" stroke="#2F5575" stroke-opacity="0.08"/>
<line x1="157.75" y1="2.18557e-08" x2="157.75" y2="20" stroke="#2F5575" stroke-opacity="0.08"/>
<line x1="162" y1="2.18557e-08" x2="162" y2="20" stroke="#2F5575" stroke-opacity="0.08"/>
<line x1="166.25" y1="2.18557e-08" x2="166.25" y2="20" stroke="#2F5575" stroke-opacity="0.08"/>
<line x1="170.5" y1="2.18557e-08" x2="170.5" y2="20" stroke="#2F5575" stroke-opacity="0.08"/>
<line x1="174.75" y1="2.18557e-08" x2="174.75" y2="20" stroke="#2F5575" stroke-opacity="0.08"/>
<line x1="179" y1="2.18557e-08" x2="179" y2="20" stroke="#2F5575" stroke-opacity="0.08"/>
<line x1="183.25" y1="2.18557e-08" x2="183.25" y2="20" stroke="#2F5575" stroke-opacity="0.08"/>
<line x1="187.5" y1="2.18557e-08" x2="187.5" y2="20" stroke="#2F5575" stroke-opacity="0.2"/>
<line x1="191.75" y1="2.18557e-08" x2="191.75" y2="20" stroke="#2F5575" stroke-opacity="0.2"/>
<line x1="196" y1="2.18557e-08" x2="196" y2="20" stroke="#2F5575" stroke-opacity="0.08"/>
<line x1="200.25" y1="2.18557e-08" x2="200.25" y2="20" stroke="#2F5575" stroke-opacity="0.08"/>
<line x1="204.5" y1="2.18557e-08" x2="204.5" y2="20" stroke="#2F5575" stroke-opacity="0.08"/>
<line x1="208.75" y1="2.18557e-08" x2="208.75" y2="20" stroke="#2F5575" stroke-opacity="0.08"/>
<line x1="213" y1="2.18557e-08" x2="213" y2="20" stroke="#2F5575" stroke-opacity="0.08"/>
<line x1="217.25" y1="2.18557e-08" x2="217.25" y2="20" stroke="#2F5575" stroke-opacity="0.08"/>
<line x1="221.5" y1="2.18557e-08" x2="221.5" y2="20" stroke="#2F5575" stroke-opacity="0.4"/>
<line x1="225.75" y1="2.18557e-08" x2="225.75" y2="20" stroke="#2F5575" stroke-opacity="0.08"/>
<line x1="230" y1="2.18557e-08" x2="230" y2="20" stroke="#2F5575" stroke-opacity="0.2"/>
<line x1="234.25" y1="2.18557e-08" x2="234.25" y2="20" stroke="#2F5575" stroke-opacity="0.2"/>
<line x1="238.5" y1="2.18557e-08" x2="238.5" y2="20" stroke="#2F5575" stroke-opacity="0.08"/>
<line x1="242.75" y1="2.18557e-08" x2="242.75" y2="20" stroke="#2F5575" stroke-opacity="0.08"/>
<line x1="247" y1="2.18557e-08" x2="247" y2="20" stroke="#2F5575"/>
<line x1="251.25" y1="2.18557e-08" x2="251.25" y2="20" stroke="#2F5575" stroke-opacity="0.08"/>
<line x1="255.5" y1="2.18557e-08" x2="255.5" y2="20" stroke="#2F5575" stroke-opacity="0.08"/>
<line x1="259.75" y1="2.18557e-08" x2="259.75" y2="20" stroke="#2F5575" stroke-opacity="0.08"/>
<line x1="264" y1="2.18557e-08" x2="264" y2="20" stroke="#2F5575" stroke-opacity="0.08"/>
<line x1="268.25" y1="2.18557e-08" x2="268.25" y2="20" stroke="#2F5575" stroke-opacity="0.08"/>
<line x1="272.5" y1="2.18557e-08" x2="272.5" y2="20" stroke="#2F5575" stroke-opacity="0.2"/>
<line x1="276.75" y1="2.18557e-08" x2="276.75" y2="20" stroke="#2F5575" stroke-opacity="0.2"/>
<line x1="281" y1="2.18557e-08" x2="281" y2="20" stroke="#2F5575" stroke-opacity="0.08"/>
<line x1="285.25" y1="2.18557e-08" x2="285.25" y2="20" stroke="#2F5575" stroke-opacity="0.08"/>
<line x1="289.5" y1="2.18557e-08" x2="289.5" y2="20" stroke="#2F5575" stroke-opacity="0.08"/>
<line x1="293.75" y1="2.18557e-08" x2="293.75" y2="20" stroke="#2F5575" stroke-opacity="0.08"/>
<line x1="298" y1="2.18557e-08" x2="298" y2="20" stroke="#2F5575" stroke-opacity="0.08"/>
<line x1="302.25" y1="2.18557e-08" x2="302.25" y2="20" stroke="#2F5575" stroke-opacity="0.08"/>
<line x1="306.5" y1="2.18557e-08" x2="306.5" y2="20" stroke="#2F5575" stroke-opacity="0.08"/>
<line x1="310.75" y1="2.18557e-08" x2="310.75" y2="20" stroke="#2F5575" stroke-opacity="0.08"/>
<line x1="315" y1="2.18557e-08" x2="315" y2="20" stroke="#2F5575" stroke-opacity="0.2"/>
<line x1="319.25" y1="2.18557e-08" x2="319.25" y2="20" stroke="#2F5575" stroke-opacity="0.2"/>
<line x1="323.5" y1="2.18557e-08" x2="323.5" y2="20" stroke="#2F5575" stroke-opacity="0.08"/>
<line x1="327.75" y1="2.18557e-08" x2="327.75" y2="20" stroke="#2F5575" stroke-opacity="0.08"/>
<line x1="332" y1="2.18557e-08" x2="332" y2="20" stroke="#2F5575" stroke-opacity="0.4"/>
<line x1="336.25" y1="2.18557e-08" x2="336.25" y2="20" stroke="#2F5575" stroke-opacity="0.08"/>
<line x1="340.5" y1="2.18557e-08" x2="340.5" y2="20" stroke="#2F5575" stroke-opacity="0.08"/>
<line x1="344.75" y1="2.18557e-08" x2="344.75" y2="20" stroke="#2F5575" stroke-opacity="0.08"/>
<line x1="349" y1="2.18557e-08" x2="349" y2="20" stroke="#2F5575" stroke-opacity="0.08"/>
<line x1="353.25" y1="2.18557e-08" x2="353.25" y2="20" stroke="#2F5575" stroke-opacity="0.08"/>
<line x1="357.5" y1="2.18557e-08" x2="357.5" y2="20" stroke="#2F5575" stroke-opacity="0.2"/>
<line x1="361.75" y1="2.18557e-08" x2="361.75" y2="20" stroke="#2F5575" stroke-opacity="0.2"/>
<line x1="366" y1="2.18557e-08" x2="366" y2="20" stroke="#2F5575" stroke-opacity="0.08"/>
<line x1="370.25" y1="2.18557e-08" x2="370.25" y2="20" stroke="#2F5575" stroke-opacity="0.08"/>
<line x1="374.5" y1="2.18557e-08" x2="374.5" y2="20" stroke="#2F5575" stroke-opacity="0.08"/>
<line x1="378.75" y1="2.18557e-08" x2="378.75" y2="20" stroke="#2F5575" stroke-opacity="0.08"/>
<line x1="383" y1="2.18557e-08" x2="383" y2="20" stroke="#2F5575" stroke-opacity="0.08"/>
<line x1="387.25" y1="2.18557e-08" x2="387.25" y2="20" stroke="#2F5575" stroke-opacity="0.08"/>
<line x1="391.5" y1="2.18557e-08" x2="391.5" y2="20" stroke="#2F5575" stroke-opacity="0.08"/>
<line x1="395.75" y1="2.18557e-08" x2="395.75" y2="20" stroke="#2F5575" stroke-opacity="0.08"/>
<line x1="400" y1="2.18557e-08" x2="400" y2="20" stroke="#2F5575" stroke-opacity="0.2"/>
<line x1="404.25" y1="2.18557e-08" x2="404.25" y2="20" stroke="#2F5575" stroke-opacity="0.2"/>
<line x1="408.5" y1="2.18557e-08" x2="408.5" y2="20" stroke="#2F5575" stroke-opacity="0.08"/>
<line x1="412.75" y1="2.18557e-08" x2="412.75" y2="20" stroke="#2F5575" stroke-opacity="0.08"/>
<line x1="417" y1="2.18557e-08" x2="417" y2="20" stroke="#2F5575" stroke-opacity="0.08"/>
<line x1="421.25" y1="2.18557e-08" x2="421.25" y2="20" stroke="#2F5575" stroke-opacity="0.4"/>
<line x1="425.5" y1="2.18557e-08" x2="425.5" y2="20" stroke="#2F5575" stroke-opacity="0.08"/>
<line x1="429.75" y1="2.18557e-08" x2="429.75" y2="20" stroke="#2F5575" stroke-opacity="0.08"/>
<line x1="434" y1="2.18557e-08" x2="434" y2="20" stroke="#2F5575" stroke-opacity="0.08"/>
<line x1="438.25" y1="2.18557e-08" x2="438.25" y2="20" stroke="#2F5575" stroke-opacity="0.08"/>
<line x1="442.5" y1="2.18557e-08" x2="442.5" y2="20" stroke="#2F5575" stroke-opacity="0.2"/>
<line x1="446.75" y1="2.18557e-08" x2="446.75" y2="20" stroke="#2F5575" stroke-opacity="0.2"/>
<line x1="451" y1="2.18557e-08" x2="451" y2="20" stroke="#2F5575" stroke-opacity="0.08"/>
<line x1="455.25" y1="2.18557e-08" x2="455.25" y2="20" stroke="#2F5575" stroke-opacity="0.08"/>
<line x1="459.5" y1="2.18557e-08" x2="459.5" y2="20" stroke="#2F5575" stroke-opacity="0.08"/>
<line x1="463.75" y1="2.18557e-08" x2="463.75" y2="20" stroke="#2F5575" stroke-opacity="0.08"/>
<line x1="468" y1="2.18557e-08" x2="468" y2="20" stroke="#2F5575" stroke-opacity="0.08"/>
<line x1="472.25" y1="2.18557e-08" x2="472.25" y2="20" stroke="#2F5575" stroke-opacity="0.08"/>
<line x1="476.5" y1="2.18557e-08" x2="476.5" y2="20" stroke="#2F5575" stroke-opacity="0.08"/>
<line x1="480.75" y1="2.18557e-08" x2="480.75" y2="20" stroke="#2F5575" stroke-opacity="0.2"/>
<line x1="485" y1="2.18557e-08" x2="485" y2="20" stroke="#2F5575" stroke-opacity="0.2"/>
<line x1="489.25" y1="2.18557e-08" x2="489.25" y2="20" stroke="#2F5575"/>
<line x1="493.5" y1="2.18557e-08" x2="493.5" y2="20" stroke="#2F5575" stroke-opacity="0.08"/>
<line x1="497.75" y1="2.18557e-08" x2="497.75" y2="20" stroke="#2F5575" stroke-opacity="0.08"/>
<line x1="502" y1="2.18557e-08" x2="502" y2="20" stroke="#2F5575" stroke-opacity="0.08"/>
<line x1="506.25" y1="2.18557e-08" x2="506.25" y2="20" stroke="#2F5575" stroke-opacity="0.08"/>
<line x1="510.5" y1="2.18557e-08" x2="510.5" y2="20" stroke="#2F5575" stroke-opacity="0.08"/>
<line x1="514.75" y1="2.18557e-08" x2="514.75" y2="20" stroke="#2F5575" stroke-opacity="0.08"/>
<line x1="519" y1="2.18557e-08" x2="519" y2="20" stroke="#2F5575" stroke-opacity="0.08"/>
<line x1="523.25" y1="2.18557e-08" x2="523.25" y2="20" stroke="#2F5575" stroke-opacity="0.08"/>
<line x1="527.5" y1="2.18557e-08" x2="527.5" y2="20" stroke="#2F5575" stroke-opacity="0.2"/>
<line x1="531.75" y1="2.18557e-08" x2="531.75" y2="20" stroke="#2F5575" stroke-opacity="0.2"/>
<line x1="536" y1="2.18557e-08" x2="536" y2="20" stroke="#2F5575" stroke-opacity="0.08"/>
<line x1="540.25" y1="2.18557e-08" x2="540.25" y2="20" stroke="#2F5575" stroke-opacity="0.08"/>
<line x1="544.5" y1="2.18557e-08" x2="544.5" y2="20" stroke="#2F5575" stroke-opacity="0.08"/>
<line x1="548.75" y1="2.18557e-08" x2="548.75" y2="20" stroke="#2F5575" stroke-opacity="0.08"/>
<line x1="553" y1="2.18557e-08" x2="553" y2="20" stroke="#2F5575" stroke-opacity="0.08"/>
<line x1="557.25" y1="2.18557e-08" x2="557.25" y2="20" stroke="#2F5575" stroke-opacity="0.08"/>
<line x1="561.5" y1="2.18557e-08" x2="561.5" y2="20" stroke="#2F5575" stroke-opacity="0.4"/>
<line x1="565.75" y1="2.18557e-08" x2="565.75" y2="20" stroke="#2F5575" stroke-opacity="0.08"/>
<line x1="570" y1="2.18557e-08" x2="570" y2="20" stroke="#2F5575" stroke-opacity="0.2"/>
<line x1="574.25" y1="2.18557e-08" x2="574.25" y2="20" stroke="#2F5575" stroke-opacity="0.2"/>
<line x1="578.5" y1="2.18557e-08" x2="578.5" y2="20" stroke="#2F5575" stroke-opacity="0.08"/>
<line x1="582.75" y1="2.18557e-08" x2="582.75" y2="20" stroke="#2F5575" stroke-opacity="0.08"/>
<line x1="587" y1="2.18557e-08" x2="587" y2="20" stroke="#2F5575" stroke-opacity="0.08"/>
<line x1="591.25" y1="2.18557e-08" x2="591.25" y2="20" stroke="#2F5575" stroke-opacity="0.08"/>
<line x1="595.5" y1="2.18557e-08" x2="595.5" y2="20" stroke="#2F5575" stroke-opacity="0.08"/>
<line x1="599.75" y1="2.18557e-08" x2="599.75" y2="20" stroke="#2F5575" stroke-opacity="0.08"/>
<line x1="604" y1="2.18557e-08" x2="604" y2="20" stroke="#2F5575" stroke-opacity="0.08"/>
<line x1="608.25" y1="2.18557e-08" x2="608.25" y2="20" stroke="#2F5575" stroke-opacity="0.08"/>
<line x1="612.5" y1="2.18557e-08" x2="612.5" y2="20" stroke="#2F5575" stroke-opacity="0.2"/>
<line x1="616.75" y1="2.18557e-08" x2="616.75" y2="20" stroke="#2F5575" stroke-opacity="0.2"/>
<line x1="621" y1="2.18557e-08" x2="621" y2="20" stroke="#2F5575" stroke-opacity="0.08"/>
<line x1="625.25" y1="2.18557e-08" x2="625.25" y2="20" stroke="#2F5575" stroke-opacity="0.08"/>
<line x1="629.5" y1="2.18557e-08" x2="629.5" y2="20" stroke="#2F5575" stroke-opacity="0.08"/>
<line x1="633.75" y1="2.18557e-08" x2="633.75" y2="20" stroke="#2F5575" stroke-opacity="0.08"/>
<line x1="638" y1="2.18557e-08" x2="638" y2="20" stroke="#2F5575" stroke-opacity="0.08"/>
<line x1="642.25" y1="2.18557e-08" x2="642.25" y2="20" stroke="#2F5575" stroke-opacity="0.08"/>
<line x1="646.5" y1="2.18557e-08" x2="646.5" y2="20" stroke="#2F5575" stroke-opacity="0.08"/>
<line x1="650.75" y1="2.18557e-08" x2="650.75" y2="20" stroke="#2F5575" stroke-opacity="0.08"/>
<line x1="655" y1="2.18557e-08" x2="655" y2="20" stroke="#2F5575" stroke-opacity="0.2"/>
<line x1="659.25" y1="2.18557e-08" x2="659.25" y2="20" stroke="#2F5575" stroke-opacity="0.2"/>
<line x1="663.5" y1="2.18557e-08" x2="663.5" y2="20" stroke="#2F5575" stroke-opacity="0.08"/>
<line x1="667.75" y1="2.18557e-08" x2="667.75" y2="20" stroke="#2F5575" stroke-opacity="0.08"/>
<line x1="672" y1="2.18557e-08" x2="672" y2="20" stroke="#2F5575" stroke-opacity="0.4"/>
<line x1="676.25" y1="2.18557e-08" x2="676.25" y2="20" stroke="#2F5575" stroke-opacity="0.08"/>
<line x1="680.5" y1="2.18557e-08" x2="680.5" y2="20" stroke="#2F5575" stroke-opacity="0.08"/>
<line x1="684.75" y1="2.18557e-08" x2="684.75" y2="20" stroke="#2F5575" stroke-opacity="0.08"/>
<line x1="689" y1="2.18557e-08" x2="689" y2="20" stroke="#2F5575" stroke-opacity="0.08"/>
<line x1="693.25" y1="2.18557e-08" x2="693.25" y2="20" stroke="#2F5575" stroke-opacity="0.08"/>
<line x1="697.5" y1="2.18557e-08" x2="697.5" y2="20" stroke="#2F5575" stroke-opacity="0.2"/>
<line x1="701.75" y1="2.18557e-08" x2="701.75" y2="20" stroke="#2F5575" stroke-opacity="0.2"/>
<line x1="706" y1="2.18557e-08" x2="706" y2="20" stroke="#2F5575" stroke-opacity="0.08"/>
<line x1="710.25" y1="2.18557e-08" x2="710.25" y2="20" stroke="#2F5575" stroke-opacity="0.08"/>
<line x1="714.5" y1="2.18557e-08" x2="714.5" y2="20" stroke="#2F5575" stroke-opacity="0.08"/>
<line x1="718.75" y1="2.18557e-08" x2="718.75" y2="20" stroke="#2F5575" stroke-opacity="0.08"/>
<line x1="723" y1="2.18557e-08" x2="723" y2="20" stroke="#2F5575" stroke-opacity="0.08"/>
<line x1="727.25" y1="2.18557e-08" x2="727.25" y2="20" stroke="#2F5575" stroke-opacity="0.08"/>
<line x1="731.5" y1="2.18557e-08" x2="731.5" y2="20" stroke="#2F5575" stroke-opacity="0.08"/>
<line x1="735.75" y1="2.18557e-08" x2="735.75" y2="20" stroke="#2F5575" stroke-opacity="0.08"/>
<line x1="740" y1="2.18557e-08" x2="740" y2="20" stroke="#2F5575" stroke-opacity="0.2"/>
</svg>
