<svg width="1408" height="20" viewBox="0 0 1408 20" fill="none" xmlns="http://www.w3.org/2000/svg">
<line x1="0.5" y1="2.18557e-08" x2="0.499999" y2="20" stroke="#2F5575"/>
<line x1="4.74023" y1="2.18557e-08" x2="4.74023" y2="20" stroke="#2F5575" stroke-opacity="0.08"/>
<line x1="8.98047" y1="2.18557e-08" x2="8.98047" y2="20" stroke="#2F5575" stroke-opacity="0.08"/>
<line x1="13.2207" y1="2.18557e-08" x2="13.2207" y2="20" stroke="#2F5575" stroke-opacity="0.08"/>
<line x1="17.4609" y1="2.18557e-08" x2="17.4609" y2="20" stroke="#2F5575" stroke-opacity="0.2"/>
<line x1="21.6992" y1="2.18557e-08" x2="21.6992" y2="20" stroke="#2F5575" stroke-opacity="0.2"/>
<line x1="25.9395" y1="2.18557e-08" x2="25.9395" y2="20" stroke="#2F5575" stroke-opacity="0.08"/>
<line x1="30.1797" y1="2.18557e-08" x2="30.1797" y2="20" stroke="#2F5575" stroke-opacity="0.08"/>
<line x1="34.4199" y1="2.18557e-08" x2="34.4199" y2="20" stroke="#2F5575" stroke-opacity="0.08"/>
<line x1="38.6602" y1="2.18557e-08" x2="38.6602" y2="20" stroke="#2F5575" stroke-opacity="0.08"/>
<line x1="42.9004" y1="2.18557e-08" x2="42.9004" y2="20" stroke="#2F5575" stroke-opacity="0.08"/>
<line x1="47.1406" y1="2.18557e-08" x2="47.1406" y2="20" stroke="#2F5575" stroke-opacity="0.08"/>
<line x1="51.3809" y1="2.18557e-08" x2="51.3809" y2="20" stroke="#2F5575" stroke-opacity="0.08"/>
<line x1="55.6191" y1="2.18557e-08" x2="55.6191" y2="20" stroke="#2F5575" stroke-opacity="0.08"/>
<line x1="59.8594" y1="2.18557e-08" x2="59.8594" y2="20" stroke="#2F5575" stroke-opacity="0.2"/>
<line x1="64.0996" y1="2.18557e-08" x2="64.0996" y2="20" stroke="#2F5575" stroke-opacity="0.2"/>
<line x1="68.3398" y1="2.18557e-08" x2="68.3398" y2="20" stroke="#2F5575" stroke-opacity="0.08"/>
<line x1="72.5801" y1="2.18557e-08" x2="72.5801" y2="20" stroke="#2F5575" stroke-opacity="0.08"/>
<line x1="76.8203" y1="2.18557e-08" x2="76.8203" y2="20" stroke="#2F5575" stroke-opacity="0.08"/>
<line x1="81.0605" y1="2.18557e-08" x2="81.0605" y2="20" stroke="#2F5575" stroke-opacity="0.4"/>
<line x1="85.3008" y1="2.18557e-08" x2="85.3008" y2="20" stroke="#2F5575" stroke-opacity="0.08"/>
<line x1="89.5391" y1="2.18557e-08" x2="89.5391" y2="20" stroke="#2F5575" stroke-opacity="0.08"/>
<line x1="93.7793" y1="2.18557e-08" x2="93.7793" y2="20" stroke="#2F5575" stroke-opacity="0.08"/>
<line x1="98.0195" y1="2.18557e-08" x2="98.0195" y2="20" stroke="#2F5575" stroke-opacity="0.08"/>
<line x1="102.26" y1="2.18557e-08" x2="102.26" y2="20" stroke="#2F5575" stroke-opacity="0.2"/>
<line x1="106.5" y1="2.18557e-08" x2="106.5" y2="20" stroke="#2F5575" stroke-opacity="0.2"/>
<line x1="110.74" y1="2.18557e-08" x2="110.74" y2="20" stroke="#2F5575" stroke-opacity="0.08"/>
<line x1="114.98" y1="2.18557e-08" x2="114.98" y2="20" stroke="#2F5575" stroke-opacity="0.08"/>
<line x1="119.221" y1="2.18557e-08" x2="119.221" y2="20" stroke="#2F5575" stroke-opacity="0.08"/>
<line x1="123.461" y1="2.18557e-08" x2="123.461" y2="20" stroke="#2F5575" stroke-opacity="0.08"/>
<line x1="127.699" y1="2.18557e-08" x2="127.699" y2="20" stroke="#2F5575" stroke-opacity="0.08"/>
<line x1="131.939" y1="2.18557e-08" x2="131.939" y2="20" stroke="#2F5575" stroke-opacity="0.08"/>
<line x1="136.18" y1="2.18557e-08" x2="136.18" y2="20" stroke="#2F5575" stroke-opacity="0.08"/>
<line x1="140.42" y1="2.18557e-08" x2="140.42" y2="20" stroke="#2F5575" stroke-opacity="0.08"/>
<line x1="144.66" y1="2.18557e-08" x2="144.66" y2="20" stroke="#2F5575" stroke-opacity="0.2"/>
<line x1="148.9" y1="2.18557e-08" x2="148.9" y2="20" stroke="#2F5575" stroke-opacity="0.2"/>
<line x1="153.141" y1="2.18557e-08" x2="153.141" y2="20" stroke="#2F5575" stroke-opacity="0.08"/>
<line x1="157.381" y1="2.18557e-08" x2="157.381" y2="20" stroke="#2F5575" stroke-opacity="0.08"/>
<line x1="161.619" y1="2.18557e-08" x2="161.619" y2="20" stroke="#2F5575" stroke-opacity="0.08"/>
<line x1="165.859" y1="2.18557e-08" x2="165.859" y2="20" stroke="#2F5575" stroke-opacity="0.08"/>
<line x1="170.1" y1="2.18557e-08" x2="170.1" y2="20" stroke="#2F5575" stroke-opacity="0.08"/>
<line x1="174.34" y1="2.18557e-08" x2="174.34" y2="20" stroke="#2F5575" stroke-opacity="0.08"/>
<line x1="178.58" y1="2.18557e-08" x2="178.58" y2="20" stroke="#2F5575" stroke-opacity="0.08"/>
<line x1="182.82" y1="2.18557e-08" x2="182.82" y2="20" stroke="#2F5575" stroke-opacity="0.08"/>
<line x1="187.061" y1="2.18557e-08" x2="187.061" y2="20" stroke="#2F5575" stroke-opacity="0.2"/>
<line x1="191.301" y1="2.18557e-08" x2="191.301" y2="20" stroke="#2F5575" stroke-opacity="0.2"/>
<line x1="195.541" y1="2.18557e-08" x2="195.541" y2="20" stroke="#2F5575" stroke-opacity="0.08"/>
<line x1="199.779" y1="2.18557e-08" x2="199.779" y2="20" stroke="#2F5575" stroke-opacity="0.08"/>
<line x1="204.02" y1="2.18557e-08" x2="204.02" y2="20" stroke="#2F5575" stroke-opacity="0.08"/>
<line x1="208.26" y1="2.18557e-08" x2="208.26" y2="20" stroke="#2F5575" stroke-opacity="0.08"/>
<line x1="212.5" y1="2.18557e-08" x2="212.5" y2="20" stroke="#2F5575" stroke-opacity="0.08"/>
<line x1="216.74" y1="2.18557e-08" x2="216.74" y2="20" stroke="#2F5575" stroke-opacity="0.08"/>
<line x1="220.98" y1="2.18557e-08" x2="220.98" y2="20" stroke="#2F5575" stroke-opacity="0.4"/>
<line x1="225.221" y1="2.18557e-08" x2="225.221" y2="20" stroke="#2F5575" stroke-opacity="0.08"/>
<line x1="229.461" y1="2.18557e-08" x2="229.461" y2="20" stroke="#2F5575" stroke-opacity="0.2"/>
<line x1="233.699" y1="2.18557e-08" x2="233.699" y2="20" stroke="#2F5575" stroke-opacity="0.2"/>
<line x1="237.939" y1="2.18557e-08" x2="237.939" y2="20" stroke="#2F5575" stroke-opacity="0.08"/>
<line x1="242.18" y1="2.18557e-08" x2="242.18" y2="20" stroke="#2F5575" stroke-opacity="0.08"/>
<line x1="246.42" y1="2.18557e-08" x2="246.42" y2="20" stroke="#2F5575" stroke-opacity="0.08"/>
<line x1="250.66" y1="2.18557e-08" x2="250.66" y2="20" stroke="#2F5575" stroke-opacity="0.08"/>
<line x1="254.9" y1="2.18557e-08" x2="254.9" y2="20" stroke="#2F5575" stroke-opacity="0.08"/>
<line x1="259.141" y1="2.18557e-08" x2="259.141" y2="20" stroke="#2F5575" stroke-opacity="0.08"/>
<line x1="263.381" y1="2.18557e-08" x2="263.381" y2="20" stroke="#2F5575" stroke-opacity="0.08"/>
<line x1="267.621" y1="2.18557e-08" x2="267.621" y2="20" stroke="#2F5575" stroke-opacity="0.08"/>
<line x1="271.859" y1="2.18557e-08" x2="271.859" y2="20" stroke="#2F5575" stroke-opacity="0.2"/>
<line x1="276.1" y1="2.18557e-08" x2="276.1" y2="20" stroke="#2F5575" stroke-opacity="0.2"/>
<line x1="280.34" y1="2.18557e-08" x2="280.34" y2="20" stroke="#2F5575" stroke-opacity="0.08"/>
<line x1="284.58" y1="2.18557e-08" x2="284.58" y2="20" stroke="#2F5575" stroke-opacity="0.08"/>
<line x1="288.82" y1="2.18557e-08" x2="288.82" y2="20" stroke="#2F5575" stroke-opacity="0.08"/>
<line x1="293.061" y1="2.18557e-08" x2="293.061" y2="20" stroke="#2F5575" stroke-opacity="0.08"/>
<line x1="297.301" y1="2.18557e-08" x2="297.301" y2="20" stroke="#2F5575" stroke-opacity="0.08"/>
<line x1="301.539" y1="2.18557e-08" x2="301.539" y2="20" stroke="#2F5575" stroke-opacity="0.08"/>
<line x1="305.779" y1="2.18557e-08" x2="305.779" y2="20" stroke="#2F5575" stroke-opacity="0.08"/>
<line x1="310.02" y1="2.18557e-08" x2="310.02" y2="20" stroke="#2F5575" stroke-opacity="0.08"/>
<line x1="314.26" y1="2.18557e-08" x2="314.26" y2="20" stroke="#2F5575" stroke-opacity="0.2"/>
<line x1="318.5" y1="2.18557e-08" x2="318.5" y2="20" stroke="#2F5575" stroke-opacity="0.2"/>
<line x1="322.74" y1="2.18557e-08" x2="322.74" y2="20" stroke="#2F5575" stroke-opacity="0.08"/>
<line x1="326.98" y1="2.18557e-08" x2="326.98" y2="20" stroke="#2F5575" stroke-opacity="0.08"/>
<line x1="331.221" y1="2.18557e-08" x2="331.221" y2="20" stroke="#2F5575" stroke-opacity="0.4"/>
<line x1="335.461" y1="2.18557e-08" x2="335.461" y2="20" stroke="#2F5575" stroke-opacity="0.08"/>
<line x1="339.699" y1="2.18557e-08" x2="339.699" y2="20" stroke="#2F5575" stroke-opacity="0.08"/>
<line x1="343.939" y1="2.18557e-08" x2="343.939" y2="20" stroke="#2F5575" stroke-opacity="0.08"/>
<line x1="348.18" y1="2.18557e-08" x2="348.18" y2="20" stroke="#2F5575" stroke-opacity="0.08"/>
<line x1="352.42" y1="2.18557e-08" x2="352.42" y2="20" stroke="#2F5575" stroke-opacity="0.08"/>
<line x1="356.66" y1="2.18557e-08" x2="356.66" y2="20" stroke="#2F5575" stroke-opacity="0.2"/>
<line x1="360.9" y1="2.18557e-08" x2="360.9" y2="20" stroke="#2F5575" stroke-opacity="0.2"/>
<line x1="365.141" y1="2.18557e-08" x2="365.141" y2="20" stroke="#2F5575" stroke-opacity="0.08"/>
<line x1="369.379" y1="2.18557e-08" x2="369.379" y2="20" stroke="#2F5575" stroke-opacity="0.08"/>
<line x1="373.619" y1="2.18557e-08" x2="373.619" y2="20" stroke="#2F5575" stroke-opacity="0.08"/>
<line x1="377.859" y1="2.18557e-08" x2="377.859" y2="20" stroke="#2F5575" stroke-opacity="0.08"/>
<line x1="382.1" y1="2.18557e-08" x2="382.1" y2="20" stroke="#2F5575" stroke-opacity="0.08"/>
<line x1="386.34" y1="2.18557e-08" x2="386.34" y2="20" stroke="#2F5575" stroke-opacity="0.08"/>
<line x1="390.58" y1="2.18557e-08" x2="390.58" y2="20" stroke="#2F5575" stroke-opacity="0.08"/>
<line x1="394.82" y1="2.18557e-08" x2="394.82" y2="20" stroke="#2F5575" stroke-opacity="0.08"/>
<line x1="399.061" y1="2.18557e-08" x2="399.061" y2="20" stroke="#2F5575" stroke-opacity="0.2"/>
<line x1="403.301" y1="2.18557e-08" x2="403.301" y2="20" stroke="#2F5575" stroke-opacity="0.2"/>
<line x1="407.539" y1="2.18557e-08" x2="407.539" y2="20" stroke="#2F5575" stroke-opacity="0.08"/>
<line x1="411.779" y1="2.18557e-08" x2="411.779" y2="20" stroke="#2F5575" stroke-opacity="0.08"/>
<line x1="416.02" y1="2.18557e-08" x2="416.02" y2="20" stroke="#2F5575" stroke-opacity="0.08"/>
<line x1="420.26" y1="2.18557e-08" x2="420.26" y2="20" stroke="#2F5575" stroke-opacity="0.4"/>
<line x1="424.5" y1="2.18557e-08" x2="424.5" y2="20" stroke="#2F5575" stroke-opacity="0.08"/>
<line x1="428.74" y1="2.18557e-08" x2="428.74" y2="20" stroke="#2F5575" stroke-opacity="0.08"/>
<line x1="432.98" y1="2.18557e-08" x2="432.98" y2="20" stroke="#2F5575" stroke-opacity="0.08"/>
<line x1="437.219" y1="2.18557e-08" x2="437.219" y2="20" stroke="#2F5575" stroke-opacity="0.08"/>
<line x1="441.459" y1="2.18557e-08" x2="441.459" y2="20" stroke="#2F5575" stroke-opacity="0.2"/>
<line x1="445.699" y1="2.18557e-08" x2="445.699" y2="20" stroke="#2F5575" stroke-opacity="0.2"/>
<line x1="449.939" y1="2.18557e-08" x2="449.939" y2="20" stroke="#2F5575" stroke-opacity="0.08"/>
<line x1="454.18" y1="2.18557e-08" x2="454.18" y2="20" stroke="#2F5575" stroke-opacity="0.08"/>
<line x1="458.42" y1="2.18557e-08" x2="458.42" y2="20" stroke="#2F5575" stroke-opacity="0.08"/>
<line x1="462.66" y1="2.18557e-08" x2="462.66" y2="20" stroke="#2F5575" stroke-opacity="0.08"/>
<line x1="466.9" y1="2.18557e-08" x2="466.9" y2="20" stroke="#2F5575"/>
<line x1="471.141" y1="2.18557e-08" x2="471.141" y2="20" stroke="#2F5575" stroke-opacity="0.08"/>
<line x1="475.379" y1="2.18557e-08" x2="475.379" y2="20" stroke="#2F5575" stroke-opacity="0.08"/>
<line x1="479.619" y1="2.18557e-08" x2="479.619" y2="20" stroke="#2F5575" stroke-opacity="0.08"/>
<line x1="483.859" y1="2.18557e-08" x2="483.859" y2="20" stroke="#2F5575" stroke-opacity="0.2"/>
<line x1="488.1" y1="2.18557e-08" x2="488.1" y2="20" stroke="#2F5575" stroke-opacity="0.2"/>
<line x1="492.34" y1="2.18557e-08" x2="492.34" y2="20" stroke="#2F5575" stroke-opacity="0.08"/>
<line x1="496.58" y1="2.18557e-08" x2="496.58" y2="20" stroke="#2F5575" stroke-opacity="0.08"/>
<line x1="500.82" y1="2.18557e-08" x2="500.82" y2="20" stroke="#2F5575" stroke-opacity="0.08"/>
<line x1="505.059" y1="2.18557e-08" x2="505.059" y2="20" stroke="#2F5575" stroke-opacity="0.08"/>
<line x1="509.299" y1="2.18557e-08" x2="509.299" y2="20" stroke="#2F5575" stroke-opacity="0.08"/>
<line x1="513.539" y1="2.18557e-08" x2="513.539" y2="20" stroke="#2F5575" stroke-opacity="0.08"/>
<line x1="517.779" y1="2.18557e-08" x2="517.779" y2="20" stroke="#2F5575" stroke-opacity="0.08"/>
<line x1="522.02" y1="2.18557e-08" x2="522.02" y2="20" stroke="#2F5575" stroke-opacity="0.08"/>
<line x1="526.26" y1="2.18557e-08" x2="526.26" y2="20" stroke="#2F5575" stroke-opacity="0.2"/>
<line x1="530.5" y1="2.18557e-08" x2="530.5" y2="20" stroke="#2F5575" stroke-opacity="0.2"/>
<line x1="534.74" y1="2.18557e-08" x2="534.74" y2="20" stroke="#2F5575" stroke-opacity="0.08"/>
<line x1="538.98" y1="2.18557e-08" x2="538.98" y2="20" stroke="#2F5575" stroke-opacity="0.08"/>
<line x1="543.219" y1="2.18557e-08" x2="543.219" y2="20" stroke="#2F5575" stroke-opacity="0.08"/>
<line x1="547.459" y1="2.18557e-08" x2="547.459" y2="20" stroke="#2F5575" stroke-opacity="0.08"/>
<line x1="551.699" y1="2.18557e-08" x2="551.699" y2="20" stroke="#2F5575" stroke-opacity="0.08"/>
<line x1="555.939" y1="2.18557e-08" x2="555.939" y2="20" stroke="#2F5575" stroke-opacity="0.08"/>
<line x1="560.18" y1="2.18557e-08" x2="560.18" y2="20" stroke="#2F5575" stroke-opacity="0.4"/>
<line x1="564.42" y1="2.18557e-08" x2="564.42" y2="20" stroke="#2F5575" stroke-opacity="0.08"/>
<line x1="568.66" y1="2.18557e-08" x2="568.66" y2="20" stroke="#2F5575" stroke-opacity="0.2"/>
<line x1="572.898" y1="2.18557e-08" x2="572.898" y2="20" stroke="#2F5575" stroke-opacity="0.2"/>
<line x1="577.139" y1="2.18557e-08" x2="577.139" y2="20" stroke="#2F5575" stroke-opacity="0.08"/>
<line x1="581.379" y1="2.18557e-08" x2="581.379" y2="20" stroke="#2F5575" stroke-opacity="0.08"/>
<line x1="585.619" y1="2.18557e-08" x2="585.619" y2="20" stroke="#2F5575" stroke-opacity="0.08"/>
<line x1="589.859" y1="2.18557e-08" x2="589.859" y2="20" stroke="#2F5575" stroke-opacity="0.08"/>
<line x1="594.1" y1="2.18557e-08" x2="594.1" y2="20" stroke="#2F5575" stroke-opacity="0.08"/>
<line x1="598.34" y1="2.18557e-08" x2="598.34" y2="20" stroke="#2F5575" stroke-opacity="0.08"/>
<line x1="602.58" y1="2.18557e-08" x2="602.58" y2="20" stroke="#2F5575" stroke-opacity="0.08"/>
<line x1="606.82" y1="2.18557e-08" x2="606.82" y2="20" stroke="#2F5575" stroke-opacity="0.08"/>
<line x1="611.059" y1="2.18557e-08" x2="611.059" y2="20" stroke="#2F5575" stroke-opacity="0.2"/>
<line x1="615.299" y1="2.18557e-08" x2="615.299" y2="20" stroke="#2F5575" stroke-opacity="0.2"/>
<line x1="619.539" y1="2.18557e-08" x2="619.539" y2="20" stroke="#2F5575" stroke-opacity="0.08"/>
<line x1="623.779" y1="2.18557e-08" x2="623.779" y2="20" stroke="#2F5575" stroke-opacity="0.08"/>
<line x1="628.02" y1="2.18557e-08" x2="628.02" y2="20" stroke="#2F5575" stroke-opacity="0.08"/>
<line x1="632.26" y1="2.18557e-08" x2="632.26" y2="20" stroke="#2F5575" stroke-opacity="0.08"/>
<line x1="636.5" y1="2.18557e-08" x2="636.5" y2="20" stroke="#2F5575" stroke-opacity="0.08"/>
<line x1="640.738" y1="2.18557e-08" x2="640.738" y2="20" stroke="#2F5575" stroke-opacity="0.08"/>
<line x1="644.979" y1="2.18557e-08" x2="644.979" y2="20" stroke="#2F5575" stroke-opacity="0.08"/>
<line x1="649.219" y1="2.18557e-08" x2="649.219" y2="20" stroke="#2F5575" stroke-opacity="0.08"/>
<line x1="653.459" y1="2.18557e-08" x2="653.459" y2="20" stroke="#2F5575" stroke-opacity="0.2"/>
<line x1="657.699" y1="2.18557e-08" x2="657.699" y2="20" stroke="#2F5575" stroke-opacity="0.2"/>
<line x1="661.939" y1="2.18557e-08" x2="661.939" y2="20" stroke="#2F5575" stroke-opacity="0.08"/>
<line x1="666.18" y1="2.18557e-08" x2="666.18" y2="20" stroke="#2F5575" stroke-opacity="0.08"/>
<line x1="670.42" y1="2.18557e-08" x2="670.42" y2="20" stroke="#2F5575" stroke-opacity="0.4"/>
<line x1="674.66" y1="2.18557e-08" x2="674.66" y2="20" stroke="#2F5575" stroke-opacity="0.08"/>
<line x1="678.898" y1="2.18557e-08" x2="678.898" y2="20" stroke="#2F5575" stroke-opacity="0.08"/>
<line x1="683.139" y1="2.18557e-08" x2="683.139" y2="20" stroke="#2F5575" stroke-opacity="0.08"/>
<line x1="687.379" y1="2.18557e-08" x2="687.379" y2="20" stroke="#2F5575" stroke-opacity="0.08"/>
<line x1="691.619" y1="2.18557e-08" x2="691.619" y2="20" stroke="#2F5575" stroke-opacity="0.08"/>
<line x1="695.859" y1="2.18557e-08" x2="695.859" y2="20" stroke="#2F5575" stroke-opacity="0.2"/>
<line x1="700.1" y1="2.18557e-08" x2="700.1" y2="20" stroke="#2F5575" stroke-opacity="0.2"/>
<line x1="704.34" y1="2.18557e-08" x2="704.34" y2="20" stroke="#2F5575" stroke-opacity="0.08"/>
<line x1="708.578" y1="2.18557e-08" x2="708.578" y2="20" stroke="#2F5575" stroke-opacity="0.08"/>
<line x1="712.818" y1="2.18557e-08" x2="712.818" y2="20" stroke="#2F5575" stroke-opacity="0.08"/>
<line x1="717.059" y1="2.18557e-08" x2="717.059" y2="20" stroke="#2F5575" stroke-opacity="0.08"/>
<line x1="721.299" y1="2.18557e-08" x2="721.299" y2="20" stroke="#2F5575" stroke-opacity="0.08"/>
<line x1="725.539" y1="2.18557e-08" x2="725.539" y2="20" stroke="#2F5575" stroke-opacity="0.08"/>
<line x1="729.779" y1="2.18557e-08" x2="729.779" y2="20" stroke="#2F5575" stroke-opacity="0.08"/>
<line x1="734.02" y1="2.18557e-08" x2="734.02" y2="20" stroke="#2F5575" stroke-opacity="0.08"/>
<line x1="738.26" y1="2.18557e-08" x2="738.26" y2="20" stroke="#2F5575" stroke-opacity="0.2"/>
<line x1="742.5" y1="2.18557e-08" x2="742.5" y2="20" stroke="#2F5575" stroke-opacity="0.2"/>
<line x1="746.738" y1="2.18557e-08" x2="746.738" y2="20" stroke="#2F5575" stroke-opacity="0.08"/>
<line x1="750.979" y1="2.18557e-08" x2="750.979" y2="20" stroke="#2F5575" stroke-opacity="0.08"/>
<line x1="755.219" y1="2.18557e-08" x2="755.219" y2="20" stroke="#2F5575" stroke-opacity="0.08"/>
<line x1="759.459" y1="2.18557e-08" x2="759.459" y2="20" stroke="#2F5575" stroke-opacity="0.4"/>
<line x1="763.699" y1="2.18557e-08" x2="763.699" y2="20" stroke="#2F5575" stroke-opacity="0.08"/>
<line x1="767.939" y1="2.18557e-08" x2="767.939" y2="20" stroke="#2F5575" stroke-opacity="0.08"/>
<line x1="772.18" y1="2.18557e-08" x2="772.18" y2="20" stroke="#2F5575" stroke-opacity="0.08"/>
<line x1="776.418" y1="2.18557e-08" x2="776.418" y2="20" stroke="#2F5575" stroke-opacity="0.08"/>
<line x1="780.658" y1="2.18557e-08" x2="780.658" y2="20" stroke="#2F5575" stroke-opacity="0.2"/>
<line x1="784.898" y1="2.18557e-08" x2="784.898" y2="20" stroke="#2F5575" stroke-opacity="0.2"/>
<line x1="789.139" y1="2.18557e-08" x2="789.139" y2="20" stroke="#2F5575" stroke-opacity="0.08"/>
<line x1="793.379" y1="2.18557e-08" x2="793.379" y2="20" stroke="#2F5575" stroke-opacity="0.08"/>
<line x1="797.619" y1="2.18557e-08" x2="797.619" y2="20" stroke="#2F5575" stroke-opacity="0.08"/>
<line x1="801.859" y1="2.18557e-08" x2="801.859" y2="20" stroke="#2F5575" stroke-opacity="0.08"/>
<line x1="806.1" y1="2.18557e-08" x2="806.1" y2="20" stroke="#2F5575" stroke-opacity="0.08"/>
<line x1="810.34" y1="2.18557e-08" x2="810.34" y2="20" stroke="#2F5575" stroke-opacity="0.08"/>
<line x1="814.578" y1="2.18557e-08" x2="814.578" y2="20" stroke="#2F5575" stroke-opacity="0.08"/>
<line x1="818.818" y1="2.18557e-08" x2="818.818" y2="20" stroke="#2F5575" stroke-opacity="0.08"/>
<line x1="823.059" y1="2.18557e-08" x2="823.059" y2="20" stroke="#2F5575" stroke-opacity="0.2"/>
<line x1="827.299" y1="2.18557e-08" x2="827.299" y2="20" stroke="#2F5575" stroke-opacity="0.2"/>
<line x1="831.539" y1="2.18557e-08" x2="831.539" y2="20" stroke="#2F5575" stroke-opacity="0.08"/>
<line x1="835.779" y1="2.18557e-08" x2="835.779" y2="20" stroke="#2F5575" stroke-opacity="0.08"/>
<line x1="840.02" y1="2.18557e-08" x2="840.02" y2="20" stroke="#2F5575" stroke-opacity="0.08"/>
<line x1="844.258" y1="2.18557e-08" x2="844.258" y2="20" stroke="#2F5575" stroke-opacity="0.08"/>
<line x1="848.498" y1="2.18557e-08" x2="848.498" y2="20" stroke="#2F5575" stroke-opacity="0.08"/>
<line x1="852.738" y1="2.18557e-08" x2="852.738" y2="20" stroke="#2F5575" stroke-opacity="0.08"/>
<line x1="856.979" y1="2.18557e-08" x2="856.979" y2="20" stroke="#2F5575" stroke-opacity="0.08"/>
<line x1="861.219" y1="2.18557e-08" x2="861.219" y2="20" stroke="#2F5575" stroke-opacity="0.08"/>
<line x1="865.459" y1="2.18557e-08" x2="865.459" y2="20" stroke="#2F5575" stroke-opacity="0.2"/>
<line x1="869.699" y1="2.18557e-08" x2="869.699" y2="20" stroke="#2F5575" stroke-opacity="0.2"/>
<line x1="873.939" y1="2.18557e-08" x2="873.939" y2="20" stroke="#2F5575" stroke-opacity="0.08"/>
<line x1="878.18" y1="2.18557e-08" x2="878.18" y2="20" stroke="#2F5575" stroke-opacity="0.08"/>
<line x1="882.418" y1="2.18557e-08" x2="882.418" y2="20" stroke="#2F5575" stroke-opacity="0.08"/>
<line x1="886.658" y1="2.18557e-08" x2="886.658" y2="20" stroke="#2F5575" stroke-opacity="0.08"/>
<line x1="890.898" y1="2.18557e-08" x2="890.898" y2="20" stroke="#2F5575" stroke-opacity="0.08"/>
<line x1="895.139" y1="2.18557e-08" x2="895.139" y2="20" stroke="#2F5575" stroke-opacity="0.08"/>
<line x1="899.379" y1="2.18557e-08" x2="899.379" y2="20" stroke="#2F5575" stroke-opacity="0.4"/>
<line x1="903.619" y1="2.18557e-08" x2="903.619" y2="20" stroke="#2F5575" stroke-opacity="0.08"/>
<line x1="907.859" y1="2.18557e-08" x2="907.859" y2="20" stroke="#2F5575" stroke-opacity="0.2"/>
<line x1="912.098" y1="2.18557e-08" x2="912.098" y2="20" stroke="#2F5575" stroke-opacity="0.2"/>
<line x1="916.338" y1="2.18557e-08" x2="916.338" y2="20" stroke="#2F5575" stroke-opacity="0.08"/>
<line x1="920.578" y1="2.18557e-08" x2="920.578" y2="20" stroke="#2F5575" stroke-opacity="0.08"/>
<line x1="924.818" y1="2.18557e-08" x2="924.818" y2="20" stroke="#2F5575" stroke-opacity="0.08"/>
<line x1="929.059" y1="2.18557e-08" x2="929.059" y2="20" stroke="#2F5575" stroke-opacity="0.08"/>
<line x1="933.299" y1="2.18557e-08" x2="933.299" y2="20" stroke="#2F5575"/>
<line x1="937.539" y1="2.18557e-08" x2="937.539" y2="20" stroke="#2F5575" stroke-opacity="0.08"/>
<line x1="941.779" y1="2.18557e-08" x2="941.779" y2="20" stroke="#2F5575" stroke-opacity="0.08"/>
<line x1="946.02" y1="2.18557e-08" x2="946.02" y2="20" stroke="#2F5575" stroke-opacity="0.08"/>
<line x1="950.258" y1="2.18557e-08" x2="950.258" y2="20" stroke="#2F5575" stroke-opacity="0.2"/>
<line x1="954.498" y1="2.18557e-08" x2="954.498" y2="20" stroke="#2F5575" stroke-opacity="0.2"/>
<line x1="958.738" y1="2.18557e-08" x2="958.738" y2="20" stroke="#2F5575" stroke-opacity="0.08"/>
<line x1="962.979" y1="2.18557e-08" x2="962.979" y2="20" stroke="#2F5575" stroke-opacity="0.08"/>
<line x1="967.219" y1="2.18557e-08" x2="967.219" y2="20" stroke="#2F5575" stroke-opacity="0.08"/>
<line x1="971.459" y1="2.18557e-08" x2="971.459" y2="20" stroke="#2F5575" stroke-opacity="0.08"/>
<line x1="975.699" y1="2.18557e-08" x2="975.699" y2="20" stroke="#2F5575" stroke-opacity="0.08"/>
<line x1="979.938" y1="2.18557e-08" x2="979.938" y2="20" stroke="#2F5575" stroke-opacity="0.08"/>
<line x1="984.178" y1="2.18557e-08" x2="984.178" y2="20" stroke="#2F5575" stroke-opacity="0.08"/>
<line x1="988.418" y1="2.18557e-08" x2="988.418" y2="20" stroke="#2F5575" stroke-opacity="0.08"/>
<line x1="992.658" y1="2.18557e-08" x2="992.658" y2="20" stroke="#2F5575" stroke-opacity="0.2"/>
<line x1="996.898" y1="2.18557e-08" x2="996.898" y2="20" stroke="#2F5575" stroke-opacity="0.2"/>
<line x1="1001.14" y1="2.18557e-08" x2="1001.14" y2="20" stroke="#2F5575" stroke-opacity="0.08"/>
<line x1="1005.38" y1="2.18557e-08" x2="1005.38" y2="20" stroke="#2F5575" stroke-opacity="0.08"/>
<line x1="1009.62" y1="2.18557e-08" x2="1009.62" y2="20" stroke="#2F5575" stroke-opacity="0.4"/>
<line x1="1013.86" y1="2.18557e-08" x2="1013.86" y2="20" stroke="#2F5575" stroke-opacity="0.08"/>
<line x1="1018.1" y1="2.18557e-08" x2="1018.1" y2="20" stroke="#2F5575" stroke-opacity="0.08"/>
<line x1="1022.34" y1="2.18557e-08" x2="1022.34" y2="20" stroke="#2F5575" stroke-opacity="0.08"/>
<line x1="1026.58" y1="2.18557e-08" x2="1026.58" y2="20" stroke="#2F5575" stroke-opacity="0.08"/>
<line x1="1030.82" y1="2.18557e-08" x2="1030.82" y2="20" stroke="#2F5575" stroke-opacity="0.08"/>
<line x1="1035.06" y1="2.18557e-08" x2="1035.06" y2="20" stroke="#2F5575" stroke-opacity="0.2"/>
<line x1="1039.3" y1="2.18557e-08" x2="1039.3" y2="20" stroke="#2F5575" stroke-opacity="0.2"/>
<line x1="1043.54" y1="2.18557e-08" x2="1043.54" y2="20" stroke="#2F5575" stroke-opacity="0.08"/>
<line x1="1047.78" y1="2.18557e-08" x2="1047.78" y2="20" stroke="#2F5575" stroke-opacity="0.08"/>
<line x1="1052.02" y1="2.18557e-08" x2="1052.02" y2="20" stroke="#2F5575" stroke-opacity="0.08"/>
<line x1="1056.26" y1="2.18557e-08" x2="1056.26" y2="20" stroke="#2F5575" stroke-opacity="0.08"/>
<line x1="1060.5" y1="2.18557e-08" x2="1060.5" y2="20" stroke="#2F5575" stroke-opacity="0.08"/>
<line x1="1064.74" y1="2.18557e-08" x2="1064.74" y2="20" stroke="#2F5575" stroke-opacity="0.08"/>
<line x1="1068.98" y1="2.18557e-08" x2="1068.98" y2="20" stroke="#2F5575" stroke-opacity="0.08"/>
<line x1="1073.22" y1="2.18557e-08" x2="1073.22" y2="20" stroke="#2F5575" stroke-opacity="0.08"/>
<line x1="1077.46" y1="2.18557e-08" x2="1077.46" y2="20" stroke="#2F5575" stroke-opacity="0.2"/>
<line x1="1081.7" y1="2.18557e-08" x2="1081.7" y2="20" stroke="#2F5575" stroke-opacity="0.2"/>
<line x1="1085.94" y1="2.18557e-08" x2="1085.94" y2="20" stroke="#2F5575" stroke-opacity="0.08"/>
<line x1="1090.18" y1="2.18557e-08" x2="1090.18" y2="20" stroke="#2F5575" stroke-opacity="0.08"/>
<line x1="1094.42" y1="2.18557e-08" x2="1094.42" y2="20" stroke="#2F5575" stroke-opacity="0.08"/>
<line x1="1098.66" y1="2.18557e-08" x2="1098.66" y2="20" stroke="#2F5575" stroke-opacity="0.4"/>
<line x1="1102.9" y1="2.18557e-08" x2="1102.9" y2="20" stroke="#2F5575" stroke-opacity="0.08"/>
<line x1="1107.14" y1="2.18557e-08" x2="1107.14" y2="20" stroke="#2F5575" stroke-opacity="0.08"/>
<line x1="1111.38" y1="2.18557e-08" x2="1111.38" y2="20" stroke="#2F5575" stroke-opacity="0.08"/>
<line x1="1115.62" y1="2.18557e-08" x2="1115.62" y2="20" stroke="#2F5575" stroke-opacity="0.08"/>
<line x1="1119.86" y1="2.18557e-08" x2="1119.86" y2="20" stroke="#2F5575" stroke-opacity="0.2"/>
<line x1="1124.1" y1="2.18557e-08" x2="1124.1" y2="20" stroke="#2F5575" stroke-opacity="0.2"/>
<line x1="1128.34" y1="2.18557e-08" x2="1128.34" y2="20" stroke="#2F5575" stroke-opacity="0.08"/>
<line x1="1132.58" y1="2.18557e-08" x2="1132.58" y2="20" stroke="#2F5575" stroke-opacity="0.08"/>
<line x1="1136.82" y1="2.18557e-08" x2="1136.82" y2="20" stroke="#2F5575" stroke-opacity="0.08"/>
<line x1="1141.06" y1="2.18557e-08" x2="1141.06" y2="20" stroke="#2F5575" stroke-opacity="0.08"/>
<line x1="1145.3" y1="2.18557e-08" x2="1145.3" y2="20" stroke="#2F5575" stroke-opacity="0.08"/>
<line x1="1149.54" y1="2.18557e-08" x2="1149.54" y2="20" stroke="#2F5575" stroke-opacity="0.08"/>
<line x1="1153.78" y1="2.18557e-08" x2="1153.78" y2="20" stroke="#2F5575" stroke-opacity="0.08"/>
<line x1="1158.02" y1="2.18557e-08" x2="1158.02" y2="20" stroke="#2F5575" stroke-opacity="0.08"/>
<line x1="1162.26" y1="2.18557e-08" x2="1162.26" y2="20" stroke="#2F5575" stroke-opacity="0.2"/>
<line x1="1166.5" y1="2.18557e-08" x2="1166.5" y2="20" stroke="#2F5575" stroke-opacity="0.2"/>
<line x1="1170.74" y1="2.18557e-08" x2="1170.74" y2="20" stroke="#2F5575" stroke-opacity="0.08"/>
<line x1="1174.98" y1="2.18557e-08" x2="1174.98" y2="20" stroke="#2F5575" stroke-opacity="0.08"/>
<line x1="1179.22" y1="2.18557e-08" x2="1179.22" y2="20" stroke="#2F5575" stroke-opacity="0.08"/>
<line x1="1183.46" y1="2.18557e-08" x2="1183.46" y2="20" stroke="#2F5575" stroke-opacity="0.08"/>
<line x1="1187.7" y1="2.18557e-08" x2="1187.7" y2="20" stroke="#2F5575" stroke-opacity="0.08"/>
<line x1="1191.94" y1="2.18557e-08" x2="1191.94" y2="20" stroke="#2F5575" stroke-opacity="0.08"/>
<line x1="1196.18" y1="2.18557e-08" x2="1196.18" y2="20" stroke="#2F5575" stroke-opacity="0.08"/>
<line x1="1200.42" y1="2.18557e-08" x2="1200.42" y2="20" stroke="#2F5575" stroke-opacity="0.08"/>
<line x1="1204.66" y1="2.18557e-08" x2="1204.66" y2="20" stroke="#2F5575" stroke-opacity="0.2"/>
<line x1="1208.9" y1="2.18557e-08" x2="1208.9" y2="20" stroke="#2F5575" stroke-opacity="0.2"/>
<line x1="1213.14" y1="2.18557e-08" x2="1213.14" y2="20" stroke="#2F5575" stroke-opacity="0.08"/>
<line x1="1217.38" y1="2.18557e-08" x2="1217.38" y2="20" stroke="#2F5575" stroke-opacity="0.08"/>
<line x1="1221.62" y1="2.18557e-08" x2="1221.62" y2="20" stroke="#2F5575" stroke-opacity="0.08"/>
<line x1="1225.86" y1="2.18557e-08" x2="1225.86" y2="20" stroke="#2F5575" stroke-opacity="0.08"/>
<line x1="1230.1" y1="2.18557e-08" x2="1230.1" y2="20" stroke="#2F5575" stroke-opacity="0.08"/>
<line x1="1234.34" y1="2.18557e-08" x2="1234.34" y2="20" stroke="#2F5575" stroke-opacity="0.08"/>
<line x1="1238.58" y1="2.18557e-08" x2="1238.58" y2="20" stroke="#2F5575" stroke-opacity="0.4"/>
<line x1="1242.82" y1="2.18557e-08" x2="1242.82" y2="20" stroke="#2F5575" stroke-opacity="0.08"/>
<line x1="1247.06" y1="2.18557e-08" x2="1247.06" y2="20" stroke="#2F5575" stroke-opacity="0.2"/>
<line x1="1251.3" y1="2.18557e-08" x2="1251.3" y2="20" stroke="#2F5575" stroke-opacity="0.2"/>
<line x1="1255.54" y1="2.18557e-08" x2="1255.54" y2="20" stroke="#2F5575" stroke-opacity="0.08"/>
<line x1="1259.78" y1="2.18557e-08" x2="1259.78" y2="20" stroke="#2F5575" stroke-opacity="0.08"/>
<line x1="1264.02" y1="2.18557e-08" x2="1264.02" y2="20" stroke="#2F5575" stroke-opacity="0.08"/>
<line x1="1268.26" y1="2.18557e-08" x2="1268.26" y2="20" stroke="#2F5575" stroke-opacity="0.08"/>
<line x1="1272.5" y1="2.18557e-08" x2="1272.5" y2="20" stroke="#2F5575" stroke-opacity="0.08"/>
<line x1="1276.74" y1="2.18557e-08" x2="1276.74" y2="20" stroke="#2F5575" stroke-opacity="0.08"/>
<line x1="1280.98" y1="2.18557e-08" x2="1280.98" y2="20" stroke="#2F5575" stroke-opacity="0.08"/>
<line x1="1285.22" y1="2.18557e-08" x2="1285.22" y2="20" stroke="#2F5575" stroke-opacity="0.08"/>
<line x1="1289.46" y1="2.18557e-08" x2="1289.46" y2="20" stroke="#2F5575" stroke-opacity="0.2"/>
<line x1="1293.7" y1="2.18557e-08" x2="1293.7" y2="20" stroke="#2F5575" stroke-opacity="0.2"/>
<line x1="1297.94" y1="2.18557e-08" x2="1297.94" y2="20" stroke="#2F5575" stroke-opacity="0.08"/>
<line x1="1302.18" y1="2.18557e-08" x2="1302.18" y2="20" stroke="#2F5575" stroke-opacity="0.08"/>
<line x1="1306.42" y1="2.18557e-08" x2="1306.42" y2="20" stroke="#2F5575" stroke-opacity="0.08"/>
<line x1="1310.66" y1="2.18557e-08" x2="1310.66" y2="20" stroke="#2F5575" stroke-opacity="0.08"/>
<line x1="1314.9" y1="2.18557e-08" x2="1314.9" y2="20" stroke="#2F5575" stroke-opacity="0.08"/>
<line x1="1319.14" y1="2.18557e-08" x2="1319.14" y2="20" stroke="#2F5575" stroke-opacity="0.08"/>
<line x1="1323.38" y1="2.18557e-08" x2="1323.38" y2="20" stroke="#2F5575" stroke-opacity="0.08"/>
<line x1="1327.62" y1="2.18557e-08" x2="1327.62" y2="20" stroke="#2F5575" stroke-opacity="0.08"/>
<line x1="1331.86" y1="2.18557e-08" x2="1331.86" y2="20" stroke="#2F5575" stroke-opacity="0.2"/>
<line x1="1336.1" y1="2.18557e-08" x2="1336.1" y2="20" stroke="#2F5575" stroke-opacity="0.2"/>
<line x1="1340.34" y1="2.18557e-08" x2="1340.34" y2="20" stroke="#2F5575" stroke-opacity="0.08"/>
<line x1="1344.58" y1="2.18557e-08" x2="1344.58" y2="20" stroke="#2F5575" stroke-opacity="0.08"/>
<line x1="1348.82" y1="2.18557e-08" x2="1348.82" y2="20" stroke="#2F5575" stroke-opacity="0.4"/>
<line x1="1353.06" y1="2.18557e-08" x2="1353.06" y2="20" stroke="#2F5575" stroke-opacity="0.08"/>
<line x1="1357.3" y1="2.18557e-08" x2="1357.3" y2="20" stroke="#2F5575" stroke-opacity="0.08"/>
<line x1="1361.54" y1="2.18557e-08" x2="1361.54" y2="20" stroke="#2F5575" stroke-opacity="0.08"/>
<line x1="1365.78" y1="2.18557e-08" x2="1365.78" y2="20" stroke="#2F5575" stroke-opacity="0.08"/>
<line x1="1370.02" y1="2.18557e-08" x2="1370.02" y2="20" stroke="#2F5575" stroke-opacity="0.08"/>
<line x1="1374.26" y1="2.18557e-08" x2="1374.26" y2="20" stroke="#2F5575" stroke-opacity="0.08"/>
<line x1="1378.5" y1="2.18557e-08" x2="1378.5" y2="20" stroke="#2F5575" stroke-opacity="0.08"/>
<line x1="1382.74" y1="2.18557e-08" x2="1382.74" y2="20" stroke="#2F5575" stroke-opacity="0.08"/>
<line x1="1386.98" y1="2.18557e-08" x2="1386.98" y2="20" stroke="#2F5575" stroke-opacity="0.08"/>
<line x1="1391.22" y1="2.18557e-08" x2="1391.22" y2="20" stroke="#2F5575" stroke-opacity="0.2"/>
<line x1="1395.46" y1="2.18557e-08" x2="1395.46" y2="20" stroke="#2F5575" stroke-opacity="0.2"/>
<line x1="1399.7" y1="2.18557e-08" x2="1399.7" y2="20" stroke="#2F5575" stroke-opacity="0.08"/>
<line x1="1403.94" y1="2.18557e-08" x2="1403.94" y2="20" stroke="#2F5575" stroke-opacity="0.08"/>
<line x1="1408.18" y1="2.18557e-08" x2="1408.18" y2="20" stroke="#2F5575" stroke-opacity="0.08"/>
</svg>
