<svg width="20" height="20" viewBox="0 0 20 20" fill="none" xmlns="http://www.w3.org/2000/svg">
<g clip-path="url(#clip0_60_15608)">
<path d="M13.991 2.4209C13.1914 1.00775 11.6856 0.121716 10.0504 0.0944003C8.36433 0.0662373 6.78954 0.954561 5.96091 2.40919L5.30914 3.55334C4.89462 4.281 4.28595 4.88165 3.54977 5.28953L2.38762 5.93342C0.950918 6.7294 0.0536607 8.22559 0.0352599 9.85601L0.0334916 10.0127C0.0146948 11.6782 0.915624 13.221 2.38258 14.0353L3.49502 14.6528C4.23368 15.0628 4.84364 15.667 5.25762 16.3986L5.88106 17.5004C6.70322 18.9534 8.26079 19.8459 9.94231 19.8272L10.1173 19.8253C11.7544 19.807 13.2582 18.9279 14.0653 17.517L14.7814 16.2651C15.1972 15.5381 15.8071 14.9385 16.5441 14.5319L17.5966 13.9513C19.0777 13.1343 19.9844 11.5761 19.9559 9.89728C19.9282 8.2777 19.0339 6.79462 17.6073 6.00271L16.4193 5.34323C15.6806 4.93319 15.0707 4.32904 14.6567 3.59742L13.991 2.4209Z" fill="#7556F6"/>
<path d="M13.9292 6.73082C13.3419 6.56143 12.7338 6.3205 12.1171 6.07772C12.0815 5.9236 11.9448 5.73158 11.6678 5.49615C11.265 5.14758 10.5085 5.15675 9.85506 5.31086C9.13354 5.14147 8.4206 5.08092 7.73646 5.2448C2.14204 6.7828 5.22806 10.6979 3.17383 14.4692C6.02416 16.0278 5.69691 17.5507 11.0254 17.6986C11.0254 17.6986 9.70181 13.8264 13.2199 12.0322C16.0735 10.5774 18.1351 7.87562 13.9286 6.73021L13.9292 6.73082Z" fill="#B7A2FF"/>
<path d="M15.888 9.87424C14.6209 10.7653 13.1784 11.441 11.134 11.441C10.1771 11.441 9.98276 10.4265 9.35012 10.9236C9.02339 11.1805 7.87214 11.7547 6.95812 11.7113C6.03614 11.6673 4.56427 11.1328 4.15049 9.1875C4.17383 11.1457 4.11376 12.8417 3.17285 14.47C4.27562 14.6166 5.7551 17.4771 6.3387 18.1499C7.98206 20.0446 9.45774 19.9248 11.0861 19.7145C10.7471 17.3522 12.9921 12.8866 14.158 11.7027C14.5994 11.2545 15.4454 10.5225 15.888 9.87424Z" fill="#B7A2FF"/>
<path d="M9.70508 5.30838C10.2059 5.50667 12.035 6.11006 12.8263 6.34691C12.0184 5.01901 10.7939 5.09564 9.70508 5.30838Z" fill="#AC94FF"/>
<path d="M10.2431 7.63033C10.2431 8.49258 9.54241 9.19094 8.67868 9.19094C7.81493 9.19094 7.11426 8.49258 7.11426 7.63033C7.11426 6.76807 7.81493 6.07031 8.67868 6.07031C9.54241 6.07031 10.2431 6.76867 10.2431 7.63033Z" fill="white"/>
<path d="M9.33794 8.89754C9.84495 8.89754 10.256 8.32761 10.256 7.62455C10.256 6.9215 9.84495 6.35156 9.33794 6.35156C8.83093 6.35156 8.41992 6.9215 8.41992 7.62455C8.41992 8.32761 8.83093 8.89754 9.33794 8.89754Z" fill="black"/>
<path d="M9.33796 7.61803L8.23633 6.89062V8.34546L9.33796 7.61803Z" fill="white"/>
</g>
<defs>
<clipPath id="clip0_60_15608">
<rect width="20" height="20" fill="white"/>
</clipPath>
</defs>
</svg>
