<svg width="32" height="32" viewBox="0 0 32 32" fill="none" xmlns="http://www.w3.org/2000/svg">
<g clip-path="url(#clip0_65_7685)">
<path d="M16 8.55172V8M16 24V23.4483M23.4483 16H24M8 16H8.55172M21.2672 10.7333L21.6573 10.3432M10.3426 21.6568L10.7328 21.2667M21.2672 21.2667L21.6573 21.6568M10.3426 10.3432L10.7328 10.7333M20.403 15.9698C20.403 18.4075 18.4269 20.3836 15.9892 20.3836C13.5516 20.3836 11.5754 18.4075 11.5754 15.9698C11.5754 13.5322 13.5516 11.556 15.9892 11.556C18.4269 11.556 20.403 13.5322 20.403 15.9698Z" stroke="white" stroke-linecap="round"/>
</g>
<defs>
<clipPath id="clip0_65_7685">
<path d="M0 16C0 7.16344 7.16344 0 16 0C24.8366 0 32 7.16344 32 16C32 24.8366 24.8366 32 16 32C7.16344 32 0 24.8366 0 16Z" fill="white"/>
</clipPath>
</defs>
</svg>
