<svg width="31" height="30" viewBox="0 0 31 30" fill="none" xmlns="http://www.w3.org/2000/svg">
<g clip-path="url(#clip0_59_20693)">
<path d="M15.5 30C23.7843 30 30.5 23.2843 30.5 15C30.5 6.71573 23.7843 0 15.5 0C7.21573 0 0.5 6.71573 0.5 15C0.5 23.2843 7.21573 30 15.5 30Z" fill="#3E73C4"/>
<path d="M19.271 16.9934C19.271 15.0022 18.071 14.3197 15.671 14.0347C13.9572 13.8069 13.615 13.3522 13.615 12.5553C13.615 11.7584 14.1869 11.2466 15.3288 11.2466C16.3572 11.2466 16.9291 11.5878 17.2141 12.4419C17.244 12.5243 17.2984 12.5957 17.3699 12.6464C17.4414 12.6972 17.5267 12.7249 17.6144 12.7259H18.5285C18.5812 12.7273 18.6338 12.718 18.6829 12.6985C18.7319 12.679 18.7766 12.6498 18.814 12.6125C18.8514 12.5752 18.8809 12.5308 18.9006 12.4818C18.9204 12.4328 18.9299 12.3803 18.9288 12.3275V12.2713C18.8171 11.6533 18.5044 11.0896 18.0394 10.6677C17.5744 10.2457 16.983 9.98914 16.3572 9.93781V8.57281C16.3572 8.345 16.1856 8.17438 15.9006 8.11719H15.0428C14.815 8.11719 14.6435 8.28781 14.5863 8.57281V9.88156C12.8716 10.1084 11.7869 11.2466 11.7869 12.6697C11.7869 14.5466 12.9288 15.2863 15.3288 15.5713C16.9291 15.8553 17.4428 16.1975 17.4428 17.1078C17.4428 18.0172 16.6431 18.6434 15.5575 18.6434C14.0716 18.6434 13.5578 18.0181 13.3863 17.1641C13.33 16.9372 13.1575 16.8228 12.986 16.8228H12.0147C11.962 16.8215 11.9096 16.831 11.8606 16.8505C11.8116 16.8701 11.7671 16.8994 11.7298 16.9366C11.6925 16.9738 11.6631 17.0183 11.6434 17.0672C11.6237 17.1161 11.6142 17.1685 11.6153 17.2213V17.2775C11.8431 18.7006 12.7581 19.7244 14.6435 20.0094V21.3753C14.6435 21.6022 14.815 21.7738 15.1 21.83H15.9578C16.1856 21.83 16.3572 21.6594 16.4144 21.3753V20.0084C18.1291 19.7244 19.271 18.5291 19.271 16.9925V16.9934Z" fill="white"/>
<path d="M12.5856 22.9659C8.12873 21.3722 5.8431 16.4222 7.5006 12.0412C8.35748 9.65062 10.2428 7.83094 12.5856 6.97687C12.8144 6.86344 12.9278 6.69281 12.9278 6.40781V5.61094C12.9278 5.38406 12.8144 5.21344 12.5856 5.15625C12.5284 5.15625 12.414 5.15625 12.3569 5.2125C11.071 5.61405 9.87729 6.266 8.84444 7.13079C7.81158 7.99558 6.96 9.05614 6.33871 10.2514C5.71742 11.4467 5.3387 12.753 5.22436 14.0952C5.11002 15.4375 5.26232 16.7891 5.67248 18.0722C6.69998 21.2597 9.15717 23.7066 12.3569 24.7303C12.5856 24.8438 12.8144 24.7303 12.8706 24.5025C12.9278 24.4462 12.9278 24.3881 12.9278 24.2747V23.4778C12.9278 23.3072 12.7572 23.0803 12.5856 22.9659ZM18.6419 5.21344C18.4131 5.09906 18.1844 5.21344 18.1281 5.44031C18.0709 5.4975 18.0709 5.55469 18.0709 5.66813V6.465C18.0709 6.69281 18.2415 6.91969 18.4131 7.03406C22.87 8.62781 25.1556 13.5778 23.4981 17.9587C22.6412 20.3494 20.7559 22.1691 18.4131 23.0231C18.1844 23.1366 18.0709 23.3072 18.0709 23.5922V24.3891C18.0709 24.6159 18.1844 24.7866 18.4131 24.8438C18.4703 24.8438 18.5847 24.8438 18.6419 24.7875C19.9277 24.3859 21.1214 23.734 22.1543 22.8692C23.1871 22.0044 24.0387 20.9439 24.66 19.7486C25.2813 18.5533 25.66 17.247 25.7743 15.9048C25.8887 14.5625 25.7364 13.2109 25.3262 11.9278C24.2987 8.68406 21.7844 6.23719 18.6419 5.21344Z" fill="white"/>
</g>
<defs>
<clipPath id="clip0_59_20693">
<rect width="30" height="30" fill="white" transform="translate(0.5)"/>
</clipPath>
</defs>
</svg>
