<svg width="31" height="30" viewBox="0 0 31 30" fill="none" xmlns="http://www.w3.org/2000/svg">
<g clip-path="url(#clip0_59_20689)">
<path d="M15.5 30C23.7843 30 30.5 23.2843 30.5 15C30.5 6.71573 23.7843 0 15.5 0C7.21573 0 0.5 6.71573 0.5 15C0.5 23.2843 7.21573 30 15.5 30Z" fill="#26A17B"/>
<path fill-rule="evenodd" clip-rule="evenodd" d="M17.3019 16.2944V16.2925C17.1988 16.3 16.6672 16.3319 15.4812 16.3319C14.5344 16.3319 13.8678 16.3037 13.6334 16.2925V16.2953C9.98844 16.135 7.26781 15.5003 7.26781 14.7409C7.26781 13.9816 9.98844 13.3478 13.6334 13.1847V15.6634C13.8716 15.6803 14.5541 15.7206 15.4972 15.7206C16.6288 15.7206 17.1959 15.6737 17.3019 15.6644V13.1866C20.9394 13.3487 23.6534 13.9834 23.6534 14.7409C23.6534 15.5003 20.9394 16.1331 17.3019 16.2944ZM17.3019 12.9288V10.7106H22.3775V7.32812H8.55781V10.7106H13.6334V12.9278C9.50844 13.1172 6.40625 13.9347 6.40625 14.9134C6.40625 15.8922 9.50844 16.7087 13.6334 16.8991V24.0072H17.3019V16.8972C21.4203 16.7078 24.515 15.8912 24.515 14.9134C24.515 13.9356 21.4203 13.1191 17.3019 12.9288Z" fill="white"/>
</g>
<defs>
<clipPath id="clip0_59_20689">
<rect width="30" height="30" fill="white" transform="translate(0.5)"/>
</clipPath>
</defs>
</svg>
