<svg width="30" height="30" viewBox="0 0 30 30" fill="none" xmlns="http://www.w3.org/2000/svg">
<g clip-path="url(#clip0_59_20705)">
<path d="M15 30C23.2843 30 30 23.2843 30 15C30 6.71573 23.2843 0 15 0C6.71573 0 0 6.71573 0 15C0 23.2843 6.71573 30 15 30Z" fill="#201A2D"/>
<path d="M21.3922 8.98428L20.8297 9.54678C22.1719 11.0146 22.9163 12.9316 22.9163 14.9205C22.9163 16.9095 22.1719 18.8265 20.8297 20.2943L21.3922 20.8568C22.8853 19.2379 23.7143 17.1163 23.7143 14.914C23.7143 12.7117 22.8853 10.59 21.3922 8.97115V8.98428ZM9.56283 9.03303C11.0306 7.69081 12.9476 6.94648 14.9366 6.94648C16.9256 6.94648 18.8425 7.69081 20.3103 9.03303L20.8728 8.47053C19.2539 6.97743 17.1323 6.14844 14.93 6.14844C12.7277 6.14844 10.6061 6.97743 8.98721 8.47053L9.56283 9.03303ZM9.03596 20.2999C7.69533 18.8324 6.95198 16.9166 6.95198 14.929C6.95198 12.9413 7.69533 11.0255 9.03596 9.55803L8.47346 8.99553C6.98036 10.6144 6.15137 12.736 6.15137 14.9383C6.15137 17.1406 6.98036 19.2623 8.47346 20.8812L9.03596 20.2999ZM20.3028 20.8193C18.835 22.1615 16.9181 22.9058 14.9291 22.9058C12.9401 22.9058 11.0231 22.1615 9.55533 20.8193L8.99283 21.3818C10.6117 22.8749 12.7333 23.7039 14.9356 23.7039C17.1379 23.7039 19.2596 22.8749 20.8785 21.3818L20.3028 20.8193ZM18.4822 13.0512C18.3697 11.8774 17.3572 11.4837 16.0766 11.3637V9.7474H15.0866V11.3337H14.2953V9.7474H13.3128V11.3749H11.3047V12.4343C11.3047 12.4343 12.036 12.4212 12.0247 12.4343C12.1566 12.4198 12.2889 12.457 12.3938 12.5382C12.4987 12.6193 12.5681 12.738 12.5872 12.8693V17.3243C12.5844 17.3706 12.5723 17.4158 12.5517 17.4574C12.5311 17.4989 12.5024 17.5359 12.4672 17.5662C12.4326 17.5968 12.3922 17.6202 12.3484 17.635C12.3046 17.6498 12.2583 17.6557 12.2122 17.6524C12.2253 17.6637 11.4922 17.6524 11.4922 17.6524L11.3047 18.8355H13.2941V20.4893H14.2841V18.8599H15.0753V20.4818H16.0672V18.8468C17.7397 18.7455 18.906 18.333 19.0522 16.7674C19.1703 15.5074 18.5778 14.9449 17.631 14.718C18.2066 14.4349 18.5628 13.9099 18.4822 13.0512ZM17.0947 16.5724C17.0947 17.8024 14.9872 17.6618 14.316 17.6618V15.4793C14.9872 15.4812 17.0947 15.288 17.0947 16.5724ZM16.6353 13.4974C16.6353 14.6224 14.8766 14.4855 14.3178 14.4855V12.5018C14.8766 12.5018 16.6353 12.3255 16.6353 13.4974Z" fill="white"/>
<path d="M14.9288 25.1737C9.27187 25.1728 4.6875 20.5866 4.6875 14.9297C4.6875 9.27281 9.27375 4.6875 14.9297 4.6875C20.5856 4.6875 25.1728 9.27187 25.1737 14.9288C25.174 16.2742 24.9092 17.6065 24.3944 18.8496C23.8796 20.0927 23.125 21.2222 22.1736 22.1736C21.2222 23.125 20.0927 23.8796 18.8496 24.3944C17.6065 24.9092 16.2742 25.174 14.9288 25.1737ZM14.9288 5.48625C9.71719 5.49 5.49562 9.71719 5.4975 14.9288C5.49937 20.1403 9.72563 24.3638 14.9362 24.3638C20.1478 24.3638 24.3731 20.1403 24.375 14.9288C24.3752 13.6884 24.1311 12.4601 23.6564 11.3141C23.1817 10.1681 22.4858 9.12693 21.6086 8.25002C20.7313 7.3731 19.6898 6.67766 18.5437 6.20344C17.3975 5.72922 16.1691 5.48551 14.9288 5.48625Z" fill="white"/>
</g>
<defs>
<clipPath id="clip0_59_20705">
<rect width="30" height="30" fill="white"/>
</clipPath>
</defs>
</svg>
