<svg width="34" height="35" viewBox="0 0 34 35" fill="none" xmlns="http://www.w3.org/2000/svg">
<g opacity="0.3" filter="url(#filter0_d_19_1729)">
<path d="M15.5757 0.822326C16.4571 0.313469 17.5429 0.313469 18.4243 0.822326L30.2981 7.67767C31.1795 8.18653 31.7224 9.12694 31.7224 10.1447V23.8553C31.7224 24.8731 31.1795 25.8135 30.2981 26.3223L18.4243 33.1777C17.5429 33.6865 16.4571 33.6865 15.5757 33.1777L3.70188 26.3223C2.82051 25.8135 2.27757 24.8731 2.27757 23.8553V10.1447C2.27757 9.12694 2.82051 8.18653 3.70188 7.67767L15.5757 0.822326Z" fill="#78C4FF"/>
</g>
<g opacity="0.3" filter="url(#filter1_d_19_1729)">
<path d="M16.1738 7.63429C16.684 7.33969 17.3127 7.33969 17.823 7.63429L24.6973 11.6032C25.2075 11.8978 25.5219 12.4422 25.5219 13.0314V20.9692C25.5219 21.5584 25.2075 22.1028 24.6973 22.3974L17.823 26.3663C17.3127 26.6609 16.684 26.6609 16.1738 26.3663L9.29944 22.3974C8.78918 22.1028 8.47484 21.5584 8.47484 20.9692V13.0314C8.47484 12.4422 8.78918 11.8978 9.29944 11.6032L16.1738 7.63429Z" fill="#78C4FF"/>
</g>
<defs>
<filter id="filter0_d_19_1729" x="1.50682" y="0.0911659" width="30.9864" height="34.6582" filterUnits="userSpaceOnUse" color-interpolation-filters="sRGB">
<feFlood flood-opacity="0" result="BackgroundImageFix"/>
<feColorMatrix in="SourceAlpha" type="matrix" values="0 0 0 0 0 0 0 0 0 0 0 0 0 0 0 0 0 0 127 0" result="hardAlpha"/>
<feOffset dy="0.420288"/>
<feGaussianBlur stdDeviation="0.385264"/>
<feComposite in2="hardAlpha" operator="out"/>
<feColorMatrix type="matrix" values="0 0 0 0 0.441667 0 0 0 0 0.720834 0 0 0 0 1 0 0 0 0.02 0"/>
<feBlend mode="normal" in2="BackgroundImageFix" result="effect1_dropShadow_19_1729"/>
<feBlend mode="normal" in="SourceGraphic" in2="effect1_dropShadow_19_1729" result="shape"/>
</filter>
<filter id="filter1_d_19_1729" x="8.03047" y="7.21129" width="17.9391" height="20.066" filterUnits="userSpaceOnUse" color-interpolation-filters="sRGB">
<feFlood flood-opacity="0" result="BackgroundImageFix"/>
<feColorMatrix in="SourceAlpha" type="matrix" values="0 0 0 0 0 0 0 0 0 0 0 0 0 0 0 0 0 0 127 0" result="hardAlpha"/>
<feOffset dy="0.243325"/>
<feGaussianBlur stdDeviation="0.223048"/>
<feComposite in2="hardAlpha" operator="out"/>
<feColorMatrix type="matrix" values="0 0 0 0 0.441667 0 0 0 0 0.720834 0 0 0 0 1 0 0 0 0.02 0"/>
<feBlend mode="normal" in2="BackgroundImageFix" result="effect1_dropShadow_19_1729"/>
<feBlend mode="normal" in="SourceGraphic" in2="effect1_dropShadow_19_1729" result="shape"/>
</filter>
</defs>
</svg>
