<svg width="24" height="24" viewBox="0 0 24 24" fill="none" xmlns="http://www.w3.org/2000/svg">
<g opacity="0.3" clip-path="url(#clip0_3240_2764)">
<path opacity="0.965" fill-rule="evenodd" clip-rule="evenodd" d="M-0.0234375 12.2578C-0.0234375 12.0703 -0.0234375 11.8828 -0.0234375 11.6953C1.75965 8.7172 4.25965 6.56878 7.47656 5.25C10.099 4.34313 12.7553 4.23376 15.4453 4.92187C16.0653 5.10248 16.6669 5.32903 17.25 5.60156C18.0859 4.76564 18.9219 3.92968 19.7578 3.09375C20.0703 2.9375 20.3828 2.9375 20.6953 3.09375C21.0032 3.41928 21.0579 3.78646 20.8594 4.19531C15.3047 9.75 9.75 15.3047 4.19531 20.8594C3.33435 21.1544 2.93591 20.8497 3 19.9453C3.03125 19.8828 3.0625 19.8203 3.09375 19.7578C3.81316 19.0462 4.5241 18.3275 5.22656 17.6016C3.04797 16.2355 1.29796 14.4543 -0.0234375 12.2578ZM11.9297 5.97656C13.356 5.99465 14.731 6.26808 16.0547 6.79687C15.5625 7.28906 15.0703 7.78125 14.5781 8.27344C13.181 7.38037 11.7044 7.23192 10.1484 7.82812C8.18545 8.82375 7.30261 10.4253 7.5 12.6328C7.61119 13.3417 7.869 13.9902 8.27344 14.5781C7.66406 15.1875 7.05469 15.7969 6.44531 16.4062C4.49192 15.3363 2.89817 13.8598 1.66406 11.9766C3.08098 9.80151 4.956 8.15306 7.28906 7.03125C8.77073 6.36478 10.3176 6.01322 11.9297 5.97656ZM11.9297 8.97656C12.4672 8.99691 12.9673 9.14531 13.4297 9.42187C12.0938 10.7578 10.7578 12.0937 9.42188 13.4297C9.02569 12.7417 8.91633 12.0073 9.09375 11.2266C9.4297 10.1406 10.1406 9.4297 11.2266 9.09375C11.4676 9.05447 11.702 9.01537 11.9297 8.97656Z" fill="#213850"/>
<path opacity="0.959" fill-rule="evenodd" clip-rule="evenodd" d="M23.9751 11.6953C23.9751 11.8828 23.9751 12.0703 23.9751 12.2578C22.0267 15.5259 19.2454 17.7681 15.6314 18.9844C13.16 19.6464 10.6913 19.6386 8.22513 18.9609C8.21815 18.9116 8.22593 18.8648 8.24857 18.8203C8.64115 18.412 9.04741 18.0214 9.46732 17.6484C12.816 18.36 15.8863 17.7272 18.6783 15.75C20.0992 14.6964 21.3023 13.4386 22.2876 11.9766C21.3343 10.5622 20.1781 9.33568 18.8189 8.29689C19.1449 7.92386 19.4887 7.56451 19.8501 7.21876C19.897 7.1875 19.9439 7.1875 19.9908 7.21876C21.5976 8.47342 22.9257 9.96559 23.9751 11.6953Z" fill="#213850"/>
<path opacity="0.95" fill-rule="evenodd" clip-rule="evenodd" d="M16.2436 10.8047C16.7725 12.6192 16.3194 14.1739 14.8843 15.4688C13.6858 16.4011 12.342 16.698 10.853 16.3594C10.8084 16.3257 10.8007 16.2867 10.8296 16.2422C11.2593 15.8125 11.6889 15.3828 12.1186 14.9531C13.7827 14.7266 14.728 13.7812 14.9546 12.1172C15.3938 11.6858 15.8235 11.2484 16.2436 10.8047Z" fill="#213850"/>
</g>
<defs>
<clipPath id="clip0_3240_2764">
<rect width="24" height="24" fill="white"/>
</clipPath>
</defs>
</svg>
