<svg width="24" height="24" viewBox="0 0 24 24" fill="none" xmlns="http://www.w3.org/2000/svg">
<g opacity="0.3" clip-path="url(#clip0_3306_2627)">
<path opacity="0.965" fill-rule="evenodd" clip-rule="evenodd" d="M23.9766 11.6962C23.9766 11.8837 23.9766 12.0712 23.9766 12.2587C21.9663 15.0113 19.435 17.1441 16.3828 18.6571C13.9616 19.7567 11.4772 19.9286 8.92969 19.1728C7.11675 18.5595 5.47612 17.6532 4.00781 16.454C2.47577 15.2269 1.13202 13.8284 -0.0234375 12.2587C-0.0234375 12.0712 -0.0234375 11.8837 -0.0234375 11.6962C1.98682 8.94366 4.51807 6.81085 7.57031 5.29777C9.99155 4.19821 12.4759 4.02634 15.0234 4.78215C16.8364 5.39546 18.477 6.30174 19.9453 7.5009C21.4774 8.72804 22.8211 10.1265 23.9766 11.6962ZM11.4609 5.93059C13.4127 5.91071 15.2252 6.4029 16.8984 7.40715C18.8982 8.61718 20.6326 10.1406 22.1016 11.9775C20.3041 14.2523 18.101 16.0101 15.4922 17.2509C13.2393 18.2432 10.9737 18.2745 8.69531 17.3446C7.09373 16.6479 5.64061 15.726 4.33594 14.579C3.43346 13.7782 2.60534 12.911 1.85156 11.9775C3.45374 9.99174 5.35997 8.37455 7.57031 7.1259C8.79614 6.47494 10.093 6.07651 11.4609 5.93059Z" fill="#213850"/>
<path opacity="0.967" fill-rule="evenodd" clip-rule="evenodd" d="M11.696 7.19531C13.9113 7.20244 15.4816 8.20242 16.407 10.1953C17.0806 12.1228 16.7369 13.8415 15.3757 15.3516C13.864 16.7326 12.1375 17.0842 10.196 16.4062C7.89947 15.3059 6.93853 13.4856 7.3132 10.9453C7.94742 8.72494 9.40838 7.47492 11.696 7.19531ZM11.6023 8.83594C10.6372 8.99433 9.87938 9.47873 9.32883 10.2891C8.51686 11.8157 8.7278 13.1828 9.96164 14.3906C11.1442 15.2643 12.3786 15.3425 13.6648 14.625C14.9694 13.6642 15.3834 12.4064 14.907 10.8516C14.2609 9.44602 13.1594 8.77411 11.6023 8.83594Z" fill="#213850"/>
</g>
<defs>
<clipPath id="clip0_3306_2627">
<rect width="24" height="24" fill="white"/>
</clipPath>
</defs>
</svg>
