<svg width="0" height="0" class="hidden">
    <symbol version="1.1" xmlns="http://www.w3.org/2000/svg" viewBox="0 0 504 448" id="house">
        <path fill="currentColor" d="M503.825 223.563c0 15.75-13.125 28.088-28 28.088h-28l0.613 140.175c0 2.363-0.175 4.725-0.438 7.088v14.175c0 19.338-15.662 35-35 35h-14c-0.963 0-1.925 0-2.887-0.088-1.225 0.088-2.45 0.088-3.675 0.088l-28.438-0.088h-21c-19.338 0-35-15.662-35-35v-77c0-15.488-12.512-28-28-28h-56c-15.487 0-28 12.512-28 28v77c0 19.338-15.662 35-35 35h-48.913c-1.313 0-2.625-0.088-3.938-0.175-1.050 0.088-2.1 0.175-3.15 0.175h-14c-19.337 0-35-15.662-35-35v-98c0-0.787 0-1.662 0.087-2.45v-60.988h-28c-15.75 0-28-12.25-28-28.088 0-7.875 2.625-14.875 8.75-21l224.262-195.475c6.125-6.125 13.125-7 19.25-7s13.125 1.75 18.375 6.125l223.475 196.438c7 6.125 10.5 13.125 9.625 21z"></path>
    </symbol>
    <symbol version="1.1" xmlns="http://www.w3.org/2000/svg" viewBox="0 0 448 448" id="power-off">
        <path fill="currentColor"  d="M252 28c0-15.487-12.513-28-28-28s-28 12.513-28 28v196c0 15.487 12.513 28 28 28s28-12.513 28-28v-196zM125.563 105.525c11.9-9.887 13.475-27.563 3.588-39.462s-27.563-13.475-39.463-3.587c-46.2 38.5-75.688 96.6-75.688 161.525 0 115.938 94.063 210 210 210s210-94.063 210-210c0-64.925-29.575-123.025-75.775-161.525-11.9-9.888-29.575-8.225-39.463 3.587s-8.225 29.575 3.588 39.462c34.037 28.262 55.563 70.875 55.563 118.475 0 85.050-68.95 154-154 154s-154-68.95-154-154c0-47.6 21.612-90.213 55.563-118.475z"></path>
    </symbol>
    <symbol version="1.1" xmlns="http://www.w3.org/2000/svg" viewBox="0 0 392 448" id="minus">
        <path fill="currentColor" d="M378 224c0 15.487-12.512 28-28 28h-308c-15.488 0-28-12.513-28-28s12.512-28 28-28h308c15.488 0 28 12.513 28 28z"></path>
    </symbol>
    <symbol version="1.1" xmlns="http://www.w3.org/2000/svg" viewBox="0 0 392 448" id="plus">
        <path fill="currentColor" d="M224 70c0-15.488-12.513-28-28-28s-28 12.512-28 28v126h-126c-15.488 0-28 12.513-28 28s12.512 28 28 28h126v126c0 15.488 12.513 28 28 28s28-12.512 28-28v-126h126c15.488 0 28-12.513 28-28s-12.512-28-28-28h-126v-126z"></path>
    </symbol>
    <symbol version="1.1" xmlns="http://www.w3.org/2000/svg" viewBox="0 0 532 448" id="telegram">
        <path fill="currentColor"  d="M445.096 421.417c-5.692 25.357-20.698 31.567-41.916 19.664l-115.914-85.383-55.888 53.819c-6.209 6.208-11.385 11.385-23.286 11.385l8.28-117.986 214.753-194.054c9.316-8.28-2.069-12.937-14.49-4.657l-265.465 167.145-114.363-35.706c-24.839-7.762-25.356-24.839 5.175-36.741l447.1-172.32c20.7-7.762 38.811 4.657 32.085 36.224l-76.070 358.611z"></path>
    </symbol>
    <symbol version="1.1" xmlns="http://www.w3.org/2000/svg" viewBox="0 0 448 448" id="gear">
        <path  fill="currentColor"  d="M433.912 145.775c2.8 7.612 0.438 16.1-5.6 21.525l-37.887 34.475c0.962 7.262 1.487 14.7 1.487 22.225s-0.525 14.963-1.487 22.225l37.887 34.475c6.037 5.425 8.4 13.913 5.6 21.525-3.85 10.412-8.487 20.388-13.825 30.013l-4.113 7.087c-5.775 9.625-12.25 18.725-19.338 27.3-5.162 6.3-13.737 8.4-21.438 5.95l-48.737-15.487c-11.725 9.012-24.675 16.537-38.5 22.225l-10.938 49.963c-1.75 7.963-7.875 14.262-15.925 15.575-12.075 2.013-24.5 3.063-37.188 3.063s-25.112-1.050-37.188-3.063c-8.050-1.313-14.175-7.612-15.925-15.575l-10.938-49.963c-13.825-5.688-26.775-13.213-38.5-22.225l-48.65 15.575c-7.7 2.45-16.275 0.263-21.438-5.95-7.087-8.575-13.563-17.675-19.337-27.3l-4.112-7.088c-5.337-9.625-9.975-19.6-13.825-30.012-2.8-7.613-0.438-16.1 5.6-21.525l37.887-34.475c-0.962-7.35-1.488-14.787-1.488-22.313s0.525-14.963 1.488-22.225l-37.887-34.475c-6.038-5.425-8.4-13.912-5.6-21.525 3.85-10.413 8.487-20.388 13.825-30.012l4.113-7.088c5.775-9.625 12.25-18.725 19.337-27.3 5.163-6.3 13.738-8.4 21.438-5.95l48.738 15.488c11.725-9.013 24.675-16.537 38.5-22.225l10.938-49.963c1.75-7.962 7.875-14.262 15.925-15.575 12.075-2.1 24.5-3.15 37.188-3.15s25.112 1.050 37.188 3.063c8.050 1.313 14.175 7.612 15.925 15.575l10.938 49.962c13.825 5.688 26.775 13.213 38.5 22.225l48.737-15.487c7.7-2.45 16.275-0.263 21.438 5.95 7.088 8.575 13.563 17.675 19.338 27.3l4.113 7.088c5.337 9.625 9.975 19.6 13.825 30.013zM224 294c38.66 0 70-31.34 70-70s-31.34-70-70-70v0c-38.66 0-70 31.34-70 70s31.34 70 70 70v0z"></path>
    </symbol>
    <symbol xmlns="http://www.w3.org/2000/svg" fill="none" viewBox="0 0 24 24" id="money-minus">
        <path stroke="currentColor" stroke-linecap="round" stroke-linejoin="round" stroke-width="2" d="M3 10V8a2 2 0 0 1 2-2h2m-4 4c1.333 0 4-.8 4-4m-4 4v4m18-4V8a2 2 0 0 0-2-2h-2m4 4c-1.333 0-4-.8-4-4m4 4v4M7 6h10M3 14v2a2 2 0 0 0 2 2h2m-4-4c1.333 0 4 .8 4 4m0 0h4"></path>
        <circle cx="12" cy="12" r="2" stroke="currentColor" stroke-linecap="round" stroke-linejoin="round" stroke-width="2"></circle>
        <path stroke="currentColor" stroke-linecap="round" stroke-linejoin="round" stroke-width="2" d="M15 18h6"></path>
    </symbol>
    <symbol xmlns="http://www.w3.org/2000/svg" fill="none" viewBox="0 0 24 24" id="money-plus">
        <path stroke="currentColor" stroke-linecap="round" stroke-linejoin="round" stroke-width="2" d="M3 10V8a2 2 0 0 1 2-2h2m-4 4c1.333 0 4-.8 4-4m-4 4v4m18-4V8a2 2 0 0 0-2-2h-2m4 4c-1.333 0-4-.8-4-4m4 4v2M7 6h10M3 14v2a2 2 0 0 0 2 2h2m-4-4c1.333 0 4 .8 4 4m0 0h4"></path>
        <circle cx="12" cy="12" r="2" stroke="currentColor" stroke-linecap="round" stroke-linejoin="round" stroke-width="2"></circle>
        <path stroke="currentColor" stroke-linecap="round" stroke-linejoin="round" stroke-width="2" d="M18 15v3m0 3v-3m0 0h-3m3 0h3"></path>
    </symbol>
    <symbol version="1.1" xmlns="http://www.w3.org/2000/svg" viewBox="0 0 448 448" id="group">
        <path  fill="currentColor" d="M0 386.908v-57.018q0-17.309 8.909-31.818t23.673-22.145q31.563-15.782 64.145-23.673t66.182-7.891 66.182 7.891 64.145 23.673q14.763 7.637 23.673 22.145t8.909 31.818v57.018h-325.818zM366.545 386.908v-61.091q0-22.4-12.473-43.018t-35.381-35.381q25.963 3.055 48.873 10.437t42.763 18.073q18.327 10.182 28 22.655t9.673 27.237v61.091h-81.455zM162.909 224q-33.6 0-57.527-23.927t-23.927-57.527 23.927-57.527 57.527-23.927 57.527 23.927 23.927 57.527-23.927 57.527-57.527 23.927zM366.545 142.545q0 33.6-23.927 57.527t-57.527 23.927q-5.6 0-14.255-1.273t-14.255-2.8q13.745-16.291 21.127-36.145t7.382-41.236-7.382-41.236-21.127-36.145q7.127-2.545 14.255-3.309t14.255-0.763q33.6 0 57.527 23.927t23.927 57.527zM40.727 346.181h244.363v-16.291q0-5.6-2.8-10.182t-7.382-7.127q-27.491-13.745-55.491-20.618t-56.509-6.873-56.509 6.873-55.491 20.618q-4.582 2.545-7.382 7.127t-2.8 10.182v16.291zM162.909 183.273q16.8 0 28.764-11.964t11.964-28.764-11.964-28.764-28.764-11.964-28.764 11.964-11.964 28.764 11.964 28.764 28.764 11.964z"></path>
    </symbol>
    <symbol version="1.1" xmlns="http://www.w3.org/2000/svg" viewBox="0 0 448 448" id="person">
        <path   fill="currentColor" d="M224 224q-46.2 0-79.1-32.9t-32.9-79.1 32.9-79.1 79.1-32.9 79.1 32.9 32.9 79.1-32.9 79.1-79.1 32.9zM0 447.999v-78.4q0-23.8 12.25-43.75t32.55-30.45q43.4-21.7 88.2-32.55t91-10.85 91 10.85 88.2 32.55q20.3 10.5 32.55 30.45t12.25 43.75v78.4h-448zM56 391.999h336v-22.4q0-7.7-3.85-14t-10.15-9.8q-37.8-18.9-76.3-28.35t-77.7-9.45-77.7 9.45-76.3 28.35q-6.3 3.5-10.15 9.8t-3.85 14v22.4zM224 168q23.1 0 39.55-16.45t16.45-39.55-16.45-39.55-39.55-16.45-39.55 16.45-16.45 39.55 16.45 39.55 39.55 16.45z"></path>
    </symbol>
    <symbol version="1.1" xmlns="http://www.w3.org/2000/svg" viewBox="0 0 448 448" id="building-columns">
        <path  fill="currentColor" d="M212.975 2.275l-196 84c-12.25 5.25-19.075 18.375-16.363 31.325s14.088 22.4 27.388 22.4v7c0 11.638 9.362 21 21 21h350c11.637 0 21-9.362 21-21v-7c13.3 0 24.762-9.362 27.387-22.4s-4.2-26.163-16.362-31.325l-196-84c-7-2.975-15.050-2.975-22.050 0zM112 196h-56v171.762c-0.525 0.263-1.050 0.613-1.575 0.963l-42 28c-10.237 6.825-14.875 19.6-11.287 31.412s14.525 19.863 26.862 19.863h392c12.338 0 23.188-8.050 26.775-19.863s-0.963-24.587-11.287-31.412l-42-28c-0.525-0.35-1.050-0.612-1.575-0.963l0.088-171.762h-56v168h-35v-168h-56v168h-42v-168h-56v168h-35v-168zM224 56c15.464 0 28 12.536 28 28s-12.536 28-28 28v0c-15.464 0-28-12.536-28-28s12.536-28 28-28v0z"></path>
    </symbol>
    <symbol version="1.1" xmlns="http://www.w3.org/2000/svg" viewBox="0 0 448 448" id="chart-bar">
        <path   fill="currentColor" d="M21 28c11.637 0 21 9.363 21 21v308c0 11.637 9.363 21 21 21h364c11.637 0 21 9.363 21 21s-9.363 21-21 21h-364c-34.825 0-63-28.175-63-63v-308c0-11.637 9.362-21 21-21zM112 119c0-11.638 9.362-21 21-21h182c11.637 0 21 9.362 21 21s-9.363 21-21 21h-182c-11.638 0-21-9.362-21-21zM133 182h126c11.637 0 21 9.362 21 21s-9.363 21-21 21h-126c-11.638 0-21-9.362-21-21s9.362-21 21-21zM133 266h238c11.637 0 21 9.363 21 21s-9.363 21-21 21h-238c-11.638 0-21-9.363-21-21s9.362-21 21-21z"></path>
    </symbol>
    <symbol version="1.1" xmlns="http://www.w3.org/2000/svg" viewBox="0 0 560 448" id="link">
        <path  fill="currentColor" d="M507.325 234.237c49.438-49.438 49.438-129.5 0-178.938-43.75-43.75-112.7-49.438-163.012-13.475l-1.4 0.963c-12.6 9.012-15.487 26.512-6.475 39.025s26.512 15.487 39.025 6.475l1.4-0.962c28.087-20.038 66.5-16.888 90.825 7.525 27.563 27.563 27.563 72.187 0 99.75l-98.175 98.35c-27.563 27.563-72.188 27.563-99.75 0-24.412-24.412-27.562-62.825-7.525-90.825l0.962-1.4c9.013-12.6 6.038-30.1-6.475-39.025s-30.1-6.038-39.025 6.475l-0.963 1.4c-36.050 50.225-30.362 119.175 13.388 162.925 49.438 49.438 129.5 49.438 178.938 0l98.262-98.263zM52.675 213.763c-49.438 49.437-49.438 129.5 0 178.937 43.75 43.75 112.7 49.438 163.012 13.475l1.4-0.963c12.6-9.013 15.488-26.513 6.475-39.025s-26.513-15.488-39.025-6.475l-1.4 0.963c-28.088 20.037-66.5 16.887-90.825-7.525-27.563-27.65-27.563-72.275 0-99.837l98.175-98.263c27.563-27.563 72.188-27.563 99.75 0 24.412 24.413 27.563 62.825 7.525 90.913l-0.962 1.4c-9.013 12.6-6.038 30.1 6.475 39.025s30.1 6.038 39.025-6.475l0.962-1.4c36.050-50.313 30.363-119.262-13.387-163.012-49.438-49.438-129.5-49.438-178.938 0l-98.263 98.262z"></path>
    </symbol>
    <symbol xmlns="http://www.w3.org/2000/svg" viewBox="0 0 448 512" id="copy">
        <path  fill="currentColor" d="M208 0L332.1 0c12.7 0 24.9 5.1 33.9 14.1l67.9 67.9c9 9 14.1 21.2 14.1 33.9L448 336c0 26.5-21.5 48-48 48l-192 0c-26.5 0-48-21.5-48-48l0-288c0-26.5 21.5-48 48-48zM48 128l80 0 0 64-64 0 0 256 192 0 0-32 64 0 0 48c0 26.5-21.5 48-48 48L48 512c-26.5 0-48-21.5-48-48L0 176c0-26.5 21.5-48 48-48z"></path>
    </symbol>
    <symbol xmlns="http://www.w3.org/2000/svg" viewBox="0 0 384 512" id="calculator">
        <path fill="currentColor" d="M64 0C28.7 0 0 28.7 0 64L0 448c0 35.3 28.7 64 64 64l256 0c35.3 0 64-28.7 64-64l0-384c0-35.3-28.7-64-64-64L64 0zM96 64l192 0c17.7 0 32 14.3 32 32l0 32c0 17.7-14.3 32-32 32L96 160c-17.7 0-32-14.3-32-32l0-32c0-17.7 14.3-32 32-32zm32 160a32 32 0 1 1 -64 0 32 32 0 1 1 64 0zM96 352a32 32 0 1 1 0-64 32 32 0 1 1 0 64zM64 416c0-17.7 14.3-32 32-32l96 0c17.7 0 32 14.3 32 32s-14.3 32-32 32l-96 0c-17.7 0-32-14.3-32-32zM192 256a32 32 0 1 1 0-64 32 32 0 1 1 0 64zm32 64a32 32 0 1 1 -64 0 32 32 0 1 1 64 0zm64-64a32 32 0 1 1 0-64 32 32 0 1 1 0 64zm32 64a32 32 0 1 1 -64 0 32 32 0 1 1 64 0zM288 448a32 32 0 1 1 0-64 32 32 0 1 1 0 64z"></path>
    </symbol>
    <symbol xmlns="http://www.w3.org/2000/svg" viewBox="0 0 512 512" id="chart-line">
        <path  fill="currentColor" d="M64 64c0-17.7-14.3-32-32-32S0 46.3 0 64L0 400c0 44.2 35.8 80 80 80l400 0c17.7 0 32-14.3 32-32s-14.3-32-32-32L80 416c-8.8 0-16-7.2-16-16L64 64zm406.6 86.6c12.5-12.5 12.5-32.8 0-45.3s-32.8-12.5-45.3 0L320 210.7l-57.4-57.4c-12.5-12.5-32.8-12.5-45.3 0l-112 112c-12.5 12.5-12.5 32.8 0 45.3s32.8 12.5 45.3 0L240 221.3l57.4 57.4c12.5 12.5 32.8 12.5 45.3 0l128-128z"></path>
    </symbol>
    <symbol xmlns="http://www.w3.org/2000/svg" viewBox="0 0 640 512" id="money-bill-transfer">
        <path fill="currentColor" d="M535 41c-9.4-9.4-9.4-24.6 0-33.9s24.6-9.4 33.9 0l64 64c4.5 4.5 7 10.6 7 17s-2.5 12.5-7 17l-64 64c-9.4 9.4-24.6 9.4-33.9 0s-9.4-24.6 0-33.9l23-23L384 112c-13.3 0-24-10.7-24-24s10.7-24 24-24l174.1 0L535 41zM105 377l-23 23L256 400c13.3 0 24 10.7 24 24s-10.7 24-24 24L81.9 448l23 23c9.4 9.4 9.4 24.6 0 33.9s-24.6 9.4-33.9 0L7 441c-4.5-4.5-7-10.6-7-17s2.5-12.5 7-17l64-64c9.4-9.4 24.6-9.4 33.9 0s9.4 24.6 0 33.9zM96 64l241.9 0c-3.7 7.2-5.9 15.3-5.9 24c0 28.7 23.3 52 52 52l117.4 0c-4 17 .6 35.5 13.8 48.8c20.3 20.3 53.2 20.3 73.5 0L608 169.5 608 384c0 35.3-28.7 64-64 64l-241.9 0c3.7-7.2 5.9-15.3 5.9-24c0-28.7-23.3-52-52-52l-117.4 0c4-17-.6-35.5-13.8-48.8c-20.3-20.3-53.2-20.3-73.5 0L32 342.5 32 128c0-35.3 28.7-64 64-64zm64 64l-64 0 0 64c35.3 0 64-28.7 64-64zM544 320c-35.3 0-64 28.7-64 64l64 0 0-64zM320 352a96 96 0 1 0 0-192 96 96 0 1 0 0 192z"></path>
    </symbol>
    <symbol xmlns="http://www.w3.org/2000/svg" viewBox="0 0 512 512" id="clock">
        <path  fill="currentColor" d="M464 256A208 208 0 1 1 48 256a208 208 0 1 1 416 0zM0 256a256 256 0 1 0 512 0A256 256 0 1 0 0 256zM232 120l0 136c0 8 4 15.5 10.7 20l96 64c11 7.4 25.9 4.4 33.3-6.7s4.4-25.9-6.7-33.3L280 243.2 280 120c0-13.3-10.7-24-24-24s-24 10.7-24 24z"></path>
    </symbol>
    <symbol xmlns="http://www.w3.org/2000/svg" viewBox="0 0 448 512" id="square-plus">
        <path fill="currentColor" d="M64 80c-8.8 0-16 7.2-16 16l0 320c0 8.8 7.2 16 16 16l320 0c8.8 0 16-7.2 16-16l0-320c0-8.8-7.2-16-16-16L64 80zM0 96C0 60.7 28.7 32 64 32l320 0c35.3 0 64 28.7 64 64l0 320c0 35.3-28.7 64-64 64L64 480c-35.3 0-64-28.7-64-64L0 96zM200 344l0-64-64 0c-13.3 0-24-10.7-24-24s10.7-24 24-24l64 0 0-64c0-13.3 10.7-24 24-24s24 10.7 24 24l0 64 64 0c13.3 0 24 10.7 24 24s-10.7 24-24 24l-64 0 0 64c0 13.3-10.7 24-24 24s-24-10.7-24-24z"></path>
    </symbol>
    <symbol xmlns="http://www.w3.org/2000/svg" viewBox="0 0 512 512" id="wallet">
        <path fill="currentColor" d="M64 32C28.7 32 0 60.7 0 96L0 416c0 35.3 28.7 64 64 64l384 0c35.3 0 64-28.7 64-64l0-224c0-35.3-28.7-64-64-64L80 128c-8.8 0-16-7.2-16-16s7.2-16 16-16l368 0c17.7 0 32-14.3 32-32s-14.3-32-32-32L64 32zM416 272a32 32 0 1 1 0 64 32 32 0 1 1 0-64z"></path>
    </symbol>
    <symbol xmlns="http://www.w3.org/2000/svg" viewBox="0 0 448 512" id="lock">
        <path  fill="currentColor" d="M144 144l0 48 160 0 0-48c0-44.2-35.8-80-80-80s-80 35.8-80 80zM80 192l0-48C80 64.5 144.5 0 224 0s144 64.5 144 144l0 48 16 0c35.3 0 64 28.7 64 64l0 192c0 35.3-28.7 64-64 64L64 512c-35.3 0-64-28.7-64-64L0 256c0-35.3 28.7-64 64-64l16 0z"></path>
    </symbol>
    <symbol xmlns="http://www.w3.org/2000/svg" viewBox="0 0 512 512" id="shield">
        <path  fill="currentColor" d="M256 0c4.6 0 9.2 1 13.4 2.9L457.7 82.8c22 9.3 38.4 31 38.3 57.2c-.5 99.2-41.3 280.7-213.6 363.2c-16.7 8-36.1 8-52.8 0C57.3 420.7 16.5 239.2 16 140c-.1-26.2 16.3-47.9 38.3-57.2L242.7 2.9C246.8 1 251.4 0 256 0z"></path>
    </symbol>
</svg>