<svg width="147" height="468" viewBox="0 0 147 468" fill="none" xmlns="http://www.w3.org/2000/svg">
<path d="M65.1969 269.212C66.7317 269.212 67.9753 267.968 67.9753 266.433C67.9753 264.898 66.7317 263.655 65.1969 263.655C63.6621 263.655 62.4185 264.898 62.4185 266.433C62.4185 267.968 63.6621 269.212 65.1969 269.212Z" fill="white"/>
<path d="M65.1969 281.024C66.7317 281.024 67.9753 279.78 67.9753 278.245C67.9753 276.71 66.7317 275.466 65.1969 275.466C63.6621 275.466 62.4185 276.71 62.4185 278.245C62.4185 279.78 63.6621 281.024 65.1969 281.024Z" fill="white"/>
<path d="M65.1969 292.835C66.7317 292.835 67.9753 291.591 67.9753 290.056C67.9753 288.521 66.7317 287.277 65.1969 287.277C63.6621 287.277 62.4185 288.521 62.4185 290.056C62.4185 291.591 63.6621 292.835 65.1969 292.835Z" fill="white"/>
<path d="M65.1969 304.645C66.7317 304.645 67.9753 303.401 67.9753 301.867C67.9753 300.332 66.7317 299.088 65.1969 299.088C63.6621 299.088 62.4185 300.332 62.4185 301.867C62.4185 303.401 63.6621 304.645 65.1969 304.645Z" fill="white"/>
<path d="M65.1969 257.401C66.7317 257.401 67.9753 256.157 67.9753 254.622C67.9753 253.087 66.7317 251.844 65.1969 251.844C63.6621 251.844 62.4185 253.087 62.4185 254.622C62.4185 256.157 63.6621 257.401 65.1969 257.401Z" fill="white"/>
<path d="M129.133 171.106L125.918 174.322L133.244 181.648L125.918 188.975L129.133 192.19L136.459 184.864L143.785 192.19L147 188.975L139.674 181.648L147 174.322L143.785 171.106L136.459 178.433L129.133 171.106Z" fill="white"/>
<path d="M129.133 197.019L125.918 200.234L133.244 207.562L125.918 214.888L129.133 218.104L136.459 210.776L143.785 218.104L147 214.888L139.674 207.562L147 200.234L143.785 197.019L136.459 204.346L129.133 197.019Z" fill="white"/>
<path d="M100.55 303.929L100.55 175.682L87.4329 175.682L87.4329 303.929L100.55 303.929ZM101.982 174.249L101.982 305.362L86.0016 305.362L86.0016 174.249L101.982 174.249Z" fill="#E2051B"/>
<path d="M86.0008 174.249L86.0008 1.43242L34.3898 1.43242L34.3898 174.249L86.0008 174.249ZM87.4329 1.52588e-05L87.4329 175.683L32.9585 175.683L32.9585 1.76399e-05L87.4329 1.52588e-05Z" fill="#E2051B"/>
<path d="M132.485 467.861L132.485 387.225L118.846 387.225L118.846 467.861L132.485 467.861Z" fill="white"/>
<path d="M140.972 387.225L140.972 235.956L132.485 235.956L132.485 387.225L140.972 387.225Z" fill="white"/>
<path d="M56.1037 95.714L56.1037 138.681" stroke="white" stroke-width="2.16084" stroke-miterlimit="10"/>
<path d="M52.9212 95.714L52.9212 138.681" stroke="white" stroke-width="2.16084" stroke-miterlimit="10"/>
<path d="M48.9429 95.714L48.9429 138.681" stroke="white" stroke-width="4.32167" stroke-miterlimit="10"/>
<path d="M42.5778 95.714L42.5778 138.681" stroke="white" stroke-width="7.56293" stroke-miterlimit="10"/>
<path d="M36.2127 95.714L36.2127 138.681" stroke="white" stroke-width="2.16084" stroke-miterlimit="10"/>
<path d="M29.0519 95.714L29.0519 138.681" stroke="white" stroke-width="3.24126" stroke-miterlimit="10"/>
<path d="M21.8911 95.714L21.8911 138.681" stroke="white" stroke-width="5.40209" stroke-miterlimit="10"/>
<path d="M17.1172 95.714L17.1172 138.681" stroke="white" stroke-width="3.24126" stroke-miterlimit="10"/>
<path d="M13.5369 95.714L13.5369 138.681L11.1499 138.681L11.1499 95.714L13.5369 95.714Z" fill="white"/>
<path d="M6.77386 95.714L6.77386 138.681" stroke="white" stroke-width="5.40209" stroke-miterlimit="10"/>
<path d="M2 95.714L2 138.681" stroke="white" stroke-width="3.24126" stroke-miterlimit="10"/>
</svg>
