<svg width="520" height="179" viewBox="0 0 520 179" fill="none" xmlns="http://www.w3.org/2000/svg">
<g clip-path="url(#clip0_91_95760)">
<rect width="520" height="179" transform="matrix(-1 0 0 1 520 0)" fill="#21B262"/>
<path d="M517.624 -10.7664L712.609 231.938L356.39 518.12L161.405 275.416L517.624 -10.7664Z" fill="white" fill-opacity="0.03"/>
<path d="M543.929 10.7649L738.914 253.469L382.695 539.651L187.71 296.947L543.929 10.7649Z" fill="white" fill-opacity="0.04"/>
<path d="M440.433 40.4141L436.316 64.5942H442.9L447.02 40.4141H440.433Z" fill="white"/>
<path d="M430.795 40.4426L424.347 56.9327L423.659 54.4429C422.388 51.4428 418.778 47.1342 414.539 44.4189L420.435 64.5838L427.402 64.5719L437.77 40.4375L430.795 40.4426Z" fill="white"/>
<path d="M421.161 42.1754C420.778 40.7025 419.669 40.2635 418.292 40.2109H408.085L408 40.6923C415.944 42.6212 421.2 47.2687 423.381 52.857L421.161 42.1754Z" fill="white"/>
<path d="M460.363 45.0509C462.517 45.0171 464.078 45.4882 465.291 45.9764L465.885 46.2561L466.776 41.0153C465.472 40.5254 463.428 40 460.878 40C454.372 40 449.786 43.2797 449.751 47.9798C449.709 51.4528 453.017 53.3918 455.517 54.5494C458.082 55.7359 458.942 56.4902 458.931 57.5495C458.91 59.1682 456.885 59.9106 454.994 59.9106C452.357 59.9106 450.957 59.5462 448.794 58.6444L447.946 58.258L447.02 63.67C448.56 64.3463 451.404 64.9276 454.355 64.9581C461.276 64.9581 465.773 61.7174 465.821 56.6953C465.85 53.9477 464.094 51.8511 460.289 50.1307C457.986 49.0087 456.577 48.2629 456.59 47.1307C456.59 46.1255 457.786 45.0509 460.363 45.0509Z" fill="white"/>
<path d="M483.675 40.4375H478.588C477.008 40.4375 475.833 40.868 475.139 42.4443L465.363 64.6041H472.277C472.277 64.6041 473.405 61.6244 473.661 60.9718C474.418 60.9718 481.135 60.982 482.092 60.982C482.288 61.8261 482.895 64.6041 482.895 64.6041H489.003L483.675 40.4375ZM475.556 56.0226C476.097 54.6344 478.179 49.2648 478.179 49.2648C478.143 49.3309 478.715 47.8665 479.056 46.9563L479.499 49.0411C479.499 49.0411 480.761 54.8141 481.025 56.0226H475.556Z" fill="white"/>
</g>
<defs>
<clipPath id="clip0_91_95760">
<rect width="520" height="179" fill="white" transform="matrix(-1 0 0 1 520 0)"/>
</clipPath>
</defs>
</svg>
