<svg width="410" height="179" viewBox="0 0 410 179" fill="none" xmlns="http://www.w3.org/2000/svg">
<g clip-path="url(#clip0_146_68778)">
<path d="M0 32C0 20.799 0 15.1984 2.17987 10.9202C4.09734 7.15695 7.15695 4.09734 10.9202 2.17987C15.1984 0 20.799 0 32 0H378C389.201 0 394.802 0 399.08 2.17987C402.843 4.09734 405.903 7.15695 407.82 10.9202C410 15.1984 410 20.799 410 32V179H0V32Z" fill="#21B262"/>
<g clip-path="url(#clip1_146_68778)">
<rect width="410" height="179" transform="matrix(-1 0 0 1 410 0)" fill="#21B262"/>
<path d="M407.622 -10.7664L602.607 231.938L246.389 518.12L51.403 275.416L407.622 -10.7664Z" fill="white" fill-opacity="0.03"/>
<path d="M433.927 10.7649L628.912 253.469L272.693 539.651L77.7077 296.947L433.927 10.7649Z" fill="white" fill-opacity="0.04"/>
<path d="M457.839 32.2805L652.824 274.984L296.605 561.167L101.62 318.463L457.839 32.2805Z" fill="white" fill-opacity="0.08"/>
</g>
</g>
<defs>
<clipPath id="clip0_146_68778">
<path d="M0 32C0 20.799 0 15.1984 2.17987 10.9202C4.09734 7.15695 7.15695 4.09734 10.9202 2.17987C15.1984 0 20.799 0 32 0H378C389.201 0 394.802 0 399.08 2.17987C402.843 4.09734 405.903 7.15695 407.82 10.9202C410 15.1984 410 20.799 410 32V179H0V32Z" fill="white"/>
</clipPath>
<clipPath id="clip1_146_68778">
<rect width="410" height="179" fill="white" transform="matrix(-1 0 0 1 410 0)"/>
</clipPath>
</defs>
</svg>
