<svg width="415" height="47" viewBox="0 0 415 47" fill="none" xmlns="http://www.w3.org/2000/svg">
<path d="M6.55 37H0.5V2H6.55V17.35L22.25 2H30.15L14.25 17.7L31.3 37H23.25L9.7 21.75L6.55 24.8V37ZM36.4344 18.45L33.6344 14.25C34.9344 13.0167 36.5844 12.0667 38.5844 11.4C40.5844 10.7333 42.5677 10.4 44.5344 10.4C47.9677 10.4 50.601 11.3333 52.4344 13.2C54.2677 15.0333 55.1844 17.6667 55.1844 21.1V37H49.4844V34.15C47.5844 36.25 44.901 37.3 41.4344 37.3C38.7344 37.3 36.4844 36.6 34.6844 35.2C32.8844 33.7667 31.9844 31.7333 31.9844 29.1C31.9844 27.5 32.351 26.1333 33.0844 25C33.8177 23.8667 34.8177 23.0167 36.0844 22.45C37.351 21.8833 38.6344 21.4833 39.9344 21.25C41.2344 20.9833 42.6344 20.85 44.1344 20.85C46.101 20.85 47.8844 21.0833 49.4844 21.55C49.551 19.7167 49.151 18.2667 48.2844 17.2C47.4177 16.2 45.951 15.7 43.8844 15.7C41.3177 15.7 38.8344 16.6167 36.4344 18.45ZM42.6844 32.35C44.051 32.35 45.351 32.0333 46.5844 31.4C47.8177 30.7667 48.7844 29.9 49.4844 28.8V26.3C47.8177 25.8333 46.2344 25.6 44.7344 25.6C40.1677 25.6 37.8844 26.75 37.8844 29.05C37.8844 30.1833 38.3677 31.0167 39.3344 31.55C40.3344 32.0833 41.451 32.35 42.6844 32.35ZM66.0434 47H60.3434V11H66.0434V13.35C66.81 12.3833 67.8434 11.65 69.1434 11.15C70.4767 10.65 71.8434 10.4 73.2434 10.4C77.1434 10.4 80.21 11.6333 82.4434 14.1C84.71 16.5667 85.8434 19.7167 85.8434 23.55C85.8434 27.55 84.6434 30.8667 82.2434 33.5C79.8767 36.1333 76.7434 37.45 72.8434 37.45C71.61 37.45 70.31 37.2833 68.9434 36.95C67.61 36.5833 66.6434 36.0333 66.0434 35.3V47ZM72.6434 15.7C71.21 15.7 69.8934 16.0833 68.6934 16.85C67.5267 17.6167 66.6434 18.65 66.0434 19.95V28.95C67.3434 31.0833 69.3934 32.15 72.1934 32.15C74.56 32.15 76.4434 31.4 77.8434 29.9C79.2434 28.3667 79.9434 26.4 79.9434 24C79.9434 21.5333 79.3267 19.5333 78.0934 18C76.86 16.4667 75.0434 15.7 72.6434 15.7ZM95.759 16.3H86.359V11H110.859V16.3H101.459V37H95.759V16.3ZM116.464 18.45L113.664 14.25C114.964 13.0167 116.614 12.0667 118.614 11.4C120.614 10.7333 122.597 10.4 124.564 10.4C127.997 10.4 130.63 11.3333 132.464 13.2C134.297 15.0333 135.214 17.6667 135.214 21.1V37H129.514V34.15C127.614 36.25 124.93 37.3 121.464 37.3C118.764 37.3 116.514 36.6 114.714 35.2C112.914 33.7667 112.014 31.7333 112.014 29.1C112.014 27.5 112.38 26.1333 113.114 25C113.847 23.8667 114.847 23.0167 116.114 22.45C117.38 21.8833 118.664 21.4833 119.964 21.25C121.264 20.9833 122.664 20.85 124.164 20.85C126.13 20.85 127.914 21.0833 129.514 21.55C129.58 19.7167 129.18 18.2667 128.314 17.2C127.447 16.2 125.98 15.7 123.914 15.7C121.347 15.7 118.864 16.6167 116.464 18.45ZM122.714 32.35C124.08 32.35 125.38 32.0333 126.614 31.4C127.847 30.7667 128.814 29.9 129.514 28.8V26.3C127.847 25.8333 126.264 25.6 124.764 25.6C120.197 25.6 117.914 26.75 117.914 29.05C117.914 30.1833 118.397 31.0167 119.364 31.55C120.364 32.0833 121.48 32.35 122.714 32.35ZM150.989 23.95C150.989 19.9167 152.306 16.65 154.939 14.15C157.572 11.65 160.889 10.4 164.889 10.4C168.956 10.4 172.289 11.6667 174.889 14.2C177.522 16.7 178.839 19.95 178.839 23.95C178.839 27.95 177.506 31.2 174.839 33.7C172.172 36.2 168.856 37.45 164.889 37.45C160.922 37.45 157.606 36.1833 154.939 33.65C152.306 31.0833 150.989 27.85 150.989 23.95ZM156.889 23.95C156.889 26.2833 157.639 28.2333 159.139 29.8C160.639 31.3667 162.556 32.15 164.889 32.15C167.356 32.15 169.306 31.4 170.739 29.9C172.206 28.4 172.939 26.4167 172.939 23.95C172.939 21.55 172.189 19.5833 170.689 18.05C169.189 16.4833 167.256 15.7 164.889 15.7C162.489 15.7 160.556 16.4833 159.089 18.05C157.622 19.5833 156.889 21.55 156.889 23.95ZM188.777 16.3H179.377V11H203.877V16.3H194.477V37H188.777V16.3ZM229.648 37H219.348V2H230.298C236.298 2 241.081 3.41666 244.648 6.25C248.214 9.08333 249.998 13.35 249.998 19.05C249.998 22.0833 249.464 24.7667 248.398 27.1C247.331 29.4333 245.848 31.3167 243.948 32.75C242.081 34.15 239.948 35.2167 237.548 35.95C235.148 36.65 232.514 37 229.648 37ZM230.198 7.7H225.398V31.3H230.098C234.364 31.3 237.698 30.2833 240.098 28.25C242.498 26.1833 243.698 23.1167 243.698 19.05C243.698 11.4833 239.198 7.7 230.198 7.7ZM281.939 27L285.489 30.9C283.955 33.0333 281.905 34.65 279.339 35.75C276.805 36.85 274.122 37.4 271.289 37.4C265.855 37.4 261.489 35.75 258.189 32.45C254.922 29.15 253.289 24.8333 253.289 19.5C253.289 14.3 254.989 10.0167 258.389 6.65C261.789 3.28333 266.055 1.6 271.189 1.6C273.922 1.6 276.539 2.11667 279.039 3.15C281.539 4.15 283.505 5.65 284.939 7.65L280.939 11.45C278.539 8.75 275.389 7.4 271.489 7.4C267.855 7.4 264.955 8.53333 262.789 10.8C260.655 13.0333 259.589 15.9333 259.589 19.5C259.589 23.1 260.705 26.0167 262.939 28.25C265.205 30.4833 268.139 31.6 271.739 31.6C275.939 31.6 279.339 30.0667 281.939 27ZM316.124 37H301.574V2H316.424C318.158 2 319.691 2.13333 321.024 2.4C322.358 2.63333 323.624 3.06666 324.824 3.7C326.058 4.3 326.991 5.2 327.624 6.4C328.291 7.6 328.624 9.06666 328.624 10.8C328.624 14.2667 327.224 16.8667 324.424 18.6C328.024 19.7667 329.824 22.5 329.824 26.8C329.824 28.7333 329.424 30.4 328.624 31.8C327.858 33.1667 326.791 34.2167 325.424 34.95C324.091 35.6833 322.658 36.2167 321.124 36.55C319.591 36.85 317.924 37 316.124 37ZM316.124 21.9H307.624V31.3H315.724C316.791 31.3 317.708 31.25 318.474 31.15C319.241 31.05 320.041 30.85 320.874 30.55C321.741 30.25 322.391 29.7667 322.824 29.1C323.291 28.4 323.524 27.5167 323.524 26.45C323.524 25.15 323.091 24.15 322.224 23.45C321.391 22.7167 320.491 22.2833 319.524 22.15C318.591 21.9833 317.458 21.9 316.124 21.9ZM315.624 7.7H307.624V16.4H316.274C317.908 16.4 319.324 16.0667 320.524 15.4C321.758 14.7333 322.374 13.65 322.374 12.15C322.374 11.1833 322.191 10.3833 321.824 9.75C321.458 9.11667 320.908 8.66667 320.174 8.4C319.474 8.13333 318.774 7.95 318.074 7.85C317.408 7.75 316.591 7.7 315.624 7.7ZM337.264 18.45L334.464 14.25C335.764 13.0167 337.414 12.0667 339.414 11.4C341.414 10.7333 343.398 10.4 345.364 10.4C348.798 10.4 351.431 11.3333 353.264 13.2C355.098 15.0333 356.014 17.6667 356.014 21.1V37H350.314V34.15C348.414 36.25 345.731 37.3 342.264 37.3C339.564 37.3 337.314 36.6 335.514 35.2C333.714 33.7667 332.814 31.7333 332.814 29.1C332.814 27.5 333.181 26.1333 333.914 25C334.648 23.8667 335.648 23.0167 336.914 22.45C338.181 21.8833 339.464 21.4833 340.764 21.25C342.064 20.9833 343.464 20.85 344.964 20.85C346.931 20.85 348.714 21.0833 350.314 21.55C350.381 19.7167 349.981 18.2667 349.114 17.2C348.248 16.2 346.781 15.7 344.714 15.7C342.148 15.7 339.664 16.6167 337.264 18.45ZM343.514 32.35C344.881 32.35 346.181 32.0333 347.414 31.4C348.648 30.7667 349.614 29.9 350.314 28.8V26.3C348.648 25.8333 347.064 25.6 345.564 25.6C340.998 25.6 338.714 26.75 338.714 29.05C338.714 30.1833 339.198 31.0167 340.164 31.55C341.164 32.0833 342.281 32.35 343.514 32.35ZM366.873 37H361.173V11H366.873V13.35C368.907 11.4167 371.573 10.45 374.873 10.45C381.84 10.45 385.323 14.4 385.323 22.3V37H379.623V22.75C379.623 20.4167 379.123 18.6667 378.123 17.5C377.157 16.3333 375.523 15.75 373.223 15.75C371.857 15.75 370.59 16.1667 369.423 17C368.257 17.8 367.407 18.85 366.873 20.15V37ZM396.17 37H390.47V0.499999H396.17V21.25L406.67 11H414.02L402.17 22.45L414.62 37H407.37L397.82 26.2L396.17 27.5V37Z" fill="white"/>
</svg>
