<svg width="520" height="179" viewBox="0 0 520 179" fill="none" xmlns="http://www.w3.org/2000/svg">
<g clip-path="url(#clip0_91_59455)">
<rect width="520" height="179" transform="matrix(-1 0 0 1 520 0)" fill="#225A7F"/>
<path d="M517.622 -10.7664L712.607 231.938L356.389 518.12L161.403 275.416L517.622 -10.7664Z" fill="white" fill-opacity="0.03"/>
<path d="M543.927 10.7649L738.912 253.469L382.693 539.651L187.708 296.947L543.927 10.7649Z" fill="white" fill-opacity="0.04"/>
<path d="M440.433 40.4141L436.316 64.5942H442.9L447.02 40.4141H440.433Z" fill="white"/>
<path d="M430.797 40.4426L424.349 56.9327L423.661 54.4429C422.39 51.4428 418.779 47.1342 414.541 44.4189L420.437 64.5838L427.404 64.5719L437.772 40.4375L430.797 40.4426Z" fill="white"/>
<path d="M421.161 42.1754C420.778 40.7025 419.669 40.2635 418.292 40.2109H408.085L408 40.6923C415.944 42.6212 421.2 47.2687 423.381 52.857L421.161 42.1754Z" fill="white"/>
<path d="M460.363 45.0509C462.517 45.0171 464.078 45.4882 465.291 45.9764L465.885 46.2561L466.776 41.0153C465.472 40.5254 463.428 40 460.878 40C454.372 40 449.786 43.2797 449.751 47.9798C449.709 51.4528 453.017 53.3918 455.517 54.5494C458.082 55.7359 458.942 56.4902 458.931 57.5495C458.91 59.1682 456.885 59.9106 454.994 59.9106C452.357 59.9106 450.957 59.5462 448.794 58.6444L447.946 58.258L447.02 63.67C448.56 64.3463 451.404 64.9276 454.355 64.9581C461.276 64.9581 465.773 61.7174 465.821 56.6953C465.85 53.9477 464.094 51.8511 460.289 50.1307C457.986 49.0087 456.577 48.2629 456.59 47.1307C456.59 46.1255 457.786 45.0509 460.363 45.0509Z" fill="white"/>
<path d="M483.673 40.4375H478.586C477.007 40.4375 475.831 40.868 475.137 42.4443L465.361 64.6041H472.275C472.275 64.6041 473.403 61.6244 473.659 60.9718C474.416 60.9718 481.133 60.982 482.09 60.982C482.286 61.8261 482.893 64.6041 482.893 64.6041H489.001L483.673 40.4375ZM475.554 56.0226C476.096 54.6344 478.177 49.2648 478.177 49.2648C478.141 49.3309 478.713 47.8665 479.054 46.9563L479.497 49.0411C479.497 49.0411 480.759 54.8141 481.023 56.0226H475.554Z" fill="white"/>
<rect x="30" y="30.5" width="45" height="45" rx="22.5" fill="#64748B"/>
<path d="M55.812 49.5C55.812 48.1507 54.7267 47.476 52.556 47.476C51.72 47.476 50.994 47.696 50.378 48.136C49.7767 48.576 49.3367 49.1847 49.058 49.962L46.66 49.28C46.9533 47.8867 47.6353 46.816 48.706 46.068C49.7767 45.3053 51.0453 44.924 52.512 44.924C53.26 44.924 53.964 44.99 54.624 45.122C55.284 45.254 55.922 45.4667 56.538 45.76C57.154 46.0533 57.638 46.486 57.99 47.058C58.3567 47.6153 58.54 48.2827 58.54 49.06C58.54 50.0573 58.2907 50.886 57.792 51.546C57.308 52.1913 56.5893 52.7267 55.636 53.152C54.9027 53.504 54.4187 53.746 54.184 53.878C53.92 54.0393 53.7293 54.1933 53.612 54.34C53.436 54.56 53.348 54.7947 53.348 55.044C53.348 55.1027 53.3627 55.2347 53.392 55.44C53.4213 55.6453 53.436 55.7627 53.436 55.792L51.038 55.814C50.9353 55.4913 50.884 55.0953 50.884 54.626C50.884 53.702 51.346 52.9467 52.27 52.36C52.71 52.096 53.2967 51.788 54.03 51.436C54.382 51.26 54.6607 51.106 54.866 50.974C55.0713 50.842 55.2767 50.644 55.482 50.38C55.702 50.1013 55.812 49.808 55.812 49.5ZM50.356 58.894C50.356 58.4393 50.5393 58.058 50.906 57.75C51.2727 57.442 51.6833 57.288 52.138 57.288C52.578 57.288 52.9813 57.4493 53.348 57.772C53.7147 58.08 53.898 58.454 53.898 58.894C53.898 59.3487 53.722 59.7373 53.37 60.06C53.018 60.3827 52.6073 60.544 52.138 60.544C51.6687 60.544 51.2507 60.39 50.884 60.082C50.532 59.7593 50.356 59.3633 50.356 58.894Z" fill="white"/>
</g>
<defs>
<clipPath id="clip0_91_59455">
<rect width="520" height="179" fill="white" transform="matrix(-1 0 0 1 520 0)"/>
</clipPath>
</defs>
</svg>
