<svg width="410" height="179" viewBox="0 0 410 179" fill="none" xmlns="http://www.w3.org/2000/svg">
<g clip-path="url(#clip0_146_7642)">
<path d="M0 32C0 20.799 0 15.1984 2.17987 10.9202C4.09734 7.15695 7.15695 4.09734 10.9202 2.17987C15.1984 0 20.799 0 32 0H378C389.201 0 394.802 0 399.08 2.17987C402.843 4.09734 405.903 7.15695 407.82 10.9202C410 15.1984 410 20.799 410 32V179H0V32Z" fill="#00717C"/>
<g clip-path="url(#clip1_146_7642)">
<rect width="410" height="179" transform="matrix(-1 0 0 1 410 0)" fill="#4F9D3A"/>
<path d="M419.53 -30.003L609.76 206.781L262.229 485.983L71.9993 249.199L419.53 -30.003Z" fill="white" fill-opacity="0.03"/>
<path d="M445.194 -9.00302L635.424 227.781L287.893 506.983L97.6634 270.199L445.194 -9.00302Z" fill="white" fill-opacity="0.04"/>
<path d="M468.524 11.997L658.754 248.781L311.223 527.983L120.993 291.199L468.524 11.997Z" fill="white" fill-opacity="0.08"/>
</g>
</g>
<defs>
<clipPath id="clip0_146_7642">
<path d="M0 32C0 20.799 0 15.1984 2.17987 10.9202C4.09734 7.15695 7.15695 4.09734 10.9202 2.17987C15.1984 0 20.799 0 32 0H378C389.201 0 394.802 0 399.08 2.17987C402.843 4.09734 405.903 7.15695 407.82 10.9202C410 15.1984 410 20.799 410 32V179H0V32Z" fill="white"/>
</clipPath>
<clipPath id="clip1_146_7642">
<rect width="410" height="179" fill="white" transform="matrix(-1 0 0 1 410 0)"/>
</clipPath>
</defs>
</svg>
