<svg width="520" height="179" viewBox="0 0 520 179" fill="none" xmlns="http://www.w3.org/2000/svg">
<g clip-path="url(#clip0_91_100075)">
<rect width="520" height="179" transform="matrix(-1 0 0 1 520 0)" fill="#4F9D3A"/>
<path d="M517.624 -10.7664L712.609 231.938L356.39 518.12L161.405 275.416L517.624 -10.7664Z" fill="white" fill-opacity="0.03"/>
<path d="M543.929 10.7649L738.914 253.469L382.695 539.651L187.71 296.947L543.929 10.7649Z" fill="white" fill-opacity="0.04"/>
<path d="M423.45 79.875H421.898V70.8954H423.271L426.478 75.0645L429.569 70.8954H430.929V79.875H429.377V73.6534L426.644 77.2196H426.247L423.45 73.6406V79.875ZM433.222 75.1158L432.503 74.0383C432.837 73.7218 433.26 73.4781 433.773 73.3071C434.287 73.136 434.795 73.0505 435.3 73.0505C436.181 73.0505 436.856 73.29 437.327 73.7689C437.797 74.2392 438.032 74.9148 438.032 75.7957V79.875H436.57V79.1438C436.083 79.6826 435.394 79.952 434.505 79.952C433.812 79.952 433.235 79.7724 432.773 79.4132C432.311 79.0455 432.08 78.5238 432.08 77.8482C432.08 77.4377 432.174 77.0871 432.362 76.7963C432.551 76.5055 432.807 76.2874 433.132 76.1421C433.457 75.9967 433.786 75.894 434.12 75.8342C434.453 75.7658 434.813 75.7316 435.197 75.7316C435.702 75.7316 436.159 75.7914 436.57 75.9112C436.587 75.4408 436.484 75.0688 436.262 74.7951C436.04 74.5386 435.663 74.4103 435.133 74.4103C434.475 74.4103 433.838 74.6455 433.222 75.1158ZM434.825 78.682C435.176 78.682 435.51 78.6008 435.826 78.4383C436.142 78.2758 436.39 78.0534 436.57 77.7712V77.1298C436.142 77.0101 435.736 76.9502 435.351 76.9502C434.18 76.9502 433.594 77.2453 433.594 77.8353C433.594 78.1261 433.718 78.3399 433.966 78.4767C434.222 78.6136 434.509 78.682 434.825 78.682ZM443.243 77.9765C443.243 77.8909 443.204 77.8011 443.127 77.7071C443.033 77.613 442.892 77.5275 442.704 77.4505C442.439 77.3479 442.088 77.2367 441.652 77.117C441.327 77.0229 441.045 76.9331 440.806 76.8476C440.575 76.7535 440.322 76.6252 440.049 76.4628C439.775 76.3003 439.565 76.0993 439.42 75.8598C439.275 75.6204 439.202 75.3467 439.202 75.0388C439.202 74.5599 439.347 74.1665 439.638 73.8587C439.929 73.5422 440.267 73.3284 440.652 73.2173C441.045 73.1061 441.477 73.0505 441.947 73.0505C442.443 73.0505 442.948 73.1574 443.461 73.3712C443.974 73.5765 444.367 73.8629 444.641 74.2307L443.64 75.18C443.213 74.6668 442.567 74.4103 441.703 74.4103C441.259 74.4103 440.964 74.5086 440.818 74.7053C440.75 74.8165 440.716 74.9191 440.716 75.0132C440.716 75.1244 440.784 75.2313 440.921 75.3339C441.066 75.4365 441.408 75.5648 441.947 75.7187C442.537 75.8898 442.918 76.0095 443.089 76.0779C443.457 76.2319 443.752 76.3858 443.974 76.5397C444.205 76.6851 444.406 76.8946 444.577 77.1683C444.697 77.3906 444.757 77.6558 444.757 77.9636C444.757 78.4425 444.611 78.8402 444.32 79.1566C444.03 79.4731 443.688 79.6911 443.294 79.8109C442.901 79.9306 442.473 79.9905 442.011 79.9905C441.378 79.9905 440.771 79.8536 440.19 79.58C439.608 79.2977 439.185 78.9001 438.92 78.387L440.074 77.5916C440.28 77.908 440.575 78.1603 440.959 78.3485C441.353 78.5366 441.751 78.6307 442.152 78.6307C442.64 78.6307 442.969 78.5195 443.14 78.2972C443.209 78.186 443.243 78.0791 443.243 77.9765ZM446.233 74.5642H445.078V73.2044H446.233V71.8319H447.695V73.2044H449.85V74.5642H447.695V77.1426C447.695 77.3393 447.704 77.5061 447.721 77.6429C447.738 77.7798 447.772 77.9294 447.824 78.0919C447.875 78.2544 447.96 78.3784 448.08 78.4639C448.208 78.5494 448.367 78.5922 448.555 78.5922C448.888 78.5922 449.205 78.4041 449.504 78.0278L450.376 78.8488C450.18 79.1908 449.893 79.4602 449.517 79.6569C449.141 79.8536 448.747 79.952 448.337 79.952C447.635 79.952 447.11 79.7339 446.759 79.2977C446.408 78.853 446.233 78.2715 446.233 77.5531V74.5642ZM455.823 77.7456L456.721 78.6307C456.054 79.5372 455.152 79.9905 454.014 79.9905C452.945 79.9905 452.082 79.674 451.423 79.0412C450.765 78.4083 450.435 77.5702 450.435 76.5269C450.435 75.475 450.748 74.6326 451.372 73.9998C452.005 73.3669 452.834 73.0505 453.86 73.0505C454.784 73.0505 455.537 73.337 456.118 73.91C456.7 74.4744 456.991 75.2056 456.991 76.1036C456.991 76.3259 456.965 76.6381 456.914 77.04H451.962C452.022 77.5617 452.244 77.9594 452.629 78.233C453.022 78.4981 453.493 78.6307 454.04 78.6307C454.382 78.6307 454.716 78.5537 455.041 78.3998C455.366 78.2373 455.626 78.0192 455.823 77.7456ZM453.796 74.3718C453.335 74.3718 452.937 74.4958 452.603 74.7438C452.278 74.9918 452.069 75.3339 451.975 75.77H455.477C455.349 74.8379 454.788 74.3718 453.796 74.3718ZM459.509 79.875H458.047V73.2044H459.509V73.6534C459.552 73.5679 459.629 73.4824 459.74 73.3969C459.988 73.1745 460.313 73.0633 460.715 73.0633C460.946 73.0633 461.177 73.0975 461.408 73.166C461.63 73.2429 461.84 73.4054 462.036 73.6534L461.202 74.7181C461.074 74.5215 460.852 74.4231 460.535 74.4231C460.27 74.4231 460.048 74.5129 459.868 74.6925C459.697 74.8635 459.578 75.0859 459.509 75.3595V79.875ZM469.801 77.3094L470.712 78.31C470.318 78.8573 469.792 79.2721 469.134 79.5543C468.484 79.8365 467.795 79.9776 467.068 79.9776C465.674 79.9776 464.554 79.5543 463.707 78.7077C462.869 77.861 462.45 76.7535 462.45 75.3852C462.45 74.0511 462.886 72.9522 463.759 72.0884C464.631 71.2247 465.726 70.7928 467.043 70.7928C467.744 70.7928 468.415 70.9253 469.057 71.1905C469.698 71.447 470.203 71.8319 470.57 72.345L469.544 73.3199C468.928 72.6272 468.12 72.2808 467.12 72.2808C466.188 72.2808 465.444 72.5716 464.888 73.1531C464.34 73.7261 464.067 74.4701 464.067 75.3852C464.067 76.3088 464.353 77.0571 464.926 77.6301C465.508 78.2031 466.26 78.4896 467.184 78.4896C468.261 78.4896 469.134 78.0962 469.801 77.3094ZM472.307 75.1158L471.589 74.0383C471.922 73.7218 472.346 73.4781 472.859 73.3071C473.372 73.136 473.881 73.0505 474.385 73.0505C475.266 73.0505 475.942 73.29 476.412 73.7689C476.882 74.2392 477.118 74.9148 477.118 75.7957V79.875H475.655V79.1438C475.168 79.6826 474.479 79.952 473.59 79.952C472.897 79.952 472.32 79.7724 471.858 79.4132C471.396 79.0455 471.165 78.5238 471.165 77.8482C471.165 77.4377 471.26 77.0871 471.448 76.7963C471.636 76.5055 471.892 76.2874 472.217 76.1421C472.542 75.9967 472.872 75.894 473.205 75.8342C473.539 75.7658 473.898 75.7316 474.283 75.7316C474.787 75.7316 475.245 75.7914 475.655 75.9112C475.672 75.4408 475.57 75.0688 475.347 74.7951C475.125 74.5386 474.749 74.4103 474.219 74.4103C473.56 74.4103 472.923 74.6455 472.307 75.1158ZM473.911 78.682C474.261 78.682 474.595 78.6008 474.911 78.4383C475.228 78.2758 475.476 78.0534 475.655 77.7712V77.1298C475.228 77.0101 474.821 76.9502 474.437 76.9502C473.265 76.9502 472.679 77.2453 472.679 77.8353C472.679 78.1261 472.803 78.3399 473.051 78.4767C473.308 78.6136 473.594 78.682 473.911 78.682ZM479.904 79.875H478.441V73.2044H479.904V73.6534C479.946 73.5679 480.023 73.4824 480.135 73.3969C480.383 73.1745 480.707 73.0633 481.109 73.0633C481.34 73.0633 481.571 73.0975 481.802 73.166C482.025 73.2429 482.234 73.4054 482.431 73.6534L481.597 74.7181C481.469 74.5215 481.246 74.4231 480.93 74.4231C480.665 74.4231 480.442 74.5129 480.263 74.6925C480.092 74.8635 479.972 75.0859 479.904 75.3595V79.875ZM489.01 79.875H487.548V79.1438C487.291 79.4859 486.907 79.7339 486.393 79.8878C486.154 79.9477 485.915 79.9776 485.675 79.9776C484.675 79.9776 483.888 79.6569 483.315 79.0155C482.742 78.3656 482.455 77.5446 482.455 76.5526C482.455 75.5776 482.767 74.7524 483.392 74.0767C484.025 73.3926 484.82 73.0505 485.778 73.0505C486.573 73.0505 487.163 73.2173 487.548 73.5508V70.5106H489.01V79.875ZM485.944 78.6179C486.107 78.6179 486.299 78.5794 486.522 78.5024C486.727 78.4425 486.924 78.3271 487.112 78.156C487.3 77.9765 487.445 77.784 487.548 77.5788V75.1415C487.206 74.654 486.697 74.4103 486.021 74.4103C485.406 74.4103 484.91 74.6112 484.533 75.0132C484.157 75.4151 483.969 75.9197 483.969 76.5269C483.969 77.1426 484.144 77.6472 484.495 78.0406C484.854 78.4254 485.337 78.6179 485.944 78.6179Z" fill="white"/>
<ellipse cx="446.453" cy="47.9" rx="17.93" ry="17.9" fill="#EB001B"/>
<ellipse cx="468.102" cy="47.9" rx="17.93" ry="17.9" fill="#FA9B0F"/>
<ellipse opacity="0.5" cx="446.453" cy="47.9" rx="17.93" ry="17.9" fill="#EB001B"/>
</g>
<defs>
<clipPath id="clip0_91_100075">
<rect width="520" height="179" fill="white" transform="matrix(-1 0 0 1 520 0)"/>
</clipPath>
</defs>
</svg>
