<svg width="0" height="0" class="hidden">
    <symbol version="1.1" xmlns="http://www.w3.org/2000/svg" viewBox="0 0 512 512" id="loop">
        <path d="M507.924 461.781l-132.372-132.375c24.894-34.238 39.615-76.351 39.615-121.833 0-114.454-93.118-207.573-207.593-207.573-114.454 0-207.573 93.12-207.573 207.573 0 114.475 93.12 207.573 207.573 207.573 43.392 0 83.689-13.377 117.054-36.224l133.077 133.077 50.219-50.219zM60.886 207.573c0-80.896 65.814-146.709 146.709-146.709 80.895 0 146.709 65.814 146.709 146.709s-65.815 146.708-146.709 146.708c-80.918 0-146.709-65.812-146.709-146.708z" fill="currentColor"></path>
    </symbol>
    <symbol version="1.1" xmlns="http://www.w3.org/2000/svg" viewBox="0 0 512 512" id="telegram">
        <path fill="#2c77bc" d="M512 256c0-141.385-114.615-256-256-256s-256 114.615-256 256c0 141.385 114.615 256 256 256s256-114.615 256-256z"></path>
        <path fill="#fff" d="M351.019 155.931c12.974-5.463 26.884 5.508 24.593 19.398l-27.059 164.065c-2.61 15.819-19.983 24.897-34.497 17.014-12.144-6.596-30.162-16.749-46.401-27.36-8.11-5.299-32.939-22.289-29.887-34.384 2.609-10.341 44.351-49.195 68.204-72.303 9.37-9.076 5.101-14.319-5.963-5.963-27.45 20.732-71.519 52.251-86.093 61.122-12.858 7.825-19.572 9.161-27.579 7.825-14.623-2.435-28.18-6.209-39.249-10.798-14.96-6.2-14.231-26.759-0.010-32.746l203.941-85.871z"></path>
    </symbol>
</svg>