<svg width="260" height="56" viewBox="0 0 260 56" fill="none" xmlns="http://www.w3.org/2000/svg">
<path d="M10.3592 55.5116C9.63213 55.5116 8.61426 54.9299 7.30557 53.7666C6.06959 52.6761 5.19713 51.222 4.6882 49.4043C4.39738 48.1684 4.17926 46.4961 4.03385 44.3877C3.88844 42.2793 3.81574 39.9164 3.81574 37.299C3.81574 32.9367 3.88844 28.2472 4.03385 23.2306C4.25197 18.2139 4.36103 13.7062 4.36103 9.70745C4.36103 8.39876 4.32467 7.16278 4.25197 5.9995C4.25197 4.83622 4.21562 3.81835 4.14291 2.9459C3.9975 2.80048 3.56127 2.69143 2.83422 2.61872C2.17988 2.47331 1.52553 2.36426 0.871189 2.29155C0.289549 2.14614 -0.00127043 2.07343 -0.00127043 2.07343C-0.00127043 1.92803 0.544017 1.60086 1.63459 1.09192C2.79787 0.51028 4.43373 0.21946 6.54217 0.21946C8.72332 0.21946 10.1411 0.692042 10.7954 1.63721C11.5225 2.50967 11.886 3.27307 11.886 3.92741C11.886 4.07282 11.886 4.25458 11.886 4.4727C11.886 4.69081 11.8496 4.87257 11.7769 5.01798C11.1226 7.99889 10.5046 11.0525 9.92295 14.1788C9.41402 17.3051 9.01414 20.904 8.72332 24.9755C9.01414 24.7574 9.26861 24.5029 9.48672 24.2121C9.70484 23.8486 10.1047 23.5941 10.6864 23.4487C11.3407 23.3033 12.0677 23.4487 12.8675 23.8849C13.6673 24.3211 14.3216 24.5393 14.8305 24.5393C17.3752 24.4666 19.2292 23.9213 20.3925 22.9034C21.5557 21.8128 22.6827 20.904 23.7732 20.177C23.9187 14.2879 24.5003 9.59839 25.5182 6.10856C26.536 2.54602 27.663 0.764746 28.8989 0.764746C29.5533 0.764746 30.1349 1.31003 30.6439 2.40061C31.1528 3.41848 31.4073 4.98163 31.4073 7.09007C31.4073 8.76229 31.0801 10.6526 30.4257 12.7611C29.7714 14.7968 29.4442 17.1961 29.4442 19.9588C29.4442 21.7765 29.5896 23.8122 29.8805 26.0661C30.1713 28.2472 30.5712 30.3557 31.0801 32.3914C31.589 34.3544 32.1707 35.9903 32.825 37.299C33.4793 38.535 34.17 39.1529 34.8971 39.1529C35.8423 39.1529 36.7874 38.5713 37.7326 37.408C38.6778 36.172 39.5866 34.7543 40.459 33.1548C41.3315 31.5553 42.0949 30.1739 42.7492 29.0106C43.4763 27.7746 44.0579 27.1566 44.4941 27.1566C44.7123 27.1566 44.8213 27.3384 44.8213 27.7019C44.8213 27.9927 44.7123 28.4653 44.4941 29.1197C42.6765 33.1911 41.1497 36.3538 39.9137 38.6077C38.6778 40.7888 36.9692 41.8794 34.788 41.8794C33.1158 41.8794 31.4436 41.1523 29.7714 39.6982C28.6808 38.6804 27.7357 37.1899 26.9359 35.2269C26.1362 33.1911 25.4818 31.0463 24.9729 28.7925C24.5366 26.5386 24.1731 24.5393 23.8823 22.7943C23.1552 23.9576 21.8829 24.9755 20.0653 25.8479C18.3204 26.6477 16.5027 27.0476 14.6124 27.0476C13.3764 27.0476 12.2495 26.8295 11.2316 26.3932C10.5046 26.0297 9.99566 26.1388 9.70484 26.7204C9.41402 27.2293 9.23226 27.92 9.15955 28.7925C9.15955 29.5923 9.15955 30.2466 9.15955 30.7555C9.23226 32.6459 9.34131 34.8997 9.48672 37.5171C9.70484 40.0618 9.92295 42.5701 10.1411 45.042C10.3592 47.514 10.5409 49.6225 10.6864 51.3674C10.8318 53.1123 10.9408 54.0575 11.0135 54.2029C11.0862 54.3483 11.1226 54.53 11.1226 54.7482C11.1226 55.2571 10.8681 55.5116 10.3592 55.5116ZM67.4473 44.3877C66.6476 44.3877 65.7751 44.0969 64.8299 43.5152C63.8848 42.8609 63.2304 42.1702 62.8669 41.4432C62.8669 39.7709 63.085 37.4807 63.5213 34.5725C63.9575 31.6643 64.4301 28.6834 64.939 25.6298C65.5206 22.5035 66.0296 19.8498 66.4658 17.6686C65.1571 19.7044 63.6667 21.9219 61.9944 24.3211C60.3222 26.7204 58.6137 28.9743 56.8688 31.0827C55.1238 33.1184 53.3426 34.827 51.5249 36.2084C49.78 37.5171 48.1442 38.1714 46.6174 38.1714C45.0906 38.1714 43.8909 37.6625 43.0185 36.6446C42.146 35.5541 41.7098 34.3181 41.7098 32.9367C41.7098 32.5732 41.7825 32.1006 41.9279 31.5189C42.5822 28.1745 43.8546 25.0482 45.7449 22.14C47.7079 19.1591 49.9254 16.5417 52.3974 14.2879C54.9421 12.034 57.4504 10.2527 59.9224 8.94405C62.3943 7.63536 64.5028 6.98102 66.2477 6.98102C67.5564 6.98102 68.7924 7.27184 69.9556 7.85348C71.1916 8.36241 72.3549 9.23487 73.4455 10.4709C73.6636 10.689 73.7726 10.9434 73.7726 11.2343C73.7726 11.5978 73.5545 11.9613 73.1183 12.3248C72.6094 14.0697 72.0641 16.1782 71.4824 18.6502C70.9735 21.0494 70.4646 23.5577 69.9556 26.1751C69.5194 28.7198 69.1559 31.0827 68.8651 33.2639C68.5742 35.445 68.4288 37.1172 68.4288 38.2805C68.4288 39.0802 68.5379 39.4801 68.756 39.4801C69.3376 39.4801 70.0647 38.8621 70.9372 37.6261C71.8823 36.3902 72.7911 34.9724 73.6636 33.3729C74.536 31.7734 75.2995 30.3557 75.9538 29.1197C76.6808 27.8837 77.1171 27.2657 77.2625 27.2657C77.4806 27.2657 77.5897 27.5565 77.5897 28.1382C77.5897 29.3741 77.1898 30.9009 76.39 32.7186C75.5903 34.5362 74.6088 36.3538 73.4455 38.1714C72.3549 39.9164 71.228 41.4068 70.0647 42.6428C68.9741 43.8061 68.1017 44.3877 67.4473 44.3877ZM47.4898 34.1363C48.5077 34.1363 49.78 33.5547 51.3068 32.3914C52.9063 31.2281 54.5422 29.7377 56.2144 27.92C57.9593 26.1024 59.6315 24.1757 61.231 22.14C62.9033 20.1043 64.321 18.1776 65.4843 16.36C66.7203 14.4696 67.5927 12.9428 68.1017 11.7795C66.6476 11.7795 64.9754 12.3248 63.085 13.4154C61.1947 14.4333 59.268 15.7783 57.305 17.4505C55.3419 19.05 53.5243 20.8313 51.8521 22.7943C50.1799 24.6847 48.8349 26.5386 47.817 28.3563C46.7991 30.1739 46.2902 31.737 46.2902 33.0457C46.2902 33.7728 46.6901 34.1363 47.4898 34.1363ZM93.9576 42.97C91.2676 42.97 89.4499 41.4795 88.5048 38.4986C87.5596 35.445 87.087 31.7007 87.087 27.2657C87.087 24.8664 87.1597 22.5399 87.3051 20.286C87.4505 17.9595 87.5596 16.0328 87.6323 14.506C86.469 14.3606 85.4148 14.1788 84.4696 13.9607C83.5245 13.7426 82.7611 13.4518 82.1794 13.0882C82.1067 13.5245 81.7796 14.4696 81.1979 15.9237C80.689 17.3051 80.071 18.9046 79.3439 20.7223C78.6169 22.5399 77.8898 24.3938 77.1628 26.2842C76.5085 27.8837 75.8541 28.6834 75.1998 28.6834C74.9089 28.6834 74.7635 28.429 74.7635 27.92C74.7635 27.3384 74.9816 26.4659 75.4179 25.3027C76.2903 23.1942 77.1264 21.0494 77.9262 18.8683C78.726 16.6144 79.453 14.3606 80.1073 12.1067C78.3624 11.4524 77.49 10.7253 77.49 9.92557C77.49 8.25336 78.108 7.09008 79.3439 6.43573C80.6526 5.70868 81.6705 5.34516 82.3976 5.34516C83.27 5.34516 83.7062 5.9268 83.7062 7.09007C83.7062 7.67172 83.5972 8.28971 83.3791 8.94405C83.2337 9.5984 83.0882 10.1073 82.9428 10.4709C82.9428 10.4709 83.0155 10.6163 83.161 10.9071C83.3064 11.1252 83.6335 11.2343 84.1425 11.2343C84.6514 11.2343 85.4875 11.0888 86.6508 10.798C87.8868 10.5072 88.6865 9.99827 89.0501 9.27122C89.6317 8.25335 90.3951 7.12643 91.3403 5.89045C92.2854 4.65446 93.2669 4.03647 94.2848 4.03647C95.3754 4.03647 96.3933 4.87257 97.3384 6.54479C95.957 8.1443 94.9392 10.689 94.2848 14.1788C93.6305 17.6686 93.3033 21.3039 93.3033 25.0845C93.3033 27.1203 93.4487 29.156 93.7395 31.1918C94.0303 33.2275 94.4666 34.9361 95.0482 36.3175C95.7026 37.6261 96.466 38.2805 97.3384 38.2805C98.2109 38.2805 99.047 37.8079 99.8467 36.8627C100.646 35.9176 101.337 34.8997 101.919 33.8091C102.573 32.7186 103.009 31.9188 103.228 31.4099C104.754 28.5744 105.699 26.7568 106.063 25.957C106.427 25.0845 106.899 24.6483 107.481 24.6483C107.699 24.6483 107.808 24.7937 107.808 25.0845C107.808 25.23 107.735 25.5935 107.59 26.1751C106.717 28.5744 105.627 31.0827 104.318 33.7001C103.082 36.2448 101.592 38.4259 99.8467 40.2435C98.1018 42.0611 96.1388 42.97 93.9576 42.97ZM129.431 44.3877C128.631 44.3877 127.759 44.0969 126.814 43.5152C125.869 42.8609 125.214 42.1702 124.851 41.4432C124.851 39.7709 125.069 37.4807 125.505 34.5725C125.941 31.6643 126.414 28.6834 126.923 25.6298C127.504 22.5035 128.013 19.8498 128.45 17.6686C127.141 19.7044 125.65 21.9219 123.978 24.3211C122.306 26.7204 120.597 28.9743 118.853 31.0827C117.108 33.1184 115.326 34.827 113.509 36.2084C111.764 37.5171 110.128 38.1714 108.601 38.1714C107.074 38.1714 105.875 37.6625 105.002 36.6446C104.13 35.5541 103.694 34.3181 103.694 32.9367C103.694 32.5732 103.766 32.1006 103.912 31.5189C104.566 28.1745 105.838 25.0482 107.729 22.14C109.692 19.1591 111.909 16.5417 114.381 14.2879C116.926 12.034 119.434 10.2527 121.906 8.94405C124.378 7.63536 126.487 6.98102 128.231 6.98102C129.54 6.98102 130.776 7.27184 131.939 7.85348C133.175 8.36241 134.339 9.23487 135.429 10.4709C135.647 10.689 135.756 10.9434 135.756 11.2343C135.756 11.5978 135.538 11.9613 135.102 12.3248C134.593 14.0697 134.048 16.1782 133.466 18.6502C132.957 21.0494 132.448 23.5577 131.939 26.1751C131.503 28.7198 131.14 31.0827 130.849 33.2639C130.558 35.445 130.413 37.1172 130.413 38.2805C130.413 39.0802 130.522 39.4801 130.74 39.4801C131.321 39.4801 132.048 38.8621 132.921 37.6261C133.866 36.3902 134.775 34.9724 135.647 33.3729C136.52 31.7734 137.283 30.3557 137.938 29.1197C138.665 27.8837 139.101 27.2657 139.246 27.2657C139.464 27.2657 139.573 27.5565 139.573 28.1382C139.573 29.3741 139.174 30.9009 138.374 32.7186C137.574 34.5362 136.593 36.3538 135.429 38.1714C134.339 39.9164 133.212 41.4068 132.048 42.6428C130.958 43.8061 130.085 44.3877 129.431 44.3877ZM109.474 34.1363C110.491 34.1363 111.764 33.5547 113.291 32.3914C114.89 31.2281 116.526 29.7377 118.198 27.92C119.943 26.1024 121.615 24.1757 123.215 22.14C124.887 20.1043 126.305 18.1776 127.468 16.36C128.704 14.4696 129.577 12.9428 130.085 11.7795C128.631 11.7795 126.959 12.3248 125.069 13.4154C123.178 14.4333 121.252 15.7783 119.289 17.4505C117.326 19.05 115.508 20.8313 113.836 22.7943C112.164 24.6847 110.819 26.5386 109.801 28.3563C108.783 30.1739 108.274 31.737 108.274 33.0457C108.274 33.7728 108.674 34.1363 109.474 34.1363ZM131.404 46.1326C130.386 46.1326 129.404 45.8055 128.459 45.1511C127.514 44.4241 127.041 43.588 127.041 42.6428C127.041 41.0433 127.368 40.5707 128.023 41.225C128.459 41.6613 128.968 42.1339 129.55 42.6428C130.131 43.079 130.676 43.2971 131.185 43.2971C132.203 43.2971 133.33 42.5701 134.566 41.116C135.802 39.5892 137.074 37.6261 138.383 35.2269C139.692 32.7549 140.964 30.1739 142.2 27.4838C142.564 26.6841 143.109 25.4844 143.836 23.8849C144.563 22.2854 145.399 20.5405 146.344 18.6502C147.362 16.6871 148.344 14.8332 149.289 13.0882C150.234 11.2706 151.07 9.78016 151.797 8.61688C152.597 7.30819 153.397 6.36303 154.197 5.78139C154.996 5.12704 155.651 4.79987 156.16 4.79987C157.177 4.79987 157.686 5.74503 157.686 7.63536C157.686 8.50782 157.577 10.2164 157.359 12.7611C157.214 15.3057 157.141 18.0685 157.141 21.0494C157.141 23.7395 157.25 26.3932 157.468 29.0106C157.759 31.628 158.232 33.8091 158.886 35.5541C159.54 37.2263 160.449 38.0624 161.612 38.0624C162.485 38.0624 163.321 37.5898 164.121 36.6446C164.92 35.6995 165.611 34.6816 166.193 33.591C166.847 32.5004 167.283 31.7007 167.502 31.1918C169.028 28.3563 169.973 26.5386 170.337 25.7389C170.701 24.8664 171.173 24.4302 171.755 24.4302C171.973 24.4302 172.082 24.5756 172.082 24.8664C172.082 25.0118 172.009 25.3754 171.864 25.957C170.991 28.3563 169.901 30.8646 168.592 33.482C167.356 36.0266 165.866 38.2078 164.121 40.0254C162.376 41.843 160.413 42.7518 158.232 42.7518C156.269 42.7518 154.742 41.843 153.651 40.0254C152.633 38.1351 151.906 35.7722 151.47 32.9367C151.107 30.0285 150.925 27.1203 150.925 24.2121C150.925 22.3218 150.961 20.5405 151.034 18.8683C151.179 17.1961 151.325 15.7056 151.47 14.3969C150.743 15.5602 150.016 16.7598 149.289 17.9958C148.562 19.2318 147.762 20.7586 146.89 22.5762C146.017 24.3938 144.963 26.8295 143.727 29.8831C142.636 32.5004 141.364 35.0451 139.91 37.5171C138.529 39.9891 137.074 42.0611 135.548 43.7334C134.094 45.3329 132.712 46.1326 131.404 46.1326ZM179.588 45.5873C176.971 45.5873 175.044 44.7512 173.808 43.079C172.572 41.3341 171.954 39.2257 171.954 36.7537C171.954 34.1363 172.572 30.9373 173.808 27.1566C175.044 23.376 176.353 19.8134 177.734 16.469C176.498 17.2688 175.226 17.9958 173.917 18.6502C172.608 19.3045 171.445 19.6317 170.427 19.6317C169.7 19.6317 169.155 19.4499 168.791 19.0864C168.501 18.7229 168.355 18.323 168.355 17.8868C168.355 17.5232 168.464 16.9779 168.682 16.2509C168.901 15.5238 169.264 14.8332 169.773 14.1788C170.355 13.5245 171.045 13.1973 171.845 13.1973C172.136 13.1973 172.281 13.3063 172.281 13.5245C172.281 13.5972 172.245 13.6699 172.172 13.7426C172.172 13.7426 172.172 13.7789 172.172 13.8516C172.1 13.997 172.063 14.1425 172.063 14.2879C172.063 14.5787 172.245 14.7241 172.608 14.7241C172.827 14.7241 173.081 14.6877 173.372 14.615C173.735 14.5423 174.099 14.3969 174.462 14.1788C175.189 13.8153 176.026 13.3791 176.971 12.8701C177.916 12.2885 178.97 11.7068 180.133 11.1252L181.769 7.85348C182.206 7.05372 182.714 6.50844 183.296 6.21762C183.878 5.85409 184.423 5.67233 184.932 5.67233C185.732 5.67233 186.422 5.81774 187.004 6.10856C187.658 6.32667 188.24 6.61749 188.749 6.98102C189.549 6.61749 190.385 6.29032 191.257 5.9995C192.202 5.63598 193.111 5.38151 193.984 5.2361C196.746 4.21823 199.618 3.41848 202.599 2.83684C205.58 2.18249 208.525 1.85532 211.433 1.85532C213.032 1.85532 214.668 2.07344 216.34 2.50966C218.013 2.9459 218.849 3.63659 218.849 4.58175C218.849 4.87257 218.558 5.01798 217.976 5.01798C216.813 5.01798 215.468 4.87257 213.941 4.58175C212.487 4.29094 211.033 4.14553 209.579 4.14553C207.761 4.14553 206.016 4.25458 204.344 4.4727C202.672 4.61811 201.109 4.87258 199.655 5.2361C200.818 5.74503 201.763 6.61749 202.49 7.85348C203.29 9.08946 203.69 10.6526 203.69 12.5429C203.69 14.5787 203.181 17.0143 202.163 19.8498C201.218 22.6853 199.909 25.5935 198.237 28.5744C196.637 31.5553 194.783 34.3544 192.675 36.9718C190.567 39.5165 188.385 41.5886 186.132 43.1881C183.878 44.7876 181.697 45.5873 179.588 45.5873ZM180.788 43.2971C182.315 43.2971 183.878 42.6064 185.477 41.225C187.149 39.8436 188.785 38.0987 190.385 35.9903C191.984 33.8818 193.402 31.7007 194.638 29.4468C195.22 28.429 195.874 27.0476 196.601 25.3027C197.401 23.5577 198.055 21.7038 198.564 19.7407C199.146 17.7777 199.437 15.9964 199.437 14.3969C199.437 12.9428 199.109 11.7432 198.455 10.798C197.873 9.78016 196.746 9.27122 195.074 9.27122C194.275 9.27122 193.257 9.48934 192.021 9.92557C190.785 10.3618 189.476 10.8707 188.095 11.4524C187.804 11.7432 187.513 12.0704 187.222 12.4339C187.004 12.7247 186.822 13.0519 186.677 13.4154C185.295 15.9601 183.914 18.7956 182.533 21.9219C181.151 24.9755 179.988 27.9564 179.043 30.8646C178.17 33.7728 177.734 36.3175 177.734 38.4986C177.734 41.6976 178.752 43.2971 180.788 43.2971ZM229.684 46.4598C228.448 46.7506 227.394 46.278 226.521 45.042C225.721 43.7334 225.067 41.9521 224.558 39.6982C224.122 37.3717 223.795 34.7907 223.577 31.9552C223.431 29.1197 223.358 26.2842 223.358 23.4487C223.358 20.6132 223.431 17.9595 223.577 15.4875C223.722 13.0155 223.867 11.0525 224.013 9.59839C222.922 11.416 221.723 14.1425 220.414 17.7777C219.105 21.3402 217.506 25.3754 215.615 29.8831C214.525 32.5004 213.252 35.0451 211.798 37.5171C210.417 39.9891 208.963 42.0611 207.436 43.7334C205.982 45.3329 204.601 46.1326 203.292 46.1326C202.274 46.1326 201.293 45.8055 200.347 45.1511C199.402 44.4241 198.93 43.588 198.93 42.6428C198.93 41.0433 199.257 40.5707 199.911 41.225C200.347 41.6613 200.856 42.1339 201.438 42.6428C202.02 43.079 202.565 43.2971 203.074 43.2971C204.092 43.2971 205.219 42.5701 206.455 41.116C207.691 39.5892 208.963 37.6261 210.272 35.2269C211.58 32.7549 212.853 30.1739 214.089 27.4838C214.452 26.6841 215.034 25.2663 215.834 23.2306C216.633 21.1221 217.542 18.7956 218.56 16.2509C219.651 13.7062 220.705 11.307 221.723 9.05311C222.74 6.72655 223.613 4.98163 224.34 3.81835C226.012 1.27368 227.575 0.00134452 229.029 0.00134452C230.265 0.00134452 230.883 1.01921 230.883 3.05495C230.883 3.7093 230.811 4.94528 230.665 6.7629C230.52 8.58053 230.338 10.7617 230.12 13.3063C229.975 15.851 229.829 18.5411 229.684 21.3766C229.538 24.1394 229.466 26.7931 229.466 29.3378C229.466 32.6822 229.647 35.5177 230.011 37.8443C230.375 40.0981 231.029 41.225 231.974 41.225C232.556 41.225 233.174 40.7888 233.828 39.9164C234.555 39.0439 235.209 37.9897 235.791 36.7537C236.445 35.445 236.991 34.2454 237.427 33.1548C237.936 32.0642 238.263 31.3008 238.408 30.8646C238.699 30.0648 239.099 28.7925 239.608 27.0476C240.19 25.3027 240.771 23.4123 241.353 21.3766C242.007 19.2682 242.625 17.3051 243.207 15.4875C243.789 13.5972 244.261 12.1067 244.625 11.0161C244.77 10.3618 244.879 9.74381 244.952 9.16217C245.097 8.50782 245.243 7.85348 245.388 7.19913C245.824 5.1634 246.442 3.56389 247.242 2.40061C248.042 1.23733 248.878 0.65569 249.75 0.65569C251.059 0.65569 252.041 1.96438 252.695 4.58175C252.622 5.59962 252.331 7.16278 251.822 9.27122C251.386 11.3797 250.877 13.8516 250.296 16.6871C249.714 19.4499 249.205 22.3581 248.769 25.4117C248.333 28.3926 248.115 31.3008 248.115 34.1363C248.115 36.9718 248.478 39.262 249.205 41.0069C250.005 42.7518 251.059 43.6243 252.368 43.6243C253.676 43.6243 254.767 43.1881 255.639 42.3156C256.512 41.4432 257.203 40.607 257.712 39.8073C258.293 38.9348 258.693 38.4986 258.911 38.4986C259.202 38.4986 259.347 38.644 259.347 38.9348C259.347 39.2257 259.238 39.5528 259.02 39.9164C258.802 40.4253 258.439 41.1887 257.93 42.2066C257.493 43.2244 256.912 44.1696 256.185 45.042C255.458 45.8418 254.513 46.2417 253.349 46.2417C251.095 46.2417 249.278 45.66 247.896 44.4968C246.515 43.2608 245.497 41.734 244.843 39.9164C244.188 38.026 243.752 36.063 243.534 34.0273C243.316 31.9915 243.207 30.1012 243.207 28.3563C243.207 27.5565 243.207 26.7204 243.207 25.8479C243.207 24.9028 243.243 23.9576 243.316 23.0125C242.734 25.0482 241.971 27.3748 241.026 29.9921C240.081 32.5368 238.99 35.0088 237.754 37.408C236.591 39.7346 235.318 41.734 233.937 43.4062C232.556 45.0784 231.138 46.0963 229.684 46.4598Z" fill="#FFCF0D"/>
</svg>
