<svg width="64" height="64" viewBox="0 0 64 64" fill="none" xmlns="http://www.w3.org/2000/svg">
<rect width="64" height="64" rx="32" fill="#F9F9F9"/>
<path d="M23.256 38.247L22.8662 39.1679H22.8662L23.256 38.247ZM23.256 28.4197L23.6458 29.3406H23.6458L23.256 28.4197ZM24.253 28.2435L24.0633 29.2254L24.253 28.2435ZM25.1069 28.8093L25.9371 28.2518L25.9371 28.2518L25.1069 28.8093ZM24.253 38.4231L24.0633 37.4413H24.0633L24.253 38.4231ZM25.1069 37.8574L24.2767 37.2999L24.2767 37.2999L25.1069 37.8574ZM40.744 38.247L41.1338 39.1679L40.744 38.247ZM40.744 28.4197L40.3542 29.3406L40.744 28.4197ZM39.747 28.2435L39.9367 29.2254L39.747 28.2435ZM38.8931 28.8093L38.0629 28.2518V28.2518L38.8931 28.8093ZM39.747 38.4231L39.9367 37.4413L39.747 38.4231ZM38.8931 37.8574L39.7233 37.2999L39.7233 37.2999L38.8931 37.8574ZM42.3333 38.6667C42.3333 38.1144 41.8856 37.6667 41.3333 37.6667C40.781 37.6667 40.3333 38.1144 40.3333 38.6667H42.3333ZM32 41.6667C31.4477 41.6667 31 42.1144 31 42.6667C31 43.219 31.4477 43.6667 32 43.6667V41.6667ZM23.6458 37.3261C22.0891 36.6671 21 35.1263 21 33.3333H19C19 35.9576 20.5959 38.2069 22.8662 39.1679L23.6458 37.3261ZM21 33.3333C21 31.5404 22.0891 29.9995 23.6458 29.3406L22.8662 27.4988C20.5959 28.4598 19 30.709 19 33.3333H21ZM26.3333 36.5333V30.1333H24.3333V36.5333H26.3333ZM23.6458 29.3406C23.7506 29.2962 23.8177 29.268 23.8758 29.2462C23.9303 29.2257 23.956 29.219 23.9674 29.2165C23.9749 29.2149 23.9771 29.2148 23.9816 29.2148C23.9885 29.2148 24.0124 29.2155 24.0633 29.2254L24.4428 27.2617C24.1315 27.2015 23.8434 27.1966 23.5418 27.2623C23.2825 27.3188 23.0406 27.425 22.8662 27.4988L23.6458 29.3406ZM26.3333 30.1333C26.3333 29.5564 26.3653 28.8894 25.9371 28.2518L24.2767 29.3668C24.2914 29.3887 24.3031 29.405 24.3143 29.4868C24.3313 29.6107 24.3333 29.7794 24.3333 30.1333H26.3333ZM24.0633 29.2254C24.0288 29.2187 24.0276 29.2137 24.0618 29.2295C24.0913 29.2431 24.1304 29.2645 24.1724 29.2924C24.2145 29.3203 24.2494 29.3479 24.2735 29.3698C24.3013 29.3951 24.2963 29.3959 24.2767 29.3668L25.9371 28.2518C25.7551 27.9808 25.4903 27.7664 25.2771 27.6252C25.064 27.484 24.7633 27.3237 24.4428 27.2617L24.0633 29.2254ZM22.8662 39.1679C23.0406 39.2417 23.2825 39.3479 23.5418 39.4044C23.8434 39.4701 24.1315 39.4651 24.4428 39.405L24.0633 37.4413C24.0124 37.4511 23.9885 37.4519 23.9816 37.4519C23.9771 37.4519 23.9749 37.4518 23.9674 37.4502C23.956 37.4477 23.9303 37.441 23.8758 37.4205C23.8177 37.3987 23.7506 37.3704 23.6458 37.3261L22.8662 39.1679ZM24.3333 36.5333C24.3333 36.8872 24.3313 37.056 24.3143 37.1799C24.3031 37.2616 24.2914 37.278 24.2767 37.2999L25.9371 38.4149C26.3653 37.7772 26.3333 37.1102 26.3333 36.5333H24.3333ZM24.4428 39.405C24.7633 39.343 25.064 39.1827 25.2771 39.0415C25.4903 38.9003 25.7551 38.6858 25.9371 38.4149L24.2767 37.2999C24.2963 37.2707 24.3013 37.2716 24.2735 37.2969C24.2494 37.3188 24.2145 37.3464 24.1724 37.3743C24.1304 37.4021 24.0913 37.4235 24.0618 37.4372C24.0276 37.453 24.0288 37.448 24.0633 37.4413L24.4428 39.405ZM41.1338 39.1679C43.4041 38.2069 45 35.9576 45 33.3333H43C43 35.1263 41.9109 36.6671 40.3542 37.3261L41.1338 39.1679ZM45 33.3333C45 30.709 43.4041 28.4598 41.1338 27.4988L40.3542 29.3406C41.9109 29.9995 43 31.5404 43 33.3333H45ZM39.6667 36.5333V30.1333H37.6667V36.5333H39.6667ZM41.1338 27.4988C40.9594 27.425 40.7175 27.3188 40.4582 27.2623C40.1566 27.1966 39.8685 27.2015 39.5572 27.2617L39.9367 29.2254C39.9876 29.2155 40.0115 29.2148 40.0184 29.2148C40.0229 29.2148 40.0251 29.2149 40.0326 29.2165C40.044 29.219 40.0697 29.2257 40.1242 29.2462C40.1823 29.268 40.2494 29.2962 40.3542 29.3406L41.1338 27.4988ZM39.6667 30.1333C39.6667 29.7794 39.6687 29.6107 39.6857 29.4868C39.6969 29.405 39.7086 29.3887 39.7233 29.3668L38.0629 28.2518C37.6347 28.8894 37.6667 29.5564 37.6667 30.1333H39.6667ZM39.5572 27.2617C39.2367 27.3237 38.936 27.484 38.7229 27.6252C38.5097 27.7664 38.2449 27.9808 38.0629 28.2518L39.7233 29.3668C39.7037 29.3959 39.6987 29.3951 39.7265 29.3698C39.7506 29.3479 39.7855 29.3203 39.8276 29.2924C39.8696 29.2645 39.9087 29.2431 39.9382 29.2295C39.9724 29.2137 39.9712 29.2187 39.9367 29.2254L39.5572 27.2617ZM40.3542 37.3261C40.2494 37.3704 40.1823 37.3987 40.1242 37.4205C40.0697 37.441 40.044 37.4477 40.0326 37.4502C40.0251 37.4518 40.0229 37.4519 40.0184 37.4519C40.0115 37.4519 39.9876 37.4511 39.9367 37.4413L39.5572 39.405C39.8685 39.4651 40.1566 39.4701 40.4582 39.4044C40.7175 39.3479 40.9594 39.2417 41.1338 39.1679L40.3542 37.3261ZM37.6667 36.5333C37.6667 37.1102 37.6347 37.7772 38.0629 38.4149L39.7233 37.2999C39.7086 37.278 39.6969 37.2616 39.6857 37.1799C39.6687 37.056 39.6667 36.8872 39.6667 36.5333H37.6667ZM39.9367 37.4413C39.9712 37.448 39.9724 37.453 39.9382 37.4372C39.9087 37.4235 39.8696 37.4021 39.8276 37.3743C39.7855 37.3464 39.7506 37.3188 39.7265 37.2969C39.6987 37.2716 39.7037 37.2707 39.7233 37.2999L38.0629 38.4149C38.2449 38.6858 38.5097 38.9003 38.7229 39.0415C38.936 39.1827 39.2367 39.343 39.5572 39.405L39.9367 37.4413ZM23.6667 29.3333C23.6667 24.731 27.3976 21 32 21V19C26.2931 19 21.6667 23.6264 21.6667 29.3333H23.6667ZM32 21C36.6024 21 40.3333 24.731 40.3333 29.3333H42.3333C42.3333 23.6264 37.7069 19 32 19V21ZM40.3333 38.6667V40H42.3333V38.6667H40.3333ZM38.6667 41.6667H32V43.6667H38.6667V41.6667ZM40.3333 40C40.3333 40.9205 39.5871 41.6667 38.6667 41.6667V43.6667C40.6917 43.6667 42.3333 42.025 42.3333 40H40.3333Z" fill="#747474"/>
</svg>
