<svg width="64" height="64" viewBox="0 0 64 64" fill="none" xmlns="http://www.w3.org/2000/svg">
<rect width="64" height="64" rx="32" fill="#EEF2FC"/>
<path d="M43.6831 41.0167L44.651 40.7656L44.651 40.7656L43.6831 41.0167ZM43.3717 39.8162L42.4037 40.0673L42.4037 40.0673L43.3717 39.8162ZM20.6283 39.8162L19.6604 39.5651H19.6604L20.6283 39.8162ZM20.3169 41.0167L21.2849 41.2678L20.3169 41.0167ZM21.7128 38.1147L21.3375 37.1878H21.3375L21.7128 38.1147ZM21.0695 38.5987L21.8591 39.2123L21.8591 39.2123L21.0695 38.5987ZM42.9305 38.5987L42.1409 39.2123L42.9305 38.5987ZM42.2872 38.1147L42.6625 37.1878H42.6625L42.2872 38.1147ZM43.2696 43.7828L42.7653 42.9193L43.2696 43.7828ZM43.9504 42.9425L44.9026 43.2479L44.9026 43.2479L43.9504 42.9425ZM20.7304 43.7828L21.2347 42.9193H21.2347L20.7304 43.7828ZM20.0496 42.9425L21.0019 42.6371L20.0496 42.9425ZM30.8858 19.0264L30.4517 18.1256L30.8858 19.0264ZM21.7714 23.4183L22.2055 24.3191L21.7714 23.4183ZM20.6572 26.6395L19.7696 27.1001H19.7696L20.6572 26.6395ZM20.928 27.1614L21.8156 26.7009L21.8156 26.7009L20.928 27.1614ZM43.072 27.1614L42.1844 26.7009V26.7009L43.072 27.1614ZM43.3428 26.6395L42.4552 26.179L42.4552 26.179L43.3428 26.6395ZM42.2286 23.4183L42.6627 22.5174V22.5174L42.2286 23.4183ZM33.1142 19.0264L33.5483 18.1256L33.1142 19.0264ZM43.925 25.1517L44.9249 25.1439V25.1439L43.925 25.1517ZM43.6206 24.2719L42.8268 24.88V24.88L43.6206 24.2719ZM20.3794 24.2719L19.5855 23.6638L19.5855 23.6638L20.3794 24.2719ZM20.075 25.1517L19.0751 25.1439V25.1439L20.075 25.1517ZM42.7862 27.4728L42.4708 26.5238L42.4708 26.5238L42.7862 27.4728ZM42.9317 27.3861L43.6181 28.1133L43.6181 28.1133L42.9317 27.3861ZM21.2138 27.4728L21.5292 26.5238H21.5292L21.2138 27.4728ZM21.0683 27.3861L20.3819 28.1133L20.3819 28.1133L21.0683 27.3861ZM31.7129 18.6924L31.5349 17.7084L31.7129 18.6924ZM32.2871 18.6924L32.4651 17.7084L32.2871 18.6924ZM23.2144 36.4969C23.2144 37.0492 23.6621 37.4969 24.2144 37.4969C24.7667 37.4969 25.2144 37.0492 25.2144 36.4969H23.2144ZM25.2144 27.4933C25.2144 26.941 24.7667 26.4933 24.2144 26.4933C23.6621 26.4933 23.2144 26.941 23.2144 27.4933H25.2144ZM31 36.4969C31 37.0492 31.4477 37.4969 32 37.4969C32.5523 37.4969 33 37.0492 33 36.4969H31ZM33 28.9939C33 28.4416 32.5523 27.9939 32 27.9939C31.4477 27.9939 31 28.4416 31 28.9939H33ZM38.7856 36.4969C38.7856 37.0492 39.2333 37.4969 39.7856 37.4969C40.3379 37.4969 40.7856 37.0492 40.7856 36.4969H38.7856ZM40.7856 28.9939C40.7856 28.4416 40.3379 27.9939 39.7856 27.9939C39.2333 27.9939 38.7856 28.4416 38.7856 28.9939H40.7856ZM22.7339 45H41.2661V43H22.7339V45ZM44.651 40.7656L44.3396 39.5651L42.4037 40.0673L42.7151 41.2678L44.651 40.7656ZM40.9546 36.9976H23.0454V38.9976H40.9546V36.9976ZM19.6604 39.5651L19.349 40.7656L21.2849 41.2678L21.5963 40.0673L19.6604 39.5651ZM23.0454 36.9976C22.44 36.9976 21.8515 36.9797 21.3375 37.1878L22.0881 39.0416C22.1526 39.0155 22.2597 38.9976 23.0454 38.9976V36.9976ZM21.5963 40.0673C21.7885 39.3264 21.8283 39.252 21.8591 39.2123L20.2798 37.9852C19.9345 38.4296 19.8056 39.0055 19.6604 39.5651L21.5963 40.0673ZM21.3375 37.1878C20.922 37.356 20.5559 37.6298 20.2798 37.9852L21.8591 39.2123C21.9149 39.1405 21.993 39.0801 22.0881 39.0416L21.3375 37.1878ZM44.3396 39.5651C44.1945 39.0055 44.0655 38.4296 43.7202 37.9852L42.1409 39.2123C42.1717 39.252 42.2115 39.3264 42.4037 40.0673L44.3396 39.5651ZM40.9546 38.9976C41.7403 38.9976 41.8474 39.0155 41.9119 39.0416L42.6625 37.1878C42.1485 36.9797 41.56 36.9976 40.9546 36.9976V38.9976ZM43.7202 37.9852C43.4441 37.6298 43.078 37.356 42.6625 37.1878L41.9119 39.0416C42.007 39.0801 42.0851 39.1405 42.1409 39.2123L43.7202 37.9852ZM41.2661 45C41.7922 45 42.2503 45.0009 42.6212 44.9693C42.9981 44.9371 43.3999 44.8647 43.7738 44.6464L42.7653 42.9193C42.7651 42.9194 42.7619 42.9213 42.7537 42.9245C42.7453 42.9279 42.7303 42.9331 42.7064 42.9392C42.6564 42.9519 42.5774 42.9657 42.4512 42.9765C42.1853 42.9992 41.8276 43 41.2661 43V45ZM42.7151 41.2678C42.8518 41.7947 42.9362 42.1241 42.977 42.3726C43.0164 42.6132 42.9917 42.657 42.9981 42.6371L44.9026 43.2479C45.0374 42.8276 45.011 42.4169 44.9506 42.049C44.8916 41.6889 44.7782 41.2556 44.651 40.7656L42.7151 41.2678ZM43.7738 44.6464C44.3072 44.335 44.7127 43.84 44.9026 43.2479L42.9981 42.6371C42.9629 42.7469 42.8839 42.85 42.7653 42.9193L43.7738 44.6464ZM22.7339 43C22.1724 43 21.8147 42.9992 21.5488 42.9765C21.4226 42.9657 21.3436 42.9519 21.2936 42.9392C21.2697 42.9331 21.2547 42.9279 21.2463 42.9245C21.2381 42.9213 21.2349 42.9194 21.2347 42.9193L20.2262 44.6464C20.6001 44.8647 21.0019 44.9371 21.3788 44.9693C21.7497 45.0009 22.2078 45 22.7339 45V43ZM19.349 40.7656C19.2218 41.2556 19.1084 41.6889 19.0494 42.049C18.989 42.4169 18.9626 42.8276 19.0974 43.2479L21.0019 42.6371C21.0083 42.657 20.9836 42.6132 21.023 42.3726C21.0638 42.1241 21.1482 41.7947 21.2849 41.2678L19.349 40.7656ZM21.2347 42.9193C21.1161 42.85 21.0371 42.7469 21.0019 42.6371L19.0974 43.2479C19.2873 43.84 19.6928 44.335 20.2262 44.6464L21.2347 42.9193ZM21.4851 28.4933H42.5149V26.4933H21.4851V28.4933ZM30.4517 18.1256L21.3373 22.5174L22.2055 24.3191L31.3199 19.9273L30.4517 18.1256ZM19.7696 27.1001L20.0403 27.622L21.8156 26.7009L21.5448 26.179L19.7696 27.1001ZM43.9597 27.622L44.2304 27.1001L42.4552 26.179L42.1844 26.7009L43.9597 27.622ZM42.6627 22.5174L33.5483 18.1256L32.6801 19.9273L41.7945 24.3191L42.6627 22.5174ZM44.2304 27.1001C44.4176 26.7393 44.5872 26.4143 44.7042 26.1337C44.8256 25.8425 44.9279 25.5155 44.9249 25.1439L42.925 25.1596C42.9249 25.1482 42.9311 25.1893 42.8582 25.364C42.7809 25.5493 42.658 25.7881 42.4552 26.179L44.2304 27.1001ZM41.7945 24.3191C42.1992 24.5141 42.4491 24.6354 42.6293 24.7407C42.7136 24.79 42.7632 24.8248 42.7929 24.8487C42.807 24.86 42.8155 24.868 42.8201 24.8727C42.8246 24.8772 42.8264 24.8795 42.8268 24.88L44.4145 23.6638C44.1909 23.3718 43.9127 23.1743 43.6385 23.014C43.3731 22.8589 43.0381 22.6983 42.6627 22.5174L41.7945 24.3191ZM44.9249 25.1439C44.9207 24.6067 44.7399 24.0886 44.4145 23.6638L42.8268 24.88C42.8919 24.9651 42.9242 25.063 42.925 25.1596L44.9249 25.1439ZM21.3373 22.5174C20.9619 22.6983 20.6269 22.8589 20.3615 23.014C20.0873 23.1743 19.8091 23.3718 19.5855 23.6638L21.1732 24.88C21.1736 24.8795 21.1754 24.8772 21.1799 24.8727C21.1845 24.868 21.193 24.86 21.2071 24.8487C21.2368 24.8248 21.2864 24.79 21.3707 24.7407C21.5509 24.6354 21.8008 24.5141 22.2055 24.3191L21.3373 22.5174ZM21.5448 26.179C21.342 25.7881 21.2191 25.5493 21.1418 25.364C21.0689 25.1893 21.0751 25.1482 21.075 25.1596L19.0751 25.1439C19.0721 25.5155 19.1744 25.8425 19.2958 26.1337C19.4128 26.4143 19.5824 26.7393 19.7696 27.1001L21.5448 26.179ZM19.5855 23.6638C19.2601 24.0886 19.0793 24.6067 19.0751 25.1439L21.075 25.1596C21.0758 25.063 21.1081 24.9651 21.1732 24.88L19.5855 23.6638ZM42.5149 28.4933C42.5844 28.4933 42.8496 28.5055 43.1017 28.4217L42.4708 26.5238C42.5105 26.5106 42.5459 26.5027 42.574 26.498C42.6003 26.4937 42.6176 26.4926 42.6198 26.4925C42.6215 26.4924 42.6157 26.4928 42.5958 26.493C42.5757 26.4932 42.5516 26.4933 42.5149 26.4933V28.4933ZM42.1844 26.7009C42.1679 26.7326 42.1574 26.7529 42.1485 26.7696C42.1397 26.786 42.1375 26.7895 42.1393 26.7865C42.1414 26.7829 42.1517 26.7661 42.1694 26.7429C42.1882 26.7182 42.2134 26.689 42.2453 26.6589L43.6181 28.1133C43.8171 27.9255 43.9303 27.6785 43.9597 27.622L42.1844 26.7009ZM43.1016 28.4217C43.2925 28.3582 43.4693 28.2537 43.6181 28.1133L42.2453 26.6589C42.3116 26.5963 42.389 26.551 42.4708 26.5238L43.1016 28.4217ZM21.4851 26.4933C21.4484 26.4933 21.4243 26.4932 21.4042 26.493C21.3843 26.4928 21.3785 26.4924 21.3802 26.4925C21.3824 26.4926 21.3997 26.4937 21.426 26.498C21.4541 26.5027 21.4895 26.5106 21.5292 26.5238L20.8984 28.4217C21.1504 28.5055 21.4156 28.4933 21.4851 28.4933V26.4933ZM20.0403 27.622C20.0697 27.6785 20.1829 27.9255 20.3819 28.1133L21.7547 26.6589C21.7866 26.689 21.8118 26.7182 21.8306 26.7429C21.8484 26.7662 21.8586 26.7829 21.8607 26.7865C21.8625 26.7895 21.8603 26.786 21.8515 26.7696C21.8426 26.7529 21.8321 26.7326 21.8156 26.7009L20.0403 27.622ZM21.5292 26.5238C21.611 26.551 21.6884 26.5963 21.7547 26.6589L20.3819 28.1133C20.5307 28.2538 20.7075 28.3582 20.8984 28.4217L21.5292 26.5238ZM31.3199 19.9273C31.7786 19.7063 31.8416 19.6854 31.8908 19.6765L31.5349 17.7084C31.1557 17.777 30.8101 17.9529 30.4517 18.1256L31.3199 19.9273ZM33.5483 18.1256C33.1899 17.9529 32.8443 17.777 32.4651 17.7084L32.1092 19.6765C32.1584 19.6854 32.2214 19.7063 32.6801 19.9273L33.5483 18.1256ZM31.8908 19.6765C31.9629 19.6634 32.0371 19.6634 32.1092 19.6765L32.4651 17.7084C32.1576 17.6528 31.8424 17.6528 31.5349 17.7084L31.8908 19.6765ZM25.2144 36.4969V27.4933H23.2144V36.4969H25.2144ZM33 36.4969V28.9939H31V36.4969H33ZM40.7856 36.4969V28.9939H38.7856V36.4969H40.7856Z" fill="#34446A"/>
</svg>
