<svg width="64" height="64" viewBox="0 0 64 64" fill="none" xmlns="http://www.w3.org/2000/svg">
<rect width="64" height="64" rx="32" fill="#F4EEFC"/>
<path d="M23.73 42.455L24.184 41.564H24.184L23.73 42.455ZM21.545 40.27L22.436 39.816H22.436L21.545 40.27ZM40.27 21.545L39.816 22.436V22.436L40.27 21.545ZM42.455 23.73L41.564 24.184V24.184L42.455 23.73ZM23.73 21.545L24.184 22.436L23.73 21.545ZM21.545 23.73L22.436 24.184L21.545 23.73ZM42 32C42 32.5523 42.4477 33 43 33C43.5523 33 44 32.5523 44 32H42ZM32 44C32.5523 44 33 43.5523 33 43C33 42.4477 32.5523 42 32 42V44ZM21 27C20.4477 27 20 27.4477 20 28C20 28.5523 20.4477 29 21 29V27ZM43 29C43.5523 29 44 28.5523 44 28C44 27.4477 43.5523 27 43 27V29ZM26 25C26 24.4477 25.5523 24 25 24C24.4477 24 24 24.4477 24 25H26ZM29 25C29 24.4477 28.5523 24 28 24C27.4477 24 27 24.4477 27 25H29ZM32 25C32 24.4477 31.5523 24 31 24C30.4477 24 30 24.4477 30 25H32ZM35.339 35.7612L34.407 36.1237L35.339 35.7612ZM38.0718 42.7866L39.0038 42.424V42.424L38.0718 42.7866ZM42.8042 38.5382L42.3891 39.448L42.8042 38.5382ZM35.7944 35.3394L35.3792 36.2491L35.7944 35.3394ZM38.7056 42.7723L39.6532 43.0918L38.7056 42.7723ZM39.6917 39.8474L38.7441 39.5279L39.6917 39.8474ZM39.9558 39.6242L40.1184 40.6109L39.9558 39.6242ZM42.7185 39.169L42.5559 38.1823L42.7185 39.169ZM32.2966 33.7111C32.6893 34.0994 33.3225 34.0958 33.7108 33.7031C34.0991 33.3104 34.0955 32.6772 33.7028 32.2889L32.2966 33.7111ZM32.3557 30.957C31.963 30.5687 31.3299 30.5723 30.9415 30.965C30.5532 31.3578 30.5568 31.9909 30.9496 32.3792L32.3557 30.957ZM34.9997 31.9978C34.9997 32.5501 35.4474 32.9978 35.9997 32.9978C36.552 32.9978 36.9997 32.5501 36.9997 31.9978H34.9997ZM36.9997 31C36.9997 30.4477 36.552 30 35.9997 30C35.4474 30 34.9997 30.4477 34.9997 31H36.9997ZM32.0203 37C32.5726 37 33.0203 36.5523 33.0203 36C33.0203 35.4477 32.5726 35 32.0203 35V37ZM29.9997 35C29.4474 35 28.9997 35.4477 28.9997 36C28.9997 36.5523 29.4474 37 29.9997 37V35ZM24 25.01C24 25.5623 24.4477 26.01 25 26.01C25.5523 26.01 26 25.5623 26 25.01H24ZM27 25.01C27 25.5623 27.4477 26.01 28 26.01C28.5523 26.01 29 25.5623 29 25.01H27ZM30 25.01C30 25.5623 30.4477 26.01 31 26.01C31.5523 26.01 32 25.5623 32 25.01H30ZM29 22H35V20H29V22ZM22 35V29H20V35H22ZM29 42C27.5834 42 26.581 41.9992 25.7974 41.9352C25.0255 41.8721 24.5543 41.7527 24.184 41.564L23.2761 43.346C23.9753 43.7023 24.739 43.8554 25.6346 43.9286C26.5185 44.0008 27.6164 44 29 44V42ZM20 35C20 36.3836 19.9992 37.4815 20.0714 38.3654C20.1446 39.261 20.2977 40.0247 20.654 40.7239L22.436 39.816C22.2473 39.4457 22.1279 38.9745 22.0648 38.2026C22.0008 37.419 22 36.4166 22 35H20ZM24.184 41.564C23.4314 41.1805 22.8195 40.5686 22.436 39.816L20.654 40.7239C21.2292 41.8529 22.1471 42.7708 23.2761 43.346L24.184 41.564ZM35 22C36.4166 22 37.419 22.0008 38.2026 22.0648C38.9745 22.1279 39.4457 22.2473 39.816 22.436L40.7239 20.654C40.0247 20.2977 39.261 20.1446 38.3654 20.0714C37.4815 19.9992 36.3836 20 35 20V22ZM44 29C44 27.6164 44.0008 26.5185 43.9286 25.6346C43.8554 24.739 43.7023 23.9753 43.346 23.2761L41.564 24.184C41.7527 24.5543 41.8721 25.0255 41.9352 25.7974C41.9992 26.581 42 27.5834 42 29H44ZM39.816 22.436C40.5686 22.8195 41.1805 23.4314 41.564 24.184L43.346 23.2761C42.7708 22.1471 41.8529 21.2292 40.7239 20.654L39.816 22.436ZM29 20C27.6164 20 26.5185 19.9992 25.6346 20.0714C24.739 20.1446 23.9753 20.2977 23.2761 20.654L24.184 22.436C24.5543 22.2473 25.0255 22.1279 25.7974 22.0648C26.581 22.0008 27.5834 22 29 22V20ZM22 29C22 27.5834 22.0008 26.581 22.0648 25.7974C22.1279 25.0255 22.2473 24.5543 22.436 24.184L20.654 23.2761C20.2977 23.9753 20.1446 24.739 20.0714 25.6346C19.9992 26.5185 20 27.6164 20 29H22ZM23.2761 20.654C22.1471 21.2292 21.2292 22.1471 20.654 23.2761L22.436 24.184C22.8195 23.4314 23.4314 22.8195 24.184 22.436L23.2761 20.654ZM42 29V32H44V29H42ZM32 42H29V44H32V42ZM21 29H43V27H21V29ZM34.407 36.1237L37.1398 43.1491L39.0038 42.424L36.2709 35.3987L34.407 36.1237ZM43.2194 37.6285L36.2096 34.4296L35.3792 36.2491L42.3891 39.448L43.2194 37.6285ZM39.6532 43.0918L40.6393 40.1668L38.7441 39.5279L37.758 42.4529L39.6532 43.0918ZM40.1184 40.6109L42.8811 40.1557L42.5559 38.1823L39.7932 38.6375L40.1184 40.6109ZM40.6393 40.1668C40.5591 40.4047 40.3557 40.5718 40.1184 40.6109L39.7932 38.6375C39.3098 38.7172 38.9032 39.0561 38.7441 39.5279L40.6393 40.1668ZM42.3891 39.448C41.7802 39.1701 41.9208 38.2869 42.5559 38.1823L42.8811 40.1557C44.1702 39.9432 44.4303 38.181 43.2194 37.6285L42.3891 39.448ZM37.1398 43.1491C37.5914 44.31 39.2542 44.2754 39.6532 43.0918L37.758 42.4529C37.9572 41.8619 38.779 41.8462 39.0038 42.424L37.1398 43.1491ZM36.2709 35.3987C36.5002 35.9881 35.8899 36.4821 35.3792 36.2491L36.2096 34.4296C35.1499 33.946 33.9606 34.9763 34.407 36.1237L36.2709 35.3987ZM33.7028 32.2889L32.3557 30.957L30.9496 32.3792L32.2966 33.7111L33.7028 32.2889ZM36.9997 31.9978V31H34.9997V31.9978H36.9997ZM32.0203 35H29.9997V37H32.0203V35ZM24 25V25.01H26V25H24ZM27 25V25.01H29V25H27ZM30 25V25.01H32V25H30Z" fill="#430098"/>
</svg>
