<svg width="64" height="64" viewBox="0 0 64 64" fill="none" xmlns="http://www.w3.org/2000/svg">
<rect width="64" height="64" rx="32" fill="#FDF3FF"/>
<path d="M21.3333 29.3334H18.6667M22.6667 33.3334H20M20.4815 41.0795C25.496 47.4409 34.718 48.5329 41.0794 43.5185C47.4409 38.5041 48.5329 29.2821 43.5184 22.9206C38.504 16.5591 29.282 15.4671 22.9205 20.4816M24 25.3334H24.5103C25.3692 25.3334 26.0904 25.9738 26.1836 26.8193L26.8661 33.0141C26.9592 33.8596 27.6804 34.5 28.5394 34.5H35.8212C36.5906 34.5 37.2621 33.9834 37.4522 33.2452L38.6136 28.7359C38.885 27.6821 38.0809 26.6574 36.9826 26.6574H27.0298M27.0506 37.5208H27.6818M27.0506 38.1458H27.6818M36.3083 37.5208H36.9395M36.3083 38.1458H36.9395M28.208 37.8334C28.208 38.2936 27.8312 38.6667 27.3664 38.6667C26.9016 38.6667 26.5248 38.2936 26.5248 37.8334C26.5248 37.3731 26.9016 37 27.3664 37C27.8312 37 28.208 37.3731 28.208 37.8334ZM37.4657 37.8334C37.4657 38.2936 37.0889 38.6667 36.6241 38.6667C36.1593 38.6667 35.7825 38.2936 35.7825 37.8334C35.7825 37.3731 36.1593 37 36.6241 37C37.0889 37 37.4657 37.3731 37.4657 37.8334Z" stroke="#430098" stroke-width="2" stroke-linecap="round"/>
</svg>
