<svg width="64" height="64" viewBox="0 0 64 64" fill="none" xmlns="http://www.w3.org/2000/svg">
<rect width="64" height="64" rx="32" fill="#FCEEEE"/>
<path d="M33.3333 18.6666C33.3333 17.9303 32.7364 17.3333 32 17.3333C31.2636 17.3333 30.6667 17.9303 30.6667 18.6666V20C26.9848 20 24 22.9847 24 26.6666C24 30.3485 26.9848 33.3333 30.6667 33.3333V41.3333C28.4575 41.3333 26.6667 39.5424 26.6667 37.3333C26.6667 36.5969 26.0697 36 25.3333 36C24.597 36 24 36.5969 24 37.3333C24 41.0152 26.9848 44 30.6667 44L30.6667 45.3333C30.6667 46.0697 31.2636 46.6666 32 46.6666C32.7364 46.6666 33.3333 46.0697 33.3333 45.3333L33.3333 44C37.0152 44 40 41.0152 40 37.3333C40 33.6514 37.0152 30.6666 33.3333 30.6666V22.6666C35.5425 22.6666 37.3333 24.4575 37.3333 26.6666C37.3333 27.403 37.9303 28 38.6667 28C39.403 28 40 27.403 40 26.6666C40 22.9847 37.0152 20 33.3333 20V18.6666ZM37.3333 37.3333C37.3333 39.5424 35.5425 41.3333 33.3333 41.3333V33.3333C35.5425 33.3333 37.3333 35.1242 37.3333 37.3333ZM26.6667 26.6666C26.6667 24.4575 28.4575 22.6666 30.6667 22.6666V30.6666C28.4575 30.6666 26.6667 28.8758 26.6667 26.6666Z" fill="#F06A6A"/>
<path d="M33.3333 18.6666C33.3333 17.9303 32.7364 17.3333 32 17.3333C31.2636 17.3333 30.6667 17.9303 30.6667 18.6666V20C26.9848 20 24 22.9847 24 26.6666C24 30.3485 26.9848 33.3333 30.6667 33.3333V41.3333C28.4575 41.3333 26.6667 39.5424 26.6667 37.3333C26.6667 36.5969 26.0697 36 25.3333 36C24.597 36 24 36.5969 24 37.3333C24 41.0152 26.9848 44 30.6667 44L30.6667 45.3333C30.6667 46.0697 31.2636 46.6666 32 46.6666C32.7364 46.6666 33.3333 46.0697 33.3333 45.3333L33.3333 44C37.0152 44 40 41.0152 40 37.3333C40 33.6514 37.0152 30.6666 33.3333 30.6666V22.6666C35.5425 22.6666 37.3333 24.4575 37.3333 26.6666C37.3333 27.403 37.9303 28 38.6667 28C39.403 28 40 27.403 40 26.6666C40 22.9847 37.0152 20 33.3333 20V18.6666ZM37.3333 37.3333C37.3333 39.5424 35.5425 41.3333 33.3333 41.3333V33.3333C35.5425 33.3333 37.3333 35.1242 37.3333 37.3333ZM26.6667 26.6666C26.6667 24.4575 28.4575 22.6666 30.6667 22.6666V30.6666C28.4575 30.6666 26.6667 28.8758 26.6667 26.6666Z" stroke="#F06A6A"/>
</svg>
