<svg width="64" height="64" viewBox="0 0 64 64" fill="none" xmlns="http://www.w3.org/2000/svg">
<rect width="64" height="64" rx="32" fill="#FFFBD5"/>
<path d="M26.6667 26.6667V25.3333C26.6667 22.3878 29.0545 20 32 20C34.9455 20 37.3333 22.3878 37.3333 25.3333V26.6667M20 32L30.917 36.852C31.6065 37.1584 32.3935 37.1584 33.083 36.852L44 32M24.2667 44H39.7333C41.2268 44 41.9735 44 42.544 43.7094C43.0457 43.4537 43.4537 43.0457 43.7094 42.544C44 41.9735 44 41.2268 44 39.7333V30.9333C44 29.4399 44 28.6931 43.7094 28.1227C43.4537 27.6209 43.0457 27.213 42.544 26.9573C41.9735 26.6667 41.2268 26.6667 39.7333 26.6667H24.2667C22.7732 26.6667 22.0265 26.6667 21.456 26.9573C20.9543 27.213 20.5463 27.6209 20.2906 28.1227C20 28.6931 20 29.4399 20 30.9333V39.7333C20 41.2268 20 41.9735 20.2906 42.544C20.5463 43.0457 20.9543 43.4537 21.456 43.7094C22.0265 44 22.7732 44 24.2667 44Z" stroke="#625D30" stroke-width="2" stroke-linecap="round"/>
</svg>
