<svg width="64" height="64" viewBox="0 0 64 64" fill="none" xmlns="http://www.w3.org/2000/svg">
<rect width="64" height="64" rx="32" fill="#F3FCEE"/>
<path d="M20 21.3333C20 20.597 19.403 20 18.6667 20C17.9303 20 17.3333 20.597 17.3333 21.3333V34.1904C17.3333 35.6355 17.3333 36.801 17.4104 37.7448C17.4898 38.7166 17.6576 39.5702 18.06 40.3599C18.6991 41.6143 19.719 42.6342 20.9734 43.2734C21.7631 43.6758 22.6167 43.8435 23.5885 43.9229C24.5323 44 25.6978 44 27.1427 44H45.3333C46.0697 44 46.6667 43.403 46.6667 42.6667C46.6667 41.9303 46.0697 41.3333 45.3333 41.3333H27.2C25.6845 41.3333 24.6281 41.3323 23.8056 41.2651C22.9988 41.1992 22.5352 41.0763 22.184 40.8974C21.4314 40.5139 20.8195 39.9019 20.436 39.1493C20.2571 38.7982 20.1342 38.3346 20.0682 37.5277C20.001 36.7052 20 35.6488 20 34.1333V21.3333Z" fill="#547243"/>
<path d="M37.3333 24C37.3333 23.2636 37.9303 22.6667 38.6667 22.6667H44.6667C45.7712 22.6667 46.6667 23.5621 46.6667 24.6667V30.6667C46.6667 31.403 46.0697 32 45.3333 32C44.597 32 44 31.403 44 30.6667V27.219L37.4142 33.8047C36.6332 34.5858 35.3668 34.5858 34.5858 33.8047L30.6667 29.8856L24.9428 35.6095C24.4221 36.1302 23.5779 36.1302 23.0572 35.6095C22.5365 35.0888 22.5365 34.2446 23.0572 33.7239L29.2524 27.5286C30.0335 26.7475 31.2998 26.7475 32.0809 27.5286L36 31.4477L42.1144 25.3333H38.6667C37.9303 25.3333 37.3333 24.7364 37.3333 24Z" fill="#547243"/>
</svg>
