<svg width="64" height="64" viewBox="0 0 64 64" fill="none" xmlns="http://www.w3.org/2000/svg">
<rect width="64" height="64" rx="32" fill="#FCF7EE"/>
<path d="M34.6667 39.3334V23.3334C34.6667 22.9652 34.3682 22.6667 34 22.6667H19.3333C18.9651 22.6667 18.6667 22.9652 18.6667 23.3334V39.3334C18.6667 39.7015 18.9651 40 19.3333 40H21.3333M34.6667 39.3334C34.6667 39.7015 34.3682 40 34 40H26.6667M34.6667 39.3334V27.3334C34.6667 26.9652 34.9651 26.6667 35.3333 26.6667H39.7239C39.9007 26.6667 40.0702 26.7369 40.1953 26.8619L45.1381 31.8048C45.2631 31.9298 45.3333 32.0994 45.3333 32.2762V39.3334C45.3333 39.7015 45.0349 40 44.6667 40H42.6667M34.6667 39.3334C34.6667 39.7015 34.9651 40 35.3333 40H37.3333M21.3333 40C21.3333 41.4728 22.5272 42.6667 24 42.6667C25.4728 42.6667 26.6667 41.4728 26.6667 40M21.3333 40C21.3333 38.5273 22.5272 37.3334 24 37.3334C25.4728 37.3334 26.6667 38.5273 26.6667 40M37.3333 40C37.3333 41.4728 38.5272 42.6667 40 42.6667C41.4728 42.6667 42.6667 41.4728 42.6667 40M37.3333 40C37.3333 38.5273 38.5272 37.3334 40 37.3334C41.4728 37.3334 42.6667 38.5273 42.6667 40" stroke="#A07526" stroke-width="2"/>
</svg>
