<svg xmlns="http://www.w3.org/2000/svg" xmlns:xlink="http://www.w3.org/1999/xlink"><defs><symbol viewBox="0 0 60 60" fill="none" id="advantage-1">
<path d="M59.7392 41.6L41.2792 9.59998C41.0923 9.28324 40.8216 9.02417 40.497 8.85128C40.1724 8.67838 39.8064 8.59835 39.4392 8.61998L22.9792 9.59998C22.6669 9.61756 22.3631 9.70814 22.0922 9.86445C21.8213 10.0208 21.5908 10.2384 21.4192 10.5L12.3392 24.3C12.1637 24.604 12.0713 24.9489 12.0713 25.3C12.0713 25.6511 12.1637 25.9959 12.3392 26.3L30.7992 58.3C31.0634 58.7519 31.4943 59.0822 31.9992 59.22C32.172 59.2393 32.3464 59.2393 32.5192 59.22C32.8714 59.2163 33.2164 59.1197 33.5192 58.94L58.9992 44.32C59.4567 44.0561 59.7912 43.6221 59.9299 43.1125C60.0685 42.6029 60 42.0592 59.7392 41.6Z" fill="#01C3F4" />
<path d="M34.8993 16.22L18.8993 8.21999C18.6201 8.07932 18.3119 8.00604 17.9993 8.00604C17.6867 8.00604 17.3784 8.07932 17.0993 8.21999L1.09927 16.22C0.769439 16.3862 0.492073 16.6405 0.297914 16.9547C0.103755 17.2688 0.000386989 17.6307 -0.000732422 18V58C-0.000732422 58.5304 0.209981 59.0391 0.585054 59.4142C0.960127 59.7893 1.46883 60 1.99927 60H33.9993C34.5297 60 35.0384 59.7893 35.4135 59.4142C35.7886 59.0391 35.9993 58.5304 35.9993 58V18C35.9981 17.6307 35.8948 17.2688 35.7006 16.9547C35.5065 16.6405 35.2291 16.3862 34.8993 16.22Z" fill="#9CEBFF" />
<path d="M17.9993 28C21.313 28 23.9993 25.3137 23.9993 22C23.9993 18.6863 21.313 16 17.9993 16C14.6856 16 11.9993 18.6863 11.9993 22C11.9993 25.3137 14.6856 28 17.9993 28Z" fill="#01C3F4" />
<path d="M19.9993 38H9.99927C9.46883 38 8.96013 37.7893 8.58505 37.4142C8.20998 37.0391 7.99927 36.5304 7.99927 36C7.99927 35.4696 8.20998 34.9609 8.58505 34.5858C8.96013 34.2107 9.46883 34 9.99927 34H19.9993C20.5297 34 21.0384 34.2107 21.4135 34.5858C21.7886 34.9609 21.9993 35.4696 21.9993 36C21.9993 36.5304 21.7886 37.0391 21.4135 37.4142C21.0384 37.7893 20.5297 38 19.9993 38Z" fill="#01C3F4" />
<path d="M25.9993 45H9.99927C9.46883 45 8.96013 44.7893 8.58505 44.4142C8.20998 44.0391 7.99927 43.5304 7.99927 43C7.99927 42.4696 8.20998 41.9609 8.58505 41.5858C8.96013 41.2107 9.46883 41 9.99927 41H25.9993C26.5297 41 27.0384 41.2107 27.4135 41.5858C27.7886 41.9609 27.9993 42.4696 27.9993 43C27.9993 43.5304 27.7886 44.0391 27.4135 44.4142C27.0384 44.7893 26.5297 45 25.9993 45Z" fill="#01C3F4" />
<path d="M25.9993 52H9.99927C9.46883 52 8.96013 51.7893 8.58505 51.4142C8.20998 51.0391 7.99927 50.5304 7.99927 50C7.99927 49.4696 8.20998 48.9609 8.58505 48.5858C8.96013 48.2107 9.46883 48 9.99927 48H25.9993C26.5297 48 27.0384 48.2107 27.4135 48.5858C27.7886 48.9609 27.9993 49.4696 27.9993 50C27.9993 50.5304 27.7886 51.0391 27.4135 51.4142C27.0384 51.7893 26.5297 52 25.9993 52Z" fill="#01C3F4" />
<path d="M17.9993 20C17.4688 20 16.9601 19.7893 16.5851 19.4142C16.21 19.0391 15.9993 18.5304 15.9993 18V2C15.9993 1.46957 16.21 0.960859 16.5851 0.585786C16.9601 0.210714 17.4688 0 17.9993 0C18.5297 0 19.0384 0.210714 19.4135 0.585786C19.7886 0.960859 19.9993 1.46957 19.9993 2V18C19.9993 18.5304 19.7886 19.0391 19.4135 19.4142C19.0384 19.7893 18.5297 20 17.9993 20Z" fill="#01C3F4" />
</symbol><symbol viewBox="0 0 60 60" fill="none" id="advantage-2">
<path d="M34.0002 7.99963H2.00001C0.895436 7.99963 0 8.89507 0 9.99965V58C0 59.1045 0.895436 60 2.00001 60H34.0002C35.1048 60 36.0002 59.1045 36.0002 58V9.99965C36.0002 8.89507 35.1048 7.99963 34.0002 7.99963Z" fill="#01C3F4" />
<path d="M59.42 12.5796L47.4199 0.579549C47.233 0.394185 47.0114 0.247534 46.7677 0.148004C46.524 0.0484738 46.2631 -0.00197665 45.9999 -0.000454852H25.9998C25.4693 -0.000454852 24.9606 0.21026 24.5855 0.585335C24.2105 0.960411 23.9998 1.46912 23.9998 1.99956V49.9999C23.9998 50.5303 24.2105 51.039 24.5855 51.4141C24.9606 51.7892 25.4693 51.9999 25.9998 51.9999H58C58.5304 51.9999 59.0391 51.7892 59.4142 51.4141C59.7893 51.039 60 50.5303 60 49.9999V13.9996C60.0015 13.7364 59.9511 13.4755 59.8515 13.2318C59.752 12.9881 59.6054 12.7665 59.42 12.5796Z" fill="#9CEBFF" />
<path d="M47.4198 0.579549C47.2329 0.394185 47.0113 0.247534 46.7676 0.148004C46.5239 0.0484738 46.263 -0.00197665 45.9998 -0.000454852V11.9996C45.9998 12.5301 46.2105 13.0388 46.5855 13.4138C46.9606 13.7889 47.4693 13.9996 47.9998 13.9996H59.9998C60.0014 13.7364 59.9509 13.4755 59.8514 13.2318C59.7519 12.9881 59.6052 12.7665 59.4198 12.5796L47.4198 0.579549Z" fill="#01C3F4" />
<path d="M43.9998 24.9998H33.9998C33.4693 24.9998 32.9606 24.7891 32.5855 24.414C32.2105 24.0389 31.9998 23.5302 31.9998 22.9998C31.9998 22.4693 32.2105 21.9606 32.5855 21.5855C32.9606 21.2105 33.4693 20.9998 33.9998 20.9998H43.9998C44.5303 20.9998 45.039 21.2105 45.4141 21.5855C45.7891 21.9606 45.9998 22.4693 45.9998 22.9998C45.9998 23.5302 45.7891 24.0389 45.4141 24.414C45.039 24.7891 44.5303 24.9998 43.9998 24.9998Z" fill="#01C3F4" />
<path d="M49.9999 32.9998H33.9998C33.4693 32.9998 32.9606 32.7891 32.5855 32.414C32.2105 32.0389 31.9998 31.5302 31.9998 30.9998C31.9998 30.4693 32.2105 29.9606 32.5855 29.5855C32.9606 29.2105 33.4693 28.9998 33.9998 28.9998H49.9999C50.5303 28.9998 51.039 29.2105 51.4141 29.5855C51.7892 29.9606 51.9999 30.4693 51.9999 30.9998C51.9999 31.5302 51.7892 32.0389 51.4141 32.414C51.039 32.7891 50.5303 32.9998 49.9999 32.9998Z" fill="#01C3F4" />
<path d="M49.9999 40.9998H33.9998C33.4693 40.9998 32.9606 40.7891 32.5855 40.414C32.2105 40.0389 31.9998 39.5302 31.9998 38.9998C31.9998 38.4693 32.2105 37.9606 32.5855 37.5855C32.9606 37.2105 33.4693 36.9998 33.9998 36.9998H49.9999C50.5303 36.9998 51.039 37.2105 51.4141 37.5855C51.7892 37.9606 51.9999 38.4693 51.9999 38.9998C51.9999 39.5302 51.7892 40.0389 51.4141 40.414C51.039 40.7891 50.5303 40.9998 49.9999 40.9998Z" fill="#01C3F4" />
</symbol><symbol viewBox="0 0 60 60" fill="none" id="advantage-3">
<g clip-path="url(#advantage-3_clip0_5251_5764)">
<path d="M59.6053 24.079H0.394043V50.7237C0.394043 55.6289 4.37047 59.6053 9.27562 59.6053H50.7244C55.6296 59.6053 59.606 55.6289 59.606 50.7237L59.6053 24.079ZM15.1974 18.1579C13.5623 18.1579 12.2369 16.8324 12.2369 15.1974V3.3553C12.2369 1.72026 13.5623 0.394775 15.1974 0.394775C16.8324 0.394775 18.1579 1.72026 18.1579 3.3553V15.1974C18.1579 16.8324 16.8324 18.1579 15.1974 18.1579ZM44.8026 18.1579C43.1676 18.1579 41.8421 16.8324 41.8421 15.1974V3.3553C41.8421 1.72026 43.1676 0.394775 44.8026 0.394775C46.4377 0.394775 47.7632 1.72026 47.7632 3.3553V15.1974C47.7632 16.8324 46.4377 18.1579 44.8026 18.1579Z" fill="#9CEBFF" />
<path d="M50.7235 6.31641H47.7629V15.198C47.7629 16.833 46.4375 18.1585 44.8024 18.1585C43.1674 18.1585 41.8419 16.833 41.8419 15.198V6.31641H18.1577V15.198C18.1577 16.833 16.8322 18.1585 15.1972 18.1585C13.5621 18.1585 12.2366 16.833 12.2366 15.198V6.31641H9.27464C4.3695 6.31641 0.393066 10.2928 0.393066 15.198V24.0796H59.605V15.198C59.605 10.2928 55.6286 6.31641 50.7235 6.31641Z" fill="#01C3F4" />
<path d="M23.6717 43.1746H20.5715V38.8889H23.6717V30.0635L29.9986 30C31.1374 30 32.1919 30.1164 33.162 30.3492C34.1322 30.5608 35.039 30.9101 35.8826 31.3968C36.7262 31.8624 37.38 32.5291 37.8439 33.3968C38.329 34.2646 38.5715 35.2804 38.5715 36.4444C38.5715 37.6508 38.329 38.709 37.8439 39.619C37.3589 40.5079 36.6946 41.2063 35.851 41.7143C35.0285 42.2222 34.1216 42.5926 33.1304 42.8254C32.1603 43.0582 31.1163 43.1746 29.9986 43.1746H28.4169V44.5079H33.4784V48.7937H28.4169V52.2857H23.6717V48.7937H20.5715V44.5079H23.6717V43.1746ZM30.1568 34.2857H28.4169V38.8889H29.9353C32.4239 38.8889 33.6682 38.1058 33.6682 36.5397C33.6682 35.6296 33.3413 35.0265 32.6875 34.7302C32.0548 34.4339 31.2113 34.2857 30.1568 34.2857Z" fill="#01C3F4" />
</g>
<defs>

</defs>
</symbol><clipPath id="advantage-3_clip0_5251_5764">
<rect width="60" height="60" fill="white" />
</clipPath><symbol viewBox="0 0 60 60" fill="none" id="advantage-4">
<path d="M60 5.62464C60 4.13289 59.3227 2.70224 58.1171 1.64742C56.9115 0.592594 55.2764 0 53.5714 0H6.42857C4.72361 0 3.08848 0.592594 1.88289 1.64742C0.677294 2.70224 7.92265e-09 4.13289 7.92265e-09 5.62464V56.2464C-4.09053e-05 56.8351 0.158378 57.4156 0.462432 57.9409C0.766486 58.4661 1.20763 58.9213 1.75015 59.2697C2.29266 59.618 2.92131 59.8497 3.58518 59.9459C4.24905 60.0421 4.9295 60.0003 5.57143 59.8236C6.34286 59.6099 6.93 59.0924 7.45286 58.5562L12.2571 53.6028L18.0386 58.8487C18.8287 59.5641 19.9108 59.9761 21.0477 59.9943C22.1845 60.0126 23.2832 59.6357 24.1029 58.9462L29.9486 54.004L35.5414 58.8974C35.9385 59.2469 36.4106 59.5242 36.9306 59.7134C37.4506 59.9026 38.0083 60 38.5714 60C39.1346 60 39.6922 59.9026 40.2122 59.7134C40.7322 59.5242 41.2043 59.2469 41.6014 58.8974L47.6871 53.5728L52.5557 58.5675C53.07 59.0962 53.6571 59.6061 54.4157 59.8199C55.0581 59.9986 55.7396 60.0422 56.4048 59.9472C57.07 59.8521 57.7003 59.6212 58.2443 59.273C58.7884 58.9249 59.2309 58.4693 59.536 57.9434C59.841 57.4175 60 56.8361 60 56.2464V5.62464Z" fill="#9CEBFF" />
<path d="M50 37.2291H42.3304V33.5062C42.3304 31.4549 40.6589 29.7833 38.6075 29.7833L22.682 29.7833L24.8636 31.965C25.2192 32.3084 25.5028 32.7192 25.6979 33.1734C25.893 33.6276 25.9957 34.1161 26 34.6104C26.0043 35.1048 25.9101 35.595 25.7229 36.0525C25.5357 36.5101 25.2593 36.9257 24.9097 37.2753C24.5602 37.6248 24.1445 37.9013 23.687 38.0885C23.2294 38.2757 22.7392 38.3699 22.2449 38.3656C21.7506 38.3613 21.262 38.2586 20.8078 38.0635C20.3536 37.8683 19.9428 37.5847 19.5994 37.2291L11.09 28.6322C10.3921 27.934 10 26.9872 10 26.0001C10 25.0129 10.3921 24.0661 11.09 23.368L19.5994 14.8917C19.9428 14.5361 20.3536 14.2525 20.8078 14.0574C21.262 13.8623 21.7506 13.7596 22.2449 13.7553C22.7392 13.751 23.2294 13.8452 23.687 14.0324C24.1445 14.2196 24.5602 14.496 24.9097 14.8455C25.2593 15.1951 25.5357 15.6108 25.7229 16.0683C25.9101 16.5258 26.0043 17.0161 26 17.5104C25.9957 18.0047 25.893 18.4932 25.6979 18.9474C25.5028 19.4017 25.2192 19.8125 24.8636 20.1559L22.682 22.3375L38.6075 22.3375C44.7652 22.3375 50 27.3485 50 33.5062V37.2291Z" fill="#01C3F4" />
</symbol><symbol fill="none" viewBox="0 0 60 60" id="advantages-dc-1">
    <g clip-path="url(#advantages-dc-1_a)">
        <path d="M4.688.938a3.75 3.75 0 0 0-3.75 3.75V26.25a.937.937 0 0 0 .937.938h9.375V.938H4.687Z" fill="#FFAF82" />
        <path d="M41.25.938H3.75a3.75 3.75 0 0 1 3.75 3.75v53.437a.937.937 0 0 0 .938.938H45V4.686a3.75 3.75 0 0 0-3.75-3.75Z" fill="#FCC2A1" />
        <path d="M39.375 14.063h-26.25a.938.938 0 0 1 0-1.876h26.25a.938.938 0 0 1 0 1.876Zm0 5.625h-26.25a.938.938 0 0 1 0-1.875h26.25a.938.938 0 0 1 0 1.875Zm-4.687 5.625H13.125a.938.938 0 0 1 0-1.875h21.563a.938.938 0 0 1 0 1.875Zm-5.625 5.625H13.124a.938.938 0 0 1 0-1.875h15.938a.938.938 0 0 1 0 1.875Zm-5.625 5.625H13.124a.938.938 0 0 1 0-1.876h10.313a.938.938 0 0 1 0 1.876Zm-3.75 5.625h-6.563a.938.938 0 0 1 0-1.876h6.563a.938.938 0 0 1 0 1.876Zm0 5.625h-6.563a.938.938 0 0 1 0-1.876h6.563a.938.938 0 0 1 0 1.876Zm37.931-36.057a4.901 4.901 0 0 0-6.947 0l-27.14 27.14-1.941 7.754a.944.944 0 0 0 .244.89.943.943 0 0 0 .89.244l7.753-1.94 27.14-27.14a4.901 4.901 0 0 0 0-6.948Z" fill="#FF7528" />
        <path d="M57.618 11.756a4.901 4.901 0 0 0-6.947 0l-1.839 1.84 6.947 6.947 1.84-1.84a4.898 4.898 0 0 0 0-6.947ZM21.563 46.875a.944.944 0 0 0 .271.665.944.944 0 0 0 .891.244l7.753-1.94-6.947-6.947-1.94 7.753a.928.928 0 0 0-.029.225Z" fill="#FF7528" />
        <path d="M37.5 50.625a.938.938 0 0 0-.938.938v7.5L45 50.624h-7.5Z" fill="#FCC2A1" />
        <path d="m48.229 48.429 3.528-3.529a1.072 1.072 0 0 0-1.515-1.515l-3.528 3.529-3.529-3.529A1.071 1.071 0 0 0 41.67 44.9l3.53 3.53-3.529 3.528a1.071 1.071 0 0 0 1.515 1.515l3.529-3.528 3.528 3.528a1.071 1.071 0 0 0 1.515-1.515L48.23 48.43Z" fill="#FCC2A1" />
        <path d="M54.29 40.853a10.714 10.714 0 1 0-15.152 15.152A10.714 10.714 0 0 0 54.29 40.853Zm-2.532 11.105a1.07 1.07 0 0 1 .007 1.521 1.072 1.072 0 0 1-1.522-.007l-3.529-3.528-3.528 3.528a1.071 1.071 0 0 1-1.515-1.514l3.528-3.529-3.528-3.528a1.072 1.072 0 0 1 1.515-1.515l3.528 3.528 3.529-3.528a1.071 1.071 0 0 1 1.515 1.515l-3.529 3.528 3.529 3.529Z" fill="#FF7528" />
    </g>
    <defs>
        
    </defs>
</symbol><clipPath id="advantages-dc-1_a">
            <path fill="#fff" d="M0 0h60v60H0z" />
        </clipPath><symbol fill="none" viewBox="0 0 60 60" id="advantages-dc-2"><g clip-path="url(#advantages-dc-2_a)"><path d="M56.25 0H10a3.75 3.75 0 0 0-3.75 3.75v5A1.25 1.25 0 0 0 7.5 10h10.324a2.5 2.5 0 0 1 2.17 1.26l2.481 4.34a6.25 6.25 0 0 0 5.427 3.15H48.75A1.25 1.25 0 0 1 50 20v27.5a1.25 1.25 0 0 0 1.25 1.25h5A3.75 3.75 0 0 0 60 45V3.75A3.75 3.75 0 0 0 56.25 0Z" fill="#FF7528" /><path d="M52.5 45V20a3.75 3.75 0 0 0-3.75-3.75H27.902a3.75 3.75 0 0 1-3.257-1.89l-2.84-4.97a3.75 3.75 0 0 0-3.256-1.89H3.75A3.75 3.75 0 0 0 0 11.25V45a3.75 3.75 0 0 0 3.75 3.75h52.5A3.75 3.75 0 0 1 52.5 45Z" fill="#FCC2A1" /><path d="M32.5 38.75H20a1.25 1.25 0 0 1-1.25-1.25v-6.25a7.5 7.5 0 0 1 15 0v6.25a1.25 1.25 0 0 1-1.25 1.25Zm-11.25-2.5h10v-5a5 5 0 1 0-10 0v5Z" fill="#FF7528" /><path d="M35 36.25H17.5A3.75 3.75 0 0 0 13.75 40v16.25A3.75 3.75 0 0 0 17.5 60H35a3.75 3.75 0 0 0 3.75-3.75V40A3.75 3.75 0 0 0 35 36.25Z" fill="#FFAF82" /><path d="M29.938 49.61a4.927 4.927 0 0 0 1.312-3.36 5 5 0 1 0-10 0 4.927 4.927 0 0 0 1.313 3.36l-1.249 3.745A1.251 1.251 0 0 0 22.5 55H30a1.25 1.25 0 0 0 1.186-1.645l-1.248-3.744Z" fill="#FF7528" /></g><defs></defs></symbol><clipPath id="advantages-dc-2_a"><path fill="#fff" d="M0 0h60v60H0z" /></clipPath><symbol fill="none" viewBox="0 0 48 60" id="advantages-dc-3"><g clip-path="url(#advantages-dc-3_a)"><path d="M44.407 27.04H27.87l3.828-3.828a2.96 2.96 0 0 0-4.186-4.186l-8.882 8.881a2.958 2.958 0 0 0 0 4.187l8.882 8.881a2.96 2.96 0 0 0 4.186-4.186l-3.828-3.828h16.537a2.96 2.96 0 0 0 0-5.921Z" fill="#FF7528" /><path d="m27.87 32.96 3.828 3.828a2.959 2.959 0 0 1-2.089 5.067 2.96 2.96 0 0 1-2.097-.88l-8.881-8.882a2.959 2.959 0 0 1 0-4.187l8.881-8.881a2.96 2.96 0 0 1 4.186 4.186l-3.827 3.828h13.576V9.276A8.892 8.892 0 0 0 32.566.395H8.882A8.891 8.891 0 0 0 0 9.276v41.447a8.891 8.891 0 0 0 8.882 8.882h23.684a8.892 8.892 0 0 0 8.881-8.881V32.96H27.871Z" fill="#FCC2A1" /></g><defs></defs></symbol><clipPath id="advantages-dc-3_a"><path fill="#fff" d="M0 0h47.368v60H0z" /></clipPath><symbol fill="none" viewBox="0 0 60 60" id="advantages-dc-4"><g clip-path="url(#advantages-dc-4_a)"><path d="M59.606 24.079H.395v26.645a8.882 8.882 0 0 0 8.881 8.881h41.449a8.882 8.882 0 0 0 8.881-8.881V24.079Zm-44.408-5.921a2.96 2.96 0 0 1-2.96-2.96V3.354a2.96 2.96 0 0 1 5.92 0v11.842a2.96 2.96 0 0 1-2.96 2.96Zm29.605 0a2.96 2.96 0 0 1-2.96-2.96V3.354a2.96 2.96 0 0 1 5.92 0v11.842a2.96 2.96 0 0 1-2.96 2.96Z" fill="#FCC2A1" /><path d="M50.725 6.316h-2.96v8.882a2.96 2.96 0 0 1-5.922 0V6.316H18.16v8.882a2.96 2.96 0 1 1-5.92 0V6.316H9.275a8.882 8.882 0 0 0-8.881 8.882v8.882h59.211v-8.882a8.882 8.882 0 0 0-8.881-8.882ZM23.672 43.175h-3.1v-4.286h3.1v-8.826L30 30c1.14 0 2.194.116 3.164.35a9.43 9.43 0 0 1 2.72 1.047 4.837 4.837 0 0 1 1.962 2c.485.868.727 1.883.727 3.047 0 1.207-.242 2.265-.727 3.175a5.435 5.435 0 0 1-1.993 2.095 9.097 9.097 0 0 1-2.72 1.111 13.4 13.4 0 0 1-3.133.35h-1.581v1.333h5.061v4.286h-5.061v3.492h-4.746v-3.492h-3.1v-4.286h3.1v-1.333Zm6.485-8.89h-1.74v4.604h1.52c2.488 0 3.732-.783 3.732-2.35 0-.91-.327-1.513-.98-1.809-.633-.296-1.477-.444-2.532-.444Z" fill="#FF7528" /></g><defs></defs></symbol><clipPath id="advantages-dc-4_a"><path fill="#fff" d="M0 0h60v60H0z" /></clipPath><symbol viewBox="0 0 24 24" fill="none" id="arrow-down">
<path d="M16.9999 9.1697C16.8126 8.98345 16.5591 8.87891 16.2949 8.87891C16.0308 8.87891 15.7773 8.98345 15.5899 9.1697L11.9999 12.7097L8.45995 9.1697C8.27259 8.98345 8.01913 8.87891 7.75495 8.87891C7.49076 8.87891 7.23731 8.98345 7.04995 9.1697C6.95622 9.26266 6.88183 9.37326 6.83106 9.49512C6.78029 9.61698 6.75415 9.74769 6.75415 9.8797C6.75415 10.0117 6.78029 10.1424 6.83106 10.2643C6.88183 10.3861 6.95622 10.4967 7.04995 10.5897L11.2899 14.8297C11.3829 14.9234 11.4935 14.9978 11.6154 15.0486C11.7372 15.0994 11.8679 15.1255 11.9999 15.1255C12.132 15.1255 12.2627 15.0994 12.3845 15.0486C12.5064 14.9978 12.617 14.9234 12.7099 14.8297L16.9999 10.5897C17.0937 10.4967 17.1681 10.3861 17.2188 10.2643C17.2696 10.1424 17.2957 10.0117 17.2957 9.8797C17.2957 9.74769 17.2696 9.61698 17.2188 9.49512C17.1681 9.37326 17.0937 9.26266 16.9999 9.1697Z" fill="currentColor" />
</symbol><symbol viewBox="0 0 32 32" fill="none" id="arrow-right">
<path d="M6.66663 16H25.3333" stroke="currentColor" stroke-width="2" stroke-linecap="round" stroke-linejoin="round" />
<path d="M16 6.66675L25.3333 16.0001L16 25.3334" stroke="currentColor" stroke-width="2" stroke-linecap="round" stroke-linejoin="round" />
</symbol><symbol viewBox="0 0 47 47" fill="none" id="bereke-bank-card-logo">
<path d="M37.3276 0C42.3663 0 46.4376 4.0685 46.4376 9.10379V13.0246C46.4376 18.0599 42.3663 22.1285 37.3276 22.1285H0V9.10379C0 4.0685 4.07138 0 9.11019 0H37.3276Z" fill="white" />
<path d="M37.3276 46.4213C42.3663 46.4213 46.4376 42.3529 46.4376 37.3176V33.3968C46.4376 28.3616 42.3663 24.293 37.3276 24.293H0V37.3176C0 42.3529 4.07138 46.4213 9.11019 46.4213H37.3276Z" fill="white" />
</symbol><symbol viewBox="0 0 24 24" fill="none" id="chevron">
<path fill-rule="evenodd" clip-rule="evenodd" d="M12.0002 15.5002C11.7442 15.5002 11.4883 15.4023 11.2933 15.2073L7.29325 11.2072C6.90225 10.8162 6.90225 10.1842 7.29325 9.79325C7.68425 9.40225 8.31625 9.40225 8.70725 9.79325L12.0122 13.0982L15.3053 9.91825C15.7043 9.53525 16.3352 9.54625 16.7192 9.94325C17.1032 10.3403 17.0922 10.9742 16.6952 11.3572L12.6953 15.2193C12.5002 15.4073 12.2502 15.5002 12.0002 15.5002Z" fill="currentColor" />

</symbol><mask id="chevron_mask0_156_10598" style="mask-type:alpha" maskUnits="userSpaceOnUse" x="7" y="9" width="10" height="7">
<path fill-rule="evenodd" clip-rule="evenodd" d="M12.0002 15.5002C11.7442 15.5002 11.4883 15.4023 11.2933 15.2073L7.29325 11.2072C6.90225 10.8162 6.90225 10.1842 7.29325 9.79325C7.68425 9.40225 8.31625 9.40225 8.70725 9.79325L12.0122 13.0982L15.3053 9.91825C15.7043 9.53525 16.3352 9.54625 16.7192 9.94325C17.1032 10.3403 17.0922 10.9742 16.6952 11.3572L12.6953 15.2193C12.5002 15.4073 12.2502 15.5002 12.0002 15.5002Z" fill="none" />
</mask><symbol viewBox="0 0 30 30" fill="none" id="clock">
<path d="M15 10V15L18.125 16.25M25 15C25 20.5228 20.5228 25 15 25C9.47715 25 5 20.5228 5 15C5 9.47715 9.47715 5 15 5C20.5228 5 25 9.47715 25 15Z" stroke="#01C3F4" stroke-width="2" stroke-linecap="round" stroke-linejoin="round" />
</symbol><symbol viewBox="0 0 32 32" fill="none" id="dolyame-card">
<rect opacity="0.08" width="32" height="32" rx="4" fill="#F3F7FC" />
<path d="M19.4766 19.6337C20.5075 19.6337 21.3432 18.798 21.3432 17.7671C21.3432 16.7361 20.5075 15.9004 19.4766 15.9004V19.6337Z" fill="#01C3F4" />
<path fill-rule="evenodd" clip-rule="evenodd" d="M22.2283 8.78809H7.11719V20.5244C7.11719 21.9972 8.31109 23.1911 9.78385 23.1911H24.895V11.4548C24.895 9.98199 23.7011 8.78809 22.2283 8.78809ZM8.89497 12.3458V10.5659H22.2283C22.7192 10.5659 23.1172 10.9638 23.1172 11.4548V21.4133H9.78385C9.29293 21.4133 8.89497 21.0153 8.89497 20.5244V14.1236H21.3351V12.3458H8.89497Z" fill="#0A0D14" />
</symbol><symbol viewBox="0 0 33 32" fill="none" id="dolyame-doc">
<rect opacity="0.08" x="0.5" width="32" height="32" rx="4" fill="#F3F7FC" />
<path fill-rule="evenodd" clip-rule="evenodd" d="M13.8797 12.6699C13.1433 12.6699 12.5464 13.2669 12.5464 14.0033L12.5464 14.3366L19.1737 14.3366C19.9101 14.3366 20.507 13.7396 20.507 13.0033V12.6699L13.8797 12.6699ZM15.1933 17.666C15.9297 17.666 16.5267 17.0691 16.5267 16.3327L16.5267 15.9993L13.8607 15.9994C13.1243 15.9994 12.5273 16.5963 12.5273 17.3327V17.666L15.1933 17.666Z" fill="#01C3F4" />
<path fill-rule="evenodd" clip-rule="evenodd" d="M10.8327 9.16569C10.8327 8.88955 11.0565 8.66569 11.3327 8.66569H12.7909V9.65938C12.7909 10.4878 13.4625 11.1594 14.2909 11.1594H18.7586C19.5871 11.1594 20.2586 10.4878 20.2586 9.65938V8.66569H22.166V22.8323C22.166 23.1084 21.9422 23.3323 21.666 23.3323H10.8327V9.16569ZM19.4253 6.99902H23.8327V22.8323C23.8327 24.0289 22.8626 24.999 21.666 24.999H9.16602V9.16569C9.16602 7.96907 10.1361 6.99902 11.3327 6.99902H13.6242H19.4253ZM14.4576 8.66569H18.592V9.49271L14.4576 9.49271V8.66569Z" fill="black" />
</symbol><symbol viewBox="0 0 30 30" fill="none" id="download">
<path d="M16.125 15H19.5L15 19.5L10.5 15H13.875V10.5H16.125V15ZM18.375 6H7.125V24H22.875V10.5H18.375V6ZM4.875 4.866C4.875 4.2495 5.37788 3.75 5.99888 3.75H19.5L25.125 9.375V25.1171C25.126 25.2649 25.098 25.4114 25.0424 25.5482C24.9868 25.6851 24.9048 25.8097 24.8011 25.9149C24.6973 26.0201 24.5739 26.1039 24.4378 26.1614C24.3017 26.2188 24.1556 26.249 24.0079 26.25H5.99213C5.69668 26.2479 5.41389 26.1297 5.20487 25.9209C4.99585 25.7121 4.87736 25.4294 4.875 25.134V4.866Z" fill="#01C3F4" />
</symbol><symbol viewBox="0 0 30 30" fill="none" id="download-multicolor">
    <path d="M16.125 15H19.5L15 19.5L10.5 15H13.875V10.5H16.125V15ZM18.375 6H7.125V24H22.875V10.5H18.375V6ZM4.875 4.866C4.875 4.2495 5.37788 3.75 5.99888 3.75H19.5L25.125 9.375V25.1171C25.126 25.2649 25.098 25.4114 25.0424 25.5482C24.9868 25.6851 24.9048 25.8097 24.8011 25.9149C24.6973 26.0201 24.5739 26.1039 24.4378 26.1614C24.3017 26.2188 24.1556 26.249 24.0079 26.25H5.99213C5.69668 26.2479 5.41389 26.1297 5.20487 25.9209C4.99585 25.7121 4.87736 25.4294 4.875 25.134V4.866Z" fill="currentColor" />
</symbol><symbol fill="none" viewBox="0 0 14 19" id="icon-apple"><path fill="#18181A" d="M9.528 3.654c.593-.742.996-1.739.89-2.758-.869.044-1.93.574-2.543 1.317-.551.636-1.039 1.674-.912 2.65.975.085 1.95-.487 2.565-1.209Zm.879 1.4c-1.417-.084-2.62.804-3.297.804s-1.713-.761-2.833-.74c-1.458.021-2.811.845-3.551 2.157-1.522 2.623-.402 6.514 1.078 8.65.719 1.057 1.585 2.22 2.726 2.179 1.079-.042 1.501-.698 2.812-.698 1.31 0 1.69.698 2.832.677 1.184-.021 1.924-1.058 2.643-2.116.824-1.205 1.162-2.368 1.183-2.432-.021-.02-2.283-.889-2.304-3.49-.021-2.178 1.776-3.214 1.86-3.278-1.014-1.5-2.6-1.67-3.15-1.713Z" /></symbol><symbol fill="none" viewBox="0 0 14 15" id="icon-google"><path fill="#0085F7" d="M13.866 6.16H7.15v2.755h3.869a3.314 3.314 0 0 1-1.436 2.219l-.069 1.646 2.373.14-.001.001C13.229 11.677 14 9.837 14 7.663a8.42 8.42 0 0 0-.134-1.503Z" /><path fill="#00A94B" d="M9.583 11.134h-.001c-.641.432-1.466.685-2.431.685-1.866 0-3.448-1.257-4.015-2.951l-1.98-.313L.76 10.71a7.151 7.151 0 0 0 6.39 3.937c1.93 0 3.553-.634 4.734-1.727v-.001l-2.302-1.786Z" /><path fill="#FB0" d="M2.912 7.5c0-.476.08-.936.224-1.368l-.619-1.843H.76A7.114 7.114 0 0 0 0 7.5c0 1.155.275 2.245.76 3.211l2.376-1.843A4.31 4.31 0 0 1 2.912 7.5Z" /><path fill="#FF4031" d="M7.15.352A7.152 7.152 0 0 0 .76 4.29l2.376 1.843C3.702 4.438 5.285 3.18 7.15 3.18c1.055 0 1.999.363 2.744 1.073l2.04-2.04C10.696 1.06 9.08.353 7.152.353Z" /></symbol><symbol viewBox="0 0 30 30" fill="none" id="mail">
<path d="M5.72838 10C5.72838 10 12.5 15 15 15C17.5 15 24.2716 10 24.2716 10M5 18.75C5 20.8211 6.67893 22.5 8.75 22.5H21.25C23.3211 22.5 25 20.8211 25 18.75V11.25C25 9.17893 23.3211 7.5 21.25 7.5H8.75001C6.67894 7.5 5.00001 9.17893 5.00001 11.25L5 18.75Z" stroke="#01C3F4" stroke-width="2" stroke-linecap="round" />
</symbol><symbol viewBox="0 0 24 24" fill="none" id="paper-clip">
<path fill-rule="evenodd" clip-rule="evenodd" d="M9.29305 21V21C7.63705 21 6.06305 20.334 4.86105 19.125C2.47305 16.722 2.37505 12.912 4.64205 10.631L12.0281 3.201C12.7971 2.427 13.8351 2 14.9501 2C16.1431 2 17.2771 2.479 18.1421 3.349C19.8631 5.08 19.9291 7.831 18.2881 9.481L10.8931 16.91C10.4141 17.393 9.76905 17.658 9.07705 17.658V17.658C8.34605 17.658 7.65305 17.366 7.12705 16.837C6.07405 15.776 6.04105 14.085 7.05405 13.065L13.8791 6.21C14.2691 5.818 14.9011 5.816 15.2931 6.206C15.6841 6.596 15.6861 7.229 15.2961 7.62L8.47205 14.476C8.23205 14.718 8.26505 15.145 8.54605 15.427C8.69205 15.574 8.88605 15.658 9.07705 15.658V15.658C9.18705 15.658 9.34505 15.631 9.47505 15.5L16.8701 8.071C17.7371 7.198 17.6721 5.713 16.7241 4.759C15.8171 3.847 14.2781 3.775 13.4461 4.611L6.06005 12.041C4.56605 13.544 4.66405 16.09 6.28005 17.715C7.10305 18.544 8.17305 19 9.29305 19C10.2941 19 11.2221 18.622 11.9041 17.936L19.2911 10.506C19.6801 10.115 20.3131 10.112 20.7051 10.502C21.0961 10.892 21.0981 11.524 20.7091 11.916L13.3221 19.346C12.2621 20.412 10.8311 21 9.29305 21" fill="black" />

</symbol><mask id="paper-clip_mask0_269_6855" style="mask-type:alpha" maskUnits="userSpaceOnUse" x="3" y="2" width="18" height="19">
<path fill-rule="evenodd" clip-rule="evenodd" d="M9.29305 21V21C7.63705 21 6.06305 20.334 4.86105 19.125C2.47305 16.722 2.37505 12.912 4.64205 10.631L12.0281 3.201C12.7971 2.427 13.8351 2 14.9501 2C16.1431 2 17.2771 2.479 18.1421 3.349C19.8631 5.08 19.9291 7.831 18.2881 9.481L10.8931 16.91C10.4141 17.393 9.76905 17.658 9.07705 17.658V17.658C8.34605 17.658 7.65305 17.366 7.12705 16.837C6.07405 15.776 6.04105 14.085 7.05405 13.065L13.8791 6.21C14.2691 5.818 14.9011 5.816 15.2931 6.206C15.6841 6.596 15.6861 7.229 15.2961 7.62L8.47205 14.476C8.23205 14.718 8.26505 15.145 8.54605 15.427C8.69205 15.574 8.88605 15.658 9.07705 15.658V15.658C9.18705 15.658 9.34505 15.631 9.47505 15.5L16.8701 8.071C17.7371 7.198 17.6721 5.713 16.7241 4.759C15.8171 3.847 14.2781 3.775 13.4461 4.611L6.06005 12.041C4.56605 13.544 4.66405 16.09 6.28005 17.715C7.10305 18.544 8.17305 19 9.29305 19C10.2941 19 11.2221 18.622 11.9041 17.936L19.2911 10.506C19.6801 10.115 20.3131 10.112 20.7051 10.502C21.0961 10.892 21.0981 11.524 20.7091 11.916L13.3221 19.346C12.2621 20.412 10.8311 21 9.29305 21" fill="white" />
</mask><symbol viewBox="0 0 30 30" fill="none" id="phone">
<path d="M10.8869 19.6415C6.57045 15.6912 5.43626 11.6 5.20177 9.03994C5.05879 7.479 6.28673 6.28204 7.83543 6.04018L9.61967 5.76153C11.3763 5.4872 13.0333 6.65733 13.3623 8.40451L13.6472 9.91708C13.7767 10.6045 13.396 11.2861 12.7429 11.5365C11.9964 11.8226 11.6308 12.6582 12.012 13.3608C12.4682 14.2017 13.1694 15.2914 14.0937 16.1374C15.0181 16.9833 16.1656 17.5854 17.0435 17.9655C17.777 18.2831 18.577 17.845 18.796 17.0762C18.9876 16.4034 19.633 15.964 20.3291 16.0322L21.861 16.1822C23.6304 16.3555 24.9424 17.9026 24.8245 19.6766L24.7047 21.4784C24.6007 23.0425 23.517 24.3714 21.9495 24.367C19.3788 24.3598 15.2033 23.5917 10.8869 19.6415Z" stroke="#01C3F4" stroke-width="2" />
</symbol><symbol viewBox="0 0 30 30" fill="none" id="pin">
<path d="M23.4115 13.5185C23.4115 18.0246 19.4712 22.0929 16.9504 24.2346C15.7491 25.2551 14.0369 25.2551 12.8357 24.2346C10.3148 22.0929 6.37451 18.0246 6.37451 13.5185C6.37451 11.2593 7.272 9.09255 8.86953 7.49502C10.4671 5.89748 12.6338 5 14.893 5C17.1523 5 19.319 5.89748 20.9165 7.49502C22.5141 9.09255 23.4115 11.2593 23.4115 13.5185Z" stroke="#01C3F4" stroke-width="2" stroke-linecap="round" stroke-linejoin="round" />
<path d="M14.893 16.358C16.4612 16.358 17.7325 15.0867 17.7325 13.5185C17.7325 11.9503 16.4612 10.679 14.893 10.679C13.3248 10.679 12.0535 11.9503 12.0535 13.5185C12.0535 15.0867 13.3248 16.358 14.893 16.358Z" stroke="#01C3F4" stroke-width="2" stroke-linecap="round" stroke-linejoin="round" />
</symbol><symbol viewBox="0 0 32 37" fill="none" id="play">
  <path d="M5.35026 0.170181C2.04172 -1.74295 -0.640625 -0.175689 -0.640625 3.66795V32.0323C-0.640625 35.8798 2.04172 37.445 5.35026 35.5337L29.9438 21.3157C33.2535 19.4019 33.2535 16.3013 29.9438 14.3879L5.35026 0.170181Z" fill="white" />
</symbol><symbol viewBox="0 0 24 24" fill="none" id="plus">
<path d="M5 12H19" stroke="currentColor" stroke-width="2" stroke-linecap="round" stroke-linejoin="round" />
<path d="M12 5V19" stroke="currentColor" stroke-width="2" stroke-linecap="round" stroke-linejoin="round" />
</symbol><symbol viewBox="0 0 31 30" fill="none" id="telegram">
<g clip-path="url(#telegram_clip0_5251_8939)">
<path d="M15.8572 30C24.1414 30 30.8572 23.2843 30.8572 15C30.8572 6.71573 24.1414 0 15.8572 0C7.57291 0 0.857178 6.71573 0.857178 15C0.857178 23.2843 7.57291 30 15.8572 30Z" fill="#039BE5" />
<path d="M7.72101 14.6757L22.1835 9.0995C22.8548 8.857 23.441 9.26325 23.2235 10.2782L23.2248 10.277L20.7623 21.8782C20.5798 22.7007 20.091 22.9007 19.4073 22.5132L15.6573 19.7495L13.8485 21.492C13.6485 21.692 13.4798 21.8607 13.0923 21.8607L13.3585 18.0445L20.3085 11.7657C20.611 11.4995 20.241 11.3495 19.8423 11.6145L11.2535 17.022L7.55101 15.867C6.74726 15.612 6.72976 15.0632 7.72101 14.6757Z" fill="white" />
</g>
<defs>

</defs>
</symbol><clipPath id="telegram_clip0_5251_8939">
<rect width="30" height="30" fill="white" transform="translate(0.857178)" />
</clipPath><symbol viewBox="0 0 30 26" fill="none" id="telegram-white">
<path d="M1.39688 10.3836L28.002 0.125548C29.2368 -0.320554 30.3153 0.426782 29.9152 2.29397L29.9175 2.29167L25.3875 23.6333C25.0518 25.1463 24.1527 25.5142 22.8948 24.8014L15.9964 19.7172L12.669 22.9227C12.3011 23.2906 11.9906 23.6011 11.2778 23.6011L11.7676 16.5807L24.5528 5.03036C25.1092 4.54057 24.4286 4.26463 23.6951 4.75213L7.89525 14.6997L1.08415 12.575C-0.394424 12.1059 -0.426617 11.0964 1.39688 10.3836Z" fill="white" />
</symbol><symbol fill="none" viewBox="0 0 82 26" id="visa"><path fill="#fff" d="m32.964 1.35-4.12 24.18h6.59l4.123-24.18h-6.593Zm-9.646.026-6.454 16.49-.688-2.49c-1.273-3-4.887-7.308-9.13-10.023l5.903 20.164 6.973-.011L30.3 1.37l-6.982.005Z" /><path fill="#fff" d="M13.674 3.107c-.383-1.473-1.493-1.912-2.871-1.964H.586l-.085.48C8.452 3.554 13.713 8.2 15.896 13.79L13.674 3.107Zm39.24 2.878a12.166 12.166 0 0 1 4.932.925l.595.28.892-5.241c-1.305-.49-3.351-1.015-5.904-1.015-6.512 0-11.102 3.28-11.137 7.98-.043 3.472 3.27 5.411 5.77 6.569 2.569 1.186 3.43 1.94 3.418 3-.02 1.619-2.048 2.361-3.94 2.361-2.64 0-4.042-.364-6.206-1.266l-.85-.386-.926 5.412c1.542.676 4.388 1.257 7.342 1.288 6.927 0 11.43-3.241 11.477-8.263.029-2.748-1.73-4.844-5.538-6.565-2.305-1.122-3.715-1.868-3.701-3 0-1.005 1.196-2.08 3.776-2.08Zm23.331-4.61h-5.092c-1.581 0-2.758.43-3.453 2.007l-9.785 22.16h6.921s1.129-2.98 1.385-3.633c.757 0 7.481.01 8.439.01.197.845.803 3.623.803 3.623h6.114L76.245 1.375ZM68.117 16.96c.543-1.388 2.626-6.758 2.626-6.758-.036.066.537-1.398.878-2.308l.444 2.085 1.527 6.981h-5.475Z" /></symbol><symbol viewBox="0 0 31 30" fill="none" id="whatsapp">
<g clip-path="url(#whatsapp_clip0_5251_8932)">
<path d="M15.8572 30C24.1414 30 30.8572 23.2843 30.8572 15C30.8572 6.71573 24.1414 0 15.8572 0C7.57291 0 0.857178 6.71573 0.857178 15C0.857178 23.2843 7.57291 30 15.8572 30Z" fill="#29A71A" />
<path d="M22.4709 8.38606C20.9103 6.80986 18.8378 5.84323 16.6272 5.66053C14.4167 5.47782 12.2136 6.09107 10.4154 7.38965C8.61713 8.68824 7.34214 10.5867 6.82036 12.7425C6.29858 14.8984 6.56437 17.1697 7.56978 19.1469L6.58284 23.9383C6.5726 23.986 6.57231 24.0353 6.58199 24.0831C6.59167 24.1309 6.61111 24.1762 6.63909 24.2162C6.68009 24.2768 6.73861 24.3235 6.80683 24.35C6.87505 24.3765 6.94974 24.3815 7.02091 24.3645L11.7169 23.2514C13.6885 24.2314 15.9438 24.4801 18.0816 23.9532C20.2193 23.4264 22.1008 22.1583 23.3913 20.3744C24.6818 18.5906 25.2975 16.4067 25.129 14.2115C24.9605 12.0163 24.0186 9.95202 22.4709 8.38606ZM21.0067 20.0724C19.9269 21.1492 18.5365 21.86 17.0313 22.1046C15.5261 22.3492 13.9822 22.1154 12.6169 21.4361L11.9624 21.1122L9.08341 21.794L9.09194 21.7582L9.68853 18.8605L9.36807 18.2281C8.6705 16.8581 8.42443 15.3025 8.66509 13.7841C8.90576 12.2657 9.62082 10.8624 10.7078 9.77526C12.0737 8.40983 13.926 7.64277 15.8573 7.64277C17.7886 7.64277 19.6408 8.40983 21.0067 9.77526C21.0183 9.7886 21.0309 9.80113 21.0442 9.81277C22.3931 11.1817 23.1462 13.0284 23.1392 14.9503C23.1321 16.8722 22.3656 18.7134 21.0067 20.0724Z" fill="white" />
<path d="M20.751 17.9466C20.3982 18.5023 19.8408 19.1824 19.1402 19.3512C17.9129 19.6478 16.0294 19.3614 13.6857 17.1762L13.6567 17.1506C11.5959 15.2398 11.0607 13.6495 11.1902 12.3881C11.2618 11.6722 11.8584 11.0245 12.3612 10.6018C12.4407 10.5339 12.535 10.4856 12.6365 10.4607C12.738 10.4358 12.8439 10.435 12.9458 10.4583C13.0477 10.4817 13.1427 10.5286 13.2232 10.5952C13.3037 10.6618 13.3675 10.7464 13.4095 10.8421L14.168 12.5466C14.2173 12.6572 14.2356 12.779 14.2209 12.8991C14.2062 13.0193 14.159 13.1331 14.0845 13.2285L13.701 13.7262C13.6187 13.829 13.569 13.954 13.5584 14.0852C13.5478 14.2165 13.5767 14.3479 13.6413 14.4626C13.8561 14.8393 14.3709 15.3932 14.9419 15.9063C15.5828 16.4858 16.2936 17.016 16.7436 17.1966C16.864 17.2458 16.9964 17.2578 17.1237 17.2311C17.251 17.2044 17.3674 17.1401 17.4578 17.0466L17.9027 16.5983C17.9885 16.5137 18.0953 16.4533 18.2121 16.4234C18.3289 16.3934 18.4515 16.395 18.5675 16.4279L20.3692 16.9393C20.4686 16.9697 20.5597 17.0226 20.6355 17.0936C20.7114 17.1647 20.7699 17.2522 20.8068 17.3494C20.8436 17.4467 20.8578 17.551 20.8481 17.6545C20.8384 17.758 20.8052 17.8579 20.751 17.9466Z" fill="white" />
</g>
<defs>

</defs>
</symbol><clipPath id="whatsapp_clip0_5251_8932">
<rect width="30" height="30" fill="white" transform="translate(0.857178)" />
</clipPath><symbol viewBox="0 0 30 30" fill="none" id="whatsapp-white">
<path d="M25.668 4.41251C23.1505 1.88999 19.8072 0.343008 16.2412 0.0506095C12.6752 -0.241789 9.12127 0.739641 6.22043 2.81787C3.31959 4.89611 1.26281 7.93433 0.421096 11.3845C-0.420619 14.8347 0.00813631 18.4697 1.63002 21.6339L0.0379386 29.3022C0.021419 29.3785 0.0209511 29.4574 0.0365645 29.5339C0.0521779 29.6104 0.0835362 29.6829 0.128679 29.7468C0.194809 29.8438 0.289207 29.9185 0.399265 29.961C0.509323 30.0034 0.629803 30.0114 0.744615 29.9841L8.32008 28.2028C11.5006 29.7711 15.1388 30.1691 18.5873 29.326C22.0358 28.4829 25.071 26.4533 27.1528 23.5985C29.2345 20.7437 30.2278 17.2487 29.956 13.7355C29.6841 10.2222 28.1647 6.91864 25.668 4.41251ZM23.306 23.1152C21.5641 24.8384 19.3211 25.976 16.893 26.3675C14.465 26.759 11.9743 26.3848 9.77193 25.2975L8.71604 24.7792L4.07177 25.8704L4.08552 25.8131L5.04792 21.1756L4.53097 20.1636C3.40568 17.9711 3.00872 15.4815 3.39695 13.0514C3.78519 10.6214 4.9387 8.37561 6.69225 6.63577C8.89561 4.45054 11.8836 3.22295 14.9991 3.22295C18.1147 3.22295 21.1027 4.45054 23.306 6.63577C23.3248 6.65712 23.345 6.67717 23.3665 6.69579C25.5426 8.88665 26.7573 11.8421 26.746 14.9179C26.7347 17.9936 25.4982 20.9402 23.306 23.1152Z" fill="white" />
<path d="M22.893 19.7144C22.3238 20.6037 21.4246 21.6921 20.2945 21.9622C18.3147 22.4369 15.2762 21.9786 11.4954 18.4814L11.4486 18.4405C8.12423 15.3824 7.26082 12.8373 7.4698 10.8186C7.58528 9.67289 8.54768 8.63627 9.35885 7.95975C9.48709 7.85116 9.63917 7.77385 9.80292 7.734C9.96666 7.69415 10.1375 7.69286 10.3019 7.73024C10.4662 7.76762 10.6195 7.84263 10.7493 7.94927C10.8792 8.05591 10.9822 8.19122 11.0499 8.34438L12.2735 11.0723C12.3531 11.2492 12.3825 11.4442 12.3588 11.6364C12.3351 11.8287 12.259 12.0109 12.1388 12.1635L11.5201 12.96C11.3874 13.1245 11.3073 13.3246 11.2901 13.5347C11.273 13.7447 11.3196 13.955 11.4239 14.1385C11.7704 14.7414 12.6008 15.628 13.5219 16.4491C14.5558 17.3766 15.7024 18.2249 16.4284 18.5141C16.6226 18.5928 16.8362 18.612 17.0415 18.5693C17.2469 18.5265 17.4346 18.4237 17.5805 18.274L18.2982 17.5566C18.4367 17.4211 18.6089 17.3245 18.7973 17.2766C18.9856 17.2287 19.1835 17.2312 19.3706 17.2838L22.277 18.1022C22.4373 18.151 22.5843 18.2355 22.7066 18.3493C22.829 18.4631 22.9235 18.6031 22.9829 18.7587C23.0424 18.9142 23.0652 19.0812 23.0496 19.2469C23.034 19.4125 22.9804 19.5724 22.893 19.7144Z" fill="white" />
</symbol></defs></svg>