<svg width="112" height="17" viewBox="0 0 112 17" fill="none" xmlns="http://www.w3.org/2000/svg">
<path d="M19.8785 0.46875H17.2089V14.0065H19.8785V0.46875Z" fill="black"/>
<path d="M14.1422 1.22628H11.4726V14.7637H14.1422V1.22628Z" fill="black"/>
<path d="M8.40592 2.07198H5.73629V15.612H8.40592V2.07198Z" fill="black"/>
<path d="M2.66964 2.92708H0L1.01725e-05 16.4688H2.66965L2.66964 2.92708Z" fill="black"/>
<path d="M90.3889 7.68187L86.0904 2.90265H83.5775V13.9682H86.2012V6.90817L90.1256 11.091H90.6105L94.4674 6.90817V13.9682H97.0911V2.90265H94.5782L90.3889 7.68187Z" fill="black"/>
<path d="M109.591 2.90265L103.088 10.0948V2.90265H100.464V13.9682H102.868L109.371 6.77599V13.9682H111.995V2.90265H109.591Z" fill="black"/>
<path d="M69.4454 6.95169C69.4454 8.71347 70.4088 10.1013 71.8876 10.6832L69.1146 13.9682H72.326L74.8486 10.9798H77.5783V13.9682H80.202V2.90265H73.5223C71.0318 2.90265 69.4454 4.6064 69.4454 6.95169ZM77.5799 5.33981V8.61192H74.0088C72.8174 8.61192 72.1783 7.94783 72.1783 6.97425C72.1783 6.00068 72.8398 5.33658 74.0088 5.33658L77.5799 5.33981Z" fill="black"/>
<path d="M57.253 5.11576C57.0925 8.9214 56.2896 11.3779 54.7176 11.3779H54.3242V14.0343L54.7433 14.0568C57.8953 14.2325 59.6375 11.4666 59.9233 5.42524H64.0693V13.9682H66.6882V2.90265H57.3413L57.253 5.11576Z" fill="black"/>
<path d="M47.3764 2.74805C43.8278 2.74805 41.2747 5.20455 41.2747 8.43475C41.2747 11.7762 44.0526 14.1456 47.3764 14.1456C50.8383 14.1456 53.5279 11.644 53.5279 8.43475C53.5279 5.2255 50.8383 2.74805 47.3764 2.74805ZM47.3764 11.4893C45.3709 11.4893 44.0044 10.1836 44.0044 8.43475C44.0044 6.64234 45.3725 5.37218 47.3764 5.37218C49.3804 5.37218 50.7934 6.70037 50.7934 8.43475C50.7934 10.1691 49.3611 11.4893 47.3764 11.4893Z" fill="black"/>
<path d="M38.4921 2.92352H29.232L29.1437 5.13663C29.012 8.32493 28.1802 11.3569 26.6082 11.4004L25.8809 11.423V16.4693L28.5271 16.464V13.9697H37.7198V16.464H40.3884V11.4004H38.4921V2.92352ZM35.8684 11.4004H30.2693C31.2166 9.96259 31.724 7.88166 31.8123 5.44772H35.8684V11.4004Z" fill="black"/>
</svg>
