<svg width="39" height="12" viewBox="0 0 39 12" fill="none" xmlns="http://www.w3.org/2000/svg">
<path d="M34.1515 0.234375H26.8418C27.2676 2.64729 29.6096 4.91828 32.1644 4.91828H37.9838C38.0548 4.70537 38.0547 4.35053 38.0547 4.13762C38.0547 2.00858 36.2805 0.234375 34.1515 0.234375Z" fill="url(#paint0_linear_5296_19946)"/>
<path d="M27.4824 5.34375V11.2341H31.0308V8.1115H34.1534C35.8567 8.1115 37.347 6.90505 37.8438 5.34375H27.4824Z" fill="#4FAD50"/>
<path d="M14.9922 0.234375V11.1635H18.1148C18.1148 11.1635 18.8954 11.1635 19.3212 10.3828C21.4503 6.1957 22.089 4.91828 22.089 4.91828H22.5148V11.1635H26.0632V0.234375H22.9406C22.9406 0.234375 22.16 0.305347 21.7342 1.01503C19.96 4.6344 18.9664 6.47957 18.9664 6.47957H18.5406V0.234375H14.9922Z" fill="#4FAD50"/>
<path d="M0.0878906 11.2357V0.306641H3.6363C3.6363 0.306641 4.62986 0.306638 5.1976 1.86794C6.61697 5.98409 6.75891 6.55184 6.75891 6.55184C6.75891 6.55184 7.04277 5.55828 8.3202 1.86794C8.88794 0.306638 9.88151 0.306641 9.88151 0.306641H13.4299V11.2357H9.88151V5.34538H9.45569L7.46859 11.2357H5.90729L3.92019 5.34538H3.49437V11.2357H0.0878906Z" fill="#4FAD50"/>
<defs>
<linearGradient id="paint0_linear_5296_19946" x1="26.6704" y1="2.98438" x2="37.6704" y2="2.98438" gradientUnits="userSpaceOnUse">
<stop stop-color="#00B4E6"/>
<stop offset="1" stop-color="#088CCB"/>
</linearGradient>
</defs>
</svg>
