<svg width="97" height="20" viewBox="0 0 97 20" fill="none" xmlns="http://www.w3.org/2000/svg">
<path fill-rule="evenodd" clip-rule="evenodd" d="M0.886719 10C0.886719 4.75741 5.13239 0.511728 10.375 0.5V3.93642C7.03238 3.93642 4.32313 6.65741 4.32313 10C4.32313 13.3543 7.04411 16.0636 10.3867 16.0636C13.7175 16.0636 16.4502 13.3778 16.4502 9.97654H19.8867C19.8867 15.2426 15.641 19.5 10.3867 19.5C5.13238 19.5 0.886719 15.2426 0.886719 10Z" fill="black"/>
<path d="M6.19922 9.99858C6.19922 7.67636 8.08748 5.78809 10.4097 5.78809C12.7319 5.78809 14.6202 7.67636 14.6202 9.99858C14.6202 12.3325 12.7319 14.2091 10.4097 14.2091C8.08748 14.2091 6.19922 12.3325 6.19922 9.99858Z" fill="black"/>
<path d="M13.332 4.66434C13.332 3.3273 14.411 2.24829 15.7481 2.24829C17.0851 2.24829 18.1641 3.3273 18.1641 4.66434C18.1641 6.00137 17.0851 7.08039 15.7481 7.08039C14.411 7.08039 13.332 6.00137 13.332 4.66434Z" fill="black"/>
<path d="M87.5004 7.05531L87.2072 8.49791C86.5152 11.6294 86.2689 12.638 85.6708 15.7578L85.5418 15.8751L83.6418 15.9337L83.5479 15.8047L84.3103 12.5911L84.5331 11.5356C83.7121 11.5121 82.9029 11.5004 82.0819 11.5004C81.4486 11.5004 80.956 11.5121 80.4634 11.5238C80.1819 12.7905 79.9473 13.893 79.5955 15.7578L79.4665 15.8751L77.5665 15.9337L77.4727 15.8047L78.235 12.5911L78.5399 11.1954C79.0443 8.9905 79.1381 8.50963 79.4313 6.48062L79.5603 6.35161C80.4282 6.23433 80.6393 6.19914 81.5307 6.01149L81.6245 6.1405L81.4251 7.06704L81.1319 8.50964L80.827 9.87013C81.5072 9.88186 82.1992 9.89358 82.8912 9.89358C83.6183 9.89358 84.0992 9.88186 84.9084 9.8584C85.1665 8.6621 85.272 8.01704 85.5066 6.46889L85.6356 6.33988C86.5152 6.2226 86.7146 6.18741 87.6177 5.99976L87.7115 6.12877L87.5004 7.05531Z" fill="black"/>
<path d="M64.5956 11.242C64.7246 10.7025 64.8184 10.1513 64.8184 9.63524C64.8184 7.73524 63.5987 7.41857 62.9067 7.41857C59.9629 7.41857 59.5876 11.9926 59.5876 12.6846C59.5876 14.1859 60.4906 14.8426 61.4993 14.8426C63.5048 14.8426 64.2554 12.7902 64.5956 11.242ZM66.5425 11.8284C66.132 13.447 64.9826 16.2383 61.4641 16.2383C58.966 16.2383 57.6055 14.9482 57.6055 12.3914C57.6055 12.063 57.6289 11.6994 57.6876 11.3124C57.6993 11.2186 57.711 11.1247 57.7228 11.0309C58.403 6.8087 60.2326 2.79759 64.2554 2.7624C64.7949 2.75067 65.874 2.70376 66.6128 2.52783L66.3431 4.21672C65.5925 4.40438 64.4196 4.50993 63.7277 4.50993C62.8715 4.52166 62.2851 4.83833 61.8746 5.23709C61.6752 5.42475 61.511 5.64758 61.3937 5.83524C61.2764 6.02289 61.1826 6.19882 61.124 6.33956C61.6635 6.17536 62.2499 6.06981 62.9067 6.06981C65.3579 6.06981 66.824 7.44203 66.824 9.85808C66.824 10.5031 66.7067 11.1717 66.5425 11.8284Z" fill="black"/>
<path d="M90.7254 10.1066C91.1711 9.71958 91.4291 9.47328 92.0507 8.87513C92.6957 8.2418 94.2908 6.59983 94.584 6.28316L94.7951 6.1776H96.9414L97 6.3418C96.8124 6.506 96.7186 6.5881 95.968 7.22143C95.6747 7.46773 95.4871 7.65538 95.1352 7.97205L92.7075 10.2122L95.6044 15.7245L95.4871 15.877L93.4112 15.9356L93.2587 15.8183C92.7778 14.6572 92.6488 14.3992 91.9686 13.0387L90.655 10.3881C90.2445 12.2177 89.9865 13.3788 89.5291 15.7832L89.4001 15.9004L87.5001 15.9591L87.4062 15.8301L88.1686 12.6165L88.4618 11.2208C88.9661 9.01588 89.06 8.53501 89.3532 6.506L89.4822 6.37699C90.3618 6.2597 90.5612 6.22452 91.4643 6.03687L91.5581 6.16588L91.3587 7.09242L91.0655 8.53501L90.7254 10.1066Z" fill="black"/>
<path d="M74.2123 13.5079C74.013 13.672 73.8019 13.8597 73.5907 13.9887C73.1099 14.2937 72.4648 14.4227 71.9605 14.4227C70.2482 14.4227 69.7673 12.9801 69.7673 12.0887C69.7673 11.9949 69.8025 9.57884 71.7728 8.2418C72.8753 7.49118 74.0951 7.456 74.7167 7.456C74.9981 7.456 75.2796 7.46773 75.5611 7.46773L74.2123 13.5079ZM77.8012 6.20106L77.7074 6.04859L75.1154 6.03687C73.3914 6.03687 70.9753 6.14242 69.2278 8.19489C68.442 9.13316 67.7266 10.74 67.7266 12.2177C67.7266 14.5517 69.2864 15.9004 71.1982 15.9004C72.7932 15.9004 73.6142 15.2085 73.9309 14.9504L73.8019 15.7011L73.8957 15.8301L75.6549 15.7949L75.7839 15.6659C76.1593 13.4375 76.2883 12.722 76.9451 9.84859L77.8012 6.20106Z" fill="black"/>
<path d="M28.3903 16.1808C26.3613 16.1808 23.4292 15.5357 24.4965 10.8444C24.8953 9.08511 26.115 5.34375 31.123 5.34375C35.9903 5.34375 35.2631 9.3314 34.9699 10.7388C34.0668 14.7147 31.6391 16.1808 28.3903 16.1808ZM29.0588 14.1166C30.4897 14.1166 31.1582 12.6271 31.5922 10.7154C31.8971 9.36659 32.2255 7.38449 30.5014 7.38449C29.0354 7.38449 28.3786 8.7919 27.9564 10.7154C27.5459 12.4863 27.4521 14.1166 29.0588 14.1166Z" fill="black"/>
<path d="M40.2943 15.9566C39.356 15.9566 37.8079 15.9566 37.1628 15.98L37.0573 15.851C37.2332 15.2294 37.6789 13.5405 38.1363 11.488C38.5116 9.82261 38.84 8.35657 38.969 7.68805C38.1832 7.7115 36.9752 7.7115 36.377 7.72323L36.2715 7.58249C36.424 7.07817 36.6468 6.19854 36.7875 5.67076L36.9635 5.56521C37.4912 5.58866 39.4733 5.60039 41.0801 5.60039C43.0153 5.60039 44.9035 5.5652 45.3023 5.54175L45.4313 5.6473C45.2906 6.11644 45.0326 7.07817 44.9036 7.55903L44.7159 7.67632C43.9418 7.66459 43.3554 7.66459 42.2295 7.66459C42.1357 8.08681 41.8307 9.34175 41.3264 11.5701C40.9511 13.259 40.6344 14.7955 40.4585 15.7806L40.2943 15.9566Z" fill="black"/>
<path d="M51.1658 7.93434C50.5324 7.93434 49.8287 7.9578 49.5121 7.9578C49.4183 8.39175 49.0312 9.99854 48.6794 11.5584C48.2689 13.3998 47.8936 15.1239 47.7528 15.8393L47.5652 15.9566C46.6034 15.9566 45.372 15.9566 44.3868 15.98L44.293 15.851C44.4924 15.0418 45.0084 12.8603 45.501 10.6788C45.9936 8.48558 46.4275 6.33928 46.5565 5.7294L46.7207 5.58866C47.7763 5.58866 48.8436 5.62385 51.4707 5.62385C53.5232 5.62385 55.517 5.5652 56.5725 5.54175L56.6664 5.65903C56.5256 6.18681 55.9392 8.70842 55.3763 11.2066C54.9189 13.2238 54.4966 15.2294 54.3911 15.8041L54.2503 15.9214C53.4059 15.9214 51.8695 15.9214 51.0602 15.9448L50.9781 15.8041C51.1541 15.1238 51.5294 13.5405 51.975 11.5819C52.3152 10.0924 52.6436 8.50904 52.7843 7.92262C52.4442 7.94607 51.7522 7.93434 51.1658 7.93434Z" fill="black"/>
</svg>
