<svg width="97" height="20" viewBox="0 0 97 20" fill="none" xmlns="http://www.w3.org/2000/svg">
<path fill-rule="evenodd" clip-rule="evenodd" d="M0.886719 10C0.886719 4.75741 5.13239 0.511728 10.375 0.5V3.93642C7.03238 3.93642 4.32313 6.65741 4.32313 10C4.32313 13.3543 7.04411 16.0636 10.3867 16.0636C13.7175 16.0636 16.4502 13.3778 16.4502 9.97654H19.8867C19.8867 15.2426 15.641 19.5 10.3867 19.5C5.13238 19.5 0.886719 15.2426 0.886719 10Z" fill="black"/>
<path d="M6.19922 9.99858C6.19922 7.67636 8.08748 5.78809 10.4097 5.78809C12.7319 5.78809 14.6202 7.67636 14.6202 9.99858C14.6202 12.3325 12.7319 14.2091 10.4097 14.2091C8.08748 14.2091 6.19922 12.3325 6.19922 9.99858Z" fill="black"/>
<path d="M13.332 4.66409C13.332 3.32706 14.411 2.24805 15.7481 2.24805C17.0851 2.24805 18.1641 3.32706 18.1641 4.66409C18.1641 6.00113 17.0851 7.08014 15.7481 7.08014C14.411 7.08014 13.332 6.00113 13.332 4.66409Z" fill="black"/>
<path d="M87.5004 7.05458L87.2072 8.49717C86.5152 11.6287 86.2689 12.6373 85.6708 15.757L85.5418 15.8743L83.6418 15.933L83.5479 15.804L84.3103 12.5904L84.5331 11.5348C83.7121 11.5114 82.9029 11.4996 82.0819 11.4996C81.4486 11.4996 80.956 11.5114 80.4634 11.5231C80.1819 12.7898 79.9473 13.8922 79.5955 15.757L79.4665 15.8743L77.5665 15.933L77.4727 15.804L78.235 12.5904L78.5399 11.1947C79.0443 8.98976 79.1381 8.5089 79.4313 6.47989L79.5603 6.35088C80.4282 6.23359 80.6393 6.19841 81.5307 6.01075L81.6245 6.13977L81.4251 7.06631L81.1319 8.5089L80.827 9.8694C81.5072 9.88113 82.1992 9.89285 82.8912 9.89285C83.6183 9.89285 84.0992 9.88112 84.9084 9.85767C85.1665 8.66137 85.272 8.01631 85.5066 6.46816L85.6356 6.33915C86.5152 6.22186 86.7146 6.18668 87.6177 5.99902L87.7115 6.12804L87.5004 7.05458Z" fill="black"/>
<path d="M64.5956 11.2415C64.7246 10.702 64.8184 10.1508 64.8184 9.63475C64.8184 7.73475 63.5987 7.41809 62.9067 7.41809C59.9629 7.41809 59.5876 11.9922 59.5876 12.6841C59.5876 14.1854 60.4906 14.8422 61.4993 14.8422C63.5048 14.8422 64.2554 12.7897 64.5956 11.2415ZM66.5425 11.828C66.132 13.4465 64.9826 16.2378 61.4641 16.2378C58.966 16.2378 57.6055 14.9477 57.6055 12.3909C57.6055 12.0625 57.6289 11.6989 57.6876 11.3119C57.6993 11.2181 57.711 11.1243 57.7228 11.0304C58.403 6.80821 60.2326 2.7971 64.2554 2.76191C64.7949 2.75018 65.874 2.70327 66.6128 2.52734L66.3431 4.21624C65.5925 4.40389 64.4196 4.50945 63.7277 4.50945C62.8715 4.52117 62.2851 4.83784 61.8746 5.2366C61.6752 5.42426 61.511 5.6471 61.3937 5.83475C61.2764 6.0224 61.1826 6.19833 61.124 6.33907C61.6635 6.17487 62.2499 6.06932 62.9067 6.06932C65.3579 6.06932 66.824 7.44154 66.824 9.85759C66.824 10.5027 66.7067 11.1712 66.5425 11.828Z" fill="black"/>
<path d="M90.7254 10.1059C91.1711 9.71885 91.4291 9.47255 92.0507 8.8744C92.6957 8.24107 94.2908 6.59909 94.584 6.28243L94.7951 6.17687H96.9414L97 6.34107C96.8124 6.50527 96.7186 6.58737 95.968 7.2207C95.6747 7.467 95.4871 7.65465 95.1352 7.97132L92.7075 10.2114L95.6044 15.7238L95.4871 15.8763L93.4112 15.9349L93.2587 15.8176C92.7778 14.6565 92.6488 14.3985 91.9686 13.038L90.655 10.3874C90.2445 12.217 89.9865 13.3781 89.5291 15.7824L89.4001 15.8997L87.5001 15.9584L87.4062 15.8293L88.1686 12.6158L88.4618 11.2201C88.9661 9.01514 89.06 8.53428 89.3532 6.50527L89.4822 6.37625C90.3618 6.25897 90.5612 6.22379 91.4643 6.03613L91.5581 6.16515L91.3587 7.09169L91.0655 8.53428L90.7254 10.1059Z" fill="black"/>
<path d="M74.2123 13.5071C74.013 13.6713 73.8019 13.859 73.5907 13.988C73.1099 14.2929 72.4648 14.4219 71.9605 14.4219C70.2482 14.4219 69.7673 12.9793 69.7673 12.088C69.7673 11.9942 69.8025 9.5781 71.7728 8.24107C72.8753 7.49045 74.0951 7.45527 74.7167 7.45527C74.9981 7.45527 75.2796 7.46699 75.5611 7.46699L74.2123 13.5071ZM77.8012 6.20033L77.7074 6.04786L75.1154 6.03613C73.3914 6.03613 70.9753 6.14169 69.2278 8.19416C68.442 9.13243 67.7266 10.7392 67.7266 12.217C67.7266 14.5509 69.2864 15.8997 71.1982 15.8997C72.7932 15.8997 73.6142 15.2077 73.9309 14.9497L73.8019 15.7003L73.8957 15.8293L75.6549 15.7942L75.7839 15.6651C76.1593 13.4367 76.2883 12.7213 76.9451 9.84786L77.8012 6.20033Z" fill="black"/>
<path d="M28.3903 16.1808C26.3613 16.1808 23.4292 15.5357 24.4965 10.8444C24.8953 9.08511 26.115 5.34375 31.123 5.34375C35.9903 5.34375 35.2631 9.3314 34.9699 10.7388C34.0668 14.7147 31.6391 16.1808 28.3903 16.1808ZM29.0588 14.1166C30.4897 14.1166 31.1582 12.6271 31.5922 10.7154C31.8971 9.36659 32.2255 7.38449 30.5014 7.38449C29.0354 7.38449 28.3786 8.7919 27.9564 10.7154C27.5459 12.4863 27.4521 14.1166 29.0588 14.1166Z" fill="black"/>
<path d="M40.2924 15.9568C39.3541 15.9568 37.8059 15.9568 37.1609 15.9803L37.0553 15.8513C37.2313 15.2296 37.6769 13.5408 38.1343 11.4883C38.5096 9.82286 38.838 8.35681 38.9671 7.68829C38.1813 7.71175 36.9732 7.71175 36.3751 7.72347L36.2695 7.58274C36.422 7.07841 36.6448 6.19878 36.7856 5.67101L36.9615 5.56545C37.4893 5.58891 39.4714 5.60063 41.0782 5.60063C43.0133 5.60063 44.9016 5.56545 45.3004 5.54199L45.4294 5.64755C45.2886 6.11668 45.0306 7.07841 44.9016 7.55928L44.7139 7.67656C43.9399 7.66483 43.3535 7.66483 42.2275 7.66483C42.1337 8.08706 41.8288 9.34199 41.3244 11.5704C40.9491 13.2593 40.6325 14.7957 40.4566 15.7809L40.2924 15.9568Z" fill="black"/>
<path d="M51.1658 7.93459C50.5324 7.93459 49.8287 7.95804 49.5121 7.95804C49.4183 8.39199 49.0312 9.99878 48.6794 11.5587C48.2689 13.4 47.8936 15.1241 47.7528 15.8395L47.5652 15.9568C46.6034 15.9568 45.372 15.9568 44.3868 15.9803L44.293 15.8513C44.4924 15.042 45.0084 12.8605 45.501 10.679C45.9936 8.48582 46.4275 6.33952 46.5565 5.72965L46.7207 5.58891C47.7763 5.58891 48.8436 5.62409 51.4707 5.62409C53.5232 5.62409 55.517 5.56545 56.5725 5.54199L56.6664 5.65928C56.5256 6.18706 55.9392 8.70866 55.3763 11.2068C54.9189 13.2241 54.4966 15.2296 54.3911 15.8043L54.2503 15.9216C53.4059 15.9216 51.8695 15.9216 51.0602 15.9451L50.9781 15.8043C51.1541 15.1241 51.5294 13.5408 51.975 11.5821C52.3152 10.0926 52.6436 8.50928 52.7843 7.92286C52.4442 7.94632 51.7522 7.93459 51.1658 7.93459Z" fill="black"/>
</svg>
