<svg width="48" height="24" viewBox="0 0 48 24" fill="none" xmlns="http://www.w3.org/2000/svg">
<g clip-path="url(#clip0_1_10664)">
<path d="M41.6011 6.85147V12.7191H39.5281V8.60307H37.532V12.7191H35.459V6.85107H41.6011V6.85147Z" fill="black"/>
<path fill-rule="evenodd" clip-rule="evenodd" d="M31.2005 12.9285C33.0563 12.9285 34.4343 11.7785 34.4343 10.0351C34.4343 8.3477 33.4176 7.2521 31.7184 7.2521C30.9342 7.2521 30.2871 7.5311 29.7997 8.0125C29.9161 7.0175 30.7486 6.2911 31.6652 6.2911C31.8767 6.2911 33.4693 6.2877 33.4693 6.2877L34.3698 4.5459C34.3698 4.5459 32.3704 4.5919 31.441 4.5919C29.3173 4.6293 27.8828 6.5803 27.8828 8.9499C27.8828 11.7105 29.2818 12.9285 31.2005 12.9285ZM31.2118 8.7949C31.9008 8.7949 32.3785 9.2525 32.3785 10.0349C32.3785 10.7391 31.9541 11.3193 31.2118 11.3209C30.5018 11.3209 30.0241 10.7833 30.0241 10.0469C30.0241 9.2643 30.5018 8.7949 31.2118 8.7949Z" fill="black"/>
<path d="M26.1967 10.7546C26.1967 10.7546 25.7071 11.0398 24.9759 11.0938C24.1353 11.119 23.3863 10.5824 23.3863 9.62897C23.3863 8.69897 24.0473 8.16597 24.9548 8.16597C25.5112 8.16597 26.2473 8.55577 26.2473 8.55577C26.2473 8.55577 26.786 7.55677 27.065 7.05717C26.554 6.66577 25.8735 6.45117 25.082 6.45117C23.0844 6.45117 21.5371 7.76757 21.5371 9.61717C21.5371 11.4904 22.9914 12.7762 25.082 12.7374C25.6663 12.7154 26.4725 12.508 26.9639 12.189L26.1967 10.7546Z" fill="black"/>
<path d="M0.705078 5.22412L3.58072 10.4191V13.5879L0.708442 18.7727L0.705078 5.22412Z" fill="#5B57A2"/>
<path d="M11.7461 8.52962L14.4407 6.86042L19.9553 6.85522L11.7461 11.938V8.52962Z" fill="#D90751"/>
<path d="M11.7304 5.19364L11.7457 12.0716L8.86328 10.2816V0.000244141L11.7304 5.19364Z" fill="#FAB718"/>
<path d="M19.9548 6.85444L14.44 6.85964L11.7304 5.19364L8.86328 0.000244141L19.9548 6.85444Z" fill="#ED6F26"/>
<path d="M11.7457 18.8015V15.4645L8.86328 13.7085L8.86486 24.0001L11.7457 18.8015Z" fill="#63B22F"/>
<path d="M14.4342 17.1475L3.58052 10.4191L0.705078 5.22412L19.9439 17.1407L14.4342 17.1475Z" fill="#1487C9"/>
<path d="M8.86523 24.0008L11.7456 18.8022L14.4335 17.1482L19.9431 17.1414L8.86523 24.0008Z" fill="#017F36"/>
<path d="M0.708984 18.7724L8.8881 13.7084L6.13831 12.0032L3.58126 13.5876L0.708984 18.7724Z" fill="#984995"/>
<path d="M23.3853 16.6681C23.322 16.7497 23.2387 16.8113 23.1388 16.8529C23.0363 16.8951 22.9265 16.9166 22.8158 16.9161C22.7057 16.9176 22.5963 16.899 22.4927 16.8613C22.3997 16.8271 22.3146 16.7739 22.243 16.7049C22.1722 16.6358 22.1166 16.5524 22.0799 16.4601C22.0401 16.359 22.0203 16.2511 22.0215 16.1423C22.0215 16.0343 22.0399 15.9343 22.0781 15.8395C22.1147 15.7445 22.168 15.6631 22.2347 15.5947C22.3013 15.5249 22.3813 15.4717 22.4711 15.4301C22.5627 15.3901 22.6627 15.3685 22.7725 15.3685C22.8908 15.3685 23.0007 15.3835 23.1006 15.4133C23.2005 15.4433 23.2854 15.4933 23.3553 15.5633L23.2338 15.7713C23.175 15.7175 23.1058 15.6766 23.0305 15.6513C22.959 15.628 22.8843 15.6163 22.8091 15.6165C22.7426 15.6165 22.6793 15.6297 22.6178 15.6547C22.5571 15.6794 22.5017 15.7156 22.4545 15.7613C22.4063 15.8083 22.3683 15.865 22.3429 15.9277C22.3146 15.9925 22.3013 16.0641 22.3013 16.1439C22.3013 16.2255 22.3162 16.2987 22.3445 16.3619C22.373 16.4269 22.4112 16.4819 22.4595 16.5283C22.5077 16.5751 22.5643 16.6099 22.6292 16.6333C22.6943 16.6583 22.7626 16.6699 22.8358 16.6699C22.9257 16.6699 23.0074 16.6515 23.0772 16.6165C23.1465 16.5827 23.2087 16.5359 23.2605 16.4785L23.3853 16.6681ZM23.7283 16.8811V15.4001H23.9915V16.5035L24.8473 15.4001H25.1105V16.8813H24.8473V15.7779L23.9915 16.8813L23.7283 16.8811ZM26.8538 16.6681C26.7891 16.7504 26.7042 16.8141 26.6075 16.8529C26.5049 16.8951 26.3951 16.9165 26.2843 16.9161C26.1743 16.9176 26.0649 16.899 25.9614 16.8613C25.8683 16.8272 25.7832 16.7739 25.7115 16.7049C25.6407 16.6358 25.5851 16.5524 25.5484 16.4601C25.5086 16.359 25.4888 16.2511 25.49 16.1423C25.49 16.0343 25.5084 15.9343 25.5466 15.8395C25.5834 15.7445 25.6367 15.6631 25.7032 15.5947C25.7698 15.5249 25.8498 15.4717 25.9396 15.4301C26.0345 15.3879 26.1373 15.3668 26.241 15.3685C26.3593 15.3685 26.4692 15.3835 26.5691 15.4133C26.669 15.4433 26.7539 15.4933 26.824 15.5633L26.7023 15.7713C26.6436 15.7174 26.5744 15.6766 26.4992 15.6513C26.4277 15.628 26.353 15.6163 26.2778 15.6165C26.1455 15.6169 26.0185 15.6688 25.923 15.7613C25.8752 15.8087 25.8372 15.8653 25.8114 15.9277C25.7831 15.9925 25.7698 16.0641 25.7698 16.1439C25.7698 16.2255 25.7849 16.2987 25.8132 16.3619C25.8415 16.4269 25.8797 16.4819 25.928 16.5283C25.9762 16.5751 26.033 16.6099 26.0979 16.6333C26.1628 16.6565 26.2311 16.6699 26.3043 16.6699C26.3944 16.6699 26.4743 16.6515 26.5457 16.6165C26.615 16.5827 26.6772 16.5359 26.729 16.4785L26.8538 16.6681ZM26.9888 15.4001H28.3392V15.6631H27.7964V16.8811H27.5332V15.6631H26.9904V15.4001H26.9888Z" fill="black"/>
<path fill-rule="evenodd" clip-rule="evenodd" d="M29.5689 16.8664C29.6689 16.8348 29.7537 16.7864 29.827 16.72L29.747 16.5136C29.6987 16.557 29.6338 16.5936 29.5557 16.6236C29.4773 16.6536 29.389 16.6684 29.2925 16.6684C29.1476 16.6684 29.0277 16.6302 28.9327 16.552C28.8379 16.4736 28.7863 16.364 28.7746 16.224H29.9136C29.9253 16.1724 29.9303 16.1142 29.9303 16.046C29.9303 15.9444 29.9119 15.853 29.8752 15.7698C29.8412 15.689 29.7914 15.6159 29.7288 15.555C29.6654 15.4946 29.5906 15.4476 29.509 15.417C29.4235 15.3834 29.3325 15.3665 29.2408 15.367C29.1176 15.367 29.0093 15.3886 28.9145 15.4286C28.8249 15.4667 28.7439 15.5227 28.6763 15.5934C28.6107 15.6636 28.5602 15.7469 28.5283 15.838C28.4931 15.9349 28.4756 16.0375 28.4766 16.1408C28.4766 16.2574 28.4966 16.3638 28.5332 16.4588C28.5688 16.5508 28.6233 16.6341 28.6931 16.7034C28.7614 16.7714 28.8445 16.8232 28.9428 16.8598C29.0481 16.8975 29.1592 16.916 29.2709 16.9146C29.3721 16.9139 29.4726 16.8975 29.5689 16.8664ZM28.9028 15.7264C28.9844 15.6516 29.0926 15.615 29.2292 15.615C29.3574 15.615 29.4607 15.65 29.5357 15.72C29.6107 15.7898 29.6505 15.8864 29.6572 16.0094H28.758C28.7707 15.9004 28.8222 15.7997 28.9028 15.7264Z" fill="black"/>
<path d="M30.2871 15.4001H30.5269L31.0965 16.1341L31.6359 15.4001H31.869V16.8813H31.606V15.8013L31.0931 16.4885H31.083L30.5503 15.8011V16.8811H30.2871V15.4001Z" fill="black"/>
<path fill-rule="evenodd" clip-rule="evenodd" d="M32.5855 15.4047C32.5057 15.4258 32.4293 15.4588 32.3591 15.5027L32.429 15.7127C32.489 15.6827 32.5489 15.6577 32.6089 15.6361C32.6688 15.6143 32.7454 15.6043 32.837 15.6043C32.9102 15.6043 32.9686 15.6161 33.0135 15.6393C33.0585 15.6609 33.0917 15.6943 33.1151 15.7343C33.1384 15.7743 33.1534 15.8241 33.1618 15.8823C33.1701 15.9405 33.1734 16.0037 33.1734 16.0721C33.1196 16.0342 33.0582 16.0086 32.9936 15.9971C32.931 15.9846 32.8675 15.9779 32.8038 15.9771C32.7254 15.9771 32.6522 15.9889 32.5822 16.0087C32.5123 16.0287 32.4523 16.0587 32.4041 16.0987C32.3548 16.1387 32.315 16.1892 32.2875 16.2467C32.2582 16.3097 32.2434 16.3785 32.2442 16.4481C32.2442 16.5929 32.2859 16.7061 32.369 16.7861C32.4523 16.8659 32.5622 16.9057 32.6987 16.9057C32.822 16.9057 32.9203 16.8841 32.9951 16.8409C33.0701 16.7975 33.1301 16.7477 33.1734 16.6911V16.8825H33.4198V15.9739C33.4198 15.7807 33.3782 15.6311 33.2934 15.5261C33.21 15.4213 33.0618 15.3681 32.8521 15.3681C32.7587 15.3681 32.6704 15.3813 32.5855 15.4047ZM33.0254 16.6047C32.9655 16.6479 32.8871 16.6677 32.7905 16.6677C32.7056 16.6677 32.6389 16.6461 32.5924 16.6045C32.5457 16.5613 32.5224 16.5047 32.5224 16.4347C32.5224 16.3933 32.5307 16.3583 32.5491 16.3267C32.5675 16.2951 32.5924 16.2701 32.6207 16.2501C32.6517 16.2292 32.6861 16.214 32.7223 16.2051C32.7606 16.1951 32.7988 16.1901 32.8388 16.1901C32.9688 16.1901 33.0802 16.2217 33.1719 16.2883V16.4763C33.1287 16.5252 33.0795 16.5685 33.0254 16.6047ZM35.7429 14.8787C35.7962 14.8539 35.846 14.8123 35.8927 14.7507L35.7495 14.5427C35.7129 14.5927 35.6713 14.6275 35.6246 14.6459C35.5751 14.6655 35.5238 14.6799 35.4715 14.6891L35.4216 14.6981C35.3782 14.7057 35.3317 14.7141 35.2817 14.7225C35.2014 14.7375 35.1231 14.7621 35.0486 14.7957C34.9302 14.8473 34.8355 14.9171 34.7638 15.0053C34.6922 15.0935 34.6356 15.1933 34.5972 15.3033C34.5583 15.4148 34.5321 15.5303 34.519 15.6477C34.5056 15.7677 34.4991 15.8823 34.4991 15.9921C34.4991 16.1337 34.5173 16.2617 34.5539 16.3765C34.5907 16.4915 34.6421 16.5879 34.7104 16.6661C34.7787 16.7461 34.8604 16.8061 34.957 16.8493C35.0535 16.8925 35.1618 16.9141 35.2833 16.9141C35.3949 16.9141 35.4982 16.8925 35.5914 16.8525C35.6812 16.8141 35.7627 16.7582 35.8312 16.6879C35.8977 16.6195 35.9511 16.5379 35.9877 16.4465C36.0259 16.3549 36.0443 16.2567 36.0443 16.1535C36.0443 16.0421 36.0277 15.9407 35.996 15.8507C35.9669 15.7649 35.9204 15.6862 35.8595 15.6195C35.7985 15.554 35.724 15.5028 35.6412 15.4695C35.5501 15.4332 35.4529 15.4152 35.3549 15.4163C35.2916 15.4163 35.23 15.4247 35.1701 15.4413C35.1118 15.4579 35.0558 15.482 35.0035 15.5129C34.9527 15.5423 34.9062 15.5786 34.8653 15.6209C34.8254 15.6627 34.7921 15.7093 34.7688 15.7625H34.762C34.7672 15.6943 34.7755 15.6245 34.7903 15.5529C34.8054 15.4813 34.8269 15.4129 34.8554 15.3481C34.8837 15.2833 34.9203 15.2249 34.9653 15.1717C35.0134 15.118 35.0725 15.0755 35.1384 15.0469C35.2109 15.012 35.2876 14.9869 35.3666 14.9721L35.4188 14.9625C35.4709 14.9529 35.5205 14.9437 35.568 14.9337C35.6313 14.9205 35.6895 14.9035 35.7429 14.8787ZM34.8171 16.3017C34.7913 16.2177 34.7789 16.1301 34.7804 16.0421C34.7916 15.9916 34.8119 15.9437 34.8404 15.9007C34.8687 15.8557 34.9053 15.8159 34.9486 15.7807C35.0464 15.7033 35.1673 15.6617 35.2916 15.6627C35.4465 15.6627 35.5631 15.7109 35.6446 15.8059C35.7263 15.9023 35.7663 16.0221 35.7663 16.1669C35.7663 16.2385 35.7528 16.3035 35.7297 16.3633C35.7072 16.4223 35.6732 16.4761 35.6297 16.5216C35.5862 16.567 35.5342 16.6032 35.4766 16.6279C35.4166 16.6545 35.3515 16.6679 35.2783 16.6679C35.2051 16.6679 35.1384 16.6529 35.0769 16.6229C35.0157 16.5935 34.9617 16.5509 34.9186 16.4981C34.8734 16.4393 34.8391 16.3728 34.8171 16.3017ZM38.0625 15.3997H37.7994V16.8809H38.0625V15.3997ZM36.4239 15.3997H36.687V15.8441H36.9302C37.045 15.8441 37.1382 15.8591 37.2132 15.8873C37.2882 15.9157 37.3482 15.9539 37.3931 16.0005C37.438 16.0471 37.4697 16.1021 37.4881 16.1635C37.5063 16.2251 37.5164 16.2883 37.5164 16.3549C37.5164 16.4215 37.5063 16.4849 37.4847 16.5481C37.4647 16.6113 37.4297 16.6661 37.383 16.7161C37.3365 16.7661 37.2732 16.8061 37.1932 16.8361C37.1133 16.8659 37.0167 16.8825 36.9002 16.8825H36.4223V15.3997H36.4239ZM36.687 16.0919V16.6345H36.8786C37.0102 16.6345 37.1034 16.6113 37.1566 16.5645C37.2101 16.5179 37.2366 16.4515 37.2366 16.3633C37.2366 16.2733 37.2083 16.2053 37.155 16.1585C37.1 16.1119 37.0084 16.0885 36.882 16.0885H36.687V16.0919Z" fill="black"/>
<path d="M39.8033 16.6681C39.74 16.7497 39.6567 16.8113 39.5568 16.8529C39.4542 16.8951 39.3445 16.9165 39.2338 16.9161C39.1237 16.9176 39.0142 16.899 38.9107 16.8613C38.8176 16.8272 38.7326 16.7739 38.6609 16.7049C38.5902 16.6357 38.5346 16.5523 38.4977 16.4601C38.4581 16.359 38.4383 16.251 38.4395 16.1423C38.4395 16.0343 38.4577 15.9343 38.4961 15.8395C38.5327 15.7445 38.5859 15.6631 38.6526 15.5947C38.7193 15.5249 38.7991 15.4717 38.8891 15.4301C38.984 15.3878 39.0868 15.3668 39.1905 15.3685C39.3086 15.3685 39.4186 15.3835 39.5186 15.4133C39.6185 15.4433 39.7034 15.4933 39.7732 15.5633L39.6517 15.7713C39.593 15.7175 39.5238 15.6766 39.4485 15.6513C39.377 15.628 39.3022 15.6163 39.2271 15.6165C39.1606 15.6165 39.0973 15.6297 39.0355 15.6547C38.9749 15.6794 38.9196 15.7156 38.8725 15.7613C38.8246 15.8086 38.7866 15.8652 38.7609 15.9277C38.7326 15.9925 38.7193 16.0641 38.7193 16.1439C38.7193 16.2255 38.7342 16.2987 38.7624 16.3619C38.7907 16.4269 38.8291 16.4819 38.8774 16.5283C38.9257 16.5751 38.9823 16.6099 39.0472 16.6333C39.1123 16.6565 39.1806 16.6699 39.2538 16.6699C39.3436 16.6699 39.4236 16.6515 39.4952 16.6165C39.5644 16.5827 39.6266 16.5359 39.6785 16.4785L39.8033 16.6681ZM39.9381 15.4001H41.2886V15.6631H40.7456V16.8811H40.4827V15.6631H39.9399V15.4001H39.9381Z" fill="black"/>
<path fill-rule="evenodd" clip-rule="evenodd" d="M41.8394 15.3992H41.5762V17.5392H41.8394V16.812C41.8926 16.847 41.9559 16.872 42.0291 16.8886C42.1023 16.9052 42.1789 16.9134 42.2573 16.9134C42.3738 16.9134 42.4787 16.8918 42.5737 16.852C42.6648 16.8126 42.7474 16.7556 42.8167 16.684C42.885 16.6122 42.9366 16.529 42.9732 16.4308C43.0098 16.3328 43.0282 16.2278 43.0282 16.1164C43.0282 16.0064 43.0116 15.905 42.98 15.8134C42.9501 15.7264 42.9038 15.6462 42.8434 15.5772C42.7842 15.51 42.7107 15.4571 42.6285 15.4224C42.5386 15.3834 42.4416 15.3641 42.3438 15.3658C42.2407 15.3658 42.1441 15.3858 42.0525 15.4258C41.9609 15.4658 41.8892 15.5138 41.8394 15.5738V15.3992ZM42.0226 15.6738C42.0976 15.6338 42.1791 15.6138 42.2674 15.6138C42.344 15.6138 42.4122 15.6254 42.474 15.6504C42.5339 15.6754 42.5838 15.7104 42.6255 15.757C42.6671 15.8036 42.6988 15.857 42.7188 15.92C42.7403 15.9832 42.7504 16.0516 42.7504 16.1264C42.7504 16.2064 42.737 16.2778 42.7138 16.3444C42.692 16.4076 42.6573 16.4654 42.6121 16.5142C42.5666 16.5625 42.5116 16.6004 42.4506 16.6256C42.3826 16.6544 42.3094 16.6686 42.2357 16.6672C42.1643 16.6672 42.0976 16.659 42.0343 16.6424C41.9649 16.6234 41.8992 16.593 41.8396 16.5524V15.8184C41.8861 15.762 41.9478 15.7138 42.0226 15.6738ZM45.0465 15.399H44.7833V16.8802H45.0465V15.399ZM43.4062 15.399H43.6694V15.8434H43.9124C44.0274 15.8434 44.1206 15.8584 44.1956 15.8866C44.2706 15.915 44.3305 15.9532 44.3754 15.9998C44.4204 16.0464 44.452 16.1014 44.4702 16.1628C44.4886 16.2244 44.4985 16.2876 44.4985 16.3542C44.4985 16.4208 44.4886 16.4842 44.4671 16.5474C44.4471 16.6106 44.412 16.6654 44.3653 16.7154C44.3188 16.7654 44.2555 16.8054 44.1756 16.8354C44.0956 16.8652 43.9991 16.8818 43.8825 16.8818H43.4046V15.399H43.4062ZM43.6712 16.0912V16.6338H43.8627C43.9941 16.6338 44.0875 16.6106 44.1407 16.5638C44.194 16.5172 44.2207 16.4508 44.2207 16.3626C44.2207 16.2726 44.1924 16.2046 44.1392 16.1578C44.0841 16.1112 43.9925 16.0878 43.8661 16.0878H43.6712V16.0912Z" fill="black"/>
<path d="M46.308 16.1141L46.8708 16.8813H46.5478L46.1131 16.2821L45.6718 16.8813H45.3655L45.9249 16.1273L45.3987 15.4001H45.7218L46.1232 15.9593L46.531 15.4001H46.8375L46.308 16.1141ZM23.1918 18.7119H22.3843V19.9467H22.1211V18.4657H23.4548V19.9467H23.1918V18.7119ZM24.9485 18.7285H24.429L24.4122 18.9781C24.394 19.1895 24.369 19.3593 24.334 19.4889C24.299 19.6189 24.2557 19.7187 24.2058 19.7885C24.1559 19.8585 24.0976 19.9067 24.0309 19.9301C23.9621 19.9554 23.8893 19.9678 23.8162 19.9667L23.7962 19.7103C23.8245 19.7119 23.8577 19.7053 23.8943 19.6887C23.9311 19.6721 23.9677 19.6355 24.0026 19.5807C24.0376 19.5239 24.0693 19.4441 24.0976 19.3409C24.1258 19.2361 24.1443 19.0997 24.1541 18.9281L24.1809 18.4671H25.2116V19.9483H24.9485V18.7285Z" fill="black"/>
<path fill-rule="evenodd" clip-rule="evenodd" d="M25.9215 18.4685C25.8364 18.4917 25.7598 18.5249 25.6949 18.5665L25.7649 18.7763C25.8249 18.7463 25.8849 18.7213 25.9446 18.6997C26.0046 18.6781 26.0814 18.6681 26.1728 18.6681C26.2462 18.6681 26.3044 18.6797 26.3493 18.7029C26.3944 18.7247 26.4276 18.7579 26.451 18.7979C26.4742 18.8379 26.4892 18.8879 26.4975 18.9459C26.5058 19.0043 26.5092 19.0675 26.5092 19.1357C26.4553 19.0978 26.3939 19.0723 26.3293 19.0609C26.2668 19.0483 26.2033 19.0416 26.1395 19.0409C26.0614 19.0409 25.988 19.0525 25.9181 19.0725C25.848 19.0925 25.7881 19.1225 25.7398 19.1625C25.6905 19.2024 25.6507 19.253 25.6233 19.3105C25.594 19.3735 25.5792 19.4423 25.5801 19.5119C25.5801 19.6565 25.6217 19.7699 25.705 19.8497C25.7881 19.9295 25.8981 19.9695 26.0347 19.9695C26.1579 19.9695 26.2561 19.9479 26.3311 19.9045C26.4059 19.8613 26.4658 19.8113 26.5092 19.7547V19.9461H26.7557V19.0375C26.7557 18.8445 26.714 18.6947 26.6291 18.5899C26.5458 18.4849 26.3976 18.4319 26.1878 18.4319C26.0978 18.432 26.0082 18.4444 25.9215 18.4685ZM26.3627 19.6681C26.303 19.7115 26.2246 19.7315 26.1281 19.7315C26.0414 19.7315 25.9765 19.7099 25.93 19.6681C25.8833 19.6249 25.8599 19.5683 25.8599 19.4985C25.8599 19.4569 25.8682 19.4219 25.8866 19.3903C25.9048 19.3587 25.93 19.3337 25.9583 19.3137C25.9866 19.2937 26.0214 19.2787 26.0598 19.2687C26.0979 19.2587 26.137 19.2538 26.1763 19.2539C26.3061 19.2539 26.4178 19.2855 26.5094 19.3519V19.5399C26.4661 19.5888 26.4168 19.6319 26.3627 19.6681Z" fill="black"/>
<path d="M27.0137 18.4648H28.3642V18.7276H27.8212V19.9458H27.5582V18.7278H27.0155V18.4648H27.0137Z" fill="black"/>
<path fill-rule="evenodd" clip-rule="evenodd" d="M29.5925 19.9312C29.6925 19.8996 29.7774 19.8512 29.8506 19.7848L29.7706 19.5784C29.7224 19.6218 29.6575 19.6584 29.5791 19.6884C29.5009 19.7184 29.4127 19.7332 29.3161 19.7332C29.1713 19.7332 29.0513 19.695 28.9564 19.6168C28.8614 19.5386 28.8099 19.4288 28.7982 19.2888H29.9373C29.9487 19.2374 29.9539 19.179 29.9539 19.1108C29.9539 19.0094 29.9355 18.9178 29.8989 18.8346C29.8648 18.7538 29.8149 18.6808 29.7522 18.62C29.6889 18.5595 29.6142 18.5125 29.5326 18.4818C29.4471 18.4483 29.3561 18.4313 29.2645 18.4318C29.1412 18.4318 29.0329 18.4534 28.9382 18.4934C28.8485 18.5314 28.7674 18.5875 28.6999 18.6582C28.6343 18.7285 28.5838 18.8118 28.5517 18.9028C28.5166 18.9998 28.4991 19.1024 28.5 19.2056C28.5 19.3222 28.52 19.4286 28.5566 19.5236C28.5934 19.6184 28.6483 19.7 28.7165 19.7682C28.7848 19.8364 28.8681 19.888 28.9664 19.9246C29.0717 19.9624 29.1827 19.981 29.2943 19.9796C29.3927 19.9796 29.4926 19.9628 29.5925 19.9312ZM28.9249 18.7896C29.0064 18.7148 29.1147 18.6782 29.2512 18.6782C29.3812 18.6782 29.4827 18.7148 29.5577 18.783C29.6325 18.853 29.6725 18.9494 29.6792 19.0726H28.78C28.7927 18.9636 28.8442 18.863 28.9249 18.7896ZM30.0821 18.4652H30.4152L30.9229 19.1792L30.3801 19.9462H30.0572L30.6265 19.179L30.0821 18.4652ZM30.9878 18.4652H31.251V19.9462H30.9878V18.4652ZM32.1917 19.9462L31.6123 19.179L32.1536 18.465H31.827L31.3159 19.179L31.8654 19.9462H32.1917ZM33.3941 19.9312C33.494 19.8996 33.5789 19.8512 33.6521 19.7848L33.5722 19.5784C33.5239 19.6218 33.459 19.6584 33.3808 19.6884C33.3025 19.7184 33.2142 19.7332 33.1176 19.7332C32.9728 19.7332 32.8529 19.695 32.7579 19.6168C32.6631 19.5386 32.6115 19.4288 32.5998 19.2888H33.7388C33.7505 19.2374 33.7554 19.179 33.7554 19.1108C33.7554 19.0094 33.7372 18.9178 33.7004 18.8346C33.6663 18.7539 33.6165 18.6809 33.554 18.62C33.4906 18.5595 33.4158 18.5125 33.3341 18.4818C33.2486 18.4483 33.1577 18.4313 33.066 18.4318C32.9429 18.4318 32.8347 18.4534 32.7397 18.4934C32.6501 18.5315 32.5691 18.5875 32.5016 18.6582C32.4359 18.7284 32.3854 18.8117 32.3534 18.9028C32.3182 18.9998 32.3007 19.1024 32.3018 19.2056C32.3018 19.3222 32.3218 19.4286 32.3584 19.5236C32.395 19.6184 32.45 19.7 32.5183 19.7682C32.5865 19.8364 32.6696 19.888 32.768 19.9246C32.8733 19.9624 32.9844 19.981 33.0961 19.9796C33.1973 19.9788 33.2978 19.9625 33.3941 19.9312ZM32.7264 18.7896C32.8082 18.7148 32.9164 18.6782 33.0529 18.6782C33.1812 18.6782 33.2843 18.7148 33.3593 18.783C33.4343 18.853 33.4742 18.9494 33.4808 19.0726H32.5816C32.5943 18.9636 32.6458 18.863 32.7264 18.7896ZM34.823 17.9676C34.6681 17.9676 34.5832 17.881 34.5699 17.708H34.3218C34.3218 17.7744 34.3334 17.8344 34.355 17.891C34.3768 17.9476 34.4084 17.9958 34.45 18.0358C34.4915 18.0758 34.545 18.1074 34.6065 18.1322C34.6681 18.1572 34.7397 18.1688 34.8212 18.1688C34.8962 18.1688 34.9629 18.1572 35.0229 18.1322C35.0828 18.109 35.1327 18.0758 35.176 18.0358C35.2176 17.9958 35.251 17.9476 35.2742 17.891C35.2975 17.8344 35.3092 17.7744 35.3092 17.708H35.0628C35.0512 17.881 34.9694 17.9676 34.823 17.9676ZM34.1118 18.465V19.9462H34.375L35.2308 18.8428V19.9462H35.494V18.465H35.2308L34.375 19.5684V18.465H34.1118Z" fill="black"/>
</g>
<defs>
<clipPath id="clip0_1_10664">
<rect width="47.2941" height="24" fill="white" transform="translate(0.705078)"/>
</clipPath>
</defs>
</svg>
