<svg width="48" height="24" viewBox="0 0 48 24" fill="none" xmlns="http://www.w3.org/2000/svg">
<g clip-path="url(#clip0_0_21585)">
<path d="M41.603 6.85099V12.7186H39.53V8.60259H37.534V12.7186H35.4609V6.85059H41.603V6.85099Z" fill="black"/>
<path fill-rule="evenodd" clip-rule="evenodd" d="M31.2044 12.9285C33.0602 12.9285 34.4382 11.7785 34.4382 10.0351C34.4382 8.3477 33.4215 7.2521 31.7223 7.2521C30.9381 7.2521 30.291 7.5311 29.8036 8.0125C29.92 7.0175 30.7525 6.2911 31.6691 6.2911C31.8806 6.2911 33.4732 6.2877 33.4732 6.2877L34.3737 4.5459C34.3737 4.5459 32.3743 4.5919 31.4449 4.5919C29.3212 4.6293 27.8867 6.5803 27.8867 8.9499C27.8867 11.7105 29.2858 12.9285 31.2044 12.9285ZM31.2157 8.7949C31.9047 8.7949 32.3824 9.2525 32.3824 10.0349C32.3824 10.7391 31.958 11.3193 31.2157 11.3209C30.5057 11.3209 30.028 10.7833 30.028 10.0469C30.028 9.2643 30.5057 8.7949 31.2157 8.7949Z" fill="black"/>
<path d="M26.1986 10.7546C26.1986 10.7546 25.7091 11.0398 24.9779 11.0938C24.1373 11.119 23.3883 10.5824 23.3883 9.62897C23.3883 8.69897 24.0492 8.16597 24.9567 8.16597C25.5132 8.16597 26.2493 8.55577 26.2493 8.55577C26.2493 8.55577 26.7879 7.55677 27.0669 7.05717C26.556 6.66577 25.8755 6.45117 25.0839 6.45117C23.0863 6.45117 21.5391 7.76757 21.5391 9.61717C21.5391 11.4904 22.9933 12.7762 25.0839 12.7374C25.6683 12.7154 26.4745 12.508 26.9658 12.189L26.1986 10.7546Z" fill="black"/>
<path d="M0.707031 5.22461L3.58267 10.4196V13.5884L0.710395 18.7732L0.707031 5.22461Z" fill="#5B57A2"/>
<path d="M11.75 8.52987L14.4446 6.86067L19.9592 6.85547L11.75 11.9383V8.52987Z" fill="#D90751"/>
<path d="M11.7343 5.1934L11.7496 12.0714L8.86719 10.2814V0L11.7343 5.1934Z" fill="#FAB718"/>
<path d="M19.9587 6.8542L14.4439 6.8594L11.7343 5.1934L8.86719 0L19.9587 6.8542Z" fill="#ED6F26"/>
<path d="M11.7496 18.802V15.465L8.86719 13.709L8.86877 24.0006L11.7496 18.802Z" fill="#63B22F"/>
<path d="M14.4362 17.148L3.58247 10.4196L0.707031 5.22461L19.9458 17.1412L14.4362 17.148Z" fill="#1487C9"/>
<path d="M8.86719 24.001L11.7476 18.8024L14.4354 17.1484L19.9451 17.1416L8.86719 24.001Z" fill="#017F36"/>
<path d="M0.710938 18.7721L8.89005 13.7081L6.14026 12.0029L3.58321 13.5873L0.710938 18.7721Z" fill="#984995"/>
<path d="M23.3873 16.6679C23.324 16.7495 23.2407 16.8111 23.1407 16.8527C23.0382 16.8948 22.9285 16.9163 22.8178 16.9159C22.7077 16.9174 22.5982 16.8988 22.4946 16.8611C22.4016 16.8269 22.3166 16.7737 22.2449 16.7047C22.1742 16.6355 22.1186 16.5521 22.0819 16.4599C22.0421 16.3588 22.0223 16.2508 22.0235 16.1421C22.0235 16.0341 22.0419 15.9341 22.0801 15.8393C22.1167 15.7443 22.1699 15.6629 22.2366 15.5945C22.3033 15.5247 22.3832 15.4715 22.4731 15.4299C22.5647 15.3899 22.6646 15.3683 22.7745 15.3683C22.8928 15.3683 23.0026 15.3833 23.1025 15.4131C23.2025 15.4431 23.2874 15.4931 23.3572 15.5631L23.2357 15.7711C23.177 15.7172 23.1077 15.6764 23.0325 15.6511C22.961 15.6278 22.8862 15.616 22.8111 15.6163C22.7446 15.6163 22.6813 15.6295 22.6197 15.6545C22.5591 15.6791 22.5037 15.7153 22.4565 15.7611C22.4082 15.8081 22.3702 15.8648 22.3449 15.9275C22.3166 15.9923 22.3033 16.0639 22.3033 16.1437C22.3033 16.2253 22.3181 16.2985 22.3464 16.3617C22.3749 16.4267 22.4131 16.4817 22.4614 16.5281C22.5097 16.5749 22.5663 16.6097 22.6312 16.6331C22.6963 16.6581 22.7646 16.6697 22.8378 16.6697C22.9276 16.6697 23.0093 16.6513 23.0792 16.6163C23.1484 16.5825 23.2106 16.5356 23.2624 16.4783L23.3873 16.6679ZM23.7302 16.8809V15.3999H23.9934V16.5033L24.8493 15.3999H25.1124V16.8811H24.8493V15.7777L23.9934 16.8811L23.7302 16.8809ZM26.8558 16.6679C26.7911 16.7501 26.7061 16.8139 26.6094 16.8527C26.5068 16.8948 26.3971 16.9163 26.2863 16.9159C26.1763 16.9173 26.0669 16.8988 25.9633 16.8611C25.8703 16.8269 25.7852 16.7737 25.7134 16.7047C25.6427 16.6355 25.5871 16.5521 25.5504 16.4599C25.5106 16.3588 25.4908 16.2508 25.492 16.1421C25.492 16.0341 25.5104 15.9341 25.5486 15.8393C25.5854 15.7443 25.6386 15.6629 25.7051 15.5945C25.7718 15.5247 25.8517 15.4715 25.9416 15.4299C26.0365 15.3876 26.1393 15.3666 26.243 15.3683C26.3613 15.3683 26.4711 15.3833 26.571 15.4131C26.671 15.4431 26.7559 15.4931 26.8259 15.5631L26.7042 15.7711C26.6456 15.7172 26.5764 15.6763 26.5012 15.6511C26.4296 15.6278 26.3549 15.616 26.2798 15.6163C26.1475 15.6167 26.0204 15.6685 25.925 15.7611C25.8771 15.8084 25.8392 15.865 25.8134 15.9275C25.7851 15.9923 25.7718 16.0639 25.7718 16.1437C25.7718 16.2253 25.7868 16.2985 25.8151 16.3617C25.8434 16.4267 25.8816 16.4817 25.9299 16.5281C25.9782 16.5749 26.035 16.6097 26.0999 16.6331C26.1648 16.6563 26.2331 16.6697 26.3063 16.6697C26.3963 16.6697 26.4763 16.6513 26.5477 16.6163C26.6169 16.5825 26.6791 16.5356 26.7309 16.4783L26.8558 16.6679ZM26.9908 15.3999H28.3411V15.6629H27.7983V16.8809H27.5351V15.6629H26.9923V15.3999H26.9908Z" fill="black"/>
<path fill-rule="evenodd" clip-rule="evenodd" d="M29.5689 16.8666C29.6689 16.835 29.7537 16.7866 29.827 16.7202L29.747 16.5138C29.6987 16.5572 29.6338 16.5938 29.5557 16.6238C29.4773 16.6538 29.389 16.6686 29.2925 16.6686C29.1476 16.6686 29.0277 16.6304 28.9327 16.5522C28.8379 16.4738 28.7863 16.3642 28.7746 16.2242H29.9136C29.9253 16.1726 29.9303 16.1144 29.9303 16.0462C29.9303 15.9446 29.9119 15.8532 29.8752 15.77C29.8412 15.6892 29.7914 15.6162 29.7288 15.5552C29.6654 15.4948 29.5906 15.4479 29.509 15.4172C29.4235 15.3837 29.3325 15.3667 29.2408 15.3672C29.1176 15.3672 29.0093 15.3888 28.9145 15.4288C28.8249 15.4669 28.7439 15.523 28.6763 15.5936C28.6107 15.6639 28.5602 15.7472 28.5283 15.8382C28.4931 15.9351 28.4756 16.0377 28.4766 16.141C28.4766 16.2576 28.4966 16.364 28.5332 16.459C28.5688 16.551 28.6233 16.6344 28.6931 16.7036C28.7614 16.7716 28.8445 16.8234 28.9428 16.86C29.0481 16.8977 29.1592 16.9163 29.2709 16.9148C29.3721 16.9142 29.4726 16.8978 29.5689 16.8666ZM28.9028 15.7266C28.9844 15.6518 29.0926 15.6152 29.2292 15.6152C29.3574 15.6152 29.4607 15.6502 29.5357 15.7202C29.6107 15.79 29.6505 15.8866 29.6572 16.0096H28.758C28.7707 15.9007 28.8222 15.8 28.9028 15.7266Z" fill="black"/>
<path d="M30.2891 15.4004H30.5289L31.0984 16.1344L31.6378 15.4004H31.8709V16.8816H31.608V15.8016L31.095 16.4888H31.0849L30.5522 15.8014V16.8814H30.2891V15.4004Z" fill="black"/>
<path fill-rule="evenodd" clip-rule="evenodd" d="M32.5875 15.405C32.5076 15.4261 32.4313 15.4591 32.3611 15.503L32.4309 15.713C32.4909 15.683 32.5509 15.658 32.6108 15.6364C32.6708 15.6146 32.7474 15.6046 32.839 15.6046C32.9122 15.6046 32.9706 15.6164 33.0155 15.6396C33.0604 15.6612 33.0937 15.6946 33.117 15.7346C33.1404 15.7746 33.1554 15.8244 33.1637 15.8826C33.172 15.9408 33.1754 16.004 33.1754 16.0724C33.1215 16.0344 33.0602 16.0088 32.9955 15.9974C32.933 15.9848 32.8695 15.9781 32.8057 15.9774C32.7274 15.9774 32.6542 15.9892 32.5841 16.009C32.5143 16.029 32.4543 16.059 32.406 16.099C32.3567 16.1389 32.3169 16.1895 32.2895 16.247C32.2601 16.3099 32.2453 16.3788 32.2461 16.4484C32.2461 16.5932 32.2879 16.7064 32.371 16.7864C32.4543 16.8662 32.5641 16.906 32.7007 16.906C32.8239 16.906 32.9223 16.8844 32.9971 16.8412C33.0721 16.7978 33.132 16.748 33.1754 16.6914V16.8828H33.4217V15.9742C33.4217 15.781 33.3802 15.6314 33.2953 15.5264C33.212 15.4216 33.0638 15.3684 32.854 15.3684C32.7606 15.3684 32.6724 15.3816 32.5875 15.405ZM33.0274 16.605C32.9674 16.6482 32.889 16.668 32.7925 16.668C32.7076 16.668 32.6409 16.6464 32.5944 16.6048C32.5477 16.5616 32.5244 16.505 32.5244 16.435C32.5244 16.3936 32.5327 16.3586 32.5511 16.327C32.5695 16.2954 32.5944 16.2704 32.6227 16.2504C32.6537 16.2295 32.688 16.2142 32.7242 16.2054C32.7626 16.1954 32.8008 16.1904 32.8408 16.1904C32.9708 16.1904 33.0822 16.222 33.1738 16.2886V16.4766C33.1306 16.5255 33.0814 16.5688 33.0274 16.605ZM35.7449 14.879C35.7981 14.8542 35.848 14.8126 35.8947 14.751L35.7514 14.543C35.7148 14.593 35.6733 14.6278 35.6266 14.6462C35.5771 14.6657 35.5258 14.6802 35.4734 14.6894L35.4235 14.6984C35.3802 14.706 35.3337 14.7144 35.2836 14.7228C35.2033 14.7378 35.1251 14.7623 35.0505 14.796C34.9322 14.8476 34.8374 14.9174 34.7658 15.0056C34.6941 15.0938 34.6375 15.1936 34.5992 15.3036C34.5603 15.415 34.534 15.5305 34.521 15.648C34.5075 15.768 34.501 15.8826 34.501 15.9924C34.501 16.134 34.5192 16.262 34.5558 16.3768C34.5926 16.4918 34.6441 16.5882 34.7123 16.6664C34.7806 16.7464 34.8623 16.8064 34.9589 16.8496C35.0555 16.8928 35.1637 16.9144 35.2852 16.9144C35.3968 16.9144 35.5001 16.8928 35.5933 16.8528C35.6832 16.8143 35.7647 16.7584 35.8332 16.6882C35.8996 16.6198 35.9531 16.5382 35.9897 16.4468C36.0279 16.3552 36.0463 16.257 36.0463 16.1538C36.0463 16.0424 36.0297 15.941 35.998 15.851C35.9688 15.7652 35.9223 15.6864 35.8615 15.6198C35.8004 15.5542 35.7259 15.503 35.6432 15.4698C35.552 15.4335 35.4548 15.4154 35.3569 15.4166C35.2935 15.4166 35.232 15.425 35.172 15.4416C35.1137 15.4582 35.0577 15.4822 35.0054 15.5132C34.9547 15.5425 34.9082 15.5789 34.8673 15.6212C34.8273 15.663 34.7941 15.7096 34.7707 15.7628H34.764C34.7691 15.6946 34.7775 15.6248 34.7923 15.5532C34.8073 15.4816 34.8289 15.4132 34.8574 15.3484C34.8857 15.2836 34.9223 15.2252 34.9672 15.172C35.0154 15.1183 35.0744 15.0757 35.1404 15.0472C35.2129 15.0123 35.2896 14.9871 35.3685 14.9724L35.4208 14.9628C35.4728 14.9532 35.5225 14.944 35.57 14.934C35.6333 14.9208 35.6915 14.9038 35.7449 14.879ZM34.819 16.302C34.7933 16.2179 34.7809 16.1303 34.7824 16.0424C34.7936 15.9919 34.8139 15.9439 34.8424 15.901C34.8707 15.856 34.9073 15.8162 34.9506 15.781C35.0484 15.7035 35.1693 15.6619 35.2935 15.663C35.4485 15.663 35.565 15.7112 35.6466 15.8062C35.7283 15.9026 35.7683 16.0224 35.7683 16.1672C35.7683 16.2388 35.7548 16.3038 35.7316 16.3636C35.7091 16.4226 35.6751 16.4764 35.6317 16.5218C35.5882 16.5673 35.5361 16.6034 35.4786 16.6282C35.4186 16.6548 35.3535 16.6682 35.2803 16.6682C35.2071 16.6682 35.1404 16.6532 35.0788 16.6232C35.0177 16.5938 34.9636 16.5512 34.9205 16.4984C34.8754 16.4395 34.841 16.373 34.819 16.302ZM38.0645 15.4H37.8013V16.8812H38.0645V15.4ZM36.4258 15.4H36.689V15.8444H36.9322C37.047 15.8444 37.1402 15.8594 37.2152 15.8876C37.2902 15.916 37.3501 15.9542 37.3951 16.0008C37.44 16.0474 37.4716 16.1024 37.49 16.1638C37.5082 16.2254 37.5183 16.2886 37.5183 16.3552C37.5183 16.4218 37.5082 16.4852 37.4867 16.5484C37.4667 16.6116 37.4317 16.6664 37.385 16.7164C37.3385 16.7664 37.2751 16.8064 37.1952 16.8364C37.1152 16.8662 37.0187 16.8828 36.9021 16.8828H36.4242V15.4H36.4258ZM36.689 16.0922V16.6348H36.8806C37.0121 16.6348 37.1053 16.6116 37.1586 16.5648C37.212 16.5182 37.2385 16.4518 37.2385 16.3636C37.2385 16.2736 37.2102 16.2056 37.157 16.1588C37.102 16.1122 37.0104 16.0888 36.8839 16.0888H36.689V16.0922Z" fill="black"/>
<path d="M39.8053 16.6679C39.7419 16.7495 39.6586 16.8111 39.5587 16.8527C39.4562 16.8948 39.3465 16.9163 39.2358 16.9159C39.1257 16.9174 39.0162 16.8988 38.9126 16.8611C38.8196 16.827 38.7345 16.7737 38.6629 16.7047C38.5921 16.6355 38.5365 16.5521 38.4996 16.4599C38.46 16.3587 38.4403 16.2508 38.4415 16.1421C38.4415 16.0341 38.4597 15.9341 38.4981 15.8393C38.5347 15.7443 38.5879 15.6629 38.6546 15.5945C38.7213 15.5247 38.801 15.4715 38.891 15.4299C38.9859 15.3876 39.0887 15.3666 39.1924 15.3683C39.3106 15.3683 39.4206 15.3833 39.5205 15.4131C39.6204 15.4431 39.7053 15.4931 39.7752 15.5631L39.6537 15.7711C39.5949 15.7172 39.5257 15.6764 39.4505 15.6511C39.3789 15.6278 39.3042 15.616 39.229 15.6163C39.1625 15.6163 39.0992 15.6295 39.0375 15.6545C38.9769 15.6791 38.9216 15.7153 38.8744 15.7611C38.8265 15.8084 38.7886 15.865 38.7628 15.9275C38.7345 15.9923 38.7213 16.0639 38.7213 16.1437C38.7213 16.2253 38.7361 16.2985 38.7644 16.3617C38.7927 16.4267 38.8311 16.4817 38.8794 16.5281C38.9277 16.5749 38.9843 16.6097 39.0492 16.6331C39.1143 16.6563 39.1825 16.6697 39.2557 16.6697C39.3456 16.6697 39.4255 16.6513 39.4972 16.6163C39.5664 16.5825 39.6286 16.5356 39.6804 16.4783L39.8053 16.6679ZM39.94 15.3999H41.2906V15.6629H40.7476V16.8809H40.4846V15.6629H39.9418V15.3999H39.94Z" fill="black"/>
<path fill-rule="evenodd" clip-rule="evenodd" d="M41.8413 15.3987H41.5781V17.5387H41.8413V16.8115C41.8945 16.8465 41.9579 16.8715 42.0311 16.8881C42.1043 16.9047 42.1809 16.9129 42.2592 16.9129C42.3758 16.9129 42.4807 16.8913 42.5757 16.8515C42.6668 16.8122 42.7493 16.7551 42.8187 16.6835C42.8869 16.6117 42.9386 16.5285 42.9752 16.4303C43.0118 16.3323 43.0302 16.2273 43.0302 16.1159C43.0302 16.0059 43.0136 15.9045 42.9819 15.8129C42.9521 15.726 42.9057 15.6457 42.8454 15.5767C42.7862 15.5095 42.7127 15.4566 42.6305 15.4219C42.5406 15.3829 42.4435 15.3636 42.3457 15.3653C42.2426 15.3653 42.1461 15.3853 42.0544 15.4253C41.9628 15.4653 41.8912 15.5133 41.8413 15.5733V15.3987ZM42.0246 15.6733C42.0995 15.6333 42.1811 15.6133 42.2693 15.6133C42.3459 15.6133 42.4142 15.6249 42.4759 15.6499C42.5359 15.6749 42.5857 15.7099 42.6275 15.7565C42.6691 15.8031 42.7007 15.8565 42.7207 15.9195C42.7423 15.9827 42.7524 16.0511 42.7524 16.1259C42.7524 16.2059 42.7389 16.2773 42.7158 16.3439C42.6939 16.4071 42.6593 16.4649 42.614 16.5137C42.5686 16.562 42.5136 16.5999 42.4526 16.6251C42.3846 16.6539 42.3114 16.6681 42.2377 16.6667C42.1662 16.6667 42.0995 16.6585 42.0362 16.6419C41.9669 16.6229 41.9011 16.5925 41.8415 16.5519V15.8179C41.888 15.7615 41.9498 15.7133 42.0246 15.6733ZM45.0484 15.3985H44.7852V16.8797H45.0484V15.3985ZM43.4082 15.3985H43.6713V15.8429H43.9143C44.0293 15.8429 44.1225 15.8579 44.1975 15.8861C44.2725 15.9145 44.3325 15.9527 44.3774 15.9993C44.4223 16.0459 44.454 16.1009 44.4722 16.1623C44.4906 16.2239 44.5005 16.2871 44.5005 16.3537C44.5005 16.4203 44.4906 16.4837 44.469 16.5469C44.449 16.6101 44.414 16.6649 44.3673 16.7149C44.3208 16.7649 44.2575 16.8049 44.1775 16.8349C44.0976 16.8647 44.001 16.8813 43.8845 16.8813H43.4066V15.3985H43.4082ZM43.6731 16.0907V16.6333H43.8647C43.9961 16.6333 44.0895 16.6101 44.1427 16.5633C44.1959 16.5167 44.2226 16.4503 44.2226 16.3621C44.2226 16.2721 44.1943 16.2041 44.1411 16.1573C44.0861 16.1107 43.9945 16.0873 43.868 16.0873H43.6731V16.0907Z" fill="black"/>
<path d="M46.308 16.1144L46.8708 16.8816H46.5478L46.1131 16.2824L45.6718 16.8816H45.3655L45.9249 16.1276L45.3987 15.4004H45.7218L46.1232 15.9596L46.531 15.4004H46.8375L46.308 16.1144ZM23.1918 18.7122H22.3843V19.947H22.1211V18.466H23.4548V19.947H23.1918V18.7122ZM24.9485 18.7288H24.429L24.4122 18.9784C24.394 19.1898 24.369 19.3596 24.334 19.4892C24.299 19.6192 24.2557 19.719 24.2058 19.7888C24.1559 19.8588 24.0976 19.907 24.0309 19.9304C23.9621 19.9556 23.8893 19.968 23.8162 19.967L23.7962 19.7106C23.8245 19.7122 23.8577 19.7056 23.8943 19.689C23.9311 19.6724 23.9677 19.6358 24.0026 19.581C24.0376 19.5242 24.0693 19.4444 24.0976 19.3412C24.1258 19.2364 24.1443 19.1 24.1541 18.9284L24.1809 18.4674H25.2116V19.9486H24.9485V18.7288Z" fill="black"/>
<path fill-rule="evenodd" clip-rule="evenodd" d="M25.9234 18.4682C25.8383 18.4914 25.7617 18.5246 25.6968 18.5662L25.7669 18.776C25.8268 18.746 25.8868 18.721 25.9466 18.6994C26.0065 18.6778 26.0833 18.6678 26.1747 18.6678C26.2481 18.6678 26.3063 18.6794 26.3512 18.7026C26.3964 18.7244 26.4296 18.7576 26.453 18.7976C26.4761 18.8376 26.4911 18.8876 26.4995 18.9456C26.5078 19.004 26.5111 19.0672 26.5111 19.1354C26.4573 19.0976 26.3959 19.072 26.3313 19.0606C26.2687 19.0481 26.2052 19.0414 26.1415 19.0406C26.0633 19.0406 25.9899 19.0522 25.9201 19.0722C25.85 19.0922 25.79 19.1222 25.7418 19.1622C25.6925 19.2022 25.6526 19.2527 25.6252 19.3102C25.5959 19.3732 25.5812 19.4421 25.5821 19.5116C25.5821 19.6562 25.6236 19.7696 25.7069 19.8494C25.79 19.9292 25.9001 19.9692 26.0366 19.9692C26.1599 19.9692 26.258 19.9476 26.333 19.9042C26.4078 19.861 26.4678 19.811 26.5111 19.7544V19.9458H26.7577V19.0372C26.7577 18.8442 26.7159 18.6944 26.631 18.5896C26.5477 18.4846 26.3995 18.4316 26.1898 18.4316C26.0998 18.4317 26.0102 18.4442 25.9234 18.4682ZM26.3647 19.6678C26.3049 19.7112 26.2266 19.7312 26.13 19.7312C26.0433 19.7312 25.9784 19.7096 25.9319 19.6678C25.8852 19.6246 25.8619 19.568 25.8619 19.4982C25.8619 19.4566 25.8702 19.4216 25.8886 19.39C25.9068 19.3584 25.9319 19.3334 25.9602 19.3134C25.9885 19.2934 26.0233 19.2784 26.0617 19.2684C26.0998 19.2585 26.139 19.2535 26.1783 19.2536C26.3081 19.2536 26.4197 19.2852 26.5113 19.3516V19.5396C26.4681 19.5885 26.4188 19.6316 26.3647 19.6678Z" fill="black"/>
<path d="M27.0156 18.4648H28.3662V18.7276H27.8232V19.9458H27.5602V18.7278H27.0174V18.4648H27.0156Z" fill="black"/>
<path fill-rule="evenodd" clip-rule="evenodd" d="M29.5925 19.9312C29.6925 19.8996 29.7774 19.8512 29.8506 19.7848L29.7706 19.5784C29.7224 19.6218 29.6575 19.6584 29.5791 19.6884C29.5009 19.7184 29.4127 19.7332 29.3161 19.7332C29.1713 19.7332 29.0513 19.695 28.9564 19.6168C28.8614 19.5386 28.8099 19.4288 28.7982 19.2888H29.9373C29.9487 19.2374 29.9539 19.179 29.9539 19.1108C29.9539 19.0094 29.9355 18.9178 29.8989 18.8346C29.8648 18.7538 29.8149 18.6808 29.7522 18.62C29.6889 18.5595 29.6142 18.5125 29.5326 18.4818C29.4471 18.4483 29.3561 18.4313 29.2645 18.4318C29.1412 18.4318 29.0329 18.4534 28.9382 18.4934C28.8485 18.5314 28.7674 18.5875 28.6999 18.6582C28.6343 18.7285 28.5838 18.8118 28.5517 18.9028C28.5166 18.9998 28.4991 19.1024 28.5 19.2056C28.5 19.3222 28.52 19.4286 28.5566 19.5236C28.5934 19.6184 28.6483 19.7 28.7165 19.7682C28.7848 19.8364 28.8681 19.888 28.9664 19.9246C29.0717 19.9624 29.1827 19.981 29.2943 19.9796C29.3927 19.9796 29.4926 19.9628 29.5925 19.9312ZM28.9249 18.7896C29.0064 18.7148 29.1147 18.6782 29.2512 18.6782C29.3812 18.6782 29.4827 18.7148 29.5577 18.783C29.6325 18.853 29.6725 18.9494 29.6792 19.0726H28.78C28.7927 18.9636 28.8442 18.863 28.9249 18.7896ZM30.0821 18.4652H30.4152L30.9229 19.1792L30.3801 19.9462H30.0572L30.6265 19.179L30.0821 18.4652ZM30.9878 18.4652H31.251V19.9462H30.9878V18.4652ZM32.1917 19.9462L31.6123 19.179L32.1536 18.465H31.827L31.3159 19.179L31.8654 19.9462H32.1917ZM33.3941 19.9312C33.494 19.8996 33.5789 19.8512 33.6521 19.7848L33.5722 19.5784C33.5239 19.6218 33.459 19.6584 33.3808 19.6884C33.3025 19.7184 33.2142 19.7332 33.1176 19.7332C32.9728 19.7332 32.8529 19.695 32.7579 19.6168C32.6631 19.5386 32.6115 19.4288 32.5998 19.2888H33.7388C33.7505 19.2374 33.7554 19.179 33.7554 19.1108C33.7554 19.0094 33.7372 18.9178 33.7004 18.8346C33.6663 18.7539 33.6165 18.6809 33.554 18.62C33.4906 18.5595 33.4158 18.5125 33.3341 18.4818C33.2486 18.4483 33.1577 18.4313 33.066 18.4318C32.9429 18.4318 32.8347 18.4534 32.7397 18.4934C32.6501 18.5315 32.5691 18.5875 32.5016 18.6582C32.4359 18.7284 32.3854 18.8117 32.3534 18.9028C32.3182 18.9998 32.3007 19.1024 32.3018 19.2056C32.3018 19.3222 32.3218 19.4286 32.3584 19.5236C32.395 19.6184 32.45 19.7 32.5183 19.7682C32.5865 19.8364 32.6696 19.888 32.768 19.9246C32.8733 19.9624 32.9844 19.981 33.0961 19.9796C33.1973 19.9788 33.2978 19.9625 33.3941 19.9312ZM32.7264 18.7896C32.8082 18.7148 32.9164 18.6782 33.0529 18.6782C33.1812 18.6782 33.2843 18.7148 33.3593 18.783C33.4343 18.853 33.4742 18.9494 33.4808 19.0726H32.5816C32.5943 18.9636 32.6458 18.863 32.7264 18.7896ZM34.823 17.9676C34.6681 17.9676 34.5832 17.881 34.5699 17.708H34.3218C34.3218 17.7744 34.3334 17.8344 34.355 17.891C34.3768 17.9476 34.4084 17.9958 34.45 18.0358C34.4915 18.0758 34.545 18.1074 34.6065 18.1322C34.6681 18.1572 34.7397 18.1688 34.8212 18.1688C34.8962 18.1688 34.9629 18.1572 35.0229 18.1322C35.0828 18.109 35.1327 18.0758 35.176 18.0358C35.2176 17.9958 35.251 17.9476 35.2742 17.891C35.2975 17.8344 35.3092 17.7744 35.3092 17.708H35.0628C35.0512 17.881 34.9694 17.9676 34.823 17.9676ZM34.1118 18.465V19.9462H34.375L35.2308 18.8428V19.9462H35.494V18.465H35.2308L34.375 19.5684V18.465H34.1118Z" fill="black"/>
</g>
<defs>
<clipPath id="clip0_0_21585">
<rect width="47.2941" height="24" fill="white" transform="translate(0.707031)"/>
</clipPath>
</defs>
</svg>
