<svg width="75" height="39" viewBox="0 0 75 39" fill="none" xmlns="http://www.w3.org/2000/svg">
<path d="M32.5162 16.1864C30.827 16.1864 29.4942 15.5727 28.5176 14.3454C27.541 13.1049 27.0527 11.3629 27.0527 9.11945C27.0527 6.92876 27.5344 5.19997 28.4978 3.93307C29.4744 2.66617 30.8732 2.03271 32.6944 2.03271C33.3279 2.03271 33.8953 2.12509 34.3968 2.30985C34.8983 2.48141 35.3074 2.67936 35.6241 2.90371V4.82386C35.2678 4.59951 34.8455 4.38836 34.3572 4.19041C33.8689 3.99245 33.3543 3.89348 32.8132 3.89348C31.6519 3.89348 30.8073 4.32238 30.2794 5.18017C29.7515 6.03797 29.4876 7.35106 29.4876 9.11945C29.4876 10.835 29.7515 12.1349 30.2794 13.0191C30.8073 13.8901 31.6123 14.3256 32.6944 14.3256C33.3279 14.3256 33.8755 14.2332 34.3374 14.0485C34.7993 13.8505 35.2282 13.6064 35.6241 13.3161V15.2362C35.3206 15.4474 34.9115 15.6585 34.3968 15.8697C33.8821 16.0808 33.2553 16.1864 32.5162 16.1864Z" fill="black"/>
<path d="M37.1143 6.03137H44.8741V15.9884H42.5185V7.89214H39.47V15.9884H37.1143V6.03137Z" fill="black"/>
<path d="M46.0655 13.9495C46.0655 13.9495 46.1117 13.9825 46.2041 14.0485C46.2965 14.1013 46.4285 14.1277 46.6 14.1277C46.9827 14.1277 47.2335 13.9297 47.3522 13.5338C47.471 13.1379 47.5502 12.4121 47.5898 11.3563L47.7877 6.03137H54.5379V15.9884H52.1823V7.89214H49.7871L49.6485 11.4553C49.5957 13.1049 49.3912 14.3058 49.0348 15.058C48.6785 15.8103 47.9989 16.1864 46.9959 16.1864C46.7188 16.1864 46.4944 16.1534 46.3229 16.0874C46.1513 16.0214 46.0655 15.9884 46.0655 15.9884V13.9495Z" fill="black"/>
<path d="M56.5231 6.03137H58.8193V12.1877L62.4617 6.03137H64.5006V15.9884H62.2043V9.83208L58.562 15.9884H56.5231V6.03137Z" fill="black"/>
<path d="M73.7832 7.89214H71.0119V15.9884H68.6562V7.89214H65.8849V6.03137H73.7832V7.89214Z" fill="black"/>
<g clip-path="url(#clip0_1_10703)">
<path d="M16.1651 9.18008L22.5834 15.7526L22.4525 15.8719L22.3972 15.9243C20.6 17.5274 18.2451 18.3605 15.8396 18.2443C13.4341 18.1281 11.1705 17.0717 9.53625 15.3028C7.90199 13.5339 7.02783 11.1939 7.10202 8.78674C7.17621 6.37959 8.19282 4.09787 9.93292 2.43296C11.722 0.795716 14.0841 -0.0707374 16.5075 0.0212973C18.9309 0.113332 21.2205 1.15644 22.8802 2.92466L16.1651 9.18008Z" fill="#01B94F"/>
<path d="M9.93783 2.42993C11.7266 0.794119 14.0878 -0.0711959 16.5101 0.02138C18.9323 0.113956 21.2205 1.15697 22.8793 2.92454C22.8793 2.92454 17.5403 7.92306 17.4327 8.01035C17.4327 8.01035 16.2369 9.13632 16.2456 9.15378C16.2543 9.17124 22.5709 15.7263 22.5709 15.7263L22.4428 15.8485L22.3876 15.9009C18.6169 19.2177 12.8386 19.0664 9.42576 15.3772C7.7868 13.5876 6.92106 11.223 7.01696 8.79817C7.11287 6.37334 8.16265 4.08453 9.93783 2.42993V2.42993Z" fill="url(#paint0_radial_1_10703)"/>
<path d="M9.94151 2.4244C11.7317 0.790755 14.0931 -0.0725926 16.5148 0.0210552C18.9366 0.114703 21.2242 1.15782 22.8829 2.92484C22.8829 2.92484 17.6866 7.81279 17.4742 7.98446C17.4742 7.98446 16.3104 9.09588 16.3308 9.1308C16.3744 9.23554 22.5629 15.6975 22.5629 15.6975L22.4349 15.8197L22.3796 15.8721C18.6176 19.1831 12.8365 19.0202 9.43526 15.3426C7.79875 13.5579 6.93371 11.1988 7.02853 8.77925C7.12335 6.35968 8.17036 4.07557 9.94151 2.4244V2.4244Z" fill="url(#paint1_radial_1_10703)"/>
<path d="M9.94731 2.42142C11.7376 0.789919 14.0979 -0.0718174 16.5183 0.0223624C18.9386 0.116542 21.2248 1.15908 22.8829 2.92477C22.8829 2.92477 17.835 7.69925 17.5091 7.9582C17.5091 7.9582 16.386 9.05217 16.4064 9.10454C16.4733 9.26165 22.5513 15.6713 22.5513 15.6713L22.4203 15.7935L22.365 15.8429C18.6147 19.1452 12.8364 18.9765 9.44106 15.3076C7.8072 13.5279 6.94347 11.1743 7.03831 8.76017C7.13315 6.34608 8.17886 4.06746 9.94731 2.42142V2.42142Z" fill="url(#paint2_radial_1_10703)"/>
<path d="M9.95074 2.41841C11.7413 0.788161 14.1011 -0.0725159 16.5208 0.0222023C18.9405 0.116921 21.2258 1.15943 22.8835 2.92466C22.8835 2.92466 17.981 7.57986 17.5474 7.93191C17.5474 7.93191 16.4593 9.01134 16.4884 9.08117C16.5757 9.29065 22.5401 15.645 22.5401 15.645L22.4121 15.7643C22.4121 15.7643 22.3568 15.8138 22.3568 15.8167C18.6152 19.1073 12.837 18.9269 9.45031 15.2726C7.81907 13.4983 6.95612 11.1507 7.04988 8.7423C7.14364 6.33394 8.1865 4.0605 9.95074 2.41841V2.41841Z" fill="url(#paint3_radial_1_10703)"/>
<path d="M9.95599 2.41263C11.747 0.784891 14.106 -0.0736667 16.5243 0.0221278C18.9425 0.117922 21.2263 1.16039 22.8829 2.9247C22.8829 2.9247 18.1288 7.47515 17.5847 7.90576C17.5847 7.90576 16.5315 8.96773 16.5664 9.05501C16.6769 9.31687 22.5308 15.6159 22.5279 15.6188L22.3999 15.7381L22.3446 15.7905C18.6118 19.0666 12.8364 18.8833 9.45847 15.2377C7.83005 13.468 6.96831 11.1256 7.06154 8.72253C7.15476 6.31941 8.19537 4.05088 9.95599 2.41263V2.41263Z" fill="url(#paint4_radial_1_10703)"/>
<path d="M9.95904 2.40962C11.7503 0.783136 14.1089 -0.0743633 16.5264 0.0219693C18.944 0.118302 21.2269 1.16075 22.883 2.9246C22.883 2.9246 18.2744 7.3645 17.6227 7.87075C17.6227 7.87075 16.6043 8.91526 16.648 9.02C16.7789 9.33423 22.5193 15.578 22.5193 15.578L22.3913 15.7264L22.336 15.7759C18.609 19.0287 12.8365 18.8396 9.46443 15.2027C7.83901 13.438 6.97855 11.1015 7.07124 8.70406C7.16392 6.30667 8.20222 4.04353 9.95904 2.40962V2.40962Z" fill="url(#paint5_radial_1_10703)"/>
<path d="M9.96329 2.40685C11.7547 0.781626 14.1129 -0.0748151 16.5298 0.0220554C18.9467 0.118926 21.2288 1.16135 22.8844 2.92474C22.8844 2.92474 18.4212 7.25407 17.6618 7.87089C17.6618 7.87089 16.6755 8.89794 16.725 9.02014C16.8908 9.37219 22.509 15.5636 22.5061 15.5636L22.3781 15.6829L22.3228 15.7353C18.6074 18.991 12.835 18.7931 9.47159 15.1679C7.84843 13.4086 6.98877 11.0777 7.08093 8.68579C7.1731 6.29388 8.20957 4.03602 9.96329 2.40685V2.40685Z" fill="url(#paint6_radial_1_10703)"/>
<path d="M9.96773 2.40104C11.7598 0.777438 14.1178 -0.077436 16.5339 0.020517C18.9501 0.11847 21.2312 1.16141 22.8859 2.92475C22.8859 2.92475 18.5682 7.14062 17.7012 7.83017C17.7012 7.83017 16.7498 8.84267 16.808 8.99396C16.9825 9.41293 22.4989 15.5491 22.496 15.5491C22.4931 15.5491 22.3767 15.6625 22.368 15.6684L22.3127 15.7178C18.606 18.9532 12.8336 18.7495 9.47893 15.1446C7.85428 13.3897 6.9931 11.0614 7.08476 8.67164C7.17642 6.28189 8.21342 4.02637 9.96773 2.40104V2.40104Z" fill="url(#paint7_radial_1_10703)"/>
<path d="M9.97348 2.39808C11.7656 0.776613 14.1225 -0.0766554 16.5373 0.0218289C18.9521 0.120313 21.2317 1.16268 22.8858 2.9247C22.8858 2.9247 18.7165 7.03 17.7389 7.80393C17.7389 7.80393 16.8224 8.79898 16.8894 8.96773C17.0843 9.43907 22.4872 15.5199 22.4872 15.5228L22.3592 15.6421L22.3039 15.6916C18.606 18.9269 12.8335 18.7145 9.50215 15.1097C7.87937 13.3613 7.01741 11.04 7.10579 8.65629C7.19418 6.27252 8.22569 4.02145 9.97348 2.39808V2.39808Z" fill="url(#paint8_radial_1_10703)"/>
<path d="M9.97667 2.39532C11.769 0.775108 14.1255 -0.0771048 16.5396 0.0219172C18.9537 0.120939 21.2325 1.16329 22.8861 2.92485C22.8861 2.92485 18.8623 6.91668 17.7654 7.77789C17.7654 7.77789 16.8925 8.75839 16.9566 8.94169C17.1835 9.45667 22.4788 15.4822 22.4759 15.4852L22.3479 15.6015C22.3479 15.6015 22.2984 15.6481 22.2926 15.6539C18.6033 18.8776 12.8338 18.6565 9.49078 15.072C8.69028 14.2078 8.06785 13.1943 7.65903 12.0895C7.25022 10.9847 7.06303 9.81018 7.10814 8.63303C7.15326 7.45587 7.42981 6.29914 7.92199 5.22887C8.41418 4.1586 9.11236 3.19576 9.97667 2.39532V2.39532Z" fill="url(#paint9_radial_1_10703)"/>
<path d="M9.98138 2.38932C11.7741 0.77161 14.1299 -0.0784902 16.5425 0.0216072C18.9552 0.121705 21.2324 1.16402 22.885 2.92467C22.885 2.92467 19.0096 6.80594 17.8137 7.75153C17.8137 7.75153 16.9671 8.71748 17.0486 8.91533C17.2871 9.49723 22.466 15.4646 22.466 15.4675L22.338 15.5839L22.2827 15.6334C18.5993 18.8396 12.8327 18.6127 9.50131 15.0311C7.88887 13.2909 7.03361 10.9815 7.12364 8.6108C7.21366 6.2401 8.2416 4.00223 9.98138 2.38932V2.38932Z" fill="url(#paint10_radial_1_10703)"/>
<path d="M9.98578 2.38658C11.7792 0.769944 14.135 -0.0791803 16.5475 0.021452C18.9599 0.122084 21.2368 1.16445 22.8894 2.92484C22.8894 2.92484 19.1565 6.70719 17.8531 7.72842C17.8531 7.72842 17.0442 8.67401 17.1286 8.89222C17.3904 9.51194 22.4588 15.4357 22.4559 15.4357L22.3279 15.555L22.2726 15.6044C18.6008 18.8049 12.8342 18.5721 9.51153 15.0022C8.71355 14.1431 8.09276 13.1351 7.68467 12.0359C7.27658 10.9366 7.0892 9.76776 7.13325 8.59606C7.1773 7.42436 7.45191 6.27283 7.94137 5.20735C8.43083 4.14187 9.12555 3.18334 9.98578 2.38658V2.38658Z" fill="url(#paint11_radial_1_10703)"/>
<path d="M9.99178 2.38339C11.7853 0.768883 14.14 -0.0786404 16.5511 0.0225227C18.9621 0.123686 21.2376 1.16548 22.8896 2.92455C22.8896 2.92455 19.3051 6.58179 17.8911 7.70195C17.8911 7.70195 17.1171 8.63299 17.2102 8.86575C17.5012 9.54657 22.4473 15.4092 22.4473 15.4121L22.3193 15.5314C22.3193 15.5314 22.2699 15.5751 22.267 15.5809C18.601 18.7813 12.8373 18.5282 9.52044 14.9699C6.20361 11.4116 6.36945 5.66821 9.99178 2.38339Z" fill="url(#paint12_radial_1_10703)"/>
<path d="M9.99362 2.37759C11.7877 0.764708 14.1423 -0.0812518 16.5526 0.0209927C18.963 0.123237 21.2374 1.16555 22.8885 2.92458C22.8885 2.92458 19.4495 6.46543 17.9424 7.66997C17.9424 7.66997 17.2004 8.58355 17.3023 8.83376C17.6078 9.56696 22.4463 15.3743 22.4463 15.3772L22.3182 15.4936L22.263 15.5431C18.5941 18.7231 12.8187 18.4758 9.52519 14.9263C6.23164 11.3767 6.38003 5.65369 9.99362 2.37759Z" fill="url(#paint13_radial_1_10703)"/>
<path d="M10.001 2.37489C11.7952 0.76414 14.1487 -0.0802216 16.5576 0.0225534C18.9666 0.125328 21.2396 1.16707 22.8901 2.92479C22.8901 2.92479 19.5994 6.35799 17.9701 7.64981C17.9701 7.64981 17.2631 8.54884 17.3707 8.81361C17.6995 9.59626 22.4216 15.3483 22.4216 15.3512L22.2936 15.4676L22.2383 15.5171C18.5956 18.6855 12.8203 18.4295 9.53256 14.8915C6.24482 11.3536 6.39321 5.63935 10.001 2.37489Z" fill="url(#paint14_radial_1_10703)"/>
<path d="M10.0022 2.3719C11.7966 0.762398 14.1496 -0.0809102 16.5579 0.022402C18.9662 0.125714 21.2383 1.16744 22.8883 2.9247C22.8883 2.9247 19.7432 6.24735 18.0062 7.62354C18.0062 7.62354 17.3341 8.49639 17.4505 8.78734C17.7996 9.61655 22.4199 15.3221 22.4199 15.325L22.2948 15.4414L22.2395 15.4908C18.591 18.636 12.8186 18.3858 9.53955 14.8536C6.26054 11.3215 6.4002 5.62763 10.0022 2.3719Z" fill="url(#paint15_radial_1_10703)"/>
<path d="M10.0087 2.36601C11.8043 0.759526 14.1569 -0.0812951 16.564 0.023079C18.9711 0.127453 21.242 1.16875 22.8919 2.92463C22.8919 2.92463 19.8922 6.12508 18.0563 7.59729C18.0563 7.59729 17.4191 8.47014 17.5413 8.76109C17.9021 9.65139 22.4206 15.2929 22.4031 15.2958L22.2751 15.4122C22.2581 15.4302 22.2396 15.4467 22.2198 15.4617C18.5917 18.6097 12.8192 18.345 9.54895 14.8216C6.27868 11.2982 6.41834 5.61301 10.0087 2.36601Z" fill="url(#paint16_radial_1_10703)"/>
<path d="M10.0117 2.36337C11.8095 0.7593 14.1635 -0.0778444 16.5704 0.0308941C18.9774 0.139633 21.2462 1.18563 22.8921 2.94527C22.8921 2.94527 20.0379 6.02352 18.0827 7.5801C18.0827 7.5801 17.4804 8.42967 17.6113 8.7439C18.0041 9.68948 22.3946 15.2786 22.3916 15.2815C22.3887 15.2844 22.284 15.3834 22.2636 15.3979L22.2113 15.4474C18.5889 18.5722 12.8194 18.2929 9.55494 14.7869C6.29049 11.281 6.41851 5.59873 10.0117 2.36337Z" fill="url(#paint17_radial_1_10703)"/>
<path d="M10.0154 2.36023C11.8125 0.75722 14.1654 -0.0792994 16.5711 0.0294347C18.9769 0.138169 21.2447 1.18353 22.8899 2.94213C22.8899 2.94213 20.1841 5.91854 18.1183 7.55659C18.1183 7.55659 17.551 8.3887 17.6877 8.72039C18.1038 9.71834 22.3837 15.2522 22.3778 15.2551L22.2527 15.3715L22.1974 15.421C18.5838 18.5341 12.8172 18.249 9.56149 14.7518C6.30576 11.2546 6.43087 5.58395 10.0154 2.36023Z" fill="url(#paint18_radial_1_10703)"/>
<path d="M10.0201 2.34277C11.8175 0.741346 14.1695 -0.0941675 16.5744 0.0145493C18.9792 0.123266 21.2463 1.1676 22.8918 2.92467C22.8918 2.92467 20.3314 5.79053 18.1609 7.51295C18.1609 7.51295 17.6256 8.32761 17.771 8.67675C18.2075 9.72708 22.3739 15.2086 22.371 15.2115L22.2429 15.3279L22.1877 15.3744C18.5857 18.4963 12.8191 18.2025 9.56917 14.7198C6.31926 11.2371 6.44437 5.56941 10.0201 2.34277Z" fill="url(#paint19_radial_1_10703)"/>
<path d="M10.0259 2.3428C11.8226 0.742441 14.1735 -0.0924487 16.5772 0.0162639C18.9808 0.124976 21.2468 1.16868 22.8917 2.9247C21.4452 4.56482 19.8763 6.09281 18.1986 7.49553C18.1986 7.49553 17.6982 8.29564 17.8524 8.65933C18.3092 9.76203 22.3621 15.1853 22.3592 15.1912L22.2341 15.3046L22.1788 15.3541C18.5827 18.4585 12.819 18.1588 9.57781 14.6849C6.33663 11.211 6.45301 5.54325 10.0259 2.3428Z" fill="url(#paint20_radial_1_10703)"/>
<path d="M10.0287 2.34287C11.8257 0.743212 14.1765 -0.0912149 16.5799 0.0174875C18.9833 0.12619 21.2492 1.16942 22.8945 2.92477C21.4683 4.56041 19.9114 6.07738 18.2393 7.46068C18.2393 7.46068 17.7767 8.24333 17.9483 8.62448C18.4284 9.78828 22.3708 15.1505 22.365 15.1534L22.2399 15.2698L22.1846 15.3192C18.5826 18.4178 12.8189 18.1123 9.58354 14.65C6.34817 11.1877 6.46455 5.54332 10.0287 2.34287Z" fill="url(#paint21_radial_1_10703)"/>
<path d="M10.0344 2.34257C11.8315 0.745364 14.1808 -0.087517 16.5826 0.0211611C18.9844 0.129839 21.249 1.1715 22.8944 2.92447C21.4906 4.56128 19.9444 6.07043 18.2741 7.43419C18.2741 7.43419 17.8464 8.2023 18.0123 8.59799C18.5127 9.81707 22.3416 15.1444 22.3387 15.1444C22.3358 15.1444 22.2369 15.2404 22.2107 15.2607L22.1583 15.3073C18.5796 18.3797 12.8188 18.0539 9.59218 14.6148C6.36554 11.1758 6.47319 5.54302 10.0344 2.34257Z" fill="url(#paint22_radial_1_10703)"/>
<path d="M10.0385 2.34287C11.8353 0.746543 14.1841 -0.0857965 16.5852 0.0228743C18.9863 0.131545 21.2502 1.17265 22.8955 2.92477C21.5144 4.56455 19.98 6.06879 18.3131 7.41703C18.3131 7.41703 17.9203 8.16768 18.092 8.58083C18.6186 9.84064 22.334 15.1039 22.3282 15.1068L22.2031 15.2203L22.1478 15.2698C18.5778 18.3451 12.82 18.0222 9.60205 14.5802C6.38414 11.1383 6.48597 5.51422 10.0385 2.34287Z" fill="url(#paint23_radial_1_10703)"/>
<path d="M10.0404 2.34268C11.8371 0.747234 14.1852 -0.0845644 16.5856 0.0240993C18.986 0.132763 21.2493 1.17332 22.8946 2.92458C21.537 4.56724 20.0131 6.06489 18.347 7.39357C18.347 7.39357 17.9891 8.12676 18.1695 8.55737C18.7165 9.86955 22.3185 15.0746 22.3156 15.0805L22.1875 15.1939L22.1323 15.2434C18.5769 18.3042 12.819 17.9754 9.6185 14.5451C6.41805 11.1148 6.49661 5.49948 10.0404 2.34268Z" fill="url(#paint24_radial_1_10703)"/>
<path d="M10.0444 2.34279C11.8408 0.749104 14.1876 -0.0816117 16.5866 0.0270375C18.9856 0.135687 21.2477 1.17514 22.8927 2.92469C21.5606 4.56791 20.0501 6.05799 18.3888 7.36749C18.3888 7.36749 18.0629 8.08614 18.2521 8.53129C18.834 9.89585 22.3254 15.0486 22.305 15.0544L22.1799 15.1679L22.1246 15.2144C18.5721 18.2665 12.8171 17.929 9.61666 14.5103C6.41621 11.0916 6.5035 5.48505 10.0444 2.34279Z" fill="url(#paint25_radial_1_10703)"/>
<path d="M10.0486 2.34269C11.8452 0.750572 14.1912 -0.079146 16.5893 0.0294862C18.9874 0.138118 21.2488 1.17656 22.8941 2.92459C21.5888 4.57137 20.0892 6.05434 18.428 7.34121C18.428 7.34121 18.137 8.0424 18.332 8.50501C18.9139 9.92193 22.3005 15.0194 22.2947 15.0223C22.2889 15.0252 22.1987 15.1125 22.1696 15.1358L22.1143 15.1852C18.5734 18.2286 12.8185 17.8852 9.61801 14.4753C6.41756 11.0654 6.51648 5.4704 10.0486 2.34269Z" fill="url(#paint26_radial_1_10703)"/>
<path d="M10.0546 2.3253C11.8532 0.736261 14.1999 -0.0898762 16.5973 0.0220095C18.9947 0.133895 21.2543 1.17501 22.8971 2.92465C22.8971 2.92465 21.5063 4.90311 18.4659 7.31508C18.4659 7.31508 18.2099 8.00172 18.4135 8.47888C19.0245 9.93363 22.289 14.9932 22.2861 14.9962L22.1581 15.1096L22.1057 15.1591C18.5707 18.1908 12.8186 17.8387 9.61813 14.4404C6.41768 11.0422 6.52534 5.45591 10.0546 2.3253Z" fill="url(#paint27_radial_1_10703)"/>
<path d="M10.0577 2.31963C11.8572 0.732898 14.2036 -0.0912302 16.6001 0.0217247C18.9966 0.13468 21.255 1.17585 22.8973 2.9248C22.8973 2.9248 21.655 4.78106 18.504 7.28905C18.3866 7.6681 18.3866 8.0738 18.504 8.45285C19.1382 9.97452 22.2863 14.9614 22.2863 14.9672L22.1612 15.0807L22.1059 15.1272C18.568 18.1531 12.8188 17.7953 9.63873 14.4086C6.45865 11.0219 6.5372 5.44443 10.0577 2.31963Z" fill="url(#paint28_radial_1_10703)"/>
<path d="M10.0631 2.31656C11.862 0.730558 14.2077 -0.0928987 16.6032 0.0206055C18.9987 0.13411 21.256 1.17566 22.8969 2.92464C22.8969 2.92464 21.8 4.67034 18.5327 7.25107C18.4299 7.63385 18.441 8.03831 18.5647 8.41487C19.2193 10.0093 22.2685 14.9438 22.2626 14.9496L22.1375 15.0631L22.0852 15.1096C18.5676 18.1151 12.8184 17.7631 9.64414 14.3735C6.46987 10.984 6.54843 5.42972 10.0631 2.31656Z" fill="url(#paint29_radial_1_10703)"/>
<path d="M10.066 2.31359C11.8651 0.728836 14.2103 -0.0935749 16.6051 0.0204652C19 0.134505 21.2564 1.17604 22.8968 2.92459C22.8968 2.92459 21.9483 4.56845 18.5791 7.23937C18.4981 7.62677 18.5232 8.02887 18.6519 8.40317C19.3298 10.0296 22.2597 14.9088 22.2538 14.9146L22.1287 15.0252L22.0734 15.0746C18.5646 18.0772 12.8183 17.7019 9.65281 14.3385C6.43781 10.9286 6.5571 5.41512 10.066 2.31359Z" fill="url(#paint30_radial_1_10703)"/>
<path d="M10.072 2.308C11.8718 0.72642 14.2161 -0.0934469 16.6093 0.0216544C19.0025 0.136756 21.2573 1.17781 22.8971 2.92481C22.8971 2.92481 22.094 4.44648 18.6172 7.20177C18.5572 7.59331 18.5972 7.99367 18.7336 8.36557C19.4318 10.0444 22.2482 14.8712 22.2424 14.8741L22.1173 14.9876L22.062 15.0341C18.5706 18.0164 12.8244 17.6527 9.65883 14.2835C6.49329 10.9143 6.56894 5.4008 10.072 2.308Z" fill="url(#paint31_radial_1_10703)"/>
<path d="M10.0754 2.30482C11.8759 0.724299 14.2203 -0.094608 16.6133 0.0210261C19.0063 0.13666 21.2607 1.17778 22.9005 2.92454C22.9005 2.92454 22.2429 4.33274 18.6584 7.17532C18.6192 7.5702 18.673 7.96878 18.8155 8.33912C19.5342 10.0935 22.2371 14.8535 22.2313 14.868L22.1062 14.9815L22.0538 15.0281C18.5624 17.9986 12.8191 17.6117 9.66809 14.2716C6.46764 10.8791 6.58111 5.38598 10.0754 2.30482Z" fill="url(#paint32_radial_1_10703)"/>
<path d="M10.0807 2.30208C11.881 0.722986 14.2244 -0.0947949 16.6163 0.0213778C19.0081 0.137551 21.2612 1.17859 22.9 2.92471C22.9 2.92471 22.3879 4.23399 18.6958 7.16094C18.6793 7.55846 18.7467 7.955 18.8936 8.32474C19.6355 10.1199 22.2279 14.8362 22.2221 14.8537L22.097 14.9642L22.0417 15.0108C18.559 17.961 12.8186 17.5682 9.67341 14.2339C6.48169 10.8531 6.58934 5.3716 10.0807 2.30208Z" fill="url(#paint33_radial_1_10703)"/>
<path d="M10.084 2.29619C11.8851 0.719395 14.2282 -0.0963829 16.6191 0.0208578C19.0101 0.138098 21.2621 1.1792 22.9003 2.92464C22.9003 2.92464 22.5366 4.12044 18.7339 7.13468C18.7402 7.53909 18.8221 7.93875 18.9754 8.31303C19.7406 10.1489 22.2166 14.8099 22.2108 14.8158L22.0857 14.9263L22.0333 14.9729C18.5593 17.9231 12.8189 17.5216 9.68247 14.1989C6.49657 10.8297 6.60131 5.35698 10.084 2.29619Z" fill="url(#paint34_radial_1_10703)"/>
<path d="M10.0889 2.2934C11.891 0.722799 14.232 -0.0877727 16.6195 0.0321446C19.007 0.152062 21.255 1.19312 22.8907 2.9364C22.8907 2.9364 22.6725 4.01 18.7621 7.10861C18.7959 7.51436 18.8941 7.91213 19.0531 8.28696C19.8415 10.1781 22.207 14.7839 22.2011 14.7897L22.076 14.9002C22.0563 14.9142 22.0378 14.9297 22.0208 14.9468C18.5555 17.8854 12.818 17.4722 9.6903 14.1641C6.51022 10.8037 6.60914 5.34546 10.0889 2.2934Z" fill="url(#paint35_radial_1_10703)"/>
<path d="M10.0925 2.29053C11.8947 0.719608 14.2361 -0.0909107 16.6238 0.0295608C19.0115 0.150032 21.2594 1.1921 22.8943 2.93644C22.8943 2.93644 22.8245 3.89949 18.8036 7.08248C18.8607 7.48866 18.9702 7.88572 19.1295 8.26373C19.9441 10.1986 22.1961 14.7548 22.1902 14.7606L22.0651 14.8712C22.0477 14.8712 22.0273 14.9061 22.0099 14.9178C18.5534 17.8476 12.8187 17.4316 9.69685 14.1293C6.5255 10.7805 6.62151 5.33096 10.0925 2.29053Z" fill="url(#paint36_radial_1_10703)"/>
<path d="M10.0975 2.28469C11.9011 0.715874 14.2426 -0.0927318 16.6299 0.0288037C19.0172 0.150339 21.2644 1.19255 22.8993 2.93641C22.8993 2.93641 22.975 3.79763 18.8464 7.05917C18.931 7.46339 19.0557 7.85813 19.2188 8.23752C20.048 10.2334 22.1894 14.7286 22.1807 14.7344C22.172 14.7402 22.0963 14.813 22.0556 14.845L22.0032 14.8915C18.5555 17.8156 12.8179 17.385 9.70476 14.0943C6.53632 10.7542 6.63233 5.31638 10.0975 2.28469Z" fill="url(#paint37_radial_1_10703)"/>
<path d="M10.1022 2.28174C11.9062 0.712964 14.2483 -0.0950836 16.6358 0.0275491C19.0233 0.150182 21.2703 1.19394 22.904 2.93928C22.904 2.93928 23.1251 3.67539 18.8889 7.03295C18.9977 7.4355 19.1338 7.83017 19.2962 8.21421C20.1487 10.2509 22.1766 14.7024 22.1708 14.7082L22.0457 14.8188L21.9904 14.8653C18.5543 17.7632 12.8197 17.3384 9.71237 14.0623C6.55265 10.728 6.64285 5.3018 10.1022 2.28174Z" fill="url(#paint38_radial_1_10703)"/>
<path d="M10.1081 2.27896C11.9124 0.710559 14.2547 -0.0969836 16.6422 0.0261919C19.0298 0.149367 21.2765 1.19366 22.9099 2.93942C22.9099 2.93942 23.2706 3.56205 18.9297 6.99817C18.9297 6.99817 19.0897 7.48697 19.3806 8.17943C20.2535 10.2801 22.1679 14.6676 22.1621 14.6734L22.037 14.784L21.9846 14.8276C18.5514 17.7342 12.8197 17.2949 9.72111 14.0275C6.56721 10.702 6.65449 5.28739 10.1081 2.27896Z" fill="url(#paint39_radial_1_10703)"/>
<path d="M22.1466 14.6558C18.7483 17.7107 12.874 17.3063 9.72594 13.9808C6.57786 10.6552 6.66223 5.25228 10.11 2.26131C11.9154 0.694328 14.2579 -0.111754 16.6453 0.0124966C19.0326 0.136747 21.2788 1.18165 22.9118 2.92759C22.9118 2.92759 23.4268 3.43966 18.9723 6.96888C18.9636 6.98052 22.1582 14.647 22.1466 14.6558Z" fill="url(#paint40_radial_1_10703)"/>
<path d="M18.8347 7.07886C17.4411 8.22229 15.7274 9.56939 13.7344 11.0794C15.2149 12.6805 16.9368 14.0402 18.8376 15.1091C20.4699 15.9819 21.7471 16.1449 22.3727 15.5921C22.9982 15.0392 22.9226 13.7649 22.1952 12.1007C21.334 10.2672 20.2011 8.57424 18.8347 7.07886V7.07886Z" fill="url(#paint41_linear_1_10703)"/>
<path d="M18.9598 6.96533L18.2615 7.54723C19.5401 8.95271 20.6029 10.5402 21.4154 12.2577C22.1282 13.8987 22.1108 14.7221 21.8809 14.9286C21.6511 15.1352 20.6589 15.1876 19.0733 14.3467C17.3167 13.3506 15.7281 12.084 14.3657 10.5935L13.5859 11.1754L13.7692 11.3529C17.0715 14.7657 20.6444 16.7092 22.2155 16.0022C22.2621 15.979 22.3086 15.9557 22.3523 15.9295H22.3697C22.4305 15.8918 22.4879 15.849 22.5414 15.8015C22.598 15.7502 22.6496 15.6937 22.6956 15.6327C23.7226 14.2856 22.1631 10.6575 19.0558 7.10208L18.9598 6.96533Z" fill="#84EEB1"/>
</g>
<path d="M6.936 32.2725V24.8925H1.98V32.2725H0.888V23.8725H8.028V32.2725H6.936ZM9.30197 29.1405C9.30197 28.1885 9.60597 27.4085 10.214 26.8005C10.83 26.1925 11.626 25.8885 12.602 25.8885C13.586 25.8885 14.386 26.1925 15.002 26.8005C15.618 27.4085 15.926 28.1885 15.926 29.1405C15.926 30.0845 15.614 30.8605 14.99 31.4685C14.374 32.0765 13.578 32.3805 12.602 32.3805C11.634 32.3805 10.842 32.0765 10.226 31.4685C9.60997 30.8605 9.30197 30.0845 9.30197 29.1405ZM10.37 29.1405C10.37 29.8045 10.578 30.3525 10.994 30.7845C11.41 31.2165 11.946 31.4325 12.602 31.4325C13.266 31.4325 13.806 31.2205 14.222 30.7965C14.646 30.3725 14.858 29.8205 14.858 29.1405C14.858 28.4605 14.642 27.9085 14.21 27.4845C13.786 27.0525 13.25 26.8365 12.602 26.8365C11.954 26.8365 11.418 27.0485 10.994 27.4725C10.578 27.8965 10.37 28.4525 10.37 29.1405ZM16.0675 33.7845V31.3125H16.7635C17.0835 30.8245 17.3075 30.2165 17.4355 29.4885C17.5715 28.7525 17.6395 27.7925 17.6395 26.6085V26.0325H22.2235V31.3125H23.1235V33.7845H22.1635V32.2725H17.0275V33.7845H16.0675ZM18.5875 26.9925V27.4245C18.5875 29.0245 18.3395 30.3205 17.8435 31.3125H21.2155V26.9925H18.5875ZM23.9937 34.6725V26.0325H25.0017V26.8125C25.4177 26.1965 26.0897 25.8885 27.0177 25.8885C27.9297 25.8885 28.6537 26.1805 29.1897 26.7645C29.7337 27.3485 30.0057 28.1085 30.0057 29.0445C30.0057 30.0045 29.7137 30.8005 29.1297 31.4325C28.5537 32.0645 27.8097 32.3805 26.8977 32.3805C26.0577 32.3805 25.4257 32.1685 25.0017 31.7445V34.6725H23.9937ZM26.9097 26.8365C26.4537 26.8365 26.0577 26.9645 25.7217 27.2205C25.3857 27.4765 25.1457 27.7805 25.0017 28.1325V30.4605C25.3617 31.1085 25.9657 31.4325 26.8137 31.4325C27.4297 31.4325 27.9377 31.2165 28.3377 30.7845C28.7377 30.3525 28.9377 29.7965 28.9377 29.1165C28.9377 28.4205 28.7537 27.8685 28.3857 27.4605C28.0257 27.0445 27.5337 26.8365 26.9097 26.8365ZM30.7707 29.1405C30.7707 28.1885 31.0747 27.4085 31.6827 26.8005C32.2987 26.1925 33.0947 25.8885 34.0707 25.8885C35.0547 25.8885 35.8547 26.1925 36.4707 26.8005C37.0867 27.4085 37.3947 28.1885 37.3947 29.1405C37.3947 30.0845 37.0827 30.8605 36.4587 31.4685C35.8427 32.0765 35.0467 32.3805 34.0707 32.3805C33.1027 32.3805 32.3107 32.0765 31.6947 31.4685C31.0787 30.8605 30.7707 30.0845 30.7707 29.1405ZM31.8387 29.1405C31.8387 29.8045 32.0467 30.3525 32.4627 30.7845C32.8787 31.2165 33.4147 31.4325 34.0707 31.4325C34.7347 31.4325 35.2747 31.2205 35.6907 30.7965C36.1147 30.3725 36.3267 29.8205 36.3267 29.1405C36.3267 28.4605 36.1107 27.9085 35.6787 27.4845C35.2547 27.0525 34.7187 26.8365 34.0707 26.8365C33.4227 26.8365 32.8867 27.0485 32.4627 27.4725C32.0467 27.8965 31.8387 28.4525 31.8387 29.1405ZM43.8412 23.3565L44.0213 24.2805C43.6773 24.4165 43.1173 24.5285 42.3413 24.6165C41.5653 24.6965 41.0253 24.8085 40.7213 24.9525C39.8173 25.3925 39.2973 26.2245 39.1613 27.4485L39.2093 27.4605C39.7293 26.6445 40.5653 26.2365 41.7173 26.2365C42.5973 26.2365 43.3053 26.5005 43.8412 27.0285C44.3773 27.5485 44.6453 28.2725 44.6453 29.2005C44.6453 30.1045 44.3493 30.8645 43.7573 31.4805C43.1653 32.0885 42.4053 32.3925 41.4773 32.3925C40.4613 32.3925 39.6573 32.0685 39.0653 31.4205C38.4813 30.7645 38.1893 29.8405 38.1893 28.6485C38.1893 27.4485 38.3413 26.4885 38.6453 25.7685C38.9573 25.0405 39.5053 24.4765 40.2893 24.0765C40.7053 23.8685 41.3293 23.7205 42.1613 23.6325C42.9933 23.5445 43.5533 23.4525 43.8412 23.3565ZM39.2573 28.8285V28.9125C39.2573 29.6805 39.4613 30.2925 39.8693 30.7485C40.2853 31.2045 40.8173 31.4325 41.4653 31.4325C42.0973 31.4325 42.6053 31.2285 42.9893 30.8205C43.3813 30.4045 43.5773 29.8845 43.5773 29.2605C43.5773 28.6285 43.3973 28.1285 43.0373 27.7605C42.6773 27.3845 42.1653 27.1965 41.5013 27.1965C40.9253 27.1965 40.4373 27.3565 40.0373 27.6765C39.6453 27.9965 39.3853 28.3805 39.2573 28.8285ZM50.3634 32.2725V29.5725H46.7634V32.2725H45.7554V26.0325H46.7634V28.6245H50.3634V26.0325H51.3714V32.2725H50.3634ZM57.6576 30.4845L58.3056 31.0845C57.7296 31.9485 56.8976 32.3805 55.8096 32.3805C54.8096 32.3805 54.0056 32.0885 53.3976 31.5045C52.7896 30.9125 52.4856 30.1245 52.4856 29.1405C52.4856 28.1885 52.7616 27.4085 53.3136 26.8005C53.8736 26.1925 54.6576 25.8885 55.6656 25.8885C56.4976 25.8885 57.1856 26.1485 57.7296 26.6685C58.2736 27.1885 58.5456 27.8725 58.5456 28.7205C58.5456 28.9925 58.5256 29.2445 58.4856 29.4765H53.5656C53.5976 30.0925 53.8216 30.5725 54.2376 30.9165C54.6536 31.2605 55.1896 31.4325 55.8456 31.4325C56.2136 31.4325 56.5576 31.3445 56.8776 31.1685C57.2056 30.9925 57.4656 30.7645 57.6576 30.4845ZM55.5936 26.8125C55.0256 26.8125 54.5616 26.9725 54.2016 27.2925C53.8496 27.6125 53.6336 28.0365 53.5536 28.5645H57.4776C57.4456 28.0125 57.2616 27.5845 56.9256 27.2805C56.5976 26.9685 56.1536 26.8125 55.5936 26.8125ZM64.4896 30.4845L65.1376 31.0845C64.5616 31.9485 63.7296 32.3805 62.6416 32.3805C61.6416 32.3805 60.8376 32.0885 60.2296 31.5045C59.6216 30.9125 59.3176 30.1245 59.3176 29.1405C59.3176 28.1885 59.5936 27.4085 60.1456 26.8005C60.7056 26.1925 61.4896 25.8885 62.4976 25.8885C63.3296 25.8885 64.0176 26.1485 64.5616 26.6685C65.1056 27.1885 65.3776 27.8725 65.3776 28.7205C65.3776 28.9925 65.3576 29.2445 65.3176 29.4765H60.3976C60.4296 30.0925 60.6536 30.5725 61.0696 30.9165C61.4856 31.2605 62.0216 31.4325 62.6776 31.4325C63.0456 31.4325 63.3896 31.3445 63.7096 31.1685C64.0376 30.9925 64.2976 30.7645 64.4896 30.4845ZM62.4256 26.8125C61.8576 26.8125 61.3936 26.9725 61.0336 27.2925C60.6816 27.6125 60.4656 28.0365 60.3856 28.5645H64.3096C64.2776 28.0125 64.0936 27.5845 63.7576 27.2805C63.4296 26.9685 62.9856 26.8125 62.4256 26.8125Z" fill="#64748B"/>
<path d="M70 25.2725L74 29.2725L70 33.2725" stroke="#64748B"/>
<defs>
<radialGradient id="paint0_radial_1_10703" cx="0" cy="0" r="1" gradientUnits="userSpaceOnUse" gradientTransform="translate(18.4826 1.035) rotate(-2.29061) scale(41.8866 30.9968)">
<stop stop-color="#03BA50"/>
<stop offset="0.8" stop-color="#01B64E"/>
</radialGradient>
<radialGradient id="paint1_radial_1_10703" cx="0" cy="0" r="1" gradientUnits="userSpaceOnUse" gradientTransform="translate(18.4791 1.03192) rotate(-2.29061) scale(41.7992 30.9321)">
<stop stop-color="#04BC50"/>
<stop offset="0.8" stop-color="#01B34D"/>
</radialGradient>
<radialGradient id="paint2_radial_1_10703" cx="0" cy="0" r="1" gradientUnits="userSpaceOnUse" gradientTransform="translate(18.4691 1.0397) rotate(-2.29061) scale(41.7119 30.8675)">
<stop stop-color="#06BD51"/>
<stop offset="0.72" stop-color="#02B24C"/>
<stop offset="0.8" stop-color="#01B04B"/>
</radialGradient>
<radialGradient id="paint3_radial_1_10703" cx="0" cy="0" r="1" gradientUnits="userSpaceOnUse" gradientTransform="translate(18.454 1.05275) rotate(-2.29061) scale(41.6246 30.8028)">
<stop stop-color="#08BF52"/>
<stop offset="0.56" stop-color="#04B44D"/>
<stop offset="0.8" stop-color="#01AD4A"/>
</radialGradient>
<radialGradient id="paint4_radial_1_10703" cx="0" cy="0" r="1" gradientUnits="userSpaceOnUse" gradientTransform="translate(18.4378 1.06541) rotate(-2.29061) scale(41.5372 30.7382)">
<stop stop-color="#0AC053"/>
<stop offset="0.48" stop-color="#05B54E"/>
<stop offset="0.8" stop-color="#01AA49"/>
</radialGradient>
<radialGradient id="paint5_radial_1_10703" cx="0" cy="0" r="1" gradientUnits="userSpaceOnUse" gradientTransform="translate(18.4195 1.09677) rotate(-1.71836) scale(41.4324 30.6697)">
<stop stop-color="#0BC253"/>
<stop offset="0.42" stop-color="#07B74E"/>
<stop offset="0.8" stop-color="#01A848"/>
</radialGradient>
<radialGradient id="paint6_radial_1_10703" cx="0" cy="0" r="1" gradientUnits="userSpaceOnUse" gradientTransform="translate(18.3939 1.10485) rotate(-1.71836) scale(41.3451 30.605)">
<stop stop-color="#0DC354"/>
<stop offset="0.37" stop-color="#08B84F"/>
<stop offset="0.8" stop-color="#01A546"/>
</radialGradient>
<radialGradient id="paint7_radial_1_10703" cx="0" cy="0" r="1" gradientUnits="userSpaceOnUse" gradientTransform="translate(18.7027 1.11298) rotate(-1.71836) scale(41.2578 30.528)">
<stop stop-color="#0FC555"/>
<stop offset="0.33" stop-color="#0ABA50"/>
<stop offset="0.8" stop-color="#01A245"/>
</radialGradient>
<radialGradient id="paint8_radial_1_10703" cx="0" cy="0" r="1" gradientUnits="userSpaceOnUse" gradientTransform="translate(18.6719 1.12768) rotate(-1.70136) scale(41.5818 30.4634)">
<stop stop-color="#11C656"/>
<stop offset="0.3" stop-color="#0CBB51"/>
<stop offset="0.8" stop-color="#019F44"/>
</radialGradient>
<radialGradient id="paint9_radial_1_10703" cx="0" cy="0" r="1" gradientUnits="userSpaceOnUse" gradientTransform="translate(18.662 1.14275) rotate(-1.70135) scale(41.4936 30.3988)">
<stop stop-color="#12C856"/>
<stop offset="0.28" stop-color="#0EBD51"/>
<stop offset="0.77" stop-color="#029E44"/>
<stop offset="0.8" stop-color="#019C43"/>
</radialGradient>
<radialGradient id="paint10_radial_1_10703" cx="0" cy="0" r="1" gradientUnits="userSpaceOnUse" gradientTransform="translate(18.6507 1.16274) rotate(-1.70135) scale(41.4025 30.3321)">
<stop stop-color="#14C957"/>
<stop offset="0.26" stop-color="#0FBE52"/>
<stop offset="0.72" stop-color="#049F44"/>
<stop offset="0.8" stop-color="#019941"/>
</radialGradient>
<radialGradient id="paint11_radial_1_10703" cx="0" cy="0" r="1" gradientUnits="userSpaceOnUse" gradientTransform="translate(18.6333 1.18764) rotate(-1.70136) scale(41.3143 30.2675)">
<stop stop-color="#16CB58"/>
<stop offset="0.24" stop-color="#11C053"/>
<stop offset="0.66" stop-color="#06A145"/>
<stop offset="0.8" stop-color="#019640"/>
</radialGradient>
<radialGradient id="paint12_radial_1_10703" cx="0" cy="0" r="1" gradientUnits="userSpaceOnUse" gradientTransform="translate(18.6117 1.21432) rotate(-1.70135) scale(41.2261 30.2028)">
<stop stop-color="#18CC59"/>
<stop offset="0.23" stop-color="#13C154"/>
<stop offset="0.62" stop-color="#07A246"/>
<stop offset="0.8" stop-color="#01933F"/>
</radialGradient>
<radialGradient id="paint13_radial_1_10703" cx="0" cy="0" r="1" gradientUnits="userSpaceOnUse" gradientTransform="translate(18.5888 1.24655) rotate(-1.70135) scale(41.1349 30.1361)">
<stop stop-color="#19CD59"/>
<stop offset="0.21" stop-color="#15C254"/>
<stop offset="0.59" stop-color="#09A347"/>
<stop offset="0.8" stop-color="#01903E"/>
</radialGradient>
<radialGradient id="paint14_radial_1_10703" cx="0" cy="0" r="1" gradientUnits="userSpaceOnUse" gradientTransform="translate(18.5627 1.2813) rotate(-1.70135) scale(41.0467 30.0714)">
<stop stop-color="#1BCF5A"/>
<stop offset="0.2" stop-color="#17C455"/>
<stop offset="0.56" stop-color="#0BA547"/>
<stop offset="0.8" stop-color="#018D3C"/>
</radialGradient>
<radialGradient id="paint15_radial_1_10703" cx="0" cy="0" r="1" gradientUnits="userSpaceOnUse" gradientTransform="translate(18.5305 1.1548) rotate(-1.13442) scale(40.9485 30.0062)">
<stop stop-color="#1DD05B"/>
<stop offset="0.19" stop-color="#18C556"/>
<stop offset="0.54" stop-color="#0CA648"/>
<stop offset="0.8" stop-color="#018B3B"/>
</radialGradient>
<radialGradient id="paint16_radial_1_10703" cx="0" cy="0" r="1" gradientUnits="userSpaceOnUse" gradientTransform="translate(18.4978 1.18097) rotate(-1.13442) scale(40.8574 29.9394)">
<stop stop-color="#1ED25B"/>
<stop offset="0.18" stop-color="#1AC756"/>
<stop offset="0.51" stop-color="#0EA848"/>
<stop offset="0.8" stop-color="#01883A"/>
</radialGradient>
<radialGradient id="paint17_radial_1_10703" cx="0" cy="0" r="1" gradientUnits="userSpaceOnUse" gradientTransform="translate(18.4647 1.20679) rotate(-1.13442) scale(40.7692 29.8748)">
<stop stop-color="#20D35C"/>
<stop offset="0.18" stop-color="#1BC857"/>
<stop offset="0.49" stop-color="#0FA949"/>
<stop offset="0.8" stop-color="#018539"/>
</radialGradient>
<radialGradient id="paint18_radial_1_10703" cx="0" cy="0" r="1" gradientUnits="userSpaceOnUse" gradientTransform="translate(18.4234 1.2424) rotate(-1.13442) scale(40.681 29.8102)">
<stop stop-color="#22D55D"/>
<stop offset="0.17" stop-color="#1DCA58"/>
<stop offset="0.47" stop-color="#11AB4A"/>
<stop offset="0.8" stop-color="#018237"/>
</radialGradient>
<radialGradient id="paint19_radial_1_10703" cx="0" cy="0" r="1" gradientUnits="userSpaceOnUse" gradientTransform="translate(18.3802 1.27545) rotate(-1.13442) scale(40.5899 29.7434)">
<stop stop-color="#24D65E"/>
<stop offset="0.16" stop-color="#1FCB59"/>
<stop offset="0.45" stop-color="#13AC4B"/>
<stop offset="0.8" stop-color="#017F36"/>
</radialGradient>
<radialGradient id="paint20_radial_1_10703" cx="0" cy="0" r="1" gradientUnits="userSpaceOnUse" gradientTransform="translate(18.3323 1.31587) rotate(-1.13442) scale(40.5017 29.6788)">
<stop stop-color="#25D85E"/>
<stop offset="0.15" stop-color="#20CD59"/>
<stop offset="0.43" stop-color="#14AE4B"/>
<stop offset="0.79" stop-color="#017D36"/>
<stop offset="0.8" stop-color="#007C35"/>
</radialGradient>
<radialGradient id="paint21_radial_1_10703" cx="0" cy="0" r="1" gradientUnits="userSpaceOnUse" gradientTransform="translate(19.2128 1.3615) rotate(-1.13442) scale(40.4136 29.6063)">
<stop stop-color="#27D95F"/>
<stop offset="0.15" stop-color="#22CE5A"/>
<stop offset="0.42" stop-color="#16AF4C"/>
<stop offset="0.77" stop-color="#027E36"/>
<stop offset="0.8" stop-color="#007934"/>
</radialGradient>
<radialGradient id="paint22_radial_1_10703" cx="0" cy="0" r="1" gradientUnits="userSpaceOnUse" gradientTransform="translate(18.9117 1.40821) rotate(-1.1233) scale(40.7216 29.5396)">
<stop stop-color="#29DB60"/>
<stop offset="0.14" stop-color="#24D05B"/>
<stop offset="0.4" stop-color="#18B14D"/>
<stop offset="0.74" stop-color="#048037"/>
<stop offset="0.8" stop-color="#007632"/>
</radialGradient>
<radialGradient id="paint23_radial_1_10703" cx="0" cy="0" r="1" gradientUnits="userSpaceOnUse" gradientTransform="translate(18.8773 1.46076) rotate(-1.1233) scale(40.6325 29.475)">
<stop stop-color="#2BDC61"/>
<stop offset="0.14" stop-color="#26D15C"/>
<stop offset="0.39" stop-color="#1AB24E"/>
<stop offset="0.71" stop-color="#068138"/>
<stop offset="0.8" stop-color="#007331"/>
</radialGradient>
<radialGradient id="paint24_radial_1_10703" cx="0" cy="0" r="1" gradientUnits="userSpaceOnUse" gradientTransform="translate(18.8408 1.51795) rotate(-1.1233) scale(40.5405 29.4082)">
<stop stop-color="#2CDE61"/>
<stop offset="0.13" stop-color="#27D35C"/>
<stop offset="0.37" stop-color="#1BB44E"/>
<stop offset="0.69" stop-color="#088339"/>
<stop offset="0.8" stop-color="#007030"/>
</radialGradient>
<radialGradient id="paint25_radial_1_10703" cx="0" cy="0" r="1" gradientUnits="userSpaceOnUse" gradientTransform="translate(18.8004 1.22677) rotate(-0.561705) scale(40.4456 29.3439)">
<stop stop-color="#2EDF62"/>
<stop offset="0.13" stop-color="#29D45D"/>
<stop offset="0.37" stop-color="#1DB54F"/>
<stop offset="0.67" stop-color="#098439"/>
<stop offset="0.8" stop-color="#006E2F"/>
</radialGradient>
<radialGradient id="paint26_radial_1_10703" cx="0" cy="0" r="1" gradientUnits="userSpaceOnUse" gradientTransform="translate(18.7572 1.27219) rotate(-0.561705) scale(40.3566 29.2794)">
<stop stop-color="#30E163"/>
<stop offset="0.13" stop-color="#2BD65E"/>
<stop offset="0.35" stop-color="#1FB750"/>
<stop offset="0.65" stop-color="#0B8639"/>
<stop offset="0.8" stop-color="#006B2D"/>
</radialGradient>
<radialGradient id="paint27_radial_1_10703" cx="0" cy="0" r="1" gradientUnits="userSpaceOnUse" gradientTransform="translate(18.7128 1.32289) rotate(-0.561706) scale(40.2645 29.2126)">
<stop stop-color="#31E263"/>
<stop offset="0.12" stop-color="#2CD75E"/>
<stop offset="0.34" stop-color="#20B850"/>
<stop offset="0.63" stop-color="#0D873A"/>
<stop offset="0.8" stop-color="#00682C"/>
</radialGradient>
<radialGradient id="paint28_radial_1_10703" cx="0" cy="0" r="1" gradientUnits="userSpaceOnUse" gradientTransform="translate(18.6627 1.37587) rotate(-0.561705) scale(40.1755 29.148)">
<stop stop-color="#33E364"/>
<stop offset="0.12" stop-color="#2ED85F"/>
<stop offset="0.34" stop-color="#22B951"/>
<stop offset="0.62" stop-color="#0E883B"/>
<stop offset="0.8" stop-color="#00652B"/>
</radialGradient>
<radialGradient id="paint29_radial_1_10703" cx="0" cy="0" r="1" gradientUnits="userSpaceOnUse" gradientTransform="translate(18.6089 1.43291) rotate(-0.561705) scale(40.0835 29.0813)">
<stop stop-color="#35E565"/>
<stop offset="0.12" stop-color="#30DA60"/>
<stop offset="0.33" stop-color="#24BB52"/>
<stop offset="0.6" stop-color="#108A3C"/>
<stop offset="0.8" stop-color="#00622A"/>
</radialGradient>
<radialGradient id="paint30_radial_1_10703" cx="0" cy="0" r="1" gradientUnits="userSpaceOnUse" gradientTransform="translate(18.5554 1.49224) rotate(-0.561705) scale(39.9945 29.0166)">
<stop stop-color="#37E666"/>
<stop offset="0.11" stop-color="#32DB61"/>
<stop offset="0.32" stop-color="#26BC53"/>
<stop offset="0.59" stop-color="#128B3C"/>
<stop offset="0.8" stop-color="#005F28"/>
</radialGradient>
<radialGradient id="paint31_radial_1_10703" cx="0" cy="0" r="1" gradientUnits="userSpaceOnUse" gradientTransform="translate(18.4962 1.557) rotate(-0.561705) scale(39.9025 28.9499)">
<stop stop-color="#38E866"/>
<stop offset="0.11" stop-color="#33DD61"/>
<stop offset="0.31" stop-color="#27BE53"/>
<stop offset="0.57" stop-color="#148D3D"/>
<stop offset="0.8" stop-color="#005C27"/>
</radialGradient>
<radialGradient id="paint32_radial_1_10703" cx="0" cy="0" r="1" gradientUnits="userSpaceOnUse" gradientTransform="translate(18.4344 1.6256) rotate(-0.561706) scale(39.8134 28.8853)">
<stop stop-color="#3AE967"/>
<stop offset="0.11" stop-color="#35DE62"/>
<stop offset="0.3" stop-color="#29BF54"/>
<stop offset="0.56" stop-color="#158E3E"/>
<stop offset="0.8" stop-color="#005926"/>
</radialGradient>
<radialGradient id="paint33_radial_1_10703" cx="0" cy="0" r="1" gradientUnits="userSpaceOnUse" gradientTransform="translate(18.3716 1.69685) rotate(-0.561705) scale(39.7244 28.8207)">
<stop stop-color="#3CEB68"/>
<stop offset="0.11" stop-color="#37E063"/>
<stop offset="0.29" stop-color="#2BC155"/>
<stop offset="0.54" stop-color="#17903F"/>
<stop offset="0.8" stop-color="#005625"/>
</radialGradient>
<radialGradient id="paint34_radial_1_10703" cx="0" cy="0" r="1" gradientUnits="userSpaceOnUse" gradientTransform="translate(18.3006 1.773) rotate(-0.561705) scale(39.6324 28.754)">
<stop stop-color="#3EEC69"/>
<stop offset="0.1" stop-color="#39E164"/>
<stop offset="0.29" stop-color="#2DC256"/>
<stop offset="0.53" stop-color="#19913F"/>
<stop offset="0.8" stop-color="#005323"/>
</radialGradient>
<radialGradient id="paint35_radial_1_10703" cx="0" cy="0" r="1" gradientUnits="userSpaceOnUse" gradientTransform="translate(18.2285 1.3204) scale(39.5415 28.6869)">
<stop stop-color="#3FEE69"/>
<stop offset="0.1" stop-color="#3AE364"/>
<stop offset="0.28" stop-color="#2EC456"/>
<stop offset="0.52" stop-color="#1A9340"/>
<stop offset="0.8" stop-color="#005122"/>
</radialGradient>
<radialGradient id="paint36_radial_1_10703" cx="0" cy="0" r="1" gradientUnits="userSpaceOnUse" gradientTransform="translate(19.1628 1.38411) scale(39.8363 28.6202)">
<stop stop-color="#41EF6A"/>
<stop offset="0.1" stop-color="#3CE465"/>
<stop offset="0.28" stop-color="#30C557"/>
<stop offset="0.51" stop-color="#1C9441"/>
<stop offset="0.79" stop-color="#015022"/>
<stop offset="0.8" stop-color="#004E21"/>
</radialGradient>
<radialGradient id="paint37_radial_1_10703" cx="0" cy="0" r="1" gradientUnits="userSpaceOnUse" gradientTransform="translate(19.1044 1.4528) scale(39.7493 28.5578)">
<stop stop-color="#43F16B"/>
<stop offset="0.1" stop-color="#3EE666"/>
<stop offset="0.27" stop-color="#32C758"/>
<stop offset="0.5" stop-color="#1E9642"/>
<stop offset="0.77" stop-color="#035223"/>
<stop offset="0.8" stop-color="#004B20"/>
</radialGradient>
<radialGradient id="paint38_radial_1_10703" cx="0" cy="0" r="1" gradientUnits="userSpaceOnUse" gradientTransform="translate(19.0516 1.52579) scale(39.6594 28.4932)">
<stop stop-color="#45F26C"/>
<stop offset="0.1" stop-color="#40E767"/>
<stop offset="0.27" stop-color="#34C859"/>
<stop offset="0.49" stop-color="#209742"/>
<stop offset="0.76" stop-color="#055323"/>
<stop offset="0.8" stop-color="#00481E"/>
</radialGradient>
<radialGradient id="paint39_radial_1_10703" cx="0" cy="0" r="1" gradientUnits="userSpaceOnUse" gradientTransform="translate(18.9939 1.60402) scale(39.5666 28.4264)">
<stop stop-color="#46F46C"/>
<stop offset="0.09" stop-color="#41E967"/>
<stop offset="0.26" stop-color="#35CA59"/>
<stop offset="0.48" stop-color="#229943"/>
<stop offset="0.74" stop-color="#065524"/>
<stop offset="0.8" stop-color="#00451D"/>
</radialGradient>
<radialGradient id="paint40_radial_1_10703" cx="0" cy="0" r="1" gradientUnits="userSpaceOnUse" gradientTransform="translate(18.9381 1.68622) scale(39.4736 28.3597)">
<stop stop-color="#48F56D"/>
<stop offset="0.09" stop-color="#43EA68"/>
<stop offset="0.25" stop-color="#37CB5A"/>
<stop offset="0.47" stop-color="#239A44"/>
<stop offset="0.73" stop-color="#085625"/>
<stop offset="0.8" stop-color="#00421C"/>
</radialGradient>
<linearGradient id="paint41_linear_1_10703" x1="19.5796" y1="22.0773" x2="16.1754" y2="-2.33337" gradientUnits="userSpaceOnUse">
<stop offset="0.1" stop-color="#FF8475"/>
<stop offset="0.37" stop-color="#E84E43"/>
<stop offset="0.6" stop-color="#D6261F"/>
<stop offset="0.79" stop-color="#CC0E08"/>
<stop offset="0.9" stop-color="#C80500"/>
</linearGradient>
<clipPath id="clip0_1_10703">
<rect width="18.2726" height="18.2726" fill="white" transform="translate(7)"/>
</clipPath>
</defs>
</svg>
