<svg width="74" height="20" viewBox="0 0 74 20" fill="none" xmlns="http://www.w3.org/2000/svg">
<path d="M28.5972 17.7163C26.7483 17.7163 25.2894 17.0447 24.2205 15.7013C23.1516 14.3435 22.6172 12.4369 22.6172 9.98131C22.6172 7.58352 23.1444 5.69129 24.1989 4.30462C25.2678 2.91795 26.7989 2.22461 28.7922 2.22461C29.4855 2.22461 30.1067 2.32572 30.6556 2.52794C31.2044 2.71572 31.6522 2.93239 31.9989 3.17795V5.27962C31.6089 5.03407 31.1467 4.80295 30.6122 4.58629C30.0778 4.36962 29.5144 4.26128 28.9222 4.26128C27.6511 4.26128 26.7266 4.73073 26.1489 5.66962C25.5711 6.60852 25.2822 8.04574 25.2822 9.98131C25.2822 11.8591 25.5711 13.2819 26.1489 14.2497C26.7266 15.203 27.6078 15.6797 28.7922 15.6797C29.4855 15.6797 30.085 15.5786 30.5906 15.3763C31.0961 15.1597 31.5656 14.8924 31.9989 14.5747V16.6763C31.6667 16.9074 31.2189 17.1386 30.6556 17.3697C30.0922 17.6008 29.4061 17.7163 28.5972 17.7163Z" fill="black"/>
<path d="M33.63 6.60129H42.1234V17.4997H39.545V8.63797H36.2083V17.4997H33.63V6.60129Z" fill="black"/>
<path d="M43.4274 15.268C43.4274 15.268 43.478 15.3041 43.5791 15.3763C43.6802 15.4341 43.8247 15.463 44.0124 15.463C44.4313 15.463 44.7058 15.2463 44.8358 14.813C44.9658 14.3797 45.0524 13.5852 45.0958 12.4296L45.3124 6.60129H52.7008V17.4997H50.1225V8.63797H47.5008L47.3491 12.538C47.2913 14.3435 47.0674 15.658 46.6774 16.4813C46.2874 17.3047 45.5435 17.7163 44.4458 17.7163C44.1424 17.7163 43.8969 17.6802 43.7091 17.608C43.5213 17.5358 43.4274 17.4997 43.4274 17.4997V15.268Z" fill="black"/>
<path d="M54.8736 6.60129H57.3869V13.3397L61.3736 6.60129H63.6053V17.4997H61.0919V10.7613L57.1052 17.4997H54.8736V6.60129Z" fill="black"/>
<path d="M73.7655 8.63797H70.7321V17.4997H68.1538V8.63797H65.1204V6.60129H73.7655V8.63797Z" fill="black"/>
<g clip-path="url(#clip0_0_21624)">
<path d="M10.702 10.0475L17.7271 17.2414L17.5838 17.372L17.5233 17.4293C15.5562 19.184 12.9786 20.0959 10.3457 19.9687C7.71284 19.8414 5.23523 18.6852 3.44647 16.7491C1.65772 14.8129 0.700914 12.2517 0.782121 9.61701C0.863328 6.9823 1.97605 4.48487 3.88065 2.66256C5.83886 0.870533 8.42425 -0.0778331 11.0768 0.0229024C13.7293 0.123638 16.2353 1.26536 18.0519 3.20075L10.702 10.0475Z" fill="#01B94F"/>
<path d="M3.88457 2.66022C5.84249 0.869761 8.42691 -0.0773583 11.0781 0.0239695C13.7293 0.125297 16.2339 1.26692 18.0495 3.20159C18.0495 3.20159 12.2058 8.67266 12.088 8.7682C12.088 8.7682 10.7791 10.0006 10.7887 10.0197C10.7982 10.0388 17.7119 17.2136 17.7119 17.2136L17.5718 17.3474L17.5113 17.4047C13.3841 21.0351 7.05957 20.8695 3.32409 16.8315C1.53018 14.8727 0.582595 12.2846 0.687565 9.6305C0.792534 6.97643 1.94157 4.47125 3.88457 2.66022Z" fill="url(#paint0_radial_0_21624)"/>
<path d="M3.89139 2.65373C5.85088 0.865637 8.43543 -0.0793292 11.0862 0.0231719C13.7369 0.125673 16.2407 1.2674 18.0563 3.20147C18.0563 3.20147 12.3687 8.55153 12.1362 8.73942C12.1362 8.73942 10.8624 9.95592 10.8847 9.99413C10.9324 10.1088 17.706 17.1817 17.706 17.1817L17.5659 17.3154L17.5054 17.3727C13.3877 20.9968 7.06002 20.8184 3.33728 16.7932C1.54606 14.8397 0.599242 12.2577 0.703027 9.60935C0.806812 6.96103 1.9528 4.46099 3.89139 2.65373Z" fill="url(#paint1_radial_0_21624)"/>
<path d="M3.89486 2.65011C5.85444 0.864363 8.43784 -0.0788403 11.087 0.0242432C13.7362 0.127327 16.2385 1.26842 18.0534 3.20103C18.0534 3.20103 12.5282 8.42689 12.1715 8.71032C12.1715 8.71032 10.9423 9.90771 10.9646 9.96503C11.0378 10.137 17.6904 17.1526 17.6904 17.1526L17.5471 17.2863L17.4865 17.3405C13.3817 20.9549 7.05713 20.7702 3.34075 16.7545C1.55243 14.8066 0.607046 12.2304 0.710853 9.5881C0.814661 6.94579 1.95923 4.45175 3.89486 2.65011Z" fill="url(#paint2_radial_0_21624)"/>
<path d="M3.89751 2.64708C5.85733 0.862706 8.44029 -0.0793375 11.0887 0.0243351C13.7371 0.128008 16.2385 1.26908 18.0529 3.20119C18.0529 3.20119 12.6869 8.29648 12.2124 8.68182C12.2124 8.68182 11.0214 9.86329 11.0532 9.93972C11.1488 10.169 17.6771 17.1241 17.6771 17.1241L17.537 17.2546C17.537 17.2546 17.4765 17.3088 17.4765 17.312C13.3811 20.9137 7.05659 20.7163 3.34977 16.7165C1.56432 14.7744 0.619786 12.2049 0.722411 9.56882C0.825037 6.93277 1.96649 4.44441 3.89751 2.64708Z" fill="url(#paint3_radial_0_21624)"/>
<path d="M3.90606 2.64102C5.86637 0.859394 8.44841 -0.0803299 11.0953 0.0245208C13.7422 0.129371 16.2418 1.27039 18.055 3.2015C18.055 3.2015 12.8515 8.18214 12.256 8.65346C12.256 8.65346 11.1032 9.81582 11.1414 9.91136C11.2624 10.198 17.6697 17.0925 17.6665 17.0957L17.5264 17.2263L17.4659 17.2836C13.3801 20.8694 7.05877 20.6688 3.3615 16.6785C1.57914 14.7415 0.635926 12.1777 0.737964 9.54744C0.840001 6.91714 1.97899 4.43414 3.90606 2.64102Z" fill="url(#paint4_radial_0_21624)"/>
<path d="M3.91043 2.63799C5.87098 0.85774 8.45257 -0.0808252 11.0987 0.0246145C13.7448 0.130054 16.2435 1.27105 18.0562 3.20166C18.0562 3.20166 13.0119 8.06129 12.2985 8.6154C12.2985 8.6154 11.184 9.75866 11.2317 9.8733C11.375 10.2172 17.6582 17.0513 17.6582 17.0513L17.518 17.2137L17.4575 17.2678C13.3781 20.8282 7.05995 20.6212 3.36905 16.6405C1.58996 14.709 0.648158 12.1515 0.749611 9.5275C0.851063 6.90346 1.98752 4.42637 3.91043 2.63799Z" fill="url(#paint5_radial_0_21624)"/>
<path d="M3.91611 2.63399C5.87691 0.855111 8.45804 -0.0822963 11.1034 0.0237322C13.7487 0.129761 16.2466 1.27074 18.0587 3.20084C18.0587 3.20084 13.1736 7.93945 12.3424 8.61458C12.3424 8.61458 11.2629 9.73873 11.317 9.87248C11.4985 10.2578 17.6479 17.0345 17.6447 17.0345L17.5046 17.1651L17.4441 17.2224C13.3774 20.7859 7.05926 20.5694 3.37792 16.6014C1.60131 14.6758 0.660378 12.1246 0.761256 9.50652C0.862133 6.88849 1.99659 4.41717 3.91611 2.63399Z" fill="url(#paint6_radial_0_21624)"/>
<path d="M3.91668 2.62754C5.87813 0.850445 8.45905 -0.0852475 11.1036 0.0219658C13.7482 0.129179 16.2449 1.27072 18.0561 3.20076C18.0561 3.20076 13.3302 7.81518 12.3812 8.56992C12.3812 8.56992 11.3399 9.67815 11.4036 9.84374C11.5946 10.3023 17.6326 17.0185 17.6294 17.0185C17.6262 17.0185 17.4988 17.1427 17.4893 17.1491L17.4287 17.2033C13.3716 20.7445 7.05347 20.5216 3.38168 16.5759C1.60343 14.6551 0.660841 12.1066 0.761168 9.49094C0.861495 6.87528 1.99653 4.40653 3.91668 2.62754Z" fill="url(#paint7_radial_0_21624)"/>
<path d="M3.92291 2.62492C5.88444 0.850159 8.46421 -0.0837761 11.1073 0.0240187C13.7503 0.131814 16.2455 1.27272 18.056 3.20132C18.056 3.20132 13.4925 7.69473 12.4225 8.54182C12.4225 8.54182 11.4193 9.63094 11.4926 9.81564C11.706 10.3315 17.6197 16.9873 17.6197 16.9904L17.4796 17.121L17.419 17.1752C13.3715 20.7164 7.05333 20.4839 3.40701 16.5382C1.63082 14.6246 0.687369 12.0839 0.784113 9.47476C0.880858 6.86564 2.00988 4.40176 3.92291 2.62492Z" fill="url(#paint8_radial_0_21624)"/>
<path d="M3.92816 2.6219C5.88993 0.848511 8.46925 -0.084268 11.1115 0.0241154C13.7538 0.132499 16.2481 1.27339 18.058 3.20149C18.058 3.20149 13.6538 7.5707 12.4532 8.51333C12.4532 8.51333 11.4979 9.58652 11.5679 9.78715C11.8163 10.3508 17.6122 16.946 17.609 16.9492L17.4689 17.0766C17.4689 17.0766 17.4148 17.1275 17.4084 17.1339C13.3704 20.6624 7.0554 20.4204 3.39634 16.497C2.52016 15.5511 1.83889 14.4418 1.39142 13.2325C0.943959 12.0233 0.73907 10.7377 0.788454 9.4493C0.837839 8.16086 1.14053 6.89477 1.67924 5.72332C2.21796 4.55187 2.98214 3.498 3.92816 2.6219Z" fill="url(#paint9_radial_0_21624)"/>
<path d="M3.93575 2.61489C5.898 0.844241 8.47641 -0.0862264 11.1172 0.023334C13.7579 0.132894 16.2504 1.27374 18.0593 3.20084C18.0593 3.20084 13.8174 7.44904 12.5086 8.48402C12.5086 8.48402 11.5819 9.5413 11.671 9.75785C11.9322 10.3948 17.6007 16.9263 17.6007 16.9295L17.4606 17.0568L17.4 17.111C13.3684 20.6204 7.05661 20.372 3.4103 16.4518C1.64541 14.5471 0.709305 12.0193 0.807842 9.42453C0.906379 6.82971 2.03149 4.38027 3.93575 2.61489Z" fill="url(#paint10_radial_0_21624)"/>
<path d="M3.93768 2.61216C5.90071 0.842684 8.47919 -0.0867146 11.1197 0.0234313C13.7602 0.133577 16.2523 1.27449 18.0612 3.2013C18.0612 3.2013 13.9754 7.34122 12.5487 8.459C12.5487 8.459 11.6634 9.49398 11.7558 9.73283C12.0424 10.4111 17.5899 16.8949 17.5867 16.8949L17.4466 17.0255L17.3861 17.0796C13.3672 20.5826 7.05536 20.3278 3.4186 16.4204C2.54518 15.4801 1.8657 14.3768 1.41904 13.1737C0.972368 11.9705 0.767275 10.6911 0.815486 9.40866C0.863697 8.12619 1.16427 6.86581 1.7 5.6996C2.23574 4.53339 2.99613 3.48424 3.93768 2.61216Z" fill="url(#paint11_radial_0_21624)"/>
<path d="M3.94417 2.60857C5.90727 0.841431 8.4846 -0.0862159 11.1236 0.0245109C13.7626 0.135238 16.2531 1.27552 18.0613 3.20089C18.0613 3.20089 14.1379 7.20388 12.5902 8.42994C12.5902 8.42994 11.7432 9.44899 11.8451 9.70376C12.1635 10.4489 17.5773 16.8658 17.5773 16.869L17.4371 16.9996C17.4371 16.9996 17.383 17.0473 17.3798 17.0537C13.3673 20.5567 7.05867 20.2797 3.42827 16.385C-0.202121 12.4902 -0.0206017 6.20393 3.94417 2.60857Z" fill="url(#paint12_radial_0_21624)"/>
<path d="M3.94862 2.60214C5.91236 0.836779 8.48947 -0.0891569 11.1277 0.0227537C13.7659 0.134664 16.2554 1.27552 18.0626 3.20084C18.0626 3.20084 14.2984 7.07644 12.6488 8.39485C12.6488 8.39485 11.8368 9.3948 11.9482 9.66867C12.2826 10.4712 17.5785 16.8275 17.5785 16.8307L17.4384 16.9581L17.3779 17.0122C13.3622 20.493 7.04082 20.2223 3.43591 16.3371C-0.169007 12.452 -0.00659543 6.18795 3.94862 2.60214Z" fill="url(#paint13_radial_0_21624)"/>
<path d="M3.95167 2.59953C5.91548 0.836506 8.49145 -0.0876794 11.1281 0.0248118C13.7648 0.137303 16.2527 1.27753 18.0593 3.20142C18.0593 3.20142 14.4575 6.95919 12.6742 8.37313C12.6742 8.37313 11.9003 9.35716 12.0181 9.64696C12.378 10.5036 17.5465 16.7995 17.5465 16.8027L17.4064 16.93L17.3459 16.9842C13.3588 20.4522 7.0375 20.1719 3.43895 16.2995C-0.159594 12.4271 0.00281852 6.17261 3.95167 2.59953Z" fill="url(#paint14_radial_0_21624)"/>
<path d="M3.95789 2.59653C5.92194 0.834867 8.49745 -0.0881659 11.1334 0.0249133C13.7693 0.137992 16.2563 1.2782 18.0623 3.20159C18.0623 3.20159 14.6198 6.83835 12.7186 8.34465C12.7186 8.34465 11.983 9.30001 12.1103 9.61847C12.4925 10.5261 17.5496 16.771 17.5496 16.7742L17.4126 16.9015L17.3521 16.9557C13.3587 20.3982 7.04054 20.1243 3.45154 16.2583C-0.137454 12.3922 0.0154045 6.16004 3.95789 2.59653Z" fill="url(#paint15_radial_0_21624)"/>
<path d="M3.96352 2.58954C5.92893 0.831189 8.50388 -0.0891216 11.1386 0.0251197C13.7733 0.139361 16.2589 1.2791 18.0647 3.20098C18.0647 3.20098 14.7814 6.70399 12.772 8.31538C12.772 8.31538 12.0746 9.27074 12.2083 9.5892C12.6032 10.5637 17.5488 16.7385 17.5297 16.7417L17.3896 16.8691C17.371 16.8888 17.3507 16.9069 17.3291 16.9232C13.358 20.3689 7.0398 20.0791 3.46036 16.2226C-0.119078 12.3661 0.0337803 6.14351 3.96352 2.58954Z" fill="url(#paint16_radial_0_21624)"/>
<path d="M3.96439 2.58672C5.93214 0.831005 8.50865 -0.0852816 11.1431 0.0337367C13.7776 0.152755 16.261 1.29763 18.0624 3.22363C18.0624 3.22363 14.9384 6.59289 12.7983 8.29663C12.7983 8.29663 12.1391 9.22652 12.2824 9.57045C12.7124 10.6054 17.5179 16.723 17.5147 16.7261C17.5115 16.7293 17.3968 16.8376 17.3745 16.8535L17.3172 16.9077C13.3525 20.3279 7.03748 20.0222 3.46441 16.1848C-0.10866 12.3474 0.0314602 6.12794 3.96439 2.58672Z" fill="url(#paint17_radial_0_21624)"/>
<path d="M3.97117 2.58293C5.93823 0.828378 8.51352 -0.0872239 11.1467 0.0317897C13.7799 0.150803 16.2621 1.29499 18.0628 3.21984C18.0628 3.21984 15.1012 6.47764 12.8402 8.27054C12.8402 8.27054 12.2192 9.18133 12.3688 9.54437C12.8242 10.6367 17.5087 16.6937 17.5023 16.6969L17.3654 16.8243L17.3049 16.8784C13.3497 20.2859 7.03789 19.9738 3.47438 16.1459C-0.0891436 12.3181 0.0477921 6.11142 3.97117 2.58293Z" fill="url(#paint18_radial_0_21624)"/>
<path d="M3.97528 2.5645C5.94253 0.811679 8.51695 -0.102822 11.1491 0.0161725C13.7813 0.135167 16.2627 1.27823 18.0637 3.20141C18.0637 3.20141 15.2613 6.3382 12.8857 8.22346C12.8857 8.22346 12.2997 9.11513 12.4589 9.49728C12.9366 10.6469 17.4969 16.6466 17.4937 16.6498L17.3536 16.7772L17.2931 16.8281C13.3506 20.2452 7.03882 19.9235 3.48167 16.1116C-0.0754736 12.2997 0.0614623 6.09617 3.97528 2.5645Z" fill="url(#paint19_radial_0_21624)"/>
<path d="M3.98044 2.56462C5.94699 0.81296 8.5202 -0.100858 11.1511 0.0181317C13.7819 0.137122 16.2621 1.2795 18.0625 3.20153C16.4793 4.9967 14.7622 6.66915 12.9259 8.20447C12.9259 8.20447 12.3781 9.08022 12.5469 9.47829C13.0469 10.6852 17.483 16.6213 17.4798 16.6276L17.3428 16.7518L17.2823 16.806C13.3462 20.2039 7.03761 19.8759 3.49002 16.0735C-0.0575774 12.2711 0.069805 6.06763 3.98044 2.56462Z" fill="url(#paint20_radial_0_21624)"/>
<path d="M3.98456 2.56433C5.95146 0.813444 8.52451 -0.0998674 11.1551 0.0191115C13.7858 0.13809 16.2658 1.27995 18.0667 3.20124C16.5056 4.99151 14.8016 6.65189 12.9714 8.16597C12.9714 8.16597 12.465 9.02261 12.6529 9.43979C13.1784 10.7136 17.4934 16.5827 17.4871 16.5859L17.3501 16.7133L17.2896 16.7674C13.3472 20.159 7.03855 19.8246 3.49732 16.035C-0.0439078 12.2454 0.0834744 6.06734 3.98456 2.56433Z" fill="url(#paint21_radial_0_21624)"/>
<path d="M3.98972 2.5639C5.95664 0.815698 8.52813 -0.0959219 11.157 0.0230303C13.7858 0.141983 16.2645 1.28212 18.0655 3.20081C16.5289 4.99236 14.8366 6.64418 13.0084 8.13687C13.0084 8.13687 12.5403 8.9776 12.7218 9.4107C13.2695 10.745 17.4604 16.576 17.4572 16.576C17.454 16.576 17.3458 16.681 17.3171 16.7033L17.2598 16.7543C13.3428 20.1172 7.03734 19.7605 3.50567 15.9964C-0.0260077 12.2322 0.0918212 6.06691 3.98972 2.5639Z" fill="url(#paint22_radial_0_21624)"/>
<path d="M3.99481 2.56431C5.96156 0.817071 8.53236 -0.0939562 11.1604 0.0249881C13.7885 0.143932 16.2665 1.28346 18.0674 3.20122C16.5557 4.99602 14.8762 6.64247 13.0517 8.11817C13.0517 8.11817 12.6218 8.93979 12.8097 9.392C13.3861 10.7709 17.4527 16.5318 17.4464 16.535L17.3094 16.6592L17.2489 16.7133C13.3415 20.0794 7.03925 19.7259 3.51713 15.9586C-0.00498933 12.1912 0.10647 6.03547 3.99481 2.56431Z" fill="url(#paint23_radial_0_21624)"/>
<path d="M3.99896 2.56472C5.96554 0.818444 8.53565 -0.0919906 11.163 0.0269459C13.7903 0.145882 16.2676 1.28481 18.0683 3.20163C16.5825 4.99958 14.9144 6.63882 13.0909 8.09311C13.0909 8.09311 12.6992 8.89562 12.8966 9.36693C13.4953 10.8032 17.4378 16.5003 17.4346 16.5067L17.2945 16.6309L17.234 16.685C13.3425 20.0352 7.04022 19.6753 3.5372 15.9207C0.0341881 12.1662 0.120171 6.01996 3.99896 2.56472Z" fill="url(#paint24_radial_0_21624)"/>
<path d="M4.00509 2.56456C5.97132 0.820214 8.54004 -0.0890358 11.1658 0.0298849C13.7916 0.148806 16.2676 1.28653 18.0681 3.20148C16.6101 5.00005 14.9567 6.631 13.1384 8.06429C13.1384 8.06429 12.7817 8.85088 12.9887 9.33811C13.6256 10.8317 17.4471 16.4715 17.4248 16.4779L17.2879 16.6021L17.2274 16.653C13.339 19.9936 7.03997 19.6242 3.53696 15.8824C0.0339419 12.1405 0.129479 6.00388 4.00509 2.56456Z" fill="url(#paint25_radial_0_21624)"/>
<path d="M4.00724 2.56471C5.97365 0.822078 8.54151 -0.0860795 11.1663 0.0328225C13.791 0.151725 16.2663 1.28833 18.0671 3.20162C16.6384 5.00409 14.997 6.62725 13.1788 8.03578C13.1788 8.03578 12.8603 8.80326 13.0737 9.3096C13.7106 10.8605 17.4174 16.4398 17.411 16.443C17.4047 16.4462 17.306 16.5417 17.2741 16.5672L17.2136 16.6213C13.338 19.9524 7.03894 19.5766 3.53592 15.8443C0.0329103 12.112 0.141185 5.98811 4.00724 2.56471Z" fill="url(#paint26_radial_0_21624)"/>
<path d="M4.01337 2.5457C5.98202 0.806443 8.55061 -0.0977949 11.1746 0.0246683C13.7987 0.147131 16.2719 1.28667 18.07 3.20172C18.07 3.20172 16.5478 5.36722 13.2199 8.00721C13.2199 8.00721 12.9397 8.75877 13.1626 9.28104C13.8314 10.8733 17.4044 16.4113 17.4012 16.4144L17.2611 16.5386L17.2038 16.5928C13.3346 19.9111 7.0387 19.5258 3.53569 15.8062C0.0326787 12.0866 0.150507 5.97228 4.01337 2.5457Z" fill="url(#paint27_radial_0_21624)"/>
<path d="M4.0185 2.53906C5.98813 0.802321 8.55633 -0.099719 11.1794 0.0239145C13.8024 0.147548 16.2744 1.28715 18.0719 3.20144C18.0719 3.20144 16.7121 5.23319 13.2633 7.97828C13.1348 8.39317 13.1348 8.83722 13.2633 9.2521C13.9575 10.9176 17.4032 16.376 17.4032 16.3823L17.2663 16.5065L17.2057 16.5575C13.3333 19.8694 7.04064 19.4777 3.55992 15.7709C0.0792024 12.0641 0.165186 5.95927 4.0185 2.53906Z" fill="url(#paint28_radial_0_21624)"/>
<path d="M4.02154 2.53606C5.99052 0.800119 8.55792 -0.101186 11.1799 0.023049C13.8019 0.147284 16.2726 1.2873 18.0686 3.20163C18.0686 3.20163 16.868 5.11236 13.2918 7.93706C13.1793 8.35604 13.1914 8.79873 13.3268 9.21089C14.0433 10.956 17.3808 16.357 17.3744 16.3634L17.2375 16.4876L17.1801 16.5386C13.33 19.8282 7.03732 19.4429 3.56297 15.7329C0.0886136 12.0228 0.174597 5.94353 4.02154 2.53606Z" fill="url(#paint29_radial_0_21624)"/>
<path d="M4.0254 2.5321C5.9946 0.797525 8.56154 -0.102635 11.1828 0.022186C13.804 0.147007 16.2738 1.28701 18.0693 3.20086C18.0693 3.20086 17.0311 5.00013 13.3434 7.92355C13.2547 8.34758 13.2822 8.78769 13.423 9.19737C14.165 10.9775 17.3719 16.318 17.3655 16.3244L17.2286 16.4454L17.1681 16.4996C13.3275 19.786 7.03799 19.3752 3.57319 15.6939C0.0542613 11.9616 0.184828 5.92684 4.0254 2.5321Z" fill="url(#paint30_radial_0_21624)"/>
<path d="M4.03331 2.52589C6.00332 0.794789 8.56918 -0.102587 11.1887 0.0233954C13.8082 0.149378 16.2761 1.28885 18.0708 3.20101C18.0708 3.20101 17.1919 4.86653 13.3864 7.88231C13.3207 8.31086 13.3645 8.74907 13.5137 9.15613C14.278 10.9936 17.3607 16.2768 17.3543 16.28L17.2174 16.4042L17.1569 16.4551C13.3354 19.7193 7.04591 19.3212 3.58111 15.6335C0.116309 11.9458 0.199107 5.91107 4.03331 2.52589Z" fill="url(#paint31_radial_0_21624)"/>
<path d="M4.03745 2.52321C6.0082 0.793268 8.57413 -0.103057 11.1934 0.0235093C13.8126 0.150075 16.2802 1.28962 18.075 3.20152C18.075 3.20152 17.3553 4.74284 13.4319 7.85415C13.3889 8.28636 13.4478 8.72263 13.6039 9.12798C14.3904 11.0483 17.3489 16.2582 17.3425 16.2741L17.2056 16.3983L17.1483 16.4493C13.3268 19.7007 7.04049 19.2772 3.59161 15.6213C0.0886012 11.9081 0.212799 5.89565 4.03745 2.52321Z" fill="url(#paint32_radial_0_21624)"/>
<path d="M4.04431 2.51994C6.01476 0.791564 8.57971 -0.103528 11.1977 0.0236271C13.8157 0.150783 16.2818 1.29023 18.0755 3.20144C18.0755 3.20144 17.515 4.63449 13.4738 7.83815C13.4557 8.27325 13.5295 8.70728 13.6903 9.11198C14.5024 11.0768 17.3398 16.239 17.3335 16.2581L17.1965 16.3791L17.136 16.4301C13.3241 19.6592 7.04098 19.2293 3.59847 15.5798C0.105011 11.8794 0.22284 5.87965 4.04431 2.51994Z" fill="url(#paint33_radial_0_21624)"/>
<path d="M4.04674 2.51332C6.01816 0.787459 8.58272 -0.105441 11.1997 0.022883C13.8167 0.151207 16.2816 1.29073 18.0747 3.20118C18.0747 3.20118 17.6766 4.51004 13.5144 7.80923C13.5213 8.25187 13.6109 8.68932 13.7787 9.09898C14.6163 11.1084 17.3263 16.2101 17.32 16.2165L17.183 16.3375L17.1257 16.3884C13.3234 19.6176 7.04023 19.1781 3.60727 15.5413C0.120185 11.8536 0.234828 5.86347 4.04674 2.51332Z" fill="url(#paint34_radial_0_21624)"/>
<path d="M4.05316 2.51022C6.02568 0.791145 8.58796 -0.0960562 11.2012 0.0351979C13.8144 0.166452 16.2749 1.30593 18.0652 3.21401C18.0652 3.21401 17.8264 4.38911 13.5463 7.78066C13.5833 8.22476 13.6908 8.66014 13.8648 9.07041C14.7278 11.1404 17.3168 16.1815 17.3105 16.1879L17.1735 16.3089C17.1519 16.3241 17.1317 16.3412 17.113 16.3599C13.3202 19.5763 7.04027 19.124 3.61687 15.5032C0.136152 11.825 0.244427 5.85082 4.05316 2.51022Z" fill="url(#paint35_radial_0_21624)"/>
<path d="M4.05604 2.5071C6.02862 0.787663 8.59131 -0.099481 11.2048 0.0323795C13.8182 0.16424 16.2786 1.30482 18.0681 3.21407C18.0681 3.21407 17.9917 4.26816 13.5906 7.75206C13.6531 8.19664 13.773 8.63124 13.9473 9.04499C14.839 11.1627 17.3038 16.1497 17.2974 16.1561L17.1605 16.2771C17.1414 16.2771 17.1191 16.3153 17.1 16.3281C13.3167 19.5349 7.03997 19.0795 3.62294 15.4651C0.151772 11.7996 0.256862 5.83496 4.05604 2.5071Z" fill="url(#paint36_radial_0_21624)"/>
<path d="M4.06254 2.50079C6.0366 0.783668 8.59943 -0.101382 11.2124 0.0316432C13.8254 0.164668 16.2851 1.30541 18.0746 3.21413C18.0746 3.21413 18.1574 4.15676 13.6385 7.72665C13.731 8.16908 13.8676 8.60114 14.0461 9.0164C14.9537 11.201 17.2976 16.1211 17.288 16.1275C17.2784 16.1339 17.1956 16.2135 17.1511 16.2485L17.0937 16.2995C13.32 19.5 7.0401 19.0286 3.63263 15.4269C0.164647 11.771 0.269737 5.8191 4.06254 2.50079Z" fill="url(#paint37_radial_0_21624)"/>
<path d="M4.06657 2.49721C6.04109 0.780133 8.60456 -0.104306 11.2178 0.0299201C13.831 0.164146 16.2904 1.30658 18.0786 3.21692C18.0786 3.21692 18.3206 4.02262 13.6839 7.6976C13.803 8.13821 13.9519 8.57019 14.1298 8.99053C15.0628 11.2197 17.2825 16.0921 17.2761 16.0985L17.1392 16.2195L17.0787 16.2704C13.3177 19.4423 7.04095 18.9773 3.63984 15.3915C0.181418 11.742 0.280139 5.80279 4.06657 2.49721Z" fill="url(#paint38_radial_0_21624)"/>
<path d="M4.07185 2.49383C6.04677 0.777151 8.61047 -0.106735 11.2237 0.0280849C13.837 0.162905 16.2961 1.30592 18.0839 3.21672C18.0839 3.21672 18.4788 3.89822 13.7274 7.65918C13.7274 7.65918 13.9026 8.19419 14.221 8.95211C15.1764 11.2514 17.2718 16.0537 17.2655 16.06L17.1285 16.1811L17.0712 16.2288C13.3134 19.4102 7.03986 18.9293 3.6483 15.3531C0.19624 11.7131 0.291777 5.78666 4.07185 2.49383Z" fill="url(#paint39_radial_0_21624)"/>
<path d="M17.2477 16.0413C13.5282 19.3851 7.09854 18.9424 3.65285 15.3025C0.207159 11.6625 0.299511 5.74882 4.07321 2.47509C6.04927 0.759969 8.61328 -0.122319 11.2263 0.013678C13.8394 0.149675 16.2979 1.29337 18.0853 3.20436C18.0853 3.20436 18.6489 3.76484 13.7734 7.62771C13.7638 7.64044 17.2605 16.0317 17.2477 16.0413Z" fill="url(#paint40_radial_0_21624)"/>
<path d="M13.6255 7.74805C12.1001 8.99958 10.2244 10.474 8.04297 12.1268C9.66349 13.8793 11.5482 15.3675 13.6287 16.5374C15.4152 17.4928 16.8132 17.6711 17.4979 17.0661C18.1826 16.461 18.0998 15.0662 17.3037 13.2446C16.361 11.2378 15.121 9.3848 13.6255 7.74805Z" fill="url(#paint41_linear_0_21624)"/>
<path d="M13.7608 7.62402L12.9965 8.26093C14.3959 9.79929 15.5593 11.5368 16.4485 13.4167C17.2288 15.2128 17.2097 16.1141 16.9581 16.3402C16.7065 16.5663 15.6206 16.6236 13.885 15.7032C11.9624 14.6129 10.2235 13.2266 8.73237 11.5952L7.87891 12.2321L8.07953 12.4263C11.694 16.1618 15.6046 18.2891 17.3243 17.5153C17.3753 17.4898 17.4262 17.4643 17.474 17.4356H17.4931C17.5596 17.3944 17.6224 17.3475 17.681 17.2955C17.743 17.2394 17.7995 17.1776 17.8498 17.1108C18.9739 15.6364 17.267 11.6652 13.8659 7.7737L13.7608 7.62402Z" fill="#84EEB1"/>
</g>
<defs>
<radialGradient id="paint0_radial_0_21624" cx="0" cy="0" r="1" gradientUnits="userSpaceOnUse" gradientTransform="translate(13.2372 1.13341) rotate(-2.29061) scale(45.8465 33.9271)">
<stop stop-color="#03BA50"/>
<stop offset="0.8" stop-color="#01B64E"/>
</radialGradient>
<radialGradient id="paint1_radial_0_21624" cx="0" cy="0" r="1" gradientUnits="userSpaceOnUse" gradientTransform="translate(13.2361 1.1296) rotate(-2.29061) scale(45.7508 33.8564)">
<stop stop-color="#04BC50"/>
<stop offset="0.8" stop-color="#01B34D"/>
</radialGradient>
<radialGradient id="paint2_radial_0_21624" cx="0" cy="0" r="1" gradientUnits="userSpaceOnUse" gradientTransform="translate(13.2223 1.13776) rotate(-2.29061) scale(45.6552 33.7856)">
<stop stop-color="#06BD51"/>
<stop offset="0.72" stop-color="#02B24C"/>
<stop offset="0.8" stop-color="#01B04B"/>
</radialGradient>
<radialGradient id="paint3_radial_0_21624" cx="0" cy="0" r="1" gradientUnits="userSpaceOnUse" gradientTransform="translate(13.2046 1.15231) rotate(-2.29061) scale(45.5597 33.7149)">
<stop stop-color="#08BF52"/>
<stop offset="0.56" stop-color="#04B44D"/>
<stop offset="0.8" stop-color="#01AD4A"/>
</radialGradient>
<radialGradient id="paint4_radial_0_21624" cx="0" cy="0" r="1" gradientUnits="userSpaceOnUse" gradientTransform="translate(13.1897 1.16644) rotate(-2.29061) scale(45.464 33.6441)">
<stop stop-color="#0AC053"/>
<stop offset="0.48" stop-color="#05B54E"/>
<stop offset="0.8" stop-color="#01AA49"/>
</radialGradient>
<radialGradient id="paint5_radial_0_21624" cx="0" cy="0" r="1" gradientUnits="userSpaceOnUse" gradientTransform="translate(13.1708 1.20102) rotate(-1.71836) scale(45.3494 33.5691)">
<stop stop-color="#0BC253"/>
<stop offset="0.42" stop-color="#07B74E"/>
<stop offset="0.8" stop-color="#01A848"/>
</radialGradient>
<radialGradient id="paint6_radial_0_21624" cx="0" cy="0" r="1" gradientUnits="userSpaceOnUse" gradientTransform="translate(13.1437 1.2089) rotate(-1.71836) scale(45.2538 33.4984)">
<stop stop-color="#0DC354"/>
<stop offset="0.37" stop-color="#08B84F"/>
<stop offset="0.8" stop-color="#01A546"/>
</radialGradient>
<radialGradient id="paint7_radial_0_21624" cx="0" cy="0" r="1" gradientUnits="userSpaceOnUse" gradientTransform="translate(13.4774 1.21771) rotate(-1.71836) scale(45.1582 33.4141)">
<stop stop-color="#0FC555"/>
<stop offset="0.33" stop-color="#0ABA50"/>
<stop offset="0.8" stop-color="#01A245"/>
</radialGradient>
<radialGradient id="paint8_radial_0_21624" cx="0" cy="0" r="1" gradientUnits="userSpaceOnUse" gradientTransform="translate(13.4437 1.23441) rotate(-1.70136) scale(45.5128 33.3434)">
<stop stop-color="#11C656"/>
<stop offset="0.3" stop-color="#0CBB51"/>
<stop offset="0.8" stop-color="#019F44"/>
</radialGradient>
<radialGradient id="paint9_radial_0_21624" cx="0" cy="0" r="1" gradientUnits="userSpaceOnUse" gradientTransform="translate(13.4346 1.25091) rotate(-1.70135) scale(45.4163 33.2727)">
<stop stop-color="#12C856"/>
<stop offset="0.28" stop-color="#0EBD51"/>
<stop offset="0.77" stop-color="#029E44"/>
<stop offset="0.8" stop-color="#019C43"/>
</radialGradient>
<radialGradient id="paint10_radial_0_21624" cx="0" cy="0" r="1" gradientUnits="userSpaceOnUse" gradientTransform="translate(13.4246 1.27234) rotate(-1.70135) scale(45.3166 33.1996)">
<stop stop-color="#14C957"/>
<stop offset="0.26" stop-color="#0FBE52"/>
<stop offset="0.72" stop-color="#049F44"/>
<stop offset="0.8" stop-color="#019941"/>
</radialGradient>
<radialGradient id="paint11_radial_0_21624" cx="0" cy="0" r="1" gradientUnits="userSpaceOnUse" gradientTransform="translate(13.4027 1.29986) rotate(-1.70136) scale(45.22 33.1289)">
<stop stop-color="#16CB58"/>
<stop offset="0.24" stop-color="#11C053"/>
<stop offset="0.66" stop-color="#06A145"/>
<stop offset="0.8" stop-color="#019640"/>
</radialGradient>
<radialGradient id="paint12_radial_0_21624" cx="0" cy="0" r="1" gradientUnits="userSpaceOnUse" gradientTransform="translate(13.379 1.32898) rotate(-1.70135) scale(45.1235 33.0582)">
<stop stop-color="#18CC59"/>
<stop offset="0.23" stop-color="#13C154"/>
<stop offset="0.62" stop-color="#07A246"/>
<stop offset="0.8" stop-color="#01933F"/>
</radialGradient>
<radialGradient id="paint13_radial_0_21624" cx="0" cy="0" r="1" gradientUnits="userSpaceOnUse" gradientTransform="translate(13.3564 1.36418) rotate(-1.70135) scale(45.0237 32.9851)">
<stop stop-color="#19CD59"/>
<stop offset="0.21" stop-color="#15C254"/>
<stop offset="0.59" stop-color="#09A347"/>
<stop offset="0.8" stop-color="#01903E"/>
</radialGradient>
<radialGradient id="paint14_radial_0_21624" cx="0" cy="0" r="1" gradientUnits="userSpaceOnUse" gradientTransform="translate(13.3228 1.40256) rotate(-1.70135) scale(44.9272 32.9143)">
<stop stop-color="#1BCF5A"/>
<stop offset="0.2" stop-color="#17C455"/>
<stop offset="0.56" stop-color="#0BA547"/>
<stop offset="0.8" stop-color="#018D3C"/>
</radialGradient>
<radialGradient id="paint15_radial_0_21624" cx="0" cy="0" r="1" gradientUnits="userSpaceOnUse" gradientTransform="translate(13.2925 1.26436) rotate(-1.13442) scale(44.8197 32.8429)">
<stop stop-color="#1DD05B"/>
<stop offset="0.19" stop-color="#18C556"/>
<stop offset="0.54" stop-color="#0CA648"/>
<stop offset="0.8" stop-color="#018B3B"/>
</radialGradient>
<radialGradient id="paint16_radial_0_21624" cx="0" cy="0" r="1" gradientUnits="userSpaceOnUse" gradientTransform="translate(13.2553 1.29247) rotate(-1.13442) scale(44.7199 32.7698)">
<stop stop-color="#1ED25B"/>
<stop offset="0.18" stop-color="#1AC756"/>
<stop offset="0.51" stop-color="#0EA848"/>
<stop offset="0.8" stop-color="#01883A"/>
</radialGradient>
<radialGradient id="paint17_radial_0_21624" cx="0" cy="0" r="1" gradientUnits="userSpaceOnUse" gradientTransform="translate(13.2164 1.32079) rotate(-1.13442) scale(44.6234 32.6991)">
<stop stop-color="#20D35C"/>
<stop offset="0.18" stop-color="#1BC857"/>
<stop offset="0.49" stop-color="#0FA949"/>
<stop offset="0.8" stop-color="#018539"/>
</radialGradient>
<radialGradient id="paint18_radial_0_21624" cx="0" cy="0" r="1" gradientUnits="userSpaceOnUse" gradientTransform="translate(13.174 1.35942) rotate(-1.13442) scale(44.527 32.6284)">
<stop stop-color="#22D55D"/>
<stop offset="0.17" stop-color="#1DCA58"/>
<stop offset="0.47" stop-color="#11AB4A"/>
<stop offset="0.8" stop-color="#018237"/>
</radialGradient>
<radialGradient id="paint19_radial_0_21624" cx="0" cy="0" r="1" gradientUnits="userSpaceOnUse" gradientTransform="translate(13.1257 1.39627) rotate(-1.13442) scale(44.4272 32.5553)">
<stop stop-color="#24D65E"/>
<stop offset="0.16" stop-color="#1FCB59"/>
<stop offset="0.45" stop-color="#13AC4B"/>
<stop offset="0.8" stop-color="#017F36"/>
</radialGradient>
<radialGradient id="paint20_radial_0_21624" cx="0" cy="0" r="1" gradientUnits="userSpaceOnUse" gradientTransform="translate(13.0721 1.4406) rotate(-1.13442) scale(44.3307 32.4846)">
<stop stop-color="#25D85E"/>
<stop offset="0.15" stop-color="#20CD59"/>
<stop offset="0.43" stop-color="#14AE4B"/>
<stop offset="0.79" stop-color="#017D36"/>
<stop offset="0.8" stop-color="#007C35"/>
</radialGradient>
<radialGradient id="paint21_radial_0_21624" cx="0" cy="0" r="1" gradientUnits="userSpaceOnUse" gradientTransform="translate(14.0369 1.49018) rotate(-1.13442) scale(44.2342 32.4052)">
<stop stop-color="#27D95F"/>
<stop offset="0.15" stop-color="#22CE5A"/>
<stop offset="0.42" stop-color="#16AF4C"/>
<stop offset="0.77" stop-color="#027E36"/>
<stop offset="0.8" stop-color="#007934"/>
</radialGradient>
<radialGradient id="paint22_radial_0_21624" cx="0" cy="0" r="1" gradientUnits="userSpaceOnUse" gradientTransform="translate(13.7063 1.54121) rotate(-1.1233) scale(44.5713 32.3322)">
<stop stop-color="#29DB60"/>
<stop offset="0.14" stop-color="#24D05B"/>
<stop offset="0.4" stop-color="#18B14D"/>
<stop offset="0.74" stop-color="#048037"/>
<stop offset="0.8" stop-color="#007632"/>
</radialGradient>
<radialGradient id="paint23_radial_0_21624" cx="0" cy="0" r="1" gradientUnits="userSpaceOnUse" gradientTransform="translate(13.6693 1.59881) rotate(-1.1233) scale(44.4738 32.2615)">
<stop stop-color="#2BDC61"/>
<stop offset="0.14" stop-color="#26D15C"/>
<stop offset="0.39" stop-color="#1AB24E"/>
<stop offset="0.71" stop-color="#068138"/>
<stop offset="0.8" stop-color="#007331"/>
</radialGradient>
<radialGradient id="paint24_radial_0_21624" cx="0" cy="0" r="1" gradientUnits="userSpaceOnUse" gradientTransform="translate(13.6313 1.66202) rotate(-1.1233) scale(44.3731 32.1884)">
<stop stop-color="#2CDE61"/>
<stop offset="0.13" stop-color="#27D35C"/>
<stop offset="0.37" stop-color="#1BB44E"/>
<stop offset="0.69" stop-color="#088339"/>
<stop offset="0.8" stop-color="#007030"/>
</radialGradient>
<radialGradient id="paint25_radial_0_21624" cx="0" cy="0" r="1" gradientUnits="userSpaceOnUse" gradientTransform="translate(13.5889 1.34303) rotate(-0.561705) scale(44.2693 32.1181)">
<stop stop-color="#2EDF62"/>
<stop offset="0.13" stop-color="#29D45D"/>
<stop offset="0.37" stop-color="#1DB54F"/>
<stop offset="0.67" stop-color="#098439"/>
<stop offset="0.8" stop-color="#006E2F"/>
</radialGradient>
<radialGradient id="paint26_radial_0_21624" cx="0" cy="0" r="1" gradientUnits="userSpaceOnUse" gradientTransform="translate(13.5392 1.39301) rotate(-0.561705) scale(44.1718 32.0474)">
<stop stop-color="#30E163"/>
<stop offset="0.13" stop-color="#2BD65E"/>
<stop offset="0.35" stop-color="#1FB750"/>
<stop offset="0.65" stop-color="#0B8639"/>
<stop offset="0.8" stop-color="#006B2D"/>
</radialGradient>
<radialGradient id="paint27_radial_0_21624" cx="0" cy="0" r="1" gradientUnits="userSpaceOnUse" gradientTransform="translate(13.4902 1.44853) rotate(-0.561706) scale(44.0711 31.9743)">
<stop stop-color="#31E263"/>
<stop offset="0.12" stop-color="#2CD75E"/>
<stop offset="0.34" stop-color="#20B850"/>
<stop offset="0.63" stop-color="#0D873A"/>
<stop offset="0.8" stop-color="#00682C"/>
</radialGradient>
<radialGradient id="paint28_radial_0_21624" cx="0" cy="0" r="1" gradientUnits="userSpaceOnUse" gradientTransform="translate(13.437 1.50608) rotate(-0.561705) scale(43.9736 31.9036)">
<stop stop-color="#33E364"/>
<stop offset="0.12" stop-color="#2ED85F"/>
<stop offset="0.34" stop-color="#22B951"/>
<stop offset="0.62" stop-color="#0E883B"/>
<stop offset="0.8" stop-color="#00652B"/>
</radialGradient>
<radialGradient id="paint29_radial_0_21624" cx="0" cy="0" r="1" gradientUnits="userSpaceOnUse" gradientTransform="translate(13.3752 1.56887) rotate(-0.561705) scale(43.873 31.8305)">
<stop stop-color="#35E565"/>
<stop offset="0.12" stop-color="#30DA60"/>
<stop offset="0.33" stop-color="#24BB52"/>
<stop offset="0.6" stop-color="#108A3C"/>
<stop offset="0.8" stop-color="#00622A"/>
</radialGradient>
<radialGradient id="paint30_radial_0_21624" cx="0" cy="0" r="1" gradientUnits="userSpaceOnUse" gradientTransform="translate(13.3174 1.6331) rotate(-0.561705) scale(43.7755 31.7598)">
<stop stop-color="#37E666"/>
<stop offset="0.11" stop-color="#32DB61"/>
<stop offset="0.32" stop-color="#26BC53"/>
<stop offset="0.59" stop-color="#128B3C"/>
<stop offset="0.8" stop-color="#005F28"/>
</radialGradient>
<radialGradient id="paint31_radial_0_21624" cx="0" cy="0" r="1" gradientUnits="userSpaceOnUse" gradientTransform="translate(13.2539 1.70389) rotate(-0.561705) scale(43.6748 31.6868)">
<stop stop-color="#38E866"/>
<stop offset="0.11" stop-color="#33DD61"/>
<stop offset="0.31" stop-color="#27BE53"/>
<stop offset="0.57" stop-color="#148D3D"/>
<stop offset="0.8" stop-color="#005C27"/>
</radialGradient>
<radialGradient id="paint32_radial_0_21624" cx="0" cy="0" r="1" gradientUnits="userSpaceOnUse" gradientTransform="translate(13.1867 1.77977) rotate(-0.561705) scale(43.5773 31.6161)">
<stop stop-color="#3AE967"/>
<stop offset="0.11" stop-color="#35DE62"/>
<stop offset="0.3" stop-color="#29BF54"/>
<stop offset="0.56" stop-color="#158E3E"/>
<stop offset="0.8" stop-color="#005926"/>
</radialGradient>
<radialGradient id="paint33_radial_0_21624" cx="0" cy="0" r="1" gradientUnits="userSpaceOnUse" gradientTransform="translate(13.1189 1.85749) rotate(-0.561705) scale(43.4799 31.5454)">
<stop stop-color="#3CEB68"/>
<stop offset="0.11" stop-color="#37E063"/>
<stop offset="0.29" stop-color="#2BC155"/>
<stop offset="0.54" stop-color="#17903F"/>
<stop offset="0.8" stop-color="#005625"/>
</radialGradient>
<radialGradient id="paint34_radial_0_21624" cx="0" cy="0" r="1" gradientUnits="userSpaceOnUse" gradientTransform="translate(13.0402 1.94067) rotate(-0.561705) scale(43.3792 31.4723)">
<stop stop-color="#3EEC69"/>
<stop offset="0.1" stop-color="#39E164"/>
<stop offset="0.29" stop-color="#2DC256"/>
<stop offset="0.53" stop-color="#19913F"/>
<stop offset="0.8" stop-color="#005323"/>
</radialGradient>
<radialGradient id="paint35_radial_0_21624" cx="0" cy="0" r="1" gradientUnits="userSpaceOnUse" gradientTransform="translate(12.9623 1.44524) scale(43.2797 31.3989)">
<stop stop-color="#3FEE69"/>
<stop offset="0.1" stop-color="#3AE364"/>
<stop offset="0.28" stop-color="#2EC456"/>
<stop offset="0.52" stop-color="#1A9340"/>
<stop offset="0.8" stop-color="#005122"/>
</radialGradient>
<radialGradient id="paint36_radial_0_21624" cx="0" cy="0" r="1" gradientUnits="userSpaceOnUse" gradientTransform="translate(13.9837 1.51498) scale(43.6023 31.3259)">
<stop stop-color="#41EF6A"/>
<stop offset="0.1" stop-color="#3CE465"/>
<stop offset="0.28" stop-color="#30C557"/>
<stop offset="0.51" stop-color="#1C9441"/>
<stop offset="0.79" stop-color="#015022"/>
<stop offset="0.8" stop-color="#004E21"/>
</radialGradient>
<radialGradient id="paint37_radial_0_21624" cx="0" cy="0" r="1" gradientUnits="userSpaceOnUse" gradientTransform="translate(13.9209 1.59026) scale(43.5071 31.2576)">
<stop stop-color="#43F16B"/>
<stop offset="0.1" stop-color="#3EE666"/>
<stop offset="0.27" stop-color="#32C758"/>
<stop offset="0.5" stop-color="#1E9642"/>
<stop offset="0.77" stop-color="#035223"/>
<stop offset="0.8" stop-color="#004B20"/>
</radialGradient>
<radialGradient id="paint38_radial_0_21624" cx="0" cy="0" r="1" gradientUnits="userSpaceOnUse" gradientTransform="translate(13.862 1.6698) scale(43.4087 31.1869)">
<stop stop-color="#45F26C"/>
<stop offset="0.1" stop-color="#40E767"/>
<stop offset="0.27" stop-color="#34C859"/>
<stop offset="0.49" stop-color="#209742"/>
<stop offset="0.76" stop-color="#055323"/>
<stop offset="0.8" stop-color="#00481E"/>
</radialGradient>
<radialGradient id="paint39_radial_0_21624" cx="0" cy="0" r="1" gradientUnits="userSpaceOnUse" gradientTransform="translate(13.7977 1.75508) scale(43.3071 31.1138)">
<stop stop-color="#46F46C"/>
<stop offset="0.09" stop-color="#41E967"/>
<stop offset="0.26" stop-color="#35CA59"/>
<stop offset="0.48" stop-color="#229943"/>
<stop offset="0.74" stop-color="#065524"/>
<stop offset="0.8" stop-color="#00451D"/>
</radialGradient>
<radialGradient id="paint40_radial_0_21624" cx="0" cy="0" r="1" gradientUnits="userSpaceOnUse" gradientTransform="translate(13.7359 1.84563) scale(43.2054 31.0408)">
<stop stop-color="#48F56D"/>
<stop offset="0.09" stop-color="#43EA68"/>
<stop offset="0.25" stop-color="#37CB5A"/>
<stop offset="0.47" stop-color="#239A44"/>
<stop offset="0.73" stop-color="#085625"/>
<stop offset="0.8" stop-color="#00421C"/>
</radialGradient>
<linearGradient id="paint41_linear_0_21624" x1="14.4407" y1="24.1644" x2="10.7148" y2="-2.554" gradientUnits="userSpaceOnUse">
<stop offset="0.1" stop-color="#FF8475"/>
<stop offset="0.37" stop-color="#E84E43"/>
<stop offset="0.6" stop-color="#D6261F"/>
<stop offset="0.79" stop-color="#CC0E08"/>
<stop offset="0.9" stop-color="#C80500"/>
</linearGradient>
<clipPath id="clip0_0_21624">
<rect width="20" height="20" fill="white" transform="translate(0.667969)"/>
</clipPath>
</defs>
</svg>
