<svg width="35" height="12" viewBox="0 0 35 12" fill="none" xmlns="http://www.w3.org/2000/svg">
<path d="M17.617 3.75102C17.5976 5.28329 18.9825 6.13841 20.0259 6.64678C21.0978 7.16845 21.4579 7.50293 21.4538 7.96936C21.4456 8.68332 20.5987 8.99837 19.8059 9.01064C18.423 9.03212 17.619 8.6373 16.9797 8.33862L16.4816 10.6697C17.1229 10.9654 18.3105 11.2231 19.542 11.2344C22.4327 11.2344 24.324 9.80746 24.3342 7.59498C24.3455 4.78719 20.4504 4.63172 20.4769 3.37665C20.4862 2.99614 20.8493 2.59006 21.6451 2.48675C22.0389 2.43458 23.1262 2.39469 24.3588 2.96238L24.8426 0.706944C24.1798 0.465545 23.3277 0.234375 22.267 0.234375C19.5461 0.234375 17.6323 1.68072 17.617 3.75102ZM29.4916 0.428721C28.9638 0.428721 28.5188 0.736607 28.3204 1.20918L24.191 11.0687H27.0796L27.6545 9.48014H31.1844L31.5179 11.0687H34.0638L31.8421 0.428721H29.4916ZM29.8956 3.303L30.7292 7.29835H28.4462L29.8956 3.303ZM14.1147 0.428721L11.8377 11.0687H14.5903L16.8662 0.428721H14.1147ZM10.0426 0.428721L7.17752 7.67068L6.0186 1.51297C5.88256 0.825597 5.34555 0.428721 4.74921 0.428721H0.065464L0 0.73763C0.961503 0.946297 2.05393 1.28282 2.71574 1.64287C3.12079 1.86279 3.23638 2.05509 3.36935 2.57778L5.56444 11.0687H8.4735L12.9332 0.428721H10.0426Z" fill="#1434CB"/>
</svg>
