<svg width="50" height="20" viewBox="0 0 50 20" fill="none" xmlns="http://www.w3.org/2000/svg">
<path d="M31.8044 3.10278V16.5477H29.467V4.92124H25.2944V16.5477H22.957V3.10278H31.8044Z" fill="#0A0D14"/>
<path d="M35.7185 16.7412C34.6882 16.7412 33.8962 16.5413 33.3424 16.1415V14.265C33.6386 14.4713 33.9606 14.6325 34.3083 14.7486C34.6689 14.8647 35.0939 14.9227 35.5832 14.9227C36.3173 14.9227 36.8711 14.7099 37.2445 14.2843C37.618 13.8458 37.8498 13.2461 37.94 12.4852H34.5594V10.6668H37.9206C37.7017 9.18364 36.9419 8.44207 35.6412 8.44207C35.242 8.44207 34.8427 8.50655 34.4435 8.63552C34.0572 8.76449 33.7481 8.89991 33.5163 9.04177V7.0879C33.761 6.95893 34.0894 6.84931 34.5015 6.75903C34.9136 6.66876 35.4094 6.62362 35.9889 6.62362C36.7101 6.62362 37.3411 6.75259 37.882 7.01052C38.4358 7.25556 38.893 7.60378 39.2535 8.05517C39.627 8.49366 39.9039 9.02887 40.0842 9.66082C40.2774 10.2799 40.374 10.9569 40.374 11.6921C40.374 13.33 39.9876 14.581 39.2149 15.445C38.4551 16.3091 37.2896 16.7412 35.7185 16.7412Z" fill="#0A0D14"/>
<path d="M45.8375 5.54028C44.9102 5.54028 44.2084 5.30814 43.7319 4.84386C43.2683 4.37957 43.0364 3.79921 43.0364 3.10278H44.9682C44.9682 3.4381 45.0455 3.68314 45.2 3.8379C45.3674 3.99266 45.5799 4.07005 45.8375 4.07005C46.0822 4.07005 46.2753 3.99266 46.417 3.8379C46.5587 3.67024 46.6295 3.4252 46.6295 3.10278H48.5612C48.5612 3.4381 48.5033 3.75407 48.3874 4.0507C48.2715 4.34733 48.0976 4.60526 47.8658 4.82451C47.6469 5.04376 47.3636 5.21786 47.0158 5.34683C46.681 5.4758 46.2882 5.54028 45.8375 5.54028ZM44.1375 6.81707V12.8528L47.6533 6.81707H49.701V16.5477H47.4795V10.5314L43.9637 16.5477H41.916V6.81707H44.1375Z" fill="#0A0D14"/>
<g clip-path="url(#clip0_1_10693)">
<ellipse cx="9.21261" cy="10.0001" rx="8.91574" ry="8.92857" fill="#FC3F1D"/>
<path d="M10.4701 15.3661H12.3328V4.65186H9.62341C6.89866 4.65186 5.46701 6.05473 5.46701 8.12051C5.46701 9.77005 6.25211 10.7413 7.65297 11.7433L5.2207 15.3661H7.23733L9.94669 11.3117L9.00765 10.6796C7.86849 9.90879 7.3143 9.30756 7.3143 8.0126C7.3143 6.87179 8.11479 6.10098 9.6388 6.10098H10.4701V15.3661Z" fill="white"/>
</g>
<defs>
<clipPath id="clip0_1_10693">
<rect x="0.296875" y="1.07153" width="17.8315" height="17.8571" rx="8.91574" fill="white"/>
</clipPath>
</defs>
</svg>
