<svg width="120" height="100" viewBox="0 0 120 100" fill="none" xmlns="http://www.w3.org/2000/svg">
<ellipse cx="58.7451" cy="49.8711" rx="27.6324" ry="51.8813" transform="rotate(60 58.7451 49.8711)" fill="#FFCF0D"/>
<path d="M52.5911 85.7266C47.2014 84.5678 41.6095 83.9663 36.4599 82.13C27.4497 78.9197 24.0377 70.8655 27.0959 61.7855C30.1035 52.8701 36.0429 46.0253 43.0564 40.1683C58.8022 27.0042 76.8289 19.9251 97.5788 20.7989C102.665 21.0142 107.587 22.0526 112.08 24.6107C118.752 28.4099 121.444 35.2484 119.251 42.6124C116.635 51.3885 111.1 58.1636 104.46 64.103C91.6521 75.5448 76.6835 82.3643 59.6615 84.5678C57.3742 84.8654 55.0553 84.8717 52.749 85.011C52.6985 85.2517 52.6416 85.4859 52.5911 85.7266ZM47.5742 82.4656C51.3905 81.9717 54.8089 81.7184 58.1514 81.0599C71.9257 78.3499 84.4806 72.5815 96.3088 65.1858C103.765 60.5255 110.418 54.8964 115.094 47.2537C121.678 36.4958 117.874 26.9915 105.578 24.3891C101.477 23.5216 97.0101 23.4266 92.8463 23.9838C74.0045 26.485 57.2983 34.2226 42.3488 45.81C36.9149 50.0271 32.1128 54.9154 29.2442 61.3739C25.1877 70.5173 28.7071 78.2802 38.3491 80.9523C41.4452 81.8134 44.7245 82.0097 47.5805 82.4593L47.5742 82.4656Z" fill="black"/>
</svg>
