<svg width="0" height="0" class="hidden">
    <symbol version="1.1" xmlns="http://www.w3.org/2000/svg" viewBox="0 0 1159 512" id="logo">
        <path fill="currentColor"
              d="M69.263 135.020c0 69.977 38.749 99.761 115.083 99.761 33.837 0 51.476-2.317 70.268-6.939v-43.372c-19.666 4.053-38.458 7.523-73.154 7.523-37.876 0-59.568-17.349-59.568-57.833 0-39.901 21.692-55.515 65.632-55.515 27.466 0 53.489 4.052 67.089 9.257v-44.245c-13.587-4.913-37.584-7.813-64.481-7.813-82.12-0.014-120.87 28.035-120.87 99.177z"></path>
        <path fill="currentColor"
              d="M376.277 35.842c-69.686 0-104.382 29.784-104.382 100.343 0 68.825 34.696 98.595 104.382 98.595 69.685 0 104.091-29.784 104.091-98.595 0-70.559-34.406-100.343-104.091-100.343zM376.277 191.992c-36.141 0-51.754-17.349-51.754-56.667s15.613-56.681 51.754-56.681c35.848 0 51.462 17.349 51.462 56.681 0 39.317-15.615 56.666-51.462 56.666z"></path>
        <path fill="currentColor"
              d="M1032.076 418.985c0-10.992-7.523-17.932-19.375-17.932h-51.754v35.572h51.754c11.867 0 19.375-6.661 19.375-17.639z"></path>
        <path fill="currentColor"
              d="M1023.693 340.33c0-10.118-7.523-16.488-19.374-16.488h-43.372v39.61h40.485c13.587 0.014 22.261-8.952 22.261-23.122z"></path>
        <path fill="currentColor"
              d="M1158.737 506.533v-252.593h-609.139v-253.94h-549.598v270.635h204.572v235.898h621.588zM910.086 283.363h100.052c45.397 0 67.951 17.349 67.951 52.628 0 20.527-10.701 32.962-26.605 41.053v1.152c19.666 10.118 34.988 23.997 34.988 46.841 0 34.697-21.693 52.045-65.064 52.045h-111.321v-193.719zM18.043 18.043h513.514v234.552h-513.514v-234.552zM462.19 332.812c-13.588-5.205-39.61-9.257-67.091-9.257-43.954 0-65.632 15.613-65.632 55.514 0 40.484 21.692 57.833 59.567 57.833 34.697 0 53.489-3.469 73.156-7.522v43.372c-18.791 4.622-36.431 6.939-70.268 6.939-76.334 0-115.083-29.784-115.083-99.76 0-71.129 38.749-99.177 120.87-99.177 26.897 0 50.893 2.886 64.481 7.813v44.245zM603.587 477.096h-50.894v-153.25h-67.367v-40.485h185.642v40.485h-67.367v153.25h-0.014zM812.351 441.83h-82.121l-13.296 35.279h-58.402l73.154-170.306c7.814-17.932 18.5-26.023 39.903-26.023 20.818 0 32.101 8.091 39.61 25.731l72.863 170.599h-58.401l-13.309-35.279z"></path>
        <path fill="currentColor"
              d="M771.601 338.632c-1.152 0-2.609 0.875-3.178 2.61l-22.845 60.151h51.754l-22.553-60.151c-0.568-1.749-1.721-2.61-3.178-2.61z"></path>
    </symbol>
    <symbol version="1.1" xmlns="http://www.w3.org/2000/svg" viewBox="0 0 493 512" id="arrow-right">
        <path fill="none" stroke-linejoin="miter" stroke-linecap="butt" stroke-miterlimit="4" stroke-width="40.0851"
              stroke="currentColor" d="M210.768 487.462l236.65-236.65-236.65-236.649"></path>
        <path fill="none" stroke-linejoin="miter" stroke-linecap="butt" stroke-miterlimit="4" stroke-width="40.0512"
              stroke="currentColor" d="M0.462 255l436.245-8.381"></path>
    </symbol>

    <symbol version="1.1" xmlns="http://www.w3.org/2000/svg" viewBox="0 0 640 512" id="arrow-right-long">
        <path fill="none" stroke-linejoin="miter" stroke-linecap="butt" stroke-miterlimit="4" stroke-width="32.5691"
              stroke="currentColor" d="M358.75 500.063l244.269-244.269-244.269-244.268"></path>
        <path fill="none" stroke-linejoin="miter" stroke-linecap="butt" stroke-miterlimit="4" stroke-width="32.5416"
              stroke="currentColor" d="M0 254.563h591.667"></path>
    </symbol>
    <symbol version="1.1" xmlns="http://www.w3.org/2000/svg" viewBox="0 0 640 512" id="arrow-left-long">
        <path fill="none" stroke-linejoin="miter" stroke-linecap="butt" stroke-miterlimit="4" stroke-width="32.5691"
              stroke="currentColor" d="M267.25 11.5l-244.268 244.269 244.268 244.269"></path>
        <path fill="none" stroke-linejoin="miter" stroke-linecap="butt" stroke-miterlimit="4" stroke-width="32.5416"
              stroke="currentColor" d="M626 257h-591.667"></path>
    </symbol>
    <symbol fill="none" xmlns="http://www.w3.org/2000/svg" viewBox="0 0 137 73" id="year-bg">
        <path d="M135.155 36.3125C135.155 45.6776 128.008 54.4367 115.824 60.9258C103.693 67.3871 86.8502 71.4209 68.1807 71.4209C49.5112 71.4209 32.6685 67.387 20.5371 60.9258C8.35391 54.4368 1.20705 45.6776 1.20704 36.3125C1.20704 26.9473 8.35367 18.1873 20.5371 11.6982C32.6685 5.23698 49.5112 1.20413 68.1807 1.2041C86.8501 1.2041 103.693 5.237 115.824 11.6982C128.008 18.1873 135.155 26.9473 135.155 36.3125Z"
              fill="currentColor" stroke="black" stroke-width="2.40882"></path>
    </symbol>
    <symbol version="1.1" xmlns="http://www.w3.org/2000/svg" viewBox="0 0 2493 512" id="zerno">
        <path fill="currentColor" d="M1040.065 413.532h-498.615v-271.387h499.060v69.181h-377.101v29.528h376.9v71.276h-377.246v31.772h377.001v69.63z"></path>
        <path fill="currentColor" d="M117.499 233.474h-115.882c-8.104-42.696 22.238-84.344 68.392-94.17 9.735-2.095 19.915-2.844 29.897-2.893 103.726-0.698 207.401-1.246 311.127-1.397 12.601 0 25.499 1.248 37.755 4.19 29.848 7.232 51.491 24.091 60.288 55.565 9.241 32.97 0.791 59.655-27.13 81.451 31.33 24.141 38.693 55.414 24.115 90.13-14.38 34.317-44.574 48.632-79.314 48.981-113.114 1.098-226.279 1.697-339.393 0-55.149-0.848-91.618-43.144-87.023-95.767h118.403c1.334 18.704 12.798 22.894 30.144 22.745 71.605-0.698 143.258-0.2 214.863-0.498 7.067 0 15.171-0.898 20.706-4.589 3.409-2.295 5.732-13.666 3.607-15.662-5.634-5.237-13.837-10.574-21.101-10.674-51.442-0.898-102.935-0.498-154.428-0.498-19.371 0-38.743 0-59.498 0v-69.031c26.141 0 52.579 0.15 79.066 0 46.155-0.299 92.261-0.299 138.367-1.845 6.078-0.2 11.811-8.978 17.74-13.766-6.176-4.539-12.305-12.969-18.581-13.068-75.608-1.297-151.215-1.995-226.822-1.048-9.439 0.1-18.778 10.625-28.168 16.31 0.939 1.845 1.878 3.691 2.817 5.536h0.049z"></path>
        <path fill="currentColor" d="M1193.405 413.445h-120.476v-273.134c20.257 0 40.67-0.049 61.129 0 113.753 0.35 227.462 0.5 341.222 1.147 64.29 0.35 110.147 45.939 110.243 108.585 0.104 62.597-45.657 108.585-109.85 109.034-85.638 0.598-171.327 0.299-256.965 0.399-7.806 0-15.62 0-25.251 0v53.969h-0.052zM1194.785 263.262c4.452 0.699 7.020 1.497 9.639 1.497 79.018 0.25 158.037 0.399 237.056 0.498 2.664 0 6.174 0.848 7.851-0.498 5.238-4.24 13.446-9.227 13.639-14.166 0.2-4.838-7.361-11.272-12.941-14.515-4.052-2.394-10.477-0.898-15.813-0.847-73.684 0.149-147.315 0.25-220.991 0.499-5.832 0-11.665 0.748-18.484 1.197v26.336h0.044z"></path>
        <path fill="currentColor" d="M1965.998 511.992c-42.155-9.127-85.89-13.866-126.16-28.33-70.47-25.288-97.154-88.733-73.238-160.259 23.523-70.228 69.974-124.147 124.824-170.284 123.147-103.697 264.133-159.461 426.414-152.577 39.787 1.696 78.276 9.876 113.412 30.026 52.187 29.927 73.238 83.796 56.090 141.804-20.457 69.131-63.747 122.501-115.682 169.286-100.166 90.13-217.236 143.849-350.364 161.207-17.89 2.344-36.025 2.394-54.064 3.491-0.393 1.896-0.839 3.741-1.232 5.637zM1926.76 486.305c29.844-3.89 56.58-5.886 82.722-11.074 107.728-21.348 205.92-66.787 298.429-125.044 58.309-36.711 110.347-81.053 146.914-141.256 51.49-84.743 21.742-159.61-74.418-180.11-32.070-6.834-67.012-7.581-99.581-3.192-147.36 19.702-278.016 80.653-394.938 171.93-42.496 33.219-80.050 71.725-102.489 122.6-31.722 72.024-4.2 133.175 71.213 154.224 24.213 6.784 49.857 8.33 72.199 11.871l-0.052 0.050z"></path>
        <path fill="currentColor" d="M1727.258 330.142v83.397h-120.476v-270.639h120.179v87.935h64.89c-14.336 30.526-26.936 59.205-41.412 86.888-2.871 5.486-12.852 7.132-23.181 12.469v-0.050z"></path>
        <path fill="currentColor" d="M2117.35 413.998h-120.283v-88.035h-198.107c9.187-15.363 15.368-26.785 22.58-37.509 5.981-8.928 13.438-16.808 19.671-25.538 17.735-24.739 39.677-37.16 71.599-33.568 26.936 3.042 54.457 0.649 83.96 0.649 0-26.137 0.393-49.728-0.149-73.271-0.245-11.621 4.742-15.263 15.516-15.363 31.432-0.149 62.909-1.397 94.342-0.898 4.742 0.1 13.341 7.432 13.386 11.423 0.549 85.042 0.148 170.134-0.148 255.227 0 1.846-1.18 3.74-2.271 6.834l-0.097 0.050z"></path>
    </symbol>
    <symbol version="1.1" xmlns="http://www.w3.org/2000/svg" viewBox="0 0 512 512" id="checkmark">
        <path fill="currentColor" d="M432 64l-240 240-112-112-80 80 192 192 320-320z"></path>
    </symbol>

    <symbol version="1.1" xmlns="http://www.w3.org/2000/svg" viewBox="0 0 512 512" id="tg">
        <path fill="none" stroke-linejoin="miter" stroke-linecap="butt" stroke-miterlimit="4" stroke-width="14.6286" stroke="currentColor" d="M256 7.314c137.346 0 248.685 111.341 248.685 248.685s-111.341 248.685-248.685 248.685c-137.345 0-248.685-111.341-248.685-248.685s111.341-248.685 248.685-248.685z"></path>
        <path fill="currentColor" d="M214.457 271.788l-3.891 53.149c5.717 0 8.243-2.383 11.434-5.212l27.47-24.352 57.146 38.493c10.517 5.291 18.107 2.551 20.726-8.901l37.515-161.179c3.841-14.039-5.87-20.406-15.93-16.242l-220.285 77.444c-15.037 5.499-14.949 13.147-2.741 16.555l56.529 16.085 130.874-75.277c6.178-3.416 11.848-1.58 7.195 2.185l-106.041 87.252z"></path>
    </symbol>
    <symbol version="1.1" xmlns="http://www.w3.org/2000/svg" viewBox="0 0 512 512" id="vk">
        <path fill="none" stroke-linejoin="miter" stroke-linecap="butt" stroke-miterlimit="4" stroke-width="14.6286" stroke="currentColor" d="M256 7.314c137.346 0 248.685 111.341 248.685 248.685s-111.341 248.685-248.685 248.685c-137.345 0-248.685-111.341-248.685-248.685s111.341-248.685 248.685-248.685z"></path>
        <path fill="currentColor" d="M255.002 335.784c0 0 5.016-0.565 7.585-3.366 2.353-2.566 2.271-7.408 2.271-7.408s-0.312-22.611 10.033-25.95c10.196-3.283 23.287 21.867 37.181 31.536 10.495 7.313 18.46 5.712 18.46 5.712l37.126-0.525c0 0 19.412-1.214 10.209-16.706-0.76-1.27-5.37-11.464-27.596-32.405-23.287-21.923-20.161-18.377 7.87-56.299 17.075-23.094 23.899-37.193 21.764-43.221-2.026-5.767-14.586-4.235-14.586-4.235l-41.789 0.262c0 0-3.099-0.429-5.397 0.965-2.243 1.367-3.698 4.553-3.698 4.553s-6.606 17.866-15.429 33.068c-18.611 32.061-26.046 33.757-29.092 31.77-7.082-4.649-5.315-18.651-5.315-28.597 0-31.082 4.649-44.035-9.041-47.388-4.541-1.118-7.885-1.849-19.507-1.972-14.914-0.152-27.529 0.054-34.68 3.6-4.757 2.359-8.428 7.629-6.185 7.933 2.761 0.371 9.012 1.71 12.331 6.291 4.282 5.918 4.132 19.19 4.132 19.19s2.46 36.584-5.75 41.124c-5.627 3.118-13.35-3.242-29.947-32.337-8.496-14.899-14.914-31.371-14.914-31.371s-1.236-3.077-3.452-4.732c-2.679-2-6.416-2.621-6.416-2.621l-39.709 0.263c0 0-5.968 0.166-8.156 2.8-1.944 2.332-0.15 7.174-0.15 7.174s31.090 73.82 66.3 111.027c32.286 34.102 68.935 31.867 68.935 31.867h16.612z"></path>
    </symbol>
    <symbol version="1.1" xmlns="http://www.w3.org/2000/svg" viewBox="0 0 922 512" id="arrow-select">
        <path fill="none" stroke-linejoin="miter" stroke-linecap="butt" stroke-miterlimit="4" stroke-width="41.4851" stroke="currentColor" d="M15 14.3l435.594 456.336 435.594-456.336"></path>
    </symbol>
</svg>