<svg width="336" height="69" viewBox="0 0 336 69" fill="none" xmlns="http://www.w3.org/2000/svg">
<g clip-path="url(#clip0_1703_872)">
<path d="M140.165 55.7299H72.9688V19.1562H140.225V28.4795H89.4048V32.4588H140.198V42.0644H89.3582V46.3462H140.165V55.7232V55.7299Z" fill="black"/>
<path d="M15.8348 31.4643H0.217865C-0.87432 25.7104 3.21471 20.0976 9.43484 18.7734C10.7468 18.4911 12.1187 18.3902 13.4639 18.3835C27.4426 18.2894 41.4145 18.2155 55.3932 18.1953C57.0914 18.1953 58.8296 18.3634 60.4812 18.7599C64.5036 19.7346 67.4205 22.0066 68.6059 26.2481C69.8513 30.6913 68.7125 34.2875 64.9498 37.2249C69.172 40.4783 70.1643 44.6929 68.1997 49.3713C66.2617 53.996 62.1927 55.9252 57.5109 55.9722C42.267 56.1201 27.0163 56.2008 11.7724 55.9722C4.3402 55.8579 -0.574635 50.1578 0.0447136 43.0662H16.0013C16.1811 45.5869 17.7261 46.1516 20.0637 46.1314C29.7135 46.0373 39.37 46.1045 49.0199 46.0642C49.9722 46.0642 51.0644 45.9432 51.8103 45.4458C52.2698 45.1366 52.5828 43.604 52.2964 43.3351C51.5372 42.6293 50.4317 41.9101 49.4528 41.8966C42.5201 41.7756 35.5807 41.8294 28.6413 41.8294C26.0307 41.8294 23.4201 41.8294 20.6231 41.8294V32.5263C24.146 32.5263 27.709 32.5465 31.2785 32.5263C37.4987 32.486 43.7121 32.486 49.9256 32.2776C50.7447 32.2507 51.5173 31.0677 52.3164 30.4224C51.484 29.8107 50.6582 28.6747 49.8124 28.6613C39.6231 28.4865 29.4338 28.3924 19.2445 28.5201C17.9725 28.5335 16.7139 29.9519 15.4485 30.7182C15.575 30.9669 15.7016 31.2156 15.8281 31.4643H15.8348Z" fill="black"/>
<path d="M160.83 55.7182H144.594V18.9092C147.324 18.9092 150.075 18.9025 152.832 18.9092C168.162 18.9563 183.486 18.9765 198.817 19.0638C207.481 19.1109 213.661 25.2547 213.674 33.6974C213.688 42.1333 207.521 48.3309 198.87 48.3914C187.329 48.472 175.781 48.4317 164.24 48.4451C163.188 48.4451 162.135 48.4451 160.837 48.4451V55.7182H160.83ZM161.016 35.4786C161.616 35.5728 161.962 35.6803 162.315 35.6803C172.964 35.7139 183.613 35.7341 194.262 35.7475C194.621 35.7475 195.094 35.8618 195.32 35.6803C196.026 35.1089 197.132 34.4368 197.158 33.7713C197.185 33.1193 196.166 32.2522 195.414 31.8152C194.868 31.4926 194.002 31.6942 193.283 31.701C183.353 31.7211 173.43 31.7346 163.501 31.7682C162.715 31.7682 161.929 31.869 161.01 31.9295V35.4786H161.016Z" fill="black"/>
<path d="M264.949 68.9989C259.268 67.7688 253.374 67.1302 247.947 65.1809C238.45 61.7729 234.854 53.2227 238.077 43.5835C241.247 34.1191 247.507 26.8528 254.899 20.6351C271.495 6.6603 290.495 -0.854752 312.365 0.0728656C317.727 0.301409 322.914 1.4038 327.649 4.11943C334.682 8.15255 337.519 15.4122 335.208 23.2297C332.451 32.5462 326.617 39.7386 319.618 46.0437C306.119 58.1902 290.342 65.4296 272.401 67.7688C269.99 68.0847 267.546 68.0915 265.115 68.2393C265.062 68.4948 265.002 68.7435 264.949 68.9989ZM259.661 65.5372C263.683 65.0129 267.286 64.744 270.809 64.0449C285.327 61.1679 298.56 55.0443 311.027 47.1932C318.885 42.2459 325.898 36.2701 330.826 28.1568C337.765 16.7364 333.756 6.64685 320.797 3.88417C316.475 2.96327 311.766 2.86244 307.377 3.45397C287.518 6.10911 269.91 14.3232 254.153 26.6243C248.426 31.101 243.365 36.2903 240.341 43.1466C236.066 52.853 239.775 61.094 249.938 63.9306C253.201 64.8448 256.657 65.0532 259.668 65.5304L259.661 65.5372Z" fill="black"/>
<path d="M232.775 44.4917V55.7307H216.539V19.2578H232.735V31.1085H241.48C239.548 35.2223 237.85 39.0873 235.899 42.818C235.512 43.5574 234.167 43.7792 232.775 44.4984V44.4917Z" fill="black"/>
<path d="M285.346 55.7926H269.136V43.9285H242.438C243.676 41.8581 244.509 40.3188 245.481 38.8736C246.287 37.6704 247.292 36.6084 248.132 35.432C250.522 32.098 253.479 30.4242 257.781 30.9082C261.411 31.3182 265.12 30.9956 269.096 30.9956C269.096 27.4733 269.149 24.2939 269.076 21.1212C269.043 19.555 269.715 19.0643 271.167 19.0508C275.403 19.0307 279.645 18.8626 283.881 18.9298C284.52 18.9433 285.679 19.9314 285.685 20.4692C285.759 31.9299 285.705 43.3975 285.665 54.865C285.665 55.1137 285.506 55.3691 285.359 55.7859L285.346 55.7926Z" fill="black"/>
</g>
<defs>
<clipPath id="clip0_1703_872">
<rect width="336" height="69" fill="white"/>
</clipPath>
</defs>
</svg>
