<svg width="30" height="30" viewBox="0 0 30 30" fill="none" xmlns="http://www.w3.org/2000/svg">
<path d="M30 15C30 6.71573 23.2843 0 15 0C6.71573 0 0 6.71573 0 15C0 23.2843 6.71573 30 15 30C23.2843 30 30 23.2843 30 15Z" fill="#2C77BC"/>
<path fill-rule="evenodd" clip-rule="evenodd" d="M20.5675 9.13661C21.3277 8.81651 22.1427 9.45934 22.0085 10.2732L20.423 19.8864C20.2701 20.8133 19.2521 21.3452 18.4017 20.8833C17.6901 20.4968 16.6344 19.9019 15.6829 19.2802C15.2077 18.9697 13.7529 17.9742 13.9317 17.2655C14.0846 16.6596 16.5304 14.383 17.928 13.029C18.477 12.4972 18.2269 12.19 17.5786 12.6796C15.9702 13.8944 13.388 15.7412 12.5341 16.261C11.7807 16.7195 11.3873 16.7978 10.9181 16.7195C10.0613 16.5768 9.26694 16.3557 8.61838 16.0868C7.74183 15.7235 7.78452 14.5189 8.6178 14.1681L20.5675 9.13661Z" fill="white"/>
</svg>
