<svg width="0" height="0" class="hidden">
    <symbol version="1.1" xmlns="http://www.w3.org/2000/svg" viewBox="0 0 448 448" id="pin-yd">
        <path fill="#fc3f1d"
              d="M224 369.134c34.222-29.244 61.834-60.122 82.834-92.634s31.5-60.434 31.5-83.766c0-34.222-10.812-62.534-32.434-84.934s-48.922-33.6-81.9-33.6c-32.978 0-60.278 11.2-81.9 33.6s-32.434 50.712-32.434 84.934c0 23.333 10.5 51.255 31.5 83.766s48.612 63.389 82.834 92.634zM224 386.866c-42-37.644-73.734-72.8-95.2-105.466s-32.2-62.222-32.2-88.666c0-37.334 12.212-68.522 36.634-93.567s54.678-37.566 90.766-37.566 66.344 12.522 90.766 37.566c24.422 25.045 36.634 56.234 36.634 93.567 0 26.444-10.734 56-32.2 88.666s-53.2 67.822-95.2 105.466z"></path>
        <path fill="#fc3f1d"
              d="M240.922 143.647h-12.43c-22.806 0-34.782 10.874-34.782 26.976 0 18.274 8.293 26.756 25.332 37.639l14.050 8.922-40.5 57.216h-30.192l36.392-51.128c-20.964-14.139-32.708-27.846-32.708-51.128 0-29.149 21.416-48.945 62.187-48.945h40.5v151.2h-27.868l0.019-130.753z"></path>
    </symbol>
    <symbol version="1.1" xmlns="http://www.w3.org/2000/svg" viewBox="0 0 448 448" id="pin-check">
        <path fill="currentColor"
              d="M204.4 231l75.6-75.6-9.334-9.334-66.266 66.267-26.134-26.134-9.333 9.334 35.466 35.466zM224 369.134c34.222-29.244 61.834-60.122 82.834-92.634s31.5-60.434 31.5-83.766c0-34.222-10.812-62.534-32.434-84.934s-48.922-33.6-81.9-33.6c-32.978 0-60.278 11.2-81.9 33.6s-32.434 50.712-32.434 84.934c0 23.333 10.5 51.255 31.5 83.766s48.612 63.389 82.834 92.634zM224 386.866c-42-37.644-73.734-72.8-95.2-105.466s-32.2-62.222-32.2-88.666c0-37.334 12.212-68.522 36.634-93.567s54.678-37.566 90.766-37.566 66.344 12.522 90.766 37.566c24.422 25.045 36.634 56.234 36.634 93.567 0 26.444-10.734 56-32.2 88.666s-53.2 67.822-95.2 105.466z"></path>
    </symbol>
    <symbol version="1.1" xmlns="http://www.w3.org/2000/svg" viewBox="0 0 1236 448" id="arrow-price">
        <path fill="currentColor"
              d="M988.395 21.125l226.117 224.015 21.326-21.126-226.12-224.014-21.323 21.125z"></path>
        <path fill="currentColor" d="M1009.746 448l226.117-224.014-21.323-21.126-226.115 224.014 21.322 21.126z"></path>
        <path fill="currentColor" d="M1207.216 209.063h-1207.216v29.877h1207.216v-29.877z"></path>
    </symbol>
<!--    <symbol version="1.1" xmlns="http://www.w3.org/2000/svg" viewBox="0 0 448 448" id="mark-email">-->
<!--        <path fill="currentColor"-->
<!--              d="M286.533 392.933l-62.533-62.533 9.333-9.333 53.2 53.2 106.4-106.4 9.333 9.333-115.733 115.733zM224 205.333l141.867-93.333h-283.733l141.867 93.333zM224 221.2l-149.333-98.933v198.8c0 4.355 1.4 7.933 4.2 10.733s6.378 4.2 10.733 4.2h87.267l13.067 13.067h-100.333c-8.088 0-14.778-2.645-20.067-7.933s-7.933-11.978-7.933-20.067v-194.133c0-8.088 2.645-14.778 7.933-20.067s11.978-7.933 20.067-7.933h268.8c8.088 0 14.778 2.645 20.067 7.933s7.933 11.978 7.933 20.067v95.2l-13.067 13.067v-112.933l-149.333 98.933z"></path>-->
<!--    </symbol>-->
    <symbol version="1.1" xmlns="http://www.w3.org/2000/svg" viewBox="0 0 448 448" id="mark-email">
        <path fill="currentColor" d="M264.389 333.2l-46.257-46.453 6.904-6.933 39.354 39.52 78.707-79.040 6.904 6.933-85.611 85.974zM218.132 193.84l104.942-69.334h-209.885l104.943 69.334zM218.132 205.626l-110.466-73.493v147.68c0 3.235 1.036 5.893 3.107 7.973s4.718 3.12 7.94 3.12h64.554l9.666 9.707h-74.22c-5.984 0-10.931-1.964-14.844-5.894s-5.868-8.898-5.868-14.906v-144.214c0-6.009 1.956-10.978 5.868-14.906s8.86-5.894 14.844-5.894h198.838c5.984 0 10.931 1.964 14.844 5.894s5.868 8.898 5.868 14.906v70.72l-9.666 9.706v-83.894l-110.466 73.493z"></path>
    </symbol>
    <symbol version="1.1" xmlns="http://www.w3.org/2000/svg" viewBox="0 0 2088 448" id="logo">
        <path fill="currentColor" d="M2068.974 392.882h-34.233v55.118h9.112v-18.37h25.109c2.428 0.041 4.832-0.405 7.084-1.309s4.304-2.253 6.040-3.963c1.724-1.71 3.096-3.749 4.034-5.999s1.419-4.664 1.419-7.104c0-2.44-0.481-4.854-1.419-7.104s-2.31-4.289-4.034-5.999c-1.736-1.711-3.788-3.057-6.040-3.963-2.252-0.904-4.656-1.35-7.084-1.309h0.012zM2068.974 420.441h-25.121v-18.37h25.109c1.22-0.029 2.428 0.186 3.565 0.636 1.138 0.448 2.17 1.12 3.038 1.976 0.868 0.855 1.56 1.878 2.040 3.007 0.469 1.128 0.715 2.341 0.715 3.567s-0.246 2.437-0.715 3.567c-0.481 1.128-1.173 2.151-2.040 3.007s-1.9 1.528-3.038 1.976c-1.138 0.449-2.345 0.665-3.565 0.636h0.012z"></path>
        <path fill="currentColor" d="M905.896 392.879v55.121h50.457v-9.189h-41.282v-13.778h38.988v-9.188h-38.988v-13.778h41.282v-9.189h-50.457z"></path>
        <path fill="currentColor" d="M1625.419 415.846h-32.111v-22.967h-9.171v55.121h9.171v-22.967h32.111v22.967h9.171v-55.121h-9.171v22.967z"></path>
        <path fill="currentColor" d="M49.060 419.325c1.978-2.341 3.245-5.198 3.653-8.234 0.407-3.038-0.062-6.127-1.353-8.906-1.291-2.778-3.35-5.131-5.935-6.78-2.584-1.648-5.586-2.525-8.652-2.525h-36.773v55.121h39.072c3.339-0.001 6.594-1.040 9.315-2.974s4.773-4.664 5.87-7.815c1.098-3.15 1.187-6.565 0.256-9.768s-2.837-6.040-5.453-8.112v-0.006zM9.194 402.063h27.579c0.921-0.024 1.838 0.135 2.696 0.469 0.858 0.336 1.641 0.839 2.302 1.481 0.661 0.641 1.186 1.41 1.544 2.257 0.358 0.849 0.543 1.761 0.543 2.681 0 0.922-0.185 1.833-0.543 2.681-0.358 0.849-0.883 1.616-1.544 2.259-0.661 0.641-1.443 1.146-2.302 1.48-0.858 0.336-1.775 0.495-2.696 0.469h-27.579v-13.778zM39.072 438.807h-29.877v-13.778h29.877l-0.042-0.161h0.042v0.165c0.921-0.024 1.838 0.135 2.696 0.469 0.858 0.336 1.641 0.839 2.301 1.481 0.661 0.641 1.186 1.41 1.544 2.257 0.358 0.849 0.543 1.76 0.543 2.681 0 0.922-0.185 1.833-0.543 2.681-0.358 0.849-0.883 1.616-1.544 2.259s-1.443 1.146-2.301 1.48c-0.858 0.336-1.775 0.495-2.696 0.469v-0.005z"></path>
        <path fill="currentColor" d="M727.309 419.325c1.978-2.341 3.245-5.199 3.653-8.235 0.407-3.038-0.063-6.128-1.354-8.907-1.292-2.778-3.352-5.131-5.936-6.779-2.586-1.649-5.588-2.524-8.655-2.524h-36.767v55.121h39.067c3.339 0 6.594-1.039 9.317-2.972s4.774-4.664 5.872-7.816c1.099-3.15 1.188-6.565 0.258-9.769-0.931-3.205-2.837-6.040-5.453-8.113v-0.006zM687.438 402.063h27.578c0.922-0.024 1.839 0.135 2.697 0.469 0.858 0.336 1.641 0.839 2.301 1.481 0.66 0.641 1.186 1.41 1.544 2.257 0.358 0.849 0.543 1.761 0.543 2.681 0 0.922-0.186 1.833-0.543 2.681-0.359 0.849-0.884 1.616-1.544 2.259-0.66 0.641-1.442 1.146-2.301 1.48-0.858 0.336-1.775 0.495-2.697 0.469h-27.578v-13.778zM717.316 438.807h-29.878v-13.778h29.878l-0.036-0.161h0.036v0.165c0.92-0.024 1.838 0.135 2.696 0.469 0.858 0.336 1.641 0.839 2.301 1.481 0.66 0.641 1.186 1.41 1.544 2.257 0.358 0.849 0.543 1.76 0.543 2.681 0 0.922-0.185 1.833-0.543 2.681-0.359 0.849-0.884 1.616-1.544 2.259s-1.442 1.146-2.301 1.48c-0.858 0.336-1.775 0.495-2.696 0.469v-0.005z"></path>
        <path fill="currentColor" d="M503.455 411.251c-0.005-4.871-1.943-9.541-5.39-12.984-3.446-3.444-8.118-5.382-12.992-5.388h-34.47v55.121h9.193v-18.371h18.532l15.425 18.371h12l-15.949-18.994c3.913-1.047 7.368-3.355 9.837-6.564 2.468-3.21 3.808-7.142 3.813-11.191zM480.476 420.44h-20.681v-18.371h25.277c2.401 0.056 4.683 1.050 6.36 2.767 1.677 1.716 2.615 4.020 2.615 6.419 0 2.4-0.938 4.704-2.615 6.42s-3.959 2.71-6.36 2.767h-4.596z"></path>
        <path fill="currentColor" d="M1181.676 411.251c0-4.871-1.935-9.541-5.383-12.984-3.448-3.444-8.118-5.382-12.991-5.388h-34.461v55.121h9.191v-18.371h18.543l15.425 18.371h11.998l-15.945-18.994c3.908-1.051 7.361-3.359 9.823-6.569s3.8-7.141 3.8-11.186zM1158.707 420.44h-20.675v-18.371h25.286c1.225-0.029 2.443 0.186 3.583 0.636 1.141 0.448 2.18 1.12 3.056 1.976s1.574 1.879 2.049 3.007c0.476 1.129 0.721 2.342 0.721 3.567s-0.245 2.438-0.721 3.567c-0.475 1.128-1.172 2.151-2.049 3.007-0.876 0.856-1.915 1.528-3.056 1.976-1.14 0.448-2.359 0.665-3.583 0.636h-4.611z"></path>
        <path fill="currentColor" d="M227.646 392.879v55.121h9.177v-9.189h26.88l4.277 9.189h10.125l-25.67-55.121h-24.789zM236.823 429.629v-27.56h9.77l12.832 27.56h-22.603z"></path>
        <path fill="currentColor" d="M1846.135 394.052h-22.939c-4.269 0.001-8.374 1.659-11.388 4.609s-4.715 6.95-4.715 11.121v22.487c0 4.172 1.689 8.173 4.715 11.124 3.014 2.95 7.119 4.607 11.388 4.607h22.939c4.28 0 8.374-1.657 11.388-4.607 3.026-2.95 4.714-6.952 4.714-11.124v-22.472c0-2.066-0.41-4.114-1.22-6.024-0.809-1.911-1.994-3.646-3.483-5.109-1.501-1.461-3.272-2.621-5.231-3.414-1.959-0.791-4.046-1.199-6.169-1.2zM1853.043 432.27c0 1.787-0.727 3.501-2.029 4.764-1.29 1.264-3.049 1.975-4.879 1.978h-22.939c-1.83-0.001-3.589-0.712-4.879-1.975-1.302-1.264-2.029-2.979-2.029-4.766v-22.472c0-1.787 0.739-3.501 2.029-4.764 1.29-1.264 3.049-1.975 4.879-1.978h22.939c1.83 0.004 3.589 0.714 4.879 1.978 1.302 1.263 2.029 2.976 2.029 4.764v22.472z"></path>
        <path fill="currentColor" d="M1395.555 392.879h-22.975c-4.269 0-8.362 1.694-11.376 4.709s-4.714 7.104-4.714 11.368c0 4.263 1.701 8.352 4.714 11.368 3.014 3.014 7.107 4.709 11.376 4.709h22.975c1.794 0.049 3.507 0.796 4.75 2.083 1.255 1.287 1.959 3.010 1.959 4.806s-0.704 3.52-1.959 4.806c-1.243 1.287-2.955 2.034-4.75 2.083h-22.975c-1.83-0.001-3.589-0.727-4.879-2.017s-2.017-3.042-2.017-4.869v-2.297h-9.195v2.297c0 4.264 1.689 8.352 4.703 11.368 3.026 3.015 7.107 4.709 11.376 4.709h22.986c4.269 0 8.362-1.694 11.376-4.709s4.703-7.104 4.703-11.368c0-4.263-1.689-8.352-4.703-11.368-3.014-3.014-7.107-4.709-11.376-4.709h-22.975c-0.927 0.026-1.841-0.134-2.697-0.469s-1.642-0.837-2.31-1.48c-0.657-0.643-1.184-1.411-1.536-2.259-0.364-0.848-0.539-1.76-0.539-2.681s0.176-1.833 0.539-2.681c0.352-0.849 0.879-1.616 1.536-2.259 0.668-0.643 1.454-1.146 2.31-1.48 0.856-0.336 1.771-0.495 2.697-0.47h22.975c1.83 0.004 3.577 0.731 4.867 2.023 1.302 1.291 2.029 3.043 2.029 4.869v2.297h9.183v-2.292c0.012-2.112-0.41-4.204-1.22-6.156s-1.982-3.725-3.483-5.219c-1.489-1.494-3.26-2.679-5.219-3.488-1.947-0.808-4.046-1.225-6.157-1.225z"></path>
        <path fill="currentColor" d="M264.118 141.218c10.658-12.498 17.489-27.756 19.688-43.976 2.197-16.219-0.331-32.723-7.284-47.566s-18.044-27.405-31.964-36.207c-13.919-8.802-30.089-13.475-46.599-13.47h-197.959v294.321h210.331c17.979 0.001 35.511-5.546 50.167-15.869s25.706-24.91 31.618-41.738c5.912-16.828 6.393-35.063 1.375-52.175-5.016-17.112-15.282-32.252-29.373-43.32zM49.492 49.053h148.466c4.874 0 9.701 0.952 14.205 2.8s8.595 4.559 12.042 7.975c3.447 3.416 6.182 7.472 8.047 11.935 1.866 4.463 2.825 9.247 2.825 14.079s-0.959 9.616-2.825 14.079c-1.865 4.463-4.599 8.519-8.047 11.935s-7.539 6.127-12.042 7.975c-4.504 1.849-9.331 2.8-14.205 2.8h-148.466v-73.58zM210.331 245.268h-160.839v-73.581h160.839l-0.21-0.854h0.21v0.889c9.844 0 19.286 3.876 26.247 10.776 6.962 6.899 10.873 16.257 10.873 26.015 0 9.756-3.911 19.115-10.873 26.015s-16.402 10.776-26.247 10.776v-0.034z"></path>
        <path fill="currentColor" d="M744.54 98.107c-0.043-25.995-10.481-50.912-29.026-69.293s-43.685-28.725-69.912-28.768h-185.608v294.321h49.492v-98.060h99.799l83.049 98.060h64.613l-85.867-101.418c21.063-5.602 39.676-17.93 52.955-35.075 13.279-17.146 20.486-38.152 20.503-59.766zM620.809 147.16h-111.357v-98.060h136.151c6.624-0.202 13.221 0.917 19.4 3.291s11.816 5.953 16.573 10.525c4.758 4.573 8.54 10.046 11.123 16.095s3.915 12.551 3.915 19.119-1.331 13.070-3.915 19.119c-2.583 6.049-6.365 11.522-11.123 16.095s-10.393 8.152-16.573 10.526-12.776 3.493-19.4 3.291h-24.794z"></path>
        <path fill="currentColor" d="M1939.066 0h-148.474v294.321h148.474c19.503 0 38.807-3.806 56.821-11.201s34.386-18.235 48.166-31.901c13.792-13.665 24.722-29.888 32.193-47.743 7.459-17.854 11.294-36.991 11.294-56.315 0-19.326-3.835-38.462-11.294-56.317-7.471-17.854-18.401-34.077-32.193-47.742-13.78-13.665-30.152-24.505-48.166-31.9s-37.318-11.202-56.821-11.202zM1939.066 245.268h-98.935v-196.215h98.935c26.258 0 51.426 10.336 69.991 28.735s28.991 43.352 28.991 69.373c0 26.019-10.426 50.974-28.991 69.372s-43.733 28.735-69.991 28.735z"></path>
        <path fill="currentColor" d="M1578.016 273.221l-128.548-273.221h-94.221v294.321h49.491v-273.209l128.607 273.209h94.174v-294.321h-49.491l-0.012 273.221z"></path>
        <path fill="currentColor" d="M920.023 0v294.321h49.492v-49.052h144.985l23.071 49.052h54.613l-138.513-294.321h-133.648zM969.515 196.215v-147.161h52.717l69.234 147.161h-121.951z"></path>
    </symbol>
    <symbol version="1.1" xmlns="http://www.w3.org/2000/svg" viewBox="0 0 2328 448" id="logo-small">
        <path fill="currentColor" d="M399.888 213.883c16.138-18.929 26.479-42.039 29.807-66.604s-0.5-49.561-11.028-72.041-27.32-41.507-48.394-54.838c-21.075-13.331-45.556-20.409-70.555-20.401h-299.718v445.764h318.451c27.221 0.001 53.767-8.4 75.955-24.034s38.92-37.728 47.871-63.215c8.951-25.488 9.679-53.106 2.084-79.022s-23.139-48.848-44.473-65.61zM74.934 74.294h224.784c7.381 0 14.688 1.441 21.507 4.241s13.013 6.905 18.232 12.079c5.219 5.174 9.359 11.316 12.183 18.076s4.278 14.006 4.278 21.323-1.453 14.564-4.278 21.324c-2.824 6.76-6.964 12.902-12.183 18.077s-11.413 9.278-18.232 12.079c-6.819 2.8-14.127 4.241-21.507 4.241h-224.784v-111.44zM318.451 371.47h-243.518v-111.441h243.518l-0.317-1.292h0.317v1.345c14.905 0 29.2 5.87 39.739 16.32s16.461 24.622 16.461 39.399c0 14.779-5.921 28.951-16.461 39.401s-24.834 16.32-39.739 16.32v-0.053z"></path>
        <path fill="currentColor" d="M917.882 148.582c-0.062-39.37-15.865-77.109-43.945-104.947-28.078-27.839-66.142-43.506-105.851-43.571h-281.019v445.764h74.934v-148.519h151.102l125.741 148.519h97.828l-130.009-153.602c31.891-8.485 60.071-27.157 80.175-53.125 20.107-25.967 31.017-57.782 31.044-90.519zM730.548 222.876h-168.601v-148.518h206.138c10.030-0.305 20.019 1.389 29.374 4.984 9.356 3.594 17.889 9.015 25.092 15.942s12.929 15.215 16.84 24.377c3.911 9.161 5.926 19.008 5.926 28.957s-2.015 19.795-5.926 28.957c-3.911 9.161-9.638 17.451-16.84 24.377s-15.736 12.346-25.092 15.941c-9.356 3.595-19.344 5.291-29.374 4.985h-37.537z"></path>
        <path fill="currentColor" d="M2098.107 0h-224.799v445.764h224.799c29.524 0 58.758-5.765 86.034-16.966 27.266-11.201 52.056-27.619 72.927-48.315s37.43-45.266 48.727-72.307c11.305-27.041 17.112-56.024 17.112-85.293s-5.807-58.253-17.112-85.294c-11.297-27.041-27.855-51.612-48.727-72.308s-45.661-37.114-72.927-48.314c-27.276-11.201-56.51-16.966-86.034-16.966zM2098.107 371.47h-149.799v-297.176h149.799c39.749 0 77.864 15.655 105.974 43.52s43.895 65.66 43.895 105.068c0 39.407-15.785 77.202-43.895 105.067s-66.225 43.52-105.974 43.52z"></path>
        <path fill="currentColor" d="M1760.93 413.807l-194.625-413.807h-142.649v445.764h74.939v-413.79l194.695 413.79h142.596v-445.764h-74.939l-0.017 413.807z"></path>
        <path fill="currentColor" d="M974.145 0v445.764h74.939v-74.294h219.511l34.935 74.294h82.687l-209.716-445.764h-202.356zM1049.084 297.176v-222.882h79.814l104.823 222.882h-184.638z"></path>
    </symbol>
    <symbol version="1.1" xmlns="http://www.w3.org/2000/svg" viewBox="0 0 1923 448" id="logo-small-mobile">
        <path fill="currentColor" d="M1904.661 390.85h-31.497v54.847h8.386v-18.28h23.099c2.235 0.040 4.447-0.402 6.518-1.302s3.961-2.241 5.551-3.943 2.852-3.731 3.715-5.969c0.863-2.238 1.306-4.641 1.306-7.069s-0.443-4.83-1.306-7.069c-0.863-2.238-2.125-4.268-3.715-5.969s-3.48-3.042-5.551-3.943c-2.071-0.9-4.283-1.343-6.518-1.302h0.011zM1904.661 418.274h-23.11v-18.281h23.099c1.12-0.029 2.235 0.186 3.278 0.633s1.994 1.115 2.792 1.966c0.803 0.851 1.442 1.869 1.874 2.993 0.437 1.123 0.661 2.33 0.661 3.549s-0.224 2.425-0.661 3.549c-0.432 1.124-1.071 2.141-1.874 2.993-0.798 0.851-1.748 1.52-2.792 1.966s-2.158 0.661-3.278 0.633h0.011z"></path>
        <path fill="currentColor" d="M834.706 390.848v54.849h46.417v-9.143h-37.976v-13.71h35.867v-9.143h-35.867v-13.71h37.976v-9.143h-46.417z"></path>
        <path fill="currentColor" d="M1496.642 413.701h-29.535v-22.853h-8.441v54.849h8.441v-22.853h29.535v22.853h8.441v-54.849h-8.441v22.853z"></path>
        <path fill="currentColor" d="M46.498 417.163c1.82-2.33 2.985-5.173 3.36-8.194s-0.057-6.096-1.245-8.861c-1.188-2.765-3.082-5.106-5.459-6.747s-5.139-2.512-7.959-2.513h-33.829v54.849h35.943c3.071-0.001 6.066-1.035 8.569-2.959s4.39-4.642 5.4-7.777c1.010-3.136 1.092-6.533 0.235-9.72s-2.61-6.009-5.016-8.072v-0.005zM9.824 399.985h25.371c0.847-0.025 1.691 0.134 2.481 0.467s1.51 0.834 2.117 1.473c0.608 0.639 1.091 1.404 1.42 2.247s0.5 1.751 0.5 2.667c0 0.917-0.17 1.824-0.5 2.668s-0.813 1.608-1.42 2.247c-0.608 0.639-1.327 1.14-2.117 1.473s-1.633 0.492-2.481 0.466h-25.371v-13.71zM37.309 436.548h-27.485v-13.71h27.485l-0.038-0.16h0.038v0.165c0.847-0.025 1.691 0.133 2.481 0.466s1.509 0.834 2.117 1.474c0.608 0.639 1.091 1.403 1.42 2.247s0.5 1.752 0.5 2.668c0 0.916-0.17 1.823-0.5 2.668s-0.813 1.608-1.42 2.247c-0.608 0.639-1.327 1.14-2.117 1.474s-1.633 0.492-2.481 0.466v-0.005z"></path>
        <path fill="currentColor" d="M670.416 417.163c1.819-2.33 2.989-5.173 3.36-8.196 0.377-3.022-0.055-6.097-1.246-8.863-1.186-2.765-3.081-5.106-5.458-6.746-2.382-1.64-5.141-2.511-7.966-2.51h-33.824v54.849h35.944c3.070 0 6.064-1.034 8.567-2.957 2.508-1.923 4.393-4.641 5.403-7.777s1.093-6.534 0.235-9.722c-0.852-3.189-2.606-6.010-5.015-8.073v-0.005zM633.74 399.985h25.367c0.852-0.025 1.694 0.134 2.486 0.467 0.787 0.333 1.508 0.834 2.114 1.473s1.093 1.404 1.421 2.247 0.497 1.751 0.497 2.667c0 0.917-0.169 1.824-0.497 2.668s-0.814 1.608-1.421 2.247c-0.606 0.639-1.328 1.14-2.114 1.473-0.792 0.333-1.634 0.492-2.486 0.466h-25.367v-13.71zM661.226 436.548h-27.486v-13.71h27.486l-0.038-0.16h0.038v0.165c0.847-0.025 1.688 0.133 2.48 0.466 0.787 0.333 1.508 0.834 2.114 1.474s1.093 1.403 1.421 2.247 0.503 1.752 0.503 2.668c0 0.916-0.175 1.823-0.503 2.668s-0.814 1.608-1.421 2.247c-0.606 0.639-1.328 1.14-2.114 1.474-0.792 0.333-1.634 0.492-2.48 0.466v-0.005z"></path>
        <path fill="currentColor" d="M464.525 409.129c-0.005-4.847-1.788-9.493-4.958-12.921s-7.469-5.355-11.952-5.36h-31.711v54.849h8.458v-18.281h17.048l14.189 18.281h11.039l-14.672-18.9c3.599-1.043 6.779-3.339 9.049-6.533s3.503-7.107 3.508-11.135zM443.386 418.272h-19.025v-18.282h23.254c2.208 0.057 4.307 1.045 5.85 2.753s2.407 4 2.407 6.388c0 2.387-0.864 4.68-2.407 6.388s-3.642 2.696-5.85 2.753h-4.229z"></path>
        <path fill="currentColor" d="M1088.432 409.129c-0.005-4.847-1.792-9.493-4.961-12.921s-7.463-5.355-11.949-5.36h-31.699v54.849h8.452v-18.281h17.062l14.189 18.281h11.031l-14.664-18.9c3.595-1.046 6.769-3.343 9.037-6.537s3.497-7.105 3.502-11.13zM1067.294 418.272h-19.018v-18.282h23.263c1.125-0.029 2.245 0.186 3.294 0.633s2.005 1.115 2.814 1.966c0.808 0.852 1.448 1.869 1.885 2.993s0.661 2.33 0.661 3.549c0 1.219-0.224 2.426-0.661 3.549s-1.076 2.141-1.885 2.993c-0.809 0.852-1.765 1.52-2.814 1.967s-2.169 0.661-3.294 0.633h-4.245z"></path>
        <path fill="currentColor" d="M210.787 390.848v54.849h8.442v-9.143h24.728l3.935 9.143h9.313l-23.614-54.849h-22.804zM219.228 427.416v-27.425h8.989l11.805 27.425h-20.794z"></path>
        <path fill="currentColor" d="M1699.663 392h-21.111c-3.928 0.001-7.693 1.651-10.468 4.586-2.781 2.936-4.343 6.916-4.343 11.067v22.376c0 4.151 1.563 8.133 4.338 11.068 2.781 2.936 6.545 4.585 10.473 4.585h21.111c3.934 0 7.698-1.649 10.479-4.585 2.775-2.936 4.338-6.917 4.338-11.068v-22.361c0-2.056-0.382-4.093-1.125-5.994s-1.836-3.628-3.213-5.082-3.010-2.609-4.808-3.397c-1.797-0.788-3.721-1.194-5.671-1.194zM1706.011 430.029c0 1.778-0.672 3.483-1.858 4.741-1.191 1.258-2.808 1.965-4.491 1.968h-21.111c-1.683-0.002-3.294-0.709-4.485-1.966s-1.858-2.963-1.863-4.742v-22.361c0.005-1.778 0.672-3.483 1.863-4.741s2.803-1.965 4.485-1.968h21.111c1.683 0.003 3.3 0.711 4.491 1.968 1.186 1.258 1.858 2.962 1.858 4.741v22.361z"></path>
        <path fill="currentColor" d="M1285.186 390.848h-21.144c-3.923 0-7.687 1.685-10.462 4.686s-4.333 7.069-4.333 11.312c0 4.242 1.557 8.312 4.333 11.312s6.54 4.686 10.462 4.686h21.144c1.65 0.049 3.218 0.793 4.371 2.073s1.797 2.997 1.797 4.783c0 1.787-0.645 3.502-1.797 4.783s-2.721 2.023-4.371 2.073h-21.144c-1.683-0.002-3.294-0.723-4.48-2.009-1.191-1.285-1.858-3.027-1.863-4.844v-2.286h-8.457v2.286c0 4.242 1.563 8.312 4.333 11.312 2.775 3 6.54 4.686 10.462 4.686h21.149c3.923 0 7.687-1.685 10.462-4.686 2.77-3 4.333-7.069 4.333-11.312s-1.563-8.312-4.333-11.312c-2.775-3-6.54-4.686-10.462-4.686h-21.144c-0.847 0.025-1.688-0.134-2.48-0.467-0.787-0.333-1.508-0.834-2.114-1.474-0.612-0.639-1.093-1.403-1.421-2.247-0.333-0.845-0.503-1.752-0.503-2.668s0.169-1.823 0.503-2.668c0.328-0.844 0.809-1.608 1.421-2.247 0.606-0.639 1.328-1.14 2.114-1.474 0.792-0.333 1.634-0.492 2.48-0.467h21.144c1.677 0.003 3.289 0.727 4.48 2.012 1.186 1.286 1.858 3.028 1.858 4.846v2.286h8.457v-2.28c0-2.102-0.382-4.183-1.125-6.125s-1.83-3.707-3.207-5.194c-1.371-1.486-3.005-2.666-4.802-3.47-1.792-0.804-3.72-1.218-5.66-1.218z"></path>
        <path fill="currentColor" d="M244.336 140.491c9.805-12.434 16.089-27.613 18.11-43.749s-0.303-32.555-6.7-47.321c-6.397-14.767-16.599-27.265-29.404-36.021s-27.68-13.406-42.869-13.401h-182.108v292.805h193.49c16.539 0 32.669-5.517 46.15-15.787s23.647-24.781 29.086-41.524c5.439-16.741 5.881-34.883 1.266-51.907s-14.059-32.085-27.021-43.096zM46.895 48.801h136.578c4.484 0 8.925 0.946 13.067 2.786s7.907 4.536 11.078 7.935c3.171 3.398 5.686 7.433 7.403 11.874s2.6 9.2 2.6 14.006c0 4.807-0.883 9.566-2.6 14.007s-4.232 8.475-7.403 11.874c-3.171 3.398-6.935 6.094-11.078 7.934s-8.583 2.786-13.067 2.786h-136.578v-73.201zM194.856 244.004h-147.961v-73.202h147.961l-0.193-0.849h0.193v0.884c9.056 0 17.742 3.856 24.146 10.72s10.001 16.174 10.001 25.88c0 9.707-3.598 19.017-10.001 25.881s-15.089 10.721-24.146 10.721v-0.035z"></path>
        <path fill="currentColor" d="M686.292 97.598c-0.038-25.861-9.637-50.65-26.7-68.936s-40.189-28.577-64.315-28.62h-170.747v292.805h45.53v-97.556h91.808l76.4 97.556h59.442l-78.995-100.895c19.379-5.574 36.501-17.839 48.717-34.895s18.843-37.955 18.86-59.458zM572.467 146.399h-102.439v-97.556h125.249c6.092-0.2 12.162 0.913 17.849 3.274 5.682 2.361 10.867 5.922 15.243 10.472s7.856 9.994 10.233 16.012 3.6 12.486 3.6 19.021c0 6.535-1.224 13.002-3.6 19.020s-5.857 11.463-10.233 16.012c-4.376 4.55-9.561 8.11-15.243 10.472-5.688 2.361-11.757 3.475-17.849 3.274h-22.81z"></path>
        <path fill="currentColor" d="M1785.165 0h-136.585v292.805h136.585c17.942 0 35.698-3.787 52.274-11.144 16.571-7.357 31.628-18.142 44.308-31.736 12.686-13.594 22.75-29.734 29.612-47.496s10.397-36.8 10.397-56.026-3.535-38.264-10.397-56.026c-6.862-17.762-16.926-33.901-29.612-47.496-12.681-13.595-27.738-24.378-44.308-31.736-16.576-7.357-34.332-11.144-52.274-11.144zM1785.165 244.004h-91.015v-195.203h91.015c24.154 0 47.313 10.283 64.392 28.587 17.073 18.304 26.667 43.129 26.667 69.015s-9.594 50.711-26.667 69.015c-17.079 18.304-40.238 28.587-64.392 28.587z"></path>
        <path fill="currentColor" d="M1453.028 271.813l-118.256-271.813h-86.666v292.805h45.527v-271.802l118.299 271.802h86.639v-292.805h-45.532l-0.011 271.813z"></path>
        <path fill="currentColor" d="M847.72 0v292.805h45.532v-48.801h133.373l21.225 48.801h50.242l-127.423-292.805h-122.949zM893.252 195.203v-146.402h48.493l63.693 146.402h-112.186z"></path>
    </symbol>
    <symbol version="1.1" xmlns="http://www.w3.org/2000/svg" viewBox="0 0 448 448" id="tg">
        <path stroke-linejoin="miter" stroke-linecap="butt" stroke-miterlimit="4" stroke-width="14.9333" stroke="currentColor" fill="currentColor"  d="M224 32c106.038 0 192 85.963 192 192s-85.962 192-192 192-192-85.962-192-192c0-106.038 85.963-192 192-192zM304.029 134.039c-3.184-0.277-6.202 0.232-8.236 0.711-1.057 0.249-1.948 0.517-2.586 0.724-0.319 0.103-0.583 0.189-0.776 0.259-0.098 0.035-0.184 0.067-0.246 0.091-0.029 0.011-0.055 0.018-0.077 0.026l-0.026 0.013-0.013 0.013h-0.013l-0.129 0.052-41.664 17.069c-43.813 17.871-89.3 36.419-128.082 54.699-5.345 2.012-9.354 4.265-12.039 6.955-3.007 3.015-4.456 6.721-3.853 10.604 0.529 3.411 2.481 5.829 3.724 7.1 0.68 0.694 1.326 1.233 1.81 1.604 0.246 0.186 0.466 0.336 0.633 0.452 0.084 0.058 0.159 0.103 0.22 0.143l0.116 0.077 0.013 0.013h0.013l0.737 0.466 0.827 0.259 33.219 10.241c8.656 2.604 15.575 2.541 20.547 1.655 2.466-0.438 4.407-1.074 5.806-1.642 0.699-0.283 1.27-0.543 1.694-0.763 0.212-0.11 0.388-0.216 0.531-0.298 0.070-0.039 0.14-0.071 0.193-0.103 0.025-0.014 0.044-0.038 0.065-0.052 0.012-0.007 0.029-0.007 0.039-0.013l0.013-0.012-3.504-5.613 3.517 5.6 0.207-0.13 62.547-42.569-39.581 37.823c-5.224 4.619-7.641 10.033-6.75 15.659 0.804 5.068 4.071 8.672 6.363 10.642v-0.012c7.952 6.998 24.185 18.091 36.297 26.147l10.306 6.789c1.415 0.928 2.578 1.692 3.441 2.263 0.428 0.283 0.768 0.514 1.021 0.685 0.286 0.193 0.367 0.255 0.336 0.233v-0.013c1.803 1.413 6.203 4.396 11.418 6.84 4.438 2.082 10.751 4.413 16.888 3.931l2.613-0.388c7.508-1.675 11.354-7.33 13.176-11.483 0.932-2.123 1.467-4.116 1.772-5.56 0.154-0.732 0.26-1.356 0.323-1.81 0.032-0.225 0.049-0.413 0.065-0.556 0.008-0.070 0.021-0.133 0.025-0.182v-0.038l12.208-80.005 0.013-0.13c0.911-6.928 1.895-13.727 2.858-20.134l2.741-17.767h0.013c1.557-9.906 2.831-18.017 3.104-21.866l-0.013-0.013c0.448-5.332-0.503-10.102-3.53-13.668-3.039-3.579-7.134-4.739-10.332-5.017z"></path>
    </symbol>
    <symbol version="1.1" xmlns="http://www.w3.org/2000/svg" viewBox="0 0 448 448" id="wa">
        <g id="icomoon-ignore"></g>
        <path fill="currentColor" d="M224.044 16c-41.14-0.008-81.359 12.183-115.57 35.032s-60.878 55.331-76.628 93.338c-15.75 38.006-19.875 79.829-11.855 120.18 8.021 40.35 27.827 77.415 56.915 106.512 29.088 29.094 66.148 48.908 106.499 56.936 40.35 8.030 82.173 3.913 120.183-11.828s70.499-42.402 93.355-76.608c22.858-34.207 35.058-74.423 35.058-115.563 0-55.157-21.908-108.056-60.907-147.063-38.996-39.006-91.891-60.926-147.049-60.938zM228.529 335.285c-19.676 0.028-39.037-4.94-56.27-14.437l-64.431 20.624 21.029-62.457c-13.328-22.051-18.977-47.897-16.061-73.496 2.915-25.602 14.232-49.515 32.178-68.005 17.947-18.488 41.514-30.51 67.016-34.187 25.504-3.677 51.506 1.2 73.944 13.868 22.44 12.667 40.047 32.411 50.075 56.147s11.91 50.125 5.351 75.043-21.189 46.961-41.602 62.685c-20.413 15.722-45.461 24.238-71.227 24.218z"></path>
        <path fill="currentColor" d="M228.617 122.040c-17.861-0.020-35.379 4.904-50.616 14.224s-27.598 22.674-35.715 38.584c-8.118 15.911-11.674 33.757-10.279 51.563 1.396 17.808 7.692 34.88 18.191 49.33l-12.106 35.87 37.216-11.927c15.8 10.487 34.346 16.071 53.311 16.051 25.698 0 50.343-10.207 68.514-28.378 18.171-18.172 28.378-42.818 28.378-68.514s-10.207-50.342-28.378-68.514c-18.172-18.171-42.818-28.379-68.514-28.379v0.089zM286.457 263.187c-2.734 6.862-15.11 13.093-20.58 13.452-5.468 0.358-5.603 4.483-35.377-8.743-29.771-13.227-47.617-45.063-49.051-46.945-1.436-1.883-11.523-16.544-10.85-31.161 0.101-4.629 1.162-9.187 3.114-13.385 1.953-4.197 4.755-7.945 8.228-11.006 1.034-1.098 2.287-1.968 3.677-2.554 1.39-0.588 2.886-0.879 4.393-0.854 1.973 0 3.946 0.403 5.696 0.449 1.749 0.044 4.214-0.807 6.501 5.201s7.623 20.894 8.295 22.42c0.444 0.794 0.677 1.69 0.677 2.6 0 0.911-0.233 1.806-0.677 2.602-0.788 1.766-1.847 3.399-3.137 4.843-1.524 1.658-3.273 3.766-4.484 5.021s-3.137 3.006-1.524 6.009c4.172 7.817 9.492 14.967 15.783 21.208 6.808 6.526 14.696 11.82 23.316 15.649 2.913 1.614 4.483 1.436 6.456-0.493 1.973-1.928 7.757-8.43 9.865-11.298s4.035-2.331 6.725-1.254 17.038 8.966 19.953 10.447c2.913 1.48 4.843 2.421 5.559 3.677 0.541 4.855-0.348 9.765-2.556 14.123z"></path>
    </symbol>

    <symbol version="1.1" xmlns="http://www.w3.org/2000/svg" viewBox="0 0 448 448" id="wa">
        <path fill="currentColor" d="M224.041 32c-37.975-0.008-75.1 11.246-106.68 32.337s-56.195 51.076-70.734 86.159c-14.539 35.082-18.346 73.688-10.943 110.936 7.404 37.247 25.686 71.461 52.537 98.319 26.85 26.856 61.061 45.146 98.307 52.556 37.246 7.413 75.852 3.612 110.938-10.918s65.076-39.14 86.173-70.715c21.099-31.575 32.361-68.698 32.361-106.674 0-50.914-20.223-99.744-56.221-135.75-35.997-36.006-84.823-56.239-135.737-56.25zM228.181 326.725c-18.163 0.025-36.034-4.56-51.942-13.326l-59.475 19.038 19.411-57.653c-12.304-20.355-17.518-44.213-14.826-67.844 2.692-23.633 13.137-45.706 29.703-62.773s38.321-28.164 61.861-31.557c23.542-3.394 47.544 1.108 68.256 12.801 20.713 11.693 36.967 29.918 46.223 51.828s10.994 46.27 4.939 69.271-19.559 43.348-38.402 57.862c-18.843 14.513-41.964 22.374-65.748 22.355z"></path>
        <path fill="currentColor" d="M228.262 129.883c-16.487-0.018-32.658 4.527-46.722 13.13s-25.476 20.93-32.968 35.616c-7.493 14.687-10.776 31.16-9.488 47.597 1.289 16.438 7.101 32.197 16.792 45.536l-11.175 33.111 34.353-11.009c14.584 9.681 31.704 14.835 49.21 14.816 23.721 0 46.47-9.422 63.245-26.195 16.773-16.775 26.195-39.524 26.195-63.245s-9.422-46.47-26.195-63.243c-16.775-16.773-39.524-26.196-63.245-26.196v0.083zM281.653 260.173c-2.524 6.334-13.948 12.086-18.998 12.418-5.048 0.33-5.173 4.138-32.655-8.071-27.481-12.21-43.954-41.596-45.278-43.334-1.325-1.738-10.637-15.271-10.016-28.764 0.093-4.273 1.073-8.48 2.874-12.356 1.803-3.874 4.389-7.334 7.595-10.16 0.955-1.014 2.111-1.816 3.394-2.358 1.283-0.543 2.665-0.811 4.056-0.789 1.821 0 3.643 0.372 5.257 0.415 1.614 0.041 3.89-0.745 6.001 4.8 2.111 5.547 7.036 19.287 7.657 20.695 0.409 0.733 0.625 1.561 0.625 2.4 0 0.841-0.215 1.667-0.625 2.401-0.728 1.631-1.705 3.138-2.896 4.47-1.407 1.53-3.022 3.477-4.14 4.635s-2.896 2.774-1.407 5.547c3.85 7.216 8.761 13.816 14.569 19.576 6.285 6.024 13.566 10.911 21.522 14.445 2.689 1.49 4.138 1.325 5.96-0.455 1.821-1.779 7.16-7.781 9.106-10.429 1.945-2.649 3.725-2.152 6.208-1.158s15.727 8.277 18.418 9.643c2.689 1.366 4.47 2.235 5.132 3.394 0.499 4.482-0.322 9.014-2.359 13.037z"></path>
    </symbol>
    <symbol version="1.1" xmlns="http://www.w3.org/2000/svg" viewBox="0 0 448 448" id="vk">
        <path stroke-linejoin="miter" stroke-linecap="butt" stroke-miterlimit="4" stroke-width="14.9333" stroke="currentColor" fill="currentColor"  d="M224 32c106.038 0 192 85.962 192 192s-85.961 192-192 192-192-85.961-192-192c0-106.037 85.962-192 192-192zM118.069 160.573c0.827 39.698 11.183 72.355 30.853 95.185 19.804 22.983 48.395 35.238 83.948 35.238h10.462v-43.022c18.293 4.625 32.309 19.331 38.443 38.433l1.474 4.591h48.749l-2.302-8.367c-8.514-31.002-28.469-50.569-44.818-60.981 15.489-12.020 32.739-32.974 37.513-60.052l1.357-7.772h-44.895l-1.371 4.811c-3.17 11.206-9.495 21.996-17.251 30.168-5.426 5.715-11.276 9.821-16.9 12.104v-47.082h-45.246v82.68c-14.871-8.235-31.884-30.101-32.794-76.19l-0.13-6.491h-47.237l0.143 6.75z"></path>
    </symbol>
    <symbol version="1.1" xmlns="http://www.w3.org/2000/svg" viewBox="0 0 620 448" id="check">
        <path fill="none" stroke-linejoin="miter" stroke-linecap="butt" stroke-miterlimit="4" stroke-width="34.4615" stroke="currentColor" d="M36.48 212.463l192.579 197.647 369.954-380.090"></path>
    </symbol>
</svg>