<svg width="25" height="24" viewBox="0 0 25 24" fill="none" xmlns="http://www.w3.org/2000/svg">
<g clip-path="url(#clip0_22_5921)">
<path d="M12.5 24C19.1274 24 24.5 18.6274 24.5 12C24.5 5.37258 19.1274 0 12.5 0C5.87258 0 0.5 5.37258 0.5 12C0.5 18.6274 5.87258 24 12.5 24Z" fill="#F0F0F0"/>
<path d="M12.5 0C7.34043 0 2.94191 3.2565 1.2464 7.82611H23.7537C22.0581 3.2565 17.6596 0 12.5 0V0Z" fill="#D80027"/>
<path d="M12.5 24.0001C17.6596 24.0001 22.0581 20.7436 23.7536 16.174H1.2464C2.94191 20.7436 7.34043 24.0001 12.5 24.0001Z" fill="black"/>
<path d="M16.6739 10.6957H13.5434C13.5434 10.1194 13.0762 9.65222 12.4999 9.65222C11.9236 9.65222 11.4564 10.1194 11.4564 10.6957H8.32599C8.32599 11.272 8.82797 11.7392 9.40425 11.7392H9.36947C9.36947 12.3155 9.83663 12.7827 10.413 12.7827C10.413 13.359 10.8801 13.8262 11.4564 13.8262H13.5434C14.1197 13.8262 14.5869 13.359 14.5869 12.7827C15.1632 12.7827 15.6304 12.3155 15.6304 11.7392H15.5956C16.1719 11.7392 16.6739 11.272 16.6739 10.6957V10.6957Z" fill="#FF9811"/>
</g>
<defs>
<clipPath id="clip0_22_5921">
<rect width="24" height="24" fill="white" transform="translate(0.5)"/>
</clipPath>
</defs>
</svg>
