<svg width="25" height="24" viewBox="0 0 25 24" fill="none" xmlns="http://www.w3.org/2000/svg">
<g clip-path="url(#clip0_22_5875)">
<path d="M12.5 24C19.1274 24 24.5 18.6274 24.5 12C24.5 5.37258 19.1274 0 12.5 0C5.87258 0 0.5 5.37258 0.5 12C0.5 18.6274 5.87258 24 12.5 24Z" fill="#0052B4"/>
<path d="M12.5 4.69568L12.8886 5.89141H14.1458L13.1286 6.6304L13.5172 7.82613L12.5 7.0871L11.4828 7.82613L11.8714 6.6304L10.8542 5.89141H12.1115L12.5 4.69568Z" fill="#FFDA44"/>
<path d="M7.33499 6.83503L8.4553 7.40578L9.34428 6.51685L9.14755 7.75856L10.2678 8.32936L9.02605 8.52605L8.82936 9.76786L8.25856 8.6476L7.01685 8.84433L7.90583 7.95535L7.33499 6.83503Z" fill="#FFDA44"/>
<path d="M5.19568 12L6.39141 11.6115V10.3542L7.13035 11.3714L8.32613 10.9829L7.58705 12L8.32613 13.0172L7.13035 12.6287L6.39141 13.6458V12.3886L5.19568 12Z" fill="#FFDA44"/>
<path d="M7.33499 17.165L7.90578 16.0446L7.01685 15.1557L8.25861 15.3524L8.82931 14.2322L9.02605 15.4739L10.2678 15.6706L9.14764 16.2414L9.34428 17.4831L8.4553 16.5942L7.33499 17.165Z" fill="#FFDA44"/>
<path d="M12.5 19.3043L12.1114 18.1086H10.8542L11.8714 17.3696L11.4828 16.174L12.5 16.9129L13.5172 16.174L13.1286 17.3696L14.1458 18.1086H12.8885L12.5 19.3043Z" fill="#FFDA44"/>
<path d="M17.665 17.165L16.5447 16.5942L15.6557 17.4832L15.8524 16.2414L14.7322 15.6706L15.974 15.4739L16.1706 14.2322L16.7414 15.3524L17.9831 15.1557L17.0941 16.0447L17.665 17.165Z" fill="#FFDA44"/>
<path d="M19.8043 12L18.6086 12.3886V13.6458L17.8696 12.6286L16.674 13.0172L17.4129 12L16.674 10.9829L17.8696 11.3714L18.6086 10.3542V11.6115L19.8043 12Z" fill="#FFDA44"/>
<path d="M17.665 6.83511L17.0942 7.95542L17.9832 8.84441L16.7413 8.64762L16.1706 9.76789L15.974 8.52612L14.7322 8.32939L15.8524 7.75864L15.6557 6.51697L16.5448 7.40591L17.665 6.83511Z" fill="#FFDA44"/>
</g>
<defs>
<clipPath id="clip0_22_5875">
<rect width="24" height="24" fill="white" transform="translate(0.5)"/>
</clipPath>
</defs>
</svg>
