<svg width="24" height="24" viewBox="0 0 24 24" fill="none" xmlns="http://www.w3.org/2000/svg">
<g clip-path="url(#clip0_22_6026)">
<path d="M0 12C0 5.37262 5.37262 0 12 0C18.6274 0 24 5.37262 24 12C23.4783 12 12 13.5652 12 13.5652L0 12Z" fill="#D80027"/>
<path d="M24 12C24 18.6274 18.6274 24 12 24C5.37262 24 0 18.6274 0 12" fill="#6DA544"/>
<path d="M12 7.82605L12.9064 10.616H15.8401L13.4668 12.3403L14.3732 15.1304L12 13.4061L9.62663 15.1304L10.5332 12.3403L8.15982 10.616H11.0934L12 7.82605Z" fill="#FFDA44"/>
</g>
<defs>
<clipPath id="clip0_22_6026">
<rect width="24" height="24" fill="white"/>
</clipPath>
</defs>
</svg>
