<svg width="25" height="24" viewBox="0 0 25 24" fill="none" xmlns="http://www.w3.org/2000/svg">
<g clip-path="url(#clip0_22_5974)">
<path d="M12.5 24C19.1274 24 24.5 18.6274 24.5 12C24.5 5.37258 19.1274 0 12.5 0C5.87258 0 0.5 5.37258 0.5 12C0.5 18.6274 5.87258 24 12.5 24Z" fill="#338AF3"/>
<path d="M19.2826 12.1305H5.71738C5.71738 13.067 6.53305 13.8261 7.46947 13.8261H7.41303C7.41303 14.7627 8.17217 15.5218 9.10869 15.5218C9.10869 16.4583 9.86783 17.2175 10.8043 17.2175H14.1957C15.1322 17.2175 15.8913 16.4583 15.8913 15.5218C16.8278 15.5218 17.587 14.7627 17.587 13.8261H17.5305C18.4669 13.8261 19.2826 13.067 19.2826 12.1305V12.1305Z" fill="#FFDA44"/>
<path d="M17.1957 9.91309C17.1957 12.5064 15.0933 14.6087 12.5 14.6087C9.90665 14.6087 7.80435 12.5064 7.80435 9.91309" fill="#338AF3"/>
<path d="M16.0866 9.91299L14.6211 10.6024L15.4015 12.0218L13.8101 11.7173L13.6085 13.3249L12.5 12.1425L11.3915 13.3249L11.1899 11.7173L9.59849 12.0217L10.3789 10.6023L8.91336 9.91299L10.3789 9.22365L9.59849 7.80432L11.1898 8.10872L11.3915 6.5011L12.5 7.68352L13.6085 6.5011L13.8101 8.10872L15.4016 7.80432L14.6211 9.22369L16.0866 9.91299Z" fill="#FFDA44"/>
</g>
<defs>
<clipPath id="clip0_22_5974">
<rect width="24" height="24" fill="white" transform="translate(0.5)"/>
</clipPath>
</defs>
</svg>
