<svg width="25" height="24" viewBox="0 0 25 24" fill="none" xmlns="http://www.w3.org/2000/svg">
<g clip-path="url(#clip0_22_5897)">
<path d="M12.5 24C19.1274 24 24.5 18.6274 24.5 12C24.5 5.37258 19.1274 0 12.5 0C5.87258 0 0.5 5.37258 0.5 12C0.5 18.6274 5.87258 24 12.5 24Z" fill="#F0F0F0"/>
<path d="M24.5 12C24.5 7.24242 21.7313 3.13167 17.7173 1.19067V22.8092C21.7313 20.8682 24.5 16.7575 24.5 12V12Z" fill="#D80027"/>
<path d="M0.5 12C0.5 16.7575 3.26867 20.8682 7.28262 22.8092V1.19067C3.26867 3.13167 0.5 7.24242 0.5 12Z" fill="#6DA544"/>
<path d="M9.36957 11.9999C9.36957 13.7288 10.7711 15.1304 12.5 15.1304C14.2289 15.1304 15.6305 13.7288 15.6305 11.9999V10.9564H9.36957V11.9999Z" fill="#6DA544"/>
<path d="M16.6739 9.91299H13.5434C13.5434 9.33671 13.0762 8.86951 12.4999 8.86951C11.9236 8.86951 11.4564 9.33671 11.4564 9.91299H8.32599C8.32599 10.4893 8.82797 10.9565 9.40421 10.9565H9.36947C9.36947 11.5328 9.83663 12 10.413 12C10.413 12.5763 10.8801 13.0434 11.4564 13.0434H13.5434C14.1197 13.0434 14.5869 12.5763 14.5869 12C15.1632 12 15.6304 11.5328 15.6304 10.9565H15.5956C16.1719 10.9565 16.6739 10.4893 16.6739 9.91299Z" fill="#FF9811"/>
</g>
<defs>
<clipPath id="clip0_22_5897">
<rect width="24" height="24" fill="white" transform="translate(0.5)"/>
</clipPath>
</defs>
</svg>
