<svg width="25" height="24" viewBox="0 0 25 24" fill="none" xmlns="http://www.w3.org/2000/svg">
<g clip-path="url(#clip0_22_5955)">
<path d="M12.5 24C19.1274 24 24.5 18.6274 24.5 12C24.5 5.37258 19.1274 0 12.5 0C5.87258 0 0.5 5.37258 0.5 12C0.5 18.6274 5.87258 24 12.5 24Z" fill="#F0F0F0"/>
<path d="M0.5 12C0.5 16.5485 3.03073 20.5057 6.76086 22.5409V1.45911C3.03073 3.49437 0.5 7.45151 0.5 12Z" fill="#F0F0F0"/>
<path d="M12.5 0C10.4211 0 8.46575 0.528891 6.76086 1.45908V22.5409C8.46575 23.4711 10.4211 24 12.5 24C19.1274 24 24.5 18.6274 24.5 12C24.5 5.37262 19.1274 0 12.5 0Z" fill="#496E2D"/>
<path d="M17.6306 13.9845C16.1125 15.0814 13.9925 14.7399 12.8956 13.2219C11.7987 11.7037 12.1401 9.58374 13.6583 8.48687C14.1316 8.14487 14.6635 7.9427 15.2045 7.87243C14.1636 7.71676 13.0632 7.95132 12.1427 8.61643C10.2743 9.96653 9.85395 12.5756 11.204 14.4442C12.554 16.3126 15.1632 16.7329 17.0317 15.3827C17.9523 14.7176 18.5205 13.7467 18.6994 12.7094C18.4629 13.2009 18.104 13.6424 17.6306 13.9845V13.9845Z" fill="#F0F0F0"/>
<path d="M17.5656 7.82617L18.4208 8.74778L19.5615 8.21941L18.9492 9.31741L19.8043 10.2391L18.5708 9.99606L17.9585 11.0942L17.8085 9.84588L16.5749 9.60283L17.7157 9.07445L17.5656 7.82617Z" fill="#F0F0F0"/>
</g>
<defs>
<clipPath id="clip0_22_5955">
<rect width="24" height="24" fill="white" transform="translate(0.5)"/>
</clipPath>
</defs>
</svg>
