<svg width="25" height="24" viewBox="0 0 25 24" fill="none" xmlns="http://www.w3.org/2000/svg">
<g clip-path="url(#clip0_22_5847)">
<path d="M12.5 24C19.1274 24 24.5 18.6274 24.5 12C24.5 5.37258 19.1274 0 12.5 0C5.87258 0 0.5 5.37258 0.5 12C0.5 18.6274 5.87258 24 12.5 24Z" fill="#D80027"/>
<path d="M12.0087 9.80554L12.9933 11.1623L14.5879 10.6453L13.6017 12.0009L14.5862 13.3577L12.9922 12.8387L12.0061 14.1943L12.0071 12.518L10.4131 11.999L12.0077 11.482L12.0087 9.80554Z" fill="#F0F0F0"/>
<path d="M9.32162 15.3913C7.44868 15.3913 5.93031 13.8729 5.93031 12C5.93031 10.1271 7.44868 8.60867 9.32162 8.60867C9.90559 8.60867 10.4551 8.75638 10.9348 9.0163C10.1822 8.28027 9.15296 7.82605 8.01727 7.82605C5.71206 7.82605 3.84338 9.69477 3.84338 11.9999C3.84338 14.3051 5.7121 16.1738 8.01727 16.1738C9.15306 16.1738 10.1822 15.7196 10.9348 14.9836C10.4551 15.2436 9.90559 15.3913 9.32162 15.3913V15.3913Z" fill="#F0F0F0"/>
</g>
<defs>
<clipPath id="clip0_22_5847">
<rect width="24" height="24" fill="white" transform="translate(0.5)"/>
</clipPath>
</defs>
</svg>
