<svg width="36" height="36" fill="none" xmlns="http://www.w3.org/2000/svg"><rect width="36" height="36" rx="18" fill="#2C4867"/><path fill-rule="evenodd" clip-rule="evenodd" d="M10.632 21.483 9.36 25.92l4.751-1.19a9.288 9.288 0 0 0 4.283 1.042h.004c4.94 0 8.96-3.842 8.962-8.563.001-2.288-.93-4.44-2.622-6.058-1.693-1.618-3.943-2.51-6.34-2.511-4.94 0-8.96 3.84-8.963 8.562a8.257 8.257 0 0 0 1.197 4.28Zm.318-4.28c.001-3.924 3.343-7.117 7.452-7.117a7.7 7.7 0 0 1 2.852.54 7.432 7.432 0 0 1 2.414 1.547 7.061 7.061 0 0 1 1.618 2.31 6.8 6.8 0 0 1 .562 2.725c-.002 3.925-3.343 7.117-7.449 7.117h-.003a7.703 7.703 0 0 1-3.791-.992l-.273-.154-2.819.706.753-2.626-.177-.269a6.869 6.869 0 0 1-1.14-3.787Z" fill="#fff"/><path fill-rule="evenodd" clip-rule="evenodd" d="M16.159 13.622c-.168-.356-.345-.363-.504-.37l-.43-.004a.84.84 0 0 0-.596.267c-.206.215-.784.732-.784 1.785s.802 2.07.914 2.214c.112.143 1.55 2.372 3.825 3.23 1.892.713 2.277.571 2.688.536.41-.036 1.324-.518 1.51-1.018.187-.5.188-.928.132-1.017-.056-.09-.206-.143-.43-.25-.224-.107-1.325-.625-1.53-.696-.205-.072-.354-.107-.504.107-.15.214-.578.696-.709.839-.13.142-.26.16-.485.053-.224-.106-.945-.333-1.8-1.062-.666-.567-1.116-1.268-1.247-1.482-.13-.214-.014-.33.099-.436.1-.096.224-.25.336-.375.112-.125.149-.214.224-.357.074-.143.037-.268-.02-.375-.055-.107-.49-1.165-.69-1.589Z" fill="#fff"/></svg>