<svg width="26" height="16" viewBox="0 0 26 16" fill="none" xmlns="http://www.w3.org/2000/svg">
<path d="M15.9579 1.6543H9.19141V13.8147H15.9579V1.6543Z" fill="#FF5F00"/>
<path d="M9.62237 7.7362C9.62112 6.5649 9.8864 5.40867 10.3981 4.35506C10.9099 3.30146 11.6546 2.3781 12.576 1.65492C11.4352 0.758351 10.0651 0.200826 8.62242 0.0460688C7.17972 -0.108689 5.72258 0.145564 4.41755 0.779768C3.11251 1.41397 2.01223 2.40254 1.24245 3.63249C0.47267 4.86244 0.0644531 6.28415 0.0644531 7.73513C0.0644531 9.1861 0.47267 10.6078 1.24245 11.8378C2.01223 13.0677 3.11251 14.0563 4.41755 14.6905C5.72258 15.3247 7.17972 15.5789 8.62242 15.4242C10.0651 15.2694 11.4352 14.7119 12.576 13.8153C11.6549 13.0924 10.9103 12.1694 10.3986 11.1162C9.88689 10.0629 9.62145 8.90714 9.62237 7.7362Z" fill="#EB001B"/>
<path d="M25.0889 7.73514C25.0888 9.18622 24.6805 10.608 23.9106 11.838C23.1407 13.068 22.0402 14.0566 20.735 14.6907C19.4298 15.3248 17.9726 15.5789 16.5298 15.4239C15.087 15.2689 13.7169 14.7111 12.5762 13.8143C13.4969 13.0907 14.2413 12.1674 14.7531 11.1141C15.265 10.0609 15.531 8.90511 15.531 7.73406C15.531 6.56301 15.265 5.40726 14.7531 4.35399C14.2413 3.30073 13.4969 2.37746 12.5762 1.65386C13.7169 0.757011 15.087 0.199216 16.5298 0.0442362C17.9726 -0.110744 19.4298 0.143345 20.735 0.777459C22.0402 1.41157 23.1407 2.40013 23.9106 3.63012C24.6805 4.86011 25.0888 6.28191 25.0889 7.73299V7.73514Z" fill="#F79E1B"/>
</svg>
