<svg width="50" height="20" viewBox="0 0 50 20" fill="none" xmlns="http://www.w3.org/2000/svg">
<path d="M31.8083 3.10254V16.5475H29.4709V4.92099H25.2983V16.5475H22.9609V3.10254H31.8083Z" fill="#0A0D14"/>
<path d="M35.7224 16.7409C34.6921 16.7409 33.9001 16.541 33.3463 16.1412V14.2647C33.6425 14.4711 33.9645 14.6323 34.3122 14.7484C34.6728 14.8644 35.0978 14.9225 35.5871 14.9225C36.3212 14.9225 36.875 14.7097 37.2484 14.2841C37.6219 13.8456 37.8537 13.2459 37.9439 12.485H34.5633V10.6665H37.9246C37.7056 9.18339 36.9458 8.44182 35.6451 8.44182C35.2459 8.44182 34.8466 8.50631 34.4474 8.63528C34.0611 8.76425 33.752 8.89966 33.5202 9.04153V7.08766C33.7649 6.95869 34.0933 6.84907 34.5054 6.75879C34.9175 6.66851 35.4133 6.62337 35.9928 6.62337C36.714 6.62337 37.345 6.75234 37.8859 7.01028C38.4397 7.25532 38.8969 7.60353 39.2575 8.05492C39.6309 8.49341 39.9078 9.02863 40.0881 9.66058C40.2813 10.2796 40.3779 10.9567 40.3779 11.6918C40.3779 13.3297 39.9915 14.5807 39.2188 15.4448C38.459 16.3089 37.2935 16.7409 35.7224 16.7409Z" fill="#0A0D14"/>
<path d="M45.8414 5.54004C44.9141 5.54004 44.2123 5.3079 43.7358 4.84361C43.2722 4.37933 43.0404 3.79897 43.0404 3.10254H44.9721C44.9721 3.43786 45.0494 3.6829 45.2039 3.83766C45.3713 3.99242 45.5838 4.0698 45.8414 4.0698C46.0861 4.0698 46.2792 3.99242 46.4209 3.83766C46.5626 3.67 46.6334 3.42496 46.6334 3.10254H48.5651C48.5651 3.43786 48.5072 3.75383 48.3913 4.05046C48.2754 4.34708 48.1015 4.60502 47.8697 4.82427C47.6508 5.04351 47.3675 5.21762 47.0197 5.34659C46.6849 5.47556 46.2921 5.54004 45.8414 5.54004ZM44.1414 6.81683V12.8525L47.6572 6.81683H49.7049V16.5475H47.4834V10.5311L43.9676 16.5475H41.9199V6.81683H44.1414Z" fill="#0A0D14"/>
<g clip-path="url(#clip0_0_21615)">
<ellipse cx="9.21261" cy="9.99986" rx="8.91574" ry="8.92857" fill="#FC3F1D"/>
<path d="M10.4681 15.3666H12.3308V4.65234H9.62146C6.8967 4.65234 5.46506 6.05522 5.46506 8.121C5.46506 9.77054 6.25015 10.7418 7.65101 11.7438L5.21875 15.3666H7.23537L9.94473 11.3122L9.00569 10.6801C7.86653 9.90928 7.31235 9.30805 7.31235 8.01308C7.31235 6.87228 8.11284 6.10147 9.63685 6.10147H10.4681V15.3666Z" fill="white"/>
</g>
<defs>
<clipPath id="clip0_0_21615">
<rect x="0.296875" y="1.07129" width="17.8315" height="17.8571" rx="8.91574" fill="white"/>
</clipPath>
</defs>
</svg>
