<svg width="37" height="18" viewBox="0 0 37 18" fill="none" xmlns="http://www.w3.org/2000/svg">
<g clip-path="url(#clip0_948_2291)">
<path d="M9.2246 8.91826C4.11183 13.8218 -0.0422815 17.8672 0.00032484 17.8978C0.0322796 17.9387 1.32112 17.9694 2.8443 17.9796H5.62437L10.0022 13.7911L14.38 9.59252L18.6832 13.7911L22.9865 18L25.9476 17.9694C27.5773 17.9489 28.9088 17.9081 28.9088 17.8774C28.9088 17.8468 26.3098 15.3337 23.1356 12.2894L17.3518 6.74235L17.9163 6.21112L18.4809 5.66971L24.7866 11.7787L31.0923 17.8876L34.0323 17.857L36.9722 17.8263L27.7478 8.90807L18.5235 0L9.2246 8.91826Z" fill="#FAFAFA"/>
<path d="M11.4082 15.0991L8.54291 17.8471L10.6519 17.9084L12.7609 17.9799L13.5385 17.2444L14.3161 16.5089L15.0936 17.2444L15.8606 17.9799H18.0441H20.2277L17.2985 15.1706C15.6901 13.6281 14.3481 12.3613 14.3161 12.3613C14.2841 12.3613 12.974 13.5974 11.4082 15.0991Z" fill="#FAFAFA"/>
</g>
<defs>
<clipPath id="clip0_948_2291">
<rect width="37" height="18" fill="white"/>
</clipPath>
</defs>
</svg>
