<svg width="0" height="0" class="hidden">
    <symbol version="1.1" xmlns="http://www.w3.org/2000/svg" viewBox="0 0 463 448" id="slider-arrow">
        <path fill="none" stroke-linejoin="miter" stroke-linecap="butt" stroke-miterlimit="4" stroke-width="8.9639" stroke="currentColor" d="M235.586 4.669h6.431c119.461 0 213.462 96.8 209.957 216.209l-0.189 6.428c-3.505 119.409-103.188 216.209-222.649 216.209h-6.431c-119.461 0-213.462-96.8-209.957-216.209l0.189-6.428c3.505-119.409 103.188-216.209 222.649-216.209z"></path>
        <path fill="currentColor"  d="M237.954 297.54l-12-12.163 44.087-42.996h-107.724l0.521-17.727h107.724l-41.569-42.806 12.72-12.352 61.981 64.022-65.74 64.022z"></path>
    </symbol>
    <symbol version="1.1" xmlns="http://www.w3.org/2000/svg" viewBox="0 0 422 448" id="lock">
        <path fill="none" stroke-linejoin="round" stroke-linecap="round" stroke-miterlimit="4" stroke-width="39.5294" stroke="currentColor" d="M281.099 232.952h24.595c2.796 0 5.476 1.11 7.453 3.087 1.979 1.977 3.089 4.658 3.089 7.454v119.466c0 2.796-1.109 5.476-3.089 7.455-1.977 1.977-4.657 3.086-7.453 3.086h-189.741c-2.796 0-5.477-1.109-7.454-3.086-1.977-1.979-3.087-4.659-3.087-7.455v-119.466c0-2.796 1.11-5.477 3.087-7.454s4.658-3.087 7.454-3.087h24.596M281.099 232.952v-70.275c0-23.419-14.057-70.274-70.275-70.274-56.22 0-70.275 46.855-70.275 70.274v70.275M281.099 232.952h-140.55"></path>
    </symbol>
    <symbol version="1.1" xmlns="http://www.w3.org/2000/svg" viewBox="0 0 422 448" id="calendar">
        <path fill="none" stroke-linejoin="round" stroke-linecap="round" stroke-miterlimit="4" stroke-width="39.5294" stroke="currentColor" d="M263.529 79.235v-35.137M263.529 79.235v35.137M263.529 79.235h-79.059M52.706 184.646v158.119c0 9.318 3.702 18.255 10.291 24.846 6.59 6.588 15.527 10.291 24.846 10.291h245.962c9.318 0 18.255-3.703 24.846-10.291 6.588-6.591 10.291-15.527 10.291-24.846v-158.119M52.706 184.646h316.236M52.706 184.646v-70.274c0-9.319 3.702-18.256 10.291-24.846s15.527-10.292 24.846-10.292h35.137M368.941 184.646v-70.274c0-9.319-3.703-18.256-10.291-24.846-6.591-6.59-15.527-10.292-24.846-10.292h-8.786M122.98 44.097v70.275"></path>
    </symbol>
    <symbol version="1.1" xmlns="http://www.w3.org/2000/svg" viewBox="0 0 422 448" id="pin">
        <path fill="none" stroke-linejoin="miter" stroke-linecap="butt" stroke-miterlimit="4" stroke-width="39.5294" stroke="currentColor" d="M351.337 197.823c0 77.618-140.549 210.824-140.549 210.824s-140.549-133.206-140.549-210.824c0-37.276 14.808-73.025 41.166-99.383s62.108-41.166 99.383-41.166c37.276 0 73.024 14.808 99.383 41.166s41.166 62.107 41.166 99.383z"></path>
        <path stroke-linejoin="round" stroke-linecap="round" stroke-miterlimit="4" stroke-width="39.5294" stroke="currentColor"  d="M210.789 215.387c4.659 0 9.128-1.851 12.423-5.146s5.146-7.763 5.146-12.423c0-4.659-1.851-9.128-5.146-12.423s-7.763-5.146-12.423-5.146c-4.659 0-9.128 1.851-12.423 5.146s-5.146 7.763-5.146 12.423c0 4.659 1.851 9.128 5.146 12.423s7.763 5.146 12.423 5.146z"></path>
    </symbol>
    <symbol fill="none" xmlns="http://www.w3.org/2000/svg" viewBox="0 0 42 43" id="tg">
        <path d="M38.1004 21.3652C38.1004 30.8093 30.4444 38.4652 21.0004 38.4652C11.5563 38.4652 3.90037 30.8093 3.90037 21.3652C3.90037 11.9212 11.5563 4.26523 21.0004 4.26523C30.4444 4.26523 38.1004 11.9212 38.1004 21.3652Z" stroke="currentColor"  stroke-width="1.8"></path>
        <path d="M14.8583 20.5659C14.8583 20.5659 21.0502 17.9316 23.1976 17.0041C24.0208 16.6331 26.8125 15.4458 26.8125 15.4458C26.8125 15.4458 28.101 14.9264 27.9936 16.1878C27.9578 16.7073 27.6715 18.5252 27.3852 20.4917C26.9557 23.2743 26.4904 26.3167 26.4904 26.3167C26.4904 26.3167 26.4188 27.1701 25.8104 27.3185C25.202 27.4669 24.1998 26.7991 24.0208 26.6506C23.8776 26.5393 21.3365 24.8697 20.4059 24.0535C20.1554 23.8309 19.8691 23.3857 20.4417 22.8662C21.7302 21.6418 23.2692 20.1207 24.1998 19.156C24.6293 18.7108 25.0587 17.6719 23.2692 18.9334C20.7281 20.7514 18.2227 22.4581 18.2227 22.4581C18.2227 22.4581 17.65 22.8291 16.5763 22.4952C15.5025 22.1613 14.2498 21.716 14.2498 21.716C14.2498 21.716 13.3909 21.1595 14.8583 20.5659Z" fill="currentColor" ></path>
    </symbol>
    <symbol version="1.1" xmlns="http://www.w3.org/2000/svg" viewBox="0 0 448 448" id="wa">

        <path fill="currentColor" d="M416.108 205.76c-3.627-45.973-23.68-89.173-56.64-121.6s-76.48-51.947-122.667-54.933c-46.187-2.987-91.947 10.773-128.747 38.613-36.907 27.947-62.401 68.267-71.894 113.386-9.6 45.12-2.453 92.267 20.053 132.587l2.133 3.84-25.707 95.573 96.747-25.707 3.733 1.92c40.747 21.973 88 28.48 133.227 18.347 45.12-10.027 85.12-36.054 112.64-73.173s40.747-82.88 37.12-128.853zM396.908 245.12c-5.227 38.080-23.040 73.387-50.56 100.373-27.413 26.987-63.147 44.16-101.44 48.747-38.187 4.693-77.013-3.413-110.187-23.040l-2.987-1.813-75.201 20.053 20.053-74.453-1.92-3.093c-16.747-27.2-25.6-58.56-25.6-90.453 0-38.4 12.693-75.84 36.16-106.347s56.427-52.48 93.654-62.293c37.333-9.92 76.8-7.253 112.427 7.573 35.52 14.827 65.173 41.067 84.267 74.453 19.2 33.387 26.666 72.213 21.333 110.293z"></path>
        <path fill="currentColor" d="M286.080 268.481c-2.453 5.12-5.973 9.493-10.56 12.8-4.48 3.307-9.707 5.547-15.253 6.4-9.813 1.067-19.627-0.427-28.587-4.48-8.64-2.987-16.853-6.827-24.533-11.627-15.36-9.493-28.693-21.76-39.36-36.373-3.2-4.373-6.293-8.96-9.067-13.653-3.84-6.293-6.72-12.907-8.64-19.946-0.747-2.987-1.173-5.973-1.173-8.96-0.213-5.44 0.853-10.773 2.987-15.68 2.24-4.907 5.44-9.28 9.6-12.8 2.347-2.133 5.227-3.52 8.32-3.947 3.093-0.533 6.293-0.107 9.173 1.173 5.653 4.694 9.707 10.88 11.947 17.92 2.773 4.907 4.053 10.56 3.733 16.213-1.6 5.12-4.373 9.813-8.213 13.653-1.067 0.853-1.813 2.24-1.92 3.627s0.32 2.88 1.173 3.947c10.56 18.027 26.88 31.893 46.293 39.467 1.067 0.64 2.347 0.747 3.52 0.533 1.28-0.32 2.347-0.96 3.093-1.92 3.413-4.16 6.827-12.48 12.16-14.72 3.52-0.853 7.147-0.853 10.773 0 3.52 0.747 6.827 2.347 9.6 4.693 5.653 3.2 14.72 7.253 16.107 13.973 0.64 3.307 0.214 6.72-1.173 9.707z"></path>
    </symbol>
    <symbol version="1.1" xmlns="http://www.w3.org/2000/svg" viewBox="0 0 747 448" id="arrow">
        <path fill="none" stroke-linejoin="miter" stroke-linecap="butt" stroke-miterlimit="4" stroke-width="89.6" stroke="currentColor" d="M672 74.667l-298.667 298.667-298.667-298.667"></path>
    </symbol>
    <symbol version="1.1" xmlns="http://www.w3.org/2000/svg" viewBox="0 0 493 448" id="btn-arrow">
        <path fill="currentColor" d="M271.25 433.869l-40.119-39.506 139.037-139.65h-349.737v-57.575h349.737l-139.037-139.037 40.119-40.119 207.33 207.944-207.33 207.944z"></path>
    </symbol>
</svg>