<svg width="0" height="0" class="hidden">
    <symbol version="1.1" xmlns="http://www.w3.org/2000/svg" viewBox="0 0 463 448" id="slider-arrow">
        <path fill="none" stroke-linejoin="miter" stroke-linecap="butt" stroke-miterlimit="4" stroke-width="8.9639" stroke="currentColor" d="M235.586 4.669h6.431c119.461 0 213.462 96.8 209.957 216.209l-0.189 6.428c-3.505 119.409-103.188 216.209-222.649 216.209h-6.431c-119.461 0-213.462-96.8-209.957-216.209l0.189-6.428c3.505-119.409 103.188-216.209 222.649-216.209z"></path>
        <path fill="currentColor"  d="M237.954 297.54l-12-12.163 44.087-42.996h-107.724l0.521-17.727h107.724l-41.569-42.806 12.72-12.352 61.981 64.022-65.74 64.022z"></path>
    </symbol>
    <symbol version="1.1" xmlns="http://www.w3.org/2000/svg" viewBox="0 0 422 448" id="lock">
        <path fill="none" stroke-linejoin="round" stroke-linecap="round" stroke-miterlimit="4" stroke-width="39.5294" stroke="currentColor" d="M281.099 232.952h24.595c2.796 0 5.476 1.11 7.453 3.087 1.979 1.977 3.089 4.658 3.089 7.454v119.466c0 2.796-1.109 5.476-3.089 7.455-1.977 1.977-4.657 3.086-7.453 3.086h-189.741c-2.796 0-5.477-1.109-7.454-3.086-1.977-1.979-3.087-4.659-3.087-7.455v-119.466c0-2.796 1.11-5.477 3.087-7.454s4.658-3.087 7.454-3.087h24.596M281.099 232.952v-70.275c0-23.419-14.057-70.274-70.275-70.274-56.22 0-70.275 46.855-70.275 70.274v70.275M281.099 232.952h-140.55"></path>
    </symbol>
    <symbol version="1.1" xmlns="http://www.w3.org/2000/svg" viewBox="0 0 422 448" id="calendar">
        <path fill="none" stroke-linejoin="round" stroke-linecap="round" stroke-miterlimit="4" stroke-width="39.5294" stroke="currentColor" d="M263.529 79.235v-35.137M263.529 79.235v35.137M263.529 79.235h-79.059M52.706 184.646v158.119c0 9.318 3.702 18.255 10.291 24.846 6.59 6.588 15.527 10.291 24.846 10.291h245.962c9.318 0 18.255-3.703 24.846-10.291 6.588-6.591 10.291-15.527 10.291-24.846v-158.119M52.706 184.646h316.236M52.706 184.646v-70.274c0-9.319 3.702-18.256 10.291-24.846s15.527-10.292 24.846-10.292h35.137M368.941 184.646v-70.274c0-9.319-3.703-18.256-10.291-24.846-6.591-6.59-15.527-10.292-24.846-10.292h-8.786M122.98 44.097v70.275"></path>
    </symbol>
    <symbol version="1.1" xmlns="http://www.w3.org/2000/svg" viewBox="0 0 422 448" id="pin">
        <path fill="none" stroke-linejoin="miter" stroke-linecap="butt" stroke-miterlimit="4" stroke-width="39.5294" stroke="currentColor" d="M351.337 197.823c0 77.618-140.549 210.824-140.549 210.824s-140.549-133.206-140.549-210.824c0-37.276 14.808-73.025 41.166-99.383s62.108-41.166 99.383-41.166c37.276 0 73.024 14.808 99.383 41.166s41.166 62.107 41.166 99.383z"></path>
        <path stroke-linejoin="round" stroke-linecap="round" stroke-miterlimit="4" stroke-width="39.5294" stroke="currentColor"  d="M210.789 215.387c4.659 0 9.128-1.851 12.423-5.146s5.146-7.763 5.146-12.423c0-4.659-1.851-9.128-5.146-12.423s-7.763-5.146-12.423-5.146c-4.659 0-9.128 1.851-12.423 5.146s-5.146 7.763-5.146 12.423c0 4.659 1.851 9.128 5.146 12.423s7.763 5.146 12.423 5.146z"></path>
    </symbol>
    <symbol fill="none" xmlns="http://www.w3.org/2000/svg" viewBox="0 0 42 43" id="tg">
        <path d="M38.1004 21.3652C38.1004 30.8093 30.4444 38.4652 21.0004 38.4652C11.5563 38.4652 3.90037 30.8093 3.90037 21.3652C3.90037 11.9212 11.5563 4.26523 21.0004 4.26523C30.4444 4.26523 38.1004 11.9212 38.1004 21.3652Z" stroke="currentColor"  stroke-width="1.8"></path>
        <path d="M14.8583 20.5659C14.8583 20.5659 21.0502 17.9316 23.1976 17.0041C24.0208 16.6331 26.8125 15.4458 26.8125 15.4458C26.8125 15.4458 28.101 14.9264 27.9936 16.1878C27.9578 16.7073 27.6715 18.5252 27.3852 20.4917C26.9557 23.2743 26.4904 26.3167 26.4904 26.3167C26.4904 26.3167 26.4188 27.1701 25.8104 27.3185C25.202 27.4669 24.1998 26.7991 24.0208 26.6506C23.8776 26.5393 21.3365 24.8697 20.4059 24.0535C20.1554 23.8309 19.8691 23.3857 20.4417 22.8662C21.7302 21.6418 23.2692 20.1207 24.1998 19.156C24.6293 18.7108 25.0587 17.6719 23.2692 18.9334C20.7281 20.7514 18.2227 22.4581 18.2227 22.4581C18.2227 22.4581 17.65 22.8291 16.5763 22.4952C15.5025 22.1613 14.2498 21.716 14.2498 21.716C14.2498 21.716 13.3909 21.1595 14.8583 20.5659Z" fill="currentColor" ></path>
    </symbol>
    <symbol fill="none" xmlns="http://www.w3.org/2000/svg" viewBox="0 0 42 43" id="wa">
        <path d="M5.14451 21.1026C5.14179 24.0021 5.94568 26.8455 7.46661 29.3164C7.46685 29.3167 7.46708 29.3171 7.46732 29.3175L7.75647 29.793L6.26975 35.3071L6.04443 36.1428L6.88092 35.9205L12.4681 34.4357L12.9286 34.7082L12.9288 34.7083C15.9437 36.4908 19.465 37.2283 22.9439 36.8062C26.4228 36.384 29.6642 34.8258 32.1629 32.3741C34.6617 29.9224 36.2773 26.7149 36.7578 23.2513C37.2382 19.7878 36.5566 16.263 34.8191 13.2264C33.0816 10.1898 30.386 7.81209 27.1527 6.46345C23.9193 5.11481 20.3296 4.87093 16.9428 5.76978C13.556 6.66862 10.5622 8.65977 8.42803 11.4332C6.29399 14.2065 5.13944 17.6062 5.14451 21.1026ZM5.14451 21.1026C5.14451 21.1024 5.14451 21.1022 5.14451 21.1019L5.64451 21.1024M5.14451 21.1026C5.14451 21.1028 5.14451 21.103 5.14451 21.1032L5.64451 21.1024M5.64451 21.1024C5.64177 23.9099 6.42018 26.663 7.89309 29.0554M5.64451 21.1024C5.63947 17.7165 6.75747 14.4241 8.82429 11.7381C10.8911 9.0522 13.7906 7.12366 17.071 6.25305C20.3514 5.38243 23.8284 5.61866 26.9602 6.92491C30.0919 8.23116 32.7025 10.5341 34.3851 13.4747C36.0677 16.4154 36.7278 19.8287 36.2625 23.1826C35.7972 26.5366 34.2327 29.6428 31.8128 32.0172C29.3928 34.3916 26.2534 35.9009 22.8837 36.3098C19.514 36.7187 16.1034 36.0043 13.1832 34.2779L7.89309 29.0554M7.89309 29.0554L8.29501 29.7163L7.89309 29.0554ZM2.38752 39.791L4.92157 30.3772L4.97434 30.1812L4.87551 30.0038C2.70902 26.1162 2.02076 21.5799 2.93689 17.2271C3.85302 12.8743 6.31218 8.9968 9.86346 6.30619C13.4148 3.61556 17.8199 2.29245 22.2706 2.57992C26.7213 2.86738 30.9185 4.7461 34.0922 7.871C37.2658 10.9959 39.2031 15.1573 39.5488 19.5915C39.8944 24.0257 38.6254 28.4357 35.9743 32.0123C33.3232 35.5888 29.4676 38.0921 25.1151 39.0624C20.7625 40.0326 16.2052 39.4047 12.2794 37.2939L12.1051 37.2002L11.9138 37.2512L2.38752 39.791Z" fill="currentColor"  stroke="#080808"></path>
        <path fill-rule="evenodd" clip-rule="evenodd" d="M25.4641 23.287C25.1989 23.0742 24.8884 22.9244 24.5562 22.849C24.2241 22.7736 23.879 22.7747 23.5473 22.8521C23.049 23.0581 22.727 23.8363 22.405 24.2255C22.3371 24.3187 22.2373 24.3841 22.1244 24.4094C22.0114 24.4347 21.8931 24.4181 21.7916 24.3628C19.9672 23.6517 18.4379 22.3476 17.4522 20.6625C17.3681 20.5573 17.3283 20.4238 17.3412 20.29C17.354 20.1562 17.4186 20.0327 17.5212 19.9453C17.8803 19.5915 18.144 19.1532 18.2878 18.6711C18.3198 18.1394 18.1974 17.6097 17.9352 17.1452C17.7325 16.4941 17.3467 15.9143 16.8235 15.4744C16.5536 15.3536 16.2544 15.3131 15.9619 15.3578C15.6694 15.4024 15.3961 15.5304 15.1751 15.7261C14.7913 16.0556 14.4867 16.4666 14.2837 16.9287C14.0807 17.3908 13.9845 17.8924 14.002 18.3965C14.0032 18.6795 14.0393 18.9614 14.1094 19.2357C14.2874 19.8948 14.5612 20.5246 14.9221 21.105C15.1824 21.5496 15.4665 21.98 15.7731 22.3944C16.7694 23.7555 18.0219 24.9111 19.4609 25.7971C20.183 26.2474 20.9548 26.6135 21.761 26.8882C22.5984 27.2659 23.5231 27.4109 24.4367 27.3078C24.9573 27.2294 25.4505 27.0249 25.8729 26.7122C26.2954 26.3996 26.6342 25.9884 26.8594 25.5148C26.9918 25.2288 27.032 24.909 26.9745 24.5993C26.8364 23.966 25.9854 23.5922 25.4641 23.287Z" fill="currentColor" ></path>
    </symbol>
    <symbol version="1.1" xmlns="http://www.w3.org/2000/svg" viewBox="0 0 747 448" id="arrow">
        <path fill="none" stroke-linejoin="miter" stroke-linecap="butt" stroke-miterlimit="4" stroke-width="89.6" stroke="currentColor" d="M672 74.667l-298.667 298.667-298.667-298.667"></path>
    </symbol>
    <symbol version="1.1" xmlns="http://www.w3.org/2000/svg" viewBox="0 0 493 448" id="btn-arrow">
        <path fill="currentColor" d="M271.25 433.869l-40.119-39.506 139.037-139.65h-349.737v-57.575h349.737l-139.037-139.037 40.119-40.119 207.33 207.944-207.33 207.944z"></path>
    </symbol>
</svg>