<svg width="87" height="36" viewBox="0 0 87 36" fill="none" xmlns="http://www.w3.org/2000/svg">
<path d="M10.8566 31.1962H1.80278V27.0382H10.8365V31.1962H10.8566ZM12.6793 24.9483H0V35.3543H1.80278V33.2644H12.6393V24.9483H12.6793ZM1.80278 6.24794L5.42828 2.08991V16.6539H1.80278V6.24794ZM0 18.7221H7.21097V0H4.52693L0 5.20299V18.7221ZM10.8566 2.08991H14.4821V16.6539H10.8566V2.08991ZM9.05385 18.7221H16.2648V0H9.05385V18.7221ZM28.9041 18.7221H30.7069V0H27.9827V0.0217737L25.2586 3.13486V0H22.5344L18.0475 5.20299V18.7221H19.8503V6.24794L23.4758 2.08991V18.7221H25.2786V6.24794L28.9041 2.08991V18.7221ZM0 22.8801H30.7269V20.7902H0V22.8801ZM23.4959 27.0382H28.9041V31.1962H23.4959V27.0382ZM21.6931 31.1962H16.2648V27.0382H21.6931V31.1962ZM23.4959 33.2644H30.7269V24.9483H14.4821V33.2644H21.6931V35.3543H23.4959V33.2644ZM57.6079 18.3738H59.1905C59.8913 18.3738 60.3121 18.918 60.3121 19.6582C60.3121 20.4419 59.8913 20.9426 59.1905 20.9426H57.6079V18.3738ZM57.6079 16.741V14.8688H61.3735V13.2361H55.9856V22.5971H59.2506C60.8729 22.5971 61.8947 21.378 61.8947 19.6799C61.8947 17.9819 60.8927 16.7628 59.2506 16.7628C59.2704 16.741 57.6079 16.741 57.6079 16.741ZM67.7635 19.397H65.7403L66.782 16.0009L67.7635 19.397ZM68.6849 22.5971H70.3475L67.4028 13.2361H66.1611L63.2164 22.5971H64.879L65.3796 20.9426H68.2444L68.6849 22.5971ZM76.3365 22.5971H77.9191V13.2361H76.3365V17.0676H73.592V13.2361H72.01V22.5971H73.592V18.6786H76.3365V22.5971ZM83.7476 17.6118L86.4723 13.2361H84.5891L81.9853 17.6771V13.2361H80.4027V22.5971H81.9853V17.6989L84.8295 22.5971H86.7721L83.7476 17.6118Z" fill="#384249"/>
<path d="M44.7695 3.97656H43.3672V31.363H44.7695V3.97656Z" fill="#99C45A"/>
</svg>
