<svg width="20" height="22" viewBox="0 0 20 22" fill="none" xmlns="http://www.w3.org/2000/svg">
<path d="M1.95961 14.8289L4.78752 14.4903C5.46666 14.4086 6.13468 14.6538 6.61342 15.1558L8.66199 17.3042C11.8128 15.6229 14.3957 12.9258 15.999 9.60991L13.9393 7.44992C13.4605 6.94787 13.2267 6.24733 13.3047 5.53512L13.6275 2.59286C13.7611 1.41362 14.7075 0.52627 15.8431 0.52627H17.7692C19.0273 0.52627 20.0738 1.62378 19.9959 2.94313C19.4058 12.9141 11.8016 20.8769 2.30474 21.4957C1.04666 21.5774 0.000108719 20.4799 0.000108719 19.1606V17.1407C-0.0110264 15.9615 0.835123 14.969 1.95961 14.8289ZM8.89579 9.8551H4.44238C3.83004 9.8551 3.32903 9.3297 3.32903 8.68754C3.32903 8.04538 3.83004 7.51998 4.44238 7.51998H6.21261L1.41407 2.48778C0.979858 2.03243 0.979858 1.29686 1.41407 0.841512C1.84827 0.386163 2.54968 0.386163 2.98389 0.841512L7.78244 5.87371V4.01729C7.78244 3.37513 8.28345 2.84972 8.89579 2.84972C9.50813 2.84972 10.0091 3.37513 10.0091 4.01729V8.68754C10.0091 9.3297 9.50813 9.8551 8.89579 9.8551Z" fill="white"/>
</svg>
