<svg width="39" height="42" viewBox="0 0 39 42" fill="none" xmlns="http://www.w3.org/2000/svg">
<g clip-path="url(#clip0_316_11856)">
<path d="M23.0163 19.4592H15.9846V10.3182H11.7656L19.5176 0L27.2696 10.3182H23.0163V19.4592ZM17.3567 18.0742H21.6443V8.93322H24.4569L19.5176 2.28524L14.544 8.93322H17.3567V18.0742Z" fill="#1FCC30"/>
<path d="M32.0718 41.9996H6.34617C5.96886 41.9996 5.66016 41.688 5.66016 41.3071V22.7482C5.66016 22.3673 5.96886 22.0557 6.34617 22.0557H32.0718C32.4491 22.0557 32.7578 22.3673 32.7578 22.7482V41.3071C32.7578 41.688 32.4491 41.9996 32.0718 41.9996ZM7.03219 40.6146H31.3857V23.4407H7.03219V40.6146Z" fill="black"/>
<path d="M32.0724 23.441H6.34682C6.14102 23.441 5.93522 23.3372 5.79801 23.164C5.66081 22.9909 5.62651 22.7832 5.66081 22.5754L7.34155 15.0618C7.41015 14.7502 7.68456 14.5078 8.02756 14.5078H13.1727V15.8928H8.57638L7.20434 22.0214H31.2149L29.8429 15.9274H25.864V14.5424H30.3917C30.7004 14.5424 30.9748 14.7502 31.0777 15.0964L32.7584 22.61C32.7927 22.8178 32.7584 23.0255 32.6212 23.1987C32.4497 23.3372 32.2782 23.441 32.0724 23.441Z" fill="black"/>
<path d="M22.2634 26.6608H16.1235C15.7462 26.6608 15.4375 26.3492 15.4375 25.9683V22.7482C15.4375 22.3673 15.7462 22.0557 16.1235 22.0557H22.2634C22.6407 22.0557 22.9494 22.3673 22.9494 22.7482V25.9683C22.9494 26.3492 22.6407 26.6608 22.2634 26.6608ZM16.8095 25.2758H21.5773V23.4407H16.8095V25.2758Z" fill="black"/>
<path d="M30.0837 38.3643H25.4531V39.7493H30.0837V38.3643Z" fill="black"/>
<path d="M23.4615 38.3643H21.918V39.7493H23.4615V38.3643Z" fill="black"/>
<path d="M5.8662 23.2676L0.206567 17.97C0.0350635 17.8315 -0.0335381 17.5545 0.000762698 17.3121L1.6815 9.79849C1.7501 9.55612 1.92161 9.34837 2.16171 9.27912C2.40182 9.20987 2.64192 9.27912 2.84773 9.41762L8.50736 14.6806L7.54694 15.754L2.77913 11.2874L1.4414 17.2428L6.79232 22.2288L5.8662 23.2676Z" fill="black"/>
<path d="M32.4501 23.3018L31.6612 22.1592L37.5609 18.0042L36.2232 11.9449L30.7694 15.7882L29.9805 14.6456L36.2575 10.2136C36.429 10.0751 36.6691 10.0405 36.9092 10.1444C37.115 10.2136 37.2865 10.4214 37.3208 10.6291L39.0016 18.1427C39.0702 18.4197 38.9673 18.6967 38.7272 18.8699L32.4501 23.3018Z" fill="black"/>
</g>
<defs>
<clipPath id="clip0_316_11856">
<rect width="39" height="42" fill="white"/>
</clipPath>
</defs>
</svg>
