<svg width="46" height="24" viewBox="0 0 46 24" fill="none" xmlns="http://www.w3.org/2000/svg">
<path fill-rule="evenodd" clip-rule="evenodd" d="M8.34374 4.60682H4.46877C4.03127 4.60682 3.68752 4.95402 3.68752 5.38182C3.68752 5.80962 4.03127 6.15682 4.46877 6.15682H8.34374V9.44592H1.125C0.6875 9.44592 0.34375 9.79312 0.34375 10.2209C0.34375 10.6487 0.6875 10.9959 1.125 10.9959H8.34374V14.285H4.46877C4.03127 14.285 3.68752 14.6322 3.68752 15.06C3.68752 15.4863 4.03127 15.835 4.46877 15.835H8.34374V19.1536C8.34374 19.5814 8.68749 19.9286 9.12499 19.9286H13.8907C14.2657 21.7297 15.8594 23.089 17.7813 23.089C19.7032 23.089 21.3125 21.7297 21.6719 19.9286H34.2188C34.5782 21.7297 36.1876 23.089 38.1094 23.089C40.0313 23.089 41.6407 21.7297 42.0001 19.9286H43.75C44.7969 19.9286 45.6562 19.0807 45.6562 18.0345V12.3506C45.6562 12.27 45.6562 12.1879 45.6406 12.1073C45.6562 12.0685 45.6562 12.0282 45.6562 11.9864C45.6562 11.8639 45.6251 11.7477 45.5626 11.6438C45.5313 11.4454 45.4689 11.2532 45.3751 11.0672L43.0001 5.75847C42.6407 4.96332 41.8438 4.45027 40.9688 4.45027H32.1406V1.28672C32.1406 0.858919 31.7812 0.511719 31.3593 0.511719H9.12499C8.68749 0.511719 8.34374 0.858919 8.34374 1.28672V4.60682ZM38.1094 16.7681C39.4376 16.7681 40.5158 17.8376 40.5158 19.1536C40.5158 20.4695 39.4376 21.539 38.1094 21.539C36.7813 21.539 35.7031 20.4695 35.7031 19.1536C35.7031 17.8376 36.7813 16.7681 38.1094 16.7681ZM17.7813 16.7681C19.1094 16.7681 20.1876 17.8376 20.1876 19.1536C20.1876 20.4695 19.1094 21.539 17.7813 21.539C16.4532 21.539 15.3906 20.4695 15.3906 19.1536C15.3906 17.8376 16.4532 16.7681 17.7813 16.7681ZM9.90624 9.44592H15.4219C15.8438 9.44592 16.2032 9.79312 16.2032 10.2209C16.2032 10.6487 15.8438 10.9959 15.4219 10.9959H9.90624V14.285H12.3438C12.7657 14.285 13.1251 14.6322 13.1251 15.06C13.1251 15.4863 12.7657 15.835 12.3438 15.835H9.90624V18.3786H13.8907C14.2657 16.5775 15.8594 15.2181 17.7813 15.2181C19.7032 15.2181 21.3125 16.5775 21.6719 18.3786C23.8907 18.3786 30.5781 18.3786 30.5781 18.3786V5.22682V2.06172H9.90624V9.44592ZM32.1406 6.00027V18.3786H34.2188C34.5782 16.5775 36.1876 15.2181 38.1094 15.2181C40.0313 15.2181 41.6407 16.5775 42.0001 18.3786H43.75C43.9375 18.3786 44.0938 18.2251 44.0938 18.0345V12.7614H36.7032C36.2657 12.7614 35.9219 12.4157 35.9219 11.9864V7.93002C35.9219 7.50222 36.2657 7.15502 36.7032 7.15502H41.9062L41.5625 6.38932C41.4688 6.15217 41.2188 6.00027 40.9688 6.00027H32.1406ZM42.6095 8.70502H37.4844V11.2114H43.7344L42.6095 8.70502ZM15.4219 4.60682H12.3438C11.9063 4.60682 11.5626 4.95402 11.5626 5.38182C11.5626 5.80962 11.9063 6.15682 12.3438 6.15682H15.4219C15.8438 6.15682 16.2032 5.80962 16.2032 5.38182C16.2032 4.95402 15.8438 4.60682 15.4219 4.60682Z" fill="black"/>
</svg>
