<svg width="92" height="85" viewBox="0 0 92 85" fill="none" xmlns="http://www.w3.org/2000/svg">
<path d="M43.9414 21.1698C43.7799 21.1698 43.6991 21.1698 43.5375 21.0893L29.4023 17.4671L30.2101 14.3279L42.7298 17.5476L45.9607 5.07129L49.1109 5.87621L45.4761 19.9624C45.3953 20.3649 45.0722 20.7673 44.7491 20.9283C44.5068 21.0893 44.1837 21.1698 43.9414 21.1698Z" fill="black"/>
<path d="M83.3578 46.766L80.2077 45.9611L88.3657 14.3275L45.4754 3.30006L28.9171 13.1201L26.4939 22.5378L23.3438 21.7328L25.9285 11.6713C26.0092 11.2688 26.3323 10.8664 26.6554 10.7054L44.4254 0.241352C44.8293 -0.000125248 45.2331 -0.000125263 45.637 0.0803672L90.7889 11.6713C91.6774 11.9128 92.162 12.7982 91.9197 13.6031L83.3578 46.766Z" fill="black"/>
<path d="M34.0057 83.4702L10.5817 77.4333C9.69316 77.1918 9.20852 76.3064 9.45084 75.5014L20.1128 34.0479L23.263 34.8528L13.0048 74.777L34.8134 80.4115L34.0057 83.4702Z" fill="black"/>
<path d="M80.7713 82.5047H40.385C39.4965 82.5047 38.7695 81.7803 38.7695 80.8949V52.0786C38.7695 51.1932 39.4965 50.4688 40.385 50.4688H80.7713C81.6598 50.4688 82.3867 51.1932 82.3867 52.0786V80.8949C82.3867 81.7803 81.6598 82.5047 80.7713 82.5047ZM42.0004 79.285H79.1558V53.6884H42.0004V79.285Z" fill="#1FCC30"/>
<path d="M65.4254 58.679H55.7326C54.8441 58.679 54.1172 57.9545 54.1172 57.0691V52.0786C54.1172 51.1932 54.8441 50.4688 55.7326 50.4688H65.4254C66.3139 50.4688 67.0408 51.1932 67.0408 52.0786V57.0691C67.0408 57.9545 66.3139 58.679 65.4254 58.679ZM57.3481 55.4593H63.8099V53.6884H57.3481V55.4593Z" fill="#1FCC30"/>
<path d="M77.7031 74.0527H70.4336V77.2724H77.7031V74.0527Z" fill="#1FCC30"/>
<path d="M67.2826 74.0527H64.8594V77.2724H67.2826V74.0527Z" fill="#1FCC30"/>
<path d="M30.2894 26.6426H13.8926V29.8623H30.2894V26.6426Z" fill="black"/>
<path d="M10.9851 54.8154H0V58.0351H10.9851V54.8154Z" fill="black"/>
<path d="M18.7397 81.7803H1.53516V85H18.7397V81.7803Z" fill="black"/>
</svg>
