<svg width="30" height="26" viewBox="0 0 30 26" fill="none" xmlns="http://www.w3.org/2000/svg">
<path fill-rule="evenodd" clip-rule="evenodd" d="M3.73999 5.02349C3.61999 5.05349 3.51995 5.12249 3.44995 5.22849L0.579953 9.47849C0.499953 9.60349 0.480016 9.75948 0.520016 9.90448C0.570016 10.0485 0.669933 10.1655 0.809933 10.2215L3.38 11.2575V20.4935C3.38 20.6975 3.49994 20.8805 3.68994 20.9575L14.8099 25.4435L14.83 25.4495L14.85 25.4565L14.86 25.4615C14.93 25.4785 14.9899 25.4835 15.0499 25.4765L15.0699 25.4745L15.08 25.4725C15.11 25.4665 15.1499 25.4575 15.1899 25.4435L26.3101 20.9575C26.4901 20.8805 26.6199 20.6975 26.6199 20.4935V11.2585L29.1899 10.2215C29.3299 10.1655 29.43 10.0485 29.48 9.90448C29.52 9.75948 29.4999 9.60349 29.4099 9.47849L26.55 5.22849C26.48 5.12249 26.37 5.05349 26.26 5.02349L15.1899 0.557484C15.0699 0.509484 14.9299 0.509484 14.8099 0.557484L3.73999 5.02349ZM14.5 11.6415L12.5499 14.5345C12.4199 14.7305 12.1599 14.8075 11.9499 14.7185L4.38 11.6615V20.1555L14.5 24.2385V11.6415ZM15.5 11.6395V24.2385L25.6199 20.1555V11.6625L18.0499 14.7185C17.8299 14.8075 17.5799 14.7305 17.4499 14.5345L15.5 11.6395ZM25.9399 6.11849L15.75 10.2285L18.0499 13.6395L28.24 9.52549L25.9399 6.11849ZM4.05993 6.11949L1.76001 9.52549L11.9399 13.6395L14.24 10.2285L4.05993 6.11949ZM5.20996 5.50749L15 9.45449L24.78 5.50749L15 1.56049L5.20996 5.50749Z" fill="black"/>
</svg>
