<svg width="30" height="18" viewBox="0 0 30 18" fill="none" xmlns="http://www.w3.org/2000/svg">
<path fill-rule="evenodd" clip-rule="evenodd" d="M10.742 15.3042H20.754C20.992 16.7202 22.225 17.7992 23.707 17.7992C25.189 17.7992 26.422 16.7202 26.66 15.3042H28.117C28.881 15.3042 29.5 14.6852 29.5 13.9212V9.43322C29.5 9.36722 29.497 9.30221 29.492 9.23721C29.497 9.20721 29.5 9.17722 29.5 9.14622C29.5 9.06222 29.479 8.98322 29.443 8.91422C29.408 8.76021 29.359 8.61022 29.294 8.46622L27.429 4.27422C27.167 3.68722 26.584 3.30822 25.94 3.30822H18.914V0.699219C18.914 0.423219 18.69 0.199219 18.414 0.199219H1C0.724 0.199219 0.5 0.423219 0.5 0.699219V14.8042C0.5 15.0802 0.724 15.3042 1 15.3042H4.836C5.074 16.7202 6.306 17.7992 7.789 17.7992C9.271 17.7992 10.503 16.7202 10.742 15.3042ZM23.707 12.8102C24.808 12.8102 25.702 13.7032 25.702 14.8042C25.702 15.9052 24.808 16.7992 23.707 16.7992C22.606 16.7992 21.712 15.9052 21.712 14.8042C21.712 13.7032 22.606 12.8102 23.707 12.8102ZM9.78296 14.8042C9.78296 15.9052 8.89 16.7992 7.789 16.7992C6.688 16.7992 5.79401 15.9052 5.79401 14.8042C5.79401 13.7032 6.688 12.8102 7.789 12.8102C8.89 12.8102 9.78296 13.7032 9.78296 14.8042ZM18.914 4.30822V14.3042H20.754C20.992 12.8892 22.225 11.8102 23.707 11.8102C25.189 11.8102 26.422 12.8892 26.66 14.3042H28.117C28.328 14.3042 28.5 14.1332 28.5 13.9212V9.64622H22.598C22.322 9.64622 22.098 9.42222 22.098 9.14622V5.94421C22.098 5.66821 22.322 5.44421 22.598 5.44421H26.854L26.515 4.68121C26.414 4.45421 26.189 4.30822 25.94 4.30822H18.914ZM17.914 3.81022V1.19922H1.5V14.3042H4.836C5.074 12.8892 6.306 11.8102 7.789 11.8102C9.271 11.8102 10.503 12.8892 10.742 14.3042H17.914V3.81022ZM27.3 6.44421H23.098V8.64622H28.28L27.3 6.44421Z" fill="black"/>
</svg>
