<svg width="92" height="85" viewBox="0 0 92 85" fill="none" xmlns="http://www.w3.org/2000/svg">
<g clip-path="url(#clip0_272_1784)">
<path d="M43.9414 21.1698C43.7799 21.1698 43.6991 21.1698 43.5375 21.0893L29.4023 17.4671L30.2101 14.3279L42.7298 17.5476L45.9607 5.07129L49.1109 5.87621L45.4761 19.9624C45.3953 20.3649 45.0722 20.7673 44.7491 20.9283C44.5068 21.0893 44.1837 21.1698 43.9414 21.1698Z" fill="black"/>
<path d="M83.3578 46.766L80.2077 45.9611L88.3657 14.3275L45.4754 3.30006L28.9171 13.1201L26.4939 22.5378L23.3438 21.7328L25.9285 11.6713C26.0092 11.2688 26.3323 10.8664 26.6554 10.7054L44.4254 0.241352C44.8293 -0.000125248 45.2331 -0.000125263 45.637 0.0803672L90.7889 11.6713C91.6774 11.9128 92.162 12.7982 91.9197 13.6031L83.3578 46.766Z" fill="black"/>
<path d="M34.0057 83.4702L10.5817 77.4333C9.69316 77.1918 9.20852 76.3064 9.45084 75.5014L20.1128 34.0479L23.263 34.8528L13.0048 74.777L34.8134 80.4115L34.0057 83.4702Z" fill="black"/>
<path d="M80.7732 82.5047H40.3869C39.4984 82.5047 38.7715 81.7803 38.7715 80.8949V52.0786C38.7715 51.1932 39.4984 50.4688 40.3869 50.4688H80.7732C81.6617 50.4688 82.3887 51.1932 82.3887 52.0786V80.8949C82.3887 81.7803 81.6617 82.5047 80.7732 82.5047ZM42.0024 79.285H79.1578V53.6884H42.0024V79.285Z" fill="black"/>
<path d="M65.4273 58.679H55.7346C54.8461 58.679 54.1191 57.9545 54.1191 57.0691V52.0786C54.1191 51.1932 54.8461 50.4688 55.7346 50.4688H65.4273C66.3158 50.4688 67.0428 51.1932 67.0428 52.0786V57.0691C67.0428 57.9545 66.3158 58.679 65.4273 58.679ZM57.35 55.4593H63.8119V53.6884H57.35V55.4593Z" fill="black"/>
<path d="M77.7031 74.0527H70.4336V77.2724H77.7031V74.0527Z" fill="black"/>
<path d="M67.2845 74.0527H64.8613V77.2724H67.2845V74.0527Z" fill="black"/>
<path d="M30.2894 26.6426H13.8926V29.8623H30.2894V26.6426Z" fill="black"/>
<path d="M10.9851 54.8154H0V58.0351H10.9851V54.8154Z" fill="black"/>
<path d="M18.7397 81.7803H1.53516V85H18.7397V81.7803Z" fill="black"/>
</g>
<defs>
<clipPath id="clip0_272_1784">
<rect width="92" height="85" fill="white"/>
</clipPath>
</defs>
</svg>
