<svg width="32" height="11" viewBox="0 0 32 11" fill="none" xmlns="http://www.w3.org/2000/svg">
<path fill-rule="evenodd" clip-rule="evenodd" d="M8.00032 10.8621H5.23092L3.15422 2.70632C3.05565 2.33115 2.84636 1.99948 2.5385 1.84317C1.7702 1.45033 0.923581 1.13769 0 0.980013V0.666016H4.46127C5.07699 0.666016 5.53878 1.13769 5.61575 1.68549L6.69326 7.56852L9.4613 0.666016H12.1537L8.00032 10.8621ZM13.6926 10.8621H11.0771L13.2308 0.666016H15.8463L13.6926 10.8621ZM19.2312 3.48946C19.3081 2.94031 19.7699 2.62631 20.3087 2.62631C21.1553 2.54747 22.0775 2.70515 22.8472 3.09663L23.309 0.901363C22.5393 0.587366 21.6927 0.429688 20.9244 0.429688C18.3859 0.429688 16.5387 1.842 16.5387 3.8021C16.5387 5.29325 17.8471 6.0762 18.7707 6.54788C19.7699 7.01819 20.1547 7.33219 20.0778 7.80251C20.0778 8.50798 19.3081 8.82198 18.5398 8.82198C17.6162 8.82198 16.6927 8.58682 15.8474 8.19398L15.3856 10.3906C16.3092 10.7821 17.3084 10.9398 18.232 10.9398C21.0783 11.0172 22.8472 9.60629 22.8472 7.48851C22.8472 4.82157 19.2312 4.66525 19.2312 3.48946ZM31.999 10.8621L29.9223 0.666016H27.6916C27.2298 0.666016 26.768 0.980013 26.6141 1.45033L22.7686 10.8621H25.461L25.9984 9.3723H29.3065L29.6144 10.8621H31.999ZM28.0768 3.41016L28.8451 7.25289H26.6914L28.0768 3.41016Z" fill="white"/>
</svg>
