<svg width="26" height="17" viewBox="0 0 26 17" fill="none" xmlns="http://www.w3.org/2000/svg">
<path d="M16.5154 1.71781L13.0002 1.71781L9.48492 1.71781V14.3515H16.5154V1.71781Z" fill="#2E3D14"/>
<path d="M9.93135 8.03464C9.93024 6.81793 10.206 5.61691 10.7376 4.5225C11.2693 3.4281 12.043 2.469 13.0002 1.71781C11.8149 0.786156 10.3914 0.206776 8.89233 0.0458884C7.3933 -0.114999 5.87925 0.149092 4.52322 0.80799C3.16719 1.46689 2.0239 2.494 1.22404 3.77193C0.424169 5.04986 0 6.52704 0 8.03464C0 9.54224 0.424169 11.0194 1.22404 12.2973C2.0239 13.5753 3.16719 14.6024 4.52322 15.2613C5.87925 15.9202 7.3933 16.1843 8.89233 16.0234C10.3914 15.8625 11.8149 15.2831 13.0002 14.3515C12.043 13.6003 11.2693 12.6412 10.7377 11.5468C10.206 10.4524 9.93025 9.25135 9.93135 8.03464Z" fill="white"/>
<path d="M26 8.03464C26.0001 9.54221 25.5759 11.0194 24.7761 12.2973C23.9763 13.5752 22.833 14.6024 21.477 15.2613C20.121 15.9202 18.607 16.1843 17.108 16.0234C15.609 15.8625 14.1855 15.2831 13.0002 14.3515C13.9565 13.5995 14.7296 12.6403 15.2612 11.546C15.7928 10.4518 16.069 9.25116 16.069 8.03464C16.069 6.81812 15.7928 5.61747 15.2612 4.52324C14.7296 3.42901 13.9565 2.46976 13.0002 1.71781C14.1855 0.786155 15.609 0.206771 17.108 0.0458859C18.607 -0.115 20.121 0.149104 21.477 0.808008C22.833 1.46691 23.9763 2.49403 24.7761 3.77196C25.5759 5.04989 26.0001 6.52706 26 8.03464Z" fill="white"/>
<path d="M25.2334 13.0134V12.7547H25.3377V12.702H25.0721V12.7547H25.1764V13.0134H25.2334ZM25.7491 13.0134V12.7015H25.6677L25.574 12.916L25.4804 12.7015H25.3989V13.0134H25.4564V12.7781L25.5442 12.9809H25.6038L25.6917 12.7776V13.0134H25.7491Z" fill="white"/>
</svg>
