<svg width="28" height="28" viewBox="0 0 28 28" fill="none" xmlns="http://www.w3.org/2000/svg">
<g clip-path="url(#clip0_188_14153)">
<path d="M17.2986 10.6999C17.0711 10.4724 16.7013 10.4724 16.4738 10.6999C16.2463 10.9274 16.2463 11.2984 16.4738 11.5248C17.1341 12.1851 17.4993 13.0636 17.4993 13.9993C17.4993 15.9289 15.9289 17.4993 13.9993 17.4993C13.0636 17.4993 12.1851 17.1353 11.5248 16.4738C11.2973 16.2463 10.9274 16.2463 10.6999 16.4738C10.4724 16.7001 10.4724 17.0711 10.6999 17.2986C11.5796 18.1806 12.7521 18.666 13.9993 18.666C16.5729 18.666 18.6659 16.573 18.6659 13.9993C18.6659 12.7521 18.1806 11.5796 17.2986 10.6999Z" fill="#414141"/>
<path d="M14.8138 9.41253C14.5489 9.36588 14.2783 9.33203 14.0006 9.33203C11.427 9.33203 9.33398 11.425 9.33398 13.9987C9.33398 14.2763 9.36784 14.547 9.41563 14.8118C9.46578 15.0942 9.71198 15.2937 9.98848 15.2937C10.0223 15.2937 10.0561 15.2913 10.0911 15.2843C10.4073 15.2283 10.6196 14.925 10.5636 14.6088C10.5275 14.4105 10.5006 14.2087 10.5006 13.9987C10.5006 12.069 12.071 10.4987 14.0006 10.4987C14.2106 10.4987 14.4125 10.5255 14.6108 10.5605C14.9211 10.6235 15.2303 10.4042 15.2863 10.088C15.3423 9.77188 15.13 9.46853 14.8138 9.41253Z" fill="#414141"/>
<path d="M27.8608 13.6229C27.7289 13.4666 24.5731 9.78343 20.2203 7.52828C19.938 7.38014 19.5822 7.49214 19.434 7.77913C19.2858 8.06499 19.3978 8.41728 19.6848 8.56548C23.0378 10.3015 25.7164 13.0105 26.6323 13.9998C25.2416 15.506 19.7688 20.9998 13.9997 20.9998C12.042 20.9998 10.0692 20.5273 8.13368 19.594C7.84668 19.4528 7.49553 19.5753 7.35553 19.8658C7.21438 20.1552 7.33688 20.504 7.62738 20.644C9.72153 21.6555 11.8659 22.1665 13.9997 22.1665C21.1876 22.1665 27.5925 14.6951 27.862 14.3766C28.0463 14.1596 28.0451 13.8411 27.8608 13.6229Z" fill="#414141"/>
<path d="M17.8279 6.50403C16.5003 6.05718 15.2123 5.83203 14.0001 5.83203C6.81222 5.83203 0.407227 13.3034 0.137727 13.6219C-0.0326238 13.8225 -0.0466237 14.1142 0.105079 14.3324C0.185579 14.4479 2.11408 17.186 5.45657 19.4062C5.55572 19.4727 5.66657 19.5042 5.77857 19.5042C5.96642 19.5042 6.15192 19.4132 6.26392 19.2417C6.44242 18.9746 6.36892 18.6117 6.10057 18.4344C3.64592 16.8022 1.96593 14.8317 1.33708 14.0302C2.67993 12.5719 8.18892 6.99873 14.0001 6.99873C15.0862 6.99873 16.2494 7.20408 17.4557 7.60888C17.7613 7.71853 18.0927 7.54938 18.1942 7.24253C18.2969 6.93688 18.1335 6.60673 17.8279 6.50403Z" fill="#414141"/>
</g>
<defs>
<clipPath id="clip0_188_14153">
<rect width="28" height="28" fill="white"/>
</clipPath>
</defs>
</svg>
