<svg width="25" height="23" viewBox="0 0 25 23" fill="none" xmlns="http://www.w3.org/2000/svg">
<g clip-path="url(#clip0_204_1579)">
<path fill-rule="evenodd" clip-rule="evenodd" d="M18.3513 6.8092C18.4205 6.78703 18.5117 6.83137 18.6028 6.9533C18.6028 6.9533 18.6028 6.9533 22.7216 11.0397C22.9622 11.2836 22.9622 11.6531 22.7216 11.8341C22.7216 11.8341 22.7216 11.8341 18.6028 15.9833C18.5117 16.1053 18.4205 16.1348 18.3513 16.0979C18.282 16.0609 18.2383 15.9538 18.2383 15.7986V7.07523C18.2383 6.92374 18.282 6.83137 18.3513 6.8092Z" fill="#ED1C24"/>
<path fill-rule="evenodd" clip-rule="evenodd" d="M11.3056 0H11.5972L11.8778 0.118233C11.8778 0.118233 11.8778 0.118233 16.1169 4.3894C16.2992 4.63325 16.2372 4.81799 15.9347 4.81799C15.9347 4.81799 15.9347 4.81799 14.1778 4.81799C13.8753 4.81799 13.6347 5.06185 13.6347 5.36851C13.6347 5.36851 13.6347 5.36851 13.6347 8.53863C13.6347 8.8453 13.3905 9.08916 13.026 9.08916C13.026 9.08916 13.026 9.08916 9.93869 9.08916C9.63616 9.08916 9.39194 8.8453 9.39194 8.53863C9.39194 8.53863 9.39194 8.53864 9.39194 5.36851C9.39194 5.06185 9.15138 4.81799 8.8452 4.81799H6.96804C6.6655 4.81799 6.60354 4.63325 6.78579 4.3894C6.78579 4.3894 6.78579 4.3894 11.0285 0.118233L11.3056 0Z" fill="#ED1C24"/>
<path fill-rule="evenodd" clip-rule="evenodd" d="M4.66374 6.71703C4.74029 6.75398 4.78767 6.86113 4.78767 7.01631V15.9207C4.78767 16.0759 4.74029 16.1683 4.66374 16.1978C4.59084 16.2274 4.48514 16.1978 4.36121 16.1055C4.36121 16.1055 4.36121 16.1055 0.180426 11.8343C-0.060142 11.6533 -0.060142 11.2838 0.180426 11.0399C0.180426 11.0399 0.180427 11.0399 4.36121 6.83157C4.48514 6.70964 4.59084 6.68008 4.66374 6.71703Z" fill="#ED1C24"/>
<path fill-rule="evenodd" clip-rule="evenodd" d="M9.93888 13.7256C9.93888 13.7256 9.93888 13.7256 13.0262 13.7256C13.3907 13.7256 13.6349 13.9694 13.6349 14.2761C13.6349 14.2761 13.6349 14.2761 13.6349 17.631C13.6349 17.9967 13.8754 18.2406 14.178 18.2406H15.8146C16.1171 18.2406 16.2374 18.4216 15.9968 18.6064C15.9968 18.6064 15.9968 18.6064 11.878 22.8147C11.7541 22.9367 11.6046 22.9995 11.4515 22.9995C11.3021 22.9995 11.149 22.9367 11.0287 22.8147C11.0287 22.8147 11.0287 22.8147 6.90991 18.6064C6.66569 18.4216 6.78598 18.2406 7.08851 18.2406C7.08851 18.2406 7.08851 18.2406 8.84539 18.2406C9.15156 18.2406 9.39213 17.9967 9.39213 17.631C9.39213 17.631 9.39213 17.631 9.39213 14.2761C9.39213 13.9694 9.63634 13.7256 9.93888 13.7256Z" fill="#ED1C24"/>
</g>
<defs>
<clipPath id="clip0_204_1579">
<rect width="25" height="23" fill="white"/>
</clipPath>
</defs>
</svg>
