<svg width="21" height="21" viewBox="0 0 21 21" fill="none" xmlns="http://www.w3.org/2000/svg">
<g clip-path="url(#clip0_309_3626)">
<path d="M12.8337 9.33338H18.0837C18.4059 9.33338 18.667 9.07219 18.667 8.75003V7.58338C18.667 7.26121 18.4059 7.00003 18.0837 7.00003H15.6501L20.8295 1.82063C21.0573 1.5928 21.0573 1.2235 20.8295 0.995668L20.0047 0.170871C19.7769 -0.056957 19.4076 -0.056957 19.1797 0.170871L14.0003 5.35027V2.91668C14.0003 2.59451 13.7392 2.33332 13.417 2.33332H12.2503C11.9282 2.33332 11.667 2.59451 11.667 2.91668V8.16667C11.667 8.811 12.1894 9.33338 12.8337 9.33338Z" fill="black"/>
<path d="M19.315 13.7841C18.0287 13.7841 16.7663 13.583 15.57 13.1877C14.9833 12.9889 14.2632 13.1712 13.9054 13.5386L11.5448 15.3211C8.80693 13.8593 7.1196 12.1731 5.67722 9.45531L7.40901 7.15444C7.85903 6.70441 8.01855 6.04871 7.82485 5.43577C7.42837 4.2315 7.22668 2.96915 7.22668 1.68514C7.22673 0.755945 6.47134 0 5.54165 0H1.68503C0.755344 0 0 0.755945 0 1.68503C0 12.3355 8.66458 21 19.315 21C20.2447 21 21.0001 20.2441 21.0001 19.3149V15.4691C21 14.54 20.2447 13.7841 19.315 13.7841Z" fill="black"/>
</g>
<defs>
<clipPath id="clip0_309_3626">
<rect width="21" height="21" fill="white"/>
</clipPath>
</defs>
</svg>
