<svg width="32" height="32" viewBox="0 0 32 32" fill="none" xmlns="http://www.w3.org/2000/svg">
<g clip-path="url(#clip0_296_153452)">
<path d="M7.95656 24.0434C6.95031 23.0372 7.6175 20.923 7.10563 19.6848C6.57406 18.4063 4.625 17.3672 4.625 16C4.625 14.6328 6.57406 13.5937 7.10563 12.3152C7.6175 11.0781 6.95031 8.96281 7.95656 7.95656C8.96281 6.95031 11.0781 7.6175 12.3152 7.10563C13.5992 6.57406 14.6328 4.625 16 4.625C17.3672 4.625 18.4063 6.57406 19.6848 7.10563C20.923 7.6175 23.0372 6.95031 24.0434 7.95656C25.0497 8.96281 24.3825 11.077 24.8944 12.3152C25.4259 13.5992 27.375 14.6328 27.375 16C27.375 17.3672 25.4259 18.4063 24.8944 19.6848C24.3825 20.923 25.0497 23.0372 24.0434 24.0434C23.0372 25.0497 20.923 24.3825 19.6848 24.8944C18.4063 25.4259 17.3672 27.375 16 27.375C14.6328 27.375 13.5937 25.4259 12.3152 24.8944C11.0781 24.3825 8.96281 25.0497 7.95656 24.0434Z" stroke="black" stroke-width="1.5" stroke-linecap="round" stroke-linejoin="round"/>
<path d="M12.5 14.25C13.4665 14.25 14.25 13.4665 14.25 12.5C14.25 11.5335 13.4665 10.75 12.5 10.75C11.5335 10.75 10.75 11.5335 10.75 12.5C10.75 13.4665 11.5335 14.25 12.5 14.25Z" stroke="black" stroke-width="1.5" stroke-linecap="round" stroke-linejoin="round"/>
<path d="M19.5 21.25C20.4665 21.25 21.25 20.4665 21.25 19.5C21.25 18.5335 20.4665 17.75 19.5 17.75C18.5335 17.75 17.75 18.5335 17.75 19.5C17.75 20.4665 18.5335 21.25 19.5 21.25Z" stroke="black" stroke-width="1.5" stroke-linecap="round" stroke-linejoin="round"/>
<path d="M11.625 20.375L20.375 11.625" stroke="black" stroke-width="1.5" stroke-linecap="round" stroke-linejoin="round"/>
</g>
<defs>
<clipPath id="clip0_296_153452">
<rect width="28" height="28" fill="white" transform="translate(2 2)"/>
</clipPath>
</defs>
</svg>
