<svg width="29" height="29" viewBox="0 0 29 29" fill="none" xmlns="http://www.w3.org/2000/svg">
<path d="M7.78619 10.612H10.721V19.3182C10.721 20.2015 11.4372 20.9168 12.3196 20.9168H16.6832C17.5655 20.9168 18.2818 20.2016 18.2818 19.3182V10.612H21.2156C21.7016 10.612 22.1386 10.3193 22.3255 9.87017C22.5104 9.42285 22.4075 8.90572 22.0641 8.56231L15.3497 1.8471C14.8807 1.37909 14.121 1.37909 13.6511 1.8471L6.93782 8.56231C6.59435 8.90572 6.49144 9.42197 6.6774 9.87017C6.86417 10.3184 7.30014 10.612 7.78619 10.612Z" fill="black"/>
<path d="M27.558 13.875C26.7624 13.875 26.1171 14.5205 26.1171 15.3169V21.3461C26.1171 23.1522 24.6468 24.6215 22.8406 24.6215H6.15931C4.35312 24.6215 2.88383 23.1522 2.88383 21.3461V15.3169C2.88383 14.5205 2.23744 13.875 1.44192 13.875C0.645448 13.875 0 14.5205 0 15.317V21.3461C0 24.7423 2.76302 27.5054 6.15931 27.5054H22.8406C26.2369 27.5054 29 24.7424 29 21.3461V15.317C29 14.5205 28.3545 13.875 27.558 13.875Z" fill="black"/>
</svg>
