<svg width="20" height="20" viewBox="0 0 20 20" fill="none" xmlns="http://www.w3.org/2000/svg">
<g clip-path="url(#clip0_172_7491)">
<path d="M16.1311 20L15.0264 18.8954L17.007 16.9148H7.03142C4.01645 16.9148 1.56357 14.4619 1.56357 11.4469V10H3.12582V11.4469C3.12582 13.6005 4.87787 15.3525 7.03142 15.3525H17.007L15.0264 13.372L16.1311 12.2673L19.9974 16.1336L16.1311 20ZM18.4358 10H16.8736V8.55309C16.8736 6.3995 15.1215 4.64748 12.9679 4.64748H2.9924L4.97297 6.62801L3.86831 7.73272L0.00195312 3.86636L3.86831 0L4.97297 1.10462L2.9924 3.08524H12.9679C15.9829 3.08524 18.4358 5.53811 18.4358 8.55309V10Z" fill="black"/>
</g>
<defs>
<clipPath id="clip0_172_7491">
<rect width="20" height="20" fill="white"/>
</clipPath>
</defs>
</svg>
