<svg width="36" height="36" viewBox="0 0 36 36" fill="none" xmlns="http://www.w3.org/2000/svg">
<g clip-path="url(#clip0_185_7819)">
<path d="M5.55469 20.1533H8.76326V22.5217H5.55469V20.1533Z" fill="black"/>
<path d="M33.8669 13.8799H2.13355C0.970305 13.8799 0.0273438 14.8228 0.0273438 15.9861V33.8943C0.0273438 35.0574 0.970305 36.0004 2.13355 36.0004H33.8669C35.0301 36.0004 35.9731 35.0574 35.9731 33.8942V15.9861C35.9731 14.8228 35.0301 13.8799 33.8669 13.8799ZM8.5218 31.4302H3.30869V29.324H8.5218V31.4302ZM10.8698 22.8727C10.8698 23.8405 10.0825 24.6279 9.11467 24.6279H5.20396C4.23618 24.6279 3.44882 23.8405 3.44882 22.8727V19.8023C3.44882 18.8345 4.23618 18.0472 5.20396 18.0472H9.1146C10.0824 18.0472 10.8697 18.8345 10.8697 19.8023L10.8698 22.8727ZM16.5784 31.4302H11.3653V29.324H16.5784V31.4302ZM24.6351 31.4302H19.422V29.324H24.6351V31.4302ZM32.6917 31.4302H27.4786V29.324H32.6917V31.4302Z" fill="black"/>
<path d="M28.3024 5.11632L23.803 0.616887C22.9804 -0.205629 21.6469 -0.205629 20.8243 0.616887L9.66797 11.7732H22.0258L28.3024 5.11632Z" fill="black"/>
<path d="M28.1724 11.7734L31.4657 8.28045L29.7917 6.60645L24.9199 11.7734H28.1724Z" fill="black"/>
<path d="M33.8662 11.7734C34.3186 11.7734 34.7542 11.846 35.163 11.9786L32.9549 9.77051L31.0664 11.7735L33.8662 11.7734Z" fill="black"/>
</g>
<defs>
<clipPath id="clip0_185_7819">
<rect width="36" height="36" fill="white"/>
</clipPath>
</defs>
</svg>
