<svg width="27" height="27" viewBox="0 0 27 27" fill="none" xmlns="http://www.w3.org/2000/svg">
<path d="M13.4879 2.25008C13.34 2.25153 13.1938 2.28225 13.0577 2.34052C12.9216 2.39879 12.7983 2.48346 12.6948 2.58966C12.5913 2.69585 12.5097 2.82156 12.4546 2.95947C12.3995 3.09739 12.3721 3.24481 12.3738 3.39339V12.4362C12.3739 12.7362 12.4926 13.0239 12.7038 13.2359C12.915 13.448 13.2014 13.5671 13.5 13.5671C13.7986 13.5671 14.085 13.448 14.2962 13.2359C14.5074 13.0239 14.6261 12.7362 14.6262 12.4362V3.39339C14.628 3.24276 14.5997 3.09327 14.5431 2.95376C14.4865 2.81426 14.4028 2.68748 14.2967 2.58096C14.1907 2.47445 14.0645 2.39035 13.9256 2.33351C13.7867 2.27668 13.6379 2.24832 13.4879 2.25008ZM20.0518 4.51685C20.0152 4.51579 19.9785 4.51652 19.9419 4.51906C19.7195 4.53802 19.5077 4.62305 19.3335 4.76326C19.1593 4.90348 19.0305 5.09252 18.9636 5.30644C18.8967 5.52036 18.8946 5.74949 18.9577 5.96458C19.0208 6.17967 19.1461 6.37104 19.3178 6.51437C21.2668 8.17672 22.4998 10.651 22.4998 13.4294C22.4998 18.4463 18.489 22.4899 13.5055 22.4899C8.52194 22.4899 4.5024 18.4463 4.50241 13.4294C4.50242 10.667 5.71975 8.2096 7.64921 6.54746C7.76162 6.45109 7.85402 6.33338 7.92116 6.20113C7.98829 6.06889 8.02883 5.92467 8.04047 5.77669C8.0521 5.62871 8.03461 5.47994 7.98897 5.33875C7.94334 5.19756 7.87047 5.06678 7.77451 4.95388C7.67856 4.84098 7.5614 4.74816 7.42974 4.68074C7.29807 4.61331 7.15447 4.57252 7.00714 4.56084C6.8598 4.54916 6.71162 4.56677 6.57106 4.61261C6.43049 4.65845 6.30029 4.73163 6.18788 4.82801C3.77932 6.90289 2.25001 9.9956 2.25 13.4294C2.24999 19.6657 7.30382 24.75 13.5055 24.75C19.7072 24.75 24.75 19.6657 24.75 13.4294C24.75 9.97557 23.2056 6.87014 20.7726 4.79493C20.5725 4.61975 20.3172 4.52126 20.0518 4.51685Z" fill="black"/>
</svg>
