<svg width="16" height="16" viewBox="0 0 16 16" fill="none" xmlns="http://www.w3.org/2000/svg">
<path fill-rule="evenodd" clip-rule="evenodd" d="M7.99984 1.33301C10.4798 1.33301 12.5265 1.99967 13.4798 3.08634C15.0532 4.91301 15.0532 9.75301 13.4865 11.5863C12.3665 12.873 9.94651 13.333 7.99984 13.333H7.89318L5.89318 14.6663C5.67314 14.8086 5.41508 14.8807 5.15318 14.873C4.9722 14.8736 4.79301 14.8373 4.62651 14.7663C4.4216 14.6778 4.2422 14.5392 4.10476 14.3634C3.96731 14.1875 3.87622 13.9799 3.83984 13.7597L3.61984 12.4263C3.208 12.2083 2.83607 11.922 2.51984 11.5797C0.94651 9.75301 0.94651 4.91301 2.51984 3.08634C3.47318 1.99967 5.51984 1.33301 7.99984 1.33301Z" fill="black"/>
</svg>
