<svg width="33" height="33" viewBox="0 0 33 33" fill="none" xmlns="http://www.w3.org/2000/svg">
<g clip-path="url(#clip0_309_3887)">
<path d="M31.4533 0.515625H22.6876C22.4141 0.515625 22.1518 0.624274 21.9584 0.817671C21.765 1.01107 21.6564 1.27337 21.6564 1.54688C21.6564 1.82038 21.765 2.08268 21.9584 2.27608C22.1518 2.46948 22.4141 2.57812 22.6876 2.57812H28.8793L19.3974 11.6289C19.2994 11.7224 19.2208 11.8343 19.1661 11.9582C19.1114 12.0821 19.0816 12.2155 19.0784 12.3509C19.0752 12.4863 19.0988 12.621 19.1477 12.7474C19.1966 12.8737 19.2699 12.9891 19.3634 13.0871C19.4569 13.1851 19.5688 13.2637 19.6927 13.3184C19.8166 13.3731 19.95 13.4029 20.0854 13.4061C20.2208 13.4093 20.3555 13.3857 20.4819 13.3368C20.6082 13.2879 20.7236 13.2146 20.8216 13.1211L30.422 3.95691V10.3125C30.422 10.586 30.5306 10.8483 30.724 11.0417C30.9174 11.2351 31.1797 11.3438 31.4533 11.3438C31.7268 11.3438 31.9891 11.2351 32.1825 11.0417C32.3759 10.8483 32.4845 10.586 32.4845 10.3125V1.54688C32.4845 1.27337 32.3759 1.01107 32.1825 0.817671C31.9891 0.624274 31.7268 0.515625 31.4533 0.515625Z" fill="currentColor"/>
<path d="M31.4531 21.6553C31.1796 21.6553 30.9173 21.7639 30.7239 21.9573C30.5305 22.1507 30.4219 22.413 30.4219 22.6865V28.9627L20.8385 19.3793C20.644 19.1915 20.3835 19.0875 20.1131 19.0899C19.8427 19.0922 19.5841 19.2007 19.3929 19.3919C19.2017 19.5831 19.0932 19.8417 19.0909 20.1121C19.0885 20.3825 19.1925 20.643 19.3803 20.8375L28.9637 30.4209H22.6875C22.414 30.4209 22.1517 30.5296 21.9583 30.723C21.7649 30.9164 21.6563 31.1787 21.6563 31.4522C21.6563 31.7257 21.7649 31.988 21.9583 32.1814C22.1517 32.3748 22.414 32.4834 22.6875 32.4834H31.4531C31.7267 32.4834 31.989 32.3748 32.1824 32.1814C32.3758 31.988 32.4844 31.7257 32.4844 31.4522V22.6865C32.4844 22.413 32.3758 22.1507 32.1824 21.9573C31.989 21.7639 31.7267 21.6553 31.4531 21.6553Z" fill="currentColor"/>
<path d="M11.6459 19.895L2.57812 28.9627V22.6865C2.57812 22.413 2.46948 22.1507 2.27608 21.9573C2.08268 21.7639 1.82038 21.6553 1.54688 21.6553C1.27337 21.6553 1.01107 21.7639 0.817671 21.9573C0.624274 22.1507 0.515625 22.413 0.515625 22.6865V31.4522C0.515625 31.7257 0.624274 31.988 0.817671 32.1814C1.01107 32.3748 1.27337 32.4834 1.54688 32.4834H10.3125C10.586 32.4834 10.8483 32.3748 11.0417 32.1814C11.2351 31.988 11.3438 31.7257 11.3438 31.4522C11.3438 31.1787 11.2351 30.9164 11.0417 30.723C10.8483 30.5296 10.586 30.4209 10.3125 30.4209H4.03631L13.1041 21.3531C13.2919 21.1586 13.3959 20.8981 13.3935 20.6278C13.3912 20.3574 13.2827 20.0987 13.0915 19.9075C12.9003 19.7163 12.6417 19.6079 12.3713 19.6055C12.1009 19.6032 11.8404 19.7071 11.6459 19.895Z" fill="currentColor"/>
<path d="M4.03631 2.57812H10.3125C10.586 2.57812 10.8483 2.46948 11.0417 2.27608C11.2351 2.08268 11.3438 1.82038 11.3438 1.54688C11.3438 1.27337 11.2351 1.01107 11.0417 0.817671C10.8483 0.624274 10.586 0.515625 10.3125 0.515625H1.54688C1.27337 0.515625 1.01107 0.624274 0.817671 0.817671C0.624274 1.01107 0.515625 1.27337 0.515625 1.54688V10.3125C0.515625 10.586 0.624274 10.8483 0.817671 11.0417C1.01107 11.2351 1.27337 11.3438 1.54688 11.3438C1.82038 11.3438 2.08268 11.2351 2.27608 11.0417C2.46948 10.8483 2.57812 10.586 2.57812 10.3125V4.03631L11.6459 13.1041C11.8404 13.2919 12.1009 13.3959 12.3713 13.3935C12.6417 13.3912 12.9003 13.2827 13.0915 13.0915C13.2827 12.9003 13.3912 12.6417 13.3935 12.3713C13.3959 12.1009 13.2919 11.8404 13.1041 11.6459L4.03631 2.57812Z" fill="currentColor"/>
</g>
<defs>
<clipPath id="clip0_309_3887">
<rect width="33" height="33" fill="white"/>
</clipPath>
</defs>
</svg>
