<svg width="37" height="17" viewBox="0 0 37 17" fill="none" xmlns="http://www.w3.org/2000/svg">
<path fill-rule="evenodd" clip-rule="evenodd" d="M6.8424 2.51642C6.41179 3.06108 5.7228 3.49067 5.03381 3.4293C4.94768 2.69286 5.285 1.91039 5.67973 1.4271C6.11035 0.867092 6.86393 0.468185 7.47398 0.4375C7.54575 1.20463 7.26584 1.95641 6.8424 2.51642ZM7.46673 3.57501C6.85975 3.53767 6.3059 3.77013 5.85854 3.95789C5.57065 4.07872 5.32687 4.18104 5.1414 4.18104C4.93326 4.18104 4.67941 4.07325 4.39439 3.95222C4.02093 3.79364 3.59395 3.61234 3.1462 3.62104C2.11989 3.63638 1.16536 4.25775 0.641438 5.24735C-0.435107 7.22654 0.361537 10.157 1.4022 11.7679C1.91176 12.5657 2.5218 13.4403 3.32562 13.4096C3.67926 13.3953 3.93364 13.2799 4.1969 13.1605C4.49999 13.0231 4.81484 12.8803 5.30647 12.8803C5.78105 12.8803 6.08213 13.0193 6.37116 13.1529C6.64597 13.2798 6.90988 13.4017 7.30166 13.3942C8.13419 13.3789 8.65811 12.5964 9.16768 11.7986C9.71758 10.9423 9.95923 10.1067 9.9959 9.97985L10.0002 9.96518C9.99932 9.96424 9.99253 9.96092 9.98054 9.95505C9.79672 9.8651 8.39168 9.17758 8.37821 7.33394C8.36468 5.78647 9.49264 5.00243 9.6702 4.879C9.68101 4.87149 9.6883 4.86643 9.69159 4.86379C8.9739 3.72844 7.85429 3.6057 7.46673 3.57501ZM13.2299 13.3099V1.35035H17.4284C19.5959 1.35035 21.1102 2.94598 21.1102 5.27805C21.1102 7.61011 19.5672 9.22108 17.371 9.22108H14.9667V13.3099H13.2299ZM14.9666 2.91538H16.9689C18.4761 2.91538 19.3373 3.77456 19.3373 5.2858C19.3373 6.79704 18.4761 7.66389 16.9618 7.66389H14.9666V2.91538ZM26.8447 11.8753C26.3854 12.8112 25.3734 13.4019 24.2825 13.4019C22.6677 13.4019 21.5409 12.3739 21.5409 10.8243C21.5409 9.29009 22.6318 8.4079 24.6485 8.27748L26.816 8.1394V7.47967C26.816 6.50542 26.2203 5.9761 25.1581 5.9761C24.2825 5.9761 23.6438 6.45939 23.5146 7.19584H21.95C22.0002 5.64624 23.3639 4.51856 25.2083 4.51856C27.1964 4.51856 28.4882 5.6309 28.4882 7.35693V13.3098H26.8806V11.8753H26.8447ZM24.7489 11.9828C23.8231 11.9828 23.2346 11.5072 23.2346 10.7784C23.2346 10.0266 23.8016 9.58936 24.8853 9.52032L26.8159 9.38991V10.065C26.8159 11.185 25.9259 11.9828 24.7489 11.9828ZM33.8206 13.7778C33.1245 15.8721 32.3278 16.5625 30.6341 16.5625C30.5049 16.5625 30.0742 16.5472 29.9738 16.5165V15.0819C30.0814 15.0973 30.347 15.1126 30.4833 15.1126C31.2513 15.1126 31.6819 14.7674 31.9474 13.8699L32.1053 13.3406L29.1628 4.63367H30.9785L33.024 11.6989H33.0599L35.1053 4.63367H36.8708L33.8206 13.7778Z" fill="white"/>
</svg>
