<svg width="27" height="27" viewBox="0 0 27 27" fill="none" xmlns="http://www.w3.org/2000/svg">
<path d="M21.7153 15.5456C21.3033 15.5456 20.9523 15.2305 20.9153 14.8124C20.8759 14.3702 21.2032 13.9798 21.6454 13.9408H21.6462C21.7 13.5002 22.098 13.1895 22.5422 13.2409C22.9832 13.2952 23.2964 13.6964 23.2421 14.137C23.1501 14.8851 22.5378 15.4761 21.7869 15.5424C21.7628 15.5448 21.7386 15.5456 21.7153 15.5456Z" fill="white"/>
<path d="M8.65471 16.6887C8.24225 16.6887 7.89129 16.3731 7.85471 15.9546C7.81572 15.512 8.14335 15.1224 8.58556 15.0834L21.6439 13.9409C22.0886 13.8999 22.4761 14.2296 22.5147 14.6718C22.5537 15.1144 22.226 15.5039 21.7838 15.5429L8.72546 16.6854C8.70214 16.6875 8.67802 16.6887 8.65471 16.6887Z" fill="white"/>
<path d="M22.444 14.8429C22.411 14.8429 22.378 14.8409 22.3447 14.8369C21.9037 14.7826 21.5905 14.3814 21.6448 13.9408L22.6205 6.02006C22.6751 5.57946 23.0791 5.26629 23.5165 5.32057C23.9575 5.37484 24.2707 5.77604 24.2164 6.21664L23.2407 14.1374C23.1909 14.5446 22.844 14.8429 22.444 14.8429Z" fill="white"/>
<path d="M6.51408 8.40106C6.10162 8.40106 5.75067 8.08548 5.71409 7.66699C5.67509 7.22438 6.00273 6.83484 6.44494 6.79585L23.3485 5.31686C23.7923 5.27626 24.1807 5.6055 24.2193 6.04771C24.2583 6.49032 23.9306 6.87986 23.4884 6.91886L6.58483 8.39784C6.56112 8.39985 6.5374 8.40106 6.51408 8.40106Z" fill="white"/>
<path d="M6.30466 6.82975C5.90828 6.82975 5.56296 6.53628 5.50909 6.13227V6.13146C5.06528 6.13146 4.70508 5.77167 4.70508 5.32745C4.70508 4.88323 5.06528 4.52344 5.50909 4.52344C6.3115 4.52344 6.99652 5.12323 7.10305 5.9188C7.16174 6.359 6.8526 6.76342 6.4124 6.82251C6.37582 6.82734 6.34044 6.82975 6.30466 6.82975Z" fill="white"/>
<path d="M5.50889 6.13244H4.12237C3.67856 6.13244 3.31836 5.77224 3.31836 5.32843C3.31836 4.88461 3.67856 4.52441 4.12237 4.52441H5.50889C5.95271 4.52441 6.31291 4.88461 6.31291 5.32843C6.31291 5.77224 5.95311 6.13244 5.50889 6.13244Z" fill="white"/>
<path d="M7.42828 15.2542C7.0319 15.2542 6.68618 14.9608 6.63271 14.5564L5.5091 6.1323C5.45041 5.69211 5.75955 5.28769 6.19975 5.229C6.63713 5.1695 7.04477 5.47945 7.10306 5.91964L8.22626 14.3441C8.28496 14.7843 7.97581 15.1887 7.53562 15.2474C7.49944 15.2522 7.46406 15.2542 7.42828 15.2542Z" fill="white"/>
<path d="M11.0445 23.0168C9.5193 23.0168 8.23047 21.7279 8.23047 20.2027C8.23047 18.6775 9.5193 17.3887 11.0445 17.3887C12.5697 17.3887 13.8586 18.6775 13.8586 20.2027C13.8586 21.7279 12.5697 23.0168 11.0445 23.0168ZM11.0445 18.9967C10.4021 18.9967 9.8385 19.5603 9.8385 20.2027C9.8385 20.8451 10.4021 21.4087 11.0445 21.4087C11.6869 21.4087 12.2505 20.8451 12.2505 20.2027C12.2505 19.5603 11.6865 18.9967 11.0445 18.9967Z" fill="white"/>
<path d="M18.6812 23.0168C17.156 23.0168 15.8672 21.7279 15.8672 20.2027C15.8672 18.6775 17.156 17.3887 18.6812 17.3887C20.2064 17.3887 21.4953 18.6775 21.4953 20.2027C21.4953 21.7279 20.2064 23.0168 18.6812 23.0168ZM18.6812 18.9967C18.0388 18.9967 17.4752 19.5603 17.4752 20.2027C17.4752 20.8451 18.0388 21.4087 18.6812 21.4087C19.3236 21.4087 19.8873 20.8451 19.8873 20.2027C19.8873 19.5603 19.3232 18.9967 18.6812 18.9967Z" fill="white"/>
<path d="M9.01926 16.6504C7.82087 16.6504 6.79335 15.7668 6.63214 14.5568C6.57345 14.1166 6.88299 13.7122 7.32319 13.6539C7.76017 13.594 8.16781 13.9047 8.2261 14.3449C8.28318 14.7723 8.67072 15.0734 9.09282 15.0396C9.54508 15.001 9.92538 15.3286 9.96397 15.7704C10.003 16.2126 9.67533 16.6026 9.23353 16.6416C9.16157 16.6472 9.08961 16.6504 9.01926 16.6504Z" fill="white"/>
</svg>
