<svg width="32" height="32" viewBox="0 0 32 32" fill="none" xmlns="http://www.w3.org/2000/svg">
<path d="M25.8808 18.2074C25.3683 18.2074 24.9318 17.8154 24.8858 17.2954C24.8368 16.7454 25.2438 16.2599 25.7938 16.2114H25.7948C25.8618 15.6634 26.3568 15.2769 26.9093 15.3409C27.4578 15.4084 27.8473 15.9074 27.7798 16.4554C27.6653 17.3859 26.9038 18.1209 25.9698 18.2034C25.9398 18.2064 25.9098 18.2074 25.8808 18.2074Z" fill="black"/>
<path d="M9.63857 19.6288C9.12557 19.6288 8.68907 19.2363 8.64357 18.7158C8.59507 18.1653 9.00257 17.6808 9.55257 17.6323L25.7941 16.2113C26.3471 16.1603 26.8291 16.5703 26.8771 17.1203C26.9256 17.6708 26.5181 18.1553 25.9681 18.2038L9.72657 19.6248C9.69756 19.6273 9.66757 19.6288 9.63857 19.6288Z" fill="black"/>
<path d="M26.7877 17.3335C26.7467 17.3335 26.7057 17.331 26.6642 17.326C26.1157 17.2585 25.7262 16.7595 25.7937 16.2115L27.0072 6.36002C27.0752 5.81202 27.5777 5.42252 28.1217 5.49002C28.6702 5.55752 29.0597 6.05652 28.9922 6.60452L27.7787 16.456C27.7167 16.9625 27.2852 17.3335 26.7877 17.3335Z" fill="black"/>
<path d="M6.97548 9.32166C6.46248 9.32166 6.02598 8.92916 5.98048 8.40866C5.93198 7.85816 6.33948 7.37366 6.88948 7.32516L27.9135 5.48566C28.4655 5.43516 28.9485 5.84466 28.9965 6.39466C29.045 6.94516 28.6375 7.42966 28.0875 7.47816L7.06348 9.31766C7.03398 9.32016 7.00448 9.32166 6.97548 9.32166Z" fill="black"/>
<path d="M6.71411 7.3685C6.22111 7.3685 5.79161 7.0035 5.72461 6.501V6.5C5.17261 6.5 4.72461 6.0525 4.72461 5.5C4.72461 4.9475 5.17261 4.5 5.72461 4.5C6.72261 4.5 7.57461 5.246 7.70711 6.2355C7.78011 6.783 7.39561 7.286 6.84811 7.3595C6.80261 7.3655 6.75861 7.3685 6.71411 7.3685Z" fill="black"/>
<path d="M5.7245 6.5H4C3.448 6.5 3 6.052 3 5.5C3 4.948 3.448 4.5 4 4.5H5.7245C6.2765 4.5 6.7245 4.948 6.7245 5.5C6.7245 6.052 6.277 6.5 5.7245 6.5Z" fill="black"/>
<path d="M8.11171 17.8463C7.61871 17.8463 7.18871 17.4813 7.12221 16.9783L5.72471 6.50076C5.65171 5.95326 6.03621 5.45026 6.58371 5.37726C7.12771 5.30326 7.63471 5.68876 7.70721 6.23626L9.10421 16.7143C9.17721 17.2618 8.79271 17.7648 8.24521 17.8378C8.20021 17.8438 8.15621 17.8463 8.11171 17.8463Z" fill="black"/>
<path d="M12.6084 27.5C10.7114 27.5 9.1084 25.897 9.1084 24C9.1084 22.103 10.7114 20.5 12.6084 20.5C14.5054 20.5 16.1084 22.103 16.1084 24C16.1084 25.897 14.5054 27.5 12.6084 27.5ZM12.6084 22.5C11.8094 22.5 11.1084 23.201 11.1084 24C11.1084 24.799 11.8094 25.5 12.6084 25.5C13.4074 25.5 14.1084 24.799 14.1084 24C14.1084 23.201 13.4069 22.5 12.6084 22.5Z" fill="black"/>
<path d="M22.1084 27.5C20.2114 27.5 18.6084 25.897 18.6084 24C18.6084 22.103 20.2114 20.5 22.1084 20.5C24.0054 20.5 25.6084 22.103 25.6084 24C25.6084 25.897 24.0054 27.5 22.1084 27.5ZM22.1084 22.5C21.3094 22.5 20.6084 23.201 20.6084 24C20.6084 24.799 21.3094 25.5 22.1084 25.5C22.9074 25.5 23.6084 24.799 23.6084 24C23.6084 23.201 22.9069 22.5 22.1084 22.5Z" fill="black"/>
<path d="M10.0902 19.5809C8.59969 19.5809 7.32169 18.4819 7.12119 16.9769C7.04819 16.4294 7.43319 15.9264 7.98069 15.8539C8.52419 15.7794 9.03119 16.1659 9.10369 16.7134C9.17469 17.2449 9.65669 17.6194 10.1817 17.5774C10.7442 17.5294 11.2172 17.9369 11.2652 18.4864C11.3137 19.0364 10.9062 19.5214 10.3567 19.5699C10.2672 19.5769 10.1777 19.5809 10.0902 19.5809Z" fill="black"/>
</svg>
