<svg width="41" height="41" viewBox="0 0 41 41" fill="none" xmlns="http://www.w3.org/2000/svg">
<path d="M34.166 2.13574H6.83268C6.21562 2.13529 5.60452 2.2565 5.03434 2.49244C4.46416 2.72837 3.94608 3.0744 3.50975 3.51073C3.07342 3.94706 2.72739 4.46513 2.49146 5.03531C2.25553 5.60549 2.13432 6.21659 2.13477 6.83366V18.792C2.13432 19.4091 2.25553 20.0202 2.49146 20.5903C2.72739 21.1605 3.07342 21.6786 3.50975 22.1149C3.94608 22.5513 4.46416 22.8973 5.03434 23.1332C5.60452 23.3692 6.21562 23.4904 6.83268 23.4899H19.2181V20.9274H6.83268C6.26634 20.9274 5.72318 20.7024 5.32272 20.302C4.92225 19.9015 4.69727 19.3583 4.69727 18.792V6.83366C4.69727 6.26731 4.92225 5.72416 5.32272 5.32369C5.72318 4.92322 6.26634 4.69824 6.83268 4.69824H34.166C34.7324 4.69824 35.2755 4.92322 35.676 5.32369C36.0765 5.72416 36.3014 6.26731 36.3014 6.83366V18.792C36.3014 19.3583 36.0765 19.9015 35.676 20.302C35.2755 20.7024 34.7324 20.9274 34.166 20.9274H21.7806V23.4899H34.166C34.7831 23.4904 35.3942 23.3692 35.9644 23.1332C36.5345 22.8973 37.0526 22.5513 37.4889 22.1149C37.9253 21.6786 38.2713 21.1605 38.5072 20.5903C38.7432 20.0202 38.8644 19.4091 38.8639 18.792V6.83366C38.8644 6.21659 38.7432 5.60549 38.5072 5.03531C38.2713 4.46513 37.9253 3.94706 37.4889 3.51073C37.0526 3.0744 36.5345 2.72837 35.9644 2.49244C35.3942 2.2565 34.7831 2.13529 34.166 2.13574Z" fill="black"/>
<path d="M31.6029 10.6777H9.39453C9.05541 10.68 8.73082 10.8157 8.49103 11.0555C8.25123 11.2953 8.11552 11.6199 8.11328 11.959V34.1673C8.11283 34.7844 8.23404 35.3955 8.46997 35.9657C8.70591 36.5358 9.05194 37.0539 9.48827 37.4902C9.9246 37.9266 10.4427 38.2726 11.0129 38.5085C11.583 38.7445 12.1941 38.8657 12.8112 38.8652H28.1862C28.8033 38.8657 29.4144 38.7445 29.9845 38.5085C30.5547 38.2726 31.0728 37.9266 31.5091 37.4902C31.9455 37.0539 32.2915 36.5358 32.5274 35.9657C32.7634 35.3955 32.8846 34.7844 32.8841 34.1673V11.959C32.8819 11.6199 32.7462 11.2953 32.5064 11.0555C32.2666 10.8157 31.942 10.68 31.6029 10.6777ZM21.7799 27.6586L24.7183 24.7202C24.9612 24.4939 25.2824 24.3707 25.6143 24.3766C25.9463 24.3824 26.263 24.5169 26.4977 24.7516C26.7325 24.9864 26.8669 25.3031 26.8728 25.635C26.8786 25.9669 26.7554 26.2882 26.5291 26.5311L21.4041 31.6561C21.2857 31.772 21.1467 31.8647 20.9941 31.9294C20.8377 31.997 20.6691 32.0319 20.4987 32.0319C20.3283 32.0319 20.1597 31.997 20.0033 31.9294C19.8507 31.8647 19.7117 31.772 19.5933 31.6561L14.4683 26.5311C14.242 26.2882 14.1188 25.9669 14.1246 25.635C14.1305 25.3031 14.2649 24.9864 14.4997 24.7516C14.7344 24.5169 15.0511 24.3824 15.3831 24.3766C15.715 24.3707 16.0362 24.4939 16.2791 24.7202L19.2174 27.6586V18.7923C19.2174 18.4525 19.3524 18.1266 19.5927 17.8863C19.833 17.6461 20.1589 17.5111 20.4987 17.5111C20.8385 17.5111 21.1644 17.6461 21.4047 17.8863C21.645 18.1266 21.7799 18.4525 21.7799 18.7923V27.6586Z" fill="black"/>
<path d="M33.3125 13.2402H7.6875C7.34769 13.2402 7.0218 13.1052 6.78152 12.865C6.54124 12.6247 6.40625 12.2988 6.40625 11.959C6.40625 11.6192 6.54124 11.2933 6.78152 11.053C7.0218 10.8127 7.34769 10.6777 7.6875 10.6777H33.3125C33.6523 10.6777 33.9782 10.8127 34.2185 11.053C34.4588 11.2933 34.5938 11.6192 34.5938 11.959C34.5938 12.2988 34.4588 12.6247 34.2185 12.865C33.9782 13.1052 33.6523 13.2402 33.3125 13.2402Z" fill="black"/>
</svg>
