<svg width="22" height="23" viewBox="0 0 22 23" fill="none" xmlns="http://www.w3.org/2000/svg">
<g clip-path="url(#clip0_309_5293)">
<path d="M8.7464 15.0124L11.7847 5.89735C11.8973 5.55966 11.7148 5.19464 11.3771 5.08207C11.0394 4.96953 10.6744 5.15202 10.5618 5.48971L7.52347 14.6048C7.41094 14.9425 7.59342 15.3075 7.93112 15.4201C7.99871 15.4426 8.06746 15.4533 8.135 15.4533C8.40485 15.4533 8.65634 15.2825 8.7464 15.0124Z" fill="black"/>
<path d="M13.2998 12.1836C14.366 12.1836 15.2334 11.3162 15.2334 10.25C15.2334 9.18382 14.366 8.31641 13.2998 8.31641C12.2336 8.31641 11.3662 9.18382 11.3662 10.25C11.3662 11.3162 12.2336 12.1836 13.2998 12.1836ZM13.2998 9.60547C13.6552 9.60547 13.9443 9.89461 13.9443 10.25C13.9443 10.6054 13.6552 10.8945 13.2998 10.8945C12.9444 10.8945 12.6553 10.6054 12.6553 10.25C12.6553 9.89461 12.9444 9.60547 13.2998 9.60547Z" fill="black"/>
<path d="M6.00781 8.31641C4.94163 8.31641 4.07422 9.18382 4.07422 10.25C4.07422 11.3162 4.94163 12.1836 6.00781 12.1836C7.074 12.1836 7.94141 11.3162 7.94141 10.25C7.94141 9.18382 7.07404 8.31641 6.00781 8.31641ZM6.00781 10.8945C5.65242 10.8945 5.36328 10.6054 5.36328 10.25C5.36328 9.89461 5.65242 9.60547 6.00781 9.60547C6.36321 9.60547 6.65234 9.89461 6.65234 10.25C6.65234 10.6054 6.36325 10.8945 6.00781 10.8945Z" fill="black"/>
<path d="M21.8711 8.17968L19.6235 5.18291L19.7112 4.56918C19.7399 4.36835 19.6724 4.16571 19.5289 4.02228L18.1616 2.65501L19.5289 1.28775C19.7806 1.03608 19.7806 0.627962 19.5289 0.376251C19.2772 0.124583 18.8691 0.124583 18.6174 0.376251L17.2501 1.74352L15.8829 0.376251C15.7394 0.232778 15.5368 0.165489 15.336 0.193935L8.95541 1.10543C8.81735 1.12515 8.68943 1.18913 8.59082 1.28775L0.691099 9.18746C-0.230366 10.1089 -0.230366 11.6082 0.691099 12.5297L7.37545 19.2141C7.51217 19.3508 7.66188 19.4667 7.8203 19.5629V19.8242C7.8203 21.1273 8.88047 22.1875 10.1836 22.1875H19.6367C20.9398 22.1875 22 21.1273 22 19.8242V8.56639C22 8.42696 21.9547 8.29122 21.8711 8.17968ZM1.60259 11.6182C1.18374 11.1993 1.18374 10.5178 1.60259 10.099L9.35038 2.35118L15.1992 1.51565L16.3386 2.65506L15.4271 3.56655L14.9713 3.11078C14.7197 2.85911 14.3115 2.85911 14.0598 3.11078C13.8081 3.36245 13.8081 3.77057 14.0598 4.02228L15.8829 5.84531C16.0087 5.97117 16.1737 6.03412 16.3386 6.03412C16.5035 6.03412 16.6685 5.97117 16.7943 5.84531C17.046 5.59365 17.046 5.18553 16.7943 4.93382L16.3386 4.47805L17.25 3.56655L18.3895 4.70595L17.5539 10.5548L9.80614 18.3026C9.60325 18.5055 9.33349 18.6172 9.04654 18.6172C8.7596 18.6172 8.48984 18.5054 8.28694 18.3026L1.60259 11.6182ZM20.7109 19.8242C20.7109 20.4165 20.229 20.8984 19.6367 20.8984H10.1836C9.61794 20.8984 9.15336 20.4589 9.11259 19.9035C9.69554 19.8874 10.2737 19.658 10.7176 19.2141L18.6173 11.3143C18.7159 11.2157 18.7799 11.0878 18.7996 10.9497L19.3657 6.98759L20.7109 8.78124V19.8242Z" fill="black"/>
</g>
<defs>
<clipPath id="clip0_309_5293">
<rect width="22" height="22" fill="white" transform="translate(0 0.1875)"/>
</clipPath>
</defs>
</svg>
