<svg width="32" height="32" viewBox="0 0 32 32" fill="none" xmlns="http://www.w3.org/2000/svg">
<path d="M30.1404 21.6155L24.2214 18.6613C22.7337 17.9174 20.9273 18.4063 20.024 19.809L19.0039 21.371C17.3886 20.7759 13.34 18.8101 10.6727 13.2737L12.6918 11.4991C13.8288 10.4896 14.1263 8.78936 13.3824 7.46103L10.2051 1.75469C9.75883 0.968328 9.00436 0.394472 8.13297 0.181887C7.25101 -0.0305603 6.31587 0.118137 5.56141 0.617618L1.53406 3.253C0.503197 3.93309 -0.0705849 5.15518 0.0888751 6.37714C0.715782 11.4247 4.43499 28.2039 25.571 31.8593C25.7516 31.8912 25.9323 31.9125 26.1129 31.9125C27.218 31.9125 28.2489 31.3386 28.8652 30.3717L31.4368 26.2804C31.9255 25.4941 32.0637 24.5484 31.8193 23.6557C31.5749 22.7737 30.9586 22.0298 30.1404 21.6155Z" fill="white"/>
</svg>
