<svg width="33" height="33" viewBox="0 0 33 33" fill="none" xmlns="http://www.w3.org/2000/svg">
<path d="M4.18301 16.5129C7.10273 13.1484 11.1375 9.28125 16.5 9.28125C18.6656 9.28125 20.6508 9.89355 22.7455 11.202C24.5115 12.3105 26.3227 13.8703 28.8105 16.4355L28.875 16.5L28.4432 16.9447C24.8918 20.5799 21.8238 23.7188 16.5 23.7188C14.1475 23.7188 11.8658 22.9518 9.52617 21.3727C7.53457 20.0256 5.83945 18.3176 4.47949 16.9383L4.125 16.5838L4.18301 16.5129ZM16.5 21.6562C19.3424 21.6562 21.6562 19.3424 21.6562 16.5C21.6562 13.6576 19.3424 11.3438 16.5 11.3438C13.6576 11.3438 11.3438 13.6576 11.3438 16.5C11.3438 19.3424 13.6576 21.6562 16.5 21.6562Z" fill="black"/>
<path d="M16.8609 14.618C16.8609 14.1732 16.732 13.7543 16.5064 13.4062C18.2145 13.4062 19.5938 14.7984 19.5938 16.5129C19.5938 18.2273 18.208 19.6131 16.5064 19.6131C14.8049 19.6131 13.4127 18.2273 13.4127 16.5129C13.7607 16.7385 14.1797 16.8674 14.6244 16.8674C15.8555 16.8609 16.8609 15.8555 16.8609 14.618Z" fill="black"/>
</svg>
