<svg width="25" height="26" viewBox="0 0 25 26" fill="none" xmlns="http://www.w3.org/2000/svg">
<g clip-path="url(#clip0_309_5291)">
<path fill-rule="evenodd" clip-rule="evenodd" d="M9.90444 16.4026H17.5285C18.3918 13.8611 21.9938 13.8855 22.8487 16.4026H23.4857V12.7392C23.4857 12.2828 23.1117 11.9087 22.6555 11.9087C20.783 11.9087 18.9106 11.9087 17.0381 11.9087C16.6334 11.9087 16.3053 11.5807 16.3053 11.1761V6.77987H3.7519V7.65897H5.09906C6.06361 7.65897 6.06361 9.12438 5.09906 9.12438H3.7519V10.541H7.26886C8.2336 10.541 8.2336 12.0064 7.26886 12.0064H3.7519V16.4024H4.58446C5.44753 13.8609 9.04975 13.8857 9.90444 16.4026ZM2.28648 9.12438H1.40739C0.442648 9.12438 0.442648 7.65897 1.40739 7.65897H2.28648V6.04707C2.28648 5.64252 2.61455 5.31445 3.01929 5.31445C4.14062 5.31445 16.4642 5.31922 16.4642 5.31445C18.47 5.31445 20.2171 6.30742 21.2452 8.03262L22.6818 10.4435C23.9355 10.4576 24.9511 11.4832 24.9511 12.739V17.1353C24.9511 17.5398 24.6231 17.8679 24.2185 17.8679H22.9412C22.6785 19.161 21.5358 20.1147 20.1887 20.1147C18.8415 20.1147 17.6988 19.161 17.4362 17.8679H9.99694C9.7343 19.161 8.59161 20.1147 7.24445 20.1147C5.89729 20.1147 4.75459 19.161 4.49195 17.8679H3.01929C2.61455 17.8679 2.28648 17.5398 2.28648 17.1353V14.937H0.674582C-0.289965 14.937 -0.289965 13.4718 0.674582 13.4718H2.28648V12.0064H0.674582C-0.289965 12.0064 -0.289965 10.541 0.674582 10.541H2.28648V9.12438ZM21.1385 16.3563C21.6631 16.8808 21.6631 17.7315 21.1385 18.256C20.2947 19.0998 18.8453 18.4996 18.8453 17.3062C18.8453 16.1127 20.2947 15.5125 21.1385 16.3563ZM20.9812 10.4433H17.7707V6.97842C18.7055 7.27807 19.47 7.90711 19.9915 8.7824L20.9812 10.4433ZM8.19431 16.3563C8.71883 16.8808 8.71883 17.7315 8.19431 18.256C7.3505 19.0998 5.9011 18.4996 5.9011 17.3062C5.90129 16.1127 7.3505 15.5125 8.19431 16.3563Z" fill="black"/>
</g>
<defs>
<clipPath id="clip0_309_5291">
<rect width="25" height="25" fill="white" transform="translate(0 0.1875)"/>
</clipPath>
</defs>
</svg>
