<svg width="38" height="16" viewBox="0 0 38 16" fill="none" xmlns="http://www.w3.org/2000/svg">
<path fill-rule="evenodd" clip-rule="evenodd" d="M17.5258 12.5154V7.81997H19.8957C20.8669 7.81997 21.6865 7.48722 22.3548 6.83096L22.5151 6.66458C23.7357 5.30585 23.6556 3.18919 22.3548 1.93214C21.7044 1.26664 20.8134 0.906159 19.8957 0.924645H16.0913V12.5154H17.5258ZM17.526 6.39643V2.34797H19.9319C20.4488 2.34797 20.9389 2.55132 21.3042 2.92104C22.0795 3.69746 22.0973 4.99149 21.3488 5.79563C20.9834 6.19309 20.4666 6.41492 19.9319 6.39643H17.526Z" fill="white"/>
<path fill-rule="evenodd" clip-rule="evenodd" d="M29.2062 5.20411C28.5915 4.6218 27.754 4.32602 26.6937 4.32602C25.3306 4.32602 24.306 4.84363 23.6289 5.86961L24.894 6.69224C25.3573 5.98977 25.9899 5.63853 26.7918 5.63853C27.2996 5.63853 27.7896 5.83264 28.1727 6.18387C28.5469 6.51662 28.7608 6.99726 28.7608 7.50563V7.84762C28.2084 7.53336 27.5134 7.36699 26.6581 7.36699C25.6602 7.36699 24.8584 7.60731 24.2614 8.09719C23.6645 8.58707 23.3616 9.23408 23.3616 10.0567C23.3438 10.8054 23.6556 11.5171 24.208 11.9978C24.7693 12.5154 25.482 12.7742 26.3195 12.7742C27.3085 12.7742 28.0925 12.3213 28.6895 11.4154H28.7519V12.5154H30.1239V7.62579C30.1239 6.59981 29.821 5.78642 29.2062 5.20411ZM25.313 11.055C25.019 10.8332 24.8407 10.4727 24.8407 10.0845C24.8407 9.65006 25.0368 9.28958 25.4199 9.00304C25.812 8.71651 26.3021 8.56862 26.8813 8.56862C27.6833 8.55938 28.3071 8.74424 28.7527 9.11396C28.7527 9.74249 28.5121 10.2878 28.0398 10.75C27.612 11.1936 27.0328 11.4432 26.4269 11.4432C26.0259 11.4525 25.6338 11.3138 25.313 11.055Z" fill="white"/>
<path d="M33.2067 16L38 4.58481H36.4408L34.2224 10.2785H34.1956L31.9237 4.58481H30.3645L33.5096 12.007L31.7277 16H33.2067Z" fill="white"/>
<path d="M12.5736 6.80327C12.5736 6.35036 12.5379 5.89745 12.4667 5.45378H6.41706V8.01411H9.88288C9.74033 8.83674 9.27703 9.57619 8.5999 10.0383V11.7021H10.6669C11.8786 10.5467 12.5736 8.83674 12.5736 6.80327Z" fill="white"/>
<path d="M6.41731 13.3104C8.14576 13.3104 9.60668 12.7188 10.6669 11.7021L8.5999 10.0383C8.02078 10.445 7.28154 10.6762 6.41731 10.6762C4.74231 10.6762 3.32569 9.50231 2.81784 7.93098H0.688458V9.65019C1.77543 11.8963 3.99391 13.3104 6.41731 13.3104Z" fill="white"/>
<path d="M2.81784 7.93098C2.55051 7.10835 2.55077 6.21174 2.8181 5.37986V3.66989H0.688373C-0.229458 5.54624 -0.229458 7.76457 0.688373 9.64091L2.81784 7.93098Z" fill="white"/>
<path d="M6.41731 2.63467C7.33499 2.61619 8.21704 2.97667 8.87635 3.63293L10.7117 1.72885C9.54456 0.601201 8.01212 -0.0180839 6.41731 0.000402267C3.99391 0.000402267 1.77534 1.42383 0.688373 3.66989L2.81784 5.38911C3.32569 3.80854 4.74231 2.63467 6.41731 2.63467Z" fill="white"/>
</svg>
