<svg width="26" height="26" viewBox="0 0 26 26" fill="none" xmlns="http://www.w3.org/2000/svg">
<path d="M24.0093 5.28856C22.6037 3.41819 20.9551 2.45862 19.1091 2.4375H19.0474C16.3743 2.4375 14.0716 4.44356 13 5.5575C11.9275 4.44356 9.62565 2.4375 6.95171 2.4375H6.89077C5.04396 2.45862 3.39702 3.41819 1.96783 5.32106C1.08929 6.62179 0.694134 8.18918 0.851023 9.75095C1.00791 11.3127 1.70693 12.7702 2.82665 13.8702L12.4312 23.3285C12.5831 23.4774 12.7873 23.5608 13 23.5608C13.2126 23.5608 13.4168 23.4774 13.5687 23.3285L23.1725 13.8702C24.2952 12.7644 24.994 11.2995 25.1469 9.73112C25.2999 8.16273 24.8972 6.59043 24.0093 5.28856ZM22.0333 12.7124L13 21.6125L3.96658 12.7124C3.12055 11.8846 2.59004 10.7874 2.46663 9.61019C2.34321 8.43299 2.63463 7.24964 3.29059 6.26437C4.37527 4.82056 5.59077 4.07956 6.90621 4.0625H6.95333C9.78084 4.0625 12.3378 7.25075 12.363 7.28325C12.4421 7.37488 12.54 7.4484 12.65 7.49879C12.7601 7.54918 12.8797 7.57526 13.0008 7.57526C13.1218 7.57526 13.2415 7.54918 13.3515 7.49879C13.4616 7.4484 13.5595 7.37488 13.6386 7.28325C13.6646 7.25075 16.2386 3.991 19.0953 4.0625C19.8222 4.11724 20.526 4.34211 21.15 4.71894C21.774 5.09578 22.3006 5.61403 22.6874 6.23187C23.353 7.2182 23.652 8.40654 23.5325 9.59043C23.4131 10.7743 22.8826 11.8789 22.0333 12.7124Z" fill="black"/>
</svg>
