<svg width="24" height="24" viewBox="0 0 24 24" fill="none" xmlns="http://www.w3.org/2000/svg">
<g clip-path="url(#clip0_205_1789)">
<path d="M21.9249 7.22167H16.7794V2.07625C16.7794 1.22439 16.0865 0.53125 15.2343 0.53125H8.76695C7.91481 0.53125 7.22167 1.22439 7.22167 2.07625V7.22172H2.07648C1.22434 7.22172 0.53125 7.91463 0.53125 8.76677V15.2341C0.53125 16.0862 1.22439 16.7791 2.07648 16.7791H7.22172V21.9245C7.22172 22.7767 7.91486 23.4696 8.767 23.4696H15.2344C16.0865 23.4696 16.7794 22.7767 16.7794 21.9245V16.7791H21.9249C22.7766 16.7791 23.47 16.0862 23.47 15.2341V8.76672C23.4699 7.91458 22.7765 7.22167 21.9249 7.22167ZM8.17745 2.07625C8.17745 1.75127 8.44173 1.48698 8.76695 1.48698H15.2343C15.5593 1.48698 15.8236 1.75127 15.8236 2.07625V10.9332C15.8236 11.2582 15.5593 11.5225 15.2343 11.5225H8.76695C8.44173 11.5225 8.17745 11.2582 8.17745 10.9332V2.07625ZM2.07648 15.8237C1.7515 15.8237 1.48698 15.559 1.48698 15.234V8.76672C1.48698 8.44173 1.7515 8.17745 2.07648 8.17745H7.22172V10.9332C7.22172 11.3469 7.38536 11.7228 7.65105 12.0004C7.38536 12.2779 7.22172 12.6538 7.22172 13.0675V15.8237H2.07648V15.8237ZM15.8237 21.9245C15.8237 22.2495 15.5593 22.5138 15.2344 22.5138H8.76695C8.44173 22.5138 8.17745 22.2495 8.17745 21.9245V13.0675C8.17745 12.7425 8.44173 12.4783 8.76695 12.4783H15.2343C15.5593 12.4783 15.8236 12.7426 15.8236 13.0675V21.9245H15.8237ZM22.5141 15.234C22.5141 15.559 22.2498 15.8237 21.9249 15.8237H16.7794V13.0675C16.7794 12.6538 16.6155 12.2779 16.3498 12.0003C16.6155 11.7227 16.7794 11.3469 16.7794 10.9332V8.17741H21.9249C22.2498 8.17741 22.5141 8.44169 22.5141 8.76667V15.234Z" fill="black"/>
<path d="M19.6469 10.0889C18.5931 10.0889 17.7354 10.9461 17.7354 12.0002C17.7354 13.0543 18.5931 13.912 19.6469 13.912C20.7008 13.912 21.5585 13.0543 21.5585 12.0002C21.5585 10.9461 20.7008 10.0889 19.6469 10.0889ZM19.6469 12.9562C19.1198 12.9562 18.6911 12.5271 18.6911 12.0002C18.6911 11.4733 19.1198 11.0446 19.6469 11.0446C20.1741 11.0446 20.6027 11.4733 20.6027 12.0002C20.6027 12.5271 20.1741 12.9562 19.6469 12.9562Z" fill="black"/>
<path d="M13.4347 15.8232H10.5673C10.2127 15.8232 9.98105 16.1968 10.1398 16.5147L11.5735 19.3821C11.6545 19.5437 11.8198 19.6459 12.0009 19.6459C12.1819 19.6459 12.3473 19.5437 12.4285 19.3821L13.862 16.5147C14.0207 16.1973 13.7896 15.8232 13.4347 15.8232ZM12.0009 18.0995L11.3404 16.7786H12.6615L12.0009 18.0995Z" fill="black"/>
<path d="M14.8676 19.1689C14.6038 19.1689 14.39 19.3828 14.39 19.6466V21.0805H13.4342C13.1699 21.0805 12.9561 21.2944 12.9561 21.5581C12.9561 21.8224 13.1699 22.0362 13.4342 22.0362H14.8676C15.1314 22.0362 15.3457 21.8224 15.3457 21.5581V19.6466C15.3457 19.3828 15.1314 19.1689 14.8676 19.1689Z" fill="black"/>
<path d="M11.0447 13.4337C11.0447 13.1699 10.8306 12.9561 10.5668 12.9561H9.13316C8.86912 12.9561 8.65527 13.1699 8.65527 13.4337V15.3452C8.65527 15.609 8.86912 15.8234 9.13316 15.8234C9.39698 15.8234 9.61105 15.609 9.61105 15.3452V13.9118H10.5668C10.8306 13.9118 11.0447 13.6975 11.0447 13.4337Z" fill="black"/>
<path d="M12.9561 10.567C12.9561 10.831 13.1699 11.0451 13.4342 11.0451H14.8676C15.1314 11.0451 15.3457 10.831 15.3457 10.567V8.65539C15.3457 8.39158 15.1314 8.17773 14.8676 8.17773C14.6038 8.17773 14.39 8.39158 14.39 8.65539V10.0893H13.4342C13.1699 10.0893 12.9561 10.3031 12.9561 10.567Z" fill="black"/>
<path d="M9.13316 4.83219C9.39698 4.83219 9.61105 4.61834 9.61105 4.35453V2.92062H10.5668C10.8306 2.92062 11.0447 2.70678 11.0447 2.44297C11.0447 2.17892 10.8306 1.96484 10.5668 1.96484H9.13316C8.86912 1.96484 8.65527 2.17892 8.65527 2.44297V4.35453C8.65523 4.61834 8.86907 4.83219 9.13316 4.83219Z" fill="black"/>
<path d="M6.26551 11.5223H4.35395V10.5665C4.35395 10.3027 4.1401 10.0889 3.87605 10.0889C3.61224 10.0889 3.39816 10.3027 3.39816 10.5665V11.5223H2.92027C2.65646 11.5223 2.44238 11.7361 2.44238 12.0002C2.44238 12.2642 2.65646 12.4781 2.92027 12.4781H3.39816V13.4339C3.39816 13.6977 3.61224 13.912 3.87605 13.912C4.1401 13.912 4.35395 13.6977 4.35395 13.4339V12.4781H6.26551C6.52955 12.4781 6.7434 12.2642 6.7434 12.0002C6.7434 11.7361 6.52955 11.5223 6.26551 11.5223Z" fill="black"/>
<path d="M9.61133 6.26581C9.61133 7.58323 10.6831 8.65503 12.0008 8.65503C13.1213 8.65503 14.0789 7.89303 14.3292 6.80136C14.4081 6.45771 14.099 6.14998 13.7567 6.22892C12.7235 6.46587 11.8011 5.53971 12.0377 4.50973C12.1166 4.16609 11.8075 3.85835 11.465 3.93729C10.3736 4.18756 9.61133 5.14521 9.61133 6.26581ZM11.0693 5.1732C11.2194 6.21818 12.0482 7.04698 13.0933 7.19731C12.8285 7.50875 12.4349 7.69925 12.0008 7.69925C11.2103 7.69925 10.5671 7.05631 10.5671 6.26581C10.5671 5.83137 10.7578 5.43795 11.0693 5.1732Z" fill="black"/>
<path d="M19.1689 19.1689H20.1247V20.1247H19.1689V19.1689Z" fill="black"/>
<path d="M19.1689 21.0801H20.1247V22.0359H19.1689V21.0801Z" fill="black"/>
<path d="M20.125 20.124H21.0808V21.0799H20.125V20.124Z" fill="black"/>
<path d="M18.2129 20.124H19.1687V21.0799H18.2129V20.124Z" fill="black"/>
<path d="M3.39844 2.44238H4.35422V3.39816H3.39844V2.44238Z" fill="black"/>
<path d="M3.39844 4.35449H4.35422V5.31027H3.39844V4.35449Z" fill="black"/>
<path d="M4.35449 3.39844H5.31027V4.35422H4.35449V3.39844Z" fill="black"/>
<path d="M2.44238 3.39844H3.39816V4.35422H2.44238V3.39844Z" fill="black"/>
<path d="M20.125 2.44238H21.0808V3.39816H20.125V2.44238Z" fill="black"/>
<path d="M20.125 4.35449H21.0808V5.31027H20.125V4.35449Z" fill="black"/>
<path d="M21.0811 3.39844H22.0364V4.35422H21.0811V3.39844Z" fill="black"/>
<path d="M19.1689 3.39844H20.1247V4.35422H19.1689V3.39844Z" fill="black"/>
<path d="M3.39844 19.1689H4.35422V20.1247H3.39844V19.1689Z" fill="black"/>
<path d="M3.39844 21.0801H4.35422V22.0359H3.39844V21.0801Z" fill="black"/>
<path d="M4.35449 20.124H5.31027V21.0799H4.35449V20.124Z" fill="black"/>
<path d="M2.44238 20.124H3.39816V21.0799H2.44238V20.124Z" fill="black"/>
</g>
<defs>
<clipPath id="clip0_205_1789">
<rect width="24" height="24" fill="white"/>
</clipPath>
</defs>
</svg>
