<svg width="42" height="42" viewBox="0 0 42 42" fill="none" xmlns="http://www.w3.org/2000/svg">
<g clip-path="url(#clip0_172_7767)">
<path fill-rule="evenodd" clip-rule="evenodd" d="M32.4465 2.29794V4.1635C31.8076 4.04258 31.1486 3.97852 30.4745 3.97852C29.8005 3.97852 29.1415 4.0425 28.5027 4.1635V2.29794H27.814C27.3062 2.29794 26.8907 1.88245 26.8907 1.3746V1.37452C26.8907 0.86666 27.3062 0.451172 27.814 0.451172H33.135C33.6429 0.451172 34.0584 0.86666 34.0584 1.37452V1.3746C34.0584 1.88245 33.6429 2.29794 33.135 2.29794H32.4465ZM27.6266 17.6103H36.0363C36.9008 17.6103 37.6382 18.0712 37.9507 18.8073L41.2049 26.4695C41.3011 26.6962 41.3438 26.9041 41.3438 27.1473V36.627C41.3438 37.3048 40.791 37.8575 40.1133 37.8575H39.161C39.161 35.0944 36.9202 32.8536 34.1571 32.8536C31.3939 32.8536 29.1532 35.0944 29.1532 37.8575H27.6266V17.6103ZM10.5552 34.1661C12.5939 34.1661 14.2466 35.8188 14.2466 37.8575C14.2466 39.8962 12.5939 41.5489 10.5552 41.5489C8.51648 41.5489 6.8638 39.8962 6.8638 37.8575C6.86388 35.8188 8.51648 34.1661 10.5552 34.1661ZM10.5552 36.0118C9.53515 36.0118 8.7095 36.8374 8.7095 37.8575C8.7095 38.8776 9.53507 39.7032 10.5552 39.7032C11.5753 39.7032 12.4009 38.8776 12.4009 37.8575C12.401 36.8374 11.5753 36.0118 10.5552 36.0118ZM34.1571 34.1661C32.1184 34.1661 30.4657 35.8188 30.4657 37.8575C30.4657 39.8962 32.1184 41.5489 34.1571 41.5489C36.1958 41.5489 37.8485 39.8962 37.8485 37.8575C37.8485 35.8188 36.1958 34.1661 34.1571 34.1661ZM34.1571 36.0118C33.137 36.0118 32.3114 36.8374 32.3114 37.8575C32.3114 38.8776 33.1369 39.7032 34.1571 39.7032C35.1771 39.7032 36.0028 38.8776 36.0028 37.8575C36.0028 36.8374 35.1771 36.0118 34.1571 36.0118ZM0.65625 36.217C0.65625 37.1205 1.39322 37.8576 2.29679 37.8576H5.55138C5.55138 35.0944 7.79215 32.8537 10.5553 32.8537C13.3184 32.8537 15.5592 35.0944 15.5592 37.8576H26.314V24.5658H0.65625V36.217ZM0.65625 20.9975V13.986C0.65625 13.0824 1.39322 12.3455 2.29679 12.3455H24.6734C25.577 12.3455 26.314 13.0825 26.314 13.986V20.9975H0.65625ZM38.2504 25.9642L35.9857 20.6318C35.8543 20.3223 35.5669 20.1322 35.2307 20.1322H30.3126C29.8608 20.1322 29.4923 20.5007 29.4923 20.9525V25.7143C29.4923 26.1662 29.8608 26.5346 30.3126 26.5346H37.8728C38.0147 26.5346 38.1366 26.4691 38.2148 26.3509C38.2931 26.2326 38.3057 26.0948 38.2504 25.9642ZM10.1463 2.60113C9.78387 2.60113 9.49003 2.30729 9.49003 1.94488C9.49003 1.58246 9.78387 1.28863 10.1463 1.28863H17.324C17.6864 1.28863 17.9803 1.58246 17.9803 1.94488C17.9803 2.30729 17.6864 2.60113 17.324 2.60113H10.1463ZM8.50557 9.32769C8.14316 9.32769 7.84932 9.03385 7.84932 8.67144C7.84932 8.30903 8.14316 8.01519 8.50557 8.01519H17.611C17.9735 8.01519 18.2673 8.30903 18.2673 8.67144C18.2673 9.03385 17.9735 9.32769 17.611 9.32769H8.50557ZM6.86495 5.96441C6.50253 5.96441 6.2087 5.67057 6.2087 5.30816C6.2087 4.94575 6.50253 4.65191 6.86495 4.65191H14.4529C14.8153 4.65191 15.1092 4.94575 15.1092 5.30816C15.1092 5.67057 14.8153 5.96441 14.4529 5.96441H6.86495ZM29.8183 11.3374C29.8183 10.975 30.1121 10.6811 30.4745 10.6811C30.8369 10.6811 31.1308 10.975 31.1308 11.3374V13.8632H33.73C34.0924 13.8632 34.3863 14.157 34.3863 14.5194C34.3863 14.8819 34.0924 15.1757 33.73 15.1757H30.4745C30.1121 15.1757 29.8183 14.8819 29.8183 14.5194V11.3374ZM30.4745 5.29102C26.6117 5.29102 23.3037 7.66484 21.9281 11.033H24.9144C26.0754 9.18537 28.1314 7.95703 30.4745 7.95703C34.0988 7.95703 37.037 10.8952 37.037 14.5195C37.037 15.1631 36.944 15.7849 36.7712 16.3726C37.7203 16.5688 38.5487 17.1439 39.0202 18.0078C39.46 16.9316 39.703 15.754 39.703 14.5195C39.703 9.42285 35.5712 5.29102 30.4745 5.29102Z" fill="black"/>
</g>
<defs>
<clipPath id="clip0_172_7767">
<rect width="42" height="42" fill="white"/>
</clipPath>
</defs>
</svg>
