<svg width="16" height="24" viewBox="0 0 16 24" fill="none" xmlns="http://www.w3.org/2000/svg">
<g clip-path="url(#clip0_204_1600)">
<path d="M14.8455 13.7054L7.56078 11.916C5.68355 11.4562 4.36742 9.62129 4.41778 7.53415C4.46813 5.44701 5.87093 3.68935 7.76777 3.33673C9.66461 2.9841 11.5268 4.1348 12.2148 6.08468C12.9028 8.03455 12.2248 10.2401 10.5958 11.3517C10.5647 11.3769 10.5496 11.4192 10.5571 11.4605C10.5645 11.5018 10.5932 11.5348 10.6307 11.5454L13.8714 12.3412C13.9485 12.3606 14.0289 12.3293 14.0771 12.2612C15.6469 10.0117 15.9473 7.00712 14.8585 4.44479C13.7697 1.88246 11.4688 0.17883 8.87258 0.0127934H8.56986C5.54423 -0.0385434 2.74696 1.75278 1.32636 4.65139C-0.0942383 7.55001 0.101156 11.0676 1.83233 13.7602L8.31371 23.8023C8.34221 23.8446 8.38763 23.8697 8.43596 23.8697C8.48429 23.8697 8.52972 23.8446 8.55822 23.8023L14.9387 13.9707C14.9726 13.9252 14.9816 13.8636 14.9624 13.809C14.9432 13.7544 14.8987 13.7149 14.8455 13.7054Z" fill="#FFC627"/>
</g>
<defs>
<clipPath id="clip0_204_1600">
<rect width="16" height="24" fill="white"/>
</clipPath>
</defs>
</svg>
