<svg width="19" height="19" viewBox="0 0 19 19" fill="none" xmlns="http://www.w3.org/2000/svg">
<g clip-path="url(#clip0_188_12816)">
<path d="M13.4166 18.5247H2.20475C1.25187 18.5247 0.476562 17.7495 0.476562 16.7965V5.58464C0.476562 4.63166 1.25187 3.85645 2.20475 3.85645H6.97172C7.39589 3.85645 7.7398 4.20036 7.7398 4.62453C7.7398 5.0487 7.39589 5.39262 6.97172 5.39262H2.20475C2.0989 5.39262 2.01273 5.47869 2.01273 5.58464V16.7965C2.01273 16.9024 2.0989 16.9885 2.20475 16.9885H13.4166C13.5225 16.9885 13.6086 16.9024 13.6086 16.7965V12.0295C13.6086 11.6054 13.9526 11.2615 14.3767 11.2615C14.8009 11.2615 15.1448 11.6054 15.1448 12.0295V16.7965C15.1448 17.7495 14.3695 18.5247 13.4166 18.5247Z" fill="black"/>
<path d="M18.2539 3.85995L16.8099 5.30586L13.6953 2.19129L15.1393 0.74536C15.5003 0.384359 16.086 0.384359 16.447 0.74536L18.2539 2.55229C18.6149 2.91329 18.6149 3.49895 18.2539 3.85995Z" fill="black"/>
<path d="M15.9966 6.12044L9.12415 12.991L5.08594 13.9146L6.00956 9.87637L12.882 3.00586L15.9966 6.12044Z" fill="black"/>
</g>
<defs>
<clipPath id="clip0_188_12816">
<rect width="19" height="19" fill="white"/>
</clipPath>
</defs>
</svg>
