<svg width="51" height="51" viewBox="0 0 51 51" fill="none" xmlns="http://www.w3.org/2000/svg">
<path fill-rule="evenodd" clip-rule="evenodd" d="M17.0669 37.4414C17.0669 37.4414 17.0669 38.1664 18.25 38.1664C19.4332 38.1664 20.4256 37.9757 21.0362 37.5177C21.647 37.0596 22.334 36.2199 23.3264 35.4565C24.3186 34.6933 24.4715 34.1588 25.0057 33.51C25.5401 32.8611 27.6773 32.5174 28.4407 33.3573C29.2041 34.197 29.9674 34.7694 30.6162 34.7694C31.2652 34.7694 32.9447 34.5402 32.2959 35.3036C31.6473 36.067 30.3494 35.9905 29.6625 36.9448C28.9756 37.8991 29.5862 38.357 29.9298 38.357C30.2733 38.357 31.4183 38.357 31.5709 38.8915C31.7236 39.4259 32.2961 39.6168 32.2961 40.38C32.2961 41.1432 32.3342 42.1358 33.4031 41.9065C34.4718 41.6777 34.8153 40.0363 35.6166 39.9219C36.4184 39.8073 37.1434 39.96 37.4489 39.4257C37.7544 38.8913 38.2886 38.9295 39.1284 38.9295C39.9679 38.9295 40.7694 38.4714 40.8078 37.8608C40.8461 37.2501 41.7237 35.1509 40.6169 35.9524C39.51 36.7537 39.3191 37.4792 38.5176 37.5555C37.7161 37.6317 36.6476 37.6699 36.3039 36.7537C35.9605 35.8378 35.0827 35.1127 35.9223 34.6165C36.762 34.1203 38.4413 32.9753 38.8613 32.6317C39.2812 32.288 41.7241 31.6389 42.6402 31.41C43.5562 31.181 44.8539 30.9901 45.312 30.6467C45.7699 30.3032 45.1976 29.3871 45.5029 28.7001C45.8082 28.0132 47.1824 27.0971 47.564 27.1352C47.9456 27.1734 49.6249 27.0971 49.6249 26.5246C49.6249 25.9519 50.0447 25.3033 49.3578 24.4635C48.6708 23.6238 47.7547 23.6238 48.4037 22.975C49.0526 22.3261 49.4725 21.6388 49.4725 20.8373C49.4725 20.0357 49.9688 19.4632 48.7282 19.4632C47.4877 19.4632 45.713 18.6617 45.713 18.6617C45.713 18.6617 43.3853 19.0241 42.698 18.0126C42.0109 17.0011 42.4499 16.2568 41.2095 16.5812C39.969 16.9057 39.74 17.4401 38.8431 17.2683C37.9462 17.0964 37.4118 17.4971 37.0301 16.8865C36.6483 16.2758 36.7246 15.3406 36.7057 14.9018C36.6866 14.463 35.5798 14.2912 34.263 13.9287C32.9461 13.5659 33.7667 12.3063 33.7667 12.3063C33.7667 12.3063 34.015 10.8749 33.3089 10.4933C32.6027 10.1117 31.7249 9.10024 31.5151 9.06209C31.3049 9.02395 29.721 9.42481 29.2821 9.80641C28.8433 10.188 28.4999 10.2835 28.2327 10.6461C27.9655 11.0086 25.4479 10.0489 25.0663 11.1939C24.6847 12.3387 24.837 13.6368 24.761 14.4761C24.65 15.7032 23.7681 16.3897 22.9791 14.7239C22.6359 13.999 22.2667 13.6996 22.0758 13.585C21.8849 13.4706 21.6559 13.2223 20.9689 13.0507C20.282 12.879 19.4925 12.0768 18.5383 12.0768C17.584 12.0768 15.7711 11.7524 14.7597 11.0845C13.7482 10.4165 10.5518 10.3303 9.94096 10.3113C9.33014 10.2922 8.75783 11.3611 8.0898 11.3037C7.42177 11.2463 6.90649 10.9219 6.86834 11.7617C6.8302 12.6014 7.45991 13.1741 7.45991 13.8419C7.45991 14.51 7.36455 15.3113 7.23106 15.5977C7.09738 15.884 3.56724 18.6702 3.52892 19.2808C3.49059 19.8914 4.33044 21.2275 3.41431 21.5326C2.49836 21.838 1.46761 22.6776 1.2769 23.2884C1.08619 23.8991 1.964 24.1661 2.19286 24.319C2.42207 24.4716 4.82647 25.464 6.62042 26.4946C8.41437 27.5251 8.2618 27.8304 9.10147 27.8304C9.94114 27.8304 8.64358 26.7238 10.6282 26.838C12.6129 26.9524 13.4907 25.8837 14.1397 25.5021C14.7884 25.1205 16.315 25.0441 17.1547 25.7693C17.9946 26.4946 18.5289 27.1817 19.4449 27.716C20.3608 28.2504 20.2845 29.2428 20.4754 29.6244C20.6663 30.006 22.2312 32.1049 22.0022 32.9446C21.773 33.7842 19.8265 31.6468 19.254 32.7155C18.6815 33.7842 19.7502 35.2729 18.4524 36.0361C17.1543 36.7996 17.0669 37.4414 17.0669 37.4414Z" fill="black"/>
</svg>
