<svg width="39" height="39" viewBox="0 0 39 39" fill="none" xmlns="http://www.w3.org/2000/svg">
<path d="M22.4197 6.24805L18.3164 8.12955L29.8585 14.7498L26.6862 7.83189C25.0741 8.34247 23.3076 7.68609 22.4197 6.24805Z" fill="black"/>
<path d="M22.4281 5.23793C22.6572 5.13319 22.9289 5.23347 23.0339 5.46288C23.6751 6.86046 25.3337 7.47519 26.7318 6.83546C26.9615 6.73132 27.2329 6.8307 27.3376 7.0604L31.1597 15.3953H33.5407L27.5578 2.34846C27.3712 1.94142 27.0374 1.63167 26.6176 1.47576C26.1977 1.31984 25.7422 1.3371 25.336 1.52366L15.0352 6.24725L17.3418 7.57029L22.4281 5.23793Z" fill="black"/>
<path d="M9.60566 11.4454L7.33984 15.3959H22.9616L13.9983 10.2549C12.9837 11.6063 11.1648 12.0994 9.60566 11.4454Z" fill="black"/>
<path d="M9.02608 10.618C9.15164 10.399 9.43104 10.3231 9.64974 10.449C10.9836 11.2125 12.6913 10.7507 13.4571 9.41707C13.5173 9.31174 13.6169 9.23497 13.7339 9.20314C13.8505 9.1719 13.9761 9.18767 14.0808 9.24807L24.7983 15.3954H29.1475L11.5219 5.28564C11.1336 5.06308 10.6819 5.00417 10.2496 5.1217C9.81756 5.23863 9.45694 5.51684 9.23437 5.90543L3.79102 15.3954H6.28591L9.02608 10.618Z" fill="black"/>
<path d="M35.9531 16.3096H3.04688C2.1227 16.3096 1.37109 17.0615 1.37109 17.9854V35.953C1.37109 36.8769 2.1227 37.6288 3.04688 37.6288H35.9531C36.8773 37.6288 37.6289 36.8769 37.6289 35.953V17.9854C37.6289 17.0615 36.8773 16.3096 35.9531 16.3096ZM35.1914 31.078C35.1914 31.3303 34.9867 31.535 34.7344 31.535C32.9702 31.535 31.5352 32.9701 31.5352 34.7342C31.5352 34.9866 31.3304 35.1913 31.0781 35.1913H7.92188C7.66956 35.1913 7.46484 34.9866 7.46484 34.7342C7.46484 32.9701 6.02978 31.535 4.26562 31.535C4.01331 31.535 3.80859 31.3303 3.80859 31.078V22.8604C3.80859 22.608 4.01331 22.4033 4.26562 22.4033C6.02978 22.4033 7.46484 20.9683 7.46484 19.2041C7.46484 18.9518 7.66956 18.7471 7.92188 18.7471H31.0781C31.3304 18.7471 31.5352 18.9518 31.5352 19.2041C31.5352 20.9683 32.9702 22.4033 34.7344 22.4033C34.9867 22.4033 35.1914 22.608 35.1914 22.8604V31.078Z" fill="black"/>
<path d="M30.6464 19.6611H8.35362C8.14236 21.5648 6.62636 23.0808 4.72266 23.2921V30.6463C6.62636 30.8575 8.14236 32.3735 8.35362 34.2772H30.6464C30.8576 32.3735 32.3736 30.8575 34.2773 30.6463V23.2921C32.3736 23.0808 30.8576 21.5648 30.6464 19.6611ZM19.5 32.3012C16.5599 32.3012 14.168 29.9092 14.168 26.9692C14.168 24.0291 16.5599 21.6371 19.5 21.6371C22.4401 21.6371 24.832 24.0291 24.832 26.9692C24.832 29.9092 22.4401 32.3012 19.5 32.3012Z" fill="black"/>
<path d="M19.5 31.3867C21.94 31.3867 23.918 29.4087 23.918 26.9688C23.918 24.5288 21.94 22.5508 19.5 22.5508C17.06 22.5508 15.082 24.5288 15.082 26.9688C15.082 29.4087 17.06 31.3867 19.5 31.3867Z" fill="black"/>
</svg>
