<svg width="139" height="63" viewBox="0 0 139 63" fill="none" xmlns="http://www.w3.org/2000/svg">
<path d="M44.251 9.89771C44.7401 9.89771 45.1437 9.49416 45.1437 9.00501C45.1437 8.51586 44.7401 8.1123 44.251 8.1123C43.7619 8.1123 43.3584 8.51586 43.3584 9.00501C43.3584 9.50639 43.7619 9.89771 44.251 9.89771ZM44.251 8.39357C44.5934 8.39357 44.8624 8.67483 44.8624 9.01724C44.8624 9.35964 44.5812 9.62868 44.251 9.62868C43.9086 9.62868 43.6274 9.34742 43.6274 9.01724C43.6274 8.68706 43.9086 8.39357 44.251 8.39357Z" fill="black"/>
<path d="M20.0401 53.1504C19.551 53.1504 19.1475 53.554 19.1475 54.0431C19.1475 54.5323 19.551 54.9358 20.0401 54.9358C20.5293 54.9358 20.9328 54.5323 20.9328 54.0431C20.9328 53.5418 20.5293 53.1504 20.0401 53.1504ZM20.0401 54.6546C19.6978 54.6546 19.4288 54.3733 19.4288 54.0431C19.4288 53.7007 19.71 53.4195 20.0401 53.4195C20.3825 53.4195 20.6515 53.7007 20.6515 54.0431C20.6638 54.3733 20.3825 54.6546 20.0401 54.6546Z" fill="black"/>
<path d="M55.6962 19.7047C55.5005 19.5701 55.2682 19.509 55.0359 19.5457C54.8036 19.5824 54.5957 19.7047 54.449 19.9003C54.1555 20.3039 54.2533 20.8542 54.6446 21.1477C54.8036 21.2577 54.9747 21.3189 55.1704 21.3189C55.2193 21.3189 55.2682 21.3189 55.3171 21.3066C55.5495 21.27 55.7573 21.1477 55.9041 20.952C56.0386 20.7563 56.0997 20.524 56.063 20.2916C56.0141 20.0471 55.8918 19.8392 55.6962 19.7047ZM55.6717 20.793C55.5739 20.9275 55.4272 21.0131 55.2682 21.0376C55.097 21.0621 54.9381 21.0254 54.8036 20.9275C54.5345 20.7319 54.4612 20.3406 54.6691 20.0593C54.7913 19.8881 54.9747 19.8025 55.1704 19.8025C55.2927 19.8025 55.4272 19.8392 55.5372 19.9248C55.6717 20.0226 55.7573 20.1694 55.7818 20.3283C55.8062 20.4873 55.7696 20.6585 55.6717 20.793Z" fill="black"/>
<path d="M9.12059 43.5144C9.40183 43.5144 9.67084 43.3921 9.84203 43.1475C9.97653 42.9519 10.0377 42.7195 10.001 42.4872C9.9643 42.2548 9.84203 42.0469 9.64638 41.9002C9.24287 41.6067 8.69262 41.7045 8.39915 42.0959C8.10568 42.4994 8.20351 43.0497 8.59479 43.3432C8.75375 43.4533 8.93717 43.5144 9.12059 43.5144ZM8.61925 42.2548C8.71707 42.1203 8.8638 42.0347 9.02277 42.0103C9.19395 41.9858 9.35292 42.0225 9.48742 42.1203C9.62193 42.2182 9.70752 42.3649 9.73198 42.5239C9.75643 42.6828 9.71975 42.8541 9.62193 42.9886C9.42628 43.2576 9.03499 43.331 8.75376 43.1231C8.48474 42.9274 8.42361 42.5361 8.61925 42.2548Z" fill="black"/>
<path d="M64.1088 28.4363C64.1088 28.4363 63.8153 28.583 63.6686 28.6442C63.4118 28.7664 63.1306 28.8643 62.8616 28.9499C60.5872 29.6958 58.0927 29.4146 56.0385 28.1795C55.8918 28.0939 55.4271 27.7759 55.1581 27.5802L54.9502 27.4335C52.737 25.9293 50.0224 25.5503 47.4913 26.3696C46.5375 26.6753 44.8256 27.4457 43.3094 28.3384C43.2116 27.996 43.1015 27.6658 42.9792 27.3479C43.0893 27.2501 43.236 27.1278 43.4072 26.9566C44.3365 26.0761 46.2685 24.2173 48.5551 24.5353C48.6529 24.5475 49.1298 24.5964 49.2521 24.5964C49.301 24.5964 49.3499 24.5964 49.411 24.5964C50.6583 24.5964 51.8566 24.0828 52.7125 23.1656C53.0305 22.8232 53.2995 22.4319 53.4951 22.0039C53.5318 21.9183 53.5685 21.8327 53.6052 21.7349C53.6541 21.6003 53.4829 21.4781 53.3851 21.5881C53.3851 21.5881 53.2506 21.7226 53.1894 21.7838C53.0671 21.8938 52.9449 22.0039 52.8104 22.1017C51.7221 22.9333 50.3281 23.2512 48.9831 22.9822C48.8852 22.9577 48.5429 22.8721 48.3472 22.8232L48.2494 22.7988C46.7332 22.4074 45.1558 22.7132 43.9208 23.667C43.4683 24.0094 42.7102 24.7309 42.0744 25.4769C41.9399 25.2568 41.7931 25.0366 41.6342 24.8165C41.7809 24.6086 41.9643 24.3029 42.1844 23.9116C43.2972 21.9794 45.6204 17.9439 49.57 17.308C49.729 17.2836 50.536 17.1246 50.7439 17.0634C52.896 16.5009 54.7057 15.0335 55.6961 13.0402C56.0507 12.3187 56.2953 11.5605 56.4175 10.7656C56.442 10.6066 56.4665 10.4354 56.4787 10.2764C56.4909 10.1297 56.2953 10.0685 56.2219 10.2031C56.2219 10.2031 56.0752 10.4966 55.9896 10.6311C55.8428 10.8879 55.6839 11.1325 55.5127 11.3648C54.1065 13.297 51.93 14.5321 49.5455 14.7522C49.3744 14.7644 48.763 14.7889 48.4328 14.7889H48.2372C45.5715 14.8745 43.1382 16.1585 41.573 18.323C40.9861 19.1423 40.0446 20.781 39.3354 22.3952C39.0664 22.1751 38.7729 21.9794 38.4794 21.7838C38.5161 21.637 38.5528 21.4414 38.6017 21.209C38.834 19.9494 39.3231 17.308 41.3407 16.2197C41.4263 16.1707 41.8421 15.9262 41.9399 15.865C43.0281 15.1313 43.7374 13.9695 43.8963 12.6733C43.9575 12.2086 43.933 11.7317 43.8474 11.267C43.8352 11.1691 43.8107 11.0835 43.7863 10.9857C43.7496 10.839 43.5417 10.8512 43.5173 10.9979C43.5173 10.9979 43.4928 11.1814 43.4683 11.2792C43.4317 11.4504 43.395 11.6094 43.3461 11.7684C42.9548 13.0768 42.0132 14.1652 40.766 14.7277C40.6682 14.7767 40.3136 14.9112 40.1424 14.9723L40.069 14.9968C38.6139 15.5593 37.5257 16.7455 37.0732 18.2496C36.9143 18.7877 36.7186 19.8149 36.6453 20.8177C36.4007 20.7199 36.1561 20.622 35.8994 20.5364C35.8994 20.2796 35.8627 19.925 35.8138 19.4725C35.5814 17.2469 35.0801 12.6244 37.9047 9.79951C38.027 9.67723 38.5895 9.07801 38.7118 8.91904C40.1302 7.19477 40.7293 4.94467 40.3625 2.7557C40.228 1.96083 39.9712 1.20264 39.6044 0.493369C39.531 0.346623 39.4454 0.199877 39.372 0.0653597C39.2987 -0.0569286 39.103 0.00421564 39.1153 0.150962C39.1153 0.150962 39.1642 0.468911 39.1764 0.640115C39.2009 0.933607 39.2253 1.2271 39.2253 1.50836C39.2253 3.90521 38.186 6.17978 36.3885 7.7573C36.254 7.86736 35.7771 8.23422 35.5203 8.44211L35.3491 8.57663C33.2459 10.2153 32.0354 12.6855 32.0354 15.3514C32.0354 16.3664 32.231 18.2374 32.6223 19.9617C32.4756 19.9617 32.3289 19.9494 32.1821 19.9494C31.9743 19.9494 31.7786 19.9494 31.5707 19.9617C31.5218 19.8272 31.4362 19.6437 31.3262 19.4236C30.7759 18.2619 29.6265 15.8406 30.6047 13.7861C30.6537 13.7005 30.8371 13.2603 30.886 13.138C31.3384 11.9151 31.2284 10.5455 30.5925 9.40819C30.3602 8.99241 30.079 8.62555 29.7366 8.29537C29.6632 8.23422 29.5898 8.16085 29.5165 8.09971C29.4064 8.00187 29.2352 8.13639 29.3086 8.27091C29.3086 8.27091 29.3942 8.44211 29.4309 8.52771C29.5042 8.67446 29.5654 8.83344 29.6143 8.99241C30.0667 10.2887 29.9444 11.7072 29.2719 12.9056C29.223 12.9912 29.0396 13.2847 28.9295 13.4437L28.8684 13.5415C28.0247 14.8623 27.829 16.452 28.3548 17.9317C28.5383 18.4698 28.9907 19.4114 29.5165 20.2674C29.2597 20.3285 29.0029 20.3897 28.7461 20.4753C28.5872 20.2674 28.3548 19.9984 28.0491 19.6682C26.5451 18.0051 23.4393 14.5565 24.0507 10.6066C24.0751 10.4354 24.1729 9.62831 24.1852 9.40819C24.3197 7.18254 23.476 5.00581 21.8864 3.45275C21.3116 2.89022 20.6636 2.42553 19.9421 2.05866C19.7954 1.98529 19.6487 1.91191 19.5019 1.85077C19.3674 1.78963 19.2452 1.96083 19.3552 2.07089C19.3552 2.07089 19.5875 2.30324 19.6976 2.42553C19.8932 2.64564 20.0766 2.86576 20.2478 3.09811C21.654 5.03027 22.1554 7.48826 21.6173 9.82397C21.5807 9.99518 21.4095 10.5699 21.3116 10.8879L21.2505 11.0958C20.5046 13.6638 20.9815 16.3664 22.5467 18.5187C23.1336 19.338 24.4053 20.7321 25.7259 21.9061C25.4324 22.1017 25.1512 22.3096 24.8822 22.5297C24.7599 22.4441 24.5765 22.3585 24.3686 22.2362C23.1458 21.5759 20.8837 20.3408 20.4679 18.0907C20.4557 17.9928 20.3457 17.5281 20.309 17.4059C19.9421 16.1463 19.0617 15.1068 17.8756 14.5565C17.4477 14.3609 16.9953 14.2264 16.5306 14.1652C16.4328 14.153 16.335 14.1408 16.2494 14.1408C16.1026 14.1285 16.0415 14.3364 16.176 14.3976C16.176 14.3976 16.3472 14.4832 16.4328 14.5198C16.5673 14.5932 16.714 14.6788 16.8607 14.7767C17.9857 15.5593 18.7194 16.7822 18.8783 18.1518C18.8906 18.2496 18.9028 18.6287 18.915 18.8122V18.91C19.0006 20.4753 19.7954 21.8694 21.0793 22.7621C21.544 23.08 22.4611 23.5814 23.3904 23.9727C23.2192 24.1684 23.048 24.3763 22.889 24.5842C22.6445 24.5108 22.2899 24.4374 21.8497 24.3396C19.6609 23.8749 15.1122 22.9211 13.2902 19.3625C13.2046 19.2035 12.8134 18.4942 12.7033 18.3108C11.505 16.4275 9.54854 15.168 7.34755 14.8378C6.55274 14.7155 5.74571 14.7277 4.95091 14.8623C4.79195 14.8867 4.63299 14.9234 4.47402 14.9601C4.32729 14.9968 4.33952 15.2047 4.48625 15.2291C4.48625 15.2291 4.80417 15.278 4.96314 15.3147C5.24437 15.3759 5.52561 15.4492 5.80685 15.5348C8.08121 16.2808 9.92761 17.9684 10.8691 20.1696C10.9425 20.3285 11.1382 20.9155 11.2482 21.2212L11.3093 21.4047C12.2142 23.9116 14.1951 25.8315 16.7262 26.6509C17.68 26.9566 19.5264 27.3479 21.275 27.5191C21.1527 27.8493 21.0426 28.1795 20.957 28.5219C20.8103 28.5341 20.6269 28.5585 20.3823 28.583C19.1107 28.7542 16.4572 29.0966 14.7943 27.5191C14.7209 27.4457 14.3663 27.1278 14.2685 27.0544C13.2413 26.2473 11.9085 25.9293 10.6246 26.1739C10.1599 26.2595 9.71973 26.4185 9.30399 26.6509C9.2184 26.6998 9.1328 26.7487 9.05943 26.7976C8.93716 26.8832 9.01052 27.0789 9.15726 27.0422C9.15726 27.0422 9.34067 27.0055 9.43849 26.9933C9.60968 26.9688 9.76864 26.9566 9.93983 26.9566C9.97652 26.9566 10.0132 26.9566 10.0499 26.9566C11.3827 26.9566 12.6422 27.5191 13.547 28.4974C13.6082 28.5708 13.816 28.8154 13.9383 28.9743L14.0361 29.0844C15.0021 30.2584 16.4083 30.9309 17.9246 30.9309C17.9612 30.9309 18.0102 30.9309 18.0468 30.9309C18.6093 30.9187 19.6364 30.7842 20.6024 30.5518C20.578 30.8087 20.5658 31.0777 20.5658 31.3467C20.3212 31.4323 20.0033 31.5668 19.5998 31.7503C17.5577 32.6674 13.3147 34.5629 9.74419 32.753C9.58523 32.6674 8.83933 32.325 8.65592 32.2517C6.5772 31.4446 4.25392 31.5668 2.28526 32.5941C1.57605 32.9609 0.927975 33.4501 0.365498 34.0126C0.255448 34.1349 0.145398 34.245 0.0353485 34.3672C-0.0624736 34.4773 0.0598039 34.6485 0.194309 34.5751C0.194309 34.5751 0.487776 34.4284 0.634509 34.3672C0.903519 34.245 1.17253 34.1471 1.44154 34.0615C3.7159 33.3156 6.19814 33.5968 8.26463 34.8319C8.42359 34.9298 8.96161 35.2966 9.2184 35.4678L9.3529 35.5657C10.7958 36.544 12.471 37.0454 14.1584 37.0454C15.051 37.0454 15.9437 36.9108 16.8241 36.6174C17.7778 36.3116 19.4897 35.5412 20.9937 34.6485C21.0915 34.9909 21.2016 35.3211 21.3239 35.6513C21.2138 35.7491 21.0793 35.8714 20.9081 36.0304C19.9788 36.9108 18.0346 38.7574 15.7602 38.4517C15.6624 38.4394 15.1855 38.3905 15.0633 38.3905C13.7549 38.3294 12.4954 38.8675 11.6028 39.8213C11.2849 40.1637 11.0159 40.555 10.8202 40.983C10.7835 41.0686 10.7469 41.1543 10.7102 41.2399C10.649 41.3744 10.8325 41.4967 10.9303 41.3866C10.9303 41.3866 11.0648 41.2521 11.1259 41.1909C11.2482 41.0809 11.3827 40.9708 11.505 40.873C12.5933 40.0414 13.9872 39.7235 15.3323 39.9925C15.4301 40.017 15.7602 40.1026 15.9437 40.1515L16.0659 40.1882C17.5822 40.5795 19.1596 40.2738 20.3946 39.3199C20.8348 38.9775 21.5929 38.2682 22.2287 37.5223C22.3632 37.7546 22.51 37.9748 22.6689 38.1826C22.5222 38.3905 22.351 38.6963 22.1309 39.0631C21.0182 40.9953 18.6949 45.0308 14.7453 45.6667C14.5742 45.6912 13.7793 45.8501 13.5715 45.899C11.4194 46.4616 9.60968 47.929 8.61924 49.9223C8.26463 50.6438 8.02007 51.402 7.8978 52.2091C7.87334 52.3681 7.84889 52.5271 7.83666 52.6983C7.82443 52.845 8.02007 52.9062 8.09344 52.7716C8.09344 52.7716 8.24017 52.4782 8.32577 52.3436C8.4725 52.0991 8.63146 51.8545 8.80265 51.6099C10.2088 49.6777 12.3854 48.4426 14.7698 48.2225C14.9532 48.2103 15.6135 48.1858 15.9437 48.1858H16.0904C18.756 48.1002 21.1894 46.8162 22.7545 44.6517C23.3415 43.8446 24.2708 42.2304 24.9677 40.6162C25.249 40.8363 25.5302 41.0442 25.8237 41.2276C25.787 41.3621 25.7503 41.5456 25.7136 41.7657C25.4813 43.0253 24.9922 45.6667 22.9746 46.7551C22.889 46.804 22.4733 47.0485 22.3755 47.1097C21.2872 47.8434 20.578 49.0052 20.419 50.3014C20.3579 50.7661 20.3823 51.243 20.4679 51.7077C20.4802 51.8056 20.5046 51.8912 20.5291 51.989C20.5658 52.1357 20.7736 52.1235 20.7981 51.9768C20.7981 51.9768 20.8225 51.7933 20.847 51.6955C20.8714 51.5365 20.9204 51.3776 20.9693 51.2064C21.3606 49.8979 22.3021 48.8095 23.5493 48.247C23.6349 48.2103 23.9528 48.088 24.1363 48.0146L24.2585 47.9657C25.7136 47.4032 26.8019 46.217 27.2543 44.7251C27.4133 44.187 27.6089 43.1842 27.6823 42.2182C27.9269 42.316 28.1714 42.4138 28.4282 42.4994C28.4404 42.7562 28.4649 43.0864 28.5138 43.5022C28.7461 45.7278 29.2475 50.3503 26.4229 53.1752C26.3006 53.2975 25.7381 53.8967 25.6158 54.0557C24.1974 55.7799 23.5982 58.03 23.9651 60.219C24.0996 61.0139 24.3564 61.7721 24.7232 62.4813C24.7966 62.6281 24.8822 62.7626 24.9555 62.9094C25.0289 63.0316 25.2245 62.9705 25.2123 62.8238C25.2123 62.8238 25.1634 62.5058 25.1512 62.3346C25.1267 62.0533 25.1023 61.7598 25.1023 61.4664C25.1023 59.0695 26.1416 56.7949 27.9391 55.2174C28.0736 55.1074 28.5505 54.7405 28.8073 54.5326L28.9785 54.3981C31.0816 52.7594 32.2922 50.2892 32.2922 47.6233C32.2922 46.6205 32.0965 44.774 31.7175 43.0742C31.8642 43.0742 32.0109 43.0864 32.1577 43.0864C32.3655 43.0864 32.5734 43.0864 32.7813 43.0742C32.8302 43.2087 32.9158 43.3677 33.0014 43.5511C33.5516 44.7128 34.701 47.1342 33.7228 49.1886C33.6739 49.2864 33.4905 49.7144 33.4416 49.8367C32.9892 51.0718 33.0992 52.4292 33.7351 53.5665C33.9674 53.9701 34.2486 54.3492 34.591 54.6793C34.6644 54.7405 34.7377 54.8139 34.8111 54.875C34.9211 54.9728 35.0923 54.8383 35.019 54.7038C35.019 54.7038 34.9334 54.5448 34.8967 54.447C34.8233 54.3003 34.7622 54.1413 34.7133 53.9823C34.2608 52.686 34.3831 51.2675 35.0556 50.0691C35.1046 49.9835 35.2757 49.7144 35.3858 49.5555L35.4592 49.4332C36.3029 48.1247 36.4863 46.5227 35.9727 45.043C35.7893 44.5172 35.3491 43.6 34.8478 42.7562C35.1046 42.6951 35.3613 42.6217 35.6181 42.5483C35.7771 42.744 35.9972 43.0008 36.2784 43.3065C37.7702 44.9696 40.8883 48.4182 40.2769 52.3681C40.2524 52.5393 40.1546 53.3586 40.1424 53.5665C40.0079 55.7922 40.8516 57.9689 42.4412 59.522C43.0159 60.0845 43.664 60.5492 44.3854 60.9161C44.5322 60.9894 44.6789 61.0628 44.8256 61.1239C44.9601 61.1851 45.0824 61.0139 44.9724 60.9038C44.9724 60.9038 44.74 60.6715 44.63 60.5492C44.4343 60.3413 44.2509 60.109 44.0797 59.8766C42.6735 57.9444 42.1722 55.4864 42.698 53.1507C42.7347 52.9795 42.9181 52.3803 43.0037 52.0624L43.0526 51.8789C43.7985 49.3109 43.3216 46.6083 41.7565 44.456C41.1695 43.6489 39.9223 42.2671 38.6139 41.1053C38.9074 40.9097 39.1886 40.7018 39.4576 40.4694C39.5799 40.5428 39.7389 40.6284 39.9345 40.7385C41.0595 41.3499 43.4194 42.6339 43.8352 44.884C43.8596 44.9819 43.9575 45.4466 43.9941 45.5689C44.361 46.8284 45.2414 47.8679 46.4275 48.4182C46.8554 48.6138 47.3079 48.7484 47.7725 48.8095C47.8703 48.8217 47.9682 48.834 48.0538 48.834C48.2005 48.8462 48.2616 48.6383 48.1271 48.5772C48.1271 48.5772 47.9559 48.4916 47.8826 48.4549C47.7358 48.3815 47.6013 48.2837 47.4546 48.1981C46.3296 47.4154 45.5837 46.1925 45.437 44.8229C45.4248 44.7251 45.4126 44.3949 45.4003 44.1992L45.3881 44.0647C45.3025 42.4994 44.5077 41.1053 43.2238 40.2126C42.7591 39.8947 41.8543 39.4055 40.9617 39.0264C41.1328 38.8185 41.304 38.6229 41.463 38.4028C41.7076 38.4761 42.0377 38.5495 42.4534 38.6351C44.6422 39.0998 49.1909 40.0537 51.0129 43.6122C51.0985 43.7712 51.4898 44.4805 51.5998 44.6517C52.7981 46.5227 54.7546 47.7945 56.9556 48.1247C57.3346 48.1858 57.7015 48.2103 58.0805 48.2103C58.4963 48.2103 58.9242 48.1736 59.34 48.1125C59.4989 48.088 59.6579 48.0513 59.8169 48.0146C59.9636 47.9779 59.9514 47.7701 59.8046 47.7456C59.8046 47.7456 59.4867 47.6967 59.3278 47.66C59.0465 47.5988 58.7653 47.5255 58.484 47.4276C56.2097 46.6817 54.3633 45.0063 53.4217 42.7929C53.3606 42.6339 53.165 42.1081 53.0549 41.7901L52.9693 41.5578C52.0645 39.0509 50.0836 37.131 47.5524 36.3116C46.5987 36.0059 44.7767 35.6146 43.0404 35.4434C43.1627 35.1132 43.2605 34.783 43.3583 34.4406C43.505 34.4284 43.6884 34.4039 43.9085 34.3795C45.1802 34.2083 47.8337 33.8659 49.4966 35.4434C49.57 35.5168 49.9246 35.8347 50.0224 35.9081C50.8295 36.5317 51.8077 36.8619 52.8104 36.8619C53.0916 36.8619 53.3851 36.8375 53.6663 36.7763C54.131 36.6907 54.5712 36.5317 54.9869 36.2994C55.0725 36.2505 55.1581 36.2016 55.2315 36.1527C55.3537 36.0793 55.2804 35.8714 55.1336 35.9081C55.1336 35.9081 54.9502 35.9448 54.8524 35.957C54.6812 35.9815 54.51 35.9937 54.3511 35.9937C52.9815 36.0304 51.6609 35.4678 50.7316 34.4528C50.6583 34.3795 50.4015 34.0615 50.2914 33.927L50.2425 33.8781C49.2521 32.6674 47.797 31.9949 46.2318 32.0315C45.6693 32.0438 44.6544 32.1783 43.6884 32.4106C43.7129 32.1416 43.7251 31.8848 43.7251 31.6158C43.9575 31.5302 44.2754 31.3956 44.6789 31.2122C46.7209 30.295 50.9762 28.4118 54.5222 30.2094C54.6812 30.2828 55.4149 30.6252 55.6105 30.7108C57.6892 31.5179 60.0125 31.3956 61.9812 30.3684C62.6904 30.0016 63.3385 29.5246 63.9009 28.9499C64.011 28.8276 64.1333 28.7175 64.2311 28.5952C64.3778 28.5341 64.2433 28.3751 64.1088 28.4363ZM47.5646 26.6509C50.0224 25.856 52.6514 26.2228 54.7913 27.6781L54.9991 27.8126C55.2926 28.0205 55.745 28.3262 55.8918 28.4118C57.9827 29.6591 60.5016 29.9649 62.8249 29.2434C62.507 29.3901 62.1768 29.5246 61.8344 29.6347C59.5845 30.3684 57.1634 30.0872 55.0113 28.8643C52.6881 27.5313 48.8363 26.6264 43.6029 29.6469C43.5417 29.3045 43.4806 28.9499 43.3828 28.6197C44.8868 27.7392 46.6109 26.9688 47.5646 26.6509ZM52.6147 22.8599C52.578 22.9088 52.5291 22.9577 52.4924 22.9944C51.6854 23.8504 50.5604 24.3396 49.3866 24.3396C49.3377 24.3396 49.2888 24.3396 49.2398 24.3396C49.1298 24.3396 48.6529 24.2907 48.5673 24.2785C46.1707 23.9605 44.1653 25.8682 43.1993 26.7731C43.0648 26.8954 42.9548 27.0055 42.857 27.0911C42.7714 26.871 42.6735 26.6631 42.5635 26.443C44.3487 24.3396 46.3296 23.4591 48.4817 23.8504C49.9491 24.1195 51.3919 23.7893 52.5291 22.9211C52.5536 22.9088 52.5903 22.8844 52.6147 22.8599ZM44.0675 23.9116C45.2414 23.0189 46.7332 22.7132 48.1638 23.0923L48.2616 23.1167C48.445 23.1656 48.7996 23.2635 48.9097 23.2879C50.0347 23.5203 51.1963 23.3491 52.199 22.8355C51.1474 23.5692 49.8635 23.8382 48.5306 23.5936C47.0022 23.3124 44.7156 23.557 42.429 26.1862C42.3556 26.0394 42.27 25.8927 42.1844 25.7581C42.8325 24.9877 43.6151 24.254 44.0675 23.9116ZM55.4271 12.9546C54.4733 14.8745 52.7248 16.293 50.646 16.8311C50.4626 16.88 49.6678 17.039 49.4966 17.0634C45.4248 17.7116 43.0526 21.8205 41.9154 23.8015C41.7198 24.1317 41.5608 24.413 41.4385 24.6086C41.1573 24.2295 40.8394 23.8627 40.5092 23.5203C42.9181 18.0173 46.5008 16.5009 49.1176 16.2197C51.6609 15.9384 53.8497 14.7033 55.2804 12.7222C55.5127 12.4043 55.7206 12.0618 55.904 11.7194C55.7817 12.1475 55.6227 12.5632 55.4271 12.9546ZM41.7687 18.5187C43.2849 16.4275 45.6327 15.1924 48.2127 15.1068H48.4084C48.763 15.0946 49.3499 15.0824 49.5333 15.0701C51.9544 14.85 54.1676 13.6149 55.6227 11.6705C55.4515 11.9885 55.2559 12.282 55.048 12.5755C53.6541 14.4832 51.5387 15.6938 49.0809 15.9628C46.4152 16.2563 42.7591 17.7849 40.3014 23.3246C40.0568 23.08 39.7878 22.8355 39.5188 22.6153C40.228 20.9889 41.1695 19.338 41.7687 18.5187ZM43.5906 12.5877C43.6029 12.551 43.6151 12.5143 43.6151 12.4899C43.6151 12.551 43.6029 12.6121 43.6029 12.6733C43.4561 13.8962 42.7836 14.9845 41.7565 15.6694C41.6586 15.7305 41.2551 15.9751 41.1818 16.0118C39.0541 17.1613 38.5528 19.8883 38.3082 21.1846C38.2716 21.3802 38.2471 21.5392 38.2104 21.6615C38.0148 21.5392 37.8069 21.4169 37.599 21.3068C37.8558 17.8705 39.5066 16.3664 40.8638 15.7183C42.2089 15.0701 43.1749 13.9573 43.5906 12.5877ZM37.3178 18.3597C37.7458 16.9412 38.7729 15.8283 40.1546 15.2903L40.228 15.2658C40.4114 15.1924 40.766 15.0579 40.8761 15.009C41.9154 14.5321 42.7591 13.725 43.2727 12.71C42.857 13.9206 41.9643 14.8867 40.7538 15.4737C39.3476 16.1463 37.6357 17.6871 37.3422 21.1723C37.1955 21.099 37.0488 21.0256 36.8898 20.9644C36.951 19.9617 37.1466 18.91 37.3178 18.3597ZM39.7267 1.53282C39.8734 1.9486 39.9834 2.37661 40.0568 2.81685C40.4114 4.93244 39.8367 7.10917 38.4672 8.77229C38.3449 8.91904 37.7947 9.51825 37.6724 9.64054C34.7622 12.5632 35.2635 17.2713 35.4958 19.5337C35.5325 19.925 35.5692 20.2429 35.5814 20.4753C35.129 20.3408 34.6644 20.2185 34.1997 20.1451C32.9036 14.2753 34.9211 10.9368 36.8654 9.17584C38.7607 7.45158 39.8 5.16478 39.8 2.71902C39.8122 2.31547 39.7878 1.92414 39.7267 1.53282ZM32.2799 15.3514C32.2799 12.7711 33.4538 10.3865 35.4836 8.79675L35.6548 8.67446C35.936 8.46657 36.4007 8.09971 36.5352 7.98965C38.3694 6.38767 39.4332 4.08865 39.4699 1.65511C39.5188 2.00974 39.5432 2.36438 39.5432 2.73125C39.5432 5.09141 38.5283 7.31706 36.7064 8.98018C34.7255 10.7778 32.659 14.1652 33.9307 20.0962C33.5883 20.0473 33.2337 20.0106 32.8913 19.9861C32.4878 18.2496 32.2799 16.3542 32.2799 15.3514ZM30.3235 9.53048C30.9227 10.6066 31.0205 11.8906 30.5925 13.0402C30.5558 13.1502 30.3724 13.5782 30.3235 13.6638C29.2841 15.8406 30.4702 18.3352 31.0449 19.5459C31.1305 19.7293 31.2039 19.8761 31.2528 19.9861C31.0205 19.9984 30.7882 20.0228 30.5558 20.0595C29.0885 17.6993 28.8684 15.5348 29.9078 13.6149C30.617 12.2942 30.7515 10.8267 30.2746 9.48156C30.2624 9.44488 30.2501 9.40819 30.2379 9.3715C30.2624 9.43265 30.299 9.48156 30.3235 9.53048ZM28.5872 17.8339C28.0981 16.4398 28.2692 14.9234 29.0763 13.6883L29.1374 13.5905C29.2475 13.4192 29.4309 13.1258 29.492 13.0402C30.0545 12.0374 30.2624 10.8879 30.079 9.76283C30.4458 10.9857 30.3113 12.3064 29.6754 13.4926C28.9418 14.8623 28.4527 17.1124 30.2746 20.1084C30.1156 20.1329 29.9444 20.1696 29.7855 20.194C29.2352 19.338 28.7828 18.3719 28.5872 17.8339ZM21.6785 3.64841C23.207 5.15256 24.014 7.24369 23.8917 9.39596C23.8795 9.60385 23.7817 10.3987 23.7572 10.5577C23.1214 14.6299 26.2883 18.1518 27.8168 19.8394C28.0858 20.1329 28.2937 20.3652 28.4404 20.5609C27.988 20.7199 27.5478 20.8911 27.1198 21.099C22.62 17.1124 22.3021 13.2236 22.8279 10.6555C23.3415 8.14862 22.8401 5.69062 21.4095 3.70955C21.1771 3.3916 20.9204 3.08588 20.6514 2.80462C21.0182 3.0492 21.3728 3.33046 21.6785 3.64841ZM22.7545 18.3597C21.2383 16.2686 20.7859 13.6516 21.4951 11.1691L21.5562 10.9735C21.654 10.6311 21.8252 10.0685 21.8619 9.89734C22.3999 7.52495 21.9108 5.03027 20.5046 3.0492C20.7492 3.306 20.9815 3.58727 21.1894 3.86853C22.5833 5.77623 23.0724 8.17308 22.5589 10.5944C22.0086 13.2236 22.3388 17.1735 26.8508 21.2212C26.5329 21.3802 26.2394 21.5514 25.9337 21.7471C24.6254 20.5853 23.3415 19.179 22.7545 18.3597ZM17.5822 14.7277C17.6433 14.7522 17.6922 14.7767 17.7534 14.8011C18.8661 15.3269 19.6976 16.293 20.04 17.4792C20.0644 17.5893 20.1745 18.0417 20.1867 18.1396C20.6269 20.512 23.048 21.8327 24.2219 22.4686C24.393 22.5664 24.5398 22.6398 24.6498 22.7132C24.4664 22.8599 24.2952 23.0189 24.124 23.1901C20.9326 21.8816 20.0155 19.8516 19.8076 18.3597C19.612 16.88 18.8539 15.6082 17.6678 14.8011C17.6433 14.7767 17.6189 14.7522 17.5822 14.7277ZM21.2261 22.542C20.0155 21.6982 19.2696 20.3775 19.184 18.8978V18.7999C19.1718 18.6043 19.1596 18.2374 19.1473 18.1274C19.0128 16.9901 18.4993 15.9384 17.6922 15.1435C18.7071 15.9139 19.3674 17.0634 19.5509 18.3964C19.7587 19.9372 20.7003 22.0406 23.9162 23.398C23.7939 23.5203 23.6838 23.6303 23.5738 23.7648C22.6322 23.3735 21.6907 22.8599 21.2261 22.542ZM7.29864 15.1191C9.42627 15.437 11.3093 16.6599 12.471 18.4698C12.581 18.6287 12.9723 19.338 13.0457 19.497C14.9165 23.1656 19.5631 24.1562 21.7885 24.6209C22.1676 24.7065 22.4855 24.7676 22.7178 24.8288C22.4366 25.2201 22.1798 25.6236 21.9597 26.0394C15.9803 25.4524 13.437 22.5053 12.3609 20.1084C11.3093 17.7849 9.45072 16.0851 7.12745 15.3269C6.74839 15.2047 6.36933 15.1068 5.97804 15.0335C6.41824 15.0212 6.85844 15.0457 7.29864 15.1191ZM16.8118 26.394C14.3541 25.5992 12.4465 23.7404 11.5661 21.3191L11.505 21.1356C11.3827 20.7932 11.1871 20.2429 11.1137 20.0717C10.1599 17.8339 8.28909 16.1096 5.99027 15.3269C6.34487 15.3881 6.68725 15.4859 7.02963 15.596C9.27953 16.3297 11.077 17.9684 12.0919 20.2307C13.1924 22.6765 15.7725 25.6848 21.8008 26.3084C21.6418 26.6264 21.4951 26.9443 21.3606 27.2623C19.6242 27.0911 17.7656 26.712 16.8118 26.394ZM10.4901 26.5041C10.5512 26.4919 10.6124 26.4796 10.6735 26.4674C11.8718 26.2351 13.1313 26.5408 14.0973 27.2867C14.1829 27.3601 14.5375 27.6658 14.6108 27.727C16.3594 29.3901 19.0984 29.0355 20.419 28.8643C20.6024 28.8398 20.7614 28.8154 20.8837 28.8031C20.8225 29.0355 20.7859 29.2678 20.7369 29.5002C18.0468 30.1605 15.9314 29.6958 14.4274 28.1183C13.3881 27.0422 12.0308 26.4674 10.6001 26.4919C10.5634 26.4919 10.5268 26.4919 10.4901 26.5041ZM18.0346 30.6741C16.555 30.7231 15.1733 30.0749 14.244 28.9254L14.1584 28.8154C14.0361 28.6564 13.8283 28.3996 13.7549 28.3262C12.9845 27.4824 11.9452 26.9321 10.8325 26.7609C12.1164 26.7854 13.3025 27.3234 14.2318 28.3017C15.0633 29.17 16.4205 30.0505 18.5604 30.0505C19.1962 30.0505 19.9055 29.9649 20.688 29.7814C20.6636 29.9404 20.6391 30.1116 20.6269 30.2706C19.6487 30.5274 18.5971 30.6619 18.0346 30.6741ZM1.28258 33.5724C1.63718 33.3033 2.00402 33.0588 2.39531 32.8631C4.30284 31.8726 6.54052 31.7503 8.54587 32.5329C8.72929 32.6063 9.46295 32.9487 9.60968 33.0221C13.2902 34.8931 17.6189 32.9609 19.6976 32.0315C20.04 31.8726 20.3334 31.7503 20.5413 31.6647C20.5413 32.1538 20.578 32.6308 20.6391 33.0954C15.4668 36.1282 11.6884 35.2355 9.40181 33.9392C7.18859 32.6674 4.6819 32.3862 2.35862 33.1444C2.00402 33.2544 1.63718 33.4012 1.28258 33.5724ZM16.7262 36.3972C14.2685 37.1921 11.6395 36.8252 9.49963 35.37L9.36513 35.2722C9.08389 35.0765 8.57032 34.7219 8.39913 34.6241C6.30819 33.3767 3.78927 33.0832 1.466 33.7925C1.78392 33.6335 2.12629 33.5112 2.46867 33.4012C4.71858 32.6674 7.13968 32.9487 9.29176 34.1716C10.4779 34.8442 12.043 35.4189 13.9994 35.4189C15.8825 35.4189 18.1324 34.8809 20.7003 33.3889C20.7614 33.7436 20.8225 34.086 20.9081 34.4162C19.3919 35.3089 17.68 36.0793 16.7262 36.3972ZM11.6762 40.1882C11.7129 40.1393 11.7618 40.0903 11.7985 40.0537C12.6422 39.1609 13.816 38.6596 15.051 38.7085C15.1611 38.7085 15.6257 38.7574 15.7236 38.7696C18.1324 39.0876 20.1256 37.1799 21.0915 36.2749C21.2261 36.1527 21.3361 36.0548 21.4217 35.9692C21.5073 36.1893 21.6051 36.4095 21.7152 36.6174C19.5019 39.2221 17.2887 39.4544 15.8092 39.1976C14.3418 38.9286 12.899 39.2588 11.7618 40.127C11.7373 40.1393 11.7006 40.1637 11.6762 40.1882ZM20.2234 39.1365C19.0495 40.0292 17.5577 40.3349 16.1271 39.9558L16.0048 39.9191C15.8092 39.8702 15.479 39.7724 15.3812 39.7602C14.2562 39.5278 13.0946 39.699 12.0919 40.2126C13.1435 39.4789 14.4396 39.2099 15.7602 39.4544C17.2887 39.7357 19.5631 39.4911 21.8497 36.8742C21.923 37.0209 22.0086 37.1676 22.082 37.3144C21.4462 38.0726 20.6758 38.7941 20.2234 39.1365ZM8.86379 50.0935C9.81756 48.1736 11.5661 46.7551 13.6448 46.217C13.8405 46.1681 14.6353 46.0091 14.7943 45.9846C18.8661 45.3365 21.2383 41.2276 22.3632 39.2588C22.5467 38.9408 22.7056 38.6718 22.8279 38.4761C23.1091 38.8552 23.427 39.2221 23.7572 39.5645C21.3483 45.043 17.7656 46.5472 15.1733 46.8284C12.6299 47.1097 10.4412 48.3448 9.01052 50.3259C8.7782 50.6438 8.57032 50.974 8.38691 51.3286C8.50918 50.9006 8.66815 50.4849 8.86379 50.0935ZM22.5344 44.5294C21.0182 46.6205 18.6705 47.8557 16.0904 47.9413H15.9437C15.6257 47.9535 14.9532 47.9657 14.7576 47.9779C12.3365 48.1981 10.1232 49.4332 8.66815 51.3776C8.83933 51.0596 9.03498 50.7661 9.24285 50.4726C10.6368 48.5649 12.7522 47.3543 15.2222 47.0852C17.8756 46.7917 21.5317 45.2754 23.9895 39.7602C24.2341 40.0047 24.5031 40.2493 24.7721 40.4694C24.0507 42.0959 23.1214 43.7223 22.5344 44.5294ZM20.7125 50.4604C20.7003 50.4971 20.688 50.5338 20.688 50.5705C20.688 50.5093 20.7003 50.4482 20.7003 50.387C20.847 49.1641 21.5195 48.0758 22.5467 47.391C22.6445 47.3298 23.0358 47.0852 23.1214 47.0485C25.249 45.899 25.7503 43.1842 25.9949 41.8758C26.0316 41.7046 26.056 41.5578 26.0805 41.4477C26.2883 41.57 26.484 41.6923 26.7041 41.8024C26.4962 44.5416 25.3957 46.4004 23.4515 47.342C22.082 47.9779 21.116 49.0908 20.7125 50.4604ZM26.9731 44.6884C26.5574 46.1069 25.518 47.2198 24.1363 47.7578L24.014 47.8067C23.8306 47.8801 23.5126 48.0024 23.4148 48.0391C22.3755 48.516 21.5317 49.3353 21.0182 50.3381C21.4339 49.1275 22.3266 48.1491 23.5371 47.5622C24.9311 46.8896 26.6307 45.361 26.9364 41.9124C27.0832 41.9858 27.2299 42.0592 27.3888 42.1203C27.3277 43.1231 27.1443 44.1503 26.9731 44.6884ZM24.5642 61.5153C24.4175 61.0995 24.2952 60.6715 24.2219 60.2312C23.8673 58.1156 24.442 55.9389 25.8115 54.2758C25.9337 54.129 26.484 53.5298 26.6063 53.4075C29.5165 50.4849 29.0151 45.7768 28.7828 43.5022C28.7461 43.1476 28.7094 42.8418 28.6972 42.6217C29.1496 42.7685 29.6143 42.8785 30.0912 42.9641C31.1061 47.66 30.2135 51.3286 27.4133 53.8722C25.518 55.5965 24.4786 57.8833 24.4786 60.3291C24.4786 60.7326 24.5031 61.1239 24.5642 61.5153ZM32.0109 47.6967C32.0109 50.277 30.8371 52.6616 28.8073 54.2513L28.6361 54.3736C28.3548 54.5815 27.8902 54.9484 27.7557 55.0584C25.9215 56.6604 24.8577 58.9594 24.821 61.393C24.7721 61.0383 24.7476 60.6837 24.7476 60.3291C24.7476 57.9689 25.7626 55.7433 27.5845 54.0801C29.5654 52.2825 31.6196 48.9196 30.3724 43.013C30.7148 43.062 31.0694 43.0986 31.424 43.1231C31.8031 44.8351 32.0109 46.6939 32.0109 47.6967ZM33.9674 53.5054C33.3804 52.4292 33.2704 51.1574 33.6984 49.9957C33.7351 49.8856 33.9185 49.4576 33.9674 49.372C35.0067 47.1953 33.8206 44.6884 33.2459 43.49C33.1726 43.3432 33.1114 43.2087 33.0625 43.0986C33.3071 43.0742 33.5394 43.0497 33.7717 43.0253C35.5448 45.9235 35.0923 48.1002 34.3831 49.4087C33.6739 50.7294 33.5394 52.1969 34.0163 53.5421C34.0285 53.5788 34.0407 53.6154 34.053 53.6521C34.0285 53.6154 33.9918 53.5665 33.9674 53.5054ZM35.7037 45.2142C36.1928 46.6083 36.0216 48.1247 35.2146 49.3598L35.1412 49.4821C35.0312 49.6533 34.8478 49.9223 34.7989 50.0202C34.2364 51.0229 34.0407 52.1724 34.2119 53.2853C33.8451 52.0624 33.9796 50.7539 34.6277 49.5677C35.3613 48.1981 35.8382 45.9724 34.0652 43.0008C34.2242 42.9763 34.3954 42.9397 34.5543 42.9152C35.0679 43.7468 35.5203 44.6762 35.7037 45.2142ZM42.6124 59.3997C41.0839 57.8955 40.2769 55.7922 40.3992 53.6521C40.4114 53.4565 40.5092 52.6494 40.5337 52.4904C41.1695 48.4182 38.0025 44.8963 36.4741 43.2087C36.2295 42.9397 36.0339 42.7195 35.8871 42.5361C36.3396 42.3771 36.792 42.2059 37.22 41.9858C41.6709 45.9602 41.9888 49.8245 41.463 52.3926C40.9494 54.8995 41.4508 57.3575 42.8814 59.3385C43.1137 59.6565 43.3705 59.9622 43.6395 60.2435C43.2727 59.9989 42.9303 59.7176 42.6124 59.3997ZM41.5364 44.6884C43.0526 46.7795 43.505 49.3965 42.7958 51.8789L42.7469 52.0624C42.6491 52.3803 42.4779 52.9795 42.429 53.163C41.891 55.5354 42.3801 58.03 43.774 60.0111C43.5295 59.7543 43.2972 59.473 43.0893 59.1918C41.6953 57.2841 41.2062 54.8872 41.7076 52.4659C42.2456 49.849 41.9399 45.9113 37.4523 41.8758C37.7702 41.7168 38.0637 41.5333 38.3571 41.3499C39.7022 42.4872 40.9494 43.8813 41.5364 44.6884ZM46.7087 48.3203C46.6476 48.2959 46.5987 48.2714 46.5375 48.247C45.4248 47.7211 44.5933 46.7551 44.2509 45.5689C44.2142 45.4588 44.1164 45.0063 44.1042 44.9085C43.664 42.5361 41.2429 41.2154 40.069 40.5795C39.9223 40.4939 39.7878 40.4327 39.69 40.3716C39.8734 40.2126 40.0446 40.0537 40.2158 39.8947C42.7591 40.9464 44.1898 42.5606 44.4833 44.7006C44.6789 46.1803 45.4492 47.4521 46.6231 48.2592C46.6476 48.2714 46.6842 48.2959 46.7087 48.3203ZM43.0648 40.5061C44.2754 41.3499 45.0213 42.6706 45.1069 44.1503L45.1191 44.2848C45.1313 44.4927 45.1436 44.8229 45.1558 44.9207C45.2903 46.058 45.8038 47.1097 46.5987 47.9046C45.5837 47.1342 44.9235 45.9846 44.74 44.6517C44.5322 43.1109 43.6029 41.0197 40.4114 39.6623C40.5337 39.54 40.6437 39.4178 40.7538 39.2955C41.6831 39.6868 42.6002 40.1882 43.0648 40.5061ZM56.9922 47.929C54.8646 47.6111 52.9815 46.3882 51.8199 44.5783C51.7099 44.4071 51.3186 43.6978 51.2452 43.5511C49.3744 39.8825 44.7278 38.8919 42.5024 38.4272C42.1355 38.3538 41.8421 38.2927 41.622 38.2316C41.9032 37.8402 42.1478 37.4367 42.3801 37.0087C48.335 37.5957 50.8661 40.5428 51.9422 42.9274C52.9938 45.2509 54.8524 46.9507 57.1757 47.7089C57.5547 47.8312 57.9338 47.929 58.3251 47.9902C57.8726 48.0146 57.4324 47.9902 56.9922 47.929ZM47.4791 36.654C49.9368 37.4489 51.8444 39.2955 52.7248 41.729L52.8104 41.9614C52.9326 42.3038 53.116 42.8174 53.1772 42.9763C54.131 45.2142 55.9896 46.9385 58.2884 47.7211C57.9338 47.66 57.5914 47.5622 57.249 47.4521C54.9991 46.7184 53.2016 45.0797 52.1867 42.8174C51.0862 40.3838 48.5184 37.3755 42.5146 36.7396C42.6735 36.4217 42.8203 36.1037 42.9426 35.7858C44.6911 35.957 46.5375 36.3483 47.4791 36.654ZM32.1454 42.8785C25.8971 42.8785 20.8103 37.7913 20.8103 31.5424C20.8103 25.2935 25.8971 20.2063 32.1454 20.2063C38.3938 20.2063 43.4806 25.2935 43.4806 31.5424C43.4806 37.8036 38.3938 42.8785 32.1454 42.8785ZM53.6908 36.5562C53.7274 36.5562 53.7641 36.5562 53.8008 36.5562C53.7397 36.5684 53.6785 36.5807 53.6296 36.5929C52.4191 36.8252 51.1718 36.5195 50.2058 35.7736C50.1202 35.7002 49.7656 35.3945 49.6923 35.3333C47.9437 33.6702 45.2047 34.0248 43.8841 34.196C43.7129 34.2205 43.5662 34.2327 43.4439 34.245C43.4928 34.0126 43.5417 33.7803 43.5906 33.5479C46.2685 32.8998 48.3839 33.3645 49.8757 34.9298C50.8784 35.9815 52.1867 36.5562 53.5685 36.5562C53.6052 36.5562 53.6418 36.5562 53.6908 36.5562ZM46.2563 32.3739C46.293 32.3739 46.3419 32.3739 46.3786 32.3739C47.8092 32.3739 49.142 33.0098 50.0591 34.1227L50.0958 34.1716C50.2181 34.3183 50.4626 34.6363 50.5482 34.7219C51.3308 35.5657 52.3579 36.116 53.4829 36.2872C52.2112 36.2749 51.0006 35.7246 50.0713 34.7463C48.9953 33.6213 47.0144 32.4718 43.6395 33.2544C43.664 33.0954 43.6884 32.9242 43.7007 32.7653C44.6544 32.5207 45.6938 32.3862 46.2563 32.3739ZM61.8956 30.185C59.988 31.1755 57.7504 31.2978 55.745 30.5152C55.5616 30.4418 54.8157 30.0994 54.6812 30.026C51.0006 28.155 46.672 30.0872 44.5933 31.0165C44.2509 31.1755 43.9697 31.2978 43.7496 31.3834C43.7374 30.8943 43.7007 30.4173 43.6395 29.9526C48.8119 26.9321 52.5903 27.8126 54.8646 29.1211C56.2708 29.9282 57.7871 30.3317 59.3033 30.3317C60.1837 30.3317 61.0641 30.1972 61.9078 29.9159C62.2869 29.7937 62.6537 29.6469 63.0083 29.4757C62.6537 29.7447 62.2869 29.9893 61.8956 30.185Z" fill="black"/>
<path d="M57.0164 35.2355C56.5518 35.3822 56.295 35.8958 56.4417 36.3605C56.564 36.7396 56.9186 36.972 57.2977 36.972C57.3833 36.972 57.4811 36.9598 57.5667 36.9353C58.0313 36.7763 58.2881 36.2749 58.1414 35.8102C57.9946 35.3333 57.4811 35.0765 57.0164 35.2355ZM57.4933 36.6663C57.1754 36.7763 56.8208 36.5929 56.7107 36.2749C56.6007 35.9448 56.7841 35.6024 57.102 35.4923C57.1632 35.4678 57.2243 35.4556 57.2977 35.4556C57.3955 35.4556 57.4933 35.4801 57.5789 35.529C57.7256 35.6024 57.8357 35.7369 57.8846 35.8836C57.9946 36.2138 57.8112 36.5562 57.4933 36.6663Z" fill="black"/>
<path d="M6.58898 27.764C6.71126 27.8251 6.85799 27.8618 6.9925 27.8618C7.09032 27.8618 7.17591 27.8496 7.27373 27.8129C7.50606 27.7395 7.68948 27.5805 7.7873 27.3726C7.89735 27.1648 7.90958 26.9202 7.83621 26.6878C7.76285 26.4555 7.60388 26.272 7.39601 26.1742C7.18814 26.0642 6.94359 26.0519 6.71126 26.1253C6.47893 26.1987 6.29551 26.3576 6.19769 26.5655C6.08764 26.7734 6.07541 27.018 6.14878 27.2504C6.22215 27.4705 6.38111 27.6539 6.58898 27.764ZM6.80908 26.3821C6.87022 26.3576 6.93136 26.3576 7.00472 26.3576C7.26151 26.3576 7.50606 26.5289 7.59166 26.7857C7.70171 27.1036 7.51829 27.4582 7.20037 27.5683C6.88245 27.6784 6.52784 27.4949 6.41779 27.177C6.30774 26.8346 6.47893 26.4799 6.80908 26.3821Z" fill="black"/>
<path d="M50.096 49.1516C49.6313 49.0049 49.13 49.2617 48.971 49.7264C48.8243 50.1911 49.081 50.6924 49.5456 50.8514C49.6312 50.8759 49.7291 50.9003 49.8147 50.9003C50.1938 50.9003 50.5362 50.6558 50.6585 50.2889C50.8174 49.7997 50.5606 49.2984 50.096 49.1516ZM50.4017 50.1788C50.3528 50.3378 50.2427 50.4601 50.096 50.5335C49.9492 50.6068 49.7781 50.6191 49.6191 50.5702C49.3012 50.4601 49.1178 50.1177 49.2278 49.7875C49.3134 49.5307 49.558 49.3595 49.8147 49.3595C49.8759 49.3595 49.9369 49.3717 49.9981 49.384C50.3282 49.5185 50.5117 49.8609 50.4017 50.1788Z" fill="black"/>
<path d="M14.1946 13.896C14.2802 13.9204 14.3781 13.9449 14.4759 13.9449C14.6104 13.9449 14.7571 13.9082 14.8794 13.847C15.0873 13.737 15.2462 13.5536 15.3196 13.3334C15.393 13.1133 15.3807 12.8687 15.2707 12.6486C15.1606 12.4407 14.9772 12.2818 14.7571 12.2084C14.537 12.135 14.2925 12.1472 14.0724 12.2573C13.8645 12.3674 13.7055 12.5508 13.6322 12.7709C13.5588 13.0033 13.571 13.2356 13.6811 13.4557C13.7911 13.6636 13.9745 13.8226 14.1946 13.896ZM13.889 12.8565C13.9745 12.5997 14.2191 12.4285 14.4759 12.4285C14.537 12.4285 14.5982 12.4407 14.6715 12.453C14.9894 12.563 15.1729 12.9054 15.0628 13.2356C15.0139 13.3946 14.9039 13.5169 14.7571 13.5902C14.6104 13.6636 14.4392 13.6758 14.2802 13.6269C14.1213 13.578 13.999 13.468 13.9256 13.3212C13.8523 13.1867 13.84 13.0155 13.889 12.8565Z" fill="black"/>
<path d="M35.0555 56.1351C34.8598 56.2696 34.7375 56.4775 34.7009 56.722C34.6642 56.9544 34.7253 57.1867 34.8598 57.3824C34.9943 57.5781 35.2022 57.7003 35.4467 57.737C35.4957 57.7493 35.5446 57.7493 35.5935 57.7493C35.7769 57.7493 35.9603 57.6881 36.1193 57.5781C36.5228 57.2846 36.6084 56.7343 36.3149 56.3307C36.0215 55.9272 35.459 55.8416 35.0555 56.1351ZM35.9481 57.3579C35.8136 57.4558 35.6424 57.4925 35.4834 57.468C35.3245 57.4435 35.1777 57.3579 35.0799 57.2234C34.9821 57.0889 34.9454 56.9299 34.9699 56.7587C34.9943 56.5998 35.0799 56.453 35.2144 56.3552C35.3245 56.2696 35.4467 56.2329 35.5813 56.2329C35.7769 56.2329 35.9603 56.3185 36.0826 56.4897C36.2782 56.771 36.2171 57.1501 35.9481 57.3579Z" fill="black"/>
<path d="M28.5622 7.07243C28.6112 7.08466 28.6601 7.08466 28.6967 7.08466C28.8802 7.08466 29.0636 7.02351 29.2225 6.91345C29.6261 6.61996 29.7117 6.06966 29.4182 5.66611C29.1247 5.27479 28.5745 5.17696 28.171 5.47045C27.7797 5.76394 27.6818 6.31424 27.9753 6.71779C28.122 6.91345 28.3299 7.03574 28.5622 7.07243ZM28.0976 6.09412C28.122 5.93515 28.2076 5.7884 28.3421 5.69057C28.4522 5.6172 28.5745 5.56828 28.709 5.56828C28.9046 5.56828 29.088 5.65388 29.2103 5.82509C29.406 6.10635 29.3448 6.48544 29.0758 6.69333C28.9413 6.79116 28.7823 6.82785 28.6112 6.80339C28.4522 6.77894 28.3055 6.69333 28.2076 6.55882C28.1098 6.4243 28.0731 6.26532 28.0976 6.09412Z" fill="black"/>
<path d="M32.1454 26.4189C30.2746 26.4189 28.6238 27.4339 27.7312 28.938C27.7067 28.938 27.6945 28.9258 27.6701 28.9258C27.4255 28.9258 27.2299 29.1215 27.2299 29.366C27.2299 29.4883 27.2788 29.6106 27.3644 29.684C27.1443 30.2587 27.0098 30.8824 27.0098 31.5428C27.0098 34.3676 29.3086 36.6789 32.1454 36.6789C34.97 36.6789 37.2811 34.3799 37.2811 31.5428C37.2811 28.7179 34.9823 26.4189 32.1454 26.4189ZM27.4989 29.3783C27.4989 29.3171 27.5233 29.2682 27.5722 29.2437C27.5967 29.2193 27.6334 29.2071 27.6701 29.2071C27.7434 29.2071 27.8046 29.256 27.829 29.3171C27.8413 29.3416 27.8413 29.3538 27.8413 29.3783C27.8413 29.4516 27.7923 29.5128 27.719 29.5372C27.7067 29.5372 27.6823 29.5495 27.6701 29.5495C27.5845 29.5495 27.5111 29.4761 27.4989 29.3783ZM32.1454 36.4098C29.4675 36.4098 27.291 34.2331 27.291 31.555C27.291 30.9436 27.4011 30.3566 27.6089 29.8185C27.6334 29.8185 27.6456 29.8307 27.6701 29.8307C27.9146 29.8307 28.1103 29.6351 28.1103 29.3905C28.1103 29.2682 28.0614 29.1459 27.9758 29.0725C28.8317 27.654 30.3724 26.7124 32.1454 26.7124C34.8233 26.7124 36.9998 28.8891 36.9998 31.5672C37.0121 34.2331 34.8233 36.4098 32.1454 36.4098Z" fill="black"/>
<path d="M32.146 28.1182C30.2507 28.1182 28.71 29.659 28.71 31.5545C28.71 33.45 30.2507 34.9908 32.146 34.9908C34.0413 34.9908 35.582 33.45 35.582 31.5545C35.582 29.659 34.0413 28.1182 32.146 28.1182ZM32.146 34.7095C30.3974 34.7095 28.979 33.291 28.979 31.5423C28.979 29.7935 30.3974 28.375 32.146 28.375C33.8945 28.375 35.313 29.7935 35.313 31.5423C35.313 33.291 33.8945 34.7095 32.146 34.7095Z" fill="black"/>
<path d="M32.146 29.2432C30.8743 29.2432 29.835 30.2826 29.835 31.5544C29.835 32.8262 30.8743 33.8657 32.146 33.8657C33.4177 33.8657 34.4571 32.8262 34.4571 31.5544C34.4571 30.2826 33.4299 29.2432 32.146 29.2432ZM32.146 33.5966C31.0211 33.5966 30.104 32.6795 30.104 31.5544C30.104 30.4294 31.0211 29.5122 32.146 29.5122C33.271 29.5122 34.1881 30.4294 34.1881 31.5544C34.1881 32.6795 33.271 33.5966 32.146 33.5966Z" fill="black"/>
<path d="M32.1458 29.9775C31.2776 29.9775 30.5684 30.6868 30.5684 31.555C30.5684 32.4232 31.2776 33.1325 32.1458 33.1325C33.014 33.1325 33.7232 32.4232 33.7232 31.555C33.7232 30.6868 33.014 29.9775 32.1458 29.9775ZM32.1458 32.8513C31.4244 32.8513 30.8497 32.2643 30.8497 31.555C30.8497 30.8335 31.4366 30.2587 32.1458 30.2587C32.8672 30.2587 33.4419 30.8457 33.4419 31.555C33.4542 32.2643 32.8672 32.8513 32.1458 32.8513Z" fill="black"/>
<path d="M38.3209 26.2842C38.3209 25.8562 37.9785 25.5138 37.5506 25.5138C37.3794 25.5138 37.2326 25.5627 37.1104 25.6605C35.7653 24.5232 34.0412 23.8506 32.1459 23.8506C27.9028 23.8506 24.4424 27.3114 24.4424 31.5548C24.4424 34.93 26.6312 37.816 29.6636 38.8432C29.6636 39.1612 29.9204 39.418 30.2384 39.418C30.4462 39.418 30.6419 39.2957 30.7397 39.1245C31.1921 39.2101 31.669 39.259 32.1459 39.259C36.3889 39.259 39.8494 35.7982 39.8494 31.5548C39.8494 29.7327 39.2135 28.0696 38.1619 26.7489C38.2598 26.6144 38.3209 26.4554 38.3209 26.2842ZM37.9785 26.5288C37.9296 26.6144 37.8685 26.6755 37.7829 26.7244C37.7095 26.7611 37.6361 26.7856 37.5506 26.7856C37.2815 26.7856 37.0492 26.5654 37.0492 26.2842C37.0492 26.1986 37.0737 26.113 37.1226 26.0396C37.1715 25.954 37.2326 25.8929 37.3182 25.8562C37.3916 25.8195 37.465 25.795 37.5506 25.795C37.8196 25.795 38.0519 26.0152 38.0519 26.2964C38.0519 26.3698 38.0274 26.4554 37.9785 26.5288ZM30.5563 38.8432C30.5563 38.9288 30.5196 39.0144 30.4585 39.0755C30.4095 39.1245 30.3362 39.1612 30.2506 39.1612C30.1161 39.1612 30.006 39.0755 29.9571 38.9533C29.9449 38.9166 29.9449 38.8921 29.9449 38.8554C29.9449 38.7943 29.9693 38.7331 29.9938 38.6842C30.0549 38.5986 30.1405 38.5497 30.2506 38.5497C30.4095 38.5497 30.544 38.672 30.5563 38.831C30.5563 38.8187 30.5563 38.831 30.5563 38.8432ZM39.5804 31.5548C39.5804 35.6515 36.2422 38.9899 32.1459 38.9899C31.6935 38.9899 31.2533 38.941 30.8131 38.8677C30.8131 38.8554 30.8131 38.8554 30.8131 38.8432C30.8131 38.5253 30.5563 38.2684 30.2384 38.2684C30.0183 38.2684 29.8226 38.403 29.7248 38.5864C26.8146 37.5836 24.7114 34.8077 24.7114 31.5548C24.7114 27.4582 28.0496 24.1197 32.1459 24.1197C33.9556 24.1197 35.6186 24.7678 36.9147 25.8562C36.8291 25.9785 36.7802 26.1252 36.7802 26.2842C36.7802 26.7122 37.1226 27.0546 37.5506 27.0546C37.6973 27.0546 37.844 27.0057 37.9663 26.9323C38.9812 28.2041 39.5804 29.8061 39.5804 31.5548Z" fill="black"/>
<path d="M85.2224 21.9775V24.8758C85.2224 26.6367 84.7945 27.9941 83.9263 28.9235C83.0581 29.8651 81.7864 30.3298 80.1112 30.3298C78.436 30.3298 77.1521 29.8529 76.2962 28.9113C75.428 27.9697 75 26.6123 75 24.8391V13.4907C75 11.7298 75.428 10.3724 76.2962 9.41855C77.1521 8.47693 78.436 8 80.1112 8C81.7864 8 83.0703 8.47693 83.9263 9.41855C84.7822 10.3601 85.2224 11.7175 85.2224 13.4907V15.6063H81.9821V13.2828C81.9821 12.488 81.8231 11.9377 81.493 11.6197C81.175 11.3018 80.7348 11.1306 80.1968 11.1306C79.6588 11.1306 79.2308 11.2895 78.9007 11.6197C78.5828 11.9377 78.4116 12.5002 78.4116 13.2951V25.0959C78.4116 25.8908 78.5705 26.4411 78.9007 26.7468C79.2186 27.0647 79.6588 27.2115 80.1968 27.2115C80.7348 27.2115 81.1628 27.0525 81.493 26.7468C81.8109 26.4411 81.9821 25.8908 81.9821 25.0959V21.9775H85.2224Z" fill="black"/>
<path d="M95.5303 30.0858C95.4936 29.939 95.4447 29.8045 95.408 29.6822C95.3713 29.5599 95.3346 29.401 95.2979 29.2175C95.2612 29.0341 95.249 28.7895 95.2368 28.496C95.2246 28.2025 95.2246 27.8357 95.2246 27.4077V23.9836C95.2246 22.9686 95.0534 22.2471 94.6988 21.8313C94.3442 21.4155 93.7695 21.2076 92.9869 21.2076H91.8008V30.0858H88.377V8.26953H93.5494C95.3346 8.26953 96.6308 8.68531 97.4256 9.51688C98.2204 10.3484 98.6239 11.608 98.6239 13.2833V14.9954C98.6239 17.2455 97.878 18.713 96.374 19.4222C97.2421 19.7769 97.8413 20.3516 98.1715 21.1465C98.4894 21.9414 98.6606 22.9197 98.6606 24.057V27.4199C98.6606 27.958 98.685 28.4349 98.7217 28.8384C98.7584 29.242 98.8684 29.6578 99.0274 30.0735H95.5303V30.0858ZM91.8008 11.3879V18.0893H93.1458C93.7939 18.0893 94.2953 17.9181 94.6621 17.5879C95.0289 17.2577 95.2123 16.6585 95.2123 15.778V13.6258C95.2123 12.8309 95.0778 12.2684 94.7966 11.9137C94.5154 11.5591 94.0752 11.3879 93.476 11.3879H91.8008Z" fill="black"/>
<path d="M113.836 30.0858H110.376L109.789 26.1236H105.582L104.995 30.0858H101.853L105.325 8.26953H110.339L113.836 30.0858ZM106.01 23.1642H109.312L107.661 12.1338L106.01 23.1642Z" fill="black"/>
<path d="M120.255 17.967H124.681V21.0853H120.255V30.098H116.831V8.26953H125.904V11.3879H120.267V17.967H120.255Z" fill="black"/>
<path d="M128.105 8.26953H138.707V11.3879H135.124V30.0858H131.7V11.3879H128.117V8.26953H128.105Z" fill="black"/>
<path d="M85.2224 47.1075V50.0057C85.2224 51.7667 84.7945 53.1241 83.9263 54.0535C83.0581 54.9951 81.7864 55.4598 80.1112 55.4598C78.436 55.4598 77.1521 54.9829 76.2962 54.0413C75.428 53.0996 75 51.7422 75 49.9691V38.6207C75 36.8597 75.428 35.5023 76.2962 34.5485C77.1521 33.6069 78.436 33.1299 80.1112 33.1299C81.7864 33.1299 83.0703 33.6069 83.9263 34.5485C84.7822 35.4901 85.2224 36.8475 85.2224 38.6207V40.7363H81.9821V38.4006C81.9821 37.6057 81.8231 37.0554 81.493 36.7375C81.175 36.4195 80.7348 36.2483 80.1968 36.2483C79.6588 36.2483 79.2308 36.4073 78.9007 36.7375C78.5828 37.0554 78.4116 37.6179 78.4116 38.4128V50.2136C78.4116 51.0085 78.5705 51.5588 78.9007 51.8645C79.2186 52.1825 79.6588 52.3292 80.1968 52.3292C80.7348 52.3292 81.1628 52.1702 81.493 51.8645C81.8109 51.5588 81.9821 51.0085 81.9821 50.2136V47.0953H85.2224V47.1075Z" fill="black"/>
<path d="M99.5906 55.2156H96.1301L95.5432 51.2535H91.3368L90.7499 55.2156H87.6074L91.0923 33.3994H96.1056L99.5906 55.2156ZM91.7648 48.2941H95.0663L93.4155 37.2515L91.7648 48.2941Z" fill="black"/>
<path d="M109.25 55.2152C109.213 55.0685 109.164 54.9339 109.128 54.8117C109.091 54.6894 109.054 54.5304 109.018 54.347C108.981 54.1635 108.969 53.919 108.956 53.6255C108.944 53.332 108.944 52.9651 108.944 52.5371V49.113C108.944 48.098 108.773 47.3765 108.418 46.9607C108.064 46.545 107.489 46.3371 106.706 46.3371H105.52V55.2152H102.097V33.3867H107.269C109.054 33.3867 110.35 33.8025 111.145 34.6341C111.94 35.4656 112.343 36.7252 112.343 38.4006V40.1126C112.343 42.3627 111.598 43.8302 110.094 44.5394C110.962 44.8941 111.561 45.4688 111.891 46.2637C112.209 47.0586 112.38 48.0369 112.38 49.1742V52.5371C112.38 53.0752 112.405 53.5521 112.441 53.9556C112.478 54.3592 112.588 54.775 112.747 55.1908H109.25V55.2152ZM105.508 36.5051V43.2065H106.853C107.501 43.2065 108.003 43.0353 108.369 42.7051C108.736 42.3749 108.92 41.7757 108.92 40.8952V38.743C108.92 37.9481 108.785 37.3856 108.504 37.0309C108.223 36.6763 107.783 36.5051 107.183 36.5051H105.508Z" fill="black"/>
<path d="M115.425 33.3867H120.842C122.566 33.3867 123.85 33.8392 124.694 34.7564C125.537 35.6735 125.953 37.0065 125.953 38.7797V49.8101C125.953 51.571 125.537 52.9162 124.694 53.8334C123.85 54.7505 122.566 55.203 120.842 55.203H115.413V33.3867H115.425ZM118.849 36.5051V52.0846H120.781C121.319 52.0846 121.747 51.9257 122.065 51.6199C122.383 51.3142 122.529 50.7639 122.529 49.969V38.6207C122.529 37.8258 122.37 37.2755 122.065 36.9698C121.759 36.6641 121.331 36.5051 120.781 36.5051H118.849Z" fill="black"/>
<path d="M128.631 38.6333C128.631 36.8601 129.047 35.5027 129.89 34.5611C130.734 33.6195 131.994 33.1426 133.681 33.1426C135.368 33.1426 136.628 33.6195 137.472 34.5611C138.315 35.5027 138.731 36.8601 138.731 38.6333V39.4771H135.491V38.4132C135.491 37.6183 135.344 37.068 135.038 36.7501C134.733 36.4321 134.317 36.2609 133.779 36.2609C133.241 36.2609 132.813 36.4199 132.519 36.7501C132.214 37.068 132.067 37.6306 132.067 38.4132C132.067 39.1592 132.238 39.8195 132.568 40.3943C132.898 40.969 133.314 41.5071 133.815 42.0207C134.317 42.5343 134.855 43.0357 135.417 43.5493C135.992 44.0629 136.518 44.6132 137.019 45.2124C137.521 45.8116 137.936 46.4965 138.266 47.2669C138.597 48.0373 138.768 48.9422 138.768 49.9817C138.768 51.7426 138.34 53.1 137.472 54.0539C136.603 54.9955 135.332 55.4724 133.657 55.4724C131.981 55.4724 130.697 54.9955 129.841 54.0539C128.973 53.1123 128.545 51.7549 128.545 49.9817V48.4898H131.786V50.214C131.786 51.0089 131.945 51.5592 132.275 51.8771C132.593 52.1951 133.033 52.3541 133.571 52.3541C134.109 52.3541 134.537 52.1951 134.867 51.8894C135.185 51.5714 135.356 51.0211 135.356 50.2385C135.356 49.4925 135.185 48.8322 134.855 48.2574C134.525 47.6827 134.109 47.1446 133.608 46.631C133.106 46.1174 132.568 45.616 132.006 45.1024C131.431 44.5888 130.905 44.0385 130.404 43.427C129.903 42.8278 129.487 42.1308 129.157 41.3726C128.802 40.5899 128.631 39.685 128.631 38.6333Z" fill="black"/>
</svg>
