<svg width="84" height="13" viewBox="0 0 84 13" fill="none" xmlns="http://www.w3.org/2000/svg">
<path fill-rule="evenodd" clip-rule="evenodd" d="M13.0487 12.7501V6.46814C13.0487 4.68614 12.1244 3.84014 10.5724 3.84014C9.28202 3.84014 8.16597 4.63214 7.6777 5.42414C7.36381 4.43414 6.57909 3.84014 5.34098 3.84014C4.05055 3.84014 2.93451 4.66814 2.58575 5.19014V4.05614H0.371094V12.7501H2.58575V6.90014C2.91707 6.41414 3.56228 5.87414 4.32957 5.87414C5.23635 5.87414 5.58512 6.45014 5.58512 7.26014V12.7501H7.81721V6.88214C8.13109 6.41414 8.77631 5.87414 9.56103 5.87414C10.4678 5.87414 10.8166 6.45014 10.8166 7.26014V12.7501H13.0487ZM19.1346 12.9661C16.3619 12.9661 14.6879 10.8781 14.6879 8.39414C14.6879 5.92814 16.3619 3.84014 19.1346 3.84014C21.9247 3.84014 23.5988 5.92814 23.5988 8.39414C23.5988 10.8781 21.9247 12.9661 19.1346 12.9661ZM19.1346 10.9321C20.5122 10.9321 21.2969 9.76214 21.2969 8.39414C21.2969 7.04414 20.5122 5.87414 19.1346 5.87414C17.757 5.87414 16.9897 7.04414 16.9897 8.39414C16.9897 9.76214 17.757 10.9321 19.1346 10.9321ZM33.1375 12.7501V6.61214C33.1375 4.92014 32.2481 3.84014 30.3997 3.84014C29.0221 3.84014 27.9932 4.52414 27.4526 5.19014V4.05614H25.238V12.7501H27.4526V6.90014C27.8188 6.37814 28.4989 5.87414 29.3708 5.87414C30.3125 5.87414 30.9228 6.28814 30.9228 7.49414V12.7501H33.1375ZM39.2408 12.9661C36.4682 12.9661 34.7941 10.8781 34.7941 8.39414C34.7941 5.92814 36.4682 3.84014 39.2408 3.84014C42.031 3.84014 43.705 5.92814 43.705 8.39414C43.705 10.8781 42.031 12.9661 39.2408 12.9661ZM39.2408 10.9321C40.6185 10.9321 41.4032 9.76214 41.4032 8.39414C41.4032 7.04414 40.6185 5.87414 39.2408 5.87414C37.8632 5.87414 37.0959 7.04414 37.0959 8.39414C37.0959 9.76214 37.8632 10.9321 39.2408 10.9321ZM47.5589 9.96014C47.9251 10.5181 48.7447 10.9321 49.4596 10.9321C50.7501 10.9321 51.6045 9.92414 51.6045 8.41214C51.6045 6.90014 50.7501 5.87414 49.4596 5.87414C48.7447 5.87414 47.9251 6.30614 47.5589 6.88214V9.96014ZM47.5589 12.7501H45.3442V0.744141H47.5589V5.17214C48.2215 4.29014 49.1632 3.84014 50.1572 3.84014C52.3021 3.84014 53.8889 5.56814 53.8889 8.41214C53.8889 11.3101 52.2846 12.9661 50.1572 12.9661C49.1457 12.9661 48.2215 12.4981 47.5589 11.6341V12.7501ZM62.8347 12.7501H60.6201V11.8501C60.0446 12.5521 59.0506 12.9661 57.952 12.9661C56.6093 12.9661 55.0224 12.0301 55.0224 10.0861C55.0224 8.05214 56.6093 7.27814 57.952 7.27814C59.0681 7.27814 60.0621 7.65614 60.6201 8.34014V7.17014C60.6201 6.28814 59.8877 5.71214 58.7716 5.71214C57.8648 5.71214 57.0278 6.05414 56.3128 6.73814L55.4758 5.20814C56.5047 4.27214 57.83 3.84014 59.1553 3.84014C61.0735 3.84014 62.8347 4.63214 62.8347 7.13414V12.7501ZM58.8414 11.4181C59.5564 11.4181 60.2539 11.1661 60.6201 10.6621V9.58214C60.2539 9.07814 59.5564 8.82614 58.8414 8.82614C57.9695 8.82614 57.2545 9.29414 57.2545 10.1401C57.2545 10.9501 57.9695 11.4181 58.8414 11.4181ZM72.9315 12.7501V6.61214C72.9315 4.92014 72.0421 3.84014 70.1937 3.84014C68.816 3.84014 67.7872 4.52414 67.2466 5.19014V4.05614H65.0319V12.7501H67.2466V6.90014C67.6128 6.37814 68.2929 5.87414 69.1648 5.87414C70.1065 5.87414 70.7168 6.28814 70.7168 7.49414V12.7501H72.9315ZM83.3595 12.7501L79.9242 7.99814L83.2549 4.05614H80.5345L77.3433 7.92614V0.744141H75.1287V12.7501H77.3433V10.5181L78.3547 9.40214L80.5868 12.7501H83.3595Z" fill="#0A0A0A"/>
</svg>
