<svg width="95" height="11" viewBox="0 0 95 11" fill="none" xmlns="http://www.w3.org/2000/svg">
<path fill-rule="evenodd" clip-rule="evenodd" d="M88.2921 0.386219H90.1064V6.34272H90.2088L92.5681 3.48147L94.2414 3.47697L91.6533 6.60447L94.7711 10.5157H92.6814L90.1325 6.87522H90.1064V10.5157H88.2921V0.386219ZM2.0442 0.839219V6.39372C2.0442 8.28597 2.58696 9.32022 4.10772 9.32022C5.56308 9.32022 6.14509 8.06622 6.14509 6.50322V0.839219H7.85984V6.84897C7.85984 9.29247 6.30929 10.677 4.05395 10.677C1.47164 10.677 0.128906 9.38922 0.128906 6.75222V0.839219H2.0442ZM11.8677 4.41747C12.4817 3.75522 13.3362 3.43722 14.1935 3.43722C15.7833 3.43722 16.6247 4.31922 16.6247 6.05997V10.5097H14.8206V6.26922C14.8206 5.30097 14.3999 4.66497 13.4604 4.66497C12.5769 4.66497 11.883 5.25972 11.883 6.39372V10.5097H10.0767V3.60147H11.8677V4.41747ZM18.7478 10.5097H20.5549V3.60147H18.7478V10.5097ZM18.5705 1.52997C18.5705 1.00572 19.0043 0.465719 19.6183 0.465719C20.2431 0.465719 20.73 0.991469 20.73 1.52997C20.73 2.12322 20.3114 2.69022 19.6444 2.69022C19.005 2.69022 18.5705 2.12322 18.5705 1.52997ZM24.5526 10.5097L21.6607 3.57222H23.5753C24.1609 5.16147 24.7684 6.65622 25.338 8.57622H25.3656C25.9796 6.65622 26.5572 5.16147 27.1814 3.57222H28.8765L25.8146 10.5097H24.5526ZM34.2533 6.22797C34.3238 5.17497 33.9561 4.45872 33.0617 4.45872C32.0248 4.45872 31.5598 5.30097 31.5794 6.22797H34.2533ZM31.5496 7.22247C31.509 8.52222 32.4056 9.48747 33.5332 9.48747C34.2032 9.48747 34.9065 9.25272 35.357 8.93397L35.8729 9.90222C34.9486 10.4542 33.9823 10.677 33.2084 10.677C31.1558 10.677 29.6213 9.19722 29.6213 6.91797C29.6213 4.78947 31.1413 3.43722 33.0857 3.43722C35.2059 3.43722 36.0901 5.16297 35.9564 7.22247H31.5496ZM39.5029 4.81722H39.5284L39.896 4.27872C40.098 3.97347 40.5063 3.43722 41.0636 3.43722C41.4712 3.43722 41.9079 3.65847 42.2887 4.05747L41.6071 5.32872C41.3085 5.17497 41.1174 5.09397 40.7527 5.09397C40.1271 5.09397 39.516 5.60547 39.516 7.09647V10.5097H37.7031V3.60147H39.5029V4.81722ZM47.1125 4.89972C46.7056 4.59597 46.2842 4.45872 45.9558 4.45872C45.5489 4.45872 45.1405 4.69272 45.1405 5.16297C45.1405 5.71572 45.7945 6.03447 46.5545 6.59847C47.5223 7.33422 47.805 8.05197 47.805 8.68422C47.805 9.65472 46.7572 10.677 45.2648 10.677C44.326 10.677 43.6336 10.344 42.9964 9.88872L43.5667 8.93397C43.9722 9.26772 44.5556 9.59697 45.0439 9.59697C45.5641 9.59697 46.0241 9.32022 46.0241 8.74047C46.0241 8.09097 45.3164 7.73247 44.6661 7.26222C43.8908 6.72447 43.3626 6.19872 43.3626 5.34372C43.3626 4.25022 44.3929 3.43722 45.724 3.43722C46.4746 3.43722 47.2062 3.62922 47.6989 4.07322L47.1125 4.89972ZM52.2611 6.83472C51.3791 7.12497 50.9307 7.63572 50.9307 8.42247C50.9307 9.03147 51.3115 9.44622 51.7496 9.44622C52.4668 9.44622 53.4055 8.53347 53.2711 6.50322L52.2611 6.83472ZM52.8351 9.84747C52.3447 10.2622 51.7198 10.677 51.0964 10.677C50.0356 10.677 49.1491 9.84747 49.1491 8.57622C49.1491 7.26222 50.0894 6.53097 51.6668 6.05997L53.2711 5.57622C53.1766 4.94172 52.6172 4.54197 52.0359 4.54197C51.2584 4.54197 50.7142 4.83222 50.239 5.24697L49.6527 4.37622C50.4977 3.67197 51.3246 3.43722 52.2611 3.43722C53.5145 3.43722 55.0513 3.84897 55.0513 6.00672V8.82372C55.0513 9.37722 55.1174 10.0282 55.3368 10.5097H53.4208C53.2813 10.2742 53.2428 9.87522 53.2428 9.50172L52.8351 9.84747ZM57.0763 10.5097H58.8855V0.355469H57.0763V10.5097ZM74.8945 6.83472C74.0095 7.12497 73.5612 7.63572 73.5612 8.42247C73.5612 9.03147 73.9397 9.44622 74.3771 9.44622C75.0943 9.44622 76.0338 8.53347 75.9015 6.50322L74.8945 6.83472ZM75.4612 9.84747C74.9744 10.2622 74.3481 10.677 73.7225 10.677C72.6638 10.677 71.7781 9.84747 71.7781 8.57622C71.7781 7.26222 72.7169 6.53097 74.2958 6.05997L75.9015 5.57622C75.802 4.94172 75.2476 4.54197 74.6591 4.54197C73.8867 4.54197 73.3417 4.83222 72.8666 5.24697L72.2816 4.37622C73.1245 3.67197 73.955 3.43722 74.8945 3.43722C76.142 3.43722 77.6766 3.84897 77.6766 6.00672V8.82372C77.6766 9.37722 77.7442 10.0282 77.9607 10.5097H76.0476C75.9131 10.2742 75.8681 9.87522 75.8681 9.50172L75.4612 9.84747ZM81.497 4.41747C82.1095 3.75522 82.9669 3.43722 83.8221 3.43722C85.4119 3.43722 86.254 4.31922 86.254 6.05997V10.5097H84.447V6.26922C84.447 5.30097 84.0256 4.66497 83.0875 4.66497C82.2033 4.66497 81.5108 5.25972 81.5108 6.39372V10.5097H79.7038V3.60147H81.497V4.41747ZM65.4793 9.34647H66.4573C67.5181 9.34647 68.3225 8.78097 68.3225 7.70472C68.3225 6.57072 67.4927 6.08772 66.4464 6.08772H65.4793V9.34647ZM65.4793 4.89972H66.0802C67.1824 4.89972 67.9308 4.18197 67.9308 3.28197C67.9308 2.42697 67.3023 2.05497 66.474 2.05497H65.4786L65.4793 4.89972ZM63.5647 10.536V0.865469H67.0044C68.6065 0.865469 69.7364 1.61097 69.7364 2.92347C69.7364 4.46997 68.4997 5.10747 67.8342 5.28597V5.31372C69.0171 5.36997 70.3336 6.19722 70.3336 7.67547C70.3336 9.34647 68.9597 10.536 66.7203 10.536H63.5647Z" fill="#0A0A0A"/>
</svg>
