<svg width="168" height="67" viewBox="0 0 168 67" fill="none" xmlns="http://www.w3.org/2000/svg">
<path d="M111.778 51.4693C113.056 51.4589 114.334 51.4554 115.612 51.4577L115.619 55.1289L115.623 66.9921C108.912 66.9237 102.041 67.0002 95.3191 67.0002L49.0933 66.9921C49.1714 61.8464 49.0836 56.6254 49.1225 51.4635L52.9606 51.4682L52.9795 63.2676C54.9811 63.096 58.1357 63.1841 60.2391 63.1853H72.9879L111.78 63.2027C111.702 59.3657 111.759 55.319 111.778 51.4693Z" fill="#E1340E"/>
<path d="M49.0923 0L115.626 0.012523L115.603 15.5384C114.332 15.5471 113.062 15.5422 111.792 15.524C111.758 12.8158 111.75 10.1072 111.764 7.3989C111.762 6.2105 111.779 5.02209 111.818 3.83438C109.349 3.67835 106.291 3.76193 103.772 3.76309L90.0023 3.76993C77.7348 3.77039 65.1984 3.6299 52.9537 3.79044L52.9584 15.5339L49.1119 15.5418L49.0923 0Z" fill="#E1340E"/>
<path d="M1.40505 43.2534V42.948L3.17663 42.6425V22.2388L1.40505 21.9333V21.6279H9.4688V21.9333L7.66668 22.2388V42.7953H12.7065C13.1952 42.7953 13.633 42.6629 14.0199 42.3982C14.4068 42.1131 14.753 41.6651 15.0585 41.0542C15.3843 40.423 15.6897 39.6084 15.9748 38.6106L16.7689 34.762H17.3187L18.2656 43.2534H1.40505ZM28.7403 27.523C30.4304 27.523 31.8253 27.859 32.9249 28.531C34.0245 29.2029 34.8492 30.0989 35.399 31.2189C35.9488 32.3388 36.2237 33.6013 36.2237 35.0064H24.6473V34.701L32.2529 34.3039C32.2529 32.9395 32.1307 31.7789 31.8863 30.8218C31.642 29.8647 31.2551 29.1418 30.7256 28.6531C30.2166 28.1441 29.5446 27.8895 28.7097 27.8895C27.8952 27.8895 27.1825 28.1542 26.5716 28.6837C25.9811 29.2131 25.5229 30.0175 25.1971 31.0967C24.8916 32.1556 24.7389 33.5199 24.7389 35.1897C24.7389 36.106 24.8509 36.9918 25.0749 37.847C25.3193 38.6819 25.6654 39.4455 26.1134 40.1379C26.5818 40.8099 27.1519 41.3495 27.8239 41.7567C28.4959 42.1436 29.2799 42.3371 30.1758 42.3371C30.7256 42.3371 31.2754 42.2556 31.8253 42.0927C32.3751 41.9298 32.8943 41.6956 33.383 41.3902C33.8717 41.0848 34.3197 40.7182 34.727 40.2906C35.1342 39.8426 35.4702 39.3234 35.735 38.7328L36.0709 39.0383C35.6026 39.9953 35.063 40.7793 34.4521 41.3902C33.8616 42.0011 33.2201 42.4796 32.5278 42.8258C31.8354 43.1516 31.1329 43.3756 30.4202 43.4978C29.7075 43.6403 29.005 43.7116 28.3126 43.7116C27.0501 43.7116 25.9302 43.4978 24.9527 43.0702C23.9753 42.6425 23.1404 42.0622 22.4481 41.3291C21.7761 40.5757 21.2568 39.7306 20.8903 38.7939C20.5441 37.8369 20.3711 36.8492 20.3711 35.8311C20.3711 34.5482 20.5747 33.3977 20.9819 32.3796C21.4096 31.3614 21.9899 30.496 22.723 29.7833C23.4764 29.0502 24.3622 28.4902 25.3804 28.1033C26.3985 27.7164 27.5185 27.523 28.7403 27.523ZM43.3322 43.7116C42.0493 43.7116 41.133 43.3451 40.5832 42.612C40.0334 41.8789 39.7585 40.7793 39.7585 39.3132V28.592H37.6814V28.2866L39.789 27.9812L43.5765 22.9719H44.0347V27.7063L47.1808 28.2866V28.592H44.0347V40.7182C44.0347 41.4309 44.1365 41.9502 44.3402 42.276C44.5641 42.5814 44.8594 42.7342 45.2259 42.7342C45.5518 42.7342 45.8674 42.6323 46.1728 42.4287C46.4783 42.2047 46.7837 41.9298 47.0892 41.604L47.1808 42.0316C46.9568 42.2353 46.6921 42.4389 46.3866 42.6425C46.1016 42.8462 45.7961 43.0294 45.4703 43.1923C45.1445 43.3552 44.7983 43.4774 44.4318 43.5589C44.0856 43.6607 43.7191 43.7116 43.3322 43.7116ZM56.8047 27.523C58.1283 27.523 59.2992 27.7164 60.3173 28.1033C61.3355 28.4902 62.1907 29.0502 62.8831 29.7833C63.5754 30.5163 64.0947 31.392 64.4408 32.4101C64.8074 33.4079 64.9906 34.5177 64.9906 35.7395C64.9906 36.8594 64.8074 37.9081 64.4408 38.8856C64.0947 39.8426 63.5754 40.6877 62.8831 41.4207C62.1907 42.1335 61.3355 42.6934 60.3173 43.1007C59.3195 43.508 58.1487 43.7116 56.8047 43.7116C55.4607 43.7116 54.2695 43.508 53.231 43.1007C52.2128 42.6934 51.3576 42.1335 50.6653 41.4207C49.9933 40.6877 49.4842 39.8426 49.138 38.8856C48.7919 37.9081 48.6188 36.8594 48.6188 35.7395C48.6188 34.5177 48.802 33.4079 49.1686 32.4101C49.5555 31.392 50.0951 30.5163 50.7874 29.7833C51.5001 29.0502 52.3656 28.4902 53.3837 28.1033C54.4019 27.7164 55.5422 27.523 56.8047 27.523ZM56.8353 27.8895C55.9596 27.8895 55.2368 28.2357 54.6666 28.928C54.0964 29.6204 53.6688 30.5571 53.3837 31.7381C53.119 32.9192 52.9866 34.253 52.9866 35.7395C52.9866 36.778 53.0579 37.7656 53.2005 38.7023C53.343 39.6186 53.567 40.423 53.8724 41.1153C54.1982 41.8076 54.6055 42.3574 55.0942 42.7647C55.5829 43.1516 56.1531 43.3451 56.8047 43.3451C57.4563 43.3451 58.0163 43.1516 58.4847 42.7647C58.9734 42.3778 59.3806 41.8382 59.7064 41.1458C60.0322 40.4331 60.2664 39.6186 60.409 38.7023C60.5515 37.7859 60.6228 36.7983 60.6228 35.7395C60.6228 34.6399 60.5515 33.6115 60.409 32.6545C60.2664 31.6974 60.0424 30.8625 59.737 30.1498C59.4315 29.4371 59.0345 28.8873 58.5457 28.5004C58.0774 28.0932 57.5072 27.8895 56.8353 27.8895ZM73.3508 43.2534L67.303 28.592L65.5925 28.3171V27.9812H73.8089V28.3171L71.9457 28.592L76.4969 39.7713H76.8939L78.8488 34.2428C78.971 33.917 79.0626 33.5403 79.1237 33.1126C79.1848 32.6646 79.2153 32.1963 79.2153 31.7076C79.2153 31.3207 79.1644 30.9338 79.0626 30.5469C78.9811 30.1396 78.8284 29.7731 78.6044 29.4473C78.4008 29.1011 78.1157 28.8262 77.7492 28.6226C77.3827 28.3986 76.9245 28.2866 76.3747 28.2866V27.9812H83.3083V28.2866L81.4145 28.592L75.9776 43.2534H73.3508ZM94.1716 43.7116C93.1942 43.7116 92.1964 43.62 91.1783 43.4367C90.1601 43.2534 89.1623 42.9989 88.1849 42.6731C87.2279 42.3269 86.3319 41.9298 85.497 41.4818L86.1079 34.365H86.5966L88.1849 38.6717C88.4904 39.6695 88.9485 40.5146 89.5594 41.2069C90.1907 41.8789 90.9339 42.388 91.7892 42.7342C92.6648 43.0803 93.6117 43.2534 94.6298 43.2534C95.5461 43.2534 96.3199 43.1312 96.9512 42.8869C97.6028 42.6222 98.1017 42.2556 98.4479 41.7873C98.794 41.3189 98.9671 40.7589 98.9671 40.1073C98.9671 39.3743 98.7839 38.7226 98.4173 38.1525C98.0508 37.562 97.4297 36.9714 96.5541 36.3809C95.6989 35.77 94.5382 35.1184 93.072 34.426C91.1986 33.4486 89.7121 32.573 88.6125 31.7992C87.5333 31.0254 86.7595 30.2618 86.2912 29.5084C85.8228 28.7346 85.5886 27.9099 85.5886 27.0343C85.5886 26.179 85.7821 25.3951 86.169 24.6823C86.5762 23.9696 87.1566 23.3486 87.91 22.8191C88.6634 22.2897 89.5696 21.8824 90.6285 21.5973C91.6874 21.3123 92.8684 21.1697 94.1716 21.1697C95.3527 21.1697 96.4523 21.2715 97.4705 21.4752C98.509 21.6788 99.4457 21.9537 100.281 22.2999C101.136 22.646 101.849 23.0431 102.419 23.4911L101.289 30.1804H100.8L100.067 27.4314C99.6595 26.0467 99.1606 24.9369 98.5701 24.102C97.9795 23.2468 97.2872 22.6257 96.493 22.2388C95.7192 21.8315 94.8131 21.6279 93.7746 21.6279C92.7564 21.6279 91.8808 21.7501 91.1477 21.9944C90.435 22.2388 89.8852 22.5951 89.4983 23.0635C89.1318 23.5318 88.9485 24.0918 88.9485 24.7434C88.9485 25.4154 89.1623 26.0568 89.59 26.6677C90.0176 27.2583 90.7405 27.8895 91.7586 28.5615C92.7768 29.2131 94.1513 29.9564 95.8821 30.7913C97.2465 31.4225 98.3766 32.0232 99.2726 32.5934C100.189 33.1432 100.922 33.693 101.472 34.2428C102.042 34.7926 102.449 35.3526 102.694 35.9227C102.938 36.4929 103.06 37.1241 103.06 37.8165C103.06 38.6717 102.887 39.4252 102.541 40.0768C102.215 40.708 101.767 41.2578 101.197 41.7262C100.627 42.1742 99.9649 42.5509 99.2115 42.8563C98.4581 43.1414 97.6435 43.3552 96.7679 43.4978C95.9127 43.6403 95.0473 43.7116 94.1716 43.7116ZM110.208 43.7116C108.925 43.7116 108.009 43.3451 107.459 42.612C106.909 41.8789 106.634 40.7793 106.634 39.3132V28.592H104.557V28.2866L106.665 27.9812L110.452 22.9719H110.911V27.7063L114.057 28.2866V28.592H110.911V40.7182C110.911 41.4309 111.012 41.9502 111.216 42.276C111.44 42.5814 111.735 42.7342 112.102 42.7342C112.428 42.7342 112.743 42.6323 113.049 42.4287C113.354 42.2047 113.66 41.9298 113.965 41.604L114.057 42.0316C113.833 42.2353 113.568 42.4389 113.262 42.6425C112.977 42.8462 112.672 43.0294 112.346 43.1923C112.02 43.3552 111.674 43.4774 111.308 43.5589C110.961 43.6607 110.595 43.7116 110.208 43.7116ZM116 43.2534V42.948L117.65 42.5509V28.9586H115.878V28.6226L121.926 27.523V32.3185L122.17 32.5628C122.455 31.8909 122.73 31.2901 122.995 30.7607C123.28 30.2109 123.565 29.7629 123.85 29.4167C124.339 28.7651 124.868 28.2866 125.439 27.9812C126.029 27.6757 126.681 27.523 127.393 27.523C127.882 27.523 128.35 27.6248 128.798 27.8284C129.246 28.0117 129.613 28.307 129.898 28.7142C130.183 29.1011 130.326 29.6 130.326 30.2109C130.326 30.6793 130.203 31.1069 129.959 31.4938C129.715 31.8807 129.379 32.1861 128.951 32.4101C128.523 32.6341 128.004 32.7461 127.393 32.7461C126.864 32.7461 126.385 32.6545 125.958 32.4712C125.53 32.2676 125.194 32.0029 124.95 31.677C124.726 31.3309 124.614 30.944 124.614 30.5163C124.614 30.3534 124.624 30.2109 124.644 30.0887C124.685 29.9462 124.716 29.8138 124.736 29.6916C124.777 29.5695 124.797 29.4575 124.797 29.3557C124.797 29.2131 124.746 29.1418 124.644 29.1418C124.461 29.1418 124.237 29.3149 123.972 29.6611C123.728 30.0073 123.433 30.5367 123.087 31.2494C122.903 31.6567 122.71 32.125 122.506 32.6545C122.303 33.1839 122.109 33.7439 121.926 34.3344V42.5509L123.606 42.948V43.2534H116ZM139.937 27.523C141.261 27.523 142.432 27.7164 143.45 28.1033C144.468 28.4902 145.323 29.0502 146.015 29.7833C146.708 30.5163 147.227 31.392 147.573 32.4101C147.94 33.4079 148.123 34.5177 148.123 35.7395C148.123 36.8594 147.94 37.9081 147.573 38.8856C147.227 39.8426 146.708 40.6877 146.015 41.4207C145.323 42.1335 144.468 42.6934 143.45 43.1007C142.452 43.508 141.281 43.7116 139.937 43.7116C138.593 43.7116 137.402 43.508 136.363 43.1007C135.345 42.6934 134.49 42.1335 133.798 41.4207C133.126 40.6877 132.617 39.8426 132.27 38.8856C131.924 37.9081 131.751 36.8594 131.751 35.7395C131.751 34.5177 131.934 33.4079 132.301 32.4101C132.688 31.392 133.228 30.5163 133.92 29.7833C134.633 29.0502 135.498 28.4902 136.516 28.1033C137.534 27.7164 138.675 27.523 139.937 27.523ZM139.968 27.8895C139.092 27.8895 138.369 28.2357 137.799 28.928C137.229 29.6204 136.801 30.5571 136.516 31.7381C136.251 32.9192 136.119 34.253 136.119 35.7395C136.119 36.778 136.19 37.7656 136.333 38.7023C136.475 39.6186 136.699 40.423 137.005 41.1153C137.331 41.8076 137.738 42.3574 138.227 42.7647C138.715 43.1516 139.286 43.3451 139.937 43.3451C140.589 43.3451 141.149 43.1516 141.617 42.7647C142.106 42.3778 142.513 41.8382 142.839 41.1458C143.165 40.4331 143.399 39.6186 143.541 38.7023C143.684 37.7859 143.755 36.7983 143.755 35.7395C143.755 34.6399 143.684 33.6115 143.541 32.6545C143.399 31.6974 143.175 30.8625 142.869 30.1498C142.564 29.4371 142.167 28.8873 141.678 28.5004C141.21 28.0932 140.64 27.8895 139.968 27.8895ZM153.581 49.8205C152.808 49.8205 152.146 49.6881 151.596 49.4234C151.067 49.1791 150.659 48.8329 150.374 48.3849C150.11 47.9573 149.977 47.4787 149.977 46.9493C149.977 46.6031 150.048 46.2977 150.191 46.033C150.354 45.7886 150.558 45.5748 150.802 45.3915C151.067 45.2286 151.352 45.1065 151.657 45.025C151.983 44.9435 152.309 44.9028 152.635 44.9028C153.021 44.9028 153.388 44.9639 153.734 45.0861C154.08 45.2286 154.365 45.4221 154.589 45.6664C154.813 45.9312 154.925 46.2671 154.925 46.6744C154.925 46.9595 154.885 47.2242 154.803 47.4686C154.742 47.7129 154.651 47.9369 154.528 48.1405C154.406 48.3442 154.304 48.5071 154.223 48.6293C154.162 48.7718 154.131 48.8838 154.131 48.9652C154.131 49.1078 154.315 49.1791 154.681 49.1791C155.048 49.1791 155.424 49.0263 155.811 48.7209C156.198 48.4154 156.565 47.9675 156.911 47.3769C157.176 46.9697 157.461 46.3995 157.766 45.6664C158.072 44.9537 158.367 44.1494 158.652 43.2534H156.514L150.527 28.592L148.725 28.3171V27.9812H156.941V28.3171L155.17 28.592L159.629 39.7713H160.026L162.012 34.1817C162.114 33.8559 162.185 33.5097 162.226 33.1432C162.287 32.7766 162.317 32.4101 162.317 32.0436C162.317 31.6363 162.276 31.2189 162.195 30.7913C162.134 30.3433 161.991 29.936 161.767 29.5695C161.564 29.1826 161.279 28.8771 160.912 28.6531C160.546 28.4088 160.077 28.2866 159.507 28.2866V27.9812H166.441V28.2866L164.547 28.592L159.11 43.2534C158.682 44.4141 158.306 45.3712 157.98 46.1246C157.654 46.878 157.379 47.4177 157.155 47.7435C156.768 48.3747 156.29 48.8736 155.72 49.2401C155.149 49.627 154.437 49.8205 153.581 49.8205Z" fill="white"/>
</svg>
