<svg width="0" height="0" class="hidden">
    <symbol version="1.1" xmlns="http://www.w3.org/2000/svg" viewBox="0 0 1284 512" id="logo">
        <path fill="#e1340e" d="M854.184 393.317c9.766-0.079 19.533-0.106 29.298-0.089l0.053 28.055 0.030 90.656c-51.284-0.522-103.791 0.062-155.158 0.062l-353.248-0.062c0.597-39.322-0.074-79.22 0.223-118.666l29.33 0.036 0.144 90.168c15.296-1.312 39.402-0.638 55.476-0.629l393.865 0.133c-0.596-29.322-0.16-60.245-0.015-89.664z"></path>
        <path fill="#e1340e" d="M375.153 0l508.437 0.096-0.176 118.645c-9.712 0.067-19.418 0.029-29.123-0.11-0.26-20.695-0.321-41.394-0.214-62.090-0.015-9.081 0.115-18.163 0.413-27.239-18.867-1.192-42.236-0.553-61.486-0.545l-105.225 0.052c-93.745 0.003-189.546-1.070-283.118 0.157l0.036 89.741-29.394 0.061-0.15-118.767z"></path>
        <path fill="currentColor" d="M10.737 330.534v-2.334l13.538-2.334v-155.921l-13.538-2.334v-2.334h61.621v2.334l-13.772 2.334v157.089h38.513c3.734 0 7.080-1.012 10.037-3.034 2.957-2.178 5.602-5.602 7.937-10.271 2.49-4.824 4.823-11.048 7.002-18.673l6.069-29.41h4.202l7.236 64.889h-128.845zM219.627 210.325c12.916 0 23.575 2.567 31.978 7.703 8.403 5.135 14.705 11.982 18.906 20.541 4.202 8.558 6.302 18.206 6.302 28.944h-88.464v-2.334l58.12-3.034c0-10.427-0.934-19.296-2.802-26.609s-4.823-12.838-8.87-16.573c-3.889-3.889-9.025-5.835-15.405-5.835-6.224 0-11.671 2.023-16.339 6.069-4.512 4.046-8.014 10.192-10.504 18.44-2.334 8.092-3.501 18.517-3.501 31.278 0 7.002 0.856 13.772 2.567 20.307 1.868 6.38 4.512 12.216 7.936 17.507 3.579 5.135 7.936 9.259 13.071 12.37 5.136 2.957 11.126 4.435 17.972 4.435 4.202 0 8.403-0.623 12.605-1.868s8.169-3.034 11.904-5.368 7.158-5.135 10.271-8.403c3.111-3.423 5.68-7.391 7.703-11.904l2.567 2.334c-3.579 7.313-7.702 13.305-12.37 17.973-4.512 4.668-9.415 8.325-14.705 10.971-5.291 2.49-10.66 4.202-16.106 5.135-5.446 1.089-10.815 1.634-16.106 1.634-9.648 0-18.206-1.634-25.675-4.901-7.469-3.269-13.849-7.703-19.139-13.305-5.136-5.757-9.103-12.216-11.905-19.373-2.645-7.313-3.968-14.861-3.968-22.641 0-9.803 1.556-18.596 4.667-26.375 3.268-7.781 7.703-14.394 13.305-19.84 5.757-5.602 12.526-9.881 20.308-12.838 7.78-2.957 16.339-4.435 25.675-4.435zM331.135 334.035c-9.803 0-16.806-2.8-21.007-8.403s-6.302-14.005-6.302-25.209v-81.929h-15.873v-2.334l16.106-2.334 28.943-38.28h3.502v36.179l24.042 4.434v2.334h-24.042v92.666c0 5.447 0.778 9.414 2.334 11.904 1.711 2.334 3.967 3.502 6.769 3.502 2.49 0 4.902-0.779 7.236-2.334 2.334-1.712 4.668-3.813 7.003-6.302l0.7 3.267c-1.712 1.557-3.735 3.113-6.069 4.668-2.178 1.557-4.512 2.957-7.002 4.202s-5.135 2.178-7.936 2.801c-2.646 0.778-5.447 1.167-8.403 1.167zM434.089 210.325c10.115 0 19.063 1.478 26.843 4.435s14.316 7.236 19.608 12.838c5.291 5.601 9.259 12.293 11.904 20.073 2.801 7.625 4.202 16.106 4.202 25.442 0 8.558-1.4 16.572-4.202 24.042-2.645 7.313-6.613 13.772-11.904 19.373-5.291 5.447-11.827 9.726-19.608 12.838-7.625 3.113-16.572 4.668-26.842 4.668s-19.373-1.556-27.31-4.668c-7.781-3.113-14.316-7.391-19.606-12.838-5.135-5.601-9.026-12.060-11.671-19.373-2.645-7.47-3.967-15.484-3.967-24.042 0-9.337 1.4-17.817 4.202-25.442 2.957-7.78 7.080-14.472 12.37-20.073 5.447-5.602 12.060-9.881 19.841-12.838s16.495-4.435 26.142-4.435zM434.324 213.125c-6.692 0-12.216 2.645-16.573 7.936s-7.625 12.449-9.803 21.474c-2.023 9.025-3.034 19.218-3.034 30.578 0 7.936 0.545 15.483 1.635 22.641 1.089 7.002 2.8 13.149 5.135 18.44 2.49 5.291 5.602 9.492 9.337 12.604 3.735 2.957 8.092 4.435 13.072 4.435s9.259-1.478 12.838-4.435c3.735-2.957 6.846-7.080 9.336-12.372 2.49-5.447 4.279-11.671 5.369-18.673s1.634-14.55 1.634-22.641c0-8.403-0.545-16.262-1.634-23.575s-2.801-13.694-5.135-19.141c-2.334-5.446-5.368-9.648-9.103-12.605-3.579-3.112-7.936-4.668-13.070-4.668zM560.532 330.534l-46.216-112.040-13.072-2.101v-2.567h62.788v2.567l-14.238 2.101 34.779 85.43h3.034l14.939-42.248c0.934-2.49 1.634-5.368 2.101-8.637 0.467-3.423 0.7-7.002 0.7-10.737 0-2.957-0.389-5.913-1.167-8.87-0.623-3.113-1.789-5.913-3.501-8.403-1.556-2.645-3.735-4.746-6.535-6.302-2.801-1.712-6.302-2.567-10.504-2.567v-2.334h52.985v2.334l-14.472 2.334-41.548 112.040h-20.073zM719.639 334.035c-7.469 0-15.094-0.7-22.874-2.101s-15.406-3.346-22.875-5.836c-7.313-2.646-14.16-5.68-20.54-9.103l4.668-54.385h3.735l12.138 32.911c2.335 7.625 5.836 14.083 10.504 19.373 4.824 5.135 10.504 9.026 17.039 11.671 6.691 2.645 13.927 3.967 21.707 3.967 7.002 0 12.915-0.934 17.74-2.8 4.98-2.023 8.792-4.825 11.438-8.403s3.967-7.859 3.967-12.838c0-5.601-1.4-10.582-4.202-14.938-2.801-4.512-7.547-9.026-14.238-13.538-6.535-4.668-15.405-9.648-26.61-14.939-14.316-7.469-25.676-14.16-34.078-20.073-8.247-5.913-14.16-11.749-17.739-17.506-3.58-5.913-5.369-12.215-5.369-18.906 0-6.536 1.479-12.526 4.436-17.974 3.111-5.447 7.547-10.192 13.304-14.238s12.683-7.158 20.774-9.337c8.092-2.178 17.117-3.268 27.076-3.268 9.025 0 17.428 0.778 25.21 2.334 7.936 1.556 15.094 3.656 21.477 6.302 6.534 2.645 11.982 5.679 16.338 9.103l-8.635 51.118h-3.737l-5.601-21.007c-3.114-10.582-6.927-19.063-11.439-25.442-4.513-6.536-9.803-11.281-15.873-14.238-5.913-3.113-12.837-4.668-20.774-4.668-7.781 0-14.472 0.934-20.074 2.8-5.447 1.868-9.648 4.59-12.605 8.17-2.801 3.578-4.202 7.858-4.202 12.838 0 5.136 1.634 10.036 4.902 14.705 3.268 4.513 8.792 9.337 16.572 14.472 7.781 4.98 18.284 10.66 31.511 17.040 10.427 4.823 19.063 9.414 25.909 13.772 7.003 4.202 12.605 8.403 16.808 12.605 4.356 4.202 7.466 8.481 9.338 12.837 1.865 4.358 2.797 9.181 2.797 14.472 0 6.536-1.322 12.293-3.966 17.272-2.491 4.824-5.914 9.025-10.27 12.604-4.356 3.423-9.415 6.302-15.173 8.636-5.758 2.178-11.982 3.813-18.673 4.902-6.535 1.089-13.149 1.634-19.841 1.634zM842.187 334.035c-9.804 0-16.804-2.8-21.008-8.403s-6.304-14.005-6.304-25.209v-81.929h-15.872v-2.334l16.109-2.334 28.939-38.28h3.508v36.179l24.041 4.434v2.334h-24.041v92.666c0 5.447 0.772 9.414 2.331 11.904 1.712 2.334 3.966 3.502 6.77 3.502 2.491 0 4.899-0.779 7.237-2.334 2.331-1.712 4.669-3.813 7-6.302l0.703 3.267c-1.712 1.557-3.737 3.113-6.075 4.668-2.178 1.557-4.509 2.957-7 4.202s-5.135 2.178-7.932 2.801c-2.652 0.778-5.448 1.167-8.406 1.167zM886.448 330.534v-2.334l12.609-3.034v-103.87h-13.542v-2.567l46.217-8.403v36.646l1.865 1.867c2.178-5.135 4.279-9.726 6.304-13.772 2.178-4.202 4.356-7.625 6.534-10.27 3.737-4.98 7.779-8.636 12.143-10.97 4.509-2.334 9.491-3.501 14.932-3.501 3.737 0 7.313 0.778 10.736 2.334 3.423 1.4 6.228 3.657 8.406 6.769 2.178 2.957 3.27 6.769 3.27 11.438 0 3.579-0.94 6.847-2.804 9.803s-4.432 5.291-7.703 7.002c-3.27 1.712-7.237 2.567-11.906 2.567-4.043 0-7.703-0.7-10.966-2.101-3.27-1.556-5.838-3.578-7.703-6.069-1.712-2.645-2.567-5.601-2.567-8.87 0-1.245 0.077-2.334 0.23-3.268 0.313-1.089 0.55-2.101 0.703-3.035 0.313-0.933 0.466-1.789 0.466-2.567 0-1.089-0.389-1.635-1.169-1.635-1.399 0-3.11 1.323-5.135 3.969-1.865 2.645-4.119 6.691-6.763 12.137-1.406 3.113-2.881 6.691-4.44 10.738-1.552 4.046-3.034 8.325-4.432 12.838v62.789l12.838 3.034v2.334h-58.124zM1069.37 210.325c10.118 0 19.066 1.478 26.845 4.435s14.313 7.236 19.601 12.838c5.296 5.601 9.262 12.293 11.906 20.073 2.804 7.625 4.203 16.106 4.203 25.442 0 8.558-1.399 16.572-4.203 24.042-2.644 7.313-6.61 13.772-11.906 19.373-5.288 5.447-11.822 9.726-19.601 12.838-7.627 3.113-16.575 4.668-26.845 4.668s-19.372-1.556-27.312-4.668c-7.78-3.113-14.313-7.391-19.601-12.838-5.135-5.601-9.025-12.060-11.677-19.373-2.644-7.47-3.966-15.484-3.966-24.042 0-9.337 1.399-17.817 4.203-25.442 2.957-7.78 7.084-14.472 12.372-20.073 5.449-5.602 12.058-9.881 19.838-12.838s16.498-4.435 26.142-4.435zM1069.606 213.125c-6.694 0-12.219 2.645-16.575 7.936s-7.627 12.449-9.804 21.474c-2.025 9.025-3.034 19.218-3.034 30.578 0 7.936 0.543 15.483 1.636 22.641 1.085 7.002 2.797 13.149 5.136 18.44 2.491 5.291 5.601 9.492 9.339 12.604 3.729 2.957 8.092 4.435 13.068 4.435 4.983 0 9.262-1.478 12.838-4.435 3.737-2.957 6.847-7.080 9.339-12.372 2.491-5.447 4.28-11.671 5.364-18.673 1.093-7.003 1.636-14.55 1.636-22.641 0-8.403-0.543-16.262-1.636-23.575-1.085-7.314-2.797-13.694-5.136-19.141-2.331-5.446-5.364-9.648-9.101-12.605-3.576-3.112-7.932-4.668-13.068-4.668zM1173.634 380.718c-5.907 0-10.966-1.012-15.169-3.034-4.043-1.867-7.16-4.512-9.339-7.936-2.017-3.267-3.034-6.925-3.034-10.971 0-2.646 0.543-4.979 1.636-7.002 1.245-1.868 2.804-3.502 4.669-4.902 2.025-1.245 4.203-2.178 6.534-2.8 2.491-0.623 4.983-0.934 7.474-0.934 2.949 0 5.755 0.467 8.399 1.401 2.644 1.089 4.822 2.567 6.534 4.435 1.712 2.024 2.568 4.591 2.568 7.703 0 2.178-0.305 4.202-0.932 6.069-0.466 1.867-1.161 3.579-2.101 5.135-0.932 1.557-1.712 2.801-2.331 3.736-0.466 1.089-0.703 1.945-0.703 2.567 0 1.089 1.406 1.635 4.203 1.635 2.804 0 5.678-1.168 8.635-3.502s5.762-5.757 8.406-10.271c2.025-3.111 4.203-7.469 6.534-13.072 2.339-5.447 4.592-11.592 6.771-18.44h-16.338l-45.752-112.040-13.771-2.101v-2.567h62.785v2.567l-13.534 2.101 34.074 85.43h3.034l15.177-42.714c0.78-2.49 1.322-5.135 1.636-7.936 0.466-2.802 0.696-5.602 0.696-8.403 0-3.113-0.313-6.302-0.932-9.57-0.466-3.423-1.559-6.536-3.271-9.337-1.552-2.957-3.729-5.291-6.534-7.003-2.797-1.867-6.381-2.8-10.736-2.8v-2.334h52.988v2.334l-14.474 2.334-41.549 112.039c-3.271 8.87-6.144 16.184-8.635 21.941s-4.592 9.882-6.304 12.372c-2.957 4.824-6.61 8.636-10.966 11.437-4.363 2.957-9.804 4.435-16.346 4.435z"></path>
    </symbol>
    <symbol version="1.1" xmlns="http://www.w3.org/2000/svg" viewBox="0 0 529 512" id="pocket">
        <path fill="currentColor" d="M55.672 455.111v-398.223c0 0 0 10.549 0 31.644s0 48.474 0 82.133v170.667c0 33.659 0 61.036 0 82.133s0 31.644 0 31.644zM55.672 512c-15.309 0-28.416-5.57-39.318-16.711s-16.354-24.534-16.354-40.178v-398.223c0-15.645 5.451-29.037 16.354-40.178s24.009-16.711 39.318-16.711h389.7c15.31 0 28.416 5.571 39.318 16.711s16.353 24.533 16.353 40.178v71.111h-55.671v-71.111h-389.7v398.223h389.7v-71.111h55.671v71.111c0 15.644-5.451 29.037-16.353 40.178-10.903 11.141-24.009 16.711-39.318 16.711h-389.7zM278.358 398.223c-15.31 0-28.416-5.57-39.318-16.712s-16.353-24.533-16.353-40.178v-170.667c0-15.644 5.452-29.036 16.353-40.178s24.009-16.712 39.318-16.712h194.851c15.31 0 28.416 5.57 39.318 16.712s16.354 24.533 16.354 40.178v170.667c0 15.644-5.452 29.036-16.354 40.178s-24.009 16.712-39.317 16.712h-194.851zM473.208 341.334v-170.667h-194.851v170.667h194.851zM361.865 298.666c11.598 0 21.457-4.148 29.575-12.445s12.178-18.37 12.178-30.222-4.059-21.926-12.178-30.222c-8.119-8.297-17.978-12.445-29.575-12.445s-21.457 4.148-29.575 12.445c-8.119 8.296-12.178 18.37-12.178 30.222s4.060 21.926 12.178 30.222c8.119 8.296 17.978 12.445 29.575 12.445z"></path>
    </symbol>
    <symbol version="1.1" xmlns="http://www.w3.org/2000/svg" viewBox="0 0 720 512" id="money">
        <path fill="currentColor" d="M425.558 288c-27.279 0-50.467-9.334-69.563-28s-28.644-41.333-28.644-68 9.548-49.333 28.644-68c19.096-18.666 42.284-28 69.563-28s50.467 9.334 69.562 28 28.644 41.333 28.644 68c0 26.667-9.548 49.333-28.644 68s-42.284 28-69.562 28zM196.411 384c-18.005 0-33.417-6.267-46.238-18.8s-19.232-27.6-19.232-45.2v-256c0-17.6 6.411-32.666 19.232-45.2s28.234-18.8 46.238-18.8h458.296c18.005 0 33.415 6.266 46.237 18.8s19.231 27.6 19.231 45.2v256c0 17.6-6.409 32.666-19.231 45.2s-28.233 18.8-46.237 18.8h-458.296zM261.882 320h327.351c0-17.6 6.414-32.666 19.231-45.2 12.822-12.534 28.239-18.8 46.243-18.8v-128c-18.005 0-33.42-6.266-46.243-18.8-12.817-12.534-19.231-27.6-19.231-45.2h-327.351c0 17.6-6.411 32.666-19.232 45.2s-28.234 18.8-46.239 18.8v128c18.005 0 33.417 6.267 46.238 18.8s19.232 27.6 19.232 45.2zM621.967 512h-556.496c-18.005 0-33.417-6.267-46.239-18.8s-19.232-27.6-19.232-45.2v-352h65.471v352h556.496v64zM196.411 320v0z"></path>
    </symbol>
    <symbol version="1.1" xmlns="http://www.w3.org/2000/svg" viewBox="0 0 411 512" id="guarantee">
        <path fill="currentColor" d="M178.409 346.88l145.037-144.64-36.581-36.48-108.457 108.16-53.908-53.76-36.58 36.481 90.488 90.24zM205.363 512c-59.469-14.933-108.564-48.96-147.284-102.080s-58.080-112.106-58.080-176.96v-156.16l205.363-76.8 205.363 76.8v156.16c0 64.853-19.36 123.84-58.079 176.96s-87.814 87.147-147.284 102.080zM205.363 458.24c44.495-14.080 81.29-42.24 110.382-84.48 29.094-42.24 43.64-89.173 43.64-140.8v-120.96l-154.022-57.599-154.022 57.599v120.96c0 51.627 14.546 98.56 43.639 140.8s65.887 70.4 110.382 84.48z"></path>
    </symbol>
    <symbol version="1.1" xmlns="http://www.w3.org/2000/svg" viewBox="0 0 512 512" id="clock">
        <path fill="currentColor" d="M340.48 376.32l35.84-35.84-94.72-94.72v-117.76h-51.2v138.24l110.080 110.080zM256 512c-35.413 0-68.694-6.72-99.84-20.16s-58.24-31.68-81.279-54.72c-23.041-23.040-41.281-50.134-54.721-81.281s-20.16-64.426-20.16-99.84c0-35.413 6.72-68.694 20.16-99.84s31.68-58.24 54.721-81.279c23.040-23.041 50.133-41.281 81.279-54.721s64.427-20.16 99.84-20.16c35.413 0 68.693 6.72 99.84 20.16s58.24 31.68 81.281 54.721c23.040 23.040 41.279 50.133 54.72 81.279s20.16 64.427 20.16 99.84-6.72 68.694-20.16 99.84c-13.44 31.147-31.68 58.24-54.72 81.281s-50.134 41.279-81.281 54.72c-31.173 13.452-99.84 20.16-99.84 20.16zM256 460.8c56.746 0 105.067-19.947 144.96-59.84s59.84-88.214 59.84-144.96c0-56.746-19.947-105.067-59.84-144.96s-88.214-59.84-144.96-59.84c-56.746 0-105.067 19.947-144.96 59.84s-59.84 88.213-59.84 144.96c0 56.746 19.947 105.067 59.84 144.96 36.964 36.964 144.96 59.84 144.96 59.84z"></path>
    </symbol>
    <symbol version="1.1" xmlns="http://www.w3.org/2000/svg" viewBox="0 0 512 512" id="arrow-left">
        <path fill="none" stroke-linejoin="miter" stroke-linecap="butt" stroke-miterlimit="4" stroke-width="28.4444" stroke="currentColor" d="M256.726 496.333h-1.451c-133.13 0-241.053-107.923-241.053-241.053s107.923-241.053 241.053-241.053h1.451c133.13 0 241.053 107.923 241.053 241.053s-107.923 241.053-241.053 241.053z"></path>
        <path fill="none" stroke-linejoin="miter" stroke-linecap="butt" stroke-miterlimit="4" stroke-width="28.4444" stroke="currentColor" d="M336.454 255.283h-160.906M247.061 326.797l-71.513-71.513 71.513-71.513"></path>
    </symbol>
    <symbol version="1.1" xmlns="http://www.w3.org/2000/svg" viewBox="0 0 512 512" id="arrow-right">
        <path fill="none" stroke-linejoin="miter" stroke-linecap="butt" stroke-miterlimit="4" stroke-width="28.4444" stroke="currentColor" d="M256 14.222c133.53 0 241.778 108.248 241.778 241.778s-108.248 241.778-241.778 241.778c-133.53 0-241.778-108.248-241.778-241.778s108.248-241.778 241.778-241.778z"></path>
        <path fill="none" stroke-linejoin="miter" stroke-linecap="butt" stroke-miterlimit="4" stroke-width="28.4444" stroke="currentColor" d="M175.547 255.994h160.907M264.938 184.481l71.515 71.513-71.515 71.513"></path>
    </symbol>

    <symbol version="1.1" xmlns="http://www.w3.org/2000/svg" viewBox="0 0 683 512" id="arrow-long-right">
        <path fill="currentColor" d="M431.407 464.593l-47.289-46.459 152.652-152.651h-536.77v-66.37h536.77l-151.822-152.652 46.459-46.459 232.299 232.296-232.298 232.297z"></path>
    </symbol>


    <symbol version="1.1" xmlns="http://www.w3.org/2000/svg" viewBox="0 0 512 512" id="medal">
        <path fill="currentColor" d="M256 58.666c-73.638 0-133.333 59.695-133.333 133.334s59.696 133.333 133.333 133.333c73.639 0 133.333-59.695 133.333-133.333s-59.695-133.333-133.333-133.333zM90.666 192c0-91.311 74.022-165.333 165.334-165.333s165.333 74.022 165.333 165.333c0 47.475-20.010 90.276-52.058 120.431 0.557 1.039 1.007 2.154 1.331 3.339l13.856 50.543c6.474 23.61 11.688 42.626 14.058 57.382 2.325 14.464 2.801 29.363-5.293 41.474-4.608 6.895-10.865 12.542-18.262 16.307-13.435 6.841-28.089 3.469-41.216-1.487-13.389-5.056-30.204-13.817-50.856-24.578l-0.994-0.519c-15.45-8.051-19.483-9.858-23.36-10.27-1.69-0.182-3.392-0.182-5.082 0-3.876 0.411-7.911 2.219-23.36 10.27l-0.994 0.519c-20.653 10.76-37.467 19.522-50.857 24.578-13.127 4.955-27.78 8.329-41.215 1.487-7.395-3.765-13.653-9.413-18.261-16.307-8.094-12.111-7.618-27.010-5.294-41.474 2.371-14.757 7.585-33.773 14.059-57.382l13.857-50.543c0.325-1.184 0.774-2.3 1.33-3.339-32.047-30.154-52.056-72.956-52.056-120.431zM169.816 333.122l-11.149 40.666c-6.806 24.825-11.534 42.154-13.595 54.985-2.142 13.329-0.546 17.344 0.304 18.615 1.661 2.486 3.813 4.369 6.176 5.572 0.488 0.248 3.544 1.563 15.394-2.91 11.374-4.293 26.479-12.132 48.367-23.537 0.743-0.386 1.478-0.77 2.206-1.15 12.118-6.332 21.864-11.422 32.55-12.561 3.942-0.421 7.919-0.421 11.862 0 10.686 1.139 20.433 6.229 32.55 12.561 0.728 0.38 1.464 0.764 2.206 1.15 21.888 11.405 36.992 19.245 48.367 23.537 11.851 4.474 14.906 3.158 15.394 2.91 2.361-1.203 4.514-3.087 6.176-5.572 0.849-1.272 2.447-5.286 0.303-18.615-2.061-12.83-6.788-30.159-13.594-54.985l-11.151-40.666c-25.094 15.358-54.605 24.211-86.183 24.211s-61.088-8.853-86.183-24.211zM256 150.069c-1.239 2.147-2.619 4.619-4.245 7.535l-2.097 3.762c-0.147 0.266-0.305 0.555-0.476 0.867-1.674 3.064-4.45 8.137-9.075 11.649-4.723 3.585-10.405 4.819-13.726 5.54-0.333 0.072-0.642 0.139-0.923 0.203l-4.072 0.922c-3.738 0.845-6.782 1.536-9.385 2.19 1.694 2.084 3.891 4.672 6.752 8.017l2.778 3.246c0.196 0.231 0.411 0.477 0.638 0.74 2.304 2.652 6.020 6.934 7.739 12.463 1.701 5.463 1.113 11.089 0.744 14.638-0.038 0.354-0.072 0.687-0.102 0.999l-0.421 4.333c-0.388 4.015-0.691 7.221-0.892 9.828 2.223-0.979 4.751-2.144 7.755-3.526l3.815-1.756c0.262-0.121 0.55-0.256 0.859-0.403 3.061-1.445 8.388-3.955 14.334-3.955s11.272 2.511 14.334 3.955c0.31 0.147 0.598 0.281 0.86 0.403l3.815 1.756c3.003 1.382 5.531 2.547 7.755 3.526-0.2-2.607-0.503-5.814-0.892-9.828l-0.421-4.333c-0.030-0.311-0.064-0.644-0.103-0.999-0.369-3.55-0.955-9.175 0.745-14.638 1.719-5.529 5.435-9.811 7.74-12.463 0.226-0.263 0.442-0.51 0.638-0.74l2.777-3.246c2.861-3.345 5.058-5.933 6.752-8.017-2.603-0.654-5.647-1.344-9.385-2.19l-4.072-0.922c-0.281-0.064-0.591-0.131-0.923-0.203-3.322-0.721-9.002-1.955-13.726-5.54-4.625-3.512-7.401-8.585-9.075-11.649-0.171-0.311-0.329-0.601-0.476-0.867l-2.097-3.762c-1.625-2.916-3.006-5.388-4.245-7.535zM234.954 123.725c3.673-4.796 10.343-11.725 21.046-11.725s17.372 6.93 21.046 11.725c3.505 4.578 7.036 10.914 10.656 17.411 0.164 0.296 0.329 0.591 0.493 0.887l2.099 3.762c0.486 0.873 0.868 1.559 1.203 2.147 0.582 0.137 1.261 0.291 2.108 0.482l4.072 0.922c0.335 0.076 0.668 0.151 1 0.226 6.995 1.581 13.945 3.15 19.279 5.254 5.892 2.321 13.877 6.843 16.954 16.739 3.025 9.722-0.791 17.958-4.123 23.25-3.082 4.899-7.769 10.376-12.567 15.984-0.217 0.254-0.433 0.507-0.651 0.761l-2.777 3.246c-0.736 0.859-1.291 1.511-1.755 2.071 0.062 0.774 0.149 1.677 0.267 2.885l0.421 4.333c0.032 0.331 0.064 0.659 0.096 0.99 0.729 7.507 1.433 14.762 1.175 20.567-0.271 6.084-1.733 15.296-9.993 21.566-8.521 6.469-17.93 5.060-23.897 3.349-5.498-1.575-11.995-4.57-18.538-7.584-0.313-0.145-0.627-0.288-0.941-0.433l-3.813-1.755c-0.714-0.329-1.299-0.598-1.811-0.83-0.512 0.233-1.096 0.502-1.811 0.83l-3.813 1.755c-0.314 0.145-0.627 0.288-0.941 0.433-6.543 3.014-13.041 6.010-18.538 7.584-5.967 1.711-15.377 3.119-23.899-3.349-8.26-6.27-9.72-15.482-9.991-21.566-0.258-5.805 0.446-13.060 1.175-20.567 0.032-0.331 0.064-0.659 0.096-0.99l0.419-4.333c0.117-1.208 0.204-2.11 0.268-2.885-0.467-0.561-1.022-1.212-1.757-2.071l-2.776-3.246c-0.217-0.254-0.435-0.507-0.651-0.761-4.798-5.608-9.485-11.086-12.569-15.984-3.332-5.293-7.147-13.528-4.124-23.25 3.078-9.897 11.063-14.418 16.954-16.739 5.335-2.102 12.286-3.673 19.279-5.254 0.334-0.076 0.667-0.15 1-0.226l4.075-0.922c0.847-0.192 1.525-0.345 2.107-0.482 0.335-0.588 0.717-1.274 1.203-2.147l2.099-3.762c0.165-0.296 0.328-0.591 0.493-0.887 3.62-6.496 7.151-12.834 10.656-17.411z"></path>
    </symbol>
    <symbol version="1.1" xmlns="http://www.w3.org/2000/svg" viewBox="0 0 512 512" id="wallet">
        <path fill="currentColor" d="M405.334 256c0 11.783-9.551 21.334-21.334 21.334s-21.334-9.551-21.334-21.334c0-11.782 9.551-21.334 21.334-21.334s21.334 9.551 21.334 21.334z"></path>
        <path fill="currentColor" d="M212.13 69.334h66.407c39.207-0.001 70.259-0.001 94.562 3.267 25.011 3.362 45.257 10.448 61.223 26.413 19.719 19.721 26.003 46.131 28.286 80.402 12.313 5.419 21.613 16.88 22.637 31.397 0.091 1.285 0.089 2.669 0.089 3.951 0 0.118 0 0.232 0 0.347v81.779c0 0.115 0 0.231 0 0.348 0 1.282 0.002 2.666-0.089 3.951-1.024 14.517-10.323 25.978-22.637 31.397-2.283 34.272-8.567 60.683-28.286 80.403-15.966 15.964-36.211 23.048-61.222 26.413-24.303 3.266-55.356 3.266-94.562 3.266h-66.406c-39.206 0-70.259 0-94.563-3.266-25.011-3.365-45.256-10.449-61.221-26.413-15.965-15.966-23.050-36.211-26.413-61.222-3.268-24.303-3.268-55.356-3.267-94.562v-2.406c-0-39.207-0-70.26 3.267-94.563 3.363-25.012 10.448-45.256 26.413-61.221s36.209-23.050 61.221-26.413c24.303-3.267 55.356-3.267 94.562-3.267zM430.248 336h-41.325c-45.764 0-84.923-34.722-84.923-80s39.159-80 84.923-80h41.325c-2.428-28.618-7.921-43.724-18.555-54.359-9.029-9.028-21.395-14.44-42.856-17.326-21.925-2.948-50.825-2.981-91.503-2.981h-64c-40.679 0-69.579 0.034-91.502 2.981-21.463 2.885-33.829 8.297-42.858 17.326s-14.44 21.394-17.326 42.857c-2.947 21.923-2.981 50.823-2.981 91.502s0.034 69.579 2.981 91.503c2.885 21.462 8.297 33.829 17.326 42.856s21.394 14.44 42.858 17.325c21.924 2.949 50.823 2.983 91.502 2.983h64c40.678 0 69.579-0.034 91.503-2.983 21.462-2.885 33.829-8.296 42.856-17.325 10.635-10.635 16.128-25.741 18.555-54.359zM112 170.667c0 8.837 7.163 16 16 16h85.334c8.837 0 16-7.163 16-16s-7.163-16-16-16h-85.334c-8.837 0-16 7.163-16 16zM446.368 208.005c-0.433-0.005-1-0.005-1.925-0.005h-55.52c-30.366 0-52.923 22.585-52.923 48s22.558 48 52.923 48h55.52c0.923 0 1.491 0 1.925-0.005 0.267-0.005 0.408-0.007 0.474-0.010l0.047-0.002c4.399-0.267 6.289-3.234 6.434-5.019 0 0 0.005-0.135 0.007-0.327 0.005-0.38 0.005-0.883 0.005-1.747v-81.779c0-0.864 0-1.368-0.005-1.747-0.002-0.192-0.007-0.327-0.007-0.327-0.145-1.785-2.035-4.753-6.434-5.020 0 0-0.104-0.007-0.521-0.012z"></path>
    </symbol>

    <symbol version="1.1" xmlns="http://www.w3.org/2000/svg" viewBox="0 0 512 512" id="santeh">
        <path fill="currentColor" d="M414.4 190.934l-75.2-75.2-45.334 44.8-45.334-44.8 60.267-60.8c4.267-4.267 9.067-7.377 14.4-9.334s10.666-2.934 16-2.934c5.69 0 11.111 0.977 16.267 2.934s9.69 5.066 13.6 9.334l45.334 45.334c6.4 6.044 11.111 13.067 14.134 21.067s4.534 16.089 4.534 24.267c0 8.178-1.51 16.178-4.534 24s-7.733 14.934-14.134 21.334zM120.534 289.067c-6.4-6.4-9.6-13.957-9.6-22.666s3.2-16.267 9.6-22.666l52.267-52.8 45.334 45.334-52.8 52.8c-6.044 6.4-13.423 9.6-22.133 9.6s-16.267-3.2-22.666-9.6zM97.6 447.466c-3.911-4.267-6.933-8.977-9.067-14.134s-3.2-10.577-3.2-16.267c0-5.69 0.978-11.111 2.933-16.267s5.067-9.866 9.334-14.134l150.934-150.4-67.733-68.266c-6.4-6.044-9.6-13.423-9.6-22.133s3.2-16.267 9.6-22.666c6.044-6.4 13.511-9.6 22.4-9.6s16.534 3.2 22.934 9.6l67.733 67.734 30.4-30.4 59.733 60.8c4.267 4.267 6.4 9.244 6.4 14.934s-2.134 10.667-6.4 14.934c-4.267 4.267-9.243 6.4-14.933 6.4s-10.666-2.133-14.933-6.4l-196.267 196.267c-4.267 4.267-8.977 7.377-14.133 9.334s-10.4 2.933-15.733 2.933c-5.334 0-10.666-1.067-16-3.2s-10.133-5.156-14.4-9.067z"></path>
    </symbol>
    <symbol version="1.1" xmlns="http://www.w3.org/2000/svg" viewBox="0 0 512 512" id="climat">
        <path fill="currentColor" d="M234.667 469.334v-88.534l-69.333 68.267-29.867-29.866 99.2-99.2v-42.666h-42.666l-99.2 99.2-29.867-29.866 68.266-69.334h-88.534v-42.666h88.534l-68.266-69.334 29.867-29.867 99.2 99.2h42.666v-42.666l-99.2-99.2 29.867-29.867 69.333 68.266v-88.534h42.666v88.534l69.334-68.266 29.866 29.867-99.2 99.2v42.666h42.666l99.2-99.2 29.866 29.867-68.267 69.333h88.534v42.666h-88.534l68.267 69.334-29.866 29.866-99.2-99.2h-42.666v42.666l99.2 99.2-29.866 29.866-69.334-68.267v88.534h-42.666z"></path>
    </symbol>
    <symbol version="1.1" xmlns="http://www.w3.org/2000/svg" viewBox="0 0 512 512" id="wifi">
        <path fill="currentColor" d="M106.666 469.334c-11.734 0-21.778-4.177-30.133-12.534s-12.534-18.4-12.534-30.134v-85.334c0-11.733 4.177-21.777 12.534-30.134s18.4-12.534 30.133-12.534h213.334v-85.334h42.666v85.334h42.666c11.733 0 21.777 4.177 30.134 12.534s12.534 18.4 12.534 30.134v85.334c0 11.733-4.177 21.777-12.534 30.134s-18.4 12.534-30.134 12.534h-298.666zM106.666 426.666h298.666v-85.334h-298.666v85.334zM149.333 405.334c6.044 0 11.111-2.043 15.2-6.134s6.133-9.156 6.133-15.2c0-6.043-2.044-11.111-6.133-15.2s-9.155-6.134-15.2-6.134c-6.044 0-11.111 2.043-15.2 6.134s-6.133 9.156-6.133 15.2c0 6.043 2.044 11.111 6.133 15.2s9.155 6.134 15.2 6.134zM224 405.334c6.043 0 11.111-2.043 15.2-6.134s6.133-9.156 6.133-15.2c0-6.043-2.043-11.111-6.133-15.2s-9.156-6.134-15.2-6.134c-6.043 0-11.111 2.043-15.2 6.134s-6.133 9.156-6.133 15.2c0 6.043 2.044 11.111 6.133 15.2s9.156 6.134 15.2 6.134zM298.666 405.334c6.043 0 11.111-2.043 15.2-6.134s6.134-9.156 6.134-15.2c0-6.043-2.043-11.111-6.134-15.2s-9.156-6.134-15.2-6.134c-6.043 0-11.111 2.043-15.2 6.134s-6.134 9.156-6.134 15.2c0 6.043 2.043 11.111 6.134 15.2s9.156 6.134 15.2 6.134zM304 197.333l-30.933-30.934c9.243-8.534 19.557-15.289 30.933-20.267s23.823-7.466 37.334-7.466c13.51 0 25.957 2.489 37.334 7.466s21.69 11.733 30.933 20.267l-30.933 30.934c-4.977-4.977-10.577-8.889-16.8-11.733s-13.067-4.267-20.534-4.267c-7.466 0-14.31 1.423-20.534 4.267s-11.823 6.756-16.8 11.733zM250.667 144l-29.867-29.867c15.643-15.644 33.777-27.911 54.4-36.8s42.666-13.334 66.133-13.334c23.466 0 45.51 4.445 66.134 13.334s38.757 21.156 54.4 36.8l-29.866 29.867c-11.733-11.733-25.334-20.889-40.8-27.466s-32.089-9.867-49.867-9.867c-17.777 0-34.4 3.289-49.866 9.867s-29.067 15.733-40.8 27.466zM106.666 426.666v0z"></path>
    </symbol>
    <symbol version="1.1" xmlns="http://www.w3.org/2000/svg" viewBox="0 0 512 512" id="smart">
        <path fill="currentColor" d="M117.334 384c14.933 0 27.556-5.156 37.866-15.466s15.466-22.933 15.466-37.866c0-8.534-1.956-16.889-5.867-25.067s-9.778-14.757-17.6-19.733l-19.2-12.8v-134.4c0-3.2-0.978-5.778-2.933-7.733s-4.534-2.934-7.734-2.934c-3.2 0-5.778 0.977-7.734 2.934s-2.933 4.534-2.933 7.733v134.4l-19.2 12.8c-7.823 5.334-13.689 11.911-17.6 19.733s-5.867 16.177-5.867 25.067c0 14.933 5.156 27.557 15.466 37.866s22.933 15.466 37.867 15.466zM117.334 426.666c-26.666 0-49.334-9.243-68-27.733s-28-41.243-28-68.267c0-17.067 3.911-32.356 11.733-45.867s18.134-24.534 30.934-33.066v-113.066c0-14.933 5.156-27.555 15.466-37.867s22.933-15.466 37.867-15.466c14.933 0 27.556 5.156 37.866 15.466s15.466 22.933 15.466 37.867v113.067c12.8 8.534 23.111 19.556 30.934 33.067s11.733 28.8 11.733 45.867c0 26.666-9.333 49.334-28 68s-41.333 28-68 28zM291.733 320c-17.067-11.733-30.933-26.844-41.6-45.334s-16-38.934-16-61.334c0-35.555 12.444-65.778 37.333-90.666s55.111-37.334 90.666-37.334c35.556 0 65.777 12.445 90.666 37.334s37.334 55.111 37.334 90.666c0 22.4-5.334 42.844-16 61.334s-24.534 33.6-41.6 45.334h-140.8zM306.666 277.334h113.067c9.6-8.534 16.623-18.134 21.067-28.8s6.666-22.4 6.666-35.2c0-23.466-8.356-43.555-25.067-60.267s-36.8-25.066-60.267-25.066c-23.466 0-43.556 8.356-60.267 25.066s-25.067 36.8-25.067 60.267c0 12.8 2.577 24.534 7.733 35.2s12.534 20.267 22.134 28.8zM362.134 426.666c-8.534 0-16-3.2-22.4-9.6s-9.6-13.866-9.6-22.4h64c0 8.534-3.2 16-9.6 22.4s-13.866 9.6-22.4 9.6zM298.134 384v-42.666h128v42.666h-128z"></path>
    </symbol>
    <symbol version="1.1" xmlns="http://www.w3.org/2000/svg" viewBox="0 0 512 512" id="remont">
        <path fill="currentColor" d="M144 448l-5.333-46.933 60.8-167.466c5.333 4.977 11.111 9.156 17.334 12.534s12.889 5.957 20 7.733l-58.666 161.066-34.133 33.067zM368 448l-34.134-33.067-58.666-161.066c7.111-1.777 13.777-4.357 20-7.733s12-7.556 17.334-12.534l60.8 167.467-5.334 46.933zM256 234.667c-17.777 0-32.889-6.223-45.334-18.667-12.445-12.445-18.666-27.555-18.666-45.334 0-13.867 4-26.222 12-37.066s18.223-18.4 30.666-22.666v-46.934h42.666v46.934c12.443 4.266 22.666 11.823 30.666 22.666s12 23.2 12 37.066c0 17.778-6.223 32.889-18.666 45.334-12.443 12.444-27.557 18.666-45.334 18.666zM256 192c6.043 0 11.111-2.044 15.2-6.133s6.134-9.155 6.134-15.2c0-6.044-2.043-11.111-6.134-15.2s-9.156-6.133-15.2-6.133c-6.043 0-11.111 2.044-15.2 6.133s-6.133 9.155-6.133 15.2c0 6.044 2.043 11.111 6.133 15.2s9.156 6.133 15.2 6.133z"></path>
    </symbol>
    <symbol version="1.1" xmlns="http://www.w3.org/2000/svg" viewBox="0 0 512 512" id="electricity">
        <path fill="currentColor" d="M225.066 388.267l110.4-132.267h-85.334l15.466-121.067-98.666 142.4h74.133l-16 110.933zM170.667 469.334l21.333-149.334h-106.666l192-277.334h42.666l-21.334 170.667h128l-213.333 256h-42.667z"></path>
    </symbol>


    <symbol version="1.1" fill="currentColor" xmlns="http://www.w3.org/2000/svg" viewBox="0 0 512 512" id="building">
        <path d="M282.666 341.346c0-14.728-11.938-26.666-26.666-26.666s-26.666 11.938-26.666 26.666v69.334h53.334v-69.334zM314.666 410.68h96v-166.355c0-12.214-0.128-15.518-0.875-18.375-0.77-2.94-2.026-5.721-3.729-8.228-1.659-2.442-4.066-4.715-13.25-12.75l-102.395-89.583c-8.147-7.13-13.589-11.889-18.084-15.25-4.33-3.237-6.829-4.426-8.77-5-4.935-1.459-10.191-1.458-15.125 0-1.937 0.573-4.441 1.763-8.77 5-4.487 3.356-9.911 8.094-18.042 15.209l-102.438 89.625c-9.185 8.037-11.591 10.306-13.25 12.75-1.719 2.532-2.968 5.319-3.729 8.228-0.745 2.85-0.875 6.137-0.875 18.375v166.355h96v-69.334c0-32.401 26.266-58.666 58.667-58.666s58.666 26.265 58.666 58.666v69.334zM442.666 410.68h26.666c8.837 0 16 7.163 16 16-0.005 8.832-7.166 16-16 16h-426.666c-8.834 0-15.995-7.168-16-16 0-8.837 7.163-16 16-16h26.666v-166.355c0-10.558-0.13-18.701 1.896-26.458 1.695-6.489 4.513-12.6 8.25-18.104 4.499-6.629 10.653-11.899 18.625-18.875l102.438-89.625c7.763-6.793 14.257-12.487 19.958-16.75 5.863-4.383 11.838-7.987 18.855-10.063 10.858-3.212 22.434-3.212 33.293 0 7.019 2.076 12.986 5.675 18.854 10.063 5.709 4.269 12.219 9.984 20 16.791l102.395 89.584c7.968 6.974 14.146 12.246 18.645 18.875 3.752 5.529 6.522 11.649 8.209 18.104 2.024 7.752 1.916 15.874 1.916 26.458v166.355z"></path>
    </symbol>
    <symbol version="1.1" fill="currentColor" xmlns="http://www.w3.org/2000/svg" viewBox="0 0 512 512" id="building-home">
        <path d="M318.89 26.666h44.885c19.168-0 35.151-0.001 47.84 1.704 13.393 1.8 25.485 5.762 35.2 15.479 9.717 9.717 13.679 21.809 15.479 35.202 1.707 12.689 1.704 28.672 1.704 47.84v326.442h5.334c8.837 0 16 7.163 16 16s-7.163 16-16 16h-426.666c-8.837 0-16-7.163-16-16s7.163-16 16-16h5.334v-262.442c-0.001-19.167-0.002-35.151 1.705-47.839 1.8-13.393 5.761-25.484 15.479-35.202s21.808-13.677 35.202-15.478c12.689-1.706 28.672-1.706 47.839-1.704h71.040c1.096-18.649 4.536-34.767 16.587-46.817 9.715-9.717 21.807-13.678 35.2-15.479 12.689-1.706 28.672-1.706 47.84-1.704zM234.811 122.666c-0.028 0-0.054 0-0.081 0-0.022 0-0.042 0-0.064 0h-85.333c-20.565 0-34.38 0.034-44.685 1.419-9.844 1.323-14.058 3.611-16.838 6.391s-5.067 6.994-6.391 16.838c-1.385 10.305-1.419 24.119-1.419 44.685v261.334h96v-48c0-8.837 7.163-16 16-16s16 7.163 16 16v48h96v-261.334c0-20.565-0.034-34.38-1.418-44.685-1.325-9.845-3.611-14.058-6.392-16.838s-6.993-5.067-16.839-6.391c-10.281-1.382-24.053-1.419-44.54-1.419zM336 453.334h96v-325.334c0-20.566-0.034-34.38-1.418-44.685-1.325-9.844-3.611-14.058-6.392-16.838s-6.993-5.068-16.839-6.391c-10.304-1.386-24.12-1.419-44.685-1.419h-42.666c-20.565 0-34.381 0.034-44.685 1.419-9.846 1.324-14.058 3.611-16.839 6.391-3.68 3.68-6.029 9.303-7.097 24.228 12.403 0.099 23.162 0.446 32.237 1.665 13.393 1.8 25.485 5.761 35.2 15.478 9.717 9.716 13.679 21.808 15.479 35.201 1.707 12.689 1.704 28.672 1.704 47.84v262.442zM112 170.667c0 8.837 7.163 16 16 16h128c8.837 0 16-7.163 16-16s-7.163-16-16-16h-128c-8.837 0-16 7.163-16 16zM112 234.667c0 8.837 7.163 16 16 16h128c8.837 0 16-7.163 16-16s-7.163-16-16-16h-128c-8.837 0-16 7.163-16 16zM112 298.666c0 8.837 7.163 16 16 16h128c8.837 0 16-7.163 16-16s-7.163-16-16-16h-128c-8.837 0-16 7.163-16 16z"></path>
    </symbol>
    <symbol version="1.1" fill="currentColor" xmlns="http://www.w3.org/2000/svg" viewBox="0 0 512 512" id="hotel">
        <path d="M321.489 190.309c9.041 0 16.371 7.338 16.371 16.391 0 9.051-7.33 16.39-16.371 16.39h-130.977c-9.042 0-16.372-7.339-16.372-16.39s7.33-16.391 16.372-16.391h130.978z"></path>
        <path d="M321.489 124.748c9.041 0 16.371 7.338 16.371 16.39s-7.33 16.39-16.371 16.39h-130.977c-9.042 0-16.372-7.338-16.372-16.39s7.33-16.391 16.372-16.391h130.978z"></path>
        <path d="M317.118 37.334c11.955 0 21.918-0.023 30.016 0.641 8.288 0.678 16.070 2.158 23.428 5.912 11.272 5.752 20.478 14.93 26.242 26.25 3.748 7.365 5.229 15.162 5.905 23.454 0.661 8.102 0.64 18.061 0.64 30.006 0 42.291 0 84.536 0 126.811v202.146h70.946c9.041 0 16.371 7.339 16.371 16.39s-7.33 16.39-16.371 16.39h-436.59c-9.042 0-16.372-7.339-16.372-16.39s7.33-16.39 16.372-16.39h70.945v-328.893c0-11.969-0.022-21.936 0.639-30.049 0.677-8.302 2.153-16.105 5.905-23.475 5.754-11.303 14.931-20.489 26.221-26.25 7.363-3.755 15.156-5.233 23.45-5.912 8.103-0.663 18.059-0.641 30.016-0.641h122.236zM194.881 70.114c-12.495 0-20.889 0.005-27.351 0.534-6.268 0.513-9.259 1.447-11.234 2.454-5.135 2.619-9.3 6.79-11.916 11.93-1.006 1.978-1.94 4.972-2.452 11.247-0.528 6.469-0.533 14.871-0.533 27.381v328.893h229.21v-328.957c0-12.486-0.007-20.881-0.534-27.338-0.51-6.255-1.427-9.252-2.43-11.225-2.605-5.118-6.793-9.302-11.938-11.93-1.978-1.009-4.979-1.942-11.234-2.454-6.455-0.528-14.854-0.534-27.351-0.534h-122.236z"></path>
        <path d="M321.489 260.943c9.041 0 16.371 7.339 16.371 16.39s-7.33 16.39-16.371 16.39h-130.977c-9.042 0-16.372-7.339-16.372-16.39s7.33-16.39 16.372-16.39h130.978z"></path>
        <path d="M321.489 329.886c9.041 0 16.371 7.339 16.371 16.39s-7.33 16.39-16.371 16.39h-130.977c-9.042 0-16.372-7.339-16.372-16.39s7.33-16.39 16.372-16.39h130.978z"></path>
    </symbol>


    <symbol version="1.1" fill="currentColor" xmlns="http://www.w3.org/2000/svg" viewBox="0 0 512 512" id="time">
        <path d="M256 154.667c8.837 0 16 7.163 16 16v78.705l48.647 48.649c6.248 6.248 6.248 16.377 0 22.626s-16.377 6.248-22.626 0l-58.020-58.018v-91.962c0-8.837 7.163-16 16-16z"></path>
        <path d="M108.345 108.136c80.968-80.853 212.587-79.993 294.048 1.469 81.498 81.498 82.323 213.195 1.365 294.153-80.96 80.958-212.656 80.132-294.154-1.365-48.295-48.294-68.239-114.183-59.675-176.661 1.2-8.755 9.27-14.879 18.025-13.678s14.879 9.269 13.679 18.024c-7.253 52.913 9.626 108.717 50.599 149.69 69.216 69.216 180.651 69.611 248.898 1.363s67.851-179.681-1.365-248.898c-69.18-69.18-180.536-69.612-248.792-1.469l15.951 0.080c8.837 0.044 15.964 7.244 15.919 16.080s-7.244 15.964-16.080 15.919l-54.305-0.273c-8.774-0.044-15.875-7.146-15.919-15.919l-0.273-54.305c-0.044-8.837 7.083-16.035 15.919-16.080s16.036 7.083 16.080 15.919l0.080 15.951z"></path>
    </symbol>
    <symbol version="1.1" fill="currentColor" xmlns="http://www.w3.org/2000/svg" viewBox="0 0 512 512" id="mail">
        <path d="M212.13 69.334h87.74c39.207-0.001 70.259-0.001 94.562 3.267 25.011 3.362 45.257 10.448 61.222 26.413 15.964 15.965 23.048 36.209 26.413 61.221 3.266 24.303 3.266 55.356 3.266 94.563v2.407c0 39.207 0 70.259-3.266 94.562-3.365 25.011-10.449 45.257-26.413 61.223-15.966 15.964-36.211 23.048-61.222 26.413-24.303 3.266-55.356 3.266-94.562 3.266h-87.74c-39.206 0-70.259 0-94.563-3.266-25.011-3.365-45.256-10.449-61.221-26.413-15.965-15.966-23.050-36.211-26.413-61.222-3.268-24.303-3.268-55.356-3.267-94.562v-2.406c-0-39.207-0-70.26 3.267-94.563 3.363-25.012 10.448-45.256 26.413-61.221s36.209-23.050 61.221-26.413c24.303-3.267 55.356-3.267 94.562-3.267zM121.832 104.315c-21.463 2.885-33.829 8.297-42.858 17.326s-14.44 21.394-17.326 42.857c-2.947 21.923-2.981 50.823-2.981 91.502s0.034 69.579 2.981 91.503c2.885 21.462 8.297 33.829 17.326 42.856s21.395 14.44 42.858 17.325c21.923 2.949 50.823 2.983 91.502 2.983h85.334c40.678 0 69.579-0.034 91.503-2.983 21.462-2.885 33.829-8.296 42.856-17.325s14.44-21.395 17.325-42.856c2.949-21.925 2.983-50.825 2.983-91.503s-0.034-69.579-2.983-91.502c-2.885-21.464-8.296-33.829-17.325-42.858s-21.395-14.44-42.856-17.326c-21.925-2.948-50.825-2.981-91.503-2.981h-85.334c-40.679 0-69.579 0.034-91.502 2.981zM115.709 160.423c-5.657 6.788-4.74 16.877 2.049 22.535l46.858 39.049c18.909 15.757 34.235 28.529 47.762 37.229 14.091 9.063 27.813 14.788 43.623 14.788s29.531-5.726 43.623-14.788c13.527-8.7 28.853-21.472 47.761-37.229l46.858-39.049c6.788-5.657 7.705-15.746 2.050-22.535-5.658-6.788-15.746-7.706-22.534-2.048l-46.057 38.38c-19.904 16.587-33.721 28.064-45.389 35.566-11.291 7.264-18.95 9.703-26.313 9.703s-15.021-2.439-26.313-9.702c-11.667-7.503-25.485-18.981-45.388-35.566l-46.056-38.381c-6.788-5.657-16.877-4.74-22.535 2.048z"></path>
    </symbol>
    <symbol version="1.1" fill="currentColor" xmlns="http://www.w3.org/2000/svg" viewBox="0 0 512 512" id="phone">
        <path d="M96.984 60.967c26.633-27.916 70.487-22.947 92.788 8.455l27.588 38.846c18.146 25.55 16.546 61.261-4.994 83.838l-5.224 5.475c-0.228 0.698-0.781 2.894-0.167 7.067 1.383 9.399 8.828 29.333 40.082 62.093 31.245 32.746 50.291 40.587 59.332 42.048 4.098 0.663 6.24 0.045 6.904-0.199l8.928-9.357c19.149-20.070 48.572-23.821 72.279-10.236l41.8 23.951c35.793 20.51 44.834 71.795 15.512 102.533l-31.081 32.574c-9.792 10.264-22.961 18.822-39.034 20.403-39.577 3.889-131.868-1.075-228.837-102.709-90.532-94.89-107.906-177.638-110.103-218.409v0c-1.111-20.616 8.13-38.058 19.886-50.38l34.341-35.993zM163.501 90.154c-11.084-15.608-31.744-16.849-43.376-4.656l-34.341 35.993c-7.219 7.566-10.692 15.903-10.261 23.886 1.746 32.394 15.778 107.062 100.478 195.841 88.859 93.135 170.93 95.912 202.651 92.796 6.481-0.638 12.928-4.185 18.94-10.49l31.081-32.574c12.634-13.243 9.848-37.354-8.045-47.608l-41.8-23.951c-11.541-6.615-25.065-4.433-33.466 4.373l-9.965 10.445-11.571-12.267c11.571 12.267 11.554 12.281 11.539 12.298l-0.032 0.034-0.066 0.068-0.143 0.143-0.32 0.315c-0.231 0.219-0.493 0.463-0.791 0.723-0.593 0.519-1.325 1.105-2.197 1.721-1.752 1.238-4.066 2.584-6.971 3.725-5.926 2.327-13.741 3.577-23.428 2.010-18.966-3.065-44.087-16.693-77.495-51.71-33.399-35.006-46.436-61.365-49.374-81.32-1.501-10.204-0.304-18.445 1.93-24.696 1.095-3.064 2.386-5.5 3.57-7.342 0.59-0.919 1.153-1.688 1.649-2.311 0.248-0.312 0.48-0.589 0.691-0.829l0.3-0.337 0.137-0.149 0.065-0.070 0.032-0.034c0.016-0.017 0.031-0.033 11.601 12.232l-11.57-12.266 6.275-6.577c9.377-9.828 10.691-26.144 1.863-38.575l-27.589-38.846z"></path>
    </symbol>
    <symbol version="1.1" fill="currentColor" xmlns="http://www.w3.org/2000/svg" viewBox="0 0 512 512" id="location">
        <path d="M69.334 216.391c0-104.513 83.307-189.724 186.666-189.724s186.667 85.211 186.667 189.724c0 50.456-14.378 104.631-39.8 151.437-25.387 46.745-62.481 87.366-108.883 109.056-24.105 11.266-51.863 11.266-75.968 0-46.403-21.69-83.496-62.31-108.884-109.056-25.419-46.805-39.799-100.981-39.799-151.437zM256 58.666c-85.154 0-154.667 70.346-154.667 157.724 0 44.738 12.856 93.698 35.919 136.164 23.094 42.522 55.73 77.303 94.313 95.339 15.52 7.253 33.351 7.253 48.87 0 38.584-18.035 71.219-52.817 94.313-95.339 23.063-42.466 35.919-91.426 35.919-136.165 0-87.377-69.512-157.724-154.666-157.724zM256 165.333c-26.509 0-48 21.49-48 48s21.491 48 48 48 48-21.491 48-48c0-26.51-21.491-48-48-48zM176 213.333c0-44.183 35.817-80 80-80s80 35.817 80 80c0 44.184-35.817 80-80 80s-80-35.817-80-80z"></path>
    </symbol>

    <symbol fill="currentColor" version="1.1" xmlns="http://www.w3.org/2000/svg" viewBox="0 0 512 512" id="calendar">
        <path d="M362.666 298.666c11.783 0 21.334-9.551 21.334-21.334s-9.551-21.334-21.334-21.334c-11.783 0-21.334 9.551-21.334 21.334s9.551 21.334 21.334 21.334z"></path>
        <path d="M362.666 384c11.783 0 21.334-9.551 21.334-21.334s-9.551-21.334-21.334-21.334c-11.783 0-21.334 9.551-21.334 21.334s9.551 21.334 21.334 21.334z"></path>
        <path d="M277.334 277.334c0 11.783-9.551 21.334-21.334 21.334s-21.334-9.551-21.334-21.334c0-11.783 9.551-21.334 21.334-21.334s21.334 9.551 21.334 21.334z"></path>
        <path d="M277.334 362.666c0 11.783-9.551 21.334-21.334 21.334s-21.334-9.551-21.334-21.334c0-11.783 9.551-21.334 21.334-21.334s21.334 9.551 21.334 21.334z"></path>
        <path d="M149.333 298.666c11.782 0 21.333-9.551 21.333-21.334s-9.551-21.334-21.334-21.334c-11.782 0-21.334 9.551-21.334 21.334s9.551 21.334 21.334 21.334z"></path>
        <path d="M149.333 384c11.782 0 21.333-9.551 21.333-21.334s-9.551-21.334-21.334-21.334c-11.782 0-21.334 9.551-21.334 21.334s9.551 21.334 21.334 21.334z"></path>
        <path d="M149.333 37.334c-8.837 0-16 7.163-16 16v17.645c-5.546 0.423-10.797 0.954-15.766 1.622-25.011 3.363-45.256 10.448-61.221 26.413s-23.050 36.209-26.413 61.221c-3.268 24.303-3.268 55.356-3.267 94.563v45.073c-0 39.207-0 70.259 3.267 94.562 3.363 25.011 10.448 45.257 26.413 61.222 15.965 15.964 36.209 23.048 61.221 26.413 24.303 3.266 55.357 3.266 94.563 3.266h87.742c39.204 0 70.257 0 94.56-3.266 25.011-3.365 45.257-10.449 61.222-26.413 15.964-15.966 23.048-36.211 26.413-61.222 3.266-24.303 3.266-55.358 3.266-94.562v-45.075c0-39.204 0-70.257-3.266-94.56-3.365-25.012-10.449-45.256-26.413-61.221-15.966-15.965-36.211-23.050-61.222-26.413-4.969-0.668-10.221-1.2-15.765-1.622v-17.645c0-8.837-7.163-16-16-16s-16 7.163-16 16v16.271c-14.123-0.272-29.683-0.272-46.797-0.272h-87.743c-17.112 0-32.671 0-46.794 0.272v-16.272c0-8.837-7.163-16-16-16zM121.832 104.315c21.923-2.948 50.823-2.981 91.502-2.981h85.334c40.678 0 69.579 0.034 91.503 2.981 21.462 2.885 33.829 8.297 42.856 17.326s14.44 21.394 17.325 42.857c0.488 3.635 0.898 7.462 1.24 11.502h-391.181c0.342-4.041 0.751-7.867 1.239-11.502 2.886-21.464 8.297-33.829 17.325-42.858s21.395-14.44 42.858-17.326zM58.666 256c0-18.219 0.007-34.076 0.279-48h394.108c0.273 13.924 0.279 29.781 0.279 48v42.666c0 40.678-0.034 69.579-2.983 91.503-2.885 21.462-8.296 33.829-17.325 42.856s-21.395 14.44-42.856 17.325c-21.925 2.949-50.825 2.983-91.503 2.983h-85.334c-40.679 0-69.579-0.034-91.502-2.983-21.463-2.885-33.829-8.296-42.858-17.325s-14.44-21.395-17.326-42.856c-2.947-21.925-2.981-50.825-2.981-91.503v-42.666z"></path>
    </symbol>
    <symbol fill="currentColor"  version="1.1" xmlns="http://www.w3.org/2000/svg" viewBox="0 0 512 512" id="ruler">
        <path d="M292.015 88.369l20.553 20.553c6.248 6.249 6.248 16.379 0 22.627-6.247 6.249-16.377 6.249-22.626 0l-20.567-20.567-22.629 22.627 35.653 35.653c6.248 6.249 6.248 16.379 0 22.627s-16.377 6.249-22.626 0l-35.653-35.653-22.628 22.627 20.567 20.567c6.249 6.249 6.249 16.379 0 22.627s-16.379 6.249-22.627 0l-20.567-20.567-22.627 22.628 35.653 35.653c6.249 6.248 6.249 16.377 0 22.626s-16.379 6.248-22.627 0l-35.653-35.653-22.627 22.629 20.567 20.567c6.249 6.248 6.249 16.38 0 22.626-6.249 6.248-16.379 6.248-22.627 0l-20.553-20.553c-9.904 9.997-17.050 17.519-22.073 24.103-6.187 8.109-7.629 12.885-7.629 17.017s1.443 8.911 7.629 17.019c6.469 8.478 16.454 18.511 31.32 33.376l30.855 30.855c14.864 14.865 24.899 24.851 33.376 31.32 8.108 6.187 12.886 7.629 17.018 7.629s8.91-1.442 17.018-7.629c8.478-6.469 18.512-16.454 33.376-31.32l185.126-185.126c14.865-14.865 24.851-24.898 31.32-33.376 6.187-8.108 7.629-12.886 7.629-17.018s-1.442-8.91-7.629-17.018c-6.469-8.477-16.454-18.512-31.32-33.376l-30.855-30.855c-14.865-14.864-24.898-24.851-33.376-31.32-8.109-6.187-12.887-7.629-17.019-7.629s-8.909 1.443-17.017 7.629c-6.584 5.023-14.106 12.168-24.103 22.073zM296.706 40.855c10.957-8.358 22.488-14.188 36.429-14.188 13.943 0 25.474 5.83 36.429 14.188 10.392 7.927 21.933 19.471 35.806 33.345l32.431 32.429c13.873 13.874 25.416 25.417 33.344 35.806 8.358 10.955 14.189 22.487 14.189 36.429s-5.83 25.474-14.189 36.429c-7.928 10.389-19.471 21.933-33.344 35.806l-186.701 186.701c-13.873 13.873-25.417 25.416-35.806 33.344-10.956 8.358-22.488 14.189-36.429 14.189s-25.474-5.83-36.429-14.189c-10.39-7.928-21.933-19.471-35.806-33.344l-32.429-32.431c-13.874-13.873-25.418-25.414-33.345-35.806-8.358-10.954-14.188-22.486-14.188-36.429 0-13.942 5.83-25.472 14.188-36.429 7.928-10.389 19.471-21.933 33.346-35.806l186.7-186.7c13.873-13.874 25.416-25.419 35.806-33.346z"></path>
    </symbol>

    <symbol fill="currentColor" version="1.1" xmlns="http://www.w3.org/2000/svg" viewBox="0 0 512 512" id="user">
        <path d="M256.002 26.666c-55.964 0-101.332 45.368-101.332 101.334s45.368 101.334 101.332 101.334c55.966 0 101.334-45.368 101.334-101.334s-45.368-101.334-101.334-101.334zM186.669 128c0-38.292 31.042-69.334 69.333-69.334 38.293 0 69.334 31.041 69.334 69.334s-31.040 69.334-69.334 69.334c-38.291 0-69.332-31.041-69.332-69.334z"></path>
        <path d="M256.002 261.334c-49.355 0-94.827 11.219-128.523 30.171-33.194 18.673-58.143 46.971-58.143 81.829l-0.001 2.176c-0.024 24.785-0.055 55.894 27.231 78.112 13.428 10.935 32.215 18.712 57.596 23.851 25.452 5.15 58.624 7.861 101.84 7.861 43.217 0 76.391-2.712 101.841-7.861 25.382-5.139 44.168-12.915 57.596-23.851 27.286-22.219 27.255-53.327 27.232-78.112l-0.002-2.176c0-34.856-24.947-63.155-58.142-81.829-33.696-18.952-79.168-30.171-128.525-30.171zM101.336 373.334c0-18.161 13.256-37.865 41.831-53.937 28.073-15.791 67.934-26.063 112.835-26.063 44.902 0 84.762 10.272 112.837 26.063 28.576 16.072 41.83 35.776 41.83 53.937 0 27.899-0.86 43.606-15.437 55.475-7.904 6.438-21.118 12.721-43.738 17.299-22.547 4.563-53.374 7.226-95.493 7.226-42.117 0-72.944-2.663-95.492-7.226-22.619-4.578-35.833-10.861-43.738-17.299-14.576-11.87-15.436-27.575-15.436-55.475z"></path>
    </symbol>
</svg>