<svg width="183" height="40" viewBox="0 0 183 40" fill="none" xmlns="http://www.w3.org/2000/svg">
<path d="M182.064 39.7095H180.261V0.0575752H182.064V39.7095Z" fill="#E2051B"/>
<path d="M178.458 39.7095H176.656V0.0575752H178.458V39.7095Z" fill="#E2051B"/>
<path d="M172.6 39.7095H169.896V0.0575752H172.6V39.7095Z" fill="#E2051B"/>
<path d="M165.389 39.7095H162.686V0.0575752H165.389V39.7095Z" fill="#E2051B"/>
<path d="M156.376 39.7095H153.672V0.0575752H156.376V39.7095Z" fill="#E2051B"/>
<path d="M152.321 39.7095H150.518V0.0575752H152.321V39.7095Z" fill="#E2051B"/>
<path d="M98.2426 39.7095H96.4399V0.0575752H98.2426V39.7095Z" fill="#E2051B"/>
<path d="M94.6371 39.7095H92.8345V0.0575752H94.6371V39.7095Z" fill="#E2051B"/>
<path d="M90.1307 39.7095H88.3281V0.0575752H90.1307V39.7095Z" fill="#E2051B"/>
<path d="M77.5121 39.7095H75.7095V0.0575752H77.5121V39.7095Z" fill="#E2051B"/>
<path d="M46.868 39.7095H45.0654V0.0575752H46.868V39.7095Z" fill="#E2051B"/>
<path d="M1.80261 39.7095H0V0.0575752H1.80261V39.7095Z" fill="#E2051B"/>
<path d="M5.40808 39.7095H3.60547V0.0575752H5.40808V39.7095Z" fill="#E2051B"/>
<path d="M26.1381 39.7095H24.3354V0.0575752H26.1381V39.7095Z" fill="#E2051B"/>
<path d="M145.561 39.7095H142.857V0.0575752H145.561V39.7095Z" fill="#E2051B"/>
<path d="M140.604 39.7095H136.999V0.0575752H140.604V39.7095Z" fill="#E2051B"/>
<path d="M134.295 39.7095H130.689V0.0575752H134.295V39.7095Z" fill="#E2051B"/>
<path d="M126.633 39.7095H122.127V0.0575752H126.633V39.7095Z" fill="#E2051B"/>
<path d="M118.972 39.7095H115.367V0.0575752H118.972V39.7095Z" fill="#E2051B"/>
<path d="M113.565 39.7095H109.959V0.0575752H113.565V39.7095Z" fill="#E2051B"/>
<path d="M105.453 39.7095H101.848V0.0575752H105.453V39.7095Z" fill="#E2051B"/>
<path d="M86.0748 39.7095H79.7656V0.0575752H86.0748V39.7095Z" fill="#E2051B"/>
<path d="M73.4566 39.7095H67.1475V0.0575752H73.4566V39.7095Z" fill="#E2051B"/>
<path d="M64.4432 39.7095H61.7393V0.0575752H64.4432V39.7095Z" fill="#E2051B"/>
<path d="M52.7264 39.7095H50.0225V0.0575752H52.7264V39.7095Z" fill="#E2051B"/>
<path d="M33.7991 39.7095H31.0952V0.0575752H33.7991V39.7095Z" fill="#E2051B"/>
<path d="M11.717 39.7095H8.11182V0.0575752H11.717V39.7095Z" fill="#E2051B"/>
<path d="M59.4861 39.7095H55.8809V0.0575752H59.4861V39.7095Z" fill="#E2051B"/>
<path d="M42.8117 39.7095H38.3052V0.0575752H42.8117V39.7095Z" fill="#E2051B"/>
<path d="M20.2794 39.7095H13.9702V0.0575752H20.2794V39.7095Z" fill="#E2051B"/>
</svg>
