<svg width="64" height="64" viewBox="0 0 64 64" fill="none" xmlns="http://www.w3.org/2000/svg">
<path d="M0 30.72C0 16.2384 0 8.99768 4.49884 4.49884C8.99768 0 16.2384 0 30.72 0H33.28C47.7616 0 55.0023 0 59.5012 4.49884C64 8.99768 64 16.2384 64 30.72V33.28C64 47.7616 64 55.0023 59.5012 59.5012C55.0023 64 47.7616 64 33.28 64H30.72C16.2384 64 8.99768 64 4.49884 59.5012C0 55.0023 0 47.7616 0 33.28V30.72Z" fill="white"/>
<path d="M45.4961 20.1229C45.4961 18.6963 44.3398 17.5443 42.9185 17.5443C41.4971 17.5443 40.3398 18.6963 40.3398 20.1229C40.3398 21.5443 41.4971 22.6963 42.9185 22.6963C44.3398 22.6963 45.4961 21.5443 45.4961 20.1229Z" fill="url(#paint0_linear_1_12109)"/>
<path d="M49.9054 40.8996C49.8075 43.0447 49.4487 44.2102 49.1508 44.9843C48.7507 46.0107 48.2734 46.7446 47.4993 47.5144C46.7339 48.2842 46 48.7604 44.9736 49.1561C44.1995 49.4584 43.0296 49.8182 40.8845 49.9205C38.5654 50.0227 37.8782 50.0444 31.9973 50.0444C26.1218 50.0444 25.4292 50.0227 23.11 49.9205C20.965 49.8182 19.8005 49.4584 19.0263 49.1561C17.9946 48.7604 17.2661 48.2842 16.4964 47.5144C15.7211 46.7446 15.2438 46.0107 14.8492 44.9843C14.5512 44.2102 14.187 43.0447 14.0946 40.8996C13.9815 38.5804 13.9608 37.8824 13.9608 32.0135C13.9608 26.1325 13.9815 25.4399 14.0946 23.1208C14.187 20.9757 14.5512 19.8113 14.8492 19.0306C15.2438 18.0053 15.7211 17.2757 16.4964 16.506C17.2661 15.7373 17.9946 15.26 19.0263 14.8599C19.8005 14.5566 20.965 14.2021 23.11 14.0999C25.4292 13.9977 26.1218 13.9716 31.9973 13.9716C37.8782 13.9716 38.5654 13.9977 40.8845 14.0999C43.0296 14.2021 44.1995 14.5566 44.9736 14.8599C46 15.26 46.7339 15.7373 47.4993 16.506C48.2734 17.2757 48.7507 18.0053 49.1508 19.0306C49.4487 19.8113 49.8075 20.9757 49.9054 23.1208C50.013 25.4399 50.0391 26.1325 50.0391 32.0135C50.0391 37.8824 50.013 38.5804 49.9054 40.8996ZM53.8663 22.9403C53.7586 20.5962 53.3889 18.9947 52.8399 17.5998C52.2811 16.1526 51.5319 14.9262 50.3055 13.6998C49.0845 12.4788 47.8581 11.7297 46.411 11.1643C45.0106 10.6207 43.4145 10.2467 41.0693 10.1445C38.7241 10.0314 37.975 10.0107 31.9973 10.0107C26.025 10.0107 25.2705 10.0314 22.9253 10.1445C20.5855 10.2467 18.9905 10.6207 17.5836 11.1643C16.1419 11.7297 14.9155 12.4788 13.6945 13.6998C12.4681 14.9262 11.7189 16.1526 11.1547 17.5998C10.611 18.9947 10.2414 20.5962 10.1283 22.9403C10.0261 25.2855 10 26.0357 10 32.0135C10 37.9857 10.0261 38.7348 10.1283 41.08C10.2414 43.4198 10.611 45.0202 11.1547 46.4217C11.7189 47.8634 12.4681 49.0953 13.6945 50.3162C14.9155 51.5372 16.1419 52.2918 17.5836 52.8561C18.9905 53.3997 20.5855 53.7694 22.9253 53.877C25.2705 53.9846 26.025 54.0107 31.9973 54.0107C37.975 54.0107 38.7241 53.9846 41.0693 53.877C43.4145 53.7694 45.0106 53.3997 46.411 52.8561C47.8581 52.2918 49.0845 51.5372 50.3055 50.3162C51.5319 49.0953 52.2811 47.8634 52.8399 46.4217C53.3889 45.0202 53.7586 43.4198 53.8663 41.08C53.9739 38.7348 54 37.9857 54 32.0135C54 26.0357 53.9739 25.2855 53.8663 22.9403Z" fill="url(#paint1_linear_1_12109)"/>
<path d="M32.4013 39.0446C28.4534 39.0446 25.2498 35.8471 25.2498 31.9001C25.2498 27.9467 28.4534 24.7451 32.4013 24.7451C36.3504 24.7451 39.5582 27.9467 39.5582 31.9001C39.5582 35.8471 36.3504 39.0446 32.4013 39.0446ZM32.4013 20.8776C26.3155 20.8776 21.3867 25.8158 21.3867 31.9001C21.3867 37.9791 26.3155 42.9121 32.4013 42.9121C38.4871 42.9121 43.4213 37.9791 43.4213 31.9001C43.4213 25.8158 38.4871 20.8776 32.4013 20.8776Z" fill="url(#paint2_linear_1_12109)"/>
<defs>
<linearGradient id="paint0_linear_1_12109" x1="10.3861" y1="52.5987" x2="49.3501" y2="13.6349" gradientUnits="userSpaceOnUse">
<stop stop-color="#FFD521"/>
<stop offset="0.05" stop-color="#FFD521"/>
<stop offset="0.501119" stop-color="#F50000"/>
<stop offset="0.95" stop-color="#B900B4"/>
<stop offset="0.950079" stop-color="#B900B4"/>
<stop offset="1" stop-color="#B900B4"/>
</linearGradient>
<linearGradient id="paint1_linear_1_12109" x1="10.3969" y1="53.6106" x2="50.368" y2="13.6394" gradientUnits="userSpaceOnUse">
<stop stop-color="#FFD521"/>
<stop offset="0.05" stop-color="#FFD521"/>
<stop offset="0.501119" stop-color="#F50000"/>
<stop offset="0.95" stop-color="#B900B4"/>
<stop offset="0.950079" stop-color="#B900B4"/>
<stop offset="1" stop-color="#B900B4"/>
</linearGradient>
<linearGradient id="paint2_linear_1_12109" x1="11.344" y1="52.9604" x2="50.3101" y2="13.9848" gradientUnits="userSpaceOnUse">
<stop stop-color="#FFD521"/>
<stop offset="0.05" stop-color="#FFD521"/>
<stop offset="0.501119" stop-color="#F50000"/>
<stop offset="0.95" stop-color="#B900B4"/>
<stop offset="0.950079" stop-color="#B900B4"/>
<stop offset="1" stop-color="#B900B4"/>
</linearGradient>
</defs>
</svg>
