<svg width="64" height="64" viewBox="0 0 64 64" fill="none" xmlns="http://www.w3.org/2000/svg">
<g clip-path="url(#clip0_1_12116)">
<path d="M0 30.72C0 16.2384 0 8.99768 4.49884 4.49884C8.99768 0 16.2384 0 30.72 0H33.28C47.7616 0 55.0023 0 59.5012 4.49884C64 8.99768 64 16.2384 64 30.72V33.28C64 47.7616 64 55.0023 59.5012 59.5012C55.0023 64 47.7616 64 33.28 64H30.72C16.2384 64 8.99768 64 4.49884 59.5012C0 55.0023 0 47.7616 0 33.28V30.72Z" fill="white"/>
<path d="M64.7344 30.668C82.4076 30.668 96.7344 16.3411 96.7344 -1.33202C96.7344 -19.0051 82.4076 -33.332 64.7344 -33.332C47.0613 -33.332 32.7344 -19.0051 32.7344 -1.33202C32.7344 16.3411 47.0613 30.668 64.7344 30.668Z" fill="#ED143B"/>
<path d="M40.2625 29.2069H21.3547V21.7248H40.2625C41.367 21.7248 42.1349 21.9173 42.5203 22.2535C42.9057 22.5897 43.1445 23.2132 43.1445 24.124V26.8106C43.1445 27.7702 42.9057 28.3937 42.5203 28.7299C42.1349 29.0661 41.367 29.2098 40.2625 29.2098V29.2069ZM41.5597 14.6708H13.3359V46.668H21.3547V36.258H36.1324L43.1445 46.668H52.1238L44.3927 36.2092C47.243 35.7868 48.5228 34.9133 49.5784 33.4737C50.6339 32.0342 51.1633 29.7327 51.1633 26.6611V24.262C51.1633 22.4402 50.9704 21.0007 50.6339 19.8974C50.2974 18.794 49.7224 17.8344 48.9054 16.9724C48.0426 16.1564 47.0819 15.5817 45.9286 15.1966C44.7752 14.8605 43.3343 14.668 41.5597 14.668V14.6708Z" fill="#100943"/>
</g>
<defs>
<clipPath id="clip0_1_12116">
<rect width="64" height="64" rx="13.3333" fill="white"/>
</clipPath>
</defs>
</svg>
