<svg width="64" height="64" viewBox="0 0 64 64" fill="none" xmlns="http://www.w3.org/2000/svg">
<path d="M0 30.72C0 16.2384 0 8.99768 4.49884 4.49884C8.99768 0 16.2384 0 30.72 0H33.28C47.7616 0 55.0023 0 59.5012 4.49884C64 8.99768 64 16.2384 64 30.72V33.28C64 47.7616 64 55.0023 59.5012 59.5012C55.0023 64 47.7616 64 33.28 64H30.72C16.2384 64 8.99768 64 4.49884 59.5012C0 55.0023 0 47.7616 0 33.28V30.72Z" fill="white"/>
<g clip-path="url(#clip0_1_12100)">
<rect width="48" height="48" transform="translate(8 8)" fill="white"/>
<path d="M32 56C45.2548 56 56 45.2548 56 32C56 18.7452 45.2548 8 32 8C18.7452 8 8 18.7452 8 32C8 45.2548 18.7452 56 32 56Z" fill="url(#paint0_linear_1_12100)"/>
<path fill-rule="evenodd" clip-rule="evenodd" d="M18.8621 31.7469C25.8586 28.6986 30.524 26.689 32.8583 25.7181C39.5234 22.9459 40.9083 22.4643 41.811 22.4484C42.0096 22.4449 42.4535 22.4941 42.741 22.7274C42.9838 22.9245 43.0506 23.1906 43.0826 23.3774C43.1146 23.5642 43.1544 23.9897 43.1227 24.3222C42.7615 28.1172 41.1987 37.3265 40.4036 41.577C40.0672 43.3755 39.4048 43.9785 38.7635 44.0375C37.3697 44.1658 36.3114 43.1164 34.9615 42.2316C32.8492 40.8469 31.6559 39.985 29.6055 38.6338C27.236 37.0723 28.772 36.2141 30.1224 34.8115C30.4759 34.4445 36.6166 28.8589 36.7355 28.3523C36.7504 28.2889 36.7642 28.0527 36.6238 27.9279C36.4835 27.8032 36.2764 27.8459 36.1269 27.8798C35.9151 27.9279 32.5406 30.1582 26.0036 34.5709C25.0457 35.2286 24.1782 35.5491 23.4009 35.5323C22.5439 35.5138 20.8956 35.0478 19.6702 34.6495C18.1672 34.1609 16.9726 33.9026 17.0766 33.0729C17.1308 32.6407 17.726 32.1987 18.8621 31.7469Z" fill="white"/>
</g>
<defs>
<linearGradient id="paint0_linear_1_12100" x1="32" y1="8" x2="32" y2="55.644" gradientUnits="userSpaceOnUse">
<stop stop-color="#2AABEE"/>
<stop offset="1" stop-color="#229ED9"/>
</linearGradient>
<clipPath id="clip0_1_12100">
<rect width="48" height="48" fill="white" transform="translate(8 8)"/>
</clipPath>
</defs>
</svg>
