<svg width="64" height="64" viewBox="0 0 64 64" fill="none" xmlns="http://www.w3.org/2000/svg">
<path d="M0 30.72C0 16.2384 0 8.99768 4.49884 4.49884C8.99768 0 16.2384 0 30.72 0H33.28C47.7616 0 55.0023 0 59.5012 4.49884C64 8.99768 64 16.2384 64 30.72V33.28C64 47.7616 64 55.0023 59.5012 59.5012C55.0023 64 47.7616 64 33.28 64H30.72C16.2384 64 8.99768 64 4.49884 59.5012C0 55.0023 0 47.7616 0 33.28V30.72Z" fill="white"/>
<path d="M54.9951 20.3637C54.7237 19.3424 54.1888 18.4103 53.444 17.6607C52.6991 16.911 51.7705 16.3702 50.7509 16.0922C46.9977 15.083 31.9955 15.083 31.9955 15.083C31.9955 15.083 16.9934 15.083 13.2402 16.0922C12.2206 16.3702 11.292 16.911 10.5471 17.6607C9.80227 18.4103 9.26738 19.3424 8.99596 20.3637C7.99219 24.1334 7.99219 31.9945 7.99219 31.9945C7.99219 31.9945 7.99219 39.8556 8.99596 43.6252C9.26738 44.6465 9.80227 45.5786 10.5471 46.3283C11.292 47.0779 12.2206 47.6187 13.2402 47.8967C16.9934 48.9059 31.9955 48.9059 31.9955 48.9059C31.9955 48.9059 46.9977 48.9059 50.7509 47.8967C51.7705 47.6187 52.6991 47.0779 53.444 46.3283C54.1888 45.5786 54.7237 44.6465 54.9951 43.6252C55.9989 39.8556 55.9989 31.9945 55.9989 31.9945C55.9989 31.9945 55.9989 24.1334 54.9951 20.3637Z" fill="#FF0302"/>
<path d="M26.8203 39.5316V24.4629L40.0637 31.9972L26.8203 39.5316Z" fill="#FEFEFE"/>
</svg>
