<svg width="24" height="24" viewBox="0 0 24 24" fill="none" xmlns="http://www.w3.org/2000/svg">
<path d="M19.0636 7.66855L13.6119 2.21688C13.4734 2.07818 13.2854 2.00017 13.0894 2H10.6544C9.93537 2 9.24581 2.28563 8.73739 2.79405C8.22897 3.30247 7.94334 3.99203 7.94334 4.71105V5.94334H6.71105C5.99203 5.94334 5.30247 6.22897 4.79405 6.73739C4.28563 7.24581 4 7.93537 4 8.65439V18.5127C4 19.2318 4.28563 19.9213 4.79405 20.4297C5.30247 20.9382 5.99203 21.2238 6.71105 21.2238H13.6119C14.3309 21.2238 15.0205 20.9382 15.5289 20.4297C16.0373 19.9213 16.3229 19.2318 16.3229 18.5127V17.2804H16.5694C17.2884 17.2804 17.978 16.9948 18.4864 16.4864C18.9948 15.978 19.2804 15.2884 19.2804 14.5694V8.16147C19.2727 7.97574 19.1953 7.79975 19.0636 7.66855ZM13.8584 4.52374L16.7567 7.4221H13.8584V4.52374ZM14.8442 18.5127C14.8442 18.8396 14.7144 19.153 14.4833 19.3841C14.2522 19.6152 13.9387 19.745 13.6119 19.745H6.71105C6.38422 19.745 6.07078 19.6152 5.83968 19.3841C5.60858 19.153 5.47875 18.8396 5.47875 18.5127V8.65439C5.47875 8.32756 5.60858 8.01413 5.83968 7.78303C6.07078 7.55193 6.38422 7.4221 6.71105 7.4221H7.94334V14.5694C7.94334 15.2884 8.22897 15.978 8.73739 16.4864C9.24581 16.9948 9.93537 17.2804 10.6544 17.2804H14.8442V18.5127ZM16.5694 15.8017H10.6544C10.3276 15.8017 10.0141 15.6719 9.78303 15.4408C9.55193 15.2097 9.4221 14.8962 9.4221 14.5694V4.71105C9.4221 4.38422 9.55193 4.07078 9.78303 3.83968C10.0141 3.60858 10.3276 3.47875 10.6544 3.47875H12.3796V8.16147C12.3822 8.35677 12.4609 8.54336 12.599 8.68147C12.7371 8.81958 12.9237 8.89829 13.119 8.90085H17.8017V14.5694C17.8017 14.8962 17.6719 15.2097 17.4408 15.4408C17.2097 15.6719 16.8962 15.8017 16.5694 15.8017Z" fill="#8794A7"/>
<rect x="10.5615" y="12.8148" width="6.00743" height="1.20149" rx="0.600743" fill="#8794A7"/>
<rect x="10.5615" y="10.4117" width="6.00743" height="1.20149" rx="0.600743" fill="#8794A7"/>
</svg>
