<svg width="24" height="24" viewBox="0 0 24 24" fill="none" xmlns="http://www.w3.org/2000/svg">
<rect width="24" height="24" fill="white"/>
<path fill-rule="evenodd" clip-rule="evenodd" d="M13.1126 5.5389C12.806 5.26637 12.4102 5.11583 12 5.11583C11.5898 5.11583 11.194 5.26637 10.8874 5.5389L6.42233 9.50838C6.24568 9.66543 6.10429 9.8581 6.00745 10.0737C5.91061 10.2893 5.86052 10.523 5.86047 10.7594V18.129H6.97674V14.1834C6.97674 13.5151 6.97674 12.9569 7.03628 12.5149C7.09879 12.0475 7.23721 11.6256 7.57581 11.287C7.91516 10.9476 8.33712 10.8092 8.80372 10.7467C9.24651 10.6872 9.80465 10.6872 10.4729 10.6872H13.5271C14.1961 10.6872 14.7535 10.6872 15.1955 10.7467C15.6629 10.8092 16.0848 10.9476 16.4234 11.287C16.7628 11.6256 16.9012 12.0475 16.9637 12.5149C17.0233 12.9569 17.0233 13.5151 17.0233 14.1834V18.129H18.1395V10.7594C18.1395 10.523 18.0894 10.2893 17.9925 10.0737C17.8957 9.8581 17.7543 9.66543 17.5777 9.50838L13.1126 5.5389ZM19.2558 18.129V10.7594C19.2558 10.3652 19.1723 9.97555 19.0108 9.61601C18.8493 9.25648 18.6135 8.93522 18.3189 8.67341L13.8538 4.70466C13.343 4.25073 12.6834 4 12 4C11.3166 4 10.657 4.25073 10.1462 4.70466L5.68112 8.67341C5.3865 8.93522 5.15068 9.25648 4.98919 9.61601C4.8277 9.97555 4.7442 10.3652 4.74419 10.7594V18.129H4.55814C4.41011 18.129 4.26815 18.1878 4.16348 18.2925C4.0588 18.3972 4 18.5391 4 18.6872C4 18.8352 4.0588 18.9772 4.16348 19.0818C4.26815 19.1865 4.41011 19.2453 4.55814 19.2453H19.4419C19.5899 19.2453 19.7319 19.1865 19.8365 19.0818C19.9412 18.9772 20 18.8352 20 18.6872C20 18.5391 19.9412 18.3972 19.8365 18.2925C19.7319 18.1878 19.5899 18.129 19.4419 18.129H19.2558ZM15.907 18.129V14.2221C15.907 13.5047 15.9055 13.0232 15.8571 12.663C15.811 12.3199 15.7313 12.1726 15.6339 12.0758C15.5364 11.9791 15.3905 11.8995 15.0474 11.8526C14.688 11.8049 14.2058 11.8035 13.4884 11.8035H10.5116C9.79423 11.8035 9.312 11.8049 8.95256 11.8533C8.60949 11.8995 8.46214 11.9791 8.3654 12.0766C8.26865 12.1741 8.18902 12.3199 8.14214 12.663C8.09451 13.0232 8.09302 13.5047 8.09302 14.2221V18.129H15.907ZM9.2093 16.4819C9.2093 16.3338 9.26811 16.1919 9.37278 16.0872C9.47745 15.9825 9.61941 15.9237 9.76744 15.9237H14.2326C14.3806 15.9237 14.5226 15.9825 14.6272 16.0872C14.7319 16.1919 14.7907 16.3338 14.7907 16.4819C14.7907 16.6299 14.7319 16.7719 14.6272 16.8765C14.5226 16.9812 14.3806 17.04 14.2326 17.04H9.76744C9.61941 17.04 9.47745 16.9812 9.37278 16.8765C9.26811 16.7719 9.2093 16.6299 9.2093 16.4819Z" fill="#8794A7"/>
</svg>
