<svg width="24" height="24" viewBox="0 0 24 24" fill="none" xmlns="http://www.w3.org/2000/svg">
<rect width="24" height="24" fill="white"/>
<path d="M9.33333 20H5.77778C5.30628 20 4.8541 19.8127 4.5207 19.4793C4.1873 19.1459 4 18.6937 4 18.2222V5.77778C4 5.30628 4.1873 4.8541 4.5207 4.5207C4.8541 4.1873 5.30628 4 5.77778 4H18.2222C18.6937 4 19.1459 4.1873 19.4793 4.5207C19.8127 4.8541 20 5.30628 20 5.77778V18.2222C20 18.6937 19.8127 19.1459 19.4793 19.4793C19.1459 19.8127 18.6937 20 18.2222 20H13.7778M9.33333 4V10.2222M20 10.2222H13.7778M4 14.6667H12" stroke="#8794A7" stroke-width="1.25" stroke-linecap="round" stroke-linejoin="round"/>
</svg>
