<svg width="24" height="24" viewBox="0 0 24 24" fill="none" xmlns="http://www.w3.org/2000/svg">
<rect width="24" height="24" fill="white"/>
<path d="M14.7141 9.98457L19.01 5.70425L18.9961 8.13052C18.9915 8.33279 19.1516 8.50878 19.3536 8.50427L19.6098 8.50402C19.8118 8.49926 19.9789 8.37885 19.9831 8.17658L19.9936 4.56221C19.9936 4.55872 19.9936 4.56572 19.9936 4.56221L19.9996 4.36922C20.0016 4.26758 19.9779 4.17696 19.9125 4.11214C19.8478 4.0468 19.7572 4.00699 19.6565 4.00975L19.474 4.014C19.4705 4.014 19.4678 4.01525 19.464 4.01577L15.8825 4C15.6807 4.00451 15.5137 4.17173 15.5092 4.37425L15.5087 4.63112C15.5394 4.86969 15.7264 5.00912 15.9282 5.00462L18.2887 5.01088L14.0079 9.27637C13.8129 9.47189 13.8129 9.78881 14.0079 9.98457C14.2029 10.1798 14.5191 10.1798 14.7141 9.98457ZM9.30143 14.0154L5.00548 18.2824L5.01921 15.8694C5.02396 15.6669 4.86363 15.4909 4.66187 15.4954L4.38995 15.4959C4.18769 15.5009 4.02087 15.6211 4.01663 15.8236L4.00614 19.438C4.00614 19.7222 4.01987 19.4437 4.01987 19.4477L4.00014 19.6305C3.9979 19.7321 4.02162 19.8232 4.08729 19.8876C4.15172 19.9532 4.24261 19.9927 4.34299 19.9902L4.52578 19.9857C4.52926 19.9857 4.53176 19.9842 4.53577 19.9842L8.13303 20C8.33479 19.995 8.50161 19.8278 8.50634 19.6255L8.50684 19.3684C8.47614 19.1303 8.2891 18.9904 8.08734 18.9949L5.72687 18.9886L10.0073 14.7236C10.2024 14.5281 10.2024 14.2112 10.0073 14.0157C9.81233 13.8202 9.49645 13.8199 9.30143 14.0154ZM19.9939 19.4377L19.9834 15.8233C19.9789 15.6208 19.8119 15.5007 19.6101 15.4957L19.3539 15.4952C19.1519 15.4906 18.9921 15.6669 18.9963 15.8691L19.0103 18.2954L14.7141 14.0154C14.5191 13.8199 14.203 13.8199 14.0079 14.0154C13.8129 14.2109 13.8129 14.5278 14.0079 14.7233L18.2884 18.9883L15.9282 18.9946C15.7264 18.9901 15.5394 19.13 15.5087 19.3681L15.5092 19.6252C15.5139 19.8277 15.681 19.995 15.8825 19.9997L19.4643 19.9839C19.468 19.9839 19.4708 19.9854 19.4743 19.9854L19.6568 19.9899C19.7574 19.9924 19.8483 19.9529 19.9128 19.8873C19.9782 19.8227 20.0017 19.7318 19.9999 19.6302L19.9939 19.4377C19.9939 19.4412 19.9939 19.4338 19.9939 19.4377ZM5.72688 5.01127L8.08762 5.00506C8.28938 5.00956 8.47641 4.86987 8.50712 4.63154L8.50662 4.37446C8.50161 4.17195 8.33478 4.00446 8.1333 4.0002L4.53577 4.01572C4.53177 4.01522 4.52927 4.01397 4.52578 4.01397L4.34299 4.0097C4.24263 4.00696 4.15148 4.04677 4.08729 4.11209C4.02162 4.17693 3.99791 4.26755 4.00014 4.36918L4.01987 4.55243C4.01987 4.55592 4.00614 4.55844 4.00614 4.56219L4.01663 8.17656C4.02112 8.37883 4.18794 8.49925 4.38995 8.504L4.66188 8.50424C4.86365 8.50874 5.02369 8.33276 5.0192 8.13048L5.00547 5.71749L9.30143 9.98448C9.4962 10.18 9.81259 10.18 10.0076 9.98448C10.2027 9.78895 10.2027 9.47179 10.0076 9.27628L5.72688 5.01127Z" fill="#8794A7"/>
<path d="M19.9936 4.56221L19.9831 8.17658C19.9789 8.37885 19.8118 8.49926 19.6098 8.50402L19.3536 8.50427C19.1516 8.50878 18.9915 8.33279 18.9961 8.13052L19.01 5.70425L14.7141 9.98458C14.5191 10.1798 14.2029 10.1798 14.0079 9.98458C13.8129 9.78881 13.8129 9.47189 14.0079 9.27637L18.2887 5.01088L15.9282 5.00462C15.7264 5.00912 15.5394 4.86969 15.5087 4.63112L15.5092 4.37425C15.5137 4.17173 15.6807 4.00451 15.8825 4L19.464 4.01577C19.4678 4.01525 19.4705 4.014 19.474 4.014L19.6565 4.00975C19.7572 4.00699 19.8478 4.0468 19.9125 4.11214C19.9779 4.17696 20.0016 4.26758 19.9996 4.36922L19.9936 4.56221ZM19.9936 4.56221C19.9936 4.55872 19.9936 4.56571 19.9936 4.56221ZM19.9939 19.4377L19.9834 15.8233C19.9789 15.6208 19.8119 15.5007 19.6101 15.4957L19.3539 15.4952C19.1519 15.4906 18.9921 15.6669 18.9963 15.8691L19.0103 18.2954L14.7141 14.0154C14.5191 13.8199 14.203 13.8199 14.0079 14.0154C13.8129 14.2109 13.8129 14.5278 14.0079 14.7233L18.2884 18.9883L15.9282 18.9946C15.7264 18.9901 15.5394 19.13 15.5087 19.3681L15.5092 19.6252C15.5139 19.8277 15.681 19.995 15.8825 19.9997L19.4643 19.9839C19.468 19.9839 19.4708 19.9854 19.4743 19.9854L19.6568 19.9899C19.7574 19.9924 19.8483 19.9529 19.9128 19.8873C19.9782 19.8227 20.0017 19.7318 19.9999 19.6302L19.9939 19.4377ZM19.9939 19.4377C19.9939 19.4338 19.9939 19.4412 19.9939 19.4377ZM9.30143 14.0154L5.00548 18.2824L5.01921 15.8694C5.02396 15.6669 4.86363 15.4909 4.66187 15.4954L4.38995 15.4959C4.18769 15.5009 4.02087 15.6211 4.01663 15.8236L4.00614 19.438C4.00614 19.7222 4.01987 19.4437 4.01987 19.4477L4.00014 19.6305C3.9979 19.7321 4.02162 19.8232 4.08729 19.8876C4.15172 19.9532 4.24261 19.9927 4.34299 19.9902L4.52578 19.9857C4.52926 19.9857 4.53176 19.9842 4.53577 19.9842L8.13303 20C8.33479 19.995 8.50161 19.8278 8.50634 19.6255L8.50684 19.3684C8.47614 19.1303 8.2891 18.9904 8.08734 18.9949L5.72687 18.9886L10.0073 14.7236C10.2024 14.5281 10.2024 14.2112 10.0073 14.0157C9.81233 13.8202 9.49645 13.8199 9.30143 14.0154ZM5.72688 5.01127L8.08762 5.00506C8.28938 5.00956 8.47641 4.86987 8.50712 4.63154L8.50662 4.37446C8.50161 4.17195 8.33478 4.00446 8.1333 4.0002L4.53577 4.01572C4.53177 4.01522 4.52927 4.01397 4.52578 4.01397L4.34299 4.0097C4.24263 4.00696 4.15148 4.04677 4.08729 4.11209C4.02162 4.17693 3.99791 4.26755 4.00014 4.36918L4.01987 4.55243C4.01987 4.55592 4.00614 4.55844 4.00614 4.56219L4.01663 8.17656C4.02112 8.37883 4.18794 8.49925 4.38995 8.504L4.66188 8.50424C4.86365 8.50874 5.02369 8.33276 5.0192 8.13048L5.00547 5.71749L9.30143 9.98448C9.4962 10.18 9.81259 10.18 10.0076 9.98448C10.2027 9.78895 10.2027 9.47179 10.0076 9.27628L5.72688 5.01127Z" stroke="#8794A7" stroke-width="0.25"/>
</svg>
