<svg width="24" height="24" viewBox="0 0 24 24" fill="none" xmlns="http://www.w3.org/2000/svg">
<rect width="24" height="24" fill="white"/>
<path d="M4 13.6667L4.88889 18.1111M4.88889 18.1111L4 20.7778M4.88889 18.1111H7.24711C7.87289 18.1111 8.02044 18.2356 8.12356 18.8542L8.44444 20.7778M20 13.6667L19.1111 18.1111M19.1111 18.1111L20 20.7778M19.1111 18.1111H16.7529C16.1271 18.1111 15.9796 18.2356 15.8764 18.8542L15.5556 20.7778M12 10.1111V20.7778M11.1111 20.7778H12.8889M9.33333 14.5556H14.6667M5.42222 7.80622C7.26222 6.94489 9.11378 5.57778 10.48 4.21244C11.288 3.40356 11.6924 3 12 3C12.3076 3 12.7111 3.40444 13.5209 4.21244C14.8862 5.57689 16.7378 6.94489 18.5769 7.80622C19.2027 8.09956 19.5849 8.46044 19.8871 9.16444C20.1182 9.70222 20.0142 10.1111 19.384 10.1111H4.616C3.98489 10.1111 3.88178 9.70222 4.11289 9.16444C4.41511 8.46044 4.79733 8.09956 5.42222 7.80622Z" stroke="#8794A7" stroke-width="1.25" stroke-linecap="round" stroke-linejoin="round"/>
</svg>
