<svg width="21" height="20" viewBox="0 0 21 20" fill="none" xmlns="http://www.w3.org/2000/svg">
<path d="M0.498511 19.3314C0.416694 19.6284 0.687183 19.9025 0.985231 19.8247L5.59257 18.6213C7.04693 19.409 8.68433 19.8275 10.3515 19.8275H10.3564C15.8424 19.8275 20.3143 15.3815 20.3143 9.91626C20.3143 7.26735 19.2804 4.77594 17.4006 2.90491C15.5209 1.03397 13.0227 0 10.3563 0C4.8704 0 0.398438 4.44605 0.398438 9.91136C0.397815 11.65 0.856733 13.3582 1.72912 14.8645L0.498511 19.3314Z" fill="url(#paint0_linear_7721_38135)"/>
<path d="M7.4811 5.0049C7.66406 5.00981 7.8669 5.0197 8.05989 5.44808C8.18786 5.73326 8.40344 6.25826 8.57905 6.68593C8.71571 7.01871 8.82816 7.29256 8.8563 7.34862C8.9206 7.47661 8.96018 7.62431 8.87609 7.79661C8.86617 7.81694 8.85681 7.83637 8.84779 7.85508C8.78033 7.99508 8.73232 8.09471 8.61889 8.22499C8.57224 8.27853 8.52365 8.33724 8.47524 8.39574C8.3901 8.49863 8.30551 8.60085 8.233 8.67307C8.1044 8.80098 7.97079 8.93896 8.11918 9.19496C8.26765 9.45095 8.78707 10.2929 9.55383 10.9724C10.3782 11.7063 11.095 12.0156 11.4573 12.1719C11.5277 12.2023 11.5847 12.2268 11.6265 12.2477C11.8838 12.3756 12.0371 12.356 12.1855 12.1837C12.3339 12.0113 12.8286 11.4352 13.0017 11.1792C13.1699 10.9232 13.343 10.9626 13.5805 11.0512C13.8179 11.1398 15.0843 11.7602 15.3415 11.8882C15.3924 11.9135 15.4399 11.9363 15.484 11.9574C15.663 12.0433 15.7846 12.1016 15.8362 12.1886C15.9005 12.2969 15.9005 12.8089 15.6878 13.4096C15.4702 14.0103 14.4214 14.5864 13.9465 14.6307C13.9016 14.6349 13.8568 14.6403 13.8108 14.6459C13.3756 14.6985 12.8231 14.7654 10.8548 13.9906C8.4294 13.0368 6.82838 10.6705 6.50469 10.192C6.47913 10.1543 6.46154 10.1282 6.45213 10.1156L6.44665 10.1083C6.29938 9.91125 5.39844 8.70572 5.39844 7.4619C5.39844 6.27187 5.98466 5.65232 6.25205 5.36972C6.26899 5.35181 6.28466 5.33526 6.29881 5.32C6.53622 5.064 6.8133 5 6.98641 5C7.1596 5 7.33271 5 7.4811 5.0049Z" fill="#F9FAFB"/>
<defs>
<linearGradient id="paint0_linear_7721_38135" x1="0.398438" y1="19.8381" x2="20.3143" y2="19.8381" gradientUnits="userSpaceOnUse">
<stop stop-color="#229B3C"/>
<stop offset="1" stop-color="#3EB960"/>
</linearGradient>
</defs>
</svg>
