<svg width="145" height="26" viewBox="0 0 145 26" fill="none" xmlns="http://www.w3.org/2000/svg">
<rect width="25" height="25" rx="5" fill="black"/>
<path d="M17.0396 11.68V11.7C16.2796 13.34 15.6196 14.3 14.5396 15.36C17.4196 17.14 18.6596 17.64 20.2396 17.64C20.7196 17.64 20.9596 17.6 21.4196 17.46C21.4596 17.44 21.4996 17.44 21.5396 17.44C21.7396 17.44 21.8996 17.6 21.8996 17.82C21.8996 17.98 21.7996 18.14 21.6596 18.2C21.3796 18.32 20.6196 18.44 20.1396 18.44C19.0396 18.44 17.8196 18.08 16.3796 17.32C15.7396 17 15.2196 16.7 13.9196 15.9C12.6996 16.9 11.2996 17.44 9.99961 17.44C8.57961 17.44 7.69961 16.78 7.69961 15.74C7.69961 14.74 8.27961 13.82 9.91961 12.18C8.77961 10.66 8.55961 10.16 8.55961 8.96C8.55961 6.96 9.51961 5.8 11.1596 5.8C12.5796 5.8 13.5796 6.82 13.5796 8.24C13.5796 9.7 12.8796 10.8 11.0596 12.2L10.9596 12.28C11.7996 13.28 12.7596 14.16 13.8596 14.94C14.8796 13.98 15.4196 13.18 16.3396 11.34C16.4196 11.14 16.5396 11.04 16.6796 11.04C16.8796 11.04 17.0796 11.26 17.0796 11.5C17.0796 11.56 17.0796 11.6 17.0396 11.68ZM10.5396 11.58L10.5796 11.54C10.6396 11.46 10.7396 11.38 10.9796 11.2C12.2596 10.22 12.7796 9.38 12.7796 8.28C12.7796 7.28 12.1396 6.6 11.1796 6.6C10.0196 6.6 9.35961 7.44 9.35961 8.94C9.35961 9.7 9.57961 10.26 10.2596 11.18C10.3996 11.36 10.4196 11.4 10.5396 11.58ZM10.3596 12.86C9.73961 13.52 9.71961 13.54 9.43961 13.86C8.85961 14.54 8.49961 15.24 8.49961 15.72C8.49961 16.3 9.07961 16.64 10.0196 16.64C11.0796 16.64 11.9796 16.32 13.2196 15.46C12.1196 14.68 11.1396 13.8 10.3596 12.86Z" fill="white"/>
<path d="M32.773 7.352H34.629L36.437 12.664L37.797 17.016H37.829L39.205 12.664L41.013 7.352H42.853L43.349 19H41.941L41.765 14.152L41.605 9.4H41.573L38.389 19H37.157L34.053 9.4H34.021L33.845 14.152L33.653 19H32.277L32.773 7.352ZM49.2036 19.176C48.297 19.176 47.5396 18.9947 46.9316 18.632C46.3343 18.2587 45.8863 17.752 45.5876 17.112C45.289 16.4613 45.1396 15.7147 45.1396 14.872C45.1396 14.2533 45.225 13.6827 45.3956 13.16C45.5663 12.6373 45.8116 12.1787 46.1316 11.784C46.4623 11.3787 46.8623 11.064 47.3316 10.84C47.801 10.616 48.3396 10.504 48.9476 10.504C49.577 10.504 50.1103 10.6213 50.5476 10.856C50.985 11.08 51.3316 11.4 51.5876 11.816C51.8436 12.2213 52.0143 12.7013 52.0996 13.256C52.1956 13.8107 52.2063 14.4187 52.1316 15.08H45.9396L46.6596 14.536C46.5423 15.2293 46.5636 15.8427 46.7236 16.376C46.8943 16.8987 47.1983 17.3147 47.6356 17.624C48.0836 17.9227 48.665 18.072 49.3796 18.072C49.8383 18.072 50.265 18.024 50.6596 17.928C51.065 17.832 51.3956 17.736 51.6516 17.64L51.8276 18.648C51.5076 18.7867 51.113 18.9093 50.6436 19.016C50.1743 19.1227 49.6943 19.176 49.2036 19.176ZM45.9556 14.248H50.8676C50.8783 14.1947 50.8836 14.1467 50.8836 14.104C50.8836 14.0613 50.8836 14.024 50.8836 13.992C50.8836 13.4907 50.809 13.0587 50.6596 12.696C50.5103 12.3227 50.2916 12.0347 50.0036 11.832C49.7156 11.6293 49.3476 11.528 48.8996 11.528C48.377 11.528 47.9343 11.6773 47.5716 11.976C47.2196 12.264 46.9583 12.648 46.7876 13.128C46.617 13.608 46.5476 14.1147 46.5796 14.648L45.9556 14.248ZM53.1829 20.776V17.96H61.4869V20.776H60.3029V19H54.3669V20.776H53.1829ZM53.5829 18.648C53.9882 18.264 54.2815 17.8053 54.4629 17.272C54.6549 16.728 54.7775 16.1413 54.8309 15.512C54.8949 14.872 54.9269 14.2213 54.9269 13.56V10.68H56.2709V13.56C56.2709 14.2213 56.2442 14.8613 56.1909 15.48C56.1482 16.0987 56.0362 16.6747 55.8549 17.208C55.6735 17.7413 55.3909 18.2213 55.0069 18.648H53.5829ZM59.4229 19V10.68H60.7669V19H59.4229ZM55.6949 11.72V10.68H60.1269V11.72H55.6949ZM63.3064 19V10.68H64.6504V14.216L64.6024 17.16H64.6344C64.997 16.5413 65.3384 15.9653 65.6584 15.432C65.989 14.888 66.309 14.3653 66.6184 13.864C66.9384 13.352 67.2584 12.8347 67.5784 12.312C67.909 11.7893 68.261 11.2453 68.6344 10.68H70.2184V19H68.8744V15.304L68.9224 12.408H68.8904C68.613 12.8453 68.261 13.4 67.8344 14.072C67.4184 14.744 66.949 15.496 66.4264 16.328C65.9144 17.16 65.3597 18.0507 64.7624 19H63.3064ZM74.3681 19.176C73.8775 19.176 73.4455 19.0747 73.0721 18.872C72.7095 18.6693 72.4268 18.392 72.2241 18.04C72.0215 17.688 71.9201 17.2827 71.9201 16.824C71.9201 16.344 72.0108 15.9547 72.1921 15.656C72.3841 15.3573 72.6348 15.128 72.9441 14.968C73.2641 14.808 73.6161 14.7013 74.0001 14.648C74.3841 14.584 74.7735 14.552 75.1681 14.552H76.9281V13.544C76.9281 13.2773 76.9068 13.032 76.8641 12.808C76.8321 12.5733 76.7575 12.3707 76.6401 12.2C76.5335 12.0187 76.3628 11.88 76.1281 11.784C75.8935 11.6773 75.5735 11.624 75.1681 11.624C74.7308 11.624 74.2988 11.6773 73.8721 11.784C73.4561 11.8907 73.0721 12.0187 72.7201 12.168L72.4801 11.144C72.7681 11.016 73.0721 10.904 73.3921 10.808C73.7228 10.712 74.0588 10.6373 74.4001 10.584C74.7521 10.5307 75.0828 10.504 75.3921 10.504C76.0321 10.504 76.5495 10.584 76.9441 10.744C77.3388 10.8933 77.6375 11.1067 77.8401 11.384C78.0428 11.6507 78.1761 11.9653 78.2401 12.328C78.3148 12.6907 78.3521 13.08 78.3521 13.496V16.952C78.3521 17.2613 78.3575 17.608 78.3681 17.992C78.3895 18.3653 78.4055 18.7013 78.4161 19H77.3601L77.0721 17.72H77.0401C76.7735 18.1467 76.4055 18.4987 75.9361 18.776C75.4775 19.0427 74.9548 19.176 74.3681 19.176ZM74.8161 18.168C75.2961 18.168 75.7388 18.04 76.1441 17.784C76.5601 17.5173 76.8321 17.1707 76.9601 16.744V15.368H75.3601C75.1468 15.368 74.9175 15.3787 74.6721 15.4C74.4375 15.4213 74.2135 15.4747 74.0001 15.56C73.7868 15.6347 73.6161 15.768 73.4881 15.96C73.3601 16.152 73.2961 16.4133 73.2961 16.744C73.2961 17.192 73.4348 17.544 73.7121 17.8C73.9895 18.0453 74.3575 18.168 74.8161 18.168ZM84.2919 13.16C84.2919 12.712 84.2865 12.28 84.2759 11.864C84.2652 11.448 84.2545 11.0533 84.2439 10.68L85.4919 10.632L85.5879 11.912H85.6199C85.9292 11.5387 86.3185 11.2133 86.7879 10.936C87.2679 10.648 87.7905 10.504 88.3559 10.504C89.0279 10.504 89.5985 10.68 90.0679 11.032C90.5479 11.3733 90.9105 11.8587 91.1559 12.488C91.4012 13.1173 91.5239 13.8533 91.5239 14.696C91.5239 15.592 91.3799 16.376 91.0919 17.048C90.8039 17.7093 90.4039 18.232 89.8919 18.616C89.3905 18.9893 88.8145 19.176 88.1639 19.176C87.7905 19.176 87.4439 19.112 87.1239 18.984C86.8145 18.856 86.5425 18.696 86.3079 18.504C86.0839 18.3013 85.8972 18.104 85.7479 17.912H85.7159V22.584H84.2919V13.16ZM87.8119 18.024C88.3239 18.024 88.7452 17.8693 89.0759 17.56C89.4065 17.2507 89.6519 16.8507 89.8119 16.36C89.9719 15.8693 90.0519 15.336 90.0519 14.76C90.0519 14.1307 89.9665 13.5867 89.7959 13.128C89.6359 12.6587 89.3959 12.3013 89.0759 12.056C88.7559 11.8 88.3559 11.672 87.8759 11.672C87.5772 11.672 87.2892 11.7307 87.0119 11.848C86.7452 11.9653 86.4999 12.12 86.2759 12.312C86.0519 12.4933 85.8705 12.6907 85.7319 12.904V16.472C85.8065 16.7173 85.9345 16.9627 86.1159 17.208C86.3079 17.4427 86.5479 17.64 86.8359 17.8C87.1239 17.9493 87.4492 18.024 87.8119 18.024ZM96.8443 19.176C95.9376 19.176 95.1803 18.9947 94.5723 18.632C93.9749 18.2587 93.5269 17.752 93.2283 17.112C92.9296 16.4613 92.7803 15.7147 92.7803 14.872C92.7803 14.2533 92.8656 13.6827 93.0363 13.16C93.2069 12.6373 93.4523 12.1787 93.7723 11.784C94.1029 11.3787 94.5029 11.064 94.9723 10.84C95.4416 10.616 95.9803 10.504 96.5883 10.504C97.2176 10.504 97.7509 10.6213 98.1883 10.856C98.6256 11.08 98.9723 11.4 99.2283 11.816C99.4843 12.2213 99.6549 12.7013 99.7403 13.256C99.8363 13.8107 99.8469 14.4187 99.7723 15.08H93.5803L94.3003 14.536C94.1829 15.2293 94.2043 15.8427 94.3643 16.376C94.5349 16.8987 94.8389 17.3147 95.2763 17.624C95.7243 17.9227 96.3056 18.072 97.0203 18.072C97.4789 18.072 97.9056 18.024 98.3003 17.928C98.7056 17.832 99.0363 17.736 99.2923 17.64L99.4683 18.648C99.1483 18.7867 98.7536 18.9093 98.2843 19.016C97.8149 19.1227 97.3349 19.176 96.8443 19.176ZM93.5963 14.248H98.5083C98.5189 14.1947 98.5243 14.1467 98.5243 14.104C98.5243 14.0613 98.5243 14.024 98.5243 13.992C98.5243 13.4907 98.4496 13.0587 98.3003 12.696C98.1509 12.3227 97.9323 12.0347 97.6443 11.832C97.3563 11.6293 96.9883 11.528 96.5403 11.528C96.0176 11.528 95.5749 11.6773 95.2123 11.976C94.8603 12.264 94.5989 12.648 94.4283 13.128C94.2576 13.608 94.1883 14.1147 94.2203 14.648L93.5963 14.248ZM101.637 10.648H103.445L104.709 13.96L105.765 17.128H105.781L106.853 13.928L108.101 10.648H109.909L110.277 19H108.917L108.805 15.72L108.709 12.328H108.677L106.293 19H105.157L102.837 12.328H102.805L102.709 15.72L102.581 19H101.253L101.637 10.648ZM115.735 19.176C114.828 19.176 114.071 18.9947 113.463 18.632C112.866 18.2587 112.418 17.752 112.119 17.112C111.82 16.4613 111.671 15.7147 111.671 14.872C111.671 14.2533 111.756 13.6827 111.927 13.16C112.098 12.6373 112.343 12.1787 112.663 11.784C112.994 11.3787 113.394 11.064 113.863 10.84C114.332 10.616 114.871 10.504 115.479 10.504C116.108 10.504 116.642 10.6213 117.079 10.856C117.516 11.08 117.863 11.4 118.119 11.816C118.375 12.2213 118.546 12.7013 118.631 13.256C118.727 13.8107 118.738 14.4187 118.663 15.08H112.471L113.191 14.536C113.074 15.2293 113.095 15.8427 113.255 16.376C113.426 16.8987 113.73 17.3147 114.167 17.624C114.615 17.9227 115.196 18.072 115.911 18.072C116.37 18.072 116.796 18.024 117.191 17.928C117.596 17.832 117.927 17.736 118.183 17.64L118.359 18.648C118.039 18.7867 117.644 18.9093 117.175 19.016C116.706 19.1227 116.226 19.176 115.735 19.176ZM112.487 14.248H117.399C117.41 14.1947 117.415 14.1467 117.415 14.104C117.415 14.0613 117.415 14.024 117.415 13.992C117.415 13.4907 117.34 13.0587 117.191 12.696C117.042 12.3227 116.823 12.0347 116.535 11.832C116.247 11.6293 115.879 11.528 115.431 11.528C114.908 11.528 114.466 11.6773 114.103 11.976C113.751 12.264 113.49 12.648 113.319 13.128C113.148 13.608 113.079 14.1147 113.111 14.648L112.487 14.248ZM124.095 19.176C123.253 19.176 122.522 19.0053 121.903 18.664C121.295 18.312 120.821 17.816 120.479 17.176C120.149 16.5253 119.983 15.752 119.983 14.856C119.983 13.992 120.149 13.2347 120.479 12.584C120.821 11.9333 121.301 11.4267 121.919 11.064C122.549 10.7013 123.306 10.52 124.191 10.52C124.565 10.52 124.954 10.5573 125.359 10.632C125.765 10.7067 126.127 10.8187 126.447 10.968L126.271 12.04C126.015 11.9227 125.706 11.8267 125.343 11.752C124.991 11.6773 124.629 11.64 124.255 11.64C123.647 11.64 123.13 11.7787 122.703 12.056C122.287 12.3227 121.973 12.696 121.759 13.176C121.546 13.656 121.439 14.2053 121.439 14.824C121.439 15.4853 121.557 16.056 121.791 16.536C122.037 17.016 122.378 17.384 122.815 17.64C123.253 17.896 123.765 18.024 124.351 18.024C124.778 18.024 125.173 17.9813 125.535 17.896C125.909 17.8 126.202 17.7147 126.415 17.64L126.559 18.696C126.293 18.8133 125.925 18.92 125.455 19.016C124.997 19.1227 124.543 19.176 124.095 19.176ZM126.738 19.192L126.658 18.024C127.053 18.056 127.362 18.0187 127.586 17.912C127.821 17.7947 127.986 17.6027 128.082 17.336C128.178 17.0693 128.226 16.728 128.226 16.312V10.68H129.618V16.488C129.618 17.1173 129.522 17.6507 129.33 18.088C129.138 18.5147 128.829 18.8187 128.402 19C127.986 19.192 127.431 19.256 126.738 19.192ZM128.994 11.72V10.68H134.034V11.72H128.994ZM133.282 19V10.68H134.674V19H133.282ZM140.326 19.176C139.792 19.176 139.286 19.0853 138.806 18.904C138.326 18.712 137.904 18.4347 137.542 18.072C137.19 17.7093 136.912 17.256 136.71 16.712C136.507 16.168 136.406 15.544 136.406 14.84C136.406 14.136 136.507 13.512 136.71 12.968C136.912 12.424 137.19 11.9707 137.542 11.608C137.904 11.2453 138.326 10.9733 138.806 10.792C139.286 10.6 139.792 10.504 140.326 10.504C140.87 10.504 141.376 10.6 141.846 10.792C142.326 10.9733 142.747 11.2453 143.11 11.608C143.472 11.9707 143.755 12.424 143.958 12.968C144.16 13.512 144.262 14.136 144.262 14.84C144.262 15.544 144.16 16.168 143.958 16.712C143.755 17.256 143.472 17.7093 143.11 18.072C142.747 18.4347 142.326 18.712 141.846 18.904C141.376 19.0853 140.87 19.176 140.326 19.176ZM140.326 18.088C140.742 18.088 141.104 18.008 141.414 17.848C141.734 17.688 141.99 17.4587 142.182 17.16C142.384 16.8613 142.534 16.5147 142.63 16.12C142.736 15.7253 142.79 15.2987 142.79 14.84C142.79 14.3813 142.736 13.9547 142.63 13.56C142.534 13.1653 142.384 12.8187 142.182 12.52C141.99 12.2213 141.734 11.992 141.414 11.832C141.104 11.672 140.742 11.592 140.326 11.592C139.91 11.592 139.547 11.672 139.238 11.832C138.928 11.992 138.672 12.2213 138.47 12.52C138.267 12.8187 138.118 13.1653 138.022 13.56C137.926 13.9547 137.878 14.3813 137.878 14.84C137.878 15.2987 137.926 15.7253 138.022 16.12C138.118 16.5147 138.267 16.8613 138.47 17.16C138.672 17.4587 138.928 17.688 139.238 17.848C139.547 18.008 139.91 18.088 140.326 18.088Z" fill="black"/>
</svg>
