<svg width="187" height="42" viewBox="0 0 187 42" fill="none" xmlns="http://www.w3.org/2000/svg">
<path d="M29.4347 20.4545H32.6591L36.9773 30.9943H37.1477L41.4659 20.4545H44.6903V35H42.1619V25.0071H42.027L38.0071 34.9574H36.1179L32.098 24.9858H31.9631V35H29.4347V20.4545ZM52.2756 35.2131C51.1818 35.2131 50.2372 34.9858 49.4418 34.5312C48.651 34.072 48.0426 33.4233 47.6165 32.5852C47.1903 31.7424 46.9773 30.7505 46.9773 29.6094C46.9773 28.4872 47.1903 27.5024 47.6165 26.6548C48.0473 25.8026 48.6487 25.1397 49.4205 24.6662C50.1922 24.188 51.099 23.9489 52.1406 23.9489C52.813 23.9489 53.4474 24.0578 54.044 24.2756C54.6454 24.4886 55.1757 24.8201 55.6349 25.2699C56.099 25.7197 56.4635 26.2926 56.7287 26.9886C56.9938 27.6799 57.1264 28.5038 57.1264 29.4602V30.2486H48.1847V28.5156H54.6619C54.6572 28.0232 54.5507 27.5852 54.3423 27.2017C54.134 26.8134 53.8428 26.508 53.4688 26.2855C53.0994 26.063 52.6686 25.9517 52.1761 25.9517C51.6506 25.9517 51.1889 26.0795 50.7912 26.3352C50.3935 26.5862 50.0833 26.9176 49.8608 27.3295C49.643 27.7367 49.5317 28.1842 49.527 28.6719V30.1847C49.527 30.8191 49.643 31.3636 49.875 31.8182C50.107 32.268 50.4313 32.6136 50.848 32.8551C51.2647 33.0919 51.7524 33.2102 52.3111 33.2102C52.6851 33.2102 53.0237 33.1581 53.3267 33.054C53.6297 32.9451 53.8925 32.7865 54.1151 32.5781C54.3376 32.3698 54.5057 32.1117 54.6193 31.804L57.0199 32.0739C56.8684 32.7083 56.5795 33.2623 56.1534 33.7358C55.732 34.2045 55.1922 34.5691 54.5341 34.8295C53.8759 35.0852 53.1231 35.2131 52.2756 35.2131ZM58.3356 38.1676V32.8835H59.2021C59.4341 32.7036 59.6282 32.4598 59.7844 32.152C59.9407 31.8395 60.0685 31.4725 60.168 31.0511C60.2721 30.625 60.3574 30.1491 60.4237 29.6236C60.4899 29.0933 60.5491 28.5227 60.6012 27.9119L60.9137 24.0909H68.7972V32.8835H70.4876V38.1676H68.0018V35H60.864V38.1676H58.3356ZM61.8441 32.8835H66.3398V26.1648H63.1438L62.9734 27.9119C62.8787 29.0672 62.7532 30.0568 62.5969 30.8807C62.4407 31.7045 62.1897 32.3722 61.8441 32.8835ZM74.8857 31.5199L79.2536 24.0909H81.8956V35H79.4098V27.5639L75.0561 35H72.407V24.0909H74.8857V31.5199ZM87.6751 35.2202C86.9838 35.2202 86.3612 35.0971 85.8072 34.8509C85.2579 34.5999 84.8223 34.2306 84.5004 33.7429C84.1831 33.2552 84.0245 32.6539 84.0245 31.9389C84.0245 31.3234 84.1381 30.8144 84.3654 30.4119C84.5927 30.0095 84.9028 29.6875 85.2958 29.446C85.6888 29.2045 86.1315 29.0223 86.6239 28.8991C87.1211 28.7713 87.6348 28.679 88.1651 28.6222C88.8043 28.5559 89.3228 28.4967 89.7205 28.4446C90.1183 28.3878 90.4071 28.3026 90.587 28.1889C90.7717 28.0705 90.864 27.8883 90.864 27.642V27.5994C90.864 27.0644 90.7054 26.6501 90.3881 26.3565C90.0709 26.063 89.614 25.9162 89.0174 25.9162C88.3877 25.9162 87.8881 26.0535 87.5188 26.3281C87.1542 26.6027 86.908 26.9271 86.7802 27.3011L84.3796 26.9602C84.569 26.2973 84.8815 25.7434 85.3171 25.2983C85.7527 24.8485 86.2854 24.5123 86.9151 24.2898C87.5449 24.0625 88.2409 23.9489 89.0032 23.9489C89.5288 23.9489 90.052 24.0104 90.5728 24.1335C91.0936 24.2566 91.5695 24.4602 92.0004 24.7443C92.4312 25.0237 92.7769 25.4048 93.0373 25.8878C93.3024 26.3707 93.435 26.9744 93.435 27.6989V35H90.9634V33.5014H90.8782C90.7219 33.8045 90.5018 34.0885 90.2177 34.3537C89.9383 34.6141 89.5856 34.8248 89.1594 34.9858C88.738 35.142 88.2433 35.2202 87.6751 35.2202ZM88.3427 33.331C88.8588 33.331 89.3062 33.2292 89.685 33.0256C90.0638 32.8172 90.355 32.5426 90.5586 32.2017C90.7669 31.8608 90.8711 31.4891 90.8711 31.0866V29.8011C90.7906 29.8674 90.6533 29.929 90.4592 29.9858C90.2698 30.0426 90.0567 30.0923 89.82 30.1349C89.5832 30.1776 89.3488 30.2154 89.1168 30.2486C88.8848 30.2817 88.6836 30.3101 88.5131 30.3338C88.1296 30.3859 87.7863 30.4711 87.4833 30.5895C87.1803 30.7079 86.9412 30.8736 86.766 31.0866C86.5908 31.295 86.5032 31.5649 86.5032 31.8963C86.5032 32.3698 86.676 32.7273 87.0217 32.9688C87.3673 33.2102 87.8076 33.331 88.3427 33.331ZM100.981 39.0909V24.0909H103.51V25.8949H103.659C103.791 25.6297 103.978 25.348 104.22 25.0497C104.461 24.7467 104.788 24.4886 105.2 24.2756C105.612 24.0578 106.137 23.9489 106.777 23.9489C107.619 23.9489 108.379 24.1643 109.056 24.5952C109.738 25.0213 110.278 25.6534 110.676 26.4915C111.078 27.3248 111.279 28.3475 111.279 29.5597C111.279 30.7576 111.083 31.7756 110.69 32.6136C110.297 33.4517 109.762 34.0909 109.085 34.5312C108.408 34.9716 107.641 35.1918 106.784 35.1918C106.159 35.1918 105.64 35.0876 105.228 34.8793C104.816 34.6709 104.485 34.42 104.234 34.1264C103.988 33.8281 103.796 33.5464 103.659 33.2812H103.552V39.0909H100.981ZM103.502 29.5455C103.502 30.2509 103.602 30.8688 103.801 31.3991C104.004 31.9295 104.296 32.3437 104.674 32.642C105.058 32.9356 105.522 33.0824 106.066 33.0824C106.635 33.0824 107.11 32.9309 107.494 32.6278C107.877 32.3201 108.166 31.901 108.36 31.3707C108.559 30.8357 108.659 30.2273 108.659 29.5455C108.659 28.8684 108.562 28.267 108.368 27.7415C108.173 27.2159 107.885 26.804 107.501 26.5057C107.118 26.2074 106.639 26.0582 106.066 26.0582C105.517 26.0582 105.051 26.2027 104.667 26.4915C104.284 26.7803 103.993 27.1851 103.794 27.706C103.6 28.2268 103.502 28.84 103.502 29.5455ZM118.311 35.2131C117.217 35.2131 116.272 34.9858 115.477 34.5312C114.686 34.072 114.078 33.4233 113.652 32.5852C113.225 31.7424 113.012 30.7505 113.012 29.6094C113.012 28.4872 113.225 27.5024 113.652 26.6548C114.083 25.8026 114.684 25.1397 115.456 24.6662C116.227 24.188 117.134 23.9489 118.176 23.9489C118.848 23.9489 119.483 24.0578 120.079 24.2756C120.681 24.4886 121.211 24.8201 121.67 25.2699C122.134 25.7197 122.499 26.2926 122.764 26.9886C123.029 27.6799 123.162 28.5038 123.162 29.4602V30.2486H114.22V28.5156H120.697C120.692 28.0232 120.586 27.5852 120.377 27.2017C120.169 26.8134 119.878 26.508 119.504 26.2855C119.135 26.063 118.704 25.9517 118.211 25.9517C117.686 25.9517 117.224 26.0795 116.826 26.3352C116.429 26.5862 116.118 26.9176 115.896 27.3295C115.678 27.7367 115.567 28.1842 115.562 28.6719V30.1847C115.562 30.8191 115.678 31.3636 115.91 31.8182C116.142 32.268 116.467 32.6136 116.883 32.8551C117.3 33.0919 117.788 33.2102 118.346 33.2102C118.72 33.2102 119.059 33.1581 119.362 33.054C119.665 32.9451 119.928 32.7865 120.15 32.5781C120.373 32.3698 120.541 32.1117 120.654 31.804L123.055 32.0739C122.904 32.7083 122.615 33.2623 122.189 33.7358C121.767 34.2045 121.227 34.5691 120.569 34.8295C119.911 35.0852 119.158 35.2131 118.311 35.2131ZM131.615 32.0099L134.854 24.0909H136.928L132.517 35H130.72L126.409 24.0909H128.462L131.615 32.0099ZM127.815 24.0909V35H125.337V24.0909H127.815ZM135.521 35V24.0909H137.979V35H135.521ZM145.401 35.2131C144.307 35.2131 143.362 34.9858 142.567 34.5312C141.776 34.072 141.168 33.4233 140.741 32.5852C140.315 31.7424 140.102 30.7505 140.102 29.6094C140.102 28.4872 140.315 27.5024 140.741 26.6548C141.172 25.8026 141.774 25.1397 142.545 24.6662C143.317 24.188 144.224 23.9489 145.266 23.9489C145.938 23.9489 146.572 24.0578 147.169 24.2756C147.77 24.4886 148.301 24.8201 148.76 25.2699C149.224 25.7197 149.589 26.2926 149.854 26.9886C150.119 27.6799 150.251 28.5038 150.251 29.4602V30.2486H141.31V28.5156H147.787C147.782 28.0232 147.676 27.5852 147.467 27.2017C147.259 26.8134 146.968 26.508 146.594 26.2855C146.224 26.063 145.794 25.9517 145.301 25.9517C144.776 25.9517 144.314 26.0795 143.916 26.3352C143.518 26.5862 143.208 26.9176 142.986 27.3295C142.768 27.7367 142.657 28.1842 142.652 28.6719V30.1847C142.652 30.8191 142.768 31.3636 143 31.8182C143.232 32.268 143.556 32.6136 143.973 32.8551C144.39 33.0919 144.877 33.2102 145.436 33.2102C145.81 33.2102 146.149 33.1581 146.452 33.054C146.755 32.9451 147.018 32.7865 147.24 32.5781C147.463 32.3698 147.631 32.1117 147.744 31.804L150.145 32.0739C149.993 32.7083 149.705 33.2623 149.278 33.7358C148.857 34.2045 148.317 34.5691 147.659 34.8295C147.001 35.0852 146.248 35.2131 145.401 35.2131ZM157.185 35.2131C156.096 35.2131 155.161 34.974 154.38 34.4957C153.603 34.0175 153.004 33.357 152.583 32.5142C152.166 31.6667 151.958 30.6913 151.958 29.5881C151.958 28.4801 152.171 27.5024 152.597 26.6548C153.023 25.8026 153.624 25.1397 154.401 24.6662C155.182 24.188 156.105 23.9489 157.171 23.9489C158.056 23.9489 158.84 24.1122 159.522 24.4389C160.208 24.7609 160.755 25.2178 161.162 25.8097C161.569 26.3968 161.801 27.0833 161.858 27.8693H159.401C159.301 27.3437 159.065 26.9058 158.691 26.5554C158.321 26.2003 157.827 26.0227 157.206 26.0227C156.681 26.0227 156.219 26.1648 155.821 26.4489C155.424 26.7282 155.114 27.1307 154.891 27.6562C154.673 28.1818 154.564 28.8116 154.564 29.5455C154.564 30.2888 154.673 30.928 154.891 31.4631C155.109 31.9934 155.414 32.4029 155.807 32.6918C156.205 32.9759 156.671 33.1179 157.206 33.1179C157.585 33.1179 157.924 33.0469 158.222 32.9048C158.525 32.758 158.778 32.5473 158.982 32.2727C159.185 31.9981 159.325 31.6643 159.401 31.2713H161.858C161.797 32.0431 161.569 32.7273 161.176 33.3239C160.783 33.9157 160.248 34.3797 159.571 34.7159C158.894 35.0473 158.099 35.2131 157.185 35.2131ZM163.217 35L163.202 32.8835H163.579C163.863 32.8835 164.102 32.8196 164.296 32.6918C164.49 32.5639 164.651 32.3509 164.779 32.0526C164.907 31.7495 165.006 31.3423 165.077 30.831C165.148 30.3196 165.198 29.6828 165.227 28.9205L165.418 24.0909H173.373V35H170.887V26.2003H167.755L167.585 29.7159C167.542 30.625 167.44 31.4134 167.279 32.081C167.123 32.7438 166.9 33.2907 166.612 33.7216C166.327 34.1525 165.97 34.4744 165.539 34.6875C165.108 34.8958 164.599 35 164.012 35H163.217ZM180.72 35.2131C179.655 35.2131 178.732 34.9787 177.95 34.5099C177.169 34.0412 176.563 33.3854 176.132 32.5426C175.706 31.6998 175.493 30.715 175.493 29.5881C175.493 28.4612 175.706 27.474 176.132 26.6264C176.563 25.7789 177.169 25.1207 177.95 24.652C178.732 24.1832 179.655 23.9489 180.72 23.9489C181.786 23.9489 182.709 24.1832 183.49 24.652C184.271 25.1207 184.875 25.7789 185.301 26.6264C185.732 27.474 185.947 28.4612 185.947 29.5881C185.947 30.715 185.732 31.6998 185.301 32.5426C184.875 33.3854 184.271 34.0412 183.49 34.5099C182.709 34.9787 181.786 35.2131 180.72 35.2131ZM180.734 33.1534C181.312 33.1534 181.795 32.9948 182.183 32.6776C182.571 32.3556 182.86 31.9247 183.05 31.3849C183.244 30.8452 183.341 30.2438 183.341 29.581C183.341 28.9134 183.244 28.3097 183.05 27.7699C182.86 27.2254 182.571 26.7921 182.183 26.4702C181.795 26.1482 181.312 25.9872 180.734 25.9872C180.143 25.9872 179.65 26.1482 179.257 26.4702C178.869 26.7921 178.578 27.2254 178.384 27.7699C178.194 28.3097 178.099 28.9134 178.099 29.581C178.099 30.2438 178.194 30.8452 178.384 31.3849C178.578 31.9247 178.869 32.3556 179.257 32.6776C179.65 32.9948 180.143 33.1534 180.734 33.1534Z" fill="black"/>
<path d="M25.849 24.7V24.75C23.949 28.85 22.299 31.25 19.599 33.9C26.799 38.35 29.899 39.6 33.849 39.6C35.049 39.6 35.649 39.5 36.799 39.15C36.899 39.1 36.999 39.1 37.099 39.1C37.599 39.1 37.999 39.5 37.999 40.05C37.999 40.45 37.749 40.85 37.399 41C36.699 41.3 34.799 41.6 33.599 41.6C30.849 41.6 27.799 40.7 24.199 38.8C22.599 38 21.299 37.25 18.049 35.25C14.999 37.75 11.499 39.1 8.24902 39.1C4.69902 39.1 2.49902 37.45 2.49902 34.85C2.49902 32.35 3.94902 30.05 8.04902 25.95C5.19902 22.15 4.64902 20.9 4.64902 17.9C4.64902 12.9 7.04902 10 11.149 10C14.699 10 17.199 12.55 17.199 16.1C17.199 19.75 15.449 22.5 10.899 26L10.649 26.2C12.749 28.7 15.149 30.9 17.899 32.85C20.449 30.45 21.799 28.45 24.099 23.85C24.299 23.35 24.599 23.1 24.949 23.1C25.449 23.1 25.949 23.65 25.949 24.25C25.949 24.4 25.949 24.5 25.849 24.7ZM9.59902 24.45L9.69902 24.35C9.84902 24.15 10.099 23.95 10.699 23.5C13.899 21.05 15.199 18.95 15.199 16.2C15.199 13.7 13.599 12 11.199 12C8.29902 12 6.64902 14.1 6.64902 17.85C6.64902 19.75 7.19902 21.15 8.89902 23.45C9.24902 23.9 9.29902 24 9.59902 24.45ZM9.14902 27.65C7.59902 29.3 7.54902 29.35 6.84902 30.15C5.39902 31.85 4.49902 33.6 4.49902 34.8C4.49902 36.25 5.94902 37.1 8.29902 37.1C10.949 37.1 13.199 36.3 16.299 34.15C13.549 32.2 11.099 30 9.14902 27.65Z" fill="black"/>
</svg>
