<svg width="0" height="0" class="hidden">
    <symbol version="1.1" xmlns="http://www.w3.org/2000/svg" viewBox="0 0 1917 448" id="logo">
        <path fill="currentColor"
              d="M365.519 271.426c-21.083 60.014-79.901 103.303-148.989 103.303-86.729 0-157.293-68.249-157.293-152.13s70.578-152.117 157.308-152.117c65.089 0 121.078 38.437 144.962 93.086l54.61-22.237c-32.886-75.23-109.958-128.154-199.571-128.154-119.405 0-216.543 93.95-216.543 209.422s97.138 209.435 216.543 209.435c95.104 0 176.092-59.61 205.104-142.225l-56.129-18.383z"></path>
        <path fill="currentColor"
              d="M294.008 248c-11.552 32.885-44.883 56.133-83.301 53.558-40.089-2.695-72.558-33.76-75.734-72.507-3.818-46.523 34.237-85.567 81.559-85.567 33.861 0 62.984 20.001 75.4 48.423l54.609-22.237c-21.793-49.866-73.407-84.69-133.089-83.451-75.512 1.563-136.851 61.307-137.981 134.354-1.17 76.16 62.566 138.478 141.060 138.478 61.953 0 114.71-38.828 133.619-92.655l-56.142-18.396z"></path>
        <path fill="currentColor"
              d="M663.831 208.452c-19.501 0-37.070-4.041-52.706-12.122-15.636-8.257-27.934-19.677-36.894-34.259-8.784-14.758-13.177-31.447-13.177-50.071s4.392-35.225 13.177-49.807c8.96-14.758 21.258-26.177 36.894-34.259 15.636-8.257 33.204-12.386 52.706-12.386 17.92 0 33.91 3.162 47.962 9.487s25.648 15.46 34.786 27.407l-39.266 35.049c-11.417-14.406-24.857-21.609-40.32-21.609-13.001 0-23.454 4.217-31.36 12.649-7.906 8.257-11.859 19.414-11.859 33.468s3.953 25.299 11.859 33.732c7.906 8.257 18.359 12.386 31.36 12.386 15.463 0 28.903-7.203 40.32-21.609l39.266 35.049c-9.138 11.946-20.733 21.082-34.786 27.407s-30.042 9.487-47.962 9.487zM843.597 157.854h-16.866v46.381h-62.193v-184.471h88.809c17.037 0 31.887 2.811 44.537 8.433s22.4 13.703 29.252 24.244c6.852 10.541 10.278 22.839 10.278 36.894 0 13.177-2.991 24.684-8.96 34.522-5.975 9.838-14.586 17.657-25.826 23.454l38.739 56.922h-66.409l-31.36-46.381zM874.694 89.337c0-6.852-2.108-12.122-6.325-15.812-4.217-3.865-10.541-5.798-18.974-5.798h-22.663v43.219h22.663c8.433 0 14.758-1.845 18.974-5.534 4.217-3.865 6.325-9.223 6.325-16.076zM1114.268 157.327v46.908h-153.374v-184.471h149.948v46.908h-88.809v21.609h78.005v44.8h-78.005v24.244h92.236zM1263.913 172.084h-70.099l-12.386 32.151h-63.247l80.64-184.471h61.139l80.64 184.471h-64.301l-12.386-32.151zM1246.784 127.284l-17.92-46.381-17.92 46.381h35.84zM1381.322 67.991h-54.023v-48.226h170.24v48.226h-54.023v136.244h-62.193v-136.245zM1667.068 157.327v46.908h-153.374v-184.471h149.948v46.908h-88.809v21.609h78.004v44.8h-78.004v24.244h92.236zM663.831 432.452c-19.501 0-37.070-4.041-52.706-12.122-15.636-8.257-27.934-19.677-36.894-34.259-8.784-14.758-13.177-31.447-13.177-50.071s4.392-35.225 13.177-49.807c8.96-14.758 21.258-26.177 36.894-34.259 15.636-8.257 33.204-12.386 52.706-12.386 17.92 0 33.91 3.162 47.962 9.487s25.648 15.461 34.786 27.407l-39.266 35.049c-11.417-14.406-24.857-21.609-40.32-21.609-13.001 0-23.454 4.217-31.36 12.649-7.906 8.257-11.859 19.414-11.859 33.468s3.953 25.299 11.859 33.732c7.906 8.257 18.359 12.386 31.36 12.386 15.463 0 28.903-7.203 40.32-21.609l39.266 35.049c-9.138 11.946-20.733 21.082-34.786 27.407s-30.042 9.487-47.962 9.487zM857.393 432.452c-19.857 0-37.684-4.129-53.497-12.386s-28.198-19.677-37.158-34.259c-8.96-14.758-13.44-31.36-13.44-49.807s4.48-34.962 13.44-49.543c8.96-14.758 21.346-26.265 37.158-34.522s33.639-12.386 53.497-12.386c19.85 0 37.685 4.129 53.497 12.386s28.198 19.765 37.158 34.522c8.96 14.582 13.44 31.097 13.44 49.543s-4.48 35.049-13.44 49.807c-8.96 14.582-21.346 26.002-37.158 34.259s-33.646 12.386-53.497 12.386zM857.393 382.118c7.728 0 14.665-1.844 20.819-5.534 6.324-3.865 11.332-9.223 15.021-16.076 3.689-7.028 5.534-15.197 5.534-24.508s-1.844-17.393-5.534-24.244c-3.689-7.028-8.697-12.386-15.021-16.076-6.153-3.865-13.091-5.798-20.819-5.798-7.735 0-14.758 1.932-21.082 5.798-6.153 3.689-11.068 9.047-14.758 16.076-3.689 6.852-5.534 14.934-5.534 24.244s1.844 17.481 5.534 24.508c3.689 6.852 8.604 12.21 14.758 16.076 6.324 3.689 13.348 5.534 21.082 5.534zM1165.894 243.765v184.471h-51.125l-70.099-83.802v83.802h-60.612v-184.471h51.125l70.099 83.802v-83.802h60.612zM1235.913 291.991h-54.023v-48.226h170.24v48.226h-54.023v136.245h-62.193v-136.244zM1521.658 381.327v46.908h-153.374v-184.471h149.948v46.908h-88.809v21.609h78.005v44.8h-78.005v24.245h92.236zM1727.436 243.765v184.471h-51.124l-70.099-83.802v83.802h-60.612v-184.471h51.125l70.099 83.802v-83.802h60.612zM1797.462 291.991h-54.023v-48.226h170.24v48.226h-54.023v136.245h-62.193v-136.244z"></path>
    </symbol>
    <symbol version="1.1" xmlns="http://www.w3.org/2000/svg" viewBox="0 0 508 448" id="arrow-right">
        <path fill="currentColor" d="M29.867 190.167c-16.495 0-29.867 13.372-29.867 29.867s13.372 29.867 29.867 29.867v-59.733zM498.985 241.152c11.663-11.663 11.663-30.574 0-42.238l-190.071-190.070c-11.662-11.664-30.572-11.664-42.237 0s-11.663 30.574 0 42.238l168.952 168.952-168.952 168.95c-11.663 11.666-11.663 30.575 0 42.241 11.664 11.663 30.574 11.663 42.237 0l190.071-190.072zM29.867 220.034v29.867h448v-59.733h-448v29.867z"></path>
    </symbol>
    <symbol version="1.1" xmlns="http://www.w3.org/2000/svg" viewBox="0 0 508 448" id="arrow-left">
        <path fill="currentColor" d="M477.867 249.9c16.495 0 29.867-13.372 29.867-29.867s-13.371-29.867-29.867-29.867v59.733zM8.748 198.914c-11.664 11.663-11.664 30.574 0 42.238l190.070 190.072c11.664 11.663 30.574 11.663 42.238 0 11.663-11.666 11.663-30.575 0-42.241l-168.952-168.95 168.952-168.952c11.663-11.663 11.663-30.574 0-42.238s-30.574-11.664-42.238 0l-190.070 190.070zM477.867 220.034v-29.867h-448v59.733h448v-29.867z"></path>
    </symbol>
    <symbol version="1.1" xmlns="http://www.w3.org/2000/svg" viewBox="0 0 431 448" id="tg">
        <path fill="currentColor" d="M215.385 0c118.953 0 215.381 96.905 215.385 216.444 0 119.542-96.43 216.461-215.385 216.461s-215.385-96.92-215.385-216.461c0.003-119.539 96.433-216.444 215.385-216.444zM303.441 130.308c-8.102 0.146-20.541 4.488-80.333 29.481-20.947 8.757-62.825 26.877-125.612 54.368-10.194 4.074-15.531 8.067-16.019 11.963-0.934 7.483 9.783 9.813 23.272 14.219 10.997 3.593 25.795 7.794 33.485 7.961 6.974 0.148 14.763-2.736 23.356-8.667 58.663-39.795 88.946-59.908 90.849-60.34 1.34-0.307 3.2-0.687 4.459 0.438 1.254 1.125 1.125 3.248 0.993 3.819-1.080 4.581-56.178 54.946-59.348 58.255-12.118 12.647-25.891 20.398-4.628 34.479 18.397 12.182 29.105 19.957 48.058 32.442 12.113 7.98 21.618 17.444 34.124 16.288 5.757-0.532 11.705-5.974 14.724-22.195 7.135-38.333 21.157-121.389 24.399-155.615 0.284-2.994-0.066-6.826-0.353-8.515-0.286-1.685-0.899-4.096-3.079-5.873-2.581-2.1-6.565-2.539-8.345-2.507z"></path>
    </symbol>

    <symbol version="1.1" xmlns="http://www.w3.org/2000/svg" viewBox="0 0 448 448" id="logo-small">
        <path  fill="currentColor" d="M388.364 274.391c-22.402 63.765-84.896 109.758-158.301 109.758-92.149 0-167.124-72.513-167.124-161.638s74.99-161.624 167.14-161.624c69.155 0 128.644 40.839 154.021 98.905l58.023-23.627c-34.94-79.931-116.831-136.164-212.044-136.164-126.869 0-230.079 99.821-230.079 222.511s103.209 222.525 230.079 222.525c101.047 0 187.097-63.335 217.921-151.114l-59.636-19.531z"></path>
        <path  fill="currentColor" d="M312.431 249.486c-12.274 34.939-47.689 59.641-88.507 56.905-42.596-2.863-77.093-35.871-80.469-77.038-4.057-49.43 36.378-90.915 86.656-90.915 35.978 0 66.922 21.25 80.113 51.45l58.023-23.627c-23.156-52.982-77.995-89.984-141.408-88.666-80.231 1.661-145.404 65.139-146.604 142.752-1.244 80.92 66.477 147.132 149.876 147.132 65.825 0 121.879-41.254 141.971-98.447l-59.652-19.545z"></path>
    </symbol>
</svg>