<svg width="268" height="33" viewBox="0 0 268 33" fill="none" xmlns="http://www.w3.org/2000/svg">
<path d="M106.497 18.7197V32.2009H103V2.16156H109.316C111.524 2.16156 113.149 2.27781 114.194 2.5103C115.236 2.7428 116.143 3.12787 116.911 3.65826C117.873 4.34122 118.624 5.27847 119.163 6.47002C119.705 7.66156 119.975 8.98025 119.975 10.4297C119.975 11.8792 119.705 13.2015 119.163 14.3894C118.62 15.581 117.87 16.5182 116.911 17.2012C116.143 17.7497 115.243 18.1384 114.205 18.3709C113.17 18.6034 111.542 18.7197 109.32 18.7197H106.501H106.497ZM106.497 15.4756H108.307C111.382 15.4756 113.447 15.116 114.511 14.3967C115.575 13.6774 116.106 12.4241 116.106 10.6295C116.106 8.71506 115.56 7.3673 114.471 6.58626C113.382 5.80522 111.327 5.41651 108.307 5.41651H106.497V15.472V15.4756Z" fill="white"/>
<path d="M123.371 32.201V13.4269H126.23V17.3248C127.094 15.6973 128.012 14.5349 128.988 13.8374C129.96 13.1399 131.148 12.7911 132.547 12.7911C132.929 12.7911 133.301 12.8202 133.658 12.882C134.015 12.9437 134.372 13.0345 134.729 13.1581L133.658 16.0534C133.286 15.9298 132.937 15.839 132.609 15.7773C132.281 15.7155 131.964 15.6864 131.662 15.6864C129.96 15.6864 128.686 16.3004 127.833 17.521C126.981 18.7452 126.558 20.587 126.558 23.0501V32.201H123.367H123.371Z" fill="white"/>
<path d="M136.601 22.8648C136.601 21.4843 136.856 20.1802 137.363 18.956C137.869 17.7317 138.612 16.6419 139.585 15.6828C140.557 14.7238 141.661 13.9972 142.896 13.4959C144.131 12.9946 145.446 12.7476 146.848 12.7476C148.251 12.7476 149.518 13.0019 150.746 13.5068C151.974 14.0118 153.088 14.7528 154.09 15.7228C155.063 16.6673 155.806 17.7499 156.312 18.9741C156.818 20.1984 157.073 21.4953 157.073 22.8612C157.073 24.2271 156.818 25.5203 156.312 26.7301C155.806 27.9398 155.063 29.0187 154.09 29.9632C153.088 30.9477 151.966 31.6997 150.724 32.2192C149.482 32.7386 148.189 33.0002 146.845 33.0002C145.5 33.0002 144.145 32.7423 142.903 32.2301C141.661 31.7178 140.554 30.9804 139.581 30.025C138.608 29.0405 137.865 27.947 137.359 26.741C136.853 25.5385 136.598 24.2453 136.598 22.8612L136.601 22.8648ZM140.018 22.8648C140.018 24.8483 140.685 26.5266 142.014 27.9034C143.344 29.2766 144.958 29.9669 146.848 29.9669C148.739 29.9669 150.327 29.2803 151.642 27.9034C152.957 26.5303 153.616 24.8483 153.616 22.8648C153.616 20.8813 152.957 19.203 151.642 17.8262C150.323 16.453 148.728 15.7628 146.848 15.7628C144.969 15.7628 143.326 16.4493 142.003 17.8262C140.681 19.1993 140.018 20.8813 140.018 22.8648Z" fill="white"/>
<path d="M162.937 32.2008V16.0713H159.316V13.4231H162.937V7.98481C162.937 4.8679 163.331 2.75726 164.121 1.6529C164.912 0.552175 166.325 0 168.369 0C168.875 0 169.359 0.0363272 169.818 0.101717C170.277 0.170739 170.722 0.279718 171.144 0.432294V3.75627C170.733 3.52378 170.317 3.35304 169.898 3.24405C169.48 3.13507 169.05 3.08058 168.613 3.08058C167.665 3.08058 167.013 3.3821 166.656 3.98514C166.299 4.58818 166.121 6.06308 166.121 8.41711V13.4231H171.141V16.0713H166.201V32.2008H162.93H162.937Z" fill="white"/>
<path d="M173.68 4.37398C173.68 3.73099 173.909 3.18244 174.368 2.72108C174.827 2.25972 175.388 2.03448 176.044 2.03448C176.699 2.03448 177.242 2.26698 177.701 2.73197C178.16 3.19697 178.39 3.75642 178.39 4.41394C178.39 5.07147 178.164 5.60549 177.712 6.05595C177.26 6.50642 176.703 6.73165 176.044 6.73165C175.384 6.73165 174.827 6.50642 174.368 6.05595C173.909 5.60549 173.68 5.04241 173.68 4.37398ZM174.441 32.2009V13.4268H177.69V32.2009H174.441Z" fill="white"/>
<path d="M184.976 16.0716H181.52V13.4233H184.976V5.85266H188.269V13.4233H191.726V16.0716H188.269V32.2011H184.976V16.0716Z" fill="white"/>
<path d="M208.145 32.2009V2.16156H215.222C217.237 2.16156 218.716 2.27417 219.655 2.4994C220.595 2.72464 221.422 3.11334 222.136 3.65826C223.029 4.35575 223.721 5.28937 224.216 6.45912C224.712 7.62887 224.956 8.92576 224.956 10.3462C224.956 12.8092 224.267 14.6801 222.887 15.9588C221.51 17.2375 219.488 17.8769 216.829 17.8769H216.191L227.695 32.2009H223.149L212.162 17.8769H211.649V32.2009H208.152H208.145ZM211.642 5.17675V15.2322H214.377C217.175 15.2322 219.047 14.8726 219.994 14.1533C220.941 13.434 221.415 12.1807 221.415 10.3861C221.415 8.45714 220.927 7.10575 219.954 6.33197C218.982 5.55819 217.124 5.17312 214.377 5.17312H211.642V5.17675Z" fill="white"/>
<path d="M247.897 13.423V32.1971H244.772V28.7896C244.018 30.1591 243.052 31.2017 241.879 31.9174C240.706 32.633 239.391 32.9963 237.938 32.9963C235.235 32.9963 233.057 32.0699 231.406 30.2172C229.753 28.3645 228.926 25.9124 228.926 22.8609C228.926 19.8094 229.727 17.31 231.334 15.4828C232.936 13.6555 235.086 12.7437 237.774 12.7437C239.351 12.7437 240.721 13.096 241.879 13.8008C243.038 14.5055 243.974 15.5554 244.688 16.9504V13.4193H247.897V13.423ZM244.768 22.9844C244.768 20.8629 244.189 19.1591 243.03 17.8658C241.872 16.5726 240.36 15.9259 238.495 15.9259C236.63 15.9259 235.053 16.5217 233.967 17.7133C232.885 18.9048 232.343 20.565 232.343 22.7011C232.343 24.9715 232.889 26.7225 233.978 27.954C235.067 29.1855 236.616 29.7995 238.619 29.7995C240.623 29.7995 242.047 29.2001 243.136 28.0049C244.225 26.8097 244.772 25.135 244.772 22.988L244.768 22.9844Z" fill="white"/>
<path d="M253.738 4.37398C253.738 3.73099 253.968 3.18244 254.427 2.72108C254.886 2.26335 255.447 2.03448 256.102 2.03448C256.758 2.03448 257.301 2.26698 257.76 2.73197C258.219 3.19697 258.448 3.75642 258.448 4.41394C258.448 5.07147 258.222 5.60549 257.771 6.05595C257.319 6.50642 256.762 6.73165 256.102 6.73165C255.443 6.73165 254.886 6.50642 254.427 6.05595C253.968 5.60549 253.738 5.04241 253.738 4.37398ZM254.5 32.2009V13.4268H257.749V32.2009H254.5Z" fill="white"/>
<path d="M264.707 32.2007V0.395874H268V32.2007H264.707Z" fill="white"/>
<path d="M31.7932 0.0531006L0 31.9998H5.21864L37.0119 0.0531006H31.7932Z" fill="#76BC21"/>
<path d="M38.3811 0.0531616L6.58789 31.9999H9.52988L41.3212 0.0531616H38.3811Z" fill="#76BC21"/>
<path d="M28.5608 16.1786L24.2305 20.5461H45.9339V16.1786H28.5608Z" fill="#F8AF07"/>
<path d="M71.5307 19.4705C71.5827 19.4464 71.6385 19.4186 71.6998 19.4019C74.5414 18.6564 76.6824 17.0039 78.1432 14.4669C79.0037 12.9721 79.4683 11.3679 79.4311 9.64503C79.3828 7.30457 78.526 5.25713 77.0411 3.46563C75.9223 2.1155 74.4113 1.02873 72.7275 0.453814C70.7836 -0.211974 68.8154 0.0513742 66.8045 0.0513742C67.8546 1.01204 68.7318 2.12849 69.4101 3.35621C69.4845 3.39515 69.5607 3.42668 69.6313 3.43781C70.8728 3.61955 72.0288 4.02014 73.0045 4.81946C74.7291 6.23263 75.4428 8.06494 75.2941 10.2849C75.112 13.0222 72.9561 15.919 69.5384 16.1193C69.4733 16.123 69.2949 16.1193 69.2949 16.1193C69.2949 16.1193 69.2076 16.2973 69.163 16.3548C68.5348 17.3953 67.7654 18.3374 66.8807 19.1589C66.864 19.1756 66.8454 19.1923 66.8287 19.209C66.7767 19.2572 66.7228 19.3036 66.6707 19.35C66.5871 19.4241 66.5072 19.5002 66.418 19.5744L78.7807 31.9981H83.9993L71.5307 19.4687V19.4705Z" fill="#007934"/>
<path d="M65.5573 20.2364C65.0035 20.6296 64.4199 20.982 63.8066 21.2861L74.4669 31.9999H77.4089L65.6428 20.1752C65.615 20.1956 65.5852 20.216 65.5573 20.2364Z" fill="#007934"/>
<path d="M58.2188 22.8587V31.8923H62.261V21.9315C60.9953 22.3636 59.6238 22.6047 58.2188 22.6195C58.2188 22.6992 58.2188 22.8587 58.2188 22.8587Z" fill="#007934"/>
<path d="M56.1684 13.4191C56.1684 13.4191 56.1814 13.4191 56.187 13.4209C56.9137 13.5192 57.6552 13.4209 58.3447 13.1205C58.4098 13.0927 58.4692 13.0593 58.5324 13.0277L45.6178 0.0532227H42.6758L55.9417 13.3838C56.016 13.3987 56.0922 13.4098 56.1666 13.4209L56.1684 13.4191Z" fill="#007934"/>
<path d="M48.7205 16.6553C48.7168 16.7424 48.7168 16.8389 48.7168 16.9594C48.7168 21.8314 48.7205 16.6553 48.7205 16.6553Z" fill="#007934"/>
<path d="M65.5397 16.0897C67.5172 13.7863 68.4316 10.6447 67.7105 7.66811C67.138 5.30539 65.6754 3.13184 63.6757 1.71125C61.2968 0.0180327 58.7674 -0.0209132 55.9574 0.0402874C55.6488 0.0477057 55.3422 0.0532694 55.0337 0.0532694H46.9883C46.9883 0.0532694 59.3603 12.4863 59.3621 12.4863C59.3956 12.5196 59.9327 11.8854 59.9773 11.8242C60.1557 11.5812 60.3025 11.316 60.4289 11.0434C60.743 10.3628 60.992 9.50969 60.8247 8.76044L55.6693 3.53058C57.1282 3.44156 58.5592 3.3173 59.9345 3.8848C62.3078 4.86401 63.8913 7.25268 63.8244 9.83238C63.7593 12.3898 61.8488 14.9065 59.3603 15.5945C58.2786 15.8931 57.1672 16.0841 56.0484 16.1639C54.9538 16.2436 53.8573 16.1824 52.7645 16.1843L48.7223 16.1676V31.8924H52.7645C52.7645 31.8924 52.7738 30.0453 52.7645 29.3739C52.7645 29.3739 52.7589 28.4244 52.757 28.7155C52.757 28.1351 52.7626 27.5546 52.7645 26.9741C52.7738 24.7765 52.7979 19.7673 52.7979 19.7673C52.7979 19.7673 57.3271 19.7543 58.1504 19.6987C60.9809 19.5132 63.685 18.2502 65.5379 16.0915L65.5397 16.0897Z" fill="#007934"/>
<path d="M46.0143 26.1765H18.4751L12.8086 31.8904H46.0143V26.1765Z" fill="#F8AF07"/>
<path d="M46.4929 7.08386H37.4068L34.1562 10.3627H49.7434L46.4929 7.08386Z" fill="#F8AF07"/>
</svg>
