<svg width="231" height="153" viewBox="0 0 231 153" fill="none" xmlns="http://www.w3.org/2000/svg">
<path d="M4.8959 132.484V151.409H0V109.238H8.84323C11.9338 109.238 14.2083 109.401 15.672 109.728C17.1306 110.054 18.4004 110.595 19.4765 111.339C20.8229 112.298 21.8735 113.614 22.6283 115.287C23.3881 116.96 23.7655 118.811 23.7655 120.846C23.7655 122.881 23.3881 124.737 22.6283 126.405C21.8684 128.077 20.8178 129.393 19.4765 130.352C18.4004 131.122 17.1408 131.668 15.6873 131.994C14.2389 132.32 11.9593 132.484 8.84833 132.484H4.901H4.8959ZM4.8959 127.929H7.43055C11.7349 127.929 14.6265 127.425 16.1157 126.415C17.6049 125.405 18.3494 123.645 18.3494 121.126C18.3494 118.439 17.5845 116.546 16.0596 115.45C14.5347 114.353 11.6584 113.808 7.43055 113.808H4.8959V127.924V127.929Z" fill="white"/>
<path d="M28.5188 151.41V125.054H32.5222V130.526C33.7309 128.241 35.016 126.609 36.3828 125.63C37.7445 124.651 39.4071 124.161 41.3654 124.161C41.9009 124.161 42.4211 124.202 42.9209 124.289C43.4207 124.375 43.9205 124.503 44.4203 124.676L42.9209 128.741C42.4007 128.567 41.9111 128.44 41.4521 128.353C40.9931 128.267 40.5494 128.226 40.1261 128.226C37.7445 128.226 35.9595 129.088 34.7661 130.801C33.5728 132.52 32.9812 135.106 32.9812 138.563V151.41H28.5137H28.5188Z" fill="white"/>
<path d="M47.0422 138.303C47.0422 136.365 47.3992 134.534 48.1081 132.815C48.817 131.097 49.8574 129.567 51.219 128.22C52.5807 126.874 54.126 125.854 55.8548 125.15C57.5837 124.446 59.4248 124.1 61.3882 124.1C63.3517 124.1 65.1265 124.457 66.8451 125.165C68.5638 125.874 70.1244 126.915 71.5268 128.276C72.8885 129.602 73.9289 131.122 74.6378 132.841C75.3467 134.56 75.7036 136.38 75.7036 138.298C75.7036 140.215 75.3467 142.031 74.6378 143.729C73.9289 145.427 72.8885 146.942 71.5268 148.268C70.1244 149.65 68.5536 150.706 66.8145 151.435C65.0755 152.164 63.265 152.532 61.3831 152.532C59.5013 152.532 57.6041 152.169 55.865 151.45C54.126 150.731 52.5756 149.696 51.2139 148.355C49.8523 146.973 48.8119 145.438 48.103 143.744C47.3941 142.056 47.0371 140.241 47.0371 138.298L47.0422 138.303ZM51.8259 138.303C51.8259 141.087 52.7592 143.444 54.6207 145.376C56.4821 147.304 58.7414 148.273 61.3882 148.273C64.0351 148.273 66.2586 147.309 68.0997 145.376C69.9408 143.449 70.8638 141.087 70.8638 138.303C70.8638 135.518 69.9408 133.162 68.0997 131.229C66.2535 129.302 64.0198 128.333 61.3882 128.333C58.7567 128.333 56.4566 129.296 54.6054 131.229C52.7541 133.157 51.8259 135.518 51.8259 138.303Z" fill="white"/>
<path d="M83.913 151.41V128.766H78.8438V125.048H83.913V117.414C83.913 113.038 84.4638 110.075 85.5705 108.525C86.6772 106.979 88.656 106.204 91.517 106.204C92.2259 106.204 92.9042 106.255 93.5468 106.347C94.1893 106.444 94.8115 106.597 95.4031 106.811V111.477C94.8268 111.151 94.2454 110.911 93.659 110.758C93.0725 110.605 92.4707 110.529 91.8587 110.529C90.5327 110.529 89.6198 110.952 89.12 111.799C88.6203 112.645 88.3704 114.716 88.3704 118.021V125.048H95.398V128.766H88.4826V151.41H83.9029H83.913Z" fill="white"/>
<path d="M98.9531 112.345C98.9531 111.442 99.2744 110.672 99.917 110.024C100.56 109.377 101.345 109.061 102.263 109.061C103.181 109.061 103.941 109.387 104.583 110.04C105.226 110.693 105.547 111.478 105.547 112.401C105.547 113.324 105.231 114.074 104.599 114.706C103.966 115.339 103.186 115.655 102.263 115.655C101.34 115.655 100.56 115.339 99.917 114.706C99.2744 114.074 98.9531 113.283 98.9531 112.345ZM100.019 151.41V125.054H104.568V151.41H100.019Z" fill="white"/>
<path d="M114.768 128.766H109.928V125.048H114.768V114.42H119.378V125.048H124.218V128.766H119.378V151.41H114.768V128.766Z" fill="white"/>
<path d="M147.203 151.409V109.238H157.112C159.932 109.238 162.003 109.396 163.319 109.713C164.635 110.029 165.792 110.574 166.792 111.339C168.041 112.319 169.01 113.629 169.704 115.271C170.397 116.914 170.739 118.734 170.739 120.728C170.739 124.186 169.775 126.813 167.842 128.608C165.915 130.403 163.084 131.3 159.361 131.3H158.469L174.574 151.409H168.21L152.828 131.3H152.109V151.409H147.213H147.203ZM152.099 113.471V127.588H155.929C159.846 127.588 162.467 127.083 163.793 126.073C165.119 125.063 165.782 123.304 165.782 120.784C165.782 118.076 165.099 116.179 163.737 115.093C162.375 114.007 159.774 113.466 155.929 113.466H152.099V113.471Z" fill="white"/>
<path d="M202.859 125.048V151.405H198.483V146.621C197.428 148.544 196.076 150.007 194.434 151.012C192.792 152.017 190.951 152.527 188.916 152.527C185.132 152.527 182.082 151.226 179.772 148.625C177.457 146.024 176.299 142.582 176.299 138.298C176.299 134.014 177.421 130.505 179.67 127.94C181.914 125.375 184.923 124.095 188.686 124.095C190.895 124.095 192.812 124.589 194.434 125.579C196.056 126.568 197.367 128.042 198.366 130V125.043H202.859V125.048ZM198.478 138.471C198.478 135.493 197.667 133.101 196.046 131.286C194.424 129.47 192.307 128.562 189.696 128.562C187.085 128.562 184.877 129.399 183.357 131.071C181.837 132.744 181.083 135.075 181.083 138.074C181.083 141.261 181.848 143.719 183.372 145.448C184.897 147.177 187.065 148.039 189.87 148.039C192.675 148.039 194.669 147.197 196.194 145.519C197.718 143.842 198.483 141.49 198.483 138.476L198.478 138.471Z" fill="white"/>
<path d="M211.039 112.345C211.039 111.442 211.36 110.672 212.003 110.024C212.646 109.382 213.431 109.061 214.349 109.061C215.267 109.061 216.027 109.387 216.669 110.04C217.312 110.693 217.633 111.478 217.633 112.401C217.633 113.324 217.317 114.074 216.685 114.706C216.052 115.339 215.272 115.655 214.349 115.655C213.426 115.655 212.646 115.339 212.003 114.706C211.36 114.074 211.039 113.283 211.039 112.345ZM212.105 151.41V125.054H216.654V151.41H212.105Z" fill="white"/>
<path d="M226.395 151.409V106.76H231.005V151.409H226.395Z" fill="white"/>
<path d="M87.4373 0.146484L0.193359 87.9974H14.5139L101.758 0.146484H87.4373Z" fill="#76BC21"/>
<path d="M105.517 0.146484L18.2734 87.9974H26.3466L113.585 0.146484H105.517Z" fill="#76BC21"/>
<path d="M78.5683 44.4902L66.6855 56.5005H126.242V44.4902H78.5683Z" fill="#F8AF07"/>
<path d="M196.483 53.5423C196.626 53.476 196.779 53.3995 196.947 53.3536C204.745 51.3035 210.62 46.7595 214.628 39.7828C216.99 35.6723 218.265 31.2609 218.163 26.5231C218.03 20.087 215.679 14.4567 211.604 9.53019C208.534 5.81746 204.388 2.82892 199.767 1.24795C194.433 -0.582911 189.032 0.141275 183.514 0.141275C186.395 2.78302 188.802 5.85316 190.664 9.2293C190.868 9.3364 191.077 9.42309 191.271 9.45369C194.678 9.95348 197.85 11.0551 200.527 13.2531C205.26 17.1392 207.218 22.1779 206.81 28.2825C206.31 35.81 200.395 43.776 191.016 44.3268C190.837 44.337 190.348 44.3268 190.348 44.3268C190.348 44.3268 190.108 44.8164 189.986 44.9745C188.262 47.8355 186.151 50.4263 183.723 52.6855C183.677 52.7314 183.626 52.7773 183.58 52.8232C183.437 52.9558 183.29 53.0833 183.147 53.2108C182.917 53.4148 182.698 53.6239 182.453 53.8279L216.378 87.9922H230.698L196.483 53.5372V53.5423Z" fill="#007934"/>
<path d="M180.093 55.6488C178.573 56.7299 176.972 57.6989 175.289 58.5353L204.542 87.9974H212.615L180.328 55.4805C180.251 55.5366 180.17 55.5927 180.093 55.6488Z" fill="#007934"/>
<path d="M159.953 62.8595V87.7011H171.045V60.3096C167.572 61.4978 163.809 62.1608 159.953 62.2016C159.953 62.4209 159.953 62.8595 159.953 62.8595Z" fill="#007934"/>
<path d="M154.328 36.9015C154.328 36.9015 154.364 36.9015 154.379 36.9066C156.373 37.1769 158.408 36.9066 160.3 36.0804C160.478 36.0039 160.642 35.9121 160.815 35.8254L125.376 0.146484H117.303L153.706 36.8046C153.91 36.8454 154.119 36.876 154.323 36.9066L154.328 36.9015Z" fill="#007934"/>
<path d="M133.893 45.8008C133.883 46.0405 133.883 46.3057 133.883 46.6372C133.883 60.0346 133.893 45.8008 133.893 45.8008Z" fill="#007934"/>
<path d="M180.042 44.2457C185.468 37.9116 187.977 29.2724 185.999 21.0871C184.428 14.5898 180.414 8.6127 174.927 4.70618C168.399 0.0499719 161.458 -0.057126 153.747 0.111171C152.9 0.13157 152.059 0.14687 151.212 0.14687H129.135C129.135 0.14687 163.085 34.3366 163.09 34.3366C163.182 34.4284 164.656 32.6842 164.778 32.5159C165.268 31.8479 165.67 31.1186 166.017 30.3689C166.879 28.4972 167.563 26.1513 167.104 24.0909L152.956 9.70918C156.96 9.46439 160.887 9.12269 164.661 10.6833C171.173 13.376 175.518 19.9447 175.335 27.0386C175.156 34.0714 169.914 40.992 163.085 42.884C160.117 43.7051 157.067 44.2304 153.997 44.4497C150.993 44.669 147.984 44.5007 144.985 44.5058L133.893 44.4599V87.702H144.985C144.985 87.702 145.011 82.6225 144.985 80.7763C144.985 80.7763 144.97 78.1651 144.965 78.9658C144.965 77.3696 144.98 75.7733 144.985 74.177C145.011 68.1336 145.077 54.3588 145.077 54.3588C145.077 54.3588 157.506 54.3231 159.765 54.1701C167.532 53.6601 174.952 50.1871 180.037 44.2508L180.042 44.2457Z" fill="#007934"/>
<path d="M126.462 71.9834H50.8914L35.3418 87.6962H126.462V71.9834Z" fill="#F8AF07"/>
<path d="M127.779 19.4805H102.846L93.9258 28.4971H136.699L127.779 19.4805Z" fill="#F8AF07"/>
</svg>
