<svg width="0" height="0" class="hidden">
    <symbol version="1.1" xmlns="http://www.w3.org/2000/svg" viewBox="0 0 448 448" id="arrow">
        <path fill="currentColor" d="M221.319 84.801c7.289-7.29 19.109-7.29 26.398 0l126 126c7.289 7.289 7.289 19.109 0 26.398l-126 126c-7.289 7.289-19.109 7.289-26.398 0s-7.289-19.109 0-26.398l112.801-112.801-112.801-112.801c-7.289-7.29-7.289-19.109 0-26.399z"></path>
        <path fill="currentColor" d="M68.833 224c0-10.31 8.358-18.667 18.667-18.667h255.509c10.31 0 18.667 8.357 18.667 18.667s-8.357 18.667-18.667 18.667h-255.509c-10.309 0-18.667-8.357-18.667-18.667z"></path>
    </symbol>
    <symbol version="1.1" xmlns="http://www.w3.org/2000/svg" viewBox="0 0 448 448" id="phone">
        <path fill="currentColor" d="M84.861 53.346c23.304-24.426 61.676-20.078 81.19 7.398l24.14 33.991c15.878 22.357 14.476 53.603-4.371 73.357l-4.571 4.791c-0.2 0.611-0.684 2.533-0.147 6.184 1.21 8.223 7.725 25.667 35.072 54.33 27.338 28.655 44.003 35.514 51.915 36.793 3.587 0.58 5.46 0.040 6.041-0.174l7.812-8.186c16.753-17.563 42.5-20.845 63.245-8.957l36.574 20.959c31.318 17.945 39.23 62.82 13.572 89.712l-27.196 28.505c-8.567 8.98-20.090 16.469-34.153 17.85-34.633 3.405-115.385-0.938-200.233-89.871-79.216-83.027-94.417-155.432-96.341-191.107v0c-0.973-18.039 7.114-33.301 17.401-44.082l30.048-31.494zM143.063 78.885c-9.699-13.657-27.776-14.742-37.954-4.074l-30.048 31.494c-6.316 6.62-9.355 13.916-8.978 20.9 1.528 28.344 13.805 93.68 87.919 171.36 77.752 81.494 149.564 83.925 177.32 81.197 5.672-0.557 11.309-3.664 16.571-9.177l27.196-28.505c11.056-11.586 8.617-32.684-7.041-41.654l-36.574-20.959c-10.098-5.787-21.932-3.878-29.282 3.828l-8.721 9.139-10.122-10.735c10.122 10.735 10.11 10.747 10.095 10.762l-0.028 0.030-0.057 0.060-0.124 0.127-0.281 0.274c-0.202 0.194-0.43 0.406-0.692 0.632-0.52 0.455-1.16 0.968-1.924 1.508-1.533 1.083-3.556 2.26-6.1 3.258-5.184 2.036-12.021 3.131-20.499 1.76-16.594-2.683-38.577-14.607-67.809-45.248-29.223-30.629-40.632-53.693-43.201-71.154-1.314-8.929-0.266-16.139 1.689-21.609 0.958-2.681 2.087-4.812 3.124-6.424 0.517-0.804 1.009-1.477 1.443-2.022 0.217-0.273 0.42-0.514 0.604-0.726l0.263-0.294 0.12-0.13 0.057-0.061 0.028-0.029c0.014-0.014 0.028-0.029 10.151 10.703l-10.124-10.732 5.491-5.755c8.205-8.6 9.354-22.876 1.63-33.753l-24.14-33.991z"></path>
    </symbol>
    <symbol version="1.1" xmlns="http://www.w3.org/2000/svg" viewBox="0 0 448 448" id="chevron">
        <path fill="currentColor" d="M147.801 84.801c7.29-7.29 19.109-7.29 26.399 0l126 126c7.289 7.289 7.289 19.109 0 26.398l-126 126c-7.29 7.289-19.109 7.289-26.399 0s-7.29-19.109 0-26.398l112.801-112.801-112.801-112.801c-7.29-7.29-7.29-19.109 0-26.399z"></path>
    </symbol>
    <symbol version="1.1" xmlns="http://www.w3.org/2000/svg" viewBox="0 0 440 448" id="partner">
        <path fill="currentColor" d="M78.842 33.442c18.311 13.329 31.129-1.989 45.121-7.42 19.902-7.739 39.627-15.915 61.042-18.382 12.359-1.472 24.759-3.143 37.178-3.541 19.306-0.617 37.298 5.093 54.435 13.667 1.618 1.052 3.444 1.744 5.354 2.029 28.462 0.139 56.942 0 85.921 0 0-2.686-0.757-5.113 0.139-6.406 3.244-4.655 7.026-8.952 10.628-13.388 4.22 3.839 10.768 6.943 12.261 11.638 7.344 23.156 13.534 46.691 19.723 70.185 5.971 22.619 11.305 45.398 17.097 68.077 3.762 14.742 7.962 29.403 11.703 44.164 1.731 6.863-0.677 11.937-5.971 17.268-50.036 49.735-99.515 99.926-149.63 149.541-21.595 21.386-52.683 15.278-67.074-10.226-3.98-6.863-5.573-4.993-9.593-0.835-7.663 7.958-16.241 14.562-27.865 15.915-23.226 2.506-41.796-13.488-46.931-33.502-10.747-2.208-21.276-3.222-30.929-6.704-10.39-3.74-18.45-12.911-19.565-23.176-1.194-11.101-7.185-13.926-15.345-15.458-15.584-2.925-25.018-11.937-29.954-26.718-2.17-6.446-5.871-11.658-14.211-9.331-1.321 0.17-2.659 0.17-3.981 0-18.112 0.159-20.958-2.606-16.599-20.073 5.573-22.301 12.599-44.243 18.589-66.445 4.617-17.209 8.419-34.615 13.056-51.883s9.951-34.217 14.609-51.406c4.485-16.286 8.75-32.646 12.798-49.078 1.99-7.679 8.319-13.329 14.171-11.638 6.488 1.989 9.375 9.33 6.927 16.85-0.646 2.905-1.099 5.849-1.354 8.813-0.478 2.546-1.175 5.053-1.752 7.46zM311.15 43.508c7.185 10.941 13.216 19.615 18.729 28.607 9.374 15.278 19.365 29.642 18.729 49.595-1.274 40.206-46.055 63.023-81.244 42.991-15.723-8.952-21.714-24.788-31.029-38.315-1.302-2.303-3.211-4.205-5.521-5.496s-4.93-1.922-7.575-1.825c-10.927-0.378-22.43-0.876-32.482-4.596-6.986-2.566-9.673-1.631-14.29 3.084-20.5 20.888-41.498 41.259-62.217 61.929-17.077 17.070-34.067 34.231-50.972 51.485-11.484 11.817-9.036 26.16 5.474 33.72 10.29 5.371 17.455-0.796 24.003-7.202 17.494-17.109 34.452-34.794 52.206-51.724 3.323-3.163 9.951-5.69 14.051-4.575 7.682 2.109 8.519 12.354 1.99 18.958-16.758 17.069-33.835 33.72-50.614 50.849-5.971 5.968-11.942 12.99-8.598 22.321 5.394 15.458 23.186 19.078 34.989 7.321 17.574-17.486 34.89-35.212 52.384-52.778 6.449-6.485 13.694-7.261 18.709-2.407 7.285 7.003 3.703 12.155-2.169 17.905-14.629 14.244-29.218 28.587-43.050 43.587-4.319 4.675-9.175 12.115-8.339 17.427 0.777 3.533 2.289 6.863 4.435 9.776s4.879 5.342 8.024 7.133c6.806 3.343 15.365 2.149 22.172-4.914 17.913-18.581 36.561-36.486 54.972-54.589 5.434-5.351 11.226-5.849 17.017-0.398 6.171 5.829 3.225 11.299-1.214 16.034-5.971 6.307-12.559 11.936-18.55 18.123-7.962 8.196-7.962 22.977-0.418 30.139 7.543 7.161 19.166 6.605 28.203-2.368 47.515-47.108 94.891-94.356 142.128-141.743 3.145-3.183 3.98-9.947 3.782-14.801-0.239-5.968-2.588-12.056-4.259-18.024-6.23-22.122-12.779-44.144-18.769-66.346-4.637-17.228-8.439-34.715-13.096-51.963-0.717-2.666-3.881-6.625-5.971-6.664-20.022-0.458-40.065-0.259-61.62-0.259zM72.772 57.175c-1.115 3.123-2.806 7.182-3.981 11.379-1.771 6.605-2.886 13.368-4.717 19.894-6.17 22.122-12.798 44.144-18.769 66.325s-11.464 44.602-16.937 66.963c-0.557 2.208 0.418 4.795 0.697 7.221 2.767-0.696 6.25-0.557 8.16-2.228 3.284-2.865 5.275-7.182 8.399-10.305 42.294-42.374 84.787-84.549 126.981-127.022 6.608-6.644 12.519-7.46 19.187-1.113 10.688 10.206 23.048 14.323 36.204 6.585 9.832-5.789 14.669-0.179 18.987 5.968 7.484 10.763 13.932 22.221 20.779 33.402 9.374 15.299 24.759 20.093 41.020 12.812 13.833-6.207 22.013-24.25 15.445-37.619-7.424-15.179-15.365-30.398-25.277-44.025-14.848-20.391-35.427-34.655-60.724-37.082-18.709-1.791-37.995 0.915-56.883 2.964-25.476 2.765-48.842 13.388-70.417 25.981-13.694 8.137-23.705 1.75-38.154-0.099z"></path>
    </symbol>
    <symbol version="1.1" xmlns="http://www.w3.org/2000/svg" viewBox="0 0 448 448" id="expert">
        <path fill="currentColor" d="M224 31.256c-70.744 0-128.094 58.307-128.094 130.232s57.35 130.232 128.094 130.232c70.744 0 128.094-58.307 128.094-130.232s-57.35-130.232-128.094-130.232zM65.163 161.488c0-89.187 71.113-161.488 158.837-161.488s158.837 72.3 158.837 161.488c0 46.371-19.224 88.177-50.011 117.63 0.533 1.014 0.966 2.104 1.277 3.261l13.313 49.366c6.219 23.062 11.228 41.635 13.506 56.049 2.233 14.127 2.691 28.679-5.086 40.509-4.427 6.735-10.438 12.25-17.544 15.928-12.907 6.682-26.985 3.388-39.596-1.453-12.863-4.937-29.017-13.496-48.857-24.006l-0.956-0.507c-14.844-7.863-18.718-9.628-22.442-10.031-1.624-0.176-3.258-0.176-4.883 0-3.723 0.403-7.598 2.168-22.442 10.031l-0.956 0.507c-19.841 10.511-35.995 19.069-48.858 24.006-12.611 4.84-26.688 8.134-39.596 1.453-7.105-3.678-13.117-9.192-17.544-15.928-7.777-11.83-7.319-26.382-5.086-40.509 2.279-14.414 7.287-32.987 13.506-56.049l13.313-49.366c0.311-1.157 0.744-2.247 1.277-3.261-30.786-29.453-50.011-71.259-50.011-117.63zM141.203 299.327l-10.71 39.72c-6.539 24.248-11.080 41.174-13.061 53.706-2.058 13.020-0.524 16.941 0.292 18.183 1.596 2.427 3.663 4.266 5.933 5.442 0.469 0.242 3.405 1.528 14.79-2.841 10.926-4.194 25.438-11.851 46.464-22.99 0.715-0.379 1.421-0.753 2.119-1.125 11.643-6.183 21.006-11.155 31.271-12.268 3.789-0.41 7.608-0.41 11.397 0 10.265 1.113 19.628 6.085 31.271 12.269 0.698 0.371 1.404 0.745 2.119 1.124 21.026 11.139 35.538 18.795 46.464 22.99 11.385 4.369 14.321 3.083 14.79 2.841 2.27-1.176 4.337-3.015 5.933-5.442 0.816-1.242 2.351-5.163 0.292-18.183-1.981-12.532-6.522-29.458-13.061-53.706l-10.71-39.72c-24.11 15.002-52.46 23.649-82.797 23.649s-58.687-8.646-82.797-23.649zM224 120.533c-1.192 2.096-2.516 4.512-4.077 7.36l-2.015 3.675c-0.142 0.26-0.294 0.543-0.458 0.846-1.61 2.992-4.275 7.948-8.719 11.378-4.537 3.502-9.995 4.707-13.186 5.411-0.32 0.071-0.616 0.136-0.888 0.199l-3.912 0.9c-3.591 0.826-6.515 1.5-9.016 2.138 1.627 2.036 3.739 4.563 6.487 7.83l2.667 3.172c0.189 0.225 0.395 0.466 0.614 0.722 2.212 2.59 5.783 6.773 7.435 12.173 1.632 5.336 1.070 10.832 0.714 14.299-0.035 0.345-0.068 0.671-0.097 0.974l-0.404 4.232c-0.374 3.923-0.664 7.054-0.857 9.6 2.136-0.956 4.565-2.093 7.451-3.444l3.663-1.715c0.252-0.118 0.529-0.251 0.828-0.393 2.941-1.411 8.058-3.864 13.77-3.864s10.829 2.454 13.77 3.864c0.299 0.143 0.575 0.275 0.828 0.393l3.663 1.715c2.886 1.351 5.316 2.488 7.452 3.444-0.194-2.545-0.484-5.677-0.858-9.6l-0.404-4.232c-0.028-0.303-0.062-0.629-0.097-0.974-0.356-3.468-0.919-8.963 0.714-14.299 1.652-5.4 5.223-9.582 7.435-12.173 0.219-0.256 0.425-0.498 0.614-0.722l2.667-3.172c2.748-3.267 4.86-5.795 6.487-7.83-2.501-0.639-5.425-1.312-9.016-2.138l-3.912-0.9c-0.271-0.063-0.568-0.128-0.888-0.199-3.192-0.704-8.649-1.909-13.186-5.411-4.444-3.43-7.109-8.386-8.719-11.378-0.164-0.303-0.316-0.587-0.458-0.846l-2.015-3.675c-1.561-2.848-2.886-5.263-4.078-7.36zM203.781 94.801c3.528-4.684 9.936-11.452 20.219-11.452s16.69 6.768 20.219 11.452c3.367 4.472 6.759 10.661 10.236 17.006 0.158 0.288 0.316 0.578 0.475 0.867l2.015 3.675c0.467 0.852 0.835 1.523 1.157 2.096 0.56 0.133 1.211 0.284 2.026 0.471l3.912 0.9c0.321 0.073 0.641 0.147 0.961 0.221 6.719 1.544 13.396 3.077 18.521 5.131 5.66 2.267 13.331 6.683 16.288 16.349 2.905 9.496-0.761 17.54-3.962 22.709-2.962 4.784-7.465 10.136-12.074 15.613-0.209 0.247-0.417 0.495-0.626 0.743l-2.667 3.171c-0.707 0.84-1.24 1.474-1.688 2.023 0.061 0.757 0.144 1.639 0.256 2.818l0.403 4.232c0.031 0.322 0.062 0.645 0.093 0.967 0.7 7.333 1.377 14.42 1.129 20.088-0.261 5.944-1.663 14.942-9.599 21.066-8.186 6.318-17.226 4.941-22.96 3.271-5.282-1.539-11.523-4.463-17.81-7.407-0.301-0.141-0.602-0.283-0.903-0.423l-3.663-1.715c-0.686-0.321-1.249-0.585-1.74-0.811-0.491 0.226-1.054 0.49-1.74 0.811l-3.663 1.715c-0.301 0.141-0.603 0.283-0.903 0.423-6.287 2.944-12.528 5.869-17.81 7.407-5.733 1.67-14.774 3.047-22.96-3.271-7.935-6.124-9.338-15.122-9.599-21.066-0.249-5.668 0.428-12.755 1.129-20.088 0.031-0.322 0.062-0.644 0.092-0.967l0.404-4.232c0.112-1.18 0.196-2.061 0.256-2.818-0.448-0.548-0.981-1.182-1.688-2.023l-2.667-3.171c-0.209-0.248-0.417-0.496-0.626-0.743-4.609-5.478-9.111-10.829-12.074-15.613-3.201-5.17-6.867-13.213-3.962-22.709 2.957-9.666 10.628-14.083 16.288-16.349 5.125-2.055 11.802-3.588 18.521-5.131 0.32-0.073 0.64-0.147 0.961-0.221l3.912-0.9c0.815-0.187 1.465-0.337 2.026-0.471 0.322-0.574 0.69-1.245 1.157-2.096l2.015-3.675c0.159-0.289 0.317-0.578 0.475-0.867 3.477-6.346 6.869-12.534 10.236-17.006z"></path>
    </symbol>
    <symbol version="1.1" xmlns="http://www.w3.org/2000/svg" viewBox="0 0 404 448" id="guard">
        <path fill="currentColor" d="M265.342 191.6c5.715-6.401 5.159-16.222-1.241-21.937s-16.222-5.159-21.937 1.242l-62.392 69.879-18.003-20.164c-5.715-6.4-15.536-6.956-21.937-1.241s-6.956 15.535-1.241 21.936l29.592 33.143c2.947 3.301 7.163 5.189 11.589 5.189s8.641-1.887 11.589-5.189l73.98-82.858z"></path>
        <path fill="currentColor" d="M201.967 0c-19.421 0-37.963 6.351-67.873 16.595l-15.069 5.158c-30.685 10.503-54.366 18.61-71.319 25.497-8.54 3.469-15.881 6.829-21.793 10.262-5.689 3.304-11.396 7.425-15.274 12.95-3.833 5.46-5.814 12.174-7.060 18.636-1.295 6.719-2.075 14.778-2.579 24.032-1.001 18.374-1.001 43.546-1.001 76.194v33.179c0 126.381 95.453 186.973 152.218 211.77l0.561 0.245c7.039 3.076 13.654 5.967 21.256 7.913 8.026 2.055 16.554 2.933 27.932 2.933s19.905-0.879 27.932-2.933c7.601-1.946 14.217-4.837 21.256-7.912l0.562-0.246c56.765-24.797 152.218-85.389 152.218-211.77v-33.175c0-32.651 0-57.824-1-76.198-0.504-9.254-1.284-17.313-2.579-24.032-1.246-6.462-3.227-13.176-7.060-18.636-3.878-5.525-9.585-9.646-15.274-12.95-5.911-3.433-13.254-6.794-21.793-10.262-16.953-6.887-40.634-14.993-71.32-25.497l-15.068-5.158c-29.91-10.244-48.453-16.595-67.873-16.595zM141.493 46.904c33.444-11.448 46.849-15.832 60.474-15.832s27.030 4.384 60.474 15.832l11.865 4.062c31.333 10.725 54.183 18.553 70.227 25.071 8.008 3.254 13.81 5.98 17.883 8.344 2.011 1.168 3.396 2.132 4.321 2.884 0.784 0.637 1.083 0.999 1.127 1.052 0.040 0.065 0.297 0.495 0.659 1.514 0.414 1.162 0.873 2.828 1.32 5.148 0.905 4.694 1.591 11.144 2.065 19.842 0.948 17.425 0.954 41.748 0.954 75.064v32.619c0 107.201-80.164 159.96-133.584 183.296-7.695 3.361-12.138 5.264-17.086 6.531-4.725 1.21-10.49 1.963-20.225 1.963s-15.501-0.753-20.225-1.963c-4.947-1.266-9.391-3.169-17.086-6.531-53.421-23.336-133.584-76.095-133.584-183.296v-32.619c0-33.316 0.006-57.639 0.955-75.064 0.474-8.698 1.159-15.148 2.064-19.842 0.447-2.319 0.906-3.986 1.32-5.148 0.362-1.018 0.62-1.448 0.66-1.514 0.043-0.052 0.342-0.413 1.127-1.052 0.925-0.752 2.311-1.715 4.322-2.884 4.073-2.365 9.875-5.091 17.883-8.344 16.044-6.517 38.894-14.346 70.227-25.071l11.865-4.062z"></path>
    </symbol>
    <symbol version="1.1" xmlns="http://www.w3.org/2000/svg" viewBox="0 0 448 448" id="document">
        <path fill="currentColor" d="M204.28 23.33h39.44c34.304-0 61.477-0 82.742 2.859 21.885 2.943 39.599 9.142 53.568 23.111 13.969 13.969 20.169 31.683 23.111 53.568 2.858 21.265 2.858 48.437 2.858 82.742v76.773c0 34.306 0 61.477-2.858 82.742-2.942 21.885-9.142 39.599-23.111 53.568s-31.684 20.169-53.568 23.111c-21.266 2.859-48.438 2.859-82.742 2.858h-39.44c-34.304 0.001-61.477 0.001-82.742-2.858-21.885-2.942-39.599-9.142-53.568-23.111s-20.169-31.684-23.111-53.568c-2.859-21.266-2.859-48.437-2.859-82.742v-76.773c-0-34.304-0-61.477 2.859-82.742 2.942-21.885 9.142-39.599 23.111-53.568s31.683-20.169 53.568-23.111c21.266-2.859 48.438-2.859 82.742-2.859zM125.268 53.938c-18.78 2.525-29.6 7.26-37.5 15.16s-12.635 18.72-15.16 37.5c-2.579 19.183-2.609 44.47-2.609 80.064v74.667c0 35.594 0.030 60.881 2.609 80.064 2.525 18.78 7.26 29.6 15.16 37.5s18.72 12.636 37.5 15.16c19.184 2.579 44.471 2.608 80.064 2.608h37.334c35.594 0 60.881-0.029 80.064-2.608 18.78-2.524 29.599-7.26 37.5-15.16s12.635-18.72 15.16-37.5c2.578-19.183 2.608-44.471 2.608-80.064v-74.667c0-35.594-0.030-60.881-2.608-80.064-2.526-18.781-7.261-29.6-15.16-37.5s-18.72-12.635-37.5-15.16c-19.183-2.579-44.471-2.609-80.064-2.609h-37.334c-35.594 0-60.881 0.030-80.064 2.609zM135.333 149.33c0 7.732 6.268 14 14 14h149.334c7.731 0 14-6.268 14-14s-6.269-14-14-14h-149.334c-7.732 0-14 6.268-14 14zM135.333 223.996c0 7.732 6.268 14 14 14h149.334c7.731 0 14-6.268 14-14s-6.269-14-14-14h-149.334c-7.732 0-14 6.268-14 14zM135.333 298.662c0 7.732 6.268 14 14 14h93.334c7.732 0 14-6.268 14-14s-6.268-14-14-14h-93.334c-7.732 0-14 6.269-14 14z"></path>
    </symbol>
    <symbol version="1.1" xmlns="http://www.w3.org/2000/svg" viewBox="0 0 440 448" id="graph">
        <path fill="currentColor" d="M30.698 18.552c0-8.477-6.872-15.349-15.349-15.349s-15.349 6.872-15.349 15.349v205.826c-0 47.242-0 84.263 3.883 113.15 3.975 29.566 12.271 52.898 30.583 71.21s41.643 26.608 71.21 30.583c28.886 3.883 65.908 3.883 113.15 3.883h205.826c8.477 0 15.349-6.872 15.349-15.349s-6.872-15.349-15.349-15.349h-204.651c-48.671 0-83.629-0.033-110.234-3.61-26.163-3.517-41.936-10.207-53.594-21.866s-18.348-27.431-21.865-53.594c-3.577-26.604-3.609-61.563-3.609-110.234v-204.651z"></path>
        <path fill="currentColor" d="M375.279 130.422c5.271-6.638 4.163-16.293-2.474-21.565s-16.294-4.163-21.566 2.475l-63.81 80.354c-5.019 6.321-8.312 10.454-11.024 13.43-2.653 2.912-3.899 3.738-4.465 4.042-4.314 2.306-9.467 2.418-13.877 0.301-0.579-0.278-1.859-1.049-4.637-3.843-2.839-2.856-6.308-6.842-11.598-12.938l-0.33-0.381c-4.868-5.611-9.019-10.396-12.682-14.080-3.807-3.83-7.97-7.403-13.126-9.877-13.229-6.349-28.691-6.012-41.631 0.906-5.044 2.696-9.047 6.447-12.684 10.438-3.499 3.84-7.438 8.801-12.058 14.618l-64.128 80.75c-5.272 6.638-4.164 16.294 2.474 21.566s16.294 4.164 21.565-2.474l63.814-80.356c5.019-6.32 8.311-10.453 11.024-13.43 2.653-2.912 3.898-3.738 4.465-4.041 4.313-2.306 9.467-2.418 13.877-0.301 0.579 0.278 1.859 1.049 4.636 3.843 2.839 2.857 6.308 6.843 11.598 12.938l0.33 0.381c4.868 5.611 9.020 10.396 12.682 14.080 3.807 3.83 7.97 7.403 13.127 9.878 13.229 6.348 28.691 6.012 41.631-0.906 5.044-2.696 9.048-6.447 12.685-10.439 3.498-3.84 7.438-8.801 12.057-14.618l64.125-80.75z"></path>
    </symbol>
    <symbol version="1.1" xmlns="http://www.w3.org/2000/svg" viewBox="0 0 448 448" id="download">
        <path fill="currentColor" d="M234.332 308.114c-2.653 2.901-6.401 4.553-10.332 4.553s-7.679-1.652-10.332-4.553l-74.667-81.667c-5.217-5.706-4.821-14.562 0.886-19.779s14.562-4.822 19.779 0.885l50.334 55.054v-206.606c0-7.732 6.268-14 14-14s14 6.268 14 14v206.606l50.335-55.054c5.217-5.706 14.073-6.102 19.779-0.885s6.102 14.073 0.885 19.779l-74.667 81.667z"></path>
        <path fill="currentColor" d="M70 280c0-7.732-6.268-14-14-14s-14 6.268-14 14v1.025c-0 25.529-0.001 46.105 2.175 62.289 2.259 16.802 7.091 30.947 18.327 42.183 11.236 11.237 25.383 16.070 42.185 18.329 16.184 2.175 36.76 2.175 62.289 2.175h114.049c25.529 0 46.105 0 62.289-2.175 16.802-2.259 30.947-7.091 42.185-18.329 11.235-11.235 16.068-25.381 18.327-42.183 2.175-16.184 2.175-36.76 2.175-62.289v-1.025c0-7.732-6.268-14-14-14s-14 6.268-14 14c0 26.794-0.030 45.481-1.925 59.582-1.842 13.698-5.21 20.95-10.377 26.117s-12.419 8.534-26.117 10.377c-14.101 1.895-32.788 1.925-59.582 1.925h-112c-26.794 0-45.482-0.030-59.582-1.925-13.697-1.842-20.951-5.21-26.117-10.377s-8.535-12.419-10.376-26.117c-1.896-14.101-1.925-32.788-1.925-59.582z"></path>
    </symbol>
</svg>