<svg width="604" height="100" viewBox="0 0 604 100" fill="none" xmlns="http://www.w3.org/2000/svg">
<mask id="mask0_7_211" style="mask-type:luminance" maskUnits="userSpaceOnUse" x="444" y="60" width="90" height="40">
<path d="M450.852 93.3879L444.717 100C475.914 76.1418 493.819 74.0968 519.655 74.3467C521.949 74.6194 524.244 74.6194 525.789 71.5746L533.47 60.4181C497.41 60.918 481.3 70.075 450.875 93.4106" fill="white"/>
</mask>
<g mask="url(#mask0_7_211)">
<path d="M488.484 16.0048L424.887 80.4276L489.634 144.343L553.23 79.9201L488.484 16.0048Z" fill="url(#paint0_linear_7_211)"/>
</g>
<mask id="mask1_7_211" style="mask-type:luminance" maskUnits="userSpaceOnUse" x="452" y="32" width="89" height="60">
<path d="M452.488 91.4792C452.488 91.4792 452.488 91.57 452.465 91.6382C482.163 63.281 507.407 50.4885 529.266 47.7391C531.311 45.1942 538.059 35.7646 540.082 32.7198C490.684 41.3087 468.007 75.4601 452.488 91.4792Z" fill="white"/>
</mask>
<g mask="url(#mask1_7_211)">
<path d="M482.723 -8.96891L424.438 71.2526L509.807 133.277L568.091 53.055L482.723 -8.96891Z" fill="url(#paint1_linear_7_211)"/>
</g>
<mask id="mask2_7_211" style="mask-type:luminance" maskUnits="userSpaceOnUse" x="449" y="47" width="81" height="49">
<path d="M452.374 91.6156C451.965 92.0018 450.988 93.2288 450.034 94.1604C449.738 94.4331 449.216 95.1148 449.17 95.1602C454.919 90.4113 466.621 81.1634 477.3 75.0739C487.934 69.0298 500.931 64.0082 519.359 61.3724C521.154 59.3502 526.676 51.6701 529.243 47.6028C495.228 52.6926 472.824 72.5517 452.352 91.5928" fill="white"/>
</mask>
<g mask="url(#mask2_7_211)">
<path d="M488.705 7.58372L425.412 71.6993L489.738 135.2L553.03 71.084L488.705 7.58372Z" fill="url(#paint2_linear_7_211)"/>
</g>
<mask id="mask3_7_211" style="mask-type:luminance" maskUnits="userSpaceOnUse" x="517" y="59" width="18" height="14">
<path d="M517.337 63.94C516.315 66.7121 517.86 65.4624 522.45 68.2572C526.04 70.5294 525.267 71.5519 524.994 72.8244C528.335 67.4847 534.72 60.1227 534.72 60.1227C533.129 59.5547 531.402 59.3274 529.698 59.3274C523.767 59.3274 517.928 62.1677 517.337 63.94Z" fill="white"/>
</mask>
<g mask="url(#mask3_7_211)">
<path d="M521.755 50.9085L510.122 68.8215L529.236 81.234L540.869 63.321L521.755 50.9085Z" fill="url(#paint3_linear_7_211)"/>
</g>
<mask id="mask4_7_211" style="mask-type:luminance" maskUnits="userSpaceOnUse" x="527" y="15" width="67" height="35">
<path d="M551.875 29.4024C544.694 30.175 540.355 32.1745 537.537 35.7419L527.948 49.5342C530.243 47.5119 536.514 46.3985 543.422 46.3985H545.194C546.217 46.3985 547.239 46.1486 548.262 46.1486C558.237 45.8987 571.802 44.3763 579.982 34.4694L591.888 17.3142L593.206 15.3829C582.731 29.6069 559.282 28.13 551.875 29.4024Z" fill="white"/>
</mask>
<g mask="url(#mask4_7_211)">
<path d="M554.63 -16.6689L511.167 35.608L566.537 81.642L609.999 29.3651L554.63 -16.6689Z" fill="url(#paint4_linear_7_211)"/>
</g>
<mask id="mask5_7_211" style="mask-type:luminance" maskUnits="userSpaceOnUse" x="537" y="0" width="67" height="36">
<path d="M569.757 13.4288C566.689 13.9514 559.805 13.6787 554.147 17.496C548.262 21.3133 541.15 30.584 537.81 35.4238C540.9 31.8791 545.49 30.6976 551.602 29.925C557.76 29.1525 566.439 29.4251 572.824 28.4026C578.959 27.6528 584.594 26.3804 592.274 15.2238L603.022 0C592.025 11.4065 580.005 11.9064 569.757 13.4515" fill="white"/>
</mask>
<g mask="url(#mask5_7_211)">
<path d="M564.444 -32.0607L520.371 20.9501L576.352 67.4926L620.425 14.4818L564.444 -32.0607Z" fill="url(#paint5_linear_7_211)"/>
</g>
<mask id="mask6_7_211" style="mask-type:luminance" maskUnits="userSpaceOnUse" x="517" y="33" width="64" height="31">
<path d="M557.487 44.6489C550.057 45.6714 541.627 45.9213 539.082 46.1713C534.992 46.1713 529.357 47.6937 527.834 49.7159C522.972 55.8055 518.632 61.3951 517.337 63.94C520.154 61.1451 529.629 61.3951 541.127 60.8952C552.624 60.3953 564.122 55.0556 573.324 44.1263L580.3 33.9241C575.687 40.2635 567.439 43.1038 557.464 44.6262" fill="white"/>
</mask>
<g mask="url(#mask6_7_211)">
<path d="M543.077 2.95945L502.578 51.672L554.575 94.9025L595.075 46.1899L543.077 2.95945Z" fill="url(#paint6_linear_7_211)"/>
</g>
<path fill-rule="evenodd" clip-rule="evenodd" d="M312.724 76.2553L327.903 44.7852H328.175L344.967 76.2553H362.213L339.945 35.56H325.358L305.249 76.2553H312.724Z" fill="white"/>
<path fill-rule="evenodd" clip-rule="evenodd" d="M74.1195 58.5095L97.9322 58.2141C97.6596 63.8946 94.5921 67.0757 93.0015 68.4163C89.0706 71.5974 83.4355 71.8701 80.7543 71.8701C76.8234 71.8701 73.4151 71.302 69.9386 69.1889C67.7118 67.8482 65.1897 65.576 63.9172 63.6674L62.8493 62.0314L55.1011 66.5531C57.3733 69.2343 60.9179 71.9155 64.6444 73.8242C70.3931 76.7326 75.6873 77.437 82.0949 77.437C88.9116 77.437 99.5455 76.4372 107.248 70.5749C112.611 66.4849 115.065 60.8726 115.065 55.9191C115.065 50.9657 112.588 45.3079 107.248 41.2634C100.636 36.1736 90.9338 34.4013 82.2994 34.4013C76.6871 34.4013 71.5519 34.9694 66.3258 36.9689C61.9859 38.514 58.5548 40.6499 55.1011 43.7401L62.8493 48.2164L64.7125 46.1714C66.2576 44.399 68.8479 42.763 71.211 41.786C74.3467 40.3545 77.6187 39.9228 81.027 39.9228C87.9118 39.9228 91.8654 42.195 94.0695 44.399C95.5237 45.8078 97.4778 48.4663 97.9322 52.6017L74.1195 52.2382V58.464V58.5095Z" fill="white"/>
<path fill-rule="evenodd" clip-rule="evenodd" d="M389.616 39.4002C393.479 39.4002 397.91 40.2636 401.295 44.6944C404.045 48.2391 404.499 52.3518 404.499 55.9646C404.499 59.5774 404.045 63.5992 401.295 67.212C397.887 71.6656 393.479 72.529 389.616 72.529C385.753 72.529 381.3 71.6883 377.914 67.212C375.188 63.5992 374.711 59.5774 374.711 55.9646C374.711 52.3518 375.188 48.2391 377.914 44.6944C381.323 40.2636 385.731 39.4002 389.616 39.4002ZM389.616 77.4824C396.842 77.4824 406.908 75.7783 413.679 70.6204C419.041 66.5758 421.563 60.8726 421.563 55.9646C421.563 51.0566 419.041 45.3534 413.679 41.3088C406.93 36.1282 396.842 34.4468 389.616 34.4468C382.391 34.4468 372.302 36.1509 365.485 41.3088C360.123 45.3534 357.669 51.0793 357.669 55.9646C357.669 60.8499 360.146 66.5758 365.485 70.6204C372.302 75.801 382.459 77.4824 389.616 77.4824Z" fill="white"/>
<path fill-rule="evenodd" clip-rule="evenodd" d="M259.577 45.8305C261.054 45.3533 262.781 45.058 264.531 45.058H266.349V66.2122H264.531C262.804 66.2122 261.054 65.9396 259.577 65.4397C258.237 65.008 257.033 64.4399 256.101 63.5992C254.306 62.1223 252.829 59.6455 252.829 55.601C252.829 51.5565 254.306 49.1707 256.101 47.6937C257.055 46.853 258.26 46.2622 259.577 45.8532M287.526 71.4156C296.137 70.8248 300.704 68.7117 303.113 67.1666C307.657 64.2581 309.725 60.1454 309.725 55.601C309.725 49.6478 306.044 46.1032 303.113 44.1491C299.023 41.3997 293.274 40.2636 287.526 39.9C285.981 39.7637 284.435 39.7637 282.913 39.7637H281.232V34.1741H265.781V39.7637H264.167C262.622 39.7637 261.077 39.7637 259.555 39.9C253.738 40.2636 247.989 41.3997 243.967 44.1491C241.036 46.1032 237.355 49.6705 237.355 55.601C237.355 60.1227 239.446 64.2354 243.967 67.1666C246.33 68.7117 250.875 70.8248 259.555 71.4156C260.964 71.461 262.509 71.5519 264.167 71.5519H265.781V77.4824H281.232V71.5519H282.913C284.572 71.5519 286.117 71.4838 287.526 71.4156ZM287.526 45.8532C288.866 46.2849 290.071 46.853 291.002 47.6937C292.797 49.1707 294.274 51.6474 294.274 55.601C294.274 59.5547 292.797 62.1223 291.002 63.5992C290.071 64.4626 288.844 65.008 287.526 65.4397C285.981 65.9396 284.322 66.2122 282.504 66.2122H280.777V45.058H282.504C284.322 45.058 285.981 45.3533 287.526 45.8305" fill="white"/>
<path fill-rule="evenodd" clip-rule="evenodd" d="M202.09 39.4002C205.908 39.4002 210.384 40.2636 213.792 44.6944C216.542 48.2391 216.996 52.3518 216.996 55.9646C216.996 59.5774 216.519 63.5992 213.792 67.212C210.384 71.6656 205.885 72.529 202.09 72.529C198.296 72.529 193.729 71.6883 190.343 67.212C187.594 63.5992 187.162 59.5774 187.162 55.9646C187.162 52.3518 187.571 48.2391 190.343 44.6944C193.729 40.2636 198.228 39.4002 202.09 39.4002ZM202.09 77.4824C209.248 77.4824 219.405 75.7783 226.153 70.6204C231.425 66.5758 233.924 60.8726 233.924 55.9646C233.924 51.0566 231.447 45.3534 226.153 41.3088C219.405 36.1282 209.248 34.4468 202.09 34.4468C194.933 34.4468 184.708 36.1509 177.959 41.3088C172.62 45.3534 170.143 51.0793 170.143 55.9646C170.143 60.8499 172.62 66.5758 177.959 70.6204C184.708 75.801 194.865 77.4824 202.09 77.4824Z" fill="white"/>
<path fill-rule="evenodd" clip-rule="evenodd" d="M143.808 61.3269H146.671C154.101 61.3269 159.236 60.4635 162.917 58.214C167.53 55.3283 168.575 51.3519 168.575 48.239C168.575 45.126 167.53 41.2178 162.917 38.4685C159.236 36.2644 154.306 35.56 145.99 35.56H119.586V76.2553H135.015V61.3269H143.763H143.808ZM143.808 41.8086C145.671 41.8768 148.08 42.2176 149.83 43.3537C152.17 44.8988 152.556 47.0347 152.556 48.3071C152.556 49.5796 152.215 51.8518 149.693 53.4651C147.966 54.6693 145.83 55.0102 143.808 55.1692H135.06V41.7177H142.218C142.695 41.7177 143.217 41.7177 143.831 41.8086" fill="white"/>
<path fill-rule="evenodd" clip-rule="evenodd" d="M24.2672 45.1261L31.97 58.9865H16.5644L23.8582 44.8307H24.0854L24.2672 45.1261ZM35.1056 64.5307L41.7178 76.2781H58.9639L35.5601 35.56H21.2679L0 76.2553H7.68007L13.7696 64.508H35.1056V64.5307Z" fill="white"/>
<path fill-rule="evenodd" clip-rule="evenodd" d="M419.109 41.7177H435.696V76.2553H451.147V41.7177H467.78V35.56H419.109V41.7177Z" fill="white"/>
<defs>
<linearGradient id="paint0_linear_7_211" x1="462.423" y1="58.9677" x2="499.603" y2="95.6708" gradientUnits="userSpaceOnUse">
<stop stop-color="#C01818"/>
<stop offset="0.3" stop-color="#E20E18"/>
<stop offset="0.34" stop-color="#E52730"/>
<stop offset="0.43" stop-color="#EC686F"/>
<stop offset="0.53" stop-color="#F6B2B7"/>
<stop offset="0.56" stop-color="#F1898F"/>
<stop offset="0.6" stop-color="#EB5D65"/>
<stop offset="0.65" stop-color="#E73A43"/>
<stop offset="0.68" stop-color="#E4222B"/>
<stop offset="0.72" stop-color="#E2131D"/>
<stop offset="0.75" stop-color="#E20E18"/>
<stop offset="0.95" stop-color="#C71518"/>
<stop offset="1" stop-color="#C01818"/>
</linearGradient>
<linearGradient id="paint1_linear_7_211" x1="453.126" y1="28.6839" x2="542.785" y2="93.8246" gradientUnits="userSpaceOnUse">
<stop stop-color="white"/>
<stop offset="0.34" stop-color="white"/>
<stop offset="0.54" stop-color="white"/>
<stop offset="0.91" stop-color="#D3DAF0"/>
<stop offset="1" stop-color="#D3DAF0"/>
</linearGradient>
<linearGradient id="paint2_linear_7_211" x1="473.383" y1="46.8894" x2="523.028" y2="95.8967" gradientUnits="userSpaceOnUse">
<stop stop-color="#064B92"/>
<stop offset="0.13" stop-color="#074B92"/>
<stop offset="0.29" stop-color="#4C77B4"/>
<stop offset="0.4" stop-color="#7893C8"/>
<stop offset="0.46" stop-color="#899ED1"/>
<stop offset="0.5" stop-color="#6386BE"/>
<stop offset="0.56" stop-color="#3066A6"/>
<stop offset="0.61" stop-color="#115297"/>
<stop offset="0.64" stop-color="#064B92"/>
<stop offset="0.92" stop-color="#064B92"/>
<stop offset="1" stop-color="#064B92"/>
</linearGradient>
<linearGradient id="paint3_linear_7_211" x1="519.906" y1="56.4008" x2="539.97" y2="69.4306" gradientUnits="userSpaceOnUse">
<stop stop-color="#C01818"/>
<stop offset="0.45" stop-color="#E20E18"/>
<stop offset="0.69" stop-color="#EB585F"/>
<stop offset="1" stop-color="#F6B2B7"/>
</linearGradient>
<linearGradient id="paint4_linear_7_211" x1="534.658" y1="9.41923" x2="590.591" y2="55.9221" gradientUnits="userSpaceOnUse">
<stop stop-color="#D3DDF2"/>
<stop offset="0.07" stop-color="#D3DDF2"/>
<stop offset="0.12" stop-color="#B5C8E4"/>
<stop offset="0.23" stop-color="#6A92C1"/>
<stop offset="0.37" stop-color="#064B92"/>
<stop offset="0.43" stop-color="#0D5095"/>
<stop offset="0.52" stop-color="#225F9F"/>
<stop offset="0.63" stop-color="#4578AF"/>
<stop offset="0.75" stop-color="#759AC6"/>
<stop offset="0.88" stop-color="#B1C5E2"/>
<stop offset="0.95" stop-color="#D3DDF2"/>
<stop offset="1" stop-color="#D3DDF2"/>
</linearGradient>
<linearGradient id="paint5_linear_7_211" x1="542.189" y1="-1.48943" x2="594.512" y2="42.0118" gradientUnits="userSpaceOnUse">
<stop stop-color="white"/>
<stop offset="0.17" stop-color="white"/>
<stop offset="0.26" stop-color="#F8F9FC"/>
<stop offset="0.37" stop-color="#E7EAF7"/>
<stop offset="0.39" stop-color="#E4E7F6"/>
<stop offset="0.45" stop-color="#ECEEF8"/>
<stop offset="0.58" stop-color="#FAFAFD"/>
<stop offset="0.7" stop-color="white"/>
<stop offset="1" stop-color="white"/>
</linearGradient>
<linearGradient id="paint6_linear_7_211" x1="523.105" y1="29.7567" x2="570.299" y2="68.9936" gradientUnits="userSpaceOnUse">
<stop stop-color="#F6B2B7"/>
<stop offset="0.06" stop-color="#F6B2B7"/>
<stop offset="0.09" stop-color="#F29399"/>
<stop offset="0.15" stop-color="#EB5A62"/>
<stop offset="0.21" stop-color="#E6313A"/>
<stop offset="0.25" stop-color="#E31721"/>
<stop offset="0.28" stop-color="#E20E18"/>
<stop offset="0.4" stop-color="#CD1318"/>
<stop offset="0.52" stop-color="#C01818"/>
<stop offset="0.6" stop-color="#CD1318"/>
<stop offset="0.69" stop-color="#E20E18"/>
<stop offset="0.81" stop-color="#ED6F72"/>
<stop offset="0.89" stop-color="#F4A8A7"/>
<stop offset="1" stop-color="#F6B2B7"/>
</linearGradient>
</defs>
</svg>
