<svg width="46" height="23" viewBox="0 0 46 23" fill="none" xmlns="http://www.w3.org/2000/svg">
<path d="M22.08 3.25792V8.77377C22.08 10.2954 20.8374 11.5 19.3081 11.5C20.8374 11.5 22.08 12.7363 22.08 14.2579V19.7421C22.08 21.2637 20.8374 22.5 19.3081 22.5H2.74009C1.21074 22.5 0 21.2637 0 19.7421C0 18.2522 1.21074 17.0159 2.74009 17.0159H16.568C16.568 15.4942 15.3254 14.2579 13.796 14.2579H11.0241C9.49472 14.2579 8.28398 13.0216 8.28398 11.5C8.28398 9.97839 9.49472 8.77377 11.0241 8.77377H16.568C16.568 7.25216 15.3254 6.01585 13.796 6.01585H2.74009C1.21074 6.01585 0 4.77954 0 3.25792C0 1.73631 1.21074 0.5 2.74009 0.5H19.3081C20.8374 0.5 22.08 1.73631 22.08 3.25792Z" fill="#25292A"/>
<path d="M46 3.25792V8.77377C46 10.2954 44.7574 11.5 43.2281 11.5C44.7574 11.5 46 12.7363 46 14.2579V19.7421C46 21.2637 44.7574 22.5 43.2281 22.5H26.6601C25.1307 22.5 23.92 21.2637 23.92 19.7421C23.92 18.2522 25.1307 17.0159 26.6601 17.0159H40.488C40.488 15.4942 39.2454 14.2579 37.716 14.2579H34.9441C33.4147 14.2579 32.204 13.0216 32.204 11.5C32.204 9.97839 33.4147 8.77377 34.9441 8.77377H40.488C40.488 7.25216 39.2454 6.01585 37.716 6.01585H26.6601C25.1307 6.01585 23.92 4.77954 23.92 3.25792C23.92 1.73631 25.1307 0.5 26.6601 0.5H43.2281C44.7574 0.5 46 1.73631 46 3.25792Z" fill="#25292A"/>
</svg>
