<svg width="339" height="23" viewBox="0 0 339 23" fill="none" xmlns="http://www.w3.org/2000/svg">
<path d="M22.7593 2.85857V8.57571C22.7593 10.1529 21.4784 11.4014 19.902 11.4014C21.4784 11.4014 22.7593 12.6829 22.7593 14.26V19.9443C22.7593 21.5214 21.4784 22.8029 19.902 22.8029H2.82438C1.24798 22.8029 0 21.5214 0 19.9443C0 18.4 1.24798 17.1186 2.82438 17.1186H17.0777C17.0777 15.5414 15.7968 14.26 14.2204 14.26H11.3632C9.78681 14.26 8.53883 12.9786 8.53883 11.4014C8.53883 9.82429 9.78681 8.57571 11.3632 8.57571H17.0777C17.0777 6.99857 15.7968 5.71714 14.2204 5.71714H2.82438C1.24798 5.71714 0 4.43571 0 2.85857C0 1.28143 1.24798 0 2.82438 0H19.902C21.4784 0 22.7593 1.28143 22.7593 2.85857Z" fill="#25292A"/>
<path d="M30.1463 20.1414C30.1463 21.2914 28.9969 23 27.2563 23C25.5485 23 24.399 21.2914 24.399 20.1414V2.89143C24.399 1.15 25.5485 0 27.2563 0H44.4981C45.6476 0 47.3882 1.15 47.3882 2.89143V20.1414C47.3882 21.2914 45.6476 23 44.4981 23C42.7904 23 41.6409 21.2914 41.6409 20.1414C41.6409 18.4 39.9003 17.25 38.7509 17.25H33.0036C31.2958 17.25 30.1463 18.4 30.1463 20.1414ZM38.7509 11.5C39.9003 11.5 41.6409 10.35 41.6409 8.64143C41.6409 6.9 39.9003 5.75 38.7509 5.75H33.0036C31.2958 5.75 30.1463 6.9 30.1463 8.64143C30.1463 10.35 31.2958 11.5 33.0036 11.5H38.7509Z" fill="#25292A"/>
<path d="M72.373 2.85857V19.9443C72.373 21.5214 71.0922 22.8029 69.5158 22.8029C67.9722 22.8029 66.6914 21.5214 66.6914 19.9443V17.1186C66.6914 15.5414 65.4106 14.26 63.8342 14.26H62.0279L54.4743 21.8171C53.3577 22.9343 51.5514 22.9343 50.4348 21.8171C49.3182 20.7329 49.3182 18.9257 50.4348 17.8086L53.9817 14.26H52.4381C50.8617 14.26 49.6137 12.9786 49.6137 11.4014V2.85857C49.6137 1.28143 50.8617 0 52.4381 0H69.5158C71.0922 0 72.373 1.28143 72.373 2.85857ZM63.8342 5.71714H55.2953C55.2953 7.29428 56.5762 8.57571 58.1526 8.57571H66.6914C66.6914 6.99857 65.4106 5.71714 63.8342 5.71714Z" fill="#25292A"/>
<path d="M82.9814 8.34571H91.7829C91.7829 6.96571 90.3708 5.55286 88.5316 5.55286H80.1898C80.1898 7.42571 81.602 8.34571 82.9814 8.34571ZM82.9814 17.1514H91.7829C91.7829 15.2786 90.3708 13.8986 88.5316 13.8986H80.1898C80.1898 15.7386 81.602 17.1514 82.9814 17.1514ZM77.4311 0H94.5416C95.921 0 97.3332 1.41286 97.3332 2.79286V8.34571C97.3332 10.1857 95.921 11.1057 94.5416 11.1057C95.921 11.1057 97.3332 12.5186 97.3332 13.8986V19.9114C97.3332 21.2914 95.921 22.6714 94.5416 22.6714H77.4311C76.0518 22.6714 74.6724 21.2914 74.6724 19.9114V2.79286C74.6724 1.41286 76.0518 0 77.4311 0Z" fill="#25292A"/>
<path d="M104.624 3.08857V5.75C104.624 7.26143 105.773 8.77286 107.645 8.77286H109.156L116.71 0.821428C117.235 0.262856 117.991 0 118.779 0C119.534 0 120.29 0.295712 120.881 0.821428C122.03 1.93857 121.997 3.84429 120.881 4.99428L116.349 9.52857C115.199 10.6457 115.199 12.1571 116.349 13.3071L120.881 17.8414C121.997 18.9586 121.997 20.8643 120.881 21.9814C120.257 22.6057 119.468 22.8686 118.68 22.8357C117.958 22.8357 117.235 22.54 116.71 21.9814L109.156 14.4243H107.645C105.773 14.4243 104.624 15.5743 104.624 17.0857V20.1086C104.624 21.62 103.507 22.7371 101.997 22.7371C100.092 22.7371 98.9753 21.62 98.9753 20.1086V3.08857C98.9753 1.21571 100.092 0.0657134 101.997 0.0657134C103.507 0.0657134 104.624 1.21571 104.624 3.08857Z" fill="#25292A"/>
<path d="M129.122 20.1414C129.122 21.2914 127.972 23 126.232 23C124.524 23 123.374 21.2914 123.374 20.1414V2.89143C123.374 1.15 124.524 0 126.232 0H143.473C144.623 0 146.363 1.15 146.363 2.89143V20.1414C146.363 21.2914 144.623 23 143.473 23C141.766 23 140.616 21.2914 140.616 20.1414C140.616 18.4 138.876 17.25 137.726 17.25H131.979C130.271 17.25 129.122 18.4 129.122 20.1414ZM137.726 11.5C138.876 11.5 140.616 10.35 140.616 8.64143C140.616 6.9 138.876 5.75 137.726 5.75H131.979C130.271 5.75 129.122 6.9 129.122 8.64143C129.122 10.35 130.271 11.5 131.979 11.5H137.726Z" fill="#25292A"/>
<path d="M185.256 2.85857V8.57571C185.256 10.1529 183.975 11.4014 182.399 11.4014C183.975 11.4014 185.256 12.6829 185.256 14.26V19.9443C185.256 21.5214 183.975 22.8029 182.399 22.8029H165.321C163.745 22.8029 162.497 21.5214 162.497 19.9443C162.497 18.4 163.745 17.1186 165.321 17.1186H179.574C179.574 15.5414 178.293 14.26 176.717 14.26H173.86C172.283 14.26 171.035 12.9786 171.035 11.4014C171.035 9.82429 172.283 8.57571 173.86 8.57571H179.574C179.574 6.99857 178.293 5.71714 176.717 5.71714H165.321C163.745 5.71714 162.497 4.43571 162.497 2.85857C162.497 1.28143 163.745 0 165.321 0H182.399C183.975 0 185.256 1.28143 185.256 2.85857Z" fill="#25292A"/>
<path d="M192.643 20.1414C192.643 21.2914 191.493 23 189.753 23C188.045 23 186.896 21.2914 186.896 20.1414V2.89143C186.896 1.15 188.045 0 189.753 0H206.995C208.144 0 209.885 1.15 209.885 2.89143V20.1414C209.885 21.2914 208.144 23 206.995 23C205.287 23 204.138 21.2914 204.138 20.1414C204.138 18.4 202.397 17.25 201.247 17.25H195.5C193.792 17.25 192.643 18.4 192.643 20.1414ZM201.247 11.5C202.397 11.5 204.138 10.35 204.138 8.64143C204.138 6.9 202.397 5.75 201.247 5.75H195.5C193.792 5.75 192.643 6.9 192.643 8.64143C192.643 10.35 193.792 11.5 195.5 11.5H201.247Z" fill="#25292A"/>
<path d="M217.168 3.08857V5.75C217.168 7.26143 218.317 8.77286 220.189 8.77286H221.7L229.254 0.821428C229.779 0.262856 230.535 0 231.323 0C232.078 0 232.833 0.295712 233.425 0.821428C234.574 1.93857 234.541 3.84429 233.425 4.99428L228.892 9.52857C227.743 10.6457 227.743 12.1571 228.892 13.3071L233.425 17.8414C234.541 18.9586 234.541 20.8643 233.425 21.9814C232.801 22.6057 232.012 22.8686 231.224 22.8357C230.502 22.8357 229.779 22.54 229.254 21.9814L221.7 14.4243H220.189C218.317 14.4243 217.168 15.5743 217.168 17.0857V20.1086C217.168 21.62 216.051 22.7371 214.541 22.7371C212.636 22.7371 211.519 21.62 211.519 20.1086V3.08857C211.519 1.21571 212.636 0.0657134 214.541 0.0657134C216.051 0.0657134 217.168 1.21571 217.168 3.08857Z" fill="#25292A"/>
<path d="M238.743 0H255.82C257.397 0 258.678 1.28143 258.678 2.85857V14.26C258.678 15.8371 257.397 17.1186 255.82 17.1186H244.457C242.881 17.1186 241.6 18.4 241.6 19.9443C241.6 21.5214 240.319 22.8029 238.743 22.8029C237.166 22.8029 235.918 21.5214 235.918 19.9443V2.85857C235.918 1.28143 237.166 0 238.743 0ZM244.457 11.4014H250.139C251.715 11.4014 252.996 10.1529 252.996 8.57571C252.996 6.99857 251.715 5.71714 250.139 5.71714H244.457C242.881 5.71714 241.6 6.99857 241.6 8.57571C241.6 10.1529 242.881 11.4014 244.457 11.4014Z" fill="#25292A"/>
<path d="M263.733 22.8029C262.156 22.8029 260.908 21.5214 260.908 19.9443V2.85857C260.908 1.28143 262.156 0 263.733 0C265.309 0 266.59 1.28143 266.59 2.85857C266.59 4.43571 267.871 5.71714 269.447 5.71714H277.986C279.562 5.71714 280.81 6.99857 280.81 8.57571V19.9443C280.81 21.5214 279.562 22.8029 277.986 22.8029H263.733ZM289.382 2.85857V19.9443C289.382 21.5214 288.101 22.8029 286.525 22.8029C284.949 22.8029 283.668 21.5214 283.668 19.9443V2.85857C283.668 1.28143 284.949 0 286.525 0C288.101 0 289.382 1.28143 289.382 2.85857ZM269.447 11.4014C267.871 11.4014 266.59 12.6829 266.59 14.26C266.59 15.8371 267.871 17.1186 269.447 17.1186H272.272C273.848 17.1186 275.129 15.8371 275.129 14.26C275.129 12.6829 273.848 11.4014 272.272 11.4014H269.447Z" fill="#25292A"/>
<path d="M294.436 0H311.514C313.09 0 314.371 1.28143 314.371 2.85857C314.371 4.43571 313.09 5.71714 311.514 5.71714H308.689C307.113 5.71714 305.832 6.99857 305.832 8.57571V19.9443C305.832 21.5214 304.551 22.8029 302.975 22.8029C301.399 22.8029 300.151 21.5214 300.151 19.9443V8.57571C300.151 6.99857 298.87 5.71714 297.293 5.71714H294.436C292.86 5.71714 291.612 4.43571 291.612 2.85857C291.612 1.28143 292.86 0 294.436 0Z" fill="#25292A"/>
<path d="M321.758 20.1414C321.758 21.2914 320.609 23 318.868 23C317.16 23 316.011 21.2914 316.011 20.1414V2.89143C316.011 1.15 317.16 0 318.868 0H336.11C337.259 0 339 1.15 339 2.89143V20.1414C339 21.2914 337.259 23 336.11 23C334.402 23 333.253 21.2914 333.253 20.1414C333.253 18.4 331.512 17.25 330.363 17.25H324.615C322.908 17.25 321.758 18.4 321.758 20.1414ZM330.363 11.5C331.512 11.5 333.253 10.35 333.253 8.64143C333.253 6.9 331.512 5.75 330.363 5.75H324.615C322.908 5.75 321.758 6.9 321.758 8.64143C321.758 10.35 322.908 11.5 324.615 11.5H330.363Z" fill="#25292A"/>
</svg>
