<svg width="30" height="20" viewBox="0 0 30 20" fill="none" xmlns="http://www.w3.org/2000/svg">
<path d="M6.1875 12.9779C5.56875 14.5036 4.59375 16.0109 3.29063 17.4632C2.87812 17.9227 2.82187 18.5845 3.15937 19.0992C3.42188 19.5036 3.85313 19.7242 4.32188 19.7242C4.45313 19.7242 4.58438 19.715 4.71563 19.669C7.47188 18.8786 13.9125 16.0753 14.0906 7.08631C14.1562 3.62124 11.5688 0.643295 8.20312 0.303222C6.3375 0.119398 4.48125 0.716825 3.10312 1.93006C2.42153 2.53608 1.87675 3.27516 1.5038 4.09984C1.13084 4.92452 0.937944 5.81656 0.9375 6.71866C0.9375 9.75175 3.13125 12.408 6.1875 12.9779ZM23.1656 0.303222C21.3094 0.119398 19.4531 0.716825 18.075 1.93006C17.3934 2.53604 16.8486 3.27512 16.4756 4.09981C16.1026 4.92449 15.9098 5.81655 15.9094 6.71866C15.9094 9.75175 18.1031 12.408 21.1594 12.9779C20.5406 14.5036 19.5656 16.0109 18.2625 17.4632C17.85 17.9227 17.7938 18.5845 18.1313 19.0992C18.3937 19.5036 18.825 19.7242 19.2938 19.7242C19.425 19.7242 19.5562 19.715 19.6875 19.669C22.4438 18.8786 28.8844 16.0753 29.0625 7.08631V6.95763C29.0625 3.54771 26.5031 0.643295 23.1656 0.303222Z" fill="#C8CECF"/>
</svg>
