<svg width="0" height="0" class="hidden">
    <symbol version="1.1" xmlns="http://www.w3.org/2000/svg" viewBox="0 0 448 448" id="icon-advices">
        <path fill="currentColor" d="M222.437 0c118.977 0 215.46 96.461 215.47 215.437-0.003 36.937-9.338 71.712-25.718 102.094 1.36 18.911 3.946 44.296 9.062 63.064 4.070 14.931 11.734 33.133 18.467 47.779 4.743 10.317-4.627 21.994-15.626 19.187l-123.155-31.53c-24.327 9.523-50.797 14.842-78.5 14.842-118.969-0.010-215.398-96.467-215.406-215.436 0.008-118.969 96.437-215.427 215.406-215.437zM122.5 182.313c-18.177 0-32.906 14.73-32.906 32.906 0.005 18.172 14.733 32.906 32.906 32.906s32.901-14.735 32.907-32.906c0-18.176-14.731-32.906-32.907-32.906zM222.375 182.313c-18.177 0-32.906 14.73-32.906 32.906 0.005 18.172 14.732 32.906 32.906 32.906 18.172-0.003 32.901-14.735 32.906-32.906 0-18.175-14.732-32.904-32.906-32.906zM322.25 182.313c-18.176 0-32.906 14.73-32.906 32.906 0.005 18.172 14.733 32.906 32.906 32.906 18.173-0.002 32.902-14.735 32.906-32.906 0-18.176-14.73-32.905-32.906-32.906z"></path>
    </symbol>
    <symbol version="1.1" xmlns="http://www.w3.org/2000/svg" viewBox="0 0 448 448" id="icon-cases">
        <path fill="currentColor"  d="M0 329.891c0-33.74 27.351-61.092 61.091-61.092s61.091 27.351 61.091 61.092v57.018c0 33.741-27.351 61.091-61.091 61.091s-61.091-27.35-61.091-61.091v-57.018z"></path>
        <path fill="currentColor"  d="M162.909 195.491c0-33.74 27.351-61.091 61.091-61.091s61.091 27.351 61.091 61.091v191.418c0 33.741-27.351 61.091-61.091 61.091s-61.091-27.35-61.091-61.091v-191.418z"></path>
        <path fill="currentColor"  d="M325.818 61.091c0-33.74 27.354-61.091 61.091-61.091 33.741 0 61.091 27.351 61.091 61.091v325.818c0 33.741-27.35 61.091-61.091 61.091-33.738 0-61.091-27.35-61.091-61.091v-325.818z"></path>
    </symbol>
    <symbol version="1.1" xmlns="http://www.w3.org/2000/svg" viewBox="0 0 448 448" id="icon-check">
        <path fill="currentColor" d="M348.828 83.393c18.998-17.618 48.672-16.505 66.293 2.491 17.615 18.998 16.502 48.672-2.492 66.291l-242.544 224.933-135.503-131.781c-18.575-18.064-19.009-47.773-0.945-66.349 18.063-18.573 47.773-18.975 66.349-0.917l71.618 69.642 177.226-164.311z"></path>
    </symbol>
    <symbol version="1.1" xmlns="http://www.w3.org/2000/svg" viewBox="0 0 448 448" id="icon-mail">
        <path fill="currentColor" d="M49.597 81.665c-0.295-0.294-0.522-0.648-0.665-1.040s-0.198-0.809-0.161-1.224c0.037-0.415 0.164-0.816 0.374-1.176s0.495-0.669 0.837-0.907c12.739-8.883 28.237-14.15 44.933-14.15h258.178c16.694 0 32.194 5.267 44.931 14.15 0.345 0.237 0.627 0.546 0.837 0.907s0.338 0.762 0.376 1.176c0.035 0.415-0.021 0.833-0.162 1.224-0.145 0.391-0.369 0.746-0.665 1.040l-124.893 124.947c-27.262 27.21-71.789 27.187-99.028 0l-124.892-124.947zM16.221 141.861v164.275c0 43.425 35.324 78.693 78.693 78.693h258.178c43.37 0 78.693-35.268 78.693-78.693v-164.275c0.011-12.695-3.077-25.201-8.988-36.435-0.207-0.396-0.503-0.738-0.868-0.998-0.362-0.259-0.782-0.43-1.223-0.497s-0.892-0.029-1.316 0.111c-0.424 0.14-0.81 0.378-1.123 0.695l-123.312 123.311c-39.072 39.128-102.853 39.106-141.901 0l-123.311-123.311c-0.315-0.317-0.7-0.555-1.124-0.695s-0.875-0.178-1.317-0.111c-0.441 0.067-0.861 0.238-1.225 0.497s-0.66 0.602-0.867 0.998c-5.913 11.234-8.999 23.74-8.988 36.435z"></path>
    </symbol>
    <symbol version="1.1" xmlns="http://www.w3.org/2000/svg" viewBox="0 0 448 448" id="icon-people">
        <path fill="currentColor"  d="M313.875 224.437c57.229 5 102.125 53.035 102.125 111.563v48c-0.003 35.341-28.656 64-64 64h-256c-35.344 0-63.996-28.659-64-64v-48c0-58.518 44.878-106.548 102.094-111.563 24.642 19.728 55.885 31.562 89.906 31.562 34.013 0 65.236-11.843 89.875-31.562z"></path>
        <path fill="currentColor"  d="M328.083 111.992c0 57.483-46.6 104.082-104.083 104.082s-104.082-46.599-104.082-104.082c0-57.483 46.599-104.082 104.082-104.082s104.083 46.599 104.083 104.082z"></path>
    </symbol>
    <symbol version="1.1" xmlns="http://www.w3.org/2000/svg" viewBox="0 0 517 448" id="icon-heart">
        <path  fill="currentColor" d="M258.461 448c-2.615 0-5.229-0.675-7.571-2.033-2.544-1.471-62.99-36.639-124.304-89.631-36.34-31.407-65.349-62.557-86.217-92.585-27.005-38.856-40.586-76.23-40.366-111.087 0.256-40.559 14.753-78.703 40.824-107.405 26.511-29.186 61.889-45.258 99.621-45.258 48.357 0 92.569 27.144 118.015 70.144 25.445-42.999 69.657-70.144 118.017-70.144 35.647 0 69.657 14.502 95.769 40.835 28.658 28.897 44.938 69.728 44.673 112.021-0.221 34.796-14.053 72.114-41.119 110.916-20.932 30.012-49.9 61.149-86.099 92.547-61.089 52.988-121.102 88.156-123.627 89.624-2.312 1.348-4.939 2.058-7.613 2.058z"></path>
    </symbol>
    <symbol version="1.1" xmlns="http://www.w3.org/2000/svg" viewBox="0 0 448 448" id="tg">
        <path fill="currentColor" d="M68.366 203.224c96.836-42.19 161.41-70.004 193.718-83.442 92.25-38.369 111.419-45.035 123.911-45.255 2.749-0.048 8.892 0.633 12.872 3.863 5.904 4.791 5.939 15.19 5.283 22.072-5 52.526-26.631 179.989-37.636 238.819-4.655 24.893-13.825 33.24-22.701 34.057-19.289 1.774-33.937-12.75-52.62-24.997-29.236-19.164-45.753-31.095-74.131-49.795-32.797-21.613-11.535-33.491 7.154-52.903 4.892-5.080 89.885-82.388 91.53-89.401 0.206-0.877 0.398-4.147-1.545-5.873s-4.81-1.137-6.877-0.667c-2.933 0.665-49.637 31.537-140.114 92.61-13.257 9.103-25.265 13.538-36.023 13.307-11.861-0.256-34.675-6.706-51.636-12.22-20.803-6.761-37.336-10.338-35.896-21.821 0.75-5.984 8.987-12.1 24.712-18.354z"></path>
    </symbol>
    <symbol version="1.1" xmlns="http://www.w3.org/2000/svg" viewBox="0 0 448 448" id="vk">
        <path fill="currentColor" d="M443.904 326.235c-0.538-1.159-1.040-2.122-1.507-2.892-7.711-13.892-22.45-30.941-44.205-51.154l-0.461-0.462-0.229-0.228-0.233-0.233h-0.233c-9.874-9.411-16.126-15.741-18.746-18.981-4.79-6.172-5.863-12.42-3.245-18.75 1.849-4.783 8.799-14.884 20.83-30.317 6.329-8.179 11.342-14.734 15.042-19.673 26.697-35.49 38.27-58.169 34.72-68.044l-1.38-2.308c-0.927-1.389-3.317-2.66-7.17-3.82-3.864-1.157-8.799-1.348-14.818-0.577l-66.655 0.461c-1.079-0.383-2.622-0.347-4.63 0.117l-3.009 0.697-1.161 0.58-0.921 0.697c-0.77 0.461-1.62 1.271-2.546 2.428-0.921 1.154-1.694 2.507-2.308 4.050-7.258 18.67-15.508 36.029-24.769 52.075-5.709 9.569-10.953 17.861-15.741 24.881-4.781 7.019-8.793 12.189-12.032 15.505-3.244 3.319-6.17 5.976-8.797 7.983-2.625 2.009-4.627 2.858-6.014 2.548-1.39-0.31-2.701-0.618-3.939-0.927-2.16-1.39-3.896-3.28-5.206-5.672-1.313-2.391-2.199-5.401-2.663-9.026-0.461-3.629-0.733-6.751-0.81-9.374-0.072-2.622-0.039-6.328 0.116-11.11 0.161-4.786 0.233-8.023 0.233-9.721 0-5.864 0.115-12.229 0.344-19.095 0.233-6.866 0.423-12.306 0.581-16.314 0.158-4.012 0.231-8.256 0.231-12.731s-0.273-7.984-0.812-10.531c-0.538-2.549-1.349-5.033-2.423-7.407-1.082-2.391-2.667-4.241-4.745-5.554-2.082-1.312-4.672-2.352-7.754-3.126-8.179-1.851-18.592-2.852-31.247-3.007-28.699-0.308-47.138 1.545-55.316 5.557-3.24 1.695-6.172 4.011-8.794 6.941-2.778 3.396-3.166 5.249-1.16 5.554 9.259 1.387 15.814 4.705 19.672 9.951l1.39 2.78c1.081 2.006 2.161 5.556 3.242 10.647 1.079 5.091 1.775 10.723 2.082 16.891 0.77 11.266 0.77 20.909 0 28.932-0.773 8.025-1.502 14.272-2.198 18.748-0.696 4.475-1.737 8.1-3.125 10.878-1.39 2.776-2.315 4.475-2.779 5.089-0.463 0.616-0.849 1.005-1.155 1.158-1.994 0.769-4.113 1.161-6.25 1.159-2.162 0-4.784-1.081-7.869-3.242s-6.286-5.131-9.604-8.911-7.060-9.066-11.228-15.854c-4.164-6.788-8.485-14.812-12.96-24.070l-3.702-6.714c-2.314-4.319-5.476-10.608-9.488-18.862-4.014-8.257-7.563-16.243-10.647-23.958-1.233-3.24-3.085-5.707-5.554-7.405l-1.159-0.697c-0.77-0.616-2.006-1.27-3.702-1.967-1.712-0.7-3.498-1.204-5.323-1.503l-63.417 0.461c-6.48 0-10.877 1.468-13.192 4.4l-0.927 1.387c-0.463 0.773-0.696 2.006-0.696 3.705s0.463 3.781 1.389 6.247c9.258 21.758 19.325 42.742 30.202 62.955s20.329 36.494 28.351 48.832c8.023 12.345 16.201 23.997 24.534 34.947 8.333 10.956 13.848 17.977 16.547 21.061 2.702 3.091 4.824 5.401 6.367 6.944l5.787 5.554c3.703 3.704 9.141 8.139 16.316 13.307 7.177 5.172 15.122 10.263 23.84 15.281 8.719 5.012 18.863 9.1 30.437 12.263 11.573 3.167 22.835 4.435 33.792 3.822h26.617c5.397-0.466 9.487-2.163 12.268-5.093l0.921-1.159c0.618-0.921 1.199-2.351 1.733-4.277 0.541-1.928 0.812-4.053 0.812-6.363-0.16-6.634 0.346-12.612 1.5-17.936 1.154-5.32 2.469-9.333 3.939-12.035 1.471-2.699 3.129-4.977 4.974-6.824 1.849-1.849 3.168-2.971 3.942-3.356 0.767-0.389 1.382-0.652 1.844-0.81 3.704-1.235 8.062-0.039 13.082 3.589 5.016 3.627 9.72 8.103 14.119 13.424 4.398 5.327 9.682 11.302 15.852 17.936 6.175 6.636 11.575 11.569 16.202 14.813l4.627 2.778c3.091 1.853 7.101 3.552 12.040 5.095 4.93 1.541 9.248 1.926 12.958 1.156l59.247-0.925c5.862 0 10.42-0.969 13.655-2.896 3.242-1.928 5.166-4.052 5.788-6.363 0.618-2.314 0.652-4.939 0.116-7.874-0.548-2.926-1.089-4.973-1.627-6.13z"></path>
    </symbol>
    <symbol version="1.1" xmlns="http://www.w3.org/2000/svg" viewBox="0 0 448 448" id="yt">
        <path fill="currentColor" d="M419.719 125.209c-8.213-25.272-35.39-40.578-60.401-44.087-89.96-9.557-180.681-9.557-270.642 0-25.011 3.509-52.262 18.665-60.4 44.087-12.804 65.241-12.804 132.348 0 197.587 8.213 25.235 35.389 40.578 60.4 44.087 89.961 9.557 180.682 9.557 270.642 0 25.011-3.509 52.262-18.665 60.401-44.087 12.804-65.24 12.804-132.346 0-197.587zM174.87 302.676v-157.383l128.118 78.691c-43.191 26.541-85.113 52.262-128.118 78.692z"></path>
    </symbol>
    <symbol version="1.1" xmlns="http://www.w3.org/2000/svg" viewBox="0 0 448 448" id="icon-clock">
        <path fill="currentColor" d="M224 0c123.711 0 224 100.288 224 224 0 123.711-100.289 224-224 224-123.712 0-224-100.289-224-224 0-123.712 100.288-224 224-224zM201.6 69.359v174.854l101.616 103.513 31.969-31.384-88.785-90.446v-156.538h-44.8z"></path>
    </symbol>
    <symbol version="1.1" xmlns="http://www.w3.org/2000/svg" viewBox="0 0 448 448" id="icon-srch">
        <path fill="currentColor" d="M203.49 9.956c89.317 4.524 160.353 78.386 160.355 168.827l-0.234 8.688c-1.903 37.558-16.097 71.859-38.592 99.029l97.239 116.046-42.611 35.714-96.622-115.321c-25.688 15.758-55.879 24.887-88.225 24.889l-8.707-0.236c-86.435-4.385-155.743-73.684-160.121-160.121l-0.217-8.688c0.003-93.356 75.688-169.045 169.045-169.045l8.689 0.217zM194.8 65.345c-62.647 0-113.436 50.793-113.439 113.439 0.002 62.647 50.792 113.439 113.439 113.439 62.646-0.002 113.438-50.793 113.439-113.439-0.004-62.645-50.796-113.436-113.439-113.439z"></path>
    </symbol>
</svg>