<svg width="517" height="986" viewBox="0 0 517 986" fill="none" xmlns="http://www.w3.org/2000/svg">
<path opacity="0.25" d="M234.305 101.188L232.891 99.8047L22.1728 305.963L23.587 307.346L234.305 101.188Z" fill="#212121"/>
<path d="M-590.202 477.405C-557.664 359.214 -481.415 257.059 -376.248 190.756C-271.081 124.453 -144.492 98.7288 -21.0355 118.573C102.421 138.418 213.943 202.416 291.899 298.154C369.854 393.892 408.686 514.546 400.862 636.71C393.037 758.874 339.114 873.841 249.553 959.309C159.991 1044.78 41.1757 1094.65 -83.8468 1099.27C-208.869 1103.88 -331.186 1062.89 -427.071 984.265C-522.955 905.637 -585.573 794.968 -602.776 673.727C-612.123 608.125 -607.847 541.353 -590.202 477.405ZM386.033 733.326C458.007 470.528 298.032 199.439 29.421 129.022C-239.19 58.6054 -516.276 215.119 -588.25 477.917C-660.224 740.716 -500.249 1011.8 -231.637 1082.22C36.9738 1152.64 314.059 996.125 386.033 733.326Z" fill="#212121"/>
</svg>
