<svg width="180" height="183" viewBox="0 0 180 183" fill="none" xmlns="http://www.w3.org/2000/svg">
<path d="M101.612 64.9023L155.702 33.9854L180 75.6514L126.802 106.058L158.636 158.065L117.076 183L84.7078 130.119L30.6199 161.036L6.32202 119.37L59.5173 88.9629L27.6824 36.9531L69.2429 12.0195L101.612 64.9023Z" fill="#960000"/>
<mask id="path-2-inside-1_3678_14534" fill="white">
<path d="M95.2864 52.875L149.381 21.9561L173.679 63.6221L120.477 94.0312L152.316 146.047L110.754 170.98L78.3821 118.093L24.2991 149.007L0.000244141 107.341L53.1917 76.9365L21.3616 24.9336L62.9221 0L95.2864 52.875Z"/>
</mask>
<path d="M95.2864 52.875L94.4335 53.3971L94.9401 54.2248L95.7826 53.7432L95.2864 52.875ZM149.381 21.9561L150.245 21.4523L149.746 20.5959L148.885 21.0879L149.381 21.9561ZM173.679 63.6221L174.175 64.4903L175.051 63.9897L174.543 63.1183L173.679 63.6221ZM120.477 94.0312L119.981 93.1631L119.086 93.6744L119.624 94.5533L120.477 94.0312ZM152.316 146.047L152.83 146.904L153.695 146.385L153.169 145.525L152.316 146.047ZM110.754 170.98L109.901 171.503L110.419 172.348L111.269 171.838L110.754 170.98ZM78.3821 118.093L79.235 117.571L78.7284 116.743L77.8858 117.225L78.3821 118.093ZM24.2991 149.007L23.4352 149.511L23.9347 150.367L24.7953 149.875L24.2991 149.007ZM0.000244141 107.341L-0.496008 106.473L-1.37176 106.973L-0.863592 107.845L0.000244141 107.341ZM53.1917 76.9365L53.6879 77.8047L54.5825 77.2933L54.0446 76.4145L53.1917 76.9365ZM21.3616 24.9336L20.8471 24.0761L19.9819 24.5951L20.5087 25.4556L21.3616 24.9336ZM62.9221 0L63.775 -0.522058L63.2576 -1.36742L62.4077 -0.857518L62.9221 0ZM95.2864 52.875L95.7826 53.7432L149.877 22.8242L149.381 21.9561L148.885 21.0879L94.7901 52.0068L95.2864 52.875ZM149.381 21.9561L148.517 22.4598L172.815 64.1258L173.679 63.6221L174.543 63.1183L150.245 21.4523L149.381 21.9561ZM173.679 63.6221L173.183 62.7539L119.981 93.1631L120.477 94.0312L120.973 94.8994L174.175 64.4903L173.679 63.6221ZM120.477 94.0312L119.624 94.5533L151.463 146.569L152.316 146.047L153.169 145.525L121.33 93.5092L120.477 94.0312ZM152.316 146.047L151.801 145.189L110.24 170.123L110.754 170.98L111.269 171.838L152.83 146.904L152.316 146.047ZM110.754 170.98L111.607 170.458L79.235 117.571L78.3821 118.093L77.5292 118.615L109.901 171.503L110.754 170.98ZM78.3821 118.093L77.8858 117.225L23.8028 148.139L24.2991 149.007L24.7953 149.875L78.8783 118.961L78.3821 118.093ZM24.2991 149.007L25.1629 148.503L0.86408 106.837L0.000244141 107.341L-0.863592 107.845L23.4352 149.511L24.2991 149.007ZM0.000244141 107.341L0.496496 108.209L53.6879 77.8047L53.1917 76.9365L52.6954 76.0683L-0.496008 106.473L0.000244141 107.341ZM53.1917 76.9365L54.0446 76.4145L22.2145 24.4115L21.3616 24.9336L20.5087 25.4556L52.3387 77.4586L53.1917 76.9365ZM21.3616 24.9336L21.876 25.7911L63.4366 0.857518L62.9221 0L62.4077 -0.857518L20.8471 24.0761L21.3616 24.9336ZM62.9221 0L62.0692 0.522058L94.4335 53.3971L95.2864 52.875L96.1393 52.3529L63.775 -0.522058L62.9221 0Z" fill="black" mask="url(#path-2-inside-1_3678_14534)"/>
</svg>
