<svg width="360" height="546" viewBox="0 0 360 546" fill="none" xmlns="http://www.w3.org/2000/svg">
<g opacity="0.03" clip-path="url(#clip0_51539_1065)">
<path d="M508.97 317.66C542.446 271.082 556.382 212.514 548.074 153.319C539.767 94.123 509.808 38.5193 464.01 -2.70678C418.212 -43.9329 359.839 -67.8425 300.213 -69.7978C240.588 -71.7531 183.962 -51.6146 141.318 -13.2888C98.6739 25.037 73.0526 78.8182 69.424 137.622C65.7953 196.426 84.4179 256.062 121.679 304.96C158.941 353.858 212.185 388.534 271.084 402.261C329.982 415.988 390.337 407.788 440.44 379.251C467.562 363.825 490.871 342.877 508.97 317.66V317.66ZM110.285 20.3093C184.835 -83.1155 334.731 -100.695 444.429 -18.8792C554.128 62.9369 582.723 213.641 508.173 317.066C433.623 420.49 283.727 438.07 174.028 356.254C64.3299 274.438 35.7347 123.734 110.285 20.3093Z" fill="#212121"/>
<path d="M329.213 -106.422L330.175 -106.283L319.764 33.5737L318.802 33.4346L329.213 -106.422Z" fill="#212121"/>
<path d="M313.272 172.281L313.813 171.529L540.737 340.775L540.196 341.527L313.272 172.281Z" fill="#212121"/>
<path d="M45.8253 -27.1884L46.3672 -27.9402L285.579 150.47L285.037 151.222L45.8253 -27.1884Z" fill="#212121"/>
<path d="M182.447 74.1298C161.196 103.696 152.348 140.874 157.62 178.45C162.892 216.026 181.907 251.324 210.978 277.495C240.049 303.666 277.102 318.845 314.952 320.088C352.801 321.331 388.747 308.55 415.818 284.223C442.89 259.895 459.156 225.757 461.461 188.43C463.767 151.102 451.948 113.246 428.297 82.2046C404.645 51.1633 370.848 29.1496 333.46 20.4334C296.073 11.7173 257.76 16.9202 225.954 35.0328C208.736 44.8225 193.939 58.119 182.45 74.126L182.447 74.1298ZM181.652 73.5313C229.536 7.10117 325.474 -4.1504 395.933 48.4005C466.393 100.951 484.695 197.406 436.811 263.836C388.927 330.266 292.99 341.518 222.53 288.967C152.07 236.416 133.769 139.962 181.652 73.5313Z" fill="#212121"/>
<path d="M346.538 133.325C347.662 134.487 348.729 135.685 349.739 136.92L309.229 168.687L346.538 133.325ZM357.411 149.052C358.089 150.494 358.701 151.956 359.25 153.441L309.229 168.687L357.411 149.052ZM362.449 167.143C362.608 168.691 362.699 170.238 362.72 171.784L309.229 168.687L362.449 167.143ZM361.104 185.432C360.724 186.894 360.275 188.339 359.756 189.767L309.229 168.687L361.104 185.432ZM309.209 168.69L353.475 201.705C352.592 202.93 351.662 204.1 350.687 205.215L309.209 168.69ZM309.209 168.69L340.512 213.999C339.243 214.813 337.935 215.572 336.59 216.276L309.209 168.69ZM309.209 168.69L323.765 220.784C322.268 221.101 320.75 221.344 319.223 221.523L309.209 168.69ZM309.209 168.69L305.289 221.337C303.742 221.112 302.197 220.821 300.653 220.463L309.209 168.69ZM309.209 168.69L296.089 219.209C294.587 218.724 293.097 218.172 291.619 217.552L309.209 168.69ZM309.209 168.69L314.625 221.856C313.075 221.902 311.522 221.88 309.964 221.79L309.209 168.69ZM309.209 168.69L332.502 218.146C331.098 218.716 329.667 219.221 328.21 219.661L309.209 168.69ZM309.209 168.69L347.573 208.446C346.483 209.483 345.352 210.46 344.18 211.377L309.209 168.69ZM358.041 193.95C357.403 195.3 356.701 196.628 355.936 197.934L309.229 168.687L358.041 193.95ZM362.603 176.412C362.489 177.942 362.307 179.461 362.057 180.97L309.229 168.687L362.603 176.412ZM360.713 157.942C361.141 159.457 361.497 160.988 361.788 162.523L309.229 168.687L360.713 157.942ZM352.649 140.767C353.562 142.091 354.414 143.444 355.205 144.824L309.229 168.687L352.649 140.767ZM346.552 133.33C347.676 134.492 348.744 135.691 349.754 136.926L309.229 168.687L346.552 133.33ZM352.649 140.767C353.562 142.091 354.414 143.444 355.205 144.824L309.229 168.687L352.649 140.767ZM357.423 149.061C358.1 150.503 358.713 151.965 359.262 153.45L309.229 168.687L357.423 149.061ZM362.449 167.143C362.608 168.691 362.699 170.238 362.72 171.784L309.229 168.687L362.449 167.143ZM361.104 185.432C360.724 186.894 360.275 188.339 359.756 189.767L309.229 168.687L361.104 185.432ZM309.209 168.69L353.475 201.705C352.592 202.93 351.662 204.1 350.687 205.215L309.209 168.69ZM309.209 168.69L340.512 213.999C339.243 214.813 337.935 215.572 336.59 216.276L309.209 168.69ZM309.209 168.69L323.765 220.784C322.268 221.101 320.75 221.344 319.223 221.523L309.209 168.69ZM309.209 168.69L305.289 221.337C303.742 221.112 302.197 220.821 300.653 220.463L309.209 168.69ZM309.209 168.69L296.089 219.209C294.587 218.724 293.097 218.172 291.619 217.552L309.209 168.69ZM309.209 168.69L314.625 221.856C313.075 221.902 311.522 221.88 309.964 221.79L309.209 168.69ZM309.209 168.69L332.502 218.146C331.098 218.716 329.667 219.221 328.21 219.661L309.209 168.69ZM309.209 168.69L347.573 208.446C346.483 209.483 345.352 210.46 344.18 211.377L309.209 168.69ZM358.041 193.95C357.403 195.3 356.701 196.628 355.936 197.934L309.229 168.687L358.041 193.95ZM362.603 176.412C362.489 177.942 362.307 179.461 362.057 180.97L309.229 168.687L362.603 176.412ZM360.713 157.942C361.141 159.457 361.497 160.988 361.788 162.523L309.229 168.687L360.713 157.942ZM346.538 133.325C347.662 134.487 348.729 135.685 349.739 136.92L309.229 168.687L346.538 133.325ZM352.634 140.762C353.547 142.086 354.4 143.438 355.191 144.818L309.229 168.687L352.634 140.762ZM357.408 149.056C358.086 150.497 358.699 151.96 359.247 153.444L309.229 168.687L357.408 149.056ZM360.711 157.946C361.139 159.461 361.494 160.992 361.785 162.527L309.229 168.687L360.711 157.946ZM362.449 167.143C362.608 168.691 362.699 170.238 362.72 171.784L309.229 168.687L362.449 167.143ZM361.104 185.432C360.724 186.894 360.275 188.339 359.756 189.767L309.229 168.687L361.104 185.432ZM309.209 168.69L353.475 201.705C352.592 202.93 351.662 204.1 350.687 205.215L309.209 168.69ZM309.209 168.69L340.512 213.999C339.243 214.813 337.935 215.572 336.59 216.276L309.209 168.69ZM309.209 168.69L323.765 220.784C322.268 221.101 320.75 221.344 319.223 221.523L309.209 168.69ZM309.209 168.69L305.289 221.337C303.742 221.112 302.197 220.821 300.653 220.463L309.209 168.69ZM309.209 168.69L296.089 219.209C294.587 218.724 293.097 218.172 291.619 217.552L309.209 168.69ZM309.209 168.69L314.625 221.856C313.075 221.902 311.522 221.88 309.964 221.79L309.209 168.69ZM309.209 168.69L332.502 218.146C331.098 218.716 329.667 219.221 328.21 219.661L309.209 168.69ZM309.209 168.69L347.573 208.446C346.483 209.483 345.352 210.46 344.18 211.377L309.209 168.69ZM358.041 193.95C357.403 195.3 356.701 196.628 355.936 197.934L309.229 168.687L358.041 193.95ZM362.603 176.412C362.489 177.942 362.307 179.461 362.057 180.97L309.229 168.687L362.603 176.412ZM346.538 133.325C347.662 134.487 348.729 135.685 349.739 136.92L309.229 168.687L346.538 133.325ZM352.634 140.762C353.547 142.086 354.4 143.438 355.191 144.818L309.229 168.687L352.634 140.762ZM357.408 149.056C358.086 150.497 358.699 151.96 359.247 153.444L309.229 168.687L357.408 149.056ZM360.711 157.946C361.139 159.461 361.494 160.992 361.785 162.527L309.229 168.687L360.711 157.946ZM362.449 167.143C362.608 168.691 362.699 170.238 362.72 171.784L309.229 168.687L362.449 167.143ZM362.591 176.403C362.477 177.933 362.295 179.453 362.045 180.962L309.229 168.687L362.591 176.403ZM361.104 185.432C360.724 186.894 360.275 188.339 359.756 189.767L309.229 168.687L361.104 185.432ZM309.209 168.69L353.475 201.705C352.592 202.93 351.662 204.1 350.687 205.215L309.209 168.69ZM309.209 168.69L340.512 213.999C339.243 214.813 337.935 215.572 336.59 216.276L309.209 168.69ZM309.209 168.69L323.765 220.784C322.268 221.101 320.75 221.344 319.223 221.523L309.209 168.69ZM309.209 168.69L305.289 221.337C303.742 221.112 302.197 220.821 300.653 220.463L309.209 168.69ZM309.209 168.69L296.089 219.209C294.587 218.724 293.097 218.172 291.619 217.552L309.209 168.69ZM309.209 168.69L314.625 221.856C313.075 221.902 311.522 221.88 309.964 221.79L309.209 168.69ZM309.209 168.69L332.502 218.146C331.098 218.716 329.667 219.221 328.21 219.661L309.209 168.69ZM309.209 168.69L347.573 208.446C346.483 209.483 345.352 210.46 344.18 211.377L309.209 168.69ZM358.041 193.95C357.403 195.3 356.701 196.628 355.936 197.934L309.229 168.687L358.041 193.95ZM346.538 133.325C347.662 134.487 348.729 135.685 349.739 136.92L309.229 168.687L346.538 133.325ZM352.634 140.762C353.547 142.086 354.4 143.438 355.191 144.818L309.229 168.687L352.634 140.762ZM357.408 149.056C358.086 150.497 358.699 151.96 359.247 153.444L309.229 168.687L357.408 149.056ZM360.711 157.946C361.139 159.461 361.494 160.992 361.785 162.527L309.229 168.687L360.711 157.946ZM362.449 167.143C362.608 168.691 362.699 170.238 362.72 171.784L309.229 168.687L362.449 167.143ZM362.591 176.403C362.477 177.933 362.295 179.453 362.045 180.962L309.229 168.687L362.591 176.403ZM361.104 185.432C360.724 186.894 360.275 188.339 359.756 189.767L309.229 168.687L361.104 185.432ZM358.033 193.944C357.395 195.294 356.693 196.622 355.928 197.928L309.229 168.687L358.033 193.944ZM309.229 168.687L353.483 201.693C352.6 202.919 351.671 204.089 350.696 205.203L309.229 168.687ZM309.229 168.687L340.532 213.997C339.263 214.811 337.955 215.57 336.61 216.274L309.229 168.687ZM309.229 168.687L323.785 220.782C322.288 221.098 320.77 221.342 319.243 221.521L309.229 168.687ZM309.229 168.687L305.309 221.335C303.762 221.11 302.217 220.819 300.673 220.461L309.229 168.687ZM309.229 168.687L296.109 219.207C294.607 218.722 293.117 218.17 291.639 217.549L309.229 168.687ZM309.229 168.687L314.645 221.854C313.095 221.9 311.542 221.878 309.985 221.788L309.229 168.687ZM309.229 168.687L332.523 218.143C331.118 218.714 329.687 219.219 328.23 219.658L309.229 168.687ZM309.229 168.687L347.593 208.444C346.503 209.48 345.372 210.457 344.2 211.375L309.229 168.687ZM346.538 133.325C347.662 134.487 348.729 135.685 349.739 136.92L309.229 168.687L346.538 133.325ZM352.634 140.762C353.547 142.086 354.4 143.438 355.191 144.818L309.229 168.687L352.634 140.762ZM357.408 149.056C358.086 150.497 358.699 151.96 359.247 153.444L309.229 168.687L357.408 149.056ZM360.711 157.946C361.139 159.461 361.494 160.992 361.785 162.527L309.229 168.687L360.711 157.946ZM362.449 167.143C362.608 168.691 362.699 170.238 362.72 171.784L309.229 168.687L362.449 167.143ZM362.591 176.403C362.477 177.933 362.295 179.453 362.045 180.962L309.229 168.687L362.591 176.403ZM361.104 185.432C360.724 186.894 360.275 188.339 359.756 189.767L309.229 168.687L361.104 185.432ZM358.033 193.944C357.395 195.294 356.693 196.622 355.928 197.928L309.229 168.687L358.033 193.944ZM309.229 168.687L353.483 201.693C352.6 202.919 351.671 204.089 350.696 205.203L309.229 168.687ZM309.229 168.687L347.593 208.444C346.503 209.48 345.372 210.457 344.2 211.375L309.229 168.687ZM309.229 168.687L340.532 213.997C339.263 214.811 337.955 215.57 336.61 216.274L309.229 168.687ZM309.229 168.687L323.785 220.782C322.288 221.098 320.77 221.342 319.243 221.521L309.229 168.687ZM309.229 168.687L305.309 221.335C303.762 221.11 302.217 220.819 300.673 220.461L309.229 168.687ZM309.229 168.687L296.109 219.207C294.607 218.722 293.117 218.17 291.639 217.549L309.229 168.687ZM309.229 168.687L314.645 221.854C313.095 221.9 311.542 221.878 309.985 221.788L309.229 168.687ZM309.229 168.687L332.523 218.143C331.118 218.714 329.687 219.219 328.23 219.658L309.229 168.687ZM346.538 133.325C347.662 134.487 348.729 135.685 349.739 136.92L309.229 168.687L346.538 133.325ZM352.634 140.762C353.547 142.086 354.4 143.438 355.191 144.818L309.229 168.687L352.634 140.762ZM357.408 149.056C358.086 150.497 358.699 151.96 359.247 153.444L309.229 168.687L357.408 149.056ZM360.711 157.946C361.139 159.461 361.494 160.992 361.785 162.527L309.229 168.687L360.711 157.946ZM362.449 167.143C362.608 168.691 362.699 170.238 362.72 171.784L309.229 168.687L362.449 167.143ZM362.591 176.403C362.477 177.933 362.295 179.453 362.045 180.962L309.229 168.687L362.591 176.403ZM361.104 185.432C360.724 186.894 360.275 188.339 359.756 189.767L309.229 168.687L361.104 185.432ZM358.033 193.944C357.395 195.294 356.693 196.622 355.928 197.928L309.229 168.687L358.033 193.944ZM309.229 168.687L353.483 201.693C352.6 202.919 351.671 204.089 350.696 205.203L309.229 168.687ZM309.229 168.687L347.593 208.444C346.503 209.48 345.372 210.457 344.2 211.375L309.229 168.687ZM309.229 168.687L340.532 213.997C339.263 214.811 337.955 215.57 336.61 216.274L309.229 168.687ZM309.229 168.687L332.523 218.143C331.118 218.714 329.687 219.219 328.23 219.658L309.229 168.687ZM309.229 168.687L323.785 220.782C322.288 221.098 320.77 221.342 319.243 221.521L309.229 168.687ZM309.229 168.687L305.309 221.335C303.762 221.11 302.217 220.819 300.673 220.461L309.229 168.687ZM309.229 168.687L296.109 219.207C294.607 218.722 293.117 218.17 291.639 217.549L309.229 168.687ZM309.229 168.687L314.645 221.854C313.095 221.9 311.542 221.878 309.985 221.788L309.229 168.687ZM346.538 133.325C347.662 134.487 348.729 135.685 349.739 136.92L309.229 168.687L346.538 133.325ZM352.634 140.762C353.547 142.086 354.4 143.438 355.191 144.818L309.229 168.687L352.634 140.762ZM357.408 149.056C358.086 150.497 358.699 151.96 359.247 153.444L309.229 168.687L357.408 149.056ZM360.711 157.946C361.139 159.461 361.494 160.992 361.785 162.527L309.229 168.687L360.711 157.946ZM362.449 167.143C362.608 168.691 362.699 170.238 362.72 171.784L309.229 168.687L362.449 167.143ZM362.591 176.403C362.477 177.933 362.295 179.453 362.045 180.962L309.229 168.687L362.591 176.403ZM361.104 185.432C360.724 186.894 360.275 188.339 359.756 189.767L309.229 168.687L361.104 185.432ZM358.033 193.944C357.395 195.294 356.693 196.622 355.928 197.928L309.229 168.687L358.033 193.944ZM309.229 168.687L353.483 201.693C352.6 202.919 351.671 204.089 350.696 205.203L309.229 168.687ZM309.229 168.687L347.593 208.444C346.503 209.48 345.372 210.457 344.2 211.375L309.229 168.687ZM309.229 168.687L340.532 213.997C339.263 214.811 337.955 215.57 336.61 216.274L309.229 168.687ZM309.229 168.687L332.523 218.143C331.118 218.714 329.687 219.219 328.23 219.658L309.229 168.687ZM309.229 168.687L323.785 220.782C322.288 221.098 320.77 221.342 319.243 221.521L309.229 168.687ZM309.229 168.687L314.645 221.854C313.095 221.9 311.542 221.878 309.985 221.788L309.229 168.687ZM309.229 168.687L305.309 221.335C303.762 221.11 302.217 220.819 300.673 220.461L309.229 168.687ZM309.229 168.687L296.109 219.207C294.607 218.722 293.117 218.17 291.639 217.549L309.229 168.687ZM156.889 342.969L211.733 280.227C215.182 283.254 218.781 286.169 222.527 288.971L173.757 356.63C167.91 352.269 162.287 347.715 156.889 342.969V342.969ZM296.109 219.207C294.607 218.722 293.117 218.17 291.639 217.549L309.229 168.687L296.109 219.207ZM300.685 220.47L309.229 168.687L305.309 221.335C303.762 221.11 302.217 220.819 300.673 220.461L300.685 220.47ZM309.988 221.808L309.229 168.687L314.645 221.854C313.093 221.91 311.536 221.891 309.976 221.799L309.988 221.808ZM319.267 221.539L309.229 168.687L323.785 220.782C322.316 221.119 320.782 221.351 319.255 221.53L319.267 221.539ZM328.242 219.667L309.229 168.687L332.523 218.143C331.118 218.714 329.687 219.219 328.23 219.658L328.242 219.667ZM336.644 216.252L309.229 168.687L340.532 213.997C339.271 214.805 337.971 215.554 336.632 216.243L336.644 216.252ZM344.212 211.384L309.229 168.687L347.593 208.444C346.503 209.48 345.372 210.457 344.2 211.375L344.212 211.384ZM350.708 205.212L309.229 168.687L353.483 201.693C352.6 202.919 351.671 204.089 350.696 205.203L350.708 205.212ZM355.948 197.943L309.229 168.687L358.041 193.95C357.405 195.302 356.704 196.63 355.936 197.934L355.948 197.943ZM359.78 189.785L309.229 168.687L361.124 185.429C360.741 186.901 360.289 188.35 359.768 189.776L359.78 189.785ZM362.069 180.979L309.229 168.687L362.603 176.412C362.489 177.942 362.307 179.461 362.057 180.97L362.069 180.979ZM362.744 171.802L309.229 168.687L362.449 167.143C362.616 168.697 362.711 170.247 362.732 171.793L362.744 171.802ZM361.788 162.523L309.229 168.687L360.705 157.953C361.141 159.457 361.502 160.981 361.788 162.523ZM359.25 153.441L309.229 168.687L357.411 149.052C358.089 150.494 358.701 151.956 359.25 153.441ZM352.649 140.767C353.562 142.091 354.414 143.444 355.205 144.824L309.229 168.687L352.649 140.767ZM349.747 136.926L309.229 168.687L346.538 133.325C347.662 134.487 348.729 135.685 349.739 136.92L349.747 136.926ZM309.229 168.687L305.309 221.335C303.762 221.11 302.217 220.819 300.673 220.461L309.229 168.687ZM309.229 168.687L296.109 219.207C294.607 218.722 293.117 218.17 291.639 217.549L309.229 168.687ZM309.229 168.687L314.645 221.854C313.095 221.9 311.542 221.878 309.985 221.788L309.229 168.687ZM309.229 168.687L323.785 220.782C322.288 221.098 320.77 221.342 319.243 221.521L309.229 168.687ZM309.229 168.687L332.523 218.143C331.118 218.714 329.687 219.219 328.23 219.658L309.229 168.687ZM309.229 168.687L340.532 213.997C339.263 214.811 337.955 215.57 336.61 216.274L309.229 168.687ZM309.229 168.687L347.593 208.444C346.503 209.48 345.372 210.457 344.2 211.375L309.229 168.687ZM309.229 168.687L353.483 201.693C352.6 202.919 351.671 204.089 350.696 205.203L309.229 168.687ZM358.041 193.95C357.403 195.3 356.701 196.628 355.936 197.934L309.229 168.687L358.041 193.95ZM361.112 185.438C360.732 186.9 360.283 188.345 359.764 189.773L309.229 168.687L361.112 185.438ZM362.599 176.409C362.485 177.939 362.303 179.458 362.053 180.967L309.229 168.687L362.599 176.409ZM362.449 167.143C362.608 168.691 362.699 170.238 362.72 171.784L309.229 168.687L362.449 167.143ZM360.701 157.933C361.129 159.449 361.485 160.979 361.776 162.514L309.229 168.687L360.701 157.933ZM357.399 149.043C358.077 150.485 358.69 151.948 359.238 153.432L309.229 168.687L357.399 149.043ZM352.649 140.767C353.562 142.091 354.414 143.444 355.205 144.824L309.229 168.687L352.649 140.767ZM346.552 133.33C347.676 134.492 348.744 135.691 349.754 136.926L309.229 168.687L346.552 133.33ZM309.229 168.687L323.785 220.782C322.288 221.098 320.77 221.342 319.243 221.521L309.229 168.687ZM309.229 168.687L305.309 221.335C303.762 221.11 302.217 220.819 300.673 220.461L309.229 168.687ZM309.229 168.687L296.109 219.207C294.607 218.722 293.117 218.17 291.639 217.549L309.229 168.687ZM309.229 168.687L314.645 221.854C313.095 221.9 311.542 221.878 309.985 221.788L309.229 168.687ZM309.229 168.687L332.523 218.143C331.118 218.714 329.687 219.219 328.23 219.658L309.229 168.687ZM309.229 168.687L340.532 213.997C339.263 214.811 337.955 215.57 336.61 216.274L309.229 168.687ZM309.229 168.687L347.593 208.444C346.503 209.48 345.372 210.457 344.2 211.375L309.229 168.687ZM309.229 168.687L353.483 201.693C352.6 202.919 351.671 204.089 350.696 205.203L309.229 168.687ZM358.041 193.95C357.403 195.3 356.701 196.628 355.936 197.934L309.229 168.687L358.041 193.95ZM361.112 185.438C360.732 186.9 360.283 188.345 359.764 189.773L309.229 168.687L361.112 185.438ZM362.599 176.409C362.485 177.939 362.303 179.458 362.053 180.967L309.229 168.687L362.599 176.409ZM362.449 167.143C362.608 168.691 362.699 170.238 362.72 171.784L309.229 168.687L362.449 167.143ZM360.701 157.933C361.129 159.449 361.485 160.979 361.776 162.514L309.229 168.687L360.701 157.933ZM357.399 149.043C358.077 150.485 358.69 151.948 359.238 153.432L309.229 168.687L357.399 149.043ZM352.649 140.767C353.562 142.091 354.414 143.444 355.205 144.824L309.229 168.687L352.649 140.767ZM346.552 133.33C347.676 134.492 348.744 135.691 349.754 136.926L309.229 168.687L346.552 133.33ZM309.229 168.687L340.532 213.997C339.263 214.811 337.955 215.57 336.61 216.274L309.229 168.687ZM309.229 168.687L323.785 220.782C322.288 221.098 320.77 221.342 319.243 221.521L309.229 168.687ZM309.229 168.687L305.309 221.335C303.762 221.11 302.217 220.819 300.673 220.461L309.229 168.687ZM309.229 168.687L296.109 219.207C294.607 218.722 293.117 218.17 291.639 217.549L309.229 168.687ZM309.229 168.687L314.645 221.854C313.095 221.9 311.542 221.878 309.985 221.788L309.229 168.687ZM309.229 168.687L332.523 218.143C331.118 218.714 329.687 219.219 328.23 219.658L309.229 168.687ZM309.229 168.687L347.593 208.444C346.503 209.48 345.372 210.457 344.2 211.375L309.229 168.687ZM309.229 168.687L353.483 201.693C352.6 202.919 351.671 204.089 350.696 205.203L309.229 168.687ZM358.041 193.95C357.403 195.3 356.701 196.628 355.936 197.934L309.229 168.687L358.041 193.95ZM361.112 185.438C360.732 186.9 360.283 188.345 359.764 189.773L309.229 168.687L361.112 185.438ZM362.599 176.409C362.485 177.939 362.303 179.458 362.053 180.967L309.229 168.687L362.599 176.409ZM362.449 167.143C362.608 168.691 362.699 170.238 362.72 171.784L309.229 168.687L362.449 167.143ZM360.701 157.933C361.129 159.449 361.485 160.979 361.776 162.514L309.229 168.687L360.701 157.933ZM357.399 149.043C358.077 150.485 358.69 151.948 359.238 153.432L309.229 168.687L357.399 149.043ZM352.649 140.767C353.562 142.091 354.414 143.444 355.205 144.824L309.229 168.687L352.649 140.767ZM346.552 133.33C347.676 134.492 348.744 135.691 349.754 136.926L309.229 168.687L346.552 133.33ZM309.229 168.687L353.483 201.693C352.6 202.919 351.671 204.089 350.696 205.203L309.229 168.687ZM309.229 168.687L340.532 213.997C339.263 214.811 337.955 215.57 336.61 216.274L309.229 168.687ZM309.229 168.687L323.785 220.782C322.288 221.098 320.77 221.342 319.243 221.521L309.229 168.687ZM309.229 168.687L305.309 221.335C303.762 221.11 302.217 220.819 300.673 220.461L309.229 168.687ZM309.229 168.687L296.109 219.207C294.607 218.722 293.117 218.17 291.639 217.549L309.229 168.687ZM309.229 168.687L314.645 221.854C313.095 221.9 311.542 221.878 309.985 221.788L309.229 168.687ZM309.229 168.687L332.523 218.143C331.118 218.714 329.687 219.219 328.23 219.658L309.229 168.687ZM309.229 168.687L347.593 208.444C346.503 209.48 345.372 210.457 344.2 211.375L309.229 168.687ZM358.041 193.95C357.403 195.3 356.701 196.628 355.936 197.934L309.229 168.687L358.041 193.95ZM361.112 185.438C360.732 186.9 360.283 188.345 359.764 189.773L309.229 168.687L361.112 185.438ZM362.599 176.409C362.485 177.939 362.303 179.458 362.053 180.967L309.229 168.687L362.599 176.409ZM362.449 167.143C362.608 168.691 362.699 170.238 362.72 171.784L309.229 168.687L362.449 167.143ZM360.701 157.933C361.129 159.449 361.485 160.979 361.776 162.514L309.229 168.687L360.701 157.933ZM357.399 149.043C358.077 150.485 358.69 151.948 359.238 153.432L309.229 168.687L357.399 149.043ZM352.649 140.767C353.562 142.091 354.414 143.444 355.205 144.824L309.229 168.687L352.649 140.767ZM346.552 133.33C347.676 134.492 348.744 135.691 349.754 136.926L309.229 168.687L346.552 133.33ZM361.13 185.446C360.75 186.908 360.301 188.353 359.783 189.781L309.229 168.687L361.13 185.446ZM309.235 168.704L353.478 201.701C352.594 202.926 351.665 204.096 350.69 205.211L309.235 168.704ZM309.235 168.704L340.538 214.013C339.269 214.827 337.962 215.586 336.617 216.29L309.235 168.704ZM309.235 168.704L323.792 220.798C322.295 221.115 320.777 221.358 319.25 221.537L309.235 168.704ZM309.235 168.704L305.315 221.351C303.769 221.127 302.224 220.835 300.68 220.477L309.235 168.704ZM309.235 168.704L296.115 219.223C294.613 218.739 293.123 218.186 291.646 217.566L309.235 168.704ZM309.235 168.704L314.652 221.87C313.102 221.917 311.548 221.895 309.991 221.804L309.235 168.704ZM309.235 168.704L332.529 218.16C331.125 218.73 329.694 219.235 328.237 219.675L309.235 168.704ZM309.235 168.704L347.6 208.46C346.51 209.497 345.379 210.474 344.206 211.391L309.235 168.704ZM358.041 193.95C357.403 195.3 356.701 196.628 355.936 197.934L309.229 168.687L358.041 193.95ZM362.603 176.412C362.489 177.942 362.307 179.461 362.057 180.97L309.229 168.687L362.603 176.412ZM362.449 167.143C362.608 168.691 362.699 170.238 362.72 171.784L309.229 168.687L362.449 167.143ZM360.701 157.933C361.129 159.449 361.485 160.979 361.776 162.514L309.229 168.687L360.701 157.933ZM357.399 149.043C358.077 150.485 358.69 151.948 359.238 153.432L309.229 168.687L357.399 149.043ZM352.649 140.767C353.562 142.091 354.414 143.444 355.205 144.824L309.229 168.687L352.649 140.767ZM346.552 133.33C347.676 134.492 348.744 135.691 349.754 136.926L309.229 168.687L346.552 133.33ZM362.47 167.165C362.629 168.713 362.72 170.26 362.742 171.806L309.229 168.687L362.47 167.165ZM361.125 185.453C360.745 186.916 360.296 188.361 359.777 189.789L309.229 168.687L361.125 185.453ZM309.23 168.711L353.472 201.708C352.589 202.934 351.66 204.104 350.685 205.218L309.23 168.711ZM309.23 168.711L340.533 214.021C339.264 214.835 337.957 215.594 336.611 216.298L309.23 168.711ZM309.23 168.711L323.787 220.806C322.289 221.122 320.771 221.366 319.245 221.545L309.23 168.711ZM309.23 168.711L305.31 221.359C303.764 221.134 302.218 220.843 300.674 220.485L309.23 168.711ZM309.23 168.711L296.11 219.231C294.608 218.746 293.118 218.194 291.64 217.573L309.23 168.711ZM309.23 168.711L314.646 221.878C313.096 221.924 311.543 221.902 309.986 221.812L309.23 168.711ZM309.23 168.711L332.524 218.167C331.119 218.738 329.688 219.243 328.232 219.682L309.23 168.711ZM309.23 168.711L347.595 208.468C346.504 209.504 345.373 210.481 344.201 211.399L309.23 168.711ZM358.041 193.95C357.403 195.3 356.701 196.628 355.936 197.934L309.229 168.687L358.041 193.95ZM362.603 176.412C362.489 177.942 362.307 179.461 362.057 180.97L309.229 168.687L362.603 176.412ZM360.713 157.942C361.141 159.457 361.497 160.988 361.788 162.523L309.229 168.687L360.713 157.942ZM357.411 149.052C358.089 150.494 358.701 151.956 359.25 153.441L309.229 168.687L357.411 149.052ZM352.649 140.767C353.562 142.091 354.414 143.444 355.205 144.824L309.229 168.687L352.649 140.767ZM346.552 133.33C347.676 134.492 348.744 135.691 349.754 136.926L309.229 168.687L346.552 133.33ZM357.426 149.057C358.103 150.499 358.716 151.962 359.265 153.446L309.229 168.687L357.426 149.057ZM362.449 167.143C362.608 168.691 362.699 170.238 362.72 171.784L309.229 168.687L362.449 167.143ZM361.104 185.432C360.724 186.894 360.275 188.339 359.756 189.767L309.229 168.687L361.104 185.432ZM309.209 168.69L353.475 201.705C352.592 202.93 351.662 204.1 350.687 205.215L309.209 168.69ZM309.209 168.69L340.512 213.999C339.243 214.813 337.935 215.572 336.59 216.276L309.209 168.69ZM309.209 168.69L323.765 220.784C322.268 221.101 320.75 221.344 319.223 221.523L309.209 168.69ZM309.209 168.69L305.289 221.337C303.742 221.112 302.197 220.821 300.653 220.463L309.209 168.69ZM309.209 168.69L296.089 219.209C294.587 218.724 293.097 218.172 291.619 217.552L309.209 168.69ZM309.209 168.69L314.625 221.856C313.075 221.902 311.522 221.88 309.964 221.79L309.209 168.69ZM309.209 168.69L332.502 218.146C331.098 218.716 329.667 219.221 328.21 219.661L309.209 168.69ZM309.209 168.69L347.573 208.446C346.483 209.483 345.352 210.46 344.18 211.377L309.209 168.69ZM358.041 193.95C357.403 195.3 356.701 196.628 355.936 197.934L309.229 168.687L358.041 193.95ZM362.603 176.412C362.489 177.942 362.307 179.461 362.057 180.97L309.229 168.687L362.603 176.412ZM360.713 157.942C361.141 159.457 361.497 160.988 361.788 162.523L309.229 168.687L360.713 157.942ZM352.649 140.767C353.562 142.091 354.414 143.444 355.205 144.824L309.229 168.687L352.649 140.767ZM346.552 133.33C347.676 134.492 348.744 135.691 349.754 136.926L309.229 168.687L346.552 133.33ZM346.552 133.33C347.676 134.492 348.744 135.691 349.754 136.926L309.229 168.687L346.552 133.33ZM357.426 149.057C358.103 150.499 358.716 151.962 359.265 153.446L309.229 168.687L357.426 149.057ZM362.449 167.143C362.608 168.691 362.699 170.238 362.72 171.784L309.229 168.687L362.449 167.143ZM361.104 185.432C360.724 186.894 360.275 188.339 359.756 189.767L309.229 168.687L361.104 185.432ZM309.209 168.69L353.475 201.705C352.592 202.93 351.662 204.1 350.687 205.215L309.209 168.69ZM309.209 168.69L340.512 213.999C339.243 214.813 337.935 215.572 336.59 216.276L309.209 168.69ZM309.209 168.69L323.765 220.784C322.268 221.101 320.75 221.344 319.223 221.523L309.209 168.69ZM309.209 168.69L305.289 221.337C303.742 221.112 302.197 220.821 300.653 220.463L309.209 168.69ZM309.209 168.69L296.089 219.209C294.587 218.724 293.097 218.172 291.619 217.552L309.209 168.69ZM309.209 168.69L314.625 221.856C313.075 221.902 311.522 221.88 309.964 221.79L309.209 168.69ZM309.209 168.69L332.502 218.146C331.098 218.716 329.667 219.221 328.21 219.661L309.209 168.69ZM309.209 168.69L347.573 208.446C346.483 209.483 345.352 210.46 344.18 211.377L309.209 168.69ZM358.041 193.95C357.403 195.3 356.701 196.628 355.936 197.934L309.229 168.687L358.041 193.95ZM362.603 176.412C362.489 177.942 362.307 179.461 362.057 180.97L309.229 168.687L362.603 176.412ZM360.713 157.942C361.141 159.457 361.497 160.988 361.788 162.523L309.229 168.687L360.713 157.942ZM352.649 140.767C353.562 142.091 354.414 143.444 355.205 144.824L309.229 168.687L352.649 140.767ZM83.9036 237.367L165.021 212.64C166.611 216.909 168.385 221.121 170.342 225.278L92.2177 257.121C89.1418 250.627 86.3705 244.042 83.9036 237.367ZM68.2181 154.7L154.983 159.737C155.041 164.192 155.302 168.65 155.765 173.111L69.4539 175.608C68.7298 168.641 68.3178 161.671 68.2181 154.7ZM462.689 164.261L549.004 161.767C549.712 168.722 550.121 175.69 550.232 182.669L463.475 177.638C463.409 173.181 463.148 168.722 462.689 164.261ZM463.073 190.943L549.617 203.474C549.111 210.355 548.301 217.203 547.186 224.016L461.513 204.096C462.24 199.741 462.766 195.361 463.089 190.955L463.073 190.943ZM458.79 216.965L542.956 244.147C541.249 250.734 539.233 257.247 536.909 263.686L454.922 229.5C456.415 225.37 457.71 221.195 458.806 216.977L458.79 216.965ZM449.93 241.503L529.089 282.504C526.233 288.592 523.077 294.573 519.62 300.445L443.887 253C446.097 249.246 448.117 245.418 449.946 241.515L449.93 241.503ZM428.757 273.955C431.576 270.747 434.26 267.376 436.808 263.84L508.572 317.363C504.598 322.876 500.414 328.151 496.019 333.188L428.757 273.955ZM346.538 133.325C347.662 134.487 348.729 135.685 349.739 136.92L309.229 168.687L346.538 133.325ZM357.411 149.052C358.089 150.494 358.701 151.956 359.25 153.441L309.229 168.687L357.411 149.052ZM362.449 167.143C362.608 168.691 362.699 170.238 362.72 171.784L309.229 168.687L362.449 167.143ZM361.104 185.432C360.724 186.894 360.275 188.339 359.756 189.767L309.229 168.687L361.104 185.432ZM309.209 168.69L353.475 201.705C352.592 202.93 351.662 204.1 350.687 205.215L309.209 168.69ZM309.209 168.69L340.512 213.999C339.243 214.813 337.935 215.572 336.59 216.276L309.209 168.69ZM309.209 168.69L323.765 220.784C322.268 221.101 320.75 221.344 319.223 221.523L309.209 168.69ZM309.209 168.69L305.289 221.337C303.742 221.112 302.197 220.821 300.653 220.463L309.209 168.69ZM201.666 270.643L271.912 204.061C273.024 205.206 274.188 206.316 275.405 207.389L211.725 280.238C208.222 277.148 204.869 273.95 201.666 270.643ZM184.082 249.206L265.809 196.608C266.715 197.919 267.681 199.199 268.707 200.446L192.424 260.282C189.482 256.675 186.705 252.979 184.091 249.195L184.082 249.206ZM263.26 192.557L176.701 237.505C174.39 233.493 172.267 229.428 170.331 225.31L261.038 188.351C261.72 189.765 262.46 191.167 263.26 192.557ZM259.208 183.934L165.021 212.64C163.426 208.368 162.02 204.044 160.804 199.67L257.744 179.433C258.167 180.95 258.655 182.451 259.208 183.934V183.934ZM256.67 174.852L157.712 186.457C156.871 182.027 156.224 177.58 155.769 173.114L256.009 170.232C256.134 171.759 256.378 173.317 256.67 174.852V174.852ZM255.725 165.582L154.983 159.737C154.92 155.29 155.052 150.854 155.381 146.429L255.859 160.966C255.744 162.498 255.699 164.037 255.725 165.582V165.582ZM256.4 156.405L156.924 133.275C157.64 128.947 158.55 124.655 159.652 120.398L257.34 151.938C256.956 153.417 256.643 154.906 256.4 156.405V156.405ZM296.109 219.207C294.607 218.722 293.117 218.17 291.639 217.549L309.229 168.687L296.109 219.207ZM258.69 147.599L163.522 107.894C164.989 103.829 166.654 99.8184 168.516 95.863L260.421 143.428C259.774 144.795 259.197 146.186 258.69 147.599ZM174.571 84.3754C176.741 80.6844 179.101 77.0709 181.649 73.5351L264.975 135.682C264.092 136.907 263.274 138.16 262.522 139.441L174.571 84.3754ZM198.63 54.0767L270.864 128.931C269.79 129.956 268.756 131.036 267.762 132.172L189.684 63.4085C192.541 60.1371 195.523 57.0265 198.63 54.0767V54.0767ZM218.972 38.1021L277.918 123.39C276.661 124.198 275.441 125.068 274.258 126L208.399 45.6359C211.822 42.945 215.346 40.4337 218.972 38.1021V38.1021ZM242.081 26.1215L285.927 119.226C284.527 119.796 283.157 120.429 281.818 121.126L230.225 31.5829C234.096 29.5804 238.048 27.76 242.081 26.1215V26.1215ZM267.213 18.4701L294.672 116.593C293.173 116.904 291.695 117.282 290.239 117.726L254.452 21.7424C258.652 20.4675 262.912 19.3807 267.229 18.482L267.213 18.4701ZM293.624 15.3727L303.805 115.498C302.255 115.539 300.713 115.654 299.186 115.833L280.325 16.3543C284.731 15.8376 289.169 15.5143 293.639 15.3846L293.624 15.3727ZM320.502 16.9244L313.128 116.036C311.572 115.812 310.017 115.657 308.46 115.572L307.071 15.5712C311.553 15.8278 316.042 16.2798 320.536 16.9272L320.502 16.9244ZM347.082 23.074L322.349 118.168C320.833 117.681 319.309 117.261 317.777 116.908L333.896 19.4243C338.313 20.4525 342.708 21.6691 347.082 23.074ZM309.229 168.687L314.645 221.854C313.095 221.9 311.542 221.878 309.985 221.788L309.229 168.687ZM309.229 168.687L332.523 218.143C331.118 218.714 329.687 219.219 328.23 219.658L309.229 168.687ZM309.229 168.687L347.593 208.444C346.503 209.48 345.372 210.457 344.2 211.375L309.229 168.687ZM358.041 193.95C357.403 195.3 356.701 196.628 355.936 197.934L309.229 168.687L358.041 193.95ZM362.603 176.412C362.489 177.942 362.307 179.461 362.057 180.97L309.229 168.687L362.603 176.412ZM360.713 157.942C361.141 159.457 361.497 160.988 361.788 162.523L309.229 168.687L360.713 157.942ZM352.649 140.767C353.562 142.091 354.414 143.444 355.205 144.824L309.229 168.687L352.649 140.767ZM410.058 291.767C413.428 289.121 416.687 286.3 419.836 283.304L482.053 347.775C477.141 352.446 472.045 356.852 466.763 360.992L410.058 291.767ZM311.399 321.813C315.887 322.078 320.363 322.141 324.828 322.003L333.595 408.237C326.633 408.439 319.637 408.342 312.607 407.946L311.399 321.813ZM284.56 317.978C289.017 318.995 293.468 319.823 297.911 320.463L291.55 405.829C284.573 404.825 277.609 403.521 270.658 401.916L284.56 317.978ZM258.478 309.547C262.738 311.326 267.034 312.914 271.368 314.312L250.078 396.219C243.312 394.04 236.598 391.558 229.937 388.774L258.478 309.547ZM457.651 137.709L541.139 120.282C543.057 127.106 544.669 133.986 545.976 140.922L460.746 150.918C459.905 146.488 458.874 142.085 457.651 137.709ZM448.113 112.101L526.24 80.2369C529.314 86.7448 532.086 93.3353 534.554 100.008L453.437 124.735C451.851 120.466 450.077 116.247 448.116 112.08L448.113 112.101ZM434.37 88.176L504.759 42.8947C508.882 48.8552 512.73 54.943 516.305 61.1582L441.757 99.8697C439.467 95.8965 437.005 91.9986 434.37 88.176ZM416.786 66.739L477.285 9.39357C482.351 14.6286 487.163 20.0288 491.722 25.594L426.023 77.1077C423.118 73.5462 420.038 70.0912 416.784 66.7428L416.786 66.739ZM395.931 48.4043L444.7 -19.2551C450.548 -14.8939 456.17 -10.3401 461.568 -5.59359L406.722 57.1522C403.276 54.1198 399.679 51.2038 395.931 48.4043ZM71.2501 113.354L156.924 133.275C156.21 137.632 155.692 142.014 155.369 146.42L68.8249 133.889C69.3201 127.011 70.1285 120.166 71.2501 113.354ZM72.4817 196.453L157.712 186.457C158.553 190.887 159.584 195.29 160.807 199.666L77.3187 217.093C75.4071 210.266 73.7948 203.386 72.4817 196.453V196.453ZM102.152 276.217L176.701 237.505C178.993 241.48 181.456 245.377 184.091 249.195L113.719 294.495C109.584 288.529 105.728 282.436 102.152 276.217ZM126.736 311.781L192.424 260.282C195.337 263.838 198.417 267.292 201.666 270.643L141.165 327.993C136.104 322.75 131.294 317.346 126.736 311.781V311.781ZM233.972 296.813C237.913 299.282 241.92 301.573 245.992 303.686L210.417 379.625C204.07 376.337 197.811 372.757 191.639 368.886L233.972 296.813Z" fill="#212121"/>
<path d="M321.189 177.608C316.7 183.836 307.706 184.891 301.1 179.964C294.495 175.037 292.779 165.995 297.268 159.767C301.757 153.539 310.751 152.484 317.357 157.411C323.963 162.337 325.678 171.38 321.189 177.608Z" fill="black"/>
<path d="M258.946 309.723L346.745 65.9964L354.879 43.4254L353.965 43.044L345.833 65.6112L258.032 309.342L258.946 309.723Z" fill="#212121"/>
<path d="M292.581 214.899C296.758 216.648 301.111 217.853 305.524 218.484C316.261 220.039 326.969 218.177 336.094 213.168C345.219 208.159 352.284 200.264 356.264 190.631C360.244 180.998 360.931 170.128 358.225 159.6C355.519 149.073 349.562 139.436 341.218 132.091L343.051 129.99C351.872 137.76 358.17 147.952 361.029 159.085C363.889 170.218 363.161 181.713 358.952 191.9C354.743 202.087 347.271 210.435 337.623 215.733C327.974 221.031 316.65 223.002 305.297 221.36C300.637 220.684 296.044 219.397 291.639 217.532L292.581 214.899Z" fill="#212121"/>
<path d="M309.229 168.687L318.365 158.232L334.991 139.214L396.064 69.3448C392.98 66.6325 389.774 64.0376 386.448 61.5602C376.524 54.1407 365.757 47.9797 354.422 43.2347L322.632 131.476L313.984 155.491L309.229 168.687Z" fill="#212121"/>
<path d="M181.65 73.535C194.287 55.9479 210.87 41.6258 230.225 31.5828C280.115 5.72517 344.743 10.2272 395.931 48.4041C466.39 100.955 484.692 197.41 436.808 263.84C424.171 281.427 407.588 295.749 388.233 305.792L379.594 290.801C381.034 290.056 382.462 289.279 383.879 288.471C414.084 271.231 435.404 242.376 443.257 208.107C451.109 173.838 444.867 136.891 425.873 105.207C406.878 73.5224 376.647 49.6306 341.677 38.6662C306.707 27.7018 269.79 30.5402 238.86 46.5711C237.422 47.3178 235.994 48.0944 234.575 48.9009C213.003 61.232 195.789 79.5967 184.887 101.91C173.985 124.222 169.832 149.589 172.899 175.129C175.967 200.67 186.133 225.36 202.242 246.396C218.351 267.433 239.758 283.972 264.032 294.137L258.478 309.547C245.754 304.216 233.668 297.299 222.527 288.971C152.068 236.42 133.766 139.965 181.65 73.535Z" fill="#960000"/>
<path d="M253.413 127.058C260.063 117.811 269.183 110.652 279.851 106.304C290.519 101.956 302.358 100.572 314.176 102.293C320.06 103.135 325.863 104.742 331.432 107.072L325.878 122.482C321.701 120.74 317.35 119.539 312.937 118.911C300.696 117.146 288.547 119.83 278.753 126.463C268.959 133.095 262.187 143.224 259.698 154.965C257.209 166.705 259.172 179.256 265.223 190.281C271.273 201.307 280.998 210.056 292.588 214.898L287.034 230.309C277.262 226.222 268.406 220.019 261.149 212.18C253.892 204.34 248.428 195.073 245.178 185.095C241.929 175.116 240.982 164.693 242.41 154.63C243.838 144.567 247.602 135.134 253.413 127.058Z" fill="#960000"/>
<path d="M356.109 416.244L352.503 397.204C291.82 404.296 230.268 387.218 179.176 349.112C73.6562 270.412 46.1467 125.448 117.86 25.9588L101.912 14.0648C74.0117 52.7071 58.8989 99.5637 58.4869 148.704C58.0748 197.844 72.3821 247.058 99.5977 290.118C126.813 333.177 165.714 368.145 211.375 390.597C257.037 413.049 307.406 421.974 356.109 416.244Z" fill="#960000"/>
</g>
<defs>
<clipPath id="clip0_51539_1065">
<rect width="509.487" height="595.754" fill="white" transform="matrix(-0.786935 0.617036 0.633696 0.773582 303.933 -230)"/>
</clipPath>
</defs>
</svg>
