<svg width="0" height="0" class="hidden">
    <symbol version="1.1" xmlns="http://www.w3.org/2000/svg" viewBox="0 0 448 448" id="facebook">
        <path fill="currentColor" d="M260.523 445.297h-98.066v-208.905h-49.008v-80.504h49.008v-48.292c0-65.627 27.668-104.699 106.283-104.699h65.442v80.504h-40.888c-30.612 0-32.648 11.237-32.648 32.236l-0.122 40.251h74.126l-8.683 80.504h-65.442v208.905z"></path>
    </symbol>
    <symbol version="1.1" xmlns="http://www.w3.org/2000/svg" viewBox="0 0 448 448" id="insta">
        <path fill="currentColor" d="M223.992 150.287c-40.617 0-73.763 33.147-73.763 73.764 0 40.619 33.146 73.766 73.763 73.766s73.764-33.147 73.764-73.766c0-40.617-33.147-73.764-73.764-73.764zM445.228 224.052c0-30.545 0.277-60.815-1.438-91.306-1.716-35.416-9.795-66.847-35.692-92.746-25.953-25.953-57.329-33.977-92.744-35.693-30.545-1.715-60.813-1.439-91.304-1.439-30.545 0-60.815-0.276-91.305 1.439-35.415 1.715-66.846 9.795-92.744 35.693-25.953 25.953-33.976 57.33-35.692 92.746-1.715 30.546-1.439 60.816-1.439 91.306s-0.276 60.817 1.439 91.308c1.715 35.415 9.795 66.846 35.692 92.746 25.953 25.953 57.329 33.977 92.744 35.692 30.546 1.716 60.815 1.439 91.305 1.439 30.545 0 60.813 0.277 91.304-1.439 35.415-1.716 66.847-9.795 92.744-35.692 25.952-25.954 33.977-57.331 35.692-92.746 1.771-30.491 1.438-60.76 1.438-91.308v0zM223.992 337.548c-62.806 0-113.494-50.689-113.494-113.497s50.688-113.497 113.494-113.497c62.808 0 113.495 50.689 113.495 113.497s-50.687 113.497-113.495 113.497zM342.136 132.413c-14.665 0-26.507-11.842-26.507-26.507s11.842-26.507 26.507-26.507c14.665 0 26.505 11.842 26.505 26.507 0.005 3.482-0.677 6.931-2.008 10.149s-3.284 6.142-5.746 8.604c-2.46 2.462-5.386 4.414-8.603 5.745s-6.667 2.013-10.148 2.009v0z"></path>
    </symbol>
    <symbol version="1.1" xmlns="http://www.w3.org/2000/svg" viewBox="0 0 448 448" id="tg">
        <path fill="currentColor" d="M15.309 214.91l98.95 38.95 38.3 129.908c2.451 8.319 12.096 11.395 18.5 5.873l55.157-47.423c5.781-4.968 14.016-5.215 20.058-0.59l99.484 76.175c6.848 5.251 16.553 1.293 18.271-7.437l72.876-369.714c1.876-9.535-7.009-17.49-15.617-13.978l-406.094 165.223c-10.021 4.077-9.934 19.040 0.116 23.013z"></path>
        <path fill="#A9A9A9" d="M146.359 233.119l193.385-125.619c3.474-2.251 7.051 2.705 4.066 5.625l-159.599 156.467c-5.609 5.507-9.229 12.878-10.253 20.878l-5.436 42.492c-0.72 5.674-8.277 6.237-9.762 0.746l-20.909-77.487c-2.394-8.838 1.096-18.278 8.507-23.103z"></path>
    </symbol>
    <symbol version="1.1" xmlns="http://www.w3.org/2000/svg" viewBox="0 0 448 448" id="vk">
        <path fill="currentColor" d="M223.989 6.192c-120.287 0-217.797 97.51-217.797 217.797s97.51 217.797 217.797 217.797c120.288 0 217.797-97.509 217.797-217.797s-97.509-217.797-217.797-217.797zM307.751 251.917c0 0 19.261 19.012 24.003 27.837 0.136 0.181 0.204 0.363 0.249 0.454 1.928 3.244 2.382 5.763 1.429 7.646-1.588 3.13-7.033 4.674-8.893 4.809h-34.031c-2.359 0-7.305-0.613-13.295-4.741-4.606-3.222-9.143-8.508-13.567-13.658-6.602-7.668-12.319-14.293-18.082-14.293-0.732-0.001-1.459 0.114-2.155 0.34-4.356 1.407-9.936 7.623-9.936 24.185 0 5.173-4.084 8.144-6.965 8.144h-15.586c-5.309 0-32.964-1.86-57.466-27.701-29.992-31.649-56.99-95.128-57.217-95.717-1.702-4.106 1.815-6.307 5.649-6.307h34.371c4.583 0 6.080 2.79 7.123 5.263 1.225 2.882 5.717 14.339 13.090 27.225 11.956 21.008 19.285 29.539 25.16 29.539 1.102-0.013 2.184-0.294 3.153-0.817 7.669-4.265 6.239-31.603 5.899-37.275 0-1.066-0.023-12.228-3.948-17.583-2.813-3.879-7.6-5.354-10.504-5.898 1.175-1.622 2.724-2.937 4.515-3.834 5.264-2.632 14.747-3.017 24.162-3.017h5.241c10.209 0.136 12.841 0.794 16.539 1.725 7.487 1.792 7.646 6.625 6.988 23.164-0.204 4.697-0.409 10.005-0.409 16.267 0 1.361-0.067 2.814-0.067 4.356-0.227 8.417-0.5 17.968 5.445 21.893 0.775 0.486 1.671 0.745 2.586 0.749 2.064 0 8.281 0 25.115-28.881 5.191-9.296 9.703-18.956 13.499-28.903 0.34-0.59 1.338-2.405 2.518-3.108 0.871-0.444 1.836-0.67 2.814-0.658h40.405c4.401 0 7.419 0.658 7.986 2.359 0.998 2.7-0.181 10.935-18.627 35.914l-8.235 10.867c-16.721 21.916-16.721 23.028 1.043 39.658v0z"></path>
    </symbol>
    <symbol version="1.1" xmlns="http://www.w3.org/2000/svg" viewBox="0 0 448 448" id="wa">
        <path fill="currentColor" d="M10.021 438.177l28.941-106.347c-19.070-32.691-29.089-69.87-29.027-107.718 0-118.228 95.837-214.064 214.064-214.064s214.064 95.837 214.064 214.064c0 118.229-95.836 214.064-214.064 214.064-37.83 0.061-74.994-9.95-107.674-29.006l-106.304 29.006zM146.744 123.674c-2.765 0.171-5.466 0.9-7.942 2.141-2.322 1.315-4.442 2.959-6.293 4.881-2.569 2.419-4.025 4.517-5.587 6.55-7.912 10.297-12.167 22.935-12.095 35.92 0.043 10.489 2.783 20.7 7.064 30.247 8.755 19.309 23.162 39.752 42.192 58.697 4.581 4.56 9.055 9.141 13.872 13.401 23.618 20.796 51.766 35.792 82.201 43.797l12.18 1.863c3.96 0.214 7.92-0.085 11.902-0.279 6.234-0.321 12.321-2.009 17.83-4.944 2.803-1.444 5.539-3.016 8.2-4.71 0 0 0.921-0.6 2.675-1.926 2.89-2.14 4.666-3.661 7.064-6.165 1.778-1.841 3.318-4.003 4.496-6.466 1.669-3.489 3.34-10.147 4.025-15.69 0.513-4.238 0.363-6.551 0.299-7.984-0.085-2.291-1.992-4.666-4.067-5.672l-12.459-5.589c0 0-18.624-8.112-29.991-13.293-1.198-0.523-2.483-0.819-3.788-0.877-1.465-0.151-2.945 0.014-4.341 0.483-1.395 0.47-2.674 1.231-3.752 2.236v-0.043c-0.107 0-1.54 1.22-17.017 19.972-0.889 1.193-2.113 2.096-3.516 2.591-1.402 0.496-2.921 0.562-4.361 0.192-1.396-0.373-2.761-0.845-4.090-1.414-2.653-1.113-3.574-1.54-5.393-2.332l-0.107-0.043c-12.248-5.347-23.585-12.568-33.609-21.406-2.697-2.356-5.201-4.924-7.77-7.408-8.422-8.064-15.761-17.189-21.835-27.143l-1.263-2.034c-0.906-1.367-1.64-2.841-2.184-4.389-0.812-3.146 1.306-5.672 1.306-5.672s5.201-5.694 7.62-8.776c2.015-2.562 3.893-5.227 5.63-7.984 2.526-4.067 3.318-8.242 1.992-11.475-5.995-14.641-12.203-29.219-18.582-43.69-1.263-2.869-5.009-4.924-8.412-5.33-1.156-0.129-2.312-0.257-3.469-0.343-2.874-0.143-5.754-0.114-8.626 0.086v0.021z"></path>
    </symbol>
    <symbol version="1.1" xmlns="http://www.w3.org/2000/svg" viewBox="0 0 448 448" id="arrow-left">
        <path fill="currentColor" d="M303.058 46.906c4.2 0 7.7 1.4 11.2 4.2 6.3 6.3 6.3 16.1 0 22.4l-147 150.5 147 149.8c6.3 6.3 6.3 16.1 0 22.4s-16.1 6.3-22.4 0l-158.2-161c-6.3-6.3-6.3-16.1 0-22.4l158.2-161c2.799-2.8 7-4.9 11.2-4.9z"></path>
    </symbol>
    <symbol version="1.1" xmlns="http://www.w3.org/2000/svg" viewBox="0 0 467 448" id="email">
        <path fill="currentColor" d="M396.725 67.229h-336c-23.8 0-44.1 19.6-44.1 44.1v226.801c0 23.8 19.6 44.1 44.1 44.1h336c23.8 0 44.1-19.6 44.1-44.1v-227.501c0-23.8-20.3-43.4-44.1-43.4zM396.725 98.729c0.7 0 1.4 0 2.1 0l-170.1 109.201-170.1-109.201c0.7 0 1.4 0 2.1 0h336zM396.725 349.33h-336c-7 0-12.6-5.6-12.6-12.6v-207.201l163.8 105.001c4.9 3.5 10.5 4.9 16.1 4.9s11.2-1.4 16.1-4.9l163.8-105.001v207.901c1.4 7-4.2 11.9-11.2 11.9z"></path>
    </symbol>
    <symbol version="1.1" xmlns="http://www.w3.org/2000/svg" viewBox="0 0 467 448" id="phone">
        <path fill="currentColor" d="M344.895 426.293c-56.7 0-137.2-40.6-211.401-110.6-100.8-96.6-143.5-204.399-98.7-251.999 2.1-2.1 4.9-4.2 7.7-5.6l56.7-32.2c14.7-8.4 32.9-4.2 42.7 9.8l41.3 58.8c4.901 7 7.001 15.4 4.901 23.8-1.4 7.7-6.301 14.7-13.301 19.6l-24.5 16.1c18.9 27.3 70.001 95.199 151.201 143.499 0.7 0.7 1.4 0 1.4 0l17.5-23.8c9.8-13.3 28.7-16.8 43.4-7.7l61.6 39.2c14.7 9.1 18.9 28 9.8 42.7l-33.6 53.9c-2.1 2.8-4.2 5.6-6.3 7.7-12.6 11.2-30.1 16.8-50.4 16.8zM115.294 53.193l-57.4 32.2c-26.6 28.7 6.3 120.399 98 207.199 93.101 88.2 189.001 119.7 219.801 93.1l33.6-53.9-61.6-39.2c-0.7 0-1.4 0-1.4 0l-17.5 23.8c-9.8 13.3-28.7 16.8-42.7 8.4-87.5-52.5-142.101-125.3-161.701-153.999-4.9-7-6.3-15.4-4.9-23.1 1.4-8.4 6.3-15.4 13.3-19.6l24.5-16.1-40.6-58.1c-0.7 0-1.4-0.7-1.4-0.7z"></path>
    </symbol>
    <symbol version="1.1" xmlns="http://www.w3.org/2000/svg" viewBox="0 0 448 448" id="birthday">
        <path fill="currentColor" d="M448 429.329c0 4.952-1.967 9.698-5.468 13.199s-8.247 5.468-13.199 5.468h-410.667c-4.951 0-9.698-1.967-13.199-5.468s-5.467-8.247-5.467-13.199c0-4.952 1.967-9.698 5.467-13.199s8.249-5.468 13.199-5.468h410.667c4.952 0 9.698 1.967 13.199 5.468s5.468 8.247 5.468 13.199zM70 279.996c19.936 0 32.667-12.264 32.667-18.667 0-4.952 1.967-9.698 5.467-13.199s8.249-5.468 13.199-5.468c4.951 0 9.699 1.967 13.199 5.468s5.467 8.247 5.467 13.199c0 5.713 12.338 18.667 32.667 18.667 19.936 0 32.667-12.264 32.667-18.667 0-4.952 1.967-9.698 5.467-13.199s8.248-5.468 13.199-5.468 9.698 1.967 13.199 5.468c3.501 3.501 5.468 8.247 5.468 13.199 0 5.713 12.339 18.667 32.665 18.667 19.936 0 32.668-12.264 32.668-18.667 0-4.952 1.967-9.698 5.468-13.199s8.247-5.468 13.199-5.468c4.952 0 9.698 1.967 13.199 5.468s5.468 8.247 5.468 13.199c0 5.713 12.339 18.667 32.668 18.667 20.326 0 32.666-12.953 32.666-18.667-0.030-24.745-9.873-48.467-27.369-65.964-17.498-17.497-41.22-27.34-65.965-27.37h-74.667v-40.768c10.88-3.847 20.307-10.962 26.991-20.371 6.682-9.409 10.295-20.653 10.342-32.195-4.008-23.781-14.822-45.891-31.136-63.653-3.23-3.325-7.093-5.969-11.362-7.774s-8.858-2.735-13.493-2.735c-4.634 0-9.222 0.93-13.492 2.735s-8.133 4.448-11.362 7.774c-16.326 17.755-27.149 39.868-31.154 63.653 0.048 11.541 3.66 22.785 10.343 32.195s16.109 16.524 26.99 20.371v40.768h-74.667c-24.745 0.030-48.467 9.873-65.964 27.37s-27.34 41.219-27.37 65.964c0 5.713 12.339 18.667 32.667 18.667zM56 373.329h336c4.952 0 9.698-1.967 13.199-5.468s5.468-8.247 5.468-13.199v-44.333c-10.287 4.567-21.41 6.951-32.665 7-18.799 0.143-37.020-6.483-51.335-18.667-14.398 12.002-32.538 18.601-51.283 18.652-18.746 0.049-36.919-6.447-51.383-18.372-14.464 11.925-32.638 18.421-51.384 18.372-18.745-0.051-36.884-6.65-51.283-18.652-14.315 12.183-32.536 18.809-51.333 18.667-11.256-0.049-22.379-2.432-32.667-7v44.333c0 4.952 1.967 9.698 5.467 13.199s8.249 5.468 13.199 5.468z"></path>
    </symbol>
    <symbol version="1.1" xmlns="http://www.w3.org/2000/svg" viewBox="0 0 448 448" id="calendar">
        <path fill="currentColor" d="M0 354.724c0.030 24.745 9.873 48.467 27.37 65.966 17.497 17.497 41.219 27.339 65.964 27.368h261.332c24.745-0.029 48.467-9.872 65.966-27.368 17.496-17.499 27.339-41.22 27.368-65.966v-167.999h-448v167.999zM317.334 270.724c5.537 0 10.952 1.642 15.554 4.72 4.606 3.078 8.194 7.45 10.313 12.566s2.674 10.745 1.592 16.177c-1.080 5.432-3.745 10.42-7.663 14.336-3.916 3.916-8.904 6.584-14.336 7.663-5.43 1.082-11.061 0.526-16.177-1.593s-9.488-5.708-12.566-10.313c-3.076-4.606-4.718-10.017-4.718-15.557 0-7.426 2.95-14.546 8.201-19.797 5.25-5.253 12.372-8.203 19.799-8.203zM224 270.724c5.537 0 10.952 1.642 15.557 4.72 4.603 3.078 8.192 7.45 10.311 12.566 2.121 5.116 2.674 10.745 1.595 16.177-1.082 5.432-3.748 10.42-7.663 14.336s-8.906 6.584-14.336 7.663c-5.432 1.082-11.062 0.526-16.178-1.593s-9.489-5.708-12.566-10.313c-3.076-4.606-4.719-10.017-4.719-15.557 0-7.426 2.95-14.546 8.201-19.797 5.251-5.253 12.373-8.203 19.799-8.203zM130.666 270.724c5.538 0 10.952 1.642 15.556 4.72s8.193 7.45 10.312 12.566c2.119 5.116 2.674 10.745 1.593 16.177s-3.747 10.42-7.663 14.336c-3.916 3.916-8.905 6.584-14.336 7.663-5.432 1.082-11.061 0.526-16.178-1.593s-9.489-5.708-12.566-10.313c-3.077-4.606-4.719-10.017-4.719-15.557 0-7.426 2.95-14.546 8.201-19.797 5.251-5.253 12.373-8.203 19.799-8.203z"></path>
        <path fill="currentColor" d="M354.666 37.334h-18.666v-18.667c0-4.951-1.967-9.698-5.468-13.199s-8.248-5.467-13.198-5.467c-4.95 0-9.699 1.967-13.2 5.467s-5.468 8.249-5.468 13.199v18.667h-149.332v-18.667c0-4.951-1.967-9.698-5.467-13.199s-8.249-5.467-13.199-5.467c-4.951 0-9.698 1.967-13.199 5.467s-5.467 8.249-5.467 13.199v18.667h-18.666c-24.745 0.030-48.467 9.872-65.964 27.37s-27.34 41.219-27.37 65.964v18.667h448v-18.667c-0.029-24.745-9.872-48.467-27.368-65.964-17.499-17.497-41.22-27.34-65.966-27.37z"></path>
    </symbol>
    <symbol version="1.1" xmlns="http://www.w3.org/2000/svg" viewBox="0 0 472 448" id="star">
        <path fill="currentColor" d="M25.92 235.462l69.99 50.138-26.58 80.744c-4.296 12.523-4.35 26.074-0.155 38.63s12.414 23.445 23.433 31.046c10.829 7.842 23.954 12.047 37.416 11.981s26.543-4.397 37.292-12.348l68.436-49.405 68.456 49.348c10.811 7.798 23.862 12.035 37.283 12.098 13.419 0.066 26.512-4.046 37.401-11.743 10.886-7.696 19.005-18.58 23.188-31.087 4.185-12.509 4.216-25.994 0.094-38.521l-26.581-80.744 69.99-50.138c10.797-7.742 18.821-18.634 22.931-31.117 4.107-12.484 4.091-25.922-0.052-38.395s-12.2-23.343-23.016-31.057c-10.818-7.714-23.843-11.878-37.217-11.896h-85.974l-26.088-79.76c-4.103-12.555-12.164-23.507-23.023-31.278s-23.951-11.958-37.393-11.958c-13.441 0-26.534 4.187-37.392 11.958s-18.92 18.723-23.023 31.278l-26.089 79.76h-85.894c-13.374 0.019-26.4 4.183-37.216 11.896s-18.872 18.584-23.015 31.057c-4.143 12.473-4.161 25.911-0.053 38.395s12.134 23.375 22.93 31.117h-0.079z"></path>
    </symbol>
</svg>