<svg width="180" height="186" viewBox="0 0 180 186" fill="none" xmlns="http://www.w3.org/2000/svg">
<rect x="56.2998" y="7.92969" width="75.3304" height="75.3304" rx="37.6652" fill="#960000"/>
<path d="M180 185.947C180 163.129 170.936 141.246 154.801 125.111C138.666 108.976 116.783 99.9119 93.9649 99.9119C71.147 99.9119 49.2636 108.976 33.1288 125.111C16.9941 141.246 7.92969 163.129 7.92969 185.947L93.9649 185.947H180Z" fill="#960000"/>
<rect x="48.7666" y="0.396476" width="74.5374" height="74.5374" rx="37.2687" stroke="black" stroke-width="0.792952"/>
<mask id="path-4-inside-1_3678_15331" fill="white">
<path d="M172.07 178.017C172.07 155.2 163.006 133.316 146.871 117.181C130.737 101.047 108.853 91.9823 86.0352 91.9823C63.2173 91.9823 41.3339 101.047 25.1991 117.181C9.06441 133.316 3.44542e-06 155.2 0 178.017L86.0352 178.017H172.07Z"/>
</mask>
<path d="M172.07 178.017C172.07 155.2 163.006 133.316 146.871 117.181C130.737 101.047 108.853 91.9823 86.0352 91.9823C63.2173 91.9823 41.3339 101.047 25.1991 117.181C9.06441 133.316 3.44542e-06 155.2 0 178.017L86.0352 178.017H172.07Z" stroke="black" stroke-width="1.5859" mask="url(#path-4-inside-1_3678_15331)"/>
</svg>
