<svg width="487" height="96" viewBox="0 0 487 96" fill="none" xmlns="http://www.w3.org/2000/svg">
<path d="M487 4.26642H434.731V44.6663H484.096V47.5997H434.731V91.7329H487V94.6663H431.694V1.33307H487V4.26642Z" fill="#FFF9ED"/>
<path d="M353.995 1.33307H405.343V94.6663H402.306V4.26642H356.503L346.207 66.3997C342.512 88.933 338.024 95.9996 328.124 95.9996H322.845V93.0662H327.861C336.177 93.0662 339.739 87.333 343.171 66.6664L353.995 1.33307Z" fill="#FFF9ED"/>
<path d="M267.717 0C294.248 0 314.839 20.5333 314.839 47.9999C314.839 75.4667 294.248 96 267.584 96C241.053 96 220.329 75.4667 220.329 47.9999C220.329 20.5333 241.053 0 267.717 0ZM267.584 2.93334C242.902 2.93334 223.498 22.3999 223.498 47.9999C223.498 73.5999 242.902 93.0667 267.584 93.0667C292.268 93.0667 311.803 73.7332 311.803 47.9999C311.803 22.2666 292.268 2.93334 267.584 2.93334Z" fill="#FFF9ED"/>
<path d="M197.882 1.33307V94.6663H194.846V4.26642H128.716V94.6663H125.68V1.33307H197.882Z" fill="#FFF9ED"/>
<path d="M48.1787 45.4663C60.3224 48.533 66.2623 56.7998 66.2623 69.733C66.2623 84.3996 58.0783 94.6663 36.9589 94.6663H0V1.33307H35.639C56.4943 1.33307 63.4902 10.9331 63.4902 24.533C63.4902 34.5331 59.3983 42.2664 48.1787 45.4663ZM60.4544 24.3998C60.4544 12.5331 54.7784 4.26642 35.639 4.26642H3.03592V44.2663H34.451C54.6465 44.2663 60.4544 36.133 60.4544 24.3998ZM36.9589 91.7329C56.3624 91.7329 63.2262 82.7996 63.2262 69.733C63.2262 55.9997 55.9664 47.1997 36.5629 47.1997H3.03592V91.7329H36.9589Z" fill="#FFF9ED"/>
</svg>
