<svg width="138" height="40" viewBox="0 0 138 40" fill="none" xmlns="http://www.w3.org/2000/svg">
<g clip-path="url(#clip0_225_2698)">
<path d="M132.79 39.967H5.11112C3.77558 39.9759 2.49028 39.4575 1.53362 38.5239C0.576971 37.5904 0.0259877 36.3169 0 34.9794V4.98776C0.0259877 3.65019 0.576971 2.37672 1.53362 1.44318C2.49028 0.509647 3.77558 -0.00882671 5.11112 0.000113734H132.79C134.126 -0.00882671 135.411 0.509647 136.367 1.44318C137.324 2.37672 137.875 3.65019 137.901 4.98776V34.9794C137.875 36.3169 137.324 37.5904 136.367 38.5239C135.411 39.4575 134.126 39.9759 132.79 39.967Z" fill="#2875F7"/>
<path d="M48.4725 10.2364C48.4939 10.6018 48.4373 10.9676 48.3065 11.3093C48.1757 11.6511 47.9738 11.9609 47.7141 12.2184C47.4235 12.516 47.0738 12.7492 46.6875 12.9028C46.3012 13.0564 45.8871 13.127 45.4718 13.1101C44.6274 13.1156 43.813 12.7965 43.1966 12.2184C42.6404 11.6095 42.332 10.8139 42.332 9.98865C42.332 9.16337 42.6404 8.36803 43.1966 7.75912C43.813 7.18098 44.6274 6.86191 45.4718 6.86744C45.9005 6.86217 46.3261 6.94053 46.7248 7.09847C47.0892 7.24377 47.4161 7.46963 47.6811 7.75912L47.1535 8.28773C46.9411 8.05567 46.6804 7.87315 46.3898 7.75328C46.0992 7.63341 45.7858 7.57905 45.4718 7.59401C44.8469 7.58719 44.2438 7.82413 43.7901 8.25466C43.5627 8.47768 43.3838 8.74533 43.2646 9.04091C43.1455 9.33649 43.0886 9.65367 43.0976 9.97232C43.086 10.2962 43.1416 10.6189 43.2608 10.9203C43.3799 11.2216 43.5602 11.4948 43.7901 11.7228C44.2467 12.1224 44.8325 12.3426 45.4388 12.3426C46.0452 12.3426 46.6309 12.1224 47.0876 11.7228C47.3994 11.3919 47.576 10.9558 47.5822 10.5007H45.3729V9.67495H48.3406C48.4092 9.85545 48.4536 10.0442 48.4725 10.2364Z" fill="white" stroke="white" stroke-width="0.16" stroke-miterlimit="10"/>
<path d="M53.1898 7.72658H50.3539V9.67547H52.86V10.3692H50.3539V12.2848H53.1238V12.9785H49.5625V7H53.1238L53.1898 7.72658Z" fill="white" stroke="white" stroke-width="0.16" stroke-miterlimit="10"/>
<path d="M56.5178 12.9785H55.7264V7.72658H54.0117V7H58.2325V7.72658H56.5178V12.9785Z" fill="white" stroke="white" stroke-width="0.16" stroke-miterlimit="10"/>
<path d="M61.2656 12.9785V7H62.057V12.9785H61.2656Z" fill="white" stroke="white" stroke-width="0.16" stroke-miterlimit="10"/>
<path d="M65.553 12.9785H64.7615V7.72658H63.0469V7H67.2677V7.72658H65.553V12.9785Z" fill="white" stroke="white" stroke-width="0.16" stroke-miterlimit="10"/>
<path d="M75.2471 12.2191C74.8078 12.6549 74.2496 12.9506 73.6427 13.0692C73.0359 13.1878 72.4076 13.124 71.8369 12.8856C71.2663 12.6472 70.7788 12.2449 70.436 11.7296C70.0931 11.2142 69.9102 10.6087 69.9102 9.98934C69.9102 9.37002 70.0931 8.76467 70.436 8.24931C70.7788 7.73394 71.2663 7.33171 71.8369 7.09332C72.4076 6.85493 73.0359 6.79105 73.6427 6.90966C74.2496 7.02827 74.8078 7.32402 75.2471 7.75982C75.8208 8.35556 76.1503 9.1455 76.1704 9.97301C76.1751 10.3903 76.0958 10.8042 75.9371 11.1901C75.7785 11.576 75.5438 11.9261 75.2471 12.2191ZM71.356 11.7235C71.8024 12.1439 72.3921 12.3779 73.0048 12.3779C73.6175 12.3779 74.2071 12.1439 74.6535 11.7235C74.8834 11.4955 75.0637 11.2223 75.1829 10.9209C75.3021 10.6196 75.3576 10.2969 75.346 9.97301C75.355 9.65437 75.2981 9.33719 75.179 9.04161C75.0598 8.74603 74.8809 8.47837 74.6535 8.25536C74.2109 7.82749 73.6199 7.58846 73.0048 7.58846C72.3897 7.58846 71.7986 7.82749 71.356 8.25536C71.1286 8.47837 70.9497 8.74603 70.8306 9.04161C70.7114 9.33719 70.6546 9.65437 70.6636 9.97301C70.652 10.2969 70.7075 10.6196 70.8267 10.9209C70.9459 11.2223 71.1261 11.4955 71.356 11.7235Z" fill="white" stroke="white" stroke-width="0.16" stroke-miterlimit="10"/>
<path d="M77.2617 12.9785V7H78.218L81.2187 11.6572V7H82.0101V12.9785H81.1857L78.0531 8.09006V12.9785H77.2617Z" fill="white" stroke="white" stroke-width="0.16" stroke-miterlimit="10"/>
<path d="M69.6765 21.7304C68.8397 21.7499 68.0272 22.0162 67.3408 22.4961C66.6544 22.976 66.1246 23.6481 65.8178 24.4282C65.511 25.2083 65.4407 26.0616 65.6158 26.8815C65.791 27.7015 66.2037 28.4515 66.8023 29.0375C67.401 29.6235 68.159 30.0196 68.9813 30.1761C69.8036 30.3327 70.6538 30.2427 71.4253 29.9175C72.1968 29.5923 72.8554 29.0462 73.3186 28.3478C73.7818 27.6494 74.029 26.8297 74.0292 25.9913C74.0293 25.4233 73.9161 24.8611 73.6962 24.3375C73.4763 23.814 73.1541 23.3398 72.7485 22.9428C72.343 22.5459 71.8623 22.234 71.3348 22.0258C70.8072 21.8175 70.2434 21.7172 69.6765 21.7304ZM69.6765 28.5676C68.9944 28.5676 68.3402 28.2961 67.8578 27.813C67.3755 27.3298 67.1045 26.6746 67.1045 25.9913C67.1045 25.308 67.3755 24.6526 67.8578 24.1694C68.3402 23.6862 68.9944 23.4148 69.6765 23.4148C70.3587 23.4148 71.0129 23.6862 71.4952 24.1694C71.9776 24.6526 72.2486 25.308 72.2486 25.9913C72.2486 26.6746 71.9776 27.3298 71.4952 27.813C71.0129 28.2961 70.3587 28.5676 69.6765 28.5676ZM60.2457 21.7304C59.4089 21.7499 58.5964 22.0162 57.91 22.4961C57.2236 22.976 56.6938 23.6481 56.387 24.4282C56.0801 25.2083 56.0099 26.0616 56.185 26.8815C56.3601 27.7015 56.7729 28.4515 57.3715 29.0375C57.9702 29.6235 58.7281 30.0196 59.5505 30.1761C60.3728 30.3327 61.2229 30.2427 61.9945 29.9175C62.766 29.5923 63.4246 29.0462 63.8878 28.3478C64.351 27.6494 64.5982 26.8297 64.5984 25.9913C64.6031 25.422 64.493 24.8575 64.2747 24.3319C64.0563 23.8063 63.7343 23.3303 63.3278 22.9324C62.9213 22.5345 62.4388 22.2228 61.9092 22.0163C61.3796 21.8097 60.8138 21.7126 60.2457 21.7304ZM60.2457 28.5676C59.5635 28.5676 58.9093 28.2961 58.427 27.813C57.9446 27.3298 57.6736 26.6746 57.6736 25.9913C57.6736 25.308 57.9446 24.6526 58.427 24.1694C58.9093 23.6862 59.5635 23.4148 60.2457 23.4148C60.9278 23.4148 61.582 23.6862 62.0644 24.1694C62.5468 24.6526 62.8177 25.308 62.8177 25.9913C62.8177 26.6746 62.5468 27.3298 62.0644 27.813C61.582 28.2961 60.9278 28.5676 60.2457 28.5676ZM48.9023 23.0515V24.8353H53.3209C53.2608 25.6859 52.9117 26.4902 52.3317 27.1144C51.8964 27.5418 51.3808 27.8785 50.8149 28.1053C50.2489 28.332 49.6437 28.4443 49.0342 28.4355C48.2475 28.4377 47.4722 28.2468 46.7762 27.8793C46.0802 27.5118 45.4847 26.9789 45.0419 26.3275C44.599 25.6762 44.3223 24.9261 44.2359 24.1428C44.1495 23.3595 44.256 22.5669 44.5462 21.8344C44.8364 21.1019 45.3014 20.4518 45.9005 19.941C46.4996 19.4302 47.2145 19.0741 47.9827 18.9041C48.751 18.7342 49.5491 18.7553 50.3073 18.9658C51.0654 19.1764 51.7605 19.5698 52.3317 20.1117L53.6507 18.8568C52.3983 17.6645 50.7288 17.012 49.0012 17.0399C47.2521 17.0399 45.5747 17.736 44.3379 18.9749C43.1011 20.2138 42.4062 21.894 42.4062 23.646C42.4062 25.3981 43.1011 27.0785 44.3379 28.3174C45.5747 29.5562 47.2521 30.2521 49.0012 30.2521C49.8751 30.2873 50.7466 30.1378 51.559 29.8135C52.3714 29.4891 53.1066 28.997 53.7167 28.3694C54.2491 27.8116 54.6659 27.1538 54.9432 26.4338C55.2205 25.7138 55.3528 24.9461 55.3324 24.1746C55.371 23.8013 55.371 23.4249 55.3324 23.0515H48.9023ZM95.2321 24.4387C94.9126 23.5216 94.2732 22.7509 93.4314 22.2685C92.5897 21.7861 91.6024 21.6247 90.6511 21.8137C89.6999 22.0026 88.8488 22.5292 88.2546 23.2969C87.6603 24.0645 87.3629 25.0214 87.417 25.9913C87.4126 26.5549 87.5206 27.1136 87.7349 27.6347C87.9491 28.1559 88.2653 28.629 88.6647 29.026C89.0641 29.423 89.5387 29.7359 90.0606 29.9465C90.5825 30.1571 91.1411 30.261 91.7037 30.2521C92.417 30.2654 93.1223 30.1003 93.7557 29.7715C94.389 29.4428 94.9305 28.9607 95.331 28.3694L93.8471 27.3785C93.6263 27.7484 93.3116 28.0533 92.9352 28.2621C92.5588 28.471 92.1339 28.5762 91.7037 28.5676C91.2685 28.5857 90.8379 28.4728 90.4676 28.2432C90.0972 28.0135 89.8042 27.6778 89.6263 27.2795L95.4299 24.9343L95.2321 24.4387ZM89.2966 25.8592C89.2833 25.5468 89.3317 25.2348 89.4389 24.9411C89.5461 24.6475 89.7101 24.3779 89.9214 24.1478C90.1327 23.9177 90.3873 23.7317 90.6705 23.6003C90.9537 23.4688 91.26 23.3947 91.5719 23.3819C91.898 23.3609 92.2234 23.4336 92.5097 23.5916C92.796 23.7496 93.0312 23.9862 93.1876 24.2736L89.2966 25.8592ZM84.5812 29.988H86.4937V17.4693H84.5812V29.988ZM81.4485 22.6882C81.1562 22.3794 80.803 22.1348 80.4114 21.9699C80.0197 21.805 79.5981 21.7235 79.1733 21.7304C78.0451 21.7304 76.9632 22.1792 76.1654 22.9783C75.3677 23.7774 74.9195 24.8612 74.9195 25.9913C74.9195 27.1213 75.3677 28.2051 76.1654 29.0042C76.9632 29.8033 78.0451 30.2521 79.1733 30.2521C79.6015 30.2612 80.0265 30.1774 80.4193 30.0064C80.812 29.8353 81.1631 29.5811 81.4485 29.2613V29.8889C81.4944 30.2135 81.4665 30.5442 81.3671 30.8565C81.2676 31.1689 81.0991 31.4547 80.8741 31.6928C80.6491 31.9309 80.3734 32.1151 80.0675 32.2317C79.7616 32.3483 79.4334 32.3942 79.1073 32.3661C78.6386 32.3613 78.1818 32.2176 77.7945 31.9531C77.4072 31.6885 77.1067 31.315 76.931 30.8797L75.2822 31.5404C75.6012 32.2903 76.1347 32.9288 76.8154 33.3756C77.4961 33.8223 78.2936 34.0573 79.1073 34.0507C79.7041 34.1042 80.3053 34.0201 80.8646 33.8048C81.4239 33.5895 81.9265 33.2487 82.334 32.8087C82.7415 32.3686 83.0429 31.841 83.2152 31.2662C83.3875 30.6914 83.4262 30.0846 83.3281 29.4925V21.8625H81.5145L81.4485 22.6882ZM79.2722 28.5676C78.5901 28.5676 77.9359 28.2961 77.4535 27.813C76.9712 27.3298 76.7002 26.6746 76.7002 25.9913C76.7002 25.308 76.9712 24.6526 77.4535 24.1694C77.9359 23.6862 78.5901 23.4148 79.2722 23.4148C79.9544 23.4148 80.6086 23.6862 81.0909 24.1694C81.5733 24.6526 81.8443 25.308 81.8443 25.9913C81.8443 26.6746 81.5733 27.3298 81.0909 27.813C80.6086 28.2961 79.9544 28.5676 79.2722 28.5676ZM104.168 17.4693H99.6177V29.988H101.497V25.2316H104.168C104.707 25.2815 105.25 25.2181 105.764 25.0458C106.277 24.8734 106.748 24.5957 107.148 24.2305C107.548 23.8652 107.867 23.4204 108.086 22.9245C108.304 22.4286 108.417 21.8924 108.417 21.3504C108.417 20.8083 108.304 20.2724 108.086 19.7765C107.867 19.2806 107.548 18.8357 107.148 18.4705C106.748 18.1052 106.277 17.8276 105.764 17.6552C105.25 17.4828 104.707 17.4195 104.168 17.4693ZM104.168 23.514H101.431V19.2201H104.168C104.45 19.2201 104.728 19.2755 104.988 19.3833C105.249 19.4912 105.485 19.6495 105.684 19.8488C105.883 20.0482 106.041 20.2849 106.148 20.5454C106.256 20.8059 106.312 21.085 106.312 21.3669C106.312 21.6489 106.256 21.9282 106.148 22.1886C106.041 22.4491 105.883 22.6858 105.684 22.8852C105.485 23.0845 105.249 23.2426 104.988 23.3505C104.728 23.4584 104.45 23.514 104.168 23.514ZM115.94 21.6973C115.267 21.6748 114.6 21.8424 114.017 22.1812C113.434 22.5199 112.958 23.016 112.643 23.613L114.325 24.3067C114.5 24.0058 114.758 23.7618 115.068 23.6037C115.377 23.4456 115.726 23.38 116.072 23.4148C117.061 23.4148 118.084 23.9764 118.084 25.0004C117.472 24.6872 116.792 24.5284 116.105 24.5379C114.259 24.5379 112.412 25.4957 112.412 27.3454C112.436 27.7471 112.542 28.1398 112.723 28.4988C112.905 28.8578 113.158 29.1756 113.467 29.4326C113.776 29.6896 114.135 29.8803 114.521 29.9929C114.906 30.1055 115.311 30.1375 115.71 30.087C116.188 30.1183 116.666 30.0216 117.095 29.8068C117.523 29.5921 117.888 29.267 118.15 28.8649V29.8227H119.996V25.0335C119.98 24.5331 119.857 24.0419 119.635 23.5932C119.413 23.1446 119.098 22.7488 118.71 22.4326C118.323 22.1164 117.872 21.8873 117.388 21.7604C116.905 21.6336 116.4 21.6121 115.907 21.6973H115.94ZM115.71 28.5676C115.083 28.5676 114.226 28.2705 114.226 27.5108C114.226 26.751 115.314 26.1564 116.237 26.1564C116.847 26.1443 117.45 26.2923 117.985 26.5858C117.912 27.1431 117.636 27.6538 117.21 28.0196C116.784 28.3854 116.238 28.5805 115.677 28.5676H115.71ZM126.525 21.9614L124.349 27.3785L122.074 21.9614H120.029L123.327 29.5256L121.381 33.7205H123.393L128.636 21.9614H126.525ZM109.345 29.955H111.258V17.4363H109.345V29.955Z" fill="white"/>
<path d="M10.7836 7.53467C10.4507 7.92968 10.2851 8.43954 10.322 8.95517V31.0524C10.3027 31.3028 10.3336 31.5546 10.4129 31.7929C10.4921 32.0311 10.6182 32.2511 10.7836 32.4398L23.446 20.0864V19.7891L10.7836 7.46875V7.53467Z" fill="url(#paint0_linear_225_2698)"/>
<path d="M27.6348 24.2736L23.4141 20.1447V19.8476L27.6348 15.7188L32.647 18.5263C34.065 19.286 34.065 20.6072 32.647 21.3999L27.6348 24.1746V24.2736Z" fill="url(#paint1_linear_225_2698)"/>
<path d="M27.7304 24.2124L23.4106 19.9844L10.7812 32.437C11.0775 32.6841 11.4509 32.8194 11.8365 32.8194C12.222 32.8194 12.5954 32.6841 12.8916 32.437L27.7304 24.2124Z" fill="url(#paint2_linear_225_2698)"/>
<path d="M27.7316 15.7593L12.794 7.46858C12.4977 7.2214 12.1243 7.08594 11.7388 7.08594C11.3532 7.08594 10.9799 7.2214 10.6836 7.46858L23.4119 19.921L27.7316 15.7593Z" fill="url(#paint3_linear_225_2698)"/>
</g>
<defs>
<linearGradient id="paint0_linear_225_2698" x1="22.16" y1="31.3829" x2="5.41279" y2="14.2352" gradientUnits="userSpaceOnUse">
<stop stop-color="#4695D1"/>
<stop offset="0.01" stop-color="#4596D2"/>
<stop offset="0.26" stop-color="#3EB7EA"/>
<stop offset="0.51" stop-color="#4BC0ED"/>
<stop offset="0.76" stop-color="#5BC2E5"/>
<stop offset="1" stop-color="#60C3E4"/>
</linearGradient>
<linearGradient id="paint1_linear_225_2698" x1="34.5926" y1="19.9796" x2="9.86136" y2="19.9796" gradientUnits="userSpaceOnUse">
<stop stop-color="#FFDF10"/>
<stop offset="0.41" stop-color="#FABB13"/>
<stop offset="0.78" stop-color="#F6A31A"/>
<stop offset="1" stop-color="#F5991D"/>
</linearGradient>
<linearGradient id="paint2_linear_225_2698" x1="16.9146" y1="25.9629" x2="-5.84426" y2="2.71472" gradientUnits="userSpaceOnUse">
<stop stop-color="#E83F4A"/>
<stop offset="1" stop-color="#C30C62"/>
</linearGradient>
<linearGradient id="paint3_linear_225_2698" x1="-0.560847" y1="31.9441" x2="9.57993" y2="21.5565" gradientUnits="userSpaceOnUse">
<stop stop-color="#309F72"/>
<stop offset="0.07" stop-color="#2BA671"/>
<stop offset="0.48" stop-color="#4FB270"/>
<stop offset="0.8" stop-color="#5FB469"/>
<stop offset="1" stop-color="#64B664"/>
</linearGradient>
<clipPath id="clip0_225_2698">
<rect width="138" height="40" fill="white"/>
</clipPath>
</defs>
</svg>
