<svg width="267" height="34" viewBox="0 0 267 34" fill="none" xmlns="http://www.w3.org/2000/svg">
<path d="M29.5222 3.0494L0 32.777H4.84587L34.3681 3.0494H29.5222Z" fill="#76BC21"/>
<path d="M35.6399 3.04945L6.11768 32.777H8.84952L38.37 3.04945H35.6399Z" fill="#76BC21"/>
<path d="M26.521 18.0548L22.5 22.1189H42.6532V18.0548H26.521Z" fill="#F8AF07"/>
<path d="M66.4219 21.118C66.4703 21.0956 66.522 21.0697 66.579 21.0541C69.2176 20.3604 71.2057 18.8228 72.5621 16.462C73.3611 15.071 73.7926 13.5782 73.7581 11.975C73.7132 9.79715 72.9176 7.89194 71.5388 6.22487C70.4999 4.96853 69.0968 3.95725 67.5333 3.42227C65.7282 2.80273 63.9006 3.04779 62.0334 3.04779C63.0084 3.94172 63.823 4.98061 64.4529 6.12305C64.5219 6.15929 64.5927 6.18863 64.6582 6.19899C65.811 6.36811 66.8844 6.74087 67.7905 7.48466C69.3919 8.79967 70.0546 10.5047 69.9166 12.5704C69.7474 15.1176 67.7456 17.8132 64.572 17.9996C64.5115 18.003 64.3459 17.9996 64.3459 17.9996C64.3459 17.9996 64.2648 18.1653 64.2234 18.2188C63.6401 19.1869 62.9256 20.0636 62.1041 20.8281C62.0886 20.8436 62.0714 20.8591 62.0558 20.8747C62.0075 20.9195 61.9575 20.9627 61.9091 21.0058C61.8315 21.0749 61.7573 21.1456 61.6744 21.2146L73.1541 32.7754H77.9999L66.4219 21.1163V21.118Z" fill="#007934"/>
<path d="M60.8756 21.8307C60.3614 22.1966 59.8195 22.5245 59.25 22.8075L69.1488 32.7771H71.8807L60.955 21.7738C60.9291 21.7928 60.9015 21.8117 60.8756 21.8307Z" fill="#007934"/>
<path d="M54.0605 24.2709V32.677H57.814V23.408C56.6388 23.8101 55.3652 24.0344 54.0605 24.0483C54.0605 24.1225 54.0605 24.2709 54.0605 24.2709Z" fill="#007934"/>
<path d="M52.157 15.4869C52.157 15.4869 52.1691 15.4869 52.1743 15.4887C52.8491 15.5801 53.5376 15.4887 54.1779 15.2091C54.2383 15.1832 54.2935 15.1521 54.3522 15.1228L42.36 3.04953H39.6282L51.9465 15.4541C52.0155 15.4679 52.0863 15.4783 52.1553 15.4887L52.157 15.4869Z" fill="#007934"/>
<path d="M45.2421 18.4983C45.2387 18.5794 45.2386 18.6692 45.2386 18.7814C45.2386 23.3149 45.2421 18.4983 45.2421 18.4983Z" fill="#007934"/>
<path d="M60.8583 17.972C62.6945 15.8287 63.5435 12.9052 62.8739 10.1354C62.3424 7.93685 60.9843 5.91428 59.1274 4.59236C56.9184 3.01677 54.5697 2.98052 51.9604 3.03747C51.6739 3.04438 51.3892 3.04955 51.1027 3.04955H43.632C43.632 3.04955 55.1202 14.6189 55.1219 14.6189C55.153 14.65 55.6517 14.0598 55.6931 14.0028C55.8588 13.7767 55.9951 13.53 56.1125 13.2763C56.4041 12.6429 56.6354 11.8491 56.4801 11.1519L51.6929 6.28531C53.0476 6.20248 54.3764 6.08685 55.6535 6.61493C57.8572 7.52612 59.3275 9.74887 59.2654 12.1494C59.205 14.5292 57.431 16.871 55.1202 17.5112C54.1158 17.7891 53.0838 17.9668 52.0449 18.041C51.0285 18.1153 50.0103 18.0583 48.9956 18.06L45.2421 18.0445V32.677H48.9956C48.9956 32.677 49.0042 30.9582 48.9956 30.3335C48.9956 30.3335 48.9904 29.4499 48.9886 29.7208C48.9886 29.1807 48.9938 28.6405 48.9956 28.1004C49.0042 26.0554 49.0266 21.3942 49.0266 21.3942C49.0266 21.3942 53.2322 21.3821 53.9967 21.3303C56.625 21.1577 59.136 19.9825 60.8566 17.9737L60.8583 17.972Z" fill="#007934"/>
<path d="M42.7276 27.3582H17.1556L11.8938 32.6752H42.7276V27.3582Z" fill="#F8AF07"/>
<path d="M43.173 9.59177H34.7358L31.7175 12.6429H46.1913L43.173 9.59177Z" fill="#F8AF07"/>
<path d="M105.497 19.5273V33.0085H102V2.96918H108.316C110.524 2.96918 112.149 3.08543 113.194 3.31792C114.236 3.55042 115.143 3.93549 115.911 4.46588C116.873 5.14884 117.624 6.08609 118.163 7.27764C118.705 8.46918 118.975 9.78787 118.975 11.2373C118.975 12.6868 118.705 14.0091 118.163 15.1971C117.62 16.3886 116.87 17.3259 115.911 18.0088C115.143 18.5574 114.243 18.9461 113.205 19.1786C112.17 19.4111 110.542 19.5273 108.32 19.5273H105.501H105.497ZM105.497 16.2832H107.307C110.382 16.2832 112.447 15.9236 113.511 15.2043C114.575 14.485 115.106 13.2317 115.106 11.4371C115.106 9.52268 114.56 8.17493 113.471 7.39388C112.382 6.61284 110.327 6.22413 107.307 6.22413H105.497V16.2796V16.2832Z" fill="white"/>
<path d="M122.37 33.0086V14.2345H125.229V18.1325C126.093 16.505 127.011 15.3425 127.987 14.645C128.96 13.9475 130.147 13.5988 131.546 13.5988C131.928 13.5988 132.3 13.6278 132.657 13.6896C133.014 13.7513 133.371 13.8422 133.728 13.9657L132.657 16.861C132.285 16.7375 131.936 16.6467 131.608 16.5849C131.28 16.5231 130.963 16.4941 130.661 16.4941C128.96 16.4941 127.685 17.108 126.832 18.3286C125.98 19.5529 125.557 21.3947 125.557 23.8577V33.0086H122.366H122.37Z" fill="white"/>
<path d="M135.6 23.6724C135.6 22.292 135.855 20.9878 136.362 19.7636C136.868 18.5393 137.611 17.4495 138.584 16.4905C139.556 15.5314 140.66 14.8049 141.895 14.3035C143.13 13.8022 144.445 13.5552 145.847 13.5552C147.25 13.5552 148.517 13.8095 149.745 14.3144C150.973 14.8194 152.087 15.5605 153.089 16.5304C154.062 17.4749 154.805 18.5575 155.311 19.7817C155.817 21.006 156.072 22.3029 156.072 23.6688C156.072 25.0347 155.817 26.328 155.311 27.5377C154.805 28.7474 154.062 29.8263 153.089 30.7708C152.087 31.7553 150.965 32.5073 149.723 33.0268C148.481 33.5463 147.188 33.8078 145.844 33.8078C144.499 33.8078 143.144 33.5499 141.902 33.0377C140.66 32.5255 139.553 31.788 138.58 30.8326C137.607 29.8481 136.864 28.7547 136.358 27.5486C135.852 26.3461 135.597 25.0529 135.597 23.6688L135.6 23.6724ZM139.017 23.6724C139.017 25.6559 139.684 27.3342 141.013 28.7111C142.343 30.0842 143.957 30.7745 145.847 30.7745C147.738 30.7745 149.326 30.0879 150.641 28.7111C151.956 27.3379 152.615 25.6559 152.615 23.6724C152.615 21.6889 151.956 20.0106 150.641 18.6338C149.322 17.2606 147.727 16.5704 145.847 16.5704C143.968 16.5704 142.325 17.257 141.002 18.6338C139.68 20.007 139.017 21.6889 139.017 23.6724Z" fill="white"/>
<path d="M161.937 33.0084V16.879H158.316V14.2307H161.937V8.79243C161.937 5.67552 162.331 3.56488 163.121 2.46052C163.912 1.35979 165.325 0.807617 167.369 0.807617C167.875 0.807617 168.359 0.843944 168.818 0.909334C169.277 0.978357 169.722 1.08734 170.144 1.23991V4.56389C169.733 4.33139 169.317 4.16065 168.898 4.05167C168.48 3.94269 168.05 3.8882 167.613 3.8882C166.665 3.8882 166.013 4.18972 165.656 4.79276C165.299 5.3958 165.121 6.8707 165.121 9.22472V14.2307H170.141V16.879H165.201V33.0084H161.93H161.937Z" fill="white"/>
<path d="M172.68 5.18159C172.68 4.53859 172.909 3.99004 173.368 3.52868C173.827 3.06732 174.388 2.84209 175.044 2.84209C175.699 2.84209 176.242 3.07458 176.701 3.53958C177.16 4.00457 177.39 4.56402 177.39 5.22155C177.39 5.87908 177.164 6.41309 176.712 6.86356C176.26 7.31402 175.703 7.53925 175.044 7.53925C174.384 7.53925 173.827 7.31402 173.368 6.86356C172.909 6.41309 172.68 5.85001 172.68 5.18159ZM173.441 33.0085V14.2344H176.69V33.0085H173.441Z" fill="white"/>
<path d="M183.975 16.8792H180.519V14.2309H183.975V6.66025H187.268V14.2309H190.725V16.8792H187.268V33.0087H183.975V16.8792Z" fill="white"/>
<path d="M207.144 33.0085V2.96918H214.221C216.236 2.96918 217.715 3.08179 218.654 3.30703C219.594 3.53226 220.421 3.92096 221.135 4.46588C222.028 5.16337 222.72 6.09699 223.215 7.26674C223.711 8.43649 223.955 9.73338 223.955 11.1538C223.955 13.6168 223.266 15.4877 221.886 16.7664C220.509 18.0451 218.487 18.6845 215.828 18.6845H215.19L226.694 33.0085H222.148L211.161 18.6845H210.648V33.0085H207.151H207.144ZM210.641 5.98437V16.0399H213.376C216.174 16.0399 218.046 15.6802 218.993 14.9609C219.94 14.2416 220.414 12.9883 220.414 11.1938C220.414 9.26476 219.926 7.91337 218.953 7.13959C217.981 6.36581 216.123 5.98074 213.376 5.98074H210.641V5.98437Z" fill="white"/>
<path d="M246.896 14.2306V33.0047H243.771V29.5972C243.017 30.9668 242.051 32.0094 240.878 32.725C239.705 33.4407 238.39 33.8039 236.937 33.8039C234.234 33.8039 232.056 32.8776 230.405 31.0249C228.752 29.1722 227.925 26.7201 227.925 23.6685C227.925 20.617 228.726 18.1177 230.333 16.2904C231.935 14.4631 234.085 13.5513 236.773 13.5513C238.35 13.5513 239.72 13.9037 240.878 14.6084C242.037 15.3132 242.973 16.3631 243.687 17.758V14.227H246.896V14.2306ZM243.767 23.7921C243.767 21.6705 243.188 19.9668 242.029 18.6735C240.871 17.3802 239.359 16.7336 237.494 16.7336C235.629 16.7336 234.052 17.3294 232.966 18.5209C231.884 19.7125 231.342 21.3726 231.342 23.5087C231.342 25.7792 231.888 27.5302 232.977 28.7617C234.066 29.9932 235.615 30.6071 237.618 30.6071C239.622 30.6071 241.046 30.0077 242.135 28.8125C243.224 27.6173 243.771 25.9426 243.771 23.7957L243.767 23.7921Z" fill="white"/>
<path d="M252.738 5.18159C252.738 4.53859 252.968 3.99004 253.427 3.52868C253.886 3.07095 254.447 2.84209 255.102 2.84209C255.758 2.84209 256.301 3.07458 256.76 3.53958C257.219 4.00457 257.448 4.56402 257.448 5.22155C257.448 5.87908 257.222 6.41309 256.771 6.86356C256.319 7.31402 255.762 7.53925 255.102 7.53925C254.443 7.53925 253.886 7.31402 253.427 6.86356C252.968 6.41309 252.738 5.85001 252.738 5.18159ZM253.5 33.0085V14.2344H256.749V33.0085H253.5Z" fill="white"/>
<path d="M263.707 33.0083V1.20351H267V33.0083H263.707Z" fill="white"/>
</svg>
