<svg width="0" height="0" class="hidden">
    <symbol version="1.1" xmlns="http://www.w3.org/2000/svg" viewBox="0 0 476 448" id="arrow-right">
        <path fill="currentColor" d="M28 196c-15.464 0-28 12.536-28 28s12.536 28 28 28v-56zM467.799 243.799c10.934-10.935 10.934-28.663 0-39.598l-178.192-178.191c-10.934-10.935-28.662-10.935-39.597 0s-10.934 28.663 0 39.598l158.392 158.392-158.392 158.393c-10.934 10.934-10.934 28.661 0 39.598 10.935 10.934 28.663 10.934 39.597 0l178.192-178.192zM28 224v28h420v-56h-420v28z"></path>
    </symbol>
</svg>