<svg width="0" height="0" class="hidden">
    <symbol version="1.1" xmlns="http://www.w3.org/2000/svg" viewBox="0 0 476 448" id="arrow-right">
        <path fill="currentColor" d="M28 196c-15.464 0-28 12.536-28 28s12.536 28 28 28v-56zM467.799 243.799c10.934-10.935 10.934-28.663 0-39.598l-178.192-178.191c-10.934-10.935-28.662-10.935-39.597 0s-10.934 28.663 0 39.598l158.392 158.392-158.392 158.393c-10.934 10.934-10.934 28.661 0 39.598 10.935 10.934 28.663 10.934 39.597 0l178.192-178.192zM28 224v28h420v-56h-420v28z"></path>
    </symbol>
    <symbol version="1.1" xmlns="http://www.w3.org/2000/svg" viewBox="0 0 246 448" id="phone-call">
        <path fill="currentColor" d="M176.325 11.329l-67.171 21.753c-7.296 2.368-11.871 9.66-10.876 17.239l10.856 79.872c0.95 6.989 6.45 12.561 13.437 13.54 30.135 4.429 54.351 28.97 50.938 59.237-2.439 21.632-7.758 42.984-15.857 63.359-11.253 28.307-44.189 38.528-72.857 28.226-6.681-2.394-14.102-0.108-18.233 5.609l-47.223 65.325c-4.473 6.306-3.875 14.894 1.443 20.42l48.987 50.848c5.092 5.278 13.191 6.438 19.603 2.594 145.308-87.098 192.698-275.536 105.465-421.071-3.809-6.355-11.477-9.24-18.511-6.951z"></path>
    </symbol>
</svg>