<svg width="60" height="60" fill="none" xmlns="http://www.w3.org/2000/svg"><g clip-path="url(#a)"><path d="M59.606 24.079H.395v26.645a8.882 8.882 0 0 0 8.881 8.881h41.449a8.882 8.882 0 0 0 8.881-8.881V24.079Zm-44.408-5.921a2.96 2.96 0 0 1-2.96-2.96V3.354a2.96 2.96 0 0 1 5.92 0v11.842a2.96 2.96 0 0 1-2.96 2.96Zm29.605 0a2.96 2.96 0 0 1-2.96-2.96V3.354a2.96 2.96 0 0 1 5.92 0v11.842a2.96 2.96 0 0 1-2.96 2.96Z" fill="#9AD48B"/><path d="M50.723 6.316h-2.96v8.882a2.96 2.96 0 0 1-5.922 0V6.316H18.157v8.882a2.96 2.96 0 0 1-5.92 0V6.316H9.273a8.882 8.882 0 0 0-8.881 8.882v8.882h59.212v-8.882a8.882 8.882 0 0 0-8.882-8.882ZM23.672 43.175h-3.1v-4.286h3.1v-8.826L30 30c1.14 0 2.194.116 3.164.35a9.43 9.43 0 0 1 2.72 1.047 4.837 4.837 0 0 1 1.962 2c.485.868.727 1.883.727 3.047 0 1.207-.242 2.265-.727 3.175a5.435 5.435 0 0 1-1.993 2.095 9.097 9.097 0 0 1-2.72 1.111 13.4 13.4 0 0 1-3.133.35h-1.581v1.333h5.061v4.286h-5.061v3.492h-4.746v-3.492h-3.1v-4.286h3.1v-1.333Zm6.485-8.89h-1.74v4.604h1.52c2.488 0 3.732-.783 3.732-2.35 0-.91-.327-1.513-.98-1.809-.633-.296-1.477-.444-2.532-.444Z" fill="#4F9D3A"/></g><defs><clipPath id="a"><path fill="#fff" d="M0 0h60v60H0z"/></clipPath></defs></svg>