<svg width="60" height="60" fill="none" xmlns="http://www.w3.org/2000/svg"><g clip-path="url(#a)"><path d="M4.688.938a3.75 3.75 0 0 0-3.75 3.75V26.25a.937.937 0 0 0 .937.938h9.375V.938H4.687Z" fill="#FFAF82"/><path d="M41.25.938H3.75a3.75 3.75 0 0 1 3.75 3.75v53.437a.937.937 0 0 0 .938.938H45V4.686a3.75 3.75 0 0 0-3.75-3.75Z" fill="#FCC2A1"/><path d="M39.375 14.063h-26.25a.938.938 0 0 1 0-1.876h26.25a.938.938 0 0 1 0 1.876Zm0 5.625h-26.25a.938.938 0 0 1 0-1.875h26.25a.938.938 0 0 1 0 1.875Zm-4.687 5.625H13.125a.938.938 0 0 1 0-1.875h21.563a.938.938 0 0 1 0 1.875Zm-5.625 5.625H13.124a.938.938 0 0 1 0-1.875h15.938a.938.938 0 0 1 0 1.875Zm-5.625 5.625H13.124a.938.938 0 0 1 0-1.876h10.313a.938.938 0 0 1 0 1.876Zm-3.75 5.625h-6.563a.938.938 0 0 1 0-1.876h6.563a.938.938 0 0 1 0 1.876Zm0 5.625h-6.563a.938.938 0 0 1 0-1.876h6.563a.938.938 0 0 1 0 1.876Zm37.931-36.057a4.901 4.901 0 0 0-6.947 0l-27.14 27.14-1.941 7.754a.944.944 0 0 0 .244.89.943.943 0 0 0 .89.244l7.753-1.94 27.14-27.14a4.901 4.901 0 0 0 0-6.948Z" fill="#FF7528"/><path d="M57.618 11.756a4.901 4.901 0 0 0-6.947 0l-1.839 1.84 6.947 6.947 1.84-1.84a4.898 4.898 0 0 0 0-6.947ZM21.563 46.875a.944.944 0 0 0 .271.665.944.944 0 0 0 .891.244l7.753-1.94-6.947-6.947-1.94 7.753a.928.928 0 0 0-.029.225Z" fill="#FF7528"/><path d="M37.5 50.625a.938.938 0 0 0-.938.938v7.5L45 50.624h-7.5Z" fill="#FCC2A1"/><path d="m48.229 48.429 3.528-3.529a1.072 1.072 0 0 0-1.515-1.515l-3.528 3.529-3.529-3.529A1.071 1.071 0 0 0 41.67 44.9l3.53 3.53-3.529 3.528a1.071 1.071 0 0 0 1.515 1.515l3.529-3.528 3.528 3.528a1.071 1.071 0 0 0 1.515-1.515L48.23 48.43Z" fill="#FCC2A1"/><path d="M54.29 40.853a10.714 10.714 0 1 0-15.152 15.152A10.714 10.714 0 0 0 54.29 40.853Zm-2.532 11.105a1.07 1.07 0 0 1 .007 1.521 1.072 1.072 0 0 1-1.522-.007l-3.529-3.528-3.528 3.528a1.071 1.071 0 0 1-1.515-1.514l3.528-3.529-3.528-3.528a1.072 1.072 0 0 1 1.515-1.515l3.528 3.528 3.529-3.528a1.071 1.071 0 0 1 1.515 1.515l-3.529 3.528 3.529 3.529Z" fill="#FF7528"/></g><defs><clipPath id="a"><path fill="#fff" d="M0 0h60v60H0z"/></clipPath></defs></svg>