<svg width="356" height="60" fill="none" xmlns="http://www.w3.org/2000/svg"><path d="M48.129.08c6.501 0 11.755 5.25 11.755 11.747v5.059c0 6.497-5.254 11.747-11.755 11.747H-.035V11.826C-.035 5.33 5.218.08 11.72.08h36.409Z" fill="#fff"/><path d="M48.129 59.978c6.501 0 11.755-5.25 11.755-11.747v-5.059c0-6.496-5.254-11.746-11.755-11.746H-.035V48.23c0 6.497 5.253 11.747 11.755 11.747h36.409Z" fill="#0B0"/><path d="M80.39 42.565h8.252c1.959 0 3.485-.485 4.542-1.473 1.075-.97 1.613-2.27 1.613-3.898 0-1.629-.538-2.91-1.613-3.916-1.075-1.004-2.583-1.507-4.542-1.507h-8.253v10.794Zm0-15.974h6.518c1.647 0 2.965-.468 3.953-1.42.97-.954 1.473-2.15 1.473-3.622 0-1.473-.485-2.599-1.473-3.569-.988-.97-2.306-1.473-3.953-1.473H80.39v10.101-.017Zm-6.104 21.605V10.859h13.038c3.294 0 5.964.988 7.993 2.946 2.028 1.957 3.051 4.4 3.051 7.311 0 3.084-1.144 5.51-3.415 7.26 3.97 1.714 5.946 4.747 5.946 9.095 0 3.223-1.144 5.822-3.45 7.78-2.289 1.957-5.253 2.945-8.86 2.945H74.287Zm41.921-21.779c-1.543 0-2.999.468-4.369 1.386-1.37.935-2.236 2.339-2.635 4.228h13.991c-.277-1.82-1.058-3.223-2.34-4.176-1.283-.97-2.826-1.438-4.664-1.438h.017Zm.468 22.176c-3.762 0-6.935-1.299-9.553-3.898-2.618-2.599-3.918-5.821-3.918-9.667s1.283-7.086 3.831-9.668c2.549-2.599 5.739-3.898 9.519-3.898 3.78 0 7.091 1.369 9.466 4.106 2.375 2.737 3.468 6.29 3.26 10.672h-20.303c.208 2.097 1.058 3.795 2.549 5.077 1.491 1.282 3.207 1.923 5.132 1.923 2.913 0 5.219-1.074 6.935-3.205l4.161 3.569c-2.635 3.326-6.328 4.99-11.096 4.99h.017Zm16.315-.417V21.91h5.791v2.79c1.681-2.062 3.953-3.101 6.779-3.101.919 0 1.647.086 2.202.26v5.994c-.798-.347-1.821-.52-3.052-.52-2.739 0-4.716 1.092-5.947 3.258v17.602h-5.79l.017-.017Zm28.296-21.759c-1.543 0-3 .468-4.369 1.386-1.37.935-2.237 2.339-2.636 4.228h13.992c-.278-1.82-1.058-3.223-2.341-4.176-1.283-.97-2.826-1.438-4.646-1.438Zm.468 22.176c-3.763 0-6.935-1.299-9.554-3.898-2.618-2.599-3.918-5.821-3.918-9.667s1.283-7.086 3.832-9.668c2.549-2.581 5.739-3.898 9.518-3.898 3.78 0 7.091 1.369 9.467 4.106 2.375 2.737 3.467 6.29 3.259 10.672h-20.302c.208 2.097 1.057 3.795 2.548 5.077s3.208 1.923 5.132 1.923c2.913 0 5.219-1.074 6.935-3.205l4.161 3.569c-2.635 3.326-6.328 4.99-11.096 4.99h.018Zm16.297-.415V10.86h5.791v23.026l10.524-11.972h7.091l-10.992 12.388 12.31 13.877h-7.317l-11.616-13.132V48.18h-5.791Z" fill="#fff"/><path d="M213.922 26.417c-1.543 0-3 .468-4.369 1.386-1.37.935-2.237 2.339-2.635 4.228h13.991c-.277-1.82-1.058-3.223-2.341-4.176-1.283-.97-2.826-1.438-4.663-1.438h.017Zm.468 22.176c-3.762 0-6.935-1.299-9.553-3.898-2.618-2.599-3.918-5.821-3.918-9.667s1.283-7.086 3.831-9.668c2.549-2.599 5.739-3.898 9.519-3.898 3.779 0 7.091 1.369 9.466 4.106 2.375 2.737 3.467 6.29 3.26 10.672h-20.303c.208 2.097 1.058 3.795 2.549 5.077 1.491 1.282 3.207 1.923 5.132 1.923 2.912 0 5.219-1.074 6.935-3.205l4.161 3.569c-2.636 3.326-6.328 4.99-11.096 4.99h.017Zm33.263-6.013h8.252c1.96 0 3.485-.486 4.543-1.473 1.075-.97 1.612-2.27 1.612-3.898 0-1.629-.537-2.911-1.612-3.916-1.075-1.005-2.583-1.49-4.543-1.49h-8.252V42.58Zm0-15.974h6.52c1.645 0 2.965-.468 3.952-1.421.97-.953 1.473-2.148 1.473-3.621 0-1.473-.485-2.599-1.473-3.57-.97-.97-2.307-1.472-3.952-1.472h-6.52v10.1-.017ZM241.55 48.21V10.873h13.038c3.295 0 5.965.988 7.992 2.945 2.028 1.958 3.053 4.401 3.053 7.312 0 3.084-1.145 5.51-3.415 7.259 3.952 1.715 5.945 4.747 5.945 9.096 0 3.223-1.145 5.821-3.45 7.779-2.288 1.958-5.253 2.946-8.86 2.946H241.55Zm42.651-4.953c2.947 0 5.22-1.16 6.832-3.465v-9.408c-1.577-2.356-3.85-3.517-6.832-3.517-2.27 0-4.16.78-5.635 2.34-1.473 1.558-2.2 3.516-2.2 5.855 0 2.339.745 4.297 2.2 5.856 1.475 1.56 3.347 2.339 5.635 2.339Zm6.832 4.955v-2.2c-1.96 1.75-4.44 2.633-7.422 2.633-3.778 0-6.933-1.317-9.413-3.95-2.497-2.633-3.727-5.839-3.727-9.615 0-3.777 1.247-6.983 3.727-9.616 2.495-2.634 5.635-3.95 9.413-3.95 2.947 0 5.41.9 7.422 2.685v-2.252h5.79V48.23h-5.79v-.018Zm11.32-.019V21.91h5.79v2.477c1.717-1.923 4.197-2.893 7.42-2.893 3.225 0 5.81 1.022 7.735 3.067 1.922 2.044 2.895 4.764 2.895 8.126v15.506H320.4V33.362c0-1.958-.52-3.534-1.542-4.73-1.04-1.195-2.513-1.784-4.438-1.784-3.017 0-5.097 1.438-6.26 4.314v17.03h-5.807Zm29.021 0V10.874h5.793V33.9l10.522-11.99h7.09l-10.99 12.405 12.308 13.878h-7.315L337.167 35.06v13.133h-5.793Z" fill="#fff"/></svg>