<svg width="100" height="100" fill="none" xmlns="http://www.w3.org/2000/svg"><path d="M68.75 96.875h-37.5c-5.17 0-9.375-4.205-9.375-9.375v-75c0-5.17 4.205-9.375 9.375-9.375h37.5c5.17 0 9.375 4.205 9.375 9.375v75c0 5.17-4.205 9.375-9.375 9.375Z" fill="#1A3668"/><g filter="url(#a)"><path d="M31.25 90.625a3.128 3.128 0 0 1-3.125-3.125v-75c0-1.723 1.4-3.125 3.125-3.125h37.5a3.128 3.128 0 0 1 3.125 3.125v75c0 1.723-1.4 3.125-3.125 3.125h-37.5Z" fill="#fff" fill-opacity=".5"/></g><path d="M53.125 87.5h-6.25a3.124 3.124 0 1 1 0-6.25h6.25a3.124 3.124 0 1 1 0 6.25ZM56.25 3.125h-12.5a3.124 3.124 0 0 0-3.125 3.125v6.25a3.124 3.124 0 0 0 3.125 3.125h12.5c1.727 0 3.125-1.4 3.125-3.125V6.25a3.124 3.124 0 0 0-3.125-3.125Z" fill="#1A3668"/><g filter="url(#b)"><path d="m95.96 29.04-9.375-9.374a3.126 3.126 0 0 0-5.335 2.209h-12.5A3.124 3.124 0 0 0 65.625 25v12.5a3.124 3.124 0 0 0 3.125 3.125h12.5a3.123 3.123 0 0 0 5.335 2.21l9.375-9.376a3.124 3.124 0 0 0 0-4.419Z" fill="#1A3668" fill-opacity=".75"/></g><g filter="url(#c)"><path d="M31.25 53.126h-12.5a3.123 3.123 0 0 0-5.335-2.21l-9.374 9.376a3.124 3.124 0 0 0 0 4.418l9.374 9.375a3.124 3.124 0 0 0 5.335-2.21h12.5a3.123 3.123 0 0 0 3.125-3.124v-12.5a3.124 3.124 0 0 0-3.125-3.125Z" fill="#1A3668" fill-opacity=".5"/></g><path d="M41.956 55.233c0-.553-.448-1.008-1-1.008h-2.704a1 1 0 0 1-1-1v-4.48a1 1 0 0 1 1-1h2.704a1 1 0 0 0 1-1V35.39a1 1 0 0 1 .99-1l8.61-.086c1.728 0 3.328.176 4.8.528a14.34 14.34 0 0 1 4.128 1.584 7.326 7.326 0 0 1 2.976 3.024c.736 1.312 1.104 2.848 1.104 4.608 0 1.824-.368 3.424-1.104 4.8-.736 1.344-1.744 2.4-3.024 3.168a13.83 13.83 0 0 1-4.128 1.68c-1.472.352-3.056.528-4.752.528h-1.4c-.552 0-1 .455-1 1.008 0 .552.448 1.008 1 1.008h5.68a1 1 0 0 1 1 1v4.48a1 1 0 0 1-1 1h-5.68a1 1 0 0 0-1 1V67a1 1 0 0 1-1 1h-5.2a1 1 0 0 1-1-1v-3.28a1 1 0 0 0-1-1h-2.704a1 1 0 0 1-1-1v-4.48a1 1 0 0 1 1-1h2.704c.552 0 1-.456 1-1.008Zm9.84-14.448h-1.64a1 1 0 0 0-1 1v4.96a1 1 0 0 0 1 1h1.304c3.776 0 5.664-1.184 5.664-3.552 0-1.376-.496-2.288-1.488-2.736-.96-.448-2.24-.672-3.84-.672Z" fill="#fff" fill-opacity=".8"/><defs><filter id="a" x="18.125" y="-.625" width="63.75" height="101.25" filterUnits="userSpaceOnUse" color-interpolation-filters="sRGB"><feFlood flood-opacity="0" result="BackgroundImageFix"/><feGaussianBlur in="BackgroundImageFix" stdDeviation="5"/><feComposite in2="SourceAlpha" operator="in" result="effect1_backgroundBlur_1204_1960"/><feBlend in="SourceGraphic" in2="effect1_backgroundBlur_1204_1960" result="shape"/></filter><filter id="b" x="60.625" y="13.75" width="41.25" height="35" filterUnits="userSpaceOnUse" color-interpolation-filters="sRGB"><feFlood flood-opacity="0" result="BackgroundImageFix"/><feGaussianBlur in="BackgroundImageFix" stdDeviation="2.5"/><feComposite in2="SourceAlpha" operator="in" result="effect1_backgroundBlur_1204_1960"/><feBlend in="SourceGraphic" in2="effect1_backgroundBlur_1204_1960" result="shape"/></filter><filter id="c" x="-1.875" y="45.002" width="41.25" height="34.998" filterUnits="userSpaceOnUse" color-interpolation-filters="sRGB"><feFlood flood-opacity="0" result="BackgroundImageFix"/><feGaussianBlur in="BackgroundImageFix" stdDeviation="2.5"/><feComposite in2="SourceAlpha" operator="in" result="effect1_backgroundBlur_1204_1960"/><feBlend in="SourceGraphic" in2="effect1_backgroundBlur_1204_1960" result="shape"/></filter></defs></svg>