<svg width="94" height="94" fill="none" xmlns="http://www.w3.org/2000/svg"><path d="M78.25 22h-75a3.124 3.124 0 0 0-3.125 3.125v43.75A3.124 3.124 0 0 0 3.25 72h75c1.727 0 3.125-1.4 3.125-3.125v-43.75A3.124 3.124 0 0 0 78.25 22Z" fill="#1A3668" fill-opacity=".9"/><g filter="url(#a)"><path d="M40.75 34.5c-6.894 0-12.5 5.608-12.5 12.5s5.606 12.5 12.5 12.5 12.5-5.608 12.5-12.5-5.606-12.5-12.5-12.5Z" fill="#fff" fill-opacity=".5"/></g><path d="M18.875 56.375H15.75a3.124 3.124 0 0 1-3.125-3.125v-12.5a3.124 3.124 0 0 1 3.125-3.125h3.125a3.124 3.124 0 1 1 0 6.25v6.25a3.124 3.124 0 1 1 0 6.25Z" fill="#fff" fill-opacity=".5"/><g filter="url(#b)"><path d="M65.75 56.375h-3.125a3.124 3.124 0 1 1 0-6.25v-6.25a3.124 3.124 0 1 1 0-6.25h3.125c1.727 0 3.125 1.4 3.125 3.125v12.5a3.124 3.124 0 0 1-3.125 3.125Z" fill="#fff" fill-opacity=".5"/></g><g filter="url(#c)"><path d="M72 47c-12.06 0-21.875 9.813-21.875 21.875S59.94 90.75 72 90.75s21.875-9.813 21.875-21.875S84.061 47 72 47Z" fill="#1A3668" fill-opacity=".6"/></g><path d="M72 65.75c-.86 0-1.563-.7-1.563-1.563 0-.862.702-1.562 1.563-1.562.647 0 1.245.42 1.453 1.02a3.124 3.124 0 1 0 5.908-2.04c-.745-2.158-2.396-3.808-4.431-4.635-.412-1.245-1.548-2.157-2.93-2.157-1.38 0-2.512.906-2.927 2.142-2.86 1.163-4.885 3.961-4.885 7.233C64.188 68.495 67.69 72 72 72c.86 0 1.563.7 1.563 1.563 0 .862-.702 1.562-1.563 1.562-.647 0-1.245-.42-1.453-1.02a3.124 3.124 0 1 0-5.908 2.04c.745 2.158 2.396 3.808 4.431 4.635.412 1.245 1.548 2.157 2.93 2.157 1.38 0 2.512-.906 2.927-2.142 2.86-1.163 4.885-3.961 4.885-7.233 0-4.307-3.503-7.812-7.812-7.812Z" fill="#fff" fill-opacity=".8"/><path d="M49.402 87.54c-6.229.442-12.357-.666-17.997-3.046a3.121 3.121 0 0 0-.03-6.244H22a3.124 3.124 0 0 0-3.125 3.125v9.375a3.124 3.124 0 1 0 6.25 0v-2.338A46.455 46.455 0 0 0 47 93.875c.95 0 1.898-.034 2.847-.1a3.124 3.124 0 0 0 2.893-3.34 3.112 3.112 0 0 0-3.338-2.895ZM72 .125a3.124 3.124 0 0 0-3.124 3.125v2.338A46.454 46.454 0 0 0 47 .125c-10.592 0-20.608 3.473-28.964 10.043a3.123 3.123 0 0 0 1.935 5.582c.674 0 1.355-.218 1.929-.668C29.142 9.386 37.824 6.375 47 6.375a40.31 40.31 0 0 1 15.595 3.131 3.12 3.12 0 0 0-3.094 3.119 3.124 3.124 0 0 0 3.125 3.125H72c1.727 0 3.124-1.4 3.124-3.125V3.25A3.124 3.124 0 0 0 72.002.125Z" fill="#1A3668" fill-opacity=".9"/><defs><filter id="a" x="18.25" y="24.5" width="45" height="45" filterUnits="userSpaceOnUse" color-interpolation-filters="sRGB"><feFlood flood-opacity="0" result="BackgroundImageFix"/><feGaussianBlur in="BackgroundImageFix" stdDeviation="5"/><feComposite in2="SourceAlpha" operator="in" result="effect1_backgroundBlur_1204_1893"/><feBlend in="SourceGraphic" in2="effect1_backgroundBlur_1204_1893" result="shape"/></filter><filter id="b" x="39.5" y="17.625" width="49.375" height="58.75" filterUnits="userSpaceOnUse" color-interpolation-filters="sRGB"><feFlood flood-opacity="0" result="BackgroundImageFix"/><feGaussianBlur in="BackgroundImageFix" stdDeviation="10"/><feComposite in2="SourceAlpha" operator="in" result="effect1_backgroundBlur_1204_1893"/><feBlend in="SourceGraphic" in2="effect1_backgroundBlur_1204_1893" result="shape"/></filter><filter id="c" x="46.125" y="43" width="51.75" height="51.75" filterUnits="userSpaceOnUse" color-interpolation-filters="sRGB"><feFlood flood-opacity="0" result="BackgroundImageFix"/><feGaussianBlur in="BackgroundImageFix" stdDeviation="2"/><feComposite in2="SourceAlpha" operator="in" result="effect1_backgroundBlur_1204_1893"/><feBlend in="SourceGraphic" in2="effect1_backgroundBlur_1204_1893" result="shape"/></filter></defs></svg>