<svg width="94" height="94" fill="none" xmlns="http://www.w3.org/2000/svg"><g filter="url(#a)"><path d="M31.375.125C14.143.125.125 14.143.125 31.375s14.018 31.25 31.25 31.25 31.25-14.018 31.25-31.25S48.607.125 31.375.125Z" fill="#4F9D3A" fill-opacity=".9"/></g><g filter="url(#b)"><path d="M92.96 16.666a3.124 3.124 0 0 0-4.42 0l-.915.915v-4.956c0-6.892-5.608-12.5-12.5-12.5H65.75a3.125 3.125 0 0 0 0 6.25h9.375a6.256 6.256 0 0 1 6.25 6.25v4.956l-.915-.915a3.124 3.124 0 1 0-4.42 4.418l6.25 6.25c.61.61 1.41.916 2.21.916s1.6-.305 2.21-.916l6.25-6.25a3.124 3.124 0 0 0 0-4.418Z" fill="#4F9D3A" fill-opacity=".7"/></g><path d="M28.25 87.625h-9.375a6.256 6.256 0 0 1-6.25-6.25v-4.956l.915.916c.61.61 1.41.915 2.21.915s1.6-.305 2.21-.915a3.124 3.124 0 0 0 0-4.42l-6.25-6.25a3.124 3.124 0 0 0-4.42 0l-6.25 6.25a3.124 3.124 0 1 0 4.42 4.42l.915-.916v4.956c0 6.892 5.608 12.5 12.5 12.5h9.375a3.125 3.125 0 0 0 0-6.25Z" fill="#4F9D3A"/><g filter="url(#c)"><path d="M24.704 34.928c0-.552-.448-1.008-1-1.008H21a1 1 0 0 1-1-1v-4.48a1 1 0 0 1 1-1h2.704a1 1 0 0 0 1-1V15.086a1 1 0 0 1 .99-1l8.61-.086c1.728 0 3.328.176 4.8.528a14.34 14.34 0 0 1 4.128 1.584 7.326 7.326 0 0 1 2.976 3.024c.736 1.312 1.104 2.848 1.104 4.608 0 1.824-.368 3.424-1.104 4.8-.736 1.344-1.744 2.4-3.024 3.168a13.83 13.83 0 0 1-4.128 1.68c-1.472.352-3.056.528-4.752.528h-1.4c-.552 0-1 .456-1 1.008s.448 1.008 1 1.008h5.68a1 1 0 0 1 1 1v4.48a1 1 0 0 1-1 1h-5.68a1 1 0 0 0-1 1v3.28a1 1 0 0 1-1 1h-5.2a1 1 0 0 1-1-1v-3.28a1 1 0 0 0-1-1H21a1 1 0 0 1-1-1v-4.48a1 1 0 0 1 1-1h2.704c.552 0 1-.456 1-1.008Zm9.84-14.448h-1.64a1 1 0 0 0-1 1v4.96a1 1 0 0 0 1 1h1.304c3.776 0 5.664-1.184 5.664-3.552 0-1.376-.496-2.288-1.488-2.736-.96-.448-2.24-.672-3.84-.672Z" fill="#fff" fill-opacity=".8"/></g><g filter="url(#d)"><path d="M62.625 31.375c-17.232 0-31.25 14.018-31.25 31.25s14.018 31.25 31.25 31.25 31.25-14.018 31.25-31.25-14.018-31.25-31.25-31.25Z" fill="#4F9D3A" fill-opacity=".4"/></g><path d="M62.625 53.25a3.13 3.13 0 0 1 3.125 3.125 3.125 3.125 0 0 0 6.25 0c0-4.068-2.62-7.504-6.25-8.8V47a3.125 3.125 0 0 0-6.25 0v.575c-3.63 1.296-6.25 4.732-6.25 8.8 0 5.17 4.205 9.375 9.375 9.375a3.13 3.13 0 0 1 3.125 3.125A3.13 3.13 0 0 1 62.625 72a3.13 3.13 0 0 1-3.125-3.125 3.125 3.125 0 0 0-6.25 0c0 4.068 2.62 7.504 6.25 8.798v.577a3.125 3.125 0 0 0 6.25 0v-.575c3.63-1.296 6.25-4.732 6.25-8.8 0-5.17-4.205-9.375-9.375-9.375a3.13 3.13 0 0 1-3.125-3.125 3.13 3.13 0 0 1 3.125-3.125Z" fill="#4F9D3A"/><defs><filter id="a" x="-4.875" y="-4.875" width="72.5" height="72.5" filterUnits="userSpaceOnUse" color-interpolation-filters="sRGB"><feFlood flood-opacity="0" result="BackgroundImageFix"/><feGaussianBlur in="BackgroundImageFix" stdDeviation="2.5"/><feComposite in2="SourceAlpha" operator="in" result="effect1_backgroundBlur_1204_2177"/><feBlend in="SourceGraphic" in2="effect1_backgroundBlur_1204_2177" result="shape"/></filter><filter id="b" x="57.625" y="-4.875" width="41.25" height="38.125" filterUnits="userSpaceOnUse" color-interpolation-filters="sRGB"><feFlood flood-opacity="0" result="BackgroundImageFix"/><feGaussianBlur in="BackgroundImageFix" stdDeviation="2.5"/><feComposite in2="SourceAlpha" operator="in" result="effect1_backgroundBlur_1204_2177"/><feBlend in="SourceGraphic" in2="effect1_backgroundBlur_1204_2177" result="shape"/></filter><filter id="c" x="10" y="4" width="47.313" height="53.695" filterUnits="userSpaceOnUse" color-interpolation-filters="sRGB"><feFlood flood-opacity="0" result="BackgroundImageFix"/><feGaussianBlur in="BackgroundImageFix" stdDeviation="5"/><feComposite in2="SourceAlpha" operator="in" result="effect1_backgroundBlur_1204_2177"/><feBlend in="SourceGraphic" in2="effect1_backgroundBlur_1204_2177" result="shape"/></filter><filter id="d" x="21.375" y="21.375" width="82.5" height="82.5" filterUnits="userSpaceOnUse" color-interpolation-filters="sRGB"><feFlood flood-opacity="0" result="BackgroundImageFix"/><feGaussianBlur in="BackgroundImageFix" stdDeviation="5"/><feComposite in2="SourceAlpha" operator="in" result="effect1_backgroundBlur_1204_2177"/><feBlend in="SourceGraphic" in2="effect1_backgroundBlur_1204_2177" result="shape"/></filter></defs></svg>