<svg width="45" height="45" fill="none" xmlns="http://www.w3.org/2000/svg"><g clip-path="url(#a)"><rect width="45" height="45" rx="22.5" fill="#fff"/><g clip-path="url(#b)"><g clip-path="url(#c)"><path d="M-11.25 0h67.5v45h-67.5V0Z" fill="#EE1C25"/><path d="M25.72 9.39a2.094 2.094 0 0 0-1.117 3.134 3.387 3.387 0 0 1-1.522 4.965 2.898 2.898 0 0 0-.811 4.824 5.129 5.129 0 0 1-1.28-7.044 1.186 1.186 0 0 1-.083-.078 5.241 5.241 0 0 0 1.256 7.184A6.775 6.775 0 0 1 25.72 9.39Z" fill="#fff"/><path d="m22.648 13.582-2.067.902 2.203.486-1.497-1.688.219 2.245" fill="#EE1C25"/><path d="M35.964 21.512a2.094 2.094 0 0 0-3.327-.095 3.388 3.388 0 0 1-5.192.087 2.9 2.9 0 0 0-4.838.72 5.128 5.128 0 0 1 6.303-3.395.808.808 0 0 1 .049-.103 5.241 5.241 0 0 0-6.445 3.415 6.776 6.776 0 0 1 13.45-.63Z" fill="#fff"/><path d="m31.027 19.885-1.497-1.687.219 2.244 1.143-1.944-2.068.901" fill="#EE1C25"/><path d="M12.188 31.214a2.093 2.093 0 0 0 2.747-1.88 3.39 3.39 0 0 1 4.15-3.122 2.9 2.9 0 0 0 3.491-3.425 5.128 5.128 0 0 1-3.104 6.45c.008.038.016.075.02.113a5.241 5.241 0 0 0 3.207-6.551 6.776 6.776 0 0 1-10.51 8.415Z" fill="#fff"/><path d="m17.138 29.627 2.203.486-1.497-1.688.219 2.245 1.143-1.945" fill="#EE1C25"/><path d="M27.6 34.999a2.092 2.092 0 0 0-.937-3.193 3.389 3.389 0 0 1-1.688-4.911 2.9 2.9 0 0 0-2.179-4.38 5.128 5.128 0 0 1 5.176 4.946c.038.003.076.008.113.015a5.24 5.24 0 0 0-5.239-5.074A6.775 6.775 0 0 1 27.601 35Z" fill="#fff"/><path d="m27.621 29.801 1.143-1.944-2.068.901 2.203.486-1.496-1.687" fill="#EE1C25"/><path d="M11.026 15.386a2.094 2.094 0 0 0 2.636 2.031 3.387 3.387 0 0 1 4.252 2.982 2.898 2.898 0 0 0 4.337 2.262 5.128 5.128 0 0 1-7.095-.96.972.972 0 0 1-.1.055 5.241 5.241 0 0 0 7.221 1.025 6.775 6.775 0 0 1-11.25-7.395Z" fill="#fff"/><path d="m14.065 19.602.219 2.245 1.142-1.945-2.067.902 2.202.486" fill="#EE1C25"/></g></g></g><defs><clipPath id="a"><rect width="45" height="45" rx="22.5" fill="#fff"/></clipPath><clipPath id="b"><path fill="#fff" d="M0 0h45v45H0z"/></clipPath><clipPath id="c"><path fill="#fff" d="M0 0h45v45H0z"/></clipPath></defs></svg>