<svg xmlns="http://www.w3.org/2000/svg" width="45" height="46" fill="none"><g clip-path="url(#a)"><path fill="#338AF3" d="M22.5 45.5C34.926 45.5 45 35.426 45 23S34.926.5 22.5.5 0 10.574 0 23s10.074 22.5 22.5 22.5Z"/><path fill="#FFDA44" d="M35.218 23.244H9.783c0 1.756 1.53 3.18 3.285 3.18h-.106a3.18 3.18 0 0 0 3.18 3.179 3.18 3.18 0 0 0 3.179 3.18h6.358a3.18 3.18 0 0 0 3.18-3.18 3.18 3.18 0 0 0 3.18-3.18h-.107c1.756 0 3.286-1.423 3.286-3.179Z"/><path fill="#338AF3" d="M31.305 19.088a8.804 8.804 0 0 1-17.61 0"/><path fill="#FFDA44" d="m29.225 19.087-2.748 1.292 1.463 2.662-2.984-.571-.378 3.014-2.078-2.217-2.079 2.217-.378-3.014-2.983.57 1.463-2.66-2.748-1.293 2.748-1.293-1.463-2.661 2.983.57.379-3.013 2.078 2.216 2.078-2.216.378 3.014 2.984-.571-1.463 2.661 2.748 1.293Z"/></g><defs><clipPath id="a"><path fill="#fff" d="M0 .5h45v45H0z"/></clipPath></defs></svg>