<svg xmlns="http://www.w3.org/2000/svg" width="45" height="46" fill="none"><g clip-path="url(#a)"><path fill="#D80027" d="M22.5 45.5C34.926 45.5 45 35.426 45 23S34.926.5 22.5.5 0 10.574 0 23s10.074 22.5 22.5 22.5Z"/><path fill="#FFDA44" d="m33.504 23-4.496 2.116 2.394 4.354-4.883-.934-.618 4.932-3.4-3.627-3.402 3.627-.618-4.932-4.882.934 2.394-4.355-4.496-2.114 4.496-2.115-2.394-4.355 4.882.934.619-4.932 3.4 3.627 3.401-3.627.619 4.932 4.882-.934-2.394 4.355 4.496 2.115Z"/><path fill="#D80027" d="M22.5 29.848a6.848 6.848 0 1 0 0-13.696 6.848 6.848 0 0 0 0 13.696Z"/><path fill="#FFDA44" d="M19.076 23a4.93 4.93 0 0 0-.489.024 3.9 3.9 0 0 0 .916 2.491 6.864 6.864 0 0 1 1.323-2.19 4.866 4.866 0 0 0-1.75-.325Zm2.108 3.687a3.905 3.905 0 0 0 2.632 0 4.893 4.893 0 0 0-1.316-2.283 4.892 4.892 0 0 0-1.316 2.283Zm4.705-5.642a3.91 3.91 0 0 0-6.778 0 6.804 6.804 0 0 1 3.389.92 6.803 6.803 0 0 1 3.389-.92Zm-1.716 2.282a6.861 6.861 0 0 1 1.323 2.19c.567-.674.91-1.542.916-2.49a4.902 4.902 0 0 0-2.239.3Z"/></g><defs><clipPath id="a"><path fill="#fff" d="M0 .5h45v45H0z"/></clipPath></defs></svg>