<svg width="531" height="48" fill="none" xmlns="http://www.w3.org/2000/svg"><path d="M6.55 38H.5V3h6.05v15.35L22.25 3h7.9l-15.9 15.7L31.3 38h-8.05L9.7 22.75 6.55 25.8V38Zm29.884-18.55-2.8-4.2c1.3-1.233 2.95-2.183 4.95-2.85 2-.667 3.984-1 5.95-1 3.434 0 6.067.933 7.9 2.8 1.834 1.833 2.75 4.467 2.75 7.9V38h-5.7v-2.85c-1.9 2.1-4.583 3.15-8.05 3.15-2.7 0-4.95-.7-6.75-2.1-1.8-1.433-2.7-3.467-2.7-6.1 0-1.6.367-2.967 1.1-4.1.734-1.133 1.734-1.983 3-2.55a16.574 16.574 0 0 1 3.85-1.2c1.3-.267 2.7-.4 4.2-.4 1.967 0 3.75.233 5.35.7.067-1.833-.333-3.283-1.2-4.35-.866-1-2.333-1.5-4.4-1.5-2.566 0-5.05.917-7.45 2.75Zm6.25 13.9a8.424 8.424 0 0 0 3.9-.95c1.234-.633 2.2-1.5 2.9-2.6v-2.5c-1.666-.467-3.25-.7-4.75-.7-4.566 0-6.85 1.15-6.85 3.45 0 1.133.484 1.967 1.45 2.5 1 .533 2.117.8 3.35.8ZM66.044 48h-5.7V12h5.7v2.35c.766-.967 1.8-1.7 3.1-2.2 1.333-.5 2.7-.75 4.1-.75 3.9 0 6.966 1.233 9.2 3.7 2.266 2.467 3.4 5.617 3.4 9.45 0 4-1.2 7.317-3.6 9.95-2.367 2.633-5.5 3.95-9.4 3.95-1.234 0-2.534-.167-3.9-.5-1.334-.367-2.3-.917-2.9-1.65V48Zm6.6-31.3a7.19 7.19 0 0 0-3.95 1.15c-1.167.767-2.05 1.8-2.65 3.1v9c1.3 2.133 3.35 3.2 6.15 3.2 2.366 0 4.25-.75 5.65-2.25 1.4-1.533 2.1-3.5 2.1-5.9 0-2.467-.617-4.467-1.85-6-1.234-1.533-3.05-2.3-5.45-2.3Zm23.115.6h-9.4V12h24.5v5.3h-9.4V38h-5.7V17.3Zm20.705 2.15-2.8-4.2c1.3-1.233 2.95-2.183 4.95-2.85 2-.667 3.983-1 5.95-1 3.433 0 6.066.933 7.9 2.8 1.833 1.833 2.75 4.467 2.75 7.9V38h-5.7v-2.85c-1.9 2.1-4.584 3.15-8.05 3.15-2.7 0-4.95-.7-6.75-2.1-1.8-1.433-2.7-3.467-2.7-6.1 0-1.6.366-2.967 1.1-4.1.733-1.133 1.733-1.983 3-2.55a16.565 16.565 0 0 1 3.85-1.2c1.3-.267 2.7-.4 4.2-.4 1.966 0 3.75.233 5.35.7.066-1.833-.334-3.283-1.2-4.35-.867-1-2.334-1.5-4.4-1.5-2.567 0-5.05.917-7.45 2.75Zm6.25 13.9a8.428 8.428 0 0 0 3.9-.95c1.233-.633 2.2-1.5 2.9-2.6v-2.5c-1.667-.467-3.25-.7-4.75-.7-4.567 0-6.85 1.15-6.85 3.45 0 1.133.483 1.967 1.45 2.5 1 .533 2.116.8 3.35.8Zm28.275-8.4c0-4.033 1.317-7.3 3.95-9.8 2.633-2.5 5.95-3.75 9.95-3.75 4.067 0 7.4 1.267 10 3.8 2.633 2.5 3.95 5.75 3.95 9.75s-1.333 7.25-4 9.75-5.983 3.75-9.95 3.75c-3.967 0-7.283-1.267-9.95-3.8-2.633-2.567-3.95-5.8-3.95-9.7Zm5.9 0c0 2.333.75 4.283 2.25 5.85 1.5 1.567 3.417 2.35 5.75 2.35 2.467 0 4.417-.75 5.85-2.25 1.467-1.5 2.2-3.483 2.2-5.95 0-2.4-.75-4.367-2.25-5.9-1.5-1.567-3.433-2.35-5.8-2.35-2.4 0-4.333.783-5.8 2.35-1.467 1.533-2.2 3.5-2.2 5.9Zm31.888-7.65h-9.4V12h24.5v5.3h-9.4V38h-5.7V17.3ZM225.398 38h-6.05V3h25.5v5.7h-19.45V38Zm13.286-13.05c0-4.033 1.317-7.3 3.95-9.8 2.634-2.5 5.95-3.75 9.95-3.75 4.067 0 7.4 1.267 10 3.8 2.634 2.5 3.95 5.75 3.95 9.75s-1.333 7.25-4 9.75c-2.666 2.5-5.983 3.75-9.95 3.75-3.966 0-7.283-1.267-9.95-3.8-2.633-2.567-3.95-5.8-3.95-9.7Zm5.9 0c0 2.333.75 4.283 2.25 5.85 1.5 1.567 3.417 2.35 5.75 2.35 2.467 0 4.417-.75 5.85-2.25 1.467-1.5 2.2-3.483 2.2-5.95 0-2.4-.75-4.367-2.25-5.9-1.5-1.567-3.433-2.35-5.8-2.35-2.4 0-4.333.783-5.8 2.35-1.466 1.533-2.2 3.5-2.2 5.9ZM294.546 38h-5.7V27.45h-12.5V38h-5.7V12h5.7v10.2h12.5V12h5.7v26Zm11.048 0h-5.7V12h5.7v10.55L316.844 12h7.45l-12.65 11.75 13.1 14.25h-7.3l-9.95-10.7-1.9 1.85V38Zm18.442-13.05c0-4.033 1.317-7.3 3.95-9.8 2.633-2.5 5.95-3.75 9.95-3.75 4.067 0 7.4 1.267 10 3.8 2.633 2.5 3.95 5.75 3.95 9.75s-1.333 7.25-4 9.75-5.983 3.75-9.95 3.75c-3.967 0-7.283-1.267-9.95-3.8-2.633-2.567-3.95-5.8-3.95-9.7Zm5.9 0c0 2.333.75 4.283 2.25 5.85 1.5 1.567 3.417 2.35 5.75 2.35 2.467 0 4.417-.75 5.85-2.25 1.467-1.5 2.2-3.483 2.2-5.95 0-2.4-.75-4.367-2.25-5.9-1.5-1.567-3.433-2.35-5.8-2.35-2.4 0-4.333.783-5.8 2.35-1.467 1.533-2.2 3.5-2.2 5.9ZM379.898 38h-5.7V27.45h-12.5V38h-5.7V12h5.7v10.2h12.5V12h5.7v26Zm11.048 0h-5.7V12h19.6v5.3h-13.9V38ZM442.273.85l.95 5.15c-1.4.567-3.817.983-7.25 1.25s-5.767.667-7 1.2c-3 1.4-4.617 4.3-4.85 8.7 1.833-2.667 5-4 9.5-4 3.7 0 6.617 1.117 8.75 3.35 2.167 2.2 3.25 5.1 3.25 8.7 0 3.933-1.233 7.133-3.7 9.6-2.467 2.467-5.633 3.7-9.5 3.7-4.533 0-8-1.45-10.4-4.35-2.367-2.933-3.55-6.683-3.55-11.25 0-2.533.133-4.767.4-6.7.3-1.933.817-3.883 1.55-5.85.767-1.967 1.933-3.617 3.5-4.95 1.567-1.367 3.533-2.367 5.9-3 1.267-.267 3.3-.5 6.1-.7 2.867-.133 4.983-.417 6.35-.85Zm-17.9 23v.55c0 2.433.733 4.517 2.2 6.25 1.467 1.7 3.4 2.55 5.8 2.55 2.267 0 4.05-.7 5.35-2.1 1.333-1.433 2-3.283 2-5.55s-.633-4.017-1.9-5.25c-1.267-1.233-3.033-1.85-5.3-1.85-1.833 0-3.483.483-4.95 1.45s-2.533 2.283-3.2 3.95Zm28.126-4.4-2.8-4.2c1.3-1.233 2.95-2.183 4.95-2.85 2-.667 3.983-1 5.95-1 3.433 0 6.066.933 7.9 2.8 1.833 1.833 2.75 4.467 2.75 7.9V38h-5.7v-2.85c-1.9 2.1-4.584 3.15-8.05 3.15-2.7 0-4.95-.7-6.75-2.1-1.8-1.433-2.7-3.467-2.7-6.1 0-1.6.366-2.967 1.1-4.1.733-1.133 1.733-1.983 3-2.55a16.565 16.565 0 0 1 3.85-1.2c1.3-.267 2.7-.4 4.2-.4 1.966 0 3.75.233 5.35.7.066-1.833-.334-3.283-1.2-4.35-.867-1-2.334-1.5-4.4-1.5-2.567 0-5.05.917-7.45 2.75Zm6.25 13.9a8.428 8.428 0 0 0 3.9-.95c1.233-.633 2.2-1.5 2.9-2.6v-2.5c-1.667-.467-3.25-.7-4.75-.7-4.567 0-6.85 1.15-6.85 3.45 0 1.133.483 1.967 1.45 2.5 1 .533 2.116.8 3.35.8ZM500.308 38h-5.7V27.45h-12.5V38h-5.7V12h5.7v10.2h12.5V12h5.7v26Zm11.048 0h-5.7V12h5.7v10.55L522.606 12h7.45l-12.65 11.75 13.1 14.25h-7.3l-9.95-10.7-1.9 1.85V38Z" fill="#fff"/></svg>