<svg xmlns="http://www.w3.org/2000/svg" width="14" height="15" fill="none"><path fill="#0085F7" d="M13.866 6.16H7.15v2.755h3.869a3.314 3.314 0 0 1-1.436 2.219l-.069 1.646 2.373.14-.001.001C13.229 11.677 14 9.837 14 7.663a8.42 8.42 0 0 0-.134-1.503Z"/><path fill="#00A94B" d="M9.583 11.134h-.001c-.641.432-1.466.685-2.431.685-1.866 0-3.448-1.257-4.015-2.951l-1.98-.313L.76 10.71a7.151 7.151 0 0 0 6.39 3.937c1.93 0 3.553-.634 4.734-1.727v-.001l-2.302-1.786Z"/><path fill="#FB0" d="M2.912 7.5c0-.476.08-.936.224-1.368l-.619-1.843H.76A7.114 7.114 0 0 0 0 7.5c0 1.155.275 2.245.76 3.211l2.376-1.843A4.31 4.31 0 0 1 2.912 7.5Z"/><path fill="#FF4031" d="M7.15.352A7.152 7.152 0 0 0 .76 4.29l2.376 1.843C3.702 4.438 5.285 3.18 7.15 3.18c1.055 0 1.999.363 2.744 1.073l2.04-2.04C10.696 1.06 9.08.353 7.152.353Z"/></svg>