<svg width="0" height="0" style="position:absolute"><symbol fill="none" viewBox="0 0 60 60" id="advantages-1" xmlns="http://www.w3.org/2000/svg"><g clip-path="url(#aa)"><path d="M4.688.938a3.75 3.75 0 0 0-3.75 3.75V26.25a.937.937 0 0 0 .937.938h9.375V.938H4.687Z" fill="#52DCFF"/><path d="M41.25.938H3.75a3.75 3.75 0 0 1 3.75 3.75v53.437a.937.937 0 0 0 .938.938H45V4.686a3.75 3.75 0 0 0-3.75-3.75Z" fill="#9CEBFF"/><path d="M39.375 14.063h-26.25a.938.938 0 0 1 0-1.876h26.25a.938.938 0 0 1 0 1.876ZM39.375 19.688h-26.25a.938.938 0 0 1 0-1.875h26.25a.938.938 0 0 1 0 1.875ZM34.688 25.313H13.125a.938.938 0 0 1 0-1.875h21.563a.938.938 0 0 1 0 1.875ZM29.063 30.938H13.124a.938.938 0 0 1 0-1.875h15.938a.938.938 0 0 1 0 1.875ZM23.438 36.563H13.124a.938.938 0 0 1 0-1.876h10.313a.938.938 0 0 1 0 1.876ZM19.688 42.188h-6.563a.938.938 0 0 1 0-1.876h6.563a.938.938 0 0 1 0 1.876ZM19.688 47.813h-6.563a.938.938 0 0 1 0-1.876h6.563a.938.938 0 0 1 0 1.876ZM57.619 11.756a4.901 4.901 0 0 0-6.947 0l-27.14 27.14-1.941 7.754a.944.944 0 0 0 .244.89.943.943 0 0 0 .89.244l7.753-1.94 27.14-27.14a4.901 4.901 0 0 0 0-6.948Z" fill="#01C3F4"/><path d="M57.619 11.756a4.901 4.901 0 0 0-6.947 0l-1.84 1.84 6.947 6.947 1.84-1.84a4.901 4.901 0 0 0 0-6.947ZM21.563 46.875c-.001.249.097.488.271.665a.944.944 0 0 0 .891.244l7.753-1.94-6.947-6.947-1.94 7.753a.928.928 0 0 0-.029.225Z" fill="#01C3F4"/><path d="M37.5 50.625a.938.938 0 0 0-.938.938v7.5L45 50.624h-7.5Z" fill="#9CEBFF"/><path d="m48.23 48.429 3.528-3.529a1.072 1.072 0 0 0-1.516-1.515l-3.528 3.529-3.528-3.529A1.071 1.071 0 0 0 41.67 44.9l3.528 3.529-3.528 3.528a1.071 1.071 0 0 0 1.515 1.515l3.528-3.528 3.529 3.528a1.071 1.071 0 0 0 1.514-1.515l-3.528-3.528Z" fill="#9CEBFF"/><path d="M54.29 40.853a10.714 10.714 0 1 0-15.152 15.152A10.714 10.714 0 0 0 54.29 40.853Zm-2.532 11.105a1.07 1.07 0 0 1 .007 1.521 1.072 1.072 0 0 1-1.522-.007l-3.529-3.528-3.528 3.528a1.071 1.071 0 0 1-1.515-1.514l3.528-3.529-3.528-3.528a1.072 1.072 0 0 1 1.515-1.515l3.528 3.528 3.529-3.528a1.071 1.071 0 0 1 1.515 1.515l-3.529 3.528 3.529 3.529Z" fill="#01C3F4"/></g><defs><clipPath id="aa"><path fill="#fff" d="M0 0h60v60H0z"/></clipPath></defs></symbol><symbol fill="none" viewBox="0 0 30 30" id="clock" xmlns="http://www.w3.org/2000/svg"><path d="M15 10v5l3.125 1.25M25 15c0 5.523-4.477 10-10 10S5 20.523 5 15 9.477 5 15 5s10 4.477 10 10Z" stroke="#01C3F4" stroke-width="2" stroke-linecap="round" stroke-linejoin="round"/></symbol><symbol fill="none" viewBox="0 0 12 8" id="down-arrow" xmlns="http://www.w3.org/2000/svg"><path d="M11 1.17a1 1 0 0 0-1.41 0L6 4.71 2.46 1.17a1 1 0 1 0-1.41 1.42l4.24 4.24a1 1 0 0 0 1.42 0L11 2.59a1.001 1.001 0 0 0 0-1.42Z" fill="#18181A"/></symbol><symbol fill="none" viewBox="0 0 22 24" id="download-icon" xmlns="http://www.w3.org/2000/svg"><path d="M12.125 12H15.5L11 16.5 6.5 12h3.375V7.5h2.25V12Zm2.25-9H3.125v18h15.75V7.5h-4.5V3ZM.875 1.866A1.12 1.12 0 0 1 1.999.75H15.5l5.625 5.625v15.742a1.125 1.125 0 0 1-1.117 1.133H1.992a1.125 1.125 0 0 1-1.117-1.116V1.866Z" fill="#01C3F4"/></symbol><symbol fill="none" viewBox="0 0 30 30" id="download-icon-black" xmlns="http://www.w3.org/2000/svg"><path d="M16.125 15H19.5L15 19.5 10.5 15h3.375v-4.5h2.25V15Zm2.25-9H7.125v18h15.75V10.5h-4.5V6Zm-13.5-1.134A1.12 1.12 0 0 1 5.999 3.75H19.5l5.625 5.625v15.742a1.125 1.125 0 0 1-1.117 1.133H5.992a1.125 1.125 0 0 1-1.117-1.116V4.866Z" fill="#18181A"/></symbol><symbol fill="none" viewBox="0 0 146 30" id="logo-otzovik" xmlns="http://www.w3.org/2000/svg"><path d="M16.72 30c8.285 0 15-6.716 15-15 0-8.284-6.715-15-15-15-8.284 0-15 6.716-15 15 0 8.284 6.716 15 15 15Z" fill="#CE2457"/><path fill-rule="evenodd" clip-rule="evenodd" d="M15.981 5.979a9.055 9.055 0 1 0 1.495 0l-.244 5.946a3.118 3.118 0 1 1-1.007 0l-.244-5.946Z" fill="#fff"/><path d="M16.72 5.344a1.954 1.954 0 1 0 0-3.909 1.954 1.954 0 0 0 0 3.91Z" fill="#fff"/><path d="M52.15 14.997c0 2.066-.756 3.735-2.183 5.085-1.428 1.351-3.191 1.987-5.29 1.987-2.1 0-3.78-.636-5.29-1.986-1.344-1.351-2.1-3.02-2.1-5.086 0-2.066.756-3.735 2.183-5.086 1.428-1.35 3.191-1.986 5.207-1.986 2.015 0 3.862.635 5.29 1.986 1.427 1.351 2.183 3.02 2.183 5.086Zm-2.771 0c0-1.192-.42-2.225-1.344-3.02-.84-.794-2.015-1.192-3.358-1.192-1.344 0-2.436.398-3.36 1.192-.923.795-1.343 1.828-1.343 3.02s.42 2.225 1.344 3.02c.84.794 2.015 1.191 3.359 1.191 1.343 0 2.519-.397 3.358-1.192.924-.794 1.344-1.827 1.344-3.02ZM61.015 21.434h-3.107v-10.41h-4.786V8.563h12.596v2.463h-4.703v10.41ZM72.676 21.756c-2.183 0-3.947-.318-5.374-.954v-2.543c1.595.715 3.274 1.033 4.954 1.033 1.26 0 2.183-.159 2.939-.477.672-.317 1.092-.794 1.092-1.35 0-1.113-1.008-1.59-3.107-1.59h-2.604v-2.304h2.604c1.763 0 2.603-.477 2.603-1.43 0-1.033-1.176-1.51-3.443-1.51-1.512 0-3.023.318-4.618.954V9.12c1.427-.556 3.19-.874 5.29-.874 1.68 0 3.107.318 4.282.954 1.092.635 1.68 1.51 1.68 2.463 0 1.43-.756 2.384-2.184 2.86 1.764.557 2.687 1.59 2.687 3.179 0 1.192-.587 2.225-1.847 2.94-1.26.795-2.939 1.113-4.954 1.113ZM96.42 14.997c0 2.066-.755 3.735-2.182 5.085-1.428 1.351-3.191 1.987-5.29 1.987-2.1 0-3.78-.636-5.29-1.986-1.428-1.351-2.184-3.02-2.184-5.086 0-2.066.756-3.735 2.183-5.086 1.512-1.35 3.275-1.986 5.374-1.986 2.1 0 3.863.635 5.29 1.986 1.344 1.351 2.1 3.02 2.1 5.086Zm-2.686 0c0-1.192-.42-2.225-1.344-3.02-.84-.794-2.015-1.192-3.359-1.192-1.343 0-2.435.398-3.358 1.192-.924.795-1.344 1.828-1.344 3.02s.42 2.225 1.344 3.02c.84.794 2.015 1.191 3.358 1.191 1.344 0 2.52-.397 3.36-1.192.839-.794 1.343-1.827 1.343-3.02ZM107.337 21.434h-8.145V8.562h7.725c1.343 0 2.435.317 3.275.874.84.556 1.175 1.43 1.175 2.383 0 .636-.168 1.192-.504 1.67-.336.476-.756.873-1.344 1.112 1.848.476 2.772 1.589 2.772 3.337 0 1.113-.42 1.986-1.344 2.622-.84.556-2.015.874-3.61.874Zm-5.038-10.568v2.86h3.862c.672 0 1.176-.158 1.595-.397.337-.238.588-.636.588-1.033 0-.953-.671-1.43-2.099-1.43h-3.946Zm0 5.085v3.179h4.45c.756 0 1.259-.159 1.679-.397.42-.318.588-.636.588-1.192 0-.477-.168-.874-.588-1.192-.42-.318-1.008-.398-1.679-.398h-4.45ZM118.083 21.427h-2.939V8.555h3.106v8.74l7.642-8.74h2.939v12.872h-3.107v-8.74l-7.641 8.74ZM135.169 21.427h-3.107V8.555h3.107v12.872Z" fill="#18181A"/><path d="m138.447 14.754 6.224 6.596h-4.018l-5.91-6.437 5.516-6.277h3.861l-5.673 6.118Z" fill="#18181A"/></symbol><symbol fill="none" viewBox="0 0 30 30" id="mail" xmlns="http://www.w3.org/2000/svg"><path d="M5.728 10S12.5 15 15 15s9.272-5 9.272-5M5 18.75a3.75 3.75 0 0 0 3.75 3.75h12.5A3.75 3.75 0 0 0 25 18.75v-7.5a3.75 3.75 0 0 0-3.75-3.75H8.75A3.75 3.75 0 0 0 5 11.25v7.5Z" stroke="#01C3F4" stroke-width="2" stroke-linecap="round"/></symbol><symbol fill="none" viewBox="0 0 30 30" id="marker-pin" xmlns="http://www.w3.org/2000/svg"><path d="M23.412 13.518c0 4.507-3.94 8.575-6.461 10.717a3.148 3.148 0 0 1-4.115 0c-2.52-2.142-6.461-6.21-6.461-10.716a8.519 8.519 0 0 1 17.037 0Z" stroke="#01C3F4" stroke-width="2" stroke-linecap="round" stroke-linejoin="round"/><path d="M14.893 16.358a2.84 2.84 0 1 0 0-5.679 2.84 2.84 0 0 0 0 5.679Z" stroke="#01C3F4" stroke-width="2" stroke-linecap="round" stroke-linejoin="round"/></symbol><symbol fill="none" viewBox="0 0 30 30" id="phone" xmlns="http://www.w3.org/2000/svg"><path d="M10.887 19.642C6.57 15.692 5.437 11.6 5.202 9.04c-.143-1.561 1.085-2.758 2.633-3l1.785-.278a3.292 3.292 0 0 1 3.742 2.643l.285 1.512a1.447 1.447 0 0 1-.904 1.62c-.747.286-1.112 1.121-.731 1.824.456.84 1.157 1.93 2.082 2.776.924.846 2.072 1.448 2.95 1.828.733.318 1.533-.12 1.752-.889a1.447 1.447 0 0 1 1.533-1.044l1.532.15a3.292 3.292 0 0 1 2.963 3.495l-.12 1.801c-.103 1.564-1.187 2.893-2.755 2.889-2.57-.007-6.746-.775-11.062-4.726Z" stroke="#01C3F4" stroke-width="2"/></symbol><symbol fill="none" viewBox="0 0 70 70" id="telegram" xmlns="http://www.w3.org/2000/svg"><g clip-path="url(#ja)"><path d="M35 70c19.33 0 35-15.67 35-35S54.33 0 35 0 0 15.67 0 35s15.67 35 35 35Z" fill="#039BE5"/><path d="m21.397 32.384 26.605-10.259c1.235-.446 2.313.302 1.913 2.169l.002-.002-4.53 21.341c-.335 1.513-1.234 1.881-2.492 1.168l-6.899-5.084-3.327 3.206c-.368.368-.678.678-1.391.678l.49-7.02 12.785-11.55c.556-.49-.124-.766-.858-.279l-15.8 9.948-6.81-2.125c-1.48-.47-1.512-1.479.312-2.191Z" fill="#fff"/></g><defs><clipPath id="ja"><path fill="#fff" d="M0 0h70v70H0z"/></clipPath></defs></symbol></svg>