<svg xmlns="http://www.w3.org/2000/svg" width="14" height="19" fill="none"><path fill="#18181A" d="M9.528 3.654c.593-.742.996-1.739.89-2.758-.869.044-1.93.574-2.543 1.317-.551.636-1.039 1.674-.912 2.65.975.085 1.95-.487 2.565-1.209Zm.879 1.4c-1.417-.084-2.62.804-3.297.804s-1.713-.761-2.833-.74c-1.458.021-2.811.845-3.551 2.157-1.522 2.623-.402 6.514 1.078 8.65.719 1.057 1.585 2.22 2.726 2.179 1.079-.042 1.501-.698 2.812-.698 1.31 0 1.69.698 2.832.677 1.184-.021 1.924-1.058 2.643-2.116.824-1.205 1.162-2.368 1.183-2.432-.021-.02-2.283-.889-2.304-3.49-.021-2.178 1.776-3.214 1.86-3.278-1.014-1.5-2.6-1.67-3.15-1.713Z"/></svg>