<svg width="620" height="400" fill="none" xmlns="http://www.w3.org/2000/svg"><g clip-path="url(#a)"><path d="M0 0h620v400H0V0Z" fill="url(#b)"/><mask id="c" style="mask-type:alpha" maskUnits="userSpaceOnUse" x="-406" y="-668" width="1806" height="1836"><path d="M-398.084-76.4 758.929-665.929c6.581-3.353 14.634-.736 17.987 5.845L1397.93 558.72c3.35 6.581.74 14.634-5.85 17.987L235.071 1166.24c-6.581 3.35-14.634.73-17.987-5.85L-403.929-58.413c-3.353-6.58-.736-14.634 5.845-17.987Z" fill="#8FB9D0" fill-opacity=".6"/></mask><g mask="url(#c)" fill-opacity=".5"><path d="M-967.988 1455.77c-182.842-207.36-313.082-466.198-377.442-748.663-62.62-274.143-55.89-555.793 18.41-793.74 61.33-197.755 176.3-389.993 352.026-587.25 156.561-175.612 345.1-339.107 527.751-497.167 37.658-32.76 76.902-66.48 114.849-100 40.068-34.97 80.424-70.7 119.441-105.21 365.325-323.08 710.35-628.44 1144.265-716.57 239.828-48.8 504.558-31.41 744.848 48.65 250.21 83.29 447.15 228.6 554.56 408.43 74.59 124.9 115.55 278.34 129.22 482.22 11.99 181.646.83 381.171-11.06 592.777-9.39 168.672-19.28 343.25-17.97 521.373 1.21 161.368 11.54 326.71 21.59 486.377 29.21 463.49 56.88 901.153-135.76 1198.233-34.09 52.73-76.28 102.05-125.54 147.48-40.95 37.77-87.21 73.01-138.27 105.74-105 66.63-230.9 121.33-374.05 162.71-266.47 76.85-584.362 106.01-919.789 84.48-325.672-20.63-641.116-90.33-912.146-200.48-293.833-119.85-534.565-284.71-714.933-489.39Zm718.044 482.55c270.27 109.88 584.951 179.28 909.593 199.87 334.642 21.76 651.751-7.18 917.201-84.08 142.36-41.15 267.49-95.62 371.95-161.75 111.34-70.49 199.28-155.08 261.64-250.74 191.29-295.33 163.57-731.956 134.57-1194.154-10.3-159.931-20.62-325.275-21.57-486.89-1.31-178.123 8.58-352.701 17.99-521.887 11.87-211.092 23.27-410.347 11.02-591.749-13.47-202.58-54.22-354.72-128.07-478.82-106.42-178.76-302.13-322.73-550.55-405.7-239.02-79.75-502.2-97.08-740.999-48.22-432.103 87.94-776.324 392.55-1140.846 714.9-39.018 34.5-79.374 70.24-119.441 105.21-38.194 33.25-77.191 67.23-114.85 99.99-91.335 79.29-184.257 159.54-273.926 242.253-89.134 82.211-175.263 166.607-253.287 254.423C-1144.45-472.507-1259.13-281.03-1320.15-84.552c-73.71 236.425-80.41 517.046-18.24 789.626 64.15 281.167 193.93 538.956 375.778 745.246 179.854 204.66 419.597 368.45 712.668 488Z" fill="url(#d)"/><path d="M-1229.2 713.351c-58.43-256.713-52.42-520.352 17.38-742.762 57.21-185.036 165.23-364.927 329.64-549.757 146.572-164.419 323.087-317.323 493.734-465.302 35.25-30.53 71.837-62.3 107.622-93.32 37.659-32.76 75.091-66.29 111.7-98.57 341.812-302.39 664.394-588.03 1070.767-670.58 224.757-45.81 472.017-29.63 697.037 45.68 234.18 78.27 418.61 214.31 519.01 382.78 69.5 116.71 108.04 260 120.43 450.68 11.18 170.017.79 356.947-10.55 554.659-8.95 157.866-18.13 321.392-16.86 487.66 1.12 151.056 10.85 305.552 20.26 455.401 27.33 433.523 53.3 843.02-127.25 1121.52-32.15 49.47-71.38 95.56-117.42 138.02-38.54 35.55-81.61 68.34-129.48 98.62-98.12 62.27-215.9 113.43-349.93 152.34-249.26 71.88-546.975 99.29-860.545 78.89-304.843-19.53-599.87-84.28-853.655-187.56-275.332-112.14-500.529-266.06-669.56-457.91-170.23-194.23-292.39-436.246-352.33-700.489ZM-203.953 1865.19c253.024 102.99 547.289 167.45 851.104 186.94 313.051 20.37 609.739-7.07 858.219-78.72 133.25-38.69 250.49-89.36 348.09-151.65 104.2-65.88 186.26-145.03 244.77-234.67 178.93-276.49 153.15-684.702 125.78-1117.198-9.41-149.843-19.15-304.341-20.5-455.665-1.26-166.782 7.92-330.308 16.88-488.173 11.07-197.466 21.7-384.124 10.26-553.894-12.21-188.87-50.52-331.38-119.53-447.56-99.68-167.15-282.36-301.83-515.01-379.52-223.51-74.74-470-90.62-693.191-45.27-404.296 82.12-726.344 367.27-1067.352 668.91-36.609 32.29-74.288 65.55-111.7 98.57-35.538 31.3-72.372 62.79-107.622 93.32-85.447 73.859-172.5 149.203-256.282 226.477-83.515 77.029-164.02 156.241-236.894 237.822C-1040.78-391.27-1148-212.119-1205.18-28.111c-68.97 221.154-75.19 483.5-16.96 738.909 59.98 263.216 181.67 504.182 351.424 697.362 168.004 191.81 392.461 344.93 666.763 457.03Z" fill="url(#e)"/><path d="M-1113.22 719.323c-54.51-239.027-48.71-484.639 15.84-691.799 119.115-384.314 448.632-669.419 766.948-945.186 32.84-28.305 67.019-57.852 100.148-86.918 34.735-30.55 70.005-61.6 104.205-91.66 318.298-281.69 618.951-547.6 997.268-624.58 209.421-42.56 439.721-27.59 649.251 42.2 218.16 72.73 390.08 199.5 483.46 356.6 64.92 109.05 100.76 242.44 112.65 420.22 10.36 158.389.76 332.206-9.52 516.561-8.27 147.328-16.73 299.286-15.52 454.213 1.02 140.744 10.14 284.91 18.96 423.908 25.69 403.821 49.46 785.148-118.47 1044.568-29.95 45.95-66.48 89.05-109.31 128.56-35.87 33.07-76.01 63.67-120.71 92.02-91.51 58.15-201.15 105.77-326.04 141.7-232.32 67.15-509.335 92.3-801.585 73.54-283.764-18.17-558.869-78.5-794.894-174.88-256.316-104.41-466.223-247.67-623.407-426.67-159.445-180.39-272.994-406.082-329.274-652.397Zm955.01 1072.467c235.53 95.84 509.606 156.13 792.61 174 291.465 18.99 567.71-6.44 799.25-73.37 124.11-35.7 233.24-83.35 324.22-141.01 96.8-61.54 173.73-134.97 227.6-218.35 166.56-257.16 142.5-637.717 117.01-1040.244-8.79-139.512-17.67-283.409-18.93-424.422-.95-155.173 7.26-307.399 15.53-454.727 21.51-373.052 39.69-695.467-101.5-932.337-92.66-155.78-263.1-280.95-479.48-353.34-208.24-69.49-437.51-84.42-645.635-42.06-376.24 76.55-676.111 342.23-993.606 623.19-34.2 30.05-69.223 61.36-104.205 91.652-33.129 29.067-67.308 58.615-100.149 86.919-79.579 68.943-160.496 139.119-238.656 211.21-77.892 71.844-152.76 145.357-220.53 221.733-152.522 171.394-252.269 337.704-305.579 509.24-64.24 205.883-70 450.466-15.94 687.93 55.83 244.745 168.903 469.386 327.343 649.226 156.708 177.95 365.606 320.65 620.647 424.76Z" fill="url(#f)"/><path d="M-996.989 725.566c-50.591-221.347-45.001-448.926 14.801-640.816 110.24-355.811 415.213-620.261 710.551-875.823 30.453-26.602 61.955-53.676 92.675-80.522 32.326-28.332 64.919-56.907 96.463-85.013C212.285-1217.6 490.76-1464.06 841.27-1535.19c193.849-39.59 407.419-25.55 601.429 39.24 202.14 67.69 361.3 184.93 447.94 330.42 131.78 220.762 114.77 520.808 95.6 867.928-7.57 136.275-15.57 276.913-14.41 420.498.91 130.434 9.44 263.751 17.38 392.66 23.54 374.102 45.86 727.534-109.7 967.614-27.47 42.18-61.02 81.54-100.63 118.08-101.72 93.82-242.32 168.03-414.42 217.77-215.11 62.18-471.95 85.56-742.602 68.18-262.96-16.54-517.607-72.96-736.407-161.94-237.548-96.96-431.899-229.79-577.516-395.19-147.865-167.29-253.061-376.41-304.924-604.504Zm885.036 992.844c218.038 88.69 471.677 144.55 734.12 161.08 269.873 17.6 525.683-5.83 740.013-67.78 237.53-68.49 414.07-183.76 511.06-332.66 154.19-238.33 132.08-590.464 108.74-963.267-8.18-129.18-16.71-262.498-17.63-392.931-.89-143.832 6.87-284.738 14.43-421.013 19.38-345.823 36.36-644.839-94.46-864.019-85.92-144.17-243.58-260.32-443.95-327.17-192.73-64.48-405.03-78.2-597.822-39.09-348.699 70.95-626.375 316.66-920.357 576.92-31.543 28.101-64.137 56.681-96.463 85.008-30.719 26.849-62.489 54.17-92.674 80.525-73.443 63.777-147.669 127.781-219.137 193.7-214.938 198.25-406.832 412.893-489.209 678.603-59.498 190.616-64.768 416.92-14.658 637.212 51.658 226.8 156.65 434.632 302.989 601.342 144.858 165.1 338.469 297.14 575.008 393.54Z" fill="url(#g)"/><path d="M-881.031 732.053c-46.393-203.911-41.536-413.484 13.78-589.833 101.372-327.821 382.298-571.081 653.876-806.214 28.043-24.379 56.889-49.499 85.2-74.126 29.917-26.107 59.854-52.729 88.721-78.364 271.271-240.296 527.552-466.776 850.272-532.586 178.506-36.35 375.132-23.51 553.622 36.27 186.12 62.15 332.77 170.12 412.4 304.25 121.39 203.591 105.87 479.475 87.82 798.808-7.13 125.47-14.43 255.055-13.33 387.299 1.09 119.873 8.76 242.589 16.08 361.171 21.91 344.4 42.28 669.412-100.91 890.652-25.28 38.67-56.12 75.04-92.53 108.62-93.68 86.41-222.97 154.64-381.76 200.53-197.91 57.21-434.574 78.83-683.369 62.6-242.13-15.45-476.36-66.92-677.915-149.02-218.8-88.98-397.595-211.4-531.631-363.7-135.499-154.43-232.612-346.723-280.326-556.357Zm815.067 913.227c200.793 81.81 434.263 132.98 675.363 148.39 248.282 16.22 483.921-5.45 681.041-62.42 218.51-63.33 381.02-169.12 470.04-306.23 142.09-219.23 121.68-543.213 99.97-886.314-7.57-118.848-15.23-241.563-16.05-361.687-1.1-132.244 6.46-262.077 13.59-387.546 18.01-318.304 33.25-593.426-86.96-794.653-78.92-132.29-224.07-239.17-408.4-300.99-177.49-59.23-372.565-72-549.774-35.87-320.642 65.39-576.39 291.37-846.857 530.93-28.867 25.635-58.805 52.257-88.722 78.365-28.311 24.626-57.425 49.993-85.468 74.372-67.822 58.593-135.665 117.701-201.512 178.435-197.81 182.449-374.32 379.933-449.913 624.528-54.758 175.343-59.824 383.619-13.63 586.231 47.482 208.85 144.125 400.099 278.903 553.209 132.801 150.96 310.856 272.57 528.379 361.25Z" fill="url(#h)"/><path d="M-765.045 738.025c-42.476-186.23-38.095-377.522 12.498-539.118 92.76-299.565 349.122-521.654 597.453-736.336 25.635-22.158 52.072-45.056 77.994-67.975 27.24-23.638 54.769-48.039 81.227-71.452C252.13-896.192 485.993-1103.47 780.9-1163.45c163.175-33.1 342.84-21.46 506.08 33.06 170.11 56.61 303.98 155.566 376.86 278.081 111.03 185.905 96.73 437.872 80.29 729.954-6.42 114.417-13.02 232.95-12.22 353.585.99 109.56 7.8 221.678 14.75 330.195 19.76 314.675 38.69 611.795-92.4 813.945-23.09 35.66-51.49 68.79-84.68 99.4-85.65 79.01-203.88 141.49-348.84 183.05-180.7 52.23-396.679 72.11-624.402 57.24-221.051-14.08-435.36-61.14-619.422-136.09-199.785-81.25-363.29-193-485.744-332.2-123.666-141.07-212.431-316.796-256.217-508.745Zm745.072 834.115c183.301 74.67 396.58 121.68 616.869 135.47 226.695 14.83 441.894-4.82 622.074-57.08 199.47-57.65 347.95-154.48 429.28-279.52 129.7-199.89 110.74-495.982 91.19-809.364-6.96-108.517-13.77-220.629-15-330.46-1.04-120.903 5.55-239.436 12.24-354.099 16.13-290.807 30.39-541.745-79.43-725.797-71.91-120.931-204.55-218.55-372.87-274.82-161.96-54.22-340.349-65.55-502.226-32.66-292.829 59.56-526.402 266.075-773.357 484.935-26.458 23.413-53.987 47.813-81.226 71.451-25.655 22.673-52.36 45.817-77.994 67.975C-212.11-478.4-274.599-424.23-334.558-368.927-515.237-202.279-676.367-21.956-745.426 201.257c-50.017 160.069-54.354 350.339-12.353 535.514 43.581 190.656 131.358 365.309 254.819 505.079 121.713 138.4 284.478 249.35 482.987 330.29Z" fill="url(#i)"/><path d="M-648.819 744.268c-38.546-168.55-34.383-341.814 11.471-488.137 83.878-271.06 316.212-472.474 541.051-666.974 23.225-19.936 47.006-40.879 70.766-61.308 24.585-21.685 49.437-43.616 73.486-64.807 224.49-198.638 436.419-386.185 703.276-440.606 147.589-30.116 310.539-19.41 458.019 29.84 154.08 51.581 275.46 140.75 341.32 251.902 100.4 168.467 87.57 396.786 72.77 661.102-5.99 103.611-11.61 210.845-10.87 320.139.64 98.98 7.11 200.518 13.45 298.702 17.88 284.708 34.83 553.909-83.63 736.989-20.88 32.14-46.58 62.29-76.56 89.94-77.63 71.59-184.54 128.09-315.68 165.83-163.759 47.51-359.299 65.37-565.431 51.89-200.221-12.98-394.093-55.6-560.662-123.4-180.77-73.53-328.72-174.86-439.858-300.72-113.134-127.5-193.282-286.897-232.918-460.382ZM26.018 1499.01c165.807 67.51 358.918 109.85 558.38 122.54 205.37 13.19 400.131-4.45 562.832-51.48 180.43-51.98 314.62-139.59 388.51-252.83 117.36-181.06 100.34-448.726 82.42-732.401-6.35-98.184-12.54-199.965-13.43-299.216-.74-109.295 5.15-216.776 11.14-320.387 14.76-263.287 27.55-490.577-71.9-656.945-65.17-109.319-185.03-197.914-337.34-248.645-146.71-48.962-307.871-59.338-454.416-29.696-265.022 53.719-476.416 240.774-699.857 438.939-24.049 21.191-48.9 43.122-73.485 64.807-23.246 20.449-47.542 41.372-70.767 61.308-55.818 48.512-112.419 97.25-166.757 147.369-163.547 150.848-309.295 314.01-372.089 516.089-45.278 144.799-49.4 317.035-11.059 484.281 39.164 172.44 119.106 330.547 230.471 457.197 110.397 125.06 257.606 225.58 437.346 299.07Z" fill="url(#j)"/><path d="M-532.591 750.506c-34.355-151.108-30.918-306.366 10.196-437.418 75.263-242.805 283.033-423.049 484.38-597.366 21.104-18.475 42.188-36.436 63.292-54.911 21.908-19.215 44.083-38.678 65.476-57.914 200.977-177.941 390.98-345.759 629.781-394.611 132.252-26.87 278.244-17.365 410.466 26.631 138.07 46.035 246.68 126.186 305.79 225.726 90.03 150.783 78.42 355.185 65 591.983-5.04 92.826-10.72 188.719-9.77 286.424.54 88.67 6.41 179.363 11.87 267.459 16.25 255.005 31.51 496.051-74.84 660.031-18.68 28.62-41.69 55.78-68.72 80.72-69.33 63.95-165.18 114.71-283.03 148.6-146.795 42.26-321.649 58.39-506.454 46.55-179.416-11.37-352.852-49.56-502.176-110.49-162-66.06-294.661-156.72-393.949-269.74-99.781-113.55-171.847-256.135-207.312-411.674ZM72.275 1425.63c148.315 60.37 321.236 98.53 499.891 109.61 183.778 11.81 357.848-4.1 503.864-46.13 161.65-46.56 281.56-124.95 347.5-226.4 104.72-161.98 89.67-401.737 73.9-655.693-5.46-88.096-11.33-178.783-11.85-267.967-.68-97.955 4.74-194.115 9.78-286.94 13.12-235.523 24.69-438.896-64.13-587.826-58.15-97.955-165.51-176.767-301.8-222.473-131.194-43.954-275.639-53.396-406.598-26.732-237.231 48.4-426.185 215.745-626.606 392.678-21.907 19.215-43.568 38.698-65.743 58.161-21.105 18.475-41.942 36.703-63.293 54.91-50.197 43.328-100.416 87.169-149.132 132.103-146.417 135.047-277.05 281.297-333.044 461.742-40.537 129.534-43.932 283.758-10.029 433.303 35.259 154.24 106.337 295.754 206.386 409.054 98.258 112.98 229.911 203.08 390.904 268.6Z" fill="url(#k)"/><path d="M-416.364 756.749c-30.43-133.428-27.207-270.652 8.899-386.19C-341.063 155.744-157.341-3.31 20.491-156.931c18.696-16.252 37.124-32.258 55.82-48.511 19.497-16.994 38.749-34.255 57.98-51.002 177.464-157.244 345.293-305.6 556.53-348.349 116.914-23.624 245.701-15.588 362.649 23.668 121.8 40.74 217.89 111.623 270.53 199.306 79.39 133.345 69.53 313.85 57.47 523.131-4.61 82.02-9.31 166.616-8.93 252.96.44 78.355 5.7 158.711 10.57 235.961 14.09 225.281 27.65 438.177-66.08 583.077-16.49 25.62-36.78 49.28-60.6 71.26-61.29 56.53-146.34 101.29-249.86 131.38-129.585 37.29-284.273 51.65-447.222 40.95-158.336-10-311.85-43.78-443.681-97.55-142.986-58.35-260.357-138.34-348.062-238.26-89.207-101.01-152.922-227.023-183.969-364.341Zm534.381 595.481c131.07 53.48 283.574 86.7 441.132 96.93 162.186 10.42 316.09-3.72 444.891-40.78 142.37-41.15 248.49-110.31 306.74-199.7 92.61-142.89 79.25-354.487 65.12-578.74-4.84-77.759-10.1-158.119-10.55-236.475-.62-86.615 4.08-171.206 8.95-253.473 11.76-208.004 21.58-387.481-56.6-518.974-51.4-86.344-146-156.135-266.26-196.298-115.951-38.7-243.44-46.942-359.061-23.523C482.954-556.238 316.178-408.355 139.27-252.12c-19.252 17.261-38.482 34.009-57.98 51.002-18.696 16.253-37.124 32.259-55.819 48.512-44.33 38.411-88.66 76.82-131.755 116.57C-235.569 83.21-350.821 212.3-400.035 371.63c-35.55 114.532-38.978 250.458-8.754 382.588 31.088 136.29 94.084 260.981 182.036 361.171 86.429 99.62 202.793 179.05 344.77 236.84Z" fill="url(#l)"/><path d="M-300.383 762.722c-26.506-115.748-23.495-234.939 7.624-335.477 57.52-186.31 216.945-324.439 371.285-457.878 16.287-14.03 32.306-27.815 48.345-42.113 17.089-14.772 33.664-29.565 50.239-44.357 154.197-136.279 299.585-264.925 483.031-302.355 101.333-20.646 213.137-13.295 314.841 20.706 106.028 35.465 189.368 96.813 234.988 173.131 69.03 115.661 60.12 272.497 50.21 454.032-3.9 70.969-8.17 144.756-7.58 219.514.34 68.046 5.01 137.555 9.24 204.982 12.46 195.585 23.81 380.293-57.56 506.373-14.29 22.1-31.88 42.78-52.76 62.04-53.27 49.13-126.98 87.9-217.208 114.15-112.643 32.56-246.618 44.67-388.246 35.6-137.508-8.91-270.584-38.25-385.191-84.62-124.238-50.38-225.786-120.19-302.175-206.78-76.842-88.142-131.961-197.31-159.083-316.948Zm464.39 516.378c113.577 46.33 245.892 75.39 382.639 84 209.22 13.61 461.844-20.26 599.424-147.16 20.08-18.51 37.4-38.94 51.96-61.29 80.26-124.06 68.59-307.501 56.34-501.787-4.23-67.427-8.63-137.185-8.97-205.231-.57-75.272 3.43-148.81 7.59-220.027 10.12-180.238 18.99-336.045-49.07-450.12-44.66-74.733-126.74-135.258-230.729-170.124-100.433-33.692-210.954-40.734-310.995-20.294-181.369 36.999-326.219 165.151-479.613 300.69-16.575 14.792-33.664 29.564-50.239 44.356-16.286 14.031-32.058 28.083-48.345 42.114C45.805 7.474 6.83 40.947-30.377 75.263-142.531 178.71-242.401 290.64-285.35 428.836c-30.81 99.256-33.758 216.905-7.725 331.604 26.917 118.34 81.563 226.463 157.952 313.04 75.36 86.54 176.167 155.55 299.13 205.62Z" fill="url(#m)"/><path d="M-184.155 768.965c-22.314-98.311-20.031-199.496 6.595-284.492 48.905-158.059 184.281-274.996 314.882-388.52 13.877-11.809 27.508-23.885 40.87-35.715 14.166-12.57 28.332-25.141 42.745-37.444C351.62-92.788 474.833-201.972 630.466-233.567c86.002-17.4 180.843-11.249 267.304 17.497 90.013 29.922 160.57 82.25 199.45 146.956 58.64 98.49 51.22 231.164 42.68 385.18-3.46 60.161-6.76 122.649-6.47 185.799.51 57.488 4.05 116.644 7.67 173.739 10.31 165.86 20.47 322.438-48.79 429.416-12.64 19.59-27.78 37.02-45.18 53.07-118.039 108.87-334.397 138.02-513.031 126.42-245.728-15.59-458.292-105.87-582.72-247.22-65.815-74.039-112.563-167.157-135.534-268.325Zm718.298 508.075c177.092 11.53 391.103-16.93 507.537-124.33 16.86-15.55 31.73-32.73 44.11-52.07 67.88-104.72 58.18-260.248 47.56-424.832-3.61-57.1-7.15-116.256-7.91-174.009-.26-63.664 3.03-126.152 6.5-186.313 8.74-152.718 15.87-284.63-41.31-381-75.77-127.272-277.271-198.032-458.639-161.033C478.429-195.384 355.755-86.694 225.875 28.148c-14.166 12.57-28.332 25.14-42.745 37.443-13.631 12.077-27.24 23.639-40.87 35.716-32.573 28.061-65.167 56.638-96.752 85.771-95.023 87.644-179.511 182.414-215.927 299.229-26.069 83.985-28.559 183.871-6.449 280.89 22.766 99.875 68.794 191.673 133.6 265.153 122.927 140.26 333.473 229.43 577.411 244.69Z" fill="url(#n)"/><path d="M-68.193 775.451c-18.39-80.631-16.32-163.782 5.32-233.778 40.29-129.799 150.856-225.834 258.457-318.641 11.222-9.855 22.69-19.442 33.644-29.05 11.757-10.348 23.246-20.45 35.002-30.799C371.401 68.298 472.684-21.155 600.261-47.184 751.745-77.916 919.942-18.55 983.418 87.867c48.282 80.805 41.812 189.807 34.912 316.058-2.78 49.625-5.6 100.278-5.13 152.351.42 47.178 3.36 95.489 6.37 142.252 8.67 136.158 16.63 264.553-40.008 352.463-10.442 16.07-22.879 30.51-37.067 43.6-97.163 89.62-274.387 113.38-421.159 104.11-201.769-13.05-375.828-86.83-478.346-202.808-53.697-61.437-92.115-137.467-111.183-220.441Zm589.839 415.529c144.959 9.46 320.377-14.12 415.666-102.01 13.918-12.84 25.818-26.79 36.244-42.35 55.524-85.888 47.524-213.256 39.054-348.115-3-46.769-6.2-95.345-6.34-142.766-.48-52.072 2.63-103.488 5.14-152.865 7.11-124.953 13.29-233.197-34.042-311.903C915.35-13.325 750.424-70.754 601.802-40.68 475.789-15.103 375.556 73.878 269.189 168.022c-11.757 10.349-23.246 20.45-35.002 30.799-11.222 9.855-22.443 19.709-33.644 29.05-26.705 23.144-53.41 46.288-79.374 70.239C43.544 369.708-25.829 447.566-55.465 543.259c-21.33 68.719-23.338 150.329-5.421 229.911 18.595 81.924 56.541 156.898 109.518 217.021C149.38 1105.33 321.67 1178.26 521.646 1190.98Z" fill="url(#o)"/><path d="M52.078 598.63c31.408-101.295 118.193-176.385 201.788-249.033 8.812-7.63 17.625-15.266 26.169-22.653 9.081-7.878 18.428-16.005 27.261-24.149 83.656-74.19 162.763-144.181 262.533-164.375 103.931-21.056 244.315 12.446 299.808 105.913 37.641 63.368 32.918 148.475 27.382 247.206-2.072 38.576-4.459 78.422-4.288 118.887.315 36.862 2.669 74.322 4.796 111.002 6.79 106.19 13.028 206.944-31.233 275.509a183.151 183.151 0 0 1-28.951 34.133c-76.018 70.12-214.899 88.73-329.272 81.28-157.556-10.23-293.873-67.79-373.698-158.635C49.383 856.735 16.24 713.92 52.078 598.63Zm457.065 506.29c112.831 7.39 249.635-10.79 323.775-79.18 10.707-9.87 20.183-21.09 28.133-32.881 43.145-66.548 37.111-166.003 30.277-271.166-2.392-36.431-4.724-74.405-5.039-111.273-.414-40.73 1.967-80.576 4.31-119.395 5.491-97.703 10.177-181.783-26.52-243.051-48.278-80.806-176.59-125.933-292.211-102.514-97.963 20.009-176.266 89.26-259.119 162.705-9.081 7.884-18.181 16.277-27.262 24.155-8.812 7.636-17.624 15.266-26.437 22.901-20.569 17.979-41.92 36.189-61.996 54.703-60.493 55.797-114.731 116.224-137.855 191.054-34.643 111.218-1.252 254.298 81.288 348.085 78.345 89.237 212.892 145.957 368.656 155.857Z" fill="url(#p)"/><path d="M167.277 655.852c22.547-73.306 85.283-127.207 145.385-179.672 6.403-5.409 12.56-11.089 18.963-16.498 6.671-5.658 13.095-11.58 19.766-17.238 60.39-53.228 117.32-103.754 189.034-118.384 75.096-15.26 176.413 9.188 216.729 76.532 27.276 45.681 24.017 107.141 19.851 178.358-1.636 27.763-3.044 56.31-2.934 85.438.216 26.548 1.956 53.681 3.735 79.775 4.89 76.737 9.453 148.821-22.967 198.535-6.034 9.033-12.807 17.265-21.106 24.917-54.874 50.605-154.887 64.095-237.132 58.705-113.616-7.16-211.655-49.003-269.323-114.208-62.111-70.03-86.029-173.303-60.001-256.26Zm329.368 362.998c92.781 6.07 207.413-11.97 251.923-80.274 30.785-47.719 26.183-118.77 21.497-194.208-1.508-26.343-3.248-53.477-3.464-80.024-.359-29.393 1.321-58.189 2.956-85.952 3.857-69.941 7.315-130.103-18.746-173.932-34.515-57.83-125.992-89.875-208.618-73.112-70.151 14.177-126.279 63.962-185.864 116.45-6.425 5.923-13.095 11.58-19.766 17.238-6.404 5.409-12.56 11.088-18.964 16.497a1625.107 1625.107 0 0 0-44.371 39.443c-43.363 39.995-82.219 83.267-98.809 136.71-24.854 79.4-.916 182.159 57.966 249.221 56.165 64.112 152.456 104.603 264.26 111.943Z" fill="url(#q)"/></g></g><defs><linearGradient id="b" x1="0" y1="0" x2="655.649" y2="71.056" gradientUnits="userSpaceOnUse"><stop stop-color="#8FB9D0"/><stop offset="1" stop-color="#719BB2"/></linearGradient><linearGradient id="d" x1="-259.5" y1="-270.5" x2="1015" y2="504.5" gradientUnits="userSpaceOnUse"><stop stop-color="#8FB9D0"/><stop offset="1" stop-color="#7BA5BC"/></linearGradient><linearGradient id="e" x1="-213.061" y1="-201.667" x2="979.574" y2="523.452" gradientUnits="userSpaceOnUse"><stop stop-color="#8FB9D0"/><stop offset="1" stop-color="#7BA5BC"/></linearGradient><linearGradient id="f" x1="-166.523" y1="-132.579" x2="944.42" y2="543.106" gradientUnits="userSpaceOnUse"><stop stop-color="#8FB9D0"/><stop offset="1" stop-color="#7BA5BC"/></linearGradient><linearGradient id="g" x1="-120.056" y1="-63.802" x2="909.106" y2="562.027" gradientUnits="userSpaceOnUse"><stop stop-color="#8FB9D0"/><stop offset="1" stop-color="#7BA5BC"/></linearGradient><linearGradient id="h" x1="-73.85" y1="5.37" x2="873.442" y2="581.368" gradientUnits="userSpaceOnUse"><stop stop-color="#8FB9D0"/><stop offset="1" stop-color="#7BA5BC"/></linearGradient><linearGradient id="i" x1="-27.485" y1="74.21" x2="838.146" y2="600.621" gradientUnits="userSpaceOnUse"><stop stop-color="#8FB9D0"/><stop offset="1" stop-color="#7BA5BC"/></linearGradient><linearGradient id="j" x1="19.155" y1="143.044" x2="803.021" y2="619.809" gradientUnits="userSpaceOnUse"><stop stop-color="#8FB9D0"/><stop offset="1" stop-color="#7BA5BC"/></linearGradient><linearGradient id="k" x1="65.482" y1="211.822" x2="767.371" y2="638.654" gradientUnits="userSpaceOnUse"><stop stop-color="#8FB9D0"/><stop offset="1" stop-color="#7BA5BC"/></linearGradient><linearGradient id="l" x1="112.054" y1="281.658" x2="732.124" y2="658.822" gradientUnits="userSpaceOnUse"><stop stop-color="#8FB9D0"/><stop offset="1" stop-color="#7BA5BC"/></linearGradient><linearGradient id="m" x1="158.378" y1="350.376" x2="696.795" y2="677.781" gradientUnits="userSpaceOnUse"><stop stop-color="#8FB9D0"/><stop offset="1" stop-color="#7BA5BC"/></linearGradient><linearGradient id="n" x1="205.036" y1="419.113" x2="661.605" y2="696.909" gradientUnits="userSpaceOnUse"><stop stop-color="#8FB9D0"/><stop offset="1" stop-color="#7BA5BC"/></linearGradient><linearGradient id="o" x1="251.271" y1="488.357" x2="626.014" y2="716.394" gradientUnits="userSpaceOnUse"><stop stop-color="#8FB9D0"/><stop offset="1" stop-color="#7BA5BC"/></linearGradient><linearGradient id="p" x1="297.183" y1="557.243" x2="590.042" y2="735.419" gradientUnits="userSpaceOnUse"><stop stop-color="#8FB9D0"/><stop offset="1" stop-color="#7BA5BC"/></linearGradient><linearGradient id="q" x1="344.217" y1="626.054" x2="555.543" y2="754.827" gradientUnits="userSpaceOnUse"><stop stop-color="#8FB9D0"/><stop offset="1" stop-color="#7BA5BC"/></linearGradient><clipPath id="a"><path fill="#fff" d="M0 0h620v400H0z"/></clipPath></defs></svg>