<svg width="45" height="45" fill="none" xmlns="http://www.w3.org/2000/svg"><g clip-path="url(#a)"><path d="M22.5 45C34.926 45 45 34.926 45 22.5S34.926 0 22.5 0 0 10.074 0 22.5 10.074 45 22.5 45Z" fill="#D80027"/><path fill-rule="evenodd" clip-rule="evenodd" d="m24.436 13.536.258-4.969a.044.044 0 0 0-.088-.012l-1.274 4.79a.562.562 0 1 0 1.104.192Zm1.372.42 1.036-4.867a.044.044 0 0 0-.084-.026l-2.012 4.529a.561.561 0 1 0 1.06.363Zm1.288.63 1.79-4.643a.044.044 0 0 0-.08-.039l-2.7 4.156a.561.561 0 1 0 .99.526Zm1.174.823 2.494-4.305a.044.044 0 0 0-.072-.05l-3.317 3.681a.561.561 0 1 0 .895.674Zm1.03.996 3.134-3.865a.044.044 0 0 0-.003-.059.044.044 0 0 0-.06-.002L28.52 15.6a.561.561 0 1 0 .78.805Zm.863 1.144 3.697-3.33a.044.044 0 0 0-.053-.07l-4.289 2.484a.561.561 0 1 0 .644.916Zm.674 1.266 4.172-2.71a.044.044 0 0 0-.041-.078l-4.624 1.782a.561.561 0 1 0 .493 1.006Zm.466 1.356 4.547-2.02a.044.044 0 0 0-.028-.083L30.975 19.1a.561.561 0 1 0 .329 1.07Zm.247 1.413 4.809-1.279a.044.044 0 0 0-.016-.087l-4.949.257a.561.561 0 1 0 .156 1.11Zm.024 1.433 4.949-.517a.044.044 0 0 0-.002-.088l-4.929-.515a.563.563 0 0 0-.609.56.561.561 0 0 0 .591.56Zm-.198 1.419 4.969.258a.044.044 0 0 0 .012-.088l-4.789-1.274a.561.561 0 1 0-.192 1.104Zm-.419 1.372 4.866 1.036a.044.044 0 0 0 .052-.03.044.044 0 0 0-.026-.054l-4.529-2.012a.561.561 0 1 0-.363 1.06Zm-.63 1.288 4.642 1.79a.044.044 0 0 0 .039-.08l-4.156-2.7a.561.561 0 1 0-.525.99Zm-.824 1.173 4.305 2.495a.044.044 0 0 0 .05-.072l-3.681-3.317a.561.561 0 1 0-.674.895Zm-.996 1.03 3.865 3.135a.044.044 0 0 0 .059-.003.044.044 0 0 0 .002-.06l-3.121-3.85a.561.561 0 1 0-.805.78Zm-1.144.864 3.33 3.697c.014.017.04.02.058.006a.044.044 0 0 0 .012-.059l-2.484-4.289a.561.561 0 1 0-.916.644Zm-1.266.674 2.71 4.172a.044.044 0 0 0 .078-.042l-1.782-4.623a.561.561 0 1 0-1.006.493Zm-1.356.466 2.02 4.547c.009.02.032.032.054.025a.044.044 0 0 0 .029-.053l-1.032-4.847a.561.561 0 1 0-1.07.329Zm-1.413.247 1.279 4.809a.044.044 0 0 0 .087-.015l-.257-4.95a.561.561 0 1 0-1.115.127l.006.03Zm-1.433.024.517 4.949a.044.044 0 0 0 .088-.002l.515-4.929a.562.562 0 1 0-1.12-.018Zm-1.419-.198-.258 4.969a.044.044 0 0 0 .088.012l1.274-4.789a.561.561 0 1 0-1.104-.192Zm-1.371-.42-1.037 4.867a.044.044 0 0 0 .084.026l2.012-4.529a.561.561 0 1 0-1.06-.363Zm-1.289-.63-1.79 4.643a.045.045 0 0 0 .021.056c.021.01.047.003.058-.017l2.7-4.156a.561.561 0 1 0-.99-.526Zm-1.173-.823-2.495 4.305a.044.044 0 0 0 .073.05l3.317-3.681a.561.561 0 1 0-.895-.674Zm-1.03-.996-3.135 3.865a.044.044 0 0 0 .003.059.044.044 0 0 0 .06.002l3.85-3.121a.561.561 0 1 0-.78-.805Zm-.864-1.144-3.697 3.33a.044.044 0 0 0 .053.07l4.289-2.484a.562.562 0 1 0-.644-.916Zm-.674-1.266-4.172 2.71a.044.044 0 0 0 .041.078l4.624-1.782a.561.561 0 1 0-.493-1.006Zm-.466-1.356-4.547 2.02a.044.044 0 0 0 .029.083l4.846-1.032a.561.561 0 1 0-.329-1.07Zm-.247-1.413-4.809 1.279a.044.044 0 0 0 .015.087l4.95-.257a.561.561 0 1 0-.156-1.11Zm-.024-1.433-4.949.517a.044.044 0 0 0 .002.088l4.929.515a.561.561 0 1 0 .018-1.12Zm.198-1.419-4.969-.258a.044.044 0 0 0-.012.088l4.79 1.274a.561.561 0 1 0 .192-1.104Zm.42-1.371-4.867-1.037a.044.044 0 0 0-.052.03.044.044 0 0 0 .026.054l4.529 2.012c.015.007.03.012.045.017a.561.561 0 1 0 .318-1.076Zm.63-1.289-4.643-1.79a.044.044 0 0 0-.039.08l4.156 2.7a.561.561 0 1 0 .525-.99Zm.823-1.173-4.305-2.495a.044.044 0 0 0-.058.013.044.044 0 0 0 .007.06l3.682 3.317.038.03a.561.561 0 1 0 .636-.925Zm.996-1.03-3.865-3.135a.044.044 0 0 0-.059.003.044.044 0 0 0-.002.06l3.121 3.85c.01.013.021.024.033.036a.561.561 0 1 0 .772-.815Zm1.144-.864-3.33-3.697a.044.044 0 0 0-.07.053l2.484 4.289a.561.561 0 1 0 .916-.644Zm1.266-.674-2.71-4.172a.044.044 0 0 0-.078.041l1.782 4.624c.006.016.013.03.02.044a.561.561 0 1 0 .986-.537Zm1.356-.466-2.02-4.547a.044.044 0 0 0-.083.028l1.032 4.847a.561.561 0 1 0 1.07-.329Zm1.413-.247-1.279-4.809a.044.044 0 0 0-.05-.032.044.044 0 0 0-.037.048l.257 4.949a.561.561 0 1 0 1.11-.156Zm1.433-.024L22.5 8.389a.044.044 0 0 0-.088.002l-.515 4.929a.561.561 0 1 0 1.12.018Zm-.56.595a8.523 8.523 0 1 1-.001 17.046 8.523 8.523 0 0 1 0-17.046Zm0 1.022a7.501 7.501 0 1 1 0 15.002 7.501 7.501 0 0 1 0-15.002Zm-6.264 9.752a14.838 14.838 0 0 1 3.052-4.213c.192.125.381.256.57.391a14.771 14.771 0 0 0-3.256 4.618 6.69 6.69 0 0 1-.366-.796Zm6.792-3.871c.174.146.346.296.514.452.18-.148.363-.29.548-.428-.169-.153-.34-.301-.514-.445a16.02 16.02 0 0 0-.548.42Zm-1.09-.832c.19.131.376.267.561.408.185-.14.372-.277.56-.408a16.079 16.079 0 0 0-.56-.41 15.72 15.72 0 0 0-.56.41Zm.05 1.742c.174.156.344.318.511.484.167-.166.338-.328.51-.484-.167-.16-.337-.316-.51-.467a15.77 15.77 0 0 0-.51.467Zm-1.08-.886c.185.137.368.28.548.428.169-.156.34-.306.514-.452-.18-.145-.363-.285-.548-.421-.174.144-.345.292-.513.445Zm3.356-1.614a16.348 16.348 0 0 0-.564-.41c-.216.123-.43.252-.643.387.194.129.386.263.576.401.209-.131.419-.257.631-.378Zm.993.824c-.167-.15-.336-.297-.508-.438-.203.122-.404.25-.603.384.175.14.349.285.52.434.195-.132.392-.258.591-.38Zm-3.434-1.586c.223-.143.449-.279.676-.409.227.13.453.267.676.41-.227.122-.453.25-.676.386a16.174 16.174 0 0 0-.676-.387Zm-1.089.762c.186-.141.374-.278.564-.41.216.123.43.252.643.387-.194.129-.386.263-.576.401a16.123 16.123 0 0 0-.63-.378Zm-.993.824c.167-.15.336-.297.508-.438.203.122.404.25.603.384-.175.14-.349.285-.52.434a15.804 15.804 0 0 0-.59-.38Zm-3.13-.98c.694.277 1.386.619 2.062 1.02a14.627 14.627 0 0 0-2.74 3.57 6.733 6.733 0 0 1 .679-4.59Zm.57-.873c.819.264 1.642.62 2.447 1.058-.173.139-.345.282-.513.43a17.1 17.1 0 0 0-2.253-1.036c.1-.155.207-.306.32-.452Zm.716-.79a13.87 13.87 0 0 1 2.785 1.075c-.194.13-.386.265-.576.405a17.56 17.56 0 0 0-2.604-1.075 6.87 6.87 0 0 1 .395-.406Zm1.043-.808.062.022.074.02c.941.244 1.899.614 2.837 1.096-.239.13-.475.267-.708.41a17.854 17.854 0 0 0-2.766-1.068l-.118-.04c.197-.158.404-.305.619-.44Zm6.547-.32a2.03 2.03 0 0 0-.07.023c-.98.285-1.962.658-2.918 1.13-.937-.463-1.9-.83-2.861-1.114l-.056-.016a.823.823 0 0 1-.072-.022 6.679 6.679 0 0 1 2.99-.702 6.68 6.68 0 0 1 2.986.7Zm1.197.765a17.846 17.846 0 0 0-2.89 1.104c-.234-.144-.47-.28-.709-.41a13.825 13.825 0 0 1 2.982-1.133c.214.135.42.281.617.439Zm.813.768c-.878.284-1.753.639-2.605 1.075a15.77 15.77 0 0 0-.576-.405 13.86 13.86 0 0 1 2.785-1.076c.138.13.27.265.396.406Zm.64.837c-.763.287-1.518.63-2.254 1.036-.168-.148-.34-.291-.513-.43a14.394 14.394 0 0 1 2.446-1.058c.113.146.22.297.32.452Zm.928 5.01a14.622 14.622 0 0 0-2.74-3.57 14.97 14.97 0 0 1 2.061-1.02 6.725 6.725 0 0 1 .678 4.59Zm-.67 1.824a14.771 14.771 0 0 0-3.254-4.618c.188-.135.378-.266.569-.391a14.835 14.835 0 0 1 3.053 4.213 6.76 6.76 0 0 1-.367.796Zm-1.044 1.432c-.817-2.106-1.968-3.81-3.319-5.175.178-.153.357-.301.54-.446 1.398 1.375 2.575 3.044 3.34 4.95a6.74 6.74 0 0 1-.56.671Zm-1.266 1.039-.09-.24c-.74-2-1.779-3.647-3.004-4.99.167-.173.338-.341.512-.506 1.402 1.465 2.555 3.237 3.248 5.254a6.741 6.741 0 0 1-.666.482Zm-6.49.379.086-.268c.618-1.815 1.608-3.433 2.818-4.808 1.21 1.375 2.2 2.993 2.818 4.808l.088.267a6.68 6.68 0 0 1-2.906.66 6.68 6.68 0 0 1-2.903-.66Zm-1.348-.861c.693-2.017 1.846-3.79 3.248-5.254.174.165.345.333.512.506-1.225 1.343-2.264 2.99-3.005 4.99l-.089.24a6.75 6.75 0 0 1-.666-.482Zm-1.161-1.227c.765-1.907 1.942-3.576 3.34-4.95.183.144.363.292.54.445-1.35 1.365-2.502 3.07-3.32 5.175a6.768 6.768 0 0 1-.56-.67Z" fill="#FFED00"/></g><defs><clipPath id="a"><path fill="#fff" d="M0 0h45v45H0z"/></clipPath></defs></svg>