<svg width="378" height="45" fill="none" xmlns="http://www.w3.org/2000/svg"><path d="M6.55 35H.5V0h6.05v15.35L22.25 0h7.9l-15.9 15.7L31.3 35h-8.05L9.7 19.75 6.55 22.8V35Zm29.884-18.55-2.8-4.2c1.3-1.233 2.95-2.183 4.95-2.85 2-.667 3.984-1 5.95-1 3.434 0 6.067.933 7.9 2.8 1.834 1.833 2.75 4.467 2.75 7.9V35h-5.7v-2.85c-1.9 2.1-4.583 3.15-8.05 3.15-2.7 0-4.95-.7-6.75-2.1-1.8-1.433-2.7-3.467-2.7-6.1 0-1.6.367-2.967 1.1-4.1.734-1.133 1.734-1.983 3-2.55a16.574 16.574 0 0 1 3.85-1.2c1.3-.267 2.7-.4 4.2-.4 1.967 0 3.75.233 5.35.7.067-1.833-.333-3.283-1.2-4.35-.866-1-2.333-1.5-4.4-1.5-2.566 0-5.05.917-7.45 2.75Zm6.25 13.9a8.424 8.424 0 0 0 3.9-.95c1.234-.633 2.2-1.5 2.9-2.6v-2.5c-1.666-.467-3.25-.7-4.75-.7-4.566 0-6.85 1.15-6.85 3.45 0 1.133.484 1.967 1.45 2.5 1 .533 2.117.8 3.35.8ZM66.044 45h-5.7V9h5.7v2.35c.766-.967 1.8-1.7 3.1-2.2 1.333-.5 2.7-.75 4.1-.75 3.9 0 6.966 1.233 9.2 3.7 2.266 2.467 3.4 5.617 3.4 9.45 0 4-1.2 7.317-3.6 9.95-2.367 2.633-5.5 3.95-9.4 3.95-1.234 0-2.534-.167-3.9-.5-1.334-.367-2.3-.917-2.9-1.65V45Zm6.6-31.3a7.19 7.19 0 0 0-3.95 1.15c-1.167.767-2.05 1.8-2.65 3.1v9c1.3 2.133 3.35 3.2 6.15 3.2 2.366 0 4.25-.75 5.65-2.25 1.4-1.533 2.1-3.5 2.1-5.9 0-2.467-.617-4.467-1.85-6-1.234-1.533-3.05-2.3-5.45-2.3Zm23.115.6h-9.4V9h24.5v5.3h-9.4V35h-5.7V14.3Zm20.705 2.15-2.8-4.2c1.3-1.233 2.95-2.183 4.95-2.85 2-.667 3.983-1 5.95-1 3.433 0 6.066.933 7.9 2.8 1.833 1.833 2.75 4.467 2.75 7.9V35h-5.7v-2.85c-1.9 2.1-4.584 3.15-8.05 3.15-2.7 0-4.95-.7-6.75-2.1-1.8-1.433-2.7-3.467-2.7-6.1 0-1.6.366-2.967 1.1-4.1.733-1.133 1.733-1.983 3-2.55a16.565 16.565 0 0 1 3.85-1.2c1.3-.267 2.7-.4 4.2-.4 1.966 0 3.75.233 5.35.7.066-1.833-.334-3.283-1.2-4.35-.867-1-2.334-1.5-4.4-1.5-2.567 0-5.05.917-7.45 2.75Zm6.25 13.9a8.428 8.428 0 0 0 3.9-.95c1.233-.633 2.2-1.5 2.9-2.6v-2.5c-1.667-.467-3.25-.7-4.75-.7-4.567 0-6.85 1.15-6.85 3.45 0 1.133.483 1.967 1.45 2.5 1 .533 2.116.8 3.35.8ZM159.089 35h-6.05V0h6.05v15.35L174.789 0h7.9l-15.9 15.7 17.05 19.3h-8.05l-13.55-15.25-3.15 3.05V35Zm45.834-16.9-13.8 16.9h-4.95V9h5.7v16.95L205.673 9h4.95v26h-5.7V18.1ZM221.659 45h-5.7V9h5.7v2.35c.766-.967 1.8-1.7 3.1-2.2 1.333-.5 2.7-.75 4.1-.75 3.9 0 6.966 1.233 9.2 3.7 2.266 2.467 3.4 5.617 3.4 9.45 0 4-1.2 7.317-3.6 9.95-2.367 2.633-5.5 3.95-9.4 3.95-1.234 0-2.534-.167-3.9-.5-1.334-.367-2.3-.917-2.9-1.65V45Zm6.6-31.3c-1.434 0-2.75.383-3.95 1.15-1.167.767-2.05 1.8-2.65 3.1v9c1.3 2.133 3.35 3.2 6.15 3.2 2.366 0 4.25-.75 5.65-2.25 1.4-1.533 2.1-3.5 2.1-5.9 0-2.467-.617-4.467-1.85-6-1.234-1.533-3.05-2.3-5.45-2.3ZM251.248 35h-5.7V9h19.6v5.3h-13.9V35Zm35.511-16.9-13.8 16.9h-4.95V9h5.7v16.95L287.509 9h4.95v26h-5.7V18.1Zm20.786 17.5c-5.5 0-9.5-2.1-12-6.3l4.3-3a8.3 8.3 0 0 0 3.25 3.1c1.4.7 2.9 1.05 4.5 1.05a9.35 9.35 0 0 0 3.95-.85c1.233-.567 1.85-1.483 1.85-2.75 0-1.733-1.384-2.6-4.15-2.6h-5.75V19.3h5.45c.933 0 1.75-.233 2.45-.7.733-.5 1.1-1.183 1.1-2.05 0-1.1-.517-1.9-1.55-2.4-1.034-.5-2.167-.75-3.4-.75-3 0-5.45 1.167-7.35 3.5l-4.05-2.7c1.133-1.967 2.766-3.45 4.9-4.45 2.133-1 4.4-1.5 6.8-1.5 1.766 0 3.4.217 4.9.65 1.5.4 2.816 1.2 3.95 2.4 1.133 1.167 1.7 2.65 1.7 4.45 0 2.1-.85 3.833-2.55 5.2 2.3 1.3 3.45 3.25 3.45 5.85 0 2-.634 3.7-1.9 5.1-1.234 1.367-2.7 2.333-4.4 2.9-1.7.533-3.517.8-5.45.8Zm34.488-17.5-13.8 16.9h-4.95V9h5.7v16.95L342.783 9h4.95v26h-5.7V18.1Zm29.785 0-13.8 16.9h-4.95V9h5.7v16.95L372.568 9h4.95v26h-5.7V18.1Z" fill="#fff"/></svg>