<svg width="53" height="58" viewBox="0 0 53 58" fill="none" xmlns="http://www.w3.org/2000/svg">
<path d="M33.2151 54.1866C38.9327 52.6466 43.8746 49.0378 47.082 44.0604C50.2895 39.083 51.5339 33.0916 50.5739 27.2486C49.6139 21.4055 46.5179 16.1273 41.8865 12.4378C37.2551 8.74822 31.4184 6.91036 25.5087 7.28067C19.5989 7.65099 14.0373 10.2031 9.90268 14.4419C5.76808 18.6808 3.35523 24.3042 3.13216 30.2214C2.90908 36.1385 4.89169 41.9277 8.6954 46.4658C12.4991 51.0039 17.8528 53.9675 23.7179 54.7817C26.8915 55.2241 30.1216 55.0217 33.2151 54.1866V54.1866ZM20.8348 7.98249C33.5478 4.57603 46.662 12.1475 50.0684 24.8605C53.4749 37.5736 45.9034 50.6877 33.1904 54.0942C20.4773 57.5006 7.36317 49.9292 3.95671 37.2161C0.550258 24.5031 8.12171 11.3889 20.8348 7.98249Z" fill="white"/>
<path d="M46.5964 11.3855L46.6641 11.4531L36.6884 21.4288L36.6208 21.3611L46.5964 11.3855Z" fill="white"/>
<path d="M27.1029 31.5482L27.1953 31.5234L34.242 57.8219L34.1496 57.8467L27.1029 31.5482Z" fill="white"/>
<path d="M18.7982 0.556011L18.8906 0.53125L26.3188 28.2537L26.2264 28.2785L18.7982 0.556011Z" fill="white"/>
<path d="M23.0749 16.3433C19.4454 17.3207 16.3083 19.6114 14.2722 22.7709C12.236 25.9304 11.4459 29.7336 12.0551 33.4427C12.6643 37.1518 14.6294 40.5024 17.5692 42.8446C20.509 45.1868 24.214 46.3537 27.9654 46.1188C31.7169 45.8839 35.2474 44.2641 37.8721 41.5735C40.4969 38.8829 42.0287 35.3133 42.1705 31.5572C42.3124 27.8011 41.0541 24.1262 38.6397 21.2453C36.2254 18.3644 32.8271 16.483 29.104 15.9658C27.0896 15.6847 25.0391 15.8131 23.0754 16.3432L23.0749 16.3433ZM23.0506 16.2508C31.2163 14.0628 39.6097 18.9087 41.7977 27.0744C43.9856 35.24 39.1397 43.6334 30.974 45.8214C22.8084 48.0094 14.415 43.1635 12.227 34.9978C10.039 26.8322 14.885 18.4388 23.0506 16.2508Z" fill="white"/>
<path d="M32.2998 30.5766C32.3135 30.7314 32.3203 30.8856 32.3202 31.0391L27.0096 31.0394L32.2998 30.5766ZM32.1393 32.4138C32.0992 32.5632 32.0524 32.7104 31.9992 32.8554L27.0096 31.0394L32.1393 32.4138ZM31.3586 34.0834C31.2701 34.2101 31.1761 34.3327 31.0768 34.4511L27.0096 31.0394L31.3586 34.0834ZM30.0554 35.3888C29.9294 35.4771 29.7991 35.5598 29.6643 35.6372L27.0096 31.0394L30.0554 35.3888ZM27.0078 31.0384L28.3824 36.1684C28.2318 36.2088 28.0811 36.2422 27.9304 36.2687L27.0078 31.0384ZM27.0078 31.0384L26.5438 36.3297C26.3893 36.316 26.2353 36.2959 26.0819 36.2693L27.0078 31.0384ZM27.0078 31.0384L24.7635 35.849C24.6233 35.7841 24.4862 35.7124 24.3526 35.6353L27.0078 31.0384ZM27.0078 31.0384L23.2525 34.7935C23.1438 34.6847 23.0395 34.5708 22.9397 34.452L27.0078 31.0384ZM27.0078 31.0384L22.6573 34.0859C22.5691 33.96 22.4863 33.8296 22.409 33.6949L27.0078 31.0384ZM27.0078 31.0384L23.9638 35.3873C23.8371 35.2988 23.7145 35.2049 23.5961 35.1055L27.0078 31.0384ZM27.0078 31.0384L25.6334 36.1681C25.484 36.1279 25.3368 36.0812 25.1918 36.028L27.0078 31.0384ZM27.0078 31.0384L27.4706 36.3285C27.3158 36.3423 27.1616 36.3491 27.0081 36.349L27.0078 31.0384ZM29.2539 35.8522C29.1147 35.9166 28.9719 35.9755 28.8254 36.0289L27.0096 31.0394L29.2539 35.8522ZM30.7647 34.7947C30.6557 34.9038 30.5418 35.0081 30.4232 35.1075L27.0096 31.0394L30.7647 34.7947ZM31.8217 33.2833C31.7567 33.4235 31.685 33.5606 31.6079 33.6942L27.0096 31.0394L31.8217 33.2833ZM32.301 31.5034C32.2873 31.6579 32.2669 31.811 32.2398 31.9625L27.0096 31.0394L32.301 31.5034ZM32.3006 30.5779C32.3144 30.7327 32.3212 30.8869 32.321 31.0404L27.0096 31.0394L32.3006 30.5779ZM32.301 31.5034C32.2873 31.6579 32.2669 31.811 32.2398 31.9625L27.0096 31.0394L32.301 31.5034ZM32.1397 32.4152C32.0995 32.5646 32.0528 32.7118 31.9996 32.8568L27.0096 31.0394L32.1397 32.4152ZM31.3586 34.0834C31.2701 34.2101 31.1761 34.3327 31.0768 34.4511L27.0096 31.0394L31.3586 34.0834ZM30.0554 35.3888C29.9294 35.4771 29.7991 35.5598 29.6643 35.6372L27.0096 31.0394L30.0554 35.3888ZM27.0078 31.0384L28.3824 36.1684C28.2318 36.2088 28.0811 36.2422 27.9304 36.2687L27.0078 31.0384ZM27.0078 31.0384L26.5438 36.3297C26.3893 36.316 26.2353 36.2959 26.0819 36.2693L27.0078 31.0384ZM27.0078 31.0384L24.7635 35.849C24.6233 35.7841 24.4862 35.7124 24.3526 35.6353L27.0078 31.0384ZM27.0078 31.0384L23.2525 34.7935C23.1438 34.6847 23.0395 34.5708 22.9397 34.452L27.0078 31.0384ZM27.0078 31.0384L22.6573 34.0859C22.5691 33.96 22.4863 33.8296 22.409 33.6949L27.0078 31.0384ZM27.0078 31.0384L23.9638 35.3873C23.8371 35.2988 23.7145 35.2049 23.5961 35.1055L27.0078 31.0384ZM27.0078 31.0384L25.6334 36.1681C25.484 36.1279 25.3368 36.0812 25.1918 36.028L27.0078 31.0384ZM27.0078 31.0384L27.4706 36.3285C27.3158 36.3423 27.1616 36.3491 27.0081 36.349L27.0078 31.0384ZM29.2539 35.8522C29.1147 35.9166 28.9719 35.9755 28.8254 36.0289L27.0096 31.0394L29.2539 35.8522ZM30.7647 34.7947C30.6557 34.9038 30.5418 35.0081 30.4232 35.1075L27.0096 31.0394L30.7647 34.7947ZM31.8217 33.2833C31.7567 33.4235 31.685 33.5606 31.6079 33.6942L27.0096 31.0394L31.8217 33.2833ZM32.2998 30.5766C32.3135 30.7314 32.3203 30.8856 32.3202 31.0391L27.0096 31.0394L32.2998 30.5766ZM32.3001 31.5021C32.2864 31.6566 32.266 31.8097 32.2389 31.9612L27.0096 31.0394L32.3001 31.5021ZM32.1389 32.4139C32.0987 32.5633 32.052 32.7106 31.9987 32.8556L27.0096 31.0394L32.1389 32.4139ZM31.8212 33.2835C31.7563 33.4237 31.6845 33.5607 31.6074 33.6943L27.0096 31.0394L31.8212 33.2835ZM31.3586 34.0834C31.2701 34.2101 31.1761 34.3327 31.0768 34.4511L27.0096 31.0394L31.3586 34.0834ZM30.0554 35.3888C29.9294 35.4771 29.7991 35.5598 29.6643 35.6372L27.0096 31.0394L30.0554 35.3888ZM27.0078 31.0384L28.3824 36.1684C28.2318 36.2088 28.0811 36.2422 27.9304 36.2687L27.0078 31.0384ZM27.0078 31.0384L26.5438 36.3297C26.3893 36.316 26.2353 36.2959 26.0819 36.2693L27.0078 31.0384ZM27.0078 31.0384L24.7635 35.849C24.6233 35.7841 24.4862 35.7124 24.3526 35.6353L27.0078 31.0384ZM27.0078 31.0384L23.2525 34.7935C23.1438 34.6847 23.0395 34.5708 22.9397 34.452L27.0078 31.0384ZM27.0078 31.0384L22.6573 34.0859C22.5691 33.96 22.4863 33.8296 22.409 33.6949L27.0078 31.0384ZM27.0078 31.0384L23.9638 35.3873C23.8371 35.2988 23.7145 35.2049 23.5961 35.1055L27.0078 31.0384ZM27.0078 31.0384L25.6334 36.1681C25.484 36.1279 25.3368 36.0812 25.1918 36.028L27.0078 31.0384ZM27.0078 31.0384L27.4706 36.3285C27.3158 36.3423 27.1616 36.3491 27.0081 36.349L27.0078 31.0384ZM29.2539 35.8522C29.1147 35.9166 28.9719 35.9755 28.8254 36.0289L27.0096 31.0394L29.2539 35.8522ZM30.7647 34.7947C30.6557 34.9038 30.5418 35.0081 30.4232 35.1075L27.0096 31.0394L30.7647 34.7947ZM32.2998 30.5766C32.3135 30.7314 32.3203 30.8856 32.3202 31.0391L27.0096 31.0394L32.2998 30.5766ZM32.3001 31.5021C32.2864 31.6566 32.266 31.8097 32.2389 31.9612L27.0096 31.0394L32.3001 31.5021ZM32.1389 32.4139C32.0987 32.5633 32.052 32.7106 31.9987 32.8556L27.0096 31.0394L32.1389 32.4139ZM31.8212 33.2835C31.7563 33.4237 31.6845 33.5607 31.6074 33.6943L27.0096 31.0394L31.8212 33.2835ZM31.3586 34.0834C31.2701 34.2101 31.1761 34.3327 31.0768 34.4511L27.0096 31.0394L31.3586 34.0834ZM30.7644 34.7933C30.6553 34.9024 30.5414 35.0067 30.4228 35.1062L27.0096 31.0394L30.7644 34.7933ZM30.0554 35.3888C29.9294 35.4771 29.7991 35.5598 29.6643 35.6372L27.0096 31.0394L30.0554 35.3888ZM27.0078 31.0384L28.3824 36.1684C28.2318 36.2088 28.0811 36.2422 27.9304 36.2687L27.0078 31.0384ZM27.0078 31.0384L26.5438 36.3297C26.3893 36.316 26.2353 36.2959 26.0819 36.2693L27.0078 31.0384ZM27.0078 31.0384L24.7635 35.849C24.6233 35.7841 24.4862 35.7124 24.3526 35.6353L27.0078 31.0384ZM27.0078 31.0384L23.2525 34.7935C23.1438 34.6847 23.0395 34.5708 22.9397 34.452L27.0078 31.0384ZM27.0078 31.0384L22.6573 34.0859C22.5691 33.96 22.4863 33.8296 22.409 33.6949L27.0078 31.0384ZM27.0078 31.0384L23.9638 35.3873C23.8371 35.2988 23.7145 35.2049 23.5961 35.1055L27.0078 31.0384ZM27.0078 31.0384L25.6334 36.1681C25.484 36.1279 25.3368 36.0812 25.1918 36.028L27.0078 31.0384ZM27.0078 31.0384L27.4706 36.3285C27.3158 36.3423 27.1616 36.3491 27.0081 36.349L27.0078 31.0384ZM29.2539 35.8522C29.1147 35.9166 28.9719 35.9755 28.8254 36.0289L27.0096 31.0394L29.2539 35.8522ZM32.2998 30.5766C32.3135 30.7314 32.3203 30.8856 32.3202 31.0391L27.0096 31.0394L32.2998 30.5766ZM32.3001 31.5021C32.2864 31.6566 32.266 31.8097 32.2389 31.9612L27.0096 31.0394L32.3001 31.5021ZM32.1389 32.4139C32.0987 32.5633 32.052 32.7106 31.9987 32.8556L27.0096 31.0394L32.1389 32.4139ZM31.8212 33.2835C31.7563 33.4237 31.6845 33.5607 31.6074 33.6943L27.0096 31.0394L31.8212 33.2835ZM31.3586 34.0834C31.2701 34.2101 31.1761 34.3327 31.0768 34.4511L27.0096 31.0394L31.3586 34.0834ZM30.7644 34.7933C30.6553 34.9024 30.5414 35.0067 30.4228 35.1062L27.0096 31.0394L30.7644 34.7933ZM30.0554 35.3888C29.9294 35.4771 29.7991 35.5598 29.6643 35.6372L27.0096 31.0394L30.0554 35.3888ZM29.2537 35.8512C29.1145 35.9156 28.9716 35.9745 28.8252 36.028L27.0096 31.0394L29.2537 35.8512ZM27.0096 31.0394L28.3838 36.168C28.2332 36.2084 28.0825 36.2418 27.9318 36.2683L27.0096 31.0394ZM27.0096 31.0394L26.5456 36.3308C26.391 36.317 26.2371 36.2969 26.0837 36.2703L27.0096 31.0394ZM27.0096 31.0394L24.7652 35.8501C24.625 35.7851 24.488 35.7134 24.3544 35.6363L27.0096 31.0394ZM27.0096 31.0394L23.2543 34.7945C23.1456 34.6857 23.0413 34.5718 22.9414 34.453L27.0096 31.0394ZM27.0096 31.0394L22.6591 34.0869C22.5709 33.961 22.4881 33.8306 22.4107 33.6959L27.0096 31.0394ZM27.0096 31.0394L23.9656 35.3884C23.8388 35.2998 23.7163 35.2059 23.5979 35.1066L27.0096 31.0394ZM27.0096 31.0394L25.6352 36.1691C25.4857 36.1289 25.3385 36.0822 25.1935 36.029L27.0096 31.0394ZM27.0096 31.0394L27.4723 36.3296C27.3175 36.3433 27.1634 36.3501 27.0098 36.35L27.0096 31.0394ZM32.2998 30.5766C32.3135 30.7314 32.3203 30.8856 32.3202 31.0391L27.0096 31.0394L32.2998 30.5766ZM32.3001 31.5021C32.2864 31.6566 32.266 31.8097 32.2389 31.9612L27.0096 31.0394L32.3001 31.5021ZM32.1389 32.4139C32.0987 32.5633 32.052 32.7106 31.9987 32.8556L27.0096 31.0394L32.1389 32.4139ZM31.8212 33.2835C31.7563 33.4237 31.6845 33.5607 31.6074 33.6943L27.0096 31.0394L31.8212 33.2835ZM31.3586 34.0834C31.2701 34.2101 31.1761 34.3327 31.0768 34.4511L27.0096 31.0394L31.3586 34.0834ZM30.7644 34.7933C30.6553 34.9024 30.5414 35.0067 30.4228 35.1062L27.0096 31.0394L30.7644 34.7933ZM30.0554 35.3888C29.9294 35.4771 29.7991 35.5598 29.6643 35.6372L27.0096 31.0394L30.0554 35.3888ZM29.2537 35.8512C29.1145 35.9156 28.9716 35.9745 28.8252 36.028L27.0096 31.0394L29.2537 35.8512ZM27.0096 31.0394L28.3838 36.168C28.2332 36.2084 28.0825 36.2418 27.9318 36.2683L27.0096 31.0394ZM27.0096 31.0394L27.4723 36.3296C27.3175 36.3433 27.1634 36.3501 27.0098 36.35L27.0096 31.0394ZM27.0096 31.0394L26.5456 36.3308C26.391 36.317 26.2371 36.2969 26.0837 36.2703L27.0096 31.0394ZM27.0096 31.0394L24.7652 35.8501C24.625 35.7851 24.488 35.7134 24.3544 35.6363L27.0096 31.0394ZM27.0096 31.0394L23.2543 34.7945C23.1456 34.6857 23.0413 34.5718 22.9414 34.453L27.0096 31.0394ZM27.0096 31.0394L22.6591 34.0869C22.5709 33.961 22.4881 33.8306 22.4107 33.6959L27.0096 31.0394ZM27.0096 31.0394L23.9656 35.3884C23.8388 35.2998 23.7163 35.2059 23.5979 35.1066L27.0096 31.0394ZM27.0096 31.0394L25.6352 36.1691C25.4857 36.1289 25.3385 36.0822 25.1935 36.029L27.0096 31.0394ZM32.2998 30.5766C32.3135 30.7314 32.3203 30.8856 32.3202 31.0391L27.0096 31.0394L32.2998 30.5766ZM32.3001 31.5021C32.2864 31.6566 32.266 31.8097 32.2389 31.9612L27.0096 31.0394L32.3001 31.5021ZM32.1389 32.4139C32.0987 32.5633 32.052 32.7106 31.9987 32.8556L27.0096 31.0394L32.1389 32.4139ZM31.8212 33.2835C31.7563 33.4237 31.6845 33.5607 31.6074 33.6943L27.0096 31.0394L31.8212 33.2835ZM31.3586 34.0834C31.2701 34.2101 31.1761 34.3327 31.0768 34.4511L27.0096 31.0394L31.3586 34.0834ZM30.7644 34.7933C30.6553 34.9024 30.5414 35.0067 30.4228 35.1062L27.0096 31.0394L30.7644 34.7933ZM30.0554 35.3888C29.9294 35.4771 29.7991 35.5598 29.6643 35.6372L27.0096 31.0394L30.0554 35.3888ZM29.2537 35.8512C29.1145 35.9156 28.9716 35.9745 28.8252 36.028L27.0096 31.0394L29.2537 35.8512ZM27.0096 31.0394L28.3838 36.168C28.2332 36.2084 28.0825 36.2418 27.9318 36.2683L27.0096 31.0394ZM27.0096 31.0394L27.4723 36.3296C27.3175 36.3433 27.1634 36.3501 27.0098 36.35L27.0096 31.0394ZM27.0096 31.0394L26.5456 36.3308C26.391 36.317 26.2371 36.2969 26.0837 36.2703L27.0096 31.0394ZM27.0096 31.0394L25.6352 36.1691C25.4857 36.1289 25.3385 36.0822 25.1935 36.029L27.0096 31.0394ZM27.0096 31.0394L24.7652 35.8501C24.625 35.7851 24.488 35.7134 24.3544 35.6363L27.0096 31.0394ZM27.0096 31.0394L23.2543 34.7945C23.1456 34.6857 23.0413 34.5718 22.9414 34.453L27.0096 31.0394ZM27.0096 31.0394L22.6591 34.0869C22.5709 33.961 22.4881 33.8306 22.4107 33.6959L27.0096 31.0394ZM27.0096 31.0394L23.9656 35.3884C23.8388 35.2998 23.7163 35.2059 23.5979 35.1066L27.0096 31.0394ZM32.2998 30.5766C32.3135 30.7314 32.3203 30.8856 32.3202 31.0391L27.0096 31.0394L32.2998 30.5766ZM32.3001 31.5021C32.2864 31.6566 32.266 31.8097 32.2389 31.9612L27.0096 31.0394L32.3001 31.5021ZM32.1389 32.4139C32.0987 32.5633 32.052 32.7106 31.9987 32.8556L27.0096 31.0394L32.1389 32.4139ZM31.8212 33.2835C31.7563 33.4237 31.6845 33.5607 31.6074 33.6943L27.0096 31.0394L31.8212 33.2835ZM31.3586 34.0834C31.2701 34.2101 31.1761 34.3327 31.0768 34.4511L27.0096 31.0394L31.3586 34.0834ZM30.7644 34.7933C30.6553 34.9024 30.5414 35.0067 30.4228 35.1062L27.0096 31.0394L30.7644 34.7933ZM30.0554 35.3888C29.9294 35.4771 29.7991 35.5598 29.6643 35.6372L27.0096 31.0394L30.0554 35.3888ZM29.2537 35.8512C29.1145 35.9156 28.9716 35.9745 28.8252 36.028L27.0096 31.0394L29.2537 35.8512ZM27.0096 31.0394L28.3838 36.168C28.2332 36.2084 28.0825 36.2418 27.9318 36.2683L27.0096 31.0394ZM27.0096 31.0394L27.4723 36.3296C27.3175 36.3433 27.1634 36.3501 27.0098 36.35L27.0096 31.0394ZM27.0096 31.0394L26.5456 36.3308C26.391 36.317 26.2371 36.2969 26.0837 36.2703L27.0096 31.0394ZM27.0096 31.0394L25.6352 36.1691C25.4857 36.1289 25.3385 36.0822 25.1935 36.029L27.0096 31.0394ZM27.0096 31.0394L24.7652 35.8501C24.625 35.7851 24.488 35.7134 24.3544 35.6363L27.0096 31.0394ZM27.0096 31.0394L23.9656 35.3884C23.8388 35.2998 23.7163 35.2059 23.5979 35.1066L27.0096 31.0394ZM27.0096 31.0394L23.2543 34.7945C23.1456 34.6857 23.0413 34.5718 22.9414 34.453L27.0096 31.0394ZM27.0096 31.0394L22.6591 34.0869C22.5709 33.961 22.4881 33.8306 22.4107 33.6959L27.0096 31.0394ZM3.45439 35.1928L11.9344 33.6976C12.0118 34.1318 12.1084 34.5663 12.2243 35.0011L3.90753 37.2295C3.72595 36.5519 3.5749 35.873 3.45439 35.1928V35.1928ZM22.6591 34.0869C22.5709 33.961 22.4881 33.8306 22.4107 33.6959L27.0096 31.0394L22.6591 34.0869ZM22.9418 34.4544L27.0096 31.0394L23.2543 34.7945C23.1456 34.6857 23.0413 34.5718 22.9414 34.453L22.9418 34.4544ZM23.5969 35.1083L27.0096 31.0394L23.9656 35.3884C23.838 35.3004 23.715 35.2066 23.5965 35.1069L23.5969 35.1083ZM24.3551 35.6391L27.0096 31.0394L24.7652 35.8501C24.6259 35.7884 24.4883 35.7148 24.3548 35.6377L24.3551 35.6391ZM25.1939 36.0304L27.0096 31.0394L25.6352 36.1691C25.4857 36.1289 25.3385 36.0822 25.1935 36.029L25.1939 36.0304ZM26.0878 36.2707L27.0096 31.0394L26.5456 36.3308C26.392 36.3171 26.2393 36.2966 26.0874 36.2693L26.0878 36.2707ZM27.0102 36.3514L27.0096 31.0394L27.4723 36.3296C27.3175 36.3433 27.1634 36.3501 27.0098 36.35L27.0102 36.3514ZM27.9322 36.2697L27.0096 31.0394L28.3838 36.168C28.2332 36.2084 28.0825 36.2418 27.9318 36.2683L27.9322 36.2697ZM28.8258 36.0303L27.0096 31.0394L29.2539 35.8522C29.1148 35.9169 28.9719 35.9758 28.8254 36.0289L28.8258 36.0303ZM29.6651 35.64L27.0096 31.0394L30.0571 35.3899C29.9303 35.4786 29.7995 35.5615 29.6647 35.6386L29.6651 35.64ZM30.4236 35.1089L27.0096 31.0394L30.7647 34.7947C30.6557 34.9038 30.5418 35.0081 30.4232 35.1075L30.4236 35.1089ZM31.0775 34.4538L27.0096 31.0394L31.3586 34.0834C31.2703 34.211 31.1765 34.3341 31.0771 34.4525L31.0775 34.4538ZM31.6079 33.6942L27.0096 31.0394L31.8203 33.2837C31.7567 33.4235 31.6859 33.5604 31.6079 33.6942ZM31.9992 32.8554L27.0096 31.0394L32.1393 32.4138C32.0992 32.5632 32.0524 32.7104 31.9992 32.8554ZM32.301 31.5034C32.2873 31.6579 32.2669 31.811 32.2398 31.9625L27.0096 31.0394L32.301 31.5034ZM32.3205 31.0401L27.0096 31.0394L32.2998 30.5766C32.3135 30.7314 32.3203 30.8856 32.3202 31.0391L32.3205 31.0401ZM27.0096 31.0394L23.2543 34.7945C23.1456 34.6857 23.0413 34.5718 22.9414 34.453L27.0096 31.0394ZM27.0096 31.0394L22.6591 34.0869C22.5709 33.961 22.4881 33.8306 22.4107 33.6959L27.0096 31.0394ZM27.0096 31.0394L23.9656 35.3884C23.8388 35.2998 23.7163 35.2059 23.5979 35.1066L27.0096 31.0394ZM27.0096 31.0394L24.7652 35.8501C24.625 35.7851 24.488 35.7134 24.3544 35.6363L27.0096 31.0394ZM27.0096 31.0394L25.6352 36.1691C25.4857 36.1289 25.3385 36.0822 25.1935 36.029L27.0096 31.0394ZM27.0096 31.0394L26.5456 36.3308C26.391 36.317 26.2371 36.2969 26.0837 36.2703L27.0096 31.0394ZM27.0096 31.0394L27.4723 36.3296C27.3175 36.3433 27.1634 36.3501 27.0098 36.35L27.0096 31.0394ZM27.0096 31.0394L28.3838 36.168C28.2332 36.2084 28.0825 36.2418 27.9318 36.2683L27.0096 31.0394ZM29.2539 35.8522C29.1147 35.9166 28.9719 35.9755 28.8254 36.0289L27.0096 31.0394L29.2539 35.8522ZM30.0556 35.3898C29.9297 35.478 29.7993 35.5608 29.6646 35.6381L27.0096 31.0394L30.0556 35.3898ZM30.7646 34.7942C30.6555 34.9033 30.5417 35.0076 30.4231 35.1071L27.0096 31.0394L30.7646 34.7942ZM31.3586 34.0834C31.2701 34.2101 31.1761 34.3327 31.0768 34.4511L27.0096 31.0394L31.3586 34.0834ZM31.8213 33.2819C31.7563 33.4222 31.6846 33.5592 31.6075 33.6928L27.0096 31.0394L31.8213 33.2819ZM32.139 32.4124C32.0988 32.5618 32.0521 32.709 31.9988 32.8541L27.0096 31.0394L32.139 32.4124ZM32.301 31.5034C32.2873 31.6579 32.2669 31.811 32.2398 31.9625L27.0096 31.0394L32.301 31.5034ZM32.3006 30.5779C32.3144 30.7327 32.3212 30.8869 32.321 31.0404L27.0096 31.0394L32.3006 30.5779ZM27.0096 31.0394L24.7652 35.8501C24.625 35.7851 24.488 35.7134 24.3544 35.6363L27.0096 31.0394ZM27.0096 31.0394L23.2543 34.7945C23.1456 34.6857 23.0413 34.5718 22.9414 34.453L27.0096 31.0394ZM27.0096 31.0394L22.6591 34.0869C22.5709 33.961 22.4881 33.8306 22.4107 33.6959L27.0096 31.0394ZM27.0096 31.0394L23.9656 35.3884C23.8388 35.2998 23.7163 35.2059 23.5979 35.1066L27.0096 31.0394ZM27.0096 31.0394L25.6352 36.1691C25.4857 36.1289 25.3385 36.0822 25.1935 36.029L27.0096 31.0394ZM27.0096 31.0394L26.5456 36.3308C26.391 36.317 26.2371 36.2969 26.0837 36.2703L27.0096 31.0394ZM27.0096 31.0394L27.4723 36.3296C27.3175 36.3433 27.1634 36.3501 27.0098 36.35L27.0096 31.0394ZM27.0096 31.0394L28.3838 36.168C28.2332 36.2084 28.0825 36.2418 27.9318 36.2683L27.0096 31.0394ZM29.2539 35.8522C29.1147 35.9166 28.9719 35.9755 28.8254 36.0289L27.0096 31.0394L29.2539 35.8522ZM30.0556 35.3898C29.9297 35.478 29.7993 35.5608 29.6646 35.6381L27.0096 31.0394L30.0556 35.3898ZM30.7646 34.7942C30.6555 34.9033 30.5417 35.0076 30.4231 35.1071L27.0096 31.0394L30.7646 34.7942ZM31.3586 34.0834C31.2701 34.2101 31.1761 34.3327 31.0768 34.4511L27.0096 31.0394L31.3586 34.0834ZM31.8213 33.2819C31.7563 33.4222 31.6846 33.5592 31.6075 33.6928L27.0096 31.0394L31.8213 33.2819ZM32.139 32.4124C32.0988 32.5618 32.0521 32.709 31.9988 32.8541L27.0096 31.0394L32.139 32.4124ZM32.301 31.5034C32.2873 31.6579 32.2669 31.811 32.2398 31.9625L27.0096 31.0394L32.301 31.5034ZM32.3006 30.5779C32.3144 30.7327 32.3212 30.8869 32.321 31.0404L27.0096 31.0394L32.3006 30.5779ZM27.0096 31.0394L26.5456 36.3308C26.391 36.317 26.2371 36.2969 26.0837 36.2703L27.0096 31.0394ZM27.0096 31.0394L24.7652 35.8501C24.625 35.7851 24.488 35.7134 24.3544 35.6363L27.0096 31.0394ZM27.0096 31.0394L23.2543 34.7945C23.1456 34.6857 23.0413 34.5718 22.9414 34.453L27.0096 31.0394ZM27.0096 31.0394L22.6591 34.0869C22.5709 33.961 22.4881 33.8306 22.4107 33.6959L27.0096 31.0394ZM27.0096 31.0394L23.9656 35.3884C23.8388 35.2998 23.7163 35.2059 23.5979 35.1066L27.0096 31.0394ZM27.0096 31.0394L25.6352 36.1691C25.4857 36.1289 25.3385 36.0822 25.1935 36.029L27.0096 31.0394ZM27.0096 31.0394L27.4723 36.3296C27.3175 36.3433 27.1634 36.3501 27.0098 36.35L27.0096 31.0394ZM27.0096 31.0394L28.3838 36.168C28.2332 36.2084 28.0825 36.2418 27.9318 36.2683L27.0096 31.0394ZM29.2539 35.8522C29.1147 35.9166 28.9719 35.9755 28.8254 36.0289L27.0096 31.0394L29.2539 35.8522ZM30.0556 35.3898C29.9297 35.478 29.7993 35.5608 29.6646 35.6381L27.0096 31.0394L30.0556 35.3898ZM30.7646 34.7942C30.6555 34.9033 30.5417 35.0076 30.4231 35.1071L27.0096 31.0394L30.7646 34.7942ZM31.3586 34.0834C31.2701 34.2101 31.1761 34.3327 31.0768 34.4511L27.0096 31.0394L31.3586 34.0834ZM31.8213 33.2819C31.7563 33.4222 31.6846 33.5592 31.6075 33.6928L27.0096 31.0394L31.8213 33.2819ZM32.139 32.4124C32.0988 32.5618 32.0521 32.709 31.9988 32.8541L27.0096 31.0394L32.139 32.4124ZM32.301 31.5034C32.2873 31.6579 32.2669 31.811 32.2398 31.9625L27.0096 31.0394L32.301 31.5034ZM32.3006 30.5779C32.3144 30.7327 32.3212 30.8869 32.321 31.0404L27.0096 31.0394L32.3006 30.5779ZM27.0096 31.0394L28.3838 36.168C28.2332 36.2084 28.0825 36.2418 27.9318 36.2683L27.0096 31.0394ZM27.0096 31.0394L26.5456 36.3308C26.391 36.317 26.2371 36.2969 26.0837 36.2703L27.0096 31.0394ZM27.0096 31.0394L24.7652 35.8501C24.625 35.7851 24.488 35.7134 24.3544 35.6363L27.0096 31.0394ZM27.0096 31.0394L23.2543 34.7945C23.1456 34.6857 23.0413 34.5718 22.9414 34.453L27.0096 31.0394ZM27.0096 31.0394L22.6591 34.0869C22.5709 33.961 22.4881 33.8306 22.4107 33.6959L27.0096 31.0394ZM27.0096 31.0394L23.9656 35.3884C23.8388 35.2998 23.7163 35.2059 23.5979 35.1066L27.0096 31.0394ZM27.0096 31.0394L25.6352 36.1691C25.4857 36.1289 25.3385 36.0822 25.1935 36.029L27.0096 31.0394ZM27.0096 31.0394L27.4723 36.3296C27.3175 36.3433 27.1634 36.3501 27.0098 36.35L27.0096 31.0394ZM29.2539 35.8522C29.1147 35.9166 28.9719 35.9755 28.8254 36.0289L27.0096 31.0394L29.2539 35.8522ZM30.0556 35.3898C29.9297 35.478 29.7993 35.5608 29.6646 35.6381L27.0096 31.0394L30.0556 35.3898ZM30.7646 34.7942C30.6555 34.9033 30.5417 35.0076 30.4231 35.1071L27.0096 31.0394L30.7646 34.7942ZM31.3586 34.0834C31.2701 34.2101 31.1761 34.3327 31.0768 34.4511L27.0096 31.0394L31.3586 34.0834ZM31.8213 33.2819C31.7563 33.4222 31.6846 33.5592 31.6075 33.6928L27.0096 31.0394L31.8213 33.2819ZM32.139 32.4124C32.0988 32.5618 32.0521 32.709 31.9988 32.8541L27.0096 31.0394L32.139 32.4124ZM32.301 31.5034C32.2873 31.6579 32.2669 31.811 32.2398 31.9625L27.0096 31.0394L32.301 31.5034ZM32.3006 30.5779C32.3144 30.7327 32.3212 30.8869 32.321 31.0404L27.0096 31.0394L32.3006 30.5779ZM30.0566 35.3915C29.9306 35.4797 29.8003 35.5625 29.6655 35.6399L27.0096 31.0394L30.0566 35.3915ZM27.009 31.041L28.3829 36.1683C28.2323 36.2086 28.0816 36.2421 27.9309 36.2686L27.009 31.041ZM27.009 31.041L26.545 36.3324C26.3905 36.3187 26.2365 36.2985 26.0831 36.2719L27.009 31.041ZM27.009 31.041L24.7647 35.8517C24.6245 35.7868 24.4874 35.715 24.3538 35.6379L27.009 31.041ZM27.009 31.041L23.2537 34.7962C23.145 34.6873 23.0407 34.5735 22.9409 34.4546L27.009 31.041ZM27.009 31.041L22.6585 34.0885C22.5703 33.9626 22.4875 33.8323 22.4102 33.6975L27.009 31.041ZM27.009 31.041L23.965 35.39C23.8383 35.3015 23.7157 35.2075 23.5973 35.1082L27.009 31.041ZM27.009 31.041L25.6346 36.1708C25.4852 36.1306 25.338 36.0839 25.193 36.0306L27.009 31.041ZM27.009 31.041L27.4718 36.3312C27.317 36.3449 27.1628 36.3517 27.0093 36.3516L27.009 31.041ZM29.2539 35.8522C29.1147 35.9166 28.9719 35.9755 28.8254 36.0289L27.0096 31.0394L29.2539 35.8522ZM30.7647 34.7947C30.6557 34.9038 30.5418 35.0081 30.4232 35.1075L27.0096 31.0394L30.7647 34.7947ZM31.3586 34.0834C31.2701 34.2101 31.1761 34.3327 31.0768 34.4511L27.0096 31.0394L31.3586 34.0834ZM31.8213 33.2819C31.7563 33.4222 31.6846 33.5592 31.6075 33.6928L27.0096 31.0394L31.8213 33.2819ZM32.139 32.4124C32.0988 32.5618 32.0521 32.709 31.9988 32.8541L27.0096 31.0394L32.139 32.4124ZM32.301 31.5034C32.2873 31.6579 32.2669 31.811 32.2398 31.9625L27.0096 31.0394L32.301 31.5034ZM32.3006 30.5779C32.3144 30.7327 32.3212 30.8869 32.321 31.0404L27.0096 31.0394L32.3006 30.5779ZM31.3589 34.0863C31.2703 34.213 31.1764 34.3356 31.0771 34.454L27.0096 31.0394L31.3589 34.0863ZM30.0556 35.3917C29.9297 35.4799 29.7994 35.5627 29.6646 35.6401L27.0096 31.0394L30.0556 35.3917ZM27.0081 31.0413L28.382 36.1685C28.2313 36.2089 28.0807 36.2423 27.93 36.2688L27.0081 31.0413ZM27.0081 31.0413L26.5441 36.3326C26.3896 36.3189 26.2356 36.2988 26.0822 36.2722L27.0081 31.0413ZM27.0081 31.0413L24.7638 35.8519C24.6236 35.787 24.4865 35.7153 24.3529 35.6382L27.0081 31.0413ZM27.0081 31.0413L23.2528 34.7964C23.1441 34.6875 23.0398 34.5737 22.9399 34.4549L27.0081 31.0413ZM27.0081 31.0413L22.6576 34.0888C22.5694 33.9629 22.4866 33.8325 22.4092 33.6978L27.0081 31.0413ZM27.0081 31.0413L23.9641 35.3902C23.8374 35.3017 23.7148 35.2078 23.5964 35.1084L27.0081 31.0413ZM27.0081 31.0413L25.6337 36.171C25.4843 36.1308 25.337 36.0841 25.192 36.0309L27.0081 31.0413ZM27.0081 31.0413L27.4708 36.3314C27.3161 36.3452 27.1619 36.352 27.0083 36.3519L27.0081 31.0413ZM29.2539 35.8522C29.1147 35.9166 28.9719 35.9755 28.8254 36.0289L27.0096 31.0394L29.2539 35.8522ZM30.7647 34.7947C30.6557 34.9038 30.5418 35.0081 30.4232 35.1075L27.0096 31.0394L30.7647 34.7947ZM31.8217 33.2833C31.7567 33.4235 31.685 33.5606 31.6079 33.6942L27.0096 31.0394L31.8217 33.2833ZM32.1393 32.4138C32.0992 32.5632 32.0524 32.7104 31.9992 32.8554L27.0096 31.0394L32.1393 32.4138ZM32.301 31.5034C32.2873 31.6579 32.2669 31.811 32.2398 31.9625L27.0096 31.0394L32.301 31.5034ZM32.3006 30.5779C32.3144 30.7327 32.3212 30.8869 32.321 31.0404L27.0096 31.0394L32.3006 30.5779ZM32.1402 32.4151C32.1 32.5645 32.0533 32.7117 32 32.8567L27.0096 31.0394L32.1402 32.4151ZM31.3586 34.0834C31.2701 34.2101 31.1761 34.3327 31.0768 34.4511L27.0096 31.0394L31.3586 34.0834ZM30.0554 35.3888C29.9294 35.4771 29.7991 35.5598 29.6643 35.6372L27.0096 31.0394L30.0554 35.3888ZM27.0078 31.0384L28.3824 36.1684C28.2318 36.2088 28.0811 36.2422 27.9304 36.2687L27.0078 31.0384ZM27.0078 31.0384L26.5438 36.3297C26.3893 36.316 26.2353 36.2959 26.0819 36.2693L27.0078 31.0384ZM27.0078 31.0384L24.7635 35.849C24.6233 35.7841 24.4862 35.7124 24.3526 35.6353L27.0078 31.0384ZM27.0078 31.0384L23.2525 34.7935C23.1438 34.6847 23.0395 34.5708 22.9397 34.452L27.0078 31.0384ZM27.0078 31.0384L22.6573 34.0859C22.5691 33.96 22.4863 33.8296 22.409 33.6949L27.0078 31.0384ZM27.0078 31.0384L23.9638 35.3873C23.8371 35.2988 23.7145 35.2049 23.5961 35.1055L27.0078 31.0384ZM27.0078 31.0384L25.6334 36.1681C25.484 36.1279 25.3368 36.0812 25.1918 36.028L27.0078 31.0384ZM27.0078 31.0384L27.4706 36.3285C27.3158 36.3423 27.1616 36.3491 27.0081 36.349L27.0078 31.0384ZM29.2539 35.8522C29.1147 35.9166 28.9719 35.9755 28.8254 36.0289L27.0096 31.0394L29.2539 35.8522ZM30.7647 34.7947C30.6557 34.9038 30.5418 35.0081 30.4232 35.1075L27.0096 31.0394L30.7647 34.7947ZM31.8217 33.2833C31.7567 33.4235 31.685 33.5606 31.6079 33.6942L27.0096 31.0394L31.8217 33.2833ZM32.301 31.5034C32.2873 31.6579 32.2669 31.811 32.2398 31.9625L27.0096 31.0394L32.301 31.5034ZM32.3006 30.5779C32.3144 30.7327 32.3212 30.8869 32.321 31.0404L27.0096 31.0394L32.3006 30.5779ZM32.3006 30.5779C32.3144 30.7327 32.3212 30.8869 32.321 31.0404L27.0096 31.0394L32.3006 30.5779ZM32.1402 32.4151C32.1 32.5645 32.0533 32.7117 32 32.8567L27.0096 31.0394L32.1402 32.4151ZM31.3586 34.0834C31.2701 34.2101 31.1761 34.3327 31.0768 34.4511L27.0096 31.0394L31.3586 34.0834ZM30.0554 35.3888C29.9294 35.4771 29.7991 35.5598 29.6643 35.6372L27.0096 31.0394L30.0554 35.3888ZM27.0078 31.0384L28.3824 36.1684C28.2318 36.2088 28.0811 36.2422 27.9304 36.2687L27.0078 31.0384ZM27.0078 31.0384L26.5438 36.3297C26.3893 36.316 26.2353 36.2959 26.0819 36.2693L27.0078 31.0384ZM27.0078 31.0384L24.7635 35.849C24.6233 35.7841 24.4862 35.7124 24.3526 35.6353L27.0078 31.0384ZM27.0078 31.0384L23.2525 34.7935C23.1438 34.6847 23.0395 34.5708 22.9397 34.452L27.0078 31.0384ZM27.0078 31.0384L22.6573 34.0859C22.5691 33.96 22.4863 33.8296 22.409 33.6949L27.0078 31.0384ZM27.0078 31.0384L23.9638 35.3873C23.8371 35.2988 23.7145 35.2049 23.5961 35.1055L27.0078 31.0384ZM27.0078 31.0384L25.6334 36.1681C25.484 36.1279 25.3368 36.0812 25.1918 36.028L27.0078 31.0384ZM27.0078 31.0384L27.4706 36.3285C27.3158 36.3423 27.1616 36.3491 27.0081 36.349L27.0078 31.0384ZM29.2539 35.8522C29.1147 35.9166 28.9719 35.9755 28.8254 36.0289L27.0096 31.0394L29.2539 35.8522ZM30.7647 34.7947C30.6557 34.9038 30.5418 35.0081 30.4232 35.1075L27.0096 31.0394L30.7647 34.7947ZM31.8217 33.2833C31.7567 33.4235 31.685 33.5606 31.6079 33.6942L27.0096 31.0394L31.8217 33.2833ZM32.301 31.5034C32.2873 31.6579 32.2669 31.811 32.2398 31.9625L27.0096 31.0394L32.301 31.5034ZM4.53357 22.8586L12.6251 25.8035C12.4729 26.2213 12.3391 26.6458 12.2235 27.0769L3.90555 24.8487C4.08465 24.1741 4.29399 23.5107 4.53357 22.8586ZM8.68679 15.665L15.283 21.2C14.9963 21.5409 14.7256 21.894 14.4709 22.2594L7.41837 17.3221C7.81611 16.7514 8.23892 16.199 8.68679 15.665ZM39.5481 39.8189L46.6008 44.7566C46.2026 45.3255 45.7797 45.8776 45.3321 46.4128L38.7362 40.8788C39.0224 40.5373 39.293 40.184 39.5481 39.8189ZM37.8341 41.8628L43.9227 47.9523C43.4324 48.4435 42.92 48.9141 42.3855 49.364L36.8496 42.7664C37.1924 42.4798 37.5208 42.1792 37.8346 41.8647L37.8341 41.8628ZM35.7908 43.5795L40.7316 50.6376C40.1646 51.0352 39.5778 51.4088 38.9713 51.7585L34.6625 44.2993C35.0517 44.0752 35.428 43.8359 35.7913 43.5814L35.7908 43.5795ZM33.4792 44.912L37.1167 52.7195C36.4906 53.011 35.8477 53.2766 35.1879 53.5161L32.2451 45.424C32.6669 45.271 33.0785 45.1009 33.4797 44.9139L33.4792 44.912ZM29.6673 46.1127C30.102 46.0371 30.5367 45.9411 30.9713 45.8247L33.1998 54.1414C32.5221 54.323 31.8432 54.4741 31.163 54.5946L29.6673 46.1127ZM32.2998 30.5766C32.3135 30.7314 32.3203 30.8856 32.3202 31.0391L27.0096 31.0394L32.2998 30.5766ZM32.1393 32.4138C32.0992 32.5632 32.0524 32.7104 31.9992 32.8554L27.0096 31.0394L32.1393 32.4138ZM31.3586 34.0834C31.2701 34.2101 31.1761 34.3327 31.0768 34.4511L27.0096 31.0394L31.3586 34.0834ZM30.0554 35.3888C29.9294 35.4771 29.7991 35.5598 29.6643 35.6372L27.0096 31.0394L30.0554 35.3888ZM27.0078 31.0384L28.3824 36.1684C28.2318 36.2088 28.0811 36.2422 27.9304 36.2687L27.0078 31.0384ZM27.0078 31.0384L26.5438 36.3297C26.3893 36.316 26.2353 36.2959 26.0819 36.2693L27.0078 31.0384ZM27.0078 31.0384L24.7635 35.849C24.6233 35.7841 24.4862 35.7124 24.3526 35.6353L27.0078 31.0384ZM27.0078 31.0384L23.2525 34.7935C23.1438 34.6847 23.0395 34.5708 22.9397 34.452L27.0078 31.0384ZM11.7575 32.3738L21.718 31.5025C21.7319 31.6552 21.7523 31.8084 21.7792 31.962L11.933 33.698C11.8555 33.2559 11.797 32.8145 11.7575 32.3738ZM11.7556 29.7055L21.7182 30.5754C21.7048 30.7285 21.6982 30.8828 21.6986 31.0382L11.6972 31.0399C11.6983 30.592 11.7183 30.147 11.757 29.7052L11.7556 29.7055ZM21.7796 30.1172L11.9315 28.3808C12.0094 27.9396 12.1058 27.5056 12.2205 27.0787L21.8773 29.6666C21.8392 29.8142 21.8067 29.9643 21.7796 30.1172ZM22.02 29.2233L12.6251 25.8035C12.7771 25.3851 12.9476 24.9741 13.1366 24.5706L22.1975 28.7954C22.132 28.9354 22.0729 29.0781 22.02 29.2233V29.2233ZM22.4113 28.3845L13.7537 23.3861C13.9762 23.0006 14.2154 22.6252 14.4711 22.2599L22.6606 27.9954C22.5708 28.1185 22.4884 28.251 22.4113 28.3845V28.3845ZM22.942 27.6263L15.283 21.2C15.5687 20.8593 15.8694 20.5311 16.1849 20.2155L23.2545 27.2845C23.1451 27.3937 23.041 27.5077 22.942 27.6263V27.6263ZM23.596 26.9712L17.1681 19.3107C17.5083 19.0254 17.8616 18.7543 18.2279 18.4974L23.963 26.6886C23.8357 26.7779 23.7134 26.8721 23.596 26.9712V26.9712ZM22.6591 34.0869C22.5709 33.961 22.4881 33.8306 22.4107 33.6959L27.0096 31.0394L22.6591 34.0869ZM24.3545 26.4401L19.3544 17.78C19.7373 17.5592 20.1324 17.3543 20.5396 17.1653L24.7653 26.227C24.6243 26.2922 24.4874 26.3632 24.3545 26.4401ZM21.7741 16.6548C22.1887 16.5041 22.6132 16.3705 23.0479 16.2541L25.6354 25.9107C25.4847 25.9511 25.3375 25.9974 25.1938 26.0498L21.7741 16.6548ZM25.6756 15.7887L26.5469 25.7492C26.3941 25.763 26.2409 25.7834 26.0874 25.8104L24.3514 15.9642C24.7933 15.8861 25.2347 15.8276 25.6756 15.7887V15.7887ZM28.3438 15.7868L27.4722 25.7483C27.319 25.7349 27.1648 25.7284 27.0094 25.7288L27.0072 15.7295C27.4564 15.729 27.9019 15.7481 28.3438 15.7868V15.7868ZM30.9717 16.2519L28.3838 25.9087C28.2347 25.8687 28.084 25.8353 27.9315 25.8085L29.6682 15.9613C30.1081 16.0396 30.5426 16.1364 30.9717 16.2519V16.2519ZM33.478 17.165L29.2539 26.2287C29.1139 26.1632 28.9713 26.104 28.826 26.0512L32.2454 16.6549C32.6641 16.8078 33.0751 16.9785 33.4785 17.1668L33.478 17.165ZM35.7886 18.499L30.0545 26.6882C29.9281 26.5992 29.7975 26.5163 29.6639 26.4392L34.6629 17.7835C35.0484 18.006 35.4238 18.2451 35.7891 18.5008L35.7886 18.499ZM37.8325 20.213L30.7635 27.2826C30.6539 27.1733 30.5399 27.0692 30.4212 26.9702L36.849 19.3128C37.19 19.5984 37.5187 19.8992 37.8351 20.2152L37.8325 20.213ZM39.552 22.2575L31.3601 27.9918C31.2709 27.8649 31.1767 27.7425 31.0775 27.6248L38.7382 21.1979C39.0235 21.5381 39.2948 21.8913 39.552 22.2575ZM27.0096 31.0394L23.9656 35.3884C23.8388 35.2998 23.7163 35.2059 23.5979 35.1066L27.0096 31.0394ZM27.0096 31.0394L25.6352 36.1691C25.4857 36.1289 25.3385 36.0822 25.1935 36.029L27.0096 31.0394ZM27.0096 31.0394L27.4723 36.3296C27.3175 36.3433 27.1634 36.3501 27.0098 36.35L27.0096 31.0394ZM29.2539 35.8522C29.1147 35.9166 28.9719 35.9755 28.8254 36.0289L27.0096 31.0394L29.2539 35.8522ZM30.7647 34.7947C30.6557 34.9038 30.5418 35.0081 30.4232 35.1075L27.0096 31.0394L30.7647 34.7947ZM31.8217 33.2833C31.7567 33.4235 31.685 33.5606 31.6079 33.6942L27.0096 31.0394L31.8217 33.2833ZM32.301 31.5034C32.2873 31.6579 32.2669 31.811 32.2398 31.9625L27.0096 31.0394L32.301 31.5034ZM27.01 46.3513C27.452 46.351 27.8966 46.3309 28.3438 46.291L29.0945 54.87C28.3971 54.9321 27.7022 54.9631 27.0099 54.9631L27.01 46.3513ZM17.1705 42.7674C17.5115 43.054 17.8646 43.3247 18.23 43.5794L13.2913 50.6323C12.7224 50.2341 12.1703 49.8112 11.6351 49.3637L17.1705 42.7674ZM15.279 40.8828C15.5683 41.2246 15.8694 41.5516 16.1822 41.864L10.0927 47.9526C9.6015 47.4622 9.13092 46.9498 8.68101 46.4154L15.279 40.8828ZM13.7484 38.6951C13.9721 39.0828 14.2112 39.4583 14.4657 39.8216L7.41085 44.7615C7.0133 44.1945 6.63967 43.6078 6.28997 43.0012L13.7484 38.6951ZM40.8821 37.5083L48.6856 41.147C48.3925 41.7779 48.0713 42.3948 47.7221 42.9978L40.2655 38.6927C40.4881 38.3072 40.6936 37.9124 40.8821 37.5083ZM41.7952 35.002L50.1148 37.2287C49.9346 37.9043 49.7249 38.5681 49.4856 39.2202L41.3941 36.2752C41.5466 35.8576 41.6809 35.4328 41.7968 35.0006L41.7952 35.002ZM42.2626 32.3734L50.8418 33.1242C50.7811 33.8205 50.6903 34.5103 50.5692 35.1934L42.0876 33.698C42.1647 33.261 42.223 32.8195 42.2626 32.3734ZM42.2608 29.7052L50.8393 28.9547C50.9014 29.6521 50.9324 30.347 50.9324 31.0393L42.3201 31.0393C42.3211 30.597 42.3012 30.1523 42.2603 29.7054L42.2608 29.7052ZM41.7949 27.0777L50.1116 24.8492C50.2932 25.5269 50.4443 26.2058 50.5648 26.8859L42.0843 28.3813C42.0075 27.9469 41.9111 27.5124 41.7949 27.0777ZM11.6322 12.7131L17.1681 19.3107C16.8263 19.5984 16.4984 19.8995 16.1845 20.2141L10.0959 14.1246C10.5852 13.633 11.0973 13.1625 11.6322 12.7131ZM6.29704 19.081L13.7537 23.3861C13.5311 23.7716 13.3256 24.1663 13.1371 24.5704L5.33356 20.9318C5.62741 20.301 5.94857 19.6841 6.29704 19.081V19.081ZM3.44993 26.8853L11.9315 28.3808C11.8546 28.818 11.7964 29.2595 11.757 29.7052L3.17799 28.9569C3.23804 28.2594 3.32869 27.5688 3.44993 26.8853ZM3.08679 31.0394L11.6972 31.0399C11.6972 31.4823 11.7173 31.9269 11.7575 32.3738L3.17848 33.1245C3.11732 32.4267 3.08675 31.7317 3.08679 31.0394V31.0394ZM12.625 36.2749C12.7781 36.696 12.9482 37.1076 13.1351 37.5094L5.33009 41.1488C5.03853 40.5227 4.77299 39.8798 4.53346 39.22L12.625 36.2749Z" fill="white"/>
<path d="M27.3879 32.4249C26.6224 32.63 25.8355 32.1757 25.6304 31.4102C25.4253 30.6447 25.8796 29.8578 26.6451 29.6527C27.4107 29.4475 28.1975 29.9018 28.4027 30.6674C28.6078 31.4329 28.1535 32.2198 27.3879 32.4249Z" fill="white"/>
<path d="M13.7748 38.7354L36.7192 25.4881L38.8443 24.2615L38.7963 24.1783L36.6716 25.4048L13.7268 38.6522L13.7748 38.7354Z" fill="white"/>
<path d="M22.6605 33.5519C22.8796 33.9325 23.1481 34.2823 23.4592 34.5923C24.2145 35.3478 25.191 35.8427 26.2469 36.0052C27.3027 36.1678 28.3829 35.9894 29.3304 35.4961C30.278 35.0028 31.0436 34.2202 31.5159 33.262C31.9883 32.3039 32.1429 31.22 31.9572 30.168L32.2408 30.1178C32.4369 31.2303 32.2731 32.3764 31.7734 33.3896C31.2737 34.4027 30.4641 35.2302 29.462 35.7519C28.46 36.2735 27.3177 36.4621 26.2012 36.2903C25.0846 36.1186 24.0519 35.5953 23.253 34.7966C22.9252 34.4686 22.6428 34.0983 22.4132 33.6955L22.6605 33.5519Z" fill="white"/>
<path d="M33.8618 10.3498C32.3308 10.7601 30.757 9.85146 30.3468 8.32039C29.9365 6.78932 30.8451 5.21557 32.3762 4.80532C33.9073 4.39507 35.481 5.30368 35.8913 6.83475C36.3015 8.36582 35.3929 9.93957 33.8618 10.3498Z" fill="white"/>
<path d="M27.011 31.0394L28.4239 30.79L30.9945 30.337L40.4377 28.6718C40.3689 28.2832 40.2827 27.8962 40.1792 27.511C39.8722 26.3596 39.4157 25.2534 38.8211 24.2207L30.5139 29.0167L28.2534 30.3222L27.011 31.0394Z" fill="white"/>
<path d="M23.0479 16.2564C25.2066 15.6748 27.4667 15.5749 29.6682 15.9637C35.3412 16.9683 40.2054 21.1479 41.795 27.0801C43.9829 35.2457 39.137 43.6391 30.9713 45.8271C28.8127 46.4087 26.5526 46.5086 24.351 46.1198L24.6417 44.4711C24.8053 44.5002 24.9701 44.5262 25.136 44.5491C28.6742 45.0373 32.2627 44.1178 35.1302 41.9884C37.9977 39.8589 39.9153 36.6894 40.4708 33.1612C41.0264 29.633 40.1755 26.0276 38.1012 23.12C36.0268 20.2124 32.8945 18.2347 29.3775 17.612C29.2139 17.5832 29.0491 17.5571 28.8831 17.5339C26.355 17.1868 23.7802 17.5554 21.451 18.5981C19.1219 19.6407 17.1317 21.3156 15.7066 23.4324C14.2815 25.5493 13.4786 28.0234 13.3889 30.5736C13.2992 33.1239 13.9265 35.6483 15.1994 37.86L13.7484 38.6974C13.0814 37.5379 12.569 36.296 12.2243 35.0035C10.0363 26.8378 14.8823 18.4444 23.0479 16.2564Z" fill="#960000"/>
<path d="M25.2764 24.5732C26.4119 24.2677 27.6079 24.267 28.7437 24.5713C29.8795 24.8756 30.915 25.474 31.7457 26.3062C32.1604 26.7195 32.5185 27.1859 32.8107 27.6932L31.3597 28.5307C31.1402 28.1506 30.8714 27.8011 30.5603 27.4915C29.6986 26.6307 28.5534 26.1124 27.3379 26.0331C26.1225 25.9538 24.9197 26.3189 23.9534 27.0604C22.987 27.8019 22.3231 28.8692 22.0851 30.0638C21.8472 31.2583 22.0514 32.4986 22.6598 33.5538L21.2089 34.3912C20.6961 33.5013 20.3948 32.5055 20.3281 31.4806C20.2615 30.4557 20.4312 29.4292 20.8243 28.4803C21.2174 27.5315 21.8233 26.6857 22.5953 26.0082C23.3672 25.3308 24.2845 24.8398 25.2764 24.5732Z" fill="#960000"/>
<path d="M14.5649 52.5784L15.522 50.922C10.2146 47.855 6.4182 42.9054 4.83166 36.9843C1.55495 24.7555 8.83776 12.1406 21.0671 8.86379L20.5719 7.01562C15.8182 8.28559 11.5481 10.9373 8.30215 14.6352C5.0562 18.333 2.98027 22.9108 2.33714 27.789C1.694 32.6671 2.51257 37.6265 4.68923 42.0392C6.86589 46.452 10.3028 50.1198 14.5649 52.5784Z" fill="#960000"/>
</svg>
