<svg width="146" height="30" fill="none" xmlns="http://www.w3.org/2000/svg"><path d="M16.72 30c8.285 0 15-6.716 15-15 0-8.284-6.715-15-15-15-8.284 0-15 6.716-15 15 0 8.284 6.716 15 15 15Z" fill="#CE2457"/><path fill-rule="evenodd" clip-rule="evenodd" d="M15.981 5.979a9.055 9.055 0 1 0 1.495 0l-.244 5.946a3.118 3.118 0 1 1-1.007 0l-.244-5.946Z" fill="#fff"/><path d="M16.72 5.344a1.954 1.954 0 1 0 0-3.909 1.954 1.954 0 0 0 0 3.91Z" fill="#fff"/><path d="M52.15 14.997c0 2.066-.756 3.735-2.183 5.085-1.428 1.351-3.191 1.987-5.29 1.987-2.1 0-3.78-.636-5.29-1.986-1.344-1.351-2.1-3.02-2.1-5.086 0-2.066.756-3.735 2.183-5.086 1.428-1.35 3.191-1.986 5.207-1.986 2.015 0 3.862.635 5.29 1.986 1.427 1.351 2.183 3.02 2.183 5.086Zm-2.771 0c0-1.192-.42-2.225-1.344-3.02-.84-.794-2.015-1.192-3.358-1.192-1.344 0-2.436.398-3.36 1.192-.923.795-1.343 1.828-1.343 3.02s.42 2.225 1.344 3.02c.84.794 2.015 1.191 3.359 1.191 1.343 0 2.519-.397 3.358-1.192.924-.794 1.344-1.827 1.344-3.02Zm11.636 6.437h-3.107v-10.41h-4.786V8.563h12.596v2.463h-4.703v10.41Zm11.661.322c-2.183 0-3.947-.318-5.374-.954v-2.543c1.595.715 3.274 1.033 4.954 1.033 1.26 0 2.183-.159 2.939-.477.672-.317 1.092-.794 1.092-1.35 0-1.113-1.008-1.59-3.107-1.59h-2.604v-2.304h2.604c1.763 0 2.603-.477 2.603-1.43 0-1.033-1.176-1.51-3.443-1.51-1.512 0-3.023.318-4.618.954V9.12c1.427-.556 3.19-.874 5.29-.874 1.68 0 3.107.318 4.282.954 1.092.635 1.68 1.51 1.68 2.463 0 1.43-.756 2.384-2.184 2.86 1.764.557 2.687 1.59 2.687 3.179 0 1.192-.587 2.225-1.847 2.94-1.26.795-2.939 1.113-4.954 1.113Zm23.744-6.759c0 2.066-.755 3.735-2.182 5.085-1.428 1.351-3.191 1.987-5.29 1.987-2.1 0-3.78-.636-5.29-1.986-1.428-1.351-2.184-3.02-2.184-5.086 0-2.066.756-3.735 2.183-5.086 1.512-1.35 3.275-1.986 5.374-1.986 2.1 0 3.863.635 5.29 1.986 1.344 1.351 2.1 3.02 2.1 5.086Zm-2.686 0c0-1.192-.42-2.225-1.344-3.02-.84-.794-2.015-1.192-3.359-1.192-1.343 0-2.435.398-3.358 1.192-.924.795-1.344 1.828-1.344 3.02s.42 2.225 1.344 3.02c.84.794 2.015 1.191 3.358 1.191 1.344 0 2.52-.397 3.36-1.192.839-.794 1.343-1.827 1.343-3.02Zm13.603 6.437h-8.145V8.562h7.725c1.343 0 2.435.317 3.275.874.84.556 1.175 1.43 1.175 2.383 0 .636-.168 1.192-.504 1.67-.336.476-.756.873-1.344 1.112 1.848.476 2.772 1.589 2.772 3.337 0 1.113-.42 1.986-1.344 2.622-.84.556-2.015.874-3.61.874Zm-5.038-10.568v2.86h3.862c.672 0 1.176-.158 1.595-.397.337-.238.588-.636.588-1.033 0-.953-.671-1.43-2.099-1.43h-3.946Zm0 5.085v3.179h4.45c.756 0 1.259-.159 1.679-.397.42-.318.588-.636.588-1.192 0-.477-.168-.874-.588-1.192-.42-.318-1.008-.398-1.679-.398h-4.45Zm15.784 5.476h-2.939V8.555h3.106v8.74l7.642-8.74h2.939v12.872h-3.107v-8.74l-7.641 8.74Zm17.086 0h-3.107V8.555h3.107v12.872Z" fill="#18181A"/><path d="m138.447 14.754 6.224 6.596h-4.018l-5.91-6.437 5.516-6.277h3.861l-5.673 6.118Z" fill="#18181A"/></svg>