<svg width="70" height="76" viewBox="0 0 70 76" fill="none" xmlns="http://www.w3.org/2000/svg">
<g clip-path="url(#clip0_82_19310)">
<path d="M43.8956 71.1318C51.4748 69.0904 58.0256 64.3067 62.2773 57.7087C66.529 51.1107 68.1786 43.1687 66.9061 35.4233C65.6335 27.6778 61.5296 20.6811 55.3903 15.7903C49.251 10.8995 41.514 8.46329 33.6801 8.95418C25.8462 9.44506 18.4738 12.8281 12.9931 18.447C7.51236 24.0659 4.31393 31.5202 4.01823 39.3639C3.72253 47.2076 6.35064 54.8816 11.3928 60.8972C16.4349 66.9128 23.5316 70.8413 31.3063 71.9206C35.5131 72.5071 39.795 72.2388 43.8956 71.1318ZM27.4845 9.88448C44.3367 5.36895 61.7205 15.4055 66.236 32.2577C70.7516 49.1099 60.715 66.4937 43.8628 71.0093C27.0106 75.5248 9.62677 65.4882 5.11124 48.6361C0.595712 31.7839 10.6323 14.4 27.4845 9.88448Z" fill="#212121"/>
<path d="M61.6291 14.4025L61.7188 14.4922L48.4952 27.7157L48.4056 27.626L61.6291 14.4025Z" fill="#212121"/>
<path d="M35.7916 41.1266L35.9141 41.0938L45.255 75.9545L45.1325 75.9873L35.7916 41.1266Z" fill="#212121"/>
<path d="M24.7838 0.0406348L24.9062 0.0078125L34.7529 36.7562L34.6305 36.789L24.7838 0.0406348Z" fill="#212121"/>
<path d="M30.4565 20.9758C25.6453 22.2715 21.4869 25.3079 18.7877 29.4961C16.0886 33.6842 15.0412 38.7256 15.8488 43.6424C16.6563 48.5591 19.2613 53.0006 23.1582 56.1054C27.0552 59.2102 31.9664 60.757 36.9393 60.4456C41.9121 60.1343 46.5921 57.9871 50.0714 54.4205C53.5507 50.8539 55.5813 46.1221 55.7693 41.1431C55.9573 36.164 54.2894 31.2926 51.0889 27.4738C47.8885 23.655 43.3838 21.1609 38.4486 20.4754C35.7783 20.1028 33.0602 20.2729 30.4571 20.9756L30.4565 20.9758ZM30.4243 20.8531C41.2485 17.9528 52.3747 24.3765 55.275 35.2007C58.1754 46.0249 51.7517 57.1511 40.9274 60.0514C30.1032 62.9517 18.9771 56.5281 16.0767 45.7038C13.1764 34.8796 19.6001 23.7535 30.4243 20.8531Z" fill="#212121"/>
<path d="M42.687 39.8381C42.7052 40.0433 42.7142 40.2477 42.7141 40.4512L35.6744 40.4515L42.687 39.8381ZM42.4743 42.2734C42.4211 42.4715 42.3591 42.6667 42.2885 42.8589L35.6744 40.4515L42.4743 42.2734ZM41.4394 44.4866C41.322 44.6546 41.1975 44.8171 41.0658 44.974L35.6744 40.4515L41.4394 44.4866ZM39.7118 46.2171C39.5449 46.334 39.3721 46.4438 39.1935 46.5464L35.6744 40.4515L39.7118 46.2171ZM35.6721 40.4502L37.4942 47.2505C37.2946 47.304 37.0948 47.3483 36.8951 47.3834L35.6721 40.4502ZM35.6721 40.4502L35.057 47.4643C34.8522 47.4462 34.6481 47.4194 34.4448 47.3842L35.6721 40.4502ZM35.6721 40.4502L32.697 46.8271C32.5112 46.741 32.3295 46.646 32.1524 46.5437L35.6721 40.4502ZM35.6721 40.4502L30.6941 45.4279C30.55 45.2836 30.4118 45.1327 30.2794 44.9752L35.6721 40.4502ZM35.6721 40.4502L29.9052 44.4899C29.7882 44.323 29.6785 44.1502 29.5759 43.9716L35.6721 40.4502ZM35.6721 40.4502L31.637 46.2151C31.469 46.0978 31.3066 45.9732 31.1496 45.8416L35.6721 40.4502ZM35.6721 40.4502L33.8502 47.2501C33.6521 47.1968 33.457 47.1349 33.2647 47.0643L35.6721 40.4502ZM35.6721 40.4502L36.2855 47.4627C36.0803 47.481 35.8759 47.49 35.6724 47.4898L35.6721 40.4502ZM38.6495 46.8313C38.4649 46.9166 38.2756 46.9947 38.0814 47.0656L35.6744 40.4515L38.6495 46.8313ZM40.6522 45.4295C40.5076 45.5741 40.3567 45.7124 40.1994 45.8442L35.6744 40.4515L40.6522 45.4295ZM42.0532 43.4261C41.9671 43.6119 41.8721 43.7936 41.7698 43.9707L35.6744 40.4515L42.0532 43.4261ZM42.6886 41.0666C42.6704 41.2714 42.6434 41.4743 42.6075 41.6752L35.6744 40.4515L42.6886 41.0666ZM42.6881 39.8398C42.7063 40.045 42.7153 40.2494 42.7152 40.4529L35.6744 40.4515L42.6881 39.8398ZM42.6886 41.0666C42.6704 41.2714 42.6434 41.4743 42.6075 41.6752L35.6744 40.4515L42.6886 41.0666ZM42.4748 42.2753C42.4216 42.4733 42.3596 42.6685 42.289 42.8607L35.6744 40.4515L42.4748 42.2753ZM41.4394 44.4866C41.322 44.6546 41.1975 44.8171 41.0658 44.974L35.6744 40.4515L41.4394 44.4866ZM39.7118 46.2171C39.5449 46.334 39.3721 46.4438 39.1935 46.5464L35.6744 40.4515L39.7118 46.2171ZM35.6721 40.4502L37.4942 47.2505C37.2946 47.304 37.0948 47.3483 36.8951 47.3834L35.6721 40.4502ZM35.6721 40.4502L35.057 47.4643C34.8522 47.4462 34.6481 47.4194 34.4448 47.3842L35.6721 40.4502ZM35.6721 40.4502L32.697 46.8271C32.5112 46.741 32.3295 46.646 32.1524 46.5437L35.6721 40.4502ZM35.6721 40.4502L30.6941 45.4279C30.55 45.2836 30.4118 45.1327 30.2794 44.9752L35.6721 40.4502ZM35.6721 40.4502L29.9052 44.4899C29.7882 44.323 29.6785 44.1502 29.5759 43.9716L35.6721 40.4502ZM35.6721 40.4502L31.637 46.2151C31.469 46.0978 31.3066 45.9732 31.1496 45.8416L35.6721 40.4502ZM35.6721 40.4502L33.8502 47.2501C33.6521 47.1968 33.457 47.1349 33.2647 47.0643L35.6721 40.4502ZM35.6721 40.4502L36.2855 47.4627C36.0803 47.481 35.8759 47.49 35.6724 47.4898L35.6721 40.4502ZM38.6495 46.8313C38.4649 46.9166 38.2756 46.9947 38.0814 47.0656L35.6744 40.4515L38.6495 46.8313ZM40.6522 45.4295C40.5076 45.5741 40.3567 45.7124 40.1994 45.8442L35.6744 40.4515L40.6522 45.4295ZM42.0532 43.4261C41.9671 43.6119 41.8721 43.7936 41.7698 43.9707L35.6744 40.4515L42.0532 43.4261ZM42.687 39.8381C42.7052 40.0433 42.7142 40.2477 42.7141 40.4512L35.6744 40.4515L42.687 39.8381ZM42.6875 41.0649C42.6693 41.2698 42.6423 41.4726 42.6064 41.6735L35.6744 40.4515L42.6875 41.0649ZM42.4737 42.2736C42.4204 42.4717 42.3585 42.6668 42.2879 42.859L35.6744 40.4515L42.4737 42.2736ZM42.0526 43.4262C41.9665 43.6121 41.8714 43.7938 41.7692 43.9709L35.6744 40.4515L42.0526 43.4262ZM41.4394 44.4866C41.322 44.6546 41.1975 44.8171 41.0658 44.974L35.6744 40.4515L41.4394 44.4866ZM39.7118 46.2171C39.5449 46.334 39.3721 46.4438 39.1935 46.5464L35.6744 40.4515L39.7118 46.2171ZM35.6721 40.4502L37.4942 47.2505C37.2946 47.304 37.0948 47.3483 36.8951 47.3834L35.6721 40.4502ZM35.6721 40.4502L35.057 47.4643C34.8522 47.4462 34.6481 47.4194 34.4448 47.3842L35.6721 40.4502ZM35.6721 40.4502L32.697 46.8271C32.5112 46.741 32.3295 46.646 32.1524 46.5437L35.6721 40.4502ZM35.6721 40.4502L30.6941 45.4279C30.55 45.2836 30.4118 45.1327 30.2794 44.9752L35.6721 40.4502ZM35.6721 40.4502L29.9052 44.4899C29.7882 44.323 29.6785 44.1502 29.5759 43.9716L35.6721 40.4502ZM35.6721 40.4502L31.637 46.2151C31.469 46.0978 31.3066 45.9732 31.1496 45.8416L35.6721 40.4502ZM35.6721 40.4502L33.8502 47.2501C33.6521 47.1968 33.457 47.1349 33.2647 47.0643L35.6721 40.4502ZM35.6721 40.4502L36.2855 47.4627C36.0803 47.481 35.8759 47.49 35.6724 47.4898L35.6721 40.4502ZM38.6495 46.8313C38.4649 46.9166 38.2756 46.9947 38.0814 47.0656L35.6744 40.4515L38.6495 46.8313ZM40.6522 45.4295C40.5076 45.5741 40.3567 45.7124 40.1994 45.8442L35.6744 40.4515L40.6522 45.4295ZM42.687 39.8381C42.7052 40.0433 42.7142 40.2477 42.7141 40.4512L35.6744 40.4515L42.687 39.8381ZM42.6875 41.0649C42.6693 41.2698 42.6423 41.4726 42.6064 41.6735L35.6744 40.4515L42.6875 41.0649ZM42.4737 42.2736C42.4204 42.4717 42.3585 42.6668 42.2879 42.859L35.6744 40.4515L42.4737 42.2736ZM42.0526 43.4262C41.9665 43.6121 41.8714 43.7938 41.7692 43.9709L35.6744 40.4515L42.0526 43.4262ZM41.4394 44.4866C41.322 44.6546 41.1975 44.8171 41.0658 44.974L35.6744 40.4515L41.4394 44.4866ZM40.6517 45.4276C40.5071 45.5723 40.3562 45.7105 40.1989 45.8424L35.6744 40.4515L40.6517 45.4276ZM39.7118 46.2171C39.5449 46.334 39.3721 46.4438 39.1935 46.5464L35.6744 40.4515L39.7118 46.2171ZM35.6721 40.4502L37.4942 47.2505C37.2946 47.304 37.0948 47.3483 36.8951 47.3834L35.6721 40.4502ZM35.6721 40.4502L35.057 47.4643C34.8522 47.4462 34.6481 47.4194 34.4448 47.3842L35.6721 40.4502ZM35.6721 40.4502L32.697 46.8271C32.5112 46.741 32.3295 46.646 32.1524 46.5437L35.6721 40.4502ZM35.6721 40.4502L30.6941 45.4279C30.55 45.2836 30.4118 45.1327 30.2794 44.9752L35.6721 40.4502ZM35.6721 40.4502L29.9052 44.4899C29.7882 44.323 29.6785 44.1502 29.5759 43.9716L35.6721 40.4502ZM35.6721 40.4502L31.637 46.2151C31.469 46.0978 31.3066 45.9732 31.1496 45.8416L35.6721 40.4502ZM35.6721 40.4502L33.8502 47.2501C33.6521 47.1968 33.457 47.1349 33.2647 47.0643L35.6721 40.4502ZM35.6721 40.4502L36.2855 47.4627C36.0803 47.481 35.8759 47.49 35.6724 47.4898L35.6721 40.4502ZM38.6495 46.8313C38.4649 46.9166 38.2756 46.9947 38.0814 47.0656L35.6744 40.4515L38.6495 46.8313ZM42.687 39.8381C42.7052 40.0433 42.7142 40.2477 42.7141 40.4512L35.6744 40.4515L42.687 39.8381ZM42.6875 41.0649C42.6693 41.2698 42.6423 41.4726 42.6064 41.6735L35.6744 40.4515L42.6875 41.0649ZM42.4737 42.2736C42.4204 42.4717 42.3585 42.6668 42.2879 42.859L35.6744 40.4515L42.4737 42.2736ZM42.0526 43.4262C41.9665 43.6121 41.8714 43.7938 41.7692 43.9709L35.6744 40.4515L42.0526 43.4262ZM41.4394 44.4866C41.322 44.6546 41.1975 44.8171 41.0658 44.974L35.6744 40.4515L41.4394 44.4866ZM40.6517 45.4276C40.5071 45.5723 40.3562 45.7105 40.1989 45.8424L35.6744 40.4515L40.6517 45.4276ZM39.7118 46.2171C39.5449 46.334 39.3721 46.4438 39.1935 46.5464L35.6744 40.4515L39.7118 46.2171ZM38.6492 46.8301C38.4646 46.9154 38.2752 46.9935 38.0811 47.0643L35.6744 40.4515L38.6492 46.8301ZM35.6744 40.4515L37.4961 47.25C37.2964 47.3035 37.0967 47.3478 36.8969 47.3829L35.6744 40.4515ZM35.6744 40.4515L35.0594 47.4657C34.8545 47.4475 34.6504 47.4208 34.4471 47.3855L35.6744 40.4515ZM35.6744 40.4515L32.6994 46.8285C32.5135 46.7424 32.3318 46.6473 32.1547 46.5451L35.6744 40.4515ZM35.6744 40.4515L30.6965 45.4293C30.5523 45.285 30.4141 45.1341 30.2817 44.9765L35.6744 40.4515ZM35.6744 40.4515L29.9075 44.4913C29.7906 44.3243 29.6808 44.1516 29.5782 43.9729L35.6744 40.4515ZM35.6744 40.4515L31.6393 46.2165C31.4714 46.0991 31.3089 45.9746 31.1519 45.8429L35.6744 40.4515ZM35.6744 40.4515L33.8525 47.2514C33.6544 47.1982 33.4593 47.1362 33.2671 47.0656L35.6744 40.4515ZM35.6744 40.4515L36.2878 47.4641C36.0826 47.4823 35.8783 47.4913 35.6747 47.4912L35.6744 40.4515ZM42.687 39.8381C42.7052 40.0433 42.7142 40.2477 42.7141 40.4512L35.6744 40.4515L42.687 39.8381ZM42.6875 41.0649C42.6693 41.2698 42.6423 41.4726 42.6064 41.6735L35.6744 40.4515L42.6875 41.0649ZM42.4737 42.2736C42.4204 42.4717 42.3585 42.6668 42.2879 42.859L35.6744 40.4515L42.4737 42.2736ZM42.0526 43.4262C41.9665 43.6121 41.8714 43.7938 41.7692 43.9709L35.6744 40.4515L42.0526 43.4262ZM41.4394 44.4866C41.322 44.6546 41.1975 44.8171 41.0658 44.974L35.6744 40.4515L41.4394 44.4866ZM40.6517 45.4276C40.5071 45.5723 40.3562 45.7105 40.1989 45.8424L35.6744 40.4515L40.6517 45.4276ZM39.7118 46.2171C39.5449 46.334 39.3721 46.4438 39.1935 46.5464L35.6744 40.4515L39.7118 46.2171ZM38.6492 46.8301C38.4646 46.9154 38.2752 46.9935 38.0811 47.0643L35.6744 40.4515L38.6492 46.8301ZM35.6744 40.4515L37.4961 47.25C37.2964 47.3035 37.0967 47.3478 36.8969 47.3829L35.6744 40.4515ZM35.6744 40.4515L36.2878 47.4641C36.0826 47.4823 35.8783 47.4913 35.6747 47.4912L35.6744 40.4515ZM35.6744 40.4515L35.0594 47.4657C34.8545 47.4475 34.6504 47.4208 34.4471 47.3855L35.6744 40.4515ZM35.6744 40.4515L32.6994 46.8285C32.5135 46.7424 32.3318 46.6473 32.1547 46.5451L35.6744 40.4515ZM35.6744 40.4515L30.6965 45.4293C30.5523 45.285 30.4141 45.1341 30.2817 44.9765L35.6744 40.4515ZM35.6744 40.4515L29.9075 44.4913C29.7906 44.3243 29.6808 44.1516 29.5782 43.9729L35.6744 40.4515ZM35.6744 40.4515L31.6393 46.2165C31.4714 46.0991 31.3089 45.9746 31.1519 45.8429L35.6744 40.4515ZM35.6744 40.4515L33.8525 47.2514C33.6544 47.1982 33.4593 47.1362 33.2671 47.0656L35.6744 40.4515ZM42.687 39.8381C42.7052 40.0433 42.7142 40.2477 42.7141 40.4512L35.6744 40.4515L42.687 39.8381ZM42.6875 41.0649C42.6693 41.2698 42.6423 41.4726 42.6064 41.6735L35.6744 40.4515L42.6875 41.0649ZM42.4737 42.2736C42.4204 42.4717 42.3585 42.6668 42.2879 42.859L35.6744 40.4515L42.4737 42.2736ZM42.0526 43.4262C41.9665 43.6121 41.8714 43.7938 41.7692 43.9709L35.6744 40.4515L42.0526 43.4262ZM41.4394 44.4866C41.322 44.6546 41.1975 44.8171 41.0658 44.974L35.6744 40.4515L41.4394 44.4866ZM40.6517 45.4276C40.5071 45.5723 40.3562 45.7105 40.1989 45.8424L35.6744 40.4515L40.6517 45.4276ZM39.7118 46.2171C39.5449 46.334 39.3721 46.4438 39.1935 46.5464L35.6744 40.4515L39.7118 46.2171ZM38.6492 46.8301C38.4646 46.9154 38.2752 46.9935 38.0811 47.0643L35.6744 40.4515L38.6492 46.8301ZM35.6744 40.4515L37.4961 47.25C37.2964 47.3035 37.0967 47.3478 36.8969 47.3829L35.6744 40.4515ZM35.6744 40.4515L36.2878 47.4641C36.0826 47.4823 35.8783 47.4913 35.6747 47.4912L35.6744 40.4515ZM35.6744 40.4515L35.0594 47.4657C34.8545 47.4475 34.6504 47.4208 34.4471 47.3855L35.6744 40.4515ZM35.6744 40.4515L33.8525 47.2514C33.6544 47.1982 33.4593 47.1362 33.2671 47.0656L35.6744 40.4515ZM35.6744 40.4515L32.6994 46.8285C32.5135 46.7424 32.3318 46.6473 32.1547 46.5451L35.6744 40.4515ZM35.6744 40.4515L30.6965 45.4293C30.5523 45.285 30.4141 45.1341 30.2817 44.9765L35.6744 40.4515ZM35.6744 40.4515L29.9075 44.4913C29.7906 44.3243 29.6808 44.1516 29.5782 43.9729L35.6744 40.4515ZM35.6744 40.4515L31.6393 46.2165C31.4714 46.0991 31.3089 45.9746 31.1519 45.8429L35.6744 40.4515ZM42.687 39.8381C42.7052 40.0433 42.7142 40.2477 42.7141 40.4512L35.6744 40.4515L42.687 39.8381ZM42.6875 41.0649C42.6693 41.2698 42.6423 41.4726 42.6064 41.6735L35.6744 40.4515L42.6875 41.0649ZM42.4737 42.2736C42.4204 42.4717 42.3585 42.6668 42.2879 42.859L35.6744 40.4515L42.4737 42.2736ZM42.0526 43.4262C41.9665 43.6121 41.8714 43.7938 41.7692 43.9709L35.6744 40.4515L42.0526 43.4262ZM41.4394 44.4866C41.322 44.6546 41.1975 44.8171 41.0658 44.974L35.6744 40.4515L41.4394 44.4866ZM40.6517 45.4276C40.5071 45.5723 40.3562 45.7105 40.1989 45.8424L35.6744 40.4515L40.6517 45.4276ZM39.7118 46.2171C39.5449 46.334 39.3721 46.4438 39.1935 46.5464L35.6744 40.4515L39.7118 46.2171ZM38.6492 46.8301C38.4646 46.9154 38.2752 46.9935 38.0811 47.0643L35.6744 40.4515L38.6492 46.8301ZM35.6744 40.4515L37.4961 47.25C37.2964 47.3035 37.0967 47.3478 36.8969 47.3829L35.6744 40.4515ZM35.6744 40.4515L36.2878 47.4641C36.0826 47.4823 35.8783 47.4913 35.6747 47.4912L35.6744 40.4515ZM35.6744 40.4515L35.0594 47.4657C34.8545 47.4475 34.6504 47.4208 34.4471 47.3855L35.6744 40.4515ZM35.6744 40.4515L33.8525 47.2514C33.6544 47.1982 33.4593 47.1362 33.2671 47.0656L35.6744 40.4515ZM35.6744 40.4515L32.6994 46.8285C32.5135 46.7424 32.3318 46.6473 32.1547 46.5451L35.6744 40.4515ZM35.6744 40.4515L31.6393 46.2165C31.4714 46.0991 31.3089 45.9746 31.1519 45.8429L35.6744 40.4515ZM35.6744 40.4515L30.6965 45.4293C30.5523 45.285 30.4141 45.1341 30.2817 44.9765L35.6744 40.4515ZM35.6744 40.4515L29.9075 44.4913C29.7906 44.3243 29.6808 44.1516 29.5782 43.9729L35.6744 40.4515ZM4.45011 45.9573L15.6911 43.9752C15.7937 44.5508 15.9217 45.1267 16.0753 45.7031L5.05077 48.6571C4.81008 47.7588 4.60986 46.8589 4.45011 45.9573ZM29.9075 44.4913C29.7906 44.3243 29.6808 44.1516 29.5782 43.9729L35.6744 40.4515L29.9075 44.4913ZM30.2822 44.9784L35.6744 40.4515L30.6965 45.4293C30.5523 45.285 30.4141 45.1341 30.2817 44.9765L30.2822 44.9784ZM31.1506 45.8452L35.6744 40.4515L31.6393 46.2165C31.4702 46.0998 31.3072 45.9755 31.1501 45.8434L31.1506 45.8452ZM32.1557 46.5488L35.6744 40.4515L32.6994 46.8285C32.5147 46.7467 32.3323 46.6492 32.1552 46.5469L32.1557 46.5488ZM33.2676 47.0675L35.6744 40.4515L33.8525 47.2514C33.6544 47.1982 33.4593 47.1362 33.2671 47.0656L33.2676 47.0675ZM34.4525 47.3861L35.6744 40.4515L35.0594 47.4657C34.8558 47.4476 34.6534 47.4204 34.452 47.3842L34.4525 47.3861ZM35.6752 47.493L35.6744 40.4515L36.2878 47.4641C36.0826 47.4823 35.8783 47.4913 35.6747 47.4912L35.6752 47.493ZM36.8974 47.3848L35.6744 40.4515L37.4961 47.25C37.2964 47.3035 37.0967 47.3478 36.8969 47.3829L36.8974 47.3848ZM38.0819 47.0674L35.6744 40.4515L38.6495 46.8313C38.465 46.917 38.2757 46.9951 38.0814 47.0656L38.0819 47.0674ZM39.1945 46.55L35.6744 40.4515L39.7142 46.2184C39.5461 46.3361 39.3727 46.446 39.194 46.5482L39.1945 46.55ZM40.1999 45.8461L35.6744 40.4515L40.6522 45.4295C40.5076 45.5741 40.3567 45.7124 40.1994 45.8442L40.1999 45.8461ZM41.0668 44.9777L35.6744 40.4515L41.4394 44.4866C41.3223 44.6558 41.198 44.8189 41.0663 44.9758L41.0668 44.9777ZM41.7698 43.9707L35.6744 40.4515L42.0514 43.4266C41.9671 43.6119 41.8733 43.7933 41.7698 43.9707ZM42.2885 42.8589L35.6744 40.4515L42.4743 42.2734C42.4211 42.4715 42.3591 42.6667 42.2885 42.8589ZM42.6886 41.0666C42.6704 41.2714 42.6434 41.4743 42.6075 41.6752L35.6744 40.4515L42.6886 41.0666ZM42.7144 40.4524L35.6744 40.4515L42.687 39.8381C42.7052 40.0433 42.7142 40.2477 42.7141 40.4512L42.7144 40.4524ZM35.6744 40.4515L30.6965 45.4293C30.5523 45.285 30.4141 45.1341 30.2817 44.9765L35.6744 40.4515ZM35.6744 40.4515L29.9075 44.4913C29.7906 44.3243 29.6808 44.1516 29.5782 43.9729L35.6744 40.4515ZM35.6744 40.4515L31.6393 46.2165C31.4714 46.0991 31.3089 45.9746 31.1519 45.8429L35.6744 40.4515ZM35.6744 40.4515L32.6994 46.8285C32.5135 46.7424 32.3318 46.6473 32.1547 46.5451L35.6744 40.4515ZM35.6744 40.4515L33.8525 47.2514C33.6544 47.1982 33.4593 47.1362 33.2671 47.0656L35.6744 40.4515ZM35.6744 40.4515L35.0594 47.4657C34.8545 47.4475 34.6504 47.4208 34.4471 47.3855L35.6744 40.4515ZM35.6744 40.4515L36.2878 47.4641C36.0826 47.4823 35.8783 47.4913 35.6747 47.4912L35.6744 40.4515ZM35.6744 40.4515L37.4961 47.25C37.2964 47.3035 37.0967 47.3478 36.8969 47.3829L35.6744 40.4515ZM38.6495 46.8313C38.4649 46.9166 38.2756 46.9947 38.0814 47.0656L35.6744 40.4515L38.6495 46.8313ZM39.7122 46.2183C39.5452 46.3353 39.3725 46.445 39.1938 46.5476L35.6744 40.4515L39.7122 46.2183ZM40.652 45.4289C40.5074 45.5735 40.3565 45.7118 40.1993 45.8436L35.6744 40.4515L40.652 45.4289ZM41.4394 44.4866C41.322 44.6546 41.1975 44.8171 41.0658 44.974L35.6744 40.4515L41.4394 44.4866ZM42.0527 43.4242C41.9666 43.6101 41.8716 43.7918 41.7693 43.9689L35.6744 40.4515L42.0527 43.4242ZM42.4738 42.2716C42.4206 42.4697 42.3586 42.6648 42.288 42.857L35.6744 40.4515L42.4738 42.2716ZM42.6886 41.0666C42.6704 41.2714 42.6434 41.4743 42.6075 41.6752L35.6744 40.4515L42.6886 41.0666ZM42.6881 39.8398C42.7063 40.045 42.7153 40.2494 42.7152 40.4529L35.6744 40.4515L42.6881 39.8398ZM35.6744 40.4515L32.6994 46.8285C32.5135 46.7424 32.3318 46.6473 32.1547 46.5451L35.6744 40.4515ZM35.6744 40.4515L30.6965 45.4293C30.5523 45.285 30.4141 45.1341 30.2817 44.9765L35.6744 40.4515ZM35.6744 40.4515L29.9075 44.4913C29.7906 44.3243 29.6808 44.1516 29.5782 43.9729L35.6744 40.4515ZM35.6744 40.4515L31.6393 46.2165C31.4714 46.0991 31.3089 45.9746 31.1519 45.8429L35.6744 40.4515ZM35.6744 40.4515L33.8525 47.2514C33.6544 47.1982 33.4593 47.1362 33.2671 47.0656L35.6744 40.4515ZM35.6744 40.4515L35.0594 47.4657C34.8545 47.4475 34.6504 47.4208 34.4471 47.3855L35.6744 40.4515ZM35.6744 40.4515L36.2878 47.4641C36.0826 47.4823 35.8783 47.4913 35.6747 47.4912L35.6744 40.4515ZM35.6744 40.4515L37.4961 47.25C37.2964 47.3035 37.0967 47.3478 36.8969 47.3829L35.6744 40.4515ZM38.6495 46.8313C38.4649 46.9166 38.2756 46.9947 38.0814 47.0656L35.6744 40.4515L38.6495 46.8313ZM39.7122 46.2183C39.5452 46.3353 39.3725 46.445 39.1938 46.5476L35.6744 40.4515L39.7122 46.2183ZM40.652 45.4289C40.5074 45.5735 40.3565 45.7118 40.1993 45.8436L35.6744 40.4515L40.652 45.4289ZM41.4394 44.4866C41.322 44.6546 41.1975 44.8171 41.0658 44.974L35.6744 40.4515L41.4394 44.4866ZM42.0527 43.4242C41.9666 43.6101 41.8716 43.7918 41.7693 43.9689L35.6744 40.4515L42.0527 43.4242ZM42.4738 42.2716C42.4206 42.4697 42.3586 42.6648 42.288 42.857L35.6744 40.4515L42.4738 42.2716ZM42.6886 41.0666C42.6704 41.2714 42.6434 41.4743 42.6075 41.6752L35.6744 40.4515L42.6886 41.0666ZM42.6881 39.8398C42.7063 40.045 42.7153 40.2494 42.7152 40.4529L35.6744 40.4515L42.6881 39.8398ZM35.6744 40.4515L35.0594 47.4657C34.8545 47.4475 34.6504 47.4208 34.4471 47.3855L35.6744 40.4515ZM35.6744 40.4515L32.6994 46.8285C32.5135 46.7424 32.3318 46.6473 32.1547 46.5451L35.6744 40.4515ZM35.6744 40.4515L30.6965 45.4293C30.5523 45.285 30.4141 45.1341 30.2817 44.9765L35.6744 40.4515ZM35.6744 40.4515L29.9075 44.4913C29.7906 44.3243 29.6808 44.1516 29.5782 43.9729L35.6744 40.4515ZM35.6744 40.4515L31.6393 46.2165C31.4714 46.0991 31.3089 45.9746 31.1519 45.8429L35.6744 40.4515ZM35.6744 40.4515L33.8525 47.2514C33.6544 47.1982 33.4593 47.1362 33.2671 47.0656L35.6744 40.4515ZM35.6744 40.4515L36.2878 47.4641C36.0826 47.4823 35.8783 47.4913 35.6747 47.4912L35.6744 40.4515ZM35.6744 40.4515L37.4961 47.25C37.2964 47.3035 37.0967 47.3478 36.8969 47.3829L35.6744 40.4515ZM38.6495 46.8313C38.4649 46.9166 38.2756 46.9947 38.0814 47.0656L35.6744 40.4515L38.6495 46.8313ZM39.7122 46.2183C39.5452 46.3353 39.3725 46.445 39.1938 46.5476L35.6744 40.4515L39.7122 46.2183ZM40.652 45.4289C40.5074 45.5735 40.3565 45.7118 40.1993 45.8436L35.6744 40.4515L40.652 45.4289ZM41.4394 44.4866C41.322 44.6546 41.1975 44.8171 41.0658 44.974L35.6744 40.4515L41.4394 44.4866ZM42.0527 43.4242C41.9666 43.6101 41.8716 43.7918 41.7693 43.9689L35.6744 40.4515L42.0527 43.4242ZM42.4738 42.2716C42.4206 42.4697 42.3586 42.6648 42.288 42.857L35.6744 40.4515L42.4738 42.2716ZM42.6886 41.0666C42.6704 41.2714 42.6434 41.4743 42.6075 41.6752L35.6744 40.4515L42.6886 41.0666ZM42.6881 39.8398C42.7063 40.045 42.7153 40.2494 42.7152 40.4529L35.6744 40.4515L42.6881 39.8398ZM35.6744 40.4515L37.4961 47.25C37.2964 47.3035 37.0967 47.3478 36.8969 47.3829L35.6744 40.4515ZM35.6744 40.4515L35.0594 47.4657C34.8545 47.4475 34.6504 47.4208 34.4471 47.3855L35.6744 40.4515ZM35.6744 40.4515L32.6994 46.8285C32.5135 46.7424 32.3318 46.6473 32.1547 46.5451L35.6744 40.4515ZM35.6744 40.4515L30.6965 45.4293C30.5523 45.285 30.4141 45.1341 30.2817 44.9765L35.6744 40.4515ZM35.6744 40.4515L29.9075 44.4913C29.7906 44.3243 29.6808 44.1516 29.5782 43.9729L35.6744 40.4515ZM35.6744 40.4515L31.6393 46.2165C31.4714 46.0991 31.3089 45.9746 31.1519 45.8429L35.6744 40.4515ZM35.6744 40.4515L33.8525 47.2514C33.6544 47.1982 33.4593 47.1362 33.2671 47.0656L35.6744 40.4515ZM35.6744 40.4515L36.2878 47.4641C36.0826 47.4823 35.8783 47.4913 35.6747 47.4912L35.6744 40.4515ZM38.6495 46.8313C38.4649 46.9166 38.2756 46.9947 38.0814 47.0656L35.6744 40.4515L38.6495 46.8313ZM39.7122 46.2183C39.5452 46.3353 39.3725 46.445 39.1938 46.5476L35.6744 40.4515L39.7122 46.2183ZM40.652 45.4289C40.5074 45.5735 40.3565 45.7118 40.1993 45.8436L35.6744 40.4515L40.652 45.4289ZM41.4394 44.4866C41.322 44.6546 41.1975 44.8171 41.0658 44.974L35.6744 40.4515L41.4394 44.4866ZM42.0527 43.4242C41.9666 43.6101 41.8716 43.7918 41.7693 43.9689L35.6744 40.4515L42.0527 43.4242ZM42.4738 42.2716C42.4206 42.4697 42.3586 42.6648 42.288 42.857L35.6744 40.4515L42.4738 42.2716ZM42.6886 41.0666C42.6704 41.2714 42.6434 41.4743 42.6075 41.6752L35.6744 40.4515L42.6886 41.0666ZM42.6881 39.8398C42.7063 40.045 42.7153 40.2494 42.7152 40.4529L35.6744 40.4515L42.6881 39.8398ZM39.7134 46.2206C39.5465 46.3375 39.3737 46.4473 39.1951 46.5499L35.6744 40.4515L39.7134 46.2206ZM35.6737 40.4537L37.4948 47.2503C37.2952 47.3038 37.0955 47.3481 36.8957 47.3833L35.6737 40.4537ZM35.6737 40.4537L35.0586 47.4679C34.8538 47.4497 34.6497 47.4229 34.4464 47.3877L35.6737 40.4537ZM35.6737 40.4537L32.6986 46.8306C32.5128 46.7446 32.3311 46.6495 32.154 46.5473L35.6737 40.4537ZM35.6737 40.4537L30.6957 45.4315C30.5516 45.2871 30.4134 45.1362 30.281 44.9787L35.6737 40.4537ZM35.6737 40.4537L29.9068 44.4934C29.7898 44.3265 29.6801 44.1537 29.5775 43.9751L35.6737 40.4537ZM35.6737 40.4537L31.6386 46.2186C31.4706 46.1013 31.3082 45.9768 31.1512 45.8451L35.6737 40.4537ZM35.6737 40.4537L33.8518 47.2536C33.6537 47.2003 33.4586 47.1384 33.2663 47.0678L35.6737 40.4537ZM35.6737 40.4537L36.2871 47.4663C36.0819 47.4845 35.8775 47.4935 35.674 47.4933L35.6737 40.4537ZM38.6495 46.8313C38.4649 46.9166 38.2756 46.9947 38.0814 47.0656L35.6744 40.4515L38.6495 46.8313ZM40.6522 45.4295C40.5076 45.5741 40.3567 45.7124 40.1994 45.8442L35.6744 40.4515L40.6522 45.4295ZM41.4394 44.4866C41.322 44.6546 41.1975 44.8171 41.0658 44.974L35.6744 40.4515L41.4394 44.4866ZM42.0527 43.4242C41.9666 43.6101 41.8716 43.7918 41.7693 43.9689L35.6744 40.4515L42.0527 43.4242ZM42.4738 42.2716C42.4206 42.4697 42.3586 42.6648 42.288 42.857L35.6744 40.4515L42.4738 42.2716ZM42.6886 41.0666C42.6704 41.2714 42.6434 41.4743 42.6075 41.6752L35.6744 40.4515L42.6886 41.0666ZM42.6881 39.8398C42.7063 40.045 42.7153 40.2494 42.7152 40.4529L35.6744 40.4515L42.6881 39.8398ZM41.4397 44.4904C41.3224 44.6584 41.1979 44.8209 41.0662 44.9778L35.6744 40.4515L41.4397 44.4904ZM39.7122 46.2209C39.5453 46.3379 39.3725 46.4476 39.1939 46.5502L35.6744 40.4515L39.7122 46.2209ZM35.6725 40.454L37.4936 47.2506C37.2939 47.3041 37.0942 47.3485 36.8945 47.3836L35.6725 40.454ZM35.6725 40.454L35.0574 47.4682C34.8525 47.45 34.6484 47.4233 34.4451 47.388L35.6725 40.454ZM35.6725 40.454L32.6974 46.831C32.5116 46.7449 32.3298 46.6498 32.1528 46.5476L35.6725 40.454ZM35.6725 40.454L30.6945 45.4318C30.5504 45.2875 30.4121 45.1366 30.2798 44.979L35.6725 40.454ZM35.6725 40.454L29.9055 44.4938C29.7886 44.3268 29.6789 44.1541 29.5763 43.9754L35.6725 40.454ZM35.6725 40.454L31.6374 46.219C31.4694 46.1016 31.3069 45.9771 31.15 45.8454L35.6725 40.454ZM35.6725 40.454L33.8506 47.2539C33.6525 47.2007 33.4573 47.1387 33.2651 47.0681L35.6725 40.454ZM35.6725 40.454L36.2858 47.4666C36.0807 47.4848 35.8763 47.4938 35.6728 47.4937L35.6725 40.454ZM38.6495 46.8313C38.4649 46.9166 38.2756 46.9947 38.0814 47.0656L35.6744 40.4515L38.6495 46.8313ZM40.6522 45.4295C40.5076 45.5741 40.3567 45.7124 40.1994 45.8442L35.6744 40.4515L40.6522 45.4295ZM42.0532 43.4261C41.9671 43.6119 41.8721 43.7936 41.7698 43.9707L35.6744 40.4515L42.0532 43.4261ZM42.4743 42.2734C42.4211 42.4715 42.3591 42.6667 42.2885 42.8589L35.6744 40.4515L42.4743 42.2734ZM42.6886 41.0666C42.6704 41.2714 42.6434 41.4743 42.6075 41.6752L35.6744 40.4515L42.6886 41.0666ZM42.6881 39.8398C42.7063 40.045 42.7153 40.2494 42.7152 40.4529L35.6744 40.4515L42.6881 39.8398ZM42.4754 42.2751C42.4222 42.4732 42.3602 42.6683 42.2896 42.8605L35.6744 40.4515L42.4754 42.2751ZM41.4394 44.4866C41.322 44.6546 41.1975 44.8171 41.0658 44.974L35.6744 40.4515L41.4394 44.4866ZM39.7118 46.2171C39.5449 46.334 39.3721 46.4438 39.1935 46.5464L35.6744 40.4515L39.7118 46.2171ZM35.6721 40.4502L37.4942 47.2505C37.2946 47.304 37.0948 47.3483 36.8951 47.3834L35.6721 40.4502ZM35.6721 40.4502L35.057 47.4643C34.8522 47.4462 34.6481 47.4194 34.4448 47.3842L35.6721 40.4502ZM35.6721 40.4502L32.697 46.8271C32.5112 46.741 32.3295 46.646 32.1524 46.5437L35.6721 40.4502ZM35.6721 40.4502L30.6941 45.4279C30.55 45.2836 30.4118 45.1327 30.2794 44.9752L35.6721 40.4502ZM35.6721 40.4502L29.9052 44.4899C29.7882 44.323 29.6785 44.1502 29.5759 43.9716L35.6721 40.4502ZM35.6721 40.4502L31.637 46.2151C31.469 46.0978 31.3066 45.9732 31.1496 45.8416L35.6721 40.4502ZM35.6721 40.4502L33.8502 47.2501C33.6521 47.1968 33.457 47.1349 33.2647 47.0643L35.6721 40.4502ZM35.6721 40.4502L36.2855 47.4627C36.0803 47.481 35.8759 47.49 35.6724 47.4898L35.6721 40.4502ZM38.6495 46.8313C38.4649 46.9166 38.2756 46.9947 38.0814 47.0656L35.6744 40.4515L38.6495 46.8313ZM40.6522 45.4295C40.5076 45.5741 40.3567 45.7124 40.1994 45.8442L35.6744 40.4515L40.6522 45.4295ZM42.0532 43.4261C41.9671 43.6119 41.8721 43.7936 41.7698 43.9707L35.6744 40.4515L42.0532 43.4261ZM42.6886 41.0666C42.6704 41.2714 42.6434 41.4743 42.6075 41.6752L35.6744 40.4515L42.6886 41.0666ZM42.6881 39.8398C42.7063 40.045 42.7153 40.2494 42.7152 40.4529L35.6744 40.4515L42.6881 39.8398ZM42.6881 39.8398C42.7063 40.045 42.7153 40.2494 42.7152 40.4529L35.6744 40.4515L42.6881 39.8398ZM42.4754 42.2751C42.4222 42.4732 42.3602 42.6683 42.2896 42.8605L35.6744 40.4515L42.4754 42.2751ZM41.4394 44.4866C41.322 44.6546 41.1975 44.8171 41.0658 44.974L35.6744 40.4515L41.4394 44.4866ZM39.7118 46.2171C39.5449 46.334 39.3721 46.4438 39.1935 46.5464L35.6744 40.4515L39.7118 46.2171ZM35.6721 40.4502L37.4942 47.2505C37.2946 47.304 37.0948 47.3483 36.8951 47.3834L35.6721 40.4502ZM35.6721 40.4502L35.057 47.4643C34.8522 47.4462 34.6481 47.4194 34.4448 47.3842L35.6721 40.4502ZM35.6721 40.4502L32.697 46.8271C32.5112 46.741 32.3295 46.646 32.1524 46.5437L35.6721 40.4502ZM35.6721 40.4502L30.6941 45.4279C30.55 45.2836 30.4118 45.1327 30.2794 44.9752L35.6721 40.4502ZM35.6721 40.4502L29.9052 44.4899C29.7882 44.323 29.6785 44.1502 29.5759 43.9716L35.6721 40.4502ZM35.6721 40.4502L31.637 46.2151C31.469 46.0978 31.3066 45.9732 31.1496 45.8416L35.6721 40.4502ZM35.6721 40.4502L33.8502 47.2501C33.6521 47.1968 33.457 47.1349 33.2647 47.0643L35.6721 40.4502ZM35.6721 40.4502L36.2855 47.4627C36.0803 47.481 35.8759 47.49 35.6724 47.4898L35.6721 40.4502ZM38.6495 46.8313C38.4649 46.9166 38.2756 46.9947 38.0814 47.0656L35.6744 40.4515L38.6495 46.8313ZM40.6522 45.4295C40.5076 45.5741 40.3567 45.7124 40.1994 45.8442L35.6744 40.4515L40.6522 45.4295ZM42.0532 43.4261C41.9671 43.6119 41.8721 43.7936 41.7698 43.9707L35.6744 40.4515L42.0532 43.4261ZM42.6886 41.0666C42.6704 41.2714 42.6434 41.4743 42.6075 41.6752L35.6744 40.4515L42.6886 41.0666ZM5.88064 29.6072L16.6066 33.511C16.4049 34.0648 16.2274 34.6275 16.0742 35.1989L5.04816 32.2453C5.28557 31.3511 5.56306 30.4717 5.88064 29.6072ZM11.3861 20.0715L20.1298 27.4086C19.7498 27.8605 19.391 28.3286 19.0534 28.813L9.70467 22.2682C10.2319 21.5116 10.7924 20.7794 11.3861 20.0715ZM52.2952 52.0895L61.6442 58.6349C61.1163 59.389 60.5557 60.1208 59.9624 60.8303L51.219 53.4945C51.5984 53.0418 51.9571 52.5735 52.2952 52.0895ZM50.0232 54.7989L58.0942 62.8709C57.4441 63.5221 56.7649 64.1459 56.0565 64.7423L48.7182 55.9967C49.1726 55.6167 49.6078 55.2183 50.0239 54.8013L50.0232 54.7989ZM47.3147 57.0745L53.864 66.4306C53.1125 66.9576 52.3347 67.4529 51.5307 67.9164L45.8189 58.0287C46.3349 57.7315 46.8337 57.4143 47.3153 57.077L47.3147 57.0745ZM44.2504 58.8409L49.0722 69.1903C48.2423 69.5767 47.3901 69.9287 46.5154 70.2463L42.6145 59.5195C43.1737 59.3167 43.7192 59.0913 44.251 58.8433L44.2504 58.8409ZM39.1975 60.4324C39.7737 60.3323 40.3499 60.205 40.926 60.0507L43.88 71.0752C42.9817 71.3159 42.0818 71.5161 41.1802 71.6758L39.1975 60.4324ZM42.687 39.8381C42.7052 40.0433 42.7142 40.2477 42.7141 40.4512L35.6744 40.4515L42.687 39.8381ZM42.4743 42.2734C42.4211 42.4715 42.3591 42.6667 42.2885 42.8589L35.6744 40.4515L42.4743 42.2734ZM41.4394 44.4866C41.322 44.6546 41.1975 44.8171 41.0658 44.974L35.6744 40.4515L41.4394 44.4866ZM39.7118 46.2171C39.5449 46.334 39.3721 46.4438 39.1935 46.5464L35.6744 40.4515L39.7118 46.2171ZM35.6721 40.4502L37.4942 47.2505C37.2946 47.304 37.0948 47.3483 36.8951 47.3834L35.6721 40.4502ZM35.6721 40.4502L35.057 47.4643C34.8522 47.4462 34.6481 47.4194 34.4448 47.3842L35.6721 40.4502ZM35.6721 40.4502L32.697 46.8271C32.5112 46.741 32.3295 46.646 32.1524 46.5437L35.6721 40.4502ZM35.6721 40.4502L30.6941 45.4279C30.55 45.2836 30.4118 45.1327 30.2794 44.9752L35.6721 40.4502ZM15.4565 42.2204L28.66 41.0654C28.6784 41.2679 28.7054 41.4709 28.7412 41.6745L15.6892 43.9757C15.5865 43.3897 15.5089 42.8046 15.4565 42.2204ZM15.4541 38.6834L28.6603 39.8365C28.6424 40.0395 28.6338 40.244 28.6343 40.45L15.3766 40.4523C15.3781 39.8585 15.4046 39.2687 15.4559 38.6829L15.4541 38.6834ZM28.7417 39.2291L15.6873 36.9273C15.7905 36.3425 15.9182 35.7672 16.0703 35.2013L28.8712 38.6318C28.8207 38.8274 28.7776 39.0265 28.7417 39.2291ZM29.0603 38.0442L16.6066 33.511C16.8081 32.9563 17.0341 32.4116 17.2846 31.8766L29.2956 37.477C29.2088 37.6626 29.1304 37.8517 29.0603 38.0442ZM29.579 36.9323L18.1026 30.3064C18.3977 29.7955 18.7146 29.2978 19.0536 28.8136L29.9095 36.4164C29.7904 36.5796 29.6812 36.7553 29.579 36.9323ZM30.2825 35.9272L20.1298 27.4086C20.5086 26.957 20.9071 26.522 21.3254 26.1036L30.6968 35.4742C30.5518 35.619 30.4137 35.77 30.2825 35.9272ZM31.1494 35.0588L22.6288 24.9042C23.0797 24.5261 23.548 24.1667 24.0335 23.8261L31.6359 34.6843C31.4672 34.8026 31.305 34.9274 31.1494 35.0588ZM29.9075 44.4913C29.7906 44.3243 29.6808 44.1516 29.5782 43.9729L35.6744 40.4515L29.9075 44.4913ZM32.1548 34.3549L25.5269 22.8752C26.0344 22.5825 26.5581 22.3109 27.098 22.0603L32.6995 34.0724C32.5126 34.1588 32.331 34.2529 32.1548 34.3549ZM28.7344 21.3836C29.2839 21.1838 29.8467 21.0068 30.4228 20.8524L33.8528 33.6531C33.6531 33.7066 33.458 33.768 33.2674 33.8375L28.7344 21.3836ZM33.9061 20.2355L35.061 33.4389C34.8585 33.4573 34.6555 33.4844 34.4519 33.5201L32.1507 20.4682C32.7365 20.3646 33.3216 20.287 33.9061 20.2355ZM37.443 20.233L36.2876 33.4378C36.0846 33.42 35.8801 33.4114 35.6741 33.4119L35.6712 20.157C36.2667 20.1563 36.8573 20.1817 37.443 20.233ZM40.9265 20.8495L37.496 33.6504C37.2984 33.5974 37.0986 33.5531 36.8965 33.5176L39.1986 20.4644C39.7818 20.5681 40.3577 20.6964 40.9265 20.8495ZM44.2488 22.0599L38.6495 34.0746C38.4638 33.9878 38.2748 33.9093 38.0823 33.8392L42.6149 21.3837C43.1699 21.5864 43.7148 21.8126 44.2495 22.0624L44.2488 22.0599ZM47.3117 23.8282L39.7107 34.6836C39.5432 34.5657 39.37 34.4559 39.1929 34.3537L45.8195 22.8797C46.3305 23.1748 46.8281 23.4917 47.3124 23.8307L47.3117 23.8282ZM50.0211 26.1003L40.6505 35.4716C40.5053 35.3267 40.3541 35.1887 40.1969 35.0575L48.7174 24.9069C49.1694 25.2856 49.6051 25.6844 50.0245 26.1033L50.0211 26.1003ZM52.3005 28.8105L41.4413 36.4118C41.3231 36.2435 41.1983 36.0813 41.0668 35.9253L51.2217 27.4059C51.5999 27.8568 51.9595 28.325 52.3005 28.8105ZM35.6744 40.4515L31.6393 46.2165C31.4714 46.0991 31.3089 45.9746 31.1519 45.8429L35.6744 40.4515ZM35.6744 40.4515L33.8525 47.2514C33.6544 47.1982 33.4593 47.1362 33.2671 47.0656L35.6744 40.4515ZM35.6744 40.4515L36.2878 47.4641C36.0826 47.4823 35.8783 47.4913 35.6747 47.4912L35.6744 40.4515ZM38.6495 46.8313C38.4649 46.9166 38.2756 46.9947 38.0814 47.0656L35.6744 40.4515L38.6495 46.8313ZM40.6522 45.4295C40.5076 45.5741 40.3567 45.7124 40.1994 45.8442L35.6744 40.4515L40.6522 45.4295ZM42.0532 43.4261C41.9671 43.6119 41.8721 43.7936 41.7698 43.9707L35.6744 40.4515L42.0532 43.4261ZM42.6886 41.0666C42.6704 41.2714 42.6434 41.4743 42.6075 41.6752L35.6744 40.4515L42.6886 41.0666ZM35.675 60.7487C36.2609 60.7484 36.8503 60.7217 37.4431 60.6688L38.4382 72.041C37.5137 72.1233 36.5925 72.1644 35.6748 72.1643L35.675 60.7487ZM22.632 55.9979C23.0839 56.3779 23.552 56.7367 24.0364 57.0743L17.4897 66.4236C16.7356 65.8957 16.0038 65.3351 15.2943 64.7419L22.632 55.9979ZM20.1246 53.4998C20.5081 53.9528 20.9072 54.3864 21.3218 54.8004L13.2498 62.8713C12.5986 62.2213 11.9748 61.5421 11.3784 60.8336L20.1246 53.4998ZM18.0956 50.5997C18.3922 51.1137 18.7092 51.6115 19.0465 52.0931L9.69471 58.6413C9.16773 57.8897 8.67246 57.1119 8.20889 56.3079L18.0956 50.5997ZM54.0636 49.0266L64.4077 53.85C64.0191 54.6863 63.5934 55.504 63.1306 56.3033L53.2462 50.5966C53.5412 50.0856 53.8137 49.5623 54.0636 49.0266ZM55.274 45.7043L66.3022 48.656C66.0634 49.5515 65.7854 50.4314 65.4682 51.2958L54.7422 47.3921C54.9444 46.8385 55.1224 46.2753 55.2761 45.7024L55.274 45.7043ZM55.8935 42.2199L67.2659 43.2151C67.1855 44.1382 67.0651 45.0525 66.9046 45.9581L55.6616 43.9757C55.7637 43.3965 55.841 42.8112 55.8935 42.2199ZM55.8911 38.683L67.2626 37.6881C67.3449 38.6126 67.3861 39.5337 67.386 40.4515L55.9697 40.4514C55.9711 39.8651 55.9446 39.2757 55.8905 38.6832L55.8911 38.683ZM55.2736 35.1999L66.2981 32.2459C66.5388 33.1442 66.739 34.0442 66.8987 34.9458L55.6571 36.928C55.5554 36.3522 55.4275 35.7762 55.2736 35.1999ZM15.2905 16.1586L22.6288 24.9042C22.1756 25.2856 21.741 25.6848 21.3249 26.1017L13.254 18.0297C13.9026 17.378 14.5814 16.7543 15.2905 16.1586ZM8.21827 24.5997L18.1026 30.3064C17.8076 30.8174 17.5352 31.3408 17.2853 31.8764L6.9411 27.0531C7.33062 26.217 7.75635 25.3992 8.21827 24.5997ZM4.4442 34.945L15.6873 36.9273C15.5852 37.5069 15.5081 38.0921 15.4559 38.6829L4.08372 37.691C4.16332 36.7664 4.28348 35.851 4.4442 34.945ZM3.96282 40.4516L15.3766 40.4523C15.3767 41.0387 15.4033 41.6281 15.4565 42.2204L4.08437 43.2155C4.00329 42.2906 3.96277 41.3693 3.96282 40.4516ZM16.6065 47.3916C16.8095 47.9499 17.0349 48.4954 17.2826 49.0281L6.9365 53.8524C6.55001 53.0225 6.19802 52.1702 5.88051 51.2956L16.6065 47.3916Z" fill="#212121"/>
<path d="M36.1629 42.2844C35.1481 42.5563 34.105 41.9541 33.8331 40.9393C33.5612 39.9245 34.1634 38.8814 35.1782 38.6095C36.193 38.3376 37.2361 38.9398 37.508 39.9546C37.7799 40.9694 37.1777 42.0125 36.1629 42.2844Z" fill="white"/>
<path d="M18.1283 50.6489L48.5429 33.0885L51.36 31.4626L51.2963 31.3523L48.4799 32.978L18.0647 50.5386L18.1283 50.6489Z" fill="#212121"/>
<path d="M29.9028 43.7794C30.1932 44.2839 30.5492 44.7476 30.9616 45.1585C31.9628 46.1599 33.2572 46.816 34.6568 47.0315C36.0564 47.2469 37.4883 47.0105 38.7443 46.3566C40.0004 45.7026 41.0152 44.6653 41.6414 43.3951C42.2676 42.125 42.4724 40.6883 42.2263 39.2938L42.6023 39.2272C42.8622 40.7019 42.6451 42.2212 41.9827 43.5642C41.3203 44.9072 40.2471 46.0041 38.9188 46.6956C37.5905 47.3871 36.0763 47.6371 34.5963 47.4094C33.1162 47.1817 31.7472 46.4881 30.6882 45.4293C30.2537 44.9946 29.8793 44.5037 29.575 43.9697L29.9028 43.7794Z" fill="#212121"/>
<path d="M44.7554 13.0218C42.7259 13.5657 40.6397 12.3612 40.0959 10.3317C39.5521 8.30212 40.7565 6.21599 42.7861 5.67217C44.8157 5.12835 46.9018 6.33278 47.4456 8.36234C47.9894 10.3919 46.785 12.478 44.7554 13.0218Z" fill="#212121"/>
<path d="M35.6695 40.4466L37.5425 40.1161L40.95 39.5155L53.4678 37.3082C53.3765 36.7931 53.2623 36.2801 53.125 35.7694C52.7182 34.2432 52.1129 32.7768 51.3248 31.4079L40.313 37.7655L37.3165 39.4959L35.6695 40.4466Z" fill="#212121"/>
<path d="M30.4216 20.851C33.2831 20.08 36.2791 19.9476 39.1974 20.463C46.7174 21.7946 53.1653 27.335 55.2723 35.1986C58.1727 46.0228 51.749 57.1489 40.9248 60.0493C38.0633 60.8203 35.0673 60.9527 32.149 60.4373L32.5343 58.2518C32.7512 58.2904 32.9696 58.3249 33.1896 58.3552C37.8797 59.0023 42.6365 57.7835 46.4376 54.9607C50.2387 52.138 52.7807 47.9366 53.5171 43.2596C54.2535 38.5827 53.1257 33.8035 50.3759 29.9492C47.6262 26.095 43.474 23.4734 38.812 22.6479C38.5952 22.6097 38.3767 22.5752 38.1567 22.5445C34.8054 22.0842 31.3923 22.5729 28.3048 23.955C25.2173 25.3371 22.5793 27.5573 20.6902 30.3634C18.8011 33.1694 17.7367 36.449 17.6178 39.8296C17.499 43.2102 18.3304 46.5565 20.0177 49.4883L18.0944 50.5984C17.2102 49.0613 16.531 47.4151 16.0741 45.7017C13.1737 34.8775 19.5974 23.7514 30.4216 20.851Z" fill="#960000"/>
<path d="M33.3756 31.8755C34.8808 31.4706 36.4662 31.4697 37.9718 31.873C39.4775 32.2764 40.8501 33.0696 41.9513 34.1728C42.5009 34.7207 42.9756 35.3389 43.3629 36.0114L41.4396 37.1215C41.1486 36.6176 40.7923 36.1544 40.3799 35.744C39.2376 34.603 37.7195 33.9159 36.1084 33.8108C34.4973 33.7057 32.9028 34.1896 31.6219 35.1725C30.3409 36.1554 29.4608 37.5703 29.1454 39.1537C28.8299 40.7372 29.1006 42.3813 29.9071 43.7801L27.9838 44.8901C27.3042 43.7105 26.9047 42.3904 26.8163 41.0318C26.728 39.6733 26.953 38.3125 27.4741 37.0548C27.9952 35.797 28.7984 34.6758 29.8216 33.7778C30.8449 32.8798 32.0609 32.2289 33.3756 31.8755Z" fill="#960000"/>
<path d="M19.1767 68.9987L20.4454 66.803C13.41 62.7375 8.3776 56.1764 6.27451 48.3275C1.93097 32.1172 11.5849 15.3952 27.7959 11.0515L27.1394 8.60156C20.838 10.285 15.1777 13.8001 10.8749 18.7019C6.57215 23.6037 3.82035 29.6719 2.96782 36.1383C2.11529 42.6047 3.20037 49.1787 6.0857 55.0282C8.97105 60.8777 13.5269 65.7397 19.1767 68.9987Z" fill="#960000"/>
</g>
<defs>
<clipPath id="clip0_82_19310">
<rect width="69.6696" height="76.0001" fill="white" transform="matrix(-1 0 0 1 69.6719 0)"/>
</clipPath>
</defs>
</svg>
