<svg width="1822" height="2079" viewBox="0 0 1822 2079" fill="none" xmlns="http://www.w3.org/2000/svg">
<g clip-path="url(#clip0_82_19447)">
<path d="M660.427 133.806C468.248 189.622 303.908 320.419 199.284 500.823C94.66 681.227 57.2104 898.378 94.1997 1110.16C131.189 1321.93 239.981 1513.24 399.471 1646.96C558.961 1780.69 757.782 1847.3 957.365 1833.88C1156.95 1820.46 1343.07 1727.96 1479.62 1574.32C1616.17 1420.69 1693.42 1216.87 1696.39 1002.41C1699.35 787.945 1627.82 578.122 1495.66 413.641C1363.51 249.161 1180.15 141.747 981.164 112.236C873.492 96.202 764.403 103.538 660.427 133.806V133.806ZM1114.89 1808.44C687.572 1931.91 238.19 1657.48 113.143 1196.71C-11.9033 735.932 234.014 260.619 661.336 137.155C1088.66 13.6902 1538.04 288.112 1663.09 748.888C1788.13 1209.66 1542.21 1684.98 1114.89 1808.44Z" fill="#212121"/>
<path d="M241.012 1685.08L238.672 1682.63L568.329 1321.07L570.669 1323.52L241.012 1685.08Z" fill="#212121"/>
<path d="M884.747 954.228L881.641 955.125L622.967 1.95558L626.074 1.05815L884.747 954.228Z" fill="#212121"/>
<path d="M1189.61 2077.61L1186.51 2078.51L913.828 1073.73L916.934 1072.83L1189.61 2077.61Z" fill="#212121"/>
<path d="M1032.64 1505.33C1154.63 1469.9 1258.95 1386.88 1325.37 1272.37C1391.79 1157.85 1415.57 1020.01 1392.1 885.576C1368.62 751.142 1299.57 629.701 1198.33 544.809C1097.09 459.917 970.887 417.625 844.194 426.138C717.501 434.65 599.352 493.36 512.666 590.879C425.979 688.398 376.934 817.774 375.044 953.912C373.155 1090.05 418.555 1223.24 502.438 1327.66C586.322 1432.08 702.709 1500.27 829.023 1519.01C897.371 1529.2 966.619 1524.55 1032.62 1505.33L1032.64 1505.33ZM1033.53 1508.68C759.06 1587.99 471.443 1412.35 391.125 1116.39C310.808 820.431 468.201 516.218 742.672 436.917C1017.14 357.615 1304.76 533.252 1385.08 829.211C1465.39 1125.17 1308 1429.38 1033.53 1508.68Z" fill="#212121"/>
<path d="M709.557 989.569C708.973 983.959 708.623 978.371 708.509 972.806L888.114 972.798L709.557 989.569ZM713.561 922.983C714.805 917.567 716.271 912.231 717.96 906.975L888.114 972.798L713.561 922.983ZM738.675 862.47C741.571 857.876 744.653 853.434 747.921 849.143L888.114 972.798L738.675 862.47ZM781.74 815.154C785.93 811.957 790.274 808.956 794.772 806.151L888.114 972.798L781.74 815.154ZM888.175 972.834L837.715 786.9C842.778 785.437 847.848 784.225 852.924 783.264L888.175 972.834ZM888.175 972.834L899.772 781.052C905.009 781.549 910.232 782.279 915.44 783.243L888.175 972.834ZM888.175 972.834L960.355 798.474C965.147 800.828 969.839 803.428 974.416 806.223L888.175 972.834ZM888.175 972.834L1012.27 836.731C1016.03 840.677 1019.65 844.803 1023.12 849.11L888.175 972.834ZM888.175 972.834L1032.95 862.379C1036.03 866.943 1038.93 871.667 1041.65 876.551L888.175 972.834ZM888.175 972.834L987.758 815.208C992.112 818.417 996.33 821.821 1000.41 825.422L888.175 972.834ZM888.175 972.834L930.688 786.91C935.772 788.366 940.787 790.06 945.733 791.99L888.175 972.834ZM888.175 972.834L868.431 781.095C873.655 780.597 878.864 780.35 884.057 780.355L888.175 972.834ZM808.485 798.361C813.144 796.027 817.93 793.892 822.842 791.955L888.114 972.798L808.485 798.361ZM758.208 836.69C761.813 832.734 765.582 828.954 769.517 825.35L888.114 972.798L758.208 836.69ZM723.633 891.467C725.72 886.385 728.04 881.417 730.545 876.575L888.114 972.798L723.633 891.467ZM708.8 955.981C709.144 950.379 709.716 944.832 710.514 939.34L888.114 972.798L708.8 955.981ZM709.528 989.523C708.944 983.913 708.594 978.325 708.479 972.76L888.114 972.798L709.528 989.523ZM708.8 955.981C709.144 950.379 709.716 944.832 710.514 939.34L888.114 972.798L708.8 955.981ZM713.548 922.933C714.791 917.517 716.257 912.181 717.946 906.925L888.114 972.798L713.548 922.933ZM738.675 862.47C741.571 857.876 744.653 853.434 747.921 849.143L888.114 972.798L738.675 862.47ZM781.74 815.154C785.93 811.957 790.274 808.956 794.772 806.151L888.114 972.798L781.74 815.154ZM888.175 972.834L837.715 786.9C842.778 785.437 847.848 784.225 852.924 783.264L888.175 972.834ZM888.175 972.834L899.772 781.052C905.009 781.549 910.232 782.279 915.44 783.243L888.175 972.834ZM888.175 972.834L960.355 798.474C965.147 800.828 969.839 803.428 974.416 806.223L888.175 972.834ZM888.175 972.834L1012.27 836.731C1016.03 840.677 1019.65 844.803 1023.12 849.11L888.175 972.834ZM888.175 972.834L1032.95 862.379C1036.03 866.943 1038.93 871.667 1041.65 876.551L888.175 972.834ZM888.175 972.834L987.758 815.208C992.112 818.417 996.33 821.821 1000.41 825.422L888.175 972.834ZM888.175 972.834L930.688 786.91C935.772 788.366 940.787 790.06 945.733 791.99L888.175 972.834ZM888.175 972.834L868.431 781.095C873.655 780.597 878.864 780.35 884.057 780.355L888.175 972.834ZM808.485 798.361C813.144 796.027 817.93 793.892 822.842 791.955L888.114 972.798L808.485 798.361ZM758.208 836.69C761.813 832.734 765.582 828.954 769.517 825.35L888.114 972.798L758.208 836.69ZM723.633 891.467C725.72 886.385 728.04 881.417 730.545 876.575L888.114 972.798L723.633 891.467ZM709.557 989.569C708.973 983.959 708.623 978.371 708.509 972.806L888.114 972.798L709.557 989.569ZM708.829 956.026C709.173 950.425 709.745 944.878 710.543 939.386L888.114 972.798L708.829 956.026ZM713.577 922.978C714.82 917.562 716.286 912.227 717.975 906.971L888.114 972.798L713.577 922.978ZM723.648 891.462C725.736 886.38 728.055 881.412 730.56 876.571L888.114 972.798L723.648 891.462ZM738.675 862.47C741.571 857.876 744.653 853.434 747.921 849.143L888.114 972.798L738.675 862.47ZM781.74 815.154C785.93 811.957 790.274 808.956 794.772 806.151L888.114 972.798L781.74 815.154ZM888.175 972.834L837.715 786.9C842.778 785.437 847.848 784.225 852.924 783.264L888.175 972.834ZM888.175 972.834L899.772 781.052C905.009 781.549 910.232 782.279 915.44 783.243L888.175 972.834ZM888.175 972.834L960.355 798.474C965.147 800.828 969.839 803.428 974.416 806.223L888.175 972.834ZM888.175 972.834L1012.27 836.731C1016.03 840.677 1019.65 844.803 1023.12 849.11L888.175 972.834ZM888.175 972.834L1032.95 862.379C1036.03 866.943 1038.93 871.667 1041.65 876.551L888.175 972.834ZM888.175 972.834L987.758 815.208C992.112 818.417 996.33 821.821 1000.41 825.422L888.175 972.834ZM888.175 972.834L930.688 786.91C935.772 788.366 940.787 790.06 945.733 791.99L888.175 972.834ZM888.175 972.834L868.431 781.095C873.655 780.597 878.864 780.35 884.057 780.355L888.175 972.834ZM808.485 798.361C813.144 796.027 817.93 793.892 822.842 791.955L888.114 972.798L808.485 798.361ZM758.208 836.69C761.813 832.734 765.582 828.954 769.517 825.35L888.114 972.798L758.208 836.69ZM709.557 989.569C708.973 983.959 708.623 978.371 708.509 972.806L888.114 972.798L709.557 989.569ZM708.829 956.026C709.173 950.425 709.745 944.878 710.543 939.386L888.114 972.798L708.829 956.026ZM713.577 922.978C714.82 917.562 716.286 912.227 717.975 906.971L888.114 972.798L713.577 922.978ZM723.648 891.462C725.736 886.38 728.055 881.412 730.56 876.571L888.114 972.798L723.648 891.462ZM738.675 862.47C741.571 857.876 744.653 853.434 747.921 849.143L888.114 972.798L738.675 862.47ZM758.221 836.74C761.826 832.785 765.596 829.005 769.531 825.4L888.114 972.798L758.221 836.74ZM781.74 815.154C785.93 811.957 790.274 808.956 794.772 806.151L888.114 972.798L781.74 815.154ZM888.175 972.834L837.715 786.9C842.778 785.437 847.848 784.225 852.924 783.264L888.175 972.834ZM888.175 972.834L899.772 781.052C905.009 781.549 910.232 782.279 915.44 783.243L888.175 972.834ZM888.175 972.834L960.355 798.474C965.147 800.828 969.839 803.428 974.416 806.223L888.175 972.834ZM888.175 972.834L1012.27 836.731C1016.03 840.677 1019.65 844.803 1023.12 849.11L888.175 972.834ZM888.175 972.834L1032.95 862.379C1036.03 866.943 1038.93 871.667 1041.65 876.551L888.175 972.834ZM888.175 972.834L987.758 815.208C992.112 818.417 996.33 821.821 1000.41 825.422L888.175 972.834ZM888.175 972.834L930.688 786.91C935.772 788.366 940.787 790.06 945.733 791.99L888.175 972.834ZM888.175 972.834L868.431 781.095C873.655 780.597 878.864 780.35 884.057 780.355L888.175 972.834ZM808.485 798.361C813.144 796.027 817.93 793.892 822.842 791.955L888.114 972.798L808.485 798.361ZM709.557 989.569C708.973 983.959 708.623 978.371 708.509 972.806L888.114 972.798L709.557 989.569ZM708.829 956.026C709.173 950.425 709.745 944.878 710.543 939.386L888.114 972.798L708.829 956.026ZM713.577 922.978C714.82 917.562 716.286 912.227 717.975 906.971L888.114 972.798L713.577 922.978ZM723.648 891.462C725.736 886.38 728.055 881.412 730.56 876.571L888.114 972.798L723.648 891.462ZM738.675 862.47C741.571 857.876 744.653 853.434 747.921 849.143L888.114 972.798L738.675 862.47ZM758.221 836.74C761.826 832.785 765.596 829.005 769.531 825.4L888.114 972.798L758.221 836.74ZM781.74 815.154C785.93 811.957 790.274 808.956 794.772 806.151L888.114 972.798L781.74 815.154ZM808.494 798.394C813.153 796.061 817.939 793.926 822.851 791.989L888.114 972.798L808.494 798.394ZM888.114 972.798L837.669 786.913C842.732 785.45 847.801 784.238 852.878 783.277L888.114 972.798ZM888.114 972.798L899.711 781.015C904.949 781.512 910.172 782.243 915.379 783.206L888.114 972.798ZM888.114 972.798L960.295 798.438C965.087 800.791 969.779 803.391 974.356 806.186L888.114 972.798ZM888.114 972.798L1012.21 836.694C1015.97 840.64 1019.59 844.767 1023.06 849.074L888.114 972.798ZM888.114 972.798L1032.89 862.342C1035.97 866.906 1038.87 871.63 1041.59 876.515L888.114 972.798ZM888.114 972.798L987.697 815.171C992.052 818.38 996.27 821.785 1000.35 825.385L888.114 972.798ZM888.114 972.798L930.627 786.873C935.712 788.329 940.727 790.023 945.673 791.953L888.114 972.798ZM888.114 972.798L868.37 781.058C873.595 780.56 878.803 780.313 883.997 780.318L888.114 972.798ZM709.557 989.569C708.973 983.959 708.623 978.371 708.509 972.806L888.114 972.798L709.557 989.569ZM708.829 956.026C709.173 950.425 709.745 944.878 710.543 939.386L888.114 972.798L708.829 956.026ZM713.577 922.978C714.82 917.562 716.286 912.227 717.975 906.971L888.114 972.798L713.577 922.978ZM723.648 891.462C725.736 886.38 728.055 881.412 730.56 876.571L888.114 972.798L723.648 891.462ZM738.675 862.47C741.571 857.876 744.653 853.434 747.921 849.143L888.114 972.798L738.675 862.47ZM758.221 836.74C761.826 832.785 765.596 829.005 769.531 825.4L888.114 972.798L758.221 836.74ZM781.74 815.154C785.93 811.957 790.274 808.956 794.772 806.151L888.114 972.798L781.74 815.154ZM808.494 798.394C813.153 796.061 817.939 793.926 822.851 791.989L888.114 972.798L808.494 798.394ZM888.114 972.798L837.669 786.913C842.732 785.45 847.801 784.238 852.878 783.277L888.114 972.798ZM888.114 972.798L868.37 781.058C873.595 780.56 878.803 780.313 883.997 780.318L888.114 972.798ZM888.114 972.798L899.711 781.015C904.949 781.512 910.172 782.243 915.379 783.206L888.114 972.798ZM888.114 972.798L960.295 798.438C965.087 800.791 969.779 803.391 974.356 806.186L888.114 972.798ZM888.114 972.798L1012.21 836.694C1015.97 840.64 1019.59 844.767 1023.06 849.074L888.114 972.798ZM888.114 972.798L1032.89 862.342C1035.97 866.906 1038.87 871.63 1041.59 876.515L888.114 972.798ZM888.114 972.798L987.697 815.171C992.052 818.38 996.27 821.785 1000.35 825.385L888.114 972.798ZM888.114 972.798L930.627 786.873C935.712 788.329 940.727 790.023 945.673 791.953L888.114 972.798ZM709.557 989.569C708.973 983.959 708.623 978.371 708.509 972.806L888.114 972.798L709.557 989.569ZM708.829 956.026C709.173 950.425 709.745 944.878 710.543 939.386L888.114 972.798L708.829 956.026ZM713.577 922.978C714.82 917.562 716.286 912.227 717.975 906.971L888.114 972.798L713.577 922.978ZM723.648 891.462C725.736 886.38 728.055 881.412 730.56 876.571L888.114 972.798L723.648 891.462ZM738.675 862.47C741.571 857.876 744.653 853.434 747.921 849.143L888.114 972.798L738.675 862.47ZM758.221 836.74C761.826 832.785 765.596 829.005 769.531 825.4L888.114 972.798L758.221 836.74ZM781.74 815.154C785.93 811.957 790.274 808.956 794.772 806.151L888.114 972.798L781.74 815.154ZM808.494 798.394C813.153 796.061 817.939 793.926 822.851 791.989L888.114 972.798L808.494 798.394ZM888.114 972.798L837.669 786.913C842.732 785.45 847.801 784.238 852.878 783.277L888.114 972.798ZM888.114 972.798L868.37 781.058C873.595 780.56 878.803 780.313 883.997 780.318L888.114 972.798ZM888.114 972.798L899.711 781.015C904.949 781.512 910.172 782.243 915.379 783.206L888.114 972.798ZM888.114 972.798L930.627 786.873C935.712 788.329 940.727 790.023 945.673 791.953L888.114 972.798ZM888.114 972.798L960.295 798.438C965.087 800.791 969.779 803.391 974.356 806.186L888.114 972.798ZM888.114 972.798L1012.21 836.694C1015.97 840.64 1019.59 844.767 1023.06 849.074L888.114 972.798ZM888.114 972.798L1032.89 862.342C1035.97 866.906 1038.87 871.63 1041.59 876.515L888.114 972.798ZM888.114 972.798L987.697 815.171C992.052 818.38 996.27 821.785 1000.35 825.385L888.114 972.798ZM709.557 989.569C708.973 983.959 708.623 978.371 708.509 972.806L888.114 972.798L709.557 989.569ZM708.829 956.026C709.173 950.425 709.745 944.878 710.543 939.386L888.114 972.798L708.829 956.026ZM713.577 922.978C714.82 917.562 716.286 912.227 717.975 906.971L888.114 972.798L713.577 922.978ZM723.648 891.462C725.736 886.38 728.055 881.412 730.56 876.571L888.114 972.798L723.648 891.462ZM738.675 862.47C741.571 857.876 744.653 853.434 747.921 849.143L888.114 972.798L738.675 862.47ZM758.221 836.74C761.826 832.785 765.596 829.005 769.531 825.4L888.114 972.798L758.221 836.74ZM781.74 815.154C785.93 811.957 790.274 808.956 794.772 806.151L888.114 972.798L781.74 815.154ZM808.494 798.394C813.153 796.061 817.939 793.926 822.851 791.989L888.114 972.798L808.494 798.394ZM888.114 972.798L837.669 786.913C842.732 785.45 847.801 784.238 852.878 783.277L888.114 972.798ZM888.114 972.798L868.37 781.058C873.595 780.56 878.803 780.313 883.997 780.318L888.114 972.798ZM888.114 972.798L899.711 781.015C904.949 781.512 910.172 782.243 915.379 783.206L888.114 972.798ZM888.114 972.798L930.627 786.873C935.712 788.329 940.727 790.023 945.673 791.953L888.114 972.798ZM888.114 972.798L960.295 798.438C965.087 800.791 969.779 803.391 974.356 806.186L888.114 972.798ZM888.114 972.798L987.697 815.171C992.052 818.38 996.27 821.785 1000.35 825.385L888.114 972.798ZM888.114 972.798L1012.21 836.694C1015.97 840.64 1019.59 844.767 1023.06 849.074L888.114 972.798ZM888.114 972.798L1032.89 862.342C1035.97 866.906 1038.87 871.63 1041.59 876.515L888.114 972.798ZM1681.54 822.259L1395.9 876.452C1392.95 860.715 1389.34 844.967 1385.09 829.208L1664.64 748.439C1671.3 773 1676.94 797.607 1681.54 822.259V822.259ZM1032.89 862.342C1035.97 866.906 1038.87 871.63 1041.59 876.515L888.114 972.798L1032.89 862.342ZM1023.05 849.023L888.114 972.798L1012.21 836.694C1015.97 840.64 1019.59 844.767 1023.06 849.074L1023.05 849.023ZM1000.38 825.321L888.114 972.798L987.697 815.171C992.08 818.36 996.313 821.76 1000.4 825.372L1000.38 825.321ZM974.329 806.085L888.114 972.798L960.295 798.438C965.055 800.674 969.765 803.34 974.342 806.136L974.329 806.085ZM945.659 791.903L888.114 972.798L930.627 786.873C935.712 788.329 940.727 790.023 945.673 791.953L945.659 791.903ZM915.242 783.192L888.114 972.798L899.711 781.015C904.915 781.51 910.096 782.252 915.255 783.242L915.242 783.192ZM883.983 780.268L888.114 972.798L868.37 781.058C873.595 780.56 878.803 780.313 883.997 780.318L883.983 780.268ZM852.864 783.227L888.114 972.798L837.669 786.913C842.732 785.45 847.801 784.238 852.878 783.277L852.864 783.227ZM822.828 791.905L888.114 972.798L808.485 798.361C813.141 796.016 817.927 793.881 822.842 791.955L822.828 791.905ZM794.745 806.051L888.114 972.798L781.68 815.117C785.898 811.9 790.257 808.895 794.758 806.101L794.745 806.051ZM769.503 825.299L888.114 972.798L758.208 836.69C761.813 832.734 765.582 828.954 769.517 825.35L769.503 825.299ZM747.894 849.043L888.114 972.798L738.675 862.47C741.562 857.843 744.639 853.384 747.907 849.093L747.894 849.043ZM730.545 876.575L888.114 972.798L723.679 891.453C725.72 886.385 728.009 881.425 730.545 876.575ZM717.96 906.975L888.114 972.798L713.561 922.983C714.805 917.567 716.271 912.231 717.96 906.975ZM708.8 955.981C709.144 950.379 709.716 944.832 710.514 939.34L888.114 972.798L708.8 955.981ZM708.5 972.772L888.114 972.798L709.557 989.569C708.973 983.959 708.623 978.371 708.509 972.806L708.5 972.772ZM888.114 972.798L1012.21 836.694C1015.97 840.64 1019.59 844.767 1023.06 849.074L888.114 972.798ZM888.114 972.798L1032.89 862.342C1035.97 866.906 1038.87 871.63 1041.59 876.515L888.114 972.798ZM888.114 972.798L987.697 815.171C992.052 818.38 996.27 821.785 1000.35 825.385L888.114 972.798ZM888.114 972.798L960.295 798.438C965.087 800.791 969.779 803.391 974.356 806.186L888.114 972.798ZM888.114 972.798L930.627 786.873C935.712 788.329 940.727 790.023 945.673 791.953L888.114 972.798ZM888.114 972.798L899.711 781.015C904.949 781.512 910.172 782.243 915.379 783.206L888.114 972.798ZM888.114 972.798L868.37 781.058C873.595 780.56 878.803 780.313 883.997 780.318L888.114 972.798ZM888.114 972.798L837.669 786.913C842.732 785.45 847.801 784.238 852.878 783.277L888.114 972.798ZM808.485 798.361C813.144 796.027 817.93 793.892 822.842 791.955L888.114 972.798L808.485 798.361ZM781.731 815.121C785.921 811.923 790.265 808.923 794.763 806.118L888.114 972.798L781.731 815.121ZM758.212 836.706C761.817 832.751 765.587 828.971 769.522 825.366L888.114 972.798L758.212 836.706ZM738.675 862.47C741.571 857.876 744.653 853.434 747.921 849.143L888.114 972.798L738.675 862.47ZM723.646 891.517C725.734 886.435 728.053 881.467 730.558 876.625L888.114 972.798L723.646 891.517ZM713.575 923.033C714.818 917.617 716.285 912.281 717.973 907.026L888.114 972.798L713.575 923.033ZM708.8 955.981C709.144 950.379 709.716 944.832 710.514 939.34L888.114 972.798L708.8 955.981ZM709.528 989.523C708.944 983.913 708.594 978.325 708.479 972.76L888.114 972.798L709.528 989.523ZM888.114 972.798L960.295 798.438C965.087 800.791 969.779 803.391 974.356 806.186L888.114 972.798ZM888.114 972.798L1012.21 836.694C1015.97 840.64 1019.59 844.767 1023.06 849.074L888.114 972.798ZM888.114 972.798L1032.89 862.342C1035.97 866.906 1038.87 871.63 1041.59 876.515L888.114 972.798ZM888.114 972.798L987.697 815.171C992.052 818.38 996.27 821.785 1000.35 825.385L888.114 972.798ZM888.114 972.798L930.627 786.873C935.712 788.329 940.727 790.023 945.673 791.953L888.114 972.798ZM888.114 972.798L899.711 781.015C904.949 781.512 910.172 782.243 915.379 783.206L888.114 972.798ZM888.114 972.798L868.37 781.058C873.595 780.56 878.803 780.313 883.997 780.318L888.114 972.798ZM888.114 972.798L837.669 786.913C842.732 785.45 847.801 784.238 852.878 783.277L888.114 972.798ZM808.485 798.361C813.144 796.027 817.93 793.892 822.842 791.955L888.114 972.798L808.485 798.361ZM781.731 815.121C785.921 811.923 790.265 808.923 794.763 806.118L888.114 972.798L781.731 815.121ZM758.212 836.706C761.817 832.751 765.587 828.971 769.522 825.366L888.114 972.798L758.212 836.706ZM738.675 862.47C741.571 857.876 744.653 853.434 747.921 849.143L888.114 972.798L738.675 862.47ZM723.646 891.517C725.734 886.435 728.053 881.467 730.558 876.625L888.114 972.798L723.646 891.517ZM713.575 923.033C714.818 917.617 716.285 912.281 717.973 907.026L888.114 972.798L713.575 923.033ZM708.8 955.981C709.144 950.379 709.716 944.832 710.514 939.34L888.114 972.798L708.8 955.981ZM709.528 989.523C708.944 983.913 708.594 978.325 708.479 972.76L888.114 972.798L709.528 989.523ZM888.114 972.798L899.711 781.015C904.949 781.512 910.172 782.243 915.379 783.206L888.114 972.798ZM888.114 972.798L960.295 798.438C965.087 800.791 969.779 803.391 974.356 806.186L888.114 972.798ZM888.114 972.798L1012.21 836.694C1015.97 840.64 1019.59 844.767 1023.06 849.074L888.114 972.798ZM888.114 972.798L1032.89 862.342C1035.97 866.906 1038.87 871.63 1041.59 876.515L888.114 972.798ZM888.114 972.798L987.697 815.171C992.052 818.38 996.27 821.785 1000.35 825.385L888.114 972.798ZM888.114 972.798L930.627 786.873C935.712 788.329 940.727 790.023 945.673 791.953L888.114 972.798ZM888.114 972.798L868.37 781.058C873.595 780.56 878.803 780.313 883.997 780.318L888.114 972.798ZM888.114 972.798L837.669 786.913C842.732 785.45 847.801 784.238 852.878 783.277L888.114 972.798ZM808.485 798.361C813.144 796.027 817.93 793.892 822.842 791.955L888.114 972.798L808.485 798.361ZM781.731 815.121C785.921 811.923 790.265 808.923 794.763 806.118L888.114 972.798L781.731 815.121ZM758.212 836.706C761.817 832.751 765.587 828.971 769.522 825.366L888.114 972.798L758.212 836.706ZM738.675 862.47C741.571 857.876 744.653 853.434 747.921 849.143L888.114 972.798L738.675 862.47ZM723.646 891.517C725.734 886.435 728.053 881.467 730.558 876.625L888.114 972.798L723.646 891.517ZM713.575 923.033C714.818 917.617 716.285 912.281 717.973 907.026L888.114 972.798L713.575 923.033ZM708.8 955.981C709.144 950.379 709.716 944.832 710.514 939.34L888.114 972.798L708.8 955.981ZM709.528 989.523C708.944 983.913 708.594 978.325 708.479 972.76L888.114 972.798L709.528 989.523ZM888.114 972.798L837.669 786.913C842.732 785.45 847.801 784.238 852.878 783.277L888.114 972.798ZM888.114 972.798L899.711 781.015C904.949 781.512 910.172 782.243 915.379 783.206L888.114 972.798ZM888.114 972.798L960.295 798.438C965.087 800.791 969.779 803.391 974.356 806.186L888.114 972.798ZM888.114 972.798L1012.21 836.694C1015.97 840.64 1019.59 844.767 1023.06 849.074L888.114 972.798ZM888.114 972.798L1032.89 862.342C1035.97 866.906 1038.87 871.63 1041.59 876.515L888.114 972.798ZM888.114 972.798L987.697 815.171C992.052 818.38 996.27 821.785 1000.35 825.385L888.114 972.798ZM888.114 972.798L930.627 786.873C935.712 788.329 940.727 790.023 945.673 791.953L888.114 972.798ZM888.114 972.798L868.37 781.058C873.595 780.56 878.803 780.313 883.997 780.318L888.114 972.798ZM808.485 798.361C813.144 796.027 817.93 793.892 822.842 791.955L888.114 972.798L808.485 798.361ZM781.731 815.121C785.921 811.923 790.265 808.923 794.763 806.118L888.114 972.798L781.731 815.121ZM758.212 836.706C761.817 832.751 765.587 828.971 769.522 825.366L888.114 972.798L758.212 836.706ZM738.675 862.47C741.571 857.876 744.653 853.434 747.921 849.143L888.114 972.798L738.675 862.47ZM723.646 891.517C725.734 886.435 728.053 881.467 730.558 876.625L888.114 972.798L723.646 891.517ZM713.575 923.033C714.818 917.617 716.285 912.281 717.973 907.026L888.114 972.798L713.575 923.033ZM708.8 955.981C709.144 950.379 709.716 944.832 710.514 939.34L888.114 972.798L708.8 955.981ZM709.528 989.523C708.944 983.913 708.594 978.325 708.479 972.76L888.114 972.798L709.528 989.523ZM781.697 815.058C785.887 811.861 790.231 808.86 794.729 806.056L888.114 972.798L781.697 815.058ZM888.132 972.738L837.7 786.904C842.763 785.441 847.832 784.229 852.909 783.268L888.132 972.738ZM888.132 972.738L899.729 780.956C904.966 781.453 910.189 782.183 915.397 783.147L888.132 972.738ZM888.132 972.738L960.312 798.378C965.105 800.732 969.796 803.332 974.373 806.127L888.132 972.738ZM888.132 972.738L1012.23 836.635C1015.99 840.581 1019.61 844.707 1023.08 849.014L888.132 972.738ZM888.132 972.738L1032.91 862.283C1035.99 866.847 1038.89 871.571 1041.61 876.455L888.132 972.738ZM888.132 972.738L987.715 815.112C992.069 818.321 996.287 821.725 1000.37 825.326L888.132 972.738ZM888.132 972.738L930.645 786.814C935.73 788.27 940.745 789.964 945.69 791.894L888.132 972.738ZM888.132 972.738L868.388 780.999C873.612 780.501 878.821 780.254 884.014 780.259L888.132 972.738ZM808.485 798.361C813.144 796.027 817.93 793.892 822.842 791.955L888.114 972.798L808.485 798.361ZM758.208 836.69C761.813 832.734 765.582 828.954 769.517 825.35L888.114 972.798L758.208 836.69ZM738.675 862.47C741.571 857.876 744.653 853.434 747.921 849.143L888.114 972.798L738.675 862.47ZM723.646 891.517C725.734 886.435 728.053 881.467 730.558 876.625L888.114 972.798L723.646 891.517ZM713.575 923.033C714.818 917.617 716.285 912.281 717.973 907.026L888.114 972.798L713.575 923.033ZM708.8 955.981C709.144 950.379 709.716 944.832 710.514 939.34L888.114 972.798L708.8 955.981ZM709.528 989.523C708.944 983.913 708.594 978.325 708.479 972.76L888.114 972.798L709.528 989.523ZM738.663 862.365C741.559 857.771 744.641 853.329 747.909 849.038L888.114 972.798L738.663 862.365ZM781.728 815.049C785.918 811.852 790.262 808.851 794.76 806.047L888.114 972.798L781.728 815.049ZM888.163 972.729L837.731 786.895C842.794 785.432 847.863 784.22 852.94 783.259L888.163 972.729ZM888.163 972.729L899.76 780.947C904.997 781.444 910.22 782.174 915.428 783.138L888.163 972.729ZM888.163 972.729L960.343 798.369C965.136 800.723 969.827 803.323 974.404 806.118L888.163 972.729ZM888.163 972.729L1012.26 836.626C1016.02 840.572 1019.64 844.698 1023.11 849.006L888.163 972.729ZM888.163 972.729L1032.94 862.274C1036.02 866.838 1038.92 871.562 1041.64 876.446L888.163 972.729ZM888.163 972.729L987.746 815.103C992.1 818.312 996.318 821.716 1000.4 825.317L888.163 972.729ZM888.163 972.729L930.676 786.805C935.761 788.261 940.776 789.955 945.721 791.885L888.163 972.729ZM888.163 972.729L868.419 780.99C873.643 780.492 878.852 780.245 884.045 780.25L888.163 972.729ZM808.485 798.361C813.144 796.027 817.93 793.892 822.842 791.955L888.114 972.798L808.485 798.361ZM758.208 836.69C761.813 832.734 765.582 828.954 769.517 825.35L888.114 972.798L758.208 836.69ZM723.633 891.467C725.72 886.385 728.04 881.417 730.545 876.575L888.114 972.798L723.633 891.467ZM713.561 922.983C714.805 917.567 716.271 912.231 717.96 906.975L888.114 972.798L713.561 922.983ZM708.8 955.981C709.144 950.379 709.716 944.832 710.514 939.34L888.114 972.798L708.8 955.981ZM709.528 989.523C708.944 983.913 708.594 978.325 708.479 972.76L888.114 972.798L709.528 989.523ZM713.532 922.937C714.776 917.521 716.242 912.185 717.931 906.93L888.114 972.798L713.532 922.937ZM738.675 862.47C741.571 857.876 744.653 853.434 747.921 849.143L888.114 972.798L738.675 862.47ZM781.74 815.154C785.93 811.957 790.274 808.956 794.772 806.151L888.114 972.798L781.74 815.154ZM888.175 972.834L837.715 786.9C842.778 785.437 847.848 784.225 852.924 783.264L888.175 972.834ZM888.175 972.834L899.772 781.052C905.009 781.549 910.232 782.279 915.44 783.243L888.175 972.834ZM888.175 972.834L960.355 798.474C965.147 800.828 969.839 803.428 974.416 806.223L888.175 972.834ZM888.175 972.834L1012.27 836.731C1016.03 840.677 1019.65 844.803 1023.12 849.11L888.175 972.834ZM888.175 972.834L1032.95 862.379C1036.03 866.943 1038.93 871.667 1041.65 876.551L888.175 972.834ZM888.175 972.834L987.758 815.208C992.112 818.417 996.33 821.821 1000.41 825.422L888.175 972.834ZM888.175 972.834L930.688 786.91C935.772 788.366 940.787 790.06 945.733 791.99L888.175 972.834ZM888.175 972.834L868.431 781.095C873.655 780.597 878.864 780.35 884.057 780.355L888.175 972.834ZM808.485 798.361C813.144 796.027 817.93 793.892 822.842 791.955L888.114 972.798L808.485 798.361ZM758.208 836.69C761.813 832.734 765.582 828.954 769.517 825.35L888.114 972.798L758.208 836.69ZM723.633 891.467C725.72 886.385 728.04 881.417 730.545 876.575L888.114 972.798L723.633 891.467ZM708.8 955.981C709.144 950.379 709.716 944.832 710.514 939.34L888.114 972.798L708.8 955.981ZM709.528 989.523C708.944 983.913 708.594 978.325 708.479 972.76L888.114 972.798L709.528 989.523ZM709.528 989.523C708.944 983.913 708.594 978.325 708.479 972.76L888.114 972.798L709.528 989.523ZM713.532 922.937C714.776 917.521 716.242 912.185 717.931 906.93L888.114 972.798L713.532 922.937ZM738.675 862.47C741.571 857.876 744.653 853.434 747.921 849.143L888.114 972.798L738.675 862.47ZM781.74 815.154C785.93 811.957 790.274 808.956 794.772 806.151L888.114 972.798L781.74 815.154ZM888.175 972.834L837.715 786.9C842.778 785.437 847.848 784.225 852.924 783.264L888.175 972.834ZM888.175 972.834L899.772 781.052C905.009 781.549 910.232 782.279 915.44 783.243L888.175 972.834ZM888.175 972.834L960.355 798.474C965.147 800.828 969.839 803.428 974.416 806.223L888.175 972.834ZM888.175 972.834L1012.27 836.731C1016.03 840.677 1019.65 844.803 1023.12 849.11L888.175 972.834ZM888.175 972.834L1032.95 862.379C1036.03 866.943 1038.93 871.667 1041.65 876.551L888.175 972.834ZM888.175 972.834L987.758 815.208C992.112 818.417 996.33 821.821 1000.41 825.422L888.175 972.834ZM888.175 972.834L930.688 786.91C935.772 788.366 940.787 790.06 945.733 791.99L888.175 972.834ZM888.175 972.834L868.431 781.095C873.655 780.597 878.864 780.35 884.057 780.355L888.175 972.834ZM808.485 798.361C813.144 796.027 817.93 793.892 822.842 791.955L888.114 972.798L808.485 798.361ZM758.208 836.69C761.813 832.734 765.582 828.954 769.517 825.35L888.114 972.798L758.208 836.69ZM723.633 891.467C725.72 886.385 728.04 881.417 730.545 876.575L888.114 972.798L723.633 891.467ZM708.8 955.981C709.144 950.379 709.716 944.832 710.514 939.34L888.114 972.798L708.8 955.981ZM1654.59 1269.31L1378.65 1162.57C1383.48 1147.42 1387.67 1132.04 1391.25 1116.42L1674.29 1197.17C1668.75 1221.62 1662.19 1245.67 1654.59 1269.31ZM1519.69 1530.03L1292.33 1329.42C1301.76 1317.06 1310.64 1304.26 1318.97 1291.02L1561.31 1469.97C1548.3 1490.66 1534.43 1510.68 1519.69 1530.03ZM457.264 654.591L214.919 475.625C227.948 455.006 241.822 434.996 256.544 415.597L483.903 616.175C474.488 628.551 465.609 641.356 457.264 654.591ZM513.649 580.509L303.019 359.801C319.223 341.996 336.188 324.941 353.915 308.634L546.247 547.758C534.875 558.147 524.003 569.042 513.631 580.442L513.649 580.509ZM581.426 518.289L408.866 262.472C427.733 248.063 447.288 234.521 467.53 221.846L619.03 492.2C606.039 500.324 593.498 508.998 581.408 518.222L581.426 518.289ZM658.575 469.992L529.51 187.017C550.458 176.45 571.997 166.825 594.127 158.144L699.916 451.438C685.767 456.983 671.981 463.146 658.557 469.925L658.575 469.992ZM786.563 426.476C771.92 429.214 757.294 432.693 742.685 436.914L660.881 135.479C683.659 128.898 706.503 123.424 729.413 119.056L786.563 426.476ZM709.557 989.569C708.973 983.959 708.623 978.371 708.509 972.806L888.114 972.798L709.557 989.569ZM713.561 922.983C714.805 917.567 716.271 912.231 717.96 906.975L888.114 972.798L713.561 922.983ZM738.675 862.47C741.571 857.876 744.653 853.434 747.921 849.143L888.114 972.798L738.675 862.47ZM781.74 815.154C785.93 811.957 790.274 808.956 794.772 806.151L888.114 972.798L781.74 815.154ZM888.175 972.834L837.715 786.9C842.778 785.437 847.848 784.225 852.924 783.264L888.175 972.834ZM888.175 972.834L899.772 781.052C905.009 781.549 910.232 782.279 915.44 783.243L888.175 972.834ZM888.175 972.834L960.355 798.474C965.147 800.828 969.839 803.428 974.416 806.223L888.175 972.834ZM888.175 972.834L1012.27 836.731C1016.03 840.677 1019.65 844.803 1023.12 849.11L888.175 972.834ZM1402.91 924.434L1066.72 956.013C1066.13 950.476 1065.32 944.924 1064.29 939.359L1395.95 876.439C1398.91 892.462 1401.23 908.46 1402.91 924.434ZM1405.04 1021.14L1067.43 989.615C1067.77 984.064 1067.87 978.472 1067.73 972.84L1405.98 972.777C1406.29 989.013 1405.96 1005.14 1404.99 1021.15L1405.04 1021.14ZM1065.71 1006.22L1400.11 1069.16C1397.82 1085.15 1394.9 1100.88 1391.35 1116.35L1062.75 1022.55C1063.92 1017.2 1064.91 1011.76 1065.71 1006.22ZM1058.27 1038.62L1378.65 1162.57C1373.84 1177.73 1368.39 1192.63 1362.31 1207.25L1052.6 1054.13C1054.7 1049.05 1056.59 1043.88 1058.27 1038.62V1038.62ZM1045.68 1069.02L1342.36 1250.19C1335.13 1264.16 1327.33 1277.76 1318.96 1291L1037.55 1083.13C1040.5 1078.66 1043.18 1073.86 1045.68 1069.02V1069.02ZM1028.32 1096.5L1292.33 1329.42C1282.93 1341.77 1273.01 1353.66 1262.58 1365.1L1018.02 1108.89C1021.63 1104.93 1025.07 1100.8 1028.32 1096.5V1096.5ZM1006.71 1120.25L1230.03 1397.89C1218.75 1408.23 1207.01 1418.06 1194.82 1427.37L994.518 1130.49C998.754 1127.25 1002.82 1123.84 1006.71 1120.25V1120.25ZM1032.89 862.342C1035.97 866.906 1038.87 871.63 1041.59 876.515L888.114 972.798L1032.89 862.342ZM981.471 1139.49L1157.28 1453.37C1144.5 1461.38 1131.29 1468.8 1117.67 1475.65L967.74 1147.22C972.458 1144.86 977.035 1142.28 981.471 1139.49ZM1076.31 1494.16C1062.41 1499.62 1048.15 1504.46 1033.54 1508.68L938.56 1158.68C943.623 1157.22 948.566 1155.54 953.387 1153.64L1076.31 1494.16ZM945.035 1525.55L907.859 1164.54C913.015 1164.03 918.179 1163.29 923.351 1162.32L989.684 1519.19C974.798 1522.02 959.915 1524.14 945.035 1525.55V1525.55ZM854.797 1525.62L876.564 1164.57C881.754 1165.05 886.977 1165.29 892.232 1165.28L900.045 1527.69C884.854 1527.71 869.771 1527.02 854.797 1525.62V1525.62ZM765.56 1508.76L845.611 1158.76C850.682 1160.2 855.806 1161.41 860.983 1162.39L809.87 1519.29C794.931 1516.46 780.161 1512.95 765.56 1508.76V1508.76ZM680.089 1475.66L815.934 1147.16C820.721 1149.53 825.59 1151.68 830.543 1153.59L722.171 1494.15C707.893 1488.61 693.86 1482.43 680.071 1475.6L680.089 1475.66ZM600.913 1427.31L788.503 1130.5C792.845 1133.73 797.328 1136.73 801.905 1139.53L639.538 1453.25C626.329 1445.18 613.448 1436.52 600.895 1427.25L600.913 1427.31ZM530.46 1365.19L764.065 1108.96C767.854 1112.92 771.792 1116.7 775.881 1120.28L564.42 1397.82C552.667 1387.47 541.317 1376.56 530.37 1365.11L530.46 1365.19ZM470.723 1291.09L743.339 1083.25C746.453 1087.86 749.733 1092.29 753.179 1096.55L499.066 1329.49C489.155 1317.16 479.707 1304.36 470.723 1291.09ZM888.114 972.798L987.697 815.171C992.052 818.38 996.27 821.785 1000.35 825.385L888.114 972.798ZM888.114 972.798L930.627 786.873C935.712 788.329 940.727 790.023 945.673 791.953L888.114 972.798ZM888.114 972.798L868.37 781.058C873.595 780.56 878.803 780.313 883.997 780.318L888.114 972.798ZM808.485 798.361C813.144 796.027 817.93 793.892 822.842 791.955L888.114 972.798L808.485 798.361ZM758.208 836.69C761.813 832.734 765.582 828.954 769.517 825.35L888.114 972.798L758.208 836.69ZM723.633 891.467C725.72 886.385 728.04 881.417 730.545 876.575L888.114 972.798L723.633 891.467ZM708.8 955.981C709.144 950.379 709.716 944.832 710.514 939.34L888.114 972.798L708.8 955.981ZM876.248 417.828C861.3 417.837 846.279 418.565 831.185 420.013L799.157 109.073C822.697 106.822 846.174 105.698 869.588 105.699L876.248 417.828ZM1211.8 547.724C1200.04 537.334 1187.89 527.524 1175.34 518.293L1336.9 262.664C1356.45 277.098 1375.45 292.425 1393.9 308.646L1211.8 547.724ZM1277.23 616.028C1267.18 603.642 1256.74 591.788 1245.92 580.467L1447.15 359.79C1464.15 377.563 1480.46 396.135 1496.09 415.505L1277.23 616.028ZM1330.68 695.323C1322.82 681.27 1314.44 667.66 1305.55 654.492L1540.33 475.449C1554.21 495.999 1567.3 517.265 1579.6 539.248L1330.68 695.323ZM413.936 738.336L147.205 606.454C156.631 583.588 167.015 561.228 178.357 539.374L433.874 695.409C426.645 709.381 419.999 723.69 413.936 738.336ZM384.994 829.175L101.903 748.469C107.474 723.984 114.053 699.925 121.64 676.29L397.576 783.028C392.74 798.163 388.528 813.562 384.941 829.227L384.994 829.175ZM371.222 924.445L80.4915 897.235C82.005 871.996 84.5438 846.997 88.1079 822.237L376.115 876.438C373.847 892.275 372.217 908.277 371.222 924.445ZM373.35 1021.15L83.803 1048.36C81.1632 1023.08 79.576 997.892 79.0414 972.799L370.31 972.801C370.619 988.832 371.637 1004.95 373.365 1021.15L373.35 1021.15ZM391.139 1116.39L111.59 1197.16C104.924 1172.6 99.2906 1147.99 94.6885 1123.34L380.343 1069.14C383.275 1084.88 386.874 1100.63 391.139 1116.39ZM1422.36 1637.02L1230.03 1397.89C1241.37 1387.47 1252.23 1376.55 1262.6 1365.15L1473.23 1585.86C1457.06 1603.68 1440.11 1620.73 1422.36 1637.02ZM1597.87 1406.22L1342.36 1250.19C1349.58 1236.21 1356.23 1221.91 1362.29 1207.26L1629.02 1339.14C1619.57 1362 1609.19 1384.36 1597.87 1406.22V1406.22ZM1688.12 1123.36L1400.11 1069.16C1402.38 1053.31 1404 1037.31 1404.99 1021.15L1695.71 1048.28C1694.22 1073.56 1691.69 1098.58 1688.12 1123.36ZM1697.19 972.796L1405.98 972.777C1405.64 956.743 1404.61 940.628 1402.91 924.434L1692.47 897.225C1695.08 922.513 1696.65 947.704 1697.19 972.796V972.796ZM1370.55 783.041C1365.05 767.776 1358.98 752.86 1352.35 738.295L1613.49 606.388C1623.84 629.079 1633.32 652.383 1641.93 676.297L1370.55 783.041Z" fill="#212121"/>
<path d="M874.48 922.56C900.212 915.126 927.175 931.592 934.705 959.338C942.235 987.084 927.48 1015.6 901.748 1023.04C876.016 1030.47 849.052 1014.01 841.522 986.261C833.992 958.515 848.748 929.995 874.48 922.56Z" fill="black"/>
<path d="M1329.78 693.835L564.049 1173.97L493.126 1218.43L494.815 1221.45L565.723 1176.99L1331.47 696.85L1329.78 693.835Z" fill="#212121"/>
<path d="M1033.3 881.762C1025.6 867.968 1016.24 855.289 1005.48 844.055C979.354 816.674 945.945 798.734 910.11 792.843C874.276 786.952 837.883 793.417 806.218 811.297C774.554 829.177 749.267 857.541 734.033 892.269C718.799 926.997 714.411 966.28 721.506 1004.41L711.951 1006.23C704.46 965.907 709.11 924.368 725.226 887.647C741.342 850.926 768.084 820.934 801.57 802.027C835.056 783.121 873.54 776.284 911.435 782.51C949.331 788.736 984.662 807.701 1012.3 836.649C1023.64 848.537 1033.48 861.96 1041.55 876.56L1033.3 881.762Z" fill="#212121"/>
<path d="M672.467 1722.77C723.931 1707.9 777.859 1740.83 792.918 1796.32C807.978 1851.82 778.467 1908.86 727.003 1923.73C675.54 1938.59 621.612 1905.66 606.552 1850.17C591.493 1794.68 621.004 1737.64 672.467 1722.77Z" fill="#212121"/>
<path d="M888.116 972.802L840.524 981.839L753.937 998.26L435.854 1058.61C438.482 1072.7 441.696 1086.72 445.497 1100.69C456.768 1142.42 473.066 1182.51 493.972 1219.94L771.211 1046.11L846.65 998.796L888.116 972.802Z" fill="#212121"/>
<path d="M1033.54 1508.68C960.986 1529.76 884.626 1533.38 809.868 1519.29C617.23 1482.88 449.486 1331.39 391.137 1116.39C310.819 820.43 468.213 516.217 742.683 436.915C815.239 415.835 891.599 412.213 966.357 426.305L957.804 486.061C952.247 485.006 946.654 484.063 941.025 483.234C820.985 465.541 700.333 498.866 605.002 576.047C509.671 653.228 447.27 768.102 431.212 895.981C415.154 1023.86 446.721 1154.53 519.127 1259.92C591.533 1365.3 698.999 1436.98 818.426 1459.55C823.98 1460.6 829.573 1461.54 835.205 1462.38C920.976 1474.96 1007.77 1461.6 1085.74 1423.81C1163.7 1386.02 1229.71 1325.32 1276.27 1248.59C1322.83 1171.87 1348.07 1082.2 1349.13 989.765C1350.19 897.332 1327.02 805.839 1282.26 725.676L1330.68 695.324C1354.14 737.351 1372.43 782.362 1385.09 829.209C1465.41 1125.17 1308.01 1429.38 1033.54 1508.68Z" fill="#960000"/>
<path d="M951.738 1207.25C913.572 1218.32 873.124 1218.34 834.475 1207.32C795.825 1196.29 760.342 1174.6 731.603 1144.43C717.259 1129.45 704.788 1112.55 694.513 1094.16L742.935 1063.81C750.653 1077.59 760.014 1090.25 770.775 1101.48C800.587 1132.67 839.719 1151.46 880.886 1154.33C922.053 1157.21 962.451 1143.98 994.558 1117.1C1026.66 1090.23 1048.29 1051.54 1055.42 1008.25C1062.54 964.95 1054.67 919.996 1033.28 881.752L1081.7 851.399C1099.73 883.654 1110.69 919.748 1113.74 956.894C1116.79 994.041 1111.84 1031.25 1099.28 1065.64C1086.72 1100.03 1066.89 1130.68 1041.3 1155.24C1015.72 1179.79 985.076 1197.59 951.738 1207.25Z" fill="#960000"/>
<path d="M1292.33 192.218L1261.24 252.254C1443.11 363.415 1575.34 542.81 1633.58 757.414C1753.86 1200.64 1517.32 1657.86 1106.26 1776.62L1124.44 1843.61C1284.22 1797.58 1426.58 1701.47 1533.5 1567.44C1640.42 1433.42 1707.08 1267.5 1725.06 1090.69C1743.03 913.888 1711.51 734.14 1634.48 574.203C1557.45 414.265 1438.38 281.328 1292.33 192.218Z" fill="#960000"/>
</g>
<defs>
<clipPath id="clip0_82_19447">
<rect width="1777.51" height="2078.48" fill="white" transform="matrix(1 0 -0.0213494 -0.999772 44.3906 2078.79)"/>
</clipPath>
</defs>
</svg>
