<svg width="180" height="30" fill="none" xmlns="http://www.w3.org/2000/svg"><g clip-path="url(#a)"><mask id="b" style="mask-type:luminance" maskUnits="userSpaceOnUse" x="0" y="0" width="180" height="30"><path d="M180 0H0v30h180V0Z" fill="#fff"/></mask><g mask="url(#b)"><path fill-rule="evenodd" clip-rule="evenodd" d="M12.487.253c-1.32.221-4.612 1.309-4.612 1.522 0 .049 3.504 3.067 7.787 6.706 7.513 6.384 7.766 6.633 7.21 7.066-.316.247-3.814 3.199-7.773 6.56-7.967 6.762-7.713 6.38-4.83 7.278 2.254.702 5.9.822 8.021.262 5.358-1.412 9.523-5.503 10.897-10.704.54-2.047.52-6.015-.04-7.939C27.56 5.567 23.207 1.553 17.607.37c-2.178-.46-2.967-.479-5.12-.116Zm-6.885 3.01C3.588 4.804 1.766 7.289.818 9.791.05 11.815-.246 16.162.23 18.4c.724 3.4 3.05 6.88 6.046 9.042l1.291.931.28-1.073c.155-.591.872-3.568 1.595-6.616l1.314-5.54L9.273 8.75c-.816-3.517-1.574-6.498-1.684-6.625-.11-.126-1.004.385-1.987 1.137Zm33.07 3.386c-1.543.774-2.362 1.674-3.467 3.807-.581 1.123-.662 1.676-.667 4.546-.004 3.012.058 3.395.788 4.895 1.313 2.692 4.038 4.483 6.824 4.483 1.596 0 3.805-.85 4.975-1.916 2.97-2.702 3.855-8.442 1.924-12.461-.746-1.552-2.703-3.319-4.165-3.76-1.97-.595-4.556-.426-6.213.406Zm37.091-.22c-.277.308-.467 1-.467 1.705v1.185h4.232v-3.41h-1.649c-1.24 0-1.765.129-2.116.52Zm-8.48.403-.712.64-.08 6.962c-.089 7.662.046 8.493 1.496 9.249.488.254 1.612.412 2.923.412h2.13V22.56c0-1.396-.052-1.523-.564-1.388-.31.082-.881-.06-1.27-.317-.688-.454-.705-.552-.705-3.87v-3.403h2.539v-2.558H70.5v-4.83h-1.253c-.901 0-1.454.18-1.965.64Zm55.405 8.295v8.968h4.5c5.286 0 6.989-.291 7.977-1.365 1.336-1.451 1.721-3.862.897-5.612-.446-.947-2.273-2.116-3.307-2.116-.81 0-.522-.488.398-.673.479-.097 1.305-.611 1.833-1.144.845-.85.961-1.145.961-2.431 0-1.632-.426-2.652-1.547-3.708-.743-.7-.833-.712-6.233-.799l-5.479-.088v8.968Zm45.136-8.366c-.539.543-.564.947-.564 8.951v8.383h1.282c.985 0 1.442-.161 1.974-.697l.693-.698V6.193h-1.41c-1.035 0-1.561.151-1.975.568ZM43.399 9.451c1.215.632 1.713 2.23 1.711 5.486-.001 3.306-.331 4.672-1.315 5.452-1.663 1.317-3.685.324-4.293-2.11-.46-1.837-.365-5.184.192-6.829.378-1.114.694-1.528 1.469-1.917 1.196-.602 1.236-.604 2.236-.083Zm87.836.223c.802.602.893 1.96.191 2.858-.583.746-.723.784-2.595.706l-1.979-.083-.038-1.918-.039-1.918h1.993c1.154 0 2.193.15 2.467.355Zm-72.572 1.144c-.538.191-1.236.748-1.552 1.237-.316.49-.725 1.129-.91 1.42-.283.448-.339.274-.353-1.101l-.016-1.634h-3.668v17.974l1.465-.141c1.136-.11 1.61-.313 2.116-.905.577-.676.652-1.06.656-3.375l.005-2.613.593.934c1.682 2.645 5.036 2.245 6.731-.803.634-1.138.706-1.587.706-4.393 0-2.81-.071-3.253-.706-4.38-1.2-2.135-3.043-2.942-5.067-2.22Zm29.763-.164c-.942.256-1.856.987-2.29 1.833-.603 1.173-.966.996-.966-.469V10.74h-3.668v13.355h4.232V19.31c0-4.277.055-4.837.516-5.257.669-.61 1.538-.6 2.099.027.354.395.464 1.365.537 4.714.088 4.035.12 4.24.758 4.76.452.369 1.108.542 2.045.542h1.38v-4.559c0-4.493.01-4.57.71-5.275.708-.713 1.539-.737 2.251-.066.156.146.346 2.252.424 4.68.162 5.069.237 5.22 2.592 5.22h1.357V18.54c0-6.88-.097-7.141-2.962-7.915-1.122-.303-2.79.329-3.681 1.394l-.86 1.027-.386-.725c-.68-1.278-2.614-2.067-4.088-1.667Zm18.508.092c-1.652.347-2.871 1.105-3.652 2.274-.608.909-.618.983-.142 1.172 1.141.454 2.873.247 3.919-.469.571-.39 1.345-.71 1.718-.71.907 0 2.127 1.253 2.012 2.066-.079.561-.315.658-2.064.85-3.946.434-6.079 1.75-6.501 4.01-.27 1.451.655 3.358 1.921 3.964 2.097 1.002 4.809.358 5.946-1.412.769-1.195 1.032-1.2 1.032-.015 0 1.304.436 1.62 2.242 1.62h1.566l-.094-5.317c-.108-6.104-.263-6.655-2.112-7.476-1.447-.642-4.147-.901-5.791-.557Zm36.012-.01c-.728.13-1.721.471-2.206.76-.917.543-2.166 2.27-1.863 2.574.096.096.878.234 1.739.306 1.314.11 1.667.034 2.199-.47 1.54-1.457 3.852-.905 3.852.92v.947l-1.934.181c-3.31.31-5.322 1.26-6.082 2.873-.606 1.286-.561 2.662.124 3.794 1.492 2.465 5.933 2.27 7.494-.328l.539-.897.094.852c.155 1.402.772 1.847 2.559 1.848h1.578l-.141-5.523-.141-5.524-.822-.864c-.452-.475-1.214-.988-1.693-1.139-1.349-.425-3.836-.571-5.296-.31Zm17.161.003c-1.04.325-1.803 1.032-2.456 2.274l-.522.995-.012-1.634-.013-1.634h-3.949v13.355h4.193l.09-4.66c.079-4.107.153-4.73.627-5.256.636-.708 1.644-.775 2.263-.151.362.365.443 1.2.443 4.56 0 3.987.022 4.134.693 4.81.552.556.981.697 2.116.697h1.423l-.004-5.47c-.003-3.775-.112-5.682-.353-6.153-.746-1.463-2.844-2.264-4.539-1.733Zm-84.81 6.82v6.536h1.379c.937 0 1.592-.173 2.045-.542.656-.535.667-.63.752-6.536l.086-5.993h-4.263v6.536Zm98.651-4.11c-1.054 1.332-1.985 2.603-2.07 2.826-.085.223.753 2.074 1.863 4.113l2.017 3.707H180l-.557-.923a556.43 556.43 0 0 1-2.274-3.854l-1.718-2.93 1.828-2.509c1.006-1.38 1.829-2.587 1.829-2.682 0-.095-.73-.172-1.622-.17l-1.622.003-1.916 2.42Zm-114.47.597c.496.634.585 1.145.58 3.339-.004 2.928-.335 3.868-1.511 4.284-.702.25-.882.187-1.475-.508-.618-.723-.676-1.041-.676-3.696 0-2.169.111-3.065.44-3.536.622-.896 1.896-.84 2.642.117Zm72.109 3.075c.847.852.884 1.823.108 2.816-.541.692-.747.748-2.75.749h-2.166l.093-2.131.093-2.132h1.965c1.71 0 2.055.09 2.657.698Zm-20.84 1.904c-.209 1.776-1.034 2.797-2.261 2.797-.465 0-1.077-.212-1.361-.47-1.452-1.324.457-3.747 2.979-3.781l.815-.011-.172 1.465Zm35.92-.032c0 1.728-.866 2.83-2.224 2.83-1.408 0-2.107-1.229-1.542-2.71.212-.558 2.197-1.538 3.131-1.547.575-.006.635.128.635 1.427Z" fill="#fff"/></g></g><defs><clipPath id="a"><path fill="#fff" d="M0 0h180v30H0z"/></clipPath></defs></svg>