<svg width="380" height="37" fill="none" xmlns="http://www.w3.org/2000/svg"><path d="M22.8 26.5c0-1.333-.6-2.4-1.8-3.2-1.233-.767-3.35-1.533-6.35-2.3-3.033-.767-5.117-1.367-6.25-1.8-4.8-1.767-7.2-4.667-7.2-8.7 0-2.233.783-4.117 2.35-5.65 1.6-1.567 3.567-2.733 5.9-3.5C11.15.85 12.967.6 14.9.6c5.7 0 10.217 1.667 13.55 5l-3.3 4.3c-2.9-2.433-6.367-3.65-10.4-3.65-.733 0-1.483.067-2.25.2-.733.1-1.517.283-2.35.55-.8.267-1.45.7-1.95 1.3-.5.567-.75 1.25-.75 2.05 0 1.333.833 2.4 2.5 3.2.833.467 2.767 1.083 5.8 1.85 3.033.767 5.1 1.367 6.2 1.8 2.267.9 4.017 2.05 5.25 3.45 1.233 1.367 1.85 3.167 1.85 5.4 0 2.2-.717 4.117-2.15 5.75a12.104 12.104 0 0 1-5.1 3.55c-2 .7-4.067 1.05-6.2 1.05-2.733 0-5.583-.567-8.55-1.7C4.117 33.533 1.833 31.967.2 30l3.6-4.25c1.567 1.633 3.433 2.883 5.6 3.75a18.646 18.646 0 0 0 6.75 1.25c1.667 0 3.183-.333 4.55-1 1.4-.667 2.1-1.75 2.1-3.25Zm14.543 4.7c-3.433-3.467-5.15-7.7-5.15-12.7 0-5 1.733-9.233 5.2-12.7 3.5-3.467 7.733-5.2 12.7-5.2 5.133 0 9.4 1.717 12.8 5.15 3.4 3.433 5.1 7.683 5.1 12.75s-1.733 9.317-5.2 12.75c-3.433 3.433-7.667 5.15-12.7 5.15-5.067 0-9.317-1.733-12.75-5.2Zm4.4-21.25c-2.167 2.367-3.25 5.217-3.25 8.55 0 3.333 1.117 6.183 3.35 8.55 2.233 2.367 4.983 3.55 8.25 3.55 3.433 0 6.217-1.15 8.35-3.45 2.167-2.333 3.25-5.217 3.25-8.65 0-3.367-1.117-6.217-3.35-8.55-2.2-2.367-4.95-3.55-8.25-3.55-3.367 0-6.15 1.183-8.35 3.55ZM99.054 36h-25.9V1h6.05v29.3h19.85V36Zm5.476-4.8c-3.433-3.467-5.15-7.7-5.15-12.7 0-5 1.734-9.233 5.2-12.7 3.5-3.467 7.734-5.2 12.7-5.2 5.134 0 9.4 1.717 12.8 5.15 3.4 3.433 5.1 7.683 5.1 12.75s-1.733 9.317-5.2 12.75c-3.433 3.433-7.666 5.15-12.7 5.15-5.066 0-9.316-1.733-12.75-5.2Zm4.4-21.25c-2.166 2.367-3.25 5.217-3.25 8.55 0 3.333 1.117 6.183 3.35 8.55 2.234 2.367 4.984 3.55 8.25 3.55 3.434 0 6.217-1.15 8.35-3.45 2.167-2.333 3.25-5.217 3.25-8.65 0-3.367-1.116-6.217-3.35-8.55-2.2-2.367-4.95-3.55-8.25-3.55-3.366 0-6.15 1.183-8.35 3.55ZM158.208 24v12h-6.05V1h14.15c2.067 0 3.934.2 5.6.6 1.667.367 3.184.983 4.55 1.85 1.4.833 2.484 2.017 3.25 3.55.767 1.533 1.15 3.367 1.15 5.5 0 2.033-.416 3.817-1.25 5.35-.8 1.533-1.916 2.733-3.35 3.6a16.627 16.627 0 0 1-4.6 1.95c-1.666.4-3.466.6-5.4.6h-8.05Zm8.3-17.35h-8.3v11.7h7.95c5.6 0 8.4-1.967 8.4-5.9 0-3.867-2.683-5.8-8.05-5.8Zm25.587 16.5V36h-6.05V1h13.75c9.2 0 13.8 3.633 13.8 10.9 0 2.4-.717 4.533-2.15 6.4-1.4 1.833-3.25 3.067-5.55 3.7l10.5 14h-7.35l-9.55-12.85h-7.4Zm7.55-16.45h-7.55v10.75h7.85c2 0 3.717-.45 5.15-1.35 1.467-.933 2.2-2.333 2.2-4.2 0-3.467-2.55-5.2-7.65-5.2ZM246.676 36h-26.5V1h26v5.7h-19.95v8.8h18.65V21h-18.65v9.3h20.45V36Zm11.776 0h-6.05V1h5.35l12.5 16.25L282.302 1h5.3v35h-6.05V11.75l-10.65 13.9h-1.55l-10.9-13.95V36Zm42.188 0h-6.05V1h6.05v35Zm30.537-35h6.05v20.1c0 4.6-1.317 8.3-3.95 11.1-2.6 2.767-6.133 4.15-10.6 4.15-4.633 0-8.367-1.45-11.2-4.35-2.8-2.9-4.2-6.633-4.2-11.2V1h6.05v19.05c0 3 .817 5.533 2.45 7.6 1.667 2.033 3.967 3.05 6.9 3.05 2.933 0 5.083-.983 6.45-2.95s2.05-4.467 2.05-7.5V1Zm18.779 35h-6.05V1h5.35l12.5 16.25L373.806 1h5.3v35h-6.05V11.75l-10.65 13.9h-1.55l-10.9-13.95V36Z" fill="#fff"/></svg>