<svg width="300" height="52" fill="none" xmlns="http://www.w3.org/2000/svg"><path d="M0 0h51.999v26.15a18.767 18.767 0 0 1-9.378 16.253L26.011 52 9.403 42.403C3.592 39.063.025 32.855.025 26.15V0H0Z" fill="#fff"/><path fill-rule="evenodd" clip-rule="evenodd" d="M14.266 13.76v8.126c1.122-1.246 3.142-2.094 5.436-2.094h2.52v9.448c0 2.518-.674 4.712-1.697 5.933H31.45c-1.023-1.221-1.696-3.415-1.696-5.933v-9.448h2.519c2.32 0 4.34.848 5.437 2.094V13.76H14.266Z" fill="#18181A"/><path d="M286.857 12.54v2.168c8.23.174 13.143 3.64 13.143 9.747 0 6.107-4.913 9.298-13.143 9.497v2.169h-6.509v-2.169c-8.181-.174-13.094-3.365-13.094-9.497 0-6.108 4.913-9.573 13.094-9.747v-2.169h6.509Zm-6.509 16.825v-10.02c-4.49.174-6.485 2.243-6.485 5.135 0 2.866 1.995 4.711 6.485 4.886Zm6.509-10.02v10.02c4.539-.174 6.484-2.019 6.484-4.91 0-2.867-1.92-4.936-6.484-5.11Zm-34.816-6.805v2.168c8.23.174 13.143 3.64 13.143 9.747 0 6.107-4.913 9.298-13.143 9.497v2.169h-6.509v-2.169c-8.18-.174-13.093-3.365-13.093-9.497 0-6.108 4.913-9.573 13.093-9.747v-2.169h6.509Zm-6.534 16.825v-10.02c-4.489.174-6.484 2.243-6.484 5.135.025 2.866 1.995 4.711 6.484 4.886Zm6.534-10.02v10.02c4.539-.174 6.485-2.019 6.485-4.91 0-2.867-1.946-4.936-6.485-5.11Zm-35.713-6.157c8.729 0 13.991 4.935 13.991 11.317 0 6.381-5.262 11.317-13.991 11.317-8.779 0-14.041-4.936-14.041-11.317.025-6.382 5.287-11.317 14.041-11.317Zm0 17.424c4.314 0 7.158-2.617 7.158-6.107 0-3.515-2.844-6.058-7.158-6.058-4.364 0-7.158 2.568-7.158 6.058 0 3.515 2.794 6.107 7.158 6.107Z" fill="#18181A"/><path d="M186.451 27.072h-1.795v8.101h-6.51V13.785h6.51v8.052h1.795l7.881-8.052h8.18l-10.424 10.22 10.848 11.143h-8.679l-7.806-8.076Zm-21.348 8.101h-13.218V13.785h6.534v5.734h6.709c1.621 0 3.316.05 4.763.573 3.018 1.122 4.913 3.59 4.913 7.154 0 3.74-2.195 6.482-5.586 7.429-1.297.349-2.644.498-4.115.498Zm-1.148-10.619h-5.586v5.434h5.586c1.123 0 1.846 0 2.569-.324 1.023-.448 1.671-1.396 1.671-2.517 0-1.072-.623-1.97-1.721-2.344-.748-.249-1.621-.249-2.519-.249Zm-23.543 2.642h-10.474v7.952h-6.509V13.76h6.509v7.827h10.474V13.76h6.51v21.388h-6.51v-7.952Zm-38.955-.972 11.248-12.464h5.761v21.388h-6.509V22.684l-11.248 12.464h-5.76V13.76h6.508v12.464Zm-18.48 8.949H76.22v-15.68h-9.28v-5.708h25.29v5.709h-9.253v15.68Z" fill="#18181A"/></svg>