<svg width="321" height="46" fill="none" xmlns="http://www.w3.org/2000/svg"><path d="M6.55 36H.5V1h6.05v15.35L22.25 1h7.9l-15.9 15.7L31.3 36h-8.05L9.7 20.75 6.55 23.8V36Zm29.884-18.55-2.8-4.2c1.3-1.233 2.95-2.183 4.95-2.85 2-.667 3.984-1 5.95-1 3.434 0 6.067.933 7.9 2.8 1.834 1.833 2.75 4.467 2.75 7.9V36h-5.7v-2.85c-1.9 2.1-4.583 3.15-8.05 3.15-2.7 0-4.95-.7-6.75-2.1-1.8-1.433-2.7-3.467-2.7-6.1 0-1.6.367-2.967 1.1-4.1.734-1.133 1.734-1.983 3-2.55a16.574 16.574 0 0 1 3.85-1.2c1.3-.267 2.7-.4 4.2-.4 1.967 0 3.75.233 5.35.7.067-1.833-.333-3.283-1.2-4.35-.866-1-2.333-1.5-4.4-1.5-2.566 0-5.05.917-7.45 2.75Zm6.25 13.9a8.424 8.424 0 0 0 3.9-.95c1.234-.633 2.2-1.5 2.9-2.6v-2.5c-1.666-.467-3.25-.7-4.75-.7-4.566 0-6.85 1.15-6.85 3.45 0 1.133.484 1.967 1.45 2.5 1 .533 2.117.8 3.35.8ZM66.044 46h-5.7V10h5.7v2.35c.766-.967 1.8-1.7 3.1-2.2 1.333-.5 2.7-.75 4.1-.75 3.9 0 6.966 1.233 9.2 3.7 2.266 2.467 3.4 5.617 3.4 9.45 0 4-1.2 7.317-3.6 9.95-2.367 2.633-5.5 3.95-9.4 3.95-1.234 0-2.534-.167-3.9-.5-1.334-.367-2.3-.917-2.9-1.65V46Zm6.6-31.3a7.19 7.19 0 0 0-3.95 1.15c-1.167.767-2.05 1.8-2.65 3.1v9c1.3 2.133 3.35 3.2 6.15 3.2 2.366 0 4.25-.75 5.65-2.25 1.4-1.533 2.1-3.5 2.1-5.9 0-2.467-.617-4.467-1.85-6-1.234-1.533-3.05-2.3-5.45-2.3Zm23.115.6h-9.4V10h24.5v5.3h-9.4V36h-5.7V15.3Zm20.705 2.15-2.8-4.2c1.3-1.233 2.95-2.183 4.95-2.85 2-.667 3.983-1 5.95-1 3.433 0 6.066.933 7.9 2.8 1.833 1.833 2.75 4.467 2.75 7.9V36h-5.7v-2.85c-1.9 2.1-4.584 3.15-8.05 3.15-2.7 0-4.95-.7-6.75-2.1-1.8-1.433-2.7-3.467-2.7-6.1 0-1.6.366-2.967 1.1-4.1.733-1.133 1.733-1.983 3-2.55a16.565 16.565 0 0 1 3.85-1.2c1.3-.267 2.7-.4 4.2-.4 1.966 0 3.75.233 5.35.7.066-1.833-.334-3.283-1.2-4.35-.867-1-2.334-1.5-4.4-1.5-2.567 0-5.05.917-7.45 2.75Zm6.25 13.9a8.428 8.428 0 0 0 3.9-.95c1.233-.633 2.2-1.5 2.9-2.6v-2.5c-1.667-.467-3.25-.7-4.75-.7-4.567 0-6.85 1.15-6.85 3.45 0 1.133.483 1.967 1.45 2.5 1 .533 2.116.8 3.35.8Zm28.275-8.4c0-4.033 1.317-7.3 3.95-9.8 2.633-2.5 5.95-3.75 9.95-3.75 4.067 0 7.4 1.267 10 3.8 2.633 2.5 3.95 5.75 3.95 9.75s-1.333 7.25-4 9.75-5.983 3.75-9.95 3.75c-3.967 0-7.283-1.267-9.95-3.8-2.633-2.567-3.95-5.8-3.95-9.7Zm5.9 0c0 2.333.75 4.283 2.25 5.85 1.5 1.567 3.417 2.35 5.75 2.35 2.467 0 4.417-.75 5.85-2.25 1.467-1.5 2.2-3.483 2.2-5.95 0-2.4-.75-4.367-2.25-5.9-1.5-1.567-3.433-2.35-5.8-2.35-2.4 0-4.333.783-5.8 2.35-1.467 1.533-2.2 3.5-2.2 5.9Zm31.888-7.65h-9.4V10h24.5v5.3h-9.4V36h-5.7V15.3Zm33.871 15.9c-3.434-3.467-5.15-7.7-5.15-12.7 0-5 1.733-9.233 5.2-12.7 3.5-3.467 7.733-5.2 12.7-5.2 5.133 0 9.4 1.717 12.8 5.15 3.4 3.433 5.1 7.683 5.1 12.75s-1.734 9.317-5.2 12.75c-3.434 3.433-7.667 5.15-12.7 5.15-5.067 0-9.317-1.733-12.75-5.2Zm4.4-21.25c-2.167 2.367-3.25 5.217-3.25 8.55 0 3.333 1.116 6.183 3.35 8.55 2.233 2.367 4.983 3.55 8.25 3.55 3.433 0 6.216-1.15 8.35-3.45 2.166-2.333 3.25-5.217 3.25-8.65 0-3.367-1.117-6.217-3.35-8.55-2.2-2.367-4.95-3.55-8.25-3.55-3.367 0-6.15 1.183-8.35 3.55ZM259.938 36h-6.25l15.35-35h4.6l15.35 35h-6.35l-3.4-7.75h-15.95l-3.35 7.75Zm17.05-12.95-5.75-13.3-5.75 13.3h11.5Zm37.738-2.1h-16.95V15.3h16.85c-.5-2.9-1.816-5.133-3.95-6.7-2.133-1.567-4.716-2.35-7.75-2.35-2.033 0-4 .45-5.9 1.35a14.235 14.235 0 0 0-4.8 3.6l-4-3.9c1.6-2.2 3.767-3.867 6.5-5a21.989 21.989 0 0 1 8.5-1.7c5.5 0 9.834 1.617 13 4.85 3.167 3.2 4.75 7.5 4.75 12.9 0 5.5-1.683 9.883-5.05 13.15-3.333 3.267-7.7 4.9-13.1 4.9-3.033 0-5.866-.583-8.5-1.75a15.955 15.955 0 0 1-6.4-5.3l4.1-3.45c1.134 1.533 2.734 2.733 4.8 3.6 2.067.833 4.15 1.25 6.25 1.25 3.1 0 5.717-.867 7.85-2.6 2.167-1.767 3.434-4.167 3.8-7.2Z" fill="#fff"/></svg>