<svg width="533" height="46" fill="none" xmlns="http://www.w3.org/2000/svg"><path d="M6.55 35H.5V0h5.35l12.5 16.25L30.4 0h5.3v35h-6.05V10.75L19 24.65h-1.55L6.55 10.7V35Zm55.088-8.3 3.5 3.45c-2.6 3.533-6.117 5.3-10.55 5.3-4.167 0-7.534-1.233-10.1-3.7-2.567-2.467-3.85-5.733-3.85-9.8 0-4.1 1.216-7.383 3.65-9.85 2.466-2.467 5.7-3.7 9.7-3.7 3.6 0 6.533 1.117 8.8 3.35 2.266 2.2 3.4 5.05 3.4 8.55 0 .867-.1 2.083-.3 3.65h-19.3c.233 2.033 1.1 3.583 2.6 4.65 1.533 1.033 3.366 1.55 5.5 1.55 1.333 0 2.633-.3 3.9-.9 1.266-.633 2.283-1.483 3.05-2.55Zm-7.9-13.15c-1.8 0-3.35.483-4.65 1.45-1.267.967-2.084 2.3-2.45 4h13.65c-.5-3.633-2.684-5.45-6.55-5.45ZM66.331 35l10.8-14.15L66.432 9h7.1l9.1 10.15V9h5.7v10.2l9.3-10.2h6.9l-10.8 11.8 11.05 14.2h-6.95l-8.4-11-1.1 1.15V35h-5.7v-9.8l-1.2-1.25-8.3 11.05h-6.8Zm43.493 5.95h-5.3V29.7h3c1.967-3.4 2.95-8.8 2.95-16.2V9h19.9v20.7h3.65v11.25h-5.3V35h-18.9v5.95Zm14.85-26.65h-8.8v2.15c0 5.467-.816 9.883-2.45 13.25h11.25V14.3Zm13.282 30.4 2.25-4.85c.333.2.717.3 1.15.3 1.567 0 2.933-1.45 4.1-4.35l.9-2.35L133.557 9h6.6l8.95 17.55 6.9-17.55h6.1l-10.2 25.25c-1.5 3.767-3 6.567-4.5 8.4-1.567 1.867-3.517 2.8-5.85 2.8-1.4 0-2.6-.25-3.6-.75ZM188.15 35h-5.7V24.45h-12.5V35h-5.7V9h5.7v10.2h12.5V9h5.7v26Zm8.148-18.55-2.8-4.2c1.3-1.233 2.95-2.183 4.95-2.85 2-.667 3.983-1 5.95-1 3.433 0 6.066.933 7.9 2.8 1.833 1.833 2.75 4.467 2.75 7.9V35h-5.7v-2.85c-1.9 2.1-4.584 3.15-8.05 3.15-2.7 0-4.95-.7-6.75-2.1-1.8-1.433-2.7-3.467-2.7-6.1 0-1.6.366-2.967 1.1-4.1.733-1.133 1.733-1.983 3-2.55a16.565 16.565 0 0 1 3.85-1.2c1.3-.267 2.7-.4 4.2-.4 1.966 0 3.75.233 5.35.7.066-1.833-.334-3.283-1.2-4.35-.867-1-2.334-1.5-4.4-1.5-2.567 0-5.05.917-7.45 2.75Zm6.25 13.9a8.428 8.428 0 0 0 3.9-.95c1.233-.633 2.2-1.5 2.9-2.6v-2.5c-1.667-.467-3.25-.7-4.75-.7-4.567 0-6.85 1.15-6.85 3.45 0 1.133.483 1.967 1.45 2.5 1 .533 2.116.8 3.35.8ZM225.907 45h-5.7V9h5.7v2.35c.766-.967 1.8-1.7 3.1-2.2 1.333-.5 2.7-.75 4.1-.75 3.9 0 6.966 1.233 9.2 3.7 2.266 2.467 3.4 5.617 3.4 9.45 0 4-1.2 7.317-3.6 9.95-2.367 2.633-5.5 3.95-9.4 3.95-1.234 0-2.534-.167-3.9-.5-1.334-.367-2.3-.917-2.9-1.65V45Zm6.6-31.3c-1.434 0-2.75.383-3.95 1.15-1.167.767-2.05 1.8-2.65 3.1v9c1.3 2.133 3.35 3.2 6.15 3.2 2.366 0 4.25-.75 5.65-2.25 1.4-1.533 2.1-3.5 2.1-5.9 0-2.467-.617-4.467-1.85-6-1.234-1.533-3.05-2.3-5.45-2.3Zm16.089 8.25c0-4.033 1.317-7.3 3.95-9.8 2.634-2.5 5.95-3.75 9.95-3.75 4.067 0 7.4 1.267 10 3.8 2.634 2.5 3.95 5.75 3.95 9.75s-1.333 7.25-4 9.75c-2.666 2.5-5.983 3.75-9.95 3.75-3.966 0-7.283-1.267-9.95-3.8-2.633-2.567-3.95-5.8-3.95-9.7Zm5.9 0c0 2.333.75 4.283 2.25 5.85 1.5 1.567 3.417 2.35 5.75 2.35 2.467 0 4.417-.75 5.85-2.25 1.467-1.5 2.2-3.483 2.2-5.95 0-2.4-.75-4.367-2.25-5.9-1.5-1.567-3.433-2.35-5.8-2.35-2.4 0-4.333.783-5.8 2.35-1.466 1.533-2.2 3.5-2.2 5.9Zm27.742 19h-5.3V29.7h3c1.966-3.4 2.95-8.8 2.95-16.2V9h19.9v20.7h3.65v11.25h-5.3V35h-18.9v5.95Zm14.85-26.65h-8.8v2.15c0 5.467-.817 9.883-2.45 13.25h11.25V14.3ZM333.169 35h-5.7V24.45h-12.5V35h-5.7V9h5.7v10.2h12.5V9h5.7v26Zm8.148-18.55-2.8-4.2c1.3-1.233 2.95-2.183 4.95-2.85 2-.667 3.984-1 5.95-1 3.434 0 6.067.933 7.9 2.8 1.834 1.833 2.75 4.467 2.75 7.9V35h-5.7v-2.85c-1.9 2.1-4.583 3.15-8.05 3.15-2.7 0-4.95-.7-6.75-2.1-1.8-1.433-2.7-3.467-2.7-6.1 0-1.6.367-2.967 1.1-4.1.734-1.133 1.734-1.983 3-2.55a16.58 16.58 0 0 1 3.85-1.2c1.3-.267 2.7-.4 4.2-.4 1.967 0 3.75.233 5.35.7.067-1.833-.333-3.283-1.2-4.35-.866-1-2.333-1.5-4.4-1.5-2.566 0-5.05.917-7.45 2.75Zm6.25 13.9a8.422 8.422 0 0 0 3.9-.95c1.234-.633 2.2-1.5 2.9-2.6v-2.5c-1.666-.467-3.25-.7-4.75-.7-4.566 0-6.85 1.15-6.85 3.45 0 1.133.484 1.967 1.45 2.5 1 .533 2.117.8 3.35.8ZM376.176 9h10.7v26h-5.7v-8.55h-4.85l-6.6 8.55h-6.65l7.5-9.5c-1.833-.467-3.283-1.417-4.35-2.85-1.066-1.433-1.6-3.117-1.6-5.05 0-1.6.334-2.983 1-4.15.667-1.167 1.567-2.05 2.7-2.65a13.418 13.418 0 0 1 3.65-1.35c1.3-.3 2.7-.45 4.2-.45Zm-5.65 8.8c0 1 .45 1.8 1.35 2.4.834.633 2.05.95 3.65.95h5.65V14.3h-5.5c-3.433 0-5.15 1.167-5.15 3.5Zm39.17 17.2h-5.7V9h5.7v10.55L420.946 9h7.45l-12.65 11.75 13.1 14.25h-7.3l-9.95-10.7-1.9 1.85V35Zm23.613-18.55-2.8-4.2c1.3-1.233 2.95-2.183 4.95-2.85 2-.667 3.984-1 5.95-1 3.434 0 6.067.933 7.9 2.8 1.834 1.833 2.75 4.467 2.75 7.9V35h-5.7v-2.85c-1.9 2.1-4.583 3.15-8.05 3.15-2.7 0-4.95-.7-6.75-2.1-1.8-1.433-2.7-3.467-2.7-6.1 0-1.6.367-2.967 1.1-4.1.734-1.133 1.734-1.983 3-2.55a16.58 16.58 0 0 1 3.85-1.2c1.3-.267 2.7-.4 4.2-.4 1.967 0 3.75.233 5.35.7.067-1.833-.333-3.283-1.2-4.35-.866-1-2.333-1.5-4.4-1.5-2.566 0-5.05.917-7.45 2.75Zm6.25 13.9a8.422 8.422 0 0 0 3.9-.95c1.234-.633 2.2-1.5 2.9-2.6v-2.5c-1.666-.467-3.25-.7-4.75-.7-4.566 0-6.85 1.15-6.85 3.45 0 1.133.484 1.967 1.45 2.5 1 .533 2.117.8 3.35.8ZM462.918 45h-5.7V9h5.7v2.35c.767-.967 1.8-1.7 3.1-2.2 1.334-.5 2.7-.75 4.1-.75 3.9 0 6.967 1.233 9.2 3.7 2.267 2.467 3.4 5.617 3.4 9.45 0 4-1.2 7.317-3.6 9.95-2.366 2.633-5.5 3.95-9.4 3.95-1.233 0-2.533-.167-3.9-.5-1.333-.367-2.3-.917-2.9-1.65V45Zm6.6-31.3c-1.433 0-2.75.383-3.95 1.15a7.283 7.283 0 0 0-2.65 3.1v9c1.3 2.133 3.35 3.2 6.15 3.2 2.367 0 4.25-.75 5.65-2.25 1.4-1.533 2.1-3.5 2.1-5.9 0-2.467-.616-4.467-1.85-6-1.233-1.533-3.05-2.3-5.45-2.3Zm23.116.6h-9.4V9h24.5v5.3h-9.4V35h-5.7V14.3Zm20.705 2.15-2.8-4.2c1.3-1.233 2.95-2.183 4.95-2.85 2-.667 3.983-1 5.95-1 3.433 0 6.066.933 7.9 2.8 1.833 1.833 2.75 4.467 2.75 7.9V35h-5.7v-2.85c-1.9 2.1-4.584 3.15-8.05 3.15-2.7 0-4.95-.7-6.75-2.1-1.8-1.433-2.7-3.467-2.7-6.1 0-1.6.366-2.967 1.1-4.1.733-1.133 1.733-1.983 3-2.55a16.565 16.565 0 0 1 3.85-1.2c1.3-.267 2.7-.4 4.2-.4 1.966 0 3.75.233 5.35.7.066-1.833-.334-3.283-1.2-4.35-.867-1-2.334-1.5-4.4-1.5-2.567 0-5.05.917-7.45 2.75Zm6.25 13.9a8.428 8.428 0 0 0 3.9-.95c1.233-.633 2.2-1.5 2.9-2.6v-2.5c-1.667-.467-3.25-.7-4.75-.7-4.567 0-6.85 1.15-6.85 3.45 0 1.133.483 1.967 1.45 2.5 1 .533 2.116.8 3.35.8Z" fill="#fff"/></svg>