<svg width="60" height="60" fill="none" xmlns="http://www.w3.org/2000/svg"><rect width="60" height="60" rx="30" fill="#E2E2E2"/><path d="M19.143 38.42s1.18-2.062 6.027-3.36c4.848-1.3 8.951 1.09 13.799-.209 4.847-1.298 6.027-3.36 6.027-3.36L39.762 11.96s-1.18 2.061-6.027 3.36-8.951-1.09-13.799.208c-4.847 1.299-6.027 3.36-6.027 3.36l5.234 19.532Z" fill="#6C6C6C"/><path fill-rule="evenodd" clip-rule="evenodd" d="M39.851 11.275a.69.69 0 0 1 .578.506l5.233 19.532a.69.69 0 0 1-.067.522l-.599-.343.598.343v.001l-.002.003-.002.004a.633.633 0 0 1-.027.043 3.876 3.876 0 0 1-.308.402 6.74 6.74 0 0 1-1.04.948c-.98.736-2.568 1.612-5.068 2.282-2.553.684-4.904.397-7.115.128l-.046-.006c-2.251-.274-4.36-.524-6.637.086-2.348.63-3.773 1.433-4.596 2.052a5.437 5.437 0 0 0-.858.784l2.957 11.035a.69.69 0 0 1-1.332.357l-3.043-11.356-5.67-21.16a.69.69 0 0 1 1.332-.358l.112.417c.13-.113.276-.232.44-.354.978-.737 2.568-1.613 5.067-2.282 2.553-.684 4.904-.398 7.115-.128l.046.005c2.252.275 4.361.525 6.638-.085 2.348-.63 3.772-1.434 4.595-2.052a5.36 5.36 0 0 0 .83-.753 2.508 2.508 0 0 0 .184-.236l.002-.003a.69.69 0 0 1 .683-.334Zm-.686.34Zm.255 1.734c-.13.113-.276.232-.439.354-.979.737-2.568 1.613-5.067 2.282-2.553.684-4.905.398-7.116.128l-.046-.005c-2.251-.274-4.36-.525-6.637.085-2.348.63-3.773 1.433-4.595 2.052a5.432 5.432 0 0 0-.858.785l4.823 18a7.84 7.84 0 0 1 .44-.355c.978-.736 2.567-1.612 5.067-2.282 2.553-.684 4.904-.397 7.115-.128l.046.006c2.251.274 4.36.524 6.637-.086 2.348-.63 3.773-1.433 4.596-2.052a5.458 5.458 0 0 0 .857-.784l-4.823-18Zm4.982 17.792Z" fill="#6C6C6C"/></svg>