<svg width="45" height="45" fill="none" xmlns="http://www.w3.org/2000/svg"><g clip-path="url(#a)"><rect width="45" height="45" rx="22.5" fill="#fff"/><g clip-path="url(#b)" fill="red"><path d="M19.5-.41h6v45.82h-6V-.41ZM0 19.5h45v6H0v-6Zm11.332-9.07c.7.093 1.41.093 2.11 0a15.6 15.6 0 0 0 0 6.139 8.097 8.097 0 0 0-2.11 0 15.6 15.6 0 0 0 0-6.138Z"/><path d="M15.456 12.445a8.1 8.1 0 0 0 0 2.11 15.6 15.6 0 0 0-6.138 0 8.1 8.1 0 0 0 0-2.11 15.6 15.6 0 0 0 6.138 0Zm16.102-2.015c.7.093 1.41.093 2.11 0a15.6 15.6 0 0 0 0 6.139 8.097 8.097 0 0 0-2.11 0 15.6 15.6 0 0 0 0-6.138Z"/><path d="M35.682 12.445a8.1 8.1 0 0 0 0 2.11 15.6 15.6 0 0 0-6.138 0 8.1 8.1 0 0 0 0-2.11 15.6 15.6 0 0 0 6.138 0ZM11.332 28.43c.7.093 1.41.093 2.11 0a15.6 15.6 0 0 0 0 6.139 8.106 8.106 0 0 0-2.11 0 15.6 15.6 0 0 0 0-6.138Z"/><path d="M15.456 30.445a8.1 8.1 0 0 0 0 2.11 15.6 15.6 0 0 0-6.138 0 8.1 8.1 0 0 0 0-2.11 15.6 15.6 0 0 0 6.138 0Zm16.102-2.015c.7.093 1.41.093 2.11 0a15.6 15.6 0 0 0 0 6.139 8.106 8.106 0 0 0-2.11 0 15.6 15.6 0 0 0 0-6.138Z"/><path d="M35.682 30.445a8.1 8.1 0 0 0 0 2.11 15.6 15.6 0 0 0-6.138 0 8.1 8.1 0 0 0 0-2.11 15.6 15.6 0 0 0 6.138 0Z"/></g></g><defs><clipPath id="a"><rect width="45" height="45" rx="22.5" fill="#fff"/></clipPath><clipPath id="b"><path fill="#fff" d="M0 0h45v45H0z"/></clipPath></defs></svg>