<svg width="0" height="0" class="hidden">
    <symbol version="1.1" xmlns="http://www.w3.org/2000/svg" viewBox="0 0 560 448" id="volume-high">
        <path fill="currentColor" d="M466.9 28.438c56.787 46.112 93.1 116.638 93.1 195.563s-36.313 149.363-93.1 195.563c-9.012 7.35-22.225 5.95-29.575-3.063s-5.95-22.225 3.063-29.575c47.425-38.5 77.613-97.125 77.613-162.925s-30.188-124.425-77.613-163.013c-9.012-7.35-10.325-20.563-3.063-29.575s20.562-10.325 29.575-3.063zM413.963 93.625c37.8 30.8 62.037 77.787 62.037 130.375s-24.238 99.575-62.037 130.375c-9.013 7.35-22.225 5.95-29.575-3.063s-5.95-22.225 3.063-29.575c28.438-23.1 46.55-58.275 46.55-97.738s-18.113-74.638-46.55-97.825c-9.012-7.35-10.325-20.563-3.063-29.575s20.563-10.325 29.575-3.063zM361.025 158.813c18.813 15.4 30.975 38.85 30.975 65.188s-12.162 49.787-30.975 65.188c-9.013 7.35-22.225 5.95-29.575-3.063s-5.95-22.225 3.063-29.575c9.45-7.7 15.488-19.425 15.488-32.55s-6.037-24.85-15.488-32.638c-9.012-7.35-10.325-20.563-3.063-29.575s20.563-10.325 29.575-3.063zM263.463 30.45c10.063 4.55 16.537 14.525 16.537 25.55v336c0 11.025-6.475 21-16.537 25.55s-21.875 2.712-30.1-4.638l-118.038-104.912h-59.325c-30.887 0-56-25.113-56-56v-56c0-30.888 25.112-56 56-56h59.325l118.038-104.913c8.225-7.35 20.037-9.1 30.1-4.637z"></path>
    </symbol>
    <symbol version="1.1" xmlns="http://www.w3.org/2000/svg" viewBox="0 0 504 448" id="volume-xmark">
        <path fill="currentColor" d="M263.463 30.45c10.063 4.55 16.537 14.525 16.537 25.55v336c0 11.025-6.475 21-16.537 25.55s-21.875 2.712-30.1-4.638l-118.038-104.912h-59.325c-30.887 0-56-25.113-56-56v-56c0-30.888 25.112-56 56-56h59.325l118.038-104.913c8.225-7.35 20.037-9.1 30.1-4.637zM371.875 146.125l48.125 48.125 48.125-48.125c8.225-8.225 21.525-8.225 29.662 0s8.225 21.525 0 29.662l-48.125 48.125 48.125 48.125c8.225 8.225 8.225 21.525 0 29.662s-21.525 8.225-29.662 0l-48.125-48.125-48.125 48.125c-8.225 8.225-21.525 8.225-29.662 0s-8.225-21.525 0-29.662l48.125-48.125-48.125-48.125c-8.225-8.225-8.225-21.525 0-29.662s21.525-8.225 29.662 0z"></path>
    </symbol>
    <symbol version="1.1" xmlns="http://www.w3.org/2000/svg" viewBox="0 0 392 448" id="whatsapp">
        <path fill="currentColor" d="M333.287 84.962c-36.662-36.75-85.487-56.962-137.375-56.962-107.1 0-194.25 87.15-194.25 194.25 0 34.213 8.925 67.637 25.9 97.125l-27.563 100.625 102.987-27.037c28.35 15.487 60.288 23.625 92.838 23.625h0.087c107.013 0 196.088-87.15 196.088-194.25 0-51.888-22.050-100.625-58.713-137.375zM195.912 383.863c-29.050 0-57.488-7.788-82.25-22.488l-5.863-3.5-61.075 16.012 16.275-59.587-3.85-6.125c-16.188-25.725-24.675-55.388-24.675-85.925 0-88.988 72.45-161.438 161.525-161.438 43.138 0 83.65 16.8 114.1 47.337s49.175 71.050 49.088 114.187c0 89.075-74.287 161.525-163.275 161.525zM284.463 262.938c-4.813-2.45-28.7-14.175-33.162-15.75-4.463-1.662-7.7-2.45-10.938 2.45s-12.513 15.75-15.4 19.075c-2.8 3.237-5.688 3.675-10.5 1.225-28.525-14.263-47.25-25.463-66.063-57.75-4.988-8.575 4.987-7.963 14.262-26.513 1.575-3.237 0.788-6.037-0.438-8.487s-10.938-26.338-14.962-36.050c-3.938-9.45-7.963-8.138-10.938-8.313-2.8-0.175-6.038-0.175-9.275-0.175s-8.487 1.225-12.95 6.037c-4.462 4.9-16.975 16.625-16.975 40.512s17.412 46.987 19.775 50.225c2.45 3.237 34.212 52.237 82.95 73.325 30.8 13.3 42.875 14.438 58.275 12.162 9.363-1.4 28.7-11.725 32.725-23.1s4.025-21.088 2.8-23.1c-1.138-2.188-4.375-3.412-9.188-5.775z"></path>
    </symbol>
    <symbol version="1.1" xmlns="http://www.w3.org/2000/svg" viewBox="0 0 448 448" id="calendar">
        <path fill="none" stroke-linejoin="round" stroke-linecap="round" stroke-miterlimit="4" stroke-width="28" stroke="currentColor" d="M280 74.667v-37.333M280 74.667v37.333M280 74.667h-84M56 186.667v168c0 20.619 16.715 37.333 37.333 37.333h261.333c20.619 0 37.333-16.714 37.333-37.333v-168h-336z"></path>
        <path fill="none" stroke-linejoin="round" stroke-linecap="round" stroke-miterlimit="4" stroke-width="28" stroke="currentColor" d="M56 186.667v-74.667c0-20.618 16.715-37.333 37.333-37.333h37.333"></path>
        <path fill="none" stroke-linejoin="round" stroke-linecap="round" stroke-miterlimit="4" stroke-width="28" stroke="currentColor" d="M130.667 37.333v74.667"></path>
        <path fill="none" stroke-linejoin="round" stroke-linecap="round" stroke-miterlimit="4" stroke-width="28" stroke="currentColor" d="M392 186.667v-74.667c0-20.618-16.714-37.333-37.333-37.333h-9.333"></path>
    </symbol>
    <symbol version="1.1" xmlns="http://www.w3.org/2000/svg" viewBox="0 0 448 448" id="community">
        <path fill="none" stroke-linejoin="round" stroke-linecap="round" stroke-miterlimit="4" stroke-width="28" stroke="currentColor" d="M130.667 336v-18.667c0-51.546 41.787-93.333 93.333-93.333v0c51.546 0 93.333 41.787 93.333 93.333v18.667"></path>
        <path fill="none" stroke-linejoin="round" stroke-linecap="round" stroke-miterlimit="4" stroke-width="28" stroke="currentColor" d="M18.667 336v-18.667c0-30.929 25.072-56 56-56v0"></path>
        <path fill="none" stroke-linejoin="round" stroke-linecap="round" stroke-miterlimit="4" stroke-width="28" stroke="currentColor" d="M429.333 336v-18.667c0-30.929-25.071-56-56-56v0"></path>
        <path fill="none" stroke-linejoin="round" stroke-linecap="round" stroke-miterlimit="4" stroke-width="28" stroke="currentColor" d="M224 224c30.929 0 56-25.071 56-56s-25.071-56-56-56-56 25.072-56 56c0 30.929 25.071 56 56 56z"></path>
        <path fill="none" stroke-linejoin="round" stroke-linecap="round" stroke-miterlimit="4" stroke-width="28" stroke="currentColor" d="M74.667 261.333c20.618 0 37.333-16.714 37.333-37.333s-16.715-37.333-37.333-37.333c-20.619 0-37.333 16.714-37.333 37.333s16.715 37.333 37.333 37.333z"></path>
        <path fill="none" stroke-linejoin="round" stroke-linecap="round" stroke-miterlimit="4" stroke-width="28" stroke="currentColor" d="M373.333 261.333c20.619 0 37.333-16.714 37.333-37.333s-16.714-37.333-37.333-37.333c-20.619 0-37.333 16.714-37.333 37.333s16.714 37.333 37.333 37.333z"></path>
    </symbol>
    <symbol version="1.1" xmlns="http://www.w3.org/2000/svg" viewBox="0 0 448 448" id="lot-of-cash">
        <path fill="none" stroke-linejoin="round" stroke-linecap="round" stroke-miterlimit="4" stroke-width="28" stroke="currentColor" d="M74.667 336v-149.333c0-20.618 16.715-37.333 37.333-37.333h261.333c20.619 0 37.333 16.715 37.333 37.333v149.333c0 20.619-16.714 37.333-37.333 37.333h-261.333c-20.618 0-37.333-16.714-37.333-37.333z"></path>
        <path fill="none" stroke-linejoin="round" stroke-linecap="round" stroke-miterlimit="4" stroke-width="28" stroke="currentColor" d="M345.333 261.52l0.187-0.207"></path>
        <path fill="none" stroke-linejoin="round" stroke-linecap="round" stroke-miterlimit="4" stroke-width="28" stroke="currentColor" d="M140 261.52l0.187-0.207"></path>
        <path fill="none" stroke-linejoin="round" stroke-linecap="round" stroke-miterlimit="4" stroke-width="28" stroke="currentColor" d="M74.667 298.667h-18.667c-20.618 0-37.333-16.714-37.333-37.333v-149.333c0-20.618 16.715-37.333 37.333-37.333h261.333c20.619 0 37.333 16.715 37.333 37.333v37.333"></path>
        <path fill="none" stroke-linejoin="round" stroke-linecap="round" stroke-miterlimit="4" stroke-width="28" stroke="currentColor" d="M242.667 298.667c-20.619 0-37.333-16.714-37.333-37.333s16.714-37.333 37.333-37.333c20.619 0 37.333 16.714 37.333 37.333s-16.714 37.333-37.333 37.333z"></path>
    </symbol>
    <symbol version="1.1" xmlns="http://www.w3.org/2000/svg" viewBox="0 0 448 448" id="pin">
        <path fill="none" stroke-linejoin="miter" stroke-linecap="butt" stroke-miterlimit="4" stroke-width="28" stroke="currentColor" d="M373.333 186.667c0 82.475-149.333 224-149.333 224s-149.333-141.525-149.333-224c0-82.474 66.859-149.333 149.333-149.333s149.333 66.859 149.333 149.333z"></path>
        <path stroke-linejoin="round" stroke-linecap="round" stroke-miterlimit="4" stroke-width="28" stroke="currentColor" fill="currentColor" d="M224 205.333c10.31 0 18.667-8.357 18.667-18.667s-8.357-18.667-18.667-18.667c-10.31 0-18.667 8.358-18.667 18.667s8.357 18.667 18.667 18.667z"></path>
    </symbol>
    <symbol version="1.1" xmlns="http://www.w3.org/2000/svg" viewBox="0 0 448 448" id="check">
        <path fill="currentColor" d="M395.937 87.938l-241.937 241.937-101.938-101.937-20.125 20.125 112 112 10.063 9.625 10.063-9.625 252-252-20.125-20.125z"></path>
    </symbol>
    <symbol version="1.1" xmlns="http://www.w3.org/2000/svg" viewBox="0 0 280 448" id="facebook">
        <path  fill="currentColor" d="M70 261.887v186.113h101.5v-186.113h75.688l15.75-85.575h-91.438v-30.275c0-45.237 17.763-62.562 63.612-62.562 14.263 0 25.725 0.35 32.375 1.050v-77.612c-12.513-3.413-43.138-6.913-60.813-6.913-93.537 0-136.675 44.188-136.675 139.475v36.838h-57.75v85.575h57.75z"></path>
    </symbol>
    <symbol version="1.1" xmlns="http://www.w3.org/2000/svg" viewBox="0 0 392 448" id="linkedin">
        <path  fill="currentColor" d="M87.763 392h-81.288v-261.713h81.288zM47.075 94.587c-25.987 0-47.075-21.525-47.075-47.512 0-25.999 21.076-47.075 47.075-47.075s47.075 21.076 47.075 47.075v0c0 25.988-21.087 47.512-47.075 47.512zM391.912 392h-81.112v-127.4c0-30.362-0.613-69.3-42.263-69.3-42.262 0-48.737 32.987-48.737 67.112v129.588h-81.2v-261.713h77.963v35.7h1.138c10.85-20.563 37.363-42.263 76.913-42.263 82.25 0 97.387 54.163 97.387 124.513v143.763z"></path>
    </symbol>
    <symbol version="1.1" xmlns="http://www.w3.org/2000/svg" viewBox="0 0 448 448" id="twitter">
        <path  fill="currentColor" d="M401.975 132.737c0.263 3.938 0.263 7.963 0.263 11.9 0 121.363-92.4 261.275-261.275 261.275-52.063 0-100.363-15.050-140.963-41.213 7.35 0.875 14.525 1.138 22.137 1.138 42.963 0 82.425-14.525 114.013-39.2-40.338-0.875-74.2-27.3-85.838-63.7 5.688 0.875 11.375 1.4 17.325 1.4 8.225 0 16.45-1.138 24.15-3.15-42.088-8.487-73.588-45.5-73.588-90.125v-1.137c12.25 6.825 26.425 11.112 41.475 11.637-24.762-16.45-40.95-44.625-40.95-76.475 0-17.063 4.55-32.725 12.512-46.375 45.238 55.738 113.138 92.137 189.35 96.075-1.4-6.825-2.275-13.913-2.275-21 0-50.575 40.95-91.788 91.787-91.788 26.425 0 50.313 11.112 67.113 28.962 20.737-3.938 40.688-11.637 58.275-22.137-6.825 21.35-21.35 39.2-40.338 50.575 18.463-2.013 36.4-7.087 52.85-14.175-12.512 18.2-28.175 34.387-46.025 47.513z"></path>
    </symbol>
    <symbol version="1.1" xmlns="http://www.w3.org/2000/svg" viewBox="0 0 392 448" id="instagram">
        <path  fill="currentColor" d="M196.088 123.375c-55.65 0-100.538 44.888-100.538 100.537s44.888 100.537 100.538 100.537 100.537-44.887 100.537-100.537-44.888-100.537-100.537-100.537zM196.088 289.275c-35.963 0-65.363-29.313-65.363-65.363s29.313-65.362 65.363-65.362 65.362 29.313 65.362 65.362-29.4 65.363-65.362 65.363zM324.188 119.263c0 13.037-10.5 23.45-23.45 23.45-13.038 0-23.45-10.5-23.45-23.45s10.5-23.45 23.45-23.45 23.45 10.5 23.45 23.45zM390.775 143.063c-1.488-31.413-8.662-59.237-31.675-82.163-22.925-22.925-50.75-30.1-82.163-31.675-32.375-1.838-129.412-1.838-161.788 0-31.325 1.488-59.15 8.662-82.162 31.588s-30.1 50.75-31.675 82.162c-1.838 32.375-1.838 129.412 0 161.787 1.488 31.413 8.662 59.238 31.675 82.163s50.75 30.1 82.162 31.675c32.375 1.838 129.413 1.838 161.788 0 31.412-1.487 59.238-8.662 82.162-31.675 22.925-22.925 30.1-50.75 31.675-82.163 1.838-32.375 1.838-129.325 0-161.7zM348.95 339.5c-6.825 17.15-20.037 30.363-37.275 37.275-25.813 10.237-87.063 7.875-115.588 7.875s-89.863 2.275-115.588-7.875c-17.15-6.825-30.363-20.037-37.275-37.275-10.237-25.813-7.875-87.063-7.875-115.588s-2.275-89.863 7.875-115.587c6.825-17.15 20.037-30.363 37.275-37.275 25.813-10.237 87.063-7.875 115.588-7.875s89.862-2.275 115.588 7.875c17.15 6.825 30.362 20.038 37.275 37.275 10.238 25.813 7.875 87.063 7.875 115.587s2.363 89.863-7.875 115.588z"></path>
    </symbol>
    <symbol version="1.1" xmlns="http://www.w3.org/2000/svg" viewBox="0 0 448 448" id="tiktok">
        <path fill="currentColor" d="M365.661 124.805c-38-8.337-66.63-39.974-70.346-78.879l-0.028-0.361v-8.232h-64.307v255.211c-0.108 29.774-24.269 53.868-54.058 53.868-17.496 0-33.052-8.312-42.932-21.203l-0.095-0.129c-6.871-8.969-11.009-20.346-11.009-32.69 0-29.845 24.195-54.040 54.040-54.040 5.853 0 11.489 0.931 16.768 2.652l-0.382-0.108v-65.333c-4.86-0.708-10.472-1.113-16.178-1.113-65.248 0-118.141 52.894-118.141 118.141 0 32.138 12.832 61.278 33.653 82.578l-0.021-0.022c21.473 21.957 51.399 35.571 84.504 35.571 65.255 0 118.156-52.898 118.16-118.153v-130.406c24.659 17.81 55.495 28.486 88.825 28.486 0.095 0 0.191 0 0.286-0h-0.015v-63.896c-0.033 0-0.072 0-0.112 0-6.591 0-13.017-0.707-19.206-2.050l0.595 0.108z"></path>
    </symbol>
    <symbol version="1.1" xmlns="http://www.w3.org/2000/svg" viewBox="0 0 504 448" id="youtube">
        <path  fill="currentColor" d="M480.988 108.587c-5.512-20.737-21.7-37.012-42.263-42.525-37.275-10.063-186.725-10.063-186.725-10.063s-149.45 0-186.725 10.063c-20.563 5.513-36.75 21.788-42.262 42.525-9.975 37.538-9.975 115.762-9.975 115.762s0 78.225 9.975 115.763c5.512 20.737 21.7 36.313 42.262 41.825 37.275 10.063 186.725 10.063 186.725 10.063s149.45 0 186.725-10.063c20.563-5.512 36.75-21.175 42.262-41.825 9.975-37.538 9.975-115.763 9.975-115.763s0-78.225-9.975-115.762zM203.175 295.4v-142.1l124.862 71.050-124.862 71.050z"></path>
    </symbol>
    <symbol version="1.1" xmlns="http://www.w3.org/2000/svg" xmlns:xlink="http://www.w3.org/1999/xlink" preserveAspectRatio="xMidYMid" viewBox="0 -26.5 256 256" id="getyourguide">
            <path d="M58.7693166,91.1888424 C58.7693166,87.1185495 61.9112971,84.1193863 65.8387727,84.1193863 C69.7662483,84.1193863 72.9082287,87.1899582 72.9082287,91.1888424 C72.9082287,95.2591353 69.7662483,98.2582985 65.8387727,98.2582985 C61.9112971,98.2582985 58.7693166,95.1877266 58.7693166,91.1888424 Z M71.3372385,78.4781032 C71.3372385,82.5483961 74.479219,85.5475593 78.4066946,85.5475593 C82.3341702,85.5475593 85.4761506,82.4769874 85.4761506,78.4781032 C85.4761506,74.4078103 82.3341702,71.4086471 78.4066946,71.4086471 C74.479219,71.4086471 71.3372385,74.4078103 71.3372385,78.4781032 Z M88.5467225,69.8376569 L88.5467225,82.5483961 C98.4725244,82.5483961 106.256067,90.6175732 106.256067,101.186053 C106.256067,111.754533 98.4011158,119.82371 88.5467225,119.82371 C78.6209205,119.82371 70.837378,111.754533 70.837378,101.186053 L56.9841004,101.186053 C56.9841004,118.75258 70.9801953,132.534449 88.5467225,132.534449 C106.11325,132.534449 120.109344,118.75258 120.109344,101.186053 C120.109344,83.6195258 106.11325,69.8376569 88.5467225,69.8376569 Z M231.006974,189.018689 L231.006974,176.950628 L253.35788,176.950628 L253.35788,164.882566 L231.006974,164.882566 L231.006974,153.028731 L255.642957,153.028731 L255.642957,140.889261 L217.439331,140.889261 L217.439331,201.08675 L256,201.08675 L256,188.94728 L231.006974,188.94728 L231.006974,189.018689 Z M209.370153,171.02371 C209.370153,188.304603 196.159554,201.08675 177.521897,201.08675 L157.670293,201.08675 L157.670293,140.817852 L177.521897,140.817852 C196.159554,140.817852 209.370153,153.742817 209.370153,171.02371 Z M195.516876,171.02371 C195.516876,160.740865 188.661646,152.957322 178.593026,152.957322 L171.166527,152.957322 L171.166527,189.018689 L178.593026,189.018689 C188.661646,189.018689 195.516876,181.306555 195.516876,171.02371 Z M104.899303,177.950349 C104.899303,184.876987 99.972106,190.01841 93.1882845,190.01841 C86.404463,190.01841 81.4772664,184.876987 81.4772664,177.950349 L81.4772664,140.960669 L68.0524407,140.960669 L68.0524407,177.736123 C68.0524407,191.946444 78.6923291,202.372106 93.1882845,202.372106 C107.68424,202.372106 118.324128,191.875035 118.324128,177.736123 L118.324128,140.960669 L104.899303,140.960669 L104.899303,177.950349 L104.899303,177.950349 Z M26.7782427,179.164296 L40.1316597,179.164296 C38.9177127,185.376848 33.4192469,190.161227 26.8496513,190.161227 C19.4945607,190.161227 13.567643,184.23431 13.567643,175.593863 L13.567643,166.667782 C13.567643,158.170153 19.9230126,151.886192 28.8490934,151.886192 C35.7757322,151.886192 41.9882845,155.670851 43.9877266,161.169317 L56.4842399,156.813389 C53.0566248,146.244909 41.7740586,139.675314 28.8490934,139.675314 C12.4965132,139.675314 0.357043236,150.672245 0.357043236,166.667782 L0.357043236,175.593863 C0.428451883,190.946722 11.7824268,202.372106 25.7785216,202.372106 C34.4903766,202.372106 42.2025105,197.94477 46.7012552,191.08954 L46.7012552,201.158159 L58.5550907,201.158159 L58.5550907,167.667503 L26.7782427,167.667503 L26.7782427,179.164296 Z M178.664435,107.827057 L178.664435,71.0516039 L165.239609,71.0516039 L165.239609,108.041283 C165.239609,114.967922 160.312413,120.109344 153.528591,120.109344 C146.74477,120.109344 141.817573,114.967922 141.817573,108.041283 L141.817573,71.0516039 L128.392748,71.0516039 L128.392748,107.827057 C128.392748,122.037378 139.032636,132.46304 153.528591,132.46304 C168.024547,132.46304 178.664435,122.037378 178.664435,107.827057 Z M22.7079498,131.249093 L36.2041841,131.249093 L36.2041841,108.398326 L58.8407252,71.0516039 L43.5592748,71.0516039 L29.2775453,95.6875872 L15.2100418,71.0516039 L0,71.0516039 L22.6365411,108.541144 L22.6365411,131.249093 L22.7079498,131.249093 Z M158.312971,1.14253835 L112.611437,1.14253835 L112.611437,13.2820084 L158.312971,13.2820084 L158.312971,1.14253835 Z M106.827336,49.2005579 L81.762901,49.2005579 L81.762901,37.1324965 L104.113808,37.1324965 L104.113808,25.0644351 L81.762901,25.0644351 L81.762901,13.2105997 L106.398884,13.2105997 L106.398884,1.07112971 L68.195258,1.07112971 L68.195258,61.2686192 L106.755927,61.2686192 L106.755927,49.2005579 L106.827336,49.2005579 Z M25.7785216,62.6253835 C34.4903766,62.6253835 42.2025105,58.1980474 46.7012552,51.3428173 L46.7012552,61.4114365 L58.5550907,61.4114365 L58.5550907,27.920781 L26.7782427,27.920781 L26.7782427,39.4889819 L40.1316597,39.4889819 C38.9177127,45.7015342 33.4192469,50.4859135 26.8496513,50.4859135 C19.4945607,50.4859135 13.567643,44.5589958 13.567643,35.9185495 L13.567643,26.9924686 C13.567643,18.4948396 19.9230126,12.2108787 28.8490934,12.2108787 C35.7757322,12.2108787 41.9882845,15.995537 43.9877266,21.4940028 L56.4842399,17.1380753 C53.0566248,6.56959554 41.7740586,0 28.8490934,0 C12.4965132,0 0.357043236,10.9969317 0.357043236,26.9924686 L0.357043236,35.9185495 C0.428451883,51.2 11.7824268,62.6253835 25.7785216,62.6253835 Z M209.441562,116.039052 L202.443515,108.683961 L209.370153,101.186053 L202.372106,93.8309623 L209.298745,86.3330544 L202.300697,78.9779637 L210.012831,71.0516039 L196.016736,71.0516039 L188.44742,79.0493724 L195.445467,86.404463 L188.518828,93.902371 L195.516876,101.257462 L188.590237,108.75537 L195.588285,116.11046 L188.661646,123.608368 L196.088145,131.320502 L210.155649,131.320502 L202.586332,123.53696 L209.441562,116.039052 Z M143.817015,169.238494 C145.816457,167.453278 149.172664,164.454114 149.172664,158.88424 C149.172664,153.385774 145.816457,150.315202 143.817015,148.529986 C143.745607,148.458577 143.674198,148.387169 143.602789,148.31576 C142.603068,147.24463 142.460251,145.745049 142.388842,145.030962 L142.388842,140.817852 L128.821199,140.817852 L128.821199,146.459135 L128.821199,146.459135 C128.821199,146.530544 128.821199,146.601953 128.821199,146.673361 C128.821199,152.171827 132.177406,155.242399 134.176848,157.027615 C135.605021,158.312971 135.605021,158.384379 135.605021,158.88424 C135.605021,159.3841 135.605021,159.455509 134.176848,160.740865 C132.248815,162.454672 129.106834,165.311018 128.892608,170.452441 L128.892608,170.452441 C128.892608,170.523849 128.892608,170.666667 128.892608,170.738075 C128.892608,170.809484 128.892608,170.809484 128.892608,170.880893 C128.892608,170.952301 128.892608,170.952301 128.892608,171.02371 C128.892608,171.095119 128.892608,171.237936 128.892608,171.309344 L128.892608,171.309344 C129.106834,176.450767 132.320223,179.307113 134.176848,181.020921 C135.605021,182.306276 135.605021,182.377685 135.605021,182.877545 C135.605021,183.377406 135.605021,183.448815 134.176848,184.73417 C132.177406,186.519386 128.821199,189.51855 128.821199,195.088424 C128.821199,195.159833 128.821199,195.231241 128.821199,195.30265 L128.821199,195.30265 L128.821199,200.943933 L142.388842,200.943933 L142.388842,196.730823 C142.388842,196.016736 142.603068,194.517155 143.602789,193.446025 C143.674198,193.374616 143.745607,193.303208 143.817015,193.231799 C145.816457,191.446583 149.172664,188.44742 149.172664,182.877545 C149.172664,177.379079 145.816457,174.308508 143.817015,172.523291 C142.53166,171.380753 142.388842,171.166527 142.388842,170.809484 C142.460251,170.595258 142.603068,170.381032 143.817015,169.238494 Z M128.678382,61.3400279 L142.174616,61.3400279 L142.174616,50.1288703 L128.678382,50.1288703 L128.678382,61.3400279 Z M142.246025,34.1333333 L128.749791,34.1333333 L128.749791,45.3444909 L142.246025,45.3444909 L142.246025,34.1333333 Z M142.246025,18.0663877 L128.749791,18.0663877 L128.749791,29.2775453 L142.246025,29.2775453 L142.246025,18.0663877 Z M244.574616,131.249093 L228.150628,108.255509 C236.148396,105.756206 241.718271,98.758159 241.718271,90.1891213 C241.718271,79.335007 232.720781,71.0516039 221.366806,71.0516039 L213.440446,71.0516039 L213.440446,83.2624826 L220.866946,83.2624826 C224.794421,83.2624826 227.864993,86.404463 227.864993,90.5461646 C227.864993,94.6878661 224.794421,97.8298466 220.866946,97.8298466 L213.440446,97.8298466 L213.440446,109.398047 L228.150628,131.320502 L244.574616,131.320502 L244.574616,131.249093 Z" fill="#FF5533"></path>
    </symbol>
    <symbol id="tripadvisor" xmlns="http://www.w3.org/2000/svg" viewBox="0 -96 512.2 512.2">
        <path d="M128.2 127.9C92.7 127.9 64 156.6 64 192c0 35.4 28.7 64.1 64.1 64.1 35.4 0 64.1-28.7 64.1-64.1.1-35.4-28.6-64.1-64-64.1zm0 110c-25.3 0-45.9-20.5-45.9-45.9s20.5-45.9 45.9-45.9S174 166.7 174 192s-20.5 45.9-45.8 45.9z"></path>
        <circle cx="128.4" cy="191.9" r="31.9"></circle>
        <path d="M384.2 127.9c-35.4 0-64.1 28.7-64.1 64.1 0 35.4 28.7 64.1 64.1 64.1 35.4 0 64.1-28.7 64.1-64.1 0-35.4-28.7-64.1-64.1-64.1zm0 110c-25.3 0-45.9-20.5-45.9-45.9s20.5-45.9 45.9-45.9S430 166.7 430 192s-20.5 45.9-45.8 45.9z"></path>
        <circle cx="384.4" cy="191.9" r="31.9"></circle>
        <path d="M474.4 101.2l37.7-37.4h-76.4C392.9 29 321.8 0 255.9 0c-66 0-136.5 29-179.3 63.8H0l37.7 37.4C14.4 124.4 0 156.5 0 192c0 70.8 57.4 128.2 128.2 128.2 32.5 0 62.2-12.1 84.8-32.1l43.4 31.9 42.9-31.2-.5-1.2c22.7 20.2 52.5 32.5 85.3 32.5 70.8 0 128.2-57.4 128.2-128.2-.1-35.4-14.6-67.5-37.9-90.7zM368 64.8c-60.7 7.6-108.3 57.6-111.9 119.5-3.7-62-51.4-112.1-112.3-119.5 30.6-22 69.6-32.8 112.1-32.8S337.4 42.8 368 64.8zM128.2 288.2C75 288.2 32 245.1 32 192s43.1-96.2 96.2-96.2 96.2 43.1 96.2 96.2c-.1 53.1-43.1 96.2-96.2 96.2zm256 0c-53.1 0-96.2-43.1-96.2-96.2s43.1-96.2 96.2-96.2 96.2 43.1 96.2 96.2c-.1 53.1-43.1 96.2-96.2 96.2z"></path>
    </symbol>
    <symbol version="1.1" xmlns="http://www.w3.org/2000/svg" viewBox="0 0 597 448" id="google-reviews">
        <g id="icomoon-ignore"></g>
        <path fill="#3c3c3f" d="M270.898 141.797h4.388c10.629 0.487 20.965 4.973 28.474 12.384-2.926 2.828-5.753 5.753-8.679 8.582-4.875-4.583-11.116-7.704-17.747-8.484-7.606-0.975-15.505 0.683-21.941 4.778-5.851 3.705-10.336 9.459-12.774 15.894-3.12 8.484-2.633 18.332 1.561 26.426 3.316 6.534 8.971 11.897 15.699 14.822s14.334 3.413 21.453 1.755c5.949-1.365 11.311-4.681 15.31-9.167 3.413-3.997 4.973-9.166 5.656-14.236-9.849 0-19.6 0-29.449 0 0-4.095 0-8.191 0-12.189 13.847 0 27.597 0 41.443 0 1.365 8.679 0.487 17.943-3.12 26.036-3.024 6.923-8.484 12.481-14.822 16.48-7.899 4.973-17.454 6.631-26.719 6.046-11.214-0.683-22.038-5.851-29.839-13.847-7.508-7.606-12.091-17.943-12.677-28.571v-4.291c0.585-10.141 4.681-19.99 11.604-27.499 8.289-8.776 19.99-14.334 32.179-14.92z"></path>
        <path fill="#3c3c3f" d="M464.071 175.244c5.753-3.316 12.872-4.583 19.405-2.828 3.803 0.975 7.021 3.12 9.751 5.851 0.098-1.755 0-3.413 0-5.168 4.095 0 8.191 0 12.287 0 0 17.357 0 34.617 0 51.974 0 7.313-1.755 15.017-6.631 20.771-4.486 5.266-11.409 8.093-18.235 8.582-6.534 0.585-13.359-0.78-18.722-4.486-4.583-3.024-8.191-7.411-10.336-12.287 3.705-1.561 7.508-3.024 11.214-4.583 1.755 3.803 4.681 7.215 8.582 8.873 3.803 1.755 8.289 1.658 12.189 0.39 3.705-1.17 6.729-3.997 8.191-7.411 1.755-3.997 1.658-8.484 1.561-12.677-2.535 2.438-5.363 4.583-8.873 5.656-6.143 1.95-13.066 1.17-18.82-1.755-5.851-2.926-10.531-7.996-13.164-13.847-3.218-7.215-3.413-15.699-0.39-23.111 2.243-5.753 6.534-10.824 11.994-13.944zM474.993 183.337c-3.218 0.683-6.143 2.535-8.191 5.071-4.583 5.558-5.168 13.652-2.34 20.087 1.463 3.316 3.997 6.143 7.313 7.704 4.486 2.243 10.045 1.95 14.334-0.585 3.705-2.243 6.338-6.046 7.313-10.141 1.658-6.729-0.098-14.724-5.753-19.21-3.413-2.926-8.289-3.997-12.677-2.926z"></path>
        <path fill="#3c3c3f" d="M514.095 143.942c4.291 0 8.582 0 12.872 0 0 29.059 0 58.118 0 87.177-4.291 0-8.582 0-12.872 0 0-29.059 0-58.118 0-87.177z"></path>
        <path fill="#3c3c3f" d="M345.398 172.026c6.631-1.072 13.555 0 19.405 3.316 4.876 2.73 8.873 6.923 11.409 11.897 3.218 6.436 3.901 14.042 2.048 20.965-1.658 6.338-5.656 11.994-11.018 15.699-5.851 4.095-13.262 5.851-20.283 4.973-7.606-0.78-14.92-4.778-19.6-10.922-7.411-9.556-7.801-23.696-1.17-33.642 4.291-6.631 11.409-11.116 19.21-12.287zM346.666 183.337c-3.413 0.78-6.631 2.828-8.776 5.558-4.095 5.168-4.875 12.579-2.438 18.625 1.755 4.291 5.266 7.801 9.654 9.264 4.388 1.561 9.556 0.975 13.457-1.463 3.997-2.438 6.729-6.631 7.606-11.214 1.365-6.436-0.78-13.847-6.241-17.845-3.608-2.926-8.679-3.997-13.262-2.926z"></path>
        <path fill="#3c3c3f" d="M549.492 176.414c6.143-4.193 14.042-5.753 21.257-4.095 6.241 1.365 11.701 5.46 15.31 10.629 2.243 3.12 3.608 6.729 5.071 10.239-12.969 5.266-25.841 10.531-38.81 15.894 1.755 3.316 4.486 6.338 8.093 7.704 4.973 1.755 10.922 1.268 15.212-1.755 2.048-1.365 3.608-3.218 4.973-5.168 3.316 2.145 6.631 4.388 9.947 6.534-3.803 5.46-9.361 9.751-15.894 11.507-7.411 2.145-15.699 1.365-22.428-2.34-5.168-2.73-9.361-7.215-11.799-12.384-3.218-6.534-3.608-14.236-1.755-21.257 1.755-6.241 5.558-11.897 10.824-15.505zM554.661 187.141c-3.12 3.316-4.388 7.899-4.388 12.287 8.776-3.51 17.454-7.119 26.231-10.726-0.975-2.34-2.926-4.095-5.266-5.168-5.46-2.438-12.481-0.78-16.577 3.608z"></path>
        <path fill="#3c3c3f" d="M409.756 172.026c6.534-1.072 13.555 0.098 19.308 3.413 4.778 2.633 8.776 6.729 11.214 11.604 3.608 7.021 4.095 15.602 1.561 23.013-2.146 6.338-6.729 11.897-12.579 15.212-11.018 6.436-26.231 4.778-35.299-4.291-9.166-8.776-11.018-23.793-4.778-34.714 4.193-7.704 12.091-12.969 20.576-14.236zM411.804 183.142c-3.316 0.585-6.436 2.243-8.776 4.778-4.681 4.875-5.851 12.481-3.608 18.722 1.463 4.291 4.681 7.899 8.873 9.751 4.291 1.853 9.459 1.755 13.555-0.487 4.095-2.145 7.119-6.046 8.289-10.531 1.755-6.338 0.098-13.847-4.875-18.332-3.608-3.218-8.679-4.778-13.457-3.901z"></path>
        <path fill="#3c3c3f" d="M199.030 223.61c0 54.997-44.661 99.561-99.658 99.561v-24.183c0.194 0 0.487 0 0.683 0 41.735 0 75.475-33.74 75.475-75.377h23.501z"></path>
        <path fill="#3c3c3f" d="M-0.285 223.61h24.964c0 41.541 33.642 75.28 75.28 75.377v24.183c-0.194 0-0.292 0-0.487 0-55.192 0-99.756-44.564-99.756-99.561z"></path>
        <path fill="#3c3c3f" d="M99.372 124.050c55.095 0 99.658 44.564 99.658 99.561 0 0.194 0 0.292 0 0.487h-23.501c0-0.194 0-0.292 0-0.487 0-41.638-33.837-75.377-75.475-75.377-0.194 0-0.487 0-0.683 0v-24.183z"></path>
        <path fill="#3c3c3f" d="M-0.285 224.098c0-0.194 0-0.292 0-0.487 0-54.997 44.661-99.561 99.658-99.561 0.194 0 0.292 0 0.487 0v24.183c-41.541 0.098-75.28 33.837-75.28 75.377 0 0.194 0 0.292 0 0.487h-24.866z"></path>
        <path fill="#010202" opacity="0.12" d="M179.137 164.029c11.799 16.285 19.893 35.592 19.893 58.703 0 37.347-19.893 69.625-49.829 87.079l-48.367-51.779 78.302-94.003z"></path>
        <path fill="#3c3c3f" d="M50.519 207.813l13.555-15.212 34.52 20.673 92.248-89.224 12.189 11.116-102.193 122.867z"></path>
        <path fill="#3c3c3f" opacity="0.54" d="M511.56 265.541c2.048-1.072 4.681 0.78 4.486 3.12-0.098 2.34-3.024 3.803-4.973 2.438-1.95-1.268-1.658-4.681 0.487-5.558zM232.575 269.538c6.241-5.46 16.48-5.363 22.526 0.39-0.683 0.975-1.268 2.048-2.243 2.828-0.78 0.194-1.365-0.39-2.048-0.683-3.705-2.633-8.971-2.926-12.969-0.78-3.12 1.658-5.071 5.071-5.656 8.484-0.683 3.997-0.292 8.386 2.048 11.897 1.755 2.73 4.875 4.583 8.093 4.778 3.12 0.194 6.436-0.194 8.873-2.34 0.585-0.39 1.17-1.17 1.95-1.072 0.975 0.683 1.658 1.658 2.438 2.438-2.73 3.12-6.729 4.973-10.824 5.168-4.291 0.39-8.873-0.78-12.189-3.705-3.024-2.535-4.681-6.338-5.363-10.141v-7.215c0.683-3.803 2.438-7.508 5.363-10.045zM436.377 265.931c3.803 0 7.704-0.098 11.507 0 3.413 0.194 7.215 1.17 9.361 4.095 2.535 3.803 1.95 9.459-1.365 12.579-1.463 1.365-3.316 2.243-5.266 2.73 1.268 0.975 2.048 2.243 2.926 3.51 2.828 3.901 5.558 7.704 8.386 11.604-1.658 0-3.218 0.098-4.875-0.098-0.78 0-1.268-0.585-1.658-1.17-2.73-3.901-5.558-7.801-8.289-11.701-1.268-1.95-3.901-0.975-5.753-1.17 0 4.778 0 9.459 0 14.236-1.658 0-3.316 0-4.875 0-0.098-11.604-0.098-23.11-0.098-34.617zM441.252 269.831c0 4.193 0 8.484 0 12.677 3.316-0.098 6.923 0.487 9.849-1.268 3.51-2.048 3.997-8.093 0.39-10.336-3.12-1.658-6.827-0.878-10.239-1.072zM306.977 268.368c0.975-0.292 1.95-0.098 2.926-0.194 0 2.73 0 5.46 0 8.191 2.243 0 4.583 0 6.827 0 0 1.072 0 2.243 0 3.316-2.243 0-4.583 0-6.827 0 0 4.973 0 9.849 0 14.822 0 1.268 0.975 2.438 2.34 2.438 1.268 0.194 2.146-0.683 3.218-1.072 0.975 0.585 1.268 1.853 1.95 2.73-2.438 2.048-6.046 2.828-8.971 1.561-2.146-0.878-3.12-3.413-3.024-5.558 0-4.973 0-9.947 0-14.92-1.072 0-2.243 0.098-3.316-0.098-0.78-0.683-0.292-1.853-0.487-2.73 1.268-0.194 2.633-0.39 3.901-0.487 0.292-2.243 0.585-4.486 0.878-6.631 0.194-0.487 0.194-1.072 0.585-1.365zM286.013 277.242c4.095-2.633 9.947-2.146 13.457 1.17-0.39 0.683-0.78 1.365-1.268 2.048-0.683 0.683-1.561-0.098-2.146-0.39-1.95-1.072-4.388-1.463-6.436-0.683-1.268 0.487-2.34 1.755-2.145 3.218 0.098 1.17 1.072 1.853 1.95 2.34 2.926 1.365 6.436 1.658 8.873 3.901 1.853 1.755 1.95 4.583 1.072 6.827-0.78 2.146-2.535 3.705-4.681 4.388-4.095 1.463-8.971 0.585-12.287-2.243 0.683-0.878 0.975-2.535 2.438-2.438 1.268 0.487 2.243 1.463 3.608 1.755 1.95 0.585 4.291 0.585 5.949-0.78 1.463-1.17 1.755-3.803 0.098-4.875-3.024-2.048-7.119-1.853-9.751-4.583s-1.755-7.606 1.268-9.654zM327.26 275.974c3.608-0.78 7.606-0.292 10.531 2.048 2.73 2.146 3.997 5.753 4.193 9.166 0.194 3.705-0.683 7.704-3.316 10.434-4.875 4.778-14.334 4.095-17.943-1.95-2.146-3.705-2.34-8.386-1.17-12.384 0.878-3.705 3.997-6.631 7.704-7.313zM328.333 279.387c-2.73 0.585-4.388 3.316-4.681 5.949-0.39 3.12-0.39 6.534 1.365 9.264 1.755 2.633 5.46 3.024 8.191 2.048 2.633-1.072 3.705-3.997 3.997-6.631 0.194-2.926 0.098-6.241-1.853-8.679-1.658-2.145-4.583-2.438-7.021-1.95zM350.663 279.29c1.853-2.145 4.486-3.997 7.411-3.608 2.73 0 4.778 2.34 5.46 4.875 1.853-4.973 8.776-6.338 12.872-3.316 2.243 1.755 3.024 4.778 2.926 7.508 0 5.266 0 10.434 0 15.699-1.561 0-3.024 0-4.583 0 0-5.266 0-10.434 0-15.699 0-1.658-0.39-3.608-1.853-4.681-2.146-1.365-5.363-0.878-6.827 1.268-0.78 1.072-0.975 2.535-0.975 3.803 0 5.071 0 10.141 0 15.31-1.561 0-3.024 0-4.583 0 0-5.363 0-10.726 0-16.089 0-1.95-0.78-4.388-2.926-4.875-2.633-0.78-5.168 0.78-6.729 2.828 0 6.046 0 12.091 0 18.137-1.561 0-3.024 0-4.583 0 0-8.093 0-16.285 0-24.378 1.17 0 2.243-0.194 3.413 0.098 0.975 0.683 0.683 2.048 0.975 3.12zM386.743 278.607c3.218-3.12 8.386-3.901 12.481-2.048s6.046 6.729 5.46 11.018c0 0.683-0.683 0.78-1.268 0.78-5.266 0-10.531 0-15.699 0 0.098 2.438 0.683 5.071 2.438 6.923 2.048 2.048 5.363 2.243 7.996 1.463 1.463-0.39 2.633-1.365 3.997-1.853 1.072 0.098 1.561 1.463 2.243 2.145-2.633 2.926-6.631 3.901-10.434 3.705-3.024-0.194-6.046-1.463-7.899-3.803-2.145-2.633-2.926-6.241-2.828-9.654 0.098-3.218 1.268-6.436 3.51-8.679zM391.229 279.777c-2.048 1.17-2.926 3.51-3.316 5.753 4.291 0 8.582 0 12.872 0-0.098-1.658-0.487-3.413-1.658-4.681-1.95-2.243-5.46-2.34-7.899-1.072zM416.777 276.267c1.755-0.975 3.901-0.878 5.753-0.194-0.098 1.365-0.098 2.73-0.39 3.997-1.072 0.585-2.34-0.194-3.51 0-2.73 0.098-4.583 2.633-5.266 5.071-0.098 5.071 0 10.141 0 15.31-1.561 0-3.024 0-4.583 0 0-8.093 0-16.285 0-24.378 1.17 0.098 2.438-0.194 3.51 0.194 0.878 1.268 0.487 3.024 0.683 4.583 0.975-1.853 2.048-3.608 3.803-4.583zM467.581 276.755c4.095-1.95 9.751-1.463 12.774 2.146 2.048 2.438 2.926 5.949 2.34 9.069-0.098 0.098-0.39 0.194-0.487 0.292-5.46 0.194-10.922 0-16.382 0.098 0.098 2.438 0.683 5.071 2.438 6.923 1.853 1.853 4.778 2.243 7.215 1.658 1.658-0.292 3.024-1.268 4.486-1.95 1.268-0.487 1.853 1.268 2.633 2.048-2.633 2.828-6.631 3.901-10.434 3.705-3.12-0.098-6.241-1.561-8.093-4.095-2.34-3.12-3.024-7.313-2.535-11.116 0.487-3.705 2.633-7.215 6.046-8.776zM469.336 279.777c-2.048 1.17-2.926 3.51-3.316 5.753 4.291 0 8.582 0 12.872 0-0.098-1.755-0.487-3.608-1.853-4.876-1.95-2.048-5.266-2.145-7.704-0.878zM522.578 278.997c3.316-3.608 9.167-4.486 13.457-2.146 3.705 2.048 5.363 6.631 4.875 10.726 0 0.683-0.683 0.78-1.17 0.683-5.266 0-10.531 0-15.797 0 0.098 2.438 0.683 5.071 2.438 6.923 2.048 2.048 5.363 2.243 7.996 1.463 1.463-0.39 2.633-1.463 4.095-1.853 1.072 0.098 1.561 1.463 2.243 2.146-2.633 2.828-6.631 3.901-10.434 3.705-3.024-0.098-6.046-1.463-7.899-3.803-2.145-2.535-2.828-5.949-2.828-9.264-0.098-3.024 0.878-6.241 3.024-8.582zM527.357 279.777c-2.048 1.17-2.926 3.51-3.316 5.656 4.291 0 8.582 0 12.872 0-0.098-1.658-0.487-3.413-1.658-4.681-1.95-2.145-5.363-2.243-7.899-0.975zM583.33 277.144c4.095-2.438 9.751-1.95 13.262 1.365-0.683 0.78-0.878 2.34-2.146 2.243-1.755-0.683-3.413-1.853-5.363-1.658-1.853-0.098-3.997 0.78-4.486 2.73-0.39 1.268 0.487 2.438 1.561 3.024 2.926 1.561 6.534 1.755 9.069 3.997 2.145 1.95 2.048 5.363 0.78 7.801-1.463 2.828-4.778 4.095-7.801 4.095-3.12 0.194-6.338-0.878-8.679-2.926 0.683-0.975 1.072-2.73 2.633-2.438 1.268 0.585 2.34 1.561 3.705 1.853 1.853 0.39 3.901 0.39 5.46-0.78 1.658-1.17 1.95-3.997 0.098-5.071-2.926-1.95-6.923-1.853-9.556-4.388-2.73-2.73-1.853-7.899 1.463-9.849zM258.221 275.877c1.561 0 3.024 0 4.583 0 0 5.266 0 10.531 0 15.797 0 2.048 0.878 4.486 3.024 5.071 3.024 0.975 6.143-0.683 8.191-2.926 0-5.949 0-11.994 0-17.943 1.561 0 3.024 0 4.583 0 0 8.093 0 16.285 0 24.378-1.072 0-2.243 0.194-3.413-0.098-0.878-0.78-0.585-2.146-0.975-3.218-1.561 1.561-3.413 3.024-5.656 3.51-2.535 0.487-5.46 0.194-7.508-1.561s-2.73-4.583-2.73-7.119c-0.098-5.363 0-10.629-0.098-15.894zM483.866 275.877c1.365 0 2.828-0.098 4.193 0.098 0.683 0.098 0.878 0.878 1.072 1.365 1.755 4.681 3.608 9.361 5.46 14.042 0.487 1.365 0.878 2.828 1.17 4.193 0.585-2.926 1.853-5.656 2.926-8.484 1.268-3.218 2.535-6.436 3.803-9.654 0.292-0.585 0.487-1.365 1.17-1.463 1.268-0.098 2.633 0 3.901 0-3.316 8.093-6.534 16.285-9.849 24.378-1.365 0-2.73 0-4.095 0-3.218-8.191-6.436-16.285-9.751-24.475zM510.584 275.974c1.561 0 3.024 0 4.583 0 0 8.093 0 16.285 0 24.378-1.561 0-3.024 0-4.583 0 0-8.093 0-16.188 0-24.378zM542.374 275.974c1.561 0.194 3.316-0.487 4.681 0.39 0.878 2.048 1.365 4.388 2.048 6.534 1.17 4.193 2.633 8.289 3.413 12.579 1.561-6.046 3.705-11.897 5.558-17.747 0.292-0.683 0.39-1.658 1.268-1.755 0.975-0.098 1.95-0.098 2.828 0.098 0.78 0.39 0.878 1.463 1.17 2.145 1.755 5.753 3.803 11.409 5.266 17.357 1.17-5.851 3.218-11.409 4.778-17.162 0.292-0.78 0.39-2.145 1.463-2.34 1.268-0.098 2.438 0 3.705 0-2.633 8.093-5.168 16.285-7.801 24.378-1.365 0-2.73 0.098-3.997-0.098-0.487-0.487-0.585-1.268-0.878-1.95-1.755-5.656-3.803-11.311-5.363-17.066-1.561 5.851-3.705 11.507-5.46 17.26-0.292 0.585-0.292 1.561-0.975 1.755-1.268 0.098-2.535 0-3.705 0.098-2.73-8.191-5.363-16.285-7.996-24.475z"></path>
    </symbol>
    <symbol version="1.1" xmlns="http://www.w3.org/2000/svg" viewBox="0 0 597 448" id="viator">
        <g id="icomoon-ignore"></g>
        <path fill="#196c6e" d="M587.483 278.278c4.675-0.259 8.7 3.376 8.96 8.181 0.259 4.675-3.376 8.7-8.181 8.96-4.675 0.259-8.7-3.376-8.96-8.181 0-0.13 0-0.259 0-0.39 0-4.675 3.636-8.44 8.181-8.571zM587.483 276.98c-5.454 0-9.739 4.415-9.739 9.739 0 5.454 4.415 9.739 9.739 9.739s9.739-4.415 9.739-9.739c0.13-5.324-4.285-9.739-9.739-9.739zM588.911 286.979c1.169-0.259 2.078-1.299 2.078-2.597 0-1.818-1.558-2.597-3.766-2.597h-2.856v9.739h1.688v-4.415h1.299l2.078 3.246c0.649 1.039 0.779 1.039 1.688 1.039h0.779v0.13l-2.987-4.545zM587.223 286.849h-1.169v-4.415h1.039c1.688 0 2.338 0.649 2.338 2.207s-0.519 2.207-2.207 2.207v0z"></path>
        <path fill="#196c6e" d="M129.619 179.071h36.099v117.387h-36.099v-117.387z"></path>
        <path fill="#196c6e" d="M363.486 284.771c-10.648 0-15.712-6.363-15.712-17.271v-78.691h28.827v-9.739h-28.698v-29.347h-34.671l-1.688 29.347h-15.453v9.739h15.453v77.392c0 19.998 11.427 32.983 34.801 32.983 17.53 0 27.918-7.142 32.204-16.751l-1.688-1.818c-3.896 2.727-8.571 4.285-13.375 4.155z"></path>
        <path fill="#196c6e" d="M439.061 176.474c-38.567 0-62.979 26.88-62.979 61.94 0 34.801 22.855 60.771 62.2 60.771 40.125 0 62.979-26.88 62.979-61.94-0.13-34.801-24.023-60.771-62.2-60.771zM438.801 290.745c-19.348 0-22.075-15.712-22.075-53.24 0-36.879 2.597-52.85 21.815-52.85 19.348 0 22.075 15.972 22.075 53.37-0.13 36.748-2.468 52.721-21.815 52.721z"></path>
        <path fill="#196c6e" d="M551.773 199.328l-0.779-20.257h-35.060v117.387h36.229v-94.014c2.207-0.649 4.415-1.039 6.752-1.039 6.493 0 13.894 2.597 36.489 13.245l2.078-0.779v-32.983c-4.155-2.987-9.219-4.545-14.284-4.545-10.259 0.13-22.075 6.493-31.424 22.984z"></path>
        <path fill="#196c6e" d="M249.215 282.434l4.155 14.024h30.905v-90.378c0-19.998-15.712-29.736-41.423-29.736-17.271 0-38.566 4.805-53.11 9.609l-1.688 20.517 2.078 1.039c27.659-18.569 35.84-22.855 44.41-22.855 9.739 0 13.765 5.065 13.765 15.712v24.412c-40.904 8.44-65.836 14.674-65.836 42.462 0 19.089 12.726 31.944 33.243 31.944 15.712 0 27.399-7.402 33.502-16.751zM218.18 260.619c0-18.049 6.103-22.595 30.256-27.659v45.189c-4.415 3.506-9.869 5.324-15.453 5.065-10.258 0-14.803-5.843-14.803-22.595z"></path>
        <path fill="#196c6e" d="M114.557 198.679c0 12.192-9.884 22.075-22.075 22.075s-22.075-9.884-22.075-22.075c0-12.192 9.884-22.075 22.075-22.075s22.075 9.884 22.075 22.075z"></path>
        <path fill="#196c6e" d="M68.199 296.588l11.557-25.841-40.774-91.676h-38.696l52.331 117.518z"></path>
    </symbol>
</svg>