<svg width="0" height="0" class="hidden">
    <symbol version="1.1" xmlns="http://www.w3.org/2000/svg" viewBox="0 0 560 448" id="volume-high">
        <path fill="currentColor" d="M466.9 28.438c56.787 46.112 93.1 116.638 93.1 195.563s-36.313 149.363-93.1 195.563c-9.012 7.35-22.225 5.95-29.575-3.063s-5.95-22.225 3.063-29.575c47.425-38.5 77.613-97.125 77.613-162.925s-30.188-124.425-77.613-163.013c-9.012-7.35-10.325-20.563-3.063-29.575s20.562-10.325 29.575-3.063zM413.963 93.625c37.8 30.8 62.037 77.787 62.037 130.375s-24.238 99.575-62.037 130.375c-9.013 7.35-22.225 5.95-29.575-3.063s-5.95-22.225 3.063-29.575c28.438-23.1 46.55-58.275 46.55-97.738s-18.113-74.638-46.55-97.825c-9.012-7.35-10.325-20.563-3.063-29.575s20.563-10.325 29.575-3.063zM361.025 158.813c18.813 15.4 30.975 38.85 30.975 65.188s-12.162 49.787-30.975 65.188c-9.013 7.35-22.225 5.95-29.575-3.063s-5.95-22.225 3.063-29.575c9.45-7.7 15.488-19.425 15.488-32.55s-6.037-24.85-15.488-32.638c-9.012-7.35-10.325-20.563-3.063-29.575s20.563-10.325 29.575-3.063zM263.463 30.45c10.063 4.55 16.537 14.525 16.537 25.55v336c0 11.025-6.475 21-16.537 25.55s-21.875 2.712-30.1-4.638l-118.038-104.912h-59.325c-30.887 0-56-25.113-56-56v-56c0-30.888 25.112-56 56-56h59.325l118.038-104.913c8.225-7.35 20.037-9.1 30.1-4.637z"></path>
    </symbol>
    <symbol version="1.1" xmlns="http://www.w3.org/2000/svg" viewBox="0 0 504 448" id="volume-xmark">
        <path fill="currentColor" d="M263.463 30.45c10.063 4.55 16.537 14.525 16.537 25.55v336c0 11.025-6.475 21-16.537 25.55s-21.875 2.712-30.1-4.638l-118.038-104.912h-59.325c-30.887 0-56-25.113-56-56v-56c0-30.888 25.112-56 56-56h59.325l118.038-104.913c8.225-7.35 20.037-9.1 30.1-4.637zM371.875 146.125l48.125 48.125 48.125-48.125c8.225-8.225 21.525-8.225 29.662 0s8.225 21.525 0 29.662l-48.125 48.125 48.125 48.125c8.225 8.225 8.225 21.525 0 29.662s-21.525 8.225-29.662 0l-48.125-48.125-48.125 48.125c-8.225 8.225-21.525 8.225-29.662 0s-8.225-21.525 0-29.662l48.125-48.125-48.125-48.125c-8.225-8.225-8.225-21.525 0-29.662s21.525-8.225 29.662 0z"></path>
    </symbol>
    <symbol version="1.1" xmlns="http://www.w3.org/2000/svg" viewBox="0 0 392 448" id="whatsapp">
        <path fill="currentColor" d="M333.287 84.962c-36.662-36.75-85.487-56.962-137.375-56.962-107.1 0-194.25 87.15-194.25 194.25 0 34.213 8.925 67.637 25.9 97.125l-27.563 100.625 102.987-27.037c28.35 15.487 60.288 23.625 92.838 23.625h0.087c107.013 0 196.088-87.15 196.088-194.25 0-51.888-22.050-100.625-58.713-137.375zM195.912 383.863c-29.050 0-57.488-7.788-82.25-22.488l-5.863-3.5-61.075 16.012 16.275-59.587-3.85-6.125c-16.188-25.725-24.675-55.388-24.675-85.925 0-88.988 72.45-161.438 161.525-161.438 43.138 0 83.65 16.8 114.1 47.337s49.175 71.050 49.088 114.187c0 89.075-74.287 161.525-163.275 161.525zM284.463 262.938c-4.813-2.45-28.7-14.175-33.162-15.75-4.463-1.662-7.7-2.45-10.938 2.45s-12.513 15.75-15.4 19.075c-2.8 3.237-5.688 3.675-10.5 1.225-28.525-14.263-47.25-25.463-66.063-57.75-4.988-8.575 4.987-7.963 14.262-26.513 1.575-3.237 0.788-6.037-0.438-8.487s-10.938-26.338-14.962-36.050c-3.938-9.45-7.963-8.138-10.938-8.313-2.8-0.175-6.038-0.175-9.275-0.175s-8.487 1.225-12.95 6.037c-4.462 4.9-16.975 16.625-16.975 40.512s17.412 46.987 19.775 50.225c2.45 3.237 34.212 52.237 82.95 73.325 30.8 13.3 42.875 14.438 58.275 12.162 9.363-1.4 28.7-11.725 32.725-23.1s4.025-21.088 2.8-23.1c-1.138-2.188-4.375-3.412-9.188-5.775z"></path>
    </symbol>
    <symbol version="1.1" xmlns="http://www.w3.org/2000/svg" viewBox="0 0 448 448" id="calendar">
        <path fill="none" stroke-linejoin="round" stroke-linecap="round" stroke-miterlimit="4" stroke-width="28" stroke="currentColor" d="M280 74.667v-37.333M280 74.667v37.333M280 74.667h-84M56 186.667v168c0 20.619 16.715 37.333 37.333 37.333h261.333c20.619 0 37.333-16.714 37.333-37.333v-168h-336z"></path>
        <path fill="none" stroke-linejoin="round" stroke-linecap="round" stroke-miterlimit="4" stroke-width="28" stroke="currentColor" d="M56 186.667v-74.667c0-20.618 16.715-37.333 37.333-37.333h37.333"></path>
        <path fill="none" stroke-linejoin="round" stroke-linecap="round" stroke-miterlimit="4" stroke-width="28" stroke="currentColor" d="M130.667 37.333v74.667"></path>
        <path fill="none" stroke-linejoin="round" stroke-linecap="round" stroke-miterlimit="4" stroke-width="28" stroke="currentColor" d="M392 186.667v-74.667c0-20.618-16.714-37.333-37.333-37.333h-9.333"></path>
    </symbol>
    <symbol version="1.1" xmlns="http://www.w3.org/2000/svg" viewBox="0 0 448 448" id="community">
        <path fill="none" stroke-linejoin="round" stroke-linecap="round" stroke-miterlimit="4" stroke-width="28" stroke="currentColor" d="M130.667 336v-18.667c0-51.546 41.787-93.333 93.333-93.333v0c51.546 0 93.333 41.787 93.333 93.333v18.667"></path>
        <path fill="none" stroke-linejoin="round" stroke-linecap="round" stroke-miterlimit="4" stroke-width="28" stroke="currentColor" d="M18.667 336v-18.667c0-30.929 25.072-56 56-56v0"></path>
        <path fill="none" stroke-linejoin="round" stroke-linecap="round" stroke-miterlimit="4" stroke-width="28" stroke="currentColor" d="M429.333 336v-18.667c0-30.929-25.071-56-56-56v0"></path>
        <path fill="none" stroke-linejoin="round" stroke-linecap="round" stroke-miterlimit="4" stroke-width="28" stroke="currentColor" d="M224 224c30.929 0 56-25.071 56-56s-25.071-56-56-56-56 25.072-56 56c0 30.929 25.071 56 56 56z"></path>
        <path fill="none" stroke-linejoin="round" stroke-linecap="round" stroke-miterlimit="4" stroke-width="28" stroke="currentColor" d="M74.667 261.333c20.618 0 37.333-16.714 37.333-37.333s-16.715-37.333-37.333-37.333c-20.619 0-37.333 16.714-37.333 37.333s16.715 37.333 37.333 37.333z"></path>
        <path fill="none" stroke-linejoin="round" stroke-linecap="round" stroke-miterlimit="4" stroke-width="28" stroke="currentColor" d="M373.333 261.333c20.619 0 37.333-16.714 37.333-37.333s-16.714-37.333-37.333-37.333c-20.619 0-37.333 16.714-37.333 37.333s16.714 37.333 37.333 37.333z"></path>
    </symbol>
    <symbol version="1.1" xmlns="http://www.w3.org/2000/svg" viewBox="0 0 448 448" id="lot-of-cash">
        <path fill="none" stroke-linejoin="round" stroke-linecap="round" stroke-miterlimit="4" stroke-width="28" stroke="currentColor" d="M74.667 336v-149.333c0-20.618 16.715-37.333 37.333-37.333h261.333c20.619 0 37.333 16.715 37.333 37.333v149.333c0 20.619-16.714 37.333-37.333 37.333h-261.333c-20.618 0-37.333-16.714-37.333-37.333z"></path>
        <path fill="none" stroke-linejoin="round" stroke-linecap="round" stroke-miterlimit="4" stroke-width="28" stroke="currentColor" d="M345.333 261.52l0.187-0.207"></path>
        <path fill="none" stroke-linejoin="round" stroke-linecap="round" stroke-miterlimit="4" stroke-width="28" stroke="currentColor" d="M140 261.52l0.187-0.207"></path>
        <path fill="none" stroke-linejoin="round" stroke-linecap="round" stroke-miterlimit="4" stroke-width="28" stroke="currentColor" d="M74.667 298.667h-18.667c-20.618 0-37.333-16.714-37.333-37.333v-149.333c0-20.618 16.715-37.333 37.333-37.333h261.333c20.619 0 37.333 16.715 37.333 37.333v37.333"></path>
        <path fill="none" stroke-linejoin="round" stroke-linecap="round" stroke-miterlimit="4" stroke-width="28" stroke="currentColor" d="M242.667 298.667c-20.619 0-37.333-16.714-37.333-37.333s16.714-37.333 37.333-37.333c20.619 0 37.333 16.714 37.333 37.333s-16.714 37.333-37.333 37.333z"></path>
    </symbol>
    <symbol version="1.1" xmlns="http://www.w3.org/2000/svg" viewBox="0 0 448 448" id="pin">
        <path fill="none" stroke-linejoin="miter" stroke-linecap="butt" stroke-miterlimit="4" stroke-width="28" stroke="currentColor" d="M373.333 186.667c0 82.475-149.333 224-149.333 224s-149.333-141.525-149.333-224c0-82.474 66.859-149.333 149.333-149.333s149.333 66.859 149.333 149.333z"></path>
        <path stroke-linejoin="round" stroke-linecap="round" stroke-miterlimit="4" stroke-width="28" stroke="currentColor" fill="currentColor" d="M224 205.333c10.31 0 18.667-8.357 18.667-18.667s-8.357-18.667-18.667-18.667c-10.31 0-18.667 8.358-18.667 18.667s8.357 18.667 18.667 18.667z"></path>
    </symbol>
    <symbol version="1.1" xmlns="http://www.w3.org/2000/svg" viewBox="0 0 448 448" id="check">
        <path fill="none" stroke-linejoin="round" stroke-linecap="round" stroke-miterlimit="4" stroke-width="33.6" stroke="currentColor" d="M93.341 242.666l74.667 74.668 186.668-186.667"></path>
    </symbol>
</svg>