<svg width="9" height="10" viewBox="0 0 9 10" fill="none" xmlns="http://www.w3.org/2000/svg">
<g clip-path="url(#clip0_236_13824)">
<path d="M8.89392 4.25682L4.75124 8.39392C4.68052 8.46464 4.59677 8.5 4.5 8.5C4.40323 8.5 4.31948 8.46464 4.24876 8.39392L0.106079 4.25682C0.0353598 4.1861 0 4.10143 0 4.00279C0 3.90416 0.0353598 3.81948 0.106079 3.74876L1.03288 2.82754C1.1036 2.75682 1.18734 2.72146 1.28412 2.72146C1.38089 2.72146 1.46464 2.75682 1.53536 2.82754L4.5 5.79218L7.46464 2.82754C7.53536 2.75682 7.61911 2.72146 7.71588 2.72146C7.81265 2.72146 7.8964 2.75682 7.96712 2.82754L8.89392 3.74876C8.96464 3.81948 9 3.90416 9 4.00279C9 4.10143 8.96464 4.1861 8.89392 4.25682Z" fill="#79292C"/>
</g>
<defs>
<clipPath id="clip0_236_13824">
<rect width="9" height="9" fill="white" transform="matrix(1 0 0 -1 0 9.5)"/>
</clipPath>
</defs>
</svg>
