<svg width="12" height="10" viewBox="0 0 12 10" fill="none" xmlns="http://www.w3.org/2000/svg">
<path d="M12 8.5V9.5C12 9.63542 11.9505 9.7526 11.8516 9.85156C11.7526 9.95052 11.6354 10 11.5 10H0.5C0.364583 10 0.247396 9.95052 0.148438 9.85156C0.0494792 9.7526 0 9.63542 0 9.5V8.5C0 8.36458 0.0494792 8.2474 0.148438 8.14844C0.247396 8.04948 0.364583 8 0.5 8H11.5C11.6354 8 11.7526 8.04948 11.8516 8.14844C11.9505 8.2474 12 8.36458 12 8.5ZM12 4.5V5.5C12 5.63542 11.9505 5.7526 11.8516 5.85156C11.7526 5.95052 11.6354 6 11.5 6H0.5C0.364583 6 0.247396 5.95052 0.148438 5.85156C0.0494792 5.7526 0 5.63542 0 5.5V4.5C0 4.36458 0.0494792 4.2474 0.148438 4.14844C0.247396 4.04948 0.364583 4 0.5 4H11.5C11.6354 4 11.7526 4.04948 11.8516 4.14844C11.9505 4.2474 12 4.36458 12 4.5ZM12 0.5V1.5C12 1.63542 11.9505 1.7526 11.8516 1.85156C11.7526 1.95052 11.6354 2 11.5 2H0.5C0.364583 2 0.247396 1.95052 0.148438 1.85156C0.0494792 1.7526 0 1.63542 0 1.5V0.5C0 0.364583 0.0494792 0.247396 0.148438 0.148438C0.247396 0.0494795 0.364583 0 0.5 0H11.5C11.6354 0 11.7526 0.0494795 11.8516 0.148438C11.9505 0.247396 12 0.364583 12 0.5Z" fill="#79292C"/>
</svg>
