<svg width="18" height="12" viewBox="0 0 18 12" fill="none" xmlns="http://www.w3.org/2000/svg">
<path d="M16.058 10.25V4.25C15.871 4.4375 15.6694 4.60938 15.4532 4.76562C13.8872 5.83854 12.6425 6.71875 11.7192 7.40625C11.4212 7.63021 11.1787 7.80469 10.9917 7.92969C10.8047 8.05469 10.552 8.18099 10.2335 8.30859C9.91505 8.4362 9.61557 8.5 9.33508 8.5H9.32631H9.31755C9.03706 8.5 8.73758 8.4362 8.41911 8.30859C8.10064 8.18099 7.84791 8.05469 7.66092 7.92969C7.47393 7.80469 7.23142 7.63021 6.9334 7.40625C6.01013 6.71875 4.76547 5.83854 3.19941 4.76562C2.9832 4.60938 2.7816 4.4375 2.59461 4.25V10.25C2.59461 10.3177 2.62236 10.3763 2.67788 10.4258C2.73339 10.4753 2.79913 10.5 2.8751 10.5H15.7775C15.8535 10.5 15.9192 10.4753 15.9748 10.4258C16.0303 10.3763 16.058 10.3177 16.058 10.25ZM16.058 2.03906C16.058 2.02865 16.058 2 16.058 1.95312C16.058 1.90625 16.058 1.87109 16.058 1.84766C16.058 1.82422 16.0566 1.79036 16.0536 1.74609C16.0507 1.70182 16.042 1.66927 16.0273 1.64844C16.0127 1.6276 15.9967 1.60417 15.9791 1.57812C15.9616 1.55208 15.9353 1.53255 15.9002 1.51953C15.8652 1.50651 15.8243 1.5 15.7775 1.5H2.8751C2.79913 1.5 2.73339 1.52474 2.67788 1.57422C2.62236 1.6237 2.59461 1.68229 2.59461 1.75C2.59461 2.625 3.0241 3.36458 3.8831 3.96875C5.01089 4.76042 6.18251 5.58594 7.39796 6.44531C7.43302 6.47135 7.53528 6.54818 7.70474 6.67578C7.87421 6.80339 8.00861 6.90104 8.10795 6.96875C8.20729 7.03646 8.3373 7.11849 8.498 7.21484C8.6587 7.3112 8.80624 7.38281 8.94064 7.42969C9.07504 7.47656 9.20068 7.5 9.31755 7.5H9.32631H9.33508C9.45195 7.5 9.57759 7.47656 9.71199 7.42969C9.84639 7.38281 9.99393 7.3112 10.1546 7.21484C10.3153 7.11849 10.4453 7.03646 10.5447 6.96875C10.644 6.90104 10.7784 6.80339 10.9479 6.67578C11.1173 6.54818 11.2196 6.47135 11.2547 6.44531C12.4701 5.58594 13.6417 4.76042 14.7695 3.96875C15.0851 3.74479 15.3787 3.44401 15.6504 3.06641C15.9222 2.6888 16.058 2.34635 16.058 2.03906ZM17.18 1.75V10.25C17.18 10.5938 17.0427 10.888 16.768 11.1328C16.4934 11.3776 16.1632 11.5 15.7775 11.5H2.8751C2.48942 11.5 2.15927 11.3776 1.88462 11.1328C1.60998 10.888 1.47266 10.5938 1.47266 10.25V1.75C1.47266 1.40625 1.60998 1.11198 1.88462 0.867188C2.15927 0.622396 2.48942 0.5 2.8751 0.5H15.7775C16.1632 0.5 16.4934 0.622396 16.768 0.867188C17.0427 1.11198 17.18 1.40625 17.18 1.75Z" fill="#006699" stroke="#006699"/>
</svg>
