<svg width="19" height="20" viewBox="0 0 19 20" fill="none" xmlns="http://www.w3.org/2000/svg">
<path d="M17.9219 13.5208C16.6406 13.5208 15.401 13.3125 14.2448 12.9375C13.8802 12.8125 13.474 12.9062 13.1927 13.1875L11.5573 15.2396C8.60937 13.8333 5.84896 11.1771 4.38021 8.125L6.41146 6.39583C6.69271 6.10417 6.77604 5.69792 6.66146 5.33333C6.27604 4.17708 6.07812 2.9375 6.07812 1.65625C6.07812 1.09375 5.60938 0.625 5.04688 0.625H1.44271C0.880208 0.625 0.203125 0.875 0.203125 1.65625C0.203125 11.3333 8.25521 19.375 17.9219 19.375C18.6615 19.375 18.9531 18.7187 18.9531 18.1458V14.5521C18.9531 13.9896 18.4844 13.5208 17.9219 13.5208Z" fill="#006699"/>
</svg>
