<svg width="13" height="17" viewBox="0 0 13 17" fill="none" xmlns="http://www.w3.org/2000/svg">
<path d="M6.02148 15.6875C1.45898 9.125 0.646484 8.4375 0.646484 6C0.646484 2.6875 3.30273 0 6.64648 0C9.95898 0 12.6465 2.6875 12.6465 6C12.6465 8.4375 11.8027 9.125 7.24023 15.6875C6.95898 16.125 6.30273 16.125 6.02148 15.6875ZM6.64648 8.5C8.02148 8.5 9.14648 7.40625 9.14648 6C9.14648 4.625 8.02148 3.5 6.64648 3.5C5.24023 3.5 4.14648 4.625 4.14648 6C4.14648 7.40625 5.24023 8.5 6.64648 8.5Z" fill="white"/>
</svg>
