<svg width="20" height="20" viewBox="0 0 20 20" fill="none" xmlns="http://www.w3.org/2000/svg">
<path d="M14.5833 12.1875L14.375 12.5521L20 18.2292L18.2292 20L12.6042 14.3229L12.2396 14.5833C10.8507 15.4514 9.40972 15.8854 7.91667 15.8854C5.72917 15.8854 3.86285 15.1042 2.31771 13.5417C0.772569 11.9792 0 10.1042 0 7.91667C0 5.72917 0.772569 3.86285 2.31771 2.31771C3.86285 0.77257 5.72917 0 7.91667 0C10.1042 0 11.9705 0.77257 13.5156 2.31771C15.0608 3.86285 15.8333 5.72917 15.8333 7.91667C15.8333 9.44444 15.4167 10.8681 14.5833 12.1875ZM12.3438 3.48958C11.1285 2.27431 9.65278 1.66667 7.91667 1.66667C6.18056 1.66667 4.70486 2.27431 3.48958 3.48958C2.27431 4.70486 1.66667 6.18056 1.66667 7.91667C1.66667 9.65278 2.27431 11.1285 3.48958 12.3438C4.70486 13.559 6.18056 14.1667 7.91667 14.1667C9.65278 14.1667 11.1285 13.559 12.3438 12.3438C13.5938 11.0938 14.2188 9.61806 14.2188 7.91667C14.2188 6.21528 13.5938 4.73958 12.3438 3.48958Z" fill="black"/>
</svg>
