<svg width="40" height="16" viewBox="0 0 40 16" fill="none" xmlns="http://www.w3.org/2000/svg">
<path fill-rule="evenodd" clip-rule="evenodd" d="M9.449 4.1479V6.4776L8.49276 7.43384H3.81065V3.51385H8.81495L9.449 4.1479ZM4.50873 6.73576H8.20355L8.75092 6.18839V4.43711L8.52574 4.21193H4.50873V6.73576Z" fill="url(#paint0_linear_65_14062)"/>
<path fill-rule="evenodd" clip-rule="evenodd" d="M12.832 2.64434V7.60328L9.89091 10.6021H4.24024V14.5324L2.8007 15.9719H-0.00195312V2.1879L2.16251 0.0234375H10.2111L12.832 2.64434ZM0.696129 2.47711V15.2738H2.5115L3.54215 14.2432V9.90398H9.59777L12.1339 7.31806V2.93354L9.9219 0.721519H2.45172L0.696129 2.47711Z" fill="url(#paint1_linear_65_14062)"/>
<path fill-rule="evenodd" clip-rule="evenodd" d="M22.5805 4.17475V6.45075L21.6243 7.40699H17.2107V3.9513L17.5304 3.56754H21.9733L22.5805 4.17475ZM17.9087 6.70891H21.3351L21.8824 6.16154V4.46395L21.6841 4.26563H17.9087V6.70891Z" fill="url(#paint2_linear_65_14062)"/>
<path fill-rule="evenodd" clip-rule="evenodd" d="M26.1515 2.91283V7.71508L23.9639 9.8517L26.1515 12.5734V15.9719H23.67L19.5621 10.6021H18.0698V14.0223L16.1202 15.9719H13.8545V1.11393L14.945 0.0234375H23.2621L26.1515 2.91283ZM14.5526 1.40313V15.2738H15.831L17.3718 13.733V9.90398H19.9069L24.0149 15.2738H25.4534V12.8192L23.0228 9.79511L25.4534 7.42105V3.20204L22.9729 0.721519H15.2342L14.5526 1.40313Z" fill="url(#paint3_linear_65_14062)"/>
<path fill-rule="evenodd" clip-rule="evenodd" d="M36.5613 4.52379V11.4716L35.4977 12.5352H31.6644L30.6008 11.4716V4.52379L31.6644 3.46015H35.4977L36.5613 4.52379ZM31.2989 4.813V11.1824L31.9536 11.8371H35.2085L35.8632 11.1824V4.813L35.2085 4.15823H31.9536L31.2989 4.813Z" fill="url(#paint4_linear_65_14062)"/>
<path fill-rule="evenodd" clip-rule="evenodd" d="M39.998 3.34242V12.6529L36.679 15.9719H30.483L27.1641 12.6529V3.34242L30.483 0.0234375H36.679L39.998 3.34242ZM27.8621 3.63163V12.3638L30.7722 15.2738H36.3899L39.2999 12.3638V3.63163L36.3898 0.721519H30.7723L27.8621 3.63163Z" fill="url(#paint5_linear_65_14062)"/>
<defs>
<linearGradient id="paint0_linear_65_14062" x1="12.832" y1="0.0234365" x2="-2.74731" y2="12.5603" gradientUnits="userSpaceOnUse">
<stop stop-color="#FF3399"/>
<stop offset="1" stop-color="#0066FF"/>
</linearGradient>
<linearGradient id="paint1_linear_65_14062" x1="12.832" y1="0.0234365" x2="-2.74731" y2="12.5603" gradientUnits="userSpaceOnUse">
<stop stop-color="#FF3399"/>
<stop offset="1" stop-color="#0066FF"/>
</linearGradient>
<linearGradient id="paint2_linear_65_14062" x1="26.1515" y1="0.0234365" x2="10.7273" y2="11.9161" gradientUnits="userSpaceOnUse">
<stop stop-color="#FF3399"/>
<stop offset="1" stop-color="#0066FF"/>
</linearGradient>
<linearGradient id="paint3_linear_65_14062" x1="26.1515" y1="0.0234365" x2="10.7273" y2="11.9161" gradientUnits="userSpaceOnUse">
<stop stop-color="#FF3399"/>
<stop offset="1" stop-color="#0066FF"/>
</linearGradient>
<linearGradient id="paint4_linear_65_14062" x1="39.998" y1="0.0234365" x2="24.4187" y2="12.5603" gradientUnits="userSpaceOnUse">
<stop stop-color="#FF3399"/>
<stop offset="1" stop-color="#0066FF"/>
</linearGradient>
<linearGradient id="paint5_linear_65_14062" x1="39.998" y1="0.0234365" x2="24.4187" y2="12.5603" gradientUnits="userSpaceOnUse">
<stop stop-color="#FF3399"/>
<stop offset="1" stop-color="#0066FF"/>
</linearGradient>
</defs>
</svg>
