<svg width="0" height="0" class="hidden">
    <symbol version="1.1" xmlns="http://www.w3.org/2000/svg" viewBox="0 0 464 448" id="arrow-switch-horizontal">
        <path fill="none" stroke-linejoin="round" stroke-linecap="round" stroke-miterlimit="4" stroke-width="32" stroke="currentColor" d="M129.656 182l-63-63M66.656 119l63-63M66.656 119h336M339.656 266l63 63M402.656 329l-63 63M402.656 329h-336"></path>
    </symbol>
    <symbol version="1.1" xmlns="http://www.w3.org/2000/svg" viewBox="0 0 448 448" id="line-chart-up">
        <path fill="none" stroke-linejoin="round" stroke-linecap="round" stroke-miterlimit="4" stroke-width="32" stroke="currentColor" d="M56 56v336h336M140 266.002l73.501-73.499 52.499 52.499 94.502-94.502"></path>
    </symbol>
    <symbol version="1.1" xmlns="http://www.w3.org/2000/svg" viewBox="0 0 464 448" id="settings">
        <path fill="none" stroke-linejoin="miter" stroke-linecap="butt" stroke-miterlimit="4" stroke-width="32" stroke="currentColor" d="M176.784 100.087l21.019-30.206c2.563-3.684 6.768-5.881 11.258-5.881h31.264c4.472 0 8.662 2.181 11.23 5.842l20.806 29.683M176.784 100.087c-5.551 7.917-14.774 11.797-24.566 11.105M176.784 100.087c-5.576 7.899-14.774 11.83-24.566 11.105M152.219 111.193l-37.154-2.333c-4.4-0.276-8.665 1.58-11.462 4.988l-19.783 24.111c-2.965 3.614-3.885 8.489-2.442 12.935l10.88 33.505M92.258 184.4c1.423 4.614 1.605 9.557 0.587 14.224M92.258 184.4c1.443 4.606 1.618 9.537 0.58 14.272M92.845 198.624c-1.032 4.613-3.243 8.968-6.528 12.495M92.845 198.624l-0.007 0.048M86.317 211.118l-24.614 26.474c-3.132 3.368-4.367 8.083-3.288 12.555l7.016 29.074c1.075 4.456 4.307 8.082 8.612 9.659l33.818 12.395c4.558 1.763 8.497 4.63 11.477 8.243M86.317 211.118c3.304-3.498 5.496-7.838 6.52-12.446M119.339 309.519c2.96 3.622 4.977 7.994 5.759 12.728M119.339 309.519c2.987 3.622 5.010 7.982 5.759 12.728M119.339 309.519l-0.047-0.053c-0.196-0.237-0.405-0.483-0.607-0.714M125.097 322.246l5.757 35.365c0.73 4.487 3.637 8.32 7.761 10.235l28.206 13.094c3.992 1.855 8.631 1.678 12.47-0.47l31.64-17.701M210.931 362.77c4.242-2.382 8.976-3.577 13.709-3.584M210.931 362.77c1.68-0.955 3.44-1.719 5.247-2.291 2.744-0.869 5.603-1.298 8.463-1.293M224.64 359.186c2.461 0.007 4.923 0.331 7.323 0.974 2.232 0.599 4.403 1.469 6.461 2.61M224.64 359.186c4.753-0.007 9.515 1.189 13.784 3.584M238.424 362.77l33.078 17.907c3.857 2.088 8.482 2.205 12.44 0.314l28.067-13.405c4.109-1.962 6.974-5.837 7.651-10.339l5.163-34.398M324.824 322.848c0.749-4.76 2.737-9.165 5.691-12.819M324.824 322.848c0.721-4.771 2.725-9.17 5.691-12.819M330.515 310.029c2.933-3.616 6.824-6.498 11.355-8.28M330.515 310.029c2.926-3.63 6.803-6.52 11.355-8.28M341.87 301.749l34.133-13.376c4.224-1.656 7.357-5.293 8.366-9.715l6.709-29.37c1.006-4.41-0.226-9.034-3.296-12.359l-24.738-26.786M363.045 210.144c-3.346-3.539-5.678-7.768-6.811-12.261M363.045 210.144c-1.571-1.653-2.92-3.461-4.019-5.376-1.254-2.176-2.192-4.491-2.792-6.885M356.234 197.883c-1.112-4.461-1.045-9.187 0.365-13.763l10.714-34.341c1.376-4.413 0.437-9.223-2.499-12.794l-19.334-23.516c-2.829-3.441-7.154-5.293-11.595-4.968l-36.753 2.692M297.129 111.193c-4.869 0.344-9.656-0.584-13.918-2.579M297.129 111.193c-4.875 0.364-9.656-0.571-13.918-2.579M283.211 108.614c-4.288-2.021-8.051-5.128-10.85-9.089M283.211 108.614c-4.295-2.013-8.064-5.112-10.85-9.089M92.838 198.672l0.014-0.070M278.863 224.17c0 29.84-24.734 54.029-55.24 54.029-30.507 0-55.24-24.189-55.24-54.029 0-29.838 24.733-54.027 55.24-54.027 30.506 0 55.24 24.189 55.24 54.027z"></path>
    </symbol>
    <symbol version="1.1" xmlns="http://www.w3.org/2000/svg" viewBox="0 0 448 448" id="x-icon">
        <path fill="currentColor" d="M93.969 104.3l100.897 134.898-101.526 109.679h22.856l88.894-96.022 71.818 96.022h77.766l-106.57-142.485 94.506-102.093h-22.857l-81.858 88.434-66.145-88.434h-77.781zM127.571 121.132h35.717l157.753 210.915h-35.717l-157.754-210.915z"></path>
    </symbol>
    <symbol version="1.1" xmlns="http://www.w3.org/2000/svg" viewBox="0 0 448 448" id="copy">
        <path fill="none" stroke-linejoin="miter" stroke-linecap="round" stroke-miterlimit="4" stroke-width="32.3556" stroke="currentColor" d="M267.474 100.622v-17.261c0-25.421-20.606-46.028-46.027-46.028h-138.085c-25.421 0-46.028 20.608-46.028 46.028v138.085c0 25.421 20.608 46.027 46.028 46.027h17.261M226.554 410.667h138.086c25.419 0 46.027-20.608 46.027-46.027v-138.086c0-25.421-20.608-46.028-46.027-46.028h-138.086c-25.421 0-46.028 20.608-46.028 46.028l-0 138.084c0 25.421 20.608 46.029 46.028 46.029z"></path>
    </symbol>
</svg>