<svg width="520" height="179" fill="none" xmlns="http://www.w3.org/2000/svg"><g clip-path="url(#a)"><path d="M0 32c0-11.201 0-16.802 2.18-21.08a20 20 0 0 1 8.74-8.74C15.198 0 20.8 0 32 0h456c11.201 0 16.802 0 21.08 2.18a19.998 19.998 0 0 1 8.74 8.74C520 15.198 520 20.8 520 32v147H0V32Z" fill="#00974B"/><path fill="#06793A" d="M0 0h520v179H0z"/><path d="m568.932-46 194.986 242.704-356.219 286.182-194.985-242.704L568.932-46Z" fill="#fff" fill-opacity=".03"/><path d="m568.932-8 194.986 242.704-356.219 286.182-194.985-242.704L568.932-8Z" fill="#fff" fill-opacity=".04"/><path d="m568.932 33.282 194.986 242.704-356.219 286.183-194.985-242.704L568.932 33.282Z" fill="#fff" fill-opacity=".08"/></g><defs><clipPath id="a"><path d="M0 32c0-11.201 0-16.802 2.18-21.08a20 20 0 0 1 8.74-8.74C15.198 0 20.8 0 32 0h456c11.201 0 16.802 0 21.08 2.18a19.998 19.998 0 0 1 8.74 8.74C520 15.198 520 20.8 520 32v147H0V32Z" fill="#fff"/></clipPath></defs></svg>