<svg width="238" height="116" viewBox="0 0 238 116" fill="none" xmlns="http://www.w3.org/2000/svg">
<path d="M32.2906 115.253C21.7017 115.253 13.6506 112.759 8.1374 107.771C2.71167 102.87 -0.00119251 96.0003 -0.00119251 87.1617C-0.00119251 81.2109 1.13646 75.0413 3.41177 68.6529C5.77458 62.1771 9.05627 55.8762 13.2568 49.7504C17.5449 43.6246 22.6206 38.0238 28.4839 32.9481C34.4347 27.7849 41.0418 23.4969 48.3053 20.0839C55.5688 16.671 63.3136 14.4832 71.5397 13.5205C72.0647 13.433 72.6336 13.3893 73.2461 13.3893C73.8587 13.3893 74.4713 13.3893 75.0839 13.3893C77.0967 13.3893 79.0657 13.5205 80.9909 13.7831C83.0037 14.0456 84.4914 14.3956 85.454 14.8332C85.8916 14.3081 86.4604 13.258 87.1605 11.6828C87.8606 10.1076 88.5607 8.44484 89.2608 6.69461C90.0484 4.85687 90.661 3.28166 91.0985 1.96898C91.6236 0.656301 91.8861 -3.6392e-05 91.8861 -3.6392e-05C92.3237 -3.6392e-05 92.805 0.350011 93.3301 1.05011C93.9427 1.7502 94.249 2.71283 94.249 3.938C94.249 4.11302 93.8989 5.03189 93.1988 6.69461C92.5862 8.35733 91.7986 10.1513 90.836 12.0766C89.9609 13.9143 89.0858 15.1833 88.2106 15.8833C88.9107 16.2334 89.2608 16.7585 89.2608 17.4586C89.2608 18.6837 88.3857 20.3027 86.6354 22.3155C84.8852 24.3282 82.8287 26.3848 80.4659 28.485C78.103 30.5853 75.8277 32.4668 73.6399 34.1295C71.5397 35.7048 70.0957 36.7549 69.3081 37.28C67.3828 38.5926 66.1577 39.249 65.6326 39.249C65.4576 39.249 65.3701 39.1615 65.3701 38.9864C65.3701 38.9864 65.8076 38.4176 66.6828 37.28C67.5579 36.0548 68.6955 34.5671 70.0957 32.8169C71.4959 30.9791 72.9398 29.1414 74.4275 27.3036C76.0028 25.3784 77.4467 23.6719 78.7594 22.1842C78.0593 21.8341 76.9654 21.6591 75.4777 21.6591C70.052 21.6591 64.495 22.6218 58.8067 24.547C53.2059 26.4723 47.6927 29.1414 42.267 32.5543C36.9288 35.8798 31.8968 39.7303 27.1712 44.1059C22.4456 48.4815 18.2888 53.1633 14.7008 58.1515C11.1128 63.0522 8.31242 68.0403 6.29965 73.116C4.28688 78.1917 3.2805 83.0924 3.2805 87.818C3.2805 94.4689 5.59956 99.1508 10.2377 101.864C14.9633 104.576 21.2642 105.933 29.1402 105.933C34.916 105.933 41.1731 105.32 47.9115 104.095C54.6499 102.87 61.4758 101.251 68.3892 99.2383C75.3027 97.2255 81.9098 95.0377 88.2106 92.6749C94.599 90.2246 100.287 87.7742 105.275 85.3239C110.351 82.7861 114.333 80.467 117.221 78.3667C117.658 77.9292 118.096 77.7104 118.533 77.7104C118.884 77.7104 119.059 77.8854 119.059 78.2355C119.059 78.5855 118.884 78.9356 118.533 79.2856C114.508 83.2236 109.826 87.0741 104.488 90.8372C99.2371 94.5126 93.0238 98.0131 85.8478 101.339C78.7594 104.664 70.3145 107.727 60.5132 110.527C49.7492 113.678 40.3417 115.253 32.2906 115.253ZM143.474 99.3695C141.987 99.3695 140.543 98.6695 139.142 97.2693C137.83 95.7816 137.173 93.9001 137.173 91.6248C137.173 87.3367 137.305 83.0924 137.567 78.8918C137.917 74.6037 138.267 70.797 138.617 67.4715C139.055 64.0586 139.361 61.5645 139.536 59.9893C138.661 63.6648 137.567 67.3403 136.255 71.0157C134.942 74.6912 133.629 78.148 132.317 81.3859C131.004 84.5363 129.866 87.2054 128.904 89.3932C127.941 91.4935 127.372 92.8499 127.197 93.4625C126.847 94.4251 126.103 94.9065 124.966 94.9065C124.09 94.9065 123.084 94.6439 121.946 94.1188C120.809 93.5938 119.802 92.9812 118.927 92.2811C118.14 91.4935 117.702 90.8372 117.615 90.3121C117.527 89.8745 117.483 89.3932 117.483 88.8681C117.483 88.2556 117.483 87.643 117.483 87.0304C117.483 84.4926 117.702 81.1234 118.14 76.9228C118.577 72.6347 119.277 67.209 120.24 60.6456C120.765 57.0576 121.028 54.1697 121.028 51.9819C121.028 49.7066 120.765 47.9564 120.24 46.7312C119.802 45.5061 119.234 44.5872 118.533 43.9746C117.133 43.9746 115.689 43.8433 114.202 43.5808C112.714 43.2308 111.97 42.837 111.97 42.3994C111.97 42.1369 112.67 41.7868 114.07 41.3493C115.558 40.9117 117.308 40.5617 119.321 40.2991C121.334 39.9491 123.172 39.7741 124.834 39.7741C126.059 39.7741 127.022 39.9053 127.722 40.1679C128.51 40.4304 128.904 40.9117 128.904 41.6118C128.904 44.0621 128.685 47.0813 128.247 50.6693C127.81 54.1697 127.285 57.889 126.672 61.827C126.147 65.765 125.666 69.6156 125.228 73.3786C124.791 77.1416 124.572 80.5108 124.572 83.4862C124.572 84.5363 124.616 85.5427 124.703 86.5053C124.791 87.3804 124.922 88.168 125.097 88.8681C125.797 88.6931 126.672 87.5555 127.722 85.4552C128.86 83.2674 130.041 80.5108 131.266 77.1853C132.579 73.8599 133.848 70.3156 135.073 66.5526C136.298 62.7896 137.392 59.2017 138.355 55.7887C139.318 52.3757 140.018 49.4879 140.455 47.125C140.543 46.6875 140.893 46.4687 141.505 46.4687C142.468 46.4687 143.518 46.9938 144.656 48.0439C145.881 49.0065 146.756 50.1004 147.281 51.3256C147.019 52.3757 146.668 54.2572 146.231 56.9701C145.881 59.683 145.487 62.7896 145.05 66.2901C144.699 69.7031 144.393 73.0723 144.131 76.3977C143.956 79.6357 143.868 82.3923 143.868 84.6676C143.868 87.3804 144.087 89.0869 144.524 89.787C144.962 90.4871 145.487 90.8372 146.1 90.8372C146.8 90.8372 147.587 90.2246 148.462 88.9994C149.425 87.7742 150.388 86.2428 151.35 84.405C152.313 82.5673 153.276 80.7733 154.238 79.0231C155.201 77.1853 156.032 75.6539 156.732 74.4287C157.52 73.2035 158.133 72.591 158.57 72.591C158.92 72.591 159.095 72.8097 159.095 73.2473C159.095 73.5098 158.964 73.9911 158.701 74.6912C158.351 75.5664 157.739 77.0103 156.864 79.0231C156.076 80.9483 155.113 83.0924 153.976 85.4552C152.838 87.7305 151.657 89.9183 150.431 92.0186C149.206 94.1188 147.981 95.8691 146.756 97.2693C145.531 98.6695 144.437 99.3695 143.474 99.3695ZM150.421 96.0879C149.196 96.0879 148.015 95.6941 146.877 94.9065C145.739 94.0313 145.171 93.0249 145.171 91.8873C145.171 89.962 145.564 89.3932 146.352 90.1808C146.877 90.7059 147.49 91.2747 148.19 91.8873C148.89 92.4124 149.546 92.6749 150.159 92.6749C151.384 92.6749 152.74 91.7998 154.228 90.0495C155.716 88.2118 157.247 85.849 158.822 82.9611C160.398 79.9857 161.929 76.879 163.417 73.6411C163.854 72.6785 164.511 71.2345 165.386 69.3093C166.261 67.384 167.267 65.2837 168.405 63.0084C169.63 60.6456 170.811 58.4141 171.949 56.3138C173.087 54.126 174.093 52.332 174.968 50.9318C175.931 49.3566 176.894 48.2189 177.856 47.5188C178.819 46.7312 179.606 46.3374 180.219 46.3374C181.444 46.3374 182.057 47.4751 182.057 49.7504C182.057 50.8005 181.925 52.8571 181.663 55.92C181.488 58.9829 181.4 62.3083 181.4 65.8963C181.4 69.1342 181.532 72.3284 181.794 75.4788C182.144 78.6293 182.713 81.2546 183.501 83.3549C184.288 85.3677 185.382 86.3741 186.782 86.3741C187.833 86.3741 188.839 85.8052 189.802 84.6676C190.764 83.5299 191.596 82.3048 192.296 80.9921C193.083 79.6794 193.608 78.7168 193.871 78.1042C195.709 74.6912 196.846 72.5034 197.284 71.5408C197.721 70.4907 198.29 69.9656 198.99 69.9656C199.253 69.9656 199.384 70.1406 199.384 70.4907C199.384 70.6657 199.297 71.1033 199.122 71.8034C198.071 74.6912 196.759 77.7104 195.183 80.8608C193.696 83.9237 191.902 86.5491 189.802 88.7369C187.701 90.9247 185.338 92.0186 182.713 92.0186C180.35 92.0186 178.512 90.9247 177.2 88.7369C175.975 86.4616 175.1 83.6174 174.574 80.2045C174.137 76.704 173.918 73.2035 173.918 69.7031C173.918 67.4278 173.962 65.2837 174.049 63.271C174.224 61.2582 174.399 59.4642 174.574 57.889C173.699 59.2892 172.824 60.7331 171.949 62.2208C171.074 63.7085 170.111 65.5463 169.061 67.7341C168.011 69.9218 166.742 72.8535 165.254 76.529C163.942 79.6794 162.41 82.7423 160.66 85.7177C158.997 88.6931 157.247 91.1872 155.409 93.2C153.659 95.1252 151.996 96.0879 150.421 96.0879ZM225.09 93.9876C224.127 93.9876 223.077 93.6375 221.94 92.9374C220.802 92.1498 220.014 91.3185 219.577 90.4434C219.577 88.4306 219.839 85.674 220.364 82.1735C220.889 78.673 221.458 75.085 222.071 71.4095C222.771 67.6465 223.383 64.4524 223.909 61.827C222.333 64.2773 220.539 66.9464 218.527 69.8343C216.514 72.7222 214.457 75.4351 212.357 77.9729C210.257 80.4233 208.113 82.4798 205.925 84.1425C203.825 85.7177 201.856 86.5053 200.018 86.5053C198.18 86.5053 196.736 85.8927 195.686 84.6676C194.636 83.3549 194.111 81.8672 194.111 80.2045C194.111 79.7669 194.198 79.1981 194.373 78.498C195.161 74.4725 196.692 70.7095 198.968 67.209C201.331 63.621 204 60.4706 206.975 57.7577C210.038 55.0449 213.057 52.9008 216.032 51.3256C219.008 49.7504 221.546 48.9628 223.646 48.9628C225.221 48.9628 226.709 49.3128 228.109 50.0129C229.597 50.6255 230.997 51.6756 232.31 53.1633C232.572 53.4259 232.703 53.7322 232.703 54.0822C232.703 54.5198 232.441 54.9573 231.916 55.3949C231.303 57.4952 230.647 60.033 229.947 63.0084C229.334 65.8963 228.722 68.9155 228.109 72.0659C227.584 75.1288 227.146 77.9729 226.796 80.5983C226.446 83.2236 226.271 85.2364 226.271 86.6366C226.271 87.5992 226.403 88.0805 226.665 88.0805C227.365 88.0805 228.24 87.3367 229.291 85.849C230.428 84.3613 231.522 82.6548 232.572 80.7295C233.622 78.8043 234.541 77.0978 235.329 75.6101C236.204 74.1224 236.729 73.3786 236.904 73.3786C237.167 73.3786 237.298 73.7286 237.298 74.4287C237.298 75.9164 236.817 77.7541 235.854 79.9419C234.891 82.1297 233.71 84.3175 232.31 86.5053C230.997 88.6056 229.641 90.3996 228.24 91.8873C226.928 93.2875 225.878 93.9876 225.09 93.9876ZM201.068 81.6484C202.293 81.6484 203.825 80.9483 205.662 79.5481C207.588 78.148 209.557 76.354 211.569 74.1662C213.67 71.9784 215.682 69.6593 217.608 67.209C219.62 64.7587 221.327 62.4396 222.727 60.2518C224.215 57.9765 225.265 56.1387 225.878 54.7386C224.127 54.7386 222.115 55.3949 219.839 56.7076C217.564 57.9327 215.245 59.5517 212.882 61.5645C210.519 63.4897 208.331 65.6338 206.319 67.9966C204.306 70.2719 202.687 72.5034 201.462 74.6912C200.237 76.879 199.624 78.7605 199.624 80.3357C199.624 81.2109 200.105 81.6484 201.068 81.6484Z" fill="#FFCF0D"/>
</svg>
