<svg width="48" height="60" viewBox="0 0 48 60" fill="none" xmlns="http://www.w3.org/2000/svg">
<g clip-path="url(#clip0_91_63551)">
<path d="M44.4074 27.04H27.87L31.698 23.212C32.2474 22.6557 32.5543 21.9046 32.5518 21.1227C32.5494 20.3408 32.2377 19.5917 31.6848 19.0389C31.1319 18.486 30.3828 18.1743 29.6009 18.1719C28.819 18.1694 28.068 18.4764 27.5116 19.0258L18.6301 27.9074C18.3551 28.1822 18.1369 28.5085 17.9881 28.8677C17.8393 29.2268 17.7627 29.6118 17.7627 30.0006C17.7627 30.3893 17.8393 30.7743 17.9881 31.1335C18.1369 31.4926 18.3551 31.8189 18.6301 32.0938L27.5116 40.9753C28.068 41.5247 28.8191 41.8316 29.6009 41.8292C30.3828 41.8267 31.1319 41.515 31.6848 40.9621C32.2376 40.4092 32.5493 39.6601 32.5517 38.8782C32.5542 38.0964 32.2472 37.3453 31.6978 36.789L27.87 32.961H44.4074C45.1925 32.961 45.9456 32.6491 46.5008 32.0939C47.056 31.5387 47.3679 30.7857 47.3679 30.0005C47.3679 29.2153 47.056 28.4623 46.5008 27.9071C45.9456 27.3519 45.1925 27.04 44.4074 27.04Z" fill="#1A3668"/>
<path d="M27.8706 32.9642L31.6985 36.7922C31.9762 37.0664 32.197 37.3929 32.348 37.7528C32.4991 38.1127 32.5775 38.4989 32.5787 38.8892C32.5799 39.2795 32.504 39.6662 32.3551 40.027C32.2063 40.3879 31.9877 40.7157 31.7117 40.9917C31.4357 41.2677 31.1078 41.4863 30.747 41.6351C30.3861 41.7839 29.9995 41.8599 29.6091 41.8586C29.2188 41.8574 28.8326 41.779 28.4727 41.6279C28.1129 41.4769 27.7864 41.2561 27.5122 40.9784L18.6306 32.0968C18.3556 31.822 18.1375 31.4957 17.9887 31.1365C17.8398 30.7773 17.7632 30.3924 17.7632 30.0036C17.7632 29.6148 17.8398 29.2299 17.9887 28.8707C18.1375 28.5116 18.3556 28.1853 18.6306 27.9104L27.5122 19.0289C28.0685 18.4795 28.8196 18.1725 29.6015 18.175C30.3833 18.1775 31.1325 18.4892 31.6853 19.0421C32.2382 19.5949 32.5498 20.3441 32.5523 21.126C32.5547 21.9078 32.2477 22.6589 31.6984 23.2152L27.8706 27.0432H41.4474V9.28002C41.4448 6.92526 40.5082 4.66769 38.8432 3.00263C37.1781 1.33757 34.9205 0.401008 32.5658 0.398438H8.88158C6.52683 0.401008 4.26926 1.33757 2.60419 3.00263C0.939131 4.66769 0.00257032 6.92526 0 9.28002V50.7274C0.00257032 53.0821 0.939131 55.3397 2.60419 57.0048C4.26926 58.6698 6.52683 59.6064 8.88158 59.609H32.5658C34.9205 59.6064 37.1781 58.6698 38.8432 57.0048C40.5082 55.3397 41.4448 53.0821 41.4474 50.7274V32.9642H27.8706Z" fill="#648ACF"/>
</g>
<defs>
<clipPath id="clip0_91_63551">
<rect width="47.3684" height="60" fill="white"/>
</clipPath>
</defs>
</svg>
