<svg width="87" height="18" viewBox="0 0 87 18" fill="none" xmlns="http://www.w3.org/2000/svg">
<path d="M0 15.5464H11.4893V18H0V15.5464ZM83.0876 7.67008L86.71 3.55549H84.0104L81.0418 6.97527V3.55549H78.8905V12.2027H81.0524V8.56031L84.2265 12.2027H87L83.0876 7.67008ZM12.7547 8.24005C12.6967 9.86852 12.4964 10.1779 11.6211 10.1779V12.2081H11.948C14.1467 12.2081 14.6687 11.041 14.7478 8.44089L14.8427 5.56393H16.8727V12.2027H19.024V3.55549H12.9024L12.7547 8.24005ZM3.41673 9.72738H7.95127L8.70527 12.2027H11.2204L7.83 1.80217C7.50309 0.797949 7.12345 0 5.82636 0C4.52927 0 4.13382 0.797949 3.78582 1.80217L0.232 12.2027H2.59418L3.41673 9.72738ZM5.71564 2.71411H5.77364L7.29218 7.64294H4.09691L5.71564 2.71411ZM55.97 4.78227H53.5709V2.33957H59.1389V0.168275H51.3142V12.2027H55.97C58.5484 12.2027 60.03 10.8782 60.03 8.45718C60.03 6.16104 58.5273 4.78227 55.97 4.78227ZM55.8593 10.0259H53.5709V6.89928H55.8593C57.0509 6.89928 57.7205 7.4421 57.7205 8.46261C57.7205 9.48311 57.0509 10.0259 55.8593 10.0259ZM34.5838 3.35464V0.15199H32.4378V3.35464C31.311 3.39291 30.2449 3.89003 29.4738 4.73678C28.7027 5.58358 28.2896 6.71081 28.3251 7.87093C28.2867 9.03344 28.6984 10.164 29.4697 11.014C30.2409 11.8641 31.3086 12.3639 32.4378 12.4035V15.6604H34.5891V12.4035C35.1484 12.3846 35.6987 12.2523 36.2082 12.0141C36.7178 11.7759 37.1768 11.4366 37.5588 11.0156C37.9409 10.5945 38.2384 10.1001 38.4346 9.56046C38.6307 9.02084 38.7215 8.4467 38.7018 7.87093C38.7244 7.29478 38.6352 6.71977 38.4397 6.17949C38.244 5.63917 37.9459 5.14438 37.5625 4.72397C37.1792 4.30361 36.7184 3.96597 36.207 3.73087C35.6955 3.49578 35.1438 3.36789 34.5838 3.35464ZM32.4431 10.3136C31.8737 10.2493 31.3518 9.95705 30.9898 9.5001C30.6278 9.04315 30.4547 8.45805 30.508 7.87093C30.4616 7.28528 30.6371 6.70386 30.9979 6.24854C31.3586 5.79317 31.8765 5.49923 32.4431 5.42823V10.3136ZM34.5944 10.3136V5.42823C35.1609 5.49923 35.6789 5.79317 36.0396 6.24854C36.4003 6.70386 36.5759 7.28528 36.5295 7.87093C36.5799 8.45745 36.4059 9.04104 36.0444 9.49739C35.6829 9.95368 35.1626 10.2466 34.5944 10.3136ZM46.7638 9.54825V6.63329C46.7638 4.50543 45.4509 3.17551 43.2469 3.17551C41.0429 3.17551 39.7564 4.58685 39.6509 6.0579H41.8285C41.9024 5.74306 42.2293 5.18396 43.2416 5.18396C43.4309 5.15888 43.6229 5.1794 43.8027 5.24399C43.983 5.30859 44.1459 5.41536 44.2788 5.55601C44.4117 5.6966 44.5113 5.86715 44.5693 6.0541C44.6273 6.2411 44.6421 6.4394 44.6125 6.63329H42.5035C40.5947 6.63329 39.4611 7.67008 39.4611 9.3854C39.4462 9.79475 39.515 10.2027 39.6629 10.583C39.8109 10.9632 40.0348 11.3072 40.3201 11.5927C40.6054 11.8783 40.9457 12.0989 41.3191 12.2405C41.6925 12.382 42.0906 12.4412 42.4876 12.4144C42.9359 12.4386 43.3829 12.3488 43.7895 12.1528C44.196 11.9568 44.5493 11.6608 44.8182 11.2907C44.9932 11.5955 45.2484 11.8429 45.5548 12.0043C45.8606 12.1657 46.2049 12.2345 46.5476 12.2027H47.2911V10.2051C46.9273 10.2051 46.7638 10.0259 46.7638 9.54825ZM44.6125 9.00543C44.6215 9.21925 44.5862 9.43258 44.5087 9.6313C44.4317 9.83003 44.3146 10.0097 44.1654 10.1584C44.0157 10.3072 43.8375 10.4216 43.6418 10.4942C43.4462 10.5668 43.2379 10.5959 43.0307 10.5796C42.2556 10.5796 41.644 10.2919 41.644 9.42883C41.644 8.56574 42.3242 8.44089 42.8989 8.44089H44.6125V9.00543ZM24.3811 6.18275H22.8362V3.55549H20.6849V12.2027H24.418C26.7538 12.2027 27.5816 10.6393 27.5816 9.16285C27.5922 7.25754 26.4322 6.18275 24.3811 6.18275ZM24.2229 10.3136H22.8362V8.14234H24.2229C24.9664 8.14234 25.4145 8.48975 25.4145 9.22799C25.4145 9.96622 24.9875 10.3136 24.2229 10.3136ZM68.2396 9.54825V6.63329C68.2396 4.50543 66.9267 3.17551 64.7227 3.17551C62.5187 3.17551 61.2322 4.58685 61.1267 6.0579H63.3044C63.3782 5.74306 63.7051 5.18396 64.7175 5.18396C64.9067 5.15888 65.0987 5.1794 65.2785 5.24399C65.4588 5.30859 65.6217 5.41536 65.7546 5.55601C65.8875 5.6966 65.9871 5.86715 66.0451 6.0541C66.1031 6.2411 66.1179 6.4394 66.0884 6.63329H63.9793C62.0705 6.63329 60.9369 7.67008 60.9369 9.3854C60.9221 9.79475 60.9907 10.2027 61.1389 10.583C61.2865 10.9632 61.5106 11.3072 61.7958 11.5927C62.0811 11.8783 62.4217 12.0989 62.795 12.2405C63.1683 12.382 63.5664 12.4412 63.9635 12.4144C64.4158 12.4432 64.8683 12.3556 65.2801 12.1594C65.6913 11.9633 66.0488 11.6647 66.3204 11.2907C66.4928 11.5902 66.7432 11.8342 67.0433 11.9953C67.3433 12.1564 67.6807 12.2282 68.0182 12.2027H68.7616V10.2051C68.3873 10.2051 68.2396 10.0259 68.2396 9.54825ZM66.0989 9.00543C66.1068 9.21903 66.071 9.43192 65.9935 9.63027C65.9159 9.82862 65.7989 10.0079 65.6497 10.1565C65.5005 10.305 65.3222 10.4195 65.1271 10.4924C64.9321 10.5653 64.7243 10.595 64.5171 10.5796C63.742 10.5796 63.1304 10.2919 63.1304 9.42883C63.1304 8.56574 63.8105 8.44089 64.3853 8.44089H66.0989V9.00543ZM75.11 6.77443H72.1415V3.55549H69.9902V12.2081H72.1415V8.79916H75.11V12.2027H77.2613V3.55549H75.11V6.77443Z" fill="#EF3124"/>
</svg>
