<svg width="118" height="27" viewBox="0 0 118 27" fill="none" xmlns="http://www.w3.org/2000/svg">
<path fill-rule="evenodd" clip-rule="evenodd" d="M12.4608 0C5.58707 0 0 6.04459 0 13.4843C0 20.9086 5.58707 26.9539 12.4608 26.9539C19.319 26.9539 24.9047 20.9086 24.9047 13.4843C24.9047 6.04459 19.319 0 12.4608 0ZM12.4608 26.2798C5.93297 26.2798 0.62255 20.5371 0.62255 13.4843C0.62255 6.41676 5.93094 0.67414 12.4608 0.67414C18.9775 0.67414 24.2821 6.41969 24.2821 13.4843C24.2821 20.5357 18.9754 26.2798 12.4608 26.2798ZM49.0422 11.1021C49.0422 11.959 48.3069 12.2405 47.9042 12.2405H46.8395V14.7331H47.8475C48.697 14.7331 49.0845 15.1696 49.0845 15.8247C49.0845 16.2905 48.769 16.9317 47.9623 16.9317C47.4871 16.9317 47.0125 16.9018 46.3068 16.572L46.2632 18.9907C46.4939 19.1267 46.7128 19.2349 46.9324 19.3197C47.4394 19.515 47.9515 19.5866 48.6244 19.5969C50.439 19.5969 51.8496 18.3817 51.8496 16.183C51.8496 14.4048 50.87 13.6437 50.1367 13.3914V13.2832C50.8984 12.9388 51.6774 12.0526 51.6774 10.5866C51.6774 9.0753 50.7704 7.5318 48.724 7.5318C48.3001 7.52668 47.8772 7.55812 47.459 7.62466C47.1537 7.67365 46.8507 7.74091 46.5517 7.82719L46.5801 10.3541C47.1135 10.0733 47.66 10.0258 47.9471 10.0258C48.1934 10.0258 49.0422 10.0894 49.0422 11.1021ZM72.3931 19.504C75.344 19.504 76.3361 16.5091 76.3361 13.5325C76.3361 10.5567 75.344 7.56251 72.3931 7.56251C69.4418 7.56251 68.4497 10.5567 68.4497 13.5325C68.4497 16.5091 69.4418 19.5033 72.3931 19.504ZM72.3931 16.6809C71.5131 16.6809 71.069 15.5754 71.069 13.5325C71.069 11.4896 71.5131 10.3834 72.3931 10.3834C73.2724 10.3834 73.7162 11.4896 73.7162 13.5325C73.7162 15.5754 73.2724 16.6809 72.3931 16.6809ZM79.6495 7.73433H77.5333V19.3629H80.0231V12.2698L81.5189 14.2959L83.0156 12.2698V19.3629H85.5082V7.7336H83.4068L81.5189 10.4777L79.6495 7.73433ZM87.1921 19.3629H90.1572C90.8048 19.3629 93.498 19.066 93.5115 15.5418C93.5115 12.5842 91.4253 12.068 90.0714 12.068H89.6252V10.5252H92.9217V7.73433H87.1921V19.3629ZM89.6252 17.0246V14.3902H89.9849C90.1376 14.3902 90.4129 14.3946 90.6473 14.554C90.8757 14.7097 91.0655 15.0131 91.0655 15.6054C91.0655 16.8235 90.2866 17.0246 89.9849 17.0246H89.6252ZM102.467 7.73433H104.9V11.9276H106.642V7.73433H109.074V19.3636H106.642V14.7024H104.9V19.3636H102.467V7.73433ZM110.715 7.73433H113.163L113.148 11.9122H113.68L115.077 7.73433H117.726L115.825 13.2539L118 19.3636H115.134L113.725 14.6863H113.148L113.163 19.3629H110.715V7.73433ZM96.5215 19.3782H93.9874L96.1321 7.75042H99.2708L101.401 19.3782H98.8682L98.5652 17.3675H96.8245L96.5215 19.3782ZM98.1618 14.8106L97.7011 11.2717L97.2258 14.8106H98.1618ZM63.7257 19.3629H61.2352V7.7336H64.5621C66.9074 7.7336 67.786 10.1026 67.786 11.5986C67.786 13.1282 67.0222 15.5294 64.5621 15.5294H63.7257V19.3629ZM64.3165 10.2905H63.7257L63.7264 12.971H64.3165C64.6333 12.971 65.2387 12.8781 65.2387 11.6307C65.2387 10.6649 64.8783 10.2905 64.3165 10.2905ZM53.015 7.73433H59.8097V19.3622H57.3188V10.5398H55.5062V19.3629H53.015V7.73433ZM38.1167 19.3629H40.635L40.9525 17.3507H42.6945L42.9961 19.3629H45.514L43.3832 7.7336H40.2462L38.1167 19.3629ZM41.8152 11.241L42.2911 14.7953H41.3399L41.8152 11.241ZM38.4022 7.73433H33.2941V19.3622H35.8262V10.632H38.4022V7.73433ZM15.9941 5.01145C14.0234 4.0602 10.3513 3.96587 7.34325 5.41579C7.73069 5.11601 8.1455 4.86156 8.58159 4.65464C9.52876 4.17718 11.0563 3.71435 12.96 3.71435C13.0499 3.71435 13.1397 3.71508 13.2299 3.71728C14.8578 3.74872 16.7876 4.35705 17.9671 5.61978C18.0854 5.77552 18.1742 5.93126 18.236 6.07457C18.2792 6.17474 18.3093 6.26833 18.3269 6.35242C19.2629 6.86716 19.8094 7.34974 20.1111 7.91128C20.2418 8.20667 20.2847 8.51742 20.2259 8.87642C20.533 9.06287 20.7992 9.31878 21.0062 9.62734C21.0724 9.74871 21.1312 9.8774 21.1768 10.0068C21.2194 10.1267 21.2501 10.2466 21.2643 10.3607C21.3065 10.67 21.3349 11.0283 21.0326 11.4501C21.3494 11.622 21.6075 12.1031 21.6386 12.3078C21.797 13.069 21.3349 13.8177 20.7455 14.396C20.0537 15.0497 18.5275 15.8291 17.2892 16.1728C14.8446 16.8425 12.6689 17.124 10.9428 17.4677C11.7197 17.6695 12.7699 17.9356 14.4842 17.9356C18.1532 17.9356 21.393 16.0631 21.393 16.0631C21.393 16.0631 21.3217 16.2985 21.2484 16.5172C18.917 18.0438 15.2182 18.6822 13.6333 18.6039C12.0352 18.525 10.6827 18.261 9.35784 17.8238C8.95316 17.9473 8.55457 18.0928 8.16374 18.261C10.1804 19.2583 11.7051 19.4777 13.4188 19.6166C15.1736 19.7584 18.0833 19.3044 20.5283 18.3407C20.4134 18.4665 20.356 18.6522 20.2418 18.7611C19.4075 19.2386 17.955 19.716 16.6822 19.9997C16.0434 20.1423 15.4499 20.2366 15.0023 20.2571C13.6768 20.32 12.0649 20.2571 10.6536 19.9756C9.44431 19.7124 8.44951 19.3044 7.41385 18.8079C7.2284 18.9615 7.14192 19.1508 7.097 19.3695C11.1448 21.6602 14.9142 21.7056 19.2207 20.2571L18.8305 20.6629C14.094 22.7519 10.3942 21.9403 7.52802 20.4436L7.40709 20.3873C7.34325 20.3573 7.28008 20.3251 7.2284 20.2878C7.50235 20.7872 9.68853 22.5172 12.1362 22.7358C13.8221 22.8915 15.8799 22.5793 17.1031 22.0507L16.3836 22.455C15.7928 22.7672 14.2241 23.486 12.0345 23.3288C9.11294 23.1094 7.47127 21.7063 6.73657 20.9751C6.39135 20.63 6.23428 20.2418 6.1326 19.7584C5.65361 19.4879 5.30265 19.2086 5.01519 18.8511C4.90507 18.7136 4.80407 18.5652 4.70881 18.4014C4.50681 18.0746 4.54836 17.6856 4.59126 17.3558L4.68111 17.0787C4.36224 16.8265 4.03154 16.5618 3.90217 16.2985C3.61234 15.737 3.78799 15.253 3.98864 14.8786C3.81502 14.6607 3.65592 14.4428 3.58701 14.2249C3.49952 13.9756 3.48601 13.7234 3.51202 13.4441C3.57079 12.9776 3.80117 12.5425 4.10349 12.1667C4.73584 11.3712 5.74583 10.7482 7.45675 10.1406C9.14266 9.53082 9.81993 9.43723 11.0867 9.12429C11.6498 8.98317 12.2547 8.87788 12.8695 8.7704C13.8731 8.59565 14.903 8.41578 15.8218 8.06775C11.6899 7.28905 7.40067 8.00487 3.90217 10.6056L4.13186 9.87374C7.26995 7.66122 10.7401 6.35242 16.6133 7.45941C16.9301 7.25615 17.1169 7.05288 17.2047 6.64854C15.7353 6.07238 14.1383 5.86984 12.0801 5.89982C10.2364 5.96343 6.90952 6.7085 5.12734 7.85059L5.67186 7.11649C6.90952 6.31878 10.1486 5.27613 12.5837 5.22934C14.2953 5.18327 15.1736 5.29149 17.2186 5.88447C17.0426 5.53789 16.669 5.35071 16.1184 5.0736L15.9941 5.01145ZM19.1322 8.25493C19.0761 7.81842 18.6153 7.39726 18.2113 7.11649C18.1539 7.33511 17.9401 7.5998 17.7949 7.77162C18.2411 7.89738 18.7018 8.08164 19.1322 8.25493ZM17.1618 8.39385C16.872 8.64391 16.5427 8.86107 16.0515 9.0658C16.4873 9.14842 16.8642 9.25883 17.2267 9.37581C17.5364 9.47525 17.8357 9.57908 18.1532 9.67267C18.1603 9.67632 18.1684 9.67779 18.1762 9.67706C18.3262 9.67706 18.8194 9.18351 18.9045 9.04825C18.412 8.81427 17.8074 8.57957 17.1618 8.39385ZM20.2418 10.6853C20.4279 10.2956 20.3131 10.0463 19.9256 9.68729C19.7665 9.89202 19.5936 10.0617 19.4068 10.2174C19.7084 10.3731 19.9837 10.4835 20.2418 10.6853ZM13.7647 9.86058C11.8642 10.1099 9.76116 10.5442 7.96242 11.1219L7.86649 11.1533C6.9737 11.4472 3.59782 12.5557 4.62301 14.0838C4.63348 14.0838 5.2736 13.1282 7.6878 12.3685C9.26562 11.8669 10.8833 11.5481 12.5263 11.2242C14.0021 10.9332 15.4985 10.6378 17.0041 10.2028C15.7654 9.84596 15.0719 9.68729 13.7647 9.86058ZM15.8228 11.7463C14.801 12.0263 12.3236 12.416 9.66151 13.039C8.82581 13.2415 6.53593 13.8177 5.41311 14.8472C5.55903 14.9773 5.68064 15.0607 5.80292 15.1338C5.9458 15.2193 6.09004 15.291 6.27583 15.4087C6.73657 15.0804 7.37095 14.7689 8.30832 14.5028C9.93208 14.0363 11.1586 13.8352 12.6266 13.572C14.0808 13.3336 16.8298 12.7107 18.3407 12.1184C18.6961 11.9883 19.0288 11.826 19.3095 11.6373C19.4284 11.5576 19.5382 11.4735 19.6365 11.3851C19.5355 11.2622 18.5566 10.7482 18.5275 10.7957C17.9249 11.1065 17.0608 11.4172 15.8228 11.7463ZM12.2794 14.8808C11.1782 15.0782 10.1172 15.2683 8.99741 15.5659C8.49377 15.7041 7.97559 15.8767 7.50235 16.0938C7.97559 16.3592 8.49444 16.5939 9.01194 16.8126C10.0483 16.485 10.5401 16.3446 12.0345 16.0799C12.6108 15.9688 14.3673 15.6266 15.6337 15.3488C17.9249 14.8165 21.2788 13.6627 20.3864 12.1667C20.3418 12.2076 20.2972 12.2449 20.2526 12.2822C20.1962 12.3305 20.1401 12.3787 20.0841 12.4321C19.4068 12.99 18.3269 13.4441 16.845 13.8659C15.1256 14.3697 13.6704 14.6307 12.2794 14.8808ZM5.3621 16.1699C5.40534 16.134 5.44756 16.0982 5.48573 16.0631C5.30029 15.9593 5.16112 15.8686 5.01958 15.7721L4.80846 15.6259C4.75779 15.7509 4.77434 15.8803 4.82805 15.998C4.89662 16.1479 5.026 16.2795 5.15436 16.3592C5.21651 16.292 5.29049 16.2298 5.3621 16.1699ZM7.83102 17.2637C7.41385 17.0612 6.9683 16.8601 6.53593 16.6415C6.3346 16.7818 6.14848 16.9208 6.0039 17.0612C6.34913 17.2798 6.68118 17.4808 7.02707 17.6863C7.28143 17.5167 7.55065 17.3748 7.83102 17.2637ZM6.14848 18.7143C6.19003 18.5571 6.26333 18.4336 6.36433 18.2778C6.11808 18.1352 5.87386 17.9963 5.62963 17.8238C5.61376 18.1214 5.78806 18.386 6.14848 18.7143Z" fill="#476BF0"/>
</svg>
