<svg width="134" height="38" viewBox="0 0 134 38" fill="none" xmlns="http://www.w3.org/2000/svg">
<path fill-rule="evenodd" clip-rule="evenodd" d="M10.4007 21.0176L13.7513 17.4501V15.0196L10.4007 18.5788V21.0176ZM10.4007 11.9712L13.7513 8.38726V6.10507L10.4007 9.65606V11.963V11.9712ZM10.4007 14.9619L13.7513 11.3945V9.10405L10.4007 12.6633V14.9619ZM9.4455 6.12978L8.99066 5.6684V0H8.49034V5.12463L8.05065 4.65501V0H7.54275V4.11948L7.09548 3.64162V0H6.59516V5.40476L9.96099 8.97222V0H9.45309V6.12978H9.4455ZM10.4007 17.9527L13.7513 14.3852V12.0948L10.4007 15.654V17.9527ZM6.58758 17.4501L9.95341 21.0176V18.5788L6.58758 15.0196V17.4501ZM13.251 3.64162L12.8038 4.11948V0H12.3034V4.66325L11.8486 5.12463V0H11.3483V5.66016L10.9086 6.12978V0H10.4007V8.98046L13.7513 5.40476V0H13.251V3.64162ZM6.58758 8.38726L9.95341 11.9712V9.6643L6.58758 6.09683V8.37902V8.38726ZM6.58758 11.3945L9.95341 14.9619V12.655L6.58758 9.11229V11.3945ZM6.58758 14.3852L9.95341 17.9527V15.654L6.58758 12.103V14.3852ZM26.5779 16.2719H18.4211C18.5991 15.9724 18.6938 15.6234 18.694 15.2668C18.6898 14.2257 17.8856 13.3591 16.9277 13.3636C15.9755 13.368 15.1806 14.232 15.1765 15.2668C15.1765 15.6787 15.2978 16.0577 15.5025 16.3708C15.3499 16.4812 15.2538 16.6742 15.2523 16.8734C15.2523 17.0876 15.3585 17.2771 15.5025 17.3842C15.2913 17.7066 15.1774 18.0924 15.1765 18.4882C15.1765 19.5248 15.9739 20.3914 16.9277 20.3914C17.8856 20.3959 18.6898 19.5294 18.694 18.4882C18.694 18.1175 18.5954 17.7714 18.4211 17.4831H24.4932V17.8868H23.8868V18.447H24.4932V19.0238H23.8868V20.0948H24.4932V19.617H25.3802V20.0948H25.979V19.0238H25.3802V18.447H25.979V17.8868H25.3802V17.4748H26.5779C26.8091 17.4748 27.0024 17.2647 27.0024 17.0134V16.7333C26.9984 16.4838 26.8075 16.2763 26.5779 16.2719ZM17.8374 18.4965C17.8374 19.035 17.4231 19.4851 16.9277 19.4851C16.4322 19.4851 16.018 19.035 16.018 18.4965C16.018 18.1181 16.2547 17.8004 16.4273 17.4913C16.2633 17.339 16.1668 17.1079 16.1696 16.8734C16.1696 16.6262 16.2681 16.412 16.4198 16.2637C16.2565 15.9532 16.0201 15.6317 16.0256 15.2585C16.0256 14.72 16.4398 14.2699 16.9352 14.2699C17.4307 14.2699 17.8449 14.72 17.8449 15.2585C17.8449 15.6623 17.4204 16.618 17.4204 16.618V17.1288C17.4128 17.137 17.8374 18.0927 17.8374 18.4965ZM3.54013 15.1102V17.4913C3.54013 19.757 4.44982 21.2236 4.98047 21.7838L8.45243 25.4913C9.42276 26.5212 9.58954 26.859 9.80938 27.444V24.8075C9.80938 22.6618 8.89139 21.7216 8.30061 21.1166C7.26853 20.0595 6.25603 18.9765 5.25337 17.8868C4.49486 17.1154 3.90882 16.1657 3.54013 15.1102ZM5.25337 23.7694C4.54803 23.0746 3.96939 22.2417 3.54771 21.3142V23.3657C3.52505 24.9465 4.03458 26.4818 4.98047 27.6829L8.45243 31.3657C9.3888 32.3595 9.57688 32.8547 9.78645 33.4064L9.80938 33.4666V30.6901C9.80938 28.5405 8.88817 27.5993 8.30203 27.0004L8.30169 27L8.30078 26.9991C7.27067 25.9463 6.25389 24.8568 5.25337 23.7694ZM15.0635 4.39947C14.8232 4.39948 14.583 4.39963 14.3427 4.41595V5.51997C20.1292 5.03767 25.731 8.6177 28.1562 14.348C28.9509 16.2257 29.3859 18.2594 29.4348 20.3256C29.5329 24.4708 28.0317 28.559 25.3347 31.492C22.6377 34.4249 18.8769 36.0588 15.0629 35.9547C11.3447 35.9591 7.77711 34.3585 5.14442 31.5049C2.51173 28.6514 1.02943 24.7783 1.0234 20.7373C1.0234 16.0658 2.95648 11.8969 6.01151 9.09568V7.67858C4.14405 9.19718 2.62829 11.1683 1.58472 13.4353C0.541144 15.7022 -0.00147245 18.2025 3.00093e-06 20.7373C3.00093e-06 29.759 6.74683 37.0752 15.0705 37.0752C19.06 37.0774 22.8871 35.3575 25.7103 32.2938C28.5335 29.2301 30.1217 25.0733 30.1257 20.7373C30.1257 11.7159 23.3793 4.39985 15.0635 4.39947ZM26.3809 28.2018C26.1762 28.5726 25.9488 28.9351 25.7213 29.2729V26.0103H26.3809V28.2018ZM27.7102 24.9915C27.6892 25.0667 27.668 25.1426 27.6468 25.2193C27.283 24.8156 26.631 24.8238 26.0473 24.8403H25.7213V24.2636H27.9046C27.8464 24.5037 27.7794 24.7439 27.7102 24.9915ZM12.5082 24.173H13.0995V24.1812V30.69H12.5082V24.173ZM11.1436 22.9282H13.0994C13.6073 22.9282 13.9636 23.0436 14.1607 23.2578C14.3654 23.4638 14.4639 23.851 14.4639 24.3948V30.4916C14.4639 31.0354 14.373 31.4144 14.1607 31.6286C13.8575 31.9664 13.2813 31.9664 12.8113 31.9664L12.5081 31.9581V34.8418L13.0994 34.9571V32.5843C14.0091 32.5843 14.5928 32.2547 14.8733 31.5791V35.1137H15.0704L15.4494 35.1054V24.5019C15.4494 23.9416 15.548 23.5462 15.7526 23.3237C15.9422 23.1013 16.2985 22.9942 16.7912 22.9942C16.8609 22.9942 16.9351 22.9926 17.0121 22.991C17.4964 22.9809 18.0951 22.9683 18.4286 23.3237C18.6257 23.5462 18.7167 23.9499 18.7167 24.5019V27.6327H17.3749V24.2877H16.7912V34.9901C16.9883 34.9654 17.1702 34.9324 17.3749 34.8912V28.2588H18.7167V34.5534C18.9896 34.471 19.2625 34.3804 19.5354 34.2733V28.506C19.5354 27.8469 19.6795 27.3526 20.2935 27.1301L19.6112 23.1177H20.9758L21.2032 27.4926H21.37L21.5974 23.1177H23.0225L22.2569 27.1301C22.8937 27.3773 23.0225 27.7975 23.0225 28.4978V32.23C23.4202 31.9059 23.7999 31.5565 24.1597 31.1837V23.0848H28.1395L28.2153 22.4916H18.8986L19.0275 23.2248C18.7394 22.6316 18.1785 22.335 17.3598 22.335H16.776C15.7906 22.335 15.1841 22.7635 14.9567 23.6121C14.752 22.7223 14.1228 22.2774 13.0918 22.2774H10.5447V34.2403C10.7418 34.3145 10.9389 34.3886 11.136 34.4463V22.9365L11.1436 22.9282ZM23.4926 27.5256L22.8482 26.8665L23.4926 23.266V27.5256ZM21.072 33.5475C21.0373 33.567 21.0026 33.5864 20.9682 33.6058V33.5976V28.3246H21.5746V33.2515C21.417 33.3543 21.2437 33.4514 21.072 33.5475Z" fill="#42AB44"/>
<path fill-rule="evenodd" clip-rule="evenodd" d="M112.422 14.2489L112.253 12.8516C111.705 12.9859 111.145 13.0479 110.591 13.1416C109.435 13.3293 108.299 13.8395 107.607 14.908C106.88 16.0616 106.758 17.5428 106.758 18.9023C106.758 21.1238 107.542 23.2656 109.803 23.2656C111.646 23.2656 112.774 21.615 112.774 19.7459C112.774 17.9029 111.847 16.3581 110.033 16.3581C109.439 16.3581 108.845 16.5628 108.347 16.9117C108.46 16.0856 108.719 15.5144 109.123 15.1453C109.571 14.717 110.195 14.5592 110.773 14.4862C111.325 14.4219 111.878 14.3673 112.422 14.2489ZM108.299 18.309C108.665 17.8912 109.248 17.7158 109.766 17.7158C110.821 17.7158 111.282 18.7162 111.282 19.7459C111.282 20.7601 110.88 21.8815 109.803 21.8815C108.932 21.8815 108.473 21.1377 108.347 20.2732C108.258 19.6575 108.21 18.935 108.299 18.309ZM116.528 21.9604C116.981 21.9604 117.325 21.9341 117.559 21.8813V20.1149C117.126 19.9738 116.645 19.9669 116.201 20.0358C115.736 20.1116 115.315 20.399 115.315 20.9586C115.315 21.7382 115.9 21.9604 116.528 21.9604ZM116.407 16.0152C118.019 16.0152 118.978 16.9823 118.978 18.7439V22.9227C117.829 23.1904 116.524 23.3982 115.364 23.1073C114.393 22.8638 113.848 22.0725 113.848 20.9981C113.848 19.9213 114.525 19.1793 115.473 18.968C116.158 18.8004 116.877 18.8164 117.559 18.9944C117.559 18.0414 117.238 17.3598 116.261 17.3598C115.719 17.3598 115.149 17.4205 114.636 17.6234L114.454 16.3316C115.071 16.0983 115.757 16.0152 116.407 16.0152ZM124.633 23.0809H126.1V16.1866H124.633V18.8758H122.243V16.1866H120.776V23.0809H122.243V20.194H124.633V23.0809ZM129.433 18.9549V16.1866H127.965V23.0809H129.433V19.9831C130.438 20.7924 131.325 21.9362 131.992 23.0809H133.69C132.972 21.6845 131.931 20.3512 130.804 19.324C131.734 18.3133 132.659 17.278 133.508 16.1866H131.786C131.044 17.1448 130.248 18.0692 129.433 18.9549ZM100.633 16.398C101.27 16.1318 102.004 16.0289 102.683 16.0289C103.811 16.0289 105.278 16.4703 105.278 17.9667C105.278 18.6265 104.901 19.1934 104.357 19.4695C105.072 19.7633 105.485 20.4036 105.485 21.2359C105.485 22.7925 103.943 23.2528 102.743 23.2528C101.998 23.2528 101.164 23.1665 100.475 22.831L100.73 21.5391C101.341 21.8186 102.012 21.9214 102.671 21.9214C103.56 21.9214 104.005 21.6401 104.005 21.0777C104.005 20.3304 103.297 20.1418 102.719 20.1418H101.506V18.9553H102.707C103.196 18.9553 103.799 18.7943 103.799 18.1512C103.799 17.5119 103.083 17.3471 102.622 17.3471C102.065 17.3471 101.414 17.4415 100.9 17.6898L100.633 16.398ZM99.5776 19.6272C99.5776 17.688 98.4025 16.0152 96.5332 16.0152C94.6605 16.0152 93.4888 17.6889 93.4888 19.6272C93.4888 21.5697 94.6516 23.2655 96.5332 23.2655C98.4246 23.2655 99.5776 21.5789 99.5776 19.6272ZM98.0736 19.6272C98.0736 20.6746 97.6561 21.8813 96.5332 21.8813C95.4001 21.8813 94.9928 20.683 94.9928 19.6272C94.9928 18.5769 95.4119 17.3993 96.5332 17.3993C97.6442 17.3993 98.0736 18.5853 98.0736 19.6272ZM89.914 18.4407L91.2604 16.1866H92.8008L90.7146 19.4426C91.5297 20.591 92.3524 21.7841 92.9584 23.0809H91.3695C90.9728 22.1706 90.4148 21.3049 89.8655 20.4972C89.2903 21.3009 88.7959 22.1795 88.3615 23.0809H86.8575C87.446 21.8017 88.2459 20.618 89.0529 19.4953L86.9545 16.1866H88.5677L89.914 18.4407ZM82.9782 18.6385C82.7437 18.6648 82.5658 18.6956 82.4445 18.7308V16.1866H80.9769V22.9096C81.8258 23.1225 82.6893 23.2259 83.5604 23.2259C84.9417 23.2259 86.3016 22.626 86.3016 20.919C86.3016 18.9313 84.471 18.4706 82.9782 18.6385ZM82.9054 21.9604C82.7033 21.9429 82.5496 21.9253 82.4445 21.9077V19.9435C82.5658 19.9084 82.7194 19.8864 82.9054 19.8776C83.6059 19.8114 84.834 19.8235 84.834 20.8927C84.834 22.039 83.6756 21.9926 82.9054 21.9604ZM76.0248 17.5048C75.9995 18.7111 75.9887 19.9608 75.5881 21.1036C75.1507 22.3514 74.134 23.0842 72.9318 23.2128L72.7256 21.8813C73.7068 21.6723 74.2487 20.9637 74.4237 19.9172C74.5448 19.2967 74.5903 18.652 74.6057 18.0189C74.6204 17.4082 74.6178 16.7974 74.6178 16.1866H79.1056V23.0809H77.6379V17.5048H76.0248ZM66.2574 19.6667C66.2574 21.8126 67.5309 23.2523 69.5202 23.2523C70.1803 23.2523 70.9694 23.17 71.57 22.8436L71.3759 21.5386C70.8572 21.7802 70.262 21.8681 69.7021 21.8681C68.6669 21.8681 67.8598 21.3086 67.7736 20.1281H71.9581C71.9761 19.9328 71.9824 19.7311 71.9824 19.5349C71.9824 17.6283 71.1023 16.0152 69.2048 16.0152C67.3486 16.0152 66.2574 17.7947 66.2574 19.6667ZM70.5147 18.9549H67.7857C67.8869 18.1118 68.3652 17.3466 69.2169 17.3466C70.0407 17.3466 70.5147 18.119 70.5147 18.9549ZM60.5364 19.6403C60.5364 17.6516 61.7904 16.0152 63.6778 16.0152C64.2762 16.0152 64.8422 16.1338 65.3759 16.3711L65.0605 17.6762C64.6647 17.4918 64.229 17.3993 63.7991 17.3993C62.5974 17.3993 62.0404 18.436 62.0404 19.6403C62.0404 20.9466 62.6366 21.8681 63.8961 21.8681C64.3586 21.8681 64.8374 21.7822 65.2667 21.5913L65.4729 22.9096C64.9573 23.1897 64.2929 23.2523 63.7263 23.2523C61.7414 23.2523 60.5364 21.7517 60.5364 19.6403ZM54.8153 19.6403C54.8153 21.7517 56.0203 23.2523 58.0053 23.2523C58.5718 23.2523 59.2363 23.1897 59.7519 22.9096L59.5457 21.5913C59.1163 21.7822 58.6375 21.8681 58.1751 21.8681C56.9155 21.8681 56.3193 20.9466 56.3193 19.6403C56.3193 18.436 56.8764 17.3993 58.078 17.3993C58.508 17.3993 58.9436 17.4918 59.3395 17.6762L59.6548 16.3711C59.1211 16.1338 58.5551 16.0152 57.9567 16.0152C56.0693 16.0152 54.8153 17.6516 54.8153 19.6403ZM53.6551 19.6272C53.6551 21.5789 52.5021 23.2655 50.6106 23.2655C48.7291 23.2655 47.5662 21.5697 47.5662 19.6272C47.5662 17.6889 48.738 16.0152 50.6106 16.0152C52.48 16.0152 53.6551 17.688 53.6551 19.6272ZM52.1511 19.6272C52.1511 18.5853 51.7217 17.3993 50.6106 17.3993C49.4894 17.3993 49.0702 18.5769 49.0702 19.6272C49.0702 20.683 49.4775 21.8813 50.6106 21.8813C51.7335 21.8813 52.1511 20.6746 52.1511 19.6272ZM45.6127 14.5783C44.9658 14.0949 44.0319 13.8533 42.8109 13.8533C42.0219 13.8533 41.2052 13.8868 40.4336 14.0774V23.0809H41.9619V19.8644H42.726C43.3405 19.8644 43.8864 19.8073 44.3634 19.693C45.7096 19.3707 46.5952 18.3854 46.5952 16.8457C46.5952 15.8174 46.2677 15.0617 45.6127 14.5783ZM41.9619 15.3297C42.2125 15.3033 42.5319 15.2901 42.9201 15.2901C43.8811 15.2901 44.9941 15.5702 44.9941 16.8325C44.9941 18.2386 43.7538 18.4407 42.7017 18.4407H41.9619V15.3297Z" fill="#1C1C1C"/>
</svg>
