<svg width="125" height="21" viewBox="0 0 125 21" fill="none" xmlns="http://www.w3.org/2000/svg">
<path d="M55.466 6.36854L58.0846 4.27155H49.4021V16.7037H58.0846V14.6067H51.8828V11.4612H57.1198V9.36423H51.8828V6.36854H55.466ZM44.6474 6.36854L47.2659 4.27155H37.343V16.7037H42.5112C45.4053 16.7037 47.0592 15.2807 47.0592 12.8093C47.0592 10.4127 45.5432 9.13955 42.7868 9.13955H39.7548V6.36854H44.6474ZM42.4423 11.1616C44.0272 11.1616 44.7163 11.7608 44.7163 12.8842C44.7163 14.0076 43.9583 14.6067 42.4423 14.6067H39.8237V11.1616H42.4423ZM65.0444 4.27155H60.3586V16.7037H62.8393V13.1837H65.1133C68.1453 13.1837 70.0058 11.4612 70.0058 8.6902C70.0058 5.91918 68.0764 4.27155 65.0444 4.27155ZM65.0444 11.0868H62.8393V6.29364H65.0444C66.6293 6.29364 67.5251 7.11746 67.5251 8.6902C67.4562 10.2629 66.6293 11.0868 65.0444 11.0868ZM33.1396 14.0076C32.4505 14.382 31.7614 14.6067 31.0034 14.6067C28.7983 14.6067 27.1445 12.8842 27.1445 10.4876C27.1445 8.09106 28.7294 6.36854 31.0034 6.36854C31.8303 6.36854 32.5883 6.66811 33.2774 7.11746L35.069 5.69451L34.9312 5.54472C33.8976 4.57112 32.5194 4.04688 30.9345 4.04688C29.2118 4.04688 27.6958 4.64601 26.5243 5.84429C25.4218 7.04257 24.7327 8.6902 24.8016 10.4127C24.8016 12.1352 25.4218 13.7829 26.5243 15.056C27.6958 16.2543 29.2807 16.9283 30.8656 16.8535C32.6572 16.8535 34.1732 16.1794 35.2757 14.9811L33.6908 13.708L33.1396 14.0076ZM107.492 9.36423H102.186V4.27155H99.7055V16.7037H102.186V11.611H107.492V16.7037H109.973V4.27155H107.492V9.36423ZM90.7474 4.27155L85.7859 16.7037H88.2666L89.2314 14.2322H94.4684L95.4332 16.7037H98.0517L93.2281 4.27155H90.7474ZM90.0583 12.1352L91.9877 7.11746L93.7794 12.1352H90.0583ZM118.931 10.2629L123.41 4.27155H120.585L116.864 9.5889H115.486V4.27155H113.005V16.7037H115.486V11.6859H117.071L120.861 16.7037H124.03L118.931 10.2629ZM80.6178 9.13955H77.5858V6.36854H84.0632V4.27155H75.1051V16.7037H80.2732C83.1674 16.7037 84.8212 15.2807 84.8212 12.8093C84.8901 10.4127 83.3741 9.13955 80.6178 9.13955ZM80.2043 14.6816H77.5858V11.2365H80.2043C81.7892 11.2365 82.4783 11.8357 82.4783 12.9591C82.5472 14.0824 81.7203 14.6816 80.2043 14.6816Z" fill="#21A038"/>
<path d="M16.871 4.04688C17.3183 4.68393 17.6971 5.37604 17.9995 6.1093L9.42108 13.0745L5.83594 10.5991V7.62109L9.42108 10.0965L16.871 4.04688Z" fill="#21A038"/>
<path d="M2.17565 10.3828C2.17565 10.2492 2.17861 10.1164 2.18453 9.98446L0.0118329 9.86719C0.00443773 10.0382 2.6256e-06 10.2109 2.6256e-06 10.3852C-0.000921797 11.747 0.242266 13.0956 0.71562 14.3536C1.18897 15.6116 1.88317 16.7543 2.75839 17.7161L4.29954 16.0194C3.62583 15.2804 3.09136 14.4019 2.72688 13.4346C2.36239 12.4673 2.17506 11.4301 2.17565 10.3828Z" fill="url(#paint0_linear_1565_3757)"/>
<path d="M9.41327 2.39477C9.53453 2.39477 9.65503 2.39966 9.77484 2.40617L9.88355 0.0122254C9.7278 0.00407992 9.571 7.6931e-06 9.41327 7.6931e-06C8.1763 -0.00165378 6.9513 0.26582 5.8085 0.787071C4.66569 1.30832 3.62763 2.07309 2.75391 3.03745L4.29505 4.73496C4.96608 3.99264 5.76371 3.40375 6.64208 3.00213C7.52044 2.60052 8.46219 2.39411 9.41327 2.39477Z" fill="url(#paint1_linear_1565_3757)"/>
<path d="M9.41636 18.3472C9.2951 18.3472 9.17453 18.3472 9.05403 18.3366L8.94531 20.7297C9.10159 20.7384 9.25862 20.7428 9.41636 20.7428C10.6528 20.7442 11.8772 20.4765 13.0194 19.9551C14.1616 19.4337 15.199 18.6688 16.072 17.7045L14.5339 16.0078C13.8627 16.7497 13.0652 17.3383 12.187 17.7398C11.3088 18.1412 10.3672 18.3477 9.41636 18.3472Z" fill="url(#paint2_linear_1565_3757)"/>
<path d="M13.507 3.78765L15.338 2.3011C13.6644 0.808417 11.5754 -0.00414353 9.42188 1.58897e-05V2.39559C10.8801 2.3936 12.3045 2.879 13.507 3.78765Z" fill="url(#paint3_linear_1565_3757)"/>
<path d="M18.834 10.3822C18.8352 9.75904 18.7857 9.13693 18.6861 8.52344L16.6591 10.1688C16.6591 10.2397 16.6591 10.3106 16.6591 10.3822C16.6597 11.4968 16.4475 12.599 16.0366 13.6174C15.6256 14.6359 15.0249 15.5478 14.2734 16.2942L15.7355 18.074C16.7124 17.1026 17.4931 15.9159 18.0269 14.5908C18.5607 13.2657 18.8357 11.8319 18.834 10.3822Z" fill="#21A038"/>
<path d="M9.42075 18.3621C8.4088 18.3625 7.40807 18.1288 6.4833 17.6761C5.55859 17.2235 4.73047 16.5619 4.0526 15.7344L2.4375 17.3439C3.31934 18.4201 4.3967 19.2801 5.59972 19.8683C6.80274 20.4563 8.10454 20.7594 9.42075 20.7576V18.3621Z" fill="url(#paint4_linear_1565_3757)"/>
<path d="M4.56134 4.47509L3.10005 2.69531C2.12284 3.66656 1.34187 4.85319 0.807816 6.17827C0.273765 7.50334 -0.00145601 8.93726 5.79273e-06 10.387H2.17566C2.17521 9.27258 2.38735 8.17035 2.79832 7.15191C3.20929 6.1335 3.80994 5.22152 4.56134 4.47509Z" fill="url(#paint5_linear_1565_3757)"/>
<defs>
<linearGradient id="paint0_linear_1565_3757" x1="3.19841" y1="17.4172" x2="0.379088" y2="10.0179" gradientUnits="userSpaceOnUse">
<stop offset="0.14" stop-color="#F1E813"/>
<stop offset="0.3" stop-color="#E6E418"/>
<stop offset="0.58" stop-color="#C9DA26"/>
<stop offset="0.89" stop-color="#A2CC39"/>
</linearGradient>
<linearGradient id="paint1_linear_1565_3757" x1="3.3751" y1="3.46101" x2="9.63707" y2="1.29447" gradientUnits="userSpaceOnUse">
<stop offset="0.06" stop-color="#0FA7DF"/>
<stop offset="0.54" stop-color="#0098F8"/>
<stop offset="0.92" stop-color="#0290EA"/>
</linearGradient>
<linearGradient id="paint2_linear_1565_3757" x1="8.80187" y1="19.2969" x2="15.7848" y2="17.8647" gradientUnits="userSpaceOnUse">
<stop offset="0.12" stop-color="#A2CC39"/>
<stop offset="0.28" stop-color="#86C239"/>
<stop offset="0.87" stop-color="#219F38"/>
</linearGradient>
<linearGradient id="paint3_linear_1565_3757" x1="8.96933" y1="0.802341" x2="14.9802" y2="2.48643" gradientUnits="userSpaceOnUse">
<stop offset="0.06" stop-color="#0290EA"/>
<stop offset="0.79" stop-color="#0C89CA"/>
</linearGradient>
<linearGradient id="paint4_linear_1565_3757" x1="2.98326" y1="17.0523" x2="9.56776" y2="19.2865" gradientUnits="userSpaceOnUse">
<stop offset="0.13" stop-color="#F1E813"/>
<stop offset="0.3" stop-color="#EAE616"/>
<stop offset="0.53" stop-color="#D8DF1F"/>
<stop offset="0.8" stop-color="#BAD52D"/>
<stop offset="0.98" stop-color="#A2CC39"/>
</linearGradient>
<linearGradient id="paint5_linear_1565_3757" x1="0.810512" y1="10.677" x2="3.86416" y2="3.4651" gradientUnits="userSpaceOnUse">
<stop offset="0.07" stop-color="#A2CC39"/>
<stop offset="0.26" stop-color="#81C45E"/>
<stop offset="0.92" stop-color="#0FA7DF"/>
</linearGradient>
</defs>
</svg>
