<svg width="71" height="27" viewBox="0 0 71 27" fill="none" xmlns="http://www.w3.org/2000/svg">
<path d="M4.92528 0L3.6927 3.77475H20.7674L22 0H4.92528ZM3.07713 5.66052L1.84456 9.43447H18.9193L20.1519 5.66052H3.07713ZM1.23257 11.321L0 15.0942H17.0747L18.3059 11.3202C18.3066 11.321 1.23257 11.321 1.23257 11.321Z" fill="#009FDF"/>
<path d="M35.512 15.463V15.5374C36.2799 15.8358 37.014 16.3582 37.3979 16.6938C38.5849 17.7386 39.1095 19.1181 39.1095 20.9085C39.1095 23.8567 37.6427 25.9819 35.2321 26.6538C34.498 26.8778 33.7301 26.9522 32.2984 26.9522H25V5.39062H31.4616C32.7893 5.39062 33.6964 5.46503 34.4994 5.68826C36.8396 6.36021 38.3768 8.07615 38.3768 10.7989C38.3768 12.2544 37.8881 13.4859 37.0851 14.3059C36.7356 14.6787 36.2469 15.1267 35.5134 15.4623L35.512 15.463ZM29.0511 17.7386V23.4087H31.8456C32.6831 23.4087 33.4524 23.3343 34.0107 22.7748C34.5697 22.2152 34.8137 21.506 34.8137 20.5736C34.8137 19.866 34.6386 19.1941 34.2898 18.7089C33.6964 17.9253 32.9622 17.7386 31.7056 17.7386H29.0504H29.0511ZM29.0152 14.0075H31.2858C31.9841 14.0075 32.3336 14.0075 32.6823 13.8959C33.626 13.5968 34.2195 12.7031 34.2195 11.4716C34.2195 10.0168 33.5909 9.38208 32.6823 9.08445C32.2977 8.97208 31.9145 8.93563 31.1459 8.93563H29.0152V14.0083V14.0075ZM45.1865 26.953V9.00928H39.3542V5.39138H55.5607L54.4082 9.00928H49.2383V26.953H45.1865ZM56.818 26.953V5.39138H69.9508L68.7983 9.00928H60.8353V13.7851H64.0841C66.7035 13.7851 68.0656 14.457 69.0093 15.3142C69.7434 15.9862 71 17.4774 71 20.4256C71 23.3351 69.7083 24.9387 68.6246 25.7602C67.3673 26.6918 66.0404 26.9538 63.35 26.9538H56.8187H56.818V26.953ZM60.8346 23.3336H63.8731C65.0257 23.3336 65.7239 23.0352 66.2126 22.3632C66.4566 22.0284 66.8061 21.4301 66.8061 20.3117C66.8061 19.1933 66.4566 18.409 65.7584 17.8494C65.34 17.5146 64.7802 17.3285 63.8372 17.3285H60.8332V23.3336H60.8346Z" fill="#0A2973"/>
</svg>
