<svg width="76" height="66" viewBox="0 0 76 66" fill="none" xmlns="http://www.w3.org/2000/svg">
<g clip-path="url(#clip0_25_1961)">
<path d="M3.70229 63.3049L1.53086 56.4079C1.3444 55.307 0.806621 54.2984 0 53.5369L0 53.4819H2.69257C2.67025 53.9398 2.74427 54.3973 2.90971 54.8239L5.65657 63.5139L7.828 56.4079C8.17543 55.3079 8.54457 54.0539 7.53486 53.5259V53.4819H10.1406C10.0672 54.1258 10.1608 54.7779 10.412 55.3739L12.9743 63.4589L15.048 56.6279C15.3846 55.5279 15.9926 54.0429 14.5594 53.5479V53.4819H17.3714L13.4954 66.3299C11.8017 65.1529 11.6714 65.2299 11.0634 63.3269L9.03314 56.8919L6.156 66.3299C4.484 65.0979 4.34286 65.2299 3.70229 63.3049Z" fill="white"/>
<path d="M20.8023 53.1738V58.1128C21.144 57.7297 21.5635 57.4261 22.0321 57.2229C22.5007 57.0197 23.0071 56.9218 23.5166 56.9358C26.068 56.9358 26.676 58.4868 26.676 60.3018V63.7008C26.676 64.5588 26.5566 65.2518 27.3709 65.7138V65.7688H24.3634V65.7138C25.1669 65.2408 25.0474 64.6138 25.0474 63.7008V60.8628C25.0474 59.3448 24.5697 58.1678 22.9737 58.1678C21.3777 58.1678 20.8023 59.0808 20.8023 60.7528V63.7008C20.8023 64.5588 20.6937 65.2518 21.508 65.7138V65.7688H18.4572V65.7138C19.2714 65.2408 19.1629 64.6138 19.1629 63.7008V55.5498C19.1629 54.6918 19.2714 53.9988 18.4572 53.5368V53.4818H19.6623C19.863 53.5154 20.0685 53.5053 20.265 53.4522C20.4616 53.3991 20.6447 53.3042 20.8023 53.1738Z" fill="white"/>
<path d="M29.0864 54.824C29.1032 54.5186 29.2379 54.2321 29.4613 54.0264C29.6847 53.8206 29.979 53.712 30.2806 53.724C30.4279 53.7239 30.5737 53.754 30.7091 53.8127C30.8445 53.8714 30.9667 53.9574 31.0682 54.0654C31.1698 54.1735 31.2486 54.3013 31.2998 54.4412C31.3511 54.5811 31.3737 54.73 31.3664 54.879C31.3724 55.1799 31.2623 55.4712 31.0595 55.691C30.8567 55.9108 30.5773 56.0418 30.2806 56.056C30.1215 56.0576 29.9638 56.0266 29.8168 55.965C29.6697 55.9033 29.5365 55.8123 29.425 55.6973C29.3135 55.5822 29.2261 55.4456 29.1679 55.2956C29.1097 55.1456 29.082 54.9852 29.0864 54.824ZM31.1384 56.881V63.701C31.1384 64.559 31.0298 65.252 31.8441 65.714V65.769H28.8041V65.714C29.6184 65.241 29.5098 64.614 29.5098 63.701V59.235C29.5098 58.377 29.6184 57.706 28.8041 57.233H29.8898C30.331 57.2738 30.7717 57.1485 31.1275 56.881H31.1384Z" fill="white"/>
<path d="M37.5441 64.79C37.7991 64.7721 38.049 64.7088 38.2823 64.603L37.3052 65.923C37.1158 65.9859 36.9182 66.0193 36.7189 66.022C33.8635 66.022 34.1241 63.03 34.1241 62.304V58.41H32.8646V57.739C34.6018 57.442 35.0361 56.133 35.0361 54.439H35.8286V57.2H37.5658C37.8028 57.2219 38.0415 57.1841 38.2606 57.09H38.3149V58.795H38.228C38.0522 58.6341 37.8425 58.5159 37.6149 58.4492C37.3874 58.3825 37.1478 58.3691 36.9143 58.41H35.8286V62.15C35.8286 62.865 35.5681 64.79 37.5441 64.79Z" fill="white"/>
<path d="M43.5589 58.1682C42.9987 58.1384 42.4472 58.318 42.0089 58.6728C41.5707 59.0276 41.2761 59.533 41.1812 60.0932H45.9475C45.8794 59.5185 45.5904 58.9941 45.1433 58.6338C44.6962 58.2735 44.1269 58.1062 43.5589 58.1682ZM44.7966 64.7682C45.8663 64.7858 46.9119 64.4455 47.7715 63.8002L46.8486 65.5602C46.037 65.8858 45.1701 66.0466 44.2972 66.0332C41.2572 66.0002 39.0858 64.0202 39.0858 61.4132C39.0726 60.8041 39.1843 60.1989 39.414 59.6359C39.6437 59.0729 39.9862 58.5643 40.42 58.1424C40.8538 57.7205 41.3693 57.3945 41.9339 57.1849C42.4985 56.9754 43.0999 56.887 43.7001 56.9252C44.2555 56.898 44.8105 56.9895 45.3287 57.1939C45.847 57.3982 46.317 57.7108 46.7082 58.1113C47.0994 58.5118 47.403 58.9912 47.5993 59.5184C47.7956 60.0456 47.8801 60.6087 47.8475 61.1712H41.1052C41.0873 61.6617 41.1714 62.1506 41.3522 62.606C41.533 63.0614 41.8064 63.4732 42.1545 63.8145C42.5027 64.1559 42.9179 64.4191 43.3731 64.5872C43.8283 64.7553 44.3133 64.8245 44.7966 64.7902V64.7682Z" fill="white"/>
<path d="M50.2686 56.936H50.3229C50.3522 57.2693 50.4328 57.5959 50.5617 57.904L52.7332 63.58L54.416 59.18C54.6766 58.509 55.1326 57.607 54.2532 57.222H56.6635V57.508C56.7186 57.8029 56.806 58.0907 56.924 58.366L58.824 63.635L60.5394 59.235C60.7783 58.597 61.2777 57.739 60.2789 57.277H62.7543L59.0629 66.11C58.5972 65.927 58.1831 65.6305 57.8574 65.2468C57.5317 64.8631 57.3044 64.404 57.1955 63.91L55.6103 59.609L53.0806 66.11C52.5952 65.9393 52.1593 65.6488 51.8125 65.2647C51.4656 64.8806 51.2186 64.415 51.0937 63.91L49.0743 58.641C48.9227 58.0696 48.5766 57.5709 48.0972 57.233H48.5749C49.1562 57.3119 49.7473 57.2083 50.2686 56.936Z" fill="white"/>
<path d="M64.144 54.824C64.1608 54.5166 64.297 54.2284 64.5228 54.0224C64.7485 53.8163 65.0456 53.709 65.3491 53.724C65.4964 53.7239 65.6422 53.754 65.7775 53.8127C65.9129 53.8714 66.0351 53.9574 66.1367 54.0654C66.2383 54.1735 66.3171 54.3013 66.3683 54.4412C66.4196 54.5811 66.4422 54.73 66.4348 54.879C66.4408 55.1799 66.3307 55.4712 66.128 55.691C65.9252 55.9108 65.6458 56.0418 65.3491 56.056C65.1895 56.0575 65.0313 56.0266 64.8837 55.9651C64.7361 55.9036 64.6022 55.8127 64.4898 55.6978C64.3775 55.583 64.289 55.4465 64.2296 55.2964C64.1702 55.1463 64.1411 54.9857 64.144 54.824ZM66.2286 56.881V63.701C66.2286 64.559 66.12 65.252 66.9234 65.714V65.769H63.8726V65.714C64.676 65.241 64.5674 64.614 64.5674 63.701V59.235C64.5674 58.377 64.676 57.706 63.8726 57.233H64.9583C65.4105 57.2845 65.8651 57.1585 66.2286 56.881Z" fill="white"/>
<path d="M70.7234 53.1738H70.7777V63.6898C70.7777 64.5478 70.6474 65.2408 71.4617 65.7028V65.7578H68.4V65.7138C69.1926 65.2408 69.084 64.6138 69.084 63.7008V55.5498C69.084 54.6918 69.1926 53.9988 68.4 53.5368V53.4818H69.4857C69.7017 53.5251 69.9244 53.5199 70.1383 53.4667C70.3521 53.4135 70.5518 53.3135 70.7234 53.1738Z" fill="white"/>
<path d="M75.2617 53.1738H75.316V63.6898C75.316 64.5478 75.1857 65.2408 75.9891 65.7028V65.7578H72.96V65.7138C73.7525 65.2408 73.644 64.6138 73.644 63.7008V55.5498C73.644 54.6918 73.7525 53.9988 72.96 53.5368V53.4818H74.0457C74.2583 53.5218 74.4769 53.5149 74.6867 53.4618C74.8965 53.4086 75.0926 53.3104 75.2617 53.1738Z" fill="white"/>
<path d="M7.66516 7.10597L23.4623 47.685H25.3406L8.69659 4.93896H8.66402L7.66516 7.10597Z" fill="white"/>
<path d="M5.23315 12.3862L18.9783 47.6852H20.8566L6.26458 10.2192H6.23201L5.23315 12.3862Z" fill="white"/>
<path d="M69.768 10.2192H69.7354L55.1434 47.6852H57.0217L70.7669 12.3862L69.768 10.2192Z" fill="white"/>
<path d="M10.0972 1.83692L27.9572 47.6849H29.8246L11.1286 -0.330078H11.096L10.0972 1.83692Z" fill="white"/>
<path d="M67.336 4.93896H67.3034L51.8103 44.704L51.4303 45.694L51.0503 44.704L35.7743 5.49997H35.7417L34.8188 7.86497L50.3337 47.685H52.5377L68.3348 7.10597L67.336 4.93896Z" fill="white"/>
<path d="M33.5377 11.2529H33.5051L32.5823 13.6179L45.8497 47.6849H47.728L33.5377 11.2529Z" fill="white"/>
<path d="M35.7743 28.5229H35.7417L30.3566 42.3499L31.2794 44.715H31.312L36.6971 30.8879L35.7743 28.5229Z" fill="white"/>
<path d="M33.5377 22.77H33.5051L28.12 36.586L29.032 38.951H29.0646L34.4497 25.135L33.5377 22.77Z" fill="white"/>
<path d="M31.2903 17.0059H31.2577L25.8726 30.8329L26.7954 33.1979H26.828L32.2131 19.3819L31.2903 17.0059Z" fill="white"/>
<path d="M64.8714 -0.330078L51.8103 33.1979L51.4303 34.1769L51.0503 33.1979L38.0217 -0.253078H37.9891L37.0663 2.11192L51.4194 38.9509H51.452L65.9137 1.83692L64.9149 -0.330078H64.8714Z" fill="white"/>
</g>
<defs>
<clipPath id="clip0_25_1961">
<rect width="76" height="66" fill="white"/>
</clipPath>
</defs>
</svg>
