<svg width="0" height="0" class="hidden">
    <symbol version="1.1" xmlns="http://www.w3.org/2000/svg" viewBox="0 0 512 512" id="search-loop">
        <path fill="currentColor" d="M373.332 312l-5.332 9.334 144 145.334-45.332 45.332-144-145.334-9.334 6.666c-35.556 22.224-72.445 33.334-110.667 33.334-56 0-103.778-19.998-143.333-59.998s-59.334-88-59.334-144.001c0-56 19.778-103.778 59.334-143.333s87.334-59.334 143.333-59.334c56.001 0 103.778 19.778 143.333 59.334 39.557 39.555 59.333 87.334 59.333 143.333 0 39.111-10.665 75.556-32 109.333zM316.002 89.333c-31.111-31.111-68.89-46.666-113.334-46.666s-82.222 15.556-113.334 46.666c-31.111 31.111-46.666 68.889-46.666 113.333s15.556 82.223 46.666 113.334c31.111 31.109 68.889 46.666 113.334 46.666s82.223-15.557 113.334-46.666c32-32 48-69.779 48-113.334s-16-81.334-48-113.334z"></path>
    </symbol>
    <symbol version="1.1" xmlns="http://www.w3.org/2000/svg" viewBox="0 0 384 512" id="profile">
        <path fill="currentColor" d="M384.005 512h-42.668v-107.584c-0.023-16.724-6.676-32.755-18.501-44.582-11.827-11.825-27.858-18.478-44.582-18.501h-172.504c-16.724 0.023-32.756 6.676-44.581 18.501-11.825 11.827-18.479 27.858-18.502 44.582v107.584h-42.667v-107.584c0.034-28.037 11.187-54.914 31.011-74.739s46.703-30.978 74.74-31.012h172.503c28.037 0.034 54.914 11.187 74.739 31.012s30.976 46.702 31.012 74.739v107.584z"></path>
        <path fill="currentColor" d="M192.001 256.002c-25.316 0-50.064-7.506-71.114-21.572s-37.456-34.056-47.144-57.445c-9.688-23.389-12.223-49.126-7.284-73.956s17.129-47.638 35.032-65.539c17.901-17.901 40.709-30.093 65.539-35.032s50.566-2.404 73.956 7.284c23.388 9.688 43.379 26.094 57.447 47.144 14.065 21.050 21.57 45.797 21.57 71.113-0.034 33.938-13.529 66.476-37.527 90.473s-56.536 37.495-90.474 37.528zM192.001 42.667c-16.877 0-33.376 5.005-47.409 14.382s-24.971 22.704-31.43 38.297c-6.459 15.593-8.148 32.751-4.856 49.304s11.42 31.758 23.354 43.692c11.934 11.934 27.139 20.061 43.692 23.354s33.711 1.603 49.304-4.856c15.593-6.458 28.92-17.396 38.298-31.429 9.375-14.033 14.38-30.531 14.38-47.409 0-22.632-8.99-44.337-24.993-60.34-16.004-16.004-37.709-24.994-60.34-24.994z"></path>
    </symbol>
    <symbol version="1.1" xmlns="http://www.w3.org/2000/svg" viewBox="0 0 512 512" id="bag">
        <path fill="currentColor" d="M110.697 136.106c-4.053 0-8.32-1.707-11.307-4.694-6.186-6.186-6.186-16.427 0-22.613l77.44-77.44c6.187-6.186 16.427-6.186 22.613 0s6.186 16.427 0 22.613l-77.44 77.44c-3.2 2.987-7.254 4.694-11.307 4.694z"></path>
        <path fill="currentColor" d="M401.288 136.106c-4.055 0-8.108-1.494-11.308-4.694l-77.44-77.44c-6.188-6.187-6.188-16.427 0-22.613s16.428-6.186 22.613 0l77.44 77.44c6.188 6.187 6.188 16.427 0 22.613-2.985 2.987-7.252 4.694-11.305 4.694z"></path>
        <path fill="currentColor" d="M431.181 226.133c-1.495 0-2.988 0-4.48 0h-341.334c-14.933 0.214-32 0.214-44.373-12.16-9.813-9.6-14.293-24.533-14.293-46.507 0-58.667 42.88-58.667 63.36-58.667h331.946c20.48 0 63.36 0 63.36 58.667 0 22.186-4.48 36.906-14.293 46.507-11.092 11.094-26.027 12.16-39.892 12.16zM90.060 194.133h336.853c9.6 0.214 18.56 0.214 21.548-2.773 1.493-1.493 4.692-6.613 4.692-23.893 0-24.107-5.973-26.667-31.36-26.667h-331.733c-25.387 0-31.36 2.56-31.36 26.667 0 17.28 3.413 22.4 4.693 23.893 2.987 2.773 12.16 2.773 21.547 2.773h5.12z"></path>
        <path fill="currentColor" d="M208.2 390.402c-8.746 0-16-7.255-16-16v-75.735c0-8.745 7.254-16 16-16s16 7.255 16 16v75.735c0 8.96-7.253 16-16 16z"></path>
        <path fill="currentColor" d="M306.35 390.4c-8.748 0-16-7.252-16-16v-75.733c0-8.748 7.252-16 16-16s16 7.252 16 16v75.733c0 8.96-7.252 16-16 16z"></path>
        <path fill="currentColor" d="M317.652 485.332h-128.641c-76.373 0-93.44-45.44-100.053-84.908l-30.080-184.532c-1.493-8.747 4.48-16.853 13.227-18.346s16.853 4.48 18.347 13.226l30.080 184.32c6.187 37.76 18.987 58.24 68.48 58.24h128.641c54.827 0 61.012-19.2 68.053-56.32l35.84-186.667c1.707-8.746 10.027-14.506 18.775-12.587 8.745 1.707 14.293 10.026 12.585 18.773l-35.84 186.667c-8.32 43.305-22.185 82.132-99.413 82.132z"></path>
    </symbol>
    <symbol version="1.1" xmlns="http://www.w3.org/2000/svg" viewBox="0 0 487 512" id="phone">
        <path fill="currentColor" stroke="currentColor" d="M458.8 346.132c-32.801 0-64.535-5.332-94.134-14.933-9.334-3.2-19.733-0.801-26.934 6.4l-41.866 52.534c-75.467-36.002-146.133-104-183.733-182.134l52-44.267c7.2-7.466 9.333-17.867 6.4-27.2-9.867-29.6-14.934-61.333-14.934-94.133 0-14.4-12-26.4-26.399-26.4h-92.267c-14.4 0-31.733 6.4-31.733 26.4 0 247.733 206.133 453.6 453.601 453.6 18.934 0 26.399-16.801 26.399-31.467v-91.999c0-14.4-11.998-26.401-26.399-26.401z"></path>
    </symbol>
    <symbol version="1.1" xmlns="http://www.w3.org/2000/svg" viewBox="0 0 512 512" id="email">
        <path stroke-linejoin="miter" stroke-linecap="butt" stroke-miterlimit="4" stroke-width="28.4444" stroke="currentColor" fill="currentColor" d="M456.761 376.889v-170.667c-5.319 5.333-11.053 10.222-17.203 14.667-44.544 30.518-79.949 55.555-106.212 75.111-8.476 6.37-15.374 11.334-20.694 14.889s-12.507 7.148-21.567 10.777c-9.058 3.63-17.577 5.445-25.555 5.445h-0.498c-7.978 0-16.497-1.815-25.555-5.445s-16.248-7.222-21.566-10.777c-5.319-3.555-12.217-8.519-20.694-14.889-26.262-19.555-61.666-44.593-106.212-75.112-6.15-4.444-11.885-9.333-17.203-14.667v170.667c0 1.925 0.79 3.592 2.368 5s3.449 2.111 5.61 2.111h367.001c2.162 0 4.031-0.702 5.612-2.111 1.579-1.408 2.366-3.075 2.366-5zM456.761 143.333c0-0.296 0-1.111 0-2.445s0-2.333 0-3c0-0.667-0.040-1.63-0.125-2.889-0.082-1.259-0.33-2.185-0.748-2.778-0.416-0.593-0.87-1.259-1.371-2-0.498-0.74-1.246-1.296-2.245-1.667-0.995-0.37-2.159-0.555-3.49-0.555h-367.002c-2.161 0-4.031 0.703-5.61 2.111s-2.368 3.074-2.368 5c0 24.889 12.216 45.926 36.65 63.111 32.079 22.518 65.405 46 99.978 70.444 0.998 0.74 3.906 2.926 8.726 6.555s8.643 6.408 11.469 8.334c2.826 1.926 6.524 4.26 11.095 7s8.768 4.778 12.59 6.111c3.823 1.333 7.397 2 10.721 2h0.498c3.325 0 6.898-0.666 10.721-2s8.019-3.37 12.59-6.111c4.571-2.74 8.269-5.074 11.096-7 2.825-1.926 6.647-4.704 11.469-8.334 4.818-3.63 7.728-5.815 8.727-6.555 34.572-24.445 67.897-47.926 99.976-70.445 8.977-6.37 17.329-14.926 25.057-25.666 7.731-10.741 11.594-20.482 11.594-29.222zM488.675 135.111v241.778c0 9.779-3.906 18.147-11.719 25.111-7.811 6.963-17.203 10.445-28.174 10.445h-367.002c-10.971 0-20.361-3.481-28.174-10.445s-11.718-15.332-11.718-25.111v-241.778c0-9.778 3.906-18.148 11.718-25.111s17.203-10.445 28.174-10.445h367.002c10.971 0 20.363 3.481 28.174 10.445 7.813 6.963 11.719 15.334 11.719 25.111z"></path>
    </symbol>
    <symbol version="1.1" xmlns="http://www.w3.org/2000/svg" viewBox="0 0 392 512" id="pin">
        <path fill="currentColor" d="M181.353 472.471c-137.412-197.647-161.882-218.353-161.882-291.764 0-99.764 80-180.706 180.706-180.706 99.765 0 180.707 80.941 180.707 180.706 0 73.412-25.413 94.118-162.824 291.764-8.47 13.176-28.236 13.176-36.706 0zM200.177 256c41.412 0 75.294-32.941 75.294-75.294 0-41.412-33.882-75.294-75.294-75.294-42.353 0-75.294 33.883-75.294 75.294 0 42.353 32.941 75.294 75.294 75.294z"></path>
    </symbol>
    <symbol version="1.1" xmlns="http://www.w3.org/2000/svg" viewBox="0 0 461 512" id="arrow-down">
        <path fill="currentColor" d="M455.368 217.949l-212.105 211.82c-3.621 3.621-7.909 5.432-12.863 5.432s-9.243-1.81-12.863-5.432l-212.106-211.82c-3.621-3.621-5.431-7.956-5.431-13.006s1.81-9.386 5.431-13.006l47.452-47.166c3.621-3.621 7.909-5.431 12.864-5.431s9.242 1.81 12.864 5.431l151.79 151.79 151.79-151.79c3.621-3.621 7.909-5.431 12.863-5.431s9.243 1.81 12.863 5.431l47.452 47.167c3.621 3.621 5.431 7.957 5.431 13.006s-1.81 9.386-5.432 13.006z"></path>
    </symbol>
    <symbol version="1.1" xmlns="http://www.w3.org/2000/svg" viewBox="0 0 615 512" id="burger">
        <path fill="currentColor" d="M614.4 435.2v51.2c0 6.933-2.534 12.933-7.598 18-5.069 5.067-11.069 7.6-18.002 7.6h-563.2c-6.934 0-12.934-2.534-18-7.6s-7.6-11.067-7.6-18v-51.2c0-6.933 2.534-12.933 7.6-18s11.066-7.6 18-7.6h563.2c6.933 0 12.933 2.534 18.002 7.6 5.063 5.067 7.598 11.067 7.598 18zM614.4 230.4v51.2c0 6.933-2.534 12.933-7.598 18-5.069 5.067-11.069 7.6-18.002 7.6h-563.2c-6.934 0-12.934-2.534-18-7.6s-7.6-11.067-7.6-18v-51.2c0-6.934 2.534-12.933 7.6-18s11.066-7.6 18-7.6h563.2c6.933 0 12.933 2.534 18.002 7.6 5.063 5.067 7.598 11.066 7.598 18zM614.4 25.6v51.2c0 6.933-2.534 12.933-7.598 18-5.069 5.067-11.069 7.6-18.002 7.6h-563.2c-6.934 0-12.934-2.534-18-7.6s-7.6-11.067-7.6-18v-51.2c0-6.934 2.534-12.934 7.6-18s11.066-7.6 18-7.6h563.2c6.933 0 12.933 2.534 18.002 7.6 5.063 5.066 7.598 11.066 7.598 18z"></path>
    </symbol>
    <symbol version="1.1" xmlns="http://www.w3.org/2000/svg" viewBox="0 0 420 512" id="pdf">
        <path fill="currentColor" d="M78.249 3.584c3.745-0.631 54.806-1.223 113.47-1.315l106.662-0.17 28.932 28.483c15.913 15.666 42.726 42.135 59.585 58.82l30.653 30.338v165.942c0 113.885-0.495 168.625-1.577 174.5-4.553 24.711-23.046 43.78-46.651 48.103-11.363 2.082-279.885 2.187-290.814 0.113-18.768-3.559-34.027-15.435-42.161-32.818-3.913-8.364-4.659-11.843-5.327-24.87l-0.777-15.146-28.128-0.822v-149.917h28.785l0.394-119.365 0.392-119.365 4.606-9.724c8.161-17.227 24.254-29.803 41.958-32.786zM70.198 24.584c-9.216 4.593-16.647 13.033-20.471 23.253-2.812 7.514-2.897 11.121-2.897 122.367v114.623l95.565 0.009c55.613 0.004 99.183 0.6 104.219 1.424 23.817 3.894 45.389 24.102 53.454 50.068 1.183 3.807 2.548 12.169 3.034 18.584 2.361 31.139-13.649 60.964-39.615 73.797l-10.952 5.414-206.056 0.798 0.632 12.586c0.999 19.872 8.331 32.512 23.145 39.894l7.431 3.702 291.536-0.029 7.267-3.382c4.065-1.892 9.897-6.37 13.235-10.161 11.195-12.721 10.511-0.965 10.511-180.698v-160.581h-32.981c-18.138 0-36.476-0.652-40.75-1.45-19.063-3.559-36.209-17.16-44.984-35.681l-4.617-9.75-0.474-34.259-0.476-34.259h-198.267l-7.493 3.733zM292.291 52.946c0.467 29.564 0.619 30.934 4.254 38.587 4.8 10.102 12.834 18.132 22.917 22.901 7.652 3.62 9.048 3.771 39.308 4.272 20.539 0.339 31.374 0.013 31.374-0.942 0-1.772-95.26-95.469-97.063-95.469-0.711 0-1.060 13.517-0.789 30.653zM55.487 360.45v38.332h12.982v-28.505l13.343-0.622c15.082-0.704 20.674-2.901 25.851-10.159 4.576-6.414 4.781-20.623 0.385-26.513-6.826-9.144-9.108-9.892-31.745-10.399l-20.816-0.467v38.333zM126.168 360.557v38.226l15.507-0.009c19.279-0.010 24.946-1.546 32.965-8.938 7.443-6.861 10.689-15.764 10.636-29.182-0.069-17.715-5.646-28.991-17.275-34.928-5.709-2.915-8.621-3.319-24.161-3.356l-17.671-0.041v38.226zM201.178 360.635v38.305l13.703-0.88v-31.735l30.292-0.414 0.447-5.202 0.448-5.202h-31.91v-23.080h36.062v-10.098h-49.044v38.305zM68.469 346.322v-13.894l9.737 0.022c5.356 0.012 11.359 0.842 13.343 1.845 8.037 4.065 9.249 17.425 2.010 22.168-2.192 1.435-7.867 2.647-14.358 3.064l-10.733 0.688v-13.893zM140.559 333.149c0.066-1.392 13.792-0.539 18.737 1.163 2.856 0.983 6.412 3.823 8.294 6.624 2.885 4.291 3.296 6.695 3.296 19.303 0 21.476-4.464 27.176-21.571 27.537l-8.85 0.187 0.030-27.046c0.016-14.875 0.045-27.371 0.064-27.767z"></path>
    </symbol>
</svg>