<svg xmlns="http://www.w3.org/2000/svg" width="1920" height="376" fill="none" viewBox="0 0 1920 376"><path fill="#476899" d="M1920 16.706h-206.07V174.94h194.62v11.489h-194.62v172.856H1920v11.488h-218.04V5.217H1920ZM1395.63 5.217h202.44v365.555h-11.98V16.706h-180.58l-40.59 243.356c-14.56 88.255-32.26 115.933-71.29 115.933h-20.81v-11.489h19.77c32.79 0 46.83-22.456 60.36-103.4ZM1055.47 0c104.6 0 185.79 80.422 185.79 188s-81.19 188-186.31 188c-104.598 0-186.302-80.422-186.302-188S950.352 0 1055.47 0m-.52 11.489c-97.307 0-173.809 76.244-173.809 176.511 0 100.266 76.502 176.511 173.809 176.511 97.32 0 174.33-75.723 174.33-176.511 0-100.789-77.01-176.511-174.33-176.511M780.152 5.217v365.555h-11.969V16.706H507.464v354.066h-11.969V5.217ZM189.945 178.073c47.876 12.011 71.294 44.389 71.294 95.044 0 57.444-32.265 97.655-115.528 97.655H0V5.217h140.507c82.222 0 109.804 37.6 109.804 90.867 0 39.167-16.133 69.456-60.366 81.989m48.397-82.511c0-46.478-22.378-78.856-97.835-78.856H11.969v156.667h123.854c79.621 0 102.519-31.856 102.519-77.811m-92.631 263.722c76.498 0 103.558-34.989 103.558-86.167 0-53.788-28.621-88.255-105.12-88.255H11.969v174.422Z"/></svg>