<svg xmlns="http://www.w3.org/2000/svg" width="320" height="61" fill="none" viewBox="0 0 320 61"><path fill="#476899" d="M320 2.8h-34.345v26.512h32.437v1.925h-32.437v28.962H320v1.925h-36.34V.874H320ZM232.604.874h33.74v61.25h-1.995V2.8h-30.097l-6.765 40.775C225.06 58.362 222.11 63 215.605 63h-3.469v-1.925h3.296c5.464 0 7.805-3.762 10.06-17.325ZM175.912 0c17.434 0 30.964 13.475 30.964 31.5S193.346 63 175.825 63c-17.433 0-31.05-13.475-31.05-31.5S158.392 0 175.912 0m-.087 1.925c-16.218 0-28.968 12.775-28.968 29.575s12.75 29.575 28.968 29.575c16.22 0 29.056-12.688 29.056-29.575 0-16.888-12.836-29.575-29.056-29.575M130.025.874v61.25h-1.995V2.8H84.577v59.325h-1.995V.874ZM31.658 29.837c7.979 2.012 11.882 7.437 11.882 15.925 0 9.625-5.378 16.362-19.255 16.362H0V.874h23.418c13.703 0 18.3 6.3 18.3 15.225 0 6.563-2.688 11.638-10.06 13.738m8.066-13.825c0-7.788-3.73-13.213-16.306-13.213H1.995v26.25h20.642c13.27 0 17.087-5.337 17.087-13.037M24.285 60.199c12.75 0 17.26-5.862 17.26-14.437 0-9.013-4.77-14.788-17.52-14.788H1.995V60.2Z"/></svg>