<svg xmlns="http://www.w3.org/2000/svg" width="526" height="189" fill="none" viewBox="0 0 526 189"><path fill="#fff9ed" d="M508.435 4.291h-52.943v40.634h50.002v2.95h-50.002v44.389h52.943v2.95h-56.018V1.34h56.018ZM373.716 1.34h52.01v93.874h-3.076V4.29h-46.393l-10.428 62.494c-3.743 22.664-8.289 29.772-18.317 29.772h-5.347v-2.95h5.081c8.423 0 12.031-5.767 15.507-26.553ZM286.326 0c26.874 0 47.73 20.652 47.73 48.278S313.2 96.556 286.192 96.556c-26.873 0-47.864-20.652-47.864-48.278S259.319 0 286.326 0m-.134 2.95c-25 0-44.654 19.58-44.654 45.328s19.654 45.328 44.654 45.328c25.002 0 44.789-19.446 44.789-45.328S311.194 2.95 286.192 2.95M215.592 1.34v93.874h-3.075V4.29h-66.982v90.924h-3.075V1.34h73.132M63.96 45.73c12.3 3.084 18.317 11.399 18.317 24.407 0 14.752-8.29 25.078-29.681 25.078H15.16V1.34h36.098c21.124 0 28.21 9.655 28.21 23.334 0 10.058-4.145 17.836-15.509 21.055M76.394 24.54c0-11.935-5.75-20.25-25.135-20.25H18.236v40.232h31.82c20.455 0 26.338-8.18 26.338-19.982M52.596 92.264c19.653 0 26.605-8.985 26.605-22.127 0-13.813-7.353-22.664-27.006-22.664H18.236v44.791Z"/><path fill="#fff9ed" d="M1.465 188.635c.059.078-.429.432-.486.354-.06-.077.423-.429.486-.354m323.257-66.25c.556-.214 1.117-.428 1.674-.641l2.679.136q.024.151.05.303l1.687-.167c0 .103.011.208 0 .31 1.074-.181 1.871-.356 3.402-.303.847.028 3.914.162 4.529.117 1.975-.151 1.863-.406 3.948-.279-.017.097.037.197.048.296q2.177.25 4.34.511l-.056-.31-.958-.165c1.259-.091 2.511-.173 3.786-.262 2.337.295 4.239.085 6.779.296 1.09.091 2.079.483 3.68.354.048-.091.022-.201.052-.301 1.609-.011 3.985.324 5.369.536 1.007.155.782.288 1.999.141.329.168.673.334 1.02.502q.178-.303.355-.606c1.661.275 2.549.262 3.775-.017l1.005.271c-.988.181-.602.336.344.56.579-.003.384-.202.687-.286 1.198-.326 1.86-.143 3.359-.051 2.441.152 4.388.175 6.773.41.45.045 1.009.244 1.663.228.019.16.002.31.006.466 1.636-.067 2.84-.326 4.78-.177.005.102.018.206.024.308.897.057 1.796.116 2.688.177l.035-.306q.846.21 1.685.42c1.024-.03 2.046-.055 3.066-.083.178.468-1.31.119-2.406.296-.453.074-.645.29-1.035.391 1.135.083 2.261.158 3.383.242.26-.238.448-.486.751-.718.819-.005 2.963.389 3.554.437 4.568.359 8.594.567 13.158 1.186.628.085 1.009-.058 1.99.061 1.263.15 3.396.648 4.555.967.703-.017 1.316-.05 2.012-.068.933.26 1.858.527 2.785.789 1.336.143 2.722.157 4.037.366 1.605.257 2.148.544 3.693.497q.15.18.303.359c2.326.016 4.476.518 6.644 1.135.13-.136.284-.272.399-.408 1.739.165 2.185.578 3.81.888.807.155 1.457.005 2.698.359.782.223 1.252.567 2.564.582 1.062.413.648.625 2.374.919.022-.95 2.907.285 3.305.386 2.493.606 3.39.634 5.386 1.169.011-.108.018-.208.113-.289 1.399.159 3.799.966 4.799 1.21 2.656.642 4.975 1.204 7.297 1.756 2.662.637 3.359 1.061 5.475 1.771 1.778.601 3.316.907 5.105 1.537.392.139.901.466 1.559.628.007.113-.028.205-.032.311 2.536.419 4.405 1.137 6.917 2.158 1.432.586 2.552.997 3.979 1.608.567.244.959.195 1.787.568.608.276 1.416.79 2.272 1.074a1 1 0 0 1-.07.303c1.824.479 2.391.935 4.154 1.809 1.267.639 1.549.652 3.275 1.507 2.005.975 6.14 3.315 8.258 4.765 1.196.795 2.305 1.895 3.305 2.614.944.685.778.3 1.655 1.029-.724-.021.279.86.522 1.462.628 1.561.019 2.389-.416 3.151-.113.192-.84-.337-.795-.095.526.395 1.042.808 1.546 1.227-.32.035.115.726.085.951-.035.287-.565-.055-.752.022q-.005-.005-.015-.01c-.268.109.011.468-.403.483-.091.003-.082.203-.253.145-1.113-.376-2.504-1.63-2.38-2.127q-.66-.487-1.339-.963-.089.129-.175.26c-.749-.653-1.598-1.345-2.296-1.916.288.34.535.657.86 1.028a15 15 0 0 0-1.014-.201c-.758-.661-1.635-1.135-2.544-1.795-.912-.657-.804-.861-2.188-1.418-.563-.403-1.05-1.032-1.574-1.361-1.62-1.008-.496.367-.676.502 1.024.484 2.014.965 2.987 1.46q-.107.206-.211.415c.808.485 2.075 1.583 2.705 1.688l.109-.194q.267.165.53.332.152.33.297.657c.503.351 1.044.735 1.592 1.138l-.334.523c.988.693 1.614 1.47 2.578 1.943a58 58 0 0 0-1.809-1.889c.163-.491 1.116-.245 2.504.373.593.73 1.23 1.355.803 1.497-.155.047-1.169-.321-1.208-.163-.067.302.845 1.163.459 1.249a66 66 0 0 0-3.119-2.105 71 71 0 0 0-1.615-.541c-.254-.423.966.247 1.312.325.425.092-.242-.516.009-.56-1.165-.831-1.711-1.049-2.532-1.281-.661-.586-.485-.655-.537-.955-.037-.214-.994-.705-1.209-1.011-.428-.014.327.539-.091.584-.233.023-1.403-.467-1.269-.116-1.784-.988-2.62-1.914-4.429-2.891.524.407 1.087.841 1.607 1.261a124 124 0 0 0-3.064-1.802c-1.308-.244-.704.409-2.827-.643.301.362.615.741.897 1.094-1.49-.56-2.484-1.356-3.712-1.962-2.14-1.047-2.9-1.214-3.745-2.151.691-.032 1.432-.044 2.142-.061-.635-.224-1.317-.461-1.921-.662-.299.357-1.471-.471-2.029-.88q.38-.107.76-.211c-1.772-.272-2.551-.236-2.53.383-.39-.139-.788-.279-1.182-.417q-.086.215-.174.429-1.22-.433-2.471-.856c.217-.009.429-.021.646-.029q-.408-.263-.821-.524c-.446-.048-.897-.093-1.343-.138q-.778-.327-1.568-.65c.366.506-.214.675-.312 1.04-1.221-.374-2.3-.746-3.424-1.062-.762-.213-1.057-.13-1.919-.395-1.05-.323-2.09-.858-3.366-1.111.141-.179.99.032 1.774.187.786.154 1.007.224.91-.08 1.12.395 1.953.639 3.073.899-.145.26-.017.348 1.148.672-.262-.309.5-.212.576-.388.074-.176-.613-.443-.247-.56.141-.058 1.505.185 1.306-.005-.801-.2-1.49-.359-2.228-.531q-.214.18-.425.361c-2.161-.732-3.335-.603-5.417-1.072q-.28-.238-.56-.475-.258.333-.512.667c-1.981-.53-4.214-.96-4.442-1.637q1.305.406 2.582.822l.799-.432c2.168.52 4.293 1.057 6.365 1.613q-.185-.539-.376-1.079 1.58.38 3.127.774-.061.224-.119.448c1.951.704 4.026 1.481 5.949 2.248q.848.054 1.685.112c-.795-.364-1.605-.728-2.421-1.087.97.052 1.923.392 3.186.864-.769-.71.797-.486-.583-1.361l.117.701a175 175 0 0 0-1.86-.642q-.077.129-.15.259c-1.507-.523-1.334-.273-1.364.041-.931-.278-1.447-.458-1.217-.645.136-.11.84.006.437-.267-.972-.018-1.488-.501-2.501-.785-.748-.21-.828-.007-1.469-.163-1.13-.271-2.252-.589-3.409-.832.143-.187-.175-.465.845-.322.593.083 1.239.476 1.826.38-.466-.216-.988-.45-1.482-.671q-1.137-.177-2.287-.345.26.316.518.631-1.285-.286-2.588-.56c.069-.304.437-.509-.433-1.005l1.325.202a237 237 0 0 0-5.174-1.606q1.935.769 3.807 1.555l-.736.204c-1.787-.426-.65-.459-1.891-.818q-.047.15-.095.299a258 258 0 0 0-2.629-.667q.474.278.944.558c2.272.331 3.073.699 4.511 1.493q1.454.316 2.877.643c.149.312.275.619.437.934-.678-.148-.927-.527-1.65-.784-.334-.119-1.551-.394-2.077-.579.11-.072.195-.244-.245-.383-.572-.18-1.503-.535-1.865-.619-1.08-.251-1.351-.154-2.408-.495-.154-.544-1.978-1.021-3.322-1.603-.208.09.06.427.56.604.704.249.884.146 1.597.488.691.338 1.275.939 2.354 1.372a254 254 0 0 0-4.555-.72c-.151-.512-1.514-1.005-3.324-1.256-1.259-.491-4.156-1.09-4.791-1.586-.093-.076.52.052.438-.083-.031-.053-.347-.523-1.081-.596-.721.131-1.432.286-2.155.427.528.248 1.107.028 1.334.281.123.139-.381.17-.007.393-.807-.183-1.358-.278-2.07-.425.537.266 1.061.53 1.587.796l.332.065c.069-.138-.017-.329.154-.434.145.085 1.791.584 1.721.745-.028.055-.504-.041-.368.092.232.223 1.75.78-.013.533-.652-.09-1.464-.439-1.537-.625.435.033.896.078 1.34.116-3.233-.646-4.749-1.384-6.688-2.268-.68.002-.968.113-1.362.221-.539.148-.316.306-1.663.012.034-.163-.243-.571.439-.536.953.051 1.841-.055 2.567.025.725.08.53.277 1.271.342.598.052.91-.013 1.674.174-.173-.113-.353-.225-.528-.337.316-.017.619-.038.953-.051.777.127 1.576.259 2.332.386-.611-.273-2.213-.564-2.874-.638-.669-.076-1.117.134-1.737-.032-.379-.281.592-.265.576-.434-.023-.241-1.21-.455-.94-.684-.474.08-.905.163-1.364.245l.433.633q-.94-.333-1.891-.662.615.348 1.222.696c-1.538-.328-3.052-.408-4.54-.807q-.36.14-.719.281a511 511 0 0 0-3.402-.18q1.027-.112 2.051-.22c.242-.365.102-.3-1.254-.604-.037-.009-.007-.131-.312-.179-.303-.049-.303.074-.347.072-.463-.027-.894-.148-1.351-.203.407.246.819.496 1.222.744-.754.113-.522.336-1.976.092q-.061.135-.13.269c-.909-.033-1.771-.055-2.627-.075q-.754-.507-1.516-1.011-.857.229-1.715.461c.418.19.838.379 1.25.57-.427-.06-.856-.13-1.287-.185.022.031.002.055-.03.078l1.31.262c-.968.281-2.889-.095-4.617-.255-1.057-.097-1.285-.121-1.963-.422l1.683.155.345-.274c1.115.128 1.574.352 2.254.626l-.29-.356c.435.057.864.13 1.295.184-.255-.271-.468-.469.076-.616l-1.36.279c-.927-.114-1.445-.157-1.263-.395q-.995-.183-1.995-.362c.667.035 1.335.072 1.993.109.269-.461 1.304-.612-.479-1.237l1.347-.366c.529.23 1.06.462 1.584.694q.681-.14 1.364-.277c.888.343.719.619 2.205.798q-.201.284-.399.568l1.607.242-.539-.778c.86-.083 1.824-.148 2.74-.216a266 266 0 0 0-3.357-.126c.073-.169.188-.553-.957-.742-.438-.072-.947.017-1.549-.255-.05.158-.043.309-.076.463q-.97-.141-1.949-.279.008-.108.02-.218l-1.337-.119q.528-.24 1.064-.48l1.26.648q.19-.209.386-.418c.654.146 1.288.291 1.947.44-.295-.267.433-.287.543-.466.074-.12-.47-.242-.461-.386.019-.215.1-.462.106-.689a371 371 0 0 0-3.264-.625c-.076-.29.109-.438 1.087-.476q.943.21 1.878.422.862-.029 1.728-.053c.172.339.362.683.522 1.021 1.612.125 1.335-.282 2.223-.436.164-.027 1.464.231 1.581.084.374.167.656.315.996.476q-1.035-.01-2.071-.015 1.179.262 2.344.529l1.085-.286q2.684.365 5.312.759-.667-.042-1.338-.08c.186.243.377.486.563.73.55-.006 1.144-.006 1.668-.012 1.005.278.403.376 1.042.647.641.271 2.323.582 3.016.91.685.129 1.356.264 2.036.4a218 218 0 0 0-1.29-.578c.262-.157.517-.318.786-.475-.613-.14-1.313-.039-1.815-.056-.516-.019-1.696-.041-2.164-.317 2.188-.198 4.234.1 6.976 1.142.031-.152.056-.304.085-.456q.775.517 1.542 1.038a322 322 0 0 0-3.457-.082c.806.277.243.551 1.629.713.71.083 1.951-.166 2.649-.022 1.468.302 2.334.616 3.636.938-.944-.478-1.865-.954-2.82-1.428q.217-.11.431-.218c-3.697-1.024-.717-1.039.808-.621.487.373.994.755 1.46 1.125 1.306.085.803-.108.522-.439-.453-.535 1.728.298 2.492.51-.013.156-.054.305-.08.458.873.156 1.666.294 2.612.478-.433-.215-.842-.423-1.239-.626 2.638.685 4.62.877 4.867.276-.604.055-1.204.112-1.811.17q-.411-.503-.825-1.006.707.017 1.412.036c-.691-.093-1.388-.186-2.081-.274q-.69.06-1.326.136l.46.514q-.958-.157-1.921-.308.016-.153.034-.306a323 323 0 0 0-4.541-.895q.046-.227.09-.458.634.221 1.267.446l1.081-.23q.139.19.282.381 1.284.301 2.549.608c-.561-.86-2.393-1.228-4.784-1.45q-.623-.285-1.257-.57-1.187-.108-2.384-.208.204-.116.411-.231-1.164-.326-2.341-.647l.557.747-1.297-.253q-.062.137-.128.272c-1.458-.325-2.257-.3-3.375-.344.247-.163.501-.326.752-.488 1.265.282 1.733.545 2.718.463l-1.02-.443.466-.381c-.691-.033-1.421-.073-2.084-.097-.182-.246-.359-.491-.541-.737-.644-.123-1.304-.254-1.943-.369-.078.241 1.741.414 1.198.609-.548.194-1.072-.057-1.9-.265-.043.091-.067.194-.104.289q-.97-.178-1.949-.349c.856.496 1.787.78.201.824-.755-.317-1.245-.51-1.578-.844-.078-.079-.475-.459-.416-.526.182-.205.838-.172.589-.458-.241.063-.487.121-.734.184-.862-.168-1.519-.106-2.322-.231-.602-.093-.81-.255-1.349-.349-.542-.092-.631.058-1.319-.116-.843-.214-1.157-.546-2.378-.674l1.254.895q-.369.14-.73.281c-.674-.105-1.376-.212-2.032-.311.083.222.161.442.249.665-.749-.245-1.485-.49-2.23-.728.476-.097.996-.117 1.223-.3.319-.259.258-.675-.381-1.06.431.059.873.124 1.304.187l.069-.456c-.86-.184-1.73-.366-2.601-.546q.27.51.537 1.021c-1.23-.368-1.535-.213-2.655-.228l.028-.31q-.832-.04-1.668-.078c.115-.088.275-.168.36-.262-.936-.061-2.188-.479-2.887-.543-1.404-.128-.884.348-1.191.429s-.568-.069-.912-.075c-2.404-.034-4.784-.028-6.948.078-.31-.249-.606-.481-.933-.738-.531.121-1.406-.151-1.934-.022-.529.131-.327.599-1.794.549.141-.182.262-.388.397-.578q-1.185.108-2.376.218a470 470 0 0 0-3.333-.647c.095.111.227.235.296.34-1.046-.021-1.691-.396-2.306-.507-1.35-.244-2.341-.042-3.297-.187-1.264-.192-1.093-.459-2.486-.509.013.153-.015.309-.017.463a646 646 0 0 0-3.303-.427l.013-.155-1.328-.107.037-.774-.684.26q-.996-.193-1.995-.383c.444-.07.916-.142 1.349-.209.002-.18-1.02-.09-1.291-.187-.56-.205.598-.371.328-.586-1.118.069-2.264.144-3.396.22l-1.012-.068.013-.463q-1.349-.17-2.701-.334l1.356.32c-.093.275-.509.461-.73.737-.106.131-.021.337-1.039.155-.405-.072-.773-.323-1.332-.357-.886-.05-1.523-.043-2.357-.181q-.021-.149-.039-.299l-1.996-.191-.629-.43q-.995.023-1.994.049l-.015-.308c-1.625-.12-2.53-.061-2.701.325a863 863 0 0 0-5.391-.085q.352-.606.708-1.213-1.01.036-2.027.076a14 14 0 0 1-.026.463c-1.148-.018-1.609-.201-2.378-.395q-1.2.146-2.397.296c.678.048 1.366.099 2.046.15 0 .154.005.309.005.463a746 746 0 0 1 3.006.284q.86.417 1.717.837-.845.042-1.698.087c-.11-.212-.214-.424-.327-.636-.896-.034-1.8-.068-2.698-.099l-.033.306-1.362-.049c-.007-.104-.007-.208-.013-.313-.804.024-1.555.051-2.335.078l-.868-.728q.286-.181.569-.364.658-.02 1.315-.038c-1.343-.431-3.078-.496-5.005-.696-1.51.257-.334.532-.355.921l-1.618-.194-1.41.269c-.784-.173-1.573-.342-2.361-.516-.806.757-3.701.429-6.402.536-1.083.043-1.423.443-2.751.402-.333-.202-.671-.42-1.004-.628 1.401.117 2.592.057 4.043.049q.016-.23.035-.461l1.336.015c.47-.306-1.538-.656-2.727-.658.2.379-1.464.557-.68.922-.899-.166-1.787-.331-2.681-.495q-1 .767-1.997 1.538l-.994-.788q-2.04-.32-4.089-.631c.002-.156.015-.313.011-.468-.886.208-1.986.367-1.633.696.312.29 1.895.15 2.547.259.643.11.19.319 1.031.425l-.007.002.013.003c-.439.112-.825.216-1.243.325q-1.026-.314-2.055-.624l-2.344.155q-.34-.31-.686-.62.676.038 1.351.077-.002-.192-.006-.388a25 25 0 0 0-4.068.012l1.376.924q-1.358-.227-2.723-.451.012.466.022.932-.698-.42-1.399-.84l.017-.232c1.986-.003 1.475-.251.305-.471-1.015.06-2.012.12-3.008.182q.336.19.676.381-.998.203-1.999.41c-1.668-.229-1.486-.718-3.379-.886-.218.279 1.984.51 1.295.743-.405.134-1.418-.178-1.94-.03.654.067.349.346 1.076.362 1.25.027 1.787-.089 1.62.293-1.375.06-1.743-.22-2.703-.346-.688-.091-1.273.137-2.012.106.446-.055.895-.116 1.343-.174q-.353-.462-.708-.922c-1.566.078-3.156.163-4.711.247-.273.202.52.233.594.398.125.286-.91.408.121.674-.916-.033-1.808-.068-2.716-.099l.565-.243-.576-.213 1.343-.041-.015-.461q-1.014.022-2.029.046.013.309.023.619a913 913 0 0 0-4.073-.049c.123.098.253.197.372.296-.845.679-.019.981 3.071.856l-1.373-.432 1.683-.196c.946.153 1.137.322 1.048.594l2.021-.044q.01.155.028.308 1.346.051 2.686.105-2.014.116-4.033.24.005.233.011.465c-1.259.058-1.402.019-1.41-.267l-1.311.017q.335-.162.672-.325-1.69.08-3.383.166c.922.238 2.807.249 2.755.625 2.068.007 3.049-.198 4.364-.565l.652-.012c.998.188 1.598.434 3.056.407-.206-.154-.496-.296-.652-.458 1.444.011 3.744-.575 4.834-.516 2.207.119.095.741.55 1.05 2.298.12 2.22-.457 3.634-.626 1.17-.141 2.339-.011 3.366-.046.743-.026.899-.154 1.446-.151 2.599.018 4.384.58 7.028.59-.677-.206-1.353-.418-2.031-.623 1.113.054 2.231.111 3.34.169.017.099.036.199.049.298q1.67.009 3.331.022v-.465q.34.158.672.317c1.18-.159 1.849-.343 3.337-.278q-1.003-.245-2.007-.488c.883.063 1.758.126 2.651.192q.033.145.071.291 1.514.256 3.019.519c.121-.101.225-.205.353-.304.737-.045 1.211.128 1.744.165.857.06 1.104-.158 1.908-.089.604.052.942.203 1.713.184.017.101.026.207.047.301.73.104 1.092-.105 1.646-.075 1.363.072 2.056.395 3.555.375-.174.099-.351.189-.512.287.648-.007 1.711.152 1.98-.046.269-.199.152-.232 1.31-.18.015-.101.044-.195.067-.296 1.309.014 2.402.102 3.624.279.762.113.301.318.377.473-1.153-.039-2.248-.079-3.36-.114-.082.524 2.093.789 1.971 1.31q-.993-.074-1.988-.143c.23.136.423.271.676.409.539-.154 1.997-.146 2.56-.23.554-.084-.056-.252.182-.364.13-.061.5-.094.561-.167.127-.169-.665-.262-.533-.454.058-.085.585-.161.628-.303.058-.193-.05-.485-.006-.693.948-.008 1.483.212 2.373.247.893.035 1.43-.143 2.376-.061q-.674.165-1.356.333c.446.146.886.296 1.332.441.022-.145-.281-.391.351-.444.377-.031 1.029-.094 1.308-.072 1.087.084 1.614.279 2.734.252.218-.091.452-.186.68-.279.32.172.675.341.972.516-.771-.1-2.829.111-1.904.352.7.181 2.027-.184 2.9.141 1.042-.099 2.014-.194 3.015-.282.234.143-.444.414-.721.478-.94.216-2.097.083-1.975.466q1.67.006 3.328.022-.004.233-.013.465c.665.038 1.309.076 1.993.117-.063.097-.368.209-.736.266-.059.009-.626-.04-.615.039.021.088.565.1.602.117.253.114-.042.205.043.313l.327.019c.097-.099.26-.185.323-.293l-.657-.039q.003-.078.005-.156.32.095.656.192c1.932-.134-.108-.635-.388-.846-.281-.211.496-.164.518-.299.009-.219-1.178-.602-.591-.73.433-.096 1.871.172 1.57.41-.299.239.333.662 1.659.856.26-.24-1.889-.616-.6-.72 1.029-.082 2.205.272 3.333.279.065-.299.689-.434 2.06-.325-1.118.402-.436.946 1.96 1.23q-.35.207-.702.414 2.328.326 4.631.665l.662.361.689-.412c-1.536-.176-3.084-.35-4.635-.517q-.3-.642-.604-1.285l1.341-.058c-.884-.118-1.789-.238-2.664-.349 1.799-.03 3.09.08 4.63.409 1.538.331.897.147 2.426.279.819.071 1.873.384 2.883.398.073.465-.607.785-1.387 1.13.542.098 1.09.192 1.629.296.83-.074.141-.296.533-.514.071-.04 1.113-.335 1.607-.391.901-.104 3.168-.087 4.394.1.013.104 0 .208.009.313 1.213-.07 2.356.107 3.688.218.845.071 1.103-.069 2.047.053 1.579.207 2.616.576 4.232.471-.438.109-.901.211-1.349.318a17 17 0 0 1 2.975.489c.228.057.362.084.603.124.136-.103.279-.204.42-.305q2.394.208 4.751.436c-.446.287-1.836.531.583.859a75 75 0 0 0-.602-.704q1.673.136 3.333.282.361-.106.721-.209c-.125.137-.286.278-.39.415.334.218 1.192.231 1.532.393.719.341.322.524 2.033.744-.756.082-.151.183-.225.357-.074.172-1.899.256-2.486-.041.42-.073.916-.133 1.338-.207-.71-.073-2.027-.222-2.586-.208.119.006.743-.225 1.185-.209-.275-.028-.589-.043-.873-.068-.219-.074-.427-.151-.652-.225-.972.043-1.715.377.34.502-.561.013-.437.228-1.113.157-1.499-.155-2.187-.508-3.641-.463.197-.11-.587-.612-1.254-.621-.665-.008-.855.115-1.44.129.561.279 1.087.55 1.631.827q.858-.05 1.711-.097.134.331.264.662l1.371-.136.977.366c-1.462.26 1.336 1.564-1.282 1.438-.295-.015-1.168-.331-1.551-.084.156.188.418.414.611.616l1.295.179q-.523.164-1.046.33a375 375 0 0 0-2.855-1.773l-.719.381c-1.544-.183-2.618-.523-4.009-.476l.072-.776c-.711-.046-1.02-.192-1.616-.303-.247-.046-.442.054-.637.02-1.095-.197-1.858-.45-2.618-.721-.13.245-.264.492-.394.738q-.98-.258-1.965-.515c-.487.472-.968.945-1.455 1.417l-.665-.379c-1.412.071-2.235-.401-3.656-.349-.513-.194.65-.261.992-.298.529-.057.899.107 1.337.019.437-.087.493-.388 1.425-.383-.405-.2-.808-.387-1.215-.582l.615-.33c-1.014.048-1.605-.135-2.686-.257.095.302-.123.5-1.399.497-.381-.476-1.531-.918-1.271-1.358-.752.202-1.694.536-2.359.713-.673.177-1.089.196-1.713.345.446.031.871.073 1.308.109.082.433-.533.778-.071 1.237-1.302-.247-.966-.603-2.599-.682l.645.362q-1.33.049-2.662.104c-.045-.32-.281-.518 1.347-.366l-.632-.515 1.661-.017c.54.145 1.09.291 1.622.437-.205-.441-1.555-.842-1.171-1.256.089-.097 1.54-.142 1.267-.294-2.482-.234-3.225.15-3.353.665q-.991-.078-1.986-.153c.117-.094.23-.188.349-.281.621.227 1.286.295.987-.01a4.4 4.4 0 0 0-.669-.488c-.55-.285-1.198-.465-2.265-.587l.976.236c.46.658 1.43 1.006-2.038.781l-.021.465c.671-.056 1.345-.109 2.016-.167.247.617-1.715.405-3.09.742-.189.049.017.48-.336.563-.934-.084-1.583-.498-2.302-.59-1.698-.215-2.79-.005-4.419-.145-.117-.451 1.3-.228 2.723-.143.251-.345.478-.696.745-1.036.725.043 2.538.202 2.562-.087.011-.157-.871-.385.171-.512-.936-.071-1.802-.121-2.716-.182q-.183.3-.366.597a602 602 0 0 0-3.036-.497c.444.233.892.468 1.334.703l-2.019-.119q-.676.27-1.349.544c.606-.541 1.826-.854.074-1.475.775-.136 1.522-.272 2.332-.403 1.239.285 3.669.816 3.723.226-1.375.105-2.33-.318-3.686-.383-2.255-.105-1.419-.127-3.645-.347-.617-.062-3.561.067-4.293-.398-.463.088-.699.172-1.074.26q1.665.158 3.32.322l.002.468.997-.084.977.499c-1.226-.026-2.528-.043-3.745-.065-1.219-.023-2.382-.051-3.58-.071.715.28 1.919.348 2.965.381.881.027 2.352-.379 2.928-.138.832.347-2.508.553-1.245.989-.698-.026-1.339-.066-2.015-.097.219-.093.47-.182.663-.276-1.232-.075-3.506-.256-4.249-.502-.851-.282.041-.267-.524-.589-.481-.277-2.084-.8-2.87-1.111.085.201.212.422.314.63l-1.354.102c.689-.025 1.337-.055 2.047-.075.002.277 1.492.697-.561.742-.559.011-3.147-.391-4.143-.298-.106-.111-.039-.204-.076-.308-1.132-.04-2.207-.08-3.311-.114-.193-.139 1-.23 1.184-.354.072-.05-.452-.1-.35-.168.311-.203 1.381-.213 1.167-.499-.661.236-1.332.472-1.999.71q-.994-.187-1.993-.371l.641.548-.651.384q-.992-.106-1.98-.209l-.045.303c-1.031-.041-2.155.138-2.985-.068l.325.386c-1.466.279-3.615.683-3.342-.141-.561.092-1.126.188-1.683.282q.172-.309.34-.616c-.675-.064-1.347-.128-2.029-.19-.05.214-.002.418.347.626.491.292 1.633.487 1.676.805-1.793-.015-2.385-.493-3.734-.657-.94-.114-1.533.027-2.367-.136-.691-.135-.815-.42-1.629-.555-1.237.016-1.609.172-1.659.446h-.019l.002.002c-.438-.011-.875-.002-1.313-.009q-.011-.232-.019-.463a760 760 0 0 0-2.662-.173c-.136-.293.076-.331 1.328-.305l-.676-.774q-1.338-.007-2.679-.012l1.332-.616c-.895.099-1.78.207-2.684.303.065-.302.273-.76-1-.912-1.274-.15-.856.139-1.051.286-.656.01-1.336.009-2.001.015-.201.366.802.526 1.443.834l-.063.561q-.69-.23-1.382-.459-.648-.002-1.299 0c-.011-.153-.02-.31-.033-.463q-1.675.168-3.355.342-.508.467-1 .933l-.36-.615c-.45-.018-.875.041-1.332 0-.041-.006-.026-.129-.331-.124-.31.005-.273.12-.329.131-.338.055-.583-.019-.927.039-1.083.179-1.627.372-3.076.337.332-.153.548-.19 1.328-.175-.232-.255-.459-.511-.691-.766.669.042 1.343.083 2.012.126-.572-.205-.299-.308-.019-.534-.726-.215-1.497-.237-2.656-.211q-.027-.15-.06-.3-.996.014-1.993.031c.009.156.004.309.02.466 1.966-.327 3.588.035 1.646.271-.797.098-1.698-.03-2.614.078-.793.093-1.241.358-2.361.337.223.256.463.506.693.759l2.012-.039c-.002-.102-.011-.205-.009-.308.446 0 .895-.02 1.341-.024q-.663.207-1.319.415l1.312.439-1.615.572c-1.02-.31-2.27-.202-3.719-.313l-.6-.143.531-.167c-.7-.215-1.48-.224-2.64-.172.06-.471.457-.712 2.382-.987.416-.06 1.878-.126 1.263-.338l-2.58.202c-.37-.039-.741-.081-1.107-.117.219.175 0 .74-1.345.471-.136-.028-.236-.416-1.015-.405-.568.102-1.118.237-1.674.351q-.419-.082-.83-.167c-.663.252-.719.391.173.575l-1.546-.017q-1.56.194-3.119.393 1.674-.055 3.344-.104l-1.304.662q1.658-.285 3.318-.563c-.437.246-.864.493-1.299.74l-2.01-.022c.899.18 1.802.363 2.699.546q-2.008-.1-4.022-.192-1.201-.506-2.404-1.009l-2.329.235-.714-.752q1.678-.061 3.352-.118c-.036.313-.283.518 1.365.422-1.098-.419.266-.723 1.282-1.131q-1.663.208-3.335.42l-.024-.463c1.373-.096 2.049-.268 3.355-.112-.02-.105.011-.204-.035-.315-.533.103-1.36-.087-1.605-.073-1.176.07-2.354.532-3.285.539-2.216.017-.273-.761-.52-.851a1.57 1.57 0 0 0-1.614.315c-.359.327-.049.515-1.676.54.908.067 1.804.137 2.707.207q-2.349.087-4.704.184c.754.304 1.739.423 3.381.332-.084.397.295.693 1.406.958l-2.004-.005c.052-.266-.045-.443-1.057-.56l-.678.158q-.174-.146-.348-.291c-.884.216-1.765.437-2.645.652 1.802.205.75-.355 2.337-.313 1.007.028 1.137.348 1.044.561-.444.077-.89.14-1.336.213 2.189.079 3.879.012 6.038-.233.024.252-1.128.168-1.678.381-.496.191-.31.496-1.265.65-2.053.204-.299-.369-.462-.403-1.228-.255-2.919-.306-4.316-.482-.002.16.017.311.024.468-.457-.078-.886-.147-1.367-.231-.719.276-1.347.055-1.962.102-1.347.103-.966.565-2.367.694-.111-.196-.247-.403-.366-.602-.765.135.266.311-.988.277-.643-.017-1.299-.039-2.008.024-.108-.449.449-.911-1.095-1.186q-1.494.272-2.987.546 1.002-.055 2.005-.107l-.515.182c1.126.206 1.377.423 1.263.791q-1.33.07-2.66.143c-.006.101.004.207-.011.305-.929.136-1.644-.014-2.38-.005-1.003.014-1.312.257-2.296.265-.08-.304-.342-.47 1.274-.543l.634-.961c-1.765.094-4.606.608-4.643 1.05q-.511-.043-1.016-.087c-.435.179-.855.359-1.304.538-.931-.133-1.243-.213.05-.458 1.477-.28 2.632-.291 2.207-.769-2.796.159-2.872.91-5.533 1.099-2.071.149-2.259.352-4.258.601-1.04.13-3.147.317-4.481.308s-2.019-.272-3.73-.01c-.485-.227-.946-.446-1.423-.669l1.326-.104-.048-.616q.848.08 1.694.162c1.212-.286 2.328-.124 3.697-.245-.23.323-1.599.269-2.348.182l-1.631.573c1.67-.073 3.344-.141 5.014-.206q.814-.447 1.629-.89-1.501.104-2.996.213l-1.065-.393q2.023.01 4.05.027l-.07-.776c-1.624.109-3.079.33-4.693.332l-.933.846c-2.342-.006-1.551-.301-.416-.744-.875-.009-2.51.38-2.956.516-.444.136-.117.274-.362.333-1.345.324-3.056.311-4.291.669.31-.287.62-.569.93-.854q1.67-.17 3.341-.337c-.158-.396-2.098-.114-3.03.155-.121-.093-.236-.188-.359-.281-.542.04-1.042.03-1.321.187-.122.068-.516.303-.498.334.249.342.563.343-.743.714q.35.156.693.315-.998.16-1.995.322.314-.26.624-.519l-2.66.456 1.332-.191q-.285.491-.574.982c-.675-.022-1.358-.041-2.033-.061l1.321-.266q-1.362-.197-2.723-.391.306-.222.611-.444l1.358.041c-.013-.154-.035-.308-.05-.463-1.979.016-3.413.138-5.347.468l.039.464q-.832-.004-1.67-.005c-.331.108-.667.216-.998.325l1.353.031q-1.484.331-2.965.665l-.379-.277-1.945.347c-.424.298-.859.597-1.275.895-1.956.026-.336-.292-.812-.546-.074-.032-1.454.095-1.233.214-.032.076.013.143.007.216l-1.33.13c-.017-.1-.039-.201-.056-.303-1.332.13-2.673.264-4.003.398.557.097 1.142.188 1.683.289l1.014-.17h.002q-.5.09-.996.179l-.039-.007c-.724.114-1.919.328-2.517.417-.602.09-.602.051-1.092.117.232-.155.42-.3.635-.451-.921-.135-2.235.044-2.075-.335-.706.109-1.411.36-1.966.519-.118-.038-.234-.083-.355-.116-.297.019-.256.166-.307.179-1.667.397-3.214.306-4.993.558-.239-.08-.482-.157-.72-.235l.413.579-1.997.226c.118-.492-.427-.788-1.492-1.08q1.32-.23 2.643-.458l-.726-.386c-.899.05-1.782.098-2.693.151-.093.193-.572.431-.575.616-.002.185.62.322 1.063.419.772.168 1.267.074.054.466-1.019-.093-2.041-.18-3.078-.267l.036.461-1.289.163c.017.15.014.31.046.453-1.27.147-.907-.207-1.484-.264-.578-.056-1.419.182-2.247.228-.417.022-.656-.085-1.462.043-1.238.196-3.397.984-4.841 1.075-.381-.319 1.27-.877.525-1.087.425-.13.857-.263 1.276-.39 1.355-.141.36.34.012.516-.345.176-1.292.435-1.208.573 2.225-.299 4.12-.712 3.892-1.271.897-.059 1.8-.116 2.699-.172q-.389-.345-.781-.689c-.935.114-1.593.387-2.341.289-.511.178 1.068.318-.677.385-.228.009-1.565-.119-1.617-.167-.355-.343 2.116-.539 1.842-.944-1.048.111-.314.252-1.015.434-.964.252-1.752.509-2.882.684q.037.308.075.614l-1.34.095.58-.621-1.279.15c-.048-.093-.05-.191-.126-.281-1.42.186-3.807.378-4.473.822-.665.443 2.335-.112 3.001-.027l1.586-.184.735.293c-.196.208-.387.414-.583.621l-1.404-.288-1.306.252-.413-.495c-.411.21-.852.428-1.243.633-.986.031-.588-.223-1.173-.291-.579-.069-2.464.133-3.252.264-.032.109-.014.205-.029.308l-1.247.19c-.287.346-.245.695-1.947.89l-.408-.413-1.693.083c.861-.278 1.733-.561 2.592-.835-1.122.236-2.073.607-2.996.866-1.209.339-2.392.453-2.205.813-1.036.227-2.781.172-3.701.252-.92.081-1.452.227-2.297.32.968-.366 1.835-.607 3.235-.8q.008-.149.017-.299c2.58-.498 2.091-.959-.477-.56-.553.087-.437.381-.902.522-.663.129-1.325.249-1.987.376-.13.293-.654.593-.542.861a22 22 0 0 1-2.002.147l.061.459c-1.326.221-1.942.457-1.913.771l-2.693.262q.244-.234.483-.468-1.07-.498-2.139-.994c-1.222.159-1.989.076-2.986.468-.26-.166-.511-.331-.774-.498-1.003.397-1.082.429-.203.587.721.131 1.651.353 2.756.337.666-.009.862-.285 1.354-.213-.206.159-.402.325-.604.488l-1.744-.03c-1.573.215-2.075.637-3.563.89-.012-.07-.018-.14-.029-.21l-2.015.235.748.349-1.981.332c.048.2.066.412.128.607-1.156.241-.321-.328-1.109-.114-1.428.386-3.287.66-4.454 1.215-1.042-.105-1.884.065-3.356.262-1.15.153-2.956.384-4.011.574-3.352.605-6.037 1.025-9.294 1.598-2.047.36-4.996 1.129-6.287.844-.817-.177 1.381-.39 1.151-.625-2.108.286-3.076.06-5.387.616.888-.131 1.783-.26 2.677-.388-.171.246-.353.495-.518.74-.927.197-1.427.184-2.357.317-.58.083-1.223.304-1.934.386-.825.095-1.258-.096-2.365.206.009.1.036.202.051.303-.771.112-1.524.218-2.304.337-.287.151-1.063.404-.532.425 1.244.045 2.872-.889 2.945-.306a740 740 0 0 0-7.505 1.627c-1.224.06-1.195-.196-1.2-.521-.208.149-.379.302-.616.449-1.781.627-3.655.496-4.904.708s-1.156.514-2.362.655c.201-.247.337-.503.51-.752q-.895.408-1.784.82c.224.079.462.158.677.24-.443.116-1.14.261-1.528.346-1.543.344-2.008.362-3.501.563-.45.062-1.7.355-2.22.378.21.341-.412.729-1.794 1.252-.053-.2-.111-.399-.164-.599q-1.935.65-3.84 1.307l1.212-.638q-.572-.172-1.137-.344.227.181.45.366-2.6.674-5.153 1.361c.04.15.086.299.129.448q-.956.258-1.905.517c.521-.383-.02-.38-.175-.594l1.63-.299q.737-.392 1.485-.786l-1.384-.031c.865-.18 1.739-.359 2.612-.536l-1.32.187a26 26 0 0 1-.14-.442c-1.777.479-3.094 1.2-4.788 1.303.2.267.409.531.6.8-1.626.501-2.256.479-3.431.555-.837.055-1.476.1-1.932.561-.496.5.816-.188 1.327-.228-.779.386-.363.462-.839.812-.528.389-1.224.576.16.434a386 386 0 0 1 3.429-1.615c.15.282.458.377-1.159.813l.107.451q-1.637.458-3.248.921c-.027-.097-.095-.19-.1-.291-1.427.346-1.052.521-2.344.985-.668.24-1.944.774-3.058 1.045-1.12.272-2.596.306-4.065.98.35-.284.732-.555 1.09-.832-.698.323-1.44.661-2.197 1.006q-1.15.284-2.285.57l.752.085q-1.302.417-2.585.837l.438-.795q-.467.23-.931.46c-.031-.096-.056-.195-.087-.291q-1.436.47-2.846.944l-.145-.267q-.801.19-1.596.381c-1.387.869-3.153 1.419-5.164 2.301l1.17.078c.538-.247.99-.464 1.48-.691q.084.217.164.436c-.499.226-.959.44-1.506.687q-.705.098-1.4.196a260 260 0 0 0-3.407 1.579q.1-.204.2-.408l-.942.354q-.106.208-.206.415c-2.897 1.146-5.404 1.808-7.904 3.306-2.193.459-3.992 1.452-6.414 2.495-.592.255-1.17.705-1.886.856.007.112.064.199.09.301-.908.318-1.794.638-2.8 1.019-1.559 1.298-2.347 1.447-4.263 2.195-1.11.437-1.852.708-3 1.28-.522.262.226.427-1.147.982-.129-.151-.217-.349-.33-.519-.828.655-1.33.916-1.86.92 1.213-.712 1.97-1.082 1.617-1.317q.532-.314 1.071-.624c.019-.344.525-.758-.57-.383-1.449.942-3.273 2.157-4.766 3.24-.464-.155 1.523-1.817 1.731-2.357-1.543.91-2.005.954-2.11.577-.681.388-.985.677-1.318 1.031-.673.722-.376.838-1.661 1.683.013-.199.008-.375.029-.582-.81.33-.19-.328-.191-.514-.004-.186-.661.272-.842.293-.53.061-.436-.124-1.48.66L0 187.684q.438-.225.883-.449c-.179-.061-.363-.119-.54-.182a39 39 0 0 1 4.103-2.966c.442-.279.968-.489 1.224-.635 2.274-1.284 2.809-1.707 4.94-3.005.428-.26 1.901-.803 2.87-1.407.33-.207.444-.516 1.24-.962.927-.526 3.141-1.407 4.301-1.965.946-.458 1.93-1.064 2.911-1.535.05.088.095.184.14.277q1.424-.894 2.912-1.783a244 244 0 0 1 4.227-1.654c.05.09.103.174.151.267 1.143-.617 1.68-.68 2.786-1.131 1.087-.442 1.787-.973 3.03-1.362.482-.024.964-.039 1.448-.059-.174-.153-.389-.297-.535-.455.832-.43 2.16-.699 2.846-.956 2.07-.776 3.712-1.63 5.542-2.028.754-.167 1.765-.105 2.323-.259 2.3-.633 2.358-1.096 3.729-1.703.797-.351.806-.16 1.32-.334 2.678-.911 5.199-2.06 7.681-2.867 2.558-.829 5.353-1.18 7.839-1.85 1.986-.535 2.508-1 4.39-1.23-.04-.1-.048-.201-.06-.306.952-.265 2.031-.576 2.865-.795.568-.149.94-.126 1.313-.226 1.12-.301 2.033-.877 3.11-1.089 1.299-.252 1.548-.003 3.094-.504.013.076.047.138.068.209l.996-.316.73.127.873-.702c-.677.118-1.358.238-2.03.357q1.297-.376 2.608-.749 1.01-.207 2.026-.413l.128.279c.652-.161 1.336-.328 1.95-.477-.197-.341.557-.472 1.878-.774q.684-.007 1.37-.012-.385-.148-.763-.296.93-.384 1.873-.766 1.22.03 2.445.063l-.438-.374c.718-.227 1.063-.143 1.64-.267s.702-.281 1.325-.427c.926-.217 2.006-.451 2.976-.669q.049.147.089.296l.668-.148c-.022-.099-.025-.204-.056-.301 1.714-.512 3.073-.868 4.894-1.224 5.094-1.001 10.074-2.298 15.278-2.86a40 40 0 0 1 5.619-1.394l-1.414-.206q1.324-.174 2.655-.345l1.1.267.802-1.099c2.031-.134.753.393.856.791 1.581-.294 3.447-.634 4.969-.914.616-.113 1.019-.046 1.342-.112 1.564-.325 2.55-.851 4.074-.859q.956-.392 1.883-.776c.678.005 1.013.106 1.749.097.869-.01 1.525-.211 1.392.148.894-.096 1.774-.188 2.662-.281a24 24 0 0 1-.06-.456l1.279-.223c-.018-.152-.04-.304-.058-.456l2.026-.175c.094-.382 1.837-1.053 1.983-.477l-1.328.293 1.34-.136q.051.226.096.454c1.353-.109 2.696-.781 2.575-1.038l1.734.036c1.883-.529 2.519-.805 2.207-1.278.675-.049 1.327-.093 1.99-.138q.058.137.121.274 1.167-.013 2.336-.024l.921-.607-1.281.18-1.147-.284c-1.431.215-2.849.429-4.318.655.688.353.737.511-.851 1.074l-.5-.863q-1.127.49-2.249.982l.288-.359c-1.82.271-3.051.244-4.698.754.067-.488-.163-.759-1.867-.793q-1.139.344-2.272.689l2.023-.177c.064.356.138.71.199 1.067-1.607.174-3.359.476-4.921.653-.553.062-.698-.057-1.08-.037-1.112.059-1.496.196-1.434-.148-.624.162-1.306.335-1.959.502.126.325.285.582-1.213.999q-.058-.225-.114-.451l-1.272.209q-.051-.141-.109-.284l-1.291.218q-.065-.137-.13-.276-.988.176-1.971.354.007.15.01.303-1.14.284-2.275.57c-1.21.02-1.502-.369-3.102-.046l.198-.667q-1.143.294-2.28.589c-.265.565 2.315.365 2.236.842-1.607.091-2.941.588-4.61.876l1.264-.481q-.89-.025-1.782-.048l-1.574.381c1.107-.57 1.768-1.022.123-1.053-.056.274-.117.551-.174.825q-1.352.265-2.696.533l-.541.74c-2.178.154-.998-.167-.235-.665-1.953-.361.78-.476 1.751-.429.479-.087.478-.257.27-.286-.98-.138-2.628.276-4.069.57.254.108.518.213.774.32-.652.21-1.308.422-1.956.633l.031.153 1.42.106q-2.006.405-3.992.818c-.509-.215 1.334-.923 2.522-1.152-.139-.38-1.193-.266-2.764.092q.05.227.104.453c-1.814.258-3.466.744-5.261 1.109q-1.022.774-2.038 1.552c-.78.011-1.627.036-2.44.058.605-.175 1.723-.153 2.009-.371.303-.221.554-.481.544-.664-1.823.452-3.015.969-4.197 1.557-.811-.035-1.73.058-2.401-.054-.434-.071-.25-.223-1.458.126.26.095.52.199.779.299q-1.156.341-2.302.686c.14.074.287.147.428.221q-.992.226-1.978.456.232-.453.467-.905-1.24.606-2.471 1.215.085-.34.171-.679-.313.135-.621.269c-.36-.062-.728-.123-1.09-.184q1.303-.31 2.618-.616-1.534.12-3.061.247c-.8.435-2.28.807-2.162 1.143-.406.103-.807.208-1.213.312q.046.227.091.454-.685.127-1.368.255l.49-.842c-.962.5-1.905.998-2.864 1.504-1.008.249-2.252.624-3.192.802-.6.114-.997.01-1.412.1-1.205.262-1.028.189-2.237.398-.991.169-4.16 1.015-4.78.863.336-.305.723-.621 1.09-.934-.765.05-1.226-.015-2.081.075-.839.087-1.562.382-1.422-.004-.46.115-.888.245-1.337.368-.032-.069-.065-.135-.036-.223 1.023-.604 1.764-.946 3.552-1.387 1.232-.303 1.623-.268 2.539-.844 1.514-.287 2.815-.567 4.033-.589.771-.626 2.025-.672 3.048-.958 2.764-.777 5.765-1.526 7.982-1.933 2.274-.42 1.95-.297 4.24-.861 1.649-.405 4.089-.821 5.939-1.196-.054.118-.171.251-.247.374.977-.27 2.001-.524 2.998-.779.248-.064.501-.025.665-.07 1.428-.395 2.464-.856 3.925-1.135 1.007-.001.881.34 2.415-.039-.251-.106-.515-.209-.759-.315.996-.202 2.026-.262 2.993-.466.55-.116 1.017-.342 1.337-.417 2.706-.636 4.229-.697 6.124-.633.635-.283 1.281-.569 1.923-.851.806-.055 1.64-.112 2.413-.158-.468-.066-.942-.134-1.427-.194.958-.267 1.495-.195 2.324-.337.566-.097.672-.252 1.31-.374 2.029-.388 4.208-.784 6.296-1.171q.053.227.097.456 1.138-.368 2.28-.735-.12.26-.244.519 1.124-.44 2.258-.88c.505.224 1.028.446 1.521.674.816-.229.034-.54.924-.871.755-.28.876-.115 1.694-.262.815-.145.809-.392 2.009-.628 1.207-.237 3.843-.71 5.182-.875 1.634-.202 2.536-.099 4.105-.354a282 282 0 0 1 5.484-.844c.519-.076 2.195-.062 2.674.007.605-.459 2.616-.605 3.46-.854.846-.25-.017-.37 1.107-.616.169.072.482.136.661.209.491-.115.075-.149.889-.269.816-.122 3.498-.427 4.323-.478 1.344-.084 1.164.179 2.571-.071-.036-.098-.023-.204-.037-.305q1.506-.216 3.011-.427.022.153.048.306c3.2-1.101 6.464-1.753 10.049-1.531.927-.2 1.69-.477 2.744-.633 2.691-.397 6.015-.536 8.595-.773 1.965-.181 3.234-.335 4.821-.718.564.191 1.181.379 1.763.57-.029-.204-.053-.415-.085-.614.999-.206 1.477-.06 2.363-.148s.324-.271 1.578-.451c.465-.067 2.632-.289 3.811-.432 2.103-.254 4.408-.555 6.825-.846 2.033-.245 4.208-.186 4.299.395.015.084-.871.064-.329.245.842.285 2.722.521-1.54.956.063.166.058.306.058.47-1.86-.143-3.798.522-1.494.442.864-.032 3.987-.781 4.438-1.038 1.15-.657-.94-.827-.269-1.489.1-.103 3.489-.827 4.109-.905.875-.112.937.012 1.459-.015.947-.049 1.005-.25 1.986-.325 1.129-.084 2.37.032 3.665-.174-.412.246-.853.493-1.276.739 2.244-.195 2.147-.728 3.63-1.101l1.458.18c.535-.073 1.074-.147 1.609-.218 1.839.227 4.29.815-.596.759-.067.314.225.502-.041.856-.182.239-.866.429.531.504.076-.207.186-.427.275-.64 2.051-.224 2.399-.763 2.958-1.186.23-.173-.901-.273-.338-.427.873-.238 2.216.064 1.991.291.244-.016.45-.035.682-.053-.002-.103-.015-.202-.011-.308 1.362-.026 2.441-.334 3.641-.446.987-.092 1.104.068 2.085.002 1.811-.12 2.09-.398 4.36-.616.966-.094 4.834-.095 6.446-.194.413-.026.608-.189 1.314-.187 1.594.006 3.411.253 3.132.718.349-.124.665-.249.998-.373-.862-.145-1.78-.209-1.745-.514 1.709.11 3.212-.265 5.044-.292.427-.006 1.221.29 1.743.192.013-.15-.06-.311 0-.463.512-.12 2.034-.005 2.233-.015 1.371-.068 2.515.013 3.42-.014.903-.028 1.484-.359 2.025-.369 1.585-.027 2.428.267 3.496.425.091-.105.218-.216.325-.323l1.994-.094c.005.102.033.206.033.307 1.544-.324 2.412-.455 4.474-.504 1.159-.027 1.69.109 2.619-.257.478.077.912.152 1.373.228 3.292-.439 5.867.001 9.122.019.015.101.033.203.043.303l1.345-.118c-.454-.167-.924-.336-1.37-.5 1.059-.093 2.055.062 2.977.063 1.484.002 2.422-.186 3.795-.252.015.096.041.197.058.296q1.508.123 3.013.252 1.351-.34 2.705-.674c.481.091.957.184 1.438.276l1.278-.172-.318.626q1.84-.575 3.681-1.143c.46.253.914.507 1.374.76M4.156 186.782c-.054-.082-.58.269-.522.349.056.078.574-.268.522-.349m6.405-1.504c-.744.492-1.544 1.031-2.287 1.547-.056-.086-.116-.171-.17-.259a112 112 0 0 1 2.297-1.552q.082.13.16.264m-6.308.417q.085.13.174.257.57-.37 1.153-.739-.085-.13-.174-.257-.584.369-1.153.739m8.673-.155q-.08-.132-.157-.267.556-.31 1.124-.621-.491.444-.967.888m-3.008-1.322q.078.134.16.265c1.107-.627 1.618-1.102 1.433-1.354q-.81.545-1.593 1.089m7.208-3.371c-.621-.035-1.192.41-2.278.825-.55.211-.788.133-1.16.628-.37.494.148.527.033.934-.089.298-.987 1.036-.698 1.186.537-.324 1.11-.669 1.675-1q-.285-.506-.57-1.013c.975-.521 1.97-1.042 2.998-1.56m5.575-3.885c-1.362.673-.666.766-1.027 1.123-.364.358-1.372.667-1.538 1.023.437-.019.93-.045 1.393-.065-1.002.358-2.05.747-3.16 1.181q.418.05.84.104-.943.463-1.861.929.256.48.513.958a156 156 0 0 1 1.85-.921q-.108-.204-.22-.406-.625.303-1.239.607l-.002.002a6 6 0 0 0-.106-.206q.85-.56 1.726-1.12l-.078-.296c.539-.203.997-.365 1.5-.546.904-.669.977-.921.057-.803.866-.711 1.666-1.266 1.352-1.564m-1.753 3.82c-.038-.09-.59.176-.558.269.056.081.605-.184.558-.269m5.17-2.811c-1.373.855-2.155 1.101-2.551.81q-1.154.614-2.27 1.232c.043.093.093.184.14.277q.826-.48 1.678-.959c.004.116.161.177.406.156.625-.056.625-.229 1.23-.507.608-.278.89-.226 1.567-.59a22 22 0 0 1-.2-.419m-6.899.888c-.044-.087-.644.206-.6.293.046.085.644-.207.6-.293m3.42-.505c.061.3.929.04 1.762-.124.937-.661.773-.845.575-1.108q-1.188.616-2.338 1.232m7.224-2.838c-1.155.741-2.593 1.255-4.004 1.895 1.205-.205 2.158-.114 3.499-.425.628-.145.601-.269.969-.478.13.05.282.1.418.151.395-.25.798-.501 1.19-.747-.336-.195-.685-.386-1.028-.577-.348.059-.699.121-1.044.181m-2.331.735c-.042-.087-.632.169-.59.257.039.09.63-.168.59-.257m6.61-1.731c-.828.123-1.412.127-2.546.611q.538.028 1.074.058.268-.183.544-.366.462-.152.928-.303m1.596-1.293c-.183-.161-.76.342-1.233.361-.89.037-1.063-.278-2.529.803.766-.124 1.547-.237 2.326-.354.477-.269.952-.548 1.436-.81m-.58-.529-.95.292 1.01-.148q.417-.287.834-.573-.446.215-.894.429m3.414-.482-.315.121c.037.097.08.191.119.286l1.262-.475Zm-1.961-1.247q-.412.326-.82.65.623-.242 1.253-.482c-.037-.097-.08-.191-.119-.287Zm1.131.151c-.037-.091-.632.137-.594.228.039.088.631-.138.594-.228m9.16-.682c.034.092-.548.295-.58.204-.036-.092.544-.294.58-.204m-1.674-.812q.025.073.053.145l1.23-.432q-.024-.073-.052-.147-.618.216-1.231.434m-2.996-.252c.035.097.076.194.114.29l.655-.237-.113-.289q-.33.117-.655.236m9.64-2.836c-.275.254-.544.509-.817.762q-1.128.294-2.244.592.03.148.058.298-.587.285-1.167.572 1.55-.53 3.13-1.055l1.398-.143-.848-.368a250 250 0 0 1 1.854-.859Zm472.447.502c.065-.073.504.32.44.393-.065.072-.503-.319-.44-.393m1.314-1.673-.101.116a64 64 0 0 0-1.497-1.268l.1-.121q.767.63 1.498 1.273m-461.36-2.052c.106.186.241.356-.476.706-.568.277-.395.072-.998.264-.416.134-.904.44-1.502.57.377.159.786.303 1.178.456l-.506-.497q2.224-.631 4.495-1.254-1.027.096-2.046.194 1.278-.377 2.57-.752c-.909.103-1.818.207-2.714.313m-4.966 1.826.046.148 1.253-.385q-.021-.075-.046-.148-.629.192-1.253.385m458.842-.633c-.055.081.448.44.502.359.056-.08-.448-.44-.502-.359m-469.195-.109-.638.216q-.056-.145-.107-.291l.641-.216q.054.145.104.291m13.354-.662c.03.099.067.198.099.296l1.177-.677q-.64.19-1.276.381m451.299-.378c.052-.083.539.221.491.305s-.539-.221-.491-.305m4.416-1.111q.888.51 1.748 1.033.09-.125.175-.254c-.86-.409-.918-.641-1.672-1.172-.086.129-.167.263-.251.393m-450.64-.194c.235-.143-1.474-.01-1.992.308-.235.143 1.465.008 1.992-.308m436.878-1.433c.104-.295.72-.181 1.874.415-.1.3-.801.116-1.874-.415m2.942-1.666c1.16.68 2.285 1.369 3.363 2.066-1.245-1.302-1.213-1.915-4.202-3.349.271.42.529.837.839 1.283m5.802 1.68c.047-.085.567.222.52.308-.046.085-.566-.223-.52-.308m-444.57.173c-.114.248 1.415-.051 2.067-.265-.192-.154.29-.383.527-.63q-1.304.444-2.594.895m10.868-1.218q.019.076.04.15l1.294-.342a3 3 0 0 0-.043-.15q-.647.17-1.291.342m-2.232-.531q.018.076.041.15 1.262-.42 2.537-.836l-.41-.211q-1.088.447-2.168.897m4.737-.446q.02.073.04.148l1.309-.337q-.019-.076-.041-.151-.656.17-1.308.34m426.655-2.319c.516 1.048 2.45 2.33 3.021 1.598q-1.473-.811-3.021-1.598m-425.55 1.31c-.03-.093-.644.066-.62.16.025.094.646-.066.62-.16m4.949-.051q.016.076.039.15l1.334-.33q-.019-.075-.04-.15Zm413.606-1.477-.358.851a131 131 0 0 0-1.215-.439c.639.522.273.595 1.629 1.138.03-.118-.583-.466-.193-.42.955.113 1.198.368 1.884.238.644-.124 3.262.734 1.724-.461-.541-.234-.162.182-.74-.012-.351-.119-.81-.226-1.25-.42-1.2-.527-1.488-.962-2.642-1.067.385.193.777.393 1.161.592m-418.684.999c.026.1.057.201.083.301q.654-.17 1.313-.337l-1.07-.046Zm423.897-.027c-.041.088.485.351.528.265.046-.088-.487-.353-.528-.265m-428.104.083c-.027-.094-.64.069-.611.162.03.093.636-.068.611-.162m436.563-.284c-.045.086.501.41.546.325.048-.085-.494-.407-.546-.325m-425.083-.315c-.104.025-.212.051-.316.078q.06.223.12.448l1.214-.536Zm414.592-1.235c-.284.328-.338.65 1.414 1.536q.703-.005 1.395-.005a110 110 0 0 0-2.809-1.531m-413.731.626c.911-.017.771.258.817.519l1.287-.31c-.673-.114-.765-.395-1.802-.364q-.15.078-.302.155m-1.42-.213c.025.1.054.2.078.3l.005-.002.64-.155c-.023-.101-.055-.201-.081-.301q-.321.077-.641.158m-11.351-.153q.55.095 1.103.192.446-.278.894-.556Zm21.424-.803q.053.228.11.454c-.441.073-.886.149-1.326.223.671-.076 1.35-.151 2.024-.226-.051-.2-.098-.403-.15-.604q-.328.077-.658.153m-4.86-.063c-.63-.014-1.078-.011-1.999.238l.075.3 1.941-.463Zm9.713-.08c.022.101.051.2.073.301l.667-.148-.073-.301Zm-7.522-.837c-.56.263.438.087.322.321-.077.152-.797.549-.419.657 1.703-.618 1.566-.997.097-.978m406.734.631c-.039.089.526.347.563.257.034-.091-.522-.345-.563-.257m-396.801-1.436c-.068-.636-1.397.207-2.278.439-1.193.315-.856.038-1.678.539-.214.129-.829.582-.551.652 1.109-.192 2.234-.394 3.358-.587q-.417-.266-.829-.531c.653-.168 1.34-.357 1.978-.512m384.57.272c.804.289 1.447.867 2.331.985.379.051-.054-.484 1.297.203-.165.339-2.274.021-3.829-.604.069-.192.134-.397.201-.584m-422.19.679c.1.158.452.192.808.259l-1.342.374-.031-.214-1.441.146c.666-.186 1.334-.384 2.007-.565m429.337.57.169-.434-.311-.129-1.029-.165q.592.363 1.171.728m2.621-.243.334.061q-.414-.306-.834-.611l-.338-.058q.422.303.838.608m-2.969-.737q.63.255 1.252.514.06-.143.114-.288-.624-.26-1.256-.517a6 6 0 0 0-.11.291m-420.5.439c-.023-.094.588-.255.617-.163.027.094-.592.258-.617.163m411.024-.909c1.003.075 2.097.325 1.82.715q-.43-.229-.873-.458-.47-.13-.947-.257m-409.019.548c-.028-.094.596-.257.621-.163s-.592.255-.621.163m424.418-.325c-.039.088.529.35.568.261s-.524-.348-.568-.261m-424.72-.34c.741-.328-.463-.432-1.05-.344-.996.308-1.949.614-2.884.921.434.152 2.949-.143 3.934-.577m417.742-.507c-1.52-.64-1.269-.332-1.371-.036.197.08.396.151.593.23.12.269.258.546.399.825q.193-.508.379-1.019m-383.496.517q-.654.137-1.306.276-.019-.076-.034-.152l1.306-.275q.02.076.034.151m-15.929.094c-.026-.094-.644.051-.619.146.028.092.642-.051.62-.146m401.547-.339c-.034.09.559.337.596.247.035-.092-.561-.339-.596-.247m-391.208-.308q-.278.26-.554.519c.661-.064 1.327-.131 1.99-.194h.003l-.791-.466Zm-34.285.206c-.03-.092-.638.074-.61.167.029.093.638-.074.61-.167m420.644-.141c-.032.092.529.304.563.214.033-.092-.53-.306-.563-.214m-1.1-.824q1.192.52 2.35 1.05c.039-.095.058-.199.106-.291-.284-.116-.572-.212-.86-.323l-.535-.538c-.355.033-.706.067-1.061.102m-378.358.96c-.021-.095.595-.223.618-.128.021.095-.598.223-.618.128m372.679-.482c-.047.148-.088.299-.138.446q-.628-.21-1.265-.42.067-.222.139-.444.634.207 1.264.418m-369.355.036q-.99.202-1.978.405-.019-.076-.034-.153.987-.203 1.978-.405.02.076.034.153m391.425.007c-.052.083.539.381.587.296.034-.092-.555-.389-.587-.296m-7.914-.33q.624.269 1.241.541.03-.07.063-.14-.62-.273-1.243-.544Zm-418.371-.06c.037.15.085.299.125.448l.668-.167q-.06-.225-.126-.449-.334.083-.667.168m-5.617.245c-.025-.095-.646.068-.619.162.028.093.641-.069.619-.162m-2.13-.08c-.025-.095-.638.068-.614.162.025.094.639-.068.614-.162m417.375-2.54c-.635-.069-1.397-.112-1.688-.009-.162.06.13.193.176.305.152-.063.286-.126.431-.189q.552.442 1.094.888c1.277.505 1.955.637 2.887.752.66.308 1.327.621 2.057.967l.804-.177c-.841-.344-1.72-.688-2.484-.989.201-.097-.156-.617-1.133-.73-.202-.023-.303.322-1.057.068-.364-.285-.715-.593-1.087-.886m-407.58 2.101c-.029-.093-.658.066-.632.16.028.092.658-.067.632-.16m33.404.14c-.022-.095.603-.222.627-.128.022.095-.606.224-.627.128m383.943-.463c-.036.09.551.348.589.26.035-.091-.543-.345-.589-.26m-424.526.07c-.027-.093-.649.072-.621.165.029.093.648-.071.62-.165m32.474-.38-.907.511 1.304-.279c-.021-.101-.049-.202-.073-.303Zm8.496-.495c-.779-.553-3.161.432-5.379.631.821.091 1.65.187 2.471.278.372-.218-.995-.207-.09-.446 1.075-.284 1.996-.368 2.998-.463m-28.997.514q-.648.156-1.293.313l.89-.536.323-.078q.042.15.08.301m-7.128-.08c-.023-.095-.657.066-.63.16.026.093.654-.066.63-.16m2.128-.053c-.023-.095-.658.063-.633.157.024.095.656-.063.633-.157m39.638.005c-.021-.096-.655.028-.633.123.019.096.651-.028.633-.123m370.456-1.005c-.203.127 1.092.809 1.707.988.039-.097.071-.196.108-.294q-.9-.35-1.815-.694m-407.314.634c-.022-.095-.66.06-.64.155.023.095.664-.061.64-.155m34.684.007c-.018-.096-.648.028-.633.124.022.095.653-.029.633-.124m3.393-.427c.088-.174-.522-.418-1.407-.201h-.005c.182.17-.319.359-.571.587Zm-11.758.221c-.024-.095-.639.033-.622.128.02.096.643-.033.622-.128m5.587.126q.524.012 1.05.026l.314-.14-1.052-.029Zm1.915-.779.099.456 1.287-.492-1.055-.029Zm5.552.262c-.021-.095-.633.021-.617.117.018.095.631-.022.617-.117m-38.197-.177c-.026-.094-.634.054-.61.148.026.094.633-.053.61-.148m19.526-.068.034.151c.425-.091.855-.18 1.281-.27q.045.146.095.291l.652-.138c.18-.197.367-.395.547-.592q-1.309.278-2.609.558m20.598-.361c.845.154-.155.647 1.47.512q-.039-.275-.078-.548-.697.017-1.392.036m358.443.199a8 8 0 0 0 .091-.298q-.644-.214-1.295-.423.607.36 1.204.721m-354.086-2.278.176.912q-.952.295-1.9.592c.26.188.527.375.788.563a625 625 0 0 1 2.662-.33l-2.089-.17c-.222-.333.968-.352 1.927-.592-.153-.399.954-.859 1.799-1.351h-.005q-1.684.187-3.358.376m-12.007 1.744c-.019-.096-.653.031-.632.126s.652-.031.632-.126m368.423-.078c-.03.093.568.3.598.207s-.565-.298-.598-.207m-375.406-.089c-.02-.096-.644.033-.622.128.021.095.639-.033.622-.128m371.681-.73c-1.26-.333-2.307-.418-2.382-.1 1.49.49 2.105.696 2.029.233.65.232 1.286.466 1.934.704.199-.265-.191-.47-1.581-.837m-2.993-.124c-.516.023.303.477.736.713.527.054 1.139.139 1.696.206-.773-.197-1.104-.427-1.544-.64a5.3 5.3 0 0 0-.888-.279m-354.993.112c.063-.309-.154-.319-1.376-.054.001.106.076.197.063.306-.433.091-.869.162-1.301.25-.061.309.147.318 1.368.053-.001-.106-.076-.197-.063-.306.434-.091.873-.162 1.309-.249m-11.014.269q.053.227.104.453l1.33-.269c-.169-.167.32-.362.561-.587q-1 .2-1.995.403m3.499.167c-.022-.095-.651.031-.631.126.024.095.65-.031.631-.126m10.982-.063c-.018-.096-.644.021-.624.117.021.095.642-.021.624-.117m-8.233-.245c.019.102.046.204.065.306l1.301-.248q.05.145.104.289l.653-.126-.783-.48Zm14.676-1.959c1.181.16.166.399-.432.795-.302.201.377.207-.114.393-.495.187-1.556.322-1.838.584.461.097.967.192 1.444.289l.948-.315c1.261-.018.498.234.452.536q1.613-.527 3.242-1.05-.041-.227-.082-.454l-1.369.083 1.966-.583q-1.716.103-3.424.209a839 839 0 0 1 3.301-.817c-.676.091-1.355.183-2.029.276l.614-.424c-.896.159-1.784.314-2.679.478m-23.709 2.117c-.021-.096-.646.036-.624.131.024.093.645-.036.624-.131m375.748-.192c-.028.093.572.299.6.207.033-.093-.569-.3-.6-.207m-358.574-.177c-.021-.095-.645.021-.624.117.021.094.638-.022.624-.117m-17.276-.165c.021.102.048.202.068.303l1.32-.271c-.02-.101-.045-.202-.065-.303Zm359.505-.659c.565.076 1.386.412 1.923.591-.03.1-.047.204-.073.303l-1.295-.346Zm18.645.402q.634.226 1.261.454l.052-.148a133 133 0 0 0-1.261-.451Zm-371.931.182c-.022-.095-.653.031-.631.126.019.096.651-.031.631-.126m348.376-.058c.022-.095.609.048.589.143-.021.096-.61-.048-.589-.143m-343.533-.182c.019.102.044.204.063.306q.326-.064.653-.129c-.02-.101-.044-.202-.063-.303Zm365.668.056.636.223q.053-.147.098-.296-.318-.112-.639-.223-.049.147-.095.296m-390.006-.058c.011.05.028.1.039.15l1.339-.298q-.015-.076-.034-.151-.673.149-1.344.299m374.371-4.186q-.618-.154-1.243-.306c.015.068.021.134-.031.184.438.074.856.137 1.3.219.398-.042 1.182.402 1.239.48.179.26-.141.331-.1.541-.444-.094-.884-.18-1.328-.269.631.272 1.272.553 1.878.824-.472.05-1.559-.195-1.36.124.119.184.975.548 1.572.492.761-.072 1.252-.262 1.181-.633 1.47.334 2.46.771 3.768 1.244v.003l.009.002c.061.116.286.249.5.391q-.646.009-1.295.021c2.395.688 3.561.703 4.022.248.604.237.897.464 1.583.669q1.27-.042 2.534-.07-.526-.582-1.061-1.162c.448.092.905.193 1.343.281-.488-.256-.986-.669-1.488-.89-1.038-.452-1.148-.231-1.43-.15-.353.101-.441.269-1.158.206q.95.501 1.877 1.007c-1.871-.578-2.988-1.138-3.095-1.63q-.358.052-.71.107-1.223-.453-2.469-.895c-.035.097-.067.195-.104.291q-1.549-.536-3.134-1.058c.009-.101.02-.202.024-.303q-.966-.268-1.943-.531Zm-356.022 2.357c-1.26.345-2.266.535-3.6.919-1.332.385-1.923.611-1.552.922h.004c1.227-.29 1.71-.756 3.023-1.067 1.317-.312 2.143-.225 2.125-.774m347.649 1.487q-.03.151-.065.303l-.63-.148a6 6 0 0 1 .065-.303q.315.073.63.148m-349.356.206.351.01.947-.43-.35-.007Zm349.453-.662c.072-.522 2.335.257 3.86.616-.611.006-1.176.027-1.737.048a297 297 0 0 0-2.123-.664m-364.083.349c.022.101.05.202.072.303l.675-.15q-.034-.151-.073-.301Zm388.962-.223c-.026.092.576.304.604.211.03-.093-.572-.303-.604-.211m-6.781-.362h-.005c.648.221.351.318.288.413-1.371-.422-1.914-.277-3.22-.66l-.004-.002-.005-.003c.076-.27.89-.136 1.417-.221q-.58-.338-1.168-.674c.91.38 1.776.751 2.697 1.147m-20.629-.325c.597-.028 2.092.675 1.827.689-.586.025-2.094-.675-1.827-.689m-309.305.478-.665.107c-.016-.102-.04-.204-.056-.306l.665-.106c.016.102.04.203.056.305m-10.89-.07q.684.038 1.366.08l-.058-.306Zm333.759-.226.639.18q.042-.15.078-.301l-.639-.179q-.042.15-.078.3m.754-.271q.64.18 1.271.361.023-.074.043-.148-.632-.183-1.273-.364-.019.076-.041.151m-356.745-.451c-1.233.196-2.685.916-.9.63.602-.096 1.214-.589.9-.63m33.646.145c-.706.098-1.147.212-1.632.405q-1.534.023-3.063.049 2.308-.382 4.637-.757c.02.101.042.202.058.303m309.545.381c-.622-.282.882-.33 1.163-.201.62.284-.877.328-1.163.201m-310.149-.046c-.016-.096.608-.197.629-.102.018.096-.613.198-.629.102m325.056.031q.042-.148.08-.298-.633-.183-1.273-.364.6.331 1.193.662m-357.303-.119.353.01c.319-.141.651-.285.958-.424l-.351-.01q-.48.213-.96.424m-11.158-.113c-.018-.095.596-.224.624-.131.021.095-.602.226-.624.131m34.715-.641c-.646.253-1.059.426-.899.626l1.313-.223q-.045-.23-.09-.458-.162.027-.324.055m2.109.405-.994.114c.858.051 1.444.169 2.71-.06-.758-.095-.091-.248-.087-.459Zm3.01-.317q.01.077.026.152l1.99-.327a3 3 0 0 0-.029-.153q-.995.162-1.987.328m-3.446-.214c.017.102.039.204.056.306l.66-.112c-.017-.102-.039-.203-.056-.305Zm339.3.036c-.023.093.594.294.626.204.029-.094-.593-.296-.626-.204M125 144.704l1.813.521c.054-.274.113-.548.167-.822Zm335.972.199c.017-.096.634.035.615.131-.018.096-.635-.036-.615-.131m17.174-.553c-.121-.37.728-.14 1.724-.002 1.22.17 1.367.207 2.214.72q-1.95-.373-3.938-.718m-20.616.553q-.017.076-.03.153l-1.332-.267q.012-.075.028-.151.67.132 1.334.265m26.711-.245q.627.19 1.247.383c-.019-.186.152-.244.771-.165-.433-.217-.831-.421-1.223-.623q-.4.202-.795.405m-341.325.23c-.019-.095-.651.014-.636.11.017.096.651-.014.636-.11m-2.8-.218.056.306.672-.119a8 8 0 0 0-.058-.306Zm322.248-.024-.06.303q-.652-.14-1.306-.279.028-.153.06-.305.657.138 1.306.281m2.099-.335c1.234.303 2.094.464 2.627.281q-1.274-.297-2.567-.586-.033.152-.06.305m-8.897.044c.089.176-.509.416-1.345.213.026-.153.047-.308.078-.461Zm21.889.048c.026-.094.639.073.613.168-.023.094-.634-.073-.613-.168m-345.83-.718c-.177.244-.358.487-.535.73 1.235-.344 1.382-.586 1.2-.853Zm331.274-.036c-.697-.008-1.143.001-1.072.245q.981.21 1.954.424c.16-.193-.241-.385-.882-.669m-340.148.308q-.675.133-1.349.267c-.02-.102-.046-.204-.065-.306q.674-.133 1.349-.264.035.151.065.303m-7.71.044c-.02-.096-.648.033-.629.128.019.096.649-.033.629-.128m30.346-.565-.539.722.655-.111 1.2-.835q-.659.111-1.316.224m323.005-1.734c-.046.342.859.693.327.97-.353.181-2.879.162-2.675.56 1.659.042 2.571.372 4.47.902.121-.212-.656-.292-1.226-.541-.842-.367-.509-.587-.465-.827.392.25.779.507 1.167.759l.806-.674c-.793-.385-1.616-.769-2.404-1.149m-307.888 2.092c.015.103.037.206.053.309l.667-.107-.051-.306Zm291.215.071c.018-.096.62.016.609.112-.015.096-.626-.016-.609-.112m-280.681-.092-1.68.087-.003.002c-.015-.102-.036-.203-.05-.305q1.324-.197 2.652-.391-.463.303-.919.607m304.455-.058c.022-.095-.602-.258-.623-.163-.022.095.602.257.623.163m-336.351-.449q.045.228.092.456.67-.12 1.342-.238-.047-.228-.092-.456Zm27.447.225c-.099.057-.008.141-.304.18-.294.038-.309-.033-.356-.08.22-.031.44-.073.66-.1m283.939-.555-.017.306q.619.195 1.232.393c-.643-.118-1.293-.237-1.94-.352-.241.114-.477.229-.717.344q.07-.46.145-.921.65.114 1.297.23m-332.799.517.351.007.955-.429c-.115-.004-.237-.005-.355-.008q-.478.216-.951.43m57.659-.236c-.014-.096.616-.183.631-.087.012.096-.618.184-.631.087m269.15-.684q1.677.12 3.335.25c-.446.45-1.923.342-4.039-.051-.169-.393-.345-.79-.516-1.183q.614.491 1.22.984m-266.507.158c-.016-.096.614-.184.631-.087.012.096-.618.183-.631.087m-2.051-.027c-.012-.096.616-.183.631-.087.013.096-.618.184-.631.087m6.086-.293q-1.005.137-2.009.276-.013-.077-.022-.155l2.009-.274q.013.076.022.153m296.173.233 1.036.043.021-.072q-.978-.272-1.966-.539.456.283.909.568m-38.035-.764c.641-.109.225-.344 1.717-.041-.034.201-.058.41-.089.613-.766-.117-1.602-.256-2.326-.361-.734-.107-1.615-.156-1.587-.393.879.125 1.652.291 2.285.182m7.136.063c-.505.127-.853.238-.754.502q-.326-.057-.656-.112c.028-.204.061-.409.091-.613q.662.11 1.319.223m-299.462.322q.01.077.026.153l1.325-.22a3 3 0 0 0-.029-.156Zm14.342-.424q.035.23.08.458l.675-.104a18 18 0 0 0-.083-.458q-.336.051-.672.104m-37.135.121c.019.102.043.202.062.303.661-.097 2.129-.513 1.908-.681q-.987.188-1.97.378m21.325-.157c-.023-.095-.64.011-.624.106.016.097.642-.01.624-.106m309.582.063c.018-.096-.582-.213-.602-.117-.013.097.587.214.602.117m-282.246-.097c-.014-.097-.642-.007-.631.089.017.097.647.007.631-.089m10.917-.18-1.325.177a8 8 0 0 1-.046-.305q.167-.024.331-.046.522.086 1.04.174m2.625-.504c.15.137-.366.56-1.254.635q-.039-.23-.073-.461Zm251.322.475c.017-.096.621-.004.608.092-.015.097-.621.005-.608-.092m-302.573.012c-.019-.096.615-.21.631-.114.019.096-.612.21-.631.114m-3.508-.148 1.045.044q.157-.069.319-.136l-1.047-.046q-.156.07-.317.138m37.74-.092c-.017-.096-.641-.004-.626.092.015.097.643.004.626-.092m19.099.107c-.013-.103-.036-.203-.049-.306l1.328-.169Zm258.793-.461q.987.172 1.964.347.006-.04.011-.078-.47-.202-.942-.402Zm-277.28-.049c-.015-.096-.646-.004-.629.093.017.095.641.003.629-.093m23.864.064c-.015-.097.617-.175.629-.078.008.096-.614.173-.629.078m-20.888-.73c-.911.309-1.052.5-.899.756l.667-.094q.287-.317.581-.633Zm3.151.572c-.017-.096-.649-.007-.634.09.014.097.649.006.634-.09m3.421-.005c-.017-.096-.646-.009-.634.087.015.097.65.009.634-.087m-2.101-.415q.033.231.075.461l1.342-.187-.075-.458Zm-37.668-.14c-.819-.08-1.552.01-2.734.247l.761.337c.655-.195 1.316-.39 1.973-.584m26.343-.265c-.906.315-1.042.506-.888.762 1.122-.078 2.244-.592 2.568-.854Zm272.997.662c.015-.096-.593-.189-.606-.092-.011.096.593.189.606.092m-259.588-.075 2.019-.274h-.005l-.01-.077-1.042-.093Zm265.917-1.03c-.013.154-.031.306-.044.46l1.618.422q1.509.07 3.004.148c-.422-.126-.851-.253-1.278-.378q-.011.061-.017.124l-1.33-.131q-.609-.422-1.228-.842-.028.192-.06.383c-.65-.189-1.306-.376-1.96-.562q.65.186 1.295.376m8.628.756q.645.122 1.282.245.016-.075.028-.15l-1.279-.248Zm-299.241-.136c.016.102.04.204.056.306l.669-.107q-.024-.153-.055-.305Zm273.061.163c.011-.098.639-.018.628.08-.008.097-.634.016-.628-.08m15.41-.039q-.18.05-.358.099l-.312-.208Zm8.082.058c.013-.095-.595-.207-.615-.111-.015.096.6.209.615.111m-279.466-.189c-.017-.096-.642-.006-.629.09.014.097.643.006.629-.09m-39.176-.063c-.018-.096-.651.021-.631.116.024.095.649-.021.631-.116m70.497-.022-1.34.158.967-.427.332-.039c.011.103.029.206.041.308m248.226-.104q.648.119 1.293.24.013-.076.028-.153l-1.295-.24Zm-268.616.078c-.017-.097-.638-.012-.626.084.018.096.641.012.626-.084m-6.204-.248c-.022-.094-.648-.006-.633.09.013.097.648.007.633-.09m267.384.058c.016-.096-.617-.2-.634-.104-.013.096.619.201.634.104m-16.745-.312c.11.17-.496.446-1.387.293.018-.153.031-.307.05-.461q.67.083 1.337.168m-3.429.281-.346.036-.988-.351.344-.037Zm28.95-.003c.018-.096-.595-.21-.611-.114-.017.096.594.21.611.114m-306.335-.249c-.018-.096-.645.01-.626.106.018.096.644-.011.626-.106m-.094-.51c-.613-.058-2.179.561-1.905.587.611.057 2.182-.561 1.905-.587m273.312-.582a11 11 0 0 1-.061.306q.821.052 1.636.107l-.611-.461c.871.099 1.7.196 2.62.305l.622.701c-.901-.108-1.798-.216-2.653-.315-.015.154-.033.312-.05.466q-1.45-.166-2.915-.328-.154-.175-.312-.349l-.663.15q-.991-.062-1.99-.121 1.001-.246 2.003-.49c-.418-.175-.831-.35-1.251-.524 1.342.139 1.962.061 2.016-.252q.809.403 1.609.805m-247.211.733q-.71-.135-1.422-.267l2.154.633.566-.708q-.65.17-1.298.342m4.098.048c.014.102.034.204.048.306l.67-.095q-.023-.153-.048-.305-.336.046-.67.094m-35.639-.08c.017.102.041.204.058.306l.677-.119c-.017-.101-.041-.202-.058-.303Zm1.4.073q.01.077.026.153l1.321-.226q-.013-.076-.03-.152-.66.112-1.317.225m40.395.022c-.022-.095-.639-.009-.626.087.022.094.641.009.626-.087m279.168-.165c.022-.096.644.038.626.133-.017.096-.643-.038-.626-.133m-260.87-.107c-.011-.097-.65-.022-.636.075.019.095.643.021.636-.075m-56.021-.051q.012.077.029.153l1.322-.223q-.01-.078-.026-.155-.664.112-1.325.225m21.927-.186c.015.102.036.203.051.305l.665-.097q-.023-.153-.051-.306-.333.048-.665.098m-4.744.167c-.016-.096-.642-.002-.631.095.017.095.644 0 .631-.095m-22.024-.09q.014.076.031.15l1.352-.235c-.009-.051-.015-.102-.027-.153Zm66.931-.153q.006.077.019.153c.654-.152 1.313-.303 1.968-.454l-.343-.041Zm10.147-.009-1.336.14q-.012-.077-.018-.155.67-.07 1.337-.141.012.077.017.156m229.702.009.66.114q.028-.153.048-.308-.329-.056-.661-.111-.025.152-.047.305m-248.026-.296c.306.07.568.36 1.071.333.968-.054 1.545-.154 2.369-.117-.146-.142-.281-.279-.421-.419-1.006.067-2.025.131-3.019.203m-3.792-.322q-.136.251-.278.502l1.988-.4-.759-.531Zm-4.393.238q.009.076.022.152l1.335-.169q-.01-.077-.022-.153Zm-44.524-.192c.016.102.041.203.058.306l1.267-.527Zm292.918-.223q.156.261.306.521c.236-.119.504-.233.758-.349l1.336.204q.022-.153.035-.308a317 317 0 0 0-3.342-.357q.457.144.907.289m-296.298.407.343.02q.472-.2.948-.4l-.344-.02Zm68.814-1.055 1.392.318q-1.335.144-2.669.291.025.231.056.461c1.573-.068 3.139-.135 4.722-.197-.153-.169.419-.318.256-.497h.005c-.254-.276-1.211-.474-1.105-.817-.893.145-1.77.293-2.657.441m197.713.873c.013-.095.641-.036.635.061-.007.098-.643.037-.635-.061m-209.841-.269h.004c.013.103.03.205.042.308l1.3-.468Zm33.786.129-.327.106-1.02-.143.327-.106Zm193.124.041 1.692.063c-.54-.224-1.086-.446-1.627-.669q-.848-.031-1.702-.061.82.332 1.637.667m-3.751-.138q.68.08 1.356.162.008-.078.017-.155l-1.354-.16Zm29.797.058q-1.651-.149-3.327-.286l.072-.461c1.091.245 2.181.495 3.255.747m-8.824-.194c.013-.096-.623-.2-.639-.104-.015.096.622.2.639.104m-253.871-.565c-.319-.022-1.752.549-1.052.596.318.021 1.757-.548 1.052-.596m36.473-2.53c-2.222.32-2.102.886-4.615 1.082l1.421.483c-1.46.029-2.811.251-4.299.451-.316.042-.407.168-.838.208-1.261.118-2.398-.099-2.201.405.886-.095 1.785-.189 2.677-.281.03.257.065.514.095.771.836-.195 1.112-.239 1.976-.204l.047-.305 1.261-.143q.001-.23 0-.459l1.267-.143c.006-.1.006-.2.015-.3l1.334-.141c-.21-.055-.427-.108-.641-.163l.925-.325 1.687-.009c-1.449-.274-1.451-.385-.106-.927Zm181.087 3.049c-.741-.034-1.33-.151-2.012-.255-.7-.105-1.367-.154-1.319-.349.853.073 1.776.153 2.668.233l.708-.248c-.015.206-.026.414-.045.619m-197.705-.153c-.01-.097-.645-.027-.631.07.017.096.64.026.631-.07m-53.932-.197c.015.103.037.204.053.306l1.344-.213-1.061-.146Zm298.203.148c.018-.096.631.021.613.117-.019.096-.628-.021-.613-.117m-246.309-.036c-.011-.097-.643-.026-.631.071.013.096.641.026.631-.071m-40.204-.022 1.383.112c-.015-.103-.036-.206-.051-.308Zm43.579-.041c-.014-.097-.644-.027-.631.07.014.097.643.027.631-.07m-40.243-.446h-.002l.771.516q.332-.048.665-.097c.078-.307-.141-.493-1.434-.419m239.558-2.183c.382.165.99.446 1.276.589.47.239.091.234.327.43.344-.177.704-.348 1.057-.522.884.088 1.78.18 2.651.27.281.446-1.473.03-1.313.417.061.131 1.356.224 1.573.39.387-.268.714-.553 1.091-.82 1.153.043 1.499.385 2.283.536 1.219.236 1.91.179 2.952.204-.065.349.804.695-.095.924.632.074 1.34.157 2.012.238-.802-.611-1.313-1.167-1.207-1.708-1.676-.185-2.116.014-2.02.393-1.72-.355-3.929-1.172-5.885-1.261-.117.143-.26.287-.359.429-1.22-.273-.537-.444-1.07-.717-.251-.13-1.518-.189-1.867-.357-.5.189-.942.372-1.406.565m-213.307 1.979-.974.354c.006.051.018.102.024.153l2.065.141-.781-.689Zm12.614.49c-.014-.096-.638-.028-.631.068.01.097.64.029.631-.068m249.149.022q.706-.016 1.407-.029c-.448-.094-.901-.185-1.351-.277q-.032.152-.056.306m-251.876-.187c-.018-.095-.643-.024-.629.073s.64.023.629-.073m-14.343-.31c-.257-.118-1.369.073-1.98.162.318.141 1.084.213 1.714.247.925.051 1.101-.017 1.683-.283h-.005c-.904-.027-.937.092-1.412-.126m245.111.281.65.097q.023-.154.041-.308-.327-.048-.652-.095-.021.153-.039.306m-288.211-.092q.014.076.029.153l1.336-.221a3 3 0 0 0-.028-.153Zm34.974-.17c.013.102.032.204.045.306l1.33-.175q-.025-.153-.046-.308Zm51.883-.094q.517.07 1.031.143l.004.077-2.005.175.968-.398Zm160.485-.323h.005l.021.303q.645.053 1.287.107a8 8 0 0 1-.02.308l-1.327-.1c-.208-.222-.423-.444-.631-.666q.332.022.665.048m47.171-.538c1.282.135 1.014.201 1.399.434.548.332 1.341.513 1.174.778-.662-.133-1.598-.179-1.962-.417-.459-.299-.71-.563-.611-.795m-234.353 1.173q.845-.014 1.69-.026l.324-.114q-1.015-.007-2.031-.01c.006.05.009.101.017.15m-27.316-.875-.624.398c.154.189.003.814 1.414.254.073-.029-.026-.315.585-.456.485-.111 1.474-.22 1.299-.393-.879.061-1.786.131-2.674.197m61.756.8c-.007-.097.626-.148.634-.051.007.097-.621.147-.634.051m160.082-1.225c.817.077 1.003.33 1.3.502.504.294.86.496.632.757l-.002-.002c-1.748-.101-1.12-.212-1.328-.502-.201-.289-.821-.495-.602-.755m3.446.619c.318-.033 1.793.487 1.098.56-.316.032-1.802-.487-1.098-.56m-226.68-.318c-.416.266-.839.531-1.255.796q1.012-.14 2.027-.274-.046-.308-.097-.614Zm42.897.689c-.011-.097-.639-.036-.632.061.009.096.641.035.632-.061m224.862-.075-.029.155-1.327-.23.026-.153q.667.113 1.33.228m-278.158-1.194.723.209q-1.662.318-3.317.64c.37.154.737.31 1.11.464 2.089-.41 4.199-.818 6.296-1.215l.041-.11c.045-.208-.248-.127-1.066-.058-.936.078-1.457.053-2.372.172-.015-.101-.052-.199-.075-.298q-.67.097-1.34.196m42.982.068q-.604.61-1.201 1.223 2.684-.213 5.375-.415l-.719-.475c-1.193.042-1.609.16-2.14-.068-.251-.109-.449-.365-1.315-.265m12.985.784c-.628-.1-1.074-.158-2.027-.037q.026.231.054.461c.963-.067 1.388-.208 1.973-.424m-50.338.15c-.016-.096-.647-.009-.634.088.017.096.646.008.634-.088m-3.445-.218c.014.102.034.203.048.306l.672-.095a10 10 0 0 0-.048-.308q-.337.048-.672.097m61.926.24c-.006-.097.617-.152.63-.056.011.097-.621.153-.63.056m-42.134-.388q.02.153.043.306l.67-.083c-.012-.103-.031-.205-.043-.308q-.335.042-.67.085m-.111-.769c-2.06.286-2.08.631-1.893 1.021 1.412-.354 2.111-.658 1.893-1.021m17.106.638q.017.155.039.308l.667-.073a11 11 0 0 0-.039-.308Zm-14.263.182 1.04.107.326-.117-1.04-.109Zm217.671.007c.008-.097-.62-.159-.631-.063-.008.097.624.161.631.063m-190.657-1.222c-1.711.357-3.266.69-3.253 1.191 1.273.068.089-.087.84-.316.756-.229 2.889-.498 2.413-.875m16.28.196c.175.421-.717.788-2.597 1.007l-.063-.616q1.33-.197 2.66-.391m144.913.417c-.006.156-.015.313-.017.468l-.661-.036c.007-.156.009-.313.018-.468Zm61.955.313c.017-.095.652.011.637.107-.016.097-.652-.011-.637-.107m-247.493-.036c-.015-.097-.649-.019-.635.078.013.096.65.018.635-.078m180.89-.362q-.004.234-.013.466l-1.332-.065c.13-.192-.374-.311-.654-.497q1.002.047 1.999.096m5.317.357c.005-.098.624-.063.622.034-.002.098-.626.063-.622-.034m9.404-.272c-1.336-.098-2.077.015-2.035.33 1.338.096 2.072-.015 2.035-.33m-12.065.049q-.004.155-.011.31l-1.326-.067 1.005-.26Zm63.293-.08q-.022.154-.048.308l-1.351-.221q.02-.155.043-.308Zm-195.998.247c-.009-.097.622-.145.633-.048.006.097-.626.145-.633.048m.628-.281c-.851.039-1.258.188-1.995.31-.008-.102-.021-.205-.028-.308l2.008-.157Zm-46.043-.066q.019.155.041.308l1.332-.152-1.042-.194Zm4.744.163c-.011-.097-.642-.026-.631.07.013.097.644.027.631-.07m4.947-1.244c-.836.208-.838.516-1.596.713-1.146.296-2.237.205-1.966.613 1.087-.23 2.182-.454 3.272-.679.098-.214.188-.435.29-.647m-16.507 1.188.01.078q1.342-.165 2.689-.325c.087-.235-.361-.284-1.074-.34Zm191.611-.327q-.003.155-.011.31l-.68-.041q.004-.155.013-.311Zm-155.649.24.34.046.979-.323-.34-.046Zm-37.359-.134c.104-.168-.52-.446-1.408-.293.022.153.047.307.066.461Zm-25.315.029c-.017-.096-.648-.004-.631.093.019.095.644.003.631-.093m238.449-.009q.678.062 1.352.126c.011-.103.015-.207.021-.311q-.672-.062-1.349-.123-.013.153-.024.308m-242.605-.25q-.65.101-1.299.204.011.077.027.153.994-.151 1.992-.299.12-.331.235-.662c-.319.202-.64.402-.955.604m10.041-.968c-.253-.036-1.545.17-1.913.107-.452.301-.831.589-1.252.885l1.987-.359q.043.147.09.291 1.679-.154 3.363-.305-.29.353-.573.706c.67-.094 1.351-.184 2.019-.279.244-.325-.425-.363-1.1-.464-.445-.066-.021-.214-.491-.24-.468-.025-1.157.147-1.642.058-.483-.088.032-.323-.488-.4m55.476.056c.104-.347 1.323-.679-.922-.468.255.264.474.529.714.793-.849.312-1.691.628-2.54.941 1.633-.091 1.078-.297 1.947-.579.359-.117.894-.148 1.325-.199.431-.244-.571-.316-.524-.488m189.158 1.22c.011-.097-.61-.167-.621-.07s.613.167.621.07m-12.771-.044c.008-.096-.631-.154-.639-.058-.009.097.632.156.639.058m-221.319-.08c-.015-.095-.64-.013-.629.083.013.097.644.014.629-.083m183.17-.036-.004.155q-.676-.024-1.351-.048-.003-.078.002-.155.677.023 1.353.048m-145.129-3.451-1.042-.209c-.098.211.446.247.721.398-.44.034-.875.081-1.319.131 0 .103.007.208.007.31-2.27.189-2.127-.345-3.136-.621-.75.364-1.504.728-2.251 1.092q1.19-.022 2.381-.041l1.665-.296-.589.293.979.124.972-.24c-.121.288.91.238 1.28.42.106.054-.416.126-.316.186.212.129.658.15.526.34-.786-.026-1.589-.051-2.389-.073q-1.006.333-2.009.667c-.555.005-1.085.009-1.659.017.402.184-.44.39-.41.589s.903.228.542.49l1.343-.216-.717-.318c1.618-.134 2.644-.283 3.66-.683l.333-.034c-.067.226 1.014.517 2.082.419-.297-.453.714-1.013-.163-1.387q2.677-.263 5.356-.514h.009c.056-.423-1.653-.287-3.091-.18-.924.105-1.639.399-2.627.403-1.678.007-.39-.57-.459-.878 1.57-.078 4.026.029 4.007-.546l-2.051.102q.002-.107 0-.216Zm147.828 3.247q.001.156-.004.311l-1.343-.364q.675.025 1.347.053m2.707.182c.007-.097.639-.068.635.029-.002.098-.637.068-.635-.029m-214.626-.23q-1.016.156-2.031.315-.012-.077-.026-.153l2.031-.315q.015.076.026.153m259.562-.429c-1.96-.501-4.061-.827-5.96-.636.424.278.853.554 1.275.832q.347-.12.694-.24c1.1.218 2.191.44 3.281.664.011-.209.058-.407.043-.623.429.108.16.022.752.175.593.153.519-.018-.085-.172m-215.908-.432c-.069.287.965.281.643.626-.25.267-1.163.577.837.298.133-.244.309-.503.455-.752-.642-.058-1.305-.11-1.935-.172m174.308.858-.007.156q-1.335-.065-2.675-.126l.007-.156q1.342.06 2.675.126m4.667-.228c-.005.103-.005.206-.011.308q-.331-.015-.663-.034.002-.155.011-.31Zm-193.907.175c-.012-.097-.647-.017-.631.08.012.096.639.016.631-.08m52.968.01c-.009-.098-.643-.044-.635.053.011.097.644.043.635-.053m-79.647-.11-1.337.204c-.007-.051-.019-.102-.026-.152.457-.071.89-.136 1.334-.204q.017.076.029.152m203.842.056c.002-.097.624-.075.624.022-.002.098-.626.076-.624-.022m-4.654-.521c-.488.196-.802.358-.678.604q-.997-.028-1.997-.054c.002-.206 0-.414.002-.62.89.021 1.785.045 2.673.07m-173.89.429c-.015-.096-.646-.014-.631.083.019.095.644.013.631-.083m238.298 0c.009-.097.65-.019.641.078-.008.097-.652.019-.641-.078m-53.694.01c.002-.098.643-.071.639.026-.007.096-.637.07-.639-.026m63.196-.083q-.007.038-.009.076l-1.018.089-.661-.089-.961-.447q1.329.183 2.649.371m-242.036-.269q-.48.217-.96.434l1.34-.167c-.015-.102-.034-.205-.046-.308Zm10.182-2.944c-2.798.367-4.482.955-4.77.094q-1.323.24-2.641.483l-1.337.468.564-.851c-1.908.242-1.808.667-3.272 1.033q-.2-.211-.401-.422c-.663.129-1.331.261-1.992.391q-1.193.005-2.385.012.369.187.735.376c-2.448.368-4.86.739-7.321 1.125l-.597.626c1.978.173 3.217-.419 5.336-.788l.728.298q.99-.17 1.983-.337l.391.262c2.511-.269.73-.574 2.945-.847q.364.151.723.303l1.023-.051c.87-.312 1.721-.621 2.606-.933 1.601.037 3.729-.319 5.368-.505 1.473-.166 1.995-.211 3.431-.4l-.007.003c.752-.1 2.1-.231 2.966-.325.203-.218.461-.144.629-.427s-.772-.192-2.096-.124c-.536.028-1.116-.189-1.676-.189-.32.236-.62.485-.933.725m171.357 3.09c.002-.098.632-.071.634.026-.002.098-.634.07-.634-.026m-116.747.024c-.009-.097.625-.141.632-.044.006.097-.624.141-.632.044m126.068-.107q-.002.078-.006.155l-1.326-.072.007-.153Zm-176.215.005c-.013-.097-.643-.026-.631.07.015.096.641.027.631-.07m-39.643-.048c-.017-.096-.644-.004-.633.092.017.096.65.004.633-.092m227.28.07c.007-.098-.628-.144-.634-.046-.007.097.628.143.634.046m-32.164-.119v.155q-.666-.02-1.332-.038v-.156Zm3.331.022c0-.098.628-.076.626.022-.008.096-.624.074-.626-.022m-64.317-.475-2.653.552 1.308-.664Zm-39.006.443c-.011-.096-.643-.053-.635.044.009.097.644.054.635-.044m106.695-.002c.003-.097.639-.073.642.024-.003.097-.644.073-.642-.024m65.96-.133c.013-.097.634-.007.621.089-.013.097-.634.007-.621-.089m-136.982.114-2.034-.393q1.005-.038 2.012-.073.007.233.022.466m143.07-.219q.684.109 1.364.219.02-.154.041-.308-.68-.11-1.364-.219-.022.154-.041.308m-96.842-.419q.005.311.005.623l-.665-.007c-.046-.22-.572-.405-.667-.624h.017v-.002c.435.012.873.002 1.31.01m-149.007.327c.678-.03 1.36-.063 2.038-.092l.003.003c.245.126.495.253.737.38a43 43 0 0 0-.087-.616Zm134.96.277c-1.126-.099-2.25-.197-3.381-.291q1.689-.091 3.37-.175.008.233.011.466m10.043-.789c.227.26.45.522.678.781-.743-.07-1.146-.191-1.995-.17l-.015-.618Zm-26.12.677c-1.15-.146-1.739-.074-2.941.056-1.039-.104-2.085-.205-3.127-.306 1.746-.429 3.417-.05 5.371-.356q.35.302.697.606m116.838-.141-.023.156-1.339-.18.022-.155Zm-112.818.068-1.338.022c-.005-.051-.002-.104-.002-.155l1.338-.022c.004.051.002.104.002.155m-41.678-.14c-.005-.098-.635-.063-.631.034.005.097.639.063.631-.034m89.198-.211q-.5.1-.996.201l-.99-.42 1.325-.191h.005Zm-164.306.077c-.011-.096-.644-.023-.636.073.011.097.651.024.636-.073m208.633.066c.007-.097-.63-.158-.639-.061s.633.158.639.061m21.008-.09c.018-.095.646-.009.633.087-.011.097-.646.01-.633-.087m-109.526-.141c-.442.084-.89.168-1.332.253q-.007-.234-.011-.466l.334-.005Zm-113.303.25c1.211-.172 1.814-.154 2.715-.065.606.059.911-.17 1.312-.296-.8-.045-1.607-.085-2.41-.126q-.807.242-1.617.487m146.81-.14c.004-.098-.628-.112-.632-.015 0 .097.63.111.632.015m-89.974-.068 2.03.104a2 2 0 0 0-.011-.155h.004l-1.691-.049Zm83.256.026q.675.01 1.351.02c.002-.104-.002-.207-.002-.311l-1.351-.019a5 5 0 0 0 .002.31m-21.435-.124c.002-.096.641-.099.641-.002-.002.097-.637.1-.641.002m64.404-.686c.23.564 2.07.624 4.007.745.011-.154.015-.309.024-.463q-1.012-.115-2.028-.228c-.665-.019-1.336-.037-2.003-.054m-61.703.67c.002-.097.634-.1.638-.003.005.098-.636.1-.638.003m47.606-.544c-.065.31.66.505 1.986.565.065-.308-.652-.508-1.986-.565m51.866.257c-.011.103-.019.206-.032.308l-.676-.087q.016-.155.035-.308Zm-215.468.027 2.071.25q-.029-.232-.057-.463Zm61.55.003c-.44.076-.877.154-1.319.232.896-.05 1.605-.266 2.339-.135 1.107-.222.663-.243.426-.418-.366-.269.629-.453.501-.715-.637.346-1.3.689-1.947 1.036m-75.847-.117c.012.103.03.205.042.308h.005l1.305-.468Zm110.107-.563c-.671.132-.509.201.016.304 1.004.195 2.18.131 2.048.499-1.122-.028-2.241-.051-3.365-.075l-.041-.774q.67.021 1.342.046m-107.369.556q1.197.095 2.398.192l.324-.115-.74-.463Zm123.492.177-1.339-.221.994-.242.332-.005q.007.234.013.468m-92.3-.577c.24.185.487.37.73.555l.931-.711-.396-.036Zm31.631-1.659c-.041.318-.277.513 1.382.38q-.815.35-1.629.702l-.998-.071c-.217.485-1.943.703-3.303 1.077 1.542.269 2.84-.008 4.7-.23l-.71-.422c1.353-.053 2.087-.208 2.995-.481.563.011 1.133.02 1.698.032l-.7-.267q1.336-.198 2.671-.393l.004-.002c-1.167-.231-2.454-.087-4.037.007.117-.356-.936-.273-2.073-.332m-14.675 2.037 1.029.155.329-.102h-.007l-1.024-.155Zm101.181-3.757c-.476.093-.506.374-1.089.425-.583.05-1.533-.343-1.267.072s.96.232 1.943.456c.452.103-.247.417.738.522-.686.077-1.336.137-2.012.208-.208.281-.413.564-.626.844 1.432.36 2.43.76 4.663.777-.125.08-.81.211-.671.295a826 826 0 0 1 2.69-.099q-.006.155-.004.31c1.117.025 2.235.052 3.346.08q.004-.077.004-.155c-1.113-.08-2.231-.159-3.346-.235-.002-.103-.005-.207 0-.31-.871-.05-1.254.067-2.019.114.165-.268-.084-.446-1.009-.641l-1.687.046q1.688-.087 3.37-.169c-.453-.216-.888-.433-1.352-.648 1.157.039.652.368 1.774.492.6.067 1.88.051 2.595.066.715.014 1.087.069 1.016-.131-2.147-.03-1.012-.558-2.002-.902q1.006-.017 2.008-.029-.34-.24-.682-.478-1.164-.102-2.339-.202c-.884.16-1.72.281-1.685.575l-1.352-.104c.161-.288 1.432-.36 1.352-.672-1.549.018-1.423-.286-2.357-.507m-111.365 3.408.046.463 1.345-.112c.112-.164-.498-.47-1.391-.351m84.841-.379-1.999.022c-.017.115.589.114.526.233-.067.12-.753.225-.52.386-1.004.068-1.983.132-2.982.201-.567-.174-1.139-.346-1.706-.519-.146-.301.392-.204 1.331-.255l.338.151q1.166.059 2.324.121c.23-.107.449-.209.689-.318h-.007c.081-.129.626-.188.661-.317l.667-.008Zm-39.636.367c.132-.492-2.608-.285-3.346.084.636.018.435.347 1.013.323 1.991-.078.009-.635 2.333-.407m-94.13.298-.672.082c-.012-.102-.031-.203-.043-.305q.335-.043.672-.085.024.153.043.308m81.362-.102q.006.078.013.155.67-.04 1.343-.077-.004-.076-.013-.153Zm-59.569-.082q.006.076.016.152l2.017-.213a2 2 0 0 0-.019-.153Zm129.436.104c.662.034 2.174-.083 1.997-.291q-.998-.01-1.999-.017 0 .154.002.308m46.958-.102q.677.043 1.35.087l-.999-.376-.335-.021q-.01.155-.016.31m-30.845.051 1.334.034q-.497-.168-1-.335l-.334-.009c-.004.103 0 .207 0 .31m-153.042-.167q.008.077.021.152 1.337-.15 2.677-.298a11 11 0 0 0-.039-.308q-1.331.226-2.659.454m48.11-.43q1.378.287 2.755.578-.37-.322-.733-.643Zm91.481.517 1.329.017c.002-.155-.002-.311-.004-.466l-1.328-.014c-.002.154.003.309.003.463m-32.882-.868c-.015.25.228.543.715.759q1.004.018 2.008.039-1.361-.401-2.723-.798m-122.411.708c-.013-.097.618-.176.634-.08.012.096-.62.176-.634.08m-11.652-.112 1.403.124a10 10 0 0 0-.046-.308Zm80.205-.116c.456.072.916.143 1.368.216q-.01-.155-.026-.308Zm123.655.138 1.326.073c-.212-.219-.429-.439-.641-.657q-.332-.019-.663-.034c-.009.206-.013.412-.022.618m-32.885-.01.678.01q.002-.155 0-.31l-.68-.01c-.002.103.002.207.002.31m-63.137-.169c.002.051.002.104.009.155l1.349-.061a2 2 0 0 0-.011-.155Zm-79.919-.502c-.899.059-1.425.474-1.274.613l2.007-.228c-.315-.141-.839-.172-.733-.385m124.281.436q.002.078.002.155-1.349.007-2.701.017a11 11 0 0 0-.011-.31q1.359.067 2.71.138m13.393.095c-.002-.097-.628-.102-.628-.005 0 .098.63.103.628.005m16.142.048 1.338-.274-1.336-.036q-.002.155-.002.31m29.526-.085q.34.024.678.046.01-.233.022-.468-.339-.021-.681-.041c-.008.154-.01.309-.019.463m-53.666-.361c.587-.159 2.248.19 1.99.262-.585.157-2.248-.19-1.99-.262m-124.209.175c.254-.1-1.449-.267-2.016-.044-.254.1 1.447.264 2.016.044m25.126-.012c-.013-.097-.641-.041-.632.055.006.098.643.042.632-.055m-6.179-.925.79 1.019.603-.679c1.18.043 2.003.054 3.019-.272l.974.148q-.293.103-.587.207.67-.02 1.343-.039-.357-.243-.71-.488l-2.032.104c-.017-.153-.041-.307-.058-.46q-1.673.228-3.342.46m192.658.573c1.512-.067 2.151.315 3.751.436.672.051 2.142-.139 1.757-.378q-1.199-.002-2.402 0-1.497-.497-3.013-.987c-.032.31-.056.617-.093.929m-25.626.339 1.334.102.02-.31-.331-.027Zm-137.229-.654q-1.002.03-2.003.063.867.288 1.735.579-.018-.232-.039-.463l1.676-.112c-.208.222-.411.442-.617.663 3.459-.482 2.263-1.122-.758-1.038q.002.153.006.308m-7.383.603c-.006-.097-.639-.05-.634.047.008.097.643.051.634-.047m18.912-.237c.006.103.017.207.022.31l1.345-.077q-.514-.127-1.034-.253Zm45.116.284c-.449 0-.895.018-1.343.024l1.332-.335q.005.155.011.311m21.504-.09c.002-.097.632-.093.632.005-.002.096-.634.092-.632-.005m-111.959-.051c-.013-.097-.645-.037-.634.06.01.097.643.037.634-.06m54.095-.463c-.394.499 2.266.259 3.221.315.951.055.786.166 1.52.233-.511-.235-.942-.473-1.423-.708-1.098.051-2.246.106-3.318.16m98.104.446c-.004-.097-.628-.128-.634-.032-.005.098.63.129.634.032m-104.177-.279c.007.103.02.207.024.31l1.321-.383Zm99.532-1.411c.045.144-.356.307-.367.441-.013.164-.344.558-.272.647.257.314.892.352.6.621.677-.028 1.347-.045 2.018-.068l-.645-.562q1.01-.193 2.014-.383l-1.341-.054c-.669-.214-1.332-.431-2.007-.642m-31.658.468c-1.282-.06-2.497-.308-3.249.06-.651.32 1.276.181 1.889.248l.091.014c.147.044-.147.128.043.189.771.249 1.497.396 1.282.723 2.049.027 3.331-.371 5.339-.099l.674-.924c-.676.042-1.367.087-2.028.13q.33-.228.67-.458c-2.125-.064-2.712.38-4.661.42-.017-.101-.017-.2-.05-.303m-107.776 1.113c-.009-.098-.643-.041-.635.055.009.098.643.042.635-.055m135.364-.199q1.348.13 2.686.267c.117-.558-1.122-.709-3.373-.755q.346.244.687.488m-6.738.24.665.022q.003-.157.004-.313l-.664-.02c-.005.104-.003.208-.005.311m67.462-.022c.013-.096-.621-.181-.636-.085-.011.097.626.182.636.085m-218.565-.621c.927.101.748.356.759.621 1.731-.193 2.117-.476 1.939-.829q-1.35.102-2.698.208m147.103.531q1.34.035 2.673.073l.004-.155c-.888-.025-1.783-.05-2.675-.073Zm-173.008-.121c-.019-.095-.644-.013-.633.083.012.097.648.014.633-.083m57.855-.225q.01.153.028.308l.672-.054c-.007-.103-.022-.205-.031-.308Zm8.802.097q2.036.082 4.069.172-1.019-.085-2.04-.168l1.33-.249c-.344-.08-.693-.157-1.038-.235q-1.163.238-2.321.48m92.215 0q.003.077.002.155l-1.999-.02a2 2 0 0 1 0-.155Zm-150.762-.657c-1.606.165-2.648.393-2.626.792 1.602-.169 2.648-.392 2.626-.792m218.785.431q.836.163 1.661.328l.34-.044-.632-.456-1.345-.136c-.011.102-.013.206-.024.308m-165.653.17q.004.077.013.155l1.343-.104-.015-.155Zm40.505 0q.002.077.011.155 1.342-.137 2.683-.272c-.121-.098-.236-.197-.357-.295q-1.168.204-2.337.412m-89.164-.665c-1.054-.053-1.299.159-2.385.277h-.004c1.218.274 3.07-.184 2.812.448.429-.181.87-.36 1.293-.543-.537-.044-1.195-.155-1.716-.182m6.506.333-1.654.344-.343-.039 1.975-.458q.013.077.022.153m221.671.325 1.044-.102-.331-.121c-.775.091-1.408-.18-2.378-.296q.836.258 1.665.519m-8.481-.141.325.114q.508-.061 1.016-.121l-.325-.114Zm-39.801.012c0-.097-.63-.127-.632-.029s.632.127.632.029m-22.818-.725c-.228.253-.449.509-.68.761-.8-.011-1.111-.285-1.272-.426-.158-.14-.056-.245-.069-.379Zm-46.394.422c.002.103.011.209.013.313l.674-.017c-.002-.103-.009-.208-.011-.311q-.338.007-.676.015m-72.305-.58q.37.28.739.558l.977-.395q2.245.354 4.485.715h.006a81 81 0 0 0-.773-.553l-1.304.1.26-.801-2.064-.128Zm35.274.876 2-.347q-.683-.078-1.363-.155Zm61.925-.005-1.347.002c0-.103-.007-.207-.007-.31l1.35-.003q.004.156.004.311m-124.001-.434-.979.342 1.371.085-.058-.464Zm92.346-.442c-.122.553 1.667.611 3.389.832.076-.54-1.442-.692-3.389-.832m8.076-.216c-.186.148.333.659.738.716 1.062.146 1.497-.084 1.335.32 1.719.091 3.331-.682 3.324-1.001l-.998.329c-1.462-.122-2.931-.257-4.399-.364m97.638-.157c.022.162-.084.384-.035.536.111.335.856.28 1.662.55l-.288-.65 1.364-.026c-.899-.138-1.798-.278-2.703-.41m-206.566.912c-.015-.096-.643-.024-.633.073.012.096.644.023.633-.073m16.617-.64c-1.788.588.154.675 1.8.751.197-.227.407-.456.6-.681-.504.03-1.167.148-1.635.162-.788.025-.028-.268-.765-.232m30.93.584c-.009-.097-.645-.049-.637.049.009.097.644.048.637-.049m14-2.627c-1.235.065-2.261-.131-3.37.146l2.714.053c.067.172-.943.322-.635.51l-1.345.089.004.078q.68.071 1.367.141-.01-.155-.026-.308c.223-.014.45-.032.674-.046l.039.465 2.012-.208c-.923.259-.568.466-.618.739-.556.022-1.054.011-1.319.173-.502.309-.766.592-.619.887 1.624-.312 1.748-.651 1.938-1.06 1.8-.082 1.655.228 2.712.364 2.231.289 3.054-.018 3.361-.582 2.121.254 3.333.18 5.393-.308-.258.271.981.325 1.306.478.316.152-.468.242-.5.349-.057.187.578.23.561.395-.011.088-.561.138-.507.209.141.168 1.269.191 1.958.126-.589-.265.838-.616.494-.858-.555-.393-1.939-.443-1.3-.966 1.382.125 1.696-.256 3.011-.186l-.003-.003 2.324-.468-1.347-.078a4 4 0 0 0-.013.216q-1.996.18-3.991.366c-.07-.305-.893-.444-2.069-.509.002.102.007.204.007.306l-2.012.116.662.194c-.205.144-.385.044-.608.039-.983-.02-1.217.054-2.043.192l1.289-.852-2.33.444q-1.197-.161-2.396-.32l-.569.58 1.312.308c-1.124.016-2.254.033-3.378.053q.308-.331.623-.662c-.901.004-1.806.01-2.7.017q-.032-.309-.063-.619m-30.722 1.453c-1.273.511-2.744.52-4.635.747-.682.082-.357.341-.998.476.684.017 1.358.027 2.038.043l-.384-.276 1.672-.311c.022.101.039.202.061.304q.988-.09 1.982-.18c.071-.367 1.804-.635.264-.803m-20.087-.046c-2.478.211-4.089.668-4.604 1.281 2.814-.259 4.531-.542 5.97-1.271q-1.338.22-2.672.441.65-.226 1.306-.451m187.678.91c-.006.103-.008.207-.017.31l-.334-.027-.983-.388q.669.052 1.334.105m40.704.223c.013-.097-.641-.197-.654-.1-.006.097.641.196.654.1m-214.654-.104c-.008-.098-.645-.037-.634.06s.645.036.634-.06m17.647-.003c-.008-.097-.643-.046-.634.051.008.097.641.046.634-.051m117.254.007c.977-.091 1.486-.174 2.333.068l.333-.068c-.827-.219-1.38-.447-2.662-.465q.001.232-.004.465m-78.055-.14q.003.077.013.155l1.338-.063q-.002-.078-.006-.155-.672.03-1.345.063m86.792-.272h.002l.669.415 1.358-.255q-.841-.112-1.689-.223Zm-70.612.07c.003.104.011.207.016.311.671.007 2.189-.177 1.996-.379Zm96.905.144-1.018.159c-.111-.033-.226-.07-.334-.104l1.02-.157q.166.05.332.102m-58.557.082c0-.098-.637-.1-.637-.003.002.098.635.1.637.003m-49.142-.272c.004.103.015.208.02.311l.675-.029c-.004-.104-.015-.208-.019-.311Zm115.718.129c.436.037.908.076 1.361.116l.013-.155c-.451-.04-.923-.079-1.358-.116Zm-37.712-.197q-.001.155-.005.311l-.665-.024q-.001-.156.005-.311Zm47.259.231c.009-.097-.621-.161-.634-.066-.009.097.623.162.634.066m-82.865-.039c0-.097-.637-.094-.639.002.002.098.641.095.639-.002m-82.107-1.921c-.659.136-.317.343-.289.49-.35-.023-.933-.093-1.355-.051l-1.287.725 2.69-.211c-.004-.155-.054-.306-.041-.463 1.23.082 1.52.169 1.401.514-2.053.198-1.921.557-2.614.98l2.697-.051c.101-.112.21-.225.316-.337 1.033.04-.169.395 1.711.184h-.005q-1.04-.272-2.083-.543c1.529-.497 2.118-.139 2.055.233.659-.127 1.345-.254 1.986-.379-.673-.21-2.285-.164-3.041-.315-1.104-.221-.829-.614-2.141-.776m-4.226 1.737c-.139.203 1.384.256 2.045.145a8 8 0 0 1-.029-.308q-1.01.08-2.016.163m77.598-.127q.001.156.009.311.336-.004.669-.01 0-.155-.009-.31Zm58.537.185c.005-.098.637-.064.633.034-.009.096-.637.063-.633-.034m-69.322-.764c-1.516.028-1.748.196-2.008.514-.596 0-1.527-.124-2.032-.024q1.021.166 2.045.335c.017-.105-.067-.206-.013-.311 1.367-.053 2.051-.189 2.008-.514m-51.265.718c-.006-.098-.643-.054-.632.044.009.096.641.053.632-.044m156.39-.051 1.334.143q.007-.078.017-.155-.666-.074-1.336-.143-.008.077-.015.155m-82.846-.408.002.003q1.16.267 2.311.536c.451-.148.979-.124 1.668-.151l.673-.773c-1.778.254-2.261-.096-4.045-.158Zm85.536.386q.663.074 1.325.15.009-.077.018-.155l-1.326-.148Zm-74.843-.963a54 54 0 0 0-.011.696q-1.207-.157-2.415-.31c-.977-.038-1.945-.076-2.93-.109.829.161.301.423 1.698.39 1.08-.025 1.828-.102 2.949.029.016.1.022.205.035.306 1.64.057 1.397-.14 1.33-.454l.671.471c.88.009 1.789.021 2.695.034-.347-.337-.665-.537 0-.849q-.51-.127-1.025-.252l-.678.303q-.509-.239-1.02-.475-1.323-.016-2.651-.027Zm56.555.936q.665.053 1.33.107.005-.076.011-.153l-1.328-.109c-.002.052-.009.104-.013.155M299.12 130c-.678.161.847.491 1.154.419.678-.16-.842-.491-1.154-.419m-35.218.32c-.011-.096-.643-.053-.635.044.007.097.646.053.635-.044m52.613-.577c1.077.12.243.344.808.516.236.072 1.389-.044 1.562.139.154-.033.227-.057.351-.085q-1.188-.329-2.378-.655c-.115.029-.208.054-.343.085m-94.337.235-.977.41-.002.002 1.351-.136q-.016-.153-.036-.308Zm192.719.391q.015-.155.026-.311l-1.35-.133c.444.147.882.295 1.324.444m-6.842-.102c.008-.098-.639-.155-.648-.059-.008.097.639.155.648.059m-79.463-.078c-.007-.097-.635-.092-.633.005-.002.098.633.093.633-.005m-82.651-.339q-.49.194-.977.39.669-.054 1.339-.107-.012-.154-.029-.308Zm54.409-.052c.303.166.823.237.695.442l1.328-.277c-.62-.139-1.059-.226-2.023-.165m21.547.316c-.002-.098-.636-.088-.634.009.004.097.634.087.634-.009m-60.739-.466c-.973.039-1.401.173-1.997.374.628.116 1.074.185 2.036.092q-.018-.233-.039-.466m28.062-.187a34 34 0 0 0-3.502.308c-.778.104-1.15.094-.864.364 1.102-.001 2.239-.003 3.363-.002-.006-.155-.019-.31-.03-.466.899.011 1.813.023 2.703.037.195-.366-.459-.295-1.67-.241m108.127.563c.011-.096.643-.049.637.049-.009.096-.643.048-.637-.049m17.591-.121c1.39.155 2.415.28 3.372.116q-.501-.025-1.005-.048l-1.293-.269q-.537.099-1.074.201m-183.638-.34c-1.213-.755-3.965.029-1.644.468l.722-.388Zm-13.592.328c-.011-.098-.648-.031-.639.065.011.097.649.031.639-.065m6.133-.233c.011.102.026.205.037.308q.65-.221 1.306-.441-.673.066-1.343.133m179.2-.514c-1.105-.089-2.213.034-2.978.15 1.778.214 3.55.436 5.304.662q-1.158-.408-2.326-.812m-193.525.691c-.014-.097-.646-.027-.634.07.015.096.643.026.634-.07m121.796-.209c0 .104.007.207.007.311l1.353-.008q0-.155-.006-.31Zm-86.129-.492c-1.874.455-3.628.264-5.724.48l1.721.299c1.456-.169 2.92-.335 4.373-.498Zm175.817.708c.011-.097-.618-.166-.628-.07-.011.097.617.167.628.07m1.338-.005c.013-.097-.608-.168-.624-.072-.01.096.613.168.624.072m-120-.572q.355.299.704.599c.665-.022 1.347-.042 2.003-.063-.117-.199-1.271-.369-.617-.597.182-.063 2.064.006.901-.191-.962.084-1.999.167-2.991.252m61.281.095-.751.412.084.031q-.079.005-.158.008l.069-.039c-.413-.157-.833-.312-1.251-.468q1.005.026 2.007.056m-147.321.208c-.02-.095-.645-.028-.636.068.01.097.648.029.636-.068m179.046.003c.006-.097.643-.052.636.046-.008.097-.643.051-.636-.046m-39.786.058q.676.012 1.352.027a2 2 0 0 0 0-.153q-.673-.016-1.35-.03c0 .052-.004.104-.002.156m49.844-.139c.873.022 1.806.051 2.72.081l.015-.156c-.916-.029-1.849-.058-2.72-.08q-.008.078-.015.155m-111.147-.084q.003.077.011.155l1.347-.053-.01-.156Zm-76.608.021c-.013-.096-.648-.028-.637.068.015.096.648.029.637-.068m200.017.054c.009-.097-.628-.163-.634-.066-.009.097.628.163.634.066m-161.676-.548c-.522-.012-1.122.094-1.661.111q1.205.225 2.417.449l.221-.053c1-.258.136-.483-.977-.507m155.58.487 1.379-.179-1.355-.131a7 7 0 0 0-.024.31m-183.716-.31q.016.154.035.308l.671-.063a6 6 0 0 0-.034-.308q-.336.03-.672.063m165.471-.221.656.434c-.112.019-.229.035-.342.054q-.492-.268-.992-.534Zm-105.179.39c-.007-.097-.648-.068-.642.03.009.096.644.067.642-.03m45.858-.286c-1.395-.019-2.543.254-3.723.017q-.164.04-.336.08c1.369.322 3.11.327 4.059-.097m-40.84-.793c-.741.027-1.215.197-2.004.25-.927.063-2.066.071-3.038.131-.169.39.691.292 2.044.218q-.327.17-.665.34c1.023.057 2.03.122 3.054.177.49-.041.78-.286.977-.335 1.107-.268 2.068-.357 2.012-.715l.002-.003c-.955.072-1.464-.095-2.382-.063m115.005.75q.851.154 1.698.31l.347-.046-1.328-.667q-.341-.03-.682-.06Zm-124.08.208c-.006-.097-.641-.065-.637.032.005.098.644.066.637-.032m-22.994-.048c-.007-.098-.646-.054-.637.043.011.097.643.053.637-.043m-19.702-.415c-.611-.108-2.24.381-1.967.429.609.107 2.237-.379 1.967-.429m-6.153-.424q-1.695.073-3.383.15.033.309.067.618 2.335-.372 4.678-.734l-.756-.711c-.201.226-.407.451-.606.677m58.318.698c-.451.019-.901.034-1.349.053a7 7 0 0 1-.02-.31l1.352-.056q.01.157.017.313m5.302-1.761c-.342.263-.799.477-1.116.752-.32.275-.58.671-.792.941-.122.156 1.184.079 1.275.037.62-.3.321-.491 2.051-.534-.011-.052-.002-.106-.008-.158l-1.343.046c-.024-.361-.041-.721-.067-1.084m-80.605 1.456q.018.154.039.307l2.043-.053a8 8 0 0 0-.035-.308Zm84.356-.18c-.89-.029-2.768-.018-2.991.252l4.046.172c-.382-.099-.41-.403-1.055-.424m-73.501-.272c-.203.227-.4.453-.602.679.446-.042.899-.083 1.345-.126q-.033-.308-.071-.618-.336.032-.672.065m39.405.57c-.005-.097-.648-.058-.637.039.007.097.639.058.637-.039m-30.566-.596c.013.154.035.309.05.463l2.023-.175q-.025-.231-.046-.463Zm19.286-.587c-.738-.016-.779.185-1.444.23-1.191.082-2.196.177-1.189.42.99-.179 1.999-.354 2.995-.529-.65.306-1.304.61-1.951.917q1.334-.252 2.668-.502.017.156.03.31l1.345-.094a5 5 0 0 0-.026-.311l-1.349.095c.11-.233-.087-.514-1.079-.536m109.076.596c1.282.014 2.164.084 2.675.401-1.308-.019-2.179-.086-2.675-.401m-95.763.384 2.025-.122q-.005-.077-.015-.155c-.851.077-1.275-.015-2.033-.034q.01.155.023.311m112.994-.432q.499.183.99.366l-1.336-.073q.003-.155.013-.31Zm-6.391-.003q-.001.156-.007.311l-.677-.029q.003-.156.01-.31Zm-76.208.158c.522.192 2.482-.051 3.383-.019.08.002.373.224.992.109.262-.049.299-.084.327-.165-.418.044-.912.005-1.319.056-.039-.081-.017-.106-.022-.17.546.054.555-.144.624-.165-.242.058-.771.018-.624.165-.456.019-.896.028-1.347.044l1.315-.432q-.675-.172-1.354-.342-.984.46-1.975.919m16.893.017c-.004-.097.626-.111.637-.014.004.097-.63.111-.637.014m6.034-.019-.671.007c0-.103-.009-.207-.009-.31l.669-.008q.006.155.011.311m-6.062-.214q-1.347.103-2.694.209c.022-.4 1.081-.519 2.683-.519q.01.155.011.31m-50.705-.228 1.724.359q.163-.049.331-.097c-.619-.075-.782-.164-.706-.347Zm67.579.279c0-.097.641-.1.641-.002.002.098-.637.099-.641.002m-116.518-.245q.015.155.039.308.336-.034.674-.07l-.037-.308q-.337.034-.676.07m22.484.063q.005.076.017.153l1.349-.114q-.007-.077-.017-.155Zm-2.797-.696-.591.832c1.432-.3 2.144-.577 1.939-.948Zm-8.777.643q.006.078.019.155l1.347-.128-.019-.153Zm77.249-.01c-.067.067.074.107-.009.163.252-.04.572-.003.637-.1.065-.093-.472-.03-.628-.063m80.214.032c.005-.097-.621-.133-.628-.037-.004.098.624.134.628.037m-107.934-.272c.004.103.015.207.022.311q.672-.038 1.345-.073l-.02-.308Zm68.848.226c-.002-.098.631-.091.631.007-.003.097-.631.09-.631-.007m-102.749-.029c-.011-.097-.648-.044-.639.053.013.096.65.044.639-.053m60.599-.076c-.498.024-.137.111-.362.17.505-.062.886-.004 1.384-.051l-.041-.017c-.059-.044.065-.126-.338-.121-.169.002-.463.01-.643.019m-13.194-.455q1.024-.006 2.053-.01l2.04.623c-.247-.3-.489-.602-.736-.902-.498-.01-1.152.075-1.622.063-.793-.022-.02-.272-.752-.281Zm-61.758-.161c-.992.203-1.453.462-2.657.566l.019.152q1.347-.127 2.695-.252c-.018-.154-.035-.312-.057-.466m19.07.085q.017.111.037.221l2.051.393-.778-1.028Zm131.137.519c.002-.097.636-.066.636.032-.004.097-.641.066-.636-.032m7.342.008 1.375.082q.008-.155.011-.31l-.34-.02Zm-103.231-.037c-.004-.097-.643-.066-.636.032.008.096.641.065.636-.032m-11.491-.242q.005.155.021.31l.674-.039q-.01-.155-.022-.31-.338.019-.673.039m18.935.216c-.006-.098-.643-.07-.641.026.004.098.648.071.641-.026m73.555-.929c-.559.433-.232 1.004-2.69 1.009.831-.318 1.204-.512.682-.912.669-.033 1.341-.066 2.008-.097m-37.772.933c0-.097.633-.102.639-.004-.002.097-.637.102-.639.004m29.024-.228-1.354.284a5 5 0 0 0 0-.31Zm-20.237.265-2.025.002c0-.051-.004-.104-.004-.155.857.025 1.275-.092 2.025-.158q.003.156.004.311m22.951-.126c.004-.097.637-.081.639.017-.002.097-.641.08-.639-.017m55.472.036c.005-.097-.632-.16-.641-.063-.006.097.635.16.641.063m-97.972-.102c0-.097.637-.109.639-.012.003.097-.634.109-.639.012m45.175-.254q0 .155-.003.31l-.673-.017q0-.155.002-.311Zm-87.771.266q1.352 0 2.705.003a8 8 0 0 0-.022-.311c-1.05.089-1.782.059-2.705-.002q.01.155.022.31m66.522-.126-.089-.014.009-.003-.015-.002 1.07-.277q-.488.149-.975.296m40.838-.158 1.339.071q.011-.155.013-.311l-.334-.017Zm-4.743.008c.004-.098-.634-.127-.637-.029-.002.097.633.126.637.029m14.907-.51c.111.204-.411.269-.704.423l1.365.089q.009-.232.021-.465Zm-124.347.26q.003.078.011.155l1.352-.082q-.004-.078-.011-.156-.678.042-1.352.083m31.781-.633q.023.388.039.776l2.023-.07-.223-.085c-.466-.204-.567-.409-.492-.667Zm-14.183.594q.003.078.01.155l1.343-.063c-.002-.051-.002-.104-.009-.155Zm-28.483-.317c.011.154.03.31.041.465.901-.023 1.447-.413 1.306-.56q-.675.047-1.347.095m18.314-.522c-1.115-.186-1.518.196-1.388.352-.661.046-1.334.083-1.999.126l-.303.483c.554-.114 1.113-.226 1.669-.338.984.239 2.012-.034 3.37-.116-.63-.03-1.145-.472-1.349-.507m-45.508.83c-.013-.097-.649-.037-.638.06.013.096.647.036.638-.06m49.573-.073c-.008-.097-.647-.061-.639.036.011.096.646.061.639-.036m74.304-.046c-.002-.097-.643-.108-.643-.01s.645.108.643.01m-100.109-.561.054.619 1.328-.332a3 3 0 0 0-.013-.156l-1.033-.157Zm29.147-.266c.247.14.49.284.736.424l1.335.252a940 940 0 0 0-3.388-.14c1.713.536 4.135.397 5.374-.335l-.689-.364q-1.684.08-3.368.163m27.746.732c-.002-.098-.645-.081-.641.017.009.096.641.079.641-.017m8.819.041-1.349.025-.009-.156 1.35-.024q.006.078.008.155m24.95-.914c-1.444.163-2.174.377-2.008.764l.68-.303 2.002.009h.004Zm14.225.444 2.001.279c.165-.203-.151-.432-.316-.626q-.044-.076-.091-.153c-.078-.157-.184-.312-.936-.342-.214.282-.441.561-.658.842m-70.33-.25.033.466.673-.032q-.013-.233-.028-.466Zm88.54.383c0-.097-.639-.124-.641-.026 0 .097.639.124.641.026m8.758-.031c.005-.098-.63-.132-.632-.034-.004.097.63.131.632.034m-120.359-.631c.015.206.035.412.052.618q.335-.02.673-.043c-.019-.206-.032-.413-.047-.618q-.339.02-.678.043m109.927.049c-1.906-.042-2.493.068-2.38.523.452-.137.918-.272 1.375-.409q1.354.132 2.707.269c.137-.336-.316-.352-1.702-.383m-114.666.114c.007.102.02.205.026.308l.676-.047q-.012-.153-.026-.308Zm44.024.191c-.002-.097-.637-.077-.637.02.005.097.642.078.637-.02m58.81-.097 2.008.058.004-.077c-.611-.178-1.044-.292-2.01-.291-.004.103-.002.207-.002.31m-113.693.003.344.051.99-.311-.344-.051Zm18.314-.279c.006.103.019.207.026.31l2.027-.123c-.007-.104-.019-.208-.026-.311q-1.012.061-2.027.124m-15.622-.007q.01.154.028.31l1.349-.102-1.041-.233Zm94.756.29 1.338.015q.002-.079-.002-.158l-1.339-.012q-.002.078.003.155m-52.021-.274 1.369.257c-.004-.103-.013-.207-.017-.31Zm22.986-.286 2.696-.126q-.325.316-.652.633l2.688-.199c.254-.707-1.382-.79-4.076-.866Zm-60.281.337q.006.078.018.156.672-.05 1.345-.097a2 2 0 0 0-.011-.153Zm100.147.003c-.005-.097-.641-.11-.641-.012-.003.097.643.11.641.012m-3.372.012 1.357.027q.004-.157 0-.313l-1.357-.025c-.003.104.002.208 0 .311m-22.325-.058c0-.098-.644-.096-.644.002.002.098.644.095.644-.002m8.819.068q.671.003 1.347.007-.002-.155-.007-.31-.671-.005-1.347-.008c0 .103.005.207.007.311m-38.452-.5c-.678.159.847.493 1.157.422.68-.158-.847-.494-1.157-.422m23.226.408q.837-.089 1.672-.175.001-.078-.004-.155c-.895-.043-1.796-.084-2.692-.124Zm-58.574-.18c-.008-.097-.649-.056-.641.041.007.097.646.056.641-.041m37.934-.315q.006.155.015.31l.674-.019-.015-.311Zm-52.191.213q.17.026.344.051l.992-.308-.344-.051Zm19.009-.114q.005.078.013.155 1.015-.059 2.029-.116-.005-.078-.015-.155-1.014.057-2.027.116m2.696-.31q.014.231.035.463l1.332-.308-1.031-.175Zm74.404.397c.914.054 1.497-.29 1.367-.448l-1.369-.02c-.002.156.002.313.002.468m-6.714-.058c-.002-.103.004-.207-.002-.31q-.673-.004-1.349-.007.677.159 1.351.317m-85.38-.601c-.758.122-1.132.271-2.012.303l1.042.235c.678-.19 1.111-.323.97-.538m-6.101.376c-.015-.096-.65-.046-.639.051.009.097.65.046.639-.051m93.48.005c.002-.098-.637-.103-.634-.005 0 .097.634.101.634.005m-62.251-.287.704.352q.673-.034 1.347-.065c-.574-.128-1.144-.255-1.718-.381Zm79.866.345c.004-.103.002-.208.002-.311l-1.352-.034Zm-82.58-.204c-.004-.098-.645-.063-.637.034.009.096.641.062.637-.034m27.75-.053c-.002-.098-.641-.079-.634.019.004.097.639.078.634-.019m-44.73-.015c-.013-.096-.645-.053-.639.044.007.097.648.053.639-.044m81.269-.102c0-.097-.636-.101-.634-.002.006.096.632.099.634.002m-62.275-.092c-.008-.097-.645-.064-.637.034.007.097.646.063.637-.034m-2.036-.281c.007.103.018.205.022.308l.676-.034a8 8 0 0 0-.022-.311Zm11.503-.4c-1.057.006-2.829.309-3.366.538.793.184 1.529.189 2.725.112q.318-.326.641-.65m-6.082.436 1.369.245a8 8 0 0 0-.019-.31Zm62.265.131 1.34.015q.001-.078 0-.156l-1.342-.014q0 .078.002.155m-6.74-.664c-1.672-.013-3.238-.093-4.055.308 1.423-.053 2.584-.198 4.059-.151v-.157Zm-21.673.092c-.009-.097-.641-.085-.641.012s.645.085.641-.012m-41.354-.262q.01.155.022.31l.675-.036-.021-.311Zm105.706.208 1.345.071-.999-.364-.333-.017a6 6 0 0 0-.013.31m-101.641-.269c.005.103.018.208.022.311q.662-.189 1.33-.376-.676.032-1.352.065m82.647.286 1.349-.269-1.345-.041q-.004.155-.004.31m-77.901-.208q.002.077.01.155l1.352-.063a2 2 0 0 0-.011-.155q-.678.03-1.351.063m-10.524-.233q-.495.184-.99.369l1.347-.078-.021-.308c-.111.006-.226.01-.336.017m32.87-.141q.005.155.015.311l1.358-.037q-.515-.142-1.037-.283Zm-28.48.136c-.009-.097-.643-.063-.637.034.009.097.643.063.637-.034m52.878-.223q1.706.148 3.404.301-.002-.233-.006-.466c-1.133.053-2.263.108-3.398.165m6.116.301c.975.029 1.414-.071 2.023-.228-.615-.162-1.057-.264-2.032-.238q.001.233.009.466m7.396-.194c-.002-.098-.634-.103-.634-.005.006.097.634.102.634.005m-2.67.056.671.007q.002-.156-.002-.313c-.223-.002-.448 0-.674-.002-.002.102.003.205.005.308m-44.735-.549c.002.104.011.208.018.311.859-.061 1.273.043 2.035.082l-.026-.463Zm49.437.282.675.007c.003-.103-.002-.207-.002-.31l-.675-.01Zm-31.803-.316q-.001.078.005.156c.45-.01.905-.019 1.355-.027q0-.078-.006-.155Zm14.883-.194c0 .104.007.208.007.311l1.362-.007-1.031-.306Zm-4.775-.038c0-.098-.639-.092-.635.007 0 .098.639.09.635-.007m-46.777-.134-.678.037q-.013-.156-.021-.311.339-.02.677-.036.012.156.022.31m2.049-.026c-.006-.098.635-.13.639-.032.002.097-.633.129-.639.032m51.52-.046c-.004-.097-.646-.094-.643.004.004.097.645.093.643-.004"/></svg>