<svg xmlns="http://www.w3.org/2000/svg" width="90" height="32" fill="none" viewBox="0 0 90 32"><path fill="#fff9ed" d="M10.994 7.82q2.967.828 2.967 4.14 0 2.047-1.311 3.22-1.288 1.173-3.887 1.173H2.162V.253h6.417q4.876 0 4.876 4.048 0 2.669-2.461 3.519m.345-1.173q.897-.782.897-2.231t-.874-2.208q-.851-.782-2.875-.782H3.381v5.98h4.968q2.115 0 2.99-.759M8.74 15.18q3.98 0 3.979-3.289 0-1.633-.943-2.484-.943-.874-3.082-.874H3.381v6.647ZM36.986.253v16.1h-1.219V1.426H25.325v14.927h-1.219V.253h12.88M48.88 0q3.52 0 5.888 2.392 2.37 2.37 2.369 5.911 0 3.542-2.369 5.934-2.37 2.37-5.888 2.369-3.519 0-5.911-2.369-2.37-2.393-2.369-5.934t2.392-5.911Q45.383 0 48.879 0m4.991 3.22q-2.024-2.047-4.991-2.047T43.865 3.22q-2.025 2.047-2.024 5.083t2.024 5.083q2.047 2.047 5.014 2.047t4.991-2.047q2.048-2.047 2.024-5.083.022-3.036-2.024-5.083M63.662.253h9.315v16.1h-1.219V1.426h-7.061l-1.68 10.028q-.481 2.851-1.287 4.002-.782 1.15-2.208 1.15-.62 0-1.081-.046v-1.127l.897.023q1.035 0 1.564-.851.529-.85.92-3.197ZM87.23 1.426h-8.717v6.026H86.7v1.173h-8.188v6.555h8.717v1.173h-9.936V.253h9.936Z"/><path fill="#6a8850" d="M.25 31.293c.01.013-.073.071-.082.058s.072-.07.083-.058M55.6 20.477l.286-.105.459.023.008.05q.144-.016.29-.028v.05c.183-.03.32-.058.582-.049.145.005.67.027.775.019.338-.025.32-.066.676-.046-.003.016.007.033.008.049l.744.083-.01-.05-.164-.027.648-.043c.4.048.726.014 1.16.048.188.015.357.079.631.058.008-.015.004-.033.009-.05a7 7 0 0 1 .92.088c.172.026.133.047.341.023q.086.042.175.082l.06-.099c.285.045.437.043.647-.002l.172.044c-.169.03-.103.055.06.091.098 0 .065-.033.117-.046.205-.053.318-.024.575-.009.418.025.751.029 1.16.067.077.008.172.04.284.037.004.027 0 .051.002.077.28-.011.486-.054.818-.03q.001.026.004.05l.46.03.006-.05.289.068.525-.013c.03.076-.225.02-.412.048-.078.012-.11.047-.177.064l.579.04c.044-.04.076-.08.128-.118.14 0 .508.064.609.072.782.058 1.471.092 2.253.193.107.014.173-.01.34.01.217.025.582.106.78.158.12-.003.226-.008.345-.01q.24.063.477.128c.229.023.466.025.691.06.275.042.368.088.632.08l.052.06c.398.002.767.084 1.138.185.022-.022.049-.045.068-.067.298.027.374.095.653.145.138.025.249 0 .462.059.133.036.214.092.439.095.181.067.11.102.406.15.004-.155.498.046.566.063.427.099.58.103.922.19.002-.017.003-.033.02-.047.239.026.65.158.821.198.455.105.852.197 1.25.287.455.104.575.173.937.289.304.098.568.148.874.25.067.023.154.077.267.103.001.019-.005.034-.005.051.434.069.754.186 1.184.352.245.096.437.163.681.263.097.04.164.032.306.093.104.045.243.129.39.175a.2.2 0 0 1-.012.05c.311.078.409.152.71.295.217.104.266.106.561.246.344.16 1.052.541 1.414.778.205.13.395.31.566.427.162.111.133.049.283.168-.124-.004.048.14.09.238.107.255.003.39-.072.515-.019.031-.143-.055-.136-.016q.136.098.265.2c-.055.006.02.12.015.156-.006.047-.097-.01-.129.003l-.003-.001c-.046.018.002.076-.069.079-.015 0-.014.033-.043.023-.19-.06-.429-.266-.408-.347l-.23-.157-.029.042c-.128-.106-.273-.22-.393-.313.05.056.092.108.147.168a3 3 0 0 0-.174-.033c-.129-.107-.28-.185-.435-.293-.156-.107-.138-.14-.374-.231-.097-.066-.18-.169-.27-.222-.277-.165-.085.06-.116.082q.263.117.512.238l-.036.068c.138.079.355.258.463.275q.01-.015.018-.031l.091.054.051.107q.13.087.273.186-.03.042-.057.086c.169.113.276.24.44.317a10 10 0 0 0-.31-.308c.029-.081.192-.04.43.06.101.12.21.221.137.245-.026.007-.2-.053-.206-.027-.012.05.144.19.078.204a11 11 0 0 0-.534-.344l-.277-.088c-.043-.07.166.04.225.053.073.015-.041-.084.002-.091a1.2 1.2 0 0 0-.433-.21c-.114-.095-.084-.107-.093-.156-.006-.035-.17-.115-.207-.165-.073-.002.056.088-.015.096-.04.004-.24-.077-.218-.02-.305-.16-.448-.312-.758-.471.09.066.186.137.275.206a22 22 0 0 0-.525-.294c-.224-.04-.12.066-.484-.105q.08.09.154.178c-.255-.091-.425-.221-.636-.32-.366-.171-.496-.198-.64-.351.118-.006.244-.008.366-.01l-.329-.108c-.051.058-.252-.077-.347-.144l.13-.035c-.303-.044-.437-.038-.433.063l-.203-.068-.03.07-.423-.14.11-.005-.14-.086-.23-.022-.268-.106c.063.083-.037.11-.053.17-.21-.061-.394-.122-.587-.173-.13-.035-.18-.022-.328-.065-.18-.053-.358-.14-.576-.181.024-.03.169.005.303.03.135.025.173.037.156-.013.192.065.334.105.526.147-.025.042-.003.057.197.11-.045-.05.085-.035.098-.064.013-.028-.105-.072-.042-.091.024-.01.258.03.224-.0008999999999979025-.138-.033-.255-.059-.382-.087l-.073.06c-.37-.12-.57-.1-.927-.176l-.096-.077-.088.109c-.339-.087-.721-.157-.76-.268q.223.067.442.135l.137-.07q.556.127 1.09.262l-.065-.176q.27.062.535.127l-.02.073c.334.115.69.241 1.019.367q.145.008.288.018-.205-.09-.414-.177c.166.008.329.064.545.14-.132-.115.137-.079-.1-.221l.02.114-.318-.105-.026.042c-.258-.085-.228-.044-.233.007-.16-.045-.248-.075-.209-.105.024-.018.144 0 .075-.044-.166-.003-.255-.082-.428-.128-.128-.034-.142-.001-.252-.027-.193-.044-.385-.096-.583-.135.024-.031-.03-.076.144-.053.102.013.212.078.313.062l-.254-.11-.391-.056.088.103-.443-.091c.012-.05.075-.083-.074-.164q.114.016.227.033-.435-.134-.886-.263.331.126.652.254l-.126.034c-.306-.07-.111-.075-.324-.134l-.016.049-.45-.109.161.091c.39.054.527.114.773.244q.249.052.492.105c.026.05.047.1.075.152-.116-.024-.158-.086-.282-.128-.058-.02-.266-.064-.356-.094.019-.012.033-.04-.042-.063-.098-.03-.257-.087-.32-.1-.184-.042-.23-.026-.411-.082-.027-.088-.34-.166-.57-.261-.035.014.011.07.097.098.12.04.151.024.273.08.118.055.218.153.403.224a45 45 0 0 0-.78-.118c-.026-.083-.259-.164-.569-.205-.215-.08-.712-.178-.82-.259-.016-.012.089.009.075-.013a.25.25 0 0 0-.185-.097q-.185.032-.37.07c.091.04.19.004.229.045.021.023-.065.028-.001.064-.138-.03-.233-.045-.355-.07l.272.13q.03.007.057.011c.012-.022-.003-.053.026-.07.025.013.307.095.295.121-.005.01-.086-.006-.063.015.04.037.3.128-.002.087-.112-.014-.25-.071-.263-.102l.23.02c-.555-.106-.814-.227-1.146-.371-.117 0-.166.018-.233.036-.093.024-.055.05-.285.002.006-.027-.042-.093.075-.087.163.008.315-.01.44.003.124.014.09.046.217.056.103.009.156-.002.287.029l-.09-.055.163-.009.399.063a2.5 2.5 0 0 0-.492-.104c-.115-.012-.191.022-.297-.005-.065-.046.1-.043.098-.07-.004-.04-.207-.075-.16-.113l-.234.04.074.104-.324-.108.21.113c-.264-.053-.523-.066-.778-.131l-.123.046-.583-.03.351-.036c.042-.06.018-.049-.214-.098-.007-.002-.001-.022-.054-.03-.052-.008-.052.012-.06.012-.078-.004-.152-.024-.23-.033q.105.06.209.122c-.13.018-.09.054-.339.015l-.022.044-.45-.012-.26-.166-.293.075.214.093-.22-.03q.004.008-.005.013l.224.043c-.166.045-.495-.016-.79-.042-.182-.016-.22-.02-.337-.069l.288.026.06-.045c.19.02.27.057.386.102l-.05-.058.222.03c-.044-.044-.08-.077.013-.1q-.117.022-.233.045c-.159-.019-.248-.026-.216-.065l-.341-.059.34.018c.046-.075.223-.1-.082-.202l.23-.06.272.114.234-.046c.152.056.123.101.377.13l-.068.093.275.04-.092-.127c.147-.014.312-.024.469-.035l-.575-.02c.013-.029.032-.091-.164-.122-.075-.012-.162.003-.265-.042-.009.026-.007.05-.013.076l-.334-.046.003-.035-.228-.02.182-.078.216.106q.032-.035.066-.068l.333.071c-.05-.043.074-.046.093-.076.013-.02-.08-.04-.079-.063.003-.035.017-.075.018-.112l-.559-.102c-.013-.048.019-.072.187-.078l.321.069.296-.009q.046.084.09.167c.275.02.228-.046.38-.071.028-.005.25.038.27.014.065.027.113.05.171.077l-.354-.002.4.086.187-.047q.46.06.91.124l-.23-.013.096.12c.095-.002.196-.002.286-.003.172.046.07.062.178.106.11.044.398.095.517.149q.175.031.349.065l-.221-.094.134-.078c-.105-.023-.225-.006-.31-.009-.089-.003-.29-.007-.371-.052.375-.032.725.016 1.194.187l.015-.075.264.17q-.294-.008-.592-.014c.138.046.042.09.279.117.122.013.334-.027.453-.004.252.05.4.1.623.153l-.483-.233.074-.035c-.633-.168-.123-.17.138-.102q.128.092.25.184c.224.014.138-.018.09-.072-.078-.087.296.049.427.083q-.006.038-.014.075c.15.026.285.048.447.078l-.212-.102c.452.112.79.143.833.045l-.31.028-.141-.164.242.005-.357-.044-.227.022.079.084-.329-.05.006-.05q-.385-.076-.778-.146l.016-.075.217.073.185-.038.048.062.437.1c-.097-.141-.41-.201-.82-.237l-.215-.093-.408-.034.07-.038-.4-.106.095.122-.222-.04-.022.043c-.25-.053-.387-.049-.578-.056l.129-.08c.216.047.297.09.465.076l-.174-.072.08-.062c-.119-.006-.244-.012-.357-.016l-.093-.12q-.166-.031-.333-.06c-.013.039.298.067.205.099-.094.031-.183-.01-.325-.044q-.009.023-.018.048l-.334-.058c.147.082.306.128.035.135-.13-.052-.213-.083-.27-.138-.014-.013-.082-.075-.072-.086.032-.033.144-.028.101-.074l-.125.03c-.148-.028-.26-.018-.398-.038-.103-.015-.139-.042-.23-.057-.094-.015-.109.01-.227-.019-.144-.035-.198-.089-.407-.11l.215.146-.125.046-.348-.05q.02.052.043.108l-.382-.119c.081-.016.17-.02.21-.05.054-.041.043-.11-.066-.172l.223.03.012-.074-.445-.09.092.168c-.211-.06-.263-.035-.455-.038l.005-.05-.286-.013c.02-.014.047-.027.062-.043-.16-.01-.375-.078-.495-.088-.24-.021-.15.056-.203.07-.053.013-.098-.012-.157-.013a20 20 0 0 0-1.19.013l-.16-.12c-.09.02-.24-.025-.33-.004s-.056.098-.307.09q.035-.047.068-.095l-.407.036-.57-.106c.015.018.038.039.05.056-.18-.004-.29-.065-.395-.083-.231-.04-.4-.007-.564-.03-.217-.032-.188-.075-.426-.084.002.025-.003.05-.003.076l-.566-.07.003-.025-.228-.018.007-.126-.118.043-.341-.063.23-.034c.001-.03-.174-.015-.22-.03-.096-.034.102-.061.056-.096-.191.01-.388.023-.582.036l-.173-.012.002-.075-.462-.055.232.053c-.016.044-.087.075-.125.12-.018.021-.004.055-.178.025-.07-.011-.132-.052-.228-.058-.151-.008-.26-.007-.403-.03l-.007-.048-.342-.032-.108-.07-.341.008-.003-.05c-.278-.02-.433-.01-.462.053q-.46-.009-.923-.014l.121-.198-.347.012-.004.076c-.197-.003-.276-.033-.408-.064l-.41.048.35.024.001.076.515.046.294.137-.29.014q-.03-.051-.057-.104l-.462-.016-.005.05-.234-.008q0-.026-.002-.051l-.4.013-.148-.12.097-.058.225-.007c-.23-.07-.527-.08-.857-.113-.258.041-.057.087-.06.15l-.277-.032-.242.044-.404-.084c-.138.124-.634.07-1.096.087-.186.008-.244.073-.471.066l-.172-.102c.24.019.444.009.692.008l.006-.076.229.003c.08-.05-.264-.107-.467-.108.034.062-.25.091-.117.15l-.459-.08-.342.251-.17-.129q-.35-.052-.7-.102.002-.04.002-.077c-.152.034-.34.06-.28.114.054.047.325.024.436.042.11.018.033.052.177.07h-.001.002l-.213.053-.352-.102-.4.026-.118-.102.23.013v-.063a4.5 4.5 0 0 0-.696.002l.235.15-.466-.073.003.152-.24-.137.004-.038c.34 0 .252-.04.052-.077l-.515.03.116.062-.342.067c-.286-.037-.255-.117-.579-.145-.038.046.34.084.222.122-.07.022-.243-.03-.333-.005.112.01.06.056.185.059.214.004.306-.015.277.048-.235.01-.298-.036-.463-.057-.118-.015-.218.023-.344.017q.114-.012.23-.028-.06-.075-.122-.15c-.268.012-.54.026-.806.04-.047.033.089.038.102.065.021.047-.156.066.02.11l-.465-.016.097-.04-.099-.035.23-.006-.002-.076-.348.008.004.1-.697-.007.064.048c-.145.111-.004.16.526.14l-.236-.07.288-.033c.163.026.195.053.18.098l.346-.008.005.05.46.018-.69.039.001.076c-.215.01-.24.003-.241-.044l-.225.003.115-.053-.58.027c.159.039.481.04.473.102.354.001.522-.032.747-.092l.111-.002c.171.03.274.07.524.066-.035-.025-.085-.048-.112-.075.247.002.641-.093.828-.084.378.02.016.121.094.172.393.02.38-.075.622-.102.2-.023.4-.002.576-.008.128-.004.154-.025.248-.025.445.003.75.095 1.204.097l-.348-.102.572.028.008.048.57.004v-.076l.115.052c.203-.026.317-.056.572-.046l-.344-.08.454.032.012.047.517.085.06-.05c.127-.007.208.021.3.027.146.01.188-.025.326-.014.103.008.161.033.293.03l.008.05c.125.016.187-.018.282-.013.233.012.352.064.609.061q-.046.023-.088.047c.111-.001.293.025.34-.008.045-.032.025-.037.223-.029l.012-.048c.224.002.411.016.62.045.13.019.052.052.065.078l-.575-.02c-.014.086.358.13.337.215l-.34-.024c.039.023.072.045.115.067.093-.025.342-.024.439-.037.095-.014-.01-.041.03-.06.023-.01.087-.015.097-.027.022-.028-.114-.043-.091-.074.01-.014.1-.026.107-.05.01-.031-.008-.079 0-.113.162-.001.253.035.406.04.152.006.244-.023.406-.01l-.232.055.228.072c.004-.024-.048-.064.06-.073.065-.005.176-.015.224-.011.187.013.277.045.468.04l.117-.045c.055.028.115.056.166.085-.132-.017-.484.018-.326.057.12.03.347-.03.497.023.178-.016.345-.032.516-.046.04.023-.076.068-.123.078-.161.035-.36.014-.339.076q.286 0 .57.004l-.002.076.341.019c-.01.016-.063.034-.126.043-.01.002-.107-.006-.105.007.004.014.097.016.103.019.043.018-.007.033.007.05l.056.004c.017-.016.045-.03.056-.048l-.113-.006.001-.026.112.031c.331-.021-.018-.103-.066-.138-.048-.034.085-.026.089-.048.001-.036-.202-.099-.102-.12.075-.015.32.029.27.067-.052.04.056.108.283.14.045-.039-.323-.1-.102-.117.176-.014.377.044.57.045.011-.049.118-.07.353-.053-.191.066-.075.154.336.2l-.12.069q.398.053.792.108l.114.059.118-.067q-.395-.045-.794-.085l-.103-.21.23-.01-.457-.056c.308-.005.53.013.793.067s.153.024.415.045c.14.012.321.063.494.065.012.076-.104.129-.238.185q.14.023.28.048c.141-.012.023-.048.09-.084.013-.006.191-.054.276-.064.154-.017.542-.014.752.017.002.017 0 .034.002.05.207-.01.403.018.631.036.145.012.189-.01.35.01.27.033.448.093.725.076q-.114.027-.23.052c.2.016.334.038.509.08.039.009.062.013.103.02l.072-.05.813.071c-.076.047-.314.087.1.14l-.103-.114q.286.022.57.046l.124-.034c-.021.022-.049.045-.067.067.058.036.204.038.263.064.123.056.055.086.348.122-.13.013-.026.03-.039.058-.012.028-.325.042-.425-.006.071-.012.156-.022.229-.034-.122-.012-.347-.037-.443-.034.02 0 .127-.037.203-.034-.047-.005-.101-.007-.15-.011l-.111-.037c-.167.007-.294.061.058.082-.096.002-.075.037-.19.026-.257-.026-.375-.083-.624-.076.034-.018-.1-.1-.215-.101-.114-.002-.146.018-.246.02l.279.136.293-.016.045.108.235-.022.167.06c-.25.042.229.255-.22.234-.05-.002-.2-.054-.265-.014.027.031.072.068.105.1l.221.03-.179.054-.489-.29-.123.063c-.264-.03-.448-.086-.686-.078l.012-.127c-.121-.007-.174-.031-.276-.049-.043-.008-.076.009-.11.003a3 3 0 0 1-.448-.118l-.067.12-.336-.084-.25.232-.114-.062c-.242.012-.382-.065-.626-.057-.088-.031.112-.042.17-.048.09-.01.154.017.229.003s.085-.064.244-.063l-.208-.095.105-.053c-.173.007-.275-.023-.46-.043.017.05-.02.082-.24.082-.064-.078-.261-.15-.217-.222-.129.033-.29.087-.404.116s-.186.032-.293.056l.224.018c.014.071-.091.127-.012.202-.223-.04-.166-.098-.445-.111l.11.059-.456.017c-.007-.052-.048-.085.231-.06l-.108-.084.284-.003.278.072c-.035-.072-.266-.138-.2-.205.015-.016.263-.023.216-.048-.425-.038-.552.024-.574.108l-.34-.025.06-.046c.106.037.22.049.17-.001a1 1 0 0 0-.115-.08 1.1 1.1 0 0 0-.388-.096l.167.039c.079.107.245.164-.35.127q0 .039-.003.076l.345-.027c.043.1-.293.066-.529.121-.032.008.003.079-.057.092-.16-.014-.271-.081-.394-.096-.291-.035-.478-.001-.757-.024-.02-.074.223-.037.466-.023.043-.057.082-.114.128-.17.124.008.434.034.438-.014.002-.025-.149-.062.03-.083-.16-.012-.309-.02-.465-.03l-.063.098-.52-.081.229.114-.346-.02-.231.09c.104-.089.313-.14.013-.241.132-.022.26-.045.399-.066.212.046.628.133.637.037-.235.017-.399-.052-.63-.063-.387-.017-.244-.02-.625-.056-.106-.01-.61.01-.735-.065-.08.014-.12.028-.184.042l.569.053v.076l.17-.014.168.082-.641-.01c-.209-.004-.408-.01-.613-.012.122.045.328.057.508.062.15.004.402-.062.5-.023.143.057-.429.09-.212.162l-.345-.016c.037-.015.08-.03.113-.045-.21-.012-.6-.042-.727-.082-.146-.046.007-.044-.09-.096-.082-.045-.357-.13-.491-.182.014.033.036.07.053.103l-.232.017c.118-.004.23-.009.351-.012 0 .045.256.113-.096.12-.096.003-.539-.063-.71-.048-.018-.018-.006-.033-.012-.05l-.567-.019c-.033-.022.17-.037.202-.058.013-.008-.077-.016-.06-.027.054-.033.237-.035.2-.082l-.342.116-.341-.06.11.09-.112.062-.339-.034-.008.05c-.176-.007-.369.022-.51-.012l.055.063c-.251.046-.62.112-.572-.023l-.288.046.058-.1-.348-.031c-.008.035 0 .068.06.102.084.048.28.08.287.132-.308-.003-.409-.081-.64-.108-.16-.018-.262.005-.405-.022-.118-.022-.14-.069-.279-.09-.212.002-.276.027-.284.072h-.003l-.225-.001-.003-.076-.456-.028c-.023-.048.013-.054.228-.05l-.116-.126-.459-.002.228-.1-.46.049c.012-.05.047-.124-.17-.149-.219-.024-.147.023-.18.047l-.343.002c-.035.06.137.086.247.136l-.01.092-.237-.075h-.223l-.005-.076-.575.056-.171.153-.062-.1C55.971 22.067 55.898 22.077 55.82 22.07c-.007 0-.004-.02-.057-.02s-.046.02-.056.021c-.058.01-.1-.003-.159.007-.185.029-.278.06-.526.055.056-.025.093-.031.227-.029l-.118-.125.344.02c-.098-.033-.05-.05-.003-.087-.124-.035-.256-.038-.455-.034l-.01-.049-.341.005q0 .037.003.076c.337-.053.614.006.282.044-.137.016-.29-.004-.448.013-.135.015-.212.059-.404.055q.059.063.119.124l.344-.006q-.001-.026-.001-.05.114-.002.23-.005l-.226.068.224.072-.276.093c-.175-.05-.39-.033-.637-.05l-.103-.024q.045-.014.091-.027c-.12-.036-.253-.037-.452-.029.01-.076.078-.116.408-.16.071-.01.321-.021.216-.056l-.442.033-.19-.019c.038.029 0 .121-.23.077-.023-.005-.04-.068-.173-.066q-.145.027-.287.057l-.142-.027c-.114.041-.123.064.03.094l-.265-.003-.534.064.573-.017-.224.108.568-.092-.222.121-.344-.003.462.089-.689-.032-.411-.164-.4.038-.121-.123.574-.02c-.007.052-.049.085.233.07-.188-.069.046-.118.22-.185l-.571.069-.004-.076c.235-.016.35-.044.574-.018-.003-.017.002-.034-.006-.052-.091.017-.233-.014-.275-.011-.201.011-.403.086-.562.087-.38.003-.047-.124-.09-.139a.28.28 0 0 0-.276.052c-.061.053-.008.084-.287.088l.464.034-.805.03c.129.05.297.07.578.054-.014.065.05.113.241.157l-.343-.001c.009-.044-.008-.073-.181-.092q-.058.015-.116.026l-.06-.047-.453.106c.309.034.129-.058.4-.05.173.004.195.056.18.09q-.115.019-.23.035c.375.013.665.002 1.034-.038.005.041-.193.028-.287.063-.085.03-.053.08-.217.106-.351.033-.05-.06-.078-.066-.21-.042-.5-.05-.74-.079q.001.038.005.077l-.235-.038c-.123.045-.23.009-.336.017-.23.016-.165.092-.405.113q-.03-.049-.063-.098c-.13.022.046.05-.169.045-.11-.003-.222-.007-.343.004-.019-.074.076-.149-.188-.194l-.511.09q.17-.01.343-.018l-.088.03c.193.033.236.069.216.129l-.455.023c-.002.016 0 .034-.002.05-.16.022-.282-.002-.408-.001-.172.002-.225.042-.393.043-.014-.05-.059-.077.218-.088l.109-.157c-.302.015-.789.099-.795.171l-.174-.014-.223.088c-.16-.022-.213-.035.008-.075.253-.046.45-.048.378-.126-.479.026-.492.149-.948.18-.354.024-.386.057-.729.098a8 8 0 0 1-.767.05c-.228-.001-.345-.044-.638-.001l-.244-.11q.113-.007.227-.017l-.008-.1.29.026c.207-.047.398-.02.633-.04-.04.053-.274.044-.402.03l-.28.093q.43-.017.86-.033l.278-.145q-.256.016-.513.034l-.182-.064.693.005-.012-.127c-.278.018-.527.054-.803.054l-.16.138c-.401 0-.266-.049-.071-.121a2.5 2.5 0 0 0-.506.084c-.077.022-.02.045-.063.054-.23.053-.523.051-.734.11l.159-.14.572-.055c-.027-.065-.36-.018-.519.026l-.061-.046c-.093.006-.179.004-.226.03a.4.4 0 0 0-.085.055c.042.055.096.056-.128.116l.119.052-.342.052.107-.084-.455.074.228-.031-.099.16-.348-.01.226-.043-.466-.064.105-.073.232.007-.008-.076a5.4 5.4 0 0 0-.916.076l.007.077-.286-.001-.17.053.23.005-.507.108-.065-.045q-.165.03-.333.057l-.218.146c-.335.004-.058-.048-.14-.089-.012-.005-.248.015-.21.035-.006.012.002.023 0 .035l-.227.021-.01-.05-.685.066c.096.016.196.03.288.047l.174-.028-.17.03-.007-.002c-.124.019-.328.054-.43.069-.104.014-.104.008-.188.018.04-.025.072-.049.109-.073-.158-.022-.383.007-.355-.055-.121.018-.242.059-.337.085q-.03-.01-.06-.019c-.052.003-.044.027-.053.03-.286.064-.55.05-.855.09l-.124-.038.071.095-.342.036c.02-.08-.073-.128-.255-.176l.452-.075-.124-.063-.461.025c-.016.031-.098.07-.099.1 0 .03.107.053.183.069.132.027.216.012.009.076q-.262-.023-.527-.043l.006.075-.22.026q.001.038.007.074c-.217.024-.155-.034-.254-.043-.099-.01-.243.03-.385.037-.071.004-.112-.013-.25.008-.212.031-.582.16-.829.175-.065-.052.217-.143.09-.177l.219-.064c.231-.023.061.055.002.084s-.222.071-.208.093c.381-.048.706-.116.667-.207l.462-.028-.134-.113c-.16.02-.272.064-.4.048-.088.029.182.052-.116.063-.04.001-.268-.02-.277-.028-.061-.056.362-.088.315-.154-.18.018-.054.041-.174.071-.165.041-.3.083-.493.112l.013.1-.23.015.1-.101-.22.024c-.008-.015-.008-.03-.02-.045-.244.03-.653.061-.767.134-.114.072.4-.018.514-.004l.272-.03.125.047-.1.102-.24-.047-.223.04-.071-.08-.213.103c-.169.005-.1-.036-.2-.047a3.5 3.5 0 0 0-.557.043c-.006.018-.003.033-.006.05l-.213.031c-.05.057-.042.114-.333.145l-.07-.067-.29.014.444-.137c-.193.039-.355.1-.513.142-.207.055-.41.074-.378.132-.177.038-.476.029-.634.042-.157.013-.248.037-.393.052.166-.06.314-.1.554-.13q0-.025.003-.05c.442-.08.358-.156-.082-.091-.094.014-.075.062-.154.085l-.34.061c-.023.048-.112.097-.093.141-.126.015-.228.02-.343.024l.01.075c-.227.036-.332.075-.327.126l-.461.043.083-.077-.367-.162c-.209.026-.34.012-.511.076q-.065-.04-.133-.08c-.171.064-.185.07-.034.095.123.021.282.058.472.055.114-.002.147-.046.232-.035q-.053.04-.104.08l-.298-.005c-.27.035-.356.104-.61.145q-.004-.017-.006-.034l-.345.038.128.057-.339.055c.009.032.012.067.022.099-.198.04-.055-.054-.19-.019-.244.063-.563.108-.762.198-.179-.017-.323.011-.575.043-.197.025-.506.063-.687.094-.574.099-1.034.167-1.591.26-.35.06-.855.185-1.076.139-.14-.03.236-.064.197-.103-.361.047-.527.01-.923.101l.459-.063-.09.12c-.158.033-.243.03-.403.052-.1.014-.21.05-.33.063-.142.016-.216-.015-.406.034l.009.05c-.132.018-.261.035-.395.055-.049.024-.182.066-.09.069.212.007.491-.145.503-.05-.423.085-.844.172-1.285.266-.209.01-.204-.032-.205-.085-.036.024-.065.049-.105.073-.305.102-.626.08-.84.115s-.198.084-.405.107c.035-.04.058-.082.088-.122l-.306.133q.06.02.116.04c-.076.019-.195.042-.261.056-.265.056-.344.06-.6.092-.077.01-.29.058-.38.062.036.055-.07.119-.307.204q-.015-.048-.028-.098-.331.106-.658.214l.208-.104-.195-.057.077.06q-.444.11-.882.222l.022.074-.326.084c.09-.063-.004-.062-.03-.097l.279-.049.254-.128-.237-.005.447-.088-.226.03-.024-.072c-.304.079-.53.197-.82.213q.053.066.103.131c-.278.082-.386.078-.587.09-.143.01-.253.017-.33.092-.086.082.139-.03.226-.037-.133.063-.062.075-.143.133-.09.063-.21.093.027.07q.29-.131.587-.263c.026.046.079.061-.198.132l.018.074-.556.15c-.005-.015-.016-.03-.017-.047-.244.056-.18.085-.401.16-.115.04-.333.127-.524.171-.192.045-.445.05-.696.16.06-.046.125-.09.187-.136l-.377.165-.39.093.128.014-.443.136.075-.13-.16.076-.014-.048-.487.154-.025-.043-.273.062c-.238.142-.54.232-.885.376l.2.012c.093-.04.17-.075.254-.113q.016.036.028.072l-.258.112-.24.032q-.295.128-.583.258l.035-.067-.162.058-.035.068c-.496.187-.925.295-1.353.54-.376.074-.684.236-1.099.407-.1.041-.2.115-.323.14.002.018.011.032.016.049-.156.051-.307.104-.48.166-.266.212-.401.236-.73.358-.19.072-.316.116-.513.21-.09.042.038.069-.196.16-.023-.025-.038-.057-.057-.085-.142.107-.228.15-.319.15.208-.116.338-.177.277-.215l.184-.102c.003-.056.09-.124-.098-.062-.248.154-.56.352-.816.529-.08-.026.26-.297.297-.385-.265.148-.344.155-.362.094a.8.8 0 0 0-.226.168c-.115.118-.064.137-.284.275q.002-.046.005-.095c-.139.054-.032-.053-.033-.084 0-.03-.113.045-.144.048-.09.01-.074-.02-.253.108L0 31.138l.151-.073-.092-.03c.21-.168.45-.332.702-.484.076-.046.166-.08.21-.104.39-.21.48-.278.846-.49.073-.043.325-.131.491-.23.056-.034.076-.084.212-.157.16-.086.538-.23.737-.32.162-.076.33-.175.498-.252q.013.022.024.046.245-.147.499-.291.355-.137.723-.27l.026.043c.196-.1.288-.11.477-.184.187-.073.306-.16.52-.223l.247-.01c-.03-.025-.066-.048-.091-.074.142-.07.37-.114.487-.156.354-.127.635-.266.949-.331.129-.027.302-.017.398-.042.393-.104.403-.18.638-.278.137-.058.138-.027.226-.055.459-.149.89-.336 1.315-.468.438-.135.917-.193 1.342-.302.34-.087.43-.163.752-.2q-.009-.026-.01-.05c.163-.044.348-.095.49-.13.098-.025.161-.021.225-.037.192-.05.348-.144.533-.178.222-.041.265 0 .53-.083q.004.019.011.034l.17-.051.126.02.15-.114-.349.058.447-.122.347-.067.022.045.334-.078c-.034-.055.095-.077.321-.126l.235-.002-.13-.048.32-.126.418.01-.074-.06c.123-.037.182-.024.28-.044.1-.02.12-.046.227-.07l.51-.109q.008.024.015.049l.114-.025q-.003-.024-.01-.049c.294-.083.527-.141.839-.2.872-.163 1.725-.375 2.616-.466.318-.098.603-.168.962-.228l-.242-.034.454-.056.189.044.137-.18c.348-.022.129.064.146.13.271-.049.59-.104.851-.15.106-.018.175-.007.23-.018.268-.053.437-.14.698-.14l.322-.127c.116 0 .174.017.3.016.148-.002.26-.035.238.024l.456-.046-.01-.074.218-.037-.01-.074.347-.029c.016-.062.315-.172.34-.078l-.228.048.23-.022.016.074c.232-.018.462-.128.441-.17l.297.006c.323-.086.431-.131.378-.208l.34-.023.021.045.4-.004.158-.1-.22.03-.195-.046-.74.107c.118.057.126.083-.146.175l-.085-.14-.385.16.049-.059c-.312.044-.522.04-.804.123.011-.08-.028-.124-.32-.13l-.39.113.347-.029q.018.087.034.174c-.275.029-.575.078-.842.107-.095.01-.12-.01-.185-.006-.19.01-.256.032-.246-.024l-.335.082c.021.053.049.095-.208.163l-.02-.074-.217.034-.019-.046-.22.036-.023-.045-.337.057.001.05-.39.093c-.207.003-.257-.06-.53-.008l.033-.109-.39.097c-.045.092.396.06.383.137-.275.015-.504.096-.79.143l.217-.078-.305-.008-.27.062c.19-.093.303-.167.021-.172l-.03.135-.46.087-.094.12c-.373.026-.17-.027-.04-.108-.334-.059.134-.078.3-.07.082-.014.082-.042.046-.047-.168-.022-.45.045-.696.093l.132.053-.335.103.005.025.244.017q-.344.066-.684.134c-.087-.035.228-.15.432-.188-.024-.062-.204-.044-.473.015l.017.074c-.31.042-.593.121-.9.18l-.35.254c-.133.002-.278.006-.417.01.104-.029.295-.026.344-.061.052-.036.095-.079.093-.109a3.4 3.4 0 0 0-.719.254c-.138-.005-.296.01-.41-.008-.075-.012-.044-.036-.25.02l.133.05q-.199.055-.394.111l.073.036-.338.075.08-.148-.424.198.03-.11-.107.044-.187-.03.449-.101-.524.04c-.137.071-.39.132-.37.187l-.208.05.016.075-.235.041.084-.137-.49.246c-.173.04-.386.101-.547.13-.102.02-.17.002-.242.017-.206.043-.175.03-.382.065-.17.028-.713.166-.819.14.057-.049.124-.1.187-.152-.131.009-.21-.002-.357.013-.143.014-.267.062-.243-.001-.079.019-.152.04-.229.06-.005-.011-.011-.022-.006-.036a2 2 0 0 1 .608-.226c.21-.05.278-.045.435-.139.259-.046.482-.092.69-.096.132-.102.347-.11.522-.156.473-.127.987-.25 1.367-.316.39-.069.334-.048.726-.14.282-.067.7-.134 1.017-.196-.01.02-.03.041-.043.061.168-.044.343-.085.514-.127.042-.01.085-.004.114-.011.244-.065.421-.14.672-.186.172 0 .15.056.413-.006l-.13-.051c.17-.033.347-.043.513-.076.094-.02.174-.056.229-.068a3.7 3.7 0 0 1 1.049-.103l.328-.14.413-.026-.244-.031c.164-.044.256-.032.398-.055.097-.016.115-.041.224-.061.348-.064.721-.128 1.078-.192q.01.037.017.075l.39-.12-.041.085.386-.144q.132.055.26.11c.14-.037.006-.088.159-.142.13-.046.15-.019.29-.043s.139-.064.344-.102c.207-.04.658-.116.887-.143.28-.033.434-.017.703-.058.333-.052.577-.088.94-.138.088-.012.375-.01.457.001.103-.075.448-.099.592-.14.145-.04-.003-.06.19-.1.029.012.082.022.113.034.084-.018.013-.024.152-.044.14-.02.6-.07.74-.078.23-.013.2.03.44-.011-.005-.016-.003-.034-.006-.05l.516-.07.008.05c.548-.18 1.107-.286 1.72-.25.16-.032.29-.078.47-.103.461-.065 1.03-.087 1.472-.126.337-.03.554-.055.826-.117l.302.092-.015-.1c.171-.033.253-.01.405-.024.151-.014.055-.044.27-.073.08-.011.45-.048.652-.07l1.169-.14c.348-.04.72-.03.736.065.003.014-.15.01-.056.04.144.047.466.085-.264.156.01.028.01.05.01.077-.319-.023-.65.085-.256.072.148-.005.683-.127.76-.17.197-.106-.161-.134-.046-.242.017-.017.597-.135.703-.148.15-.018.161.002.25-.002.162-.008.172-.041.34-.053.194-.014.406.005.628-.029-.07.04-.146.08-.219.12.385-.031.368-.118.622-.179l.25.03q.137-.02.275-.036c.315.037.735.133-.102.124-.011.05.039.082-.007.14-.031.038-.148.07.09.082.014-.034.033-.07.048-.105.351-.036.41-.124.507-.193.039-.029-.155-.045-.058-.07.15-.039.379.01.34.048l.117-.01-.002-.05c.234-.004.418-.054.624-.072.169-.015.189.01.357 0 .31-.02.358-.065.746-.1.166-.016.828-.016 1.104-.032.07-.005.104-.031.225-.03.273 0 .584.04.536.117.06-.02.114-.041.171-.061-.147-.024-.305-.035-.299-.084.293.018.55-.044.864-.048.073-.001.21.047.298.031.003-.024-.01-.05 0-.075.088-.02.349-.001.383-.003.235-.01.43.002.585-.002.155-.005.254-.059.347-.06.272-.005.416.043.599.07.015-.018.037-.036.055-.054l.342-.015c0 .017.005.034.005.05.265-.053.414-.074.767-.082.198-.005.289.018.448-.042l.235.037c.564-.072 1.005 0 1.562.003l.007.05.23-.02-.234-.081c.181-.015.352.01.51.01.254 0 .414-.03.65-.041q.004.024.01.048l.515.041.463-.11.247.045.218-.028-.054.102.63-.186ZM.712 30.991c-.01-.013-.1.044-.09.057s.098-.044.09-.057m1.096-.246c-.127.08-.264.169-.391.253l-.03-.042c.128-.085.265-.173.394-.254q.015.021.027.043m-1.08.069.03.041.197-.12q-.014-.022-.03-.042Zm1.485-.026-.027-.043.193-.102Zm-.515-.216.028.044c.19-.103.277-.18.245-.221q-.139.089-.273.177m1.234-.55c-.106-.006-.204.067-.39.135-.094.034-.135.021-.198.102-.064.08.025.086.005.153-.015.048-.169.169-.12.193q.14-.08.288-.163l-.098-.165q.25-.128.513-.255m.955-.634c-.233.11-.114.125-.176.183s-.235.109-.263.167l.238-.01q-.256.086-.54.192l.143.017-.319.152.088.156.317-.15-.038-.066-.212.099-.018-.034.295-.183-.013-.048c.092-.033.17-.06.257-.089.154-.11.167-.15.01-.131.148-.116.285-.207.23-.255m-.3.623c-.007-.014-.101.029-.096.044.01.013.104-.03.096-.044m.885-.459c-.235.14-.369.18-.437.133q-.197.1-.389.2l.024.046q.142-.078.288-.157c0 .02.027.03.07.026.106-.01.106-.038.21-.083s.152-.037.268-.096Zm-1.181.145c-.008-.014-.11.034-.103.048s.11-.034.103-.048m.585-.082c.01.049.16.007.302-.02.16-.108.132-.138.099-.181Zm1.237-.463c-.197.12-.444.204-.685.309.206-.034.37-.019.599-.07.107-.023.103-.043.166-.077l.071.024.204-.122-.176-.094Zm-.399.12c-.007-.015-.108.027-.1.042.006.014.107-.028.1-.042m1.132-.283c-.142.02-.242.02-.436.1l.184.01.093-.06Zm.273-.211c-.031-.026-.13.056-.211.059-.152.006-.182-.046-.433.13q.198-.03.398-.057.122-.067.246-.132m-.1-.086-.162.047.173-.024.143-.094Zm.585-.08-.053.02.02.047.216-.077Zm-.335-.203-.14.106.214-.079-.02-.046Zm.193.025c-.006-.015-.108.022-.101.037.006.014.108-.023.101-.037m1.569-.111c.005.014-.094.048-.1.033s.093-.048.1-.034m-.287-.133.01.024.21-.07-.01-.025Zm-.513-.041.02.047.112-.039-.02-.047Zm1.65-.463-.14.124-.383.097.01.049q-.1.046-.2.093.265-.087.536-.172l.239-.024-.145-.06.317-.14q-.117.016-.233.033m80.894.082c.011-.012.086.052.075.064-.01.012-.086-.052-.075-.064m.225-.274-.017.02a10 10 0 0 0-.256-.207l.016-.02q.132.103.257.207m-78.995-.334c.018.03.041.058-.082.115-.097.045-.067.012-.17.043-.072.022-.155.072-.258.093q.1.039.202.074l-.086-.08q.38-.105.77-.205l-.351.031.44-.123Zm-.85.298.008.024.214-.063-.008-.024q-.108.03-.214.063m78.563-.104c-.009.014.077.072.086.059.01-.013-.076-.072-.086-.059m-80.336-.017-.11.035-.018-.048.11-.035Zm2.286-.108.017.048.202-.11Zm77.273-.062c.009-.014.092.036.084.05-.009.013-.092-.037-.084-.05m.756-.182q.151.084.3.169l.03-.042c-.148-.066-.158-.104-.287-.19q-.022.03-.043.063m-77.16-.031c.04-.024-.252-.002-.34.05-.04.023.25.001.34-.05m74.804-.234c.017-.048.123-.03.32.067-.017.05-.137.02-.32-.067m.503-.272q.3.165.576.337c-.213-.212-.207-.313-.72-.547.047.069.091.137.144.21m.994.274c.008-.014.097.036.089.05s-.097-.036-.09-.05m-76.12.028c-.02.04.242-.008.353-.043-.032-.025.05-.063.09-.103Zm1.86-.199.007.025.222-.056-.008-.024Zm-.382-.086.007.024.435-.136-.07-.035Zm.811-.073.007.024.224-.055-.007-.025Zm73.053-.379c.088.171.42.38.517.261q-.252-.132-.517-.26m-72.864.214c-.005-.015-.11.01-.105.026.004.016.11-.01.106-.026m.848-.008.006.024.229-.053-.007-.025Zm70.818-.241-.06.139-.208-.072c.108.085.046.097.278.186.005-.02-.1-.076-.033-.069.163.019.205.06.323.039.11-.02.558.12.295-.075-.093-.039-.028.03-.127-.002-.06-.02-.139-.037-.214-.069-.206-.086-.255-.157-.453-.174Zm-71.688.163.015.049.224-.055-.183-.008Zm72.58-.005c-.006.015.084.058.091.044.008-.015-.083-.058-.09-.044m-73.3.014c-.005-.015-.11.011-.105.026.006.016.11-.01.105-.026m74.75-.046c-.008.014.085.067.093.053s-.085-.067-.094-.053m-72.784-.052-.054.013.02.073.208-.088Zm70.987-.201c-.049.053-.058.106.242.25h.239a19 19 0 0 0-.481-.25m-70.84.102c.156-.003.132.042.14.084l.22-.05c-.115-.019-.13-.065-.308-.06Zm-.243-.035q.007.025.013.049h.001l.11-.026-.014-.049Zm-1.944-.025.19.031.152-.09Zm3.669-.131.018.074-.226.036.346-.037-.026-.098Zm-.832-.01a1 1 0 0 0-.342.039l.012.048.333-.075Zm1.663-.014q.005.025.012.05l.114-.025-.012-.049Zm-1.288-.136c-.096.043.075.014.055.052-.013.025-.137.09-.072.107.292-.1.268-.162.017-.16m69.642.103c-.007.014.09.057.096.042s-.09-.056-.096-.042m-67.942-.235c-.011-.103-.239.034-.39.072-.204.052-.146.006-.287.088-.036.021-.142.095-.094.107q.285-.049.575-.096l-.142-.087Zm65.847.045c.138.047.248.141.4.16.064.009-.01-.078.221.034-.028.055-.389.003-.655-.099Zm-72.288.11c.017.026.078.032.138.043l-.23.061-.005-.035-.246.024q.17-.047.343-.092m73.512.094.03-.071-.054-.021-.177-.027Zm.449-.04.057.01-.143-.1-.058-.01Zm-.509-.12q.108.041.215.084l.02-.047-.215-.084Zm-71.998.071c-.004-.015.1-.041.105-.026s-.101.042-.105.026m70.376-.148c.172.012.359.053.312.117l-.15-.075Zm-70.033.09c-.005-.016.102-.043.106-.027.005.015-.101.041-.106.026m72.67-.054c-.007.015.09.058.097.043.006-.015-.09-.057-.097-.043m-72.722-.055c.127-.054-.08-.07-.18-.056q-.254.075-.493.15c.074.025.505-.023.673-.094m71.527-.083c-.26-.104-.218-.054-.235-.006l.102.038q.031.066.068.134Zm-65.663.085q-.113.022-.224.045l-.006-.025.224-.045Zm-2.727.015c-.005-.015-.11.008-.106.024.004.015.11-.009.106-.024m68.753-.056c-.006.015.096.056.102.04.006-.014-.096-.054-.102-.04m-66.983-.05-.095.085.34-.032-.134-.076Zm-5.87.034c-.006-.015-.11.012-.105.027s.11-.012.104-.027m72.023-.023c-.006.015.09.05.096.035s-.09-.05-.096-.035m-.188-.135q.203.085.402.172c.007-.016.01-.033.018-.048q-.074-.027-.147-.052-.045-.045-.092-.088Zm-64.784.157c-.003-.015.102-.036.106-.02s-.102.036-.106.02m63.811-.079-.023.073-.217-.069.024-.072Zm-63.242.006-.338.066-.006-.025.339-.066Zm67.021.001c-.009.014.092.063.1.049.006-.015-.094-.064-.1-.049m-1.355-.053.213.088.01-.023q-.105-.045-.213-.089Zm-71.634-.01.021.073.114-.027-.022-.073Zm-.962.04c-.004-.016-.11.01-.106.026.005.015.11-.011.106-.026m-.365-.013c-.004-.016-.109.01-.105.026s.11-.011.105-.026m71.464-.415a1 1 0 0 0-.289-.002c-.028.01.022.032.03.05l.074-.03.187.144c.219.083.335.104.494.123l.353.158.137-.029c-.144-.056-.294-.112-.425-.161.034-.016-.027-.101-.194-.12-.034-.003-.052.053-.18.012q-.093-.072-.187-.145m-69.787.343c-.005-.015-.112.01-.108.026.005.015.113-.01.108-.026m5.72.023c-.004-.016.103-.037.107-.021s-.104.036-.107.02m65.74-.076c-.007.015.094.057.1.043s-.093-.057-.1-.043m-72.689.012c-.005-.015-.111.011-.106.027.005.015.11-.012.106-.027m5.56-.063-.155.084.223-.045q-.005-.026-.012-.05Zm1.455-.08c-.133-.09-.541.07-.92.103l.422.045c.064-.035-.17-.034-.015-.073.184-.046.341-.06.513-.075m-4.965.084-.221.05.152-.087.056-.012q.007.024.013.049m-1.22-.013c-.004-.016-.113.01-.108.026.004.015.112-.011.108-.026m.364-.01c-.004-.015-.113.011-.108.027.004.015.112-.01.108-.026m6.787.002c-.004-.016-.112.004-.108.02.003.015.111-.005.108-.02m63.43-.164c-.035.02.187.132.293.161l.018-.048Zm-69.74.103c-.005-.015-.114.01-.11.025.003.016.113-.01.11-.025m5.938.001c-.003-.015-.111.005-.109.02.004.016.112-.004.109-.02m.58-.07c.016-.028-.089-.067-.24-.032.03.028-.056.058-.099.096Zm-2.013.037c-.004-.016-.109.005-.106.02.003.016.11-.005.106-.02m.957.02.18.005q.026-.012.054-.023l-.18-.005Zm.328-.127.017.075.22-.08-.18-.006Zm.95.043c-.003-.016-.108.003-.105.019.003.015.108-.003.106-.02m-6.54-.029c-.004-.015-.108.009-.104.024.004.016.108-.009.104-.024m3.344-.011.006.024.219-.043.016.047.112-.023.093-.096Zm3.527-.06c.144.026-.027.107.251.084l-.013-.089Zm61.373.033.016-.049-.222-.069Zm-60.628-.371.03.149-.325.096.135.092.456-.054-.358-.028c-.038-.054.166-.057.33-.096-.026-.065.164-.14.308-.22Zm-2.055.284c-.004-.015-.112.005-.108.02.003.016.111-.004.108-.02m63.082-.012c-.005.015.097.048.102.033s-.097-.048-.102-.033m-64.278-.015c-.003-.016-.11.005-.106.021.003.015.109-.006.106-.021m63.64-.12c-.216-.053-.395-.067-.408-.015.255.08.36.113.348.038l.33.114c.035-.043-.032-.076-.27-.136m-.513-.02c-.088.004.052.078.127.117.09.009.195.023.29.034-.132-.032-.19-.07-.264-.105a1 1 0 0 0-.152-.046m-60.782.019c.01-.05-.026-.052-.236-.009 0 .017.013.032.011.05q-.112.02-.223.04c-.01.051.025.053.235.01 0-.018-.013-.033-.011-.05q.112-.021.224-.041m-1.886.044.018.074.228-.044c-.03-.027.054-.06.096-.096Zm.6.027c-.005-.015-.112.005-.109.02.004.016.111-.004.108-.02m1.88-.01c-.003-.016-.11.003-.107.019.003.015.11-.004.107-.02m-1.41-.04.011.05q.112-.021.223-.04l.018.046.111-.02-.134-.079Zm2.513-.32c.202.026.028.065-.074.13-.052.032.064.034-.02.064s-.266.052-.314.095c.078.016.165.032.247.047l.162-.051c.216-.003.085.038.078.088l.555-.172-.015-.074-.234.013.337-.095-.586.034.565-.133-.348.045.105-.07Zm-4.06.346c-.003-.016-.11.005-.107.02.005.016.11-.005.107-.02m64.337-.032c-.005.015.097.049.102.034.006-.015-.097-.049-.102-.034m-61.396-.029c-.004-.015-.11.004-.107.02.004.015.11-.004.107-.02m-2.958-.027q.005.025.012.05l.226-.044-.012-.05Zm61.555-.107c.097.012.237.067.33.096q-.008.026-.013.05l-.222-.057Zm3.192.065.216.075.01-.025-.217-.073Zm-63.682.03c-.004-.015-.112.005-.108.02.003.016.111-.004.108-.02m59.65-.01c.003-.015.103.009.1.024-.004.016-.104-.008-.1-.023m-58.821-.03.01.05.112-.02-.01-.05Zm62.61.01.11.037.017-.048-.11-.037Zm-66.777-.01.006.025.23-.049-.006-.024Zm64.1-.683-.213-.05c.003.011.004.022-.005.03l.223.036c.068-.007.202.066.212.078.03.043-.024.054-.017.089q-.114-.023-.228-.044l.322.134c-.081.009-.267-.032-.233.02.02.03.167.09.27.08.13-.01.214-.042.201-.102.252.054.422.125.646.203h.001c.01.02.049.041.086.064l-.222.004c.41.112.61.114.689.04.103.039.153.076.27.11l.434-.012-.181-.19.23.046c-.084-.042-.169-.11-.255-.145-.178-.074-.197-.038-.245-.025-.06.017-.075.044-.198.034l.321.164c-.32-.094-.511-.185-.53-.266l-.121.018q-.21-.075-.423-.146l-.018.047a40 40 0 0 0-.536-.173l.004-.049q-.166-.044-.333-.087Zm-60.959.385c-.215.056-.388.087-.616.15s-.33.1-.266.15c.211-.047.294-.123.518-.174.226-.05.367-.036.364-.126m59.526.243-.011.05-.108-.025.011-.05Zm-59.818.033.06.002.162-.07-.06-.001Zm59.834-.108c.013-.085.4.042.661.1-.105.002-.201.005-.297.009Zm-62.339.057q.007.025.012.05l.116-.025-.012-.049Zm66.599-.036c-.005.015.099.05.103.034.006-.015-.097-.05-.103-.034m-1.161-.06c.11.037.06.053.049.068-.235-.069-.328-.045-.552-.107l-.001-.001c.013-.044.152-.023.242-.036l-.2-.11c.156.061.304.122.462.187m-3.532-.052c.102-.005.358.11.313.112-.1.004-.359-.11-.313-.112m-52.96.078-.114.017-.01-.05.114-.017Zm-1.865-.012.234.013-.01-.05Zm57.147-.037.11.03.013-.05-.11-.029Zm.13-.044.217.06.007-.025-.218-.06Zm-61.083-.074c-.211.033-.46.15-.154.104.103-.016.208-.097.154-.104m5.76.024a1.2 1.2 0 0 0-.28.066l-.523.008.794-.123Zm53.002.062c-.107-.046.15-.053.199-.032.106.046-.15.053-.2.032m-53.105-.007c-.002-.016.104-.032.108-.017.003.016-.105.033-.108.017m55.657.005.014-.049-.218-.06Zm-61.178-.02.06.002q.084-.034.164-.07h-.06q-.083.034-.164.069m-1.91-.018c-.004-.015.102-.037.106-.021s-.103.037-.107.021m5.943-.104c-.11.04-.18.07-.154.102l.225-.037-.015-.075Zm.361.066-.17.018c.147.009.248.028.464-.01-.13-.015-.015-.04-.015-.075ZM26 24.2l.004.025.341-.054-.005-.025Zm-.59-.035.01.05.112-.018q-.004-.026-.01-.05Zm58.095.006c-.004.015.102.048.108.033.005-.015-.102-.048-.108-.033m-62.101-.05.31.085.029-.134Zm57.526.032c.002-.015.108.006.105.022-.003.015-.109-.006-.106-.022m2.94-.09C81.85 24.003 81.994 24.04 82.164 24.063c.21.028.234.034.38.117q-.335-.06-.675-.117m-3.53.09-.005.025-.228-.043.005-.024Zm4.574-.04.213.063c-.003-.03.026-.04.132-.027l-.21-.102Zm-58.443.038c-.003-.015-.111.002-.108.018.002.016.11-.002.108-.018m-.479-.036.01.05.115-.02-.01-.05Zm55.176-.003-.01.05-.224-.047.01-.05Zm.36-.055c.21.05.358.076.45.046l-.44-.096q-.007.024-.01.05m-1.524.007c.015.029-.087.068-.23.035l.013-.075Zm3.748.008c.004-.015.11.012.105.027-.004.016-.109-.012-.105-.027m-59.214-.117-.091.119c.21-.056.236-.096.205-.14Zm56.722-.006c-.12-.002-.196 0-.184.04l.334.069c.028-.032-.04-.063-.15-.11m-58.241.05-.231.044-.011-.05.23-.043Zm-1.32.007c-.004-.015-.111.006-.108.021s.11-.005.108-.02m5.195-.092-.092.118.112-.018.206-.136ZM80.2 23.63c-.008.056.147.113.056.158-.06.03-.493.027-.458.092.284.006.44.06.765.147.021-.035-.112-.048-.21-.088-.144-.06-.087-.096-.08-.135q.102.06.2.123l.139-.11Zm-52.717.341q.004.026.009.05l.114-.017-.009-.05Zm49.862.012c.003-.016.106.003.105.018-.003.016-.108-.002-.105-.018m-48.058-.015-.288.014-.01-.05q.227-.03.455-.063Zm52.129-.01c.004-.015-.103-.042-.107-.026-.004.015.103.042.107.026m-57.59-.073.015.075.23-.04-.016-.074Zm4.699.037c-.017.01-.002.023-.052.03-.05.006-.053-.006-.061-.014q.056-.009.113-.016m48.616-.09-.003.05q.106.03.211.063l-.332-.057-.123.056.025-.15Zm-56.982.084h.06l.163-.07-.06-.001q-.083.034-.163.07m9.872-.039c-.002-.015.106-.03.108-.014s-.106.03-.108.014m46.085-.111.57.04c-.076.074-.329.056-.69-.008l-.09-.193Zm-45.632.025c-.003-.015.105-.03.108-.014.002.016-.106.03-.108.014m-.351-.004c-.002-.016.105-.03.108-.014.002.015-.106.03-.108.014m1.042-.048-.344.045-.004-.025.344-.045Zm50.711.038.177.007.004-.012-.337-.088Zm-6.512-.125c.11-.017.038-.056.294-.006l-.016.1-.398-.06c-.126-.017-.276-.025-.272-.063.15.02.283.047.392.03m1.221.01c-.086.021-.146.04-.129.083l-.112-.019.016-.1Zm-51.274.053.004.025.227-.036-.005-.025Zm2.456-.069.013.075.116-.017-.014-.075Zm-6.359.02.011.05c.113-.017.364-.084.327-.112Zm3.652-.026c-.004-.015-.11.002-.107.018s.11-.002.107-.018m53.007.01c.003-.015-.1-.034-.103-.019s.1.035.103.02m-48.327-.015c-.002-.016-.11-.002-.108.014.003.016.11.001.108-.014m1.87-.03-.228.03-.008-.05.057-.008Zm.449-.082c.026.022-.063.091-.215.104l-.012-.075Zm43.032.078c.003-.016.106-.001.104.014-.003.016-.107.001-.104-.014m-51.807.002c-.004-.016.105-.035.108-.02.003.017-.105.035-.108.02m-.601-.025.179.007.054-.022-.179-.007Zm6.462-.015c-.003-.015-.11 0-.107.015.002.016.11.001.107-.015m3.27.018-.008-.05.227-.028Zm44.311-.076.336.057.002-.013-.161-.065Zm-47.477-.008c-.002-.015-.11 0-.107.016.003.015.11 0 .108-.015m4.087.01c-.003-.015.105-.028.107-.012s-.105.028-.107.013m-3.577-.118c-.156.05-.18.081-.154.123l.114-.015.1-.104Zm.54.093c-.003-.015-.111-.001-.109.015s.111 0 .109-.015m.585 0c-.003-.016-.11-.002-.108.014.003.015.111.001.108-.015m-.36-.068.014.075.23-.03-.013-.075Zm-6.449-.023a1.6 1.6 0 0 0-.468.04l.13.055Zm4.51-.043c-.155.05-.178.082-.151.124a1 1 0 0 0 .44-.14Zm46.744.108c.002-.016-.102-.031-.104-.015-.002.015.102.03.104.015m-44.447-.013.345-.044-.002-.013-.179-.015Zm45.53-.168-.007.075.277.07.514.023-.219-.061-.002.02-.228-.022-.21-.137-.01.063-.337-.092Zm1.478.123.22.04.005-.024-.22-.04Zm-51.237-.022.01.05.114-.017-.01-.05Zm46.754.027c.002-.016.11-.003.108.013s-.11.003-.108-.013m2.639-.006-.062.016-.053-.034Zm1.383.01c.003-.017-.102-.035-.105-.02-.002.016.103.035.106.02m-47.85-.032c-.003-.016-.11 0-.108.015.002.016.11 0 .108-.015m-6.708-.01c-.003-.016-.112.003-.108.019.004.015.11-.004.108-.02m12.07-.004-.229.026.166-.07.056-.006Zm42.502-.017.222.04.004-.025-.222-.04q0 .013-.004.025m-45.993.013c-.003-.016-.109-.002-.107.014.003.015.11.002.107-.014m-1.062-.04c-.004-.016-.111-.001-.108.014.002.016.11.001.108-.014m45.782.01c.003-.017-.106-.034-.109-.018-.002.016.107.033.11.017m-2.867-.052c.019.028-.085.073-.237.048l.008-.075Zm-.587.046-.06.006-.169-.058.06-.005Zm4.957 0c.003-.016-.102-.035-.105-.02-.003.017.102.035.105.02M25.23 23.28c-.003-.016-.11.002-.107.017.003.016.11-.002.107-.017m-.016-.083c-.105-.01-.373.091-.326.095.105.01.374-.091.326-.095m46.797-.095-.01.05q.14.007.28.017l-.105-.075.45.05.105.114-.454-.052-.008.076-.5-.053-.053-.057-.113.025-.34-.02.342-.08-.214-.086c.23.023.336.01.345-.04Zm-42.328.12-.243-.044.369.103.097-.116Zm.702.007.008.05.115-.015-.008-.05Zm-6.102-.013.01.05.116-.02-.01-.049Zm.24.012.004.025.226-.037-.005-.025Zm6.916.003c-.004-.015-.11-.001-.107.015.004.015.11.001.107-.015m47.8-.026c.004-.016.11.006.107.021s-.11-.006-.107-.021m-44.667-.018c-.002-.016-.111-.003-.109.012.003.016.11.004.11-.012m-9.592-.008.005.025.226-.037-.004-.025Zm3.755-.03.008.05.114-.017-.009-.05Zm-.813.027c-.003-.016-.11 0-.108.015.003.016.11 0 .108-.015m-3.77-.015.005.024.231-.038-.005-.025Zm11.46-.025.002.025.338-.074-.06-.007Zm1.737-.002-.23.023-.003-.025.23-.023Zm39.33.002.113.019.008-.05-.113-.019Zm-42.468-.048c.053.011.097.059.184.054.165-.009.264-.025.405-.02q-.037-.033-.072-.068Zm-.649-.053q-.023.041-.048.082l.34-.065q-.064-.044-.13-.087Zm-.752.039.003.025.229-.028-.004-.025Zm-7.624-.031.01.05q.108-.044.217-.087Zm50.154-.037.053.085q.062-.03.13-.057l.228.034.006-.05q-.294-.032-.572-.059Zm-50.733.067.06.003.161-.066q-.03 0-.058-.003ZM36.39 22.9l.238.052-.457.048.01.075.808-.032c-.026-.028.072-.052.044-.081-.042-.045-.206-.078-.188-.134Zm33.853.143c.002-.016.11-.006.109.01-.002.016-.11.006-.11-.01M34.313 23l.008.05.223-.076Zm5.785.021-.056.017-.174-.023.056-.017Zm33.067.007.29.01-.278-.11-.292-.01Zm-.642-.023.232.027.003-.026-.232-.026Zm5.102.01-.57-.047.013-.075q.28.06.557.122m-1.51-.032c.002-.016-.108-.033-.11-.017-.003.016.106.033.11.017m-43.47-.092c-.054-.004-.3.09-.18.097.055.004.301-.09.18-.097m6.246-.413c-.38.052-.36.144-.79.176l.243.08c-.25.004-.481.04-.736.073-.054.007-.07.027-.144.034-.215.02-.41-.016-.376.066l.458-.046.016.126c.143-.032.19-.04.338-.033l.009-.05.215-.023v-.075l.217-.024q.002-.024.003-.049l.228-.023-.11-.026.159-.053.289-.002c-.248-.045-.249-.063-.018-.151m31.006.497c-.127-.005-.228-.024-.345-.041-.12-.017-.234-.025-.226-.057l.457.038.122-.04Zm-33.852-.024c-.001-.016-.11-.005-.108.011.003.016.11.004.108-.011m-9.234-.033.01.05.23-.035-.182-.023Zm51.06.025c.002-.016.107.003.104.019-.003.015-.107-.004-.105-.02m-42.174-.006c-.002-.016-.11-.005-.108.011s.11.004.108-.011m-6.884-.004.236.018-.008-.05Zm7.461-.007c-.002-.015-.11-.004-.108.012.003.016.11.004.108-.012m-6.89-.072.132.084.114-.016c.013-.05-.025-.08-.246-.069m41.018-.357c.065.027.169.073.218.096.08.04.016.039.056.07l.181-.085.454.044c.048.073-.252.005-.225.068.01.022.232.037.27.064.066-.044.122-.09.186-.134.198.007.257.063.391.088.209.038.327.029.505.033-.01.057.138.114-.016.15l.345.04c-.138-.1-.225-.19-.207-.279-.287-.03-.362.002-.346.064-.294-.058-.672-.191-1.007-.206-.02.024-.045.047-.062.07-.209-.044-.092-.072-.183-.117-.043-.021-.26-.03-.32-.058-.085.03-.161.06-.24.092m-36.523.323-.167.058q.001.012.004.025l.353.023-.133-.112Zm2.16.08c-.003-.015-.11-.004-.109.011.002.016.11.005.108-.01m42.66.004.24-.005-.231-.045Zm-43.128-.03c-.002-.016-.11-.005-.107.011.002.016.11.004.108-.012m-2.455-.051c-.044-.02-.235.012-.34.026.055.023.186.035.294.04.159.009.189-.002.288-.046-.155-.004-.161.015-.242-.02m41.968.046.111.015q.005-.024.007-.05l-.111-.015Zm-49.348-.015.005.024.229-.036-.005-.025Zm5.988-.028.008.05.228-.029-.008-.05Zm8.884-.016.176.024.001.012-.343.029Zm27.479-.052.004.05q.11.007.22.017l-.003.05-.228-.016-.107-.11Zm8.076-.088c.22.022.174.033.24.07.094.055.23.085.2.128-.113-.022-.273-.03-.335-.068-.079-.05-.122-.092-.105-.13m-40.126.191.29-.004.055-.018-.348-.002Zm-4.677-.143q-.053.033-.107.065c.026.031 0 .133.242.042.012-.005-.005-.052.1-.074.083-.019.252-.036.222-.065Zm10.574.131c-.002-.016.107-.024.108-.008s-.106.024-.108.008m27.41-.2c.139.013.17.054.222.082.086.048.147.081.108.124-.3-.017-.192-.035-.228-.083-.034-.047-.14-.08-.103-.123m.59.101c.054-.005.306.08.187.092-.054.005-.308-.08-.188-.092m-38.813-.052-.215.13.347-.045-.017-.1Zm7.345.113c-.002-.016-.11-.006-.109.01.002.015.11.005.109-.01m38.5-.012q-.001.012-.004.025l-.227-.038.004-.025Zm-47.626-.195.124.034-.568.104.19.076q.538-.101 1.078-.199l.007-.017c.008-.034-.042-.021-.183-.01-.16.013-.249.009-.406.028-.002-.016-.009-.032-.012-.048Zm7.36.01-.206.2q.46-.035.92-.067l-.123-.078c-.204.007-.275.026-.366-.011-.043-.018-.077-.06-.225-.043m2.223.129a1.1 1.1 0 0 0-.347-.006l.009.075c.165-.011.238-.034.338-.07m-8.62.024c-.002-.015-.11-.001-.108.015.003.015.11 0 .109-.015m-.589-.035.008.05.115-.016-.008-.05Zm10.603.039c-.001-.016.106-.025.108-.01.002.017-.106.026-.108.01m-7.214-.064.007.05.115-.013-.008-.05Zm-.02-.125c-.352.047-.355.103-.323.167.241-.058.361-.108.324-.167m2.93.104.006.05.115-.012-.007-.05Zm-2.442.03.178.017.056-.019-.178-.018Zm37.27 0c.001-.015-.106-.025-.108-.01-.002.017.106.027.108.01m-32.645-.199c-.293.059-.56.113-.557.195.218.011.015-.014.144-.052.13-.037.495-.081.413-.143m2.788.032c.03.07-.123.129-.445.165q-.007-.05-.01-.1Zm24.812.069q-.002.037-.003.076l-.113-.006q0-.038.003-.076Zm10.608.05c.003-.015.112.002.109.018s-.112-.002-.11-.017m-42.376-.005c-.003-.016-.111-.003-.11.012.003.016.112.003.11-.012M65 22.603l-.002.077-.228-.011c.022-.031-.064-.05-.112-.081Zm.91.059c.001-.016.107-.01.107.005 0 .016-.107.01-.107-.005m1.61-.044c-.228-.017-.355.002-.348.053.23.016.355-.002.349-.053m-2.065.007-.002.051-.227-.01q.086-.023.172-.043Zm10.837-.013-.008.05-.231-.036.007-.05Zm-33.56.04c0-.015.107-.023.109-.007.001.016-.107.024-.108.008m.108-.045c-.146.006-.215.03-.341.05l-.005-.05.344-.026Zm-7.883-.01.007.05.228-.025-.179-.032Zm.812.026c-.002-.016-.11-.005-.108.011s.11.005.108-.011m.847-.204c-.143.034-.143.085-.273.117-.196.048-.383.034-.337.1l.56-.11q.024-.054.05-.107m-2.826.195.001.012.46-.053c.016-.038-.061-.046-.183-.055Zm32.808-.054-.002.05-.117-.006.002-.05Zm-26.65.04.057.007.168-.053-.058-.007Zm-6.398-.023c.018-.027-.089-.072-.24-.047l.01.075Zm-4.334.005c-.003-.015-.111 0-.108.015.003.016.11 0 .108-.015m40.828-.001.231.02.004-.05-.231-.02Zm-41.54-.041-.222.033.005.025.34-.049q.021-.054.04-.108Zm1.72-.158c-.044-.006-.265.028-.328.017-.077.05-.142.096-.214.145l.34-.059.015.048.576-.05-.098.115.346-.045c.042-.053-.073-.06-.189-.076-.076-.01-.003-.035-.084-.04-.08-.003-.198.025-.28.01-.084-.014.005-.053-.084-.065m9.498.009c.018-.057.227-.11-.158-.076.044.043.082.086.123.13q-.218.076-.435.153c.28-.015.184-.049.333-.095.062-.019.153-.024.227-.032.074-.04-.098-.052-.09-.08m32.388.2c.002-.017-.104-.028-.106-.012-.002.015.105.027.106.011m-2.186-.008c.001-.016-.108-.025-.11-.01-.001.016.109.026.11.01m-37.895-.013c-.003-.016-.11-.002-.108.014.003.015.11.002.108-.014m31.363-.006-.001.025-.231-.008v-.025Zm-24.85-.563-.178-.034c-.017.034.076.04.123.065q-.112.008-.225.02v.052c-.388.03-.363-.057-.536-.102l-.386.178.408-.006.285-.049-.1.048.167.02.166-.039c-.02.047.156.04.22.069.018.009-.072.02-.054.03.036.021.112.025.09.056l-.409-.012-.345.109-.284.002c.07.03-.075.064-.07.097.005.032.155.037.093.08l.23-.036-.123-.052c.277-.021.453-.046.627-.111l.057-.006c-.012.037.173.085.356.069-.05-.074.123-.166-.028-.227l.918-.084h.002c.009-.069-.284-.047-.53-.029-.158.017-.28.065-.45.066-.287.001-.067-.093-.079-.143.27-.013.69.004.686-.09l-.35.017v-.035Zm25.312.53v.05l-.23-.059Zm.463.03c.002-.016.11-.012.109.004 0 .016-.109.011-.109-.005m-36.748-.038-.348.051-.005-.025.348-.051Zm44.442-.07c-.335-.082-.695-.135-1.02-.104l.218.136.119-.04.562.11c.002-.035.01-.067.007-.103.074.018.028.004.129.029s.089-.003-.015-.028m-36.968-.07c-.012.046.165.045.11.102-.043.043-.199.094.144.048.022-.04.053-.082.077-.123Zm29.845.14v.025l-.459-.02.001-.026Zm.8-.038-.002.05-.114-.005.002-.05Zm-33.202.029c-.002-.016-.11-.003-.108.013s.11.002.108-.013m9.07.001c-.002-.015-.11-.007-.109.01.002.015.11.006.109-.01m-13.637-.018-.23.034q-.001-.013-.004-.025l.229-.033Zm34.902.01c0-.016.107-.013.107.003s-.108.012-.107-.003m-.797-.085c-.084.032-.138.058-.116.098l-.342-.009v-.101Zm-29.774.07c-.002-.016-.11-.003-.108.013.003.016.11.002.108-.013m40.802 0c.001-.016.111-.004.11.012-.002.016-.112.003-.11-.012m-9.194.001c0-.016.11-.011.11.005-.002.015-.11.01-.11-.005m10.82-.013-.001.012-.174.015-.113-.015-.165-.073Zm-41.441-.044-.164.07.229-.027-.008-.05Zm1.743-.48c-.479.059-.767.155-.816.015l-.453.078-.228.077.096-.14c-.327.04-.31.11-.56.17l-.069-.07-.341.064-.408.002.126.062c-.42.06-.832.12-1.254.183l-.102.103c.338.028.55-.069.913-.13l.125.05.34-.056q.033.023.067.043c.43-.044.125-.093.504-.138l.124.05.175-.009.446-.152c.274.006.638-.052.92-.082.251-.028.34-.035.587-.066h-.002c.13-.016.36-.037.508-.053.035-.035.08-.023.108-.07.029-.046-.132-.03-.359-.02-.092.005-.191-.03-.287-.03q-.08.058-.16.118m29.34.504c0-.016.109-.012.109.004s-.109.011-.109-.004m-19.99.003c0-.015.108-.023.109-.007s-.107.023-.108.008m21.586-.017v.025l-.227-.012v-.024Zm-30.171 0c-.003-.015-.11-.004-.108.012s.11.005.108-.011m-6.788-.007c-.003-.016-.11 0-.109.015.003.016.112 0 .109-.015m38.915.011c.001-.015-.107-.023-.109-.007 0 .016.108.023.11.007m-5.507-.019v.025l-.228-.006v-.025Zm.57.004c0-.016.108-.013.107.003s-.106.012-.107-.003m-11.012-.078-.455.09.224-.108Zm-6.679.072c-.002-.015-.11-.008-.109.008.002.015.11.008.109-.008m18.269 0c0-.016.109-.012.11.004-.001.016-.11.012-.11-.004m11.293-.022c.002-.015.109 0 .107.015-.002.016-.109.001-.107-.015m-23.454.019-.348-.064.344-.012Zm24.497-.036.233.036.007-.05-.234-.036Zm-16.582-.068.001.102-.114-.002c-.008-.035-.098-.066-.114-.101h.003q.113.001.224.002m-25.513.053.35-.015.126.063-.015-.1Zm23.108.045-.579-.047.577-.029Zm1.72-.128.116.127c-.127-.011-.196-.031-.342-.028l-.002-.1Zm-4.473.11c-.196-.024-.297-.012-.503.01q-.267-.026-.536-.05c.3-.07.586-.009.92-.059Zm20.006-.023-.004.025-.23-.029.004-.025Zm-19.317.011-.23.004v-.025l.23-.004Zm-7.137-.023c0-.016-.108-.01-.108.006.001.016.11.01.108-.006m15.273-.034q-.086.016-.17.033l-.17-.069.227-.031Zm-28.133.013c-.002-.016-.11-.004-.108.011.001.016.11.004.108-.011m35.723.01c.001-.016-.108-.026-.11-.01 0 .016.109.026.11.01m3.597-.014c.003-.016.11-.002.108.014s-.11.001-.108-.014m-18.753-.023-.228.04-.002-.075.057-.001Zm-19.4.04c.207-.028.31-.025.464-.01.104.01.157-.028.225-.049l-.412-.02Zm25.137-.023c0-.015-.108-.018-.108-.002s.108.018.108.002m-15.406-.01.348.016q0-.012-.002-.025l-.289-.008Zm14.256.004q.116 0 .23.003v-.05l-.23-.004Zm-3.67-.02c0-.016.11-.017.11-.0008999999999979025-.001.015-.11.015-.11-.0004999999999988347m11.027-.113c.04.093.354.102.686.122l.004-.076-.347-.037Zm-10.565.11c0-.016.108-.016.11-.0006999999999983686 0 .016-.11.017-.11.0006999999999983686m8.151-.089c-.011.05.113.082.34.092.011-.05-.112-.083-.34-.092m8.88.042-.005.05-.115-.014.006-.05Zm-36.892.004.354.041-.01-.075Zm10.539 0-.226.039c.153-.008.274-.044.4-.022.19-.037.114-.04.073-.069-.063-.043.108-.074.086-.116Zm-12.987-.018.007.05.224-.076Zm18.853-.092c-.115.021-.087.032.002.05.172.031.374.02.351.08l-.576-.011-.007-.127Zm-18.384.09.41.032.056-.019-.127-.075Zm21.144.03-.23-.036.171-.04.057-.001Zm-15.804-.095.125.09.16-.115-.068-.006Zm5.416-.27c-.007.051-.047.083.237.062l-.279.114-.17-.012c-.038.08-.333.115-.566.176.264.044.486-.001.804-.037l-.121-.07c.232-.008.357-.033.513-.078l.29.006-.12-.044.458-.064C46.51 21.923 46.29 21.946 46.02 21.962c.02-.059-.16-.045-.356-.055m-2.512.332.176.025.056-.016h-.001l-.175-.026Zm17.324-.613c-.081.015-.087.06-.186.069-.1.008-.263-.056-.217.012.045.068.164.038.332.074.078.017-.042.068.127.085-.118.013-.229.023-.345.034q-.052.069-.107.138c.245.059.416.124.798.127-.021.013-.138.034-.114.048l.46-.016v.05l.572.014.001-.026-.573-.038v-.05c-.149-.009-.215.01-.346.018.029-.044-.014-.073-.172-.105l-.29.008.578-.028-.232-.106c.198.007.112.06.304.08.103.012.322.01.444.012.123.002.187.01.174-.022-.367-.005-.173-.09-.342-.147l.343-.005-.116-.078-.4-.033c-.152.026-.295.046-.29.094l-.23-.017c.027-.047.244-.059.23-.11-.264.003-.243-.046-.403-.082m-19.068.556.008.076.23-.019c.02-.026-.085-.076-.238-.057m14.527-.062-.343.004c-.003.019.101.018.09.038s-.129.037-.089.063q-.257.015-.51.033l-.292-.085c-.025-.05.067-.033.228-.042l.057.025.398.02.118-.052h-.001c.014-.021.107-.031.113-.052l.114-.001q.06.024.117.05m-6.787.06c.023-.08-.447-.047-.573.014.11.003.075.056.174.052.34-.012.001-.103.399-.066m-16.117.049-.115.013-.008-.05.116-.014Zm13.931-.017.002.025.23-.012-.002-.025Zm-10.2-.013.003.024.345-.034-.003-.025Zm22.163.017c.113.005.372-.014.342-.048l-.343-.003Zm8.04-.017.231.014-.171-.061-.057-.004Zm-5.281.008.228.006-.171-.055-.057-.001Zm-26.205-.027.004.025.458-.049-.007-.05Zm8.238-.07.471.094-.125-.105Zm15.663.084.228.003v-.076l-.228-.002Zm-5.63-.142c-.002.041.04.09.123.124l.343.007Zm-20.96.116c-.001-.016.107-.029.11-.013.002.016-.107.029-.11.013m-1.994-.018.24.02-.008-.05Zm13.733-.02.234.036-.005-.05Zm21.172.023.227.012-.11-.107-.113-.005Zm-5.63-.001.115.001v-.05l-.116-.002Zm-10.811-.028q0 .012.002.025l.23-.01-.001-.025Zm-13.684-.082c-.154.01-.244.078-.218.1l.344-.037c-.054-.023-.144-.028-.126-.063m21.28.071v.026l-.462.003-.002-.051Zm2.293.016C59.148 22.115 59.04 22.114 59.04 22.13s.108.017.108 0m2.764.008.229-.045-.229-.006Zm5.055-.014.116.008.004-.077-.116-.007Zm-9.188-.059c.1-.026.384.031.34.043-.1.025-.385-.031-.34-.043m-21.268.029c.044-.017-.248-.044-.345-.008-.043.017.248.044.345.008m4.302-.002c-.002-.016-.11-.007-.108.009.001.015.11.006.108-.01m-1.058-.151.136.166.103-.111c.202.007.343.009.517-.044l.167.024-.1.034.229-.007-.122-.08-.348.018q-.004-.037-.01-.076Zm32.988.093c.258-.01.368.052.642.071.115.009.367-.022.3-.061h-.41l-.516-.161Zm-4.388.055.228.017.004-.05-.057-.005Zm-23.497-.106-.343.01.297.095-.006-.076.287-.018-.106.108c.592-.079.387-.183-.13-.17Zm-1.264.098c0-.016-.11-.008-.108.008.001.016.11.008.108-.008m3.238-.039.004.051.23-.013-.177-.041Zm7.725.047q-.115.001-.23.004l.228-.055Zm3.682-.015c0-.016.108-.015.108.0009000000000014552s-.108.015-.108 0m-19.17-.008c-.002-.016-.11-.006-.108.01.002.015.11.005.108-.01m9.262-.076c-.067.082.388.043.552.052.163.009.135.027.26.038-.087-.039-.161-.078-.243-.116Zm16.798.073c0-.016-.107-.02-.109-.005 0 .016.108.02.11.005m-17.837-.046q.001.025.004.051l.226-.062Zm17.042-.23c.007.024-.061.05-.063.072-.002.027-.059.091-.047.106.044.05.153.057.103.101q.173-.006.346-.01l-.11-.093.344-.062-.23-.01Zm-5.42.076c-.22-.01-.428-.05-.557.01-.112.053.218.03.323.04q.007.002.016.003c.025.007-.025.021.007.031.132.04.257.065.22.118.35.004.57-.06.914-.016l.115-.151-.347.021.115-.075c-.364-.01-.465.063-.798.069-.003-.017-.003-.033-.009-.05m-18.455.182c0-.016-.11-.007-.108.01.001.015.11.006.108-.01m23.178-.032.46.043c.02-.09-.192-.115-.578-.123Zm-1.154.039.114.003v-.05l-.113-.004Zm11.551-.004c.002-.015-.106-.03-.109-.014-.002.016.107.03.11.014m-37.423-.101c.159.016.128.058.13.101.296-.031.362-.078.332-.135Zm25.187.087q.23.005.458.012v-.026l-.457-.012Zm-29.623-.02c-.003-.016-.11-.002-.108.013.002.016.111.003.108-.013m9.907-.037q0 .026.004.05l.115-.008q-.001-.026-.005-.05Zm1.507.016.696.028q-.174-.014-.349-.027l.228-.041-.178-.038Zm15.789 0v.025l-.342-.003v-.025Zm-25.814-.107c-.275.027-.453.064-.45.13.275-.029.454-.065.45-.13m37.46.07.285.053.059-.007-.109-.074-.23-.022Zm-28.363.028.003.025.23-.017-.003-.025Zm6.936 0q0 .012.002.025l.46-.044q-.032-.024-.062-.049Zm-15.267-.109c-.18-.008-.222.026-.408.045.208.045.525-.03.48.074l.222-.089c-.092-.007-.205-.025-.294-.03m1.114.054q-.141.03-.283.057l-.059-.007.338-.074Zm37.955.054.179-.017-.057-.02c-.133.015-.241-.03-.407-.048Zm-1.452-.023.055.018.174-.02-.055-.018Zm-6.815.002c0-.016-.108-.021-.108-.005s.108.02.108.005m-3.907-.119-.117.124c-.136-.001-.19-.046-.217-.07-.027-.022-.01-.04-.012-.06q.174.002.346.006m-7.944.07.003.05.115-.003-.002-.05Zm-12.38-.096.127.091q.084-.031.167-.064l.768.117h.001l-.132-.09-.224.016.045-.13-.353-.022Zm6.04.143.342-.056-.233-.026Zm10.603 0h-.23l-.002-.05.231-.001Zm-21.232-.071-.168.056.235.013-.01-.075Zm15.812-.072c-.021.09.285.1.58.135.013-.088-.247-.113-.58-.135m1.383-.036c-.032.024.057.108.126.117.182.024.256-.014.228.052.295.015.57-.11.57-.163l-.171.054q-.376-.032-.753-.06m16.717-.025c.004.026-.014.062-.006.087.02.055.147.046.285.09l-.05-.106.234-.004q-.23-.035-.463-.067m-35.368.149c-.003-.016-.11-.004-.109.012.002.015.11.003.109-.012M37.7 21.8c-.306.096.026.11.308.123l.103-.111c-.087.004-.2.024-.28.026-.135.004-.005-.044-.131-.038m5.296.096c-.002-.016-.11-.008-.11.007.002.016.11.008.11-.008m2.397-.43c-.212.011-.387-.02-.577.024l.465.01c.011.027-.162.052-.11.082l-.23.015.001.013.234.023q-.001-.026-.004-.05l.115-.008.007.076.344-.034c-.158.042-.097.076-.105.12-.096.004-.181.002-.226.029-.086.05-.132.096-.106.145.278-.051.299-.107.332-.174.308-.013.283.038.464.06.382.047.523-.003.575-.095.364.041.571.03.924-.05-.044.044.168.053.223.078.055.024-.08.04-.085.057-.01.03.099.037.096.064-.002.014-.096.023-.087.034.024.028.217.031.335.02-.1-.043.144-.1.085-.14-.095-.063-.332-.072-.223-.157.237.02.29-.042.516-.03q.198-.04.397-.077l-.23-.013-.002.035-.684.06c-.012-.05-.153-.072-.354-.083v.05l-.344.019.114.032c-.035.023-.066.007-.104.006-.169-.003-.209.009-.35.031l.22-.139-.398.073-.41-.053-.098.095.225.05-.579.009.107-.108-.462.003Zm-5.26.238c-.218.083-.47.085-.794.122-.117.013-.061.055-.17.077l.348.008-.066-.046.287-.05.01.05.34-.03c.012-.06.308-.104.045-.131m-3.44-.008c-.424.035-.7.11-.788.21.482-.043.776-.089 1.022-.208l-.457.072Zm32.135.149-.003.05-.057-.004-.169-.063Zm6.97.036c.001-.016-.11-.032-.113-.016 0 .016.11.032.112.016m-36.754-.017c-.002-.016-.11-.006-.109.01.002.016.11.006.109-.01m3.021 0c-.001-.016-.11-.008-.108.008.001.016.11.008.108-.008m20.077.001c.167-.015.254-.028.4.011l.056-.011c-.141-.036-.236-.073-.455-.076Zm-13.365-.023.002.025.23-.01q0-.012-.002-.025Zm14.86-.044.116.067.232-.041-.29-.036Zm-12.09.011q0 .026.003.05c.115.002.375-.028.342-.06Zm16.593.024-.175.026-.057-.017.175-.026Zm-10.027.013C58.114 21.831 58.005 21.831 58.005 21.847s.11.016.11 0m-8.414-.044.004.05.115-.004-.003-.051Zm19.814.02.233.02.002-.026-.233-.019Zm-6.457-.032-.001.051-.114-.004v-.05Zm8.091.038c.002-.016-.106-.026-.108-.01s.107.026.108.01m-14.188-.006C56.96 21.807 56.851 21.807 56.85 21.823 56.852 21.84 56.96 21.84 56.96 21.823m-14.059-.314c-.112.022-.054.056-.049.08-.06-.003-.16-.015-.232-.008l-.22.118.46-.034c0-.025-.009-.05-.007-.076.21.014.26.028.24.084-.351.033-.329.091-.447.16l.461-.008.054-.055c.177.006-.029.064.293.03l-.357-.089c.262-.08.363-.023.352.038l.34-.062c-.116-.034-.391-.027-.52-.051-.19-.036-.143-.1-.367-.127m-.723.284c-.024.033.237.042.35.024l-.005-.05Zm13.287-.02.001.05.115-.002-.002-.05Zm10.022.03c.001-.017.11-.011.109.005-.002.015-.11.01-.109-.006m-11.87-.126c-.259.005-.298.032-.343.085-.102 0-.261-.02-.348-.005l.35.055c.003-.017-.011-.034-.002-.05.234-.01.351-.031.344-.085m-8.777.118c0-.016-.11-.01-.108.007.001.016.11.009.108-.007m26.778-.009.228.024q0-.013.003-.026l-.229-.023Zm-14.185-.066.395.088c.078-.024.168-.02.286-.025l.115-.126c-.304.041-.387-.016-.692-.026Zm14.645.063.227.024.003-.025-.227-.024Zm-12.815-.157-.002.113-.413-.05q-.25-.01-.502-.018c.142.026.052.069.291.064.185-.005.313-.017.505.004l.006.05c.28.01.24-.023.228-.074l.115.077.46.005c-.058-.054-.113-.087 0-.138q-.085-.021-.175-.041l-.116.05-.175-.078-.453-.005Zm9.684.152.227.018.002-.025-.227-.018Zm-17.731-.058c-.116.027.145.08.197.069.117-.026-.144-.08-.197-.069m-6.03.053c-.002-.016-.11-.01-.109.007.001.016.11.008.109-.008m9.008-.095c.185.02.042.056.139.085.04.011.237-.008.267.022.026-.005.039-.009.06-.014l-.407-.107c-.02.005-.036.01-.059.014m-16.152.039-.168.067.231-.022q-.002-.026-.006-.05Zm32.997.064.005-.051-.231-.022Zm-1.171-.017c.001-.016-.11-.026-.11-.01-.002.016.109.026.11.01m-13.606-.013c-.001-.016-.108-.015-.108.001s.108.015.108 0m-14.151-.055-.168.063.23-.017-.005-.05Zm9.316-.009c.051.027.14.039.118.072l.228-.045a1.1 1.1 0 0 0-.346-.027m3.689.052c0-.016-.11-.015-.109.002.001.015.109.014.109-.002m-10.4-.076c-.167.006-.24.028-.342.06.108.02.184.031.349.016Zm4.805-.03a6 6 0 0 0-.6.05c-.133.017-.197.015-.148.06.189-.001.384-.002.576-.001l-.005-.076q.232.002.463.006c.033-.06-.079-.049-.286-.04m18.514.091c.001-.015.11-.008.109.008-.002.016-.11.008-.11-.008m3.011-.02c.238.026.414.046.578.02l-.172-.009-.222-.043Zm-31.442-.055c-.208-.123-.68.005-.282.076l.124-.063Zm-2.328.053c-.002-.015-.11-.005-.11.011.003.016.112.005.11-.01m1.05-.038.007.05.223-.071Zm30.684-.084a2.4 2.4 0 0 0-.51.025q.456.053.908.108Zm-33.136.113c-.003-.015-.11-.004-.109.012.003.015.11.004.109-.012m20.854-.034.001.051.232-.001-.001-.05Zm-14.747-.08c-.321.074-.621.043-.98.078l.294.049.75-.081Zm30.103.116c.002-.016-.105-.028-.107-.012s.106.027.107.012m.23-.001c.002-.016-.105-.028-.107-.012s.105.027.107.012M51.767 21.6l.12.098.343-.01c-.02-.033-.217-.06-.105-.098.03-.01.353.001.154-.03Zm10.493.016-.13.067.015.005-.027.001.012-.006q-.106-.038-.214-.076Zm-25.225.034c-.003-.016-.11-.005-.109.01.002.017.111.006.109-.01m30.657 0c0-.016.11-.008.109.008-.002.015-.11.008-.11-.008m-6.813.01.232.004v-.025l-.231-.005Zm8.535-.023.465.013.003-.025c-.157-.005-.317-.01-.466-.013Zm-19.031-.014q0 .013.002.026l.23-.01-.002-.025Zm-13.117.004c-.002-.016-.11-.005-.11.01.004.017.112.006.11-.01m34.247.009c.002-.016-.107-.027-.108-.011-.002.016.107.026.108.01m-27.682-.09c-.09-.002-.192.015-.285.018q.207.038.414.073l.038-.008c.171-.042.023-.079-.167-.083m26.638.08.237-.03-.232-.021Zm-31.456-.051.006.05.115-.01-.006-.05Zm28.333-.036.112.07-.059.01-.17-.088Zm-18.01.064c0-.016-.11-.012-.11.004.002.016.11.011.11-.004m7.852-.047c-.238-.003-.435.041-.637.003l-.058.013c.235.052.533.053.695-.016m-6.992-.13c-.127.005-.208.033-.343.041-.159.01-.354.012-.52.022-.03.063.118.047.35.035l-.114.056.523.029c.083-.007.133-.047.167-.055.19-.044.354-.058.344-.117-.163.011-.25-.016-.407-.01m19.691.123.291.05.06-.007-.228-.109-.117-.01Zm-21.245.034c-.001-.016-.11-.01-.11.005.002.016.111.01.11-.005m-3.937-.008c-.001-.016-.11-.009-.11.007.003.016.11.009.11-.007m-3.374-.068c-.104-.017-.383.062-.336.07.104.018.383-.062.336-.07m-1.053-.069-.58.024.012.102.801-.12q-.064-.06-.13-.116Zm9.985.114-.23.009-.003-.05.23-.01Zm.908-.287c-.059.042-.137.077-.191.122-.055.045-.1.11-.136.154-.02.025.203.013.219.006.106-.049.055-.08.35-.087v-.026l-.23.008Zm-13.801.237.007.05.35-.008-.007-.05Zm14.443-.03c-.152-.004-.474-.002-.512.042l.693.028c-.065-.016-.07-.066-.18-.07m-12.585-.044-.103.111.23-.02q-.005-.051-.012-.101Zm6.747.093c0-.015-.11-.01-.109.007.001.016.11.01.11-.006m-5.233-.097.008.076.347-.029-.008-.075Zm3.302-.096c-.127-.002-.133.03-.247.038-.204.013-.376.029-.204.068l.513-.086-.334.15.457-.082.005.05.23-.015-.004-.05-.231.015c.019-.038-.015-.084-.185-.088m18.676.098c.22.002.37.013.458.065-.224-.003-.373-.014-.458-.065m-16.396.062.346-.02-.003-.025c-.145.013-.218-.002-.348-.005Zm19.347-.07.169.06-.229-.012.002-.051q.03 0 .058.003m-1.095 0v.05l-.117-.005.002-.05Zm-13.048.025c.09.031.425-.008.579-.003.014 0 .064.037.17.018.045-.008.051-.014.056-.027-.072.007-.156 0-.226.009-.007-.013-.003-.017-.004-.028.094.009.095-.023.107-.027-.041.01-.132.003-.107.027l-.23.007.225-.07-.232-.056Zm2.892.003c0-.016.107-.018.11-.003 0 .016-.109.019-.11.003m1.033-.003h-.115l-.001-.05.114-.002Zm-1.038-.035-.46.034c.003-.065.184-.085.459-.085Zm-8.682-.037.296.058.056-.016c-.106-.012-.133-.026-.12-.056Zm11.572.045C57.305 21.4 57.415 21.4 57.415 21.416s-.11.016-.11 0m-19.95-.04.007.05.114-.011-.006-.05Zm3.849.01q0 .013.003.025l.23-.018-.002-.026Zm-.479-.113-.101.136c.245-.05.367-.095.332-.155Zm-1.503.105.003.025.231-.02-.003-.026Zm13.227-.002c-.012.011.013.018-.002.027.043-.007.098 0 .11-.016.01-.016-.081-.006-.108-.01m13.734.005c.001-.015-.106-.021-.107-.006 0 .016.107.022.107.006m-18.48-.044q0 .026.003.05l.23-.011q0-.026-.003-.05Zm11.788.037c0-.016.108-.015.108.001s-.108.015-.108-.001m-17.593-.005c-.002-.016-.11-.007-.11.009.003.015.112.007.11-.009m10.376-.012c-.085.004-.023.018-.062.027.086-.01.152 0 .237-.008l-.007-.003c-.01-.007.011-.02-.058-.02-.029 0-.08.002-.11.004m-2.26-.075.352-.001.35.102-.127-.148c-.085-.001-.197.013-.277.01-.136-.003-.003-.044-.129-.045Zm-10.574-.026c-.17.033-.248.075-.454.093l.003.024.461-.04Zm3.266.014.006.036.351.064-.133-.168Zm22.453.085c0-.016.11-.011.11.005-.002.016-.11.01-.11-.005m1.257.001.236.013.002-.05-.059-.003Zm-17.675-.006c0-.016-.11-.01-.11.005.002.016.11.01.11-.005m-1.968-.04.004.05q.058-.001.115-.005 0-.026-.003-.05-.059.002-.116.006m3.242.036c0-.016-.11-.012-.11.004.002.016.112.012.11-.004m12.595-.152c-.096.07-.04.164-.46.165.142-.052.205-.084.116-.15Zm-6.468.152c0-.015.109-.016.11-.0002999999999993008 0 .016-.11.016-.11.0004999999999988347m4.97-.037-.232.047v-.051Zm-3.465.043H57.3v-.026c.146.005.218-.015.346-.025Zm3.93-.02c0-.016.109-.013.109.003 0 .015-.11.013-.11-.003m9.498.006c0-.016-.109-.026-.11-.01s.108.026.11.01M54.3 21.32c0-.016.109-.018.11-.002 0 .016-.11.018-.11.002m7.735-.041v.05l-.116-.002v-.051q.058 0 .116.003m-15.029.043h.463l-.003-.051A3 3 0 0 1 47.003 21.273Zm11.39-.02-.015-.002.002-.001h-.003l.183-.046Zm6.993-.026.229.011.002-.05-.057-.003Zm-.812.001c0-.016-.11-.02-.11-.005 0 .016.109.02.11.005m2.552-.083c.019.033-.07.044-.12.069l.233.014.004-.076Zm-21.29.042v.026l.232-.014q0-.013-.002-.025Zm5.44-.103.007.127.347-.012-.039-.014c-.08-.033-.097-.066-.084-.109Zm-2.428.097.002.025.23-.01q0-.012-.002-.025Zm-4.877-.052q.004.037.007.076c.155-.004.248-.067.224-.091Zm3.136-.085c-.19-.03-.26.032-.238.057q-.17.011-.342.02l-.052.08.286-.055c.168.039.344-.006.577-.02-.108-.004-.196-.076-.231-.082m-7.792.135c-.002-.015-.111-.006-.11.01.003.016.112.006.11-.01m8.488-.012c-.001-.015-.11-.01-.11.006.003.016.111.01.11-.006m12.723-.007c0-.016-.11-.018-.11-.002s.11.018.11.002m-17.141-.092.009.101.227-.054-.002-.025-.177-.026Zm4.99-.043.126.07.229.04-.58-.023c.293.088.708.065.92-.054l-.118-.06Zm4.751.12c0-.017-.11-.014-.11.002.002.016.11.013.11-.003m1.51.006-.231.004-.002-.025.232-.004Zm4.272-.15c-.247.027-.372.062-.344.126l.117-.05.342.002Zm2.436.073.342.046c.028-.033-.026-.07-.054-.102l-.015-.025c-.014-.026-.032-.051-.16-.056Zm-12.042-.04.005.076.115-.006-.004-.076Zm15.16.062c0-.016-.11-.02-.11-.004s.11.02.11.004m1.5-.005c0-.016-.109-.021-.11-.005 0 .015.109.02.11.005m-20.609-.103.009.101.115-.007-.008-.101Zm18.822.008c-.326-.007-.427.011-.408.085l.236-.066.463.043c.024-.054-.054-.057-.291-.062m-19.633.019q.001.024.004.05l.116-.008-.005-.05Zm7.538.03c0-.015-.11-.012-.11.004.001.016.11.013.11-.003m10.07-.015.343.01v-.013a1.1 1.1 0 0 0-.344-.048Zm-19.468 0 .06.009.169-.05-.06-.01q-.084.027-.169.051m3.136-.045.005.05.347-.02-.005-.05Zm-2.675-.001.005.05.231-.016-.178-.038Zm16.224.047q.115 0 .23.003v-.026l-.23-.002Zm-8.906-.044.234.041-.003-.05Zm3.935-.047.462-.02-.112.103q.23-.017.46-.033c.044-.116-.236-.129-.698-.141Zm-10.321.055.003.025.23-.016q0-.012-.002-.025Zm17.147 0c0-.016-.11-.018-.11-.002s.11.018.11.002m-.577.002.232.005V21l-.233-.004Zm-3.823-.01c0-.015-.11-.015-.11.001s.11.016.11 0m1.51.012h.23V21l-.231-.002Zm-6.584-.082c-.116.026.145.08.198.07.117-.027-.145-.082-.198-.07m3.977.067.286-.029v-.025l-.461-.02Zm-10.029-.03c-.002-.016-.111-.009-.11.007s.11.01.11-.007m6.495-.051q0 .026.003.05l.115-.003-.002-.05q-.059 0-.116.003m-8.936.035.059.008.17-.05-.06-.009q-.084.026-.17.05m3.255-.019q0 .013.002.025l.347-.018-.003-.025Zm.461-.05.006.075.228-.05-.176-.029Zm12.74.064c.156.01.256-.047.234-.073l-.234-.003Zm-1.15-.01v-.05l-.231-.001Zm-14.619-.097c-.13.02-.194.044-.344.05l.178.038c.116-.031.19-.053.166-.088m-1.044.061c-.003-.016-.112-.007-.11.008.002.016.112.008.11-.008m16.005 0C58.907 20.923 58.799 20.922 58.799 20.938s.108.017.108 0m-10.658-.046.12.058.23-.011-.293-.062Zm13.675.056v-.05l-.231-.005Zm-14.14-.033c0-.016-.11-.01-.109.006.002.015.11.01.11-.006m4.752-.009c0-.016-.11-.012-.11.004.002.015.11.012.11-.004m-7.66-.002c-.002-.016-.11-.009-.109.007.002.016.111.009.11-.007m13.916-.017c0-.016-.11-.016-.109 0s.108.016.109 0m-10.663-.015c-.002-.015-.11-.01-.11.006.002.016.111.01.11-.006m-.349-.046.004.05.116-.005-.004-.05Zm1.97-.065c-.181.001-.484.05-.576.088.135.03.261.03.466.018Zm-1.041.071.234.04-.003-.05Zm10.66.022.23.002v-.025l-.23-.003Zm-1.153-.109c-.287-.002-.555-.015-.695.05.244-.008.443-.032.695-.024Zm-3.711.015c-.002-.015-.11-.014-.11.002s.11.014.11-.002m-7.081-.043.004.051.115-.006q0-.026-.003-.05Zm18.1.035.23.011-.171-.06-.058-.002Zm-17.404-.044q.001.026.004.05l.227-.061Zm14.151.046.231-.044-.23-.006Zm-13.338-.034.001.026.232-.01q0-.015-.002-.026Zm-1.802-.038-.17.06.23-.012-.004-.05Zm5.628-.023.002.051.233-.006-.178-.046Zm-4.877.022c-.001-.015-.11-.01-.109.006.002.016.11.01.11-.006m9.054-.036.583.05-.001-.077Zm1.047.05c.167.004.243-.012.347-.038a1.1 1.1 0 0 0-.348-.039Zm1.267-.032c0-.016-.109-.017-.109-.001C59.141 20.676 59.25 20.677 59.25 20.661m-.457.009h.114v-.051h-.115Zm-7.66-.09q0 .026.003.05c.147-.01.218.008.349.014l-.005-.075Zm8.465.046.115.001v-.05l-.116-.002Zm-5.446-.051.001.025.232-.004-.001-.025q-.116 0-.232.004m2.549-.032v.05h.234l-.177-.05Zm-.818-.006c0-.016-.11-.015-.109.0006999999999983686 0 .016.11.014.109-.001m-8.01-.022-.115.006-.004-.05.116-.007Zm.352-.005c-.002-.015.108-.02.109-.005 0 .016-.108.021-.11.005m8.821-.007c0-.016-.11-.015-.11.0006999999999983686s.11.015.11-.001"/></svg>