<svg xmlns="http://www.w3.org/2000/svg" width="487" height="96" fill="none" viewBox="0 0 487 96"><path fill="#fff9ed" d="M487 4.266h-52.269v40.4h49.365V47.6h-49.365v44.133H487v2.933h-55.306V1.333H487ZM353.995 1.333h51.348v93.333h-3.037v-90.4h-45.803L346.207 66.4c-3.695 22.533-8.183 29.6-18.083 29.6h-5.279v-2.933h5.016c8.316 0 11.878-5.734 15.31-26.4ZM267.717 0c26.531 0 47.122 20.533 47.122 48s-20.591 48-47.255 48c-26.531 0-47.255-20.533-47.255-48s20.724-48 47.388-48m-.133 2.933c-24.682 0-44.086 19.467-44.086 45.067s19.404 45.067 44.086 45.067c24.684 0 44.219-19.334 44.219-45.067S292.268 2.933 267.584 2.933M197.882 1.333v93.333h-3.036v-90.4h-66.13v90.4h-3.036V1.333ZM48.179 45.466C60.322 48.533 66.262 56.8 66.262 69.733c0 14.667-8.184 24.933-29.303 24.933H0V1.333h35.639c20.855 0 27.851 9.6 27.851 23.2 0 10-4.092 17.733-15.311 20.933M60.454 24.4c0-11.867-5.676-20.134-24.815-20.134H3.036v40H34.45c20.196 0 26.003-8.133 26.003-19.866M36.96 91.733c19.403 0 26.267-8.933 26.267-22C63.226 56 55.966 47.2 36.563 47.2H3.036v44.533Z"/></svg>