<svg xmlns="http://www.w3.org/2000/svg" width="520" height="67" fill="none" viewBox="0 0 520 67"><path fill="#6a8850" d="M1.45 66.637c.057.078-.425.43-.481.352-.06-.077.418-.427.48-.352M321.24.755c.551-.213 1.106-.425 1.657-.637l2.65.135.049.302 1.669-.167c0 .103.011.207 0 .31 1.063-.181 1.852-.355 3.366-.302.838.028 3.872.16 4.48.115 1.954-.15 1.843-.403 3.906-.277-.017.096.037.196.048.294q2.152.25 4.293.51l-.055-.31-.947-.164c1.244-.09 2.483-.171 3.745-.26 2.312.293 4.193.084 6.706.294 1.078.09 2.057.48 3.64.352.047-.09.022-.2.052-.299 1.592-.01 3.942.322 5.311.533.996.154.774.287 1.978.14.325.167.666.332 1.009.5.116-.202.236-.403.351-.604 1.644.274 2.522.262 3.735-.016l.994.27c-.977.18-.596.334.341.557.572-.004.379-.202.679-.285 1.185-.324 1.84-.143 3.323-.05 2.415.15 4.341.173 6.7.407.445.045.998.243 1.645.227.02.158.002.308.007.463 1.617-.067 2.809-.325 4.728-.176.005.101.018.205.024.306.887.057 1.776.116 2.659.176q.018-.151.034-.304l1.667.417c1.014-.03 2.025-.054 3.034-.081.176.465-1.296.117-2.38.294-.448.073-.639.287-1.025.388 1.123.082 2.237.157 3.347.241.257-.236.444-.483.744-.714.81-.005 2.931.387 3.516.435 4.518.356 8.501.564 13.016 1.179.621.085.998-.058 1.969.06 1.249.15 3.359.645 4.506.962.696-.016 1.302-.05 1.99-.067.924.258 1.838.523 2.756.784 1.321.143 2.693.156 3.993.364 1.588.256 2.126.54 3.653.494q.15.18.3.357c2.301.017 4.429.516 6.574 1.129.128-.135.28-.27.394-.405 1.721.164 2.162.574 3.769.882.799.154 1.442.005 2.669.357.774.223 1.239.564 2.537.58 1.05.41.641.62 2.349.913.021-.945 2.875.283 3.269.384 2.466.603 3.353.63 5.329 1.162.01-.107.017-.207.111-.287 1.384.158 3.758.961 4.748 1.204 2.627.638 4.922 1.196 7.218 1.746 2.634.633 3.324 1.054 5.417 1.76 1.759.598 3.28.902 5.05 1.53.388.137.891.463 1.543.624.006.112-.028.203-.033.309 2.509.416 4.358 1.13 6.844 2.146 1.416.583 2.524.991 3.936 1.6.561.241.949.193 1.767.563.603.275 1.402.786 2.248 1.069a.9.9 0 0 1-.069.301c1.804.476 2.366.93 4.11 1.8 1.253.634 1.532.647 3.239 1.497 1.985.97 6.075 3.297 8.17 4.74 1.183.79 2.28 1.884 3.27 2.6.934.68.769.297 1.637 1.022-.716-.02.276.855.516 1.454.621 1.552.019 2.375-.411 3.133-.112.19-.832-.335-.787-.094.521.392 1.031.803 1.53 1.22-.317.034.114.722.084.946-.035.285-.56-.055-.744.021l-.015-.01c-.265.11.011.466-.398.48-.09.004-.082.203-.251.145-1.101-.373-2.477-1.62-2.355-2.115a67 67 0 0 0-1.324-.958c-.06.085-.115.173-.173.259-.742-.65-1.582-1.337-2.271-1.906.284.338.529.654.85 1.023-.36-.086-.677-.145-1.003-.2-.75-.658-1.617-1.129-2.517-1.785-.902-.653-.795-.856-2.164-1.41-.557-.401-1.039-1.027-1.558-1.354-1.602-1.002-.49.365-.668.5 1.013.48 1.992.96 2.954 1.451q-.105.206-.207.413c.799.482 2.052 1.575 2.676 1.678l.107-.192.525.33q.15.328.293.654c.497.348 1.033.73 1.575 1.13l-.33.521c.977.69 1.596 1.462 2.55 1.932a58 58 0 0 0-1.789-1.879c.16-.488 1.103-.243 2.476.372.587.726 1.217 1.347.795 1.488-.154.047-1.157-.319-1.195-.162-.067.3.835 1.157.454 1.242a66 66 0 0 0-3.085-2.093 69 69 0 0 0-1.599-.538c-.25-.42.956.245 1.299.324.42.091-.24-.514.008-.558-1.152-.826-1.692-1.043-2.504-1.273-.654-.583-.48-.652-.532-.95-.036-.213-.983-.701-1.195-1.006-.425-.013.323.537-.09.581-.232.023-1.389-.465-1.256-.115-1.765-.982-2.592-1.903-4.381-2.875.518.405 1.075.836 1.589 1.254a124 124 0 0 0-3.031-1.792c-1.294-.243-.697.407-2.796-.64.297.36.608.737.887 1.088-1.475-.557-2.458-1.348-3.673-1.95-2.117-1.042-2.869-1.208-3.704-2.14.683-.031 1.416-.044 2.119-.06-.628-.223-1.303-.459-1.901-.659-.295.355-1.455-.468-2.007-.875l.752-.21c-1.753-.27-2.524-.234-2.503.381-.386-.138-.78-.277-1.17-.415q-.083.214-.171.427-1.208-.43-2.445-.851l.639-.029q-.403-.261-.812-.521-.665-.072-1.329-.137-.769-.326-1.551-.647c.362.504-.212.672-.309 1.035-1.208-.372-2.275-.742-3.387-1.057-.754-.212-1.045-.128-1.898-.393-1.039-.32-2.068-.852-3.33-1.104.139-.179.979.032 1.755.185.778.155.996.223.9-.08 1.108.394 1.932.637 3.04.896-.143.258-.017.345 1.136.668-.26-.308.495-.212.57-.386.073-.175-.607-.44-.245-.557.14-.058 1.489.184 1.292-.005-.792-.2-1.474-.357-2.204-.528q-.212.18-.42.359c-2.139-.728-3.3-.6-5.359-1.066-.186-.158-.368-.315-.555-.473q-.254.331-.505.664c-1.961-.527-4.17-.955-4.395-1.628q1.29.405 2.554.817l.791-.429c2.144.516 4.246 1.05 6.297 1.604q-.183-.537-.373-1.073 1.564.376 3.094.769-.06.223-.118.446c1.93.7 3.983 1.472 5.886 2.236q.838.053 1.667.11-1.182-.544-2.396-1.08c.96.052 1.903.39 3.152.859-.761-.706.788-.483-.576-1.353l.115.697q-.912-.322-1.84-.64-.076.13-.148.259c-1.491-.52-1.32-.272-1.35.04-.921-.276-1.431-.455-1.204-.64.135-.11.831.005.433-.266-.962-.018-1.472-.498-2.475-.782-.739-.208-.818-.006-1.453-.161-1.118-.27-2.228-.586-3.372-.827.141-.187-.174-.463.836-.321.587.082 1.225.474 1.806.379-.461-.216-.977-.448-1.466-.668q-1.125-.176-2.262-.343l.512.627a241 241 0 0 0-2.561-.557c.069-.302.433-.506-.428-.999l1.311.2a230 230 0 0 0-5.118-1.597q1.913.765 3.766 1.547l-.728.203c-1.768-.424-.643-.456-1.871-.813l-.094.297q-1.29-.337-2.601-.664.468.277.934.555c2.248.33 3.04.696 4.463 1.486q1.438.314 2.845.639c.148.31.272.615.433.928-.67-.147-.917-.523-1.632-.779-.33-.118-1.535-.392-2.055-.576.109-.072.193-.242-.242-.381-.566-.18-1.487-.531-1.845-.615-1.069-.25-1.337-.153-2.383-.492-.152-.541-1.956-1.016-3.286-1.594-.206.089.06.424.555.6.696.247.874.145 1.579.485.683.336 1.262.934 2.329 1.365-1.554-.259-3.045-.5-4.506-.716-.15-.51-1.498-1-3.289-1.25-1.245-.487-4.112-1.083-4.739-1.577-.093-.076.514.052.432-.082-.03-.053-.342-.52-1.069-.593-.713.13-1.416.285-2.132.424.523.248 1.095.028 1.32.28.122.138-.377.17-.006.39-.799-.181-1.344-.276-2.049-.421.532.264 1.05.527 1.571.79.109.023.223.045.328.066.068-.138-.017-.328.152-.432.143.084 1.772.58 1.703.74-.028.056-.499-.04-.364.092.229.223 1.731.776-.013.531-.645-.09-1.448-.437-1.521-.622.431.033.887.078 1.326.115-3.199-.642-4.699-1.376-6.616-2.255-.673.002-.958.113-1.348.22-.533.146-.313.304-1.645.012.034-.163-.24-.569.435-.533.942.05 1.821-.055 2.539.024.717.08.524.276 1.257.34.592.053.9-.012 1.657.174-.172-.112-.35-.224-.523-.335.313-.018.612-.038.942-.051.77.126 1.56.257 2.308.383-.604-.27-2.19-.56-2.843-.634-.662-.075-1.106.133-1.719-.031-.375-.28.585-.264.57-.432-.023-.24-1.197-.453-.93-.68-.469.079-.895.162-1.349.244q.216.314.428.629-.93-.33-1.87-.658.607.345 1.208.692c-1.521-.327-3.019-.406-4.491-.803q-.357.14-.711.28a494 494 0 0 0-3.366-.178q1.016-.114 2.029-.22c.24-.364.101-.3-1.241-.601-.036-.01-.006-.13-.308-.178-.3-.048-.3.074-.343.072-.458-.027-.885-.148-1.337-.203.403.245.81.494 1.209.74-.746.113-.517.335-1.955.092q-.06.136-.128.268c-.9-.033-1.753-.055-2.599-.075a249 249 0 0 0-1.5-1.006l-1.697.459c.414.189.829.377 1.236.567-.422-.06-.846-.13-1.272-.184.021.031.002.055-.03.077l1.296.26c-.958.28-2.858-.093-4.568-.252-1.045-.097-1.27-.121-1.941-.42l1.665.154.34-.272c1.104.127 1.558.35 2.231.622l-.287-.355c.43.058.855.13 1.281.184-.253-.27-.463-.467.075-.613l-1.346.277c-.917-.113-1.429-.155-1.249-.392q-.983-.181-1.973-.36c.66.035 1.32.071 1.971.109.266-.459 1.29-.61-.473-1.23l1.332-.365q.786.345 1.567.69l1.349-.275c.879.341.712.615 2.182.794q-.199.282-.395.564c.529.08 1.063.16 1.59.241l-.533-.774c.85-.082 1.804-.147 2.71-.215-1.131-.05-2.265-.091-3.321-.125.073-.168.186-.55-.947-.738-.433-.071-.936.017-1.532-.253-.049.157-.043.307-.075.46q-.961-.14-1.928-.277.008-.108.019-.217-.66-.06-1.322-.118.522-.24 1.052-.478l1.247.644q.188-.207.381-.415c.647.145 1.275.29 1.927.437-.292-.265.428-.285.537-.463.073-.119-.465-.24-.456-.383.019-.215.098-.46.105-.685a363 363 0 0 0-3.229-.622c-.075-.289.107-.436 1.076-.473q.931.208 1.857.42.853-.03 1.71-.054c.169.337.358.68.516 1.016 1.594.124 1.32-.28 2.199-.434.162-.027 1.448.23 1.564.084.37.166.649.313.985.473-.683-.008-1.364-.01-2.048-.015q1.166.26 2.318.526l1.074-.285q2.655.364 5.255.755l-1.324-.08q.28.364.557.726c.545-.005 1.132-.005 1.65-.012.994.277.399.374 1.031.644.634.27 2.299.579 2.984.905.677.129 1.342.263 2.014.398q-.637-.29-1.276-.574c.259-.157.512-.317.777-.473-.606-.14-1.298-.039-1.795-.056-.51-.019-1.678-.04-2.141-.315 2.164-.197 4.189.1 6.902 1.136.03-.151.055-.303.083-.454q.767.515 1.526 1.032c-1.134-.032-2.269-.06-3.42-.082.797.276.24.549 1.611.71.703.082 1.931-.165 2.621-.022 1.452.3 2.309.612 3.597.933-.934-.476-1.845-.95-2.79-1.42l.427-.218c-3.658-1.017-.709-1.032.799-.617.482.371.983.752 1.444 1.12 1.292.084.795-.108.516-.438-.447-.531 1.71.297 2.467.507-.013.156-.054.304-.08.456.864.155 1.648.293 2.584.475-.428-.214-.833-.42-1.225-.622 2.609.681 4.57.872 4.814.275-.598.054-1.191.111-1.791.169q-.406-.501-.816-1.001.7.016 1.396.036c-.683-.093-1.373-.185-2.059-.273q-.683.06-1.311.135.228.255.454.512-.947-.156-1.9-.307.018-.15.034-.303-2.222-.459-4.493-.89.047-.227.09-.456.627.22 1.254.444.535-.116 1.069-.23.137.19.278.379 1.271.3 2.522.605c-.555-.855-2.367-1.22-4.733-1.442q-.616-.284-1.242-.567-1.176-.106-2.359-.207l.407-.23q-1.152-.324-2.317-.643l.551.743-1.283-.25q-.06.134-.127.269c-1.442-.323-2.232-.298-3.338-.342.244-.162.495-.325.744-.485 1.251.28 1.714.542 2.689.46q-.505-.221-1.01-.441.233-.19.461-.379c-.683-.033-1.405-.073-2.061-.096-.18-.245-.356-.489-.536-.733-.636-.122-1.29-.252-1.922-.367-.077.24 1.723.412 1.185.606-.542.193-1.06-.057-1.879-.263-.043.09-.066.192-.103.287q-.959-.176-1.928-.348c.846.494 1.768.776.199.82-.747-.315-1.232-.507-1.562-.839-.077-.079-.469-.456-.411-.523.18-.204.829-.172.583-.456-.238.063-.482.12-.727.183-.852-.167-1.502-.105-2.296-.229-.596-.093-.802-.254-1.335-.347-.536-.092-.624.057-1.305-.116-.834-.212-1.144-.542-2.353-.67.407.292.83.593 1.241.89q-.364.138-.722.28c-.666-.105-1.361-.212-2.01-.31.082.22.159.44.247.661-.742-.243-1.47-.487-2.207-.723.471-.097.985-.117 1.21-.3.315-.257.255-.67-.377-1.053.426.058.864.123 1.29.185q.036-.226.069-.453c-.851-.183-1.712-.363-2.574-.542q.267.507.532 1.015c-1.217-.366-1.519-.212-2.627-.227q.013-.154.028-.309l-1.65-.077c.113-.087.272-.166.356-.26-.926-.06-2.164-.477-2.856-.54-1.389-.127-.875.346-1.179.427-.304.08-.561-.07-.902-.075-2.378-.034-4.733-.028-6.873.077-.307-.247-.6-.478-.924-.733-.525.12-1.39-.151-1.913-.022-.523.13-.324.595-1.774.545.139-.18.259-.385.392-.574q-1.172.106-2.35.217a448 448 0 0 0-3.298-.644c.094.11.225.234.294.338-1.035-.02-1.674-.394-2.282-.504-1.335-.243-2.316-.042-3.261-.186-1.251-.191-1.082-.456-2.46-.506.013.152-.015.307-.017.46a579 579 0 0 0-3.268-.425l.013-.154-1.313-.106q.019-.384.036-.769l-.677.258q-.984-.192-1.973-.381c.439-.07.906-.141 1.335-.208.002-.178-1.009-.09-1.277-.185-.555-.204.591-.37.323-.584-1.105.07-2.239.144-3.359.22l-1.001-.068.013-.46q-1.334-.17-2.672-.333l1.342.318c-.093.273-.504.459-.722.733-.105.131-.022.335-1.029.155-.401-.072-.765-.322-1.318-.355-.876-.05-1.506-.043-2.331-.18-.015-.098-.025-.2-.038-.298l-1.976-.19-.621-.427q-.986.023-1.973.048l-.015-.306c-1.607-.119-2.503-.06-2.672.323q-2.655-.05-5.333-.084.348-.603.701-1.206-1 .036-2.006.075-.01.23-.026.46c-1.135-.018-1.592-.2-2.352-.393q-1.188.146-2.372.295c.671.048 1.352.099 2.025.149 0 .153.004.307.004.46q1.489.14 2.974.283.851.414 1.699.832l-1.68.087c-.109-.21-.212-.422-.323-.632-.887-.034-1.781-.068-2.67-.1l-.032.305-1.348-.049c-.006-.103-.006-.207-.013-.31-.795.023-1.538.05-2.309.077q-.43-.363-.86-.724.284-.181.564-.362.65-.02 1.3-.038c-1.328-.428-3.044-.493-4.951-.692-1.493.255-.33.529-.351.916q-.8-.097-1.601-.193l-1.395.268c-.775-.173-1.555-.34-2.335-.514-.797.753-3.662.427-6.334.533-1.071.043-1.407.441-2.721.4-.33-.201-.664-.417-.994-.624 1.386.116 2.565.056 4 .048q.016-.229.035-.458l1.322.014c.465-.304-1.522-.651-2.698-.653.197.377-1.448.553-.673.916-.889-.165-1.767-.33-2.652-.492q-.99.763-1.976 1.53-.493-.393-.983-.785-2.018-.317-4.045-.627c.002-.154.015-.31.01-.465-.876.207-1.964.365-1.615.692.308.288 1.875.149 2.52.258.636.11.188.317 1.019.422l-.006.003.013.002c-.435.112-.816.215-1.23.323q-1.015-.31-2.033-.62-1.158.075-2.319.155-.335-.309-.679-.618.67.038 1.337.078-.002-.194-.006-.387a24.5 24.5 0 0 0-4.024.012q.682.46 1.361.92-1.344-.226-2.694-.45.012.465.022.927-.691-.418-1.384-.835.008-.115.017-.23c1.965-.004 1.459-.25.302-.469-1.005.06-1.991.119-2.976.181l.668.379q-.986.202-1.977.407c-1.65-.227-1.47-.713-3.343-.88-.216.277 1.963.507 1.282.738-.401.133-1.404-.177-1.92-.029.647.066.345.343 1.065.36 1.236.027 1.767-.09 1.602.291-1.36.06-1.724-.219-2.674-.345-.681-.09-1.259.137-1.99.106.441-.055.885-.116 1.328-.173q-.349-.458-.7-.917c-1.549.078-3.122.162-4.66.246-.27.2.514.232.587.396.124.284-.9.405.12.67-.907-.033-1.789-.068-2.687-.099l.559-.24q-.285-.106-.57-.213l1.329-.04q-.007-.23-.015-.46-1.002.022-2.008.047l.024.615c-1.34-.02-2.687-.034-4.031-.049.122.098.251.197.369.295-.836.676-.019.976 3.038.85l-1.358-.428 1.664-.196c.937.153 1.125.32 1.037.591q.999-.023 1.999-.043.012.153.028.306 1.332.05 2.657.104-1.992.115-3.989.239l.01.463c-1.244.057-1.386.019-1.394-.266l-1.297.017.664-.323q-1.671.079-3.346.164c.913.237 2.777.248 2.725.622 2.046.007 3.017-.197 4.317-.562l.645-.012c.988.187 1.582.431 3.024.405-.204-.153-.491-.294-.645-.455 1.429.01 3.704-.572 4.782-.514 2.183.119.094.737.544 1.044 2.273.12 2.196-.453 3.595-.622 1.157-.14 2.314-.01 3.33-.046.735-.025.889-.153 1.431-.15 2.571.018 4.337.577 6.953.587-.671-.205-1.339-.415-2.01-.62 1.101.054 2.207.11 3.304.169.017.098.036.198.049.296a979 979 0 0 1 3.295.022V7.04q.335.157.665.316c1.167-.16 1.829-.341 3.301-.277l-1.986-.485c.874.062 1.74.125 2.623.19.021.096.047.194.07.29q1.499.255 2.987.516c.12-.1.223-.204.349-.302.729-.045 1.198.127 1.725.164.849.06 1.093-.157 1.888-.089.598.052.932.202 1.695.183.017.1.025.206.047.3.722.103 1.08-.104 1.628-.075 1.348.071 2.033.392 3.516.373-.171.099-.347.188-.506.285.641-.006 1.693.152 1.959-.046s.15-.23 1.296-.178c.015-.1.043-.195.066-.295a26 26 0 0 1 3.585.277c.754.113.298.317.373.471-1.14-.038-2.224-.079-3.323-.113-.082.52 2.069.784 1.949 1.302l-1.967-.142c.228.136.418.27.669.408.534-.154 1.975-.146 2.533-.23.548-.084-.056-.25.179-.361.129-.061.495-.094.555-.167.127-.168-.657-.26-.527-.45.058-.086.579-.161.622-.302.058-.192-.05-.483-.007-.69.939-.007 1.468.21 2.349.246.882.035 1.414-.142 2.35-.06-.446.107-.891.22-1.341.33.441.145.876.295 1.317.439.022-.144-.278-.388.347-.441.373-.031 1.018-.094 1.295-.073 1.075.084 1.596.278 2.704.251l.672-.277c.317.171.669.339.962.514-.762-.1-2.798.11-1.883.35.692.18 2.005-.184 2.869.14 1.03-.1 1.992-.193 2.982-.28.232.141-.439.41-.713.474-.93.216-2.074.083-1.954.464q1.651.006 3.293.021c-.002.155-.009.31-.013.463l1.971.116c-.062.097-.364.208-.728.265-.058.008-.619-.04-.609.039.022.087.56.1.596.116.251.114-.041.203.043.31l.323.02c.097-.099.257-.184.32-.292l-.65-.038q.003-.078.005-.155.316.094.649.19c1.911-.133-.107-.63-.384-.84-.278-.21.491-.163.512-.297.009-.219-1.165-.6-.584-.726.428-.097 1.851.17 1.553.407-.296.237.33.659 1.641.851.257-.238-1.868-.613-.593-.716 1.017-.082 2.181.27 3.297.277.064-.297.681-.43 2.038-.323-1.106.4-.431.942 1.939 1.223q-.346.207-.695.413 2.304.323 4.581.66l.656.36.681-.41a639 639 0 0 0-4.585-.514q-.297-.639-.598-1.278c.442-.02.887-.04 1.327-.058a531 531 0 0 0-2.636-.347c1.781-.03 3.058.08 4.581.407 1.521.329.887.146 2.4.277.81.071 1.853.382 2.852.396.072.462-.6.781-1.372 1.124.536.098 1.078.19 1.612.294.82-.074.139-.295.527-.511.07-.04 1.101-.333 1.589-.388.892-.104 3.135-.088 4.348.098.013.104 0 .208.008.312 1.2-.07 2.331.106 3.649.217.836.07 1.091-.07 2.025.053 1.562.205 2.588.572 4.186.468-.432.108-.891.21-1.334.316 1.159.098 1.932.233 2.944.487.225.056.357.083.595.123.135-.102.277-.203.416-.304q2.368.208 4.701.434c-.442.285-1.817.528.576.854q-.294-.35-.596-.7 1.656.135 3.298.28.357-.105.713-.207c-.124.136-.283.276-.385.412.33.217 1.178.23 1.514.39.712.34.32.522 2.012.741-.747.081-.15.182-.223.355-.072.171-1.879.254-2.459-.041.415-.073.906-.132 1.324-.205-.703-.073-2.006-.221-2.558-.208.117.006.735-.223 1.172-.207-.272-.028-.583-.043-.864-.068-.216-.074-.422-.15-.645-.224-.962.043-1.697.375.337.5-.555.013-.433.226-1.102.156-1.482-.155-2.164-.505-3.601-.46.195-.11-.581-.609-1.241-.618-.658-.008-.846.114-1.425.128.555.277 1.076.547 1.614.822l1.692-.096.262.658 1.356-.135c.324.121.632.24.966.364-1.446.258 1.322 1.555-1.268 1.43-.292-.015-1.155-.33-1.534-.084.154.188.413.412.604.613l1.281.178-1.035.328q-1.404-.885-2.824-1.763l-.711.379c-1.528-.183-2.59-.52-3.966-.473l.071-.772c-.703-.046-1.009-.191-1.598-.301-.245-.046-.438.054-.63.02-1.085-.197-1.839-.448-2.591-.717-.128.243-.261.489-.39.733l-1.943-.511c-.482.468-.958.939-1.44 1.408q-.328-.188-.658-.376c-1.397.07-2.211-.4-3.616-.347-.508-.193.643-.26.981-.297.523-.057.889.106 1.322.02.433-.088.489-.387 1.41-.382-.401-.199-.799-.385-1.202-.579l.608-.328c-1.002.048-1.587-.134-2.656-.255.094.3-.123.497-1.385.494-.377-.474-1.514-.913-1.257-1.35-.744.2-1.676.533-2.334.709-.666.175-1.077.195-1.694.342.441.03.861.073 1.294.109.081.43-.527.774-.071 1.23-1.288-.245-.955-.6-2.571-.678.21.12.426.24.638.36q-1.314.049-2.633.103c-.045-.318-.278-.515 1.333-.364l-.626-.511 1.644-.017c.533.143 1.077.289 1.604.434-.203-.439-1.538-.837-1.159-1.25.088-.096 1.524-.14 1.254-.291-2.456-.233-3.191.149-3.317.66q-.98-.076-1.965-.151c.116-.094.227-.188.345-.28.615.225 1.273.293.977-.01-.109-.11-.499-.399-.662-.485-.544-.284-1.185-.463-2.241-.583.324.08.645.155.966.234.455.654 1.414 1-2.016.776q-.012.232-.021.463.997-.082 1.994-.166c.245.613-1.696.403-3.057.738-.186.048.017.477-.332.56-.924-.084-1.566-.496-2.278-.587-1.679-.214-2.759-.005-4.37-.144-.116-.45 1.285-.227 2.693-.143.248-.343.473-.692.737-1.03.718.043 2.511.201 2.534-.086.011-.156-.861-.383.17-.51-.926-.07-1.783-.12-2.687-.18l-.362.593a551 551 0 0 0-3.004-.495c.439.233.883.467 1.32.7l-1.997-.118-1.335.54c.6-.537 1.806-.848.073-1.466.767-.135 1.506-.27 2.307-.4 1.226.282 3.63.81 3.684.224-1.361.104-2.306-.317-3.647-.381-2.231-.104-1.404-.126-3.606-.345-.611-.062-3.523.067-4.247-.396-.458.088-.692.172-1.062.258 1.099.105 2.191.212 3.284.321l.002.466.986-.085.966.497c-1.213-.026-2.5-.043-3.704-.065-1.207-.022-2.357-.05-3.542-.07.707.278 1.898.346 2.933.379.872.026 2.327-.377 2.897-.138.823.345-2.481.55-1.232.984-.69-.026-1.324-.066-1.993-.096.217-.093.465-.181.656-.275-1.219-.075-3.469-.254-4.204-.5-.842-.28.041-.264-.518-.585-.476-.275-2.061-.795-2.839-1.105.083.2.21.42.311.627l-1.34.101c.682-.025 1.322-.054 2.025-.074.002.275 1.476.693-.555.738-.553.01-3.113-.39-4.099-.297-.105-.11-.038-.203-.075-.306-1.12-.04-2.183-.08-3.276-.114-.19-.138.99-.228 1.172-.352.071-.049-.447-.099-.347-.166.309-.203 1.367-.212 1.155-.497-.653.235-1.317.47-1.977.707q-.983-.186-1.972-.37.32.273.635.546l-.645.38-1.959-.207-.045.302c-1.019-.041-2.131.136-2.952-.068l.321.384c-1.45.277-3.576.68-3.306-.14-.555.091-1.114.186-1.664.28q.169-.307.336-.613c-.669-.063-1.333-.126-2.008-.188-.049.213-.002.415.343.622.486.29 1.616.484 1.658.8-1.774-.014-2.359-.49-3.693-.653-.93-.113-1.517.028-2.342-.135-.684-.134-.806-.418-1.611-.552-1.224.016-1.592.17-1.642.444h-.019l.002.002c-.433-.012-.865-.003-1.298-.01q-.012-.23-.019-.46-1.315-.087-2.634-.172c-.135-.291.075-.33 1.314-.303l-.669-.77q-1.323-.007-2.65-.012l1.318-.612c-.885.098-1.762.205-2.655.301.064-.3.27-.756-.99-.907-1.26-.15-.846.138-1.039.285-.649.01-1.322.009-1.98.014-.199.365.793.524 1.427.83q-.03.278-.062.557l-1.367-.456q-.64 0-1.286 0-.014-.231-.032-.461-1.657.167-3.319.34-.503.464-.989.928l-.356-.612C323.388 10.447 322.968 10.505 322.516 10.464c-.041-.006-.026-.128-.328-.123-.306.005-.27.12-.325.13-.335.055-.577-.019-.917.039-1.072.178-1.609.37-3.043.335.328-.152.542-.19 1.314-.174-.23-.254-.455-.509-.684-.762l1.991.125c-.566-.204-.296-.306-.02-.53-.717-.215-1.48-.236-2.626-.21-.02-.1-.037-.2-.06-.3l-1.972.032c.009.155.005.307.02.463 1.945-.325 3.55.036 1.628.27-.788.097-1.68-.03-2.586.078-.784.092-1.228.356-2.335.335.22.254.458.503.685.755l1.991-.039c-.003-.102-.011-.204-.009-.306.441 0 .885-.02 1.326-.024q-.656.205-1.305.412l1.299.437-1.599.569c-1.009-.308-2.245-.201-3.678-.311q-.295-.07-.594-.143.265-.082.525-.166c-.692-.214-1.463-.223-2.612-.171.06-.468.452-.708 2.357-.982.412-.059 1.858-.125 1.249-.335l-2.552.2q-.55-.06-1.094-.116c.216.174 0 .736-1.331.468-.135-.027-.234-.414-1.005-.402-.561.101-1.105.235-1.656.35q-.413-.083-.821-.167c-.655.25-.711.389.172.571l-1.53-.016a1083 1083 0 0 0-3.085.39q1.656-.054 3.308-.104l-1.29.659q1.64-.282 3.282-.56c-.432.245-.855.49-1.285.736l-1.988-.022c.889.18 1.782.36 2.669.543q-1.986-.1-3.979-.19-1.187-.504-2.378-1.004c-.767.077-1.538.155-2.303.234l-.707-.748c1.108-.04 2.211-.08 3.317-.118-.037.312-.281.516 1.349.42-1.086-.417.264-.718 1.269-1.124q-1.645.206-3.3.417-.01-.23-.023-.46c1.358-.096 2.026-.267 3.318-.111-.019-.106.011-.204-.034-.314-.527.103-1.345-.086-1.587-.072-1.164.07-2.329.529-3.251.535-2.192.017-.27-.756-.514-.846a1.55 1.55 0 0 0-1.596.313c-.356.326-.049.513-1.659.538.898.066 1.785.136 2.679.205q-2.324.087-4.654.183c.746.303 1.72.42 3.345.33-.084.395.291.69 1.39.953-.662-.002-1.32-.004-1.982-.004.052-.265-.045-.442-1.045-.558l-.671.157q-.173-.144-.345-.29c-.874.215-1.746.436-2.616.65 1.783.203.741-.353 2.312-.312.996.028 1.125.346 1.033.558-.44.076-.881.14-1.322.212 2.166.078 3.837.012 5.973-.232.024.25-1.116.168-1.66.379-.491.19-.307.493-1.252.646-2.031.203-.295-.367-.456-.4-1.215-.254-2.888-.305-4.27-.48-.002.16.017.31.023.465-.452-.077-.876-.145-1.352-.229-.711.274-1.332.055-1.941.101-1.332.103-.955.562-2.342.69-.109-.195-.244-.4-.362-.598-.756.134.264.309-.977.275-.636-.017-1.285-.038-1.986.024-.107-.446.444-.906-1.084-1.18q-1.478.27-2.955.543l1.984-.106-.51.181c1.115.205 1.363.421 1.25.787q-1.316.068-2.632.142c-.006.1.005.206-.01.304-.919.135-1.627-.014-2.355-.005-.992.013-1.298.255-2.271.263-.079-.303-.339-.468 1.26-.54l.628-.956c-1.747.094-4.558.605-4.594 1.045l-1.005-.087c-.431.178-.846.357-1.29.535-.921-.132-1.23-.211.049-.456 1.462-.278 2.604-.289 2.184-.764-2.766.158-2.841.905-5.475 1.093-2.048.148-2.234.35-4.212.598-1.028.129-3.113.315-4.433.306-1.32-.01-1.997-.27-3.689-.01-.48-.226-.937-.444-1.408-.665q.654-.053 1.311-.104l-.047-.613 1.675.162c1.2-.285 2.304-.124 3.658-.244-.227.322-1.581.267-2.323.181l-1.613.57c1.652-.073 3.308-.14 4.96-.206l1.611-.885-2.963.212-1.054-.39q2.002.01 4.007.026-.034-.386-.069-.771c-1.607.108-3.047.328-4.643.33q-.464.42-.923.842c-2.317-.007-1.535-.3-.412-.74-.865-.01-2.483.378-2.924.513s-.116.272-.358.33c-1.331.323-3.023.31-4.245.666q.46-.426.919-.849 1.654-.17 3.306-.335c-.156-.395-2.076-.113-2.997.154-.12-.093-.234-.187-.356-.28-.535.04-1.03.03-1.307.186-.12.068-.51.302-.492.333.246.34.557.34-.735.71q.345.154.685.313l-1.973.32q.31-.258.617-.516c-.876.15-1.757.302-2.631.454q.657-.096 1.318-.191-.282.488-.568.977c-.669-.022-1.344-.04-2.012-.06l1.307-.266q-1.347-.195-2.693-.388l.604-.441q.668.02 1.343.04c-.013-.153-.034-.306-.049-.46-1.958.016-3.377.137-5.29.465l.039.461-1.652-.005-.988.323q.671.015 1.339.032-1.468.329-2.933.66l-.375-.275-1.924.346c-.42.296-.851.594-1.262.89-1.935.025-.332-.29-.804-.543-.072-.033-1.437.095-1.219.212-.032.076.013.142.007.215l-1.316.13q-.027-.15-.056-.301c-1.317.129-2.644.261-3.959.395.551.096 1.129.187 1.665.287l1.002-.169h.003l-.986.179-.039-.007c-.715.113-1.898.326-2.489.414-.596.09-.596.05-1.08.116.229-.154.416-.298.628-.449-.911-.133-2.211.045-2.053-.332-.698.108-1.396.358-1.945.516-.116-.038-.232-.082-.351-.116-.294.02-.253.166-.304.178-1.649.395-3.179.304-4.939.555-.236-.079-.477-.156-.713-.234l.409.577-1.976.224c.117-.489-.422-.784-1.476-1.073q1.307-.23 2.615-.456l-.718-.384c-.89.05-1.763.097-2.664.15-.092.192-.566.428-.569.613-.002.183.613.32 1.052.417.763.166 1.253.073.052.463-1.007-.092-2.018-.18-3.044-.265l.035.458-1.274.161c.016.15.013.31.045.451-1.257.147-.897-.206-1.469-.263-.571-.055-1.403.182-2.222.227-.412.022-.649-.084-1.447.044-1.224.194-3.36.978-4.789 1.068-.376-.317 1.256-.872.52-1.08l1.262-.389c1.341-.14.356.338.012.514-.342.175-1.279.432-1.196.569 2.202-.297 4.076-.707 3.851-1.264l2.67-.171q-.384-.343-.773-.685c-.924.114-1.575.385-2.315.287-.506.178 1.056.316-.67.384-.226.008-1.548-.119-1.6-.167-.351-.341 2.094-.535 1.823-.938-1.038.11-.311.25-1.005.432-.953.25-1.733.505-2.851.68l.074.61q-.663.046-1.325.094l.574-.617-1.265.15c-.048-.093-.05-.191-.125-.28-1.405.184-3.767.376-4.425.817s2.31-.111 2.968-.026l1.57-.184.727.292-.577.617-1.389-.287-1.292.251-.409-.492c-.406.209-.842.426-1.23.63-.975.03-.581-.222-1.16-.29-.573-.068-2.438.133-3.217.263-.032.108-.014.204-.028.306l-1.235.189c-.283.344-.242.691-1.925.885l-.404-.41q-.838.04-1.675.082c.852-.277 1.715-.558 2.564-.83-1.11.234-2.05.604-2.963.861-1.196.337-2.367.45-2.182.808-1.025.226-2.751.171-3.662.25-.91.081-1.436.226-2.272.32.958-.365 1.816-.604 3.2-.797q.01-.147.017-.296c2.553-.496 2.07-.955-.471-.558-.547.086-.433.38-.892.52-.657.128-1.311.247-1.967.373-.128.291-.646.59-.535.856-.73.089-1.319.125-1.981.147l.06.456c-1.311.22-1.921.454-1.892.767l-2.665.26q.242-.233.479-.465l-2.117-.989c-1.208.159-1.968.076-2.954.466-.257-.165-.505-.33-.766-.495-.992.395-1.07.426-.2.584.713.13 1.634.35 2.726.335.659-.01.853-.284 1.34-.212-.204.158-.398.323-.598.485l-1.725-.03c-1.556.214-2.053.634-3.525.886q-.014-.105-.029-.21-.998.116-1.993.234l.74.347-1.959.33c.047.2.064.41.126.604-1.144.24-.318-.326-1.098-.114-1.412.384-3.251.657-4.405 1.208-1.031-.104-1.864.065-3.321.26-1.138.153-2.924.383-3.968.573-3.316.601-5.972 1.019-9.194 1.589-2.025.357-4.943 1.122-6.219.839-.809-.176 1.366-.388 1.138-.622-2.085.284-3.042.06-5.329.613q1.32-.195 2.648-.386c-.17.244-.349.492-.512.735-.918.197-1.412.184-2.332.316-.574.082-1.21.302-1.914.383-.815.095-1.244-.095-2.339.206.008.099.036.2.05.3-.762.112-1.507.218-2.279.336-.284.15-1.052.402-.526.422 1.23.046 2.841-.883 2.913-.304-2.45.52-4.88 1.05-7.425 1.619-1.21.059-1.181-.196-1.186-.519-.207.148-.375.3-.61.446-1.761.624-3.616.494-4.85.705-1.237.21-1.144.51-2.338.65.2-.245.334-.499.505-.747q-.886.407-1.765.815c.221.08.457.158.67.239-.439.116-1.128.26-1.512.345-1.527.341-1.987.36-3.464.56-.445.06-1.68.352-2.195.376.207.338-.409.724-1.775 1.244q-.081-.297-.163-.596-1.915.648-3.798 1.3l1.198-.634q-.564-.171-1.124-.342.225.18.445.364-2.573.67-5.098 1.353.062.224.127.446-.946.255-1.885.514c.517-.38-.019-.378-.172-.591.535-.099 1.075-.2 1.612-.297l1.469-.781-1.368-.032c.855-.178 1.72-.356 2.583-.533l-1.306.186-.139-.439c-1.757.476-3.06 1.193-4.736 1.295.197.266.404.529.594.796-1.609.498-2.232.476-3.395.552-.828.055-1.46.1-1.91.557-.491.498.806-.186 1.312-.226-.77.384-.359.46-.83.808-.522.386-1.211.572.158.431a353 353 0 0 1 3.392-1.606c.148.28.454.376-1.146.808l.105.449q-1.617.456-3.212.916c-.027-.097-.094-.189-.1-.29-1.41.344-1.04.519-2.318.98-.661.24-1.924.77-3.026 1.04-1.107.27-2.568.304-4.02.974.346-.283.723-.552 1.078-.827-.691.32-1.425.657-2.174 1q-1.138.283-2.26.567l.743.085q-1.287.414-2.557.832c.143-.264.29-.528.433-.791q-.462.228-.92.458c-.031-.096-.056-.194-.087-.29-.945.31-1.886.626-2.815.939l-.143-.266q-.793.19-1.58.379c-1.372.864-3.119 1.41-5.108 2.289.383.024.772.05 1.157.077.533-.246.98-.461 1.464-.687q.084.216.163.434c-.494.224-.949.437-1.49.682q-.697.098-1.385.196-1.71.781-3.37 1.57.098-.202.198-.406l-.933.353q-.104.207-.203.412c-2.867 1.14-5.347 1.797-7.82 3.287-2.17.457-3.95 1.444-6.345 2.482-.585.254-1.157.7-1.866.851.008.111.063.197.089.3-.898.315-1.775.634-2.77 1.012-1.542 1.291-2.321 1.44-4.217 2.183-1.098.434-1.832.704-2.969 1.273-.515.261.224.425-1.133.977-.128-.15-.216-.347-.328-.516-.818.65-1.315.91-1.84.914 1.201-.707 1.95-1.076 1.6-1.31q.528-.31 1.06-.62c.019-.342.52-.754-.564-.38-1.433.936-3.238 2.144-4.715 3.221-.459-.154 1.507-1.806 1.713-2.344-1.527.906-1.984.949-2.088.574-.674.386-.974.674-1.304 1.025-.665.718-.372.834-1.643 1.674.014-.197.008-.373.029-.579-.802.329-.188-.326-.19-.511-.003-.184-.653.271-.832.292-.525.06-.432-.123-1.463.656l-.474-.6q.433-.225.873-.447c-.176-.061-.359-.119-.533-.18a38 38 0 0 1 4.06-2.95c.435-.278.956-.487 1.21-.632 2.248-1.277 2.778-1.698 4.886-2.988.424-.259 1.881-.8 2.839-1.4.326-.205.44-.512 1.227-.957.918-.522 3.108-1.399 4.255-1.953.936-.456 1.91-1.059 2.88-1.527.05.088.094.183.139.275q1.41-.887 2.88-1.773a238 238 0 0 1 4.181-1.645c.05.09.103.174.15.266 1.131-.614 1.663-.676 2.756-1.124 1.076-.44 1.768-.968 2.997-1.355.478-.024.955-.039 1.433-.058-.172-.152-.384-.296-.529-.453.824-.428 2.136-.695 2.816-.95 2.047-.772 3.672-1.622 5.482-2.017.746-.167 1.747-.105 2.298-.258 2.275-.63 2.334-1.09 3.689-1.693.79-.35.798-.16 1.306-.333 2.65-.905 5.143-2.049 7.599-2.85 2.53-.826 5.295-1.174 7.755-1.84 1.964-.532 2.481-.995 4.344-1.224-.04-.099-.048-.2-.06-.303.941-.264 2.009-.574 2.834-.792.562-.147.93-.124 1.299-.224 1.107-.3 2.01-.873 3.076-1.083 1.285-.251 1.532-.003 3.062-.501.012.076.046.137.066.207l.986-.313q.362.062.722.125.43-.35.864-.697l-2.01.354a583 583 0 0 1 2.581-.745q1-.206 2.005-.41l.127.278c.644-.161 1.321-.327 1.928-.475-.194-.34.551-.47 1.858-.77l1.356-.012q-.38-.146-.755-.294a348 348 0 0 1 1.854-.762q1.206.03 2.417.063c-.143-.124-.293-.25-.432-.372.71-.226 1.051-.142 1.621-.265.572-.123.696-.28 1.311-.425.917-.216 1.985-.449 2.945-.665q.048.145.088.294l.66-.147c-.021-.1-.025-.203-.055-.3 1.696-.509 3.041-.863 4.841-1.217 5.04-.995 9.967-2.285 15.115-2.844a39 39 0 0 1 5.559-1.387q-.698-.103-1.399-.204 1.31-.173 2.626-.343l1.088.265.794-1.092c2.009-.134.745.39.847.786 1.564-.293 3.41-.63 4.916-.91.609-.111 1.008-.044 1.327-.11 1.548-.323 2.523-.846 4.03-.854q.946-.389 1.864-.772c.67.005 1.002.105 1.729.097.86-.01 1.509-.21 1.378.147.884-.096 1.755-.187 2.633-.28q-.032-.226-.059-.453l1.265-.222c-.018-.151-.04-.302-.057-.453q1-.089 2.004-.174c.093-.38 1.817-1.048 1.961-.475q-.657.145-1.313.292l1.325-.136q.05.225.096.451c1.338-.108 2.667-.776 2.547-1.032l1.715.036c1.863-.526 2.492-.8 2.184-1.27.667-.049 1.312-.093 1.969-.138q.057.136.119.273 1.154-.013 2.311-.024c.302-.202.609-.403.911-.603l-1.267.178-1.134-.282c-1.417.213-2.819.426-4.272.651.68.35.729.508-.842 1.068l-.495-.858q-1.115.487-2.225.977l.285-.357c-1.8.27-3.019.242-4.648.75.066-.486-.161-.755-1.846-.79l-2.249.686 2.002-.176c.063.354.137.706.197 1.061-1.59.173-3.323.473-4.868.649-.547.062-.69-.057-1.069-.036-1.1.059-1.48.194-1.419-.147-.617.16-1.291.332-1.937.499.124.323.282.578-1.201.993l-.112-.448-1.258.207q-.052-.14-.108-.282l-1.277.217q-.065-.138-.129-.275l-1.95.352q.006.15.01.302-1.129.282-2.251.566c-1.197.02-1.485-.366-3.069-.045l.196-.664-2.255.586c-.262.562 2.29.363 2.212.837-1.59.09-2.909.585-4.561.871l1.251-.477q-.88-.026-1.763-.049c-.515.126-1.019.25-1.557.379 1.095-.567 1.748-1.016.122-1.047-.056.273-.117.548-.172.82q-1.338.264-2.668.53l-.535.736c-2.155.153-.987-.166-.232-.66-1.932-.36.771-.474 1.731-.427.474-.087.473-.256.268-.285-.97-.137-2.6.275-4.025.567.25.107.512.212.765.318l-1.935.63.031.152 1.404.106q-1.984.403-3.949.813c-.503-.214 1.32-.918 2.495-1.146-.137-.378-1.18-.264-2.734.091q.049.226.103.451c-1.795.256-3.429.74-5.205 1.103a557 557 0 0 0-2.016 1.544c-.771.01-1.61.035-2.414.057.599-.174 1.705-.152 1.988-.369.299-.22.548-.478.538-.66-1.804.449-2.983.963-4.152 1.548-.802-.034-1.712.057-2.375-.053-.43-.071-.249-.222-1.443.125.257.094.515.198.77.297-.76.226-1.522.455-2.277.682.14.074.285.146.424.22q-.981.225-1.957.453l.462-.9q-1.226.603-2.445 1.209.084-.339.17-.676l-.615.268-1.079-.183q1.29-.309 2.59-.613-1.517.12-3.027.246c-.792.432-2.255.802-2.139 1.136-.402.103-.799.208-1.2.311l.09.451q-.678.126-1.354.254l.486-.837c-.953.497-1.885.992-2.834 1.495-.997.248-2.228.62-3.158.798-.593.113-.986.01-1.397.1-1.192.26-1.016.187-2.212.395-.981.168-4.116 1.01-4.729.858.332-.303.715-.618 1.079-.928-.758.05-1.214-.016-2.06.075-.83.086-1.545.38-1.406-.005-.455.114-.879.244-1.323.366-.032-.068-.064-.135-.036-.222 1.013-.6 1.745-.94 3.514-1.38 1.219-.3 1.606-.265 2.512-.838 1.498-.285 2.785-.564 3.99-.587.763-.622 2.004-.667 3.016-.952 2.733-.772 5.702-1.517 7.895-1.922 2.25-.418 1.93-.296 4.196-.856 1.63-.403 4.044-.816 5.874-1.19-.053.118-.169.25-.244.372.966-.268 1.979-.52 2.966-.774.245-.063.495-.025.658-.07 1.412-.392 2.437-.85 3.882-1.129.997 0 .873.339 2.39-.038-.248-.105-.509-.208-.751-.314.985-.2 2.004-.26 2.961-.463.544-.116 1.006-.34 1.323-.415 2.676-.632 4.183-.693 6.058-.63l1.902-.846c.798-.054 1.622-.11 2.387-.156-.463-.067-.931-.134-1.411-.193.948-.266 1.478-.194 2.298-.336.561-.096.666-.25 1.297-.371 2.008-.387 4.163-.78 6.229-1.165q.051.227.095.453 1.126-.366 2.256-.73-.119.257-.242.516 1.112-.438 2.234-.876c.499.224 1.017.444 1.505.67.808-.227.034-.536.914-.865.747-.279.866-.115 1.676-.26.806-.145.8-.39 1.988-.625 1.193-.236 3.801-.706 5.126-.87 1.616-.202 2.509-.1 4.061-.353 1.925-.314 3.334-.535 5.425-.84.513-.074 2.171-.06 2.646.008.597-.456 2.587-.601 3.422-.849.837-.249-.017-.368 1.096-.613.167.072.477.135.653.208.486-.114.075-.148.88-.268.807-.12 3.461-.424 4.277-.475 1.329-.083 1.151.178 2.543-.07-.035-.097-.022-.203-.036-.304q1.488-.214 2.978-.424.021.151.048.304c3.165-1.095 6.395-1.743 9.94-1.522.918-.2 1.673-.475 2.715-.63 2.663-.395 5.951-.533 8.504-.769 1.944-.18 3.198-.333 4.769-.714.557.19 1.168.378 1.744.567-.029-.202-.053-.412-.084-.61.988-.206 1.46-.06 2.337-.147.875-.088.321-.27 1.562-.449.46-.067 2.603-.288 3.77-.43 2.08-.252 4.36-.551 6.751-.84 2.012-.245 4.163-.186 4.253.392.015.083-.861.063-.325.244.833.283 2.693.518-1.524.95.062.166.058.304.058.468-1.84-.143-3.758.519-1.478.439.855-.032 3.944-.776 4.39-1.032 1.138-.653-.93-.822-.266-1.481.099-.102 3.452-.822 4.065-.9.865-.112.927.012 1.444-.014.936-.049.994-.25 1.965-.324 1.116-.084 2.343.032 3.625-.173-.407.245-.844.49-1.262.735 2.219-.194 2.123-.724 3.591-1.095l1.442.179q.795-.11 1.592-.217c1.819.226 4.244.811-.59.755-.066.312.223.5-.04.851-.18.238-.857.427.525.502.075-.206.184-.425.272-.637 2.029-.223 2.374-.759 2.927-1.18.227-.172-.892-.271-.335-.424.864-.237 2.192.064 1.969.29.242-.017.446-.036.675-.053-.002-.103-.015-.201-.011-.307 1.348-.026 2.415-.332 3.602-.443.977-.091 1.093.068 2.063.002 1.792-.12 2.068-.396 4.313-.613.956-.093 4.783-.095 6.377-.193.409-.026.602-.188 1.3-.185 1.577.006 3.375.25 3.099.714.344-.123.657-.249.987-.372-.852-.144-1.761-.207-1.727-.511 1.691.11 3.178-.263 4.99-.29.422-.006 1.209.288 1.725.191.013-.15-.06-.31 0-.46.506-.12 2.012-.006 2.209-.015 1.356-.068 2.488.013 3.383-.015s1.468-.356 2.004-.366c1.568-.027 2.401.265 3.458.422.09-.105.216-.214.321-.32.658-.033 1.309-.064 1.973-.095.005.102.033.206.033.306 1.527-.323 2.386-.452 4.426-.501 1.146-.027 1.671.108 2.591-.256.473.077.902.151 1.358.227 3.257-.437 5.804.001 9.025.02.014.1.032.2.042.3l1.331-.118c-.45-.165-.915-.333-1.356-.497 1.047-.092 2.033.062 2.946.063 1.467.003 2.395-.184 3.754-.25.014.095.04.196.057.294q1.493.122 2.981.25 1.336-.337 2.676-.67.711.137 1.422.275l1.265-.171-.315.622q1.82-.572 3.642-1.136c.454.251.904.503 1.358.755M4.111 64.795c-.053-.082-.573.266-.516.346.056.078.567-.266.517-.347m6.337-1.496c-.737.49-1.527 1.024-2.263 1.539-.055-.086-.114-.171-.167-.258.738-.516 1.528-1.051 2.272-1.544q.08.13.158.263m-6.24.415q.084.128.172.255.563-.367 1.14-.735-.083-.13-.172-.256-.577.367-1.14.736m8.58-.155q-.081-.131-.156-.265.55-.31 1.112-.617-.485.441-.957.882m-2.976-1.314q.076.132.158.263c1.095-.624 1.6-1.096 1.418-1.346q-.801.54-1.576 1.083m7.13-3.352c-.614-.035-1.178.407-2.253.82-.545.21-.78.132-1.148.624-.366.492.147.524.033.929-.088.296-.976 1.03-.691 1.18.532-.323 1.099-.666 1.658-.995q-.283-.504-.565-1.008c.965-.517 1.95-1.036 2.966-1.55m5.516-3.864c-1.348.669-.66.762-1.017 1.117-.36.355-1.357.663-1.521 1.017.433-.019.92-.045 1.378-.065-.99.357-2.028.743-3.126 1.175l.832.103q-.934.46-1.842.924.254.476.507.953.903-.46 1.83-.917-.107-.203-.218-.402-.617.301-1.224.602l-.003.003a6 6 0 0 0-.105-.205q.84-.558 1.708-1.114l-.077-.294c.533-.202.987-.363 1.483-.543.895-.666.967-.916.058-.798.856-.708 1.648-1.26 1.337-1.556m-1.734 3.798c-.038-.09-.583.175-.553.268.056.08.599-.183.553-.268m5.114-2.795c-1.358.85-2.132 1.095-2.524.806q-1.14.611-2.246 1.225.068.138.139.275.817-.476 1.66-.953c.004.115.16.175.402.155.618-.055.619-.228 1.217-.505.601-.275.88-.224 1.55-.586a22 22 0 0 1-.199-.417m-6.825.883c-.044-.086-.637.205-.593.292.045.085.636-.206.593-.292m3.382-.502c.062.298.92.04 1.744-.123.927-.657.765-.84.57-1.102q-1.176.613-2.314 1.225m7.148-2.822c-1.142.736-2.566 1.249-3.961 1.884 1.192-.203 2.135-.113 3.46-.422.623-.144.596-.268.96-.475.128.05.279.099.414.15.39-.249.789-.498 1.177-.743-.333-.194-.678-.384-1.017-.574Zm-2.306.731c-.042-.087-.625.168-.584.256.038.089.624-.168.584-.256m6.54-1.722c-.82.123-1.398.127-2.52.608q.533.028 1.063.058.265-.182.538-.364Zm1.578-1.285c-.181-.16-.751.34-1.22.36-.88.035-1.051-.277-2.502.797.758-.123 1.531-.236 2.301-.352.473-.267.942-.545 1.421-.805m-.574-.526q-.471.144-.94.29l1-.148.825-.569q-.443.213-.885.427m3.377-.48-.31.12c.035.097.078.19.117.285q.621-.237 1.248-.472Zm-1.94-1.24-.81.647q.616-.24 1.239-.48c-.036-.096-.079-.19-.117-.285Zm1.12.15c-.038-.09-.626.137-.589.227.04.087.625-.137.589-.227m9.06-.678c.035.092-.54.294-.573.203-.035-.091.538-.292.574-.203m-1.655-.807q.024.073.053.144l1.217-.43q-.024-.074-.052-.146-.611.215-1.218.431m-2.963-.251c.034.096.075.193.112.289l.648-.236-.112-.287q-.325.115-.648.234m9.536-2.82q-.406.38-.808.758-1.117.292-2.22.588.03.147.058.297-.58.283-1.156.569 1.533-.526 3.098-1.05l1.383-.142-.84-.366q.909-.427 1.834-.854Zm467.383.5c.065-.073.5.318.435.39-.064.071-.497-.317-.435-.39M520 43.498q-.05.059-.101.116a61 61 0 0 0-1.48-1.261l.098-.12q.76.626 1.483 1.265m-456.415-2.04c.104.185.237.354-.472.702-.561.276-.39.071-.987.263-.411.132-.895.437-1.486.566.373.158.778.301 1.165.454l-.5-.494a474 474 0 0 1 4.447-1.247q-1.016.094-2.024.193 1.263-.376 2.543-.748c-.9.102-1.799.206-2.686.31m-4.913 1.816.045.147q.617-.192 1.239-.383-.021-.076-.045-.147-.622.19-1.24.383m453.923-.63c-.053.08.444.438.497.358.056-.08-.443-.439-.497-.357m-464.166-.108-.631.215c-.035-.097-.073-.192-.105-.29q.316-.107.634-.214.053.143.102.29m13.21-.658c.03.098.067.196.099.294q.58-.336 1.165-.673-.634.19-1.263.379m446.463-.377c.052-.082.534.22.487.304-.05.084-.534-.22-.487-.304m4.369-1.104q.879.508 1.729 1.027.09-.125.174-.253c-.851-.406-.909-.637-1.654-1.165-.086.128-.165.262-.249.39m-445.81-.193c.233-.142-1.458-.01-1.971.306-.232.142 1.45.008 1.97-.306m432.196-1.425c.103-.294.711-.18 1.853.412-.098.3-.792.116-1.853-.412m2.91-1.657a91 91 0 0 1 3.327 2.055c-1.232-1.295-1.2-1.905-4.157-3.331.268.418.523.833.83 1.276m5.74 1.671c.047-.085.561.22.514.306-.045.085-.559-.221-.514-.306m-439.806.171c-.112.247 1.4-.05 2.045-.263-.19-.153.288-.381.522-.627q-1.29.444-2.567.89m10.752-1.21q.019.074.04.15l1.28-.341q-.018-.075-.043-.15-.64.17-1.277.34m-2.208-.529q.019.076.04.15 1.249-.417 2.51-.832l-.404-.21q-1.079.445-2.146.892m4.686-.443q.02.073.04.147l1.295-.336q-.019-.075-.041-.149Zm422.083-2.306c.51 1.042 2.423 2.317 2.989 1.59a102 102 0 0 0-2.989-1.59m-420.99 1.302c-.03-.092-.637.066-.612.16.024.093.638-.066.612-.16m4.896-.05q.017.075.039.15l1.32-.329q-.018-.075-.04-.15Zm409.173-1.469-.353.846q-.597-.22-1.202-.436c.632.52.27.592 1.611 1.131.03-.117-.577-.463-.191-.417.945.113 1.185.365 1.864.236.636-.123 3.227.73 1.706-.458-.536-.233-.161.18-.733-.012-.347-.118-.801-.225-1.236-.417-1.187-.525-1.472-.957-2.614-1.062.381.192.769.391 1.148.589m-414.196.994c.025.1.056.199.082.299l1.298-.335-1.057-.046c-.106.027-.217.054-.323.082m419.353-.027c-.04.087.48.349.523.263.045-.087-.482-.35-.523-.263m-423.515.082c-.027-.093-.632.068-.605.162.03.092.63-.069.605-.162m431.884-.282c-.045.085.495.408.54.323.047-.084-.488-.404-.54-.323m-420.527-.314-.313.078q.058.222.12.446.596-.267 1.2-.533Zm410.149-1.227c-.281.325-.335.646 1.399 1.526l1.379-.005a108 108 0 0 0-2.778-1.522m-409.297.622c.901-.017.763.257.808.516l1.273-.309c-.666-.113-.757-.392-1.782-.361q-.148.076-.3.154m-1.404-.212c.024.1.052.199.076.299l.005-.003.634-.154c-.024-.1-.055-.2-.081-.299q-.319.078-.634.157m-11.23-.152 1.09.19.885-.552Zm21.194-.799q.052.226.108.451l-1.31.222 2.001-.224q-.073-.3-.148-.6-.326.075-.65.151m-4.808-.062c-.624-.015-1.066-.012-1.977.236q.036.15.074.3.956-.233 1.92-.461Zm9.609-.08c.022.1.05.2.072.3l.66-.148q-.036-.15-.072-.299Zm-7.441-.832c-.554.261.433.087.318.319-.076.151-.789.546-.414.653 1.685-.614 1.548-.99.096-.972m402.374.627c-.039.089.52.345.557.256.034-.09-.516-.343-.557-.256M105.69 31.17c-.067-.632-1.382.206-2.253.437-1.181.314-.847.038-1.661.535-.211.13-.82.58-.545.65 1.098-.192 2.21-.392 3.323-.584q-.413-.264-.821-.529c.646-.167 1.326-.354 1.957-.509m380.449.27c.795.288 1.431.863 2.305.98.375.05-.053-.48 1.283.202-.162.337-2.249.02-3.788-.6.069-.191.133-.395.2-.581m-417.665.676c.098.157.447.191.799.258l-1.328.371-.031-.212-1.426.145c.66-.185 1.32-.382 1.986-.562m424.735.567.167-.432-.308-.128q-.508-.084-1.018-.164.586.36 1.159.724m2.593-.242.33.06q-.41-.303-.825-.607l-.334-.058q.417.303.829.605m-2.938-.733q.624.255 1.239.512.058-.144.113-.287-.618-.258-1.243-.514a8 8 0 0 0-.109.29m-415.992.437c-.023-.093.58-.253.61-.162.027.094-.586.256-.61.162m406.618-.904c.992.075 2.074.324 1.8.71q-.425-.227-.863-.455Zm-404.635.545c-.028-.094.59-.256.614-.162.025.093-.585.253-.614.162m419.869-.324c-.038.088.523.348.562.26.038-.088-.519-.346-.562-.26m-420.168-.337c.733-.327-.458-.43-1.038-.343-.986.306-1.929.611-2.854.917.43.15 2.917-.143 3.892-.574m413.265-.504c-1.504-.637-1.256-.33-1.356-.037.194.08.392.15.587.23.117.267.255.543.394.82q.19-.505.375-1.013m-379.386.513q-.647.137-1.292.275-.019-.075-.033-.152l1.291-.272q.02.074.034.15m-15.758.094c-.026-.093-.637.051-.613.145.028.092.636-.051.613-.145m397.244-.337c-.035.09.552.335.589.246.034-.091-.555-.338-.589-.246m-387.016-.307q-.275.259-.548.517.982-.097 1.969-.193h.002q-.391-.232-.782-.463-.32.069-.641.14m-33.918.205c-.03-.09-.63.074-.602.167.027.092.63-.074.602-.167m416.136-.14c-.032.092.523.303.557.213.032-.091-.525-.304-.557-.213m-1.088-.82c.784.345 1.562.694 2.325 1.045.038-.095.057-.198.105-.29-.281-.114-.566-.21-.851-.32l-.529-.536c-.352.033-.699.067-1.05.102m-374.304.956c-.02-.095.59-.222.613-.128.02.094-.592.222-.613.128m368.686-.48c-.047.147-.088.297-.137.443q-.621-.21-1.251-.417.067-.221.137-.441.627.205 1.251.415m-365.397.036q-.98.2-1.956.403a3 3 0 0 1-.034-.152q.976-.203 1.957-.403.019.076.033.152m387.23.007c-.052.082.533.379.581.294.034-.091-.549-.387-.581-.294m-7.829-.328q.617.267 1.228.538.029-.07.062-.14-.612-.271-1.23-.54-.032.071-.06.142m-413.888-.06c.037.15.085.297.125.446l.66-.166a23 23 0 0 0-.124-.446Zm-5.556.243c-.024-.094-.639.069-.612.162.027.092.634-.068.612-.162m-2.107-.08c-.025-.093-.632.069-.608.162.025.094.632-.068.608-.161m412.901-2.524c-.627-.07-1.382-.112-1.669-.01-.16.06.129.192.174.304.15-.063.283-.126.426-.188q.545.44 1.082.882c1.264.503 1.935.634 2.856.748.654.307 1.314.618 2.036.963.263-.06.531-.119.795-.177-.832-.342-1.702-.684-2.458-.984.199-.096-.154-.613-1.121-.726-.199-.022-.3.32-1.045.068-.36-.283-.707-.589-1.076-.88M84.559 29.686c-.028-.092-.65.066-.624.16.028.091.65-.066.624-.16m33.047.14c-.022-.094.597-.221.62-.128.022.095-.599.223-.62.128m379.828-.46c-.036.088.545.346.583.258.034-.09-.538-.343-.583-.259m-419.976.07c-.027-.093-.642.07-.615.163.029.092.642-.07.615-.164m32.126-.38-.897.51 1.289-.278c-.021-.1-.048-.201-.072-.301q-.16.034-.32.07m8.405-.491c-.771-.55-3.127.43-5.322.627.812.09 1.633.186 2.444.277.369-.217-.983-.206-.088-.444 1.063-.282 1.974-.366 2.966-.46m-28.687.511-1.279.311.88-.533.32-.077q.042.15.08.3m-7.05-.08c-.024-.094-.651.066-.625.16.026.092.648-.066.624-.16m2.104-.052c-.023-.095-.651.062-.626.156.023.094.65-.063.626-.157m39.213.004c-.021-.095-.648.028-.626.123.019.095.644-.028.626-.123m366.486-.998c-.201.126 1.08.803 1.689.981.038-.096.07-.194.107-.291a147 147 0 0 0-1.796-.69m-402.948.63c-.023-.095-.654.06-.634.154.023.094.657-.061.634-.155m34.312.006c-.018-.094-.641.029-.627.124.022.094.646-.029.627-.124m3.356-.424c.087-.173-.516-.415-1.392-.2h-.005c.18.169-.316.357-.564.584.665-.132 1.323-.26 1.961-.384m-11.632.22c-.023-.095-.632.033-.615.127.02.095.636-.033.615-.127m5.528.125q.518.012 1.038.026l.311-.14-1.041-.029Zm1.894-.774.098.453 1.273-.49-1.043-.028c-.108.02-.22.043-.328.065m5.492.26c-.021-.094-.626.021-.61.116.018.095.625-.021.61-.116m-37.788-.176c-.025-.093-.626.053-.603.147.026.094.627-.053.603-.147m19.317-.067q.018.075.034.15c.42-.09.846-.18 1.268-.268q.044.145.093.289l.646-.138.54-.588q-1.294.276-2.581.555m20.377-.36c.837.154-.153.644 1.455.51-.024-.182-.053-.365-.077-.546q-.689.018-1.378.036m354.602.198q.048-.148.09-.297-.637-.21-1.281-.42.6.359 1.191.717m-350.291-2.265q.087.454.174.907-.941.294-1.88.589c.258.186.522.373.78.56q1.312-.167 2.633-.329l-2.066-.169c-.22-.331.957-.35 1.906-.588-.151-.397.944-.854 1.78-1.343h-.005q-1.666.184-3.322.373m-11.879 1.735c-.019-.096-.645.03-.624.125.02.095.645-.03.624-.125m364.475-.078c-.03.092.562.298.592.205.03-.092-.56-.295-.592-.205m-371.383-.089c-.019-.095-.637.033-.614.128.02.094.632-.033.614-.128m367.698-.726c-1.247-.33-2.282-.416-2.357-.099 1.474.487 2.083.692 2.008.232.643.23 1.272.463 1.913.7.197-.263-.188-.468-1.564-.833m-2.961-.123c-.51.023.3.474.728.71.521.053 1.127.137 1.678.204-.765-.196-1.093-.424-1.528-.636a5 5 0 0 0-.878-.277m-351.189.111c.063-.307-.151-.316-1.361-.053.002.105.076.196.062.304-.428.09-.859.16-1.286.248-.061.308.145.317 1.354.053-.002-.105-.076-.196-.063-.304.429-.09.864-.16 1.294-.248m-10.895.268q.052.225.103.45l1.315-.267c-.167-.167.317-.36.555-.584Zm3.461.166c-.022-.094-.644.03-.624.125.023.094.643-.03.624-.125m10.864-.063c-.017-.095-.636.021-.617.116.021.095.635-.02.617-.116m-8.144-.243c.019.101.045.203.064.304.43-.082.868-.167 1.287-.246q.05.144.103.287l.646-.126-.775-.477Zm14.519-1.949c1.167.16.163.397-.428.791-.299.2.373.206-.113.391-.489.186-1.539.32-1.818.581.456.096.957.19 1.428.287l.938-.314c1.248-.017.493.234.447.534q1.597-.524 3.208-1.045c-.026-.15-.056-.3-.082-.45l-1.353.081 1.944-.578q-1.697.1-3.387.207 1.628-.409 3.265-.813c-.668.091-1.34.182-2.007.275q.305-.21.608-.422c-.887.158-1.765.313-2.65.475m-23.455 2.106c-.021-.095-.64.035-.618.13.024.093.639-.036.618-.13m371.721-.19c-.028.091.566.296.593.204.033-.092-.563-.298-.593-.205m-354.732-.177c-.02-.095-.637.02-.617.116.021.094.632-.021.617-.116m-17.09-.164c.02.1.047.2.067.302q.652-.136 1.306-.27-.032-.151-.065-.302Zm355.652-.656c.559.076 1.371.41 1.903.588-.03.1-.048.203-.073.302l-1.282-.345q-.272-.272-.548-.545m18.445.4q.627.225 1.247.451l.052-.147q-.62-.225-1.247-.448Zm-367.945.181c-.022-.095-.646.03-.624.126.019.095.644-.031.624-.126m344.643-.058c.021-.094.602.048.582.143-.021.095-.604-.048-.582-.143m-339.852-.18c.019.1.043.202.062.303.215-.04.431-.085.646-.127-.019-.101-.043-.201-.062-.302Zm361.749.055.63.222a8 8 0 0 0 .096-.294q-.314-.113-.632-.222-.048.146-.094.294m-385.826-.058c.011.05.027.1.038.15q.662-.15 1.325-.297-.014-.075-.033-.15-.666.149-1.33.297m370.359-4.163c-.408-.1-.819-.204-1.23-.303.015.067.021.133-.03.183.433.073.846.136 1.285.217.394-.041 1.17.4 1.226.477.178.26-.139.33-.099.538-.439-.093-.874-.178-1.313-.267.623.27 1.258.55 1.857.82-.467.05-1.542-.195-1.345.123.118.183.964.544 1.555.49.752-.073 1.239-.262 1.168-.63 1.455.331 2.434.766 3.728 1.237v.002l.009.003c.06.115.283.247.495.388q-.64.01-1.282.022c2.37.684 3.523.698 3.979.246.598.236.887.462 1.566.665q1.257-.04 2.507-.07-.52-.578-1.05-1.155c.444.092.896.192 1.329.28-.482-.255-.975-.666-1.472-.885-1.026-.45-1.136-.23-1.414-.15-.349.101-.437.268-1.146.205q.939.499 1.857 1.001c-1.851-.574-2.957-1.13-3.062-1.62q-.354.051-.702.106-1.21-.45-2.443-.89-.05.145-.103.289a225 225 0 0 0-3.1-1.051c.008-.101.019-.201.023-.302-.636-.177-1.279-.354-1.921-.528Zm-352.207 2.345c-1.246.343-2.242.531-3.561.914-1.318.382-1.902.607-1.536.916h.005c1.213-.288 1.691-.752 2.99-1.06 1.303-.31 2.12-.225 2.102-.77m343.923 1.478q-.028.151-.064.301-.312-.073-.623-.147.028-.15.064-.301.312.073.623.147m-345.611.205.346.01.938-.427-.347-.007c-.313.142-.628.283-.937.424m345.708-.658c.07-.519 2.309.256 3.818.612-.604.007-1.164.027-1.719.049q-1.043-.334-2.099-.661m-360.182.347c.022.1.05.2.072.301l.667-.15q-.033-.149-.072-.298Zm384.794-.222c-.026.092.57.302.597.21.03-.092-.565-.302-.597-.21m-6.709-.36h-.004c.64.22.347.316.285.41-1.356-.419-1.894-.274-3.186-.655l-.004-.003-.005-.002c.075-.27.881-.136 1.401-.22q-.572-.337-1.154-.67c.9.377 1.757.746 2.667 1.14m-20.408-.322c.591-.028 2.07.67 1.808.684-.58.025-2.072-.671-1.808-.684m-305.99.475-.658.106c-.015-.101-.039-.203-.055-.304l.658-.106c.016.101.039.202.055.304m-10.773-.07q.678.038 1.351.08-.028-.153-.057-.304Zm330.182-.224.632.178q.042-.15.077-.3l-.632-.178q-.041.15-.077.3m.746-.27q.634.179 1.257.359l.043-.147c-.415-.122-.838-.243-1.26-.362q-.018.075-.04.15m-352.922-.45c-1.219.196-2.655.912-.89.628.596-.096 1.201-.586.89-.627m33.286.145c-.699.098-1.135.21-1.614.403q-1.518.023-3.031.048 2.283-.379 4.588-.752c.019.1.041.2.057.302m306.227.379c-.615-.28.872-.328 1.151-.2.613.283-.868.326-1.151.2m-306.825-.046c-.016-.095.602-.196.622-.101.018.096-.606.197-.622.101m321.573.032q.041-.148.079-.297-.627-.183-1.26-.362.594.329 1.181.659m-353.474-.119.35.01c.315-.14.643-.284.947-.422l-.347-.01Zm-11.039-.113c-.018-.094.59-.222.618-.13.021.095-.595.225-.618.13m34.344-.637c-.639.252-1.048.424-.89.623q.649-.112 1.299-.222c-.028-.152-.061-.304-.089-.456Zm2.086.403-.984.113c.849.051 1.429.168 2.682-.06-.75-.094-.09-.246-.086-.456Zm2.977-.316q.012.076.027.152.983-.163 1.968-.325a3 3 0 0 0-.028-.152q-.985.161-1.967.325m-3.408-.212c.017.101.038.202.055.304l.653-.111c-.017-.101-.039-.203-.055-.304q-.327.055-.653.111m335.664.036c-.024.092.587.292.619.203.028-.094-.587-.295-.619-.203M123.66 22.95l1.794.519c.053-.273.112-.546.165-.818q-.981.15-1.959.3m332.371.198c.017-.096.628.035.609.13-.018.096-.628-.035-.609-.13m16.991-.55c-.12-.368.72-.14 1.705-.002 1.207.169 1.352.206 2.19.716a243 243 0 0 0-3.895-.714m-20.395.55q-.017.076-.03.152-.66-.134-1.318-.265.012-.075.028-.15.662.13 1.32.263m26.424-.244 1.234.381c-.019-.185.15-.242.763-.164-.429-.216-.823-.419-1.211-.62Zm-337.667.23c-.019-.096-.643.013-.629.108.017.096.644-.013.629-.108m-2.769-.218q.027.153.055.304.331-.058.665-.118a11 11 0 0 0-.058-.304q-.332.06-.662.118m318.794-.024q-.028.152-.06.302l-1.292-.278q.028-.152.06-.303.649.138 1.292.28m2.076-.332c1.221.301 2.072.46 2.599.28q-1.26-.297-2.539-.584c-.024.1-.041.203-.06.303m-8.802.043c.088.175-.503.414-1.33.212.025-.152.047-.306.077-.458q.627.122 1.253.246m21.655.048c.026-.094.632.073.607.167-.024.093-.628-.073-.607-.167m-342.124-.714c-.175.242-.354.484-.529.726 1.221-.342 1.367-.583 1.187-.849Zm327.724-.036c-.69-.008-1.131.002-1.061.244q.972.209 1.933.422c.159-.192-.238-.384-.872-.666m-336.502.306-1.335.266c-.019-.101-.045-.203-.064-.304q.665-.132 1.334-.263.035.15.065.301m-7.628.044c-.02-.095-.641.033-.622.128s.642-.034.622-.128m30.021-.562-.533.719.648-.111q.591-.416 1.186-.83-.651.11-1.301.222m319.543-1.724c-.045.34.85.689.323.964-.349.18-2.847.162-2.646.557 1.641.042 2.543.37 4.422.897.12-.21-.649-.29-1.212-.537-.834-.366-.504-.584-.461-.823.388.248.771.504 1.155.755q.399-.336.797-.67c-.784-.384-1.598-.765-2.378-1.143m-304.589 2.08c.016.102.037.205.053.307q.33-.052.66-.106-.027-.151-.05-.304Zm288.095.07c.017-.094.613.017.602.112-.015.096-.619-.016-.602-.111m-277.673-.09q-.83.041-1.662.086l-.003.002c-.014-.101-.035-.202-.05-.303l2.624-.389q-.457.3-.909.603m301.192-.059c.022-.094-.596-.256-.617-.161-.021.094.596.256.617.161m-332.746-.446q.045.226.091.453l1.327-.236c-.029-.151-.062-.302-.091-.453Zm27.153.224c-.098.056-.009.14-.302.179-.29.038-.305-.033-.351-.08.217-.03.435-.072.653-.099m280.896-.552q-.009.151-.018.304.614.195 1.22.39c-.637-.116-1.28-.234-1.92-.349l-.709.342q.07-.457.143-.916Zm-329.232.514.347.007.944-.427-.351-.007Zm57.04-.234c-.014-.096.609-.183.624-.087.013.096-.611.183-.624.087m266.265-.68q1.66.119 3.3.248c-.442.447-1.903.34-3.996-.05-.167-.392-.341-.786-.51-1.177q.607.488 1.206.979m-263.651.156c-.015-.095.609-.182.625-.086.012.095-.611.182-.625.087m-2.028-.026c-.012-.096.609-.182.624-.087.013.096-.611.183-.624.087m6.021-.292q-.995.136-1.988.275-.013-.076-.022-.154.993-.137 1.988-.273.013.075.022.152m292.999.232 1.024.043.021-.072q-.967-.27-1.945-.536.451.282.9.565m-37.628-.76c.634-.108.223-.342 1.699-.04-.034.199-.058.407-.088.61-.758-.117-1.585-.256-2.301-.36-.726-.106-1.598-.155-1.571-.39.87.124 1.635.289 2.261.18m7.06.063c-.499.126-.844.237-.746.499l-.649-.111q.043-.306.09-.61.654.11 1.305.222m-296.253.32q.01.076.026.152l1.311-.219a3 3 0 0 0-.029-.154Zm14.189-.421q.035.227.078.455.335-.052.668-.103a24 24 0 0 0-.082-.456q-.332.051-.664.104m-36.738.12c.019.1.043.2.062.301.654-.096 2.106-.51 1.887-.677Zm21.097-.157c-.023-.093-.634.011-.617.106.016.096.635-.01.617-.106m306.264.063c.017-.095-.576-.211-.595-.116-.013.097.58.212.595.116m-279.221-.096c-.014-.096-.635-.007-.624.089.016.096.639.006.624-.09m10.799-.179q-.653.087-1.31.176a10 10 0 0 1-.046-.304l.328-.046q.516.086 1.028.174m2.598-.502c.148.137-.362.558-1.241.632q-.039-.228-.072-.458Zm248.628.473c.017-.096.615-.004.602.092-.015.096-.615.004-.602-.092m-299.33.012c-.019-.095.608-.209.625-.113.018.095-.606.208-.625.113m-3.47-.147 1.033.044q.156-.068.316-.136l-1.036-.046q-.154.07-.313.138m37.335-.092c-.017-.095-.634-.004-.619.092s.636.004.619-.092m18.894.107c-.013-.102-.035-.203-.048-.304l1.313-.17Zm256.02-.459q.976.171 1.943.345l.011-.077q-.465-.2-.932-.4Zm-274.309-.048c-.014-.096-.638-.004-.621.091.016.095.633.004.621-.091m23.609.063c-.015-.097.61-.174.622-.078.008.096-.608.173-.622.078m-20.664-.726c-.902.307-1.041.498-.89.752l.66-.094q.285-.314.574-.63Zm3.117.569c-.017-.095-.642-.007-.627.09.013.095.642.006.627-.09m3.384-.005c-.017-.095-.639-.009-.627.087.015.096.643.009.627-.087m-2.078-.412q.032.229.074.458l1.327-.186a18 18 0 0 0-.074-.456Zm-37.264-.14c-.811-.08-1.536.01-2.706.246l.754.335c.648-.194 1.302-.388 1.952-.581m26.06-.263c-.896.313-1.031.503-.878.757 1.11-.077 2.22-.588 2.54-.849Zm270.072.658c.014-.096-.588-.188-.6-.091-.011.095.587.187.6.091m-256.807-.074q.998-.137 1.998-.273h-.005l-.01-.077-1.031-.092Zm263.067-1.026q-.022.23-.043.459.8.208 1.601.42 1.492.069 2.972.147l-1.265-.376q-.01.061-.017.122l-1.315-.13q-.603-.419-1.215-.837-.028.191-.06.381c-.643-.188-1.292-.374-1.939-.56Zm8.536.753q.637.12 1.269.244l.027-.15-1.266-.246q-.015.076-.03.152m-296.034-.135c.016.101.039.203.055.304l.663-.106q-.025-.153-.055-.304Zm270.135.162c.01-.098.632-.018.621.08-.009.096-.628.015-.621-.08m15.244-.039-.353.099-.309-.208Zm7.996.058c.013-.095-.589-.206-.608-.111-.015.095.593.208.608.11m-276.471-.188c-.016-.096-.635-.007-.622.09.014.095.636.005.622-.09m-38.756-.063c-.017-.096-.645.02-.625.116.024.093.642-.021.625-.116m69.741-.022-1.325.157c.319-.14.638-.284.957-.424l.327-.039c.012.102.03.204.041.306m245.565-.103 1.28.238.027-.151-1.281-.24Zm-265.736.077c-.017-.096-.631-.012-.619.084.018.095.633.012.619-.084m-6.138-.246c-.021-.094-.641-.006-.626.089.013.096.641.007.626-.09m264.519.058c.015-.096-.611-.2-.628-.104-.013.096.613.2.628.104m-16.566-.311c.109.169-.491.444-1.372.291.017-.152.03-.305.05-.458Zm-3.392.28q-.172.017-.343.036l-.977-.35.341-.037Zm28.64-.003c.017-.096-.589-.21-.604-.113-.018.095.587.208.604.113m-303.052-.248c-.018-.095-.638.01-.619.106.017.095.636-.011.619-.107m-.093-.507c-.607-.058-2.156.557-1.885.584.604.056 2.159-.558 1.885-.584m270.383-.579q-.03.152-.06.304l1.617.106-.604-.458c.861.1 1.682.195 2.593.304.203.232.411.465.614.697-.891-.107-1.778-.215-2.624-.314q-.023.232-.049.463-1.435-.165-2.884-.325-.153-.174-.309-.347l-.656.15q-.98-.063-1.969-.121.991-.246 1.982-.488c-.413-.174-.822-.348-1.238-.52 1.328.137 1.941.06 1.995-.252q.8.4 1.592.801m-244.562.729q-.702-.135-1.407-.266l2.131.63.56-.704c-.427.113-.858.225-1.284.34m4.054.048c.014.101.034.202.048.304q.331-.046.662-.095-.021-.15-.048-.303-.33.046-.662.094m-35.257-.08c.017.102.04.203.057.304q.336-.058.67-.118c-.017-.1-.04-.2-.057-.302Zm1.385.073q.01.076.026.152.652-.113 1.306-.225a2 2 0 0 0-.029-.152Zm39.962.021c-.022-.093-.632-.009-.62.087.022.094.635.009.62-.087m276.176-.164c.022-.095.637.038.62.133s-.637-.038-.62-.133m-258.074-.106c-.011-.097-.643-.021-.629.075.018.094.636.02.629-.075m-55.421-.05q.012.076.029.151l1.308-.221q-.01-.077-.026-.155Zm21.692-.186c.015.101.036.202.051.304l.657-.097a8 8 0 0 0-.05-.304Zm-4.693.166c-.016-.096-.634-.002-.624.094.017.096.637.001.624-.094m-21.788-.089q.014.075.031.15l1.338-.235c-.009-.05-.015-.101-.027-.151Zm66.214-.152q.006.076.019.152c.647-.151 1.299-.3 1.947-.451q-.17-.02-.34-.04-.814.168-1.626.34m10.038-.01-1.322.14a2 2 0 0 1-.017-.154l1.322-.14q.012.076.017.154m227.24.01.654.113q.026-.152.047-.306-.325-.056-.654-.11-.025.15-.047.303m-245.368-.294c.303.069.562.358 1.06.33.958-.053 1.528-.152 2.344-.116-.145-.14-.278-.277-.416-.417-.996.067-2.004.131-2.988.203m-3.75-.32q-.136.248-.276.498l1.967-.398q-.376-.263-.751-.528-.474.214-.94.427m-4.347.235q.01.077.022.152l1.32-.168q-.008-.077-.021-.152Zm-44.047-.19c.017.101.041.202.057.304l1.254-.524Zm289.779-.222q.154.26.303.518c.233-.118.499-.232.75-.347.439.066.884.136 1.321.203q.023-.153.035-.306a305 305 0 0 0-3.306-.354q.452.142.897.286m-293.123.405.34.02.937-.398-.339-.02Zm68.077-1.049 1.378.316q-1.322.143-2.641.29.025.228.055.458c1.557-.068 3.105-.134 4.671-.196-.15-.168.415-.317.254-.494h.005c-.251-.275-1.199-.472-1.093-.813-.884.145-1.751.292-2.629.439m195.595.868c.012-.095.634-.036.627.06-.006.098-.636.037-.627-.06m-207.593-.267h.005c.012.102.029.204.04.306l1.287-.466Zm33.424.127-.323.106-1.009-.142.323-.106Zm191.054.041 1.674.063c-.534-.223-1.074-.444-1.609-.665q-.84-.031-1.685-.06.812.329 1.62.662m-3.711-.137q.672.08 1.342.162.008-.077.017-.155-.669-.08-1.339-.159Zm29.478.058a424 424 0 0 0-3.291-.284l.071-.459c1.08.244 2.157.492 3.22.743m-8.729-.193c.013-.096-.617-.2-.632-.104s.615.2.632.104m-251.151-.562c-.315-.022-1.733.546-1.04.593.314.021 1.738-.546 1.04-.593m36.083-2.516c-2.198.318-2.08.88-4.566 1.076l1.406.48c-1.444.03-2.781.25-4.253.449-.313.042-.403.167-.829.207-1.247.117-2.372-.098-2.177.403.876-.095 1.765-.188 2.648-.28.03.255.064.512.094.767.827-.194 1.099-.238 1.954-.203l.047-.303 1.247-.143c.003-.152 0-.304 0-.456l1.254-.142c.006-.1.006-.2.015-.299l1.32-.14q-.314-.08-.635-.161l.915-.324q.833-.004 1.669-.01c-1.433-.271-1.435-.382-.105-.92Zm179.146 3.032c-.733-.033-1.316-.15-1.991-.253-.692-.105-1.352-.154-1.305-.348.844.073 1.757.153 2.64.232l.701-.246c-.015.205-.026.411-.045.615m-195.586-.152c-.011-.097-.638-.026-.624.07.016.095.633.026.624-.07m-53.355-.195c.016.101.037.202.053.304l1.33-.213q-.525-.073-1.05-.144Zm295.008.147c.017-.096.624.02.607.116-.02.095-.622-.02-.607-.116m-243.67-.036c-.011-.097-.635-.026-.624.07.014.096.635.026.624-.07m-39.773-.022 1.369.111c-.015-.102-.036-.204-.051-.306Zm43.113-.04c-.015-.097-.638-.027-.625.069.014.096.637.026.625-.07m-39.812-.445h-.002l.763.514q.328-.048.658-.096c.077-.306-.14-.49-1.419-.418m236.991-2.17c.377.164.979.443 1.262.586.465.236.09.232.323.427.341-.176.696-.347 1.046-.519.874.087 1.761.179 2.622.268.279.444-1.457.03-1.298.415.06.13 1.341.223 1.555.388.384-.267.707-.55 1.08-.815 1.14.042 1.483.383 2.258.533 1.207.234 1.89.177 2.921.202-.064.348.795.691-.094.92.625.072 1.326.155 1.99.235-.793-.607-1.298-1.16-1.193-1.697-1.659-.184-2.094.013-1.999.39-1.702-.353-3.887-1.166-5.822-1.254-.116.143-.257.285-.356.427-1.206-.272-.531-.442-1.058-.714-.248-.129-1.502-.187-1.847-.354-.495.188-.932.37-1.39.562m-211.022 1.968-.964.352c.006.05.018.101.024.152q1.021.069 2.043.14l-.772-.685Zm12.479.487c-.014-.096-.631-.028-.624.067.01.097.633.029.624-.067m246.479.021q.697-.015 1.392-.028-.666-.139-1.337-.275-.03.15-.055.303m-249.177-.185c-.017-.095-.635-.024-.622.072.014.095.634.024.622-.072m-14.189-.309c-.254-.117-1.354.073-1.959.162.315.14 1.072.211 1.696.246.915.05 1.089-.017 1.665-.282h-.005c-.895-.027-.927.091-1.397-.126m242.484.28.643.096q.024-.152.04-.306-.322-.048-.644-.094-.021.15-.039.304m-285.122-.092c.008.05.02.101.028.152l1.323-.22a3 3 0 0 0-.029-.152Zm34.599-.169c.013.102.032.203.045.304l1.316-.173q-.025-.154-.046-.307Zm51.327-.094q.512.07 1.02.143l.004.077-1.984.173.958-.395Zm158.765-.32h.005q.012.15.021.301.639.053 1.273.106a8 8 0 0 1-.019.306l-1.314-.099c-.205-.22-.418-.442-.623-.662q.329.022.657.048m46.666-.536c1.268.135 1.003.201 1.384.432.542.33 1.326.51 1.161.774-.655-.132-1.581-.178-1.941-.415-.454-.297-.703-.56-.604-.79m-231.841 1.167q.835-.014 1.671-.026l.321-.114q-1.005-.005-2.009-.009.006.075.017.15m-27.024-.87c-.206.131-.407.262-.618.396.153.188.004.81 1.4.253.072-.03-.026-.314.579-.454.479-.11 1.457-.219 1.284-.39-.869.06-1.767.13-2.645.195m61.094.796c-.006-.097.619-.148.628-.051.006.096-.615.146-.628.05m158.367-1.218c.807.076.992.327 1.285.499.499.292.851.493.626.753l-.002-.003c-1.729-.1-1.108-.21-1.314-.5-.199-.286-.812-.49-.595-.75m3.409.615c.315-.033 1.774.485 1.086.557-.313.031-1.783-.485-1.086-.557m-224.251-.316c-.412.264-.83.527-1.241.79q1.001-.136 2.004-.271-.045-.307-.095-.61Zm42.438.685c-.011-.096-.632-.036-.626.06.009.096.634.036.626-.06m222.451-.075-.028.154-1.313-.229.025-.152q.66.113 1.316.227m-275.176-1.187q.357.104.715.208-1.645.316-3.282.636c.366.154.729.308 1.098.461 2.067-.407 4.154-.813 6.229-1.208l.04-.109c.045-.207-.244-.126-1.055-.058-.925.078-1.44.053-2.346.172-.014-.1-.051-.198-.074-.297q-.663.097-1.325.195m42.521.068q-.598.606-1.189 1.215 2.655-.21 5.318-.412l-.711-.473c-1.181.043-1.592.16-2.117-.067-.249-.108-.444-.363-1.301-.263m12.845.779c-.621-.1-1.062-.157-2.005-.036l.054.458c.953-.067 1.373-.207 1.951-.422m-49.798.15c-.016-.096-.64-.01-.627.086.016.096.639.009.627-.087m-3.408-.218c.014.102.033.203.047.304q.333-.046.665-.094-.021-.154-.047-.306Zm61.262.24c-.006-.097.611-.152.624-.056.011.096-.615.152-.624.055m-41.682-.387q.02.153.043.304l.663-.082c-.013-.102-.031-.204-.043-.306Zm-.11-.764c-2.038.284-2.058.627-1.873 1.015 1.397-.352 2.089-.655 1.873-1.015m16.923.634q.017.154.038.306l.66-.072a11 11 0 0 0-.038-.306Zm-14.11.181 1.028.106.323-.116-1.028-.108Zm215.337.007c.009-.096-.612-.158-.623-.062-.009.096.617.16.623.062m-188.613-1.215c-1.693.354-3.231.686-3.218 1.184 1.26.068.088-.086.831-.314.748-.228 2.858-.495 2.387-.87m16.106.195c.173.418-.709.783-2.569 1.001a42 42 0 0 1-.062-.613q1.315-.196 2.631-.388m143.36.415q-.012.233-.017.465l-.654-.036c.007-.155.009-.311.017-.465q.329.016.654.036m61.29.311c.018-.095.645.01.63.106s-.645-.01-.63-.106m-244.84-.036c-.015-.096-.642-.02-.629.077.013.096.644.019.629-.077m178.952-.36q-.005.233-.013.464l-1.318-.066c.129-.19-.37-.309-.647-.494q.99.047 1.978.096m5.26.355c.004-.097.617-.063.615.034-.002.098-.619.063-.615-.034m9.303-.27c-1.322-.098-2.055.015-2.014.328 1.324.095 2.05-.015 2.014-.328m-11.936.048-.011.309-1.311-.068.994-.258Zm62.614-.08q-.022.154-.047.307-.665-.11-1.337-.22.02-.153.043-.306.673.109 1.341.22m-193.897.246c-.008-.096.615-.144.626-.048.006.097-.619.145-.626.048m.622-.28c-.842.04-1.245.188-1.974.31-.008-.102-.021-.205-.028-.307l1.987-.157Zm-45.55-.064q.018.153.041.306l1.318-.152-1.031-.193Zm4.693.161c-.011-.096-.635-.026-.624.07.013.097.637.027.624-.07m4.894-1.237c-.827.207-.828.514-1.579.709-1.133.295-2.213.205-1.944.61 1.075-.229 2.158-.451 3.236-.675.097-.214.186-.433.287-.644m-16.33 1.182.01.077q1.328-.164 2.66-.323c.086-.234-.357-.282-1.062-.338Zm189.557-.326q-.002.155-.011.309l-.672-.041q.005-.154.012-.309Zm-153.981.239.337.046.968-.321-.336-.046Zm-36.958-.133c.102-.167-.515-.444-1.392-.291.021.152.046.305.064.458Zm-25.044.03c-.017-.097-.641-.005-.624.09.019.095.637.005.624-.09m235.894-.01q.67.061 1.337.125c.011-.103.015-.206.021-.309q-.666-.062-1.334-.123-.014.153-.024.307m-240.006-.249-1.284.203q.01.075.026.152.985-.15 1.971-.297.118-.33.232-.658c-.315.2-.633.4-.945.6m9.934-.962c-.25-.036-1.528.168-1.892.106-.448.3-.823.585-1.239.88l1.966-.357q.042.145.089.29 1.66-.154 3.327-.304-.286.351-.567.702c.663-.093 1.337-.183 1.997-.278.242-.323-.42-.36-1.088-.46-.44-.066-.02-.214-.486-.239-.462-.025-1.144.146-1.624.058-.478-.088.031-.322-.483-.398m54.882.055c.103-.345 1.309-.675-.913-.465.253.263.469.526.707.788-.84.31-1.673.625-2.513.936 1.615-.09 1.067-.295 1.926-.576.356-.116.885-.146 1.311-.198.427-.242-.565-.313-.518-.485m187.131 1.213c.01-.096-.605-.166-.615-.07-.011.097.606.167.615.07m-12.635-.043c.008-.096-.624-.153-.632-.058-.009.097.625.155.632.058m-218.947-.08c-.015-.095-.633-.013-.622.082.013.097.637.014.622-.082m181.207-.036-.004.155-1.337-.049q-.002-.077.002-.154.67.022 1.339.048m-143.574-3.432q-.514-.104-1.03-.207c-.097.21.441.246.713.396-.435.034-.866.08-1.305.13 0 .103.007.206.007.308-2.246.188-2.104-.343-3.103-.617-.741.36-1.487.723-2.226 1.085q1.177-.022 2.355-.04.827-.149 1.647-.295l-.582.292q.485.06.968.123c.321-.08.638-.16.962-.239-.12.287.9.237 1.266.417.105.054-.411.126-.313.186.21.128.652.15.521.338-.778-.026-1.573-.05-2.363-.073q-.995.33-1.988.663c-.549.006-1.074.01-1.642.017.399.184-.435.389-.405.586s.894.227.536.488l1.328-.215-.709-.316c1.601-.134 2.616-.282 3.621-.68q.167-.015.33-.034c-.066.226 1.003.515 2.059.417-.293-.45.707-1.007-.161-1.38q2.648-.26 5.299-.51h.009c.055-.42-1.635-.286-3.058-.179-.915.104-1.622.396-2.599.4-1.66.008-.385-.566-.454-.872 1.553-.078 3.983.028 3.964-.543q-1.015.05-2.029.101.001-.107 0-.215Zm146.244 3.23q.001.154-.004.308-.664-.18-1.329-.362.669.026 1.333.054m2.678.18c.007-.096.632-.067.628.03-.002.096-.63.067-.628-.03m-212.325-.229-2.01.314q-.012-.075-.026-.152l2.009-.314q.016.076.027.152m256.78-.426c-1.939-.498-4.018-.822-5.897-.632.42.276.844.55 1.262.827l.686-.239a502 502 0 0 1 3.246.66c.011-.207.058-.405.043-.619.424.108.158.022.743.174.587.153.514-.018-.083-.171m-213.594-.43c-.069.286.954.28.636.623-.248.265-1.151.573.828.296.132-.243.306-.5.449-.748-.634-.058-1.29-.11-1.913-.17m172.439.854-.007.154q-1.32-.064-2.646-.125l.007-.154q1.327.06 2.646.125m4.617-.227c-.004.102-.004.205-.011.307l-.655-.034q.002-.155.011-.309Zm-191.829.174c-.012-.097-.639-.017-.624.08.012.095.633.016.624-.08m52.401.01c-.009-.097-.637-.044-.628.053.011.096.636.043.628-.053m-78.793-.109-1.323.203c-.007-.051-.019-.102-.026-.152l1.32-.203q.017.075.029.152m201.657.056c.002-.097.617-.076.617.021-.002.097-.619.075-.617-.021m-4.605-.519c-.482.195-.792.356-.67.6l-1.976-.053c.002-.205 0-.411.003-.617.88.021 1.765.045 2.643.07m-172.025.427c-.015-.096-.639-.014-.625.082.019.094.637.013.625-.082m235.744 0c.008-.097.642-.02.634.077-.009.097-.645.02-.634-.077m-53.119.01c.002-.098.636-.071.632.026-.007.095-.63.07-.632-.026m62.518-.082q-.005.037-.008.074l-1.007.09q-.33-.044-.654-.09l-.951-.443q1.315.18 2.62.369m-239.441-.268q-.475.215-.95.432l1.325-.167c-.015-.101-.033-.204-.045-.306Zm10.072-2.928c-2.768.365-4.434.95-4.719.094q-1.308.239-2.612.48l-1.323.465.558-.846c-1.887.24-1.788.663-3.237 1.027q-.198-.21-.397-.42l-1.971.39-2.358.01.727.375c-2.422.366-4.808.735-7.243 1.119l-.59.622c1.956.173 3.182-.416 5.278-.784q.36.15.721.297l1.961-.335q.194.13.387.26c2.484-.267.723-.57 2.914-.841l.715.3q.505-.024 1.012-.05c.861-.31 1.702-.617 2.578-.928 1.583.037 3.688-.318 5.31-.502 1.457-.165 1.974-.21 3.394-.398l-.007.003c.745-.099 2.078-.23 2.935-.324.2-.216.456-.143.622-.424s-.764-.19-2.074-.123c-.53.027-1.103-.188-1.657-.188-.317.235-.614.482-.924.721m169.52 3.073c.003-.097.626-.07.628.026-.002.097-.628.07-.628-.026m-115.495.024c-.009-.097.619-.14.625-.044.007.096-.617.14-.625.044m124.717-.106q-.001.076-.006.154-.655-.038-1.312-.072l.007-.152Zm-174.326.004c-.014-.096-.637-.026-.624.07.015.096.633.026.624-.07m-39.218-.048c-.018-.095-.638-.004-.627.092.017.096.643.004.627-.092m224.844.07c.006-.097-.621-.143-.628-.046-.006.097.622.143.628.046m-31.819-.118v.154q-.66-.02-1.318-.038v-.155q.658.02 1.318.039m3.295.022c0-.098.621-.076.619.021-.008.096-.617.074-.619-.021m-63.628-.473q-1.311.273-2.625.55l1.294-.66q.667.054 1.331.11m-38.588.441c-.011-.096-.637-.053-.628.044s.636.053.628-.044m105.552-.002c.002-.097.632-.072.634.024-.002.097-.636.072-.634-.024m65.252-.133c.013-.096.628-.007.615.09-.013.096-.628.006-.615-.09m-135.514.114-2.012-.391q.994-.038 1.991-.072.007.23.021.463m141.537-.217q.676.106 1.35.217c.015-.102.026-.205.041-.307l-1.35-.217q-.022.154-.041.306m-95.803-.418q.003.31.004.62l-.658-.007c-.045-.219-.565-.403-.66-.62h.017v-.002c.431.011.864.001 1.297.01m-147.411.326c.671-.03 1.346-.063 2.017-.092l.002.003c.243.126.49.252.73.378q-.041-.307-.086-.612Zm133.514.275a913 913 0 0 0-3.345-.29q1.67-.09 3.334-.173.007.232.011.463m9.935-.784q.336.388.671.777c-.735-.07-1.134-.191-1.974-.17q-.008-.307-.015-.614Zm-25.839.673c-1.138-.145-1.721-.074-2.91.055-1.029-.103-2.063-.203-3.094-.303 1.727-.428 3.381-.05 5.314-.355Zm115.585-.14-.023.154q-.661-.09-1.324-.178.01-.077.021-.155Zm-111.609.068-1.324.021c-.004-.05-.002-.103-.002-.154l1.324-.022c.004.051.002.103.002.155m-41.232-.14c-.004-.097-.627-.063-.623.034.004.096.632.063.623-.035m88.242-.21q-.493.1-.985.2l-.979-.417q.656-.096 1.311-.19h.004q.325.202.649.407m-162.544.077c-.011-.096-.638-.023-.629.072.01.097.643.024.629-.072m206.397.065c.006-.096-.624-.157-.632-.06-.009.096.625.157.632.06m20.783-.09c.017-.094.638-.008.625.088-.01.096-.638.01-.625-.087m-108.353-.14-1.317.252a24 24 0 0 1-.011-.463l.33-.005Zm-112.089.25c1.199-.172 1.796-.154 2.686-.066.6.06.902-.169 1.299-.294-.792-.044-1.59-.084-2.385-.125q-.798.24-1.6.484m145.237-.14c.004-.097-.621-.111-.626-.015 0 .097.624.11.626.015m-89.009-.068 2.007.104q-.002-.078-.01-.155h.004q-.836-.025-1.673-.048Zm82.363.027 1.337.019c.002-.103-.002-.206-.002-.309l-1.337-.02q-.002.156.002.31m-21.205-.124c.002-.096.634-.099.634-.002-.002.097-.63.1-.634.002m63.714-.682c.227.56 2.048.62 3.963.74.011-.153.015-.307.024-.46l-2.005-.227c-.658-.019-1.322-.036-1.982-.053m-61.042.666c.002-.096.627-.099.632-.003.004.097-.63.1-.632.003m47.096-.54c-.065.307.653.501 1.964.561.065-.307-.645-.505-1.964-.561m51.31.255c-.011.102-.019.205-.032.306l-.668-.086q.015-.154.034-.307c.22.029.445.057.666.087m-213.159.027 2.049.248q-.029-.23-.056-.46-.996.104-1.993.212m60.89.002q-.651.115-1.305.232c.887-.05 1.588-.265 2.314-.135 1.095-.22.656-.242.422-.415-.362-.268.622-.452.495-.712-.63.345-1.285.686-1.926 1.03m-75.033-.116c.012.102.029.204.041.306h.004l1.292-.465Zm108.927-.56c-.665.132-.504.2.015.302.994.194 2.157.131 2.027.497q-1.664-.04-3.33-.075l-.041-.77q.663.023 1.329.047m-106.219.553 2.372.19.321-.113q-.366-.23-.732-.46Zm122.168.176-1.324-.22.983-.24c.107-.002.221-.005.328-.005.004.155.011.31.013.465m-91.31-.574c.238.184.482.368.722.552l.921-.706-.392-.036c-.416.062-.836.127-1.251.19m31.292-1.65c-.041.317-.274.51 1.367.379q-.808.348-1.611.697l-.988-.07c-.214.482-1.922.699-3.267 1.071 1.525.267 2.809-.008 4.649-.23q-.35-.21-.703-.419c1.339-.052 2.066-.206 2.963-.477l1.68.03-.692-.264q1.321-.197 2.642-.39l.004-.003c-1.155-.23-2.427-.086-3.993.007.115-.354-.926-.272-2.051-.33M249.315 11.5l1.018.155.325-.102h-.006l-1.014-.154Zm100.097-3.736c-.471.093-.501.372-1.078.422-.576.05-1.517-.34-1.253.073.263.413.949.23 1.922.453.448.103-.244.414.73.519-.679.077-1.322.137-1.99.207-.206.28-.409.56-.619.84 1.416.357 2.404.755 4.613.771-.125.08-.802.21-.664.294l2.661-.099q-.006.155-.005.31 1.66.035 3.311.079.004-.077.004-.154-1.654-.12-3.31-.234a4 4 0 0 1 0-.309c-.862-.05-1.241.067-1.997.113.163-.266-.084-.443-.999-.636l-1.669.045q1.67-.087 3.334-.168c-.448-.215-.878-.431-1.337-.644 1.144.039.645.365 1.755.49.593.065 1.86.05 2.567.064.707.015 1.075.07 1.005-.13-2.124-.03-1.001-.554-1.98-.897l1.986-.029q-.336-.238-.675-.475-1.152-.102-2.314-.2c-.874.158-1.701.279-1.667.571q-.665-.052-1.337-.103c.159-.287 1.416-.358 1.337-.668-1.532.017-1.408-.285-2.331-.505m-110.171 3.39.045.46q.665-.056 1.33-.111c.111-.164-.493-.468-1.375-.35m83.931-.377-1.978.021c-.017.115.583.114.521.232-.067.119-.746.223-.514.383-.994.068-1.963.132-2.951.2l-1.688-.515c-.144-.3.388-.203 1.318-.254l.334.15 2.299.12c.227-.106.443-.208.681-.316h-.006c.079-.128.619-.187.653-.316l.66-.007Zm-39.212.364c.131-.49-2.579-.284-3.31.084.63.017.431.345 1.003.321 1.969-.078.008-.632 2.307-.405m-93.12.297-.665.082c-.012-.102-.031-.203-.043-.304l.665-.085q.024.153.043.307m80.49-.102q.004.077.013.154l1.328-.077q-.004-.074-.013-.152-.663.038-1.328.075m-58.931-.082q.006.076.016.152l1.995-.212a2 2 0 0 0-.019-.152q-.998.105-1.992.212m128.048.104c.656.034 2.152-.082 1.976-.29l-1.978-.016q0 .153.002.306m46.456-.101 1.335.086-.988-.373-.332-.022q-.01.155-.015.309m-30.515.05 1.32.034-.99-.333-.33-.01c-.004.103 0 .207 0 .31m-151.402-.166q.008.075.021.152 1.323-.15 2.648-.297a11 11 0 0 0-.038-.306Zm47.594-.427q1.364.285 2.726.574-.366-.32-.725-.64Zm90.501.514 1.315.017c.002-.155-.002-.31-.004-.463l-1.313-.015c-.003.153.002.307.002.46m-32.529-.864c-.015.25.225.54.707.755l1.986.039q-1.346-.399-2.693-.794m-121.099.705c-.014-.096.611-.176.626-.08.013.096-.613.175-.626.08m-11.527-.111q.695.06 1.387.123a10 10 0 0 0-.045-.306q-.672.09-1.342.183m79.344-.116c.452.071.907.142 1.354.215-.006-.103-.017-.205-.025-.307q-.664.044-1.329.092m122.331.137 1.311.073-.634-.654-.656-.034c-.008.206-.012.41-.021.615m-32.533-.01q.335.007.671.01.001-.154 0-.308l-.673-.01c-.002.103.002.206.002.309m-62.46-.168q.001.076.008.154l1.335-.06q-.002-.077-.011-.154Zm-79.063-.5c-.89.06-1.41.472-1.26.61l1.985-.226c-.311-.14-.83-.17-.725-.383m122.949.435q.002.076.002.154-1.334.007-2.672.017l-.01-.309q1.343.067 2.68.138m13.25.094c-.002-.096-.622-.101-.622-.005s.624.102.622.005m15.968.048q.662-.136 1.325-.273l-1.322-.036q-.004.154-.003.31m29.21-.084q.337.022.671.045l.021-.465q-.335-.021-.673-.041c-.008.153-.01.307-.019.46m-53.091-.36c.581-.158 2.224.19 1.969.26-.578.157-2.224-.188-1.969-.26m-122.877.174c.25-.1-1.434-.265-1.995-.043-.252.099 1.431.262 1.995.043m24.856-.012c-.013-.096-.634-.04-.625.055.006.097.636.041.625-.055m-6.113-.92.783 1.014q.299-.337.595-.675c1.168.043 1.982.053 2.987-.27l.964.147-.581.205q.663-.02 1.329-.039-.353-.241-.703-.485-1.003.051-2.01.104c-.017-.152-.04-.306-.058-.458q-1.654.226-3.306.458m190.594.57c1.495-.066 2.127.314 3.711.434.664.05 2.119-.138 1.737-.376q-1.184-.002-2.376 0-1.481-.494-2.98-.982c-.032.309-.056.614-.092.924m-25.351.338 1.32.101.019-.309-.328-.026Zm-135.758-.651-1.982.062 1.716.577q-.018-.23-.039-.46l1.659-.112c-.206.22-.407.439-.611.659 3.422-.48 2.239-1.116-.75-1.033q.001.154.007.307m-7.305.6c-.006-.097-.632-.05-.627.046.008.097.636.05.627-.046m18.709-.236c.007.103.018.206.022.308l1.33-.077-1.022-.25Zm44.633.282c-.444 0-.885.019-1.329.024l1.318-.333q.005.154.011.31m21.273-.09c.002-.095.626-.091.626.006-.002.095-.628.092-.626-.005m-110.758-.05c-.013-.097-.639-.036-.628.06.011.097.636.036.628-.06m53.515-.46c-.39.496 2.241.257 3.186.313.941.055.778.165 1.504.232-.506-.233-.932-.47-1.408-.705-1.086.051-2.221.106-3.282.16m97.052.443c-.004-.096-.621-.127-.627-.031-.005.097.623.128.627.031m-103.06-.277c.007.102.019.206.024.309q.652-.191 1.307-.381Zm98.465-1.404c.045.144-.352.306-.363.44-.012.162-.34.554-.269.643.254.312.882.35.593.617.671-.028 1.333-.044 1.997-.067q-.317-.28-.639-.56 1-.19 1.993-.38l-1.326-.054c-.662-.213-1.318-.429-1.986-.639m-31.319.466c-1.268-.06-2.47-.306-3.213.06-.645.318 1.262.18 1.868.246l.09.014c.146.044-.146.128.043.189.763.247 1.48.393 1.268.718 2.027.028 3.295-.369 5.282-.099l.666-.918c-.668.042-1.352.086-2.005.13q.326-.228.662-.456c-2.102-.064-2.683.378-4.611.417-.017-.1-.017-.199-.05-.301m-106.621 1.107c-.008-.097-.636-.041-.628.055.009.097.637.04.628-.055m133.914-.198q1.333.13 2.656.265c.116-.555-1.109-.705-3.336-.75q.342.242.68.485m-6.666.239.658.021q.004-.155.004-.31-.328-.011-.658-.02c-.004.103-.002.206-.004.309m66.739-.022c.013-.096-.615-.18-.63-.085-.01.097.62.182.63.085M211.53 9.715c.917.1.74.354.751.617 1.713-.192 2.095-.474 1.919-.825q-1.336.102-2.67.208m145.527.528q1.324.034 2.644.072l.004-.154c-.878-.026-1.763-.05-2.646-.073Zm-171.154-.12c-.019-.095-.637-.014-.627.081.012.097.642.014.627-.082m57.235-.225q.01.153.028.306l.664-.053c-.006-.102-.021-.204-.03-.306Zm8.707.096q2.015.082 4.026.172-1.007-.085-2.018-.167.657-.126 1.315-.248c-.34-.08-.685-.156-1.026-.234q-1.151.237-2.297.477m91.227 0q.002.078.002.155l-1.977-.02a2 2 0 0 1 0-.154q.987.009 1.975.02m-149.146-.653c-1.588.165-2.619.39-2.598.788 1.585-.168 2.62-.39 2.598-.788m216.44.43c.551.106 1.099.217 1.644.325l.336-.044-.626-.453c-.441-.046-.887-.09-1.33-.135-.011.102-.013.204-.024.306m-163.877.168q.003.077.013.154l1.328-.103q-.005-.078-.015-.155Zm40.07 0q.003.077.011.154l2.655-.27c-.12-.097-.234-.196-.354-.294q-1.155.203-2.312.41m-88.208-.661c-1.042-.053-1.285.158-2.359.275h-.005c1.206.273 3.038-.183 2.782.446.425-.18.861-.359 1.28-.54-.531-.044-1.182-.154-1.698-.181m6.436.33-1.636.343-.339-.039 1.954-.456q.013.076.021.153m219.296.324 1.033-.102-.328-.12c-.767.091-1.393-.179-2.353-.294q.828.257 1.648.516m-8.39-.14.321.113 1.005-.12-.321-.114Zm-39.374.012c0-.096-.624-.126-.626-.03-.002.098.626.127.626.03m-22.575-.721c-.225.252-.443.506-.672.757-.791-.011-1.1-.284-1.258-.424s-.056-.244-.069-.377Zm-45.896.42c.002.102.011.207.013.31q.332-.006.666-.016c-.002-.103-.008-.207-.01-.309Zm-71.53-.577.731.555.966-.394q2.221.352 4.437.712h.007a104 104 0 0 0-.765-.55q-.645.049-1.29.099l.257-.796-2.042-.128Zm34.896.87 1.978-.344q-.675-.078-1.348-.155Zm61.261-.004q-.665 0-1.333.002c0-.103-.006-.206-.006-.309l1.335-.002q.004.154.004.309M209.803 9.36l-.969.34 1.357.085-.058-.461Zm91.356-.439c-.12.55 1.65.608 3.353.827.075-.537-1.427-.688-3.353-.827m7.99-.215c-.185.147.33.656.73.712 1.05.145 1.481-.084 1.32.318 1.701.09 3.295-.678 3.289-.996q-.494.166-.988.328c-1.446-.122-2.899-.256-4.351-.362m96.591-.156c.022.161-.083.381-.034.533.109.333.847.279 1.644.547l-.285-.646 1.349-.027q-1.332-.207-2.674-.407m-204.352.906c-.015-.095-.636-.023-.626.073.012.096.637.023.626-.073m16.44-.636c-1.77.585.152.671 1.78.747.195-.226.403-.453.594-.677-.5.03-1.155.147-1.618.161-.78.025-.028-.267-.756-.231m30.598.581c-.009-.097-.639-.048-.63.048.008.097.636.048.63-.048m13.849-2.612c-1.221.064-2.236-.13-3.333.145q1.342.024 2.684.053c.067.17-.932.32-.628.506l-1.33.09.004.077 1.352.14q-.01-.153-.026-.307l.667-.045.038.462 1.991-.207c-.913.258-.562.464-.611.736-.55.022-1.043.01-1.305.171-.497.307-.758.589-.612.883 1.606-.31 1.729-.648 1.917-1.054 1.781-.082 1.637.226 2.683.362 2.207.287 3.021-.018 3.325-.58 2.098.253 3.297.18 5.335-.306-.255.27.971.324 1.292.476.313.15-.463.24-.495.347-.056.185.572.228.555.393-.011.087-.555.137-.501.207.139.167 1.255.19 1.936.126-.582-.264.83-.613.489-.854-.549-.39-1.918-.44-1.286-.96 1.367.124 1.678-.255 2.979-.186l-.003-.002q1.15-.234 2.299-.466l-1.332-.077a3 3 0 0 0-.013.215q-1.974.179-3.949.364c-.068-.304-.883-.442-2.046-.506q.005.15.006.304l-1.99.115.656.193c-.204.143-.382.043-.602.039-.973-.02-1.205.053-2.021.19q.637-.422 1.275-.846l-2.305.441L267 7.11l-.564.576 1.299.307c-1.112.016-2.231.033-3.343.053q.306-.33.617-.659c-.891.004-1.787.01-2.671.017q-.031-.307-.063-.615m-30.392 1.445c-1.26.508-2.715.517-4.585.743-.675.081-.354.338-.988.472.677.018 1.343.028 2.016.044l-.379-.275c.548-.104 1.103-.206 1.654-.309q.03.15.06.302l1.961-.179c.07-.365 1.784-.632.261-.798m-19.872-.046c-2.452.21-4.045.664-4.554 1.273 2.783-.256 4.482-.538 5.905-1.263q-1.322.217-2.643.439Zm185.667.904q-.007.155-.017.31-.165-.015-.33-.027-.486-.194-.973-.386Zm40.268.222c.012-.096-.635-.195-.647-.099-.007.097.634.195.647.1m-212.354-.103c-.008-.097-.638-.037-.627.06.01.096.638.036.627-.06m17.458-.003c-.009-.096-.636-.045-.628.05.009.097.634.046.628-.05m115.997.007c.967-.09 1.47-.173 2.308.068l.33-.068c-.819-.217-1.365-.445-2.634-.463q.001.232-.004.463m-77.218-.14q.003.078.012.155l1.325-.063q-.003-.077-.007-.154-.665.03-1.33.063m85.861-.27h.003l.662.413q.672-.128 1.343-.253-.833-.113-1.671-.222-.167.03-.337.062m-69.854.07c.002.103.011.206.015.309.664.007 2.166-.176 1.975-.376Zm95.865.143-1.007.159-.33-.104 1.01-.157Zm-57.929.082c0-.098-.63-.1-.63-.003.003.097.628.099.63.003m-48.615-.27c.004.102.015.206.02.308l.668-.029c-.004-.103-.015-.206-.019-.308Zm114.478.127c.431.038.898.076 1.346.116l.013-.154c-.446-.04-.913-.079-1.344-.116Zm-37.308-.195q-.001.154-.005.309l-.658-.024q-.001-.155.005-.31Zm46.753.23c.008-.097-.615-.161-.628-.066-.009.096.617.161.628.065m-81.977-.04c0-.096-.63-.093-.633.003.003.097.635.094.633-.003m-81.228-1.91c-.651.135-.313.341-.285.488-.347-.023-.923-.093-1.341-.051q-.638.36-1.273.721l2.661-.21c-.004-.154-.053-.305-.04-.46 1.217.081 1.504.168 1.386.51-2.031.198-1.901.555-2.586.975q1.335-.027 2.667-.05c.101-.112.208-.224.313-.336 1.022.04-.167.393 1.693.184h-.005q-1.028-.27-2.061-.54c1.513-.494 2.096-.14 2.034.23.651-.125 1.33-.252 1.964-.375-.666-.21-2.26-.164-3.008-.314-1.093-.22-.82-.61-2.119-.772m-4.18 1.727c-.137.203 1.369.255 2.023.145a6 6 0 0 1-.028-.306Zm76.766-.125q.001.155.009.308.333-.004.662-.01a8 8 0 0 0-.008-.309q-.332.006-.663.01m57.91.183c.004-.097.63-.063.626.034-.009.096-.63.063-.626-.034m-68.58-.76c-1.499.028-1.729.195-1.986.512-.589 0-1.51-.123-2.009-.025l2.022.333c.017-.104-.066-.204-.013-.308 1.352-.053 2.029-.188 1.986-.512m-50.714.714c-.007-.097-.637-.053-.626.044.008.096.634.053.626-.044m154.713-.05 1.32.142q.007-.077.017-.155l-1.322-.142q-.007.077-.015.155m-81.958-.406.002.003q1.148.265 2.286.533c.446-.147.969-.123 1.65-.15l.667-.769c-1.759.253-2.237-.095-4.003-.157Zm84.619.384 1.311.15q.009-.078.018-.155-.656-.074-1.312-.147-.008.075-.017.152m-74.041-.957-.011.692q-1.194-.157-2.389-.31c-.966-.037-1.924-.075-2.899-.108.821.16.298.422 1.68.389 1.069-.026 1.809-.102 2.918.029.015.098.022.203.035.303 1.622.057 1.382-.139 1.315-.45q.333.234.664.467c.87.01 1.77.022 2.666.034-.343-.334-.658-.533 0-.844q-.504-.126-1.014-.25l-.67.3-1.009-.472c-.872-.01-1.749-.018-2.623-.027Zm55.949.93 1.316.106q.005-.075.011-.151l-1.314-.11q-.004.078-.013.155m-102.445-.354c-.671.16.838.489 1.142.417.671-.16-.834-.489-1.142-.417m-34.841.318c-.01-.095-.636-.053-.627.044.006.096.638.053.627-.044m52.05-.574c1.065.12.24.342.799.514.234.07 1.374-.044 1.545.137.152-.032.225-.056.347-.084q-1.174-.326-2.352-.651c-.114.029-.206.054-.339.084m-93.326.234-.967.408-.002.002 1.337-.135-.036-.306Zm190.653.388a8 8 0 0 0 .026-.309l-1.335-.132Zm-6.769-.1c.009-.098-.632-.155-.64-.059-.009.097.632.154.64.058m-78.611-.078c-.006-.097-.628-.092-.625.005-.003.097.625.092.625-.005m-81.765-.338-.966.389q.661-.054 1.324-.106a8 8 0 0 0-.028-.306Zm53.826-.05c.3.164.814.235.688.439l1.313-.275c-.613-.139-1.048-.225-2.001-.164m21.316.313c-.002-.097-.629-.087-.627.01.004.096.627.086.627-.01m-60.088-.463c-.962.039-1.386.172-1.976.371.622.116 1.063.185 2.014.092q-.017-.232-.038-.463m27.761-.186a33 33 0 0 0-3.464.306c-.77.103-1.138.094-.855.363 1.09-.002 2.215-.004 3.327-.003-.006-.154-.019-.308-.03-.463.889.011 1.794.023 2.674.036.193-.364-.454-.293-1.652-.239m106.969.56c.01-.096.636-.049.629.048-.008.096-.636.049-.629-.048m17.402-.12c1.375.154 2.389.278 3.336.115q-.496-.025-.995-.048-.637-.135-1.279-.268Zm-181.67-.338c-1.2-.752-3.923.028-1.626.465l.713-.386Zm-13.447.325c-.01-.096-.64-.03-.632.065.011.097.643.032.632-.065m6.068-.231q.018.153.037.306.642-.22 1.292-.439Zm177.279-.512c-1.092-.087-2.189.035-2.946.15 1.759.213 3.512.433 5.248.658q-1.146-.406-2.302-.808m-191.451.688c-.014-.096-.638-.026-.627.07.015.095.636.025.627-.07m120.491-.207c0 .102.007.205.007.308l1.339-.007a6 6 0 0 0-.007-.309q-.669.003-1.339.008m-85.206-.49c-1.853.452-3.589.262-5.663.477l1.704.297c1.439-.167 2.888-.333 4.325-.494q-.18-.14-.366-.28m173.933.704c.01-.096-.611-.165-.622-.07-.01.096.611.166.622.07m1.324-.005c.013-.096-.602-.167-.617-.072-.011.096.606.168.617.072m-118.714-.569q.351.297.696.596c.658-.022 1.333-.042 1.982-.063-.116-.198-1.258-.367-.611-.593.18-.063 2.042.006.892-.19-.952.083-1.978.165-2.959.25m60.624.094-.743.41q.043.015.083.032l-.156.007.068-.039c-.409-.156-.825-.31-1.238-.465q.995.026 1.986.055M213.98 7.9c-.02-.095-.638-.028-.63.067.011.097.642.029.63-.067m177.127.002c.006-.096.636-.051.63.046-.009.096-.637.05-.63-.046m-39.36.058 1.337.026q.004-.074 0-.152l-1.334-.029c0 .051-.005.104-.003.155m49.31-.138c.863.022 1.787.05 2.691.08l.015-.154c-.906-.03-1.83-.059-2.691-.08Zm-109.955-.084q.002.077.01.154l1.333-.053a3 3 0 0 0-.011-.154Zm-75.788.022c-.013-.096-.64-.03-.63.067.015.096.641.029.63-.067m197.874.053c.009-.097-.621-.162-.628-.065-.008.096.622.162.628.065m-159.944-.545c-.516-.012-1.109.093-1.643.11q1.193.225 2.391.447l.219-.053c.99-.256.135-.48-.967-.504m153.913.484 1.365-.178-1.342-.13q-.014.154-.023.309M225.41 7.444l.034.306.665-.063q-.014-.153-.035-.306-.331.03-.664.063m163.698-.22.649.432-.339.053q-.487-.266-.981-.53Zm-104.053.389c-.006-.097-.64-.069-.634.028.009.096.636.067.634-.028m45.367-.285c-1.379-.02-2.515.252-3.683.017q-.162.04-.332.08c1.354.32 3.077.324 4.015-.097m-40.402-.789c-.733.027-1.202.196-1.982.249-.917.062-2.044.07-3.006.13-.167.388.683.29 2.022.217q-.324.168-.657.338c1.011.056 2.007.122 3.021.176.484-.04.771-.285.966-.333 1.095-.267 2.046-.356 1.99-.712l.003-.002c-.945.071-1.449-.095-2.357-.063m113.773.746q.84.152 1.68.308l.342-.046-1.313-.663-.675-.06Zm-122.751.207c-.006-.097-.634-.065-.63.031.005.098.637.066.63-.031m-22.747-.048c-.007-.097-.639-.054-.63.043.01.096.636.053.63-.043m-19.492-.413c-.604-.107-2.215.379-1.945.427.602.106 2.213-.377 1.945-.427m-6.087-.422q-1.676.073-3.346.15.033.307.066.615 2.311-.37 4.628-.731-.373-.353-.748-.707c-.199.225-.403.449-.6.673m57.694.695q-.67.026-1.335.053a6 6 0 0 1-.019-.309l1.336-.055q.01.156.018.31m5.245-1.751c-.339.26-.791.474-1.104.748-.317.273-.574.666-.784.935-.12.155 1.172.079 1.262.036.613-.297.317-.488 2.029-.53-.011-.052-.002-.106-.008-.157q-.663.022-1.329.046c-.023-.36-.041-.717-.066-1.078m-79.741 1.447q.018.153.039.306l2.02-.053a6 6 0 0 0-.034-.306Zm83.452-.179c-.881-.028-2.739-.017-2.959.251l4.002.172c-.377-.1-.405-.402-1.043-.423m-72.713-.27c-.202.226-.396.45-.596.676.442-.043.889-.084 1.331-.126q-.034-.307-.071-.615-.332.032-.664.065m38.982.567c-.004-.097-.641-.058-.63.039.007.096.632.057.63-.039m-30.238-.593c.013.153.034.307.049.46l2.001-.173q-.024-.232-.045-.46Zm19.079-.584c-.73-.016-.771.184-1.429.23-1.178.08-2.172.175-1.176.417.979-.178 1.978-.352 2.963-.526-.643.304-1.29.606-1.93.911l2.639-.499q.017.156.03.309l1.331-.094a5 5 0 0 0-.026-.309q-.664.046-1.335.094c.11-.232-.085-.51-1.067-.533m107.907.593c1.269.014 2.141.084 2.646.398-1.294-.018-2.155-.085-2.646-.397m-94.736.382 2.003-.121q-.005-.077-.015-.154c-.842.076-1.262-.015-2.012-.034Zm111.783-.43q.492.182.979.364l-1.322-.072q.003-.155.013-.309Zm-6.323-.002q-.001.155-.007.308-.334-.014-.67-.029.003-.154.01-.308.335.014.667.029m-75.391.157c.516.19 2.455-.052 3.347-.02.079.003.368.224.981.109.259-.049.296-.084.323-.164-.413.044-.902.005-1.304.055-.039-.08-.018-.105-.022-.169.54.054.549-.142.617-.164-.24.058-.763.019-.617.164-.452.02-.887.028-1.333.044l1.301-.43-1.339-.34q-.974.458-1.954.915m16.712.016c-.004-.096.619-.11.63-.014.004.097-.624.11-.63.014m5.969-.019-.664.007c0-.102-.009-.206-.009-.308l.663-.008c.002.103.008.207.01.31m-5.997-.212q-1.332.102-2.665.207c.021-.398 1.069-.516 2.654-.516q.01.154.011.31m-50.162-.227 1.706.357.327-.096c-.612-.075-.773-.164-.698-.345q-.666.043-1.335.084m66.855.278c0-.097.634-.1.634-.003.002.098-.63.099-.634.003m-115.269-.244q.015.153.039.306.332-.034.666-.07-.018-.152-.036-.306-.334.034-.669.07m22.242.063q.006.075.018.152l1.334-.114a3 3 0 0 0-.017-.154Zm-2.766-.692-.585.827c1.417-.299 2.122-.574 1.918-.943Zm-8.684.639q.007.076.02.154l1.332-.128-.019-.152Zm76.422-.01c-.066.066.073.106-.009.162.249-.04.566-.003.63-.1.065-.092-.467-.03-.621-.062m79.355.031c.004-.096-.615-.132-.622-.036-.004.097.617.133.622.036m-106.778-.27c.004.103.015.206.022.309q.665-.037 1.33-.072l-.019-.307Zm68.111.224c-.003-.097.623-.09.623.008-.002.096-.623.09-.623-.008M242.077 6.19c-.01-.097-.64-.044-.632.053.013.096.643.043.632-.053m59.95-.075c-.493.024-.135.11-.358.169.499-.063.876-.004 1.369-.051l-.041-.017c-.058-.044.065-.125-.334-.12-.167.001-.458.01-.636.019m-13.053-.454 2.031-.01q1.007.31 2.019.62c-.245-.298-.485-.598-.729-.897-.493-.01-1.14.076-1.605.063-.784-.021-.019-.27-.743-.28Zm-61.096-.159c-.981.202-1.437.459-2.629.562l.02.152q1.333-.127 2.665-.25-.024-.232-.056-.464m18.866.085.036.219 2.029.39-.769-1.022Zm129.731.516c.002-.097.63-.066.63.031-.004.097-.634.066-.63-.031m7.263.007 1.361.082q.008-.154.011-.309l-.337-.02Zm-102.124-.036c-.004-.097-.636-.066-.63.031.009.096.635.065.63-.031m-11.368-.241q.006.154.021.308l.667-.038q-.01-.155-.022-.309-.335.019-.666.039m18.732.214c-.006-.096-.636-.07-.634.027.004.097.641.07.634-.027m72.767-.923c-.553.43-.23.998-2.661 1.003.822-.316 1.191-.508.675-.907q.995-.05 1.986-.096m-37.367.928c0-.096.626-.102.632-.005-.002.097-.63.102-.632.005m28.713-.227-1.339.283a8 8 0 0 0 0-.309Zm-20.02.263-2.004.003c0-.051-.004-.103-.004-.155.848.025 1.262-.092 2.003-.156q.004.154.005.308m22.705-.125c.004-.096.629-.08.632.017-.003.096-.635.08-.632-.017m54.877.036c.005-.097-.625-.159-.634-.063-.006.097.628.16.634.063m-96.921-.101c0-.097.63-.11.632-.012.002.096-.628.108-.632.012m44.69-.253q0 .154-.003.308-.334-.008-.666-.017 0-.154.002-.308.333.007.667.017m-86.831.265q1.339 0 2.676.002a6 6 0 0 0-.021-.309c-1.039.089-1.763.06-2.676-.002Zm65.81-.126-.088-.014.008-.002-.015-.003 1.059-.275q-.483.148-.964.294m40.4-.156 1.324.07a5 5 0 0 0 .013-.309l-.33-.017q-.505.127-1.007.256m-4.692.007c.004-.097-.628-.126-.63-.029s.626.125.63.029m14.747-.507c.11.203-.407.267-.696.42l1.35.09q.009-.233.021-.464Zm-123.014.258q.002.078.011.155l1.337-.082a3 3 0 0 0-.011-.154Zm31.44-.629q.023.386.039.772l2.001-.07q-.112-.042-.22-.085c-.461-.202-.562-.406-.487-.663Zm-14.031.59q.004.078.01.155l1.329-.062c-.002-.051-.002-.104-.009-.155q-.665.03-1.33.063m-28.177-.315c.01.154.03.31.04.463.892-.023 1.432-.411 1.292-.557Zm18.117-.518c-1.103-.186-1.502.195-1.373.35-.654.045-1.32.082-1.978.125q-.148.24-.3.48.825-.17 1.652-.336c.973.238 1.991-.034 3.334-.115-.623-.03-1.133-.47-1.335-.505m-45.02.824c-.012-.096-.642-.036-.632.06.013.096.641.036.632-.06m49.042-.072c-.009-.097-.641-.06-.632.036.011.096.638.06.632-.036m73.508-.046c-.003-.096-.637-.107-.637-.01s.639.107.637.01m-99.037-.557.054.615 1.313-.33a2 2 0 0 0-.013-.154l-1.022-.158Zm28.835-.265c.244.14.484.282.728.422l1.32.25q-1.673-.072-3.351-.14c1.695.534 4.09.395 5.316-.332l-.681-.362q-1.666.079-3.332.162m27.449.728c-.003-.097-.639-.08-.635.017.009.096.635.079.635-.017m8.724.041-1.335.024q-.006-.077-.008-.154l1.335-.024q.005.076.008.154m24.683-.91c-1.429.163-2.152.375-1.987.76q.338-.15.673-.301l1.98.01h.004Zm14.072.442c.66.091 1.324.186 1.98.277.163-.202-.15-.428-.313-.622q-.044-.074-.09-.152c-.077-.156-.182-.31-.926-.34-.212.28-.437.558-.651.837m-69.576-.248.032.463.667-.032q-.015-.231-.028-.463Zm87.591.38c0-.096-.632-.123-.634-.026 0 .097.632.124.634.027m8.665-.03c.004-.097-.624-.132-.626-.034-.004.096.623.13.626.033m-119.07-.628q.024.308.051.615l.667-.043c-.02-.205-.032-.41-.047-.615Zm108.749.049c-1.886-.042-2.466.068-2.355.52.448-.136.908-.27 1.361-.407q1.338.132 2.678.268c.135-.335-.313-.35-1.684-.381m-113.437.113c.006.102.019.204.026.306l.668-.046q-.01-.153-.026-.306Zm43.552.19c-.002-.096-.63-.077-.63.02.005.097.634.077.63-.02m58.18-.096 1.986.058.004-.077c-.604-.177-1.032-.29-1.988-.29q-.004.155-.002.309m-112.475.002.341.051.979-.309-.341-.05q-.487.154-.979.308m18.118-.277c.006.103.019.206.025.309q1.003-.063 2.006-.123c-.007-.103-.019-.206-.026-.309q-1.001.06-2.005.123m-15.455-.007q.011.154.028.309l1.335-.102-1.031-.231q-.165.011-.332.024m93.74.29q.663.006 1.324.014.003-.08-.002-.157-.661-.007-1.324-.012-.002.077.002.154m-51.462-.273q.677.127 1.354.255-.01-.154-.017-.308Zm22.739-.285q1.335-.065 2.667-.125c-.216.209-.428.42-.645.63q1.328-.102 2.659-.199c.251-.703-1.367-.785-4.032-.86q-.325.276-.649.554m-59.635.335q.006.078.018.155l1.33-.097q-.002-.075-.011-.152Zm99.073.003c-.004-.096-.634-.11-.634-.012-.002.097.636.11.634.012m-3.336.012 1.344.026a8 8 0 0 0 0-.311l-1.344-.024c-.002.103.002.206 0 .309m-22.085-.058c0-.097-.637-.095-.637.002.002.097.637.095.637-.002m8.724.067 1.333.008q-.001-.155-.007-.309-.665-.004-1.332-.007.002.154.006.308m-38.039-.496c-.671.158.838.49 1.144.42.673-.158-.838-.492-1.144-.42m22.977.405 1.654-.174q.001-.076-.004-.154c-.885-.043-1.777-.083-2.664-.123Zm-57.946-.179c-.009-.097-.643-.055-.634.041.006.097.638.056.634-.04m37.527-.313q.006.154.015.308l.666-.019q-.005-.154-.015-.308Zm-51.632.212.341.05.981-.306-.341-.05Zm18.806-.113q.005.076.012.154 1.005-.059 2.008-.116l-.015-.154q-1.002.057-2.005.116m2.667-.309q.015.23.034.46l1.318-.306-1.02-.173Zm73.606.396c.904.053 1.481-.29 1.352-.447q-.675-.01-1.354-.019c-.002.154.002.311.002.466m-6.642-.058c-.002-.103.005-.206-.002-.31q-.665-.003-1.335-.006Zm-84.465-.599c-.749.122-1.12.27-1.99.302l1.031.234c.67-.189 1.099-.322.959-.536m-6.035.374c-.015-.095-.643-.045-.632.051.008.097.643.046.632-.05m92.478.005c.002-.097-.63-.102-.628-.005 0 .097.628.102.628.005m-61.584-.284q.348.174.696.35.667-.034 1.333-.066l-1.699-.379Zm79.01.342c.004-.103.002-.206.002-.309l-1.337-.033Zm-81.695-.203c-.004-.097-.638-.063-.63.034.009.096.634.062.63-.034m27.453-.052c-.002-.098-.634-.078-.628.019.004.096.632.077.628-.02m-44.251-.015c-.013-.095-.638-.053-.632.043.007.097.641.054.632-.043m80.398-.101c0-.098-.629-.1-.627-.003.006.096.625.1.627.003m-61.607-.092c-.009-.097-.639-.064-.63.034.006.096.638.063.63-.034m-2.014-.28c.006.103.017.204.021.306l.669-.033a8 8 0 0 0-.022-.309q-.335.017-.668.036m11.379-.398c-1.046.006-2.798.308-3.33.536.784.183 1.513.188 2.696.11Zm-6.016.434 1.354.244a8 8 0 0 0-.02-.309Zm61.597.13 1.326.015q.002-.077 0-.154l-1.329-.015q0 .077.003.155m-6.668-.66c-1.654-.013-3.203-.092-4.011.306 1.408-.052 2.556-.197 4.015-.15v-.156Zm-21.441.091c-.009-.095-.634-.083-.634.013s.638.085.634-.013M274 2.214q.008.155.021.309l.669-.036q-.01-.155-.022-.31Zm104.573.208q.665.034 1.33.07l-.988-.362-.33-.017q-.009.154-.012.309m-100.552-.268c.005.102.017.206.022.308q.654-.187 1.315-.373-.668.032-1.337.065m81.761.284q.668-.134 1.335-.267l-1.331-.041q-.004.154-.004.308m-77.066-.207q.002.077.01.154l1.337-.062q-.002-.078-.01-.155Zm-10.411-.232-.979.367q.666-.04 1.332-.077-.008-.154-.021-.306Zm32.518-.14q.004.155.015.31l1.343-.037q-.51-.143-1.026-.282Zm-28.175.136c-.009-.097-.636-.064-.63.033.008.097.636.063.63-.033m52.311-.222q1.688.146 3.368.299-.002-.232-.006-.463-1.68.079-3.362.164m6.051.299c.964.03 1.399-.07 2.001-.227-.609-.16-1.046-.263-2.01-.236q0 .231.009.463m7.317-.193c-.003-.097-.628-.102-.628-.005.006.096.628.101.628.005m-2.642.055.664.007q.002-.155-.002-.31c-.221-.003-.444-.001-.667-.003-.002.102.003.204.005.306M295.43 1.39q.005.155.017.309c.85-.06 1.26.043 2.014.082l-.026-.46c-.666.023-1.337.045-2.005.07m48.906.28.669.007c.002-.102-.002-.206-.002-.309l-.669-.01Zm-31.461-.314q-.001.078.004.155.67-.015 1.341-.027 0-.076-.006-.154Zm14.723-.193c0 .103.007.207.007.31q.674-.006 1.348-.008l-1.02-.304Zm-4.724-.038c0-.097-.632-.09-.628.007 0 .097.632.09.628-.007M276.599.991l-.671.036a8 8 0 0 1-.022-.309l.671-.035Zm2.026-.026c-.006-.097.628-.129.633-.032.002.096-.626.128-.633.032m50.968-.046c-.004-.096-.638-.093-.636.005.004.096.638.092.636-.005"/></svg>