<svg xmlns="http://www.w3.org/2000/svg" width="345" height="16" fill="none" viewBox="0 0 345 16"><path fill="#ff4d00" d="M332.137 8.886c.043.25-.422.394-1.281.414-.043-.25.422-.394 1.281-.414m-44.313.685c.003.165.015.333.02.499-.497.02-1.011.03-1.504.05s-1.074.105-1.082-.089c.583-.023 1.121 0 1.505-.178s.095-.304 1.061-.282m.841-.403.89.595 2.14-.32c-.22.426-1.174.577-2.557.584q-.236-.429-.473-.859m4.77.212.844.106-1.291.042-.41.388-.035-.75q.43-.015.859-.028Zm3.424.019c.087.122-.267.417-.843.401q-.01-.187-.018-.374Zm-13.338.312c.017.022.007.043-.011.066q.436.016.876.03c-.592.356-1.873.317-2.992.413-.684.058-.831.069-1.292-.085l1.085-.091.187-.262c.725-.043 1.044.073 1.513.2l-.227-.243c.285-.011.569-.012.852-.027Zm21.097-.19-.43.014q-.007-.126-.011-.25.215-.008.43-.015.007.126.011.25M52.319 5.783c.957.062 1.788.084 2.543.29.56-.35 1.343-.158 2.022-.201l.636-.038c1.553-.09 3.175-.138 4.515-.094 1.531.05 1.263.093 2.753.025 1.065-.049 2.636.016 3.848.009-.048.085-.136.172-.197.257.659-.06 1.272-.102 1.91-.15.157-.011.306.06.41.048.894-.092 1.625-.3 2.587-.304.646.148.526.4 1.557.324-.15-.12-.309-.241-.455-.361.68-.015 1.291.09 1.918.068.353-.013.666-.126.872-.14 1.748-.119 2.713.044 3.904.355.437-.138.838-.276 1.258-.414l1.502.198-.87-.345c.603-.084.955.045 1.49.042.369-.003.45-.112.868-.125 1.323-.044 2.788-.084 4.092-.13.01.124.014.25.02.375l1.483-.3-.198.381 1.487-.424c.297.24.607.48.897.721.534-.084.068-.427.655-.584.5-.133.562.013 1.092-.007s.52-.217 1.3-.266c.777-.048 2.48-.125 3.345-.109 1.055.021 1.623.202 2.649.168a195 195 0 0 1 3.477-.09c.329-.006 1.376.179 1.673.283.403-.305 1.705-.22 2.271-.335.563-.117.025-.298.747-.383.101.074.294.155.401.231.316-.044.056-.112.577-.128.519-.017 2.23-.005 2.757.032.856.059.725.252 1.635.182-.016-.081-.001-.164-.003-.246l1.944-.069q.005.125.012.25c2.051-.592 4.128-.829 6.423-.355.605-.084 1.115-.246 1.796-.285 1.704-.1 3.803.05 5.452.053 1.253.002 2.078-.03 3.096-.223.346.194.725.388 1.084.581-.009-.165-.014-.335-.024-.497.64-.095.934.056 1.499.046s.217-.195 1.022-.255c.298-.022 1.685-.054 2.444-.091 1.36-.068 2.831-.163 4.357-.25 1.287-.072 2.658.102 2.696.573.006.069-.554 0-.216.178.527.276 1.704.578-1.01.677.034.138.026.25.02.382-1.171-.226-2.415.189-.96.264.546.028 2.548-.39 2.85-.573.76-.462-.571-.717-.117-1.211.067-.076 2.262-.468 2.662-.498.568-.043.6.062.929.068.598.012.64-.149 1.262-.157.714-.009 1.494.15 2.321.049-.267.178-.554.352-.829.53 1.426-.044 1.381-.478 2.335-.705l.923.214 1.031-.1c1.169.268 2.724.852-.401.583-.051.249.13.414-.049.686-.123.184-.567.304.323.43.055-.163.132-.335.195-.503 1.319-.086 1.556-.504 1.916-.819.149-.129-.559-.26-.202-.359.554-.152 1.397.15 1.246.323.156-.002.286-.009.433-.013.001-.083-.005-.164 0-.25.861.038 1.552-.166 2.317-.207.629-.034.7.1 1.326.086 1.157-.027 1.34-.24 2.797-.333.637-.04 3.054.092 4.083.063.262-.008.389-.132.837-.108 1.012.054 2.164.304 1.98.67.224-.09.427-.18.641-.27-.547-.141-1.13-.22-1.104-.465 1.086.14 2.05-.12 3.222-.095.278.006.771.264 1.102.198.01-.12-.035-.25.004-.372.323-.083 1.283.045 1.41.042.868-.023 1.593.067 2.168.064.575-.004.946-.258 1.291-.255 1.01.009 1.546.26 2.231.405.059-.083.141-.17.21-.254l1.278-.044c.002.082.021.167.019.248.975-.237 1.519-.33 2.821-.343.732-.007 1.068.11 1.656-.175.305.067.58.13.873.197 2.084-.323 3.766.048 5.815.074q.016.122.03.245l.852-.092c-.29-.135-.59-.273-.874-.407.671-.072 1.306.056 1.893.058.933.004 1.524-.147 2.392-.203.011.078.028.159.041.238l1.916.194 1.717-.556.917.212.804-.147-.19.507q1.155-.478 2.314-.954.444.298.888.596.528-.27 1.057-.537l1.71.073.038.244 1.062-.162c.003.083.013.168.008.25.674-.163 1.183-.32 2.146-.305.531.008 2.469.053 2.859.001 1.249-.166 1.17-.369 2.501-.32-.008.078.028.157.038.236l2.795.291-.047-.249-.619-.103c.8-.11 1.62-.216 2.407-.328 1.467.163 2.652-.07 4.262.005.693.032 1.333.308 2.345.14.027-.076.006-.163.021-.245 1.022-.074 2.557.09 3.453.196.648.077.511.196 1.279.02.217.119.449.235.672.353q.097-.252.192-.506c1.047.14 1.602.085 2.356-.204l.644.165c-.612.198-.361.3.245.43.364-.034.23-.183.416-.266.738-.328 1.165-.219 2.121-.231 1.556-.021 2.794-.124 4.323-.09.288.007.656.13 1.074.072.022.127.02.25.032.375 1.058-.165 1.755-.455 2.982-.475q.017.123.035.246l1.695-.056V.861l1.09.208c.642-.103 1.293-.205 1.929-.309.147.36-.817.202-1.498.43-.281.094-.386.28-.625.39.72-.02 1.444-.048 2.154-.07.146-.212.247-.427.421-.637.515-.07 1.902.066 2.281.053 2.989-.109 5.397-.315 8.337-.29.4.004.625-.15 1.253-.16.805-.011 2.202.153 2.973.276.443-.092.842-.188 1.268-.282.595.1 1.189.204 1.786.302.838-.044 1.699-.202 2.537-.201 1.02.002 1.389.16 2.349-.08q.113.123.228.244c1.45-.295 2.902-.194 4.31-.016.063-.127.14-.257.193-.381 1.073-.121 1.395.14 2.429.14.514-.001.895-.217 1.702-.132.509.053.843.25 1.658.05.714.152.485.39 1.604.334-.123-.75 1.863-.269 2.133-.262 1.592.04 2.119-.103 3.41-.055-.01-.086-.021-.165.023-.246.871-.135 2.455.031 3.11.02 1.717-.028 3.331-.081 4.737-.16 1.675-.092 2.168.072 3.572.12 1.184.041 2.167-.1 3.39-.074.262.006.674.124 1.064.077.026.084.025.163.043.245 1.526-.343 2.748-.305 4.449-.26.973.027 1.733 0 2.733.016.387.007.651-.152 1.173-.136.397.013.965.136 1.509.064.026.084.034.162.039.246 1.128-.25 1.561-.108 2.79-.091.891.012 1.05-.076 2.282-.105 1.426-.035 4.186-.045 5.826-.016.888.017 1.916.242 2.604.242s.472-.17 1.149-.125c-.349.339.449.417.797.675.902.67.961 1.488 1.061 2.187.025.178-.555.219-.434.347.425-.02.855-.03 1.287-.041-.145.191.376.381.463.53.112.193-.308.27-.367.414l-.012.002c-.088.21.215.278.012.506-.046.05.05.169-.064.224-.745.365-1.997.273-2.131-.108q-.536.016-1.068.033.005.126.012.25l-1.946-.187.873.285q-.318.165-.633.334c-.694-.093-1.371-.02-2.123-.078-.75-.058-.761-.24-1.721-.055-.448-.049-.925-.292-1.317-.316-1.207-.074-.156.454-.212.62.721-.063 1.431-.13 2.146-.194q.012.187.026.374c.618 0 1.745.198 2.148-.015l-.014-.178.43-.013q.215.15.428.304l1.308.016.027.498c.786-.012 1.437.18 2.151-.006l-1.727-.323c-.106-.398.481-.683 1.453-.983.607.168 1.214.224 1.054.532-.058.111-.752.396-.705.514.09.227.958.296.793.547-.841.068-1.704.141-2.555.211-.355.135-.722.27-1.069.405-.296-.162.606-.285.823-.402.262-.14-.33-.22-.214-.368-.902 0-1.371.098-1.924.312-.612-.1-.534-.226-.679-.406-.102-.128-.83-.046-1.062-.165-.25.173.382.229.161.437-.126.12-.973.273-.771.458-1.373.062-2.138-.258-3.463-.262l1.305.27-2.376-.107c-.872.304-.308.563-1.912.56.29.156.595.316.877.47-1.085.133-1.916-.103-2.815-.135-1.563-.053-2.021.055-2.776-.373.418-.24.824-.485 1.237-.726l-1.297.12c-.091.359-1.049.108-1.501-.03q.208-.195.417-.389c-1.173.337-1.641.587-1.474 1.046l-.833.033q0 .186-.004.373l-1.718.055.386-.2-.619-.169-.844.262-1.084-.074c.329.29.018.571.039.875-.793.037-1.589.032-2.373.073-.533.029-.702.165-1.304.173-.73.01-1.496-.151-2.341-.05.052-.172.622-.207 1.148-.275.526-.07.68-.07.556-.28a13 13 0 0 0 2.134-.07c-.036.236.063.272.884.22-.238-.168.274-.29.283-.444s-.492-.18-.284-.364c.092-.08.962-.25.801-.343l-1.507.17q-.098.191-.191.383c-1.532-.016-2.237.367-3.632.495l-.443-.236-.188.632c-1.335.048-2.773.2-3.03-.278l1.727.07.409-.513 4.295-.266-.465-.735 2.143-.195.023.374 4.092.107 1.056-.398-1.73-.132c.599-.23 1.254-.242 2.145-.257-.645-.31.365-.595-.686-.854l.24.493-1.28.046a7 7 0 0 0-.031.238c-1.032.025-.867.163-.814.41-.624.045-.97.045-.874-.159.057-.12.504-.223.202-.32-.584.248-.996.019-1.652.066-.477.034-.515.21-.949.256-.777.083-1.551.119-2.323.214.051-.18-.207-.315.462-.456.388-.082.875.06 1.226-.163-.341-.047-.718-.095-1.073-.143l-1.494.29.449.36-1.718.182c-.015-.251.17-.493-.46-.675l.854-.152-3.452-.075 2.602.353-.415.326c-1.173.075-.483-.206-1.304-.207l-.004.25-1.706.056.667.228c1.432-.236 1.99-.135 3.03.147l1.915-.183c.158.204.298.408.465.61-.455.052-.687-.178-1.19-.204-.233-.012-1.044.06-1.403.037.054-.081.072-.231-.227-.238-.385-.008-1.021-.072-1.257-.056-.705.045-.85.18-1.549.143-.162-.39-1.435-.368-2.391-.546-.117.113.114.32.465.354.494.047.591-.071 1.111.043.522.115.946.458 1.688.558-.985.142-1.993.274-2.984.412-.188-.368-1.147-.468-2.329-.307-.876-.132-2.785-.053-3.25-.328-.069-.042.332-.054.26-.144a.82.82 0 0 0-.761-.27c-.425.234-.839.485-1.262.724.361.102.685-.177.863-.02.097.087-.211.204.054.311-.525.002-.876.026-1.334.037.367.113.728.226 1.094.34l.215-.008c.022-.12-.063-.256.028-.369.102.041 1.205.131 1.181.27-.008.049-.32.06-.214.14.177.133 1.216.285.076.42-.422.05-.978-.076-1.052-.21.274-.051.568-.101.849-.153-2.092.086-3.167-.237-4.551-.602-.436.115-.604.252-.841.403-.323.205-.16.295-1.061.283 0-.134-.234-.413.206-.496.613-.115 1.166-.345 1.643-.405s.382.128.868.053c.393-.062.585-.167 1.109-.154l-.393-.173q.3-.105.604-.208c.492-.037 1-.073 1.485-.11-.424-.103-1.421-.049-1.868.008-.444.057-.703.3-1.126.276-.285-.156.342-.31.307-.441-.051-.185-.846-.152-.706-.378-.292.143-.555.282-.836.423l.369.425q-.65-.103-1.3-.207l.876.346c-1.029-.002-1.998.18-2.987.099q-.21.166-.415.333l-2.158.376q.627-.241 1.255-.484c.107-.326.024-.252-.862-.288-.025-.002-.021-.102-.217-.095s-.18.104-.207.11c-.293.047-.576.014-.866.037l.853.41c-.456.2-.285.344-1.218.362l-.048.232-1.683.316-1.103-.59-1.05.598.874.284c-.284.011-.568.013-.852.027h-.009c-.196-.18-.356-.31-.022-.5l-.842.404c-.607.032-.939.065-.85-.149l-1.306-.03 1.275-.17c.119-.401.761-.657-.442-.922l.814-.464 1.089.34.841-.403c.612.15.536.393 1.518.327l-.188.505 1.074-.035-.448-.54 1.692-.565c-.711.127-1.429.257-2.133.381.027-.144.053-.464-.709-.455-.29.004-.607.144-1.025.01-.013.132.008.251.006.379l-1.277.04a4 4 0 0 1-.013-.177l-.863.082q.31-.261.622-.521l.876.346q.098-.191.199-.382l1.299.082c-.222-.17.246-.287.294-.445.032-.105-.334-.126-.344-.242-.014-.174.01-.38-.014-.56l-2.153-.057c-.081-.22.019-.36.637-.52q.621.038 1.243.08.55-.143 1.102-.283c.151.245.316.49.461.735 1.064-.13.802-.414 1.338-.664.097-.045.93-.029.984-.163.253.077.445.152.675.228l-1.28.293 1.515.073.638-.392 3.422-.239-.853.153q.226.244.453.486c.346-.094.72-.192 1.051-.283.677.052.31.23.754.336.445.107 1.568.062 2.066.197.454-.018.867-.03 1.305-.044l-.87-.225c.136-.17.268-.34.409-.511-.392-.003-.801.2-1.135.274-.334.075-1.092.261-1.43.122 1.388-.528 2.673-.647 4.508-.335l-.018-.375 1.111.527-2.138.572c.536.072.229.392 1.107.263.451-.066 1.181-.494 1.638-.515.959-.046 1.549.027 2.42.018-.675-.183-1.327-.373-1.993-.56l.231-.252c-2.45-.093-.61-.67.399-.643.362.196.741.393 1.095.588.831-.196.483-.245.252-.446-.375-.325 1.13-.118 1.653-.115.019.125.02.25.03.374l1.714-.181-.872-.222c1.738-.025 2.932-.328 2.977-.847q-.526.268-1.054.535l-.669-.602.845-.28-1.283.24-.786.39.386.3-1.272.167-.032-.246-2.988.22q-.007-.188-.018-.375l.859.098.633-.397.239.24 1.708-.053c-.508-.551-1.721-.453-3.235-.158l-.867-.2-1.498.29.217-.257-1.527-.075.45.484-.826.038-.036.236c-.941.008-1.384.165-2.124.326q.202-.257.407-.514c.824 0 1.129.123 1.718-.119l-.683-.165q.115-.19.227-.383l-1.28.292-.455-.486c-.426.015-.864.027-1.284.044-.016.204 1.163.028.846.275-.319.246-.688.14-1.239.115-.015.079-.014.163-.024.244l-1.277.047c.606.251 1.235.322.242.618-.52-.126-.852-.201-1.105-.41-.06-.05-.357-.286-.33-.348.084-.19.499-.272.304-.457-.141.089-.288.173-.432.262-.559.005-.955.157-1.47.182-.386.02-.535-.076-.882-.068-.346.008-.382.14-.827.105-.545-.044-.779-.26-1.542-.186.287.174.585.352.878.527l-.414.33-1.287.045.239.492c-.506-.086-1.014-.176-1.518-.26.294-.145.625-.234.748-.411.173-.25.083-.572-.372-.788.282-.014.572-.023.857-.035l-.012-.372-1.727-.068.465.736c-.829-.122-1.003.042-1.713.181l-.02-.25-1.06.16c.062-.085.153-.17.196-.256-.597.076-1.426-.094-1.869-.057-.889.076-.513.387-.696.49-.184.104-.363.017-.579.055a76 76 0 0 0-4.329.884l-.674-.483c-.329.156-.914.036-1.239.198s-.152.513-1.091.63c.074-.16.13-.337.198-.503l-1.485.424c-.72-.06-1.435-.118-2.162-.177.07.08.164.163.218.24-.665.088-1.103-.15-1.498-.18-.869-.064-1.471.192-2.08.163-.808-.038-.699-.268-1.607-.183.022.122.015.25.026.373l-2.154-.053-.004-.126-.854.027-.035-.623-.416.264-1.293-.144.839-.277c-.011-.144-.653.011-.83-.045-.369-.12.351-.345.165-.496l-2.141.444-.643.023-.025-.374-1.721-.069.873.159c-.041.227-.289.408-.409.645-.058.113.007.27-.644.198-.259-.029-.506-.203-.859-.19-.559.022-.942.07-1.489.017q-.024-.118-.044-.237l-1.293-.02-.43-.304-1.269.168-.027-.248c-1.039.006-1.621.108-1.706.429l-3.434.242.384-1.014-1.274.17q.005.186.007.373c-.724.046-1.023-.075-1.515-.192l-1.487.356 1.289.018.025.374 1.905.07 1.131.58-1.07.162q-.119-.247-.239-.493l-1.704.06-.004.248-.857.028q-.012-.124-.024-.25l-1.484.175-.589-.545.348-.318.839-.095c-.878-.282-1.996-.253-3.243-.33-.957.272-.189.444-.187.758l-1.044-.087-.889.274q-.763-.16-1.523-.323c-.482.64-2.333.485-4.022.657-.682.07-.868.403-1.734.41-.222-.152-.448-.317-.669-.474.91.052 1.671-.035 2.576-.088l.006-.371.841-.033c.285-.262-.992-.476-1.735-.441.143.3-.908.494-.397.764l-1.747-.317q-.618.646-1.235 1.292-.333-.304-.663-.607l-2.629-.405c-.004-.126 0-.252-.007-.378-.558.189-1.251.338-1.018.596.205.227 1.208.08 1.627.152.414.073.129.252.67.317l-.004.001.008.002-.784.291-1.326-.455-1.48.175-.449-.486.856.034q-.005-.155-.014-.312a12.8 12.8 0 0 0-2.579.087l.899.72-1.746-.316.035.75-.907-.656.006-.188c1.262-.033.931-.224.184-.383l-1.92.19.443.298-1.276.356c-1.073-.164-.965-.56-2.174-.677-.136.227 1.275.39.838.585-.256.112-.909-.13-1.237-.006.418.047.227.276.692.282.798.01 1.14-.09 1.039.219-.878.063-1.117-.158-1.73-.251-.441-.067-.808.12-1.278.102.282-.048.566-.103.85-.153q-.23-.367-.464-.735l-3.004.227c-.171.163.337.186.386.318.084.23-.577.331.087.541l-1.739-.068.359-.197-.37-.17.855-.038q-.006-.186-.014-.372l-1.293.044.023.5-2.588-.039q.12.12.238.24c-.528.545-.008.793 1.958.687l-.878-.345 1.07-.162c.605.122.727.257.675.476l1.291-.041q.009.123.022.248l1.726.068q-1.295.106-2.584.213l.012.375c-.804.05-.894.02-.903-.211l-.836.016.425-.262-2.148.135c.586.193 1.785.199 1.756.502 1.318.002 1.944-.165 2.783-.467q.209-.007.418-.013c.641.146 1.039.34 1.962.308-.135-.123-.321-.235-.422-.365.917 0 2.375-.493 3.073-.458 1.417.072.072.597.371.84 1.477.071 1.417-.393 2.325-.549.754-.13 1.489-.043 2.146-.089.472-.032.569-.139.918-.146 1.662-.033 2.793.384 4.484.33q-.657-.226-1.311-.454l2.134.058q.023.12.042.24l2.138-.069q-.006-.188-.016-.374l.443.235c.756-.162 1.182-.328 2.148-.323l-1.314-.33 1.718.073.056.232c.646.106 1.28.214 1.92.32.072-.084.134-.172.212-.256.462-.061.768.06 1.108.072.545.018.693-.166 1.206-.14.386.02.607.128 1.097.083.016.08.025.164.043.239.469.055.692-.127 1.048-.126.874.003 1.333.233 2.298.152-.108.087-.218.167-.318.253.418-.033 1.111.047 1.276-.125.164-.172.089-.193.837-.205.005-.082.019-.16.031-.241a13.5 13.5 0 0 1 2.323.05c.486.053.205.24.26.361-.719.026-1.429.048-2.144.073-.03.425 1.384.532 1.331.956l-1.287-.02c.154.1.284.199.453.298.343-.15 1.273-.215 1.619-.31.345-.096-.047-.198.096-.3.079-.056.312-.102.345-.164.072-.142-.43-.176-.356-.337.033-.072.361-.16.381-.276.026-.158-.056-.387-.04-.556.597-.055.945.094 1.51.075s.895-.19 1.5-.177q-.42.17-.841.342c.29.093.577.19.869.28.006-.117-.201-.297.2-.375.236-.046.648-.134.827-.133.698.006 1.045.13 1.76.042.136-.087.281-.177.421-.265.217.119.455.233.657.356-.504-.033-1.812.26-1.204.399.457.103 1.295-.272 1.869-.066.659-.145 1.276-.283 1.915-.42.159.1-.262.36-.436.43-.59.235-1.336.201-1.237.501q1.069-.1 2.138-.198l.022.374 1.288-.043c-.033.083-.217.193-.454.265-.038.01-.41.01-.393.074.019.07.372.04.396.051.171.075-.015.168.048.25l.212-.007c.057-.087.152-.167.185-.258l-.422.014h-.002l-.004-.125.43.109c1.204-.242-.106-.503-.299-.653-.195-.15.311-.165.31-.276-.002-.177-.793-.401-.422-.544.277-.107 1.185.008 1.013.22s.251.509 1.098.57c.149-.21-1.227-.361-.424-.535.641-.14 1.405.06 2.122-.019.02-.245.405-.398 1.284-.417-.681.408-.214.796 1.339.833q-.208.194-.419.388c1.013.05 2.002.103 3.006.154l.453.232.411-.389-3.002-.027q-.237-.491-.48-.982l.851-.155-1.723-.068c1.149-.164 1.972-.18 2.98-.044s.581.041 1.574.016c.531-.014 1.235.144 1.889.064.086.365-.329.683-.806 1.029.357.03.725.056 1.076.09.511-.134.063-.25.29-.46.043-.039.669-.369.974-.46.554-.166 1.981-.368 2.773-.34.019.082.019.166.033.249.764-.176 1.499-.15 2.353-.2.544-.031.694-.17 1.308-.173 1.026-.005 1.727.176 2.758-.09-.271.136-.559.268-.838.403a9 9 0 0 1 1.958.054c.146.019.233.025.386.029.074-.098.154-.195.231-.293l3.014-.224c-.25.284-1.101.651.46.61l-.455-.485 2.126-.198q.216-.132.433-.261c-.065.126-.15.258-.201.38.235.13.781.028 1.016.11.496.176.264.376 1.383.317-.474.168-.075.166-.102.313-.027.148-1.185.461-1.592.302.26-.114.569-.225.83-.341-.462.037-1.316.093-1.668.176.075-.01.445-.275.727-.32-.177.013-.378.04-.561.059-.146-.031-.286-.065-.436-.095-.609.16-1.043.523.27.356-.353.083-.25.239-.686.27-.961.067-1.433-.128-2.344.086.115-.111-.432-.414-.849-.342-.418.073-.525.193-.888.274.378.156.735.308 1.104.463l1.067-.285.237.493.85-.278.655.167c-.894.392 1.019 1.073-.65 1.306-.186.026-.776-.117-.992.127.119.13.309.277.453.414l.841-.02q-.313.196-.628.393-.998-.53-1.992-1.06l-.415.389c-.995.038-1.665-.11-2.583.086l-.032-.626c-.466.043-.681-.039-1.076-.06-.165-.01-.28.09-.409.084a8 8 0 0 1-1.751-.292c-.06.21-.124.421-.184.632l-1.299-.207q-.399.64-.799 1.28l-.458-.236c-.897.197-1.461-.1-2.356.077-.341-.106.391-.27.604-.333.33-.096.579-.002.85-.114.27-.113.279-.357.873-.446-.276-.12-.548-.23-.823-.345l.362-.326c-.64.138-1.031.051-1.725.057.086.232-.035.411-.839.528-.28-.345-1.037-.592-.909-.968-.451.23-1.024.582-1.446.783-.422.202-.69.254-1.081.427.29-.014.569-.018.856-.028.089.34-.284.67.051.997-.864-.082-.674-.396-1.735-.318l.445.233-1.708.308c-.053-.253-.22-.39.84-.406l-.446-.358 1.068-.154c.359.07.724.138 1.082.208-.17-.335-1.073-.54-.857-.904.051-.085.988-.248.795-.346-1.621.03-2.063.398-2.107.821l-1.284.042q.1-.128.203-.254c.413.13.846.13.63-.09a3 3 0 0 0-.464-.334c-.374-.184-.795-.275-1.491-.288q.325.056.643.11c.338.49.995.694-1.25.788q.009.188.019.375c.427-.098.858-.194 1.282-.294.206.474-1.073.462-1.929.837-.118.053.045.384-.176.477-.603.004-1.046-.28-1.509-.3-1.094-.047-1.77.2-2.805.199-.103-.354.802-.271 1.71-.306.136-.295.256-.593.403-.885.461-.017 1.625-.024 1.622-.258-.003-.127-.583-.244.072-.425-.6.014-1.153.038-1.735.056l-.191.506-1.946-.185.883.471-1.284.044-.84.527c.358-.474 1.128-.808-.045-1.188l1.472-.483c.794.144 2.367.395 2.363-.083-.865.185-1.495-.087-2.35-.045-1.439.07-.92-.003-2.364-.033-.404-.008-2.279.283-2.782-.048-.293.098-.439.182-.675.275l2.154.054.029.374.634-.13.659.336c-.794.06-1.623.128-2.413.185-.788.058-1.536.105-2.305.159.473.183 1.25.166 1.928.128.572-.031 1.492-.45 1.876-.293.555.226-1.578.603-.741.874-.448.022-.87.03-1.307.046.136-.088.293-.176.413-.264-.802.016-2.273.006-2.762-.15-.558-.18.013-.217-.366-.444-.323-.195-1.37-.528-1.883-.736.063.156.155.327.231.489l-.854.153c.434-.056.844-.113 1.295-.168.016.223.987.478-.319.626-.355.04-2.016-.15-2.637-.027-.073-.084-.034-.162-.064-.243-.708.023-1.421.044-2.128.068-.132-.102.637-.232.747-.341.043-.043-.297-.057-.234-.117.19-.179.882-.238.727-.459-.414.222-.836.445-1.253.667-.431-.069-.871-.138-1.307-.206l.441.411-.406.338-1.291-.082-.015.247c-.668.01-1.382.201-1.923.07l.225.296c-.933.284-2.291.69-2.148.017q-.533.142-1.062.286.099-.254.194-.507l-1.295-.082c-.024.175.012.337.242.493.322.218 1.056.333 1.095.588-1.142.052-1.534-.313-2.393-.4-.599-.061-.963.07-1.512-.035-.455-.087-.546-.314-1.079-.398-.802.05-1.037.185-1.061.408h-.013l.001.002c-.284.003-.565.023-.848.03l-.027-.375-1.72-.069c-.095-.233.039-.268.845-.279l-.457-.606q-.86.03-1.717.056l.836-.528c-.57.1-1.134.208-1.707.306.034-.245.153-.617-.662-.712s-.539.129-.66.251c-.419.021-.846.033-1.27.05-.119.299.522.408.937.643q-.013.227-.027.454c-.297-.114-.589-.229-.889-.343l-.833.022q-.017-.186-.032-.372l-2.135.329q-.314.384-.625.768-.121-.248-.244-.492c-.292-.007-.565.046-.861.018-.026-.004-.018-.104-.216-.096-.199.007-.172.102-.209.11-.216.05-.374-.007-.595.043-.693.157-1.039.318-1.968.303.21-.127.348-.158.849-.154l-.457-.61 1.293.081c-.372-.158-.198-.245-.023-.43-.47-.166-.963-.175-1.704-.143q-.02-.12-.043-.24l-1.27.04c.008.125.008.249.02.375 1.248-.278 2.293-.003 1.054.205-.508.086-1.084-.01-1.667.083-.505.08-.793.297-1.514.286.146.205.304.404.457.607l1.293-.043c-.002-.083-.011-.166-.011-.25.285-.003.57-.022.855-.029l-.835.345.844.344-1.022.472c-.66-.242-1.469-.147-2.401-.23l-.385-.115.337-.137c-.452-.17-.951-.175-1.694-.13.034-.38.284-.574 1.516-.803.265-.049 1.205-.108.807-.275l-1.654.172c-.237-.03-.474-.064-.709-.092.143.14.008.596-.854.38-.087-.022-.154-.334-.65-.324-.361.082-.709.19-1.063.282q-.267-.067-.533-.136c-.422.202-.458.314.117.463l-.994-.016-1.99.304 2.139-.072-.832.53q1.061-.224 2.125-.447l-.83.594-1.288-.022 1.735.445-2.579-.166c-.511-.275-1.038-.55-1.557-.825l-1.501.175-.461-.611 2.159-.073c-.022.252-.182.416.886.347-.715-.343.171-.58.813-.905-.702.107-1.427.215-2.144.322l-.017-.374c.884-.07 1.327-.205 2.156-.073-.013-.086.006-.164-.024-.253-.338.081-.868-.077-1.028-.066-.759.05-1.517.415-2.117.413-1.426-.004-.174-.615-.337-.689-.57-.256-.948.146-1.033.241-.23.26-.032.414-1.073.418l1.735.191-3.01.102c.48.254 1.109.361 2.162.304-.053.318.19.56.904.782l-1.286-.021c.033-.214-.029-.358-.676-.462l-.435.12-.223-.238c-.564.164-1.126.332-1.687.494 1.149.188.478-.277 1.491-.224.644.033.728.291.668.462-.285.057-.569.104-.854.157 1.399.09 2.483.05 3.873-.131.018.204-.725.127-1.079.293-.318.15-.197.398-.812.513-1.317.145-.191-.3-.296-.33-.788-.216-1.871-.275-2.76-.436-.002.13.011.251.015.377-.292-.069-.563-.129-.869-.203-.458.212-.856.025-1.247.054-.859.062-.621.439-1.528.52-.07-.16-.157-.328-.234-.49-.495.095.171.255-.64.206-.415-.025-.837-.054-1.293-.017-.069-.364.292-.725-.698-.976q-.962.188-1.92.377l1.287-.043-.332.136c.721.189.881.367.805.66l-1.708.062c-.005.081.002.165-.009.245-.596.089-1.052-.047-1.522-.057-.64-.013-.838.174-1.465.156-.046-.247-.214-.387.816-.406q.21-.379.416-.758c-1.121.034-2.955.374-2.986.73l-.654-.098c-.282.132-.555.265-.845.397-.598-.134-.796-.207.037-.368.954-.183 1.699-.162 1.431-.557-1.802.051-1.859.652-3.57.724-1.328.056-1.451.213-2.732.348-.664.07-2.005.147-2.874.091-.862-.056-1.297-.292-2.403-.147l-.899-.594.853-.033-.015-.497 1.083.195c.786-.184 1.503-.013 2.391-.062-.154.253-1.039.159-1.521.062l-1.06.4c1.072.006 2.168.01 3.229.015l1.052-.66-1.913.067-.68-.354c.878.054 1.728.11 2.588.163l-.029-.625c-1.034.033-1.966.16-3.009.102l-.62.646c-1.506-.093-.991-.301-.252-.615-.562-.04-1.62.21-1.908.302-.288.091-.082.215-.24.252-.869.208-1.961.127-2.755.362.204-.218.407-.43.612-.647l2.142-.135c-.093-.325-1.34-.175-1.939.002-.075-.08-.146-.161-.223-.242-.345.01-.662-.02-.844.094-.079.05-.336.22-.325.247.149.286.35.3-.489.54q.217.144.432.286l-1.274.17q.206-.195.408-.39c-.559.082-1.148.165-1.719.247l.863-.092-.397.764-1.307-.145.857-.152-1.739-.442.405-.326.871.096q-.007-.187-.018-.375a16 16 0 0 0-3.441.118l.012.375-1.064-.09-.646.21.861.096-1.909.379-.23-.242-1.257.173c-.285.216-.576.433-.855.65-1.267-.089-.208-.253-.506-.484-.041-.03-.943-.005-.804.103-.023.06.004.115-.002.174l-.862.029-.026-.246-2.563.083c.349.11.717.218 1.057.331l-.013.001.002.001c-.465.049-1.232.149-1.615.184-.385.035-.383.004-.696.026.153-.11.278-.215.419-.324-.579-.164-1.416-.103-1.299-.398-.444.043-.92.202-1.282.294-.075-.038-.148-.081-.224-.116-.193-.003-.172.117-.205.123-1.093.212-2.083.038-3.233.12l-.451-.238.238.492-1.286.044c.098-.387-.237-.662-.902-.97l1.705-.184-.445-.36c-.576-.021-1.14-.045-1.721-.067-.068.149-.383.305-.395.453-.01.148.379.303.657.413.484.188.804.148.013.377-.646-.146-1.281-.29-1.949-.435l.001.372-.835.036c.004.122-.006.25.007.368-.822.025-.57-.233-.937-.321s-.916.04-1.446.013c-.268-.014-.415-.117-.935-.076-.797.062-2.208.523-3.125.479-.224-.287.849-.6.39-.829.275-.07.555-.143.828-.211.866-.006.209.302-.02.416s-.844.245-.795.362c1.422-.06 2.65-.246 2.534-.712l1.727.067-.462-.61c-.602.02-1.034.188-1.505.051-.334.104.662.337-.449.256-.145-.01-.985-.217-1.015-.26-.21-.304 1.37-.266 1.216-.613-.671.006-.212.178-.667.27-.623.125-1.135.269-1.858.318l.015.498-.864-.034.411-.45-.836.017c-.026-.078-.022-.157-.065-.235-.931.034-2.479-.014-2.931.285-.454.299 1.508.108 1.934.23.364-.005.686-.01 1.036-.017q.227.148.459.294-.207.225-.413.452l-.891-.347-.858.094-.238-.431c-.277.133-.572.271-.836.402-.637-.059-.365-.23-.737-.334-.373-.104-1.562-.105-2.065-.07-.027.084-.021.161-.036.243l-.793.041c-.206.252-.176.535-1.289.537l-.236-.366-1.093-.09c.57-.142 1.149-.29 1.719-.43-.737.087-1.371.297-1.98.419-.797.16-1.56.14-1.463.445-.677.085-1.783-.126-2.372-.151s-.936.04-1.477.031c.638-.197 1.202-.306 2.104-.326.009-.08.022-.157.031-.237 1.675-.152 1.393-.566-.265-.492-.357.015-.303.26-.607.328-.429.04-.855.07-1.282.106-.101.222-.458.411-.406.636a12 12 0 0 1-1.313-.081l.006.372c-.875.044-1.269.168-1.276.422l-1.72-.068.339-.323-1.275-1.018c-.779-.001-1.251-.151-1.903.054-.151-.16-.29-.319-.45-.48-.679.21-.732.226-.177.448.463.181 1.01.46 1.707.565.419.064.561-.136.865-.027-.141.105-.275.217-.413.325l-1.092-.208c-.987.001-1.372.284-2.345.323-.002-.057.001-.114-.001-.172l-1.313-.034.451.36-1.296.044c.015.165.008.336.032.498-.76.062-.178-.297-.699-.216-.94.147-2.164.15-2.92.454-.657-.205-1.208-.168-2.159-.188-.743-.016-1.904-.052-2.584-.032-2.128.065-3.948.057-6.086.084-1.363.017-3.192.224-4.02-.18-.503-.253.919-.12.796-.338-1.373-.062-1.963-.375-3.476-.262l1.73.069c-.134.17-.275.342-.404.513-.608.027-.92-.052-1.52-.08-.373-.016-.8.067-1.254.029-.532-.044-.755-.26-1.514-.183-.006.08 0 .166-.001.249-.515-.024-1.016-.05-1.534-.073-.203.077-.733.161-.391.257.798.222 1.963-.28 1.945.192l-4.938.157c-.754-.144-.706-.342-.673-.6-.141.085-.27.181-.44.26-1.212.217-2.382-.188-3.19-.224-.81-.036-.787.217-1.555.13.155-.162.27-.342.408-.51l-1.208.351c.13.1.267.2.391.301-.28.018-.76.017-1.024.02-1.047.011-1.368-.052-2.329-.15-.282-.03-1.08-.017-1.398-.09.08.29-.305.483-1.12.643l-.128.023c-.006-.167-.017-.334-.023-.5q-1.323.167-2.606.332l.848-.279q-.337-.238-.667-.477l.232.369-3.415.109c.003.125.012.25.017.375l-1.312.041c.395-.2.043-.3-.024-.499l1.1.079c.354-.112.736-.225 1.066-.336-.273-.096-.583-.19-.878-.284.605.022 1.145.046 1.714.07q-.42-.052-.84-.1-.014-.188-.025-.373c-1.19.04-2.189.354-3.254.104l.25.742c-1.055.074-1.42-.07-2.131-.245-.538-.124-.944-.218-1.3.048-.386.29.538.019.868.09-.55.144-.299.288-.653.465-.39.196-.854.198.035.37q1.194-.288 2.333-.575c.051.25.22.387-.806.405l-.001.373-2.158.063c-.003-.081-.03-.165-.019-.245-.94-.023-.735.19-1.603.282-.45.048-1.3.193-2.084.166-.765-.027-1.723-.318-2.74-.122.252-.142.547-.269.818-.405l-1.496.293q-.764-.037-1.508-.076l.448.236-1.721.053.402-.513-.641.139c-.002-.082 0-.163-.003-.244l-1.926.054-.04-.24-1.07-.09c-.977.328-2.339.318-3.638.475l.678.357 1.074-.157q.01.187.018.375l-1.09.147q-.438-.103-.866-.207c-.761.102-1.56.205-2.36.309l.207-.256q-.327.008-.647.018-.107.129-.21.258c-1.94.087-3.778-.117-5.578.268-1.337-.307-2.672-.112-4.412-.114-.432 0-.897.144-1.359.02-.024.085-.013.167-.025.251-.67-.064-1.328-.126-1.945-.194-1.266.41-1.708.241-3.072.08-.73-.094-1.32-.177-2.16-.214-.405-.017-.023.395-1.008.247-.026-.158-.014-.332-.025-.496-.708.133-1 .108-1.303-.106.84.003 1.425.034 1.29-.269l.83-.02c.125-.236.567-.332-.22-.491-1.202.104-2.422.205-3.64.296-.204-.3 1.407-.594 1.695-.891-1.108-.006-1.39-.187-1.317-.487a2.6 2.6 0 0 0-1.043.129c-.636.184-.504.407-1.524.363.082-.124.147-.242.242-.368-.554-.165.015-.304.101-.428.054-.123-.436-.13-.555-.205-.143-.11-.182-.18-.29-.228a.8.8 0 0 0-.214-.056c-.062-.003-.306-.068-.114.002q.142-.276.277-.556c-.422-.115-.169.028-.01.063a1.7 1.7 0 0 1-.125-.384c.784-.034 1.98-.088 3.007-.085.295 0 .683.079.836.086 1.57.057 1.933-.032 3.58-.134.306-.02 1.332.146 2.02.062.238-.03.425-.21.965-.248.645-.046 2.043.078 2.886.052.738-.021 1.413-.145 2.13-.18q.01.125.014.25c.75-.136 1.406-.27 2.128-.407.968.01 1.845.022 2.791.032.01.083.022.162.03.246.786-.129 1.18-.024 1.929-.05s1.333-.233 2.15-.187c.287.115.573.235.864.35-.072-.163-.17-.331-.225-.491.576-.1 1.428.05 1.9.034 1.38-.046 2.386-.279 3.703-.132.485.06 1.087.356 1.459.373 1.524.07 1.697-.276 2.612-.42.532-.083.505.068.84.053 1.782-.08 3.417-.405 5.142-.495 1.8-.092 3.49.223 5.147.204 1.332-.015 1.679-.275 2.834-.083-.01-.086-.002-.167.006-.25.584-.02 1.355-.055 1.914-.067.386-.008.623.08.879.073.778-.025 1.376-.305 2.078-.271.837.041.957.284 1.992.171-.002.062.011.116.015.175l.668-.069q.22.116.443.23l.422-.258.211-.137-.215-.015-1.1-.067 1.096-.078.614-.045 1.27.032.044.24 1.26-.04c-.08-.302.417-.275 1.31-.291q.443.111.89.221-.231-.18-.459-.36c.443-.099.858-.195 1.276-.293q.75.227 1.509.452l-.23-.366c.475-.062.68.06 1.055.056.377-.004.473-.11.882-.125.607-.024 1.322-.038 1.956-.059q.014.124.022.249l.419-.014c-.002-.082.007-.165 0-.247a24.5 24.5 0 0 1 3.151-.219c3.448-.03 6.59-.347 9.908-.09a20.7 20.7 0 0 1 3.675-.366l-.885-.348 1.733.07.682.352c.205-.257.419-.515.617-.772 1.27.15.432.407.46.736 1.008-.034 2.202-.072 3.182-.11.397-.015.645.087.854.073 1.01-.07 1.69-.373 2.64-.2.405-.134.834-.267 1.243-.4.427.082.632.201 1.099.278.552.091.985.004.872.275l1.719.074q-.003-.186-.002-.372l.836-.035-.002-.372 1.312.081c.086-.294 1.221-.643 1.269-.168l-.847.091.843.037.027.372c.851.058 1.741-.34 1.684-.557l1.084.209c1.22-.229 1.64-.386 1.477-.795l1.291.089q.027.116.059.231c.509.07.998.14 1.489.21l.62-.395-.818.018q-.351-.168-.702-.34l-2.81.091c.408.352.428.484-.61.77l-.253-.741-1.477.55.206-.256c-1.161.025-1.903-.131-2.993.098.081-.382-.046-.622-1.133-.835l-1.503.298 1.304.082c.013.292.032.583.042.874-1.04-.038-2.18.006-3.182-.03-.356-.014-.438-.127-.682-.154-.706-.081-.959-.016-.892-.283-.414.057-.825.112-1.262.169.053.274.133.498-.85.652l-.034-.37-.82.013-.045-.239-.83.018-.058-.237-1.264.041q-.008.122-.02.244l-1.467.17c-.76-.137-.88-.482-1.95-.429l.191-.505-1.517.175c-.225.415 1.449.587 1.355.956-1.043-.133-1.942.09-3.033.1l.852-.216q-.565-.136-1.13-.273l-1.023.093c.732-.304 1.205-.575.172-.819l-.182.631-1.692.057-.417.513c-1.392-.177-.614-.27-.082-.56-1.207-.555.568-.27 1.126-.1.3-.005.315-.14.192-.191-.568-.243-1.66-.138-2.594-.106.148.12.303.24.454.36l-1.293.23.004.126.881.284-2.584.084c-.294-.243.924-.54 1.693-.556-.048-.32-.72-.378-1.735-.32q.008.189.019.376c-1.157-.056-2.217.088-3.431.112q-.742.462-1.479.924c-.509-.108-1.016-.22-1.515-.327.39-.044 1.057.144 1.276.015.218-.13.407-.298.42-.445-1.225.084-1.961.309-2.75.59-.48-.154-1.066-.226-1.479-.42-.265-.124-.132-.215-.932-.13.152.116.304.24.455.359l-1.525.173.242.243-1.288.039.398-.638q-.843.277-1.676.553l.189-.506-.416.109c-.218-.109-.422-.218-.655-.326l1.693-.053c-.648-.104-1.256-.21-1.932-.313-.574.21-1.572.252-1.538.537l-.814.038v.372L59.465 8l.4-.576c-.644.226-1.27.45-1.905.677q-.18.005-.374.014c-.583.027-1.223.07-1.717.045-.39-.019-.623-.174-.893-.179-.78-.015-.66-.04-1.431-.1-.598-.051-2.763.011-3.13-.23.259-.173.553-.346.834-.52-.497-.108-.78-.247-1.333-.342s-.992-.007-.863-.282c-.287 0-.558.016-.838.022-.01-.06-.018-.117.01-.18.692-.268 1.137-.387 2.352-.389.826 0 1.071.101 1.743-.177m221.526 3.872-.009.249 1.072-.097-.444-.299 1.715-.056.458.486-1.72.055q.008.187.013.376l-1.923.064-.235-.244-.412.19-1.292.115 1.242-.603-.854-.285c.874-.031 1.267-.162 1.271-.417Zm2.807.596q-.106.034-.213.069l-.654-.167.213-.068Zm2.599-.087c-.005-.079.404-.093.408-.014s-.405.092-.408.014m15.047-.492c-.004-.078.402-.091.406-.013.004.079-.404.092-.406.013m3.862-.065-.862.027-.004-.124q.431-.015.862-.028Zm7.749-.316c-.004-.079.403-.092.407-.014.004.08-.404.092-.407.014M267.2 10.438c-.003-.078.405-.092.407-.013.005.079-.405.092-.407.013m18.49-.61c-.004-.08.404-.092.407-.014.005.08-.404.093-.407.014m-38.285 1.203-.863.028c.074-.162-.259-.227-.448-.36l1.294-.042q.01.188.017.374M259 10.146l.036.242.831-.02q.007.124.011.249-.429.015-.858.028-.226-.242-.454-.485l.431-.014Zm60.226-1.412c.633-.224 1.371-.353 1.294.02l-.65-.095Zm-40.444.881c.089.122-.267.418-.845.403q-.01-.187-.016-.374Zm-37.408 1.495-.858.029q-.004-.063-.005-.125.429-.015.859-.028Zm61.507-2.14c.372-.14 1.448.106 1.28.17-.373.14-1.447-.106-1.28-.17m-53.772 1.63q.007.125.011.25l-.858.028c.214-.09.422-.181.633-.272Zm1.299.208-.429.014q-.01-.188-.018-.376l.429-.014q.007.188.018.376m67.957-2.109q-.43.015-.861.028-.01-.188-.017-.375.43-.014.86-.027c.005.124.014.25.018.374m4.265-.539c.253-.078-.163-.34.871-.247-.011.304-1.436.72-2.556.703-.005-.165-.016-.337-.021-.497.57-.019 1.119.223 1.706.041m-56.746 2.134c-.471.042-.85.002-1.287-.02-.439-.02-.894.002-.876-.159q.859-.028 1.716-.057l.426-.264q.012.25.021.5m-29.697.367c-.306.179-.502.321-.411.514l-1.292.042-.023-.5q.862-.03 1.726-.056m6.897.27-.87-.222q.429-.015.858-.028.007.124.012.25m7.755-.326c-.003-.079.402-.091.405-.013.004.08-.402.092-.405.013m53.75-1.71c-.058-.419 1.58-.28 2.568-.333q-.542.205-1.082.408Zm-13.351-.063c-.3.18-.504.322-.406.515l-.429.014q-.013-.25-.023-.5Zm-52.012 2.035c-.005-.078.4-.091.405-.013.003.079-.402.092-.405.013m5.584-.189c-.004-.078.405-.092.407-.013.004.079-.404.092-.407.013m-27.96.886-2.171-.179 2.155-.195q.01.188.016.374m113.252-5.118c-.4.029-.042.19-.45.26-.248.043-.557.129-.877.144-.873.041-1.166-.178-1.875.136.281.01.569.025.854.037q.017.372.032.744l-.848.093c.528.164.328.346 1.302.27-.017-.096-.488-.136-.239-.238.605-.249.829-.151 1.203-.49.347-.314 2.205-.666.898-.956m-106.383 4.877c-.481-.037-.744-.123-1.291-.084l-.028-.498.859-.028Zm2.157-.071-.432.014c-.037-.175-.383-.31-.452-.483h.012v-.002c.283-.003.566-.023.849-.03q.013.25.023.5m74.419-2.403c-.004-.078.404-.092.407-.013.004.079-.404.092-.407.013m3.772-.434c.445.096-.501.435-.703.392-.445-.095.501-.435.703-.392m22.454-.354c.023-.252-.45-.367-1.307-.334Zm-89.032 2.683-.865.028-.006-.125q.432-.015.865-.027.004.06.006.124m5.588-.25c-.004-.08.405-.093.407-.014.004.079-.403.091-.407.013m3.866-.073-1.726.057-.004-.126 1.727-.056Zm-40.428 1.235c-.743-.112-1.121-.053-1.89.055l-2.005-.24c1.109-.347 2.184-.046 3.439-.3q.228.242.456.485m2.583-.085-.856.027q-.004-.062-.005-.125l.856-.028q.003.063.005.126m47.719-1.853c-.861.023-1.323.168-1.277.418.86-.023 1.324-.168 1.277-.418m6.857-.728c.537-.012.671.173.871.285.34.19.581.317.46.547h-.003c-1.104.079-.72-.068-.876-.282-.156-.212-.575-.321-.452-.55m-65.344 2.447c-.563.144-1.142.288-1.711.432l.843-.53Zm41.307-.958c-.004-.079.403-.092.406-.013s-.402.091-.406.013m61.501-1.845-.863.028q-.007-.126-.011-.25l.862-.028q.008.125.012.25m-89.916 2.552-.848.216q-.01-.188-.017-.375l.214-.007Zm42.161-1.104-.43.014q-.007-.124-.012-.25l.431-.014q.007.125.011.25m83.888-2.68c-.003-.08.403-.092.406-.014.004.079-.404.092-.406.013m-141.093 4.356-1.312-.331q.647-.023 1.296-.043.007.187.016.374m90.309-2.832c-.003-.079-.411-.065-.407.013.002.079.41.066.407-.013m-44.711 1.358c-.004-.079.401-.091.406-.013.003.079-.404.091-.406.013m3.011-.105c-.004-.078.403-.091.407-.013.004.079-.405.092-.407.013m5.157-.107-.428.014-.012-.25.429-.014q.007.124.011.25m-35.268 1c-.003-.078.406-.091.408-.013.004.08-.403.092-.408.013m1.727-.056c-.004-.079.406-.092.409-.013.004.079-.406.092-.409.013m49.501-1.846c.197-.056 1.174.221.739.345-.197.056-1.176-.22-.739-.345m-37.476 1.246q.004.124.011.25l.856-.029-.012-.25Zm4.286.045c-.002-.079-.41-.065-.406.014.003.078.411.065.406-.014m76.133-2.642c.36-.068.928.005 1.295.02 0 .083.009.167.012.25q-.432.015-.862.028ZM153.964 12.76l-.211.068-.645-.168q.105-.033.211-.069Zm85.196-3.08.442.299-.633.208-.657-.29q.423-.109.846-.216Zm-25.367 1.233-.869-.16.637-.209.215-.007q.01.187.017.376m-52.92 1.513c-.003-.08.4-.091.403-.013.002.079-.4.091-.403.013m42.555-1.98c-.428.107-.323.162.014.244.644.157 1.399.1 1.317.398q-1.08-.029-2.154-.056-.016-.31-.034-.621.428.015.857.034m127.753-4.039.906.593 2.574.109c-1.166-.398-1.293-.818-3.48-.702m-80.397 3.26-.858.029h-.001l-.004-.126.858-.029q.004.063.005.125m-37.454.509-1.287.043c-.011.093.381.085.342.181-.04.098-.48.19-.327.316l-1.912.194-1.1-.403c-.098-.241.245-.166.847-.216l.22.118 1.493.075c.146-.09.283-.175.437-.265h-.004c.049-.105.399-.16.418-.264l.43-.015Zm62.39-1.46.004.124.86-.028-.003-.125Zm-51.198 1.33q.004.124.011.248c.43.01 1.408-.129 1.284-.292Zm5.687-2.942c-.299.091-.307.318-.674.378-.366.061-.979-.226-.797.1v.001c.183.326.613.155 1.244.302.29.067-.142.344.486.394-.432.086-.842.157-1.266.237q-.181.348-.365.698c.917.242 1.564.53 2.989.461-.077.07-.511.202-.417.264l1.712-.182q.004.125.012.25l2.153-.072q-.001-.063-.005-.125l-2.16-.053-.012-.25c-.558-.006-.799.103-1.283.168.093-.221-.072-.355-.669-.478l-1.069.098 2.136-.26c-.297-.156-.582-.314-.885-.47.737-.01.428.272 1.148.33.385.031 1.203-.03 1.664-.048.459-.018.701.01.647-.148-1.381.065-.673-.407-1.322-.644l1.287-.106-.458-.356-1.504-.068c-.557.163-1.083.29-1.05.525l-.862-.034c.091-.237.897-.342.832-.59-.982.071-.914-.178-1.512-.322m71.091.398c-.437.127-.715.218-.631.395l1.292-.042c.068-.183-.214-.255-.661-.353M226.237 9.74q.007.187.017.374l.865-.029q-.007-.187-.018-.374Zm50.751-1.566 1.095.336 1.073-.157-1.095-.335Zm11.847-.014q-.109-.059-.221-.118l.431-.014Zm13.54-.693q.004.124.011.25c.826-.006 1.399-.056 1.706-.307ZM205.137 9.95c-.006.202.153.436.468.608l1.292.022Zm-49.232 1.923q.328.082.655.167l.002.062-1.291.041.633-.27Zm78.929-2.422.012.25.863-.03-.66-.227Zm56.794-1.507 1.287-.042-.002-.062-.652-.167Zm-147.957 4.469-.853.028q-.003-.063-.005-.125l.853-.029q.003.063.005.125m73.108-2.352q.004.062.006.126l-1.728.057-.012-.25Zm-69.686 2.173-.642.084-.024-.007.011-.002.652-.075Zm35.257-1.073c-.002-.079-.408-.065-.404.013.002.08.408.065.404-.013m142.386-4.483.867.16-.017-.375-.215.007Zm-55.489 1.814c-.003-.078-.413-.064-.408.014.002.08.412.065.408-.014m-43.882 1.34c-.004-.08-.411-.066-.407.013.002.079.411.065.407-.014m3.45-.304q.004.124.011.25l.429-.014-.012-.25Zm39.528-2.446c-.302.2-.565.389-.842.588.255.095.665.26.859.346.32.144.077.179.245.311.203-.175.417-.347.626-.521l1.709-.058c.218.328-.935.176-.798.468.046.1.881.04 1.036.15.223-.256.406-.517.622-.77.74-.089.995.147 1.514.181.807.054 1.248-.071 1.927-.17-.009.286.592.462.031.748l1.292-.043c-.561-.393-.932-.777-.92-1.22-1.102.045-1.366.25-1.267.542-1.149-.09-2.64-.503-3.888-.372-.061.127-.139.257-.19.381-.798-.093-.38-.3-.741-.464-.168-.078-.981.003-1.215-.097M163.875 11.66c-.003-.078.402-.092.406-.014.004.079-.403.093-.406.014m-29.234.931-.865.03.64-.271.001-.001.212-.007q.006.124.012.25M246.87 8.797c-.024.252.453.366 1.314.332.024-.252-.453-.367-1.314-.332m11.187-.059c-.002-.078-.412-.065-.408.013.002.08.412.066.408-.013m-37.844.973c.369-.14 1.442.103 1.278.166-.37.14-1.444-.102-1.278-.166m-91.61 2.897c-.005-.078.402-.092.404-.013.003.078-.402.092-.404.013m35.68-1.15c-.545-.003-.807.1-1.28.168l-.012-.248 1.287-.044Zm-61.051 1.945-.424.014q-.005-.125-.011-.25l.424-.015c.002.084.009.168.011.251m221.029-7.648c-1.077.003-.864.151-.842.403.143-.001.286-.011.429-.014q.226.244.452.486-.018-.437-.039-.875m-1.262.854c-.003-.078-.41-.065-.406.014.003.078.411.065.406-.014M141.93 12.095c-.185.105-.226.157-.434.015Zm123.854-3.738c-.002-.078-.411-.065-.407.014.003.078.411.065.407-.014m-43.851 1.34c-.004-.08.404-.093.406-.014.003.078-.404.092-.406.013M340.63 6.041c-.002-.08-.411-.066-.407.013.003.078.411.065.407-.013M235.679 9.047q.004.125.012.25l.852-.278Zm53.766-1.47c-.003-.079-.412-.065-.408.014.003.078.412.065.408-.014m1.288-.417-1.302-.146.859.1.033.372 1.071.08 1.916-.365-.861-.09.007.099-.855.108q-.44-.236-.882-.47Zm6.019.178c-.002-.079-.411-.066-.407.014.006.079.411.065.407-.014m-88.58 2.76c-.284.004-.573.022-.862.03.284-.093.571-.187.85-.28q.006.127.012.25m-34.872.994c-.004-.079-.41-.064-.406.014s.41.064.406-.014m92.914-3.061q.004.124.011.25l.863-.03-.012-.25Zm-150.093 4.745c-.004-.078.407-.091.41-.013.005.079-.408.092-.41.013m4.289-.079-1.279.044q-.005-.063-.005-.126l1.279-.042q.003.062.005.124m107.061-4.374c-1.376.014-1.746.39-3.003.476-.014-.081-.016-.162-.041-.244-.829-.013-1.615-.182-2.087.133-.41.274.823.115 1.22.152l.06.01c.096.031-.092.107.033.151.504.18.978.278.848.547 1.321-.034 2.161-.396 3.446-.24l.394-.765-1.286.169Zm-39.53 2.087c.088-.395-1.687-.272-2.163.012.411.025.279.285.652.276 1.288-.03.007-.51 1.511-.288m-33.115 1.185c-.004-.079.4-.092.405-.014.003.079-.402.093-.405.014m-29.674.942c-.002-.084-.01-.166-.012-.25l.87-.029Zm44.745-1.455c-.004-.079.401-.093.403-.014.004.079-.398.093-.403.014m-56.594 1.73-1.075-.089h-.002q-.006-.124-.012-.25l1.714-.058q-.315.198-.625.397m68.167-2.187-.842.156c.572-.019 1.024-.176 1.492-.055.711-.154.427-.183.278-.328-.233-.225.404-.35.326-.564-.41.266-.838.527-1.254.79m140.232-4.286 1.728.069c0-.083-.016-.166-.011-.25-.208.003-.411.018-.619.024l-.469-.239Zm-203.848 6.256c-.002-.079.402-.093.405-.014.006.079-.401.092-.405.014m5.974-.514c.09.122-.268.419-.846.404q-.011-.188-.019-.375Zm-20.605.884c-.004-.079.398-.093.401-.014.004.08-.398.092-.401.014m36.914-2.06.882.345-1.728.058q.007.188.017.374l3.047.149c-.092-.146.285-.23.187-.383h.002c-.152-.237-.761-.458-.678-.727-.582.06-1.152.123-1.729.184m34.875-.246 1.302.143-.006-.125h.002l-1.085-.088Zm-25.451-.95c-1.439.133-1.392.593-2.995.603l.886.471c-.93-.061-1.797.037-2.746.107-.202.015-.264.11-.539.116-.801.017-1.507-.23-1.406.187l1.703-.058.031.624c.537-.106.713-.124 1.261-.044l.04-.242.808-.04q.008-.183.017-.368.405-.021.811-.04c.007-.081.011-.162.02-.242l.861-.035-.405-.168.605-.208 1.088.088c-.925-.301-.921-.39-.036-.75Zm165.905-3.54a3 3 0 0 0-.623.017c-.32.149.294.286.623.354.356-.096.714-.189 1.063-.285h-.003c-.505.055-.725-.037-1.06-.086m9.667-.191q.004.125.011.25.43-.015.86-.028-.004-.124-.011-.25ZM226.214 9.24q-.648.023-1.295.043-.004-.062-.006-.125l1.295-.043Zm-68.857 1.456c.101.346-.483.6-1.692.683l-.021-.499Zm178.549-4.878c-.004-.079.401-.092.406-.013.004.078-.404.092-.406.013m-198.744 5.938q.001.063.005.125l1.279-.23-.218-.056Zm-33.536 1.007c-.451.003-.73.044-1.055.146q-.994-.147-1.98-.295l3.021-.1q.01.125.014.249m12.91-.374c-.004-.079.408-.092.411-.014.005.079-.408.092-.411.014m212.873-7.05c-.067.336-.013.598 1.32.583l.838-.527Zm2.167.494c-.002-.079-.411-.066-.407.013.004.078.411.065.407-.013m-143.213 4.312q.001.062.005.124l.854-.029-.005-.124Zm-66.256 2.12-.86.028q-.007-.124-.011-.25l.214-.006Zm113.125-3.578q.001.063.005.125l1.727-.058-.004-.125Zm2.583-.211c.002.083.009.166.011.25l.43-.015q-.004-.125-.011-.25Zm18.048-.729c.183.436 1.357.347 2.608.289q-.008-.187-.018-.375l-1.313-.022ZM179.75 10.31q.002.063.006.125l.855-.029-.006-.124q-.429.015-.855.028m137.198-4.318.873.221-.012-.25Zm-97.625 3.23-.857.029c-.002-.083-.009-.167-.011-.25l.856-.03ZM7.689 15.327q-.006-.124-.01-.25l.847-.015a50 50 0 0 0-.837.265m84.64-4.19c.732.27.07.338-.341.581-.209.124.22.21-.106.299-.328.089-1.01.065-1.209.24.281.133.592.271.885.407l.625-.136c.8.14.293.247.24.483q1.065-.225 2.148-.45l-.015-.37-.877-.098 1.3-.23q-1.103-.12-2.192-.242l2.165-.258-1.312-.02.425-.264c-.583.02-1.157.037-1.736.058m107.626-1.509c-.063.105.146.119.459.117q-.23-.06-.459-.117m85.577-2.987.62.101q.133.185.263.371l.431-.385.846-.032a5 5 0 0 0-.014-.25Zm8.612.156c-.004-.078-.411-.065-.406.014.002.079.41.065.406-.014m-44.309.902.023.499.857-.029-.452-.485q-.214.007-.428.015m54.578-2.805c.03.277.664.362.375.688-.192.216-1.784.71-1.588.979 1.051-.3 1.682-.229 2.993-.219.039-.19-.473-.087-.879-.162-.601-.11-.428-.35-.444-.546q.44.17.877.346.196-.346.391-.694c-.574-.131-1.163-.256-1.725-.392m-225.33 8.43-1.29.044-.006-.125 1.29-.043q.005.062.005.125m69.237-2.445.016.374c.624.002.903-.09 1.288-.23-.401-.116-.686-.188-1.304-.144m-.43.327c-.005-.079-.411-.065-.407.014.002.078.411.065.407-.014M83.375 13.12c-.005-.078-.407-.065-.402.014.002.078.405.065.402-.014m243.034-7.497.653.166q.106-.034.213-.069l-.655-.166q-.104.034-.211.07M86.366 12.46c.531.232-.163.495.901.595q.002-.221.003-.444Zm3.007-.352c-.418.078-.818.153-1.25.231.153.183.307.365.452.548l1.697.07q-.65-.197-1.295-.395c-.109-.293.637-.159 1.26-.23-.06-.337.674-.566 1.249-.854h-.003l-2.14-.118Zm143.266-3.46c-.512.022-.72-.186-.828-.294-.107-.107-.046-.194-.059-.301l1.291-.043q-.2.32-.404.638m-28.428-.036c-.12.118.219.53.478.575.682.115.959-.074.861.252 1.105.067 2.134-.567 2.124-.824l-.639.272c-.943-.09-1.886-.193-2.824-.275m-70.934 2.963c-.002-.079-.415-.065-.41.014.004.078.413.064.41-.014m70.101-2.315.012.25.431-.014q-.006-.126-.012-.25Zm38.272-1.414.457.357 1.717.07c.045-.455-.751-.506-2.174-.427m2.967-.974c.037.113-.21.266-.209.375 0 .132-.19.467-.139.535h.001c.181.238.585.232.413.465.431-.06.857-.112 1.287-.17l-.444-.415 1.268-.426-.863.037c-.44-.133-.873-.27-1.314-.401m-174.57 6.374c.002.083.009.166.011.25l.424-.014-.011-.25Zm6.037.053q-.423.013-.844.027-.003-.062-.005-.125l.843-.027q.005.062.006.125m178.494-5.384.861-.029-.658-.228-.213.006q.004.126.01.25m56.771-1.992q.004.125.011.25l.432-.014-.012-.25Zm6.45-.21c.061-.256-.218-.3-1.116-.21-.801.08-1.466.28-1.45.544 1.042-.01 1.404-.019 1.27-.35.433.004.859.012 1.296.016M76.94 13.209c-.004-.08.398-.093.403-.014.004.078-.4.092-.403.014m33.558-1.052c-.066.035-.014.112-.204.114-.189.001-.197-.057-.224-.1.148-.003.286-.014.428-.014m74.376-2.77c-.256.394 1.456.25 2.072.31s.508.146.983.212c-.329-.197-.607-.396-.916-.593Zm-164.56 4.27c-.807.212-1.8.16-2.785.196.74.223 1.365.583 2.173.753.391.08.404-.024.663-.07.064.075.142.159.21.237l.868-.214-.483-.732q-.327-.085-.647-.17m139.196-2.973c-.002-.079-.413-.064-.41.014s.414.065.41-.014m39.549-1.903c-.074.445 1.068.498 2.176.678.046-.435-.931-.559-2.176-.678M31.368 14.408c-.005-.08.39-.09.394-.012.003.08-.392.09-.394.012m216.315-6.45c-.004-.079-.413-.066-.408.013.002.079.411.065.408-.013m-72.769.64c-.029.255-.185.406.88.347l-1.054.517-.637-.087c-.145.384-1.253.506-2.125.762.978.266 1.812.084 3.007-.04l-.449-.36c.867-.001 1.34-.106 1.926-.3l1.09.073-.446-.235 1.725-.246h.003c-.751-.215-1.581-.134-2.597-.104.08-.283-.596-.244-1.323-.326m-95.403 4.4c-.005-.078.407-.092.41-.013.004.078-.407.092-.41.014m-65.403 1.314q.004.125.01.25c.463-.052.845-.105 1.277-.156-.027.087.051.182.206.246.396.16.441.03.892.017.462-.014.58.115 1.073.056l-.018-.374c-.98.207-1.582.136-1.737-.206-.589.056-1.088.11-1.703.167m-.434.449c-.003-.079-.41-.07-.406.009 0 .079.409.07.406-.01M273.91 7.087c-.002-.079-.41-.065-.406.013.002.079.41.066.406-.013m-141.952 3.846c.192.078.345.33.668.346.623.028.998-.01 1.526.079-.088-.125-.167-.245-.25-.368-.649-.018-1.305-.04-1.944-.057M294.136 6.36l.003.125.86-.028-.003-.125ZM43.759 12.84c.036.168.092.33-.399.45-.384.096-.26-.028-.677-.007-.29.016-.656.15-1.06.122.215.204.453.403.68.606l-.242-.493 3.004-.03q-.65-.136-1.287-.273h-.004l1.701-.053q-.87-.16-1.716-.321m177.669-4.252c-.002-.08-.409-.066-.406.013.003.078.41.065.406-.013M15.75 12.523c-.988.057-.592.35-.897.495-.28.145-1.028.04-1.221.245.275.132.595.276.894.413-.757-.065-1.46-.132-2.167-.2.163.122.294.244.44.366l-1.303.03q.017.438.036.874l1.302-.03-.021-.37-.864.015v.001l-.006-.187c.44-.075.845-.15 1.255-.225l.029-.242q.52.05 1.07.1c.738-.195.817-.356.254-.571.683-.238 1.315-.393 1.2-.714m69.318.168c-.004-.079-.411-.066-.407.013.003.079.41.065.407-.013m68.414-2.051.217.055.633-.209-.217-.055Zm119.975-4.16c-1.308-.183-2.672-.22-3.854.124q.441.268.882.534l.417-.264 2.158.18c-.013-.169-.002-.332-.032-.503.285.04.104 0 .5.057.397.057.331-.072-.071-.128m44.022-3.375c-.702-.065-.715.13-.862.267-.184.17-.201.322-.629.461l1.306.27c-1.217.063-1.983-.082-2.173-.43l-.421.264-1.713-.069c-.002.083-.001.166-.005.249l-2.13-.063q-.02-.12-.044-.24l-1.278.04q-.212.316-.426.634l-.804.041c.021.05.037.098.015.148.276-.04.539-.083.823-.12.232-.121.792.043.839.09.158.16-.024.287.041.44-.289.03-.571.062-.856.093.431.069.874.138 1.298.207-.279.149-.988.207-.807.409.106.116.7.2 1.056.016.454-.233.72-.496.601-.764.971-.091 1.667.005 2.582.041v.001h.005c.063.074.233.119.396.174l-.803.339c1.638-.068 2.39-.369 2.543-.834.401.023.62.118 1.068.09l1.479-.742-.884-.59c.283-.052.574-.1.851-.154-.344-.06-.727-.237-1.068-.268M189.615 9.477q.002.062.006.124l1.706-.182q-.114-.12-.227-.243Zm-93.343 2.656.861.221-.011-.25Zm199.579-5.955.004.126.861-.029-.004-.124Zm-189.273 5.61c.002.083.009.167.011.25l.43-.015a7 7 0 0 1-.011-.25Zm32.257-.777c-.003-.079-.411-.065-.407.014.005.079.41.065.407-.014m.862-.029c-.004-.078-.412-.064-.407.014.002.079.411.065.407-.014m114.845-3.816q.007.188.018.375l.431-.014-.018-.375Zm57.226-1.506.004.125.861-.029-.004-.124Zm11.608-.757c.099-.135-.258-.408-.884-.196-.128.044-.104.334-.628.37-.295-.104-.584-.23-.88-.341-.401.134-.87.32-1.021.48-.085.093.123.11.179.181.076-.09.142-.178.214-.267l.879.348c.905 0 1.358-.109 1.961-.31l1.475.073.411-.387c-.569.016-1.137.036-1.706.049M217.133 8.608c-.003-.079-.414-.065-.409.014.002.078.412.064.409-.014m-133.782 3.7h-.003c.096.16-.23.242-.406.388l1.28-.041c.076-.127-.305-.4-.871-.347m242.598-7.045c-.005-.079-.41-.065-.406.013s.41.066.406-.013m6.014-.631c.589.552 2.08.676 2.152-.07ZM159.915 9.857c-2.442.054-1.428.538.46.485Zm-60.876 2.038-.644-.022c.544.138.908.298 1.739.256-.479-.16-.039-.207-.019-.375q-.538.071-1.076.141m1.956.08q.001.063.005.125l1.308-.044-.006-.125Zm-34.009.62q.007.188.015.377l-.862-.036 1.306.144q-.012-.25-.024-.5Zm227.988-6.45c-.003-.08-.411-.065-.406.013.002.079.41.066.406-.014M71.703 12.318c.027-.514-.88-.05-1.443-.004-.763.065-.526-.102-1.082.164-.136.069-.594.332-.422.43.727.023 1.413.039 2.13.059q-.228-.274-.452-.549c.418-.032.86-.075 1.269-.1m139.824-3.835q.004.126.011.25l.43-.015-.012-.25Zm-32.244.966c.002.084.009.167.011.25l.855-.029-.653-.228Zm1.707-.057.012.25.845-.28ZM9.954 13.279c-.377-.049-.487-.191-.83.025-.363.217-.067.433-.262.682-.152.181-.904.367-.779.582.398-.026.906-.06 1.291-.087q-.017-.47-.036-.937c.69-.013 1.456-.032 2.145-.046h-.003c-.345-.245-.752-.124-1.526-.22m72.118-.74c-.002-.079-.402-.065-.398.013s.402.066.398-.013m136.801-4.49h.001l1.484.382c.282-.129.619-.121 1.058-.158l.409-.639c-1.129.247-1.446-.025-2.579-.037ZM328.954 5.04c-.005-.078-.411-.065-.406.013.002.08.411.066.406-.013m-61.076 1.87c-.003-.078-.412-.065-.408.014.002.078.412.065.408-.014m-245.8 7.316q.205-.06.414-.12l.64.033c-.552-.14-.863-.304-1.72-.266.228.117.462.235.667.353M236.49 7.894c.626-.116.951-.206 1.512-.05q.105-.036.211-.07c-.543-.138-.913-.297-1.74-.255q.01.187.017.375m54.618-1.935.012.25.429-.015-.012-.25Zm-153.572 4.846c-.003-.079-.408-.065-.405.014.004.078.409.065.405-.014M247.66 7.458c-.003-.078-.413-.065-.409.014.003.079.413.065.409-.014m-108.838 3.303c-.005-.078-.41-.065-.407.014s.411.065.407-.014m172.93-5.476.871.222-.012-.25q-.429.013-.859.028m-196.587 6.15c-.002-.079-.412-.065-.408.014s.412.065.408-.014m37.384-1.638c-.55.206-1.088.412-1.653.618 1.062.015.703-.18 1.266-.36.231-.074.571-.071.846-.09.281-.173-.352-.283-.316-.419.076-.274.86-.475-.57-.425.152.226.282.45.427.676M344.501 4.44c-.002-.079.404-.091.407-.013.003.08-.405.092-.407.013m-119.68 2.72.88.161.017.561q-.787-.09-1.569-.183c-.629-.004-1.252-.01-1.884-.012.537.11.204.335 1.099.272.695-.049 1.173-.13 1.901-.057.014.08.021.163.034.244 1.062-.002.899-.154.846-.404l.449.36c.575-.02 1.157-.04 1.723-.058-.23-.26-.437-.41-.03-.684-.217-.056-.431-.113-.653-.169q-.21.133-.422.264l-.677-.35Zm-105.346 4.13c-.005-.079-.407-.065-.403.014.003.078.407.064.403-.014m221.084-7.061c-.595.156-.714.034-1.292.042.004.125.013.25.018.374q.642-.082 1.285-.167-.004-.124-.011-.25m-143.655 4.5c.002.083.009.167.011.25.435.01 1.412-.131 1.284-.294Zm88.168-2.697.012.25.43-.015q-.004-.125-.011-.25-.216.007-.431.015M165.495 9.729l.655.166.213-.07h-.003l-.654-.164Zm39.121-1.636c-.968.026-1.112.162-1.275.419-.38 0-.972-.1-1.291-.02l1.303.27c.011-.085-.045-.166-.012-.25.872-.045 1.309-.157 1.275-.42m-35.223 1.692q-.231-.27-.459-.543l-1.304-.022Zm1.271-.293q.434.11.866.222l-.012-.25Zm36.112-1.409c.694.09.16.276.527.411.154.056.89-.045 1.001.101.098-.028.144-.047.221-.071q-.757-.255-1.53-.511c-.075.024-.133.045-.219.07m-67.948 2.49h-.002l1.084.09q.105-.036.214-.07l-1.302-.144q.001.062.006.124m1.722-.058c1.153.003 2.329.005 3.455.009l-.435-.426c-.752-.04-1.026.028-1.358-.19-.158-.102-.275-.32-.837-.296q-.414.45-.825.903m73.973-2.195c-.005-.078-.41-.064-.407.014s.411.065.407-.014m-67.571 1.353c-1.101.186-2.097.358-2.109.76.805.133.059-.064.546-.202.486-.138 1.852-.227 1.563-.558M6.355 14.223c-.613.052-1.131.101-1.738.15-.002-.083-.008-.167-.008-.25.605-.048 1.122-.098 1.737-.15q.006.126.009.25m313.124-9.126c-.003-.08-.41-.066-.406.013.003.078.41.065.406-.013M88.084 12.09c-.002-.08-.418-.065-.414.013s.418.065.414-.013m-28.835.756q.001.063.005.126.425-.016.854-.028l-.006-.125Zm-33.125.772q.004.124.013.25l.866-.025q-.336-.115-.665-.231-.107.002-.214.006m213.793-6.09-.428.014-.012-.25.429-.014q.007.125.011.25m-107.549 3.013h.002q.006.124.012.25l.854-.28ZM288.94 5.967c-.004-.079-.412-.065-.408.014.003.078.412.065.408-.014m-46.893 1.178h.002l.444.298.847-.278-1.081-.088ZM72.555 12.038l-.415.326 1.305.145h.003l-.46-.486ZM210.22 8.34c-.002-.079-.409-.065-.405.014.003.078.409.065.405-.014M77.954 12.36c.258-.12-.604-.306-.01-.367.706-.073 1.296-.01 1.942.053-.439-.546-2.047-.097-3.453-.261.504.191 1.014.386 1.521.575m2.375-.264.665.165.215-.069q-.334-.082-.667-.167Zm37.855-1.325q.007.187.019.374l.85-.028q-.007-.187-.019-.375Zm1.294.33 1.282-.043h-.002l-.002-.062-.65-.166Zm-65.82 1.802q0 .062.004.125l.85-.028-.006-.125Zm-38.3.628c-.04.242.546.33 1.11.473.742-.194.66-.384.614-.641-.534.055-1.172.113-1.725.168m106.244-2.563c-.004-.079-.41-.065-.406.014.003.078.41.065.406-.014m-98.039 2.57c-.56-.222-.602-.504-1.726-.111.488.127.99.264 1.5.394.357-.07.716-.15 1.082-.214-.08-.172-.557.05-.856-.068m37.822-.948-.657-.166-.215.006.018.375Zm68.175-2.204q-.1.191-.203.382l1.284-.168-.455-.485Zm-31.834.947c-.432.127-.708.219-.623.396q.426-.015.854-.028-.009-.188-.019-.375Zm1.078.09c.002.082.009.166.011.249l.43-.014c-.002-.084-.008-.167-.01-.25Zm-63.857 1.561-1.526-.079-.02.244q-.421.079-.833.158l2.162-.062c.315.073.579.147.872.22l-.444-.485 1.258-.227-.853-.162c-.208.131-.41.262-.616.393m102.14-2.54c-.004-.078-.409-.064-.405.014s.408.065.405-.013m34.821-1.621-1.275-.018 1.093.526-.017-.375 1.069-.036-.403.514c2.214-.278 1.457-.83-.467-.86ZM40.313 13.197l.005.124.857-.026q0-.063-.005-.125Zm275.465-8.668-.003.001c.423 0 .271.152.254.24-.889.035-1.245.286-2.132.32l-.001-.001h-.004c-.011-.227.526-.327.838-.527l-.871-.222Zm-99.536 3.296.012.25.865-.03q-.004-.124-.011-.25Zm44.089-1.352-.632.272.856-.029q-.004-.125-.011-.25ZM81.644 12.115l.833-.215q-.323-.083-.643-.167l-.209.006Zm35.671-1.127c-.002-.079-.416-.065-.411.014.002.078.415.064.411-.014m72.686-2.4c.002.082.009.166.011.25l.428-.016c-.002-.083-.009-.166-.011-.25Zm5.651-.314c-.436.125.545.4.743.344.437-.124-.546-.4-.743-.344M61.362 12.09c.592.141.465.334.46.548l.878-.029c-.424-.202-.448-.438-1.124-.589Zm-30.497 1.266q.002.063.005.125l.86-.026-.006-.125Zm279.591-8.343c-.002-.079.405-.092.408-.013.004.078-.404.091-.408.013M179.691 9.061l1.273-.23-.864-.159Zm-5.743-2.682c-.788.015-1.437-.175-2.146.01l1.726.13c.04.14-.606.228-.413.39l-.857.028.002.062.867.159-.012-.25.43-.015.018.375 1.287-.107c-.593.181-.368.36-.405.578-.356.001-.674-.025-.845.097-.325.234-.498.453-.408.695 1.042-.2 1.125-.47 1.253-.792 1.151-.013 1.053.231 1.728.371 1.427.296 1.963.069 2.167-.377 1.355.259 2.112.23 3.431-.117-.166.213.622.283.828.413.203.13-.301.185-.322.27-.036.15.37.198.356.331-.007.07-.36.098-.325.156.087.14.809.182 1.25.143-.376-.225.541-.477.322-.68-.352-.327-1.235-.397-.824-.804.883.129 1.086-.172 1.928-.091h-.002l1.497-.336-.867-.086-.009.174-2.558.216c-.041-.247-.566-.377-1.313-.455v.246l-1.279.048.418.172c-.131.11-.244.025-.384.016-.625-.04-.774.013-1.297.103.276-.217.548-.435.824-.653-.496.1-.982.2-1.485.3l-1.534-.322-.371.45.838.285-2.167-.051q.203-.258.409-.515l-1.725-.067Zm12.61 2.324.007.126.865-.03q-.001-.062-.005-.125Zm-98.49 3.013c-.004-.079-.418-.065-.414.014.002.078.417.064.414-.014m-32.717.882.007.125.868-.028-.006-.125ZM277.33 5.973c-.004-.078.404-.092.408-.014.004.08-.405.093-.408.014M196.441 8.12c.196.135.533.195.451.36l.856-.216c-.402-.115-.685-.188-1.307-.144M42.459 12.755q.006.125.014.25c.285-.092.596-.186.86-.277ZM309.135 4.93c-.003-.078-.412-.065-.407.014.003.078.411.065.407-.014m13.34-.62c-.095.158.874.27 1.301.209q-.004-.125-.011-.25ZM18.802 13.506c-.004-.079-.422-.068-.417.011.001.079.42.067.417-.011m293.123-9.104c.784-.162.88-.17 1.51.014l-2.565.396c-.147-.257.413-.277 1.055-.41m-198.946 6.356c-.005-.078-.408-.065-.405.014s.409.065.405-.014m2.356-.517c-.604.163-.705.302-.624.522l.432-.015.412-.451Zm204.117-5.77c-.004-.078-.41-.065-.406.014.002.078.41.065.406-.013M85.003 11.129c-.009.084.03.166.012.25-.287.016-.573.016-.858.029-.069.238.063.272.872.222.01-.084-.03-.166-.011-.25.286-.016.575-.016.863-.029.07-.238-.068-.272-.877-.222m146.704-4.074q.002.062.005.124l.86-.029-.006-.124Zm-72.699 1.96.017.374.868-.03c.077-.127-.308-.399-.885-.345m-32.242 1.217.007.125.851-.03q-.002-.06-.005-.124Zm109.628-3.233.056.02q-.05.009-.1.014Zh-.001q-.412-.163-.826-.325l1.293-.043Zm-38.672.703q.23.242.454.485l1.276-.044c-.075-.16-.813-.3-.397-.481.116-.05 1.318.01.573-.152-.615.065-1.27.128-1.906.192M65.423 11.393c-.381.116.264.138.163.303-.065.109-.565.305-.339.452 1.142-.21 1.1-.532.176-.755m101.754-2.346c-.003-.078-.412-.064-.409.014.003.08.413.065.409-.014m-28.394.652q.005.125.012.25l.431-.015-.012-.25Zm110.151-3.16c-.005-.078.401-.092.405-.013s-.403.092-.405.014m-30.989.727c-.887.01-1.619.253-2.375.08q-.105.037-.212.07c.876.238 1.996.21 2.587-.15m-74.077.447 1.504.113 1.065-.138-.384.2.616.158c.209-.046.414-.092.625-.137-.089.225.57.244.802.411.068.05-.271.079-.21.133.131.116.418.157.326.302l-1.52-.196-1.298.415c-.351-.03-.687-.06-1.049-.088.247.173-.292.286-.282.447.011.162.562.239.323.427.297-.03.57-.06.858-.09l-.442-.299c1.029-.01 1.686-.068 2.346-.33l.213-.008c-.051.178.627.474 1.318.457-.176-.381.497-.774-.054-1.124l3.456-.118h.004c.052-.336-1.04-.319-1.974-.312-.599.033-1.068.23-1.701.177-1.078-.09-.229-.48-.262-.731 1.008.027 2.584.249 2.593-.214l-1.323-.033.008-.173-1.068.286-.659-.227c-.07.163.276.223.448.36-.284.002-.565.016-.848.03q-.003.125-.007.248c-1.447.019-1.335-.402-1.962-.683Zm185.04-3.671c-.005-.079-.411-.066-.407.012.002.079.41.066.407-.012m-207.336 6.301c-.005-.078-.411-.064-.406.014.003.079.41.065.406-.014M24.17 13.048l-.659-.044.665.169c.214-.069.449-.137.647-.205-.2.027-.436.053-.653.08m106.632-3.58-.637.21q.003.062.008.124l1.307.269-.462-.61Zm36.365-.857c.869.095 1.749.191 2.613.287-.428-.07-.872-.139-1.308-.207l.862-.154-.664-.227q-.754.15-1.503.301m-59.363 1.76q.006.187.019.374l.433-.014q-.007-.188-.019-.375Zm-61.938 2.133c.167-.063-.912-.31-1.277-.17-.167.062.9.31 1.277.17m67.528-2.01c-.004-.079-.41-.064-.406.014s.41.064.406-.014M6.321 13.224q.003.124.009.25c.817-.003 1.32-.15 1.279-.398q-.682.075-1.288.148m183.016-5.49c-.926.032-1.341.067-2.236.192-.503.07-.742.056-.559.278l2.16.053c-.004-.125-.013-.25-.018-.376l1.711.068c.125-.293-.291-.243-1.058-.216M294.492 4.72l-2.136.32-.018-.374ZM82.85 10.823c.003.083.01.167.012.25l.825-.02q.019.121.039.242l.428-.014q-.227-.242-.453-.486Zm34.866-.599c-.005-.079-.417-.065-.412.014.002.079.416.065.412-.014M52.347 12.07q.001.062.005.125c.576-.06 1.118-.12 1.686-.18l-.223-.242c-.495.098-.964.197-1.468.297M154.68 8.662q.222.241.448.483l.614-.524-.251-.049Zm-98.497 3.346c-.006-.078-.416-.065-.411.014.002.078.415.064.411-.014m4.293-.327c.003.083.01.167.011.25h.003l.432-.013c-.002-.084-.01-.167-.014-.25q-.216.005-.432.013m228.401-7.275c.809-.086.653.006.921.132.384.18.903.2.833.436-.431-.002-1.019.103-1.275-.03-.323-.167-.512-.34-.479-.538M62.654 11.61q.004.124.01.25l1.286-.043-.001-.062c-.395-.116-.652-.188-1.295-.145m11.824-.388q-.323.135-.645.272l.876-.028q-.004-.126-.012-.25Zm7.108-.045c-.003-.079-.42-.065-.416.014.002.078.42.065.416-.014M326.75 3.673l.004.125q.43-.015.86-.028l-.004-.125ZM192.536 7.75q.001.063.006.125l.861-.029q-.002-.062-.007-.124Zm-97.192 2.974c-.003-.079-.418-.065-.413.014.002.078.418.064.413-.014m-66.262 1.684q.005.124.012.25l.428-.013-.013-.25Zm112.03-3.787c-.546.113-.559.36-1.054.468-.747.163-1.441.016-1.286.361.705-.112 1.417-.218 2.126-.328.073-.166.139-.337.214-.501m-64.293 2.588c-.004-.079-.406-.066-.401.013.002.079.404.065.401-.013m181.969-5.623-.638.209-.22-.056.639-.208Zm-144.121 4.49c-.004-.078-.411-.065-.407.014.002.079.411.065.407-.014m3.037-.289q.006.124.012.25l.431-.015-.012-.25Zm-61.53 1.783q.005.124.01.25l.876-.028-.67-.229Zm227.119-6.794q-.317.105-.635.208h.002l-.429.014-.657-.228 1.717-.056Zm-257.232 7.78c-.004-.078-.407-.066-.402.012.002.079.406.067.402-.011m111.831-3.265c-.003-.078-.409-.064-.406.014.004.079.41.065.406-.014m-91.18 2.456c-.119.171.921.246 1.315.209-.093-.159.226-.241.401-.387-.549.06-1.13.118-1.717.178m214.65-6.183-.214.006-.656-.228q.43-.015.859-.028.007.125.011.25m58.068-1.78.431-.014q-.004-.124-.012-.25l-.43.014q.004.125.011.25M13.162 12.772c-.003-.08-.4-.07-.397.009 0 .078.399.07.397-.01m178.677-6.003c-.47.013-.772.143-1.272.176-.588.038-1.31.028-1.923.062-.108.311.434.247 1.293.206q-.21.132-.422.263c.647.06 1.285.127 1.937.183.311-.026.495-.22.622-.258.704-.203 1.319-.266 1.282-.555h.002c-.61.048-.935-.092-1.519-.076M126.224 9.25c-.19-.043-1.16.299-.706.394.211.042 1.148-.298.706-.394m71.668-2.177c-.575-.027-1.783-.031-1.925.184.864.056 1.749.11 2.599.162-.244-.082-.263-.327-.674-.346m-34.186 1.28q0 .06.005.124l.859-.03q-.002-.062-.007-.124Zm-35.73.782c-.156-.115-.867-.05-1.256-.028.192.139.67.257 1.067.335.582.113.697.073 1.08-.095h-.003c-.572-.092-.598 0-.888-.212m-43.859 1.396q.006.124.011.25l.43-.015c-.003-.083-.01-.166-.012-.25Zm111.356-4.509c-.218.209-.509.379-.711.598-.205.219-.371.535-.506.75-.077.125.759.074.818.04.397-.236.202-.393 1.316-.416-.007-.042-.003-.084-.008-.125l-.861.027c-.017-.292-.029-.581-.048-.874m-6.816 1.546c-.004-.079-.406-.065-.404.014.004.079.408.065.404-.014m155.719-4.715-1.292.042-.004-.125 1.292-.042ZM93.586 10.22q.004.125.01.25l.434-.015q-.004-.124-.011-.25Zm187.559-5.435-.858.028-.004-.125.858-.028ZM25.416 12.137l-.615.268q.414-.013.839-.024c-.003-.083-.01-.167-.013-.25Zm136.138-3.961q.004.124.011.25l.427-.015q-.005-.124-.011-.25Zm-64.54 1.679q-.203.256-.402.513l.425-.014.83-.528ZM291.895 4.43l-.857.028-.004-.125.857-.028Zm-84.291 2.497c-.003-.079.4-.093.405-.015.005.08-.4.094-.405.015m-96.606 2.458c-.592.163-.692.301-.612.521.714.049 1.46-.253 1.682-.431h.002ZM211.45 6.861q-.215.007-.43.013c-.002-.083-.009-.166-.011-.249l.429-.015c.002.084.009.167.012.25m-95.923 2.874.408-.514-.851.154-.888-.346Zm-34.405.958c-.005-.079-.417-.065-.414.013.004.079.418.065.414-.013m137.231-4.129c-.003-.078.402-.092.404-.013.005.079-.402.092-.404.013m-26.264.827-.858.028-.012-.25.859-.028q.007.124.011.25m-35.287 1.008c-.004-.078-.41-.064-.407.014.002.079.412.065.407-.014m-21.918.431.012.25.851-.028-.651-.23Zm72.688-2.338q.007.124.012.25-.865.09-1.726.183c.008-.323.682-.423 1.714-.433m87.764-2.361c-.004-.079.405-.092.407-.014.003.08-.404.092-.407.014M171.86 7.888c-.003-.079-.409-.065-.405.014.002.078.408.064.405-.014M300.503 3.96c-.001-.079.406-.092.408-.013.004.079-.405.092-.408.013M173.146 7.844c-.003-.078-.41-.064-.405.015.003.078.41.064.405-.015M.008 12.456c.03-.03.048-.038.125-.023.082.015.165.042.168.083-.027.084-.358.02-.293-.06m314.677-8.894.86-.028c-.054-.138.042-.225.413-.326l-.867-.16ZM2.409 12.572c-.006-.078-.4-.08-.394 0C2.01 12.651 2.405 12.652 2.41 12.573m317.864-9.316.003.125.862-.028-.004-.125Zm-134.22 4.15c-.003-.078-.412-.064-.409.014.003.08.413.065.409-.014m93.795-2.83-.432.015-.012-.25.432-.014q.008.124.012.25m-83.031 2.341c.337.158 1.596-.028 2.166.001.051.002.239.182.633.09.167-.038.191-.065.208-.13-.267.035-.583 0-.841.04-.025-.066-.012-.085-.016-.137.36.047.352-.125.401-.133.322-.05.567-.001.886-.038l-.027-.014c-.038-.036.041-.102-.216-.1a10 10 0 0 0-.41.015c-.322.018-.082.09-.235.137s-.496.014-.4.133c-.29.014-.569.02-.855.03l.835-.343-.863-.281c-.416.243-.843.488-1.266.73m84.324-2.446c-.003-.078.403-.092.405-.013.005.079-.403.092-.405.013m-42.602 1.102c.82-.05 1.398-.037 1.726.193-.821.049-1.398.037-1.726-.193m50.767-1.307-.863.028q-.007-.126-.011-.25l.863-.029q.007.126.011.25M164.967 7.997c-.003-.079-.41-.065-.407.014.003.078.411.065.407-.014m124.778-3.808c-.004-.078.405-.092.408-.014.004.08-.405.093-.408.014M66.028 10.936c-.005-.078-.41-.064-.405.014.003.079.41.065.405-.014M258.345 5.1c-.004-.079.407-.092.408-.013.005.078-.405.092-.408.013m8.121-.956c.027.128-.021.316.023.433.097.257.559.143 1.089.28l-.237-.493.855-.154q-.866-.035-1.73-.066m61.1-1.186c-.005-.078-.408-.065-.406.013s.411.066.406-.013m-58.064 1.46q.006.123.012.249l1.077.089.212-.069-.443-.298ZM226.51 6.04c-.005-.079.405-.092.408-.014.005.079-.406.093-.408.014m-69.331 1.035.456.483.637-.271c.946.26 1.92.518 2.846.779h.004l-.473-.48-.837.022.19-.632-1.322-.197Zm126.533-2.813c-.005-.079.403-.092.406-.014.004.079-.404.093-.406.014M129.693 8.818l.654.165.213-.07-.655-.165ZM309.93 3.216l.658.229.637-.209-.001-.062Zm-95.906 3.12c-.005-.079.402-.094.407-.015.005.08-.404.094-.407.015m-135.101 3.74q.009.188.019.375l.867-.029c-.09-.156.24-.243.415-.388ZM219.598 5.96q.007.125.012.25l-1.284.043q-.003-.063-.006-.125c.543.003.805-.1 1.278-.168m42.158-1.16.003.124.86-.028-.004-.125Zm2.149-.072.004.126.86-.029-.004-.125q-.43.015-.86.028M152.9 7.344q.236.43.469.86.203-.257.403-.515c.748.096 1.271.147 1.928-.065q.31.083.617.166l-.381.139.859.033-.44-.426-1.297-.017-.023-.373Zm2.591.725c-.002-.079-.408-.065-.404.014.002.078.409.065.404-.014m44.763-1.46c-.042.054.048.086-.005.131.161-.032.366 0 .407-.079.04-.075-.302-.025-.402-.051M131.405 8.76c-.005-.078-.412-.064-.408.015.003.078.412.064.408-.015m3.859-.945c-.057.226.6.295.38.549-.171.196-.765.38.517.296.096-.186.22-.38.323-.57-.405-.092-.824-.18-1.22-.275m36.148-.6c-.618-.002-.892.09-1.272.231a3.1 3.1 0 0 0 1.289.144q-.007-.188-.017-.375m85.626-2.322c-.004-.078.405-.092.408-.013.004.078-.406.092-.408.013m63.205-1.949c-.003-.078-.409-.065-.407.014.003.078.412.065.407-.014m-88.6 2.736-.012-.25.86-.03ZM127.967 8.564q.004.124.011.25l.428-.015q-.006-.124-.012-.25Zm36.698-2.496c-.422.082-.209.262-.194.382-.223-.033-.592-.113-.861-.097l-.835.53 1.715-.059c.002-.125-.028-.249-.016-.374.783.115.968.196.883.469-1.315.078-1.237.372-1.689.683l1.721.068q.103-.129.209-.258c.66.073-.117.311 1.091.213h-.003l-1.32-.517c.988-.34 1.357-.03 1.309.268.424-.077.867-.155 1.28-.232-.428-.193-1.46-.217-1.939-.367-.702-.221-.519-.526-1.351-.709m80.742-.85-.431.015-.012-.25.432-.015q.007.126.011.25M137.85 8.417c-.005-.079-.41-.065-.406.014.004.078.41.065.406-.014m69.292-2.098c-.004-.08.407-.094.41-.015.004.078-.406.093-.41.015m-64.977 1.64c.443.11.875.22 1.306.33l-.018-.374Zm113.992-3.161-.213.07q-.329-.179-.661-.354l.43-.015ZM2.836 11.884q.001.126.005.25c.279 0 .584-.002.854-.004q-.002-.124-.008-.25Zm314.39-8.967c-.005-.078-.409-.066-.407.013s.41.066.407-.013m-236.134 7.15c-.005-.078-.419-.064-.414.014.002.079.417.065.414-.013m141.295-4.202-.057-.01.006-.002-.01-.001.676-.25q-.307.132-.615.263M53.546 10.841c-.004-.079-.402-.066-.398.013s.401.066.398-.013m282.607-8.535c-.003-.079-.41-.066-.406.013s.411.065.406-.013M234.226 5.405c-.004-.079.402-.092.408-.014.004.079-.405.093-.408.014m-72.71 2.208c-.003-.078-.408-.064-.403.015.003.078.407.064.403-.015m76.546-3.15c-.336.373-.105.82-1.687.932.522-.292.754-.465.399-.764l1.286-.168ZM73.319 9.884l.005.125.857-.024.029.245.439-.014c.138-.13.282-.26.42-.39Zm3.873.186c-.002-.078-.407-.065-.403.014.002.078.406.065.403-.014m61.511-1.994c.782-.056 1.167-.004 1.741.127.385.087.59-.077.854-.152q-.771-.13-1.539-.259ZM265.17 4.373c-.002-.079-.411-.065-.407.014s.412.065.407-.014m7.755-.256.218.055.636-.208-.218-.056ZM122.786 8.489c.002.083.009.166.011.25l.864-.03-.012-.25Zm68.381-2.444 1.304.015 1.303.523-.472-.733c-.318-.012-.733.05-1.032.034-.505-.026-.014-.22-.478-.235ZM127.936 7.94c-1.314.066-1.344.34-1.247.667.908-.17 1.366-.36 1.247-.667m34.003-.653c-.093.158.872.267 1.295.206q-.007-.126-.011-.25Zm73.997-2.002-.432.014-.012-.25.432-.014q.007.124.012.25m-105.399 3.13.002.062 1.728-.059c.067-.181-.217-.253-.668-.352Zm118.938-3.833.655.229-.858.028-.011-.25Zm12.425-.66c-.714.025-1.409.217-1.886.372l3.442.074ZM150.322 7.744c-.005-.078-.415-.065-.41.014.002.079.413.065.41-.014m125.609-3.787c.925-.228 1.357.001 2.367-.096.423-.04 1.323-.374 1.056-.516l-1.496.294q-.981-.218-1.961-.433c.01.25.026.498.034.751M98.694 9.173q.001.063.005.125l.862-.029q-.002-.063-.005-.125Zm171.204-5.207c-.003-.078-.41-.065-.405.014.003.079.409.065.405-.014M191.17 6.358c-.003-.079-.409-.065-.405.013.002.08.409.065.405-.013M93.09 8.984l.02.375.867-.029q-.009-.188-.019-.374-.436.015-.868.028m27.95-.937c.087.165-.049.652.887.324.049-.017.002-.254.402-.315.317-.047.96-.052.854-.205-.567-.026-1.152-.045-1.724-.068Zm177.244-5.202q.004.126.011.25l.849-.278ZM176.112 6.743c-.003-.079-.413-.065-.408.014.002.079.411.065.408-.014m-64.515 1.748q.005.124.011.25l.426-.015a7 7 0 0 0-.011-.25ZM77.173 9.695c-.002-.079-.407-.066-.403.013s.407.065.403-.013m153.138-4.66c-.003-.078-.409-.064-.405.015.002.078.41.065.405-.014m-101.525 2.75c.005.126.014.25.017.376l.857-.03c.077-.127-.304-.399-.874-.345m158.737-4.713q.005.126.012.25l.862-.028-.012-.25ZM168.132 6.458c-.335-.029-.721.034-1.067.028q.766.226 1.54.449l.145-.034c.648-.171.095-.383-.618-.443m40.262-.745-.857.029-.006-.125.857-.03Zm-37.015 1.065c-.002-.078-.408-.065-.404.014s.407.065.404-.014m76.168-2.32c-.004-.078.404-.091.409-.013.003.079-.407.092-.409.014m-105.834 3.14q.002.063.005.126l1.299-.044-.006-.125Zm35.704-.962 1.302-.044-.007-.124c-.548.04-.82-.047-1.306-.082q.004.125.011.25m86.019-2.768.004.125 1.716-.182-.004-.125q-.859.09-1.716.182m-39.17.683c-.921.17-1.381.36-1.263.668l.427-.263 1.284-.045h.002Zm-37.835 1.717c-.002-.079-.412-.065-.408.014.002.079.413.065.408-.014m82.168-2.697.872.221q-.004-.124-.011-.25ZM161.076 7.065l-.001.001.852-.03q-.004-.124-.011-.249l-.212.007Zm34.803-1.68q.016.311.028.624l1.299-.044-.144-.07c-.3-.168-.367-.333-.319-.54Zm6.889.33c-.002-.078-.411-.065-.406.014.002.079.41.065.406-.014m48.61-1.51c-.002-.078-.41-.065-.406.014.005.079.409.065.406-.013M77.164 9.259c.003.083.01.166.012.25l.855-.029q-.006-.124-.012-.25Zm2.16.116q.107.028.22.055.321-.104.642-.207l-.222-.056Zm103.228-3.287q.006.124.012.25l.858-.03q-.004-.124-.011-.25Zm-78.713 2.289q.006.124.012.25l.426-.015-.012-.25Zm141.512-4.094c-.003-.079-.412-.065-.408.014.005.078.412.064.408-.014m-91.005 2.01c-.824.346-1.755.278-2.955.358-.443.03-.241.255-.66.328.441.051.873.096 1.3.145l-.234-.242 1.067-.162.028.248 1.262-.042c.055-.291 1.164-.42.192-.632m-33.759 1.27-.831.528q.64-.022 1.284-.043l-.024-.5Zm151.012-4.215.003.125.86-.028-.004-.126Zm7.093-.358c-.473.168-.895.027-1.506.05l1.086.213.638-.208Zm1.936.123c-.003-.079-.41-.065-.406.014.004.078.41.065.406-.014m-47.31 1.324 1.287.143c.097-.17-.115-.34-.228-.489l-.064-.12c-.056-.124-.131-.244-.61-.237-.125.235-.258.468-.385.703M97.798 8.64c-.004-.079-.408-.065-.404.013s.408.065.404-.013m32.68-1.413 1.302.082.45.36-.025-.5q-.866.03-1.727.058m3.905.306c-.003-.078-.41-.064-.407.014s.413.065.407-.013m118.492-3.815-.634.271q.43-.015.86-.028-.004-.126-.011-.25-.108.002-.215.007M175.222 5.96l1.097.338.214-.07c-.396-.077-.498-.152-.447-.297ZM82.76 9.012h.002l.215.055.63-.208-.218-.055q-.315.106-.63.208m2.356-.016q.093-.315.185-.632l-1.291-.02q.55.327 1.106.652m184.34-5.578c.886-.017 1.543-.026 2.134-.258l-.639.067q-.42-.039-.839-.08ZM54.149 9.883q.313-.136.63-.27l-1.283-.085Zm34.2-1.493c-.128.17-.272.343-.408.514.823-.117.917-.293.831-.528Zm46.45-1.308 1.51.324.211-.07-.448-.423Zm114.208-3.36-.631.27.857-.027q-.004-.126-.012-.25-.106.002-.214.007M108.553 8.155c-.004-.079-.415-.065-.41.014.002.078.414.064.41-.014m70.557-2.327q.005.125.012.25l.427-.014-.012-.25Zm.861.096 1.716.067q-.004-.126-.011-.25c-.668.047-1.133.005-1.717-.067q.005.125.012.25m85.146-2.988.017.374 1.082.09.213-.07-.882-.408Zm2.166.179.012.25.85-.279ZM82.313 8.593c-.757-.012-1.756.36-.608.377.376.006.797-.302.609-.377M186.85 5.69q.001.063.006.125l.866-.029q-.002-.063-.006-.125Zm39.142-1.197q.001.062.007.125l.865-.03-.007-.125Zm47.313-1.454.004.125.86-.028-.003-.125ZM128.548 7.293l-.628.272.854-.03q-.007-.124-.013-.249Zm32.696-1.108c-1.18.283-2.326.05-3.667.125l1.094.32 2.8-.202Zm-127.086 4.07-.438.013q-.007-.126-.012-.25l.438-.013q.008.124.012.25m173.328-5.576 1.709-.12q-.203.256-.405.514l1.707-.184c.149-.572-.897-.62-2.602-.662-.137.15-.27.302-.409.452M80.572 8.266c-.832.1-1.484.111-2.36.228-.874.116-1.265.21-1.066.51h.003c.797-.054 1.147-.355 2.004-.418.861-.063 1.376.119 1.42-.32M216.518 4.75c-.002-.08-.413-.066-.409.014.003.078.412.065.409-.014M114.573 7.89l.43-.015c.07-.239-.058-.407-.884-.47h-.003Zm35.7-1.145c-.002-.079-.414-.065-.41.014.002.078.414.064.41-.014m71.829-2.372q.004.126.012.25l.86-.03q-.004-.124-.011-.249Zm109.692-3.178c-.006-.078-.411-.065-.407.013.002.079.411.066.407-.013M198.879 5.22c-.003-.078-.407-.064-.404.014s.408.065.404-.014m-29.921.209c-.476-.04-.505.121-.933.133-.765.023-1.411.06-.771.294.639-.107 1.289-.211 1.933-.317l-1.271.669c.572-.103 1.155-.206 1.721-.31l.012.25.001.001.853-.029a5 5 0 0 0-.011-.25q-.427.015-.855.028c.073-.184-.04-.416-.679-.47m-32.025 1.58q.001.063.006.125.856-.03 1.717-.057l-.012-.25q-.858.09-1.711.183m3.872-.026c.166-.063-.917-.307-1.288-.166-.168.063.913.307 1.288.166m71.626-2.158 1.069-.161-.006-.125-1.727-.067Zm-27.349.05.471.353.854.227-2.17-.176c1.091.466 2.647.397 3.448-.173l-.442-.304Zm-61.063 2.509c-.002-.08-.413-.065-.409.013.002.08.413.065.409-.013m106.683-3.425c.002.084.009.167.011.25l.859-.029q-.004-.125-.011-.25ZM125.759 7.325c-.002-.079-.416-.065-.412.014.003.078.416.064.412-.014m107.088-3.25c-.003-.079-.411-.065-.406.014.002.078.411.064.406-.014m3.452-.303.012.25 1.297-.044h-.002l-.002-.062c-.401-.115-.684-.187-1.305-.144M133.059 6.89q.006.126.012.25h.002l.857-.28ZM243.8 3.271c-1.206.07-1.567.189-1.473.55.278-.135.563-.27.844-.404l1.727.067c.068-.278-.222-.264-1.098-.213m1.091.4c-.002-.078-.411-.064-.407.014.005.079.412.065.407-.013m-103.675 2.63c.591.14.464.334.46.548 1.124-.045 1.371-.249 1.274-.543Zm-29.242 1.176.866.221c-.002-.083-.009-.167-.011-.25Zm33.311-1.501c-1.151.363.07.554 1.109.713.134-.17.274-.344.404-.513-.32-.006-.742.051-1.039.035-.5-.028-.008-.22-.474-.235m37.657-.466c-.003-.078-.41-.064-.406.015.004.078.411.064.406-.015m-65.363 1.966c-.004-.079-.415-.065-.411.014.004.078.414.064.411-.014m70.969-2.468.018.374.426-.015-.017-.374Zm82.584-2.209c-.002-.079-.41-.065-.405.014.003.078.41.065.405-.014m2.147-.07c-.002-.08-.411-.066-.406.013.003.079.41.065.406-.014m-18.503.175c.083.156-.24.245-.413.39l.862-.03-.018-.375Zm-32.691 1.095.871.22q-.004-.124-.011-.25Zm5.169-.299q.007.187.017.375c.583.015.93-.281.843-.404Zm46.879-1.125c-.003-.078-.408-.065-.405.013.002.08.409.066.405-.013m-149.257 4.53c-.004-.08-.414-.065-.41.013s.414.065.41-.014m67.955-2.243.873.221-.012-.25Zm4.813-.285c-.436.125.545.401.738.345.43-.125-.537-.401-.738-.345m-60.313 1.794c-.575-.015-.927.281-.838.404l1.286-.044c-.194-.135-.527-.195-.448-.36m43.037-1.562c-.704-.177-.962.12-.881.248-.419.021-.842.035-1.272.052q-.098.19-.201.38c.358-.076.72-.153 1.07-.229.619.217 1.272.024 2.135-.01-.401-.04-.723-.409-.851-.44m43.861-.82c-.003-.079-.412-.065-.408.014.004.078.412.065.408-.014m-24.942.53.012.25.428-.016-.012-.25Zm51.181-1.41c-.003-.078-.41-.064-.405.015.003.078.409.064.405-.014M175.623 5.32q.001.063.005.126l.864-.03q-.001-.062-.005-.125Zm-60.231 1.667q.006.124.012.25l.433-.015q-.004-.126-.011-.25-.218.007-.434.015m37.007-1.13c-.73-.671-2.535-.19-1.054.288q.235-.136.469-.273Zm6.439-.197c-.388-.115-1.442.201-1.269.253.386.115 1.444-.2 1.269-.253m64.948-1.907c-.003-.078-.41-.064-.406.015.004.078.41.065.406-.015m-93.834 1.49c-1.219.047-1.177.394-2.119.573q-.116-.185-.23-.369l-1.271.153c-.492-.061-1.015-.122-1.523-.183l.451.36-4.74.286-.408.45c1.217.311 2.059-.059 3.435-.178l.45.301 1.294-.107.238.24c1.611-.012.494-.398 1.904-.44l.44.299.647.04c.566-.183 1.12-.364 1.696-.547 1.012.152 2.382.025 3.438-.005.948-.026 1.271-.025 2.19-.075h-.004c.481-.027 1.342-.04 1.897-.057.138-.16.299-.082.419-.298.119-.217-.485-.207-1.327-.244-.341-.014-.697-.229-1.051-.268-.214.167-.415.345-.624.516-1.777.095-2.897.44-3.033-.27l-1.7.188q-.435.136-.869.274Zm104.591-2.038.875.221-.012-.25Zm-94.43 2.696-.639.21.872.158-.018-.375Zm-26.058.255.445.235-2.142.197q.333.24.671.477c1.349-.128 2.718-.258 4.084-.386l.032-.083c.043-.163-.15-.124-.677-.144-.602-.023-.932-.092-1.522-.082-.002-.082-.02-.163-.028-.244Zm49.916-1.313.017.18 1.298.398q-.234-.43-.472-.859Zm36.58-.555c-.003-.079-.41-.064-.405.015.003.078.409.064.405-.015m-54.622 1.665h-.001l.859-.03-.012-.25-.214.008q-.317.135-.632.272m-29.73-.496c-.308.2-.566.395-.853.593l1.288-.104.039.241 2.142.058-.4.514c.423-.015.853-.027 1.275-.044.173-.239-.244-.327-.658-.467-.273-.093 0-.175-.292-.237-.29-.062-.723.014-1.026-.1s.04-.256-.288-.364c-.159-.052-.998-.005-1.227-.09M225.94 3.37q.001.063.006.125l.864-.03q-.002-.061-.005-.124ZM147.627 5.52q.006.126.012.25l.851-.28Zm9.028-.431q.007.188.018.374l1.294-.043-.016-.375Zm12.058-.41c.004.125.013.25.017.376.581.014.934-.281.847-.404Zm52.901-1.54c-1.063.03-2.055-.003-2.561.336.898-.071 1.629-.214 2.568-.21l-.004-.126Zm-71.398 2.168q.005.126.012.25.218-.007.434-.015-.004-.124-.011-.25Zm4.713-.285-2.145-.052q.012.25.024.5 1.486-.176 2.985-.351l-.459-.61ZM91.289 7.23c-.005-.078.402-.092.404-.013.004.078-.403.092-.405.013M127.85 6.19l-.427.014c-.002-.083-.009-.166-.011-.25q.213-.007.427-.013.007.124.011.25m33.119-1.06c-.004-.079-.406-.065-.402.013.002.08.407.065.402-.013M54.726 8.273c-.005-.079.403-.092.406-.013.004.078-.404.091-.406.013m43.85-1.286c-.002-.079-.41-.065-.405.014.002.078.409.065.405-.014m38.298-1.227-1.062.161-.216-.055 1.272-.231q.005.063.006.125m4.718-.66c-1.598.01-2.642.269-2.996.726 1.803-.018 2.917-.136 3.871-.63q-.868.09-1.731.183Zm32.256-.845.023.5.43-.015q-.013-.25-.023-.5ZM82.685 7.45l-.846.028c-.003-.084-.01-.167-.012-.25l.847-.028q.007.125.011.25m75.697-2.42q.001.063.007.125l.867-.03a2 2 0 0 0-.007-.125ZM53.444 8.188c-.004-.079.396-.092.4-.013s-.398.091-.4.013m8.144-.439q.007.125.012.25l-.869.027.64-.27ZM207.853 3.54c-.004-.078-.409-.064-.406.014s.411.065.406-.014m-32.276.78c.002.084.009.168.011.251l1.296-.044q-.006-.124-.012-.25Zm9.025-.368.448.298.862-.029-1.097-.338Zm84.758-2.345c-.004-.079-.41-.065-.407.014.005.078.411.065.407-.014M92.562 6.624l.45.36 1.294-.23c-.511-.162-.981-.176-1.744-.13m5.996-.054c-.386-.115-1.428.2-1.255.252.382.115 1.428-.2 1.255-.252m67.969-2.317.023.5.856-.217-.007-.125-.656-.165Zm-90.718 3.11c-.004-.08.395-.093.4-.014.003.079-.396.092-.4.013m67.937-2.024c-.003-.078-.406-.065-.403.014.002.079.407.065.403-.014m36.13-1.415q.007.187.018.375l.845-.216-.65-.166Zm-28.822.73q-.206.255-.411.514l.868-.03-.025-.5Zm39.132-1.204c-.668-.009-1.781.21-2.122.385.501.16.962.176 1.717.13Zm-33.567.89-.4.639c.92-.171 1.382-.36 1.262-.668Zm-29.63 1.442c-.005-.078.397-.093.402-.014s-.399.093-.402.014M57.294 7.506c.004.125.013.25.019.375l.265-.009.168-.005q-.008-.188-.019-.375l-.16.005ZM286.98.9c-.003-.078-.411-.064-.407.014.005.079.412.065.407-.014M132.768 5.028c-.668-.12-.834.033-1.529.046h-.003c.759.312 1.961.08 1.766.567.282-.114.571-.226.85-.342-.34-.074-.753-.21-1.084-.27m38.072-.796c.002.083.009.166.011.25l.428-.015-.012-.25Zm-66.253 1.991q.006.126.012.25l.854-.028-.653-.229Zm73.578-2.115q.001.062.005.125l1.289-.044-.006-.125Zm38.707-1.31 2.158.177q-.007-.188-.017-.374Zm3.855-.255q.007.188.018.375c.62.001.896-.09 1.278-.231a3.1 3.1 0 0 0-1.296-.144m-37.855 1.468c-.003-.079-.41-.065-.406.014.002.078.41.064.406-.014m3.45-.304.877.22q-.004-.124-.011-.25ZM89.114 6.675l.645.166.21-.068-.647-.167Zm147.54-4.542q.005.125.012.25l.853-.278ZM163.08 4.245c-1.74.046-.459.396.016.375ZM58.564 7.654c-.003-.079-.4-.066-.397.013.002.078.401.065.397-.013m76.144-2.259c-.005-.078-.406-.064-.402.014.003.079.406.065.402-.014m40.416-1.246c-.003-.079-.412-.065-.408.014.004.078.412.064.408-.014m-61.519 1.834c-.005-.078-.41-.065-.406.014.005.078.409.065.406-.014m70.552-2.14c-.005-.08-.411-.066-.407.013.002.079.41.065.407-.014m39.58-1.401q.004.124.011.25l.431-.015q-.004-.125-.011-.25Zm1.721.13c-.003-.079-.412-.066-.408.013s.411.065.408-.013M54.029 7.234c-.658.057-1.257.118-1.898.181.273.201 1.822.443 2.497.282.504-.12-.227-.424-.599-.463m43.67-.906q0 .063.006.125l.856-.029q-.001-.062-.005-.125Zm103.666-3.256.012.25.858-.029q-.327-.115-.657-.228ZM70.168 6.979q.005.125.01.25l.426-.014-.011-.25Zm72.707-1.986c-.005-.078-.408-.064-.406.015.005.078.411.064.406-.015m.852-.028c-.003-.08-.407-.065-.403.013.002.079.407.065.403-.013m39.136-1.391c.002.083.009.166.011.25l.429-.015-.012-.25q-.215.007-.428.015M95.988 6.26q.001.062.005.124l.85-.028-.006-.125Zm73.13-2.221.006.125.857-.03q-.002-.062-.005-.124ZM68.905 7.02q.003.063.006.125l.84-.027q.001-.063-.004-.125Zm157.841-4.93.012.25.433-.015-.012-.25ZM95.128 6.039c.003.083.01.166.012.25l.424-.015q-.005-.124-.01-.25ZM60.251 7.227c-.003-.079-.41-.066-.406.012.002.079.41.066.406-.012m83.898-2.59 1.288.083q-.004-.126-.011-.25l-1.288-.082q.004.124.011.25m71.847-2.06.864-.029-.661-.227-.214.006c.002.084.009.167.011.25m-64.954 1.826q.001.063.006.125l.858-.03-.006-.124Zm-21.115.341c-1.023.01-1.691.11-1.697.433 1.018-.01 1.691-.11 1.697-.433M98.53 5.8q.005.126.01.25l.848-.277Zm67.11-2.017q.004.126.011.25l.863-.03c-.221-.075-.438-.15-.659-.227Zm40.884-1.136.006.126.867-.03-.007-.125Zm-67.991 2.119c-.004-.079-.409-.065-.406.014.002.078.411.065.406-.014m-54.202 1.38c.002.083.009.166.011.25.428.01 1.405-.13 1.28-.292Zm102.834-2.967q.001.062.005.125l.867-.03-.006-.125Zm8.15-.527q.005.126.012.25c.549-.042.815.045 1.302.081q-.008-.188-.018-.374Zm-31.393 1.253.217.055.636-.21-.218-.055ZM58.533 7.03c-.002-.08-.4-.067-.398.012.003.078.402.066.398-.012m190.139-5.924q.004.124.011.25l.856-.03-.654-.228Zm-137.671 4.27-.829.035q.001.063.006.125.634-.022 1.272-.043.097-.254.191-.506-.322.195-.64.39m101.948-3.009c-.002-.079-.411-.065-.407.014.003.079.411.065.407-.014M77.872 6.418c-.003-.078-.409-.065-.405.014.002.078.409.065.405-.014m1.738-.056.22.055.645-.209-.223-.055Zm72.266-2.487c-.627.109-.941.292-1.716.309l.006.125.002-.001 1.727-.058Zm32.253-.845q.006.124.012.25l.851-.279ZM61.095 6.825c-.002-.078-.412-.066-.408.013.004.078.41.066.408-.013m110.984-3.324c-.004-.078-.409-.064-.404.014.002.079.408.065.404-.014m45.181-1.405c-.002-.078-.413-.065-.409.014.003.079.412.065.409-.014m-35.714.895q.005.126.012.25l.428-.014-.012-.25ZM94.671 5.678q.001.063.007.125l.861-.029q0-.062-.005-.125Zm71.391-2.097.218.055.639-.21-.219-.055Zm2.579-.401c-.487.07-.73.176-1.294.169l.662.227c.438-.128.719-.218.632-.396m-55.936 1.958c-.005-.079-.408-.065-.404.013s.408.065.404-.013m6.89-.42.867.22-.012-.25ZM89.91 5.773c-.003-.078-.407-.065-.403.014.005.078.406.065.403-.014m34.851-1.042c-.004-.079-.414-.065-.41.014.002.078.414.065.41-.014m-28.383.828.215.055.63-.209-.215-.055ZM57.242 6.694c-.002-.079-.42-.066-.416.013.002.078.42.066.416-.013M179.836 3.05l.852-.029-.012-.25-.212.007Zm3.412-.178c-.005-.079-.409-.065-.405.013.002.08.409.065.405-.013M48.194 6.532c.036.142.238.239.438.362l-.84.025q.007-.086.012-.174c-.28-.059-.597-.116-.899-.175.448-.01.871-.03 1.289-.039m5.58.143c-.003-.078-.404-.066-.4.012.001.079.402.067.4-.012m46.889-1.447q.003.063.007.125l.87-.029-.006-.124Zm43.447-1.465q.004.124.011.25l.427-.015-.011-.25Zm7.32-.061c-.002-.079-.413-.064-.409.015.004.078.416.064.409-.015m13.31-.452c-.005-.079-.411-.064-.406.014.003.079.411.064.406-.014m-55.902 1.58-.869.029q-.004-.063-.007-.125l.869-.03q.006.063.007.125m-57.66 1.549c-.002-.079-.416-.066-.412.013.003.079.416.066.413-.013m56.35-1.63q-.65.02-1.294.042-.003-.063-.007-.125l1.295-.043q.005.063.006.125m-55.04 1.465c.003-.079-.414-.066-.411.012s.42.066.41-.012m1.686-.052c-.003-.079-.406-.066-.402.013.002.078.406.066.402-.013m130.351-4.084c-.004-.079.406-.092.408-.014.004.079-.405.093-.408.014m-1.304-.019-.43.014-.012-.25q.215-.008.43-.015Z"/></svg>