<svg xmlns="http://www.w3.org/2000/svg" width="203" height="11" fill="none" viewBox="0 0 203 11"><path fill="#ff4d00" d="M155.935 4.645c-.041-.143.302-.252.93-.31.035.145-.287.251-.93.31m32.527-2.383c-.006-.096-.018-.193-.026-.29.368-.03.743-.055 1.106-.084.352-.03.794-.1.798.013-.429.034-.822.04-1.104.158-.286.118-.062.18-.774.203m-.608.267c-.221-.105-.452-.208-.668-.313l-1.568.27c.158-.258.857-.384 1.867-.44q.186.24.369.483m-3.513.063-.625-.028.948-.077q.149-.12.296-.242l.043.436-.632.05Zm-2.517.128c-.068-.067.189-.254.609-.269q.012.109.022.218Zm9.805-.693c-.014-.012-.007-.025.007-.038l-.648.012c.43-.228 1.372-.249 2.203-.34.507-.055.62-.066.959.01l-.801.087q-.067.079-.136.159c-.532.047-.774-.01-1.122-.069l.173.134c-.21.016-.424.027-.629.045Zm-15.504.95q.158-.014.317-.027l.015.146-.317.026ZM38.621.789c.741.046 1.343.068 1.89.196.413-.198.981-.078 1.476-.095 1.339-.047 2.679-.067 3.798-.021 1.08.046.913.068 2.015.045.796-.017 1.952.038 2.807.048-.036.048-.1.098-.145.147.462-.027.946-.045 1.42-.066.117-.005.227.038.306.033.677-.044 1.204-.158 1.899-.15.463.095.373.24 1.116.207-.106-.071-.218-.144-.321-.215.478 0 .96.067 1.427.06.268-.003.496-.065.648-.071 1.28-.05 1.978.056 2.838.251l.941-.227 1.105.132q-.32-.107-.636-.21c.446-.043.703.037 1.097.04.271.003.333-.06.64-.063.982-.01 2.01-.016 2.997-.028q.006.109.008.218l1.104-.158q-.075.11-.153.22l1.106-.23q.329.215.641.43c.387-.042.056-.247.483-.332.363-.072.405.014.787.008s.388-.12.97-.14 1.844-.045 2.47-.025c.768.024 1.177.136 1.92.129.925-.01 1.588-.015 2.575-.013.242 0 1.007.12 1.222.185.3-.173 1.252-.108 1.66-.17.409-.06.016-.172.553-.214.074.044.216.094.294.14.235-.022.044-.065.43-.069.386-.003 1.649.024 2.035.051.628.045.53.156 1.192.126-.01-.048.002-.096.002-.144L86.65.797q0 .073.004.146C88.19.622 89.728.508 91.389.81c.443-.042.813-.13 1.311-.145 1.272-.038 2.815.074 4.02.095.917.017 1.507.008 2.262-.093.254.117.532.235.794.352-.004-.096-.004-.196-.01-.29.476-.048.69.044 1.107.045.417 0 .164-.112.757-.137.22-.01 1.238-.011 1.792-.024.99-.023 2.065-.061 3.202-.093.954-.027 1.955.09 1.975.366.003.04-.406-.007-.162.1.38.168 1.24.359-.753.384.022.08.014.145.008.223-.858-.146-1.787.08-.713.142.405.023 1.881-.197 2.104-.3.562-.26-.405-.425-.065-.708.051-.043 1.658-.245 1.95-.258.414-.018.437.044.682.051.443.014.477-.079.937-.076.528.003 1.096.105 1.706.056-.202.1-.413.2-.618.299 1.046-.008 1.026-.262 1.73-.383l.672.136.753-.045c.845.17 1.963.53-.302.335-.042.144.088.243-.048.4-.093.105-.418.17.228.254.043-.094.102-.194.15-.29.961-.035 1.137-.276 1.41-.455.113-.074-.407-.159-.142-.212.413-.082 1.036.105.92.204.116 0 .213-.002.321-.003.003-.049-.001-.096.005-.145.637.032 1.149-.078 1.71-.093.462-.012.511.067.967.066.844-.001.991-.123 2.054-.16.46-.016 2.234.092 3.004.087.195-.002.29-.072.621-.053.746.044 1.579.204 1.439.416.165-.05.314-.1.471-.15-.395-.09-.82-.142-.796-.285.792.095 1.488-.045 2.353-.015.2.007.565.163.81.129.01-.07-.021-.147.01-.217.241-.045.946.042 1.039.042.638-.003 1.159.059 1.591.064.427.005.705-.138.958-.133.742.018 1.127.171 1.62.265.044-.048.105-.098.156-.146l.931-.01c.001.049.013.098.01.146.731-.127 1.14-.174 2.095-.165.537.005.776.077 1.211-.082.226.043.429.084.645.126 1.561-.161 2.714.076 4.267.118q.01.07.017.143.318-.023.63-.043c-.21-.083-.429-.167-.636-.248.497-.034.961.049 1.387.058.667.014 1.129-.067 1.768-.088q.011.07.025.14.703.068 1.395.137c.413-.1.83-.201 1.263-.302l.677.136.596-.076-.149.293c.578-.175 1.122-.35 1.712-.525l.651.359.789-.3 1.231.066h.001l.024.142.797-.08c0 .05.007.098.001.147.503-.087.874-.171 1.569-.15.36.012 1.848.064 2.116.04.908-.08.85-.2 1.844-.153-.007.046.018.092.024.138.697.07 1.315.14 2.035.209l-.03-.146-.463-.069c.608-.053 1.209-.103 1.779-.157 1.072.116 1.952-.003 3.141.063.522.03.962.2 1.711.116.022-.043.008-.094.022-.142.775-.028 1.859.09 2.531.166.476.055.358.122.933.031.163.073.335.145.498.217l.152-.292c.749.097 1.184.075 1.736-.082l.456.107c-.433.105-.274.17.177.255.276-.014.178-.103.319-.149.553-.18.848-.108 1.561-.1 1.136.015 2.044-.022 3.179.026.203.01.482.088.792.063.013.075.008.146.014.22.783-.075 1.302-.23 2.208-.212l.018.144c.438.003.828.006 1.266.013l.008-.145c.277.052.541.104.823.159.357-.028.82-.04 1.128-.058l.365-.017c.045.113-.12.127-.371.128-.184.002-.53-.014-.793.036-.223.041-.308.146-.502.201.415.01.913.031 1.28.053l.368.019c.119-.115.205-.233.349-.345.384-.011 1.417.16 1.702.179 2.164.141 4.173.262 6.204.714l.11.02c.299.06.476 0 .973.095a7 7 0 0 1 .61.146l.133.039c.076.027.085.013.407.152.102.058.145.033.577.356.103.083.225.19.369.36.031.036.626.704.635 1.68.087.985-.774 2.004-.864 2.028-.241.22-.442.336-.602.418-.306.155-.537.204-.576.215q-.118.029-.199.041-.165.025-.219.028c-.179.014-.221.01-.287.01a60 60 0 0 1-1.462-.15c-.314.056-.597.118-.903.18a90 90 0 0 0-1.291-.14c-.602.043-1.223.158-1.833.182-.749.028-1.013-.053-1.714.118l-.17-.135c-1.055.219-2.122.21-3.153.158-.042.076-.094.155-.13.23-.25.035-.45.044-.63.042-.353-.006-.645-.06-1.144-.034-.375.02-.647.16-1.242.142-.385-.01-.617-.113-1.22.037-.521-.061-.362-.208-1.182-.13.11.432-1.356.231-1.554.239-1.166.042-1.547.147-2.494.173.01.05.02.096-.01.145-.629.114-1.798.085-2.278.12-1.26.09-2.438.191-3.466.298-1.223.128-1.588.054-2.615.088-.865.03-1.587.157-2.483.197-.19.009-.498-.041-.781.004-.022-.048-.023-.094-.039-.14-1.107.269-2.003.304-3.249.357-.707.03-1.263.082-1.998.121-.285.015-.465.12-.855.136-.294.012-.705-.032-1.107.037a.5.5 0 0 1-.036-.142c-.812.201-1.133.14-2.039.193-.644.037-.76.096-1.663.178a300.643 300.643 0 0 1-4.242.333c-.647.044-1.4-.022-1.896.026-.491.047-.328.13-.818.154.232-.223-.344-.21-.605-.331-.681-.315-.78-.78-.898-1.176-.034-.1.391-.178.292-.241-.31.05-.625.097-.941.155.093-.128-.314-.173-.396-.244-.106-.094.208-.199.243-.289l.009-.003c.053-.133-.196-.13-.052-.29.032-.035-.051-.091.031-.138.554-.309 1.501-.358 1.617-.147.272-.037.532-.07.789-.102l-.021-.145c.48-.01.975-.02 1.445-.024q-.327-.055-.656-.108c.149-.08.308-.157.452-.237.523.008 1.008-.075 1.569-.087.556-.011.564.095 1.269-.068.326.003.693.117.976.11.193-.005.31-.02.372-.043.092-.035.055-.088-.014-.143-.094-.07-.239-.142-.224-.186-.526.076-1.038.153-1.57.233l-.033-.216c-.446.034-1.299-.012-1.579.137l.017.103-.319.035q-.16-.075-.328-.15-.483.038-.969.08l-.043-.289c-.584.063-1.082.002-1.614.172q.666.019 1.316.05c.096.225-.328.43-1.032.685-.463-.048-.932-.017-.831-.212.034-.07.553-.302.507-.365-.082-.125-.755-.08-.644-.24a63 63 0 0 1 1.93-.342c.255-.105.527-.21.777-.311.228.074-.437.207-.595.29-.186.101.255.106.177.2.667-.064 1.024-.152 1.413-.31.468.019.402.099.518.194.083.068.613-.024.792.032.18-.116-.294-.11-.137-.245.094-.077.706-.215.551-.312.736-.084 1.222-.03 1.823-.022.221.005.461.002.739-.017a92 92 0 0 1-.972-.087l.222-.009 1.53-.055c.626-.222.209-.345 1.384-.425-.219-.076-.44-.155-.658-.229.792-.133 1.406-.037 2.075-.064 1.146-.046 1.48-.131 2.051.08q-.45.243-.888.484l.95-.133c.052-.213.769-.114 1.101-.055l-.293.247c.845-.253 1.187-.42 1.049-.68l.608-.059-.008-.217 1.259-.113-.278.135.46.069.611-.192.798-.007c-.248-.154-.029-.332-.053-.508.579-.059 1.166-.092 1.74-.152.392-.04.512-.128.954-.16.539-.039 1.101.02 1.718-.076-.033.102-.45.148-.833.212-.383.063-.497.071-.4.188-.578.016-1.001.053-1.567.137.02-.139-.054-.155-.654-.087.18.087-.194.181-.196.271-.003.09.367.083.219.2-.066.05-.7.19-.579.237l1.102-.169q.066-.116.129-.232c1.127-.06 1.635-.316 2.653-.452l.33.118.121-.377c.977-.088 2.028-.24 2.229.028l-1.269.035-.286.318q-1.571.171-3.141.347l.361.407-1.567.211-.028-.216c-1.004.042-2.002.083-3.006.127l-.763.282 1.272-.005c-.433.163-.913.2-1.564.251.48.15-.251.364.527.465l-.191-.276.937-.087q.01-.07.016-.14c.757-.063.633-.135.587-.277.453-.055.709-.071.644.052-.039.073-.363.154-.139.197.421-.172.731-.058 1.21-.116.349-.041.374-.146.69-.193.567-.083 1.136-.14 1.701-.23-.033.107.16.174-.327.287-.283.065-.645.005-.897.15.252.013.531.023.792.035l1.089-.237-.338-.19 1.252-.182c.019.146-.11.295.355.373l-.621.127 2.531-.11-1.916-.09.295-.209c.857-.095.36.099.961.063l-.003-.146 1.249-.107-.495-.104c-1.044.2-1.456.167-2.225.048l-1.397.192c-.121-.111-.23-.224-.358-.334.334-.05.509.073.878.065.17-.003.763-.081 1.026-.084-.037.05-.047.138.173.129.282-.013.75-.004.922-.023.516-.057.618-.142 1.133-.152.129.22 1.063.152 1.769.214.082-.07-.092-.182-.351-.186-.363-.006-.433.068-.817.023-.385-.044-.706-.225-1.252-.25.718-.127 1.454-.248 2.179-.371.146.206.854.223 1.719.079.651.038 2.039-.088 2.392.053.052.022-.242.045-.187.095.02.018.226.19.564.125.302-.154.605-.318.908-.474-.267-.045-.499.132-.635.047-.074-.046.151-.127-.047-.179.388-.023.645-.051.978-.076q-.404-.078-.81-.153l-.159.013c-.013.072.053.147-.011.217-.074-.02-.884-.027-.871-.109.005-.028.234-.049.154-.09-.134-.07-.902-.115-.066-.242.309-.047.717.004.774.078-.198.042-.411.083-.616.125 1.532-.137 2.324.007 3.354.164.316-.085.434-.172.607-.27.234-.132.115-.178.772-.207.004.078.181.231-.139.297-.442.092-.853.249-1.196.303-.349.054-.283-.06-.642.005-.285.051-.421.12-.808.134l.293.085-.44.146-1.086.126c.319.042 1.039-.03 1.371-.082.327-.052.505-.204.819-.207.215.08-.246.195-.215.27.039.106.628.053.529.19.212-.095.4-.186.601-.28l-.279-.233c.314.024.645.046.961.069l-.654-.166c.761-.041 1.464-.186 2.198-.177l.298-.21c.524-.102 1.042-.202 1.575-.303l-.91.33c-.071.194-.012.148.636.136.019 0 .018.058.163.046.144-.011.13-.067.15-.07.133-.025.263-.03.392-.037q.121-.005.242-.018l-.25-.08-.384-.128c.194-.078.228-.138.361-.182.097-.031.245-.056.525-.074q.013-.069.03-.137.609-.123 1.231-.245c.278.101.544.204.825.305l.762-.385c-.216-.045-.44-.09-.65-.135.204-.017.42-.028.629-.046h.006c.147.099.265.169.026.29.2-.087.409-.175.614-.263.439-.038.696-.068.63.06l.969-.023c-.318.046-.636.092-.942.138-.082.238-.549.407.34.524-.202.099-.391.197-.594.297q-.403-.082-.808-.163c-.2.087-.411.176-.614.263-.444-.067-.407-.21-1.121-.138l.13-.3-.789.058.336.3-1.228.39c.518-.1 1.042-.202 1.559-.3-.018.086-.025.273.526.24.221-.012.446-.104.756-.04.008-.078-.011-.146-.012-.22l.943-.067.013.103.635-.076c-.147.108-.305.216-.452.324-.211-.058-.437-.115-.651-.173l-.138.23c-.323-.002-.63-.004-.958-.004.169.092-.183.176-.21.27-.023.062.25.062.26.129.013.1 0 .222.02.327l1.585-.04c.063.125-.006.21-.461.325-.298-.003-.613-.003-.912-.005l-.803.203c-.116-.138-.248-.274-.357-.412-.768.114-.586.27-.964.436-.046.02-.33.035-.533.068-.097.016-.173.036-.185.063-.185-.035-.327-.072-.5-.108l.67-.157.263-.061-.267.003-.848.011-.454.252c-.839.09-1.67.182-2.509.274l.624-.123q-.172-.133-.346-.265c-.253.069-.521.14-.764.207-.503-.003-.234-.121-.562-.166-.328-.044-1.151.028-1.52-.03-.338.03-.632.053-.955.08q.324.047.641.095c-.095.105-.187.21-.285.315.284-.015.581-.15.825-.207.243-.057.793-.197 1.047-.13-1.008.365-1.947.487-3.297.382l.022.217q-.415-.13-.825-.26c.512-.14 1.035-.28 1.548-.423-.392-.02-.175-.219-.815-.107-.333.058-.849.337-1.186.37-.701.066-1.141.05-1.778.092.498.078.986.16 1.478.241l-.163.157c1.8-.05.463.365-.276.392-.271-.099-.557-.197-.819-.296-.606.15-.349.163-.174.27.284.174-.827.118-1.21.14-.018-.073-.021-.145-.032-.218l-1.252.18.645.092c-1.274.09-2.14.32-2.159.625q.378-.18.758-.359l.506.322-.612.2.934-.197.565-.26-.29-.16.929-.151.029.142 2.188-.258q.01.109.023.218l-.634-.02-.454.258-.182-.13-1.252.106c.388.3 1.275.19 2.378-.048l.642.08 1.088-.232-.151.159 1.119-.02-.341-.263.601-.057.021-.14c.694-.043 1.009-.153 1.551-.277l-.287.316c-.607.035-.827-.025-1.257.14l.506.068-.157.233.93-.223q.174.132.346.265c.31-.026.632-.051.94-.078.007-.12-.856.03-.628-.126.225-.156.505-.11.906-.117.009-.047.006-.096.011-.144l.937-.078c-.448-.123-.915-.138-.192-.351.381.053.631.083.822.195.046.027.269.152.25.19-.057.114-.36.178-.212.278q.154-.084.31-.17c.405-.024.705-.129 1.073-.163.283-.026.398.024.649.006.25-.018.272-.096.603-.093.212.003.358.037.529.058.161.019.342.027.602-.007a33 33 0 0 0-.657-.274l.032-.023.268-.185.941-.073-.185-.279 1.116.098c-.209.094-.453.159-.542.266-.121.153-.05.337.292.446l-.626.051.016.216 1.264-.02c-.119-.138-.241-.275-.356-.413.615.041.731-.06 1.254-.165l.019.145.772-.128c-.043.052-.107.104-.136.156.433-.063 1.051.01 1.369-.025.658-.07.367-.24.504-.306.136-.066.268-.02.421-.048 1.108-.2 2.147-.398 3.158-.61.168.093.325.18.492.276.242-.094.665-.026.906-.117.195-.075.152-.226.502-.308.019-.004.048-.01.049-.015-.005.108-.03.029-.055.043l-.169-.02c.076-.078.14-.17.223-.246-.401-.019-.762.002-1.14.012q-.195-.051-.39-.1c-.381-.1-.762-.209-1.147-.307.04.055.1.116.128.167-.486-.042-.777-.23-1.061-.293-.625-.137-1.086-.046-1.527-.118-.586-.093-.493-.217-1.161-.24.007.072-.007.145-.008.217a99 99 0 0 0-1.573-.186l.005-.072c-.203-.014-.424-.028-.626-.04l.01-.364-.324.127a105 105 0 0 0-.943-.16c.215-.037.424-.077.635-.112-.003-.085-.479-.032-.61-.075-.271-.09.281-.18.15-.278l-.231.019c-.439.035-.931.079-1.377.133l-.478-.008-.006-.218c-.432-.031-.827-.059-1.268-.087.231.038.415.077.644.115-.04.131-.228.23-.319.365-.042.065-.007.158-.478.1-.18-.023-.382-.13-.624-.13-.423 0-.681.02-1.103-.023q-.016-.068-.028-.138c-.297-.013-.636-.025-.946-.038q-.149-.093-.303-.185-.478.036-.939.074-.007-.073-.015-.145c-.8-.016-1.177.034-1.262.22-.843.026-1.68.054-2.52.082l.307-.584c-.309.026-.653.052-.945.078q0 .108-.002.218c-.521.015-.745-.06-1.117-.137-.361.061-.716.123-1.09.184l.938.031.01.219c.472.023.953.047 1.401.071.261.119.558.238.827.357-.259.025-.543.051-.799.077q-.079-.147-.16-.292l-1.26.008-.008.144q-.304.002-.619.003l-.012-.146c-.356.027-.763.053-1.104.08q-.207-.165-.416-.328l.259-.18c.204-.014.395-.028.616-.042-.633-.178-1.474-.178-2.367-.242-.697.145-.145.256-.15.44q-.377-.034-.765-.067c-.22.049-.459.098-.664.147q-.538-.105-1.1-.21c-.395.366-1.699.248-2.986.325-.492.03-.63.222-1.265.215l-.488-.287c.68.043 1.23.003 1.88-.015l.011-.216.636-.007c.223-.149-.747-.292-1.27-.282.097.177-.668.275-.302.44q-.632-.105-1.287-.21c-.309.246-.604.492-.913.737q-.234-.182-.472-.363c-.644-.091-1.305-.182-1.925-.273 0-.073.005-.147.002-.22-.408.102-.926.18-.758.333.149.136.886.063 1.184.112.297.048.08.148.48.194h-.003l.006.002c-.215.055-.38.105-.574.158l-.958-.283-1.112.082c-.113-.096-.212-.193-.319-.29l.636.032q-.001-.09-.005-.182a11.7 11.7 0 0 0-1.885.016q.322.216.639.432-.626-.105-1.271-.208l.012.437q-.331-.197-.667-.394l.009-.11c.946-.002.701-.118.146-.22l-.201.012-1.196.073.317.18-.94.19c-.786-.11-.731-.339-1.596-.423-.107.13.925.245.599.352-.2.063-.655-.088-.9-.02.303.033.161.165.496.174.577.016.852-.038.767.141-.669.026-.819-.106-1.267-.169-.319-.045-.593.06-.94.043q.315-.038.629-.078l-.327-.435c-.725.031-1.514.063-2.216.094-.126.093.238.112.271.19.056.135-.419.186.052.317l-1.255-.062.265-.111-.267-.103.623-.012-.004-.217-.943.01.008.29c-.628-.018-1.294-.036-1.91-.055q.086.07.168.143c-.391.311-.028.462 1.438.426l-.644-.213.794-.08c.442.078.528.159.486.286l.936-.007q.004.072.011.144l1.264.063-1.889.09.002.22c-.586.018-.653 0-.655-.136l-.617-.001q.159-.074.319-.147l-1.59.051c.41.12 1.322.139 1.288.315.975.018 1.429-.071 2.037-.236l.3-.002c.477.093.763.211 1.451.205-.097-.074-.233-.141-.307-.218.69.011 1.739-.257 2.264-.227 1.059.06.044.349.263.495 1.098.06 1.057-.211 1.719-.29a5 5 0 0 1 .704-.03c.307.002.599.017.871.007.35-.013.422-.074.677-.073 1.183.003 2.065.26 3.286.253q-.471-.142-.951-.283.789.03 1.549.063.014.07.026.14l1.587-.01-.004-.219.315.144c.533-.084.875-.175 1.582-.158q-.479-.107-.97-.212.645.033 1.269.067.019.067.036.136c.469.071.91.143 1.403.214.055-.048.103-.099.163-.146.346-.03.568.046.815.057.4.019.486-.086.88-.064.291.017.454.084.815.064.011.048.015.097.027.14.342.04.505-.063.759-.057.639.014.995.155 1.683.122-.078.05-.159.094-.233.143.299-.013.798.044.931-.053.125-.098.073-.112.622-.107.005-.048.017-.093.027-.14.596-.017 1.157.005 1.71.065.35.038.143.143.18.214l-1.58.01c-.04.247 1.011.33.964.577l-.951-.03c.109.06.2.12.318.18.262-.082.962-.106 1.209-.156.25-.05-.03-.116.075-.173.058-.032.225-.055.25-.09.054-.082-.303-.11-.248-.202.026-.042.261-.088.277-.155.022-.092-.031-.227-.016-.326.445-.022.71.07 1.117.069.396-.002.665-.097 1.106-.08q-.31.092-.636.186l.644.178c.006-.068-.14-.176.153-.215.176-.023.453-.068.601-.064.532.015.751.094 1.289.054l.318-.147c.156.074.324.144.463.22-.34-.029-1.348.12-.888.21.359.07.925-.135 1.376-.004.481-.073.957-.142 1.413-.209.11.061-.193.205-.324.242-.455.126-.983.093-.921.27.503-.027 1.049-.051 1.574-.076l.007.219.947.001c-.026.048-.163.108-.348.145-.034.005-.29-.002-.283.035.015.04.258.031.282.038.13.047-.016.098.031.146h.161c.045-.05.117-.094.143-.147h-.319l.001-.073.319.072c.862-.115-.053-.295-.206-.387-.142-.092.238-.09.237-.154.01-.103-.589-.25-.301-.326.221-.057.863.03.739.15-.133.12.169.301.792.357.11-.12-.881-.239-.304-.322.49-.066 1.027.068 1.552.042.027-.141.314-.222.947-.202-.508.218-.166.442.913.547-.105.067-.213.135-.312.203.162.019.322.04.506.061q.839.099 1.667.207c.107.055.207.11.312.164q.165-.099.323-.198c-.722-.073-1.453-.14-2.181-.202l-.108-.214c-.068-.128-.13-.256-.195-.385l.216-.013.419-.027q-.202-.023-.415-.046c-.29-.032-.558-.064-.829-.088.299-.017.566-.018.834-.008.465.015.868.062 1.337.153.729.143.423.06 1.146.113.386.028.891.172 1.368.179.036.218-.286.368-.655.533.258.044.519.088.769.136.374-.035.064-.14.241-.242a4.6 4.6 0 0 1 .736-.18c.409-.047 1.449-.015 2.004.109.004.05-.006.097-.005.146.428-.002.827.077 1.3.153q.2.032.415.064c.39.057.526-.003.937.09a1 1 0 0 1 .087.025c-.006-.002-.02-.006-.053-.023-.009-.006-.058-.023-.14-.102-.026-.028-.03-.024-.085-.109a.58.58 0 0 1-.073-.403c.115-.374.223-.34.275-.394.121-.065.148-.058.165-.065l.043-.008.023-.003c.006 0 .003 0-.001-.001-.625-.032-1.113-.094-1.782.053.197-.083.415-.163.623-.243-.565.035-.963.031-1.451-.007a3 3 0 0 0-.285-.01q-.082.087-.171.175c-.732.064-1.476.134-2.207.205.171-.172.8-.41-.35-.343q.174.135.344.27c-.525.059-1.039.118-1.562.18l-.316.166c.047-.076.108-.156.144-.229-.182-.068-.572.009-.751-.031-.371-.086-.199-.21-1.022-.138.34-.114.052-.1.068-.186.011-.087.861-.31 1.168-.23-.188.075-.42.15-.605.227.333-.037.965-.098 1.225-.158-.052.008-.333.176-.531.21.127-.013.277-.036.413-.052.109.014.212.029.32.042.453-.113.763-.338-.202-.2.255-.06.178-.147.502-.178.711-.07 1.053.032 1.722-.118-.084.068.324.23.632.178.301-.053.387-.125.649-.18-.277-.083-.541-.164-.82-.245l-.779.194c-.061-.093-.127-.186-.183-.28-.199.061-.422.124-.62.186-.159-.026-.326-.05-.487-.077.651-.256-.771-.596.462-.782.131-.02.574.046.729-.102-.094-.073-.229-.154-.338-.23l-.623.038c.158-.084.298-.166.46-.249.49.187.994.375 1.486.565.103-.079.195-.158.302-.237.741-.045 1.24.028 1.932-.099l.024.365c.353-.031.512.015.817.027.127.004.218-.054.316-.05q.428.018.747.074l-.114.01c-.039.006-.091.005-.277.045-.059.041-.269-.04-.922.475-.08.063-.574.535-.668 1.231-.11.7.178 1.274.374 1.533.211.28.37.39.483.472.25.165.254.148.325.184a2 2 0 0 0 .213.076c.034.008.048.01.056.009.025-.004-.008-.022-.035-.038-.059-.033-.138-.07-.216-.106l-.199.334a41 41 0 0 0-.858-.286l-.025-.008a14 14 0 0 0-.765.61l-.281-.197c-.611-.003-.944-.234-1.569-.222-.219-.095.289-.118.439-.13.232-.02.387.062.577.028.193-.032.223-.173.63-.146a22 22 0 0 0-.511-.301l.279-.143c-.447 0-.703-.094-1.179-.162.037.143-.059.23-.629.222-.161-.225-.681-.434-.56-.64-.341.094-.769.252-1.084.336-.319.085-.513.096-.8.17.203.01.409.03.611.045.04.203-.249.367-.031.58-.605-.11-.452-.278-1.216-.304q.155.082.305.165c-.415.02-.826.044-1.243.069-.026-.15-.132-.241.629-.183-.1-.079-.203-.158-.3-.236.258-.008.511-.015.777-.02.249.063.508.129.759.195-.101-.207-.733-.388-.556-.585.043-.046.726-.074.594-.144-1.163-.098-1.515.092-1.566.335-.311-.019-.618-.036-.932-.053q.078-.069.162-.136c.296.1.604.126.46-.015a2 2 0 0 0-.316-.222 2.4 2.4 0 0 0-.724-.212 7 7 0 0 0-.348-.043 11 11 0 0 0 .465.101c.174.238.489.384-.141.404-.213.004-.431-.002-.773-.01l-.002.219c.25-.034.463-.063.768-.089l.14-.015c.037.089-.024.143-.148.18-.325.077-.789.083-1.222.215-.083.027.021.225-.141.272-.423-.017-.725-.194-1.064-.218-.8-.056-1.278.073-2.036.05-.068-.208.588-.14 1.251-.14.109-.168.188-.34.312-.506.337 0 1.183.029 1.177-.107.005-.074-.402-.159.066-.245-.428-.01-.826-.01-1.256-.015-.056.097-.102.194-.151.291-.464-.052-.957-.102-1.41-.151q.31.146.633.293l-.945-.001c-.217.096-.406.193-.622.29.278-.27.837-.448-.004-.693.362-.085.728-.169 1.087-.252.584.1 1.716.284 1.725.006-.64.086-1.077-.086-1.712-.08-1.073.01-.669-.022-1.729-.067-.303-.013-1.702.122-2.039-.08-.216.053-.327.1-.509.15.552.022 1.04.046 1.584.07l.013.218.459-.064q.25.105.486.208c-.601.02-1.202.045-1.777.064-.571.02-1.12.034-1.685.052.353.115.893.119 1.406.109.4-.009 1.113-.236 1.376-.138.404.142-1.178.323-.563.496-.356.005-.623.002-.952.004.102-.049.218-.097.306-.147-.596-.005-1.65-.036-2.022-.135-.392-.114.015-.126-.25-.265-.215-.119-1.022-.33-1.365-.46.043.092.105.193.156.289l-.623.076c.325-.026.608-.053.942-.077.012.13.725.294-.245.36-.237.016-1.492-.12-1.926-.058-.051-.05-.021-.095-.041-.143l-1.569.007c-.093-.062.467-.126.546-.188.031-.024-.211-.038-.165-.072.131-.1.656-.125.544-.256-.332.123-.615.246-.93.37q-.47-.07-.964-.14l.322.246-.312.191-.927-.067-.016.143c-.484-.003-1.044.097-1.414.013l.155.176c-.665.152-1.701.369-1.58-.022-.272.05-.514.101-.775.152l.15-.293-.948-.066c-.022.101.003.196.17.29.236.132.767.21.789.36-.825.013-1.126-.205-1.764-.268-.428-.045-.694.027-1.092-.042-.333-.057-.394-.19-.791-.247-.606.018-.753.093-.78.223h-.01l.001.001c-.203-.002-.407.005-.614.005l-.013-.218q-.627-.033-1.278-.064c-.068-.137.039-.156.64-.151q-.164-.18-.329-.36l-1.254.01.613-.297c-.41.05-.823.105-1.249.154.029-.142.128-.357-.479-.424-.611-.066-.409.069-.503.138-.316.007-.613.008-.923.012-.093.173.371.245.664.388l-.027.264-.636-.212-.604.002q-.008-.109-.017-.218-.684.071-1.39.143l-.192.02-.463.44-.168-.29C156.888 5.111 156.688 5.14 156.472 5.119c-.02-.002-.012-.06-.158-.059-.147.002-.128.057-.155.062-.161.026-.277-.01-.443.017-.52.083-.787.172-1.455.15.154-.07.255-.087.616-.077q-.158-.182-.318-.362l.953.064c-.275-.097-.143-.146-.009-.252-.351-.102-.714-.114-1.25-.105q-.012-.07-.026-.141l-.933.007c.003.073.001.145.007.22.928-.147 1.673.027.771.132-.372.044-.795-.02-1.231.027-.376.04-.597.163-1.125.147.099.122.215.24.324.36l.961-.008q-.004-.073-.004-.146c.212.002.423-.005.633-.006l-.624.19.618.212-.766.262c-.483-.15-1.092-.105-1.753-.166l-.277-.071.246-.076c-.323-.105-.685-.114-1.233-.098.031-.22.224-.33 1.122-.448.193-.025.868-.048.586-.15l-1.2.078q-.26-.032-.518-.062c.101.083-.004.348-.64.21-.065-.013-.108-.196-.479-.197-.274.043-.519.102-.78.15q-.192-.041-.385-.085c-.314.112-.341.177.076.271l-.729-.022q-.736.076-1.486.152L147 5.284l-.625.298 1.569-.233-.617.335-.95-.029 1.27.282q-.941-.066-1.904-.13a92 92 0 0 1-1.124-.5l-1.092.082-.327-.362 1.57-.015c-.018.146-.147.24.638.213-.523-.209.136-.336.624-.517l-1.579.16-.005-.218c.636-.03.962-.102 1.582-.015-.007-.05.008-.096-.012-.148-.255.043-.648-.056-.766-.052-.552.02-1.101.223-1.54.214-1.042-.02-.115-.36-.233-.406a.74.74 0 0 0-.763.127c-.175.15-.029.242-.802.231q.644.067 1.278.134l-2.218.02c.344.155.804.226 1.586.205-.045.185.131.329.652.468l-.948-.029c.028-.124-.014-.209-.495-.278l-.322.065-.157-.142q-.618.135-1.242.267c.84.124.357-.155 1.095-.112.467.028.523.18.476.278-.207.03-.414.054-.623.081 1.008.07 1.84.06 2.849-.028.009.12-.531.065-.795.158-.237.083-.151.23-.608.289-.98.067-.135-.178-.213-.196-.59-.137-1.363-.185-2.017-.29-.004.076.004.147.005.22-.213-.043-.413-.082-.637-.129-.343.118-.636.004-.928.016-.638.025-.475.248-1.129.284-.047-.094-.108-.193-.16-.289-.36.05.12.151-.467.112-.302-.02-.609-.042-.944-.025-.043-.214.229-.42-.494-.579-.474.065-.956.131-1.426.197l.952-.01-.248.076c.531.119.644.225.583.395l-1.264.014c-.005.048-.002.097-.011.143-.435.045-.767-.04-1.112-.052-.47-.016-.62.091-1.085.073-.03-.145-.15-.228.611-.227q.161-.218.32-.437c-.828.006-2.186.182-2.214.388l-.475-.064c-.207.073-.407.147-.62.22-.433-.085-.576-.13.034-.213.693-.096 1.238-.074 1.049-.308-1.312.008-1.358.358-2.617.379-.977.016-1.085.106-2.023.169-.488.032-1.482.061-2.111.018-.626-.044-.949-.186-1.757-.115l-.645-.358.622-.008-.002-.29.79.127c.581-.099 1.102.01 1.748-.007-.115.145-.758.08-1.11.017l-.785.22 2.365.049.786-.372-1.408.015-.489-.214 1.896.126-.011-.365c-.761.007-1.449.07-2.208.023q-.233.184-.465.37c-1.106-.073-.723-.189-.174-.363-.416-.03-1.188.103-1.401.153-.212.05-.064.124-.18.144-.639.11-1.442.05-2.035.178q.232-.186.465-.37l1.577-.053c-.062-.19-.979-.118-1.425-.022q-.08-.072-.16-.144c-.255.001-.49-.02-.627.044-.059.028-.253.125-.246.14.106.169.255.18-.374.31l.317.172-.947.083.307-.222-1.255.123.628-.043q-.149.22-.301.44l-.949-.1.627-.078-1.261-.279.302-.186.634.067q-.003-.11-.007-.219a14.7 14.7 0 0 0-2.526.027l.001.22-.779-.066-.479.115.632.066-1.415.198-.166-.144-.928.086c-.212.123-.428.245-.635.368-.924-.066-.148-.15-.361-.288-.03-.018-.687-.014-.587.05-.018.035 0 .068-.005.102l-.63.006-.015-.143-1.886.017c.257.07.526.136.774.206h-.009.001c-.343.023-.911.072-1.195.088-.286.016-.284-.002-.517.007.115-.062.21-.122.317-.184-.428-.102-1.048-.077-.956-.247-.334.02-.675.106-.941.155q-.08-.036-.161-.07c-.14-.004-.127.066-.151.07-.798.11-1.52-.003-2.368.03l-.327-.143.167.29-.948.01c.079-.224-.163-.39-.65-.577l1.262-.086-.321-.215-1.27-.06c-.053.086-.29.173-.301.26-.01.085.276.18.48.248.354.115.591.096.002.22-.474-.093-.953-.185-1.429-.277q-.002.108-.006.217l-.607.011c0 .071-.009.146-.001.215-.6.004-.412-.143-.678-.199s-.67.012-1.058-.01c-.196-.01-.302-.072-.685-.055-.587.027-1.637.28-2.318.243-.162-.17.64-.34.304-.479l.617-.114c.64.007.15.18-.022.243-.171.064-.63.133-.596.202 1.057-.019 1.962-.113 1.885-.386l1.266.06-.327-.362c-.442.005-.762.098-1.106.013-.248.056.481.204-.336.143-.107-.007-.724-.138-.745-.163-.15-.18 1.017-.139.909-.343-.495-.004-.16.101-.497.15-.463.065-.844.143-1.382.163l.002.29-.633-.03.306-.257h-.607c-.018-.046-.013-.092-.044-.138-.676.009-1.806-.037-2.143.132-.338.169 1.102.08 1.41.157l.753.002q.162.09.328.177l-.307.259-.642-.213-.628.044-.166-.254c-.204.075-.423.152-.619.225-.465-.042-.263-.138-.534-.204s-1.15-.08-1.524-.065c-.021.05-.018.094-.03.142l-.591.014c-.153.145-.154.31-.956.299l-.165-.217-.791-.065 1.254-.231c-.535.042-1 .157-1.443.221-.58.084-1.145.063-1.078.243-.499.041-1.312-.094-1.748-.116-.435-.021-.694.012-1.095.001a6.5 6.5 0 0 1 1.564-.166q.013-.068.027-.138c1.239-.069 1.038-.313-.187-.29-.264.005-.229.15-.455.185-.318.018-.635.03-.953.047-.08.128-.345.234-.31.366-.35-.007-.632-.03-.95-.063l-.002.217c-.639.016-.93.083-.939.232l-1.26-.06.254-.185-.92-.608c-.573-.01-.92-.103-1.413.01-.11-.095-.215-.19-.326-.285-.496.113-.534.122-.136.258.326.112.747.28 1.259.35.307.042.416-.073.638-.006q-.157.092-.31.185-.4-.068-.807-.134c-.748-.01-1.012.15-1.724.161q.002-.05.003-.1l-.956-.035.323.215-.945.01c.007.097 0 .197.014.291-.556.028-.124-.175-.507-.134-.7.075-1.617.063-2.182.232-.47-.128-.867-.112-1.555-.135-.537-.018-1.4-.052-1.903-.048-1.598.014-2.883-.012-4.466-.02-.998-.006-2.376.094-2.958-.15-.36-.154.67-.06.584-.189-.996-.051-1.42-.24-2.526-.192l1.26.06c-.1.098-.206.196-.303.295-.443.008-.67-.041-1.107-.064-.272-.014-.589.03-.932.002-.395-.031-.58-.16-1.125-.123-.006.047-.002.097-.005.145-.37-.02-.73-.041-1.105-.06-.147.043-.532.086-.286.146.573.138 1.42-.141 1.4.134l-3.622.036c-.563-.092-.524-.207-.495-.357-.11.048-.2.103-.323.146-.86.113-1.713-.136-2.316-.165-.6-.03-.588.117-1.158.058.118-.093.206-.196.312-.293l-.905.192c.094.06.196.12.286.18C46.585 5.32 46.251 5.313 46.064 5.312c-.759-.004-1-.044-1.704-.112-.208-.02-.796-.022-1.03-.068.054.179-.248.289-.937.375q-.004-.146-.01-.292-.964.082-1.9.166l.621-.154-.478-.285.163.217q-1.246.014-2.527.027.002.11.006.22l-.945.01c.287-.113.036-.176-.01-.292q.394.03.791.057l.787-.184-.642-.175 1.284.059-.64-.068q-.008-.108-.013-.217c-.885.011-1.59.183-2.357.026l.168.435-.201.006c-.645.01-.918-.072-1.403-.171-.38-.078-.667-.138-.924.014-.279.165.382.017.615.061-.393.08-.217.166-.47.265-.28.11-.61.107.018.216.56-.103 1.144-.207 1.73-.31.034.145.16.228-.62.227l-.008.218-1.555.014c0-.048-.019-.097-.01-.144-.68-.023-.547.104-1.197.148-.338.024-.988.1-1.523.075-.548-.024-1.27-.203-2.023-.1.188-.08.41-.15.613-.227l-1.111.156-1.095-.06.324.142-1.262.013.302-.295-.471.075.002-.142L25 5.25l-.026-.14-.77-.064c-.735.182-1.732.163-2.678.241q.257.107.494.215l.765-.08q.006.108.008.218l-.777.075c-.201-.043-.424-.086-.639-.129-.594.053-1.147.105-1.73.158l.158-.148-.484.005q-.082.075-.16.149c-1.422.032-2.809-.104-4.093.105-1.014-.19-1.976-.09-3.234-.105-.322-.003-.67.077-1.01.001-.02.05-.012.098-.022.147L9.376 5.77c-.906.23-1.26.128-2.246.026-.553-.06-.942-.112-1.586-.137-.295-.012.019.23-.742.139-.02-.092-.008-.194-.016-.29-.482.075-.736.06-.946-.066.632.004 1.025.025.939-.152l.618-.008c.09-.138.402-.191-.15-.288-.89.055-1.792.11-2.682.163-.144-.175 1.05-.345 1.25-.518-.811-.005-1.008-.11-.957-.286a2.4 2.4 0 0 0-.775.076c-.46.111-.36.237-1.112.225.062-.074.107-.144.17-.219-.414-.087.017-.177.063-.25.05-.073-.337-.07-.411-.111-.232-.12-.137-.162-.776-.15L0 3.56l.475.071q-.082-.108-.162-.217a33 33 0 0 1 2.355-.084c.248 0 .48.046.62.05 1.15.037 1.45-.013 2.646-.064.225-.01.96.093 1.488.048.193-.015.28-.119.698-.138.511-.023 1.511.06 2.128.051.536-.007 1.039-.073 1.575-.088q.006.073.007.146l1.572-.22c.655.015 1.381.029 2.038.043q.01.071.019.144c.559-.068.878-.004 1.42-.012.546-.008.993-.123 1.57-.089q.317.106.64.212c-.052-.095-.122-.195-.16-.289.431-.052 1.068.043 1.386.039 1.013-.014 1.79-.14 2.71-.041.366.039.842.217 1.098.231 1.106.057 1.206-.143 1.916-.218.395-.043.37.044.617.039 1.311-.03 2.494-.201 3.787-.236 1.279-.035 2.593.166 3.77.173.935.005 1.223-.143 2.095-.02-.006-.05.002-.096.01-.145l.155-.002c.397-.006.874-.016 1.231-.016.28 0 .448.053.632.052.548-.006 1.066-.164 1.557-.137.61.034.694.177 1.45.122-.003.036.005.068.007.102l.487-.033.32.14.476-.225q-.487-.03-.966-.062c.416-.017.861-.035 1.26-.053l.937.033.028.14.929-.01c-.055-.176.311-.155.967-.155.22.047.418.093.63.14q-.161-.108-.318-.216l.932-.156 1.115.28-.164-.217c.353-.03.504.043.782.045.279.001.355-.059.654-.063.435-.008.942-.008 1.4-.013q.007.072.011.145l.315-.003c0-.048.008-.096.004-.144.823-.068 1.463-.1 2.342-.093 2.458.021 4.851-.129 7.266.059a19 19 0 0 1 2.71-.172q-.322-.106-.643-.213l1.268.06c.166.072.325.143.486.214l.456-.443c.943.102.315.242.33.434.75-.008 1.636-.017 2.36-.028.292-.004.476.058.626.052.734-.029 1.22-.197 1.914-.085.305-.074.628-.147.934-.22.318.053.468.125.813.175.41.06.723.014.637.17.42.021.834.043 1.252.063l.005-.216.608-.011.005-.217q.475.03.95.063c.07-.171.928-.362.952-.084l-.634.044.63.03q.007.109.012.218c.628.043 1.289-.178 1.25-.306l.793.135c.898-.12 1.207-.206 1.095-.447l.939.067q.017.067.038.136l1.089.14.466-.224-.607.002-.515-.206-2.046.02c.292.21.306.287-.46.442l-.172-.436-1.096.303.156-.146c-.85.001-1.417-.098-2.216.023.065-.223-.022-.364-.807-.5l-1.1.156.948.063q.01.255.016.51c-.758-.034-1.582-.022-2.327-.055-.264-.012-.323-.078-.504-.097-.525-.055-.715-.02-.66-.175q-.466.043-.934.084c.033.16.088.292-.625.37l-.018-.216-.593-.002q-.013-.07-.028-.14l-.606.001-.04-.139-.934.01q-.008.071-.02.142l-1.09.082c-.557-.088-.66-.29-1.42-.272l.145-.292-1.107.084c-.172.24 1.054.36.972.573-.752-.089-1.42.031-2.221.024l.63-.116-.827-.172-.755.043c.545-.17.898-.322.141-.476q-.072.183-.145.366l-1.26.014-.31.294c-1.008-.119-.441-.164-.05-.327-.862-.337.399-.151.836-.046.22 0 .234-.078.144-.109-.426-.148-1.222-.1-1.901-.091q.16.108.324.215l-.945.12v.073l.638.176-1.887.02c-.211-.146.685-.305 1.246-.306-.03-.187-.52-.228-1.262-.205l.007.219c-.855-.046-1.674.026-2.535.026l-1.083.523c-.36-.069-.75-.14-1.118-.207.29-.022.79.095.95.022s.3-.17.312-.255a8.8 8.8 0 0 0-2.055.313c-.362-.094-.784-.143-1.073-.26-.188-.076-.091-.127-.664-.087q.16.106.32.215l-1.116.084.176.144-.957.009.306-.368-1.255.304.149-.293-.312.06q-.237-.1-.476-.198l1.255-.012-1.417-.204c-.399.115-1.15.13-1.126.296l-.6.013-.006.217-.632-.03.304-.332-1.416.374c-.477.004-1.091.037-1.534.012-.283-.015-.45-.108-.647-.114-.569-.017-.481-.03-1.042-.074-.481-.036-2.043-.023-2.301-.167.188-.098.403-.196.608-.295-.356-.068-.558-.152-.955-.214-.156-.024-.301-.031-.412-.041-.18-.015-.279-.036-.216-.132-.219-.003-.425.003-.638.004-.006-.035-.012-.068.011-.105.293-.082.53-.14.84-.172a7 7 0 0 1 .905-.03c.594.009.77.07 1.258-.084m160.217 1.035.01-.145q-.418.03-.822.066l.337.169c-.434.016-.869.037-1.295.059-.111-.092-.229-.184-.345-.275.429-.023.856-.043 1.296-.062q-.006-.11-.01-.219c.486-.02.982-.039 1.505-.045l.186.145c.078-.025.161-.05.233-.074-.042-.004-.063-.014-.249-.003a2.881 2.881 0 0 0-.512.09c-.19.06-.464.116-.961.457a3 3 0 0 0-.73.734 3 3 0 0 0-.359.678c-.455 1.098-.021 2.376.341 2.831.42.576.647.682.835.822.196.128.258.154.319.187a3 3 0 0 0 .153.073c.354.142.316.111.366.13l.037.012c.002.003-.017 0-.04-.002l-.177-.023-.428-.053c.152-.03.303-.06.444-.09.07-.015.138-.03.193-.047a.2.2 0 0 0 .062-.029c.003-.014.037-.015-.102-.071.18.037.114 0 .108-.016a1 1 0 0 0-.09-.064 4 4 0 0 0-.248-.138c.152.026.281.045.354.05.031 0 .073.006-.006-.023-.027-.01-.056-.018-.161-.059-.053-.023-.136-.045-.377-.181a2.5 2.5 0 0 1-.663-.555c-.065-.081-.071-.073-.217-.296a2.6 2.6 0 0 1-.317-.738c-.184-.616-.023-1.522.329-2.02a2.7 2.7 0 0 1 .389-.47q.137-.129.257-.214c.319-.228.528-.3.682-.355.176-.057.194-.056.255-.071a2 2 0 0 1 .423-.052c.052 0 .071.002.09.005-.139.036-.216.089-.219.159a54 54 0 0 0-.876-.276m-2.129-.308.161-.045c.161.028.331.056.49.085l-.157.044c-.172-.028-.324-.057-.494-.084m-1.929.115c.002.046-.295.065-.3.02-.003-.047.294-.066.3-.02m-11.082.825c.002.046-.292.07-.297.024-.004-.046.291-.07.297-.024m-2.833.196.63-.051.006.072-.63.052Zm-5.681.515c.004.046-.294.071-.299.026-.005-.046.294-.072.299-.026m20.675 3.672c.008-.045.276-.01.271.037-.006.045-.275.009-.271-.037m-5.833-4.804c.005.046-.3.068-.301.023-.008-.046.298-.07.301-.023m-8.28 4.228h-.634c.056-.093-.179-.137-.314-.218l.944-.002q.004.11.004.219m8.368-.21.014.142.601.036-.006.146-.621-.034-.133-.134a3 3 0 0 1-.185-.174l.193.01Zm-24.688-1.96c-.453.16-.997.27-.95.049l.482.025Zm29.707-2.155c-.069-.069.195-.251.623-.257q.01.109.017.218Zm-17.814 4.27q-.303.002-.616.003-.003-.036-.002-.073l.617-.002Zm.098-2.986c-.27.098-1.067.001-.945-.043.272-.098 1.065 0 .945.043m5.585 2.82.002.146h-.64c.153-.049.324-.098.48-.147Zm.948.145h-.318q-.004-.11-.005-.22h.318q.002.11.005.219m-17.889-2.114.629-.056q.013.108.023.217l-.628.056q-.014-.109-.024-.217m-3.111.515c-.183.058.128.191-.635.187.001-.178 1.031-.489 1.855-.532.008.095.021.195.029.288-.413.038-.83-.076-1.249.057m32.035 2.04c-.325-.02-.582-.075-.888-.123-.304-.049-.625-.07-.603-.162q.609.049 1.203.107c.104-.038.214-.075.315-.114q-.012.146-.027.291m-21.449-.762c-.224.1-.371.18-.308.294l-.963.005q-.003-.146-.007-.291Zm5.048.265-.626-.143.623-.003q.003.073.003.146m5.678-.054C184.252 6.031 184.568 6.032 184.565 6.078 184.569 6.124 184.252 6.123 184.262 6.077m-8.099-2.737c.055.242-1.153.232-1.876.306l.783-.285Zm9.809-.516c.218-.117.363-.208.287-.316l.312-.025q.016.146.029.29Zm-10.228 3.21c-.007-.047.306-.048.306-.002.003.046-.31.047-.306.001m4.111-.022c0-.046.286-.046.29-.00047999999999959186-.003.045-.287.046-.29.0003800000000007131m-20.519.11q-.693-.06-1.407-.117l-.193-.017.193-.01 1.402-.075Zm-1.822-.163c.29-.037.023-.113.32-.175.184-.037.408-.103.64-.128.644-.069.857.045 1.374-.174q-.315.012-.629.02l-.047-.43q.307-.05.62-.097c-.396-.07-.252-.186-.965-.093.017.055.363.055.185.127-.442.176-.608.13-.868.347-.254.2-1.594.502-.63.603m6.872.115c-.355-.028-.549-.082-.964-.067l-.01-.29.644-.005q.166.181.33.362m1.564-.011-.315.002c-.023-.103-.267-.186-.314-.288h.009v-.001c.206.002.394-.005.613-.005Zm13.368-2.88c.005.046-.292.07-.296.025-.006-.046.292-.07.296-.025m-2.758.415c-.33-.037.357-.275.506-.26.329.037-.356.276-.506.26m-16.467 1.239c-.01.148.339.191.971.13-.321-.044-.652-.087-.971-.13m14.389 1.098c-.214 0-.438.002-.636.003q-.003-.037-.002-.073l.636-.003Zm4.106-.06C178.587 5.83 178.877 5.83 178.883 5.876 178.878 5.92 178.589 5.922 178.588 5.876m2.826.024-1.265.003V5.83l1.265-.003Zm-29.683.14c-.529-.075-.803-.046-1.367.008q-.731-.083-1.477-.166c.835-.189 1.62.001 2.526-.131q.16.144.318.29m1.913-.016-.633.005-.001-.073.633-.005Zm34.977-.321c-.605-.015-.945.06-.918.206.621.01.94-.059.918-.206m4.918-.015c.386.035.466.154.597.235.228.137.381.232.281.355l-.002-.001c-.775-.046-.503-.099-.594-.235-.09-.135-.386-.231-.282-.354m-47.809.12c-.428.076-.844.152-1.257.23l.616-.299Zm30.333.006c-.001-.046.305-.047.304-.001.002.046-.302.047-.304.001m2.644-2.468.63-.053q.009.073.015.145l-.63.053Zm-23.503 2.481c-.218.039-.421.077-.626.115q-.004-.11-.005-.218l.154-.002q.231.053.477.105m30.938-.001-.324-.002-.002-.146.324.002Zm-33.94-.02c.004.046-.297.08-.302.034-.007-.045.296-.08.302-.034m-8.046.161-.951-.21.946-.009q.002.11.005.219m45.303-3.377c.004.046.302.024.296-.022-.002-.046-.299-.024-.296.022M177.64 5.733c0-.046.302-.047.303-.0008299999999996643C177.945 5.778 177.641 5.78 177.64 5.733m2.209-.012C179.85 5.675 180.134 5.674 180.139 5.72c-.003.046-.288.047-.29.001m3.775.028h-.319l-.003-.147h.319q.002.073.003.146m-25.885.057c0-.028.105-.04.188-.035.06.004.109.014.109.033.001.018-.049.03-.108.034-.083.006-.188-.005-.189-.032m1.28-.01c-.002-.046.299-.048.299-.002.002.046-.299.048-.299.002m36.075.184c.143-.015.788.243.478.27-.135.012-.792-.239-.478-.27m-27.257-.369q0 .073.004.146l.633-.005q0-.073-.003-.145Zm3.162.088c0-.046-.304-.044-.303.002.002.046.305.044.303-.002m2.068-1.545c-.262.055-.68.038-.949.046-.002-.049-.011-.097-.015-.146l.631-.054ZM113.15 6.03l-.157.038-.473-.106.157-.038Zm62.571-.688c.102.06.218.12.327.18-.163.037-.325.075-.474.112l-.468-.18.613-.112Zm-18.614.36-.63-.104.468-.114.156-.001q.004.11.006.22m-38.895.217c-.001-.046.299-.048.3-.002 0 .046-.3.048-.3.002m31.295-.624c-.318.057-.242.09.006.143.475.1 1.026.076.961.248l-1.589-.06-.014-.363q.32.015.636.032m7.215.744c-.223-.1-.458-.199-.686-.297l-.406.015-1.486.063c.616.119.846.274 1.52.284a8 8 0 0 0 1.058-.066m27.522-.508h-.626v-.072l.626-.001Zm-27.46-.264-.948.008c-.01.054.281.054.25.11s-.36.104-.248.18l-1.416.088-.796-.25c-.067-.142.185-.093.623-.114l.158.071 1.098.063c.111-.05.215-.098.331-.148h-.003c.039-.06.299-.088.315-.149q.16 0 .317-.003Zm40.631-2.873-.004-.072q-.314.014-.641.032l.004.073Zm-32.418 2.948.003.145c.313.012 1.009-.055.93-.152Zm4.229-1.636c-.222.05-.233.181-.507.212-.274.03-.737-.146-.604.046v.001c.132.192.464.1.928.194.213.043-.11.198.35.237-.318.044-.624.079-.945.12q-.145.2-.292.402c.693.153 1.164.331 2.193.311-.067.04-.374.11-.309.148.408-.027.858-.054 1.272-.081l.004.146 1.577-.01-.001-.073-1.58-.063-.003-.146c-.41-.012-.592.048-.96.08.077-.129-.056-.209-.475-.289l-.78.042c.534-.04 1.011-.08 1.569-.12-.219-.096-.44-.193-.647-.288.529.004.313.165.846.209.287.024.885 0 1.21-.004.328-.003.523.017.482-.076-1.023.017-.482-.248-.95-.396l.94-.042q-.17-.107-.338-.215l-1.084-.062c-.413.087-.817.154-.797.292l-.622-.033c.073-.137.645-.186.613-.332-.713.027-.654-.117-1.09-.21m9.39.306c.319-.093.519-.158.453-.257l-.946.079c-.046.11.162.14.493.178m-12.365 1.175q.001.11.005.218l.64-.004-.006-.219Zm30.225-2.451a80 80 0 0 0-.813-.17l-.788.12c.269.054.545.11.809.166Zm-8.726.388.166.06-.318.025Zm-9.922.955-.015-.145c-.61.038-1.025.092-1.245.251Zm-27.058.948c-.008.118.103.257.327.361l.935.03c-.434-.13-.838-.26-1.262-.39m-36.177.51.48.104v.036l-.952.009.471-.15Zm57.973-.395q0 .073.004.146l.639-.005-.482-.142Zm13.136-1.784-.946.076.003.036.486.07q.23-.09.457-.182M105.59 5.702l-.631.007q-.002-.037-.002-.073l.631-.007Zm53.722-.458q.002.037.002.073l-1.283.011q0-.074-.004-.146.654.03 1.285.062m-51.191.395-.474.042-.017-.005h.008l.481-.036Zm25.892-.195c-.001-.046-.296-.043-.295.003 0 .046.296.043.295-.003m27.432.11c-.214-.016-.421-.034-.64-.05l.024.217.159-.014Zm35.994.42c.006-.046-.276-.094-.283-.049s.275.094.283.049m-31.834-.747c-.001-.046-.292-.043-.29.002 0 .046.292.044.29-.002m2.528-.128q0 .072.004.145l.325-.002q0-.072-.004-.146Zm28.85-.053c-.232.076-.435.152-.646.235.166.083.428.227.552.302.201.123.032.112.13.21q.24-.111.493-.213c.217.037.443.079.689.118l.564.092c.098.184-.46.036-.595.101q-.042.017-.027.058.003.008.015.014c.092.06.614.134.699.212.185-.115.342-.238.514-.352.077.009.146.022.178.031.004 0 .056.023-.085-.023-.023-.009-.066-.024-.129-.056-.026-.014-.086-.04-.198-.121a1.4 1.4 0 0 1-.205-.183c-.051-.059-.057-.053-.161-.21a1.44 1.44 0 0 1-.22-.66c-.084-.61.439-1.192.491-1.205.143-.124.256-.182.343-.223.179-.08.247-.087.282-.097.081-.02.132-.025.159-.028l.107-.012c-.252-.032-.434-.102-.702-.117-.618-.032-.943.047-1.453.114.002-.167-.439-.26-.025-.436l-.964.048c.424.218.697.436.69.695.818-.044 1.02-.163.945-.333.449.022.98.098 1.509.17l-.083.01c-.012.002-.056.007-.112.018-.033.007-.05.01-.123.032-.09.032-.222.06-.459.249-.069.064-.084.058-.228.248-.115.16-.217.401-.235.653-.048.513.27.908.297.934.148.173.246.228.315.274.124.073.132.07.174.088.172.061.106.028.112.028a1 1 0 0 0-.116-.047 4.577 4.577 0 0 0-.972-.214c-.059.065-.129.129-.18.193l-.108-.033c-.444-.145-.161-.204-.391-.34-.118-.071-.692-.138-.841-.224m-76.533.462c-.001-.046.297-.05.299-.003.002.045-.298.049-.299.003m-21.495.191-.632.007.47-.15v-.001l.158-.002c0 .049.004.097.004.146m82.44-.749c-.026.147.348.221.952.217.019-.146-.297-.222-.952-.217m8.12.23c.003-.046-.281-.056-.277-.01-.007.045.277.056.277.01m-27.673-.094c.278-.076 1.051.08.931.115-.268.076-1.054-.08-.931-.115m-67.305.551c-.002-.046.298-.049.299-.003 0 .046-.299.05-.3.003m26.217-.242c-.401-.009-.596.049-.946.082q-.003-.073-.004-.145l.948-.01Zm-44.867.41-.318.002q-.001-.072-.004-.146l.318-.003q.002.073.004.146m85.936.264c.791-.054.628-.13.606-.276q-.158.014-.314.029-.171-.13-.347-.261.026.255.055.508m.9-.559c.005.046.306.018.299-.027-.003-.046-.305-.019-.299.027m-58.402-.014c-.137.06-.167.09-.316.004Zm90.758.004c.008-.046-.287-.076-.287-.03-.008.045.285.075.287.03M163.094 5.1c-.001-.046.287-.048.292-.002-.004.046-.291.048-.292.002M149.767 6.83c.002.046.317.005.304-.04-.001-.046-.315-.005-.304.04m23.432-1.912.004.146.619-.15Zm14.116-1.432c.003.046.301.022.298-.023-.006-.046-.304-.023-.298.023m-.934.293.956.035-.632-.025-.033-.216-.787-.005-1.401.29.636.017-.007-.057.623-.097.662.24Zm-4.428.138c.004.046.304.021.299-.025-.006-.046-.304-.02-.299.025m-28.966 1.236c-.212-.002-.425.005-.639.005l.635-.152c0 .05.004.098.004.147m-25.609.139c-.001-.046-.303-.043-.301.003.001.046.303.043.301-.003m68.029.06-.013.145q.301.034.601.072l.016-.145c-.202-.025-.4-.049-.604-.072M85.37 5.588c-.002-.045.297-.048.298-.002.002.046-.298.048-.298.002m3.152.004-.95.01-.001-.072.95-.01Zm78.664-1.215c-.999-.011-1.312.203-2.205.236-.009-.048-.009-.095-.025-.143-.6-.02-1.185-.128-1.549.049-.316.154.62.078.909.105l.044.006c.07.02-.07.062.022.09.368.111.708.175.609.33.93-.002 1.606-.201 2.52-.092l.299-.44-.935.08Zm-29.068.699c.062-.229-1.212-.18-1.568-.02.298.02.197.17.468.17.934-.002.012-.298 1.1-.15m-24.314.284c-.001-.046.295-.05.297-.003.001.046-.296.049-.297.003m-21.808.195c0-.049-.005-.097-.005-.146l.632-.006Zm32.872-.31c-.002-.047.297-.05.297-.004.002.046-.296.05-.297.003m-41.564.332-.792-.065h-.002c0-.048-.004-.097-.004-.145l1.266-.014q-.235.111-.468.224m50.076-.457-.621.081c.421-.004.755-.09 1.094-.014.52-.08.314-.1.208-.187-.166-.134.302-.2.25-.325q-.464.224-.931.445m30.301.486-1.268.042c.002.049.017.096.016.145.151-.011.301-.03.454-.043q.177.057.35.116Zm-77.052-.103c-.002-.046.296-.05.298-.003.002.046-.298.049-.298.003m4.41-.23c.064.073-.202.241-.624.226l-.008-.22Zm-15.151.275c-.002-.046.3-.05.3-.003.002.046-.3.05-.3.003m27.147-.767.638.211-1.264.014q.001.11.005.218l2.219.123c-.063-.086.211-.13.143-.22h.002c-.107-.14-.545-.277-.48-.432-.424.027-.84.057-1.263.086m25.61.28q.474.049.947.1 0-.038-.003-.074h.002l-.789-.065Zm-18.677-.864c-1.05.06-1.023.329-2.2.315l.642.285c-.681-.047-1.321 0-2.025.03-.15.006-.198.06-.402.061-.593 0-1.114-.152-1.044.092l1.262-.013.011.364c.4-.055.531-.064.934-.01l.034-.141.596-.013.018-.215.597-.014q.009-.07.019-.14l.63-.01-.293-.104.446-.113.79.064c-.667-.187-.663-.239-.013-.438Zm58.291 1.216c.132.007.437-.03.456-.038.23-.101-.222-.154-.466-.178-.26.072-.52.143-.772.215h.002c.368-.055.531-.012.78.001m-7.083.569-.016-.145c-.205.018-.423.04-.632.058l.016.145Zm5.068-1.088-.947.007q-.002-.036-.001-.073l.945-.007Zm-50.563-.028c.068.203-.362.344-1.256.378l-.007-.291Zm37.589 1.778c.005.046-.288.077-.294.032-.007-.046.288-.077.294-.032m-52.434-1.402.001.073.945-.12-.159-.035Zm-24.643.193a3 3 0 0 0-.79.073q-.718-.097-1.431-.195l2.215-.023q.005.073.006.145m9.485-.068c-.002-.046.297-.049.298-.003.002.046-.298.05-.298.003m72.381 1.201c.039-.199-.013-.349-.989-.271-.202.117-.397.234-.594.351Zm-1.604-.174c.007.045.299.016.294-.03-.006-.045-.297-.016-.294.03m-18.021-1.467q0 .036.002.072l.637-.006-.001-.073Zm-48.656.433-.631.007q-.003-.073-.004-.146l.157-.002Zm83.1-.659.001.073 1.25-.007v-.073Zm1.891-.084q.003.072.004.146l.316-.002q0-.073-.003-.146Zm13.234-.092c.12.26.983.232 1.83.27q.005-.11.008-.219a27 27 0 0 0-.916-.074c-.301.006-.612.014-.922.023m-55.884.39.002.073.632-.006-.002-.073Zm35.057.67-.646-.089q.007.073.015.145Zm-5.989-.796-.64.005q-.001-.072-.003-.146l.639-.005ZM5.737 5.94q-.005-.072-.007-.145l.63-.005c-.215.05-.398.1-.624.15M67.94 4.357c.536.166.047.198-.261.335-.157.07.159.125-.084.173s-.747.026-.898.126c.206.08.434.165.648.247l.464-.072c.588.09.212.148.168.284l1.565-.237q-.002-.108-.005-.216l-.63-.067.94-.12-1.578-.165q.781-.064 1.568-.126l-.947-.027.312-.15Zm79.03.415c-.048.06.105.07.335.074Zm43.235-.884-.458-.037-.199-.207-.312.24-.617.05q.005.073.016.145.781-.096 1.57-.191m-6.327.238c.005.046.306.021.301-.025-.004-.045-.305-.02-.301.025m-.281.237.005.292h.627a22 22 0 0 0-.313-.292Zm-7.202 1.302c-.029-.16-.496-.182-.293-.385.134-.134 1.294-.491 1.141-.639-.763.22-1.228.206-2.191.257-.024.113.349.03.65.056.443.039.322.186.339.3l-.653-.164-.268.421c.424.052.861.1 1.275.154M58.173 5.482l-.943.01-.002-.073.943-.01q.002.037.002.073m50.87-.618.005.218c.456.008.66-.041.943-.119a2.8 2.8 0 0 0-.948-.1m-.32.185c-.002-.046-.3-.042-.299.003s.301.043.299-.003m-47.398.363c-.002-.046-.299-.043-.297.003 0 .046.298.043.297-.003m98.925.839q-.239-.033-.485-.064l-.154.05.488.065Zm-96.715-1.19c.385.14-.128.286.65.357l.009-.26Zm2.201-.171-.925.12q.16.162.32.324l1.257.061-.953-.245c-.076-.173.476-.086.94-.12-.04-.197.508-.322.938-.484h-.002l-1.584-.093Zm105.244-.25c-.381.006-.536-.119-.615-.183s-.031-.114-.039-.177q.491-.002.964-.006-.154.183-.31.367m-20.861-.406c-.091.067.151.312.339.342.495.075.697-.031.62.158.783.053 1.574-.304 1.567-.453l-.478.15c-.7-.065-1.357-.137-2.048-.197m-52.14.856c-.001-.046-.301-.043-.3.003.002.046.3.043.3-.003m51.514-.489c0 .049.004.098.004.146l.318-.003q-.001-.072-.003-.146Zm28.104-.292.335.216c.428.023.81.046 1.255.069.035-.265-.529-.308-1.59-.285m2.2-.52c.024.067-.156.152-.158.216-.003.077-.149.269-.113.31h.001c.128.141.416.145.288.278.297-.029.639-.052.95-.078l-.32-.25c.321-.075.623-.15.929-.226l-.621.007c-.315-.085-.655-.172-.956-.256M51.529 5.336c0 .049.004.097.004.146l.318-.003-.004-.146Zm4.434.098-.636.007q-.003-.037-.002-.073l.636-.006q.002.036.002.072m131.099-.844.633.005c-.168-.05-.311-.1-.472-.15l-.161-.001Zm-15.775.781-.016-.145-.315.027.015.145Zm-4.727.417c-.037.152.167.165.825.07.582-.082 1.068-.23 1.049-.383-.768.054-1.03.075-.923.263q-.473.024-.951.05M56.61 5.39c-.001-.046.293-.05.295-.003.002.046-.294.05-.295.003m24.63-.228c-.051.02-.014.065-.155.064-.14-.002-.142-.036-.161-.061.105 0 .21-.005.315-.003m54.668-.722c-.194.228 1.06.165 1.502.208.445.043.359.091.709.136-.243-.12-.433-.239-.654-.358ZM15.03 5.06c-.612.117-1.316.078-2.05.091.582.136.932.352 1.582.458.307.05.303-.01.493-.036.046.045.1.095.149.141l.628-.117-.338-.431q-.235-.053-.464-.106m102.222-.175c-.001-.045-.3-.042-.298.004 0 .045.299.042.298-.004m29.072-.618c-.063.258.786.304 1.587.423.04-.254-.664-.338-1.587-.423M23.105 5.603c-.002-.047.302-.05.303-.004.002.047-.302.05-.303.004m158.912-1.128C182.016 4.43 181.718 4.43 181.718 4.476c.001.046.3.045.299-.0006500000000002615m-53.407-.618c-.026.148-.141.234.636.214l-.779.288q-.231-.03-.466-.058c-.114.221-.932.279-1.587.417.723.168 1.344.072 2.221.015l-.323-.216c.637.01.982-.045 1.411-.151l.791.056-.322-.143 1.269-.122h.002c-.544-.135-1.161-.098-1.894-.093.063-.164-.428-.15-.959-.207m-70.12 1.44c-.002-.046.298-.05.299-.004.002.046-.298.05-.299.004m-48.032.094q.001.073.005.146c.336-.027.619-.055.941-.081-.021.05.036.107.15.145.29.097.341.022.646.017.314-.004.426.072.795.042l-.008-.218c-.77.113-1.138.066-1.27-.135-.437.028-.818.056-1.259.084m-.32.258c-.002-.045-.297-.043-.296.003 0 .046.296.043.295-.003m188.636-2.326c.001.045.304.037.305-.009-.004-.046-.308-.037-.305.009M97.028 4.7c.14.048.246.197.482.21.453.023.725.006 1.107.064q-.09-.11-.175-.217c-.47-.02-.947-.04-1.414-.057m86.868-.32-.006-.072-.629.05.006.074Zm-151.664.434c.024.098.064.193-.307.259-.292.051-.188-.02-.484-.012-.206.006-.455.08-.762.06.156.121.332.24.484.36l-.162-.29q1.074.008 2.202.015l-.963-.173h-.002l1.28-.013q-.654-.103-1.286-.206m130.52-.366c0-.046-.296-.044-.295.002s.296.043.295-.002M11.693 4.36c-.737.025-.445.199-.674.281-.215.082-.75.015-.895.133.198.08.433.166.644.248-.554-.043-1.033-.088-1.592-.132q.163.108.33.216l-.946.008.016.51.947-.007q-.004-.11-.011-.217l-.636.002-.001.001-.003-.109c.298-.04.643-.081.93-.122l.023-.141.777.066c.538-.108.607-.2.19-.33.51-.134.983-.22.901-.407m50.885.82c-.002-.047-.3-.044-.299.002 0 .046.3.043.3-.003m50.255-.394.159.034.469-.114-.158-.035Zm86.276-1.11c.27.029.554.056.824.076-.002.003.024-.002-.066.01-.045.023-.013-.045-.312.136-.04.032-.065.048-.132.129a.74.74 0 0 0-.063.828c.067.106.067.095.096.13.093.096.144.12.18.14.083.043.089.04.1.044.024.005-.01-.008-.033-.015a3 3 0 0 0-.18-.047 6.183 6.183 0 0 0-1.201-.156 7 7 0 0 0-.393-.004q.169.13.352.257l.233.174.329-.094q.26.069.507.139c.082.023.162.047.231.07.032.011.069.025.065.028-.004 0-.006 0-.035-.008-.015-.005-.032-.01-.089-.035-.033-.017-.046-.015-.165-.096a1 1 0 0 1-.228-.216 1.1 1.1 0 0 1-.23-.588 1.13 1.13 0 0 1 .267-.816c.347-.352.508-.313.555-.343a1 1 0 0 1 .108-.022l.074-.009c.026-.002.027-.003.03-.004-.167-.015-.345-.03-.517-.042.007.098-.004.193.016.293-.216-.025-.079-.001-.376-.035-.297-.032-.248.042.053.075m-32.24 3.615c.516.005.522-.11.625-.196.129-.107.137-.197.447-.297l-.965-.097c.892-.094 1.456-.044 1.606.15l.301-.172 1.259-.039q-.003-.072-.003-.145l1.562-.06q.019.07.039.139l.934-.08q.146-.195.295-.388l.588-.06c-.017-.027-.03-.055-.015-.086-.201.036-.393.073-.6.107-.167.081-.581.01-.616-.015-.121-.086.009-.169-.043-.255q.315-.046.625-.092l-.956-.063c.2-.1.718-.165.579-.274-.081-.063-.517-.086-.773.037-.326.156-.513.321-.419.472-.706.097-1.223.072-1.895.093h-.004c-.048-.04-.174-.058-.296-.082l.582-.235c-1.203.115-1.745.324-1.844.602-.295.005-.457-.04-.786-.003-.355.167-.704.334-1.063.501q.334.15.665.303c-.205.043-.416.085-.619.13.256.018.539.104.79.106m-27.49-2.74.002.073 1.259-.085-.161-.144Zm-68.58.43.639.14-.005-.146Zm111.842-.426-.005-.073-.63.052.005.073Zm-104.256.345q.001.072.004.146l.315-.004-.004-.146Zm23.694-.074c0-.046-.301-.042-.299.003s.3.043.299-.003m.633-.006c-.002-.046-.301-.043-.299.003 0 .046.3.043.299-.003m84.344-.67q0 .11.003.22l.32.002-.003-.219Zm-16.069 1.391-.006-.073-.631.056.006.072Zm-8.49.98c-.068.084.202.226.656.072.092-.032.064-.2.447-.245.218.046.438.106.656.157.287-.097.626-.228.732-.329.061-.057-.093-.057-.136-.096-.053.056-.1.11-.15.165l-.651-.16c-.669.042-.988.127-1.429.274l-1.085.028-.289.246c.412-.037.837-.076 1.249-.111m-2.901-2.12c0-.047-.299-.044-.298.002s.3.043.298-.003m-98.275.536h-.002c.069.094-.174.138-.306.222l.944-.01c.058-.073-.217-.237-.636-.212m99.277 1.5c.005.046.304.018.299-.027-.005-.046-.305-.018-.299.028m-4.39.676a1.3 1.3 0 0 0-.461-.166c-.506-.088-1.091.002-1.114.324Zm-38.649-2.706c-1.775.002-1.043.296.325.289Zm-44.706.468-.47-.02c.395.086.658.184 1.264.169-.346-.099-.025-.121-.008-.219Zm1.423.07.001.072.95-.01q0-.037-.002-.073Zm-24.959-.024q.001.11.005.22l-.64-.031c.318.033.652.065.957.099q-.004-.147-.009-.292c-.104 0-.205.002-.313.004m133.97-.382c.005.046.302.021.297-.024-.003-.046-.302-.022-.297.024m-130.503.273c.03-.3-.657-.04-1.08-.018-.572.029-.392-.066-.813.083-.11.039-.432.188-.313.247.521.021 1.052.038 1.583.057q-.165-.162-.328-.325c.314-.014.645-.034.951-.044m102.7-.558q0 .072.004.146l.321-.003-.004-.146Zm-23.695.153q.001.074.004.146l.633-.006-.479-.141Zm1.261-.012q.003.073.004.146l.624-.152ZM7.43 4.759c-.283-.03-.364-.115-.623.01-.257.124-.05.252-.192.395-.113.105-.661.21-.572.336l.94-.044-.018-.546c.535-.004 1.039-.01 1.59-.013h-.002c-.26-.146-.583-.078-1.123-.138m52.943.299c0-.046-.304-.043-.302.003.001.046.303.043.302-.003m100.497-.96.001.001q.56.122 1.102.243c.211-.071.458-.062.776-.078l.306-.366c-.817.128-1.045-.035-1.895-.057Zm-2.468 2.62c.005.046.301.018.296-.028-.005-.045-.302-.017-.296.029m38.276-1.828c.008-.046-.28-.087-.286-.041s.281.086.286.04m-180.367.519.306-.067.468.026c-.399-.087-.636-.185-1.266-.171Zm157.495-1.151c.438-.059.712-.106 1.113-.007l.157-.037c-.389-.089-.685-.187-1.275-.175Zm12.328.236-.015-.145-.318.025.014.145Zm-85.007.198c-.001-.046-.299-.043-.298.003s.3.042.298-.003m80.884-.508c0-.046-.3-.045-.299.00047999999999959186s.301.045.299 0m-79.937.497c-.002-.046-.3-.042-.299.003 0 .046.301.043.299-.003m68.935 1.079-.644-.09q.006.073.015.145Zm-86.312-.965c0-.046-.301-.043-.3.003.002.046.302.043.3-.003m27.462-.511-1.229.34c.771.022.519-.096.937-.194.173-.04.425-.035.628-.043.211-.097-.255-.169-.226-.248.061-.159.645-.267-.415-.255.109.134.201.267.305.4m34.678 3.99c.004.042-.337.205-.328.151-.052-.027.299-.195.328-.151m18.43-4.612c.211.035.409.07.629.106l.002.327c-.383-.043-.746-.086-1.127-.128-.459-.011-.922-.023-1.401-.033.403.07.15.198.819.174.515-.02.864-.06 1.381-.007q.012.07.02.142c.774.014.669-.077.631-.224l.327.217 1.255-.01c-.161-.154-.308-.245-.009-.399l-.469-.108q-.153.075-.311.148l-.49-.213ZM87.853 4.761c-.002-.046-.3-.043-.299.003.002.046.301.043.3-.003m62.061 3.117c.435-.137.527-.074.948-.119q-.014-.108-.03-.217c-.313.062-.619.125-.939.192Zm-5.179-3.67q.001.074.003.147c.305.01 1.038-.059.946-.155Zm45.82.019-.014-.145-.314.023q.005.073.013.146Zm-68.883.174.474.105.156-.038h-.002l-.474-.104Zm28.753-.465c-.709.003-.82.08-.946.228-.28-.004-.722-.07-.961-.028l.965.174c.01-.049-.029-.097-.004-.146.647-.015.965-.074.946-.228m-25.905.546-.324-.322-.953-.03q.642.175 1.277.352m.942-.156.632.14-.004-.146q-.313.004-.628.006m26.527-.367c.515.061.115.163.384.246.113.035.661-.014.741.072.073-.015.108-.026.165-.038l-1.126-.318c-.055.013-.099.024-.164.038m-49.907.613h-.002l.793.065.158-.039-.952-.099q0 .037.003.073m1.262-.014 2.527.047-.314-.254c-.558-.032-.757.004-.994-.126-.113-.062-.193-.19-.602-.183q-.31.257-.617.516m54.336-.36c-.002-.045-.293-.042-.292.003 0 .046.293.044.292-.002m-49.617-.054c-.812.095-1.553.183-1.569.418.594.087.045-.037.407-.112.363-.074 1.368-.11 1.162-.306M4.765 5.29c-.409.027-.837.054-1.259.08q-.003-.072-.005-.145c.42-.027.849-.054 1.26-.082q.001.074.004.147m160.582.934c.004.045.301.019.296-.027s-.301-.019-.296.027m-100.56-1.36c0-.046-.298-.043-.297.003.002.046.298.042.297-.003m-21.169.119q0 .036.002.073l.63-.007-.003-.073Zm-24.326.108q.002.072.006.145l.641-.006c-.15-.047-.327-.094-.487-.141q-.08 0-.16.002m157.044-.995-.323.002q-.002-.073-.003-.146l.322-.002q.003.074.004.146m-79.002.38h.002q.002.073.004.145l.627-.152Zm90.386-.07c.005.045.306.021.3-.025-.003-.045-.304-.022-.3.024m-9.81-.5h.002q.162.09.319.18c.209-.049.406-.099.616-.148l-.779-.07Zm-124.5.751-.306.186.941.1h.002l-.324-.288Zm101.113-.504c0-.046-.295-.043-.294.003 0 .046.296.043.294-.003m-97.157.753c.19-.067-.437-.185-.002-.214.517-.035.946.008 1.415.053-.313-.324-1.478-.08-2.527-.192.381.117.745.237 1.114.353m1.734-.128.48.105.158-.038-.482-.105Zm27.804-.336q.001.11.007.219l.633-.007q-.003-.11-.008-.219Zm.955.208.95-.01h-.001v-.035L88.33 4.5Zm-48.336.304.001.073.62-.006q0-.038-.002-.074Zm-28.136-.01c-.038.141.424.197.804.285.527-.107.493-.218.456-.369-.419.028-.83.057-1.26.084m78.043-.347c-.001-.046-.3-.043-.298.003 0 .046.3.043.298-.003m-72.02.423c-.412-.135-.419-.3-1.277-.08.385.078.73.162 1.108.242.262-.037.529-.08.798-.114-.056-.101-.41.024-.628-.048m27.785-.164-.48-.104-.16.001.008.219Zm50.086-.505-.156.22.946-.082-.325-.288Zm-23.384.18c-.324.07-.531.12-.471.225l.636-.007-.007-.218Zm.792.065q.002.074.004.146.158 0 .314-.003-.001-.074-.004-.146Zm-46.93.21-1.102-.06-.018.142-.604.083 1.563-.014c.215.046.451.091.653.137a12 12 0 0 0-.327-.287c.325-.04.618-.08.934-.12l-.622-.104c-.15.075-.316.15-.477.224m75.045-.33c-.002-.047-.301-.044-.299.002.001.046.3.043.299-.003m25.582-.526-.935-.026.793.32-.006-.218.793-.008-.309.295c1.644-.136 1.098-.467-.331-.508q-.004.073-.005.145M29.709 4.986l.001.073.637-.007-.001-.072Zm138.366 1.397h.002c-.31.02-.202-.076-.192-.129.652-.06.904-.223 1.555-.284l.001.001h.003c.014.132-.378.215-.6.345l.646.09Zm-9.114-2.45q.001.072.003.146l.633-.006-.003-.146Zm32.325.065c-.164.039-.317.079-.478.119l.627.036.006-.146Zm-131.23.808.627-.116-.476-.105q-.08 0-.159.002Zm26.21-.247c0-.046-.3-.042-.298.004 0 .045.3.042.298-.004m53.415-.52q.001.072.004.146l.316-.004q-.003-.073-.004-.145Zm4.156-.112c-.32.067.39.24.533.21.318-.066-.388-.24-.533-.21m-98.651.639c.433.088.336.2.33.324l.636-.007c-.293-.123-.315-.26-.807-.356Zm-22.427.419q0 .037.002.073l.637-.007q0-.037-.003-.073Zm149.206.875c.004.046-.294.072-.298.026-.005-.046.293-.072.298-.026m-39.867-1.673.943-.12-.633-.102Zm-4.157-1.636c-.58-.001-1.058-.12-1.588-.02l1.276.096c.027.083-.452.126-.312.222l-.636.007.001.036.639.103q0-.073-.004-.146l.318-.003.006.219.948-.046c-.438.098-.277.204-.307.331-.261-.003-.496-.022-.624.047-.244.132-.376.257-.314.4.774-.104.838-.26.938-.447.843.007.766.148 1.255.238 1.024.19 1.432.065 1.588-.193.992.168 1.561.16 2.529-.025-.124.121.447.172.598.25.147.078-.226.104-.241.154-.029.087.265.12.255.197-.009.042-.266.053-.241.088.056.082.596.116.922.099-.274-.137.408-.272.25-.393-.253-.195-.908-.247-.595-.48.652.087.807-.086 1.423-.028h-.002l1.097-.177-.628-.061-.01.101-1.886.094c-.026-.145-.417-.227-.957-.282l-.004.144-.939.012.304.106c-.098.063-.179.011-.283.004-.459-.03-.571-.002-.961.044l.623-.37-1.104.156-1.119-.207-.276.259c.202.058.397.117.604.176l-1.575-.057.307-.295-1.261-.06Zm9.206 1.512q0 .038.003.073l.625-.006q0-.037-.002-.073Zm-72.366.583c-.002-.046-.298-.043-.296.003 0 .046.297.043.296-.003m-24.018.15.002.073.633-.007q0-.037-.003-.073Zm155.483-.77c.002.046-.295.064-.298.018-.004-.046.293-.063.298-.018m-51.834-.18c.139.082.38.122.319.217.206-.039.409-.077.625-.115-.301-.073-.492-.119-.944-.101m-113.12.905q.002.072.005.146l.617-.153ZM172.934 5.85c.004.045.303.02.298-.026-.004-.046-.303-.02-.298.026m-9.756.974c.068-.097-.654-.115-.961-.059q.006.073.016.145ZM13.906 4.959c-.002-.045-.297-.043-.294.003 0 .046.295.043.294-.003m157.001 1.323c-.57.13-.642.14-1.108.06l1.868-.346c.115.144-.295.18-.76.286M83.1 4.375c-.001-.046-.3-.043-.298.003 0 .046.3.043.298-.003m1.741-.275c-.442.089-.521.169-.465.298l.317-.004.308-.258Zm80.544 2.488c.005.045.301.019.296-.027-.004-.046-.301-.02-.296.027M62.558 4.268c-.009.05.02.097.004.146-.211.006-.421.003-.631.007-.055.138.042.16.637.14.008-.05-.02-.098-.004-.147.21-.006.422-.002.634-.006.056-.139-.045-.16-.64-.14m107.755-.57q-.001.035.001.072l.646-.005q0-.036-.002-.072Zm-53.397.207.006.219.63-.007c.059-.073-.215-.237-.636-.212m-23.696.324q0 .037.003.073l.63-.007v-.073Zm80.536-.495.039.013-.071.006Zl-.001.001-.59-.202.93-.005c-.117.069-.225.138-.339.207m-28.409-.114q.166.144.329.288l.952-.01c-.053-.094-.599-.184-.286-.285.088-.027.973.023.427-.08-.454.03-.947.057-1.422.087m-97.17.583c-.285.063.194.084.117.179-.05.062-.425.172-.26.26.852-.11.825-.299.144-.44m74.737-.179c-.001-.046-.302-.042-.301.003 0 .046.303.043.301-.003m-20.85.037.004.146q.16 0 .317-.003 0-.073-.004-.146-.159 0-.317.003m80.902-.39C182.965 3.625 183.259 3.625 183.259 3.67c.002.046-.292.047-.293.001m-22.758-.041c-.639-.006-1.176.125-1.736.015l-.16.038c.653.15 1.463.148 1.896-.053m-54.388-.666 1.112.084.787-.068-.286.112.451.1.461-.073c-.07.13.413.15.579.25.05.03-.199.042-.155.075.094.069.303.096.233.18l-1.11-.133-.964.227c-.259-.022-.507-.043-.775-.064.18.104-.222.163-.217.257.005.095.412.146.232.253l.637-.043-.322-.179c.762.007 1.245-.02 1.735-.164l.156-.002c-.041.103.451.284.955.282-.121-.224.376-.446-.019-.656.837-.01 1.688-.018 2.53-.027h.002c.044-.195-.762-.198-1.441-.205-.44.012-.782.12-1.244.082-.785-.066-.158-.283-.178-.43.734.029 1.881.177 1.895-.093l-.965-.035.009-.1-.783.153-.478-.14c-.054.094.198.133.321.215q-.31-.001-.621.008l-.009.144c-1.063-.006-.975-.25-1.432-.422Zm52.648 4.335c.005.045.3.017.296-.028-.005-.046-.302-.018-.296.028m-69.05-3.066c-.001-.046-.3-.042-.297.004 0 .046.3.042.298-.004m-71.554.508-.484-.032q.24.052.487.104c.166-.038.311-.075.464-.113-.154.014-.3.027-.467.04m78.345-.909-.47.115.003.072.953.173-.328-.362Zm26.706-.062 1.905.199-.951-.137.63-.079-.479-.14Zm-43.608.318q.001.11.007.219l.318-.004-.008-.219Zm-45.495.552c.13-.035-.67-.19-.948-.113-.13.035.682.19.948.113m49.6-.415c-.002-.046-.302-.042-.3.004.001.046.3.042.3-.004m-78.666.482q.001.073.005.146c.655.001.953-.08.942-.226-.32.027-.627.054-.947.08m134.459-1.175c-.687.008-1.01.023-1.652.085-.364.034-.537.023-.409.155.512.02 1.047.038 1.578.058q-.001-.11-.006-.22l1.267.061c.097-.169-.209-.145-.778-.139m44.469 1.819c.522-.092 1.033-.182 1.562-.273l.022.218ZM60.977 4.066q.002.072.004.146l.61-.003q.01.071.024.142l.315-.003-.325-.289Zm25.593.053c-.002-.046-.3-.043-.3.003.001.046.3.043.3-.003m-48.028.336.001.073c.42-.029.87-.058 1.272-.087l-.16-.144c-.359.053-.745.106-1.114.158m75.206-.808.32.287.462-.298-.184-.031Zm-72.37.814c-.003-.046-.302-.043-.3.003 0 .046.301.043.3-.003m3.163-.144q.001.072.004.146h.002l.318-.003c0-.049-.005-.098-.006-.146q-.16 0-.318.003m143.26.997c-.592.08-.475.02-.675-.042-.288-.09-.666-.082-.621-.223.309-.014.749-.1.934-.031.232.086.384.178.362.296M46.135 4.3l.003.145.937-.01v-.036a2.8 2.8 0 0 0-.94-.099m8.676-.095-.469.151.632-.006q-.001-.073-.005-.147Zm5.217.054c0-.046-.303-.043-.301.003 0 .046.302.042.301-.003m100.033 3.146-.007-.073-.631.06.007.072ZM141.55 3.582q0 .038.002.074l.64-.007-.003-.073c-.212.003-.428.004-.639.006m-71.419.569c-.002-.046-.3-.043-.298.003 0 .046.3.042.298-.003m-48.646.263q.001.073.005.145l.324-.003-.006-.146Zm82.301-.954c-.399.06-.413.204-.777.26-.549.087-1.057-.007-.949.196q.782-.084 1.562-.166.08-.146.164-.29m-47.233.763c-.001-.046-.304-.043-.302.003 0 .046.303.042.303-.003m133.65-.832-.086.015q-.198.034-.391.069l-.156-.044q.235-.044.474-.085l.075.021Zm-105.848.606c-.001-.046-.3-.043-.3.003.001.046.302.043.3-.003m2.213-.133q.002.072.005.145l.316-.003q-.001-.074-.004-.146-.159 0-.317.004m-45.19.341q.002.073.004.146l.638-.007-.484-.14Zm150.507.693.464-.143h-.002l.312-.022c.161.037.33.074.489.112l-1.26.088ZM19.261 4.471c-.003-.045-.303-.042-.301.004 0 .045.302.042.3-.004m82.155-.658c0-.046-.3-.043-.298.003.001.046.3.043.298-.003m-66.992.394c-.08.099.632.154.95.136-.067-.093.176-.138.312-.221Zm157.667-.671-.154-.01c-.154-.059-.316-.117-.468-.175l.629.039q-.002.073-.007.146m-26.67 3.451-.315.028q.007.073.015.145l.315-.028ZM9.788 4.485c0-.046-.29-.043-.294.003.006.046.295.043.294-.003m131.274-1.484c-.343.002-.566.074-.934.087-.433.015-.967 0-1.426.012-.086.18.321.15.957.136l-.317.149c.478.043.946.09 1.422.13.227-.01.365-.122.457-.142.507-.11.98-.139.955-.308h.001c-.455.02-.692-.065-1.115-.064m-48.227.65c-.148-.027-.85.16-.524.221.147.028.85-.16.524-.22m52.65-.395c-.435-.023-1.289-.04-1.401.083.626.043 1.253.086 1.898.128-.18-.051-.19-.195-.497-.211m-25.1.32.001.074.632-.007-.003-.073Zm-26.25.029c-.113-.07-.64-.04-.93-.031.141.083.493.157.785.207.429.074.514.052.8-.042h-.003c-.42-.06-.441-.007-.652-.134m-32.22.305q.003.073.005.146.157-.001.316-.004-.002-.072-.004-.145-.159 0-.316.003m81.833-1.298c-.163.12-.379.215-.531.34-.154.125-.282.307-.385.431-.059.072.556.053.599.034.294-.133.157-.227.964-.226-.004-.024 0-.049-.003-.073l-.625.004q-.009-.254-.019-.51m-5.046.816c-.002-.046-.303-.043-.302.003 0 .046.303.043.302-.003m8.533 5.685c.296-.109.604-.17.915-.23l.013.072c-.309.06-.616.121-.903.227ZM68.871 3.836q.001.072.003.146l.315-.004q-.001-.072-.005-.146Zm124.592.988.631-.042.005.073-.631.042ZM18.785 4.221l-.462.15.625-.006q-.002-.072-.006-.146Zm100.011-.774q0 .073.004.146.16 0 .317-.003-.001-.073-.004-.146Zm-47.404.216-.308.295.317-.004.626-.298Zm114.195 1.753.631-.05.006.072-.631.05Zm-32.961-2.12c-.002-.046.299-.049.301-.003s-.301.049-.301.003M81.66 3.55c-.443.088-.52.168-.464.297.53.037 1.088-.13 1.254-.232h.002Zm73.797-.244-.322.002q-.003-.073-.004-.145.162-.002.323-.003.001.072.003.146m-70.467.5.306-.295-.623.08-.645-.212c.32.142.644.285.962.428M59.7 3.97c-.002-.046-.302-.042-.301.003.002.046.303.043.3-.003m100.816-.744c-.002-.046.291-.048.296-.003-.003.047-.297.049-.296.003m-19.284.141-.626.006-.004-.146.627-.006Zm-25.916.153c-.003-.046-.301-.043-.3.003 0 .046.301.043.3-.003m-16.113-.012q0 .073.004.146l.632-.006-.478-.141Zm53.406-.467q.004.073.004.146c-.425.028-.86.056-1.267.084.012-.188.494-.237 1.263-.23m30.459 2.688c.005.046-.295.07-.298.024-.005-.046.294-.07.298-.024m-56.7-2.324c-.001-.046-.298-.042-.297.003s.298.043.297-.003m52.922 2.637c.003.046-.294.07-.298.024-.005-.045.294-.07.298-.024m-51.967-2.646c-.001-.046-.302-.043-.301.003.002.046.303.043.301-.003M.014 4.328C.013 4.282.312 4.281.313 4.328c.002.047-.299.047-.299.001m168.891 2.57-.63.055c.043.078-.025.133-.295.209l.642.053ZM1.886 4.322c-.001-.046-.294-.045-.296.001.004.046.297.045.296-.001m162.932 3.011-.006-.072-.628.057.007.073Zm-28.014-4.033c-.001-.046-.299-.043-.298.003s.3.042.298-.003m57.614 1.606.318-.021.012.145-.318.02ZM144.704 3.15c.23.096 1.175.004 1.598.028.038.002.174.11.467.06.124-.02.142-.035.156-.073-.197.017-.43-.007-.623.013-.018-.039-.007-.05-.009-.08.266.032.264-.069.3-.073.239-.025.418.007.654-.01l-.02-.01c-.027-.02.032-.058-.157-.06-.079 0-.217.001-.303.004-.238.006-.061.051-.175.077-.114.025-.369.001-.3.072-.216.005-.424.004-.639.007l.63-.19-.639-.175q-.478.206-.94.41m48.767 1.856c.002.045-.296.066-.298.02-.005-.046.294-.066.298-.02m-18.113-2.072c.571-.016 1.047 0 1.272.14-.608.015-1.048 0-1.272-.14m12.131 2.477.632-.05q.01.074.014.146l-.632.05Zm-66.172-2.027c-.001-.046-.299-.043-.298.003 0 .046.299.043.298-.003m65.855 2.088c.005.046-.296.07-.3.024-.005-.046.296-.07.3-.024M48.635 3.943c-.003-.045-.304-.042-.302.004.001.046.303.042.302-.004m141.271-.86c.001-.032.142-.034.229-.018.041.008.07.02.069.033-.001.015-.031.023-.072.026-.088.008-.228-.01-.226-.042m6.032.054c.009.077-.045.18-.022.252.047.159.397.142.766.285a12 12 0 0 0-.122-.312q.324.008.646.021h-.002c-.422-.09-.841-.172-1.266-.246m-36.453 4.725c.005.046.3.018.296-.028-.005-.045-.303-.017-.296.028m38.643-4.175q-.012.073-.023.144a32 32 0 0 0 .765.2l.162-.009-.287-.232-.229-.037Zm-31.602-.655c-.001-.046.301-.048.301-.002.002.046-.3.048-.301.002m-50.911-.28.326.287.469-.15 2.063.489h.003l-.341-.285-.611.002.149-.366-.956-.131Zm75.971 2.46c.003.046-.293.068-.297.022-.005-.046.292-.068.297-.022M95.406 3.44l.478.104.157-.038-.477-.105Zm76.992 3.445-.487-.105-.461.15.003.037Zm-15.04-3.85c-.002-.046.29-.05.293-.003.002.046-.292.049-.293.003m-99.248.55.008.22.632-.007c-.063-.093.179-.14.309-.222Zm103.347-.695q.003.074.004.146l-.959.008-.002-.073c.387.01.606-.047.957-.08m30.972.229-.005.073.632.044.005-.073Zm1.582.119-.006.073q.314.026.632.056l.007-.073q-.319-.03-.633-.056m-81.549-.38q.167.253.331.507l.306-.296c.55.065.928.1 1.419-.014l.451.104-.282.076.63.03-.315-.254-.955-.025-.011-.219Zm1.894.453c-.001-.046-.3-.042-.298.003-.001.046.3.043.298-.003m32.891-.296c-.033.031.033.05-.007.076.12-.016.269.005.3-.04.031-.044-.221-.019-.293-.036m-50.584.411c-.002-.046-.301-.042-.3.004.002.045.302.042.3-.004m2.84-.505c-.046.131.439.179.272.324-.13.113-.573.213.377.18.074-.108.169-.22.249-.33-.298-.058-.606-.114-.898-.174m26.549.086a2.8 2.8 0 0 0-.94.12c.29.072.496.117.946.1Zm62.9-.107c.007-.046.301-.038.304.008-.005.046-.299.038-.304-.008m-24.103 4.615c.004.045.302.019.299-.027-.005-.046-.305-.019-.299.027m5.443-4.62q0-.073-.004-.146l.647-.004Zm-76.153.376q0 .072.004.146l.316-.004q-.002-.072-.004-.145Zm26.991-1.015c-.311.043-.158.15-.149.22-.163-.022-.432-.073-.631-.067l-.625.3 1.264-.014c.003-.073-.017-.146-.006-.219.572.077.704.127.638.285-.963.029-.913.201-1.25.378l1.26.06q.077-.075.157-.148c.48.05-.093.18.793.138h-.002c-.324-.106-.636-.212-.955-.318.725-.186.991 0 .951.172.313-.04.64-.08.944-.12-.308-.117-1.073-.144-1.416-.237-.507-.138-.367-.313-.973-.43m59.281.582-.325.002-.003-.146.325-.001Zm-79.011.465c-.001-.046-.299-.043-.298.003.002.046.3.042.298-.003m50.895-.369c-.002-.045.302-.049.303-.003.002.046-.302.05-.303.003m-47.732.153.953.208-.007-.218Zm83.746-.272-.154.034c-.167-.075-.312-.15-.476-.224.109 0 .207.002.311.003q.17.094.319.187M2.199 3.92l.005.146c.216 0 .415-.002.635-.003q-.002-.074-.006-.146ZM167.06 7.39c.005.045.301.02.298-.027-.004-.045-.303-.019-.298.027M59.688 3.605c-.002-.046-.302-.042-.3.004 0 .046.302.042.3-.004m103.81-.732-.042-.006.004-.002h-.007l.512-.137q-.231.072-.467.145m-124.024.879c-.002-.046-.307-.043-.305.003.001.046.306.043.305-.003m113.754 4.952c.005.045.298.014.293-.032-.007-.045-.3-.014-.293.031m18.964-5.931c-.005-.046.305-.048.307-.002.002.045-.31.048-.307.002m-53.414.346c-.001-.046-.302-.042-.301.003s.303.043.301-.003m56.255-.838c-.253.212-.101.476-1.259.518.368-.162.564-.26.298-.44l.959-.078ZM53.998 3.41l.001.073.619-.005.016.143.317-.003.31-.222Zm2.849.152c0-.046-.296-.043-.297.003.003.046.298.043.297-.003m45.187-.449c.575-.024.856.012 1.272.095.28.055.432-.038.625-.079l-1.118-.169Zm92.933.028c.005-.046-.299-.075-.3-.03-.006.046.298.075.3.03m4.504 1.915-.155-.034q-.232.06-.462.122l.157.031Zm-109.13-1.89c0 .048.004.096.004.145l.631-.007q-.004-.072-.004-.146Zm50.243-.596.949.025.958.321-.337-.433c-.234-.011-.552.02-.763.007-.367-.022-.006-.128-.343-.143Zm-46.457.335c-.973.024-1.002.183-.935.375.677-.089 1.017-.194.935-.375m24.971.028c-.072.09.642.166.955.135q-.003-.072-.004-.145Zm54.363-.206-.315.002-.003-.146.314-.002Zm-77.428.486v.037l1.265-.014c.052-.105-.154-.15-.482-.213Zm87.365-.674c.165.048.331.097.489.145h-.638l-.002-.146Zm9.191.08a6.3 6.3 0 0 0-1.414.093c.847.085 1.688.176 2.531.28-.375-.127-.738-.25-1.117-.373m-82.031.44c-.001-.046-.301-.043-.299.003 0 .046.3.043.299-.003m86.729 2.114c-.672.15-.99.026-1.725.108-.311.034-.96.253-.764.33.362-.072.727-.142 1.086-.211q.715.102 1.432.21c-.009-.146-.022-.29-.029-.437m-124.64-1.89.001.073.63-.007q0-.036-.002-.073Zm125.816.202c.008-.045-.281-.094-.288-.05-.007.046.283.096.288.05m-57.882-.733c0-.046-.299-.043-.297.003 0 .046.298.043.297-.003m-72.047.357.007.219.628-.007-.008-.219Zm20.535-.222c.06.097-.047.38.645.2.036-.01.006-.149.3-.18.234-.024.703-.019.629-.11-.415-.021-.842-.039-1.262-.06ZM180.94 6.6l-.015-.145-.612.196Zm-51.423-3.81c-.001-.046-.299-.043-.297.003 0 .046.298.043.297-.003m-47.399.246q.002.073.004.146l.316-.004-.004-.146Zm-25.279.308c0-.046-.296-.043-.296.003.002.046.297.042.296-.003M169.341 2.5c0-.045-.299-.043-.298.003s.3.043.298-.003m-74.584.327q.005.11.006.219l.632-.007c.058-.074-.217-.237-.638-.212M188.82 6.04l-.014-.145-.291.022-.339.026.014.145.336-.026ZM123.66 2.526c-.244-.021-.528.011-.783.003q.56.142 1.12.28l.106-.017c.475-.092.078-.223-.443-.266m29.575.071-.637.006-.003-.073.637-.006Zm-27.199.155c0-.046-.299-.042-.297.003.001.046.298.043.297-.003m55.959-.32c0-.045.292-.046.293.00026999999999999247s-.292.047-.293 0m-77.753.44q-.001.036.001.073l.948-.01q0-.038-.003-.074Zm26.225-.128.955-.01q0-.036-.002-.072c-.402.016-.6-.037-.957-.064q0 .073.004.146m63.26-.042-.006.073q.64.015 1.281.04l.007-.072q-.641-.027-1.282-.04m-28.812-.57c-.672.087-1.024.191-.942.372q.163-.072.322-.147l.937-.008h.002Zm-27.816.51c0-.047-.298-.043-.297.002 0 .046.299.043.297-.003m60.477.431q.31.126.607.254.013-.072.023-.144Zm-79.116-.279Zl.635-.006q0-.074-.004-.146l-.157.001Zm25.594-.549q.006.182.009.365l.938-.01-.102-.043c-.213-.1-.258-.198-.22-.318Zm5.053.281c-.001-.046-.306-.043-.304.003 0 .046.305.043.304-.003m35.712-.169C184.821 2.311 184.518 2.311 184.518 2.357 184.52 2.403 184.821 2.403 184.819 2.357M56.84 3.09q.002.072.004.145l.626-.006q-.002-.074-.004-.146Zm1.574.092.16.034.47-.113-.16-.035Zm75.838-.694q.003.073.004.146l.638-.006-.004-.146Zm-57.823.392c0 .048.004.097.004.145l.315-.003q-.001-.072-.005-.146-.157.001-.314.004m103.96-.587C180.391 2.246 180.076 2.247 180.082 2.293c-.003.046.311.045.307-.001m-66.843-.03c-.611.191-1.297.14-2.19.173-.322.011-.18.145-.486.183q.478.05.953.1l-.169-.144.793-.081.016.144.931-.009c.046-.169.862-.23.152-.366M88.744 2.6l-.625.298.95-.01-.01-.292Zm111.042.776-.014.072c.086.016.172.033.268.054.052.012.095.02.185.046.022.007.054.016.108.037.049.023.04.005.203.107.043.03.097.069.168.145.036.045.068.06.161.239.078.154.13.429.056.673a1 1 0 0 1-.27.442 1 1 0 0 1-.374.215c-.224.06-.217.04-.266.047l-.078.002h-.141v.073h.141c.024 0 .044 0 .081-.002.053-.008.044.014.285-.049a1 1 0 0 0 .401-.232c.037-.031.222-.213.292-.476.08-.263.024-.558-.061-.725-.099-.193-.134-.208-.173-.256a1 1 0 0 0-.181-.157c-.174-.11-.165-.09-.218-.115-.057-.022-.09-.031-.113-.038-.094-.027-.137-.036-.19-.048a9 9 0 0 0-.27-.054m-4.501 2.425c.343-.11.652-.039 1.096-.066l-.792-.099-.463.139Zm-1.417-.017c-.001.046.305.025.299-.02-.002-.046-.308-.026-.299.02m-22.307-3.59c.314.034.6.069.933.102.076-.098-.079-.199-.162-.288l-.046-.071c-.042-.073-.092-.144-.434-.147-.094.135-.195.269-.291.404m-99.564.77c-.001-.047-.302-.044-.3.002 0 .046.302.043.3-.003m24.014-.443.95.063.323.216-.01-.292Zm2.843.225c-.002-.046-.3-.042-.299.003 0 .046.3.043.299-.003m87.073-.642c-.167.048-.306.096-.467.144l.632.002-.002-.146Zm-57.044.218.792.211.156-.038c-.285-.05-.358-.095-.319-.179Zm-67.942.686h.002l.158.035.467-.114-.159-.035Zm1.736.018.146-.366-.949-.027Zm135.542.085q.211.04.389.07c.454.073.821.116 1.196.088q-.249-.032-.488-.059-.305-.084-.607-.163l-.081.01q-.197.03-.409.054m-158.29.088.464-.15-.934-.064Zm25.111-.49q-.151.148-.304.295c.596-.059.682-.16.619-.298Zm34.131-.221 1.113.207.157-.039q-.162-.125-.324-.252Zm83.913-.459q-.233.074-.476.147h.633q0-.072-.003-.146Zm-103.192.776c-.001-.046-.301-.043-.3.003s.302.043.3-.003m51.835-.511q0 .072.004.146l.317-.003-.004-.146Zm.636.066 1.259.06q0-.072-.004-.146a7.4 7.4 0 0 1-1.259-.06q0 .074.004.146m62.681-.054-.018.218q.397.075.796.158l.164-.017c-.204-.11-.414-.219-.621-.326Zm1.601.332q-.01.072-.017.145.333-.03.667-.05a33 33 0 0 0-.65-.095m-136.026.12c-.57-.015-1.306.19-.461.214.288.008.597-.167.461-.213m76.792-.448.002.073.627-.006-.001-.073Zm28.76-.187.002.073.641-.005-.002-.073Zm33.018 3.56-.002-.073-.619.019.003.073q.311-.011.618-.019M94.59 2.537l-.468.15.63-.006q-.002-.073-.004-.146Zm24.011-.254c-.891.15-1.693 0-2.68.028l.792.2 2.053-.084Zm-93.372.925q-.16 0-.317.003-.004-.073-.005-.146l.317-.003q.004.073.005.146M152.58 1.983l1.266-.048-.307.295 1.247-.085c.116-.332-.625-.373-1.894-.42Zm-93.239.566c-.606.049-1.081.048-1.722.106s-.928.108-.788.285h.002c.584-.022.845-.194 1.47-.221.629-.027 1 .085 1.038-.17m99.88-.406c0-.046-.302-.044-.3.003 0 .046.301.043.3-.003m-74.897.578.317-.004c.055-.139-.035-.239-.642-.285h-.002Zm26.216-.245c0-.046-.301-.043-.299.003 0 .046.301.043.299-.003M163.313 2q0 .073.004.146l.647-.005-.004-.146Zm-6.864 7.108c.006.045.306.016.301-.03-.005-.045-.308-.016-.301.03m-10.192-6.92c-.001-.045-.303-.042-.302.004s.303.043.302-.003m-21.976-.251c-.346-.03-.37.064-.683.066-.56.004-1.036.018-.571.162l1.419-.161-.939.374 1.262-.16q.003.074.004.147h.001l.63-.006q.001-.073-.004-.146l-.631.006c.058-.106-.026-.243-.488-.282m-23.53.535.002.073 1.264-.014-.004-.146Zm2.84.03c.123-.034-.663-.19-.938-.112-.124.035.663.19.938.113m52.634-.368.785-.08q0-.038-.002-.073l-1.268-.062q.244.107.485.215m-20.084-.321.338.212.617.143-1.582-.13c.797.286 1.923.265 2.512-.058-.108-.06-.209-.122-.314-.182Zm-44.88.724c-.001-.046-.3-.043-.3.003s.3.043.3-.003m78.385-.658q.003.074.004.146l.619-.004q0-.074-.004-.146Zm-77.12.644c0-.046-.301-.042-.3.004.001.045.3.042.3-.004m78.699-.545c-.001-.046-.302-.044-.301.002s.303.043.301-.002m2.526-.126q0 .073.004.146l.954-.006h-.002v-.036a3 3 0 0 0-.956-.104m-75.85.504c0 .049.004.097.004.146h.002q.313-.075.627-.152Zm81.377-.679c-.916.022-1.143.085-1.092.297l.614-.222q.659.034 1.267.068c.051-.161-.141-.158-.789-.143m.78.252c.001-.046-.29-.045-.289.001.002.046.291.045.289-.0009200000000000319m-76.156.18c.428.09.332.201.326.326.814-.013 1.004-.129.937-.302Zm-21.487.341.637.14q-.002-.074-.004-.147Zm24.486-.481c-.858.198.043.324.804.429.102-.098.208-.197.307-.295-.235-.007-.547.022-.765.008-.369-.022-.002-.128-.346-.142m27.652.188c-.001-.046-.304-.043-.302.003.001.046.304.043.302-.003m-48.036.358c-.001-.046-.299-.042-.297.003s.299.043.297-.003m52.151-.581.006.219.318-.004-.006-.219Zm60.835 1.06c.008-.046-.298-.098-.303-.052-.007.045.296.096.303.051m-.299 2.872c-.003.046.291.04.285-.006.003-.046-.291-.04-.285.006m-11.851-4.191c.058.092-.184.136-.322.216l.641.005-.002-.219Zm-24.045.107.65.14c-.002-.049 0-.097-.004-.146Zm3.809-.103q.001.11.005.219c.42.017.679-.151.618-.224Zm31.476 4.279c.004.045.293.035.291-.01-.001-.046-.291-.037-.291.01M91.889 2.383c-.002-.046-.3-.042-.3.003.003.046.301.043.3-.003m49.933-.481.644.14q-.002-.074-.004-.146Zm3.525-.105c-.326.067.398.24.544.21.325-.067-.395-.24-.544-.21m-44.292.306c-.423-.015-.688.153-.624.226l.947-.01c-.14-.082-.384-.12-.323-.216m31.621-.388c-.516-.112-.714.058-.656.134-.31.007-.626.01-.939.014l-.155.22.792-.12c.455.133.942.029 1.575.02-.293-.028-.524-.248-.617-.268m32.223.09c0-.047-.299-.044-.297.002.001.046.299.043.297-.003m-18.327-.022.004.147.317-.004q0-.072-.004-.146Zm37.599-.083C184.172 1.654 183.877 1.654 183.877 1.7 183.879 1.746 184.173 1.746 184.171 1.7m-54.985.254q0 .038.002.073l.629-.006q0-.036-.002-.073-.314.004-.629.006m-44.247.25q.002.072.004.145l.316-.004q0-.072-.004-.146Zm27.179-.22c-.536-.4-1.855-.142-.786.156q.175-.078.352-.154Zm4.733-.037c-.279-.072-1.055.1-.929.132.281.072 1.056-.1.929-.132m47.73-.286c-.001-.046-.301-.044-.299.003.001.045.301.043.299-.003m-68.922-.303c-.896.013-.871.215-1.57.308q-.084-.108-.164-.217l-.945.074-1.111-.125.322.216-3.47.11-.31.258c.895.196 1.516-.01 2.523-.063l.323.18q.47-.022.943-.047l.168.143c1.185.012.372-.226 1.416-.234l.32.18.477.03c.42-.1.831-.199 1.257-.298.74.1 1.742.043 2.509.038.685-.004.94 0 1.617-.018h-.003c.357-.01.992-.006 1.4-.01.104-.092.221-.045.313-.169.091-.125-.352-.126-.972-.158-.251-.013-.51-.142-.772-.17-.16.096-.313.198-.471.295-1.326.034-2.123.222-2.216-.194l-1.245.09-.643.149Zm76.817.136.645.142q0-.072-.004-.146Zm-69.371.368-.471.115.635.103-.007-.22Zm-19.131-.159.323.142-1.582.09q.242.144.487.286l2.992-.177.025-.048c.033-.095-.107-.074-.489-.092-.437-.02-.675-.065-1.105-.066 0-.048-.012-.095-.017-.142Zm36.669-.17.009.105.943.248q-.163-.253-.329-.507-.31.078-.623.154m26.864.132c-.001-.046-.299-.042-.297.003.001.046.298.043.297-.003m-40.131.297h-.001l.633-.007-.004-.145-.158.001ZM85.552 1.32c-.227.112-.418.223-.63.335l.937-.045q.011.07.024.14l1.57.06-.306.295.947-.01c.132-.138-.175-.194-.48-.281-.202-.057.003-.102-.212-.142s-.542 0-.76-.07.033-.149-.202-.216c-.114-.032-.723-.014-.888-.066m80.603.146q0 .036.002.073l.64-.005q.001-.038-.001-.074Zm-57.524.263c0 .049.004.097.004.146l.627-.153Zm6.635-.143q.003.11.007.22.475-.007.948-.01l-.005-.22Zm8.85-.092q.003.11.005.22c.423.015.688-.153.626-.225Zm38.871-.222c-.762.002-1.502-.03-1.891.16.678-.029 1.22-.102 1.894-.087l-.001-.073Zm-52.463.364.004.146q.16 0 .317-.003l-.004-.146Zm3.472-.11-1.577-.056q.004.146.009.292l2.204-.169-.329-.361q-.154.147-.307.295m-46.756.539c-.001-.046.3-.05.3-.004.001.046-.3.05-.3.004m26.855-.18-.316.002c0-.048-.004-.097-.004-.145q.157-.002.316-.003.004.073.004.145m24.322-.222c-.003-.046-.3-.043-.299.003 0 .046.3.043.299-.003m-78.04.603c-.003-.046.295-.05.296-.004.002.046-.296.05-.297.004m32.222-.259c0-.046-.3-.043-.297.003 0 .046.297.043.296-.003m28.131-.267-.788.082-.158-.035.943-.12Zm3.467-.329c-1.162-.013-1.934.126-2.202.388 1.325.011 2.135-.044 2.835-.321l-1.261.086Zm23.709-.101.008.292.316-.004-.008-.292Zm-66.993.786-.628.006c0-.048-.004-.097-.004-.146l.628-.007q.003.074.004.147m55.618-.522.002.072.632-.006q0-.038-.003-.073Zm-77.09.627c.001-.045.292-.048.294-.003.001.046-.29.05-.294.003m5.982-.167q.004.073.005.146l-.639.006.475-.15Zm107.451-.712c-.002-.045-.303-.043-.302.003 0 .046.304.043.302-.003m-23.703.048q.001.072.004.146l.941-.01q-.003-.072-.004-.146Zm6.636-.103.322.18.63-.007-.795-.21Zm62.568.797c.01-.045-.292-.098-.298-.053-.007.045.294.098.298.053M68.191 1.727l.32.215.938-.12c-.366-.099-.705-.113-1.258-.095m4.4.038c-.274-.072-1.059.1-.93.132.285.072 1.058-.1.93-.132m49.931-.545.008.292.633-.116-.003-.073-.479-.104Zm-66.663.748c-.002-.046.3-.05.302-.003.001.046-.3.049-.302.003m49.913-.39c-.001-.046-.299-.043-.298.003 0 .046.3.043.298-.003m26.557-.385q.003.11.007.219l.626-.116-.475-.105Zm-21.183.073-.308.295.635-.007-.01-.292Zm28.766-.221c-.491-.014-1.326.1-1.583.198.37.1.715.114 1.275.097Zm-24.659.105-.306.368c.68-.089 1.021-.194.939-.374Zm-21.789.487c-.002-.046.296-.05.299-.003.001.045-.298.049-.299.003m-51.205.21q.002.11.008.219l.322-.003-.007-.22Zm147.003 5.44c.003.046.299.023.296-.022-.007-.046-.302-.023-.296.022m-91.54-6.021c-.485-.078-.608.01-1.116.008h-.002c.55.19 1.428.069 1.277.351.207-.063.419-.125.623-.19-.245-.047-.543-.131-.782-.17m27.964-.006q.001.074.004.147l.314-.004q0-.073-.004-.146Zm-48.668.372q.002.073.004.146l.63-.007-.477-.14Zm54.044-.353.001.073.953-.01-.003-.073Zm28.454-.27c.534.045 1.014.089 1.572.133q-.001-.11-.005-.219c-.556.03-1.035.058-1.567.086m2.84-.096q.003.11.007.219c.451.01.65-.04.925-.117a2.7 2.7 0 0 0-.932-.102m-27.828.367c0-.045-.304-.042-.302.004 0 .045.304.042.302-.004m2.537-.134.63.14q0-.073-.003-.146Zm-71.427.572.476.104.157-.038-.477-.104ZM174.034.901l.004.146.644-.15Zm-54.037.273c-1.287.005-.345.224.006.218Zm-76.798.773c-.002-.046-.295-.043-.294.003 0 .046.295.043.294-.003m55.935-.444c-.003-.046-.301-.042-.3.003.002.046.301.043.3-.003m29.709-.238c-.001-.046-.3-.043-.298.003.001.046.3.043.298-.003m-45.197.332c-.002-.046-.302-.043-.3.003s.3.043.3-.003m51.835-.399c-.001-.046-.302-.043-.3.003 0 .046.302.043.3-.003M164.57.895q0 .073.003.146l.315-.002q0-.074-.003-.146Zm1.238.1c-.004-.046-.292-.044-.292.002.003.046.289.044.292-.002m-125.923.658c-.465.026-.963.056-1.426.086.183.12 1.38.277 1.855.19.37-.064-.158-.249-.429-.276m32.079-.04q0 .038.002.074l.63-.007v-.073Zm76.158-.647q0 .073.003.146l.629-.005-.478-.142Zm-96.395.715q.001.074.004.146l.318-.003q0-.073-.004-.146Zm53.406-.315c-.002-.046-.3-.042-.298.003.001.046.3.043.298-.003m.631-.007c0-.046-.299-.042-.298.004.001.045.3.042.298-.004m28.765-.334q.003.074.004.146l.318-.003q0-.074-.003-.146Zm-63.838.53.001.072.635-.006q0-.036-.003-.073Zm53.731-.428.002.074.631-.007q0-.036-.002-.073Zm-73.643.565.003.072.63-.006v-.073Zm115.999-.96.003.146q.16 0 .317-.003l-.004-.146Zm-96.724.683c0 .049.004.098.004.146l.316-.003c0-.049-.004-.097-.004-.146Zm-25.605.301c0-.045-.3-.043-.3.003s.3.043.3-.003m61.635-.542.952.063-.004-.146-.952-.063q0 .073.004.146m52.795-.305.633-.005q-.238-.072-.479-.142l-.158.001q.001.074.004.146m-47.737.25.002.074.634-.007-.003-.073ZM95.65 1.068c-.752-.007-1.247.044-1.257.232.752.006 1.247-.044 1.257-.232m-23.066.248c0 .048.004.097.004.146l.624-.152Zm49.299-.38q0 .073.004.145l.63-.006-.478-.14Zm30.021-.15q0 .037.003.073l.643-.006-.002-.073Zm-49.936.396c-.002-.046-.3-.043-.299.003 0 .046.301.043.299-.003m-39.82.173q.001.073.004.146c.315.01 1.034-.06.945-.156Zm75.536-.506.001.073.635-.006q0-.036-.003-.073Zm6.01-.204q0 .073.003.146c.401-.018.592.036.943.064l-.006-.219Zm-23.071.34.159.035.47-.114-.158-.035Zm-77.437.599c0-.046-.295-.043-.294.002 0 .046.295.044.294-.002M182.897.498q0 .073.003.146l.625-.001c-.171-.049-.309-.097-.47-.145Zm-101.166.715-.616.01q0 .038.002.073l.945-.01.15-.293Zm74.921-.507c0-.046-.3-.043-.299.003s.3.043.299-.003m-99.247.734c0-.045-.297-.042-.296.004 0 .046.297.042.296-.004m1.268-.013.16.035.471-.115-.16-.034Zm53.093-.605c-.47.056-.696.159-1.263.16l.002.072h.001l1.268-.013q-.002-.11-.008-.22m23.71-.098q.002.072.004.146l.629-.152Zm-90.4.768c0-.046-.302-.044-.3.002s.301.043.3-.002M126.612.85c-.002-.046-.304-.043-.3.003-.002.046.301.043.3-.003M159.81.606c0-.046-.298-.044-.297.002s.298.044.297-.002M133.573.67l.004.146.312-.003-.004-.146ZM69.73 1.2q0 .036.003.073l.631-.007q0-.036-.002-.073Zm52.463-.378.158.035.474-.114-.16-.035ZM124.09.62c-.356.036-.536.094-.949.083l.481.14c.322-.069.528-.118.468-.223m-41.093.473c-.002-.046-.3-.042-.3.004.002.045.301.042.3-.004M88.059.93l.638.14q0-.074-.004-.147Zm-21.815.272c0-.046-.3-.043-.298.003s.3.043.298-.003M91.846.998c-.002-.046-.3-.043-.299.003 0 .046.3.043.3-.003m-20.852.152.16.035.472-.115-.16-.035Zm-28.76.223c0-.046-.305-.043-.303.003 0 .046.304.043.304-.003m90.081-.69.628-.007-.004-.146-.156.002Zm2.512-.062c-.002-.046-.302-.043-.301.003s.303.043.301-.003m-99.236.56c.026.084.177.142.328.216l-.639.006.012-.101q-.33-.055-.65-.112c.313-.001.63-.009.95-.009m4.116.143c-.001-.045-.29-.043-.294.003.005.046.295.043.294-.003m34.442-.318q.002.038.003.074l.633-.008L74.782 1ZM106.07.664l.004.146q.16 0 .317-.003l-.004-.146Zm5.368.053c-.002-.046-.301-.043-.299.003.001.046.301.042.299-.003m9.797-.103c-.002-.046-.299-.042-.298.004.001.045.3.042.298-.004M80.157.87l-.635.007-.002-.073.635-.007Zm-42.367.255c-.001-.046-.3-.043-.297.003 0 .046.298.043.297-.003M79.202.806l-.949.01-.002-.073.95-.01Zm-40.46.236c-.001-.046-.305-.043-.303.003 0 .046.303.043.302-.003m1.266-.013c-.001-.045-.296-.042-.294.004.001.046.296.042.294-.004m95.776-.855c-.001-.046.299-.049.299-.003.002.046-.298.049-.299.003m-.961-.027-.32.002q-.002-.072-.003-.146l.319-.003Z"/></svg>