<svg width="0" height="0" class="hidden">
    <symbol  version="1.1" xmlns="http://www.w3.org/2000/svg" viewBox="0 0 410 512" id="pin">
        <path fill="currentColor" d="M204.8 256c-28.16 0-51.2-23.040-51.2-51.2s23.040-51.2 51.2-51.2c28.16 0 51.2 23.040 51.2 51.2s-23.040 51.2-51.2 51.2zM358.4 209.92c0-92.928-67.84-158.72-153.6-158.72s-153.6 65.792-153.6 158.72c0 59.904 49.92 139.264 153.6 233.984 103.68-94.72 153.6-174.080 153.6-233.984zM204.8 0c107.52 0 204.8 82.432 204.8 209.92 0 84.992-68.352 185.6-204.8 302.080-136.448-116.48-204.8-217.088-204.8-302.080 0-127.488 97.28-209.92 204.8-209.92z"></path>
    </symbol>
    <symbol version="1.1" xmlns="http://www.w3.org/2000/svg" viewBox="0 0 512 512" id="check-circle">
        <path fill="none" stroke-linejoin="miter" stroke-linecap="butt" stroke-miterlimit="4" stroke-width="20.48" stroke="currentColor" d="M256 10.24c135.73 0 245.76 110.031 245.76 245.76s-110.031 245.76-245.76 245.76c-135.73 0-245.76-110.031-245.76-245.76s110.031-245.76 245.76-245.76z"></path>
        <path fill="none" stroke-linejoin="miter" stroke-linecap="butt" stroke-miterlimit="4" stroke-width="34.1333" stroke="currentColor" d="M153.6 253.269l63.715 70.998 141.085-136.534"></path>
    </symbol>
    <symbol version="1.1" xmlns="http://www.w3.org/2000/svg" viewBox="0 0 512 512" id="insta">

        <path fill="currentColor" d="M256.010 226.816c-7.74 0-15.163 3.075-20.636 8.548-5.474 5.473-8.548 12.897-8.548 20.636s3.075 15.163 8.548 20.636c5.473 5.474 12.897 8.548 20.636 8.548s15.163-3.075 20.636-8.548c5.474-5.473 8.548-12.897 8.548-20.636s-3.075-15.163-8.548-20.636c-5.473-5.474-12.897-8.548-20.636-8.548zM256.010 207.36c12.901 0 25.272 5.125 34.394 14.246s14.247 21.493 14.247 34.393c0 12.901-5.125 25.272-14.247 34.394s-21.493 14.247-34.394 14.247c-12.9 0-25.272-5.125-34.394-14.247s-14.246-21.493-14.246-34.394c0-12.9 5.125-25.272 14.246-34.394s21.493-14.246 34.394-14.246zM319.241 204.928c0 3.225-1.281 6.318-3.562 8.599s-5.373 3.561-8.599 3.561c-3.225 0-6.318-1.281-8.599-3.561s-3.562-5.374-3.562-8.599c0-3.225 1.281-6.318 3.562-8.599s5.373-3.561 8.599-3.561c3.225 0 6.318 1.281 8.599 3.561s3.562 5.374 3.562 8.599zM256.010 178.176c-24.067 0-27.997 0.068-39.194 0.564-7.627 0.36-12.744 1.381-17.491 3.23-3.97 1.463-7.561 3.8-10.506 6.839-3.042 2.944-5.382 6.535-6.849 10.506-1.849 4.767-2.87 9.874-3.22 17.491-0.506 10.739-0.574 14.494-0.574 39.194 0 24.077 0.068 27.997 0.564 39.194 0.36 7.617 1.381 12.743 3.22 17.481 1.654 4.231 3.6 7.276 6.829 10.506 3.279 3.269 6.323 5.224 10.506 6.839 4.805 1.858 9.922 2.889 17.511 3.24 10.739 0.506 14.494 0.564 39.194 0.564 24.077 0 27.997-0.068 39.194-0.564 7.608-0.36 12.724-1.382 17.481-3.22 3.971-1.463 7.561-3.8 10.506-6.839 3.279-3.269 5.233-6.313 6.849-10.506 1.849-4.786 2.88-9.903 3.229-17.51 0.506-10.73 0.564-14.495 0.564-39.185 0-24.067-0.068-27.997-0.564-39.194-0.36-7.607-1.391-12.744-3.229-17.491-1.463-3.97-3.8-7.561-6.839-10.506-2.944-3.042-6.534-5.382-10.506-6.849-4.767-1.849-9.884-2.87-17.491-3.22-10.73-0.506-14.485-0.564-39.194-0.564zM256 158.72c26.431 0 29.729 0.097 40.108 0.583 10.351 0.487 17.413 2.111 23.61 4.524 6.421 2.471 11.829 5.817 17.238 11.216 4.949 4.862 8.776 10.744 11.216 17.238 2.403 6.197 4.037 13.26 4.524 23.619 0.457 10.37 0.584 13.668 0.584 40.099s-0.098 29.729-0.584 40.099c-0.486 10.37-2.12 17.413-4.524 23.62-2.44 6.493-6.268 12.377-11.216 17.238-4.861 4.949-10.745 8.776-17.238 11.216-6.197 2.403-13.26 4.037-23.61 4.524-10.38 0.457-13.678 0.584-40.108 0.584s-29.729-0.098-40.108-0.584c-10.351-0.486-17.404-2.12-23.61-4.524-6.494-2.44-12.376-6.268-17.238-11.216-4.948-4.861-8.776-10.745-11.216-17.238-2.412-6.197-4.037-13.26-4.524-23.62-0.467-10.37-0.583-13.668-0.583-40.099s0.097-29.729 0.583-40.099c0.487-10.37 2.111-17.413 4.524-23.619 2.44-6.494 6.268-12.376 11.216-17.238 4.862-4.948 10.744-8.776 17.238-11.216 6.197-2.412 13.25-4.037 23.61-4.524 10.389-0.457 13.688-0.583 40.118-0.583z"></path>
    </symbol>
    <symbol version="1.1" xmlns="http://www.w3.org/2000/svg" viewBox="0 0 659 512" id="eye">
        <path fill="currentColor" d="M329.143 168.228c-23.808 0-46.64 9.248-63.474 25.708s-26.292 38.785-26.292 62.064c0 23.279 9.458 45.603 26.292 62.064s39.667 25.707 63.474 25.707c23.808 0 46.639-9.248 63.474-25.707s26.291-38.786 26.291-62.064c0-23.279-9.457-45.603-26.291-62.064s-39.666-25.708-63.474-25.708zM329.143 402.286c-39.68 0-77.733-15.411-105.791-42.846s-43.82-64.642-43.82-103.44 15.762-76.005 43.82-103.44c28.057-27.433 66.111-42.846 105.791-42.846s77.733 15.412 105.79 42.846 43.82 64.642 43.82 103.44c0 38.798-15.762 76.005-43.82 103.44s-66.11 42.846-105.79 42.846zM329.143 36.572c-149.611 0-277.378 90.99-329.143 219.428 51.765 128.439 179.532 219.428 329.143 219.428s277.376-90.99 329.143-219.429c-51.767-128.439-179.533-219.429-329.143-219.429z"></path>
    </symbol>
    <symbol version="1.1" xmlns="http://www.w3.org/2000/svg" viewBox="0 0 512 512" id="tg">

        <path fill="currentColor" d="M333.127 175.201c2.392-0.993 5.011-1.335 7.582-0.991s5.003 1.361 7.041 2.945c2.038 1.584 3.608 3.678 4.547 6.063s1.212 4.975 0.79 7.5l-21.954 131.273c-2.13 12.663-16.224 19.924-28.005 13.616-9.854-5.276-24.491-13.406-37.656-21.889-6.582-4.247-26.746-17.844-24.268-27.52 2.13-8.273 36.011-39.362 55.371-57.845 7.599-7.262 4.134-11.451-4.84-4.771-22.284 16.584-58.062 41.805-69.891 48.904-10.435 6.26-15.875 7.329-22.381 6.26-11.868-1.947-22.874-4.962-31.857-8.635-12.139-4.962-11.548-21.413-0.010-26.203l165.531-68.704z"></path>
    </symbol>
    <symbol version="1.1" xmlns="http://www.w3.org/2000/svg" viewBox="0 0 512 512" id="box">
        <path fill="none" stroke-linejoin="miter" stroke-linecap="butt" stroke-miterlimit="4" stroke-width="7.68" stroke="currentColor" d="M256 3.84c139.264 0 252.16 112.896 252.16 252.16s-112.896 252.16-252.16 252.16c-139.264 0-252.16-112.896-252.16-252.16s112.896-252.16 252.16-252.16z"></path>
        <path fill="none" stroke-linejoin="miter" stroke-linecap="butt" stroke-miterlimit="4" stroke-width="12.8" stroke="currentColor" d="M256 251.115l-114.24-61.549M256 251.115v132.567M256 251.115l114.24-61.549M185.698 213.238l70.302-37.876 70.302 37.876v85.223l-70.302 37.876-70.302-37.876v-85.222z"></path>
        <path fill="none" stroke-linejoin="miter" stroke-linecap="butt" stroke-miterlimit="4" stroke-width="12.8" stroke="currentColor" d="M256 128.319l-114.24 61.475v132.409l114.24 61.476 114.24-61.476v-132.409l-114.24-61.475z"></path>
    </symbol>
    <symbol version="1.1" xmlns="http://www.w3.org/2000/svg" viewBox="0 0 512 512" id="balance">
        <path fill="none" stroke-linejoin="miter" stroke-linecap="butt" stroke-miterlimit="4" stroke-width="7.68" stroke="currentColor" d="M256 3.84c139.264 0 252.16 112.896 252.16 252.16s-112.896 252.16-252.16 252.16c-139.264 0-252.16-112.896-252.16-252.16s112.896-252.16 252.16-252.16z"></path>
        <path fill="none" stroke-linejoin="miter" stroke-linecap="butt" stroke-miterlimit="4" stroke-width="12.8" stroke="currentColor" d="M237.716 195.046c0 10.099 8.186 18.286 18.286 18.286s18.286-8.186 18.286-18.286c0-10.099-8.187-18.286-18.286-18.286s-18.286 8.187-18.286 18.286z"></path>
        <path fill="none" stroke-linejoin="miter" stroke-linecap="butt" stroke-miterlimit="4" stroke-width="12.8" stroke="currentColor" d="M134.094 256.002c0 67.327 54.578 121.906 121.906 121.906s121.904-54.579 121.904-121.906c0-67.326-54.579-121.904-121.904-121.904s-121.906 54.578-121.906 121.904z"></path>
        <path fill="none" stroke-linejoin="miter" stroke-linecap="butt" stroke-miterlimit="4" stroke-width="12.8" stroke="currentColor" d="M256 377.906c-33.663 0-60.952-27.289-60.952-60.953s27.289-60.952 60.952-60.952 60.952-27.289 60.952-60.952-27.289-60.952-60.952-60.952"></path>
        <path fill="none" stroke-linejoin="miter" stroke-linecap="butt" stroke-miterlimit="4" stroke-width="12.8" stroke="currentColor" d="M237.716 316.952c0 10.099 8.186 18.286 18.286 18.286s18.286-8.187 18.286-18.286c0-10.099-8.187-18.286-18.286-18.286s-18.286 8.186-18.286 18.286z"></path>
    </symbol>
    <symbol version="1.1" xmlns="http://www.w3.org/2000/svg" viewBox="0 0 512 512" id="branch">
        <path fill="none" stroke-linejoin="miter" stroke-linecap="butt" stroke-miterlimit="4" stroke-width="7.68" stroke="currentColor" d="M256 3.84c139.264 0 252.16 112.896 252.16 252.16s-112.896 252.16-252.16 252.16c-139.264 0-252.16-112.896-252.16-252.16s112.896-252.16 252.16-252.16z"></path>
        <path fill="none" stroke-linejoin="miter" stroke-linecap="butt" stroke-miterlimit="4" stroke-width="12.8" stroke="currentColor" d="M213.753 206.526c0 40.161 42.239 69.399 42.239 69.399s42.239-29.238 42.239-69.399c0-40.161-42.239-69.399-42.239-69.399s-42.239 29.237-42.239 69.399z"></path>
        <path fill="none" stroke-linejoin="miter" stroke-linecap="butt" stroke-miterlimit="4" stroke-width="12.8" stroke="currentColor" d="M175.641 316.738c28.398 28.399 78.94 19.205 78.94 19.205s9.194-50.541-19.204-78.94c-28.398-28.398-78.94-19.205-78.94-19.205s-9.194 50.542 19.204 78.94z"></path>
        <path fill="none" stroke-linejoin="miter" stroke-linecap="butt" stroke-miterlimit="4" stroke-width="12.8" stroke="currentColor" d="M336.361 316.738c-28.399 28.399-78.94 19.205-78.94 19.205s-9.194-50.541 19.204-78.94c28.399-28.398 78.941-19.205 78.941-19.205s9.193 50.542-19.205 78.94z"></path>
        <path fill="none" stroke-linejoin="miter" stroke-linecap="butt" stroke-miterlimit="4" stroke-width="12.8" stroke="currentColor" d="M257.419 335.95l49.072-49.072"></path>
        <path fill="none" stroke-linejoin="miter" stroke-linecap="butt" stroke-miterlimit="4" stroke-width="12.8" stroke="currentColor" d="M205.506 286.877l49.072 49.072"></path>
        <path fill="none" stroke-linejoin="miter" stroke-linecap="butt" stroke-miterlimit="4" stroke-width="12.8" stroke="currentColor" d="M255.994 275.925v-69.399"></path>
        <path fill="none" stroke-linejoin="miter" stroke-linecap="butt" stroke-miterlimit="4" stroke-width="12.8" stroke="currentColor" d="M256 318.248v65.752"></path>
    </symbol>
    <symbol version="1.1" xmlns="http://www.w3.org/2000/svg" viewBox="0 0 910 512" id="arrow">
        x        <path fill="none" stroke-linejoin="miter" stroke-linecap="butt" stroke-miterlimit="4" stroke-width="113.7778" stroke="currentColor" d="M56.777 85.334l398.229 341.334 398.216-341.334"></path>
    </symbol>
</svg>