<svg width="0" height="0" class="hidden">
    <symbol version="1.1" xmlns="http://www.w3.org/2000/svg" viewBox="0 0 448 448" id="plus">
        <path fill="currentColor" d="M192 256h-192v-64h192v-192h64v192h192v64h-192v192h-64v-192z"></path>
    </symbol>
    <symbol version="1.1" xmlns="http://www.w3.org/2000/svg" viewBox="0 0 448 448" id="bag">
        <path fill="currentColor" d="M112 89.6v-67.2c0-5.941 2.36-11.638 6.561-15.839s9.898-6.561 15.839-6.561h179.2c5.94 0 11.639 2.36 15.839 6.561s6.561 9.898 6.561 15.839v67.2h89.6c5.94 0 11.639 2.36 15.839 6.561s6.561 9.898 6.561 15.839v313.6c0 5.94-2.361 11.639-6.561 15.839s-9.898 6.561-15.839 6.561h-403.2c-5.941 0-11.638-2.361-15.839-6.561s-6.561-9.898-6.561-15.839v-313.6c0-5.941 2.36-11.638 6.561-15.839s9.898-6.561 15.839-6.561h89.6zM291.2 134.4h-134.4v268.8h134.4v-268.8zM112 134.4h-67.2v268.8h67.2v-268.8zM336 134.4v268.8h67.2v-268.8h-67.2zM156.8 44.8v44.8h134.4v-44.8h-134.4z"></path>
    </symbol>
    <symbol version="1.1" xmlns="http://www.w3.org/2000/svg" viewBox="0 0 448 448" id="pencil">
        <path fill="currentColor" d="M44.8 357.746h31.674l208.634-208.634-31.674-31.674-208.634 208.634v31.674zM403.2 402.546h-403.2v-95.043l300.944-300.944c4.2-4.2 9.896-6.559 15.837-6.559s11.637 2.359 15.837 6.559l63.37 63.37c4.2 4.2 6.559 9.897 6.559 15.837s-2.359 11.636-6.559 15.837l-256.144 256.144h263.357v44.8zM285.107 85.765l31.674 31.674 31.674-31.674-31.674-31.674-31.674 31.674z"></path>
    </symbol>
    <symbol version="1.1" xmlns="http://www.w3.org/2000/svg" viewBox="0 0 448 448" id="star">
        <path fill="currentColor" d="M224.002 359.542l-138.428 77.487 30.912-155.601-116.486-107.712 157.544-18.683 66.456-144.061 66.456 144.061 157.544 18.683-116.486 107.712 30.912 155.601-138.429-77.487zM224.002 314.557l83.354 46.653-18.626-93.679 70.126-64.866-94.857-11.246-39.999-86.732-39.999 86.75-94.857 11.227 70.126 64.866-18.626 93.679 83.354-46.653z"></path>
    </symbol>
    <symbol version="1.1" xmlns="http://www.w3.org/2000/svg" viewBox="0 0 448 448" id="clock">
        <path  fill="currentColor" d="M224 0c-123.715 0-224 100.285-224 224s100.285 224 224 224c123.715 0 224-100.285 224-224h-44.8c0 98.963-80.237 179.2-179.2 179.2s-179.2-80.237-179.2-179.2c0-98.963 80.237-179.2 179.2-179.2 61.6 0 115.942 31.069 148.176 78.4h-58.576v44.8h134.4v-134.4h-44.8v56c-40.858-54.432-105.93-89.6-179.2-89.6zM201.6 112v102.704l-72.643 72.643 31.696 31.696 85.747-85.792v-121.251h-44.8z"></path>
    </symbol>
    <symbol version="1.1" xmlns="http://www.w3.org/2000/svg" viewBox="0 0 448 448" id="tg">
        <path fill="currentColor" d="M428.405 135.727c-11.192-26.463-27.211-50.227-47.614-70.633s-44.165-36.428-70.627-47.623c-27.401-11.592-56.504-17.47-86.512-17.472-29.992 0-59.093 5.877-86.493 17.466-26.461 11.192-50.224 27.212-70.629 47.615s-36.426 44.166-47.62 70.626c-11.592 27.4-17.47 56.502-17.472 86.494-0.002 29.994 5.873 59.098 17.462 86.501 11.191 26.462 27.211 50.227 47.614 70.632 20.403 20.406 44.166 36.429 70.628 47.622 27.402 11.592 56.504 17.47 86.508 17.472h0.005c29.992 0 59.091-5.877 86.493-17.465 26.462-11.192 50.224-27.213 70.629-47.614 20.403-20.403 36.426-44.167 47.619-70.627 11.592-27.4 17.47-56.502 17.472-86.494 0.002-29.994-5.873-59.096-17.462-86.5zM223.654 423.739h-0.014c-53.829-0.003-104.435-20.97-142.495-59.035-38.060-38.064-59.020-88.672-59.017-142.501 0.007-111.115 90.41-201.513 201.536-201.513 53.829 0.003 104.435 20.968 142.494 59.033 38.061 38.066 59.021 88.673 59.017 142.502-0.007 111.115-90.41 201.514-201.522 201.514z"></path>
        <path fill="currentColor" d="M303.288 156.776l-26.826 135.765c-2.024 9.583-7.302 11.968-14.803 7.453l-40.873-32.323-19.722 20.357c-2.182 2.342-4.008 4.301-8.215 4.301l2.936-44.672 75.755-73.462c3.294-3.152-0.714-4.898-5.118-1.746l-93.653 63.283-40.318-13.542c-8.77-2.939-8.929-9.411 1.825-13.927l157.701-65.199c7.302-2.938 13.691 1.746 11.31 13.713z"></path>
    </symbol>
    <symbol version="1.1" xmlns="http://www.w3.org/2000/svg" viewBox="0 0 448 448" id="vk">
        <path fill="currentColor" d="M379.354 65.095c20.403 20.405 36.422 44.17 47.613 70.633 11.589 27.404 17.464 56.506 17.462 86.5-0.002 29.992-5.878 59.094-17.47 86.494-11.193 26.461-27.216 50.224-47.621 70.627-20.403 20.401-44.166 36.422-70.627 47.614-27.401 11.589-56.502 17.465-86.494 17.465h-0.003c-30.005-0.002-59.107-5.88-86.509-17.472-26.462-11.193-50.224-27.216-70.628-47.622-20.403-20.405-36.423-44.17-47.614-70.632-11.589-27.403-17.464-56.507-17.462-86.501 0.002-29.992 5.88-59.094 17.472-86.494 11.193-26.46 27.215-50.223 47.62-70.626s44.168-36.424 70.629-47.615c27.401-11.589 56.502-17.466 86.494-17.466 30.008 0.002 59.11 5.88 86.512 17.472 26.461 11.194 50.224 27.216 70.627 47.623zM222.203 423.739h0.013c111.114 0 201.517-90.398 201.522-201.514 0.003-53.829-20.955-104.436-59.016-142.502s-88.666-59.030-142.494-59.033c-111.127 0-201.53 90.398-201.537 201.513-0.003 53.829 20.956 104.437 59.017 142.501 38.061 38.066 88.668 59.032 142.496 59.035zM128.674 208.938c6.552 12.341 13.299 24.331 22.345 35.178 9.142 10.96 19.936 21.582 32.65 28.674 3.536 1.971 7.254 3.635 11.127 4.901 14.939 4.877 31.326 4.413 36.387 1.162 2.595-1.669 2.274-8.107 1.963-14.325-0.294-5.904-0.579-11.61 1.651-12.854 4.578-2.555 12.771 3.021 18.795 8.131 6.024 5.109 10.603 9.523 13.978 13.008 0.662 0.683 1.262 1.41 1.861 2.131 1.309 1.581 2.603 3.143 4.493 4.211 4.128 2.331 9.499 2.317 14.253 2.304 0.493-0.002 0.979-0.003 1.456-0.002h0.259c2.747 0.008 5.495 0.016 8.242-0.017 0.682-0.008 1.365-0.007 2.048-0.003 1.232 0.005 2.464 0.008 3.694-0.049 3.146-0.147 7.258-1.342 7.021-5.135-0.056-0.898-0.263-1.97-0.632-2.797-0.794-1.779-1.912-3.624-3.115-5.174-5.667-7.301-9.61-11.371-12.629-14.49-0.318-0.328-0.627-0.646-0.925-0.957-0.907-0.941-2.63-2.592-4.643-4.518-4.942-4.734-11.627-11.137-12.226-12.787-0.843-2.323-1.115-3.353 1.28-6.489 1.278-1.675 3.371-4.714 5.666-8.048 2.002-2.909 4.158-6.041 6.067-8.691 2.569-3.57 4.904-7.302 7.21-11.032 2.718-4.398 5.275-8.904 7.455-13.574 0.974-2.090 1.859-3.992 1.256-6.333-0.405-1.568-1.32-2.946-3.024-3.333-0.93-0.211-1.944-0.232-2.896-0.232h-12.832c-0.789 0-1.578-0.005-2.366-0.011-0.888-0.005-1.776-0.011-2.666-0.010-0.161 0-0.323 0-0.485 0-1.56 0.002-3.129 0.003-4.683 0.131-2.438 0.202-3.933 2.014-5.16 3.843-0.898 1.337-1.747 2.709-2.597 4.078-0.571 0.92-1.142 1.841-1.726 2.752-0.997 1.547-1.971 3.107-2.926 4.678-1.491 2.445-3.027 4.864-4.563 7.285l-0.013 0.021c-0.102 0.161-0.205 0.323-0.307 0.483-0.538 0.847-1.075 1.691-1.605 2.541-1.806 2.904-17.47 22.765-20.603 23.578-3.131 0.814-4.216 0.582-4.216-5.574v-41.115c0 0-0.242-2.696-2.891-2.696h-40.304c0 0-5.965 0.024-3.856 5.192 0.777 1.906 2.115 3.321 3.494 4.781 2.363 2.502 4.85 5.135 4.85 10.581v33.797c0 0-1.054 7.579-7.862 1.307-5.363-4.942-9.784-10.786-13.69-16.845-4.061-6.299-7.331-12.843-10.245-19.699-0.175-0.409-0.349-0.821-0.523-1.232-0.658-1.55-1.315-3.101-1.992-4.645-0.893-2.037-1.778-4.078-2.636-6.13-0.086-0.205-0.172-0.416-0.259-0.629-0.931-2.275-2.031-4.965-4.483-5.966-1.289-0.528-2.709-0.526-4.087-0.525-0.064 0-0.127 0-0.191 0-1.868 0-3.736 0.003-5.603 0.005-3.464 0.003-6.928 0.008-10.392 0.002-1.565-0.003-3.129-0.005-4.693-0.002-0.091 0.002-0.182 0.002-0.273 0.002-3.643 0.005-8.036 0.011-8.89 4.351-0.49 2.483 0.438 5.13 1.261 7.475 0.026 0.073 0.052 0.149 0.078 0.222 0.253 0.725 0.546 1.432 0.839 2.139 0.147 0.357 0.295 0.714 0.438 1.072 2.167 5.454 4.839 10.712 7.596 15.906z"></path>
    </symbol>
    <symbol version="1.1" xmlns="http://www.w3.org/2000/svg" viewBox="0 0 487 512" id="phone">
        <path fill="currentColor" d="M458.8 346.132c-32.801 0-64.535-5.332-94.134-14.933-9.334-3.2-19.733-0.801-26.934 6.4l-41.866 52.534c-75.467-36.002-146.133-104-183.733-182.134l52-44.267c7.2-7.466 9.333-17.867 6.4-27.2-9.867-29.6-14.934-61.333-14.934-94.133 0-14.4-12-26.4-26.399-26.4h-92.267c-14.4 0-31.733 6.4-31.733 26.4 0 247.733 206.133 453.6 453.601 453.6 18.934 0 26.399-16.801 26.399-31.467v-91.999c0-14.4-11.998-26.401-26.399-26.401z"></path>
    </symbol>
    <symbol version="1.1" xmlns="http://www.w3.org/2000/svg" viewBox="0 0 570 448" id="check">
        <path fill="currentColor" d="M203.637 427.637l-203.637-195.804 57.018-54.825 146.618 140.979 309.527-297.623 57.018 54.825-366.545 352.448z"></path>
    </symbol>
    <symbol viewBox="0 0 16 12" fill="none" xmlns="http://www.w3.org/2000/svg" id="email">
        <path fill-rule="evenodd" clip-rule="evenodd" d="M7.99967 6.35556C6.69935 6.35556 0 1.67036 0 1.67036V1.15556C0 0.517689 0.596563 0 1.33294 0H14.6664C15.4034 0 16 0.517689 16 1.15556L15.9893 1.73333C15.9893 1.73333 9.36257 6.35556 7.99967 6.35556ZM7.99967 7.94444C9.42516 7.94444 15.9893 3.46667 15.9893 3.46667L16 10.4C16 11.0379 15.4034 11.5556 14.6664 11.5556H1.33294C0.597228 11.5556 0 11.0379 0 10.4L0.0106529 3.46667C0.0099871 3.46667 6.69935 7.94444 7.99967 7.94444Z" fill="currentColor"></path>
    </symbol>
    <symbol version="1.1" xmlns="http://www.w3.org/2000/svg" viewBox="0 0 747 448" id="arrow">
        <path fill="none" stroke-linejoin="miter" stroke-linecap="butt" stroke-miterlimit="4" stroke-width="89.6" stroke="currentColor" d="M672 74.667l-298.667 298.667-298.667-298.667"></path>
    </symbol>
    <symbol xmlns="http://www.w3.org/2000/svg" viewBox="0 0 384 512" id="file">
        <path fill="currentColor" d="M0 64C0 28.7 28.7 0 64 0L224 0l0 128c0 17.7 14.3 32 32 32l128 0 0 288c0 35.3-28.7 64-64 64L64 512c-35.3 0-64-28.7-64-64L0 64zm384 64l-128 0L256 0 384 128z"/>
    </symbol>
    <symbol version="1.1" xmlns="http://www.w3.org/2000/svg" viewBox="0 0 476 448" id="phone">
        <path fill="currentColor" d="M180.382 175.438c6.232-4.154 9.975-11.148 9.975-18.638v-89.6c0-37.114-30.086-67.2-67.2-67.2h-89.6c-12.371 0-22.4 10.029-22.4 22.4 0 222.681 202.919 425.6 425.599 425.6 12.373 0 22.4-10.030 22.4-22.4v-89.6c0-37.114-30.086-67.2-67.2-67.2h-89.6c-7.487 0-14.482 3.743-18.637 9.975l-42.68 64.021c-46.485-30.058-87.211-69.758-118.538-115.459l-6.139-9.219 64.020-42.68zM314.429 313.6h77.61c12.37 0 22.4 10.030 22.4 22.4v66.424c-43.394-3.004-85.744-14.61-125.244-33.012l-9.064-4.368 34.297-51.444zM279.956 89.6c-12.371 0-22.4 10.029-22.4 22.4s10.029 22.4 22.4 22.4c23.617 0 42.968 18.276 44.676 41.457l0.274 5.956c1.294 11.141 10.763 19.788 22.249 19.788 12.373 0 22.4-10.029 22.4-22.4 0-49.485-40.116-89.6-89.599-89.6zM279.956 0c-12.371 0-22.4 10.029-22.4 22.4s10.029 22.4 22.4 22.4c74.227 0 134.399 60.173 134.399 134.4 0 12.371 10.030 22.4 22.4 22.4 12.373 0 22.4-10.029 22.4-22.4 0-98.97-80.228-179.2-179.199-179.2zM123.080 44.8c12.371 0 22.4 10.029 22.4 22.4v77.612l-51.444 34.297c-20.934-42.055-34.145-87.576-37.379-134.308h66.423z"></path>
    </symbol>
</svg>