<svg width="0" height="0" class="hidden">
    <symbol version="1.1" xmlns="http://www.w3.org/2000/svg" viewBox="0 0 448 448" id="calculator">
        <path fill="currentColor" d="M361.489 253.987c34.931 0 63.247 28.316 63.247 63.247v63.247c0 34.931-28.316 63.247-63.247 63.247h-63.247c-34.931 0-63.247-28.316-63.247-63.247v-63.247c0-34.931 28.316-63.247 63.247-63.247h63.247zM129.582 253.987c34.93 0 63.247 28.316 63.247 63.247v63.247c0 34.931-28.317 63.247-63.247 63.247h-63.247c-34.93 0-63.247-28.316-63.247-63.247v-63.247c0-34.931 28.317-63.247 63.247-63.247h63.247zM361.489 296.152h-63.247c-11.643 0-21.082 9.44-21.082 21.082v63.247c0 11.643 9.44 21.082 21.082 21.082h63.247c11.643 0 21.082-9.44 21.082-21.082v-63.247c0-11.643-9.44-21.082-21.082-21.082zM129.582 296.152h-63.247c-11.644 0-21.082 9.44-21.082 21.082v63.247c0 11.643 9.439 21.082 21.082 21.082h63.247c11.644 0 21.082-9.44 21.082-21.082v-63.247c0-11.643-9.439-21.082-21.082-21.082zM129.582 22.081c34.93 0 63.247 28.317 63.247 63.247v63.247c0 34.93-28.317 63.247-63.247 63.247h-63.247c-34.93 0-63.247-28.317-63.247-63.247v-63.247c0-34.93 28.317-63.247 63.247-63.247h63.247zM361.489 22.081c34.931 0 63.247 28.317 63.247 63.247v63.247c0 34.93-28.316 63.247-63.247 63.247h-63.247c-34.931 0-63.247-28.317-63.247-63.247v-63.247c0-34.93 28.316-63.247 63.247-63.247h63.247zM129.582 64.246h-63.247c-11.644 0-21.082 9.439-21.082 21.082v63.247c0 11.644 9.439 21.082 21.082 21.082h63.247c11.644 0 21.082-9.439 21.082-21.082v-63.247c0-11.644-9.439-21.082-21.082-21.082zM361.489 64.246h-63.247c-11.643 0-21.082 9.439-21.082 21.082v63.247c0 11.644 9.44 21.082 21.082 21.082h63.247c11.643 0 21.082-9.439 21.082-21.082v-63.247c0-11.644-9.44-21.082-21.082-21.082z"></path>
    </symbol>
    <symbol version="1.1" xmlns="http://www.w3.org/2000/svg" viewBox="0 0 448 448" id="delivery-plane">
        <path fill="currentColor" d="M17.503 189.68c-19.219-6.406-19.219-33.591 0-39.998l379.449-126.483c16.481-5.493 32.158 10.185 26.666 26.665l-126.483 379.449c-6.406 19.219-33.592 19.219-39.998 0l-59.908-179.725-179.725-59.908zM90.869 169.663l129.728 43.243c6.295 2.098 11.234 7.038 13.332 13.332l43.243 129.729 93.152-279.456-279.456 93.152z"></path>
    </symbol>
    <symbol version="1.1" xmlns="http://www.w3.org/2000/svg" viewBox="0 0 448 448" id="catalog">
        <path fill="currentColor" d="M45.253 359.399c-23.287 0-42.165 18.877-42.165 42.164 0 23.286 18.878 42.165 42.165 42.165s42.165-18.879 42.165-42.165c0-23.288-18.878-42.164-42.165-42.164zM213.912 359.399c-23.287 0-42.165 18.877-42.165 42.164 0 23.286 18.878 42.165 42.165 42.165s42.164-18.879 42.164-42.165c0-23.288-18.878-42.164-42.164-42.164zM382.571 359.399c-23.288 0-42.164 18.877-42.164 42.164 0 23.286 18.877 42.165 42.164 42.165 23.286 0 42.165-18.879 42.165-42.165 0-23.288-18.879-42.164-42.165-42.164zM45.253 190.739c-23.287 0-42.165 18.878-42.165 42.165s18.878 42.165 42.165 42.165c23.287 0 42.165-18.878 42.165-42.165s-18.878-42.165-42.165-42.165zM213.912 190.739c-23.287 0-42.165 18.878-42.165 42.165s18.878 42.165 42.165 42.165c23.287 0 42.164-18.878 42.164-42.165s-18.878-42.165-42.164-42.165zM382.571 190.739c-23.288 0-42.164 18.878-42.164 42.165s18.877 42.165 42.164 42.165c23.286 0 42.165-18.878 42.165-42.165s-18.879-42.165-42.165-42.165zM45.253 22.081c-23.287 0-42.165 18.878-42.165 42.165s18.878 42.165 42.165 42.165c23.287 0 42.165-18.878 42.165-42.165s-18.878-42.165-42.165-42.165zM213.912 22.081c-23.287 0-42.165 18.878-42.165 42.165s18.878 42.165 42.165 42.165c23.287 0 42.164-18.878 42.164-42.165s-18.878-42.165-42.164-42.165zM382.571 22.081c-23.288 0-42.164 18.878-42.164 42.165s18.877 42.165 42.164 42.165c23.286 0 42.165-18.878 42.165-42.165s-18.879-42.165-42.165-42.165z"></path>
    </symbol>
    <symbol version="1.1" xmlns="http://www.w3.org/2000/svg" viewBox="0 0 448 448" id="cup">
        <path fill="currentColor" d="M340.406 22.081c12.333 0 22.034 10.542 21.009 22.833l-1.613 19.331h43.851c11.643 0 21.082 9.439 21.082 21.082v84.329c0 46.361-37.411 83.984-83.692 84.327-10.162 37.542-32.443 71.032-63.885 95.15l-0.021 52.429h84.35c11.643 0 21.082 9.44 21.082 21.082s-9.44 21.082-21.082 21.082h-295.153c-11.644 0-21.082-9.44-21.082-21.082s9.439-21.082 21.082-21.082h84.308l0.021-52.411-4.913-3.895c-28.754-23.62-49.322-55.581-58.987-91.274-44.84-0.352-81.331-35.664-83.568-80.008l-0.109-4.319v-84.329c0-10.812 8.139-19.723 18.623-20.941l2.459-0.142h43.83l-1.593-19.331c-1.024-12.292 8.676-22.833 21.010-22.833h252.988zM317.421 64.3h-207.165l12.867 154.404c3.454 41.448 25.638 79.055 60.245 102.124 5.865 3.911 9.388 10.494 9.388 17.543v63.247h42.165v-63.247c0-6.907 3.384-13.377 9.057-17.317l4.592-3.186c32.209-23.286 52.678-59.504 55.983-99.165l12.868-154.404zM71.302 106.52h-26.269v63.247c0 20.852 15.136 38.168 35.020 41.562l-8.752-104.809zM382.452 169.767v-63.247h-26.29l-8.728 104.809c19.884-3.394 35.018-20.71 35.018-41.562z"></path>
    </symbol>
    <symbol version="1.1" xmlns="http://www.w3.org/2000/svg" viewBox="0 0 448 448" id="loop">
        <path fill="currentColor" d="M192.829 22.081c104.79 0 189.742 84.95 189.742 189.741 0 44.795-15.525 85.966-41.485 118.422l77.475 77.493c8.233 8.233 8.233 21.583 0 29.816-7.6 7.6-19.559 8.183-27.829 1.753l-1.987-1.753-77.494-77.475c-32.456 25.96-73.627 41.485-118.422 41.485-104.791 0-189.741-84.951-189.741-189.742s84.95-189.741 189.741-189.741zM192.829 64.246c-81.504 0-147.577 66.073-147.577 147.577s66.072 147.577 147.577 147.577 147.577-66.072 147.577-147.577c0-81.504-66.072-147.577-147.577-147.577z"></path>
    </symbol>

    <symbol version="1.1" xmlns="http://www.w3.org/2000/svg" viewBox="0 0 728 448" id="arrow">
        <path fill="currentColor" d="M694.31 74.694c0 9.557-3.657 19.114-10.937 26.394l-298.662 298.662c-14.598 14.598-38.192 14.598-52.789 0l-298.662-298.662c-14.597-14.597-14.597-38.192 0-52.788s38.192-14.597 52.789 0l272.268 272.268 272.271-272.268c14.594-14.597 38.186-14.597 52.786 0 7.28 7.28 10.937 16.837 10.937 26.394z"></path>
    </symbol>
    <symbol version="1.1" xmlns="http://www.w3.org/2000/svg" viewBox="0 0 476 448" id="phone">
        <path fill="currentColor" d="M180.382 175.438c6.232-4.154 9.975-11.148 9.975-18.638v-89.6c0-37.114-30.086-67.2-67.2-67.2h-89.6c-12.371 0-22.4 10.029-22.4 22.4 0 222.681 202.919 425.6 425.599 425.6 12.373 0 22.4-10.030 22.4-22.4v-89.6c0-37.114-30.086-67.2-67.2-67.2h-89.6c-7.487 0-14.482 3.743-18.637 9.975l-42.68 64.021c-46.485-30.058-87.211-69.758-118.538-115.459l-6.139-9.219 64.020-42.68zM314.429 313.6h77.61c12.37 0 22.4 10.030 22.4 22.4v66.424c-43.394-3.004-85.744-14.61-125.244-33.012l-9.064-4.368 34.297-51.444zM279.956 89.6c-12.371 0-22.4 10.029-22.4 22.4s10.029 22.4 22.4 22.4c23.617 0 42.968 18.276 44.676 41.457l0.274 5.956c1.294 11.141 10.763 19.788 22.249 19.788 12.373 0 22.4-10.029 22.4-22.4 0-49.485-40.116-89.6-89.599-89.6zM279.956 0c-12.371 0-22.4 10.029-22.4 22.4s10.029 22.4 22.4 22.4c74.227 0 134.399 60.173 134.399 134.4 0 12.371 10.030 22.4 22.4 22.4 12.373 0 22.4-10.029 22.4-22.4 0-98.97-80.228-179.2-179.199-179.2zM123.080 44.8c12.371 0 22.4 10.029 22.4 22.4v77.612l-51.444 34.297c-20.934-42.055-34.145-87.576-37.379-134.308h66.423z"></path>
    </symbol>
    <symbol version="1.1" xmlns="http://www.w3.org/2000/svg" viewBox="0 0 420 448" id="pin">
        <path fill="currentColor" d="M201.6 0c111.339 0 201.6 89.28 201.6 199.413 0 72.878-60.981 149.932-180.359 233.873l-21.241 14.714-12.817-8.845c-124.933-86.223-188.783-165.168-188.783-239.742 0-110.133 90.259-199.413 201.6-199.413zM201.6 44.319c-86.598 0-156.8 69.44-156.8 155.099 0 53.816 51.447 119.483 156.8 194.419 105.353-74.936 156.8-140.603 156.8-194.419 0-85.659-70.202-155.099-156.8-155.099zM201.6 89.6c49.485 0 89.6 40.115 89.6 89.6s-40.115 89.6-89.6 89.6c-49.485 0-89.6-40.115-89.6-89.6s40.115-89.6 89.6-89.6zM201.6 134.4c-24.742 0-44.8 20.058-44.8 44.8s20.058 44.8 44.8 44.8c24.742 0 44.8-20.058 44.8-44.8s-20.058-44.8-44.8-44.8z"></path>
    </symbol>
    <symbol version="1.1" xmlns="http://www.w3.org/2000/svg" viewBox="0 0 427 448" id="pin-big">
        <path fill="currentColor" d="M140.73 167.967c0-47.765 36.684-86.486 81.934-86.486 45.252 0 81.935 38.721 81.935 86.486s-36.683 86.486-81.935 86.486c-45.251 0-81.934-38.72-81.934-86.486zM222.665 116.075c-27.15 0-49.161 23.233-49.161 51.892s22.010 51.892 49.161 51.892c27.151 0 49.161-23.233 49.161-51.892s-22.010-51.892-49.161-51.892z"></path>
        <path fill="currentColor" d="M79.692 147.839c5.981-76.598 66.622-135.547 139.433-135.547h7.078c72.813 0 133.453 58.95 139.435 135.547 3.204 41.059-8.811 81.827-33.517 113.721l-78.543 101.393c-15.977 20.627-45.85 20.627-61.828 0l-78.543-101.393c-24.706-31.893-36.721-72.662-33.515-113.721zM219.125 46.886c-55.755 0-102.189 45.14-106.77 103.795-2.509 32.126 6.892 64.026 26.224 88.98l78.543 101.393c2.865 3.699 8.22 3.699 11.085 0l78.543-101.393c19.332-24.954 28.734-56.854 26.225-88.98-4.58-58.654-51.016-103.795-106.771-103.795h-7.078z"></path>
        <path fill="currentColor" d="M128.076 337.144c4.048-8.544 0.767-18.933-7.329-23.206-8.095-4.271-17.938-0.808-21.985 7.735l-43.698 92.254c-2.54 5.361-2.268 11.729 0.717 16.828 2.986 5.101 8.26 8.205 13.94 8.205h305.889c5.679 0 10.952-3.104 13.939-8.205 2.987-5.099 3.258-11.467 0.717-16.828l-43.697-92.254c-4.049-8.544-13.892-12.006-21.986-7.735-8.094 4.273-11.375 14.662-7.328 23.206l31.84 67.219h-252.86l31.841-67.219z"></path>
    </symbol>
    <symbol version="1.1" xmlns="http://www.w3.org/2000/svg" viewBox="0 0 448 448" id="wa">
        <path fill="currentColor"  d="M2.127 433.783c-1.739 6.311 4.010 12.138 10.345 10.483l97.927-25.578c30.912 16.745 65.714 25.639 101.148 25.639h0.105c116.602 0 211.651-94.496 211.651-210.658 0-56.301-21.978-109.255-61.929-149.022-39.954-39.766-93.052-61.742-149.724-61.742-116.6 0-211.649 94.498-211.649 210.66-0.013 36.954 9.741 73.26 28.283 105.277l-26.156 94.942z"></path>
        <path fill="#f9fafb" d="M150.501 129.281c3.889 0.104 8.2 0.315 12.302 9.419 2.72 6.062 7.302 17.22 11.035 26.31 2.905 7.074 5.295 12.894 5.893 14.085 1.367 2.721 2.208 5.86 0.421 9.522-0.211 0.432-0.41 0.845-0.602 1.243-1.434 2.976-2.454 5.093-4.865 7.862-0.992 1.138-2.024 2.386-3.053 3.629-1.809 2.187-3.608 4.36-5.149 5.894-2.733 2.719-5.573 5.651-2.419 11.092 3.156 5.441 14.196 23.337 30.493 37.779 17.521 15.598 32.756 22.173 40.457 25.494 1.495 0.646 2.706 1.17 3.595 1.61 5.468 2.722 8.727 2.303 11.881-1.36 3.156-3.663 13.67-15.907 17.348-21.349 3.576-5.441 7.255-4.604 12.304-2.721 5.044 1.883 31.961 15.070 37.426 17.789 1.083 0.538 2.093 1.022 3.031 1.473 3.803 1.823 6.388 3.062 7.484 4.912 1.368 2.301 1.368 13.184-3.152 25.952-4.627 12.768-26.917 25.011-37.010 25.953-0.957 0.090-1.908 0.206-2.886 0.324-9.25 1.12-20.993 2.541-62.829-13.927-51.55-20.273-85.579-70.568-92.459-80.737-0.543-0.803-0.917-1.355-1.117-1.623l-0.116-0.156c-3.13-4.188-22.279-29.811-22.279-56.248 0-25.293 12.46-38.462 18.143-44.468 0.36-0.381 0.693-0.733 0.994-1.057 5.046-5.441 10.935-6.801 14.614-6.801 3.681 0 7.361 0 10.514 0.105z"></path>
    </symbol>
    <symbol version="1.1" xmlns="http://www.w3.org/2000/svg" viewBox="0 0 627 448" id="yt">
        <path fill="currentColor" d="M594.263 92.572c-6.553-26.208-27.301-46.957-52.416-53.509-46.96-13.104-232.602-13.104-232.602-13.104s-186.735 0-233.691 13.104c-25.116 6.552-45.865 27.3-52.417 53.509-13.104 45.865-13.104 144.146-13.104 144.146s0 97.189 13.104 144.145c6.552 26.211 27.3 45.866 52.417 52.419 46.957 12.012 233.691 12.012 233.691 12.012s185.642 0 232.602-12.012c25.115-6.553 45.863-26.208 52.416-52.419 13.103-46.956 13.103-144.145 13.103-144.145s0-98.281-13.103-144.146zM248.093 325.171v-176.906l155.065 88.453-155.065 88.453z"></path>
    </symbol>
    <symbol version="1.1" xmlns="http://www.w3.org/2000/svg" viewBox="0 0 532 448" id="tg">
        <path fill="currentColor"  d="M445.096 421.417c-5.692 25.357-20.698 31.567-41.916 19.664l-115.914-85.383-55.888 53.819c-6.209 6.208-11.385 11.385-23.286 11.385l8.28-117.986 214.753-194.054c9.316-8.28-2.069-12.937-14.49-4.657l-265.465 167.145-114.363-35.706c-24.839-7.762-25.356-24.839 5.175-36.741l447.1-172.32c20.7-7.762 38.811 4.657 32.085 36.224l-76.070 358.611z"></path>
    </symbol>
    <symbol version="1.1" xmlns="http://www.w3.org/2000/svg" viewBox="0 0 747 448" id="vk">
        <path fill="currentColor"  d="M745.618 60.4c5.962 15.069-13.477 49.681-58.311 103.835-6.22 7.535-14.646 17.542-25.271 30.020-10.364 12.008-17.494 20.485-21.381 25.429s-7.903 10.831-12.051 17.659c-3.886 6.593-5.443 11.537-4.663 14.833 1.034 3.061 2.722 7.063 5.051 12.008 2.595 4.945 6.869 10.006 12.831 15.187 5.958 5.18 13.347 11.42 22.157 18.719 1.038 0.471 1.684 0.942 1.945 1.413 36.542 30.845 61.29 56.862 74.249 78.052 0.777 1.18 1.557 2.71 2.333 4.592 1.038 1.65 1.945 4.708 2.722 9.184 1.038 4.473 1.038 8.475 0 12.006s-4.278 6.828-9.718 9.89c-5.443 2.826-13.089 4.237-22.938 4.237l-99.519 1.415c-6.22 1.176-13.477 0.586-21.769-1.766-8.295-2.356-15.030-4.947-20.216-7.773l-7.773-4.237c-7.777-4.943-16.849-12.477-27.212-22.602-10.367-10.126-19.309-19.191-26.824-27.196-7.258-8.241-15.161-15.069-23.714-20.485-8.295-5.651-15.549-7.535-21.769-5.651-0.78 0.235-1.814 0.707-3.11 1.413-1.299 0.471-3.502 2.119-6.612 4.945s-5.958 6.357-8.549 10.595c-2.333 4.003-4.536 10.125-6.612 18.365-1.814 8.005-2.591 17.069-2.33 27.194 0 3.532-0.519 6.828-1.557 9.89-0.777 2.826-1.684 4.947-2.722 6.358l-1.553 1.766c-4.667 4.473-11.532 7.063-20.604 7.769h-44.707c-18.4 0.945-37.32-0.941-56.757-5.649-19.437-4.947-36.542-11.185-51.315-18.719-14.513-7.773-27.86-15.542-40.041-23.311-11.921-8.005-20.993-14.833-27.212-20.485l-9.719-8.477c-2.591-2.355-6.22-5.887-10.885-10.595-4.406-4.709-13.606-15.422-27.601-32.14s-27.731-34.494-41.207-53.331c-13.476-18.836-29.415-43.677-47.816-74.521-18.141-30.845-34.987-62.867-50.537-96.065-1.555-3.767-2.332-6.946-2.332-9.536s0.389-4.473 1.166-5.651l1.555-2.119c3.888-4.473 11.273-6.711 22.159-6.711l106.517-0.707c3.11 0.471 6.090 1.295 8.941 2.472 2.851 0.942 4.924 1.884 6.22 2.826l1.944 1.060c4.147 2.59 7.256 6.357 9.33 11.301 5.184 11.773 11.144 24.017 17.882 36.731 6.738 12.479 12.051 22.015 15.939 28.607l6.22 10.242c7.516 14.127 14.773 26.371 21.77 36.731s13.217 18.484 18.659 24.37c5.702 5.651 11.144 10.125 16.328 13.421s9.589 4.945 13.217 4.945c3.629 0 7.127-0.589 10.496-1.766 0.518-0.235 1.166-0.824 1.943-1.766s2.333-3.532 4.665-7.77c2.333-4.238 4.017-9.771 5.054-16.6 1.295-6.828 2.591-16.364 3.887-28.608s1.296-26.96 0-44.147c-0.518-9.419-1.684-18.012-3.499-25.782s-3.629-13.185-5.443-16.247l-2.333-4.238c-6.479-8.005-17.493-13.068-33.044-15.187-3.369-0.471-2.721-3.297 1.943-8.477 4.147-4.473 9.071-8.005 14.773-10.595 13.736-6.122 44.706-8.947 92.911-8.477 21.25 0.235 38.745 1.766 52.479 4.591 5.186 1.177 9.46 2.826 12.831 4.945 3.625 1.883 6.347 4.709 8.161 8.476 1.814 3.532 3.11 7.299 3.89 11.302 1.034 3.767 1.553 9.065 1.553 15.893s-0.131 13.303-0.388 19.425c-0.258 6.122-0.65 14.48-1.165 25.076-0.261 10.36-0.392 20.013-0.392 28.961 0 2.59-0.127 7.534-0.388 14.833-0.258 7.299-0.388 12.95-0.388 16.953 0.261 4.003 0.777 8.829 1.557 14.48 0.777 5.415 2.203 10.007 4.275 13.774 2.333 3.532 5.313 6.357 8.941 8.477 2.072 0.471 4.278 0.942 6.608 1.413 2.333 0.471 5.705-0.824 10.11-3.885s9.33-7.064 14.773-12.008c5.439-5.18 12.178-13.068 20.212-23.664 8.034-10.831 16.845-23.545 26.436-38.143 15.549-24.487 29.415-50.976 41.597-79.466 1.034-2.355 2.333-4.356 3.886-6.004 1.557-1.884 2.979-3.178 4.275-3.885l1.557-1.060c0.519-0.235 1.165-0.471 1.945-0.707 0.777-0.471 2.46-0.824 5.051-1.060 2.591-0.471 5.186-0.588 7.777-0.353l111.959-0.707c10.106-1.177 18.402-0.824 24.879 1.060 6.481 1.648 10.498 3.532 12.051 5.651l2.333 3.532z"></path>
    </symbol>
    <symbol version="1.1" xmlns="http://www.w3.org/2000/svg" viewBox="0 0 551 448" id="eye">
        <path  fill="currentColor" d="M370.427 213.716c0-52.401-42.486-94.886-94.887-94.886s-94.886 42.485-94.886 94.886c0 52.401 42.485 94.886 94.886 94.886s94.887-42.486 94.887-94.886zM322.983 213.716c0 26.212-21.231 47.443-47.443 47.443-26.188 0-47.443-21.231-47.443-47.443s21.255-47.443 47.443-47.443c26.212 0 47.443 21.231 47.443 47.443z"></path>
        <path  fill="currentColor" d="M275.692 0.242c-132.627 0-244.095 90.711-275.692 213.494 31.597 122.783 143.065 213.494 275.692 213.494 132.65 0 244.094-90.711 275.692-213.494-31.598-122.783-143.043-213.494-275.692-213.494zM275.692 379.787c-106.154 0-196.154-69.789-226.376-166.051 30.221-96.262 120.222-166.051 226.376-166.051 106.18 0 196.155 69.789 226.374 166.051-30.219 96.262-120.195 166.051-226.374 166.051z"></path>
    </symbol>
    <symbol version="1.1" xmlns="http://www.w3.org/2000/svg" viewBox="0 0 422 448" id="comments">
        <path  fill="currentColor" d="M358.4 5.327c33.624 0 61.213 26.386 63.139 59.537l0.108 3.71v210.822c0 33.626-26.387 61.213-59.537 63.142l-3.71 0.105h-73.788l-56.922 75.897c-3.985 5.313-10.225 8.433-16.866 8.433-5.811 0-11.315-2.387-15.27-6.543l-1.596-1.89-56.922-75.897h-73.788c-33.625 0-61.212-26.385-63.14-59.537l-0.108-3.71v-210.822c0-33.625 26.386-61.212 59.537-63.14l3.71-0.108h295.153zM358.4 47.492h-295.153c-10.787 0-19.719 8.162-20.94 18.629l-0.142 2.454v210.822c0 10.789 8.162 19.72 18.629 20.943l2.454 0.14h84.329c5.811 0 11.315 2.39 15.27 6.546l1.596 1.887 46.381 61.834 46.381-61.834c3.486-4.649 8.699-7.619 14.397-8.288l2.469-0.145h84.329c10.786 0 19.72-8.162 20.94-18.626l0.142-2.456v-210.822c0-10.787-8.162-19.719-18.629-20.94l-2.453-0.142zM316.236 195.069l-213.281 0.142c-10.481 1.218-18.625 10.134-18.625 20.94 0 11.638 9.445 21.082 21.082 21.082l213.282-0.142c10.481-1.218 18.623-10.134 18.623-20.94 0-11.638-9.445-21.082-21.082-21.082zM316.236 110.739l-213.281 0.142c-10.481 1.218-18.625 10.134-18.625 20.94 0 11.638 9.445 21.082 21.082 21.082l213.282-0.142c10.481-1.218 18.623-10.134 18.623-20.94 0-11.638-9.445-21.082-21.082-21.082z"></path>
    </symbol>
    <symbol version="1.1" xmlns="http://www.w3.org/2000/svg" viewBox="0 0 448 448" id="cart">
        <path  fill="currentColor" d="M151.631 357.084c-17.129 0-31.015 13.888-31.015 31.015 0 17.131 13.886 31.015 31.015 31.015s31.015-13.885 31.015-31.015c0-17.127-13.886-31.015-31.015-31.015zM337.804 357.084c-17.129 0-31.015 13.888-31.015 31.015 0 17.131 13.886 31.015 31.015 31.015s31.014-13.885 31.014-31.015c0-17.127-13.885-31.015-31.014-31.015zM37.908 5.586h41.354c9.42 0 17.54 6.345 19.954 15.254l0.482 2.278 10.027 65.175h300.367c12.403 0 21.814 10.766 20.577 22.752l-0.393 2.411-34.158 153.709c-6.031 27.147-29.327 46.803-56.784 48.461l-3.769 0.113h-179.472c-29.392 0-54.564-20.587-60.649-49.007l-0.66-3.592-33.261-216.202h-23.615c-11.42 0-20.677-9.258-20.677-20.677 0-10.604 7.982-19.343 18.266-20.538l2.411-0.139zM384.401 129.643h-268.228l19.57 127.206c1.432 9.311 8.938 16.372 18.111 17.403l2.325 0.13h179.472c8.883 0 16.676-5.656 19.53-13.885l0.655-2.306 28.565-128.547z"></path>
    </symbol>
    <symbol version="1.1" xmlns="http://www.w3.org/2000/svg" viewBox="0 0 358 448" id="refresh">
        <path fill="currentColor" d="M22.022 201.603c-12.369 0.209-22.228 10.405-22.019 22.775l0.091 5.39 0.279 5.667c6.097 94.055 84.046 167.765 178.827 167.765 4.587 0 9.153-0.172 13.69-0.515l-7.129 7.076c-8.748 8.747-8.748 22.931 0 31.678s22.931 8.747 31.679 0l44.8-44.8c8.747-8.747 8.747-22.931 0-31.678l-44.8-44.8c-8.748-8.747-22.931-8.747-31.679 0s-8.748 22.931 0 31.678l5.91 5.992c-4.123 0.378-8.283 0.569-12.471 0.569-72.503 0-131.881-57.519-134.322-129.766l-0.081-5.012-0.195-2.61c-1.482-11.117-11.094-19.603-22.58-19.41zM172.639 6.561c-8.748-8.748-22.931-8.748-31.679 0l-44.8 44.8-1.863 2.11c-6.833 8.787-6.212 21.493 1.863 29.568l44.8 44.8 2.11 1.863c8.787 6.832 21.494 6.211 29.568-1.863 8.748-8.748 8.748-22.931 0-31.679l-5.917-5.991c4.126-0.379 8.288-0.57 12.478-0.57 74.227 0 134.4 60.173 134.4 134.4 0 12.372 10.028 22.4 22.4 22.4s22.4-10.028 22.4-22.4c0-98.969-80.23-179.2-179.2-179.2-4.585 0-9.148 0.173-13.682 0.516l7.122-7.077 1.863-2.11c6.832-8.787 6.211-21.494-1.863-29.568z"></path>
    </symbol>
    <symbol version="1.1" xmlns="http://www.w3.org/2000/svg" viewBox="0 0 269 448" id="arrow-slider">
        <path fill="currentColor"  d="M217.814 8.719l-190.070 190.071c-11.664 11.663-11.664 30.574 0 42.238l190.070 190.072c11.664 11.663 30.574 11.663 42.238 0 11.663-11.666 11.663-30.575 0-42.241l-168.952-168.95 168.952-168.951c11.663-11.663 11.663-30.574 0-42.238s-30.574-11.664-42.238 0z"></path>
    </symbol>
    <symbol version="1.1" xmlns="http://www.w3.org/2000/svg" viewBox="0 0 448 448" id="person">
        <path fill="currentColor" d="M120.614 306.711v0l-4.485 0.097c-55.017 2.349-98.899 47.693-98.899 103.288 0 11.419 9.257 20.677 20.677 20.677s20.677-9.258 20.677-20.677c0-34.258 27.772-62.031 62.030-62.031l210.411 0.105c31.357 1.818 56.463 26.925 58.28 58.28l0.245 6.057c1.194 10.283 9.933 18.267 20.538 18.267 11.421 0 20.677-9.258 20.677-20.677 0-57.098-46.287-103.385-103.383-103.385h-206.767zM224.124 17.231c68.516 0 124.060 55.544 124.060 124.060s-55.543 124.060-124.060 124.060c-68.516 0-124.060-55.543-124.060-124.060s55.544-124.060 124.060-124.060zM223.864 58.567c-45.677 0-82.706 37.029-82.706 82.707s37.029 82.706 82.706 82.706c45.679 0 82.708-37.029 82.708-82.706s-37.029-82.707-82.708-82.707z"></path>
        <path fill="currentColor" d="M389.55 412.506l-4.304 0.174 0.007 0.162 0.019 0.162 4.278-0.498zM389.305 406.45l4.306-0.172-0.005-0.076-4.301 0.248zM331.026 348.17l0.25-4.302-0.126-0.004-0.124 4.306zM327.381 348.065l0.124-4.308h-0.124v4.308zM116.13 306.808l-0.092-4.308-0.092 0.004 0.184 4.304zM120.614 306.711v-4.308l-0.092 0.002 0.092 4.306zM120.614 311.019h206.767v-8.615h-206.767v8.615zM327.381 311.019c54.718 0 99.075 44.359 99.075 99.077h8.615c0-59.477-48.215-107.692-107.691-107.692v8.615zM426.456 410.096c0 9.039-7.328 16.369-16.369 16.369v8.615c13.798 0 24.985-11.186 24.985-24.985h-8.615zM410.087 426.465c-8.391 0-15.313-6.318-16.259-14.455l-8.557 0.994c1.444 12.428 11.999 22.076 24.816 22.076v-8.615zM393.854 412.332l-0.245-6.055-8.609 0.346 0.245 6.057 8.609-0.348zM393.606 406.202c-1.944-33.54-28.793-60.389-62.331-62.332l-0.5 8.602c29.173 1.69 52.538 25.055 54.229 54.229l8.602-0.498zM331.149 343.864l-3.644-0.105-0.248 8.612 3.644 0.105 0.248-8.612zM327.381 343.757h-206.767v8.615h206.767v-8.615zM120.614 343.757c-36.638 0-66.338 29.701-66.338 66.339h8.615c0-31.88 25.843-57.723 57.722-57.723v-8.615zM54.276 410.096c0 9.039-7.329 16.369-16.369 16.369v8.615c13.798 0 24.984-11.186 24.984-24.985h-8.615zM37.908 426.465c-9.041 0-16.369-7.33-16.369-16.369h-8.615c0 13.798 11.186 24.985 24.984 24.985v-8.615zM21.539 410.096c0-53.277 42.054-96.735 94.775-98.984l-0.367-8.609c-57.312 2.447-103.023 49.68-103.023 107.592h8.615zM116.221 311.114l4.484-0.095-0.183-8.613-4.484 0.095 0.183 8.613zM120.614 311.019h206.767v-8.615h-206.767v8.615zM327.381 302.404h-206.767v8.615h206.767v-8.615zM224.124 21.539c66.137 0 119.752 53.615 119.752 119.753h8.615c0-70.896-57.471-128.368-128.367-128.368v8.615zM343.876 141.291c0 66.137-53.615 119.752-119.752 119.752v8.615c70.896 0 128.367-57.471 128.367-128.367h-8.615zM224.124 261.043c-66.137 0-119.752-53.615-119.752-119.752h-8.615c0 70.896 57.472 128.367 128.367 128.367v-8.615zM104.372 141.291c0-66.137 53.615-119.753 119.752-119.753v-8.615c-70.895 0-128.367 57.472-128.367 128.368h8.615zM223.864 54.259c-48.057 0-87.013 38.958-87.013 87.014h8.615c0-43.299 35.101-78.399 78.398-78.399v-8.615zM136.85 141.274c0 48.057 38.957 87.013 87.013 87.013v-8.615c-43.298 0-78.398-35.099-78.398-78.398h-8.615zM223.864 228.287c48.057 0 87.015-38.957 87.015-87.014h-8.615c0 43.299-35.101 78.398-78.4 78.398v8.615zM310.879 141.274c0-48.057-38.959-87.014-87.015-87.014v8.615c43.299 0 78.4 35.101 78.4 78.399h8.615z"></path>
    </symbol>
</svg>