<svg width="0" height="0" class="hidden">
    <symbol version="1.1" xmlns="http://www.w3.org/2000/svg" viewBox="0 0 512 512" id="vk">
        <path fill="currentColor" d="M236.1 184.401c-4.673 0.348-10.6 1.275-12.971 2.030-4.071 1.296-9.144 5.916-8.207 7.473 0.172 0.286 1.117 0.674 2.098 0.86 4.406 0.839 8.123 3.404 9.79 6.752 2.846 5.726 4.127 23.633 2.596 36.309-1.012 8.381-1.441 10.322-2.941 13.361-4.028 8.15-13.275 1.552-23.467-16.743-3.627-6.51-13.834-27.404-16.112-32.979-2.754-6.739-3.625-7.979-6.755-9.613l-2.642-1.379-19.938 0.147c-18.004 0.133-20.088 0.232-21.494 1.020-2.229 1.25-3.181 2.956-2.887 5.174 0.315 2.376 7.877 19.615 13.449 30.663 10.85 21.508 20.037 37.127 29.86 50.754 14.447 20.043 20.839 26.546 35.599 36.219 6.892 4.517 11.866 7.043 18.015 9.151 8.449 2.897 12.127 3.454 24.741 3.75 12.554 0.295 16.161-0.077 18.821-1.938 2.19-1.533 2.868-3.647 3.277-10.224 0.404-6.49 1.639-12.055 3.338-15.028 1.498-2.623 4.755-5.651 6.153-5.723 4.875-0.246 7.606 1.832 17.792 13.545 9.551 10.981 13.081 14.212 18.357 16.803 2.377 1.168 5.296 2.353 6.485 2.632 2.882 0.678 41.791-0.084 44.305-0.868 2.486-0.776 5.166-3.473 5.226-5.26 0.168-4.892-0.526-7.096-3.863-12.264-4.386-6.792-8.153-11.13-20.978-24.153-13.619-13.83-14.57-15.116-14.59-19.743-0.017-3.883 1.753-6.868 13.711-23.115 16.868-22.919 23.62-33.989 25.498-41.794 1.102-4.577 0.475-6.786-2.368-8.345l-2.022-1.108-24.26 0.165c-17.15 0.117-24.608 0.334-25.445 0.739-1.628 0.79-3.353 3.666-5.517 9.197-5.762 14.732-17.627 35.956-25.445 45.518-3.111 3.805-7.946 7.7-9.56 7.7-2.252 0-4.108-1.491-5.517-4.431l-1.3-2.714 0.132-25.584c0.142-27.513 0.081-28.325-2.401-31.958-2.445-3.578-8.407-4.804-24.393-5.019-6.472-0.088-12.85-0.079-14.172 0.020z"></path>
    </symbol>
    <symbol version="1.1" xmlns="http://www.w3.org/2000/svg" viewBox="0 0 512 512" id="pic">
        <path fill="currentColor" d="M253.365 163.877c-0.9-0.049-1.751-0.049-2.569 0-3.289 0.246-6.005 1.554-7.788 3.304-1.277 1.26-1.981 2.618-2.471 3.892 0.099-0.278 0.131-0.507 0.278-0.785-10.194-2.012-17.918-2.16-18.327-2.16-47.88 0-58.648 24.81-58.648 33.495 0 55.066 92.765 108.856 146.553 108.856h0.164c1.849 0 16.936-0.327 27.523-10.745 6.693-6.591 10.081-15.651 10.081-27.001-0.017-1.341-0.752-33.118-25.315-57.65 0.049 0.802 0.099 1.586 0.131 2.371-0.279-17.451-8.428-29.275-18.639-36.078-9.966-6.607-21.42-8.732-30.289-8.897-5.809-4.056-11.34-6.395-11.421-6.411-3.551-1.309-6.594-2.028-9.262-2.191zM251.418 172.233c1.62-0.114 4.352 0.196 8.361 1.685 0.049 0.033 0.099 0.049 0.147 0.065 0 0 4.714 1.537 10.277 5.822 0.736 0.572 1.637 0.882 2.553 0.882 7.592 0 18.441 2.029 26.95 7.671 8.493 5.642 14.94 14.489 14.94 30.011 0 0.017 0 0.049 0 0.065 0.033 1.21-0.115 1.783-0.884 2.437-0.769 0.671-2.832 1.685-7.495 1.685-12.764 0-21.943-6.117-28.276-14.033s-9.425-17.826-9.425-23.386c0.033-1.522-0.769-2.928-2.063-3.68-1.308-0.769-2.928-0.769-4.238 0-1.293 0.752-2.094 2.159-2.077 3.68 0 2.518 1.015 5.544 1.702 8.439-9.065-4.825-12.273-9.519-13.452-12.659-0.589-1.57-0.687-2.813-0.687-3.631 0.017-0.801 0.065-0.85 0.065-0.85 0.131-0.409 0.196-0.851 0.196-1.276 0 0 0.099-1.276 0.851-2.028 0.392-0.361 0.917-0.786 2.553-0.9zM239.637 174.671c0 0.049 0.017 0.049 0 0.099 0 0.065 0 0.049-0.017 0.131 0.017-0.065 0.017-0.164 0.017-0.23zM239.603 174.998c-0.065 0.41-0.131 0.999-0.164 1.571 0.033-0.638 0.099-1.161 0.164-1.571zM239.44 177.909c0.017 0.426 0.049 0.868 0.099 1.341-0.049-0.49-0.082-0.916-0.099-1.341zM239.784 180.837c0.114 0.589 0.31 1.21 0.507 1.849-0.196-0.638-0.392-1.26-0.507-1.849zM241.011 184.844c0.099 0.196 0.18 0.392 0.262 0.589-0.082-0.196-0.164-0.392-0.262-0.589zM241.731 186.347c0.246 0.442 0.492 0.9 0.786 1.358-0.294-0.458-0.54-0.916-0.786-1.358zM242.844 188.245c0.393 0.589 0.818 1.194 1.292 1.799-0.474-0.605-0.899-1.21-1.292-1.799zM244.3 190.274c0.541 0.686 1.146 1.373 1.8 2.060-0.655-0.687-1.26-1.374-1.8-2.060zM246.182 192.432c0.703 0.719 1.456 1.455 2.291 2.191 0.851 0.737 1.768 1.471 2.766 2.208 0.999 0.72 2.061 1.455 3.224 2.175 1.161 0.703 2.389 1.423 3.714 2.109h0.017c0 0.017 0.017 0.017 0.017 0.033 0 0 0.393 0.196 0.459 0.23-0.065-0.033-0.459-0.23-0.491-0.246-1.341-0.702-2.553-1.423-3.714-2.126-1.162-0.737-2.225-1.455-3.224-2.175-0.999-0.737-1.915-1.471-2.766-2.208-0.834-0.737-1.587-1.472-2.291-2.191zM262.512 203.308c1.341 0.654 2.766 1.357 4.026 1.897 1.555 2.879 2.733 5.806 4.909 8.537 0.851 1.063 1.751 2.077 2.7 3.075-3.486-3.696-6.398-7.785-8.575-11.988-1.227-0.54-1.815-0.899-3.060-1.52zM274.687 217.389c6.382 6.542 15.005 11.709 25.707 13.133-10.735-1.391-19.277-6.51-25.707-13.133zM323.026 218.321c0 0.017 0 0.033 0 0.049 0.033 2.536-0.639 4.825-1.915 6.738 1.44-2.208 1.947-4.726 1.915-6.787zM320.947 225.288c-0.327 0.458-0.654 0.916-1.064 1.325-0.099 0.097-0.228 0.179-0.343 0.278 0.539-0.507 1.015-1.030 1.407-1.602zM318.247 227.871c-0.376 0.279-0.736 0.572-1.161 0.802 0.425-0.23 0.786-0.524 1.161-0.802zM315.416 229.41c-0.442 0.163-0.834 0.359-1.31 0.507 0.459-0.148 0.868-0.344 1.31-0.507zM311.832 230.407c-0.457 0.082-0.884 0.196-1.374 0.262 0.49-0.065 0.916-0.18 1.374-0.262zM300.95 230.588c1.719 0.212 3.486 0.343 5.319 0.343 0.524 0 0.966-0.065 1.44-0.082-0.49 0.017-0.916 0.082-1.44 0.082-1.833 0-3.601-0.148-5.318-0.343zM168.34 240.826c-2.226 10.499-4.5 25.807-4.5 44.532 0 34.541 60.088 62.802 79.593 62.802 13.648 0 35.656-11.923 56.161-29.912-3.601-0.377-7.298-0.949-11.079-1.685-11.34 9.174-22.942 16.404-32.465 20.214-0.426-4.873 5.317-9.551 5.317-9.551l13.222-13.983c-6.005-1.701-12.109-3.794-18.212-6.199-6.611 8.341-20.194 24.368-26.903 24.368-4.565 0-6.938-2.518-6.987-6.312-0.082-7.72 7.167-20.656 11.831-28.163-5.498-2.895-10.914-6.018-16.167-9.356-4.942 8.325-14.368 22.471-21.486 22.88-1.21 0.065-2.356-0.294-3.404-1.161-9.441-7.899-1.112-27.067 4.058-36.83-3.944-3.271-7.707-6.673-11.258-10.173-3.305 11.154-8.869 27.247-13.32 27.247-0.033 0-0.049-0.017-0.099-0.017-0.261-1.389-0.425-2.764-0.425-4.171 0-13.819 1.325-25.774 2.912-35.13-2.471-3.074-4.729-6.214-6.79-9.404z"></path>
    </symbol>
    <symbol version="1.1" xmlns="http://www.w3.org/2000/svg" viewBox="0 0 877 512" id="vk-decor">
        <path fill="currentColor" d="M367.322 0.287c-16.673 1.244-37.809 4.556-46.267 7.25-14.523 4.627-32.62 21.127-29.273 26.69 0.615 1.023 3.984 2.405 7.485 3.072 15.717 2.997 28.974 12.154 34.916 24.115 10.156 20.448 14.724 84.401 9.26 129.675-3.611 29.927-5.137 36.864-10.49 47.715-14.363 29.108-47.35 5.543-83.704-59.792-12.938-23.25-49.346-97.871-57.471-117.784-9.819-24.066-12.927-28.498-24.091-34.331l-9.423-4.924-71.114 0.524c-64.219 0.474-71.652 0.827-76.668 3.641-7.951 4.463-11.348 10.556-10.296 18.478 1.126 8.488 28.098 70.058 47.974 109.514 38.697 76.816 71.471 132.597 106.507 181.266 51.53 71.582 74.329 94.808 126.975 129.352 24.584 16.132 42.325 25.158 64.26 32.683 30.137 10.344 43.257 12.334 88.251 13.389 44.776 1.055 57.642-0.272 67.13-6.92 7.816-5.477 10.232-13.029 11.691-36.515 1.439-23.18 5.846-43.055 11.904-53.671 5.345-9.368 16.966-20.185 21.946-20.441 17.393-0.877 27.132 6.543 63.465 48.373 34.067 39.214 46.658 50.758 65.478 60.012 8.483 4.17 18.894 8.401 23.133 9.402 10.283 2.42 149.070-0.303 158.029-3.103 8.871-2.774 18.428-12.401 18.645-18.781 0.597-17.47-1.881-25.348-13.782-43.803-15.643-24.258-29.080-39.75-74.826-86.26-48.582-49.392-51.976-53.989-52.042-70.512-0.058-13.872 6.253-24.529 48.904-82.555 60.164-81.855 84.251-121.391 90.95-149.266 3.929-16.347 1.695-24.235-8.444-29.799l-7.215-3.959-86.536 0.591c-61.173 0.417-87.773 1.192-90.756 2.64-5.807 2.817-11.966 13.092-19.681 32.846-20.553 52.614-62.871 128.414-90.76 162.564-11.101 13.591-28.346 27.501-34.102 27.501-8.029 0-14.654-5.327-19.673-15.825l-4.635-9.694 0.47-91.371c0.504-98.258 0.287-101.16-8.568-114.134-8.719-12.778-29.983-17.16-87.005-17.93-23.091-0.314-45.839-0.28-50.552 0.072z"></path>
    </symbol>
    <symbol version="1.1" xmlns="http://www.w3.org/2000/svg" viewBox="0 0 280 512" id="arrow">
        <path fill="currentColor" d="M268.169 284.44l-214.543 227.56-53.626-56.88 187.73-199.12-187.73-199.12 53.626-56.88 214.543 227.56c7.11 7.543 11.104 17.774 11.104 28.44s-3.994 20.897-11.104 28.44z"></path>
    </symbol>
    <symbol version="1.1" xmlns="http://www.w3.org/2000/svg" viewBox="0 0 736 512" id="check">
        <path fill="none" stroke-linejoin="miter" stroke-linecap="butt" stroke-miterlimit="4" stroke-width="96" stroke="currentColor" d="M31.625 198.759l250.435 219.43 389.566-384.002"></path>
    </symbol>
    <symbol version="1.1" xmlns="http://www.w3.org/2000/svg" viewBox="0 0 951 512" id="arrow-down">
        <path fill="currentColor" d="M422.611 491.643l-422.611-393.329 105.635-98.314 369.794 344.171 369.795-344.171 105.633 98.315-422.611 393.328c-14.010 13.035-33.008 20.357-52.817 20.357s-38.808-7.322-52.817-20.357z"></path>
    </symbol>
    <symbol version="1.1" xmlns="http://www.w3.org/2000/svg" viewBox="0 0 512 512" id="max">
        <path fill="currentColor" d="M261.5 510.539c-50.246 0-73.596-7.366-114.185-36.837-25.674 33.154-106.972 59.061-110.517 14.736 0-33.273-7.335-61.392-15.648-92.089-9.902-37.82-21.149-79.933-21.149-140.957 0-145.745 119.076-255.393 260.156-255.393 141.2 0 251.844 115.049 251.844 256.742 0.471 139.501-111.603 253.052-250.5 253.797zM263.579 125.977c-68.707-3.561-122.254 44.203-134.113 119.102-9.781 62.007 7.579 137.519 22.373 141.447 7.090 1.721 24.94-12.769 36.065-23.941 18.396 12.762 39.818 20.429 62.106 22.224 71.191 3.437 132.021-50.995 136.8-122.417 2.786-71.574-52.029-132.196-123.23-136.292v-0.123z"></path>
    </symbol>
    <symbol version="1.1" xmlns="http://www.w3.org/2000/svg" viewBox="0 0 698 512" id="mail">
        <path fill="currentColor" d="M692.033 36.581l-211.745 219.418 211.745 219.417c3.826-8.341 6.149-17.567 6.149-27.417v-383.998c0-9.852-2.322-19.075-6.149-27.419z"></path>
        <path fill="currentColor" d="M636.807 0h-575.45c-9.446 0-18.289 2.422-26.29 6.414l270.628 280.835c23.929 24.957 62.841 24.957 86.77 0l270.63-280.835c-8.001-3.992-16.845-6.414-26.289-6.414z"></path>
        <path fill="currentColor" d="M6.15 36.581c-3.828 8.344-6.15 17.567-6.15 27.419v383.998c0 9.851 2.322 19.076 6.15 27.417l211.742-219.417-211.742-219.418z"></path>
        <path fill="currentColor" d="M451.353 286.168l-29.962 31.25c-39.871 41.584-104.748 41.584-144.619 0l-29.962-31.25-211.742 219.418c8.001 3.993 16.843 6.414 26.29 6.414h575.45c9.444 0 18.288-2.421 26.289-6.414l-211.743-219.418z"></path>
    </symbol>
    <symbol version="1.1" xmlns="http://www.w3.org/2000/svg" viewBox="0 0 591 512" id="tg">
        <path fill="currentColor" d="M529.577 3.502c7.263-3.102 15.211-4.171 23.020-3.098s15.194 4.251 21.382 9.201c6.188 4.95 10.957 11.493 13.804 18.948 2.851 7.454 3.678 15.547 2.403 23.436l-66.667 410.228c-6.467 39.57-49.262 62.263-85.036 42.551-29.921-16.49-74.364-41.897-114.339-68.407-19.988-13.269-81.214-55.762-73.689-85.998 6.467-25.853 109.343-123.005 168.131-180.766 23.072-22.692 12.552-35.784-14.699-14.91-67.663 51.827-176.3 130.639-212.219 152.825-31.686 19.562-48.205 22.901-67.957 19.562-36.036-6.084-69.457-15.506-96.733-26.986-36.859-15.506-35.066-66.915-0.029-81.885l502.627-214.7z"></path>
    </symbol>
    <symbol version="1.1" xmlns="http://www.w3.org/2000/svg" viewBox="0 0 512 512" id="phone">
        <path fill="currentColor" d="M376.643 511.928c-36.926-1.361-141.577-15.821-251.177-125.37-109.574-109.577-124.011-214.18-125.396-251.125-2.051-56.301 41.081-110.987 90.906-132.344 6-2.591 12.57-3.576 19.067-2.862s12.695 3.106 17.989 6.939c41.029 29.894 69.34 75.12 93.65 110.68 5.349 7.813 7.636 17.32 6.425 26.71s-5.834 18.006-12.99 24.208l-50.030 37.15c-2.417 1.745-4.119 4.308-4.788 7.213s-0.262 5.953 1.147 8.581c11.334 20.587 31.49 51.25 54.569 74.325s55.21 44.559 77.238 57.173c2.762 1.55 6.013 1.983 9.084 1.211s5.73-2.692 7.43-5.365l32.567-49.558c5.988-7.952 14.82-13.279 24.647-14.865s19.889 0.69 28.075 6.353c36.079 24.971 78.187 52.789 109.009 92.246 4.147 5.33 6.779 11.675 7.633 18.373s-0.106 13.5-2.786 19.699c-21.462 50.072-75.776 92.708-132.268 90.631z"></path>
    </symbol>
    <symbol version="1.1" xmlns="http://www.w3.org/2000/svg" viewBox="0 0 512 512" id="pic-small">
        <path fill="currentColor" d="M249.139 16.096c-2.344-0.128-4.56-0.128-6.69 0-8.565 0.639-15.639 4.046-20.284 8.603-3.324 3.279-5.156 6.814-6.435 10.136 0.256-0.724 0.341-1.321 0.725-2.044-26.548-5.239-46.662-5.622-47.727-5.622-124.688 0-152.726 64.609-152.726 87.225 0 143.4 241.577 283.478 381.647 283.478h0.426c4.813 0 44.104-0.851 71.675-27.981 17.43-17.163 26.25-40.757 26.25-70.315-0.043-3.493-1.96-86.246-65.923-150.131 0.128 2.087 0.256 4.131 0.341 6.176-0.725-45.444-21.947-76.236-48.538-93.954-25.952-17.206-55.781-22.743-78.877-23.169-15.128-10.563-29.531-16.653-29.744-16.695-9.247-3.407-17.173-5.281-24.119-5.707zM244.069 37.859c4.219-0.298 11.335 0.511 21.775 4.386 0.127 0.086 0.256 0.128 0.384 0.17 0 0 12.273 4.004 26.762 15.162 1.917 1.49 4.262 2.3 6.648 2.3 19.77 0 48.024 5.281 70.184 19.975 22.118 14.694 38.906 37.735 38.906 78.153 0 0.042 0 0.128 0 0.171 0.086 3.152-0.298 4.643-2.301 6.346-2.002 1.746-7.373 4.387-19.517 4.387-33.24 0-57.144-15.928-73.637-36.542-16.49-20.614-24.544-46.423-24.544-60.904 0.086-3.961-2.002-7.623-5.37-9.583-3.409-2.002-7.627-2.002-11.036 0-3.366 1.959-5.455 5.621-5.412 9.583 0 6.558 2.642 14.438 4.432 21.977-23.608-12.564-31.96-24.787-35.029-32.965-1.534-4.089-1.79-7.325-1.79-9.455 0.042-2.087 0.171-2.215 0.171-2.215 0.341-1.065 0.512-2.215 0.512-3.322 0 0 0.256-3.322 2.216-5.281 1.023-0.937 2.387-2.044 6.648-2.343zM213.387 44.206c0 0.127 0.042 0.127 0 0.255 0 0.17 0 0.127-0.042 0.341 0.042-0.17 0.042-0.426 0.042-0.596zM213.301 45.057c-0.171 1.065-0.341 2.598-0.426 4.089 0.085-1.661 0.256-3.024 0.426-4.088zM212.875 52.639c0.042 1.107 0.128 2.257 0.256 3.492-0.127-1.278-0.214-2.385-0.256-3.492zM213.77 60.262c0.298 1.534 0.81 3.152 1.321 4.813-0.512-1.661-1.023-3.279-1.321-4.813zM216.966 70.697c0.256 0.511 0.469 1.022 0.682 1.534-0.214-0.511-0.426-1.022-0.682-1.534zM218.841 74.615c0.639 1.15 1.279 2.343 2.046 3.535-0.768-1.192-1.406-2.385-2.046-3.535zM221.738 79.555c1.023 1.534 2.131 3.109 3.367 4.684-1.236-1.576-2.344-3.151-3.367-4.684zM225.531 84.837c1.406 1.788 2.983 3.578 4.688 5.366-1.704-1.788-3.281-3.578-4.688-5.366zM230.431 90.458c1.833 1.874 3.792 3.791 5.966 5.707 2.216 1.916 4.602 3.833 7.202 5.749 2.6 1.874 5.369 3.791 8.395 5.665 3.026 1.832 6.221 3.706 9.673 5.494h0.042c0 0.042 0.043 0.042 0.043 0.085 0 0 1.023 0.511 1.193 0.596-0.171-0.085-1.193-0.596-1.279-0.638-3.495-1.832-6.648-3.706-9.673-5.537-3.026-1.916-5.796-3.791-8.395-5.665-2.6-1.916-4.986-3.833-7.202-5.749-2.173-1.916-4.133-3.833-5.966-5.707zM272.961 118.781c3.495 1.704 7.202 3.535 10.482 4.941 4.048 7.496 7.118 15.12 12.784 22.232 2.216 2.768 4.56 5.409 7.032 8.006-9.077-9.625-16.661-20.273-22.329-31.219-3.196-1.406-4.73-2.343-7.969-3.961zM304.664 155.451c16.622 17.036 39.077 30.494 66.947 34.2-27.955-3.62-50.2-16.951-66.947-34.2zM430.546 157.878c0 0.042 0 0.085 0 0.127 0.086 6.601-1.664 12.565-4.986 17.547 3.75-5.75 5.072-12.309 4.986-17.675zM425.133 176.022c-0.853 1.192-1.704 2.385-2.771 3.45-0.256 0.256-0.595 0.469-0.894 0.724 1.406-1.321 2.643-2.683 3.664-4.173zM418.101 182.75c-0.978 0.724-1.917 1.49-3.024 2.087 1.106-0.596 2.045-1.363 3.024-2.087zM410.73 186.754c-1.152 0.426-2.173 0.937-3.411 1.321 1.195-0.383 2.259-0.894 3.411-1.321zM401.397 189.352c-1.192 0.213-2.301 0.511-3.579 0.681 1.277-0.171 2.387-0.469 3.579-0.681zM373.058 189.821c4.474 0.554 9.077 0.894 13.851 0.894 1.363 0 2.515-0.171 3.75-0.214-1.277 0.042-2.387 0.214-3.75 0.214-4.774 0-9.376-0.383-13.851-0.894zM27.719 216.482c-5.796 27.343-11.718 67.206-11.718 115.972 0 89.952 156.476 163.546 207.273 163.546 35.539 0 92.855-31.048 146.25-77.896-9.376-0.981-19.005-2.472-28.851-4.387-29.531 23.891-59.743 42.717-84.544 52.64-1.107-12.69 13.849-24.872 13.849-24.872l34.43-36.416c-15.637-4.429-31.534-9.88-47.428-16.142-17.216 21.723-52.585 63.459-70.057 63.459-11.889 0-18.068-6.558-18.196-16.437-0.214-20.104 18.665-53.792 30.81-73.341-14.319-7.538-28.423-15.672-42.102-24.363-12.869 21.68-37.415 58.52-55.952 59.584-3.153 0.171-6.136-0.765-8.864-3.024-24.588-20.57-2.898-70.486 10.569-95.912-10.27-8.517-20.071-17.377-29.318-26.491-8.608 29.046-23.096 70.955-34.688 70.955-0.086 0-0.128-0.043-0.255-0.043-0.682-3.618-1.108-7.197-1.108-10.861 0-35.987 3.452-67.121 7.586-91.482-6.434-8.006-12.316-16.184-17.684-24.489z"></path>
    </symbol>
    <symbol version="1.1" xmlns="http://www.w3.org/2000/svg" viewBox="0 0 878 512" id="vk-small">
        <path fill="currentColor" d="M367.784 0.287c-16.692 1.244-37.855 4.556-46.324 7.25-14.541 4.627-32.661 21.127-29.31 26.69 0.616 1.023 3.989 2.406 7.495 3.073 15.736 2.997 29.010 12.154 34.96 24.115 10.17 20.448 14.743 84.401 9.272 129.675-3.615 29.927-5.144 36.863-10.503 47.715-14.382 29.108-47.41 5.543-83.81-59.792-12.954-23.25-49.409-97.871-57.543-117.784-9.832-24.066-12.944-28.498-24.122-34.331l-9.435-4.924-71.204 0.524c-64.3 0.474-71.743 0.827-76.765 3.641-7.961 4.463-11.362 10.556-10.309 18.479 1.127 8.488 28.134 70.058 48.034 109.514 38.745 76.817 71.561 132.597 106.641 181.266 51.595 71.582 74.423 94.808 127.136 129.353 24.615 16.132 42.38 25.154 64.341 32.68 30.175 10.346 43.312 12.336 88.36 13.392 44.837 1.053 57.717-0.274 67.219-6.923 7.822-5.474 10.243-13.026 11.703-36.513 1.444-23.179 5.855-43.055 11.923-53.672 5.351-9.366 16.984-20.184 21.976-20.44 17.412-0.877 27.165 6.543 63.543 48.373 34.11 39.216 46.716 50.757 65.562 60.010 8.492 4.173 18.914 8.404 23.16 9.402 10.295 2.421 149.255-0.3 158.23-3.101 8.88-2.772 18.451-12.401 18.666-18.783 0.6-17.47-1.88-25.344-13.794-43.801-15.663-24.258-29.118-39.75-74.924-86.26-48.64-49.392-52.038-53.989-52.107-70.512-0.058-13.872 6.261-24.529 48.966-82.555 60.24-81.855 84.36-121.391 91.067-149.266 3.935-16.347 1.697-24.235-8.456-29.8l-7.223-3.959-86.645 0.591c-61.25 0.417-87.885 1.192-90.872 2.64-5.815 2.817-11.977 13.092-19.705 32.846-20.578 52.615-62.954 128.413-90.876 162.563-11.111 13.591-28.38 27.501-34.143 27.501-8.042 0-14.673-5.327-19.701-15.825l-4.641-9.694 0.472-91.37c0.505-98.258 0.289-101.16-8.576-114.134-8.733-12.778-30.025-17.16-87.12-17.93-23.117-0.314-45.894-0.28-50.615 0.072z"></path>
    </symbol>
    <symbol version="1.1" xmlns="http://www.w3.org/2000/svg" viewBox="0 0 398 512" id="download">
        <path fill="currentColor" d="M0 512h398.222v-60.234h-398.222zM398.222 180.706h-113.778v-180.706h-170.667v180.706h-113.778l199.111 210.823 199.111-210.823z"></path>
    </symbol>
    <symbol version="1.1" xmlns="http://www.w3.org/2000/svg" viewBox="0 0 427 512" id="play">
        <path fill="currentColor" d="M426.666 246.333l-426.666 246.335v-492.672l426.666 246.337z"></path>
    </symbol>
    <symbol version="1.1" xmlns="http://www.w3.org/2000/svg" viewBox="0 0 512 512" id="pin">
        <path fill="currentColor" d="M258.57 0c-102.245 0-185.427 83.182-185.427 185.426 0 126.888 165.939 313.167 173.004 321.034 6.636 7.391 18.222 7.38 24.846 0 7.065-7.866 173.002-194.146 173.002-321.034 0-102.244-83.182-185.426-185.425-185.426zM258.57 278.719c-51.442 0-93.292-41.851-93.292-93.293s41.851-93.292 93.292-93.292c51.441 0 93.291 41.851 93.291 93.293s-41.85 93.292-93.291 93.292z"></path>
    </symbol>
</svg>