<svg width="317" height="46" viewBox="0 0 317 46" fill="none" xmlns="http://www.w3.org/2000/svg">
<path d="M6.55 35H0.5V-2.38419e-06H6.55V15.35L22.25 -2.38419e-06H30.15L14.25 15.7L31.3 35H23.25L9.7 19.75L6.55 22.8V35ZM36.4344 16.45L33.6344 12.25C34.9344 11.0167 36.5844 10.0667 38.5844 9.4C40.5844 8.73333 42.5677 8.4 44.5344 8.4C47.9677 8.4 50.601 9.33333 52.4344 11.2C54.2677 13.0333 55.1844 15.6667 55.1844 19.1V35H49.4844V32.15C47.5844 34.25 44.901 35.3 41.4344 35.3C38.7344 35.3 36.4844 34.6 34.6844 33.2C32.8844 31.7667 31.9844 29.7333 31.9844 27.1C31.9844 25.5 32.351 24.1333 33.0844 23C33.8177 21.8667 34.8177 21.0167 36.0844 20.45C37.351 19.8833 38.6344 19.4833 39.9344 19.25C41.2344 18.9833 42.6344 18.85 44.1344 18.85C46.101 18.85 47.8844 19.0833 49.4844 19.55C49.551 17.7167 49.151 16.2667 48.2844 15.2C47.4177 14.2 45.951 13.7 43.8844 13.7C41.3177 13.7 38.8344 14.6167 36.4344 16.45ZM42.6844 30.35C44.051 30.35 45.351 30.0333 46.5844 29.4C47.8177 28.7667 48.7844 27.9 49.4844 26.8V24.3C47.8177 23.8333 46.2344 23.6 44.7344 23.6C40.1677 23.6 37.8844 24.75 37.8844 27.05C37.8844 28.1833 38.3677 29.0167 39.3344 29.55C40.3344 30.0833 41.451 30.35 42.6844 30.35ZM66.0434 45H60.3434V9H66.0434V11.35C66.81 10.3833 67.8434 9.65 69.1434 9.15C70.4767 8.65 71.8434 8.4 73.2434 8.4C77.1434 8.4 80.21 9.63333 82.4434 12.1C84.71 14.5667 85.8434 17.7167 85.8434 21.55C85.8434 25.55 84.6434 28.8667 82.2434 31.5C79.8767 34.1333 76.7434 35.45 72.8434 35.45C71.61 35.45 70.31 35.2833 68.9434 34.95C67.61 34.5833 66.6434 34.0333 66.0434 33.3V45ZM72.6434 13.7C71.21 13.7 69.8934 14.0833 68.6934 14.85C67.5267 15.6167 66.6434 16.65 66.0434 17.95V26.95C67.3434 29.0833 69.3934 30.15 72.1934 30.15C74.56 30.15 76.4434 29.4 77.8434 27.9C79.2434 26.3667 79.9434 24.4 79.9434 22C79.9434 19.5333 79.3267 17.5333 78.0934 16C76.86 14.4667 75.0434 13.7 72.6434 13.7ZM95.759 14.3H86.359V9H110.859V14.3H101.459V35H95.759V14.3ZM116.464 16.45L113.664 12.25C114.964 11.0167 116.614 10.0667 118.614 9.4C120.614 8.73333 122.597 8.4 124.564 8.4C127.997 8.4 130.63 9.33333 132.464 11.2C134.297 13.0333 135.214 15.6667 135.214 19.1V35H129.514V32.15C127.614 34.25 124.93 35.3 121.464 35.3C118.764 35.3 116.514 34.6 114.714 33.2C112.914 31.7667 112.014 29.7333 112.014 27.1C112.014 25.5 112.38 24.1333 113.114 23C113.847 21.8667 114.847 21.0167 116.114 20.45C117.38 19.8833 118.664 19.4833 119.964 19.25C121.264 18.9833 122.664 18.85 124.164 18.85C126.13 18.85 127.914 19.0833 129.514 19.55C129.58 17.7167 129.18 16.2667 128.314 15.2C127.447 14.2 125.98 13.7 123.914 13.7C121.347 13.7 118.864 14.6167 116.464 16.45ZM122.714 30.35C124.08 30.35 125.38 30.0333 126.614 29.4C127.847 28.7667 128.814 27.9 129.514 26.8V24.3C127.847 23.8333 126.264 23.6 124.764 23.6C120.197 23.6 117.914 24.75 117.914 27.05C117.914 28.1833 118.397 29.0167 119.364 29.55C120.364 30.0833 121.48 30.35 122.714 30.35ZM161.339 5.7H149.589V-2.38419e-06H179.139V5.7H167.389V35H161.339V5.7ZM176.678 44.7L178.928 39.85C179.261 40.05 179.644 40.15 180.078 40.15C181.644 40.15 183.011 38.7 184.178 35.8L185.078 33.45L172.278 9H178.878L187.828 26.55L194.728 9H200.828L190.628 34.25C189.128 38.0167 187.628 40.8167 186.128 42.65C184.561 44.5167 182.611 45.45 180.278 45.45C178.878 45.45 177.678 45.2 176.678 44.7ZM208.67 45H202.97V9H208.67V11.35C209.437 10.3833 210.47 9.65 211.77 9.15C213.104 8.65 214.47 8.4 215.87 8.4C219.77 8.4 222.837 9.63333 225.07 12.1C227.337 14.5667 228.47 17.7167 228.47 21.55C228.47 25.55 227.27 28.8667 224.87 31.5C222.504 34.1333 219.37 35.45 215.47 35.45C214.237 35.45 212.937 35.2833 211.57 34.95C210.237 34.5833 209.27 34.0333 208.67 33.3V45ZM215.27 13.7C213.837 13.7 212.52 14.0833 211.32 14.85C210.154 15.6167 209.27 16.65 208.67 17.95V26.95C209.97 29.0833 212.02 30.15 214.82 30.15C217.187 30.15 219.07 29.4 220.47 27.9C221.87 26.3667 222.57 24.4 222.57 22C222.57 19.5333 221.954 17.5333 220.72 16C219.487 14.4667 217.67 13.7 215.27 13.7ZM254.21 35H232.56V9H238.26V29.7H250.31V9H256.01V29.7H259.51V40.95H254.21V35ZM281.193 18.1L267.393 35H262.443V9H268.143V25.95L281.943 9H286.893V35H281.193V18.1ZM310.978 18.1L297.178 35H292.228V9H297.928V25.95L311.728 9H316.678V35H310.978V18.1Z" fill="white"/>
</svg>
