<svg width="31" height="31" viewBox="0 0 31 31" fill="none" xmlns="http://www.w3.org/2000/svg">
<g clip-path="url(#clip0_225_798)">
<path d="M29.4719 13.9477H24.5507L28.4939 10.0045C29.0993 9.39905 29.0993 8.42103 28.4939 7.81558C27.8884 7.21013 26.8949 7.21013 26.2894 7.81558L20.1574 13.9477H17.0525V10.8428L23.1846 4.71073C23.79 4.10528 23.79 3.11173 23.1846 2.50628C22.5791 1.90084 21.6011 1.90084 20.9957 2.50628L17.0525 6.44945V1.52826C17.0525 0.674422 16.3539 -0.0241699 15.5001 -0.0241699C14.6463 -0.0241699 13.9477 0.674422 13.9477 1.52826V6.44945L10.0045 2.50628C9.39905 1.90084 8.42103 1.90084 7.81558 2.50628C7.21013 3.11173 7.21013 4.10528 7.81558 4.71073L13.9477 10.8428V13.9477H10.8428L4.71073 7.81558C4.10528 7.21013 3.11173 7.21013 2.50628 7.81558C1.90084 8.42103 1.90084 9.39905 2.50628 10.0045L6.44945 13.9477H1.52826C0.674422 13.9477 -0.0241699 14.6463 -0.0241699 15.5001C-0.0241699 16.3539 0.674422 17.0525 1.52826 17.0525H6.44945L2.50628 20.9957C1.90084 21.6011 1.90084 22.5791 2.50628 23.1846C3.11173 23.79 4.10528 23.79 4.71073 23.1846L10.8428 17.0525H13.9477V20.1574L7.81558 26.2894C7.21013 26.8949 7.21013 27.8884 7.81558 28.4939C8.42103 29.0993 9.39905 29.0993 10.0045 28.4939L13.9477 24.5507V29.4719C13.9477 30.3258 14.6463 31.0243 15.5001 31.0243C16.3539 31.0243 17.0525 30.3258 17.0525 29.4719V24.5507L20.9957 28.4939C21.6011 29.0993 22.5791 29.0993 23.1846 28.4939C23.79 27.8884 23.79 26.8949 23.1846 26.2894L17.0525 20.1574V17.0525H20.1574L26.2894 23.1846C26.8949 23.79 27.8884 23.79 28.4939 23.1846C29.0993 22.5791 29.0993 21.6011 28.4939 20.9957L24.5507 17.0525H29.4719C30.3258 17.0525 31.0243 16.3539 31.0243 15.5001C31.0243 14.6463 30.3258 13.9477 29.4719 13.9477Z" fill="#0078DB"/>
</g>
<defs>
<clipPath id="clip0_225_798">
<rect width="31" height="31" fill="white"/>
</clipPath>
</defs>
</svg>
