<svg width="13" height="16" viewBox="0 0 13 16" fill="none" xmlns="http://www.w3.org/2000/svg">
<path d="M3.2046 5.34996L5.36369 7.50906V1.62269C5.36369 0.995419 5.87278 0.486328 6.50006 0.486328C7.12733 0.486328 7.63642 0.995419 7.63642 1.62269V7.50906L9.79551 5.34996C10.241 4.90451 10.9591 4.90451 11.4046 5.34996C11.8501 5.79542 11.8501 6.5136 11.4046 6.95906L7.3046 11.0591C6.85915 11.5045 6.14096 11.5045 5.69551 11.0591L1.59551 6.95906C1.15006 6.5136 1.15006 5.79542 1.59551 5.34996C2.04096 4.90451 2.75915 4.90451 3.2046 5.34996ZM12.1819 14.3772C12.1819 13.75 11.6728 13.2409 11.0455 13.2409H1.9546C1.32733 13.2409 0.818237 13.75 0.818237 14.3772C0.818237 15.0045 1.32733 15.5136 1.9546 15.5136H11.0455C11.6728 15.5136 12.1819 15.0045 12.1819 14.3772Z" fill="#0078DB"/>
</svg>
