<svg width="25" height="25" viewBox="0 0 25 25" fill="none" xmlns="http://www.w3.org/2000/svg">
<g clip-path="url(#clip0_191_458)">
<path d="M24.9058 11.8727C18.005 0.956835 7.08921 0.956835 0.188138 11.8727C0.065336 12.0589 -0.00012207 12.277 -0.00012207 12.5C-0.00012207 12.7231 0.065336 12.9412 0.188138 13.1274C7.08921 24.0432 18.005 24.0432 24.9058 13.1274C25.0314 12.7511 25.0314 12.249 24.9058 11.8727ZM12.4842 18.7737C8.97106 18.7737 6.21079 16.0132 6.21079 12.5C6.21079 8.98686 8.97132 6.22633 12.4845 6.22633C15.9977 6.22633 18.7579 8.98686 18.7579 12.5C18.7579 16.0132 15.9974 18.7737 12.4842 18.7737Z" fill="#0078DB"/>
<path d="M14.9938 11.2453C14.2411 11.2453 13.739 10.7435 13.739 9.99056C13.739 9.61425 13.8646 9.36319 14.1154 9.1124C13.6135 8.86135 13.1117 8.73608 12.4843 8.73608C10.3514 8.73608 8.72034 10.3671 8.72034 12.5C8.72034 14.6329 10.3514 16.2643 12.4843 16.2643C14.6172 16.2643 16.2485 14.6329 16.2485 12.5C16.2485 11.8727 16.123 11.3708 15.8722 10.869C15.6211 11.1198 15.3704 11.2453 14.9938 11.2453Z" fill="#0078DB"/>
</g>
<defs>
<clipPath id="clip0_191_458">
<rect width="25" height="25" fill="white"/>
</clipPath>
</defs>
</svg>
