<svg width="31" height="32" viewBox="0 0 31 32" fill="none" xmlns="http://www.w3.org/2000/svg">
<g clip-path="url(#clip0_225_771)">
<path d="M18.8186 19.3421C17.386 19.1169 16.3792 17.7915 16.539 16.3868C16.5606 16.1965 16.6039 16.0092 16.668 15.8286C16.8333 15.3515 16.6631 14.7993 16.2538 14.4554C15.388 13.7081 14.4064 13.1065 13.3476 12.6741C13.1162 12.5763 12.8588 12.5585 12.6162 12.6235C12.3736 12.6886 12.1597 12.8327 12.0083 13.0331C11.8074 13.2988 11.5553 13.5215 11.2669 13.6881C10.9785 13.8546 10.6597 13.9617 10.3292 14.003C9.99874 14.0442 9.66335 14.0188 9.34286 13.9283C9.02236 13.8377 8.72327 13.6838 8.46325 13.4757C8.3027 13.3468 8.15908 13.1981 8.03579 13.0331C7.88449 12.8331 7.67085 12.6892 7.42864 12.6242C7.18642 12.5592 6.92944 12.5767 6.69831 12.6741C5.72085 13.072 4.80872 13.6145 3.99247 14.2834C3.56259 14.6328 3.38276 15.205 3.55774 15.6978C4.04575 16.9929 3.387 18.5108 2.04771 19.0642C1.80902 19.1633 1.55745 19.2279 1.30056 19.2562C1.03872 19.2872 0.792797 19.3982 0.596191 19.5739C0.399585 19.7495 0.261828 19.9815 0.201632 20.2382C-0.0435332 21.3267 -0.0653666 22.4536 0.137452 23.5507C0.189692 23.8155 0.324799 24.0567 0.523226 24.2396C0.721654 24.4224 0.973112 24.5374 1.24122 24.5679C2.67437 24.7187 3.73999 25.9853 3.64857 27.3949C3.63012 27.6786 3.56337 27.9571 3.45118 28.2183C3.23927 28.7075 3.40335 29.3015 3.8411 29.6629C4.70156 30.3982 5.67413 30.991 6.72192 31.4188C6.85201 31.4689 6.98949 31.4971 7.1288 31.5024C7.3175 31.5059 7.50405 31.4617 7.67109 31.3739C7.83813 31.286 7.98025 31.1573 8.08423 30.9998C8.3072 30.6648 8.60818 30.3889 8.96131 30.1958C9.31443 30.0028 9.70914 29.8984 10.1115 29.8915C10.5139 29.8847 10.912 29.9756 11.2715 30.1565C11.6309 30.3374 11.9411 30.6029 12.1754 30.9302C12.3265 31.1447 12.548 31.2995 12.8014 31.3677C13.0548 31.436 13.3241 31.4134 13.5625 31.3038C14.5212 30.8795 15.4129 30.3178 16.2096 29.6363C16.6268 29.2839 16.7951 28.7202 16.6183 28.2371C16.1146 26.9492 16.7564 25.4253 18.0896 24.8586C18.3152 24.7624 18.5526 24.6971 18.7956 24.6642C19.0537 24.6266 19.294 24.5108 19.4842 24.3324C19.6745 24.154 19.8054 23.9215 19.8594 23.6664C19.9742 23.131 20.0365 22.5857 20.0453 22.0383C20.0446 21.4612 19.9837 20.8857 19.8636 20.3212C19.8089 20.0714 19.6798 19.8441 19.4932 19.6693C19.3066 19.4945 19.0714 19.3804 18.8186 19.3421ZM13.3627 22.0383C13.3628 22.6991 13.167 23.3451 12.7999 23.8946C12.4329 24.4441 11.9112 24.8724 11.3007 25.1254C10.6902 25.3783 10.0184 25.4446 9.37031 25.3157C8.72218 25.1869 8.12682 24.8687 7.65952 24.4015C7.19221 23.9343 6.87395 23.339 6.74499 22.6909C6.61603 22.0428 6.68216 21.371 6.93501 20.7605C7.18786 20.15 7.61609 19.6281 8.16552 19.261C8.71495 18.8939 9.36092 18.6979 10.0217 18.6979C10.9063 18.7025 11.7533 19.0559 12.3788 19.6813C13.0044 20.3068 13.3579 21.1537 13.3627 22.0383ZM30.0125 5.94492C28.8579 5.76328 28.0459 4.69523 28.1755 3.56301C28.1923 3.40952 28.2271 3.25854 28.279 3.11314C28.4122 2.72867 28.2754 2.28486 27.9454 2.00635C27.2472 1.4036 26.4553 0.918721 25.601 0.570781C25.4143 0.492078 25.2065 0.478113 25.0109 0.531107C24.8153 0.5841 24.643 0.701008 24.5215 0.863222C24.3595 1.07721 24.1563 1.25658 23.9239 1.39075C23.6914 1.52492 23.4345 1.61117 23.1681 1.64441C22.9018 1.67765 22.6315 1.65721 22.3733 1.58429C22.115 1.51137 21.8739 1.38745 21.6643 1.21984C21.5357 1.1156 21.4206 0.99581 21.3216 0.863222C21.1998 0.701932 21.0276 0.585889 20.8324 0.533468C20.6372 0.481046 20.4301 0.495242 20.2439 0.573808C19.4563 0.894293 18.7215 1.3315 18.0642 1.87072C17.7178 2.15227 17.5725 2.61363 17.7136 3.01082C18.1072 4.05404 17.5762 5.27769 16.4966 5.72393C16.3041 5.80363 16.1013 5.85581 15.8942 5.87892C15.6838 5.90366 15.486 5.99241 15.3277 6.13319C15.1694 6.27396 15.0581 6.45996 15.009 6.66603C14.811 7.54337 14.7933 8.45177 14.9569 9.33615C14.9997 9.54928 15.1088 9.74339 15.2687 9.89066C15.4286 10.0379 15.631 10.1308 15.8469 10.156C17.0016 10.2771 17.8607 11.2991 17.7844 12.4355C17.7702 12.6649 17.717 12.8901 17.627 13.1016C17.4563 13.4963 17.5889 13.9746 17.9419 14.2659C18.6353 14.8579 19.419 15.3352 20.2632 15.6796C20.3682 15.7198 20.4791 15.7425 20.5914 15.7469C20.7435 15.7496 20.8938 15.7139 21.0284 15.6431C21.163 15.5723 21.2776 15.4687 21.3616 15.3418C21.5412 15.0717 21.7838 14.8493 22.0684 14.6937C22.353 14.538 22.6711 14.4538 22.9955 14.4483C23.3198 14.4427 23.6406 14.516 23.9304 14.6619C24.2201 14.8077 24.4702 15.0217 24.6589 15.2855C24.7808 15.4574 24.9586 15.5817 25.1619 15.6369C25.3653 15.6921 25.5815 15.6749 25.7736 15.5882C26.5467 15.2461 27.2659 14.7933 27.9085 14.2441C28.2445 13.9601 28.3801 13.5054 28.2373 13.1161C27.8316 12.0789 28.3487 10.8504 29.4234 10.3915C29.6053 10.3141 29.7967 10.2614 29.9925 10.2347C30.2005 10.2043 30.3942 10.1109 30.5476 9.9672C30.701 9.82346 30.8067 9.6362 30.8505 9.4306C30.943 8.99898 30.9931 8.55933 31 8.11795C30.9995 7.6536 30.9508 7.19057 30.8547 6.73627C30.8101 6.53542 30.7058 6.35275 30.5555 6.21227C30.4052 6.07179 30.2159 5.98007 30.0125 5.94916V5.94492ZM25.615 8.11795C25.615 8.65048 25.4571 9.17105 25.1612 9.61383C24.8653 10.0566 24.4448 10.4017 23.9528 10.6055C23.4608 10.8093 22.9195 10.8626 22.3972 10.7587C21.8749 10.6548 21.3951 10.3984 21.0186 10.0218C20.642 9.64529 20.3856 9.16553 20.2817 8.64323C20.1778 8.12094 20.2311 7.57956 20.4349 7.08757C20.6387 6.59557 20.9838 6.17506 21.4266 5.8792C21.8694 5.58334 22.3899 5.42543 22.9225 5.42543C23.6354 5.42909 24.3182 5.71394 24.8223 6.21809C25.3265 6.72225 25.6113 7.40498 25.615 8.11795Z" fill="#0078DB"/>
</g>
<defs>
<clipPath id="clip0_225_771">
<rect width="31" height="31" fill="white" transform="translate(0 0.5)"/>
</clipPath>
</defs>
</svg>
