<svg width="35" height="35" viewBox="0 0 35 35" fill="none" xmlns="http://www.w3.org/2000/svg">
<path d="M7.76354 13.022H4.61907C4.0528 13.022 3.59371 13.4811 3.59371 14.0474V16.4399H2.56834C2.00206 16.4399 1.54297 16.899 1.54297 17.4653C1.54297 18.0316 2.00206 18.4907 2.56834 18.4907H3.59371V20.8832C3.59371 21.4495 4.0528 21.9086 4.61907 21.9086H7.76354C8.32982 21.9086 8.78891 21.4495 8.78891 20.8832V14.0474C8.78891 13.4811 8.32982 13.022 7.76354 13.022ZM33.0461 29.3611L30.1655 24.3717C29.1694 25.2023 27.8892 25.703 26.4939 25.703H21.4622L25.9421 33.4626C26.5112 34.4484 27.5472 35 28.6112 35C29.1495 35.0002 29.6783 34.8582 30.1441 34.5884L31.9201 33.563C33.3891 32.715 33.8941 30.83 33.0461 29.3611ZM30.1849 19.9612V15.7908C30.1849 15.2245 29.7258 14.7654 29.1596 14.7654H21.23V12.1675H21.8382C24.2167 12.1675 26.1518 10.2324 26.1518 7.85378V2.05074H26.767C27.3333 2.05074 27.7924 1.59165 27.7924 1.02537C27.7924 0.459092 27.3333 0 26.767 0H13.6423C13.076 0 12.617 0.459092 12.617 1.02537C12.617 1.59165 13.076 2.05074 13.6423 2.05074H14.2575V7.85378C14.2575 10.2324 16.1927 12.1675 18.5713 12.1675H19.1793V14.7654H10.8406V20.1657H13.5796C13.686 22.1063 15.2984 23.6522 17.2649 23.6522H26.4939C28.5292 23.6522 30.1849 21.9964 30.1849 19.9612Z" fill="#0078DB"/>
</svg>
