<svg width="90" height="90" viewBox="0 0 90 90" fill="none" xmlns="http://www.w3.org/2000/svg">
<path d="M19.9625 33.4853H11.8768C10.4206 33.4853 9.24012 34.6658 9.24012 36.1219V42.2741H6.60346C5.14732 42.2741 3.9668 43.4547 3.9668 44.9108C3.9668 46.3669 5.14732 47.5475 6.60346 47.5475H9.24012V53.6997C9.24012 55.1558 10.4206 56.3363 11.8768 56.3363H19.9625C21.4187 56.3363 22.5992 55.1558 22.5992 53.6997V36.1219C22.5992 34.6658 21.4187 33.4853 19.9625 33.4853ZM84.9747 75.4999L77.5675 62.6701C75.0062 64.8058 71.7143 66.0934 68.1265 66.0934H55.1877L66.7074 86.0466C68.1709 88.5815 70.8348 90 73.5708 90C74.955 90.0004 76.3148 89.6353 77.5126 88.9416L82.0795 86.305C85.8568 84.1243 87.1554 79.277 84.9747 75.4999ZM77.6176 51.3288V40.6049C77.6176 39.1488 76.437 37.9683 74.9809 37.9683H54.5907V31.2879H56.1544C62.2708 31.2879 67.2467 26.3118 67.2467 20.1954V5.27332H68.8287C70.2848 5.27332 71.4654 4.0928 71.4654 2.63666C71.4654 1.18052 70.2848 0 68.8287 0H35.0794C33.6233 0 32.4428 1.18052 32.4428 2.63666C32.4428 4.0928 33.6233 5.27332 35.0794 5.27332H36.6614V20.1954C36.6614 26.312 41.6375 31.2879 47.7539 31.2879H49.3174V37.9683H27.875V51.8547H34.9181C35.1917 56.8449 39.3378 60.8201 44.3947 60.8201H68.1265C73.3599 60.8201 77.6176 56.5622 77.6176 51.3288Z" fill="#F3F3F3"/>
</svg>
