<svg width="31" height="31" viewBox="0 0 31 31" fill="none" xmlns="http://www.w3.org/2000/svg">
<g clip-path="url(#clip0_62_474)">
<path d="M12.1786 16.6072H17.7187V12.1786H6.13579L7.81421 8.42094C7.99025 8.01351 8.38993 7.75001 8.83279 7.75001H15.6639C15.4478 6.65326 15.4493 5.52475 15.6683 4.42858H8.83279C7.96611 4.4281 7.11839 4.68219 6.39486 5.15929C5.67133 5.6364 5.10387 6.3155 4.76293 7.11229L2.36264 12.7144C0.964321 13.4595 0 14.9154 0 16.6072V18.8214C0 20.4534 0.896786 21.8661 2.21429 22.6344V26.5714C2.21429 27.7926 3.20739 28.7857 4.42857 28.7857H7.75C8.97118 28.7857 9.96429 27.7926 9.96429 26.5714V23.25H17.7187V18.8214H12.1786C11.8849 18.8214 11.6033 18.7048 11.3957 18.4972C11.1881 18.2895 11.0714 18.0079 11.0714 17.7143C11.0714 17.4207 11.1881 17.1391 11.3957 16.9314C11.6033 16.7238 11.8849 16.6072 12.1786 16.6072ZM6.08929 20.4822C5.3552 20.4822 4.65119 20.1905 4.13212 19.6715C3.61304 19.1524 3.32143 18.4484 3.32143 17.7143C3.32143 16.9802 3.61304 16.2762 4.13212 15.7571C4.65119 15.2381 5.3552 14.9464 6.08929 14.9464C6.82337 14.9464 7.52738 15.2381 8.04646 15.7571C8.56553 16.2762 8.85714 16.9802 8.85714 17.7143C8.85714 18.4484 8.56553 19.1524 8.04646 19.6715C7.52738 20.1905 6.82337 20.4822 6.08929 20.4822ZM30.9136 4.95669C30.4564 2.33608 28.2576 0.461688 26.9977 0.0797241C26.7851 0.0155098 26.5759 0.183795 26.5759 0.405224V5.95976C26.576 6.16537 26.5188 6.36694 26.4106 6.5418C26.3025 6.71666 26.1476 6.85787 25.9636 6.94955L24.8565 7.50312C24.7028 7.58007 24.5334 7.62014 24.3616 7.62014C24.1898 7.62014 24.0203 7.58007 23.8667 7.50312L22.7595 6.94955C22.5757 6.85766 22.421 6.7164 22.3129 6.54159C22.2047 6.36678 22.1474 6.16531 22.1473 5.95976V0.405224C22.1473 0.182688 21.9369 0.0144027 21.7233 0.0797241C20.4622 0.470546 18.2645 2.37372 17.8106 4.97219C17.4209 7.20419 18.2579 9.39301 19.5787 10.7149C19.7957 10.9319 19.9319 11.212 19.9319 11.5187V26.5725C19.9319 27.7465 20.3982 28.8723 21.2283 29.7024C22.0584 30.5326 23.1843 30.9989 24.3583 30.9989C25.5322 30.9989 26.6581 30.5326 27.4882 29.7024C28.3183 28.8723 28.7846 27.7465 28.7846 26.5725L28.7879 11.5243C28.7879 11.2143 28.9285 10.9286 29.1478 10.7083C30.4774 9.37972 31.3023 7.18094 30.9136 4.95669ZM24.3671 28.2322C23.9265 28.232 23.504 28.0568 23.1926 27.7452C22.8811 27.4335 22.7062 27.0109 22.7064 26.5703C22.7065 26.1297 22.8817 25.7072 23.1934 25.3958C23.505 25.0844 23.9276 24.9095 24.3682 24.9096C24.8088 24.9098 25.2313 25.0849 25.5427 25.3966C25.8542 25.7082 26.0291 26.1308 26.0289 26.5714C26.0288 27.012 25.8536 27.4345 25.542 27.746C25.2303 28.0574 24.8077 28.2323 24.3671 28.2322Z" fill="#0078DB"/>
</g>
<defs>
<clipPath id="clip0_62_474">
<rect width="31" height="31" fill="white"/>
</clipPath>
</defs>
</svg>
