<svg width="90" height="90" viewBox="0 0 90 90" fill="none" xmlns="http://www.w3.org/2000/svg">
<g clip-path="url(#clip0_62_798)">
<path d="M43.8232 0.41748C44.5186 -0.140306 45.4814 -0.140047 46.1768 0.41748C51.264 4.49945 57.8649 7.86228 65.4111 9.88428C71.2115 11.4384 76.924 12.0265 82.1846 11.7661C82.718 11.7396 83.1872 11.9143 83.5742 12.2827C83.9611 12.6509 84.1582 13.1108 84.1582 13.645V42.2788C84.1582 65.7552 67.2561 85.4068 45 89.6968C22.7442 85.4067 5.84277 65.7551 5.84277 42.2788V13.645C5.84277 13.1108 6.03979 12.6511 6.42676 12.2827C6.81374 11.9145 7.28275 11.7398 7.81641 11.7661C13.0771 12.0267 18.7895 11.4384 24.5898 9.88428C32.136 7.86228 38.736 4.49941 43.8232 0.41748ZM39.3242 49.0386L30.7119 39.6372L25.0146 45.0981L38.9287 60.2866L64.9834 35.5845L59.6895 29.7134L39.3242 49.0386Z" fill="#EBECEC"/>
</g>
<defs>
<clipPath id="clip0_62_798">
<rect width="90" height="90" fill="white"/>
</clipPath>
</defs>
</svg>
