<svg width="31" height="31" viewBox="0 0 31 31" fill="none" xmlns="http://www.w3.org/2000/svg">
<g clip-path="url(#clip0_62_500)">
<path d="M15.0947 0.143494C15.3342 -0.0486 15.6658 -0.0484458 15.9053 0.143494C17.6575 1.54943 19.9312 2.70776 22.5303 3.40424C24.5282 3.93955 26.4966 4.14238 28.3086 4.05267C28.4922 4.04362 28.6539 4.10359 28.7871 4.23041C28.9202 4.35712 28.9882 4.51537 28.9883 4.69916V14.5624C28.9882 22.6487 23.166 29.4178 15.5 30.8954C7.83419 29.4177 2.01273 22.6486 2.0127 14.5624V4.69916C2.01278 4.5153 2.08066 4.35721 2.21387 4.23041C2.34716 4.10359 2.50857 4.04361 2.69238 4.05267C4.50437 4.14244 6.47186 3.93951 8.46973 3.40424C11.0689 2.70779 13.3425 1.54947 15.0947 0.143494ZM13.5449 16.8915L10.5791 13.6533L8.61621 15.5341L13.4092 20.7656L22.3838 12.2568L20.5596 10.2343L13.5449 16.8915Z" fill="#0078DB"/>
</g>
<defs>
<clipPath id="clip0_62_500">
<rect width="31" height="31" fill="white"/>
</clipPath>
</defs>
</svg>
