<svg width="90" height="90" viewBox="0 0 90 90" fill="none" xmlns="http://www.w3.org/2000/svg">
<g clip-path="url(#clip0_62_756)">
<path d="M39.622 45.3689L10.8837 29.7507C9.60538 29.0563 8.09584 29.085 6.84496 29.8286C5.59407 30.572 4.84766 31.8846 4.84766 33.3398V69.5708C4.84845 70.2923 5.03996 71.0008 5.40279 71.6245C5.76561 72.2481 6.28686 72.7648 6.91371 73.1221L35.6526 89.4601C36.2861 89.8202 36.9789 90.0001 37.6718 90.0001C38.378 90.0001 39.084 89.8131 39.7259 89.4395C40.9974 88.6998 41.7565 87.3798 41.7565 85.9086V48.9583C41.7565 47.46 40.9388 46.0846 39.622 45.3689ZM79.9382 20.3265C79.9387 19.5786 79.7332 18.845 79.3442 18.2063C78.9553 17.5675 78.3979 17.0482 77.7332 16.7053L46.395 0.458449C45.8102 0.155306 45.1608 -0.0019714 44.5021 1.86526e-05C43.8434 0.00200871 43.195 0.163207 42.6121 0.469878L11.7347 16.7168C11.0762 17.0622 10.5247 17.5812 10.14 18.2176C9.75524 18.854 9.55195 19.5835 9.5521 20.3272C9.55018 21.0707 9.7517 21.8006 10.1348 22.4378C10.518 23.075 11.0681 23.5952 11.7258 23.9422L42.6033 40.2905C43.1884 40.6003 43.84 40.7632 44.5021 40.7652C45.1641 40.7671 45.8167 40.6081 46.4036 40.3018L77.7425 23.9538C78.4063 23.6091 78.9624 23.0883 79.3498 22.4485C79.7371 21.8086 79.9406 21.0744 79.9382 20.3265ZM83.1556 29.8286C81.9054 29.085 80.3951 29.0556 79.1174 29.7505L50.3781 45.3689C49.7323 45.7197 49.1931 46.2383 48.8175 46.87C48.4418 47.5017 48.2437 48.2231 48.244 48.9581V85.9084C48.244 87.3796 49.0031 88.6996 50.2746 89.4393C50.9166 89.813 51.6224 89.9997 52.3287 89.9997C53.0215 89.9997 53.7146 89.8198 54.348 89.4599L83.087 73.1219C83.7138 72.7646 84.235 72.2479 84.5978 71.6243C84.9606 71.0006 85.1521 70.2921 85.1529 69.5706V33.3398C85.1529 31.8846 84.4064 30.572 83.1556 29.8286Z" fill="#252A2E"/>
</g>
<defs>
<clipPath id="clip0_62_756">
<rect width="90" height="90" fill="white"/>
</clipPath>
</defs>
</svg>
