<svg width="18" height="18" viewBox="0 0 18 18" fill="none" xmlns="http://www.w3.org/2000/svg">
<g clip-path="url(#clip0_230_3674)">
<path d="M15.8144 5.07857C14.9144 2.05714 12.1501 0 9.0001 0C5.8501 0 3.08581 2.05714 2.18581 5.07857C1.86438 6.23571 1.86438 7.45714 2.12153 8.67857C2.57153 10.1571 3.85724 12.7286 7.2001 16.7143C7.32867 16.9071 7.52153 17.1 7.6501 17.2286C7.84296 17.4857 8.1001 17.6786 8.35724 17.8714C8.74296 18.0643 9.19296 18.0643 9.57867 17.8714C9.83581 17.6786 10.093 17.4857 10.2858 17.2286C10.4144 17.0357 10.6072 16.8429 10.7358 16.7143C14.0787 12.7929 15.3644 10.1571 15.7501 8.67857C16.1358 7.45714 16.1358 6.23571 15.8144 5.07857ZM12.2144 7.07143C12.2144 8.87143 10.8001 10.2857 9.0001 10.2857C7.2001 10.2857 5.78581 8.87143 5.78581 7.07143C5.78581 5.27143 7.2001 3.85714 9.0001 3.85714C10.8001 3.85714 12.2144 5.27143 12.2144 7.07143Z" fill="#0078DB"/>
</g>
<defs>
<clipPath id="clip0_230_3674">
<rect width="18" height="18" fill="white"/>
</clipPath>
</defs>
</svg>
