<svg width="31" height="31" viewBox="0 0 31 31" fill="none" xmlns="http://www.w3.org/2000/svg">
<g clip-path="url(#clip0_62_492)">
<path d="M18.8186 18.8422C17.386 18.617 16.3792 17.2916 16.539 15.8869C16.5606 15.6965 16.6039 15.5092 16.668 15.3287C16.8333 14.8515 16.6631 14.2994 16.2538 13.9555C15.388 13.2082 14.4064 12.6066 13.3476 12.1742C13.1162 12.0764 12.8588 12.0586 12.6162 12.1236C12.3736 12.1886 12.1597 12.3328 12.0083 12.5332C11.8074 12.7989 11.5553 13.0215 11.2669 13.1881C10.9785 13.3547 10.6597 13.4618 10.3292 13.503C9.99874 13.5443 9.66335 13.5189 9.34286 13.4283C9.02236 13.3378 8.72327 13.1839 8.46325 12.9758C8.3027 12.8469 8.15908 12.6981 8.03579 12.5332C7.88449 12.3332 7.67085 12.1893 7.42864 12.1243C7.18642 12.0593 6.92944 12.0768 6.69831 12.1742C5.72085 12.5721 4.80872 13.1146 3.99247 13.7835C3.56259 14.1329 3.38276 14.705 3.55774 15.1979C4.04575 16.493 3.387 18.0109 2.04771 18.5643C1.80902 18.6634 1.55745 18.728 1.30056 18.7562C1.03872 18.7873 0.792797 18.8982 0.596191 19.0739C0.399585 19.2496 0.261828 19.4816 0.201632 19.7383C-0.0435332 20.8268 -0.0653666 21.9536 0.137452 23.0508C0.189692 23.3155 0.324799 23.5568 0.523226 23.7396C0.721654 23.9225 0.973112 24.0375 1.24122 24.068C2.67437 24.2188 3.73999 25.4854 3.64857 26.8949C3.63012 27.1786 3.56337 27.4571 3.45118 27.7184C3.23927 28.2076 3.40335 28.8015 3.8411 29.163C4.70156 29.8982 5.67413 30.491 6.72192 30.9189C6.85201 30.969 6.98949 30.9972 7.1288 31.0024C7.3175 31.006 7.50405 30.9618 7.67109 30.8739C7.83813 30.7861 7.98025 30.6574 8.08423 30.4999C8.3072 30.1648 8.60818 29.889 8.96131 29.6959C9.31443 29.5029 9.70914 29.3984 10.1115 29.3916C10.5139 29.3847 10.912 29.4757 11.2715 29.6566C11.6309 29.8375 11.9411 30.103 12.1754 30.4303C12.3265 30.6448 12.548 30.7996 12.8014 30.8678C13.0548 30.936 13.3241 30.9134 13.5625 30.8038C14.5212 30.3795 15.4129 29.8178 16.2096 29.1364C16.6268 28.784 16.7951 28.2203 16.6183 27.7371C16.1146 26.4493 16.7564 24.9253 18.0896 24.3586C18.3152 24.2625 18.5526 24.1971 18.7956 24.1643C19.0537 24.1267 19.294 24.0109 19.4842 23.8325C19.6745 23.6541 19.8054 23.4216 19.8594 23.1664C19.9742 22.6311 20.0365 22.0858 20.0453 21.5383C20.0446 20.9612 19.9837 20.3857 19.8636 19.8212C19.8089 19.5715 19.6798 19.3442 19.4932 19.1694C19.3066 18.9946 19.0714 18.8805 18.8186 18.8422ZM13.3627 21.5383C13.3628 22.1992 13.167 22.8452 12.7999 23.3947C12.4329 23.9442 11.9112 24.3725 11.3007 24.6254C10.6902 24.8784 10.0184 24.9446 9.37031 24.8158C8.72218 24.687 8.12682 24.3688 7.65952 23.9016C7.19221 23.4344 6.87395 22.8391 6.74499 22.191C6.61603 21.5429 6.68216 20.8711 6.93501 20.2605C7.18786 19.65 7.61609 19.1282 8.16552 18.7611C8.71495 18.3939 9.36092 18.198 10.0217 18.198C10.9063 18.2026 11.7533 18.556 12.3788 19.1814C13.0044 19.8068 13.3579 20.6538 13.3627 21.5383ZM30.0125 5.44498C28.8579 5.26334 28.0459 4.1953 28.1755 3.06307C28.1923 2.90958 28.2271 2.7586 28.279 2.61321C28.4122 2.22873 28.2754 1.78492 27.9454 1.50641C27.2472 0.903663 26.4553 0.418782 25.601 0.0708419C25.4143 -0.00786053 25.2065 -0.0218263 25.0109 0.0311676C24.8153 0.0841614 24.643 0.201069 24.5215 0.363283C24.3595 0.57727 24.1563 0.756641 23.9239 0.890811C23.6914 1.02498 23.4345 1.11123 23.1681 1.14447C22.9018 1.17771 22.6315 1.15727 22.3733 1.08435C22.115 1.01143 21.8739 0.88751 21.6643 0.719904C21.5357 0.615659 21.4206 0.495871 21.3216 0.363283C21.1998 0.201993 21.0276 0.0859502 20.8324 0.0335288C20.6372 -0.0188927 20.4301 -0.00469654 20.2439 0.0738693C19.4563 0.394354 18.7215 0.831557 18.0642 1.37078C17.7178 1.65233 17.5725 2.11369 17.7136 2.51088C18.1072 3.5541 17.5762 4.77776 16.4966 5.22399C16.3041 5.30369 16.1013 5.35587 15.8942 5.37899C15.6838 5.40372 15.486 5.49247 15.3277 5.63325C15.1694 5.77402 15.0581 5.96002 15.009 6.1661C14.811 7.04343 14.7933 7.95183 14.9569 8.83621C14.9997 9.04934 15.1088 9.24345 15.2687 9.39072C15.4286 9.53799 15.631 9.63086 15.8469 9.65602C17.0016 9.77711 17.8607 10.7991 17.7844 11.9356C17.7702 12.165 17.717 12.3902 17.627 12.6016C17.4563 12.9964 17.5889 13.4747 17.9419 13.7659C18.6353 14.358 19.419 14.8353 20.2632 15.1797C20.3682 15.2199 20.4791 15.2426 20.5914 15.2469C20.7435 15.2496 20.8938 15.214 21.0284 15.1432C21.163 15.0724 21.2776 14.9687 21.3616 14.8419C21.5412 14.5718 21.7838 14.3494 22.0684 14.1937C22.353 14.0381 22.6711 13.9539 22.9955 13.9483C23.3198 13.9428 23.6406 14.0161 23.9304 14.1619C24.2201 14.3077 24.4702 14.5218 24.6589 14.7855C24.7808 14.9575 24.9586 15.0817 25.1619 15.1369C25.3653 15.1922 25.5815 15.175 25.7736 15.0883C26.5467 14.7462 27.2659 14.2934 27.9085 13.7441C28.2445 13.4602 28.3801 13.0055 28.2373 12.6162C27.8316 11.579 28.3487 10.3505 29.4234 9.89155C29.6053 9.81417 29.7967 9.76143 29.9925 9.73473C30.2005 9.70435 30.3942 9.61101 30.5476 9.46727C30.701 9.32352 30.8067 9.13626 30.8505 8.93067C30.943 8.49905 30.9931 8.05939 31 7.61801C30.9995 7.15367 30.9508 6.69063 30.8547 6.23633C30.8101 6.03548 30.7058 5.85281 30.5555 5.71233C30.4052 5.57185 30.2159 5.48013 30.0125 5.44922V5.44498ZM25.615 7.61801C25.615 8.15054 25.4571 8.67111 25.1612 9.11389C24.8653 9.55668 24.4448 9.90178 23.9528 10.1056C23.4608 10.3094 22.9195 10.3627 22.3972 10.2588C21.8749 10.1549 21.3951 9.89847 21.0186 9.52191C20.642 9.14535 20.3856 8.66559 20.2817 8.14329C20.1778 7.621 20.2311 7.07962 20.4349 6.58763C20.6387 6.09563 20.9838 5.67512 21.4266 5.37926C21.8694 5.0834 22.3899 4.92549 22.9225 4.92549C23.6354 4.92915 24.3182 5.214 24.8223 5.71815C25.3265 6.22231 25.6113 6.90504 25.615 7.61801Z" fill="#0078DB"/>
</g>
<defs>
<clipPath id="clip0_62_492">
<rect width="31" height="31" fill="white"/>
</clipPath>
</defs>
</svg>
