<svg width="12" height="12" viewBox="0 0 12 12" fill="none" xmlns="http://www.w3.org/2000/svg">
<g clip-path="url(#clip0_62_1151)">
<path d="M3.75675 7.6106C3.64618 7.6106 3.57166 7.62141 3.5332 7.63223V8.34014C3.57887 8.35095 3.63596 8.35396 3.71469 8.35396C4.00254 8.35396 4.17981 8.20853 4.17981 7.96335C4.17981 7.7428 4.02718 7.6106 3.75675 7.6106ZM5.85223 7.61781C5.73204 7.61781 5.65392 7.62862 5.60764 7.63944V9.20789C5.65392 9.21871 5.72843 9.21871 5.79574 9.21871C6.28671 9.22231 6.60641 8.95189 6.60641 8.3798C6.61001 7.88102 6.31856 7.61781 5.85223 7.61781Z" fill="white"/>
<path d="M7.20275 -0.00927734H2.39524C2.07648 -0.00927734 1.77078 0.117349 1.54538 0.342744C1.31999 0.56814 1.19336 0.873843 1.19336 1.1926V10.8076C1.19336 11.1264 1.31999 11.4321 1.54538 11.6575C1.77078 11.8829 2.07648 12.0095 2.39524 12.0095H9.6065C9.92526 12.0095 10.231 11.8829 10.4564 11.6575C10.6818 11.4321 10.8084 11.1264 10.8084 10.8076V3.59636L7.20275 -0.00927734ZM4.49732 8.51805C4.31163 8.69232 4.0376 8.77044 3.7185 8.77044C3.65663 8.77111 3.59479 8.76749 3.53342 8.75962V9.61656H2.99618V7.25127C3.23835 7.21521 3.48354 7.19838 3.72872 7.20199C4.06344 7.20199 4.30142 7.26569 4.46187 7.39369C4.6145 7.51508 4.71787 7.71399 4.71787 7.94836C4.71727 8.18392 4.63914 8.38284 4.49732 8.51805ZM6.7851 9.33232C6.5327 9.54205 6.1487 9.6418 5.67937 9.6418C5.39813 9.6418 5.19922 9.62377 5.06401 9.60575V7.25187C5.30655 7.21646 5.55145 7.19978 5.79655 7.20199C6.25146 7.20199 6.54712 7.28372 6.77788 7.45799C7.02727 7.64308 7.18352 7.93814 7.18352 8.3618C7.18352 8.82032 7.01586 9.13701 6.7851 9.33232ZM9.00557 7.66471H8.08493V8.21217H8.94547V8.65326H8.08493V9.61716H7.54048V7.22002H9.00557V7.66471ZM7.20275 4.1973H6.60181V1.1926L9.6065 4.1973H7.20275Z" fill="white"/>
</g>
<defs>
<clipPath id="clip0_62_1151">
<rect width="12" height="12" fill="white"/>
</clipPath>
</defs>
</svg>
