<svg width="21" height="21" viewBox="0 0 21 21" fill="none" xmlns="http://www.w3.org/2000/svg">
<path d="M11.7109 7.02344H9.28906V9.36719H11.7109C12.357 9.36719 12.8828 8.84133 12.8828 8.19531C12.8828 7.5493 12.357 7.02344 11.7109 7.02344Z" fill="#0078DB"/>
<path d="M17.5703 0.5H3.42969C1.81434 0.5 0.5 1.81434 0.5 3.42969V17.5703C0.5 19.1857 1.81434 20.5 3.42969 20.5H17.5703C19.1857 20.5 20.5 19.1857 20.5 17.5703V3.42969C20.5 1.81434 19.1857 0.5 17.5703 0.5ZM11.7109 11.7109H9.28906V15.8125C9.28906 16.1361 9.02672 16.3984 8.70312 16.3984H7.53125C7.20766 16.3984 6.94531 16.1361 6.94531 15.8125V5.26562C6.94531 4.94203 7.20766 4.67969 7.53125 4.67969H11.7109C13.6496 4.67969 15.2266 6.25668 15.2266 8.19531C15.2266 10.1339 13.6496 11.7109 11.7109 11.7109Z" fill="#0078DB"/>
</svg>
