<svg width="31" height="32" viewBox="0 0 31 32" fill="none" xmlns="http://www.w3.org/2000/svg">
<g clip-path="url(#clip0_225_734)">
<path d="M12.1786 17.1071H17.7187V12.6785H6.13579L7.81421 8.92088C7.99025 8.51345 8.38993 8.24995 8.83279 8.24995H15.6639C15.4478 7.1532 15.4493 6.02469 15.6683 4.92852H8.83279C7.96611 4.92804 7.11839 5.18213 6.39486 5.65923C5.67133 6.13634 5.10387 6.81544 4.76293 7.61223L2.36264 13.2144C0.964321 13.9595 0 15.4154 0 17.1071V19.3214C0 20.9533 0.896786 22.366 2.21429 23.1344V27.0714C2.21429 28.2926 3.20739 29.2857 4.42857 29.2857H7.75C8.97118 29.2857 9.96429 28.2926 9.96429 27.0714V23.7499H17.7187V19.3214H12.1786C11.8849 19.3214 11.6033 19.2047 11.3957 18.9971C11.1881 18.7895 11.0714 18.5079 11.0714 18.2142C11.0714 17.9206 11.1881 17.639 11.3957 17.4314C11.6033 17.2237 11.8849 17.1071 12.1786 17.1071ZM6.08929 20.9821C5.3552 20.9821 4.65119 20.6905 4.13212 20.1714C3.61304 19.6523 3.32143 18.9483 3.32143 18.2142C3.32143 17.4802 3.61304 16.7761 4.13212 16.2571C4.65119 15.738 5.3552 15.4464 6.08929 15.4464C6.82337 15.4464 7.52738 15.738 8.04646 16.2571C8.56553 16.7761 8.85714 17.4802 8.85714 18.2142C8.85714 18.9483 8.56553 19.6523 8.04646 20.1714C7.52738 20.6905 6.82337 20.9821 6.08929 20.9821ZM30.9136 5.45663C30.4564 2.83602 28.2576 0.961627 26.9977 0.579663C26.7851 0.515449 26.5759 0.683734 26.5759 0.905163V6.4597C26.576 6.66531 26.5188 6.86688 26.4106 7.04174C26.3025 7.21659 26.1476 7.35781 25.9636 7.44948L24.8565 8.00306C24.7028 8.08001 24.5334 8.12008 24.3616 8.12008C24.1898 8.12008 24.0203 8.08001 23.8667 8.00306L22.7595 7.44948C22.5757 7.3576 22.421 7.21634 22.3129 7.04153C22.2047 6.86672 22.1474 6.66525 22.1473 6.4597V0.905163C22.1473 0.682627 21.9369 0.514342 21.7233 0.579663C20.4622 0.970484 18.2645 2.87366 17.8106 5.47213C17.4209 7.70413 18.2579 9.89295 19.5787 11.2149C19.7957 11.4319 19.9319 11.712 19.9319 12.0187V27.0725C19.9319 28.2464 20.3982 29.3723 21.2283 30.2024C22.0584 31.0325 23.1843 31.4988 24.3583 31.4988C25.5322 31.4988 26.6581 31.0325 27.4882 30.2024C28.3183 29.3723 28.7846 28.2464 28.7846 27.0725L28.7879 12.0242C28.7879 11.7142 28.9285 11.4286 29.1478 11.2082C30.4774 9.87966 31.3023 7.68088 30.9136 5.45663ZM24.3671 28.7321C23.9265 28.7319 23.504 28.5568 23.1926 28.2451C22.8811 27.9335 22.7062 27.5109 22.7064 27.0703C22.7065 26.6297 22.8817 26.2072 23.1934 25.8957C23.505 25.5843 23.9276 25.4094 24.3682 25.4096C24.8088 25.4097 25.2313 25.5849 25.5427 25.8965C25.8542 26.2082 26.0291 26.6308 26.0289 27.0714C26.0288 27.512 25.8536 27.9345 25.542 28.2459C25.2303 28.5574 24.8077 28.7322 24.3671 28.7321Z" fill="#0078DB"/>
</g>
<defs>
<clipPath id="clip0_225_734">
<rect width="31" height="31" fill="white" transform="translate(0 0.5)"/>
</clipPath>
</defs>
</svg>
