<svg width="23" height="23" viewBox="0 0 23 23" fill="none" xmlns="http://www.w3.org/2000/svg">
<path d="M4.79169 9.58332V11.9791H18.2084V9.58332C18.2084 8.26275 19.2827 7.1875 20.6042 7.1875H21.0834V5.75C21.0834 4.95744 20.4384 4.3125 19.6459 4.3125H3.35419C2.56163 4.3125 1.91669 4.95744 1.91669 5.75V7.1875H2.39587C3.71738 7.1875 4.79169 8.26275 4.79169 9.58332Z" fill="#0078DB"/>
<path d="M21.5625 8.14587H20.6042C19.8116 8.14587 19.1667 8.79082 19.1667 9.58337V12.4584C19.1667 12.7229 18.952 12.9376 18.6875 12.9376H4.3125C4.048 12.9376 3.83332 12.7229 3.83332 12.4584V9.58337C3.83332 8.79082 3.18837 8.14587 2.39582 8.14587H1.4375C0.644943 8.14587 0 8.79082 0 9.58337V15.3334C0 16.1259 0.644943 16.7709 1.4375 16.7709H1.91668V18.2084C1.91668 18.4729 2.13136 18.6876 2.39586 18.6876H5.27086C5.53536 18.6876 5.75005 18.4729 5.75005 18.2084V16.7709H17.25V18.2084C17.25 18.4729 17.4647 18.6876 17.7292 18.6876H20.6042C20.8687 18.6876 21.0834 18.4729 21.0834 18.2084V16.7709H21.5625C22.3551 16.7709 23 16.1259 23 15.3334V9.58337C23 8.79086 22.3551 8.14587 21.5625 8.14587Z" fill="#0078DB"/>
</svg>
