<svg width="90" height="90" viewBox="0 0 90 90" fill="none" xmlns="http://www.w3.org/2000/svg">
<g clip-path="url(#clip0_62_732)">
<path d="M81.5101 28.5917L77.7816 2.48977C77.475 0.349805 74.8448 -0.539473 73.3064 0.998965L67.8758 6.42955C60.8925 2.21695 52.9644 0 44.8122 0C20.2964 0 0.613607 19.1883 0.000834046 43.6836C-0.0325644 45.0225 0.940736 46.1709 2.26419 46.3614L12.8007 47.8677C14.3715 48.0969 15.8327 46.8636 15.811 45.2208C15.5925 29.0542 28.6498 15.8203 44.8122 15.8203C48.726 15.8203 52.5935 16.6159 56.1677 18.1376L50.9329 23.3724C49.4042 24.9012 50.2718 27.5395 52.4237 27.8476L78.5257 31.5761C80.2455 31.8354 81.7567 30.3397 81.5101 28.5917ZM87.7354 43.842L77.2066 42.3381C75.8464 42.1659 74.1965 43.3315 74.1965 45.1758C74.1965 61.1685 61.1854 74.1797 45.1926 74.1797C41.3092 74.1784 37.4654 73.3983 33.8888 71.8854L38.9562 66.818C40.485 65.2892 39.6174 62.6509 37.4654 62.3428L11.3635 58.6116C9.64912 58.3668 8.13089 59.837 8.3791 61.596L12.1074 87.6981C12.4143 89.8404 15.0423 90.7237 16.5826 89.1889L22.1445 83.6297C29.0942 87.8036 37.0172 90 45.1926 90C69.59 90 89.2701 70.907 89.9987 46.5328C90.0374 45.1912 89.0641 44.0325 87.7354 43.842Z" fill="#EBECEC"/>
</g>
<defs>
<clipPath id="clip0_62_732">
<rect width="90" height="90" fill="white"/>
</clipPath>
</defs>
</svg>
