<svg width="20" height="20" viewBox="0 0 20 20" fill="none" xmlns="http://www.w3.org/2000/svg">
<g clip-path="url(#clip0_191_198)">
<path d="M19.894 14.5999C19.8698 14.5477 19.8472 14.5044 19.8262 14.4697C19.4792 13.8447 18.8161 13.0776 17.8373 12.1682L17.8166 12.1473L17.8062 12.1371L17.7958 12.1267H17.7853C17.341 11.7032 17.0597 11.4184 16.9419 11.2727C16.7263 10.9949 16.678 10.7138 16.7959 10.429C16.8791 10.2138 17.1917 9.75939 17.7331 9.06505C18.0178 8.69707 18.2433 8.40215 18.4099 8.17996C19.6109 6.58317 20.1317 5.5628 19.9719 5.11845L19.9099 5.01462C19.8682 4.9521 19.7606 4.89491 19.5872 4.84275C19.4135 4.79071 19.1914 4.7821 18.9206 4.81679L15.9216 4.8375C15.873 4.82029 15.8037 4.82189 15.7133 4.84275L15.5779 4.87409L15.5257 4.90016L15.4842 4.93149C15.4495 4.95221 15.4113 4.98865 15.3696 5.04073C15.3282 5.09263 15.2935 5.15354 15.2658 5.22295C14.9393 6.06296 14.568 6.84395 14.1514 7.5659C13.8945 7.99639 13.6586 8.36947 13.4432 8.68537C13.228 9.00115 13.0475 9.23381 12.9019 9.38295C12.756 9.53223 12.6243 9.65183 12.506 9.74217C12.388 9.83255 12.2979 9.87074 12.2355 9.85677C12.1729 9.8428 12.114 9.82894 12.0582 9.81508C11.9611 9.75257 11.883 9.66755 11.8241 9.55995C11.7649 9.45236 11.7251 9.31693 11.7043 9.15379C11.6835 8.99054 11.6713 8.85012 11.6678 8.73205C11.6645 8.61413 11.666 8.44734 11.6731 8.23215C11.6803 8.01685 11.6835 7.87118 11.6835 7.79481C11.6835 7.53096 11.6887 7.24461 11.699 6.93568C11.7095 6.62676 11.718 6.38199 11.7251 6.20167C11.7322 6.02116 11.7355 5.83019 11.7355 5.62886C11.7355 5.42753 11.7232 5.26963 11.699 5.15504C11.6748 5.04034 11.6382 4.9286 11.59 4.82178C11.5413 4.71419 11.47 4.63096 11.3765 4.57187C11.2828 4.51286 11.1663 4.46603 11.0277 4.43123C10.6597 4.34796 10.1911 4.30292 9.62173 4.29592C8.33055 4.28206 7.5009 4.36543 7.13296 4.54594C6.98717 4.6222 6.85525 4.72641 6.7373 4.85822C6.61231 5.011 6.59487 5.09438 6.68511 5.1081C7.1017 5.1705 7.39662 5.31978 7.5702 5.5558L7.63275 5.68087C7.6814 5.7711 7.72998 5.93085 7.7786 6.1599C7.82715 6.38895 7.85848 6.64233 7.87226 6.91989C7.90691 7.42676 7.90691 7.86064 7.87226 8.22158C7.83751 8.58266 7.80468 8.86376 7.77335 9.06509C7.74202 9.26642 7.69519 9.42956 7.63275 9.55448C7.5702 9.67944 7.52858 9.75581 7.50772 9.78353C7.48689 9.81125 7.46953 9.82872 7.45574 9.83558C7.36603 9.87016 7.27069 9.88785 7.17454 9.88777C7.07726 9.88777 6.95931 9.83912 6.82049 9.74188C6.68171 9.64464 6.53768 9.51108 6.3884 9.34097C6.23911 9.17082 6.07076 8.93305 5.88325 8.62763C5.69589 8.32221 5.50148 7.96123 5.30015 7.54471L5.13358 7.24264C5.02945 7.04831 4.88721 6.76536 4.7067 6.39402C4.52609 6.02255 4.36645 5.66321 4.22767 5.3161C4.17219 5.17032 4.08885 5.05933 3.97779 4.98296L3.92567 4.95163C3.89102 4.92391 3.8354 4.89447 3.7591 4.86311C3.68206 4.83162 3.60171 4.80894 3.51958 4.79549L0.666336 4.8162C0.374771 4.8162 0.176942 4.88225 0.0727748 5.01418L0.0310861 5.07658C0.0102601 5.11134 -0.000244141 5.16685 -0.000244141 5.24326C-0.000244141 5.31964 0.0205819 5.41337 0.0622705 5.52436C0.478792 6.5033 0.93175 7.4474 1.42114 8.35682C1.91054 9.26624 2.33581 9.99879 2.69671 10.5538C3.05769 11.1093 3.42563 11.6335 3.80053 12.1263C4.17544 12.6192 4.4236 12.9351 4.54502 13.0739C4.66658 13.2129 4.76207 13.3169 4.83148 13.3863L5.09186 13.6361C5.25847 13.8028 5.50313 14.0024 5.82595 14.2349C6.14884 14.4675 6.50632 14.6966 6.89855 14.9224C7.29085 15.1478 7.74724 15.3318 8.26796 15.4741C8.78861 15.6165 9.29537 15.6737 9.7883 15.6461H10.9859C11.2287 15.6251 11.4127 15.5487 11.5378 15.4169L11.5792 15.3647C11.6071 15.3233 11.6332 15.2589 11.6572 15.1723C11.6816 15.0855 11.6937 14.9899 11.6937 14.886C11.6866 14.5875 11.7093 14.3185 11.7613 14.079C11.8132 13.8396 11.8723 13.6591 11.9385 13.5375C12.0046 13.4161 12.0792 13.3136 12.1623 13.2305C12.2455 13.1473 12.3048 13.0968 12.3396 13.0794C12.3742 13.062 12.4018 13.0501 12.4226 13.043C12.5892 12.9875 12.7853 13.0413 13.0112 13.2046C13.2368 13.3677 13.4485 13.5691 13.6464 13.8085C13.8443 14.0482 14.082 14.317 14.3597 14.6155C14.6375 14.914 14.8804 15.136 15.0886 15.282L15.2968 15.4069C15.4358 15.4903 15.6163 15.5667 15.8385 15.6361C16.0603 15.7055 16.2546 15.7228 16.4215 15.6881L19.0872 15.6466C19.3509 15.6466 19.556 15.6029 19.7015 15.5163C19.8474 15.4295 19.934 15.3339 19.9619 15.2299C19.9898 15.1258 19.9913 15.0077 19.9672 14.8757C19.9425 14.744 19.9182 14.6519 19.894 14.5999Z" fill="#0078DB"/>
</g>
<defs>
<clipPath id="clip0_191_198">
<rect width="20" height="20" fill="white"/>
</clipPath>
</defs>
</svg>
