<svg width="23" height="23" viewBox="0 0 23 23" fill="none" xmlns="http://www.w3.org/2000/svg">
<g clip-path="url(#clip0_191_450)">
<path d="M13.6112 18.4489C13.8004 17.2809 13.0069 16.1807 11.8389 15.9915C10.6709 15.8023 9.57065 16.5958 9.38147 17.7638C9.1923 18.9318 9.98579 20.032 11.1538 20.2212C12.3218 20.4104 13.422 19.6169 13.6112 18.4489Z" fill="#0078DB"/>
<path d="M22.3605 7.2479C19.2731 4.16051 15.3026 2.74902 11.5 2.74902C7.69736 2.74902 3.7269 4.16051 0.639464 7.2479C-0.213782 8.10214 -0.209874 9.42491 0.631513 10.2698C1.68224 11.3322 3.05792 10.9094 3.67394 10.2727C5.76523 8.18421 8.54432 7.03403 11.5 7.03403C14.4557 7.03403 17.2348 8.18421 19.3261 10.2727C19.9421 10.9094 21.3178 11.3322 22.3685 10.2698C23.2099 9.42491 23.2138 8.10214 22.3605 7.2479Z" fill="#0078DB"/>
<path d="M11.5 9.35742C9.36973 9.35742 7.08397 10.1494 5.31275 11.9202C4.44858 12.7843 4.46579 14.1132 5.32137 14.9598C6.17089 15.8035 7.49263 15.7999 8.34192 14.9506C9.18546 14.1071 10.307 13.6426 11.4999 13.6426C12.6929 13.6426 13.8144 14.1071 14.6579 14.9506C15.5072 15.7999 16.829 15.8035 17.6785 14.9598C18.5341 14.1132 18.5513 12.7843 17.6871 11.9202C15.916 10.1494 13.6302 9.35742 11.5 9.35742Z" fill="#0078DB"/>
</g>
<defs>
<clipPath id="clip0_191_450">
<rect width="23" height="23" fill="white"/>
</clipPath>
</defs>
</svg>
