<svg width="20" height="20" viewBox="0 0 20 20" fill="none" xmlns="http://www.w3.org/2000/svg">
<g clip-path="url(#clip0_191_185)">
<path d="M19.5323 5.18863C19.1323 3.95778 17.8088 3.21236 16.5907 3.04146C12.2093 2.57602 7.79089 2.57602 3.40949 3.04146C2.19137 3.21236 0.864162 3.95051 0.467818 5.18863C-0.155777 8.36604 -0.155777 11.6344 0.467818 14.8118C0.867798 16.0408 2.19137 16.7881 3.40949 16.959C7.79089 17.4244 12.2093 17.4244 16.5907 16.959C17.8088 16.7881 19.136 16.0499 19.5323 14.8118C20.1559 11.6344 20.1559 8.36604 19.5323 5.18863ZM7.60746 13.8318V6.16676L13.8472 9.9993C11.7436 11.292 9.70191 12.5446 7.60746 13.8318Z" fill="#FF0000"/>
</g>
<defs>
<clipPath id="clip0_191_185">
<rect width="20" height="20" fill="white"/>
</clipPath>
</defs>
</svg>
