<svg width="80" height="12" viewBox="0 0 80 12" fill="none" xmlns="http://www.w3.org/2000/svg">
<path d="M-3.8147e-05 11.8281L4.25387 -0.00195312H6.84664L11.1093 11.8281H8.51656L7.67281 9.22656H3.39254L2.54 11.8281H-3.8147e-05ZM3.99899 7.17871H7.06637L5.53707 2.44141L3.99899 7.17871ZM12.0368 11.8281V-0.00195312H16.6862C17.4596 -0.00195312 18.1657 0.135742 18.8043 0.411133C19.4489 0.686523 19.9616 1.10547 20.3424 1.66797C20.7233 2.23047 20.9137 2.94824 20.9137 3.82129C20.9137 4.68262 20.7233 5.39453 20.3424 5.95703C19.9616 6.51953 19.4489 6.93848 18.8043 7.21387C18.1657 7.4834 17.4596 7.61816 16.6862 7.61816H14.5065V11.8281H12.0368ZM14.5065 5.63184H16.4577C17.026 5.63184 17.4918 5.47949 17.8551 5.1748C18.2184 4.87012 18.4 4.41895 18.4 3.82129C18.4 3.2002 18.2155 2.74023 17.8463 2.44141C17.4772 2.14258 17.0143 1.99316 16.4577 1.99316H14.5065V5.63184ZM32.5902 11.8281H30.2874V3.53125L24.8294 11.8281H22.4036V-0.00195312H24.7239V8.2334L30.1644 -0.00195312H32.5902V11.8281ZM33.5264 11.8281L37.7803 -0.00195312H40.373L44.6357 11.8281H42.043L41.1992 9.22656H36.9189L36.0664 11.8281H33.5264ZM37.5254 7.17871H40.5928L39.0635 2.44141L37.5254 7.17871ZM45.5632 11.8281V-0.00195312H48.0329V4.62109H53.0514V-0.00195312H55.5124V11.8281H53.0514V6.80078H48.0329V11.8281H45.5632ZM57.6703 11.8281V-0.00195312H60.14V4.62109H65.1586V-0.00195312H67.6195V11.8281H65.1586V6.80078H60.14V11.8281H57.6703ZM68.5469 11.8281L72.8008 -0.00195312H75.3936L79.6563 11.8281H77.0635L76.2198 9.22656H71.9395L71.087 11.8281H68.5469ZM72.5459 7.17871H75.6133L74.084 2.44141L72.5459 7.17871Z" fill="#2F5575"/>
</svg>
