<svg width="0" height="0" class="hidden">
    <symbol version="1.1" xmlns="http://www.w3.org/2000/svg" viewBox="0 0 512 512" id="risk">
        <path fill="none" stroke-linejoin="round" stroke-linecap="round" stroke-miterlimit="4" stroke-width="32" stroke="currentColor" d="M469.353 192.083v-42.667c0-11.316-4.496-22.168-12.496-30.17-8.003-8.002-18.854-12.496-30.17-12.496h-341.334c-11.316 0-22.169 4.495-30.17 12.496s-12.497 18.854-12.497 30.17v213.332c0 11.319 4.495 22.17 12.497 30.17 8.002 8.003 18.854 12.499 30.17 12.499h170.666M469.353 192.083h-341.333M469.353 192.083v42.667"></path>
        <path fill="none" stroke-linejoin="round" stroke-linecap="round" stroke-miterlimit="4" stroke-width="32" stroke="currentColor" d="M459.731 315.158l-54.528-13.846c-6.889-1.75-14.103-1.75-20.992 0l-54.528 13.846c-2.759 0.698-5.197 2.31-6.921 4.572-1.721 2.264-2.63 5.041-2.573 7.886 3.671 122.839 74.519 141.696 74.519 141.696s70.848-18.858 74.519-141.696c0.17-5.846-3.821-11.008-9.495-12.459z"></path>
    </symbol>
    <symbol version="1.1" xmlns="http://www.w3.org/2000/svg" viewBox="0 0 512 512" id="upload">
        <path fill="none" stroke-linejoin="round" stroke-linecap="round" stroke-miterlimit="4" stroke-width="32" stroke="currentColor" d="M256.021 170.75v170.668M181.354 266.75l74.667 74.668 74.667-74.668M256.021 469.418c117.825 0 213.333-95.51 213.333-213.334s-95.507-213.333-213.333-213.333c-117.824 0-213.333 95.509-213.333 213.333s95.51 213.334 213.333 213.334z"></path>
    </symbol>
    <symbol version="1.1" xmlns="http://www.w3.org/2000/svg" viewBox="0 0 512 512" id="clock">
        <path fill="none" stroke-linejoin="round" stroke-linecap="round" stroke-miterlimit="4" stroke-width="32" stroke="currentColor" d="M256 128v128h128"></path>
        <path fill="none" stroke-linejoin="round" stroke-linecap="round" stroke-miterlimit="4" stroke-width="32" stroke="currentColor" d="M256.021 469.418c117.825 0 213.333-95.51 213.333-213.334s-95.507-213.333-213.333-213.333c-117.824 0-213.333 95.509-213.333 213.333s95.51 213.334 213.333 213.334z"></path>
    </symbol>
    <symbol version="1.1" xmlns="http://www.w3.org/2000/svg" viewBox="0 0 512 512" id="format">
        <path fill="none" stroke-linejoin="miter" stroke-linecap="butt" stroke-miterlimit="4" stroke-width="32" stroke="currentColor" d="M64 157.867v-81.067c0-3.395 1.349-6.65 3.749-9.051s5.656-3.749 9.051-3.749h123.734c3.394 0 6.65 1.348 9.051 3.749s3.749 5.656 3.749 9.051v81.067c0 3.395-1.349 6.65-3.749 9.051s-5.656 3.749-9.051 3.749h-123.734c-3.395 0-6.65-1.349-9.051-3.749s-3.749-5.656-3.749-9.051zM298.666 435.2v-81.065c0-3.395 1.349-6.653 3.749-9.053s5.656-3.747 9.051-3.747h123.733c3.395 0 6.649 1.347 9.050 3.747 2.403 2.4 3.75 5.658 3.75 9.053v81.065c0 3.395-1.347 6.649-3.75 9.050-2.4 2.403-5.654 3.75-9.050 3.75h-123.733c-3.394 0-6.65-1.347-9.051-3.75-2.401-2.4-3.749-5.654-3.749-9.050zM298.666 264.534v-187.733c0-3.395 1.349-6.65 3.749-9.051s5.656-3.749 9.051-3.749h123.733c3.395 0 6.649 1.349 9.050 3.749 2.403 2.4 3.75 5.656 3.75 9.051v187.733c0 3.394-1.347 6.651-3.75 9.051-2.4 2.401-5.654 3.749-9.050 3.749h-123.733c-3.394 0-6.65-1.349-9.051-3.749s-3.749-5.656-3.749-9.051zM64 435.2v-187.733c0-3.394 1.349-6.65 3.749-9.051s5.656-3.749 9.051-3.749h123.734c3.394 0 6.65 1.349 9.051 3.749s3.749 5.656 3.749 9.051v187.733c0 3.395-1.349 6.649-3.749 9.050-2.4 2.403-5.656 3.75-9.051 3.75h-123.734c-3.395 0-6.65-1.347-9.051-3.75-2.4-2.4-3.749-5.654-3.749-9.050z"></path>
    </symbol>
    <symbol version="1.1" xmlns="http://www.w3.org/2000/svg" viewBox="0 0 512 512" id="eye">
        <path fill="none" stroke-linejoin="round" stroke-linecap="round" stroke-miterlimit="4" stroke-width="32" stroke="currentColor" d="M53.375 256.083c0 0 64-149.333 213.333-149.333s213.333 149.333 213.333 149.333c0 0-64 149.334-213.333 149.334s-213.333-149.334-213.333-149.334z"></path>
        <path fill="none" stroke-linejoin="round" stroke-linecap="round" stroke-miterlimit="4" stroke-width="32" stroke="currentColor" d="M266.709 320.083c35.346 0 63.998-28.654 63.998-64s-28.653-64-63.998-64c-35.346 0-64 28.654-64 64s28.654 64 64 64z"></path>
    </symbol>

    <symbol version="1.1" xmlns="http://www.w3.org/2000/svg" viewBox="0 0 512 512" id="people">
        <path fill="none" stroke-linejoin="round" stroke-linecap="round" stroke-miterlimit="4" stroke-width="32" stroke="currentColor" d="M330.666 448v-42.666c0-22.634-8.989-44.339-24.993-60.343-16.003-16-37.708-24.992-60.339-24.992h-128c-22.632 0-44.337 8.992-60.34 24.992-16.003 16.003-24.993 37.709-24.993 60.342v42.666M458.666 447.997v-42.666c-0.013-18.909-6.307-37.274-17.891-52.217s-27.801-25.616-46.109-30.342M330.666 66.771c18.355 4.7 34.627 15.375 46.243 30.343 11.619 14.968 17.926 33.377 17.926 52.324s-6.307 37.356-17.926 52.324c-11.616 14.968-27.888 25.643-46.243 30.343M266.666 149.333c0 47.129-38.205 85.333-85.333 85.333s-85.334-38.205-85.334-85.333c0-47.129 38.205-85.334 85.334-85.334s85.333 38.205 85.333 85.334z"></path>
    </symbol>
    <symbol version="1.1" xmlns="http://www.w3.org/2000/svg" viewBox="0 0 512 512" id="document">
        <path fill="none" stroke-linejoin="round" stroke-linecap="round" stroke-miterlimit="4" stroke-width="32" stroke="currentColor" d="M298.646 42.672v85.333c0 11.316 4.495 22.168 12.497 30.17s18.854 12.497 30.169 12.497h85.334M213.313 192.005h-42.667M341.312 277.339h-170.666M341.312 362.672h-170.666M319.979 42.672h-192c-11.316 0-22.168 4.495-30.17 12.496s-12.496 18.854-12.496 30.17v341.334c0 11.315 4.495 22.169 12.496 30.169 8.002 8.003 18.854 12.496 30.17 12.496h255.998c11.318 0 22.169-4.493 30.173-12.496 8-8 12.496-18.855 12.496-30.169v-277.334l-106.667-106.666z"></path>
    </symbol>
    <symbol version="1.1" xmlns="http://www.w3.org/2000/svg" viewBox="0 0 512 512" id="phone-cross">
        <path fill="none" stroke-linejoin="round" stroke-linecap="round" stroke-miterlimit="4" stroke-width="32" stroke="currentColor" d="M238.516 283.938c21.65 21.669 46.119 40.327 72.747 55.466l27.093-27.093c5.801-5.736 13.123-9.688 21.101-11.39s16.279-1.080 23.913 1.79c19.353 7.223 39.466 12.232 59.945 14.933 10.253 1.449 19.629 6.575 26.377 14.425 6.752 7.849 10.419 17.888 10.317 28.24v64c0.022 5.942-1.193 11.824-3.575 17.267s-5.872 10.329-10.25 14.346c-4.377 4.019-9.546 7.075-15.175 8.979s-11.591 2.611-17.51 2.077c-65.645-7.133-128.702-29.565-184.106-65.495-25.701-16.32-49.524-35.421-71.040-56.96M121.395 273.272c-35.928-55.403-58.361-118.46-65.493-184.107-0.533-5.9 0.168-11.845 2.059-17.459s4.929-10.772 8.923-15.147c3.993-4.375 8.855-7.87 14.272-10.264s11.276-3.632 17.199-3.638h64c10.353-0.102 20.391 3.565 28.24 10.316s12.977 16.126 14.427 26.378c2.701 20.481 7.71 40.591 14.933 59.947 2.87 7.636 3.492 15.935 1.79 23.912s-5.654 15.301-11.39 21.101l-27.093 27.094M480.010 42.657l-426.666 426.666"></path>
    </symbol>
    <symbol version="1.1" xmlns="http://www.w3.org/2000/svg" viewBox="0 0 512 512" id="file-cross">
        <path fill="none" stroke-linejoin="round" stroke-linecap="round" stroke-miterlimit="4" stroke-width="25.6" stroke="currentColor" d="M119.467 418.132h238.933c9.052 0 17.736-3.594 24.135-9.997 6.402-6.4 9.997-15.084 9.997-24.135v-221.867l-85.332-85.333h-153.6c-9.053 0-17.734 3.597-24.136 9.998s-9.998 15.084-9.998 24.136v68.267M290.132 76.8v68.267c0 9.053 3.597 17.734 10 24.136 6.4 6.401 15.081 9.998 24.135 9.998h68.265M187.733 256l-85.333 85.332M102.4 256l85.333 85.332"></path>
    </symbol>
    <symbol version="1.1" xmlns="http://www.w3.org/2000/svg" viewBox="0 0 512 512" id="friendship">
        <path fill="none" stroke-linejoin="round" stroke-linecap="round" stroke-miterlimit="4" stroke-width="25.6" stroke="currentColor" d="M247.467 136.533c25.601-25.6 46.761-34.133 76.801-34.133 24.894 0 48.77 9.889 66.373 27.493s27.492 41.479 27.492 66.374c0 39.083-25.769 68.949-51.2 93.865l-119.466 119.467-119.467-119.467c-25.6-24.745-51.2-54.613-51.2-93.865 0-24.895 9.889-48.77 27.493-66.374s41.479-27.493 66.374-27.493c30.037 0 51.2 8.533 76.8 34.133zM247.467 136.533l-50.516 50.518c-3.468 3.442-6.22 7.537-8.098 12.048s-2.845 9.349-2.845 14.234c0 4.887 0.967 9.724 2.845 14.235s4.631 8.606 8.098 12.048c13.995 13.995 36.352 14.507 51.2 1.195l35.328-32.427c8.855-8.035 20.385-12.486 32.341-12.486 11.958 0 23.488 4.451 32.343 12.486l50.517 45.397M349.868 307.2l-34.135-34.132M298.668 358.4l-34.135-34.132"></path>
    </symbol>
    <symbol version="1.1" xmlns="http://www.w3.org/2000/svg" viewBox="0 0 512 512" id="ruble-check">
        <path fill="none" stroke-linejoin="round" stroke-linecap="round" stroke-miterlimit="4" stroke-width="32" stroke="currentColor" d="M181.333 320h106.667M181.333 234.668h106.667c11.316 0 22.168-4.495 30.17-12.496 8.003-8.001 12.495-18.854 12.495-30.17s-4.493-22.168-12.495-30.17c-8.002-8.001-18.854-12.496-30.17-12.496h-64v213.334M96 42.668v426.666l42.666-21.334 42.667 21.334 42.667-21.334 42.666 21.334 42.667-21.334 42.666 21.334 42.666-21.334 42.669 21.334v-426.666l-42.669 21.334-42.666-21.334-42.666 21.334-42.667-21.334-42.666 21.334-42.666-21.334-42.667 21.334-42.666-21.334z"></path>
    </symbol>
    <symbol version="1.1" xmlns="http://www.w3.org/2000/svg" viewBox="0 0 512 512" id="calendar-clock">
        <path fill="none" stroke-linejoin="round" stroke-linecap="round" stroke-miterlimit="4" stroke-width="32" stroke="currentColor" d="M448 159.998v-32c0-11.316-4.496-22.168-12.496-30.17-8.003-8.002-18.855-12.496-30.169-12.496h-298.668c-11.316 0-22.168 4.495-30.17 12.496s-12.496 18.854-12.496 30.17v298.668c0 11.315 4.496 22.166 12.496 30.17 8.002 8 18.854 12.496 30.17 12.496h74.667M341.334 42.664v85.334M170.667 42.664v85.334M64 213.331h106.666M373.334 373.331l-32-25.6v-49.067M469.334 341.331c0 70.691-57.309 128-128 128-70.694 0-128.001-57.309-128.001-128 0-70.693 57.307-128 128.001-128 70.691 0 128 57.308 128 128z"></path>
    </symbol>
    <symbol version="1.1" xmlns="http://www.w3.org/2000/svg" viewBox="0 0 512 512" id="lock">
    <path fill="none" stroke-linejoin="round" stroke-linecap="round" stroke-miterlimit="4" stroke-width="32" stroke="currentColor" d="M341.334 256.002h29.865c3.395 0 6.649 1.349 9.050 3.749 2.403 2.401 3.75 5.656 3.75 9.051v145.066c0 3.395-1.347 6.649-3.75 9.053-2.4 2.4-5.654 3.747-9.050 3.747h-230.4c-3.395 0-6.65-1.347-9.051-3.747-2.4-2.403-3.749-5.658-3.749-9.053v-145.066c0-3.394 1.349-6.651 3.749-9.051s5.656-3.749 9.051-3.749h29.867M341.334 256.002v-85.334c0-28.437-17.069-85.333-85.334-85.333-68.267 0-85.334 56.896-85.334 85.333v85.334M341.334 256.002h-170.668"></path>
</symbol>
    <symbol version="1.1" xmlns="http://www.w3.org/2000/svg" viewBox="0 0 3414 512" id="logo" fill="currentColor">
        <path d="M-0.002 504.666l181.5-504.749h110.625l181.874 504.749h-110.624l-36-110.999h-182.625l-36.375 110.999h-108.375zM170.624 306.291h130.875l-65.25-202.125-65.625 202.125zM513.57 504.666v-504.749h198.375c32.999 0 63.125 5.875 90.372 17.625 27.503 11.75 49.378 29.625 65.625 53.625 16.251 24 24.375 54.625 24.375 91.875 0 36.75-8.124 67.125-24.375 91.125-16.247 24-38.123 41.875-65.625 53.625-27.247 11.5-57.374 17.25-90.372 17.25h-93v179.624h-105.374zM618.944 240.292h83.251c24.247 0 44.121-6.5 59.622-19.5s23.249-32.249 23.249-57.75c0-26.5-7.872-46.125-23.625-58.875-15.749-12.75-35.499-19.126-59.247-19.126h-83.251v155.25zM1390.515 504.666h-98.253v-353.999l-232.874 353.999h-103.501v-504.749h98.999v351.375l232.128-351.375h103.501v504.749zM1430.459 504.666l181.499-504.749h110.622l181.875 504.749h-110.622l-36.002-110.999h-182.626l-36.373 110.999h-108.373zM1601.083 306.291h130.875l-65.25-202.125-65.626 202.125zM1944.030 504.666v-504.749h105.374v197.25h214.122v-197.25h105.003v504.749h-105.003v-214.499h-214.122v214.499h-105.374zM2460.599 504.666v-504.749h105.374v197.25h214.127v-197.25h104.999v504.749h-104.999v-214.499h-214.127v214.499h-105.374zM2924.668 504.666l181.499-504.749h110.626l181.875 504.749h-110.626l-35.998-110.999h-182.626l-36.374 110.999h-108.378zM3095.291 306.291h130.876l-65.25-202.125-65.626 202.125z"></path>
    </symbol>


    <symbol version="1.1" xmlns="http://www.w3.org/2000/svg" viewBox="0 0 512 512" id="case">
        <path fill="none" stroke-linejoin="round" stroke-linecap="round" stroke-miterlimit="4" stroke-width="32" stroke="currentColor" d="M245.333 256.002h0.213M330.666 128.001v-42.666c0-11.316-4.493-22.169-12.495-30.17s-18.854-12.497-30.17-12.497h-85.334c-11.316 0-22.168 4.495-30.17 12.497s-12.496 18.854-12.496 30.17v42.666M458.666 277.334c-63.299 41.791-137.482 64.070-213.332 64.070-75.852 0-150.033-22.279-213.333-64.070M74.666 128.001h341.334c23.565 0 42.666 19.102 42.666 42.667v213.332c0 23.565-19.101 42.669-42.666 42.669h-341.334c-23.564 0-42.666-19.104-42.666-42.669v-213.332c0-23.564 19.102-42.666 42.666-42.666z"></path>
    </symbol>
    <symbol version="1.1" xmlns="http://www.w3.org/2000/svg" viewBox="0 0 512 512" id="star">
        <path fill="none" stroke-linejoin="round" stroke-linecap="round" stroke-miterlimit="4" stroke-width="32" stroke="currentColor" d="M266.646 42.668l65.921 133.547 147.411 21.547-106.666 103.894 25.175 146.774-131.84-69.334-131.84 69.334 25.173-146.774-106.666-103.894 147.413-21.547 65.92-133.547z"></path>
    </symbol>

    <symbol version="1.1" xmlns="http://www.w3.org/2000/svg" viewBox="0 0 512 512" id="book">
        <path fill="none" stroke-linejoin="round" stroke-linecap="round" stroke-miterlimit="4" stroke-width="32" stroke="currentColor" d="M245.333 149.333c0-22.632-8.99-44.337-24.994-60.34s-37.708-24.993-60.34-24.993h-128v320h149.333c16.974 0 33.252 6.743 45.255 18.745s18.745 28.281 18.745 45.255M245.333 149.333v298.667M245.333 149.333c0-22.632 8.99-44.337 24.994-60.34s37.708-24.993 60.339-24.993h128v320h-149.332c-16.974 0-33.252 6.743-45.255 18.745s-18.745 28.281-18.745 45.255M117.334 170.667h42.666M117.334 256h42.666M330.666 170.667h42.669M330.666 256h42.669"></path>
    </symbol>

    <symbol version="1.1" xmlns="http://www.w3.org/2000/svg" viewBox="0 0 512 512" id="check">
        <path fill="none" stroke-linejoin="round" stroke-linecap="round" stroke-miterlimit="4" stroke-width="42.6667" stroke="currentColor" d="M409.589 153.601l-204.799 230.399-102.4-102.399"></path>
    </symbol>

    <symbol version="1.1" xmlns="http://www.w3.org/2000/svg" viewBox="0 0 512 512" id="arrow-down">
        <path fill="none" stroke-linejoin="round" stroke-linecap="round" stroke-miterlimit="4" stroke-width="32"  stroke="currentColor" d="M394.668 204.8l-149.334 149.333-149.333-149.333"></path>
    </symbol>

    <symbol version="1.1" xmlns="http://www.w3.org/2000/svg" viewBox="0 0 512 512" id="cross">
        <path fill="none" stroke-linejoin="round" stroke-linecap="round" stroke-miterlimit="4" stroke-width="38.4" stroke="currentColor" d="M119.764 120.236l271.529 271.527M119.764 391.763l271.529-271.527"></path>
    </symbol>
</svg>