<!-- Generated by IcoMoon.io -->
<svg version="1.1" xmlns="http://www.w3.org/2000/svg" width="27044" height="512" viewBox="0 0 27044 512">
<path d="M579.745 288.57c-5.211 44.729-20.627 83.813-46.25 117.252-25.187 33.439-58.626 59.495-100.315 78.168s-89.459 28.010-143.308 28.010c-58.192 0-109.001-10.64-152.428-31.918s-77.299-51.026-101.618-89.241c-23.884-38.65-35.827-83.596-35.827-134.839s11.943-95.974 35.827-134.189c24.319-38.65 58.192-68.614 101.618-89.893s94.236-31.919 152.428-31.919c53.849 0 101.618 9.336 143.308 28.010s75.128 44.73 100.315 78.168c25.622 33.439 41.038 72.523 46.25 117.252h-168.712c-3.909-16.936-11.074-31.267-21.496-42.993-10.423-12.159-24.102-21.279-41.038-27.359-16.502-6.514-36.044-9.771-58.626-9.771-25.187 0-46.901 4.56-65.14 13.679-17.805 8.686-31.484 21.496-41.038 38.433s-14.331 37.13-14.331 60.58c0 23.45 4.778 43.644 14.331 60.58 9.553 16.502 23.233 29.313 41.038 38.433 18.239 9.12 39.953 13.68 65.14 13.68 22.582 0 42.123-2.823 58.626-8.468 16.937-6.080 30.616-14.982 41.038-26.707 10.423-12.159 17.588-27.141 21.496-44.947h168.712zM915.359 512c-59.494 0-111.606-10.64-156.336-31.918-44.295-21.279-78.82-51.026-103.572-89.241-24.753-38.65-37.13-83.596-37.13-134.839s12.376-95.974 37.13-134.189c24.753-38.65 59.278-68.614 103.572-89.893 44.731-21.279 96.842-31.919 156.336-31.919 59.495 0 111.389 10.639 155.685 31.919 44.73 21.279 79.47 51.243 104.224 89.893 24.753 38.215 37.13 82.946 37.13 134.189s-12.377 96.19-37.13 134.839c-24.753 38.215-59.494 67.963-104.224 89.241-44.295 21.279-96.189 31.918-155.685 31.918zM915.359 362.178c26.491 0 49.29-4.126 68.397-12.377 19.108-8.686 33.657-20.845 43.644-36.478 10.422-16.067 15.633-35.175 15.633-57.323s-5.211-41.038-15.633-56.672c-9.987-16.067-24.535-28.227-43.644-36.478-19.107-8.686-41.906-13.028-68.397-13.028-26.49 0-49.289 4.342-68.397 13.028-19.107 8.25-33.873 20.411-44.295 36.478-9.987 15.633-14.982 34.524-14.982 56.672s4.995 41.256 14.982 57.323c10.423 15.634 25.188 27.793 44.295 36.478 19.108 8.25 41.907 12.377 68.397 12.377zM1620.056 263.166l13.028-29.964c36.909 1.303 67.745 7.166 92.498 17.588s43.214 24.97 55.369 43.644c12.598 18.239 18.89 40.169 18.89 65.791 0 26.49-6.084 50.375-18.239 71.654-11.725 21.279-29.743 37.998-54.066 50.158s-54.717 18.239-91.196 18.239h-383.675v-488.55h369.995c45.168 0 80.552 10.639 106.178 31.919 25.626 20.845 38.432 49.941 38.432 87.287 0 21.279-4.782 41.256-14.331 59.929s-25.183 34.524-46.901 47.552c-21.274 12.594-49.937 20.845-85.985 24.753zM1416.82 463.796l-63.837-74.911h229.944c14.331 0 25.626-3.691 33.873-11.074 8.246-7.817 12.377-18.239 12.377-31.267 0-11.725-4.13-21.714-12.377-29.964-7.817-8.25-19.542-12.377-35.176-12.377h-226.035v-109.435h201.283c11.295 0 20.623-3.475 28.010-10.423 7.817-6.948 11.725-15.851 11.725-26.708 0-9.988-3.478-18.239-10.422-24.753s-16.715-9.771-29.313-9.771h-203.236l63.186-74.911v415.593zM2292.444 198.025v115.949h-368.041v-115.949h368.041zM2009.737 256v181.74l-63.837-70.351h370.646v132.885h-472.916v-488.55h469.659v132.886h-367.389l63.837-70.351v181.741zM2669.943 11.725c44.295 0 82.077 7.383 113.343 22.148 31.71 14.331 55.812 34.959 72.305 61.883 16.506 26.49 24.753 57.757 24.753 93.802s-8.247 67.528-24.753 94.453c-16.494 26.49-40.595 47.118-72.305 61.883-31.267 14.331-69.048 21.496-113.343 21.496h-206.494v-130.931h195.42c16.506 0 29.313-4.126 38.432-12.376s13.68-19.76 13.68-34.524c0-15.2-4.56-26.708-13.68-34.524-9.119-8.25-21.926-12.376-38.432-12.376h-181.089l75.563-75.563v433.181h-168.061v-488.55h284.662zM3654.807 351.755l-75.563 75.563v-415.593h168.061v488.55h-816.855v-488.55h168.061v415.593l-75.563-75.563h307.461l-75.563 75.563v-415.593h168.061v415.593l-75.563-75.563h307.461zM4261.273 198.025v115.949h-368.041v-115.949h368.041zM3978.566 256v181.74l-63.837-70.351h370.646v132.885h-472.916v-488.55h469.659v132.886h-367.39l63.837-70.351v181.741zM5106.49 11.725v488.55h-159.593v-425.364l30.616 3.909-164.153 421.455h-166.107l-164.153-419.502 30.616-4.56v424.061h-159.593v-488.55h259.908l145.913 398.005h-57.975l144.61-398.005h259.908zM5184.905 11.725h168.061v488.55h-168.061v-488.55zM5561.414 11.725h168.061v488.55h-168.061v-488.55zM5280.010 176.53h347.196v148.519h-347.196v-148.519zM6369.189 288.57c-5.211 44.729-20.636 83.813-46.249 117.252-25.196 33.439-58.626 59.495-100.315 78.168s-89.463 28.010-143.308 28.010c-58.196 0-109.005-10.64-152.427-31.918-43.435-21.279-77.308-51.026-101.618-89.241-23.894-38.65-35.827-83.596-35.827-134.839s11.934-95.974 35.827-134.189c24.31-38.65 58.183-68.614 101.618-89.893 43.422-21.279 94.231-31.919 152.427-31.919 53.845 0 101.618 9.336 143.308 28.010s75.119 44.73 100.315 78.168c25.613 33.439 41.038 72.523 46.249 117.252h-168.712c-3.908-16.936-11.074-31.267-21.496-42.993-10.422-12.159-24.102-21.279-41.038-27.359-16.507-6.514-36.048-9.771-58.626-9.771-25.196 0-46.901 4.56-65.14 13.679-17.81 8.686-31.489 21.496-41.038 38.433-9.563 16.936-14.331 37.13-14.331 60.58s4.768 43.644 14.331 60.58c9.55 16.502 23.229 29.313 41.038 38.433 18.239 9.12 39.944 13.68 65.14 13.68 22.578 0 42.119-2.823 58.626-8.468 16.936-6.080 30.616-14.982 41.038-26.707 10.422-12.159 17.588-27.141 21.496-44.947h168.712zM6561.208 84.031h168.061v416.245h-168.061v-416.245zM6385.331 11.725h519.817v149.822h-519.817v-149.822zM7312.167 263.166l13.028-29.964c36.908 1.303 67.745 7.166 92.498 17.588s43.214 24.97 55.369 43.644c12.598 18.239 18.891 40.169 18.891 65.791 0 26.49-6.084 50.375-18.239 71.654-11.725 21.279-29.743 37.998-54.066 50.158s-54.717 18.239-91.196 18.239h-383.675v-488.55h369.995c45.168 0 80.552 10.639 106.178 31.919 25.626 20.845 38.432 49.941 38.432 87.287 0 21.279-4.782 41.256-14.331 59.929s-25.183 34.524-46.901 47.552c-21.275 12.594-49.936 20.845-85.984 24.753zM7108.931 463.796l-63.837-74.911h229.944c14.331 0 25.626-3.691 33.873-11.074 8.247-7.817 12.377-18.239 12.377-31.267 0-11.725-4.13-21.714-12.377-29.964-7.817-8.25-19.542-12.377-35.176-12.377h-226.035v-109.435h201.283c11.296 0 20.623-3.475 28.010-10.423 7.817-6.948 11.725-15.851 11.725-26.708 0-9.988-3.479-18.239-10.422-24.753s-16.715-9.771-29.313-9.771h-203.236l63.186-74.911v415.593zM7631.041 500.275l93.15-164.153h2.605l181.74-324.397h181.089l-277.496 488.55h-181.089zM7719.631 440.998l-245.578-429.272h184.998l181.74 321.791-121.16 107.481zM8508.098 220.825v116.601h-197.374l-0.651-3.909c-39.084 0-73.387-6.296-102.921-18.89-29.092-13.028-51.891-31.485-68.397-55.369-16.064-23.884-24.102-51.894-24.102-84.031 0-33.004 8.038-61.666 24.102-85.984 16.507-24.319 39.306-43.209 68.397-56.672 29.534-13.896 63.837-20.845 102.921-20.845h313.975v488.55h-168.061v-446.209l75.563 75.563h-195.42c-16.494 0-29.313 3.909-38.433 11.725s-13.68 19.108-13.68 33.873c0 14.764 4.56 26.056 13.68 33.873s21.939 11.725 38.433 11.725h171.969zM8445.564 271.634l-153.079 228.641h-192.163l159.593-228.641h185.649zM8918.362 11.725h504.183v488.55h-168.061v-415.593l75.563 75.563h-317.883l70.351-54.718c3.049 23.885 5.003 47.119 5.862 69.7 1.303 22.582 1.954 44.078 1.954 64.489 0 63.837-6.071 115.731-18.239 155.685-11.725 39.953-30.395 69.266-56.021 87.939-25.613 18.673-59.056 28.010-100.316 28.010-19.099 0-37.989-2.172-56.672-6.514-18.669-3.909-35.605-9.771-50.809-17.588v-138.096c19.542 7.383 37.351 11.074 53.415 11.074 25.626 0 43.865-11.074 54.718-33.221 10.865-22.582 16.285-59.711 16.285-111.389 0-26.925-1.303-57.106-3.908-90.544-2.163-33.439-5.641-71.219-10.423-113.344zM9779.226 512c-59.499 0-111.611-10.64-156.336-31.918-44.295-21.279-78.819-51.026-103.573-89.241-24.753-38.65-37.13-83.596-37.13-134.839s12.377-95.974 37.13-134.189c24.753-38.65 59.278-68.614 103.573-89.893 44.725-21.279 96.837-31.919 156.336-31.919s111.389 10.639 155.684 31.919c44.725 21.279 79.47 51.243 104.224 89.893 24.753 38.215 37.13 82.946 37.13 134.189s-12.377 96.19-37.13 134.839c-24.753 38.215-59.499 67.963-104.224 89.241-44.295 21.279-96.185 31.918-155.684 31.918zM9779.226 362.178c26.486 0 49.285-4.126 68.397-12.377 19.112-8.686 33.651-20.845 43.644-36.478 10.423-16.067 15.633-35.175 15.633-57.323s-5.211-41.038-15.633-56.672c-9.993-16.067-24.531-28.227-43.644-36.478-19.112-8.686-41.911-13.028-68.397-13.028s-49.285 4.342-68.397 13.028c-19.112 8.25-33.873 20.411-44.295 36.478-9.993 15.633-14.982 34.524-14.982 56.672s4.989 41.256 14.982 57.323c10.423 15.634 25.183 27.793 44.295 36.478 19.112 8.25 41.911 12.377 68.397 12.377zM10526.759 11.725v149.822h-298.341l75.563-75.563v414.29h-168.061v-488.55h390.84zM10579.314 500.275v-488.55h166.758v396.702l-42.993-9.771 234.504-386.932h219.522v488.55h-166.758v-407.125l42.993 9.771-241.018 397.353h-213.007zM11796.663 288.57c-5.211 44.729-20.623 83.813-46.249 117.252-25.183 33.439-58.626 59.495-100.316 78.168s-89.45 28.010-143.308 28.010c-58.183 0-108.992-10.64-152.427-31.918-43.423-21.279-77.295-51.026-101.619-89.241-23.88-38.65-35.827-83.596-35.827-134.839s11.947-95.974 35.827-134.189c24.324-38.65 58.196-68.614 101.619-89.893 43.435-21.279 94.245-31.919 152.427-31.919 53.858 0 101.619 9.336 143.308 28.010s75.132 44.73 100.316 78.168c25.626 33.439 41.038 72.523 46.249 117.252h-168.712c-3.908-16.936-11.074-31.267-21.496-42.993-10.423-12.159-24.102-21.279-41.038-27.359-16.494-6.514-36.035-9.771-58.626-9.771-25.183 0-46.901 4.56-65.14 13.679-17.796 8.686-31.476 21.496-41.038 38.433-9.549 16.936-14.331 37.13-14.331 60.58s4.781 43.644 14.331 60.58c9.563 16.502 23.242 29.313 41.038 38.433 18.239 9.12 39.957 13.68 65.14 13.68 22.591 0 42.132-2.823 58.626-8.468 16.936-6.080 30.616-14.982 41.038-26.707 10.423-12.159 17.588-27.141 21.496-44.947h168.712zM11988.682 84.031h168.061v416.245h-168.061v-416.245zM11812.804 11.725h519.817v149.822h-519.817v-149.822zM12385.293 500.275v-488.55h166.758v396.702l-42.993-9.771 234.504-386.932h219.522v488.55h-166.758v-407.125l42.993 9.771-241.018 397.353h-213.007zM13041.148 500.275v-488.55h166.758v488.55h-166.758zM13247.641 250.789l193.466-239.064h182.392l-195.42 229.944 201.934 258.606h-196.722l-185.649-249.486zM13136.253 176.53h274.239v148.519h-274.239v-148.519zM13776.709 500.275l93.15-164.153h2.605l181.74-324.397h181.089l-277.496 488.55h-181.089zM13865.299 440.998l-245.577-429.272h184.997l181.74 321.791-121.16 107.481zM14400.359 212.356h371.298v122.463h-371.298v-122.463zM14765.142 212.356h371.298v122.463h-371.298v-122.463zM15923.852 288.57c-5.211 44.729-20.584 83.813-46.249 117.252-25.144 33.439-58.626 59.495-100.316 78.168s-89.372 28.010-143.308 28.010c-58.105 0-108.914-10.64-152.427-31.918-43.383-21.279-77.256-51.026-101.619-89.241-23.841-38.65-35.827-83.596-35.827-134.839s11.986-95.974 35.827-134.189c24.362-38.65 58.235-68.614 101.619-89.893 43.513-21.279 94.323-31.919 152.427-31.919 53.936 0 101.619 9.336 143.308 28.010s75.172 44.73 100.316 78.168c25.665 33.439 41.038 72.523 46.249 117.252h-168.712c-3.908-16.936-11.074-31.267-21.496-42.993-10.423-12.159-24.102-21.279-41.038-27.359-16.415-6.514-35.958-9.771-58.626-9.771-25.144 0-46.901 4.56-65.14 13.679-17.718 8.686-31.397 21.496-41.038 38.433-9.511 16.936-14.331 37.13-14.331 60.58s4.82 43.644 14.331 60.58c9.64 16.502 23.32 29.313 41.038 38.433 18.239 9.12 39.996 13.68 65.14 13.68 22.668 0 42.21-2.823 58.626-8.468 16.936-6.080 30.616-14.982 41.038-26.707 10.423-12.159 17.588-27.141 21.496-44.947h168.712zM16259.452 512c-59.407 0-111.52-10.64-156.336-31.918-44.295-21.279-78.819-51.026-103.573-89.241-24.753-38.65-37.13-83.596-37.13-134.839s12.377-95.974 37.13-134.189c24.753-38.65 59.278-68.614 103.573-89.893 44.817-21.279 96.928-31.919 156.336-31.919 59.538 0 111.389 10.639 155.684 31.919 44.817 21.279 79.47 51.243 104.224 89.893 24.753 38.215 37.13 82.946 37.13 134.189s-12.376 96.19-37.13 134.839c-24.753 38.215-59.408 67.963-104.224 89.241-44.295 21.279-96.147 31.918-155.684 31.918zM16259.452 362.178c26.577 0 49.376-4.126 68.397-12.377 19.151-8.686 33.743-20.845 43.644-36.478 10.423-16.067 15.633-35.175 15.633-57.323s-5.211-41.038-15.633-56.672c-9.901-16.067-24.493-28.227-43.644-36.478-19.021-8.686-41.82-13.028-68.397-13.028-26.447 0-49.246 4.342-68.397 13.028-19.021 8.25-33.873 20.411-44.295 36.478-9.901 15.633-14.982 34.524-14.982 56.672s5.081 41.256 14.982 57.323c10.423 15.634 25.274 27.793 44.295 36.478 19.151 8.25 41.95 12.377 68.397 12.377zM16964.267 263.166l13.028-29.964c36.869 1.303 67.746 7.166 92.499 17.588s43.123 24.97 55.369 43.644c12.507 18.239 18.891 40.169 18.891 65.791 0 26.49-6.123 50.375-18.239 71.654-11.725 21.279-29.834 37.998-54.066 50.158-24.362 12.159-54.717 18.239-91.196 18.239h-383.675v-488.55h369.995c45.077 0 80.513 10.639 106.178 31.919 25.535 20.845 38.432 49.941 38.432 87.287 0 21.279-4.821 41.256-14.331 59.929-9.641 18.673-25.274 34.524-46.901 47.552-21.366 12.594-50.028 20.845-85.984 24.753zM16761.030 463.796l-63.837-74.911h229.944c14.331 0 25.535-3.691 33.873-11.074 8.208-7.817 12.376-18.239 12.376-31.267 0-11.725-4.169-21.714-12.376-29.964-7.817-8.25-19.542-12.377-35.176-12.377h-226.036v-109.435h201.283c11.204 0 20.584-3.475 28.010-10.423 7.817-6.948 11.725-15.851 11.725-26.708 0-9.988-3.518-18.239-10.423-24.753-7.035-6.514-16.806-9.771-29.313-9.771h-203.236l63.186-74.911v415.593zM17636.641 198.025v115.949h-368.040v-115.949h368.040zM17353.934 256v181.74l-63.837-70.351h370.646v132.885h-472.916v-488.55h469.659v132.886h-367.39l63.837-70.351v181.741zM18014.062 11.725c44.295 0 82.076 7.383 113.343 22.148 31.788 14.331 55.89 34.959 72.305 61.883 16.546 26.49 24.753 57.757 24.753 93.802s-8.208 67.528-24.753 94.453c-16.415 26.49-40.517 47.118-72.305 61.883-31.267 14.331-69.049 21.496-113.343 21.496h-206.494v-130.931h195.42c16.546 0 29.313-4.126 38.432-12.376s13.679-19.76 13.679-34.524c0-15.2-4.56-26.708-13.679-34.524-9.12-8.25-21.887-12.376-38.432-12.376h-181.089l75.563-75.563v433.181h-168.061v-488.55h284.661zM18998.978 351.755l-75.563 75.563v-415.593h168.061v488.55h-816.855v-488.55h168.061v415.593l-75.563-75.563h307.461l-75.563 75.563v-415.593h168.061v415.593l-75.563-75.563h307.461zM19605.431 198.025v115.949h-368.040v-115.949h368.040zM19322.724 256v181.74l-63.837-70.351h370.646v132.885h-472.916v-488.55h469.659v132.886h-367.39l63.837-70.351v181.741zM19698.321 11.725h168.061v488.55h-168.061v-488.55zM20074.829 11.725h168.061v488.55h-168.061v-488.55zM19793.425 176.53h347.196v148.519h-347.196v-148.519zM20882.565 288.57c-5.211 44.729-20.584 83.813-46.25 117.252-25.144 33.439-58.626 59.495-100.316 78.168s-89.502 28.010-143.308 28.010c-58.235 0-109.044-10.64-152.428-31.918s-77.256-51.026-101.619-89.241c-23.841-38.65-35.827-83.596-35.827-134.839s11.986-95.974 35.827-134.189c24.362-38.65 58.235-68.614 101.619-89.893s94.193-31.919 152.428-31.919c53.805 0 101.619 9.336 143.308 28.010s75.172 44.73 100.316 78.168c25.665 33.439 41.038 72.523 46.25 117.252h-168.713c-3.909-16.936-11.074-31.267-21.496-42.993-10.423-12.159-24.102-21.279-41.038-27.359-16.546-6.514-36.088-9.771-58.626-9.771-25.144 0-46.901 4.56-65.14 13.679-17.849 8.686-31.528 21.496-41.038 38.433s-14.331 37.13-14.331 60.58c0 23.45 4.821 43.644 14.331 60.58 9.511 16.502 23.19 29.313 41.038 38.433 18.239 9.12 39.996 13.68 65.14 13.68 22.538 0 42.081-2.823 58.626-8.468 16.936-6.080 30.616-14.982 41.038-26.707 10.423-12.159 17.588-27.141 21.496-44.947h168.713zM21074.597 84.031h168.061v416.245h-168.061v-416.245zM20898.719 11.725h519.817v149.822h-519.817v-149.822zM21825.531 263.166l13.028-29.964c36.869 1.303 67.746 7.166 92.499 17.588s43.253 24.97 55.369 43.644c12.637 18.239 18.891 40.169 18.891 65.791 0 26.49-6.123 50.375-18.239 71.654-11.725 21.279-29.704 37.998-54.066 50.158s-54.717 18.239-91.196 18.239h-383.675v-488.55h369.995c45.207 0 80.513 10.639 106.178 31.919 25.665 20.845 38.432 49.941 38.432 87.287 0 21.279-4.821 41.256-14.331 59.929s-25.144 34.524-46.901 47.552c-21.235 12.594-49.897 20.845-85.984 24.753zM21622.294 463.796l-63.837-74.911h229.944c14.331 0 25.665-3.691 33.873-11.074 8.208-7.817 12.376-18.239 12.376-31.267 0-11.725-4.169-21.714-12.376-29.964-7.817-8.25-19.542-12.377-35.176-12.377h-226.036v-109.435h201.283c11.335 0 20.584-3.475 28.010-10.423 7.817-6.948 11.725-15.851 11.725-26.708 0-9.988-3.518-18.239-10.423-24.753s-16.676-9.771-29.313-9.771h-203.236l63.186-74.911v415.593zM22340.918 512c-59.538 0-111.65-10.64-156.336-31.918-44.295-21.279-78.82-51.026-103.572-89.241-24.753-38.65-37.13-83.596-37.13-134.839s12.376-95.974 37.13-134.189c24.753-38.65 59.278-68.614 103.572-89.893 44.686-21.279 96.798-31.919 156.336-31.919s111.39 10.639 155.684 31.919c44.686 21.279 79.47 51.243 104.224 89.893 24.753 38.215 37.13 82.946 37.13 134.189s-12.376 96.19-37.13 134.839c-24.753 38.215-59.538 67.963-104.224 89.241-44.295 21.279-96.146 31.918-155.684 31.918zM22340.918 362.178c26.447 0 49.246-4.126 68.397-12.377 19.151-8.686 33.612-20.845 43.644-36.478 10.423-16.067 15.633-35.175 15.633-57.323s-5.211-41.038-15.633-56.672c-10.032-16.067-24.493-28.227-43.644-36.478-19.151-8.686-41.95-13.028-68.397-13.028s-49.246 4.342-68.397 13.028c-19.151 8.25-33.873 20.411-44.295 36.478-10.032 15.633-14.982 34.524-14.982 56.672s4.95 41.256 14.982 57.323c10.423 15.634 25.144 27.793 44.295 36.478 19.151 8.25 41.95 12.377 68.397 12.377zM23045.602 263.166l13.028-29.964c37 1.303 67.746 7.166 92.499 17.588s43.253 24.97 55.369 43.644c12.637 18.239 18.891 40.169 18.891 65.791 0 26.49-5.993 50.375-18.239 71.654-11.725 21.279-29.704 37.998-54.066 50.158-24.232 12.159-54.717 18.239-91.196 18.239h-383.675v-488.55h369.995c45.207 0 80.643 10.639 106.178 31.919 25.665 20.845 38.432 49.941 38.432 87.287 0 21.279-4.69 41.256-14.331 59.929-9.511 18.673-25.144 34.524-46.901 47.552-21.235 12.594-49.897 20.845-85.984 24.753zM22842.365 463.796l-63.837-74.911h229.944c14.331 0 25.665-3.691 33.873-11.074 8.338-7.817 12.376-18.239 12.376-31.267 0-11.725-4.038-21.714-12.376-29.964-7.817-8.25-19.542-12.377-35.176-12.377h-226.036v-109.435h201.283c11.335 0 20.714-3.475 28.010-10.423 7.817-6.948 11.725-15.851 11.725-26.708 0-9.988-3.388-18.239-10.423-24.753-6.905-6.514-16.676-9.771-29.313-9.771h-203.236l63.186-74.911v415.593zM23374.037 418.199v-133.537h332.865v133.537h-332.865zM23655.442 11.725l214.31 488.55h-179.135l-168.713-414.29h42.993l-168.713 414.29h-179.135l214.31-488.55h224.082zM23983.618 84.031h168.061v416.245h-168.061v-416.245zM23807.739 11.725h519.817v149.822h-519.817v-149.822zM24380.19 500.275v-488.55h168.061v433.18l-75.563-75.563h181.089c16.546 0 29.313-4.126 38.432-12.377s13.679-19.76 13.679-34.524c0-15.2-4.56-26.707-13.679-34.524-9.12-8.25-21.887-12.377-38.432-12.377h-195.42v-130.931h206.494c44.295 0 82.076 7.383 113.343 22.148 31.658 14.331 55.76 34.958 72.305 61.883 16.546 26.49 24.753 57.757 24.753 93.802s-8.208 67.528-24.753 94.453c-16.546 26.49-40.647 47.118-72.305 61.883-31.267 14.331-69.049 21.496-113.343 21.496h-284.661zM25813.268 11.725v488.55h-159.593v-425.364l30.616 3.909-164.153 421.455h-166.107l-164.153-419.502 30.616-4.56v424.061h-159.593v-488.55h259.909l145.913 398.005h-57.975l144.61-398.005h259.909zM25891.696 500.275v-488.55h166.758v396.702l-42.993-9.771 234.504-386.932h219.521v488.55h-166.758v-407.125l42.993 9.771-241.018 397.353h-213.007zM26832.188 11.725c44.295 0 82.076 7.383 113.343 22.148 31.658 14.331 55.76 34.959 72.305 61.883 16.415 26.49 24.753 57.757 24.753 93.802s-8.338 67.528-24.753 94.453c-16.546 26.49-40.647 47.118-72.305 61.883-31.267 14.331-69.049 21.496-113.343 21.496h-206.494v-130.931h195.42c16.415 0 29.313-4.126 38.432-12.376s13.679-19.76 13.679-34.524c0-15.2-4.56-26.708-13.679-34.524-9.12-8.25-22.018-12.376-38.432-12.376h-181.089l75.563-75.563v433.181h-168.061v-488.55h284.661z"></path>
</svg>
