<svg width="277" height="115" viewBox="0 0 277 115" fill="none" xmlns="http://www.w3.org/2000/svg">
<path d="M61.9756 0L76.5365 14.5608H89.982L29.0817 75.6432V61.9747L69.256 21.6181L62.1378 14.5L14.5614 14.5608V43.5405L29.0412 29.0202H41.4727L14.5614 55.9313V100.384H59.0959L86.0477 73.4124V85.8641L71.5882 100.364L100.406 100.384V52.7474L93.3079 45.6698L53.1539 85.8641H39.323L100.406 24.6195V38.43L114.967 52.9908V0H61.9756Z" fill="#9E9D9D"/>
<path d="M107.686 60.0278V107.665H7.28045V7.2804H54.938L47.6575 0H0V114.945H107.686H114.966V67.3082L107.686 60.0278Z" fill="#9E9D9D"/>
<path d="M277 107.685H122.224V114.945H277V107.685Z" fill="#9E9D9D"/>
<path fill-rule="evenodd" clip-rule="evenodd" d="M241.897 0.102539H166.497V18.9221H192.435V79.7814H203.893L211.234 64.0038V18.9221H233.116L241.897 0.102539Z" fill="#9E9D9D"/>
<path fill-rule="evenodd" clip-rule="evenodd" d="M164.143 28.3896H141.024H132.953H130.884L122.691 46.0127L122.224 47.1889V100.403H141.024V47.1889H164.143V59.4581H154.125L145.384 78.2574H164.143H182.963V47.1889V28.3896H164.143Z" fill="#9E9D9D"/>
<path fill-rule="evenodd" clip-rule="evenodd" d="M276.98 100.403V29.3022V28.3896H236.765L203.243 100.403H223.887L248.548 47.27H258.181V100.403H276.98Z" fill="#9E9D9D"/>
</svg>
