<svg width="0" height="0" class="hidden">
    <symbol version="1.1" xmlns="http://www.w3.org/2000/svg" viewBox="0 0 512 512" id="level-exp">
        <path fill="none" stroke-linejoin="miter" stroke-linecap="butt" stroke-miterlimit="4" stroke-width="40.96" stroke="currentColor" d="M180.16 45.3c47.647-35.029 114.487-32.717 158.9 5.2h0.019c27.077 23.093 42.603 51.519 45.801 86.34 3.226 35.129-6.39 66.267-25.78 91.26l-25.62 33.041h34.32c24.863 21.315 47.089 38.255 67 59.279 26.845 28.353 41.372 58.171 34.56 94.74-7.791 41.798-44.239 74.756-84.4 75.361-85.562 1.27-171.153 1.399-256.64-0.062-32.422-0.549-56.782-16.21-73.3-44.998l-3.2-5.941c-16.194-31.935-14.246-62.462 5.68-91.959 11.863-17.562 25.357-34.132 40.26-48.279 15.048-14.285 31.709-24.135 52.94-39.94l16.38-12.2-12.16-16.421c-25.811-34.875-34.641-73.383-23.14-116.159 7.685-28.581 24.019-51.344 48.38-69.26z"></path>
    </symbol>
    <symbol version="1.1" xmlns="http://www.w3.org/2000/svg" viewBox="0 0 512 512" id="level-customs">
        <path fill="currentColor" d="M250.84 128.817l59.54 25.231 0.057 1.212 0.307 5.404c2.401 42.367-13.031 67.225-26.557 80.654-14.82 14.683-30.468 19.029-31.346 19.269h-0.019l-2.231 0.596-0.518 0.135-0.5-0.135-2.231-0.596h-0.019c-0.852-0.233-16.514-4.555-31.346-19.269-13.526-13.429-28.958-38.286-26.557-80.654l0.308-5.404 0.058-1.212 60.289-25.558 0.768 0.327zM210.476 168.375c-0.207 25.994 7.613 42.811 16.52 53.558 8.621 10.401 18.361 15.215 23.097 17.096 4.702-1.864 14.435-6.663 23.056-17.058 8.913-10.744 16.747-27.573 16.539-53.596l-39.615-16.788-39.597 16.788z"></path>
        <path fill="currentColor" d="M250.072 70.904c14.765 0 32.124 5.907 53.154 18.115 21.049 12.221 45.969 30.856 75.942 56.538 19.091 16.368 46.155 26.149 68.712 31.827 22.51 5.666 40.286 7.188 40.576 7.212 5.506 0.452 9.752 5.065 9.752 10.596-0.004 83.058-50.072 112.031-57.829 116.019l-4.23 46.346-0.057 0.596-0.366 0.461c-12.774 15.827-66.448 72.828-185.653 72.828-119.183-0.004-177.18-57.504-190.462-72.769l-2.827-3.269h2.231l-4.385-47.192c-15.091-9.704-52.652-41.078-52.654-113.020 0-5.55 4.244-10.163 9.769-10.615 0.29-0.024 18.067-1.546 40.577-7.212 22.557-5.678 49.62-15.459 68.712-31.827 29.965-25.674 54.88-44.301 75.923-56.519 21.018-12.203 38.351-18.113 53.116-18.115zM91.284 359.345c24.511 20.11 75.548 50.808 158.827 50.808 83.446-0.002 132.226-30.831 155.077-50.808h-313.904zM80.168 338.077h334.981l3.789-25.385h-342.77l4 25.385zM250.072 92.192c-8.263 0.002-18.316 3.142-29.192 8.308-10.843 5.148-22.329 12.21-33.405 19.846-22.15 15.273-42.493 32.726-52.596 41.385-32.016 27.424-80.481 38.142-105.308 42.038-3.487 0.547-5.94 3.734-5.616 7.308 5.106 54.467 35.894 75.695 43.923 80.346h364.404c8.029-4.649 38.798-25.877 43.923-80.346 0.325-3.573-2.128-6.761-5.616-7.308-24.83-3.879-73.293-14.615-105.306-42.038-10.094-8.659-30.445-26.112-52.596-41.385-11.077-7.636-22.562-14.698-33.404-19.846-10.884-5.168-20.949-8.308-29.212-8.308z"></path>
    </symbol>
    <symbol version="1.1" xmlns="http://www.w3.org/2000/svg" viewBox="0 0 512 512" id="level-engineering">
        <path fill="currentColor" d="M507.953 271.598c-2.773-3.619-10.443-11.348-15.986-16.899l-2.486-14.44-14.295-10.048c-4.645-20.554-22.143-85.132-64.704-125.15-5.185-4.849-10.479-8.749-15.808-11.841l-32.479-18.024c-1.583-2.143-9.181-11.208-27.832-17.567l-6.914-2.073c-14.332-3.76-33.993-5.797-60.457-3.162-4.322 0.422-42.742 5.094-76.481 35.487-43.065 18.059-77.345 58.605-99.165 117.491-11.522 31.024-16.888 60.115-19.048 74.627-2.377 0.913-4.501 1.966-6.338 3.231l-1.621 1.194c-1.836 1.476-3.313 3.197-4.429 5.096-1.62 2.81-2.989 6.605-2.917 23.539-60.673 44.411-57.721 60.046-56.568 66.054 3.637 19.043 33.559 38.402 46.27 45.816l0.396 0.211c4.249 2.248 42.237 22.065 72.663 27.757 30.967 5.798 122.21 7.87 123.074 7.906h0.721l0.721-0.070c2.412-0.283 24.303-3.092 50.878-19.010 24.701-14.791 77.488-46.553 77.525-46.588l3.529-2.144 1.835-3.547c0.361-0.668 3.277-6.22 7.995-13.668 15.517-4.743 42.992-13.492 58.476-20.413 2.375 5.024 5.509 13.456 7.813 23.644l6.050 26.493 7.452-7.87 3.242-3.408 8.137-8.573c1.153-1.194 11.236-12.262 11.236-32.745v-1.125c0-14.336-0.397-25.543-1.37-34.433 1.224 0 2.377-0.070 3.422-0.246 4.573-0.702 12.962-3.795 18.219-16.444 1.262-3.055 7.166-18.832-0.793-29.161l0.037 0.104zM125.263 424.962c-20.416-3.83-49.474-17.146-63.914-24.629-14.763-8.678-27.906-19.71-31.435-24.875 3.204-4.709 13.179-14.723 28.302-27.019l22.793 26.317 10.298-3.76c7.058 5.269 18.76 12.050 36.728 17.039 21.28 5.939 57.9 10.471 76.337 12.474 0.793 1.721 1.763 3.338 2.953 4.743 3.311 3.934 7.994 6.359 13.214 6.815 4.536 0.422 21.498 1.159 37.593 1.159 11.918 0 20.992-0.422 26.968-1.264 2.089-0.283 4.034-0.668 5.87-1.089-4.067 2.423-7.813 4.671-11.090 6.639-18.039 10.822-33.559 14.090-37.952 14.863-19.228-0.457-92.865-2.916-116.666-7.379v-0.035zM171.605 168.091c14.007 2.987 23.621 4.427 29.418 4.427 4.142 0 7.093-0.702 9.757-2.284 3.242-1.898 4.645-3.97 7.635-8.537 30.391-45.992 64.273-69.567 99.309-69.603-14.692 6.219-25.207 13.808-28.123 16.056-50.051 35.135-73.095 95.321-83.647 139.626-11.233 47.291-11.018 87.030-11.018 87.38l0.072 8.151 11.703 6.605c-0.18 9.945-0.217 17.041-0.217 22.137-17.895-2.003-51.995-6.289-70.467-11.42-20.849-5.798-29.671-14.406-30.499-15.25l-6.445-7.695-9.182 3.373-3.025-3.478c-0.108-2.248-0.216-4.498-0.288-6.746 5.149 0.457 11.126-0.598 15.231-1.688l4.141 0.844 8.462 3.584 0.108-11.77 0.216-12.402c0.684-16.128 6.085-101.505 45.406-156.245l-1.692 12.121 13.143 2.775v0.035zM190.905 142.828l0.432-3.268 6.194 1.37c-0.612 0.879-1.225 1.792-1.837 2.706-1.44-0.21-3.097-0.527-4.753-0.808h-0.036zM447.856 281.225l0.538 7.764c-12.853 7.099-29.022 16.197-42.596 24.209l-1.405 0.807c-1.045 0.563-2.195 0.985-3.457 1.265l-1.548-14.827 0.901-0.457v-1.685c0.541 0 1.116 0 1.692 0 8.931 0 30.247-9.839 63.482-29.233l2.521 2.459c1.405 1.37 2.882 2.846 4.356 4.322l-5.435 2.951c0 0-2.521 1.37-6.519 3.549l-12.567-1.159 0.037 0.035zM232.241 384.031c0-0.844-0.035-1.688-0.18-2.566-0.107-1.37-0.215-6.324-0.143-17.426 4.464 0.070 9.687 0.142 15.231 0.142 15.016 0 27.185-0.457 36.403-1.37v5.445c0 3.758 1.514 7.168 3.926 9.732v3.971c-1.153 0.561-3.205 1.333-6.553 1.79-10.551 1.476-34.892 0.95-48.718 0.283h0.035zM312.754 368.29v-9.416c28.267-5.902 37.269-16.022 48.791-31.234l0.541-0.702c3.277-4.358 8.317-8.608 13.286-12.228l0.758 7.24c-7.131 6.359-15.016 15.317-22.723 24.066-5.435 6.185-14.476 16.444-17.678 18.692-3.457 1.3-13.036 3.303-23.046 5.024 0.037-0.491 0.072-0.948 0.072-1.44zM380.197 267.768l-9.072 3.619v8.223l-2.521 5.058c-9.218 5.693-21.893 14.723-29.958 25.334l-0.504 0.668c-8.282 10.926-12.315 16.195-29.995 20.060-2.702-2.457-6.193-3.827-9.902-3.865l-73.853-0.35c1.405-31.199 11.451-145.6 82.495-195.421l0.611-0.457c1.945-1.581 47.71-37.981 82.711-5.094 34.136 32.114 50.303 86.080 55.524 107.056-11.342 7.905-34.818 22.908-65.569 35.135l0.035 0.035z"></path>
    </symbol>
    <symbol version="1.1" xmlns="http://www.w3.org/2000/svg" viewBox="0 0 433 512" id="level-project">
        <path stroke-linejoin="miter" stroke-linecap="butt" stroke-miterlimit="4" stroke-width="7.8769" stroke="currentColor" fill="currentColor" d="M209.060 4.231l-205.122 87.458v307.339l210.327 97.51 211.017-105.495v-307.909l-216.221-78.903zM214.052 175.749l-94.969-40.283 177.649-86.603 107.041 39.047-189.721 87.838zM209.392 16.993l71.82 26.213-176.626 86.127-79.52-33.724 184.327-78.617zM15.82 104.594l82.99 35.197v53.45l11.882 5.229v-53.663l97.512 41.376v294.459l-192.385-89.195v-286.852zM220.087 480.354v-294.292l193.286-89.478v287.138l-193.286 96.632z"></path>
        <path stroke-linejoin="miter" stroke-linecap="butt" stroke-miterlimit="4" stroke-width="7.8769" stroke="currentColor" fill="currentColor" d="M241.272 425.854l155.784-79.305v-206.097l-155.784 73.079v212.322zM253.155 221.089l132.019-61.934v180.097l-132.019 67.21v-185.374z"></path>
        <path fill="currentColor" d="M120.71 344.154l-30.373-59.77-30.373 31.442 16.327 7.605v76.312l28.091 13.119v-76.312l16.327 7.603z"></path>
        <path fill="currentColor" d="M197.47 379.943l-30.372-59.77-30.373 31.442 16.327 7.605v76.312l28.091 13.094v-76.288l16.327 7.605z"></path>
    </symbol>
    <symbol version="1.1" xmlns="http://www.w3.org/2000/svg" viewBox="0 0 512 512" id="arrow-right">
        <path fill="none" stroke-linejoin="miter" stroke-linecap="butt" stroke-miterlimit="4" stroke-width="34.1333" stroke="currentColor" d="M506.856 243.674h-482.719M24.137 243.674l214.542-214.542M24.137 243.674l214.542 214.542"></path>
    </symbol>
    <symbol version="1.1" xmlns="http://www.w3.org/2000/svg" viewBox="0 0 512 512" id="arrow-left">
        <path fill="none" stroke-linejoin="miter" stroke-linecap="butt" stroke-miterlimit="4" stroke-width="34.1333" stroke="currentColor" d="M-0.001 243.676h482.718M482.717 243.676l-214.541 214.541M482.717 243.676l-214.541-214.542"></path>
    </symbol>
    <symbol version="1.1" xmlns="http://www.w3.org/2000/svg" viewBox="0 0 574 512" id="prin-2">
        <path fill="currentColor" d="M139.553 430.904v-165.663h100.221v5.169c0 40.62-0.071 81.24 0.102 121.86 0.014 4.452-1.489 6.38-5.563 7.825-26.925 9.462-53.732 19.288-80.671 28.676-4.279 1.489-9.096 1.417-14.090 2.132z"></path>
        <path fill="currentColor" d="M239.452 247.081h-99.754v-165.971c3.548 0.759 7.023 0.891 9.943 2.249 28.399 13.112 56.696 26.442 85.036 39.685 2.861 1.344 5.212 2.54 5.198 6.614-0.16 38.079-0.102 76.16-0.117 114.224 0 0.876-0.174 1.768-0.321 3.199h0.014z"></path>
        <path fill="currentColor" d="M415.305 265.3v165.546c-4.671-0.57-9.3-0.336-13.345-1.751-27.466-9.579-54.784-19.553-82.19-29.291-2.759-0.977-4.848-1.825-4.848-5.445 0.103-42.257 0.074-84.525 0.088-126.781 0-0.686 0.233-1.372 0.409-2.277h99.885z"></path>
        <path fill="currentColor" d="M415.115 247.112h-100.147v-6.075c0-36.43 0.072-72.874-0.103-109.304-0.029-4.453 1.298-6.804 5.402-8.688 28.399-13.097 56.666-26.501 85.051-39.642 2.788-1.299 6.118-1.431 9.781-2.234v165.956l0.014-0.014z"></path>
        <path fill="currentColor" d="M497.312 450.151c-2.425 0-4.38-1.958-4.38-4.38v-441.389c0-2.424-1.956-4.38-4.38-4.38h-421.897c-2.424 0-4.38 1.956-4.38 4.38v441.389c0 2.423-1.956 4.38-4.38 4.38h-53.513c-2.424 0-4.38 1.956-4.38 4.38v53.089c0 2.425 1.956 4.38 4.38 4.38h546.443c2.425 0 4.38-1.956 4.38-4.38v-53.089c0-2.425-1.956-4.38-4.38-4.38h-53.512zM128.504 61.85h298.197c2.423 0 4.38 1.956 4.38 4.381v379.554c0 2.425-1.958 4.38-4.38 4.38h-298.197c-2.424 0-4.38-1.956-4.38-4.38v-379.554c0-2.424 1.957-4.38 4.38-4.38z"></path>
    </symbol>
    <symbol version="1.1" xmlns="http://www.w3.org/2000/svg" viewBox="0 0 493 512" id="prin-1">
        <path fill="currentColor" d="M132.684 0c75.588 0 151.187 0 226.774 0 2.227 2.603 5.49 4.856 6.526 7.872 20.742 59.778 60.349 101.43 118.845 125.15 6.563 2.667 8.558 6.112 6.952 12.87-4.608 19.486-8.881 39.088-14.137 58.406-15.265 56.101-36.253 109.834-68.053 158.838-32.473 50.031-73.929 90.464-127.067 118.171-10.964 5.723-22.373 10.604-33.572 15.874h-5.813c-1.981-0.971-3.924-2.072-5.969-2.913-33.832-14.034-64.57-33.016-91.94-57.423-42.079-37.508-72.531-83.368-95.785-134.329-22.593-49.601-37.574-101.649-48.669-154.904-1.916-9.232-0.596-11.691 7.549-15.032 57.681-23.616 96.834-64.931 117.356-123.868 1.359-3.923 3.289-6.914 7.004-8.713zM55.361 165.805c1.23 4.92 2.421 9.788 3.677 14.631 13.439 51.493 31.281 101.21 59.196 146.823 30.465 49.784 70.434 89.389 123.453 114.897 3.005 1.45 5.374 1.683 8.532 0.168 46.391-22.333 83.214-55.635 112.41-97.778 27.591-39.825 46.416-83.783 60.672-129.838 5.049-16.302 9.334-32.834 13.933-49.136-1.477-0.958-2.253-1.528-3.096-2.007-45.769-26.206-80.235-63.015-102.945-110.713-1.514-3.198-3.611-3.405-6.486-3.405-52.32 0.052-104.627 0.078-156.948-0.052-3.742 0-5.594 1.010-7.263 4.506-17.79 37.146-43.219 68.078-76.312 92.549-9.18 6.785-18.968 12.779-28.821 19.357z"></path>
        <path fill="currentColor" d="M219.472 416.3v-38.17c-26.387-5.527-49.718-16.74-68.996-36.447 11.329-10.733 22.464-21.299 33.262-31.527 5.762 4.067 10.94 8.456 16.742 11.705 24.677 13.776 50.495 15.899 77.037 6.099 9.065-3.353 16.366-9.13 17.544-19.565 1.452-12.844-2.887-23.357-14.074-30.503-9.503-6.073-20.12-9.543-30.698-13.091-14.992-5.036-30.155-9.592-44.928-15.198-14.98-5.685-28.225-14.294-38.323-27.138-10.539-13.4-14.928-28.847-14.618-45.666 0.543-29.171 15.161-49.563 40.435-62.601 7.613-3.923 16.145-6.046 24.212-9.128 1.024-0.388 2.499-1.567 2.499-2.395 0.090-12.442-0.025-24.885-0.090-37.328h46.521c0.063 10.837 0.258 21.687 0.128 32.524-0.038 3.133 0.764 4.208 4.041 4.609 19.615 2.46 38.246 8.105 55.337 18.32 0.764 0.453 1.5 0.971 2.536 1.657-8.377 13.012-16.689 25.908-25.143 39.037-9.399-5.749-19.446-9.297-29.96-11.433-18.696-3.793-37.16-3.302-55.091 3.78-8.921 3.522-16.561 8.895-18.334 19.072-2.344 13.362 2.044 22.244 11.561 27.255 9.309 4.907 19.188 8.856 29.094 12.456 15.498 5.632 31.409 10.137 46.791 16.042 15.512 5.943 29.068 15.071 39.452 28.445 8.337 10.746 12.974 22.956 14.657 36.331 1.786 14.178 0.75 28.044-5.476 41.161-8.365 17.62-22.4 29.209-40.086 36.291-8.391 3.353-17.363 5.346-26.181 7.483-2.692 0.661-3.159 1.67-3.145 4.053 0.026 11.303-0.091 22.593-0.17 33.897l-46.533-0.026z"></path>
    </symbol>
    <symbol version="1.1" xmlns="http://www.w3.org/2000/svg" viewBox="0 0 553 512" id="prin-3">
        <path fill="currentColor" d="M539.134 425.32c-2.511 6.107-4.231 12.702-7.68 18.217-7.858 12.554-19.716 19.548-34.579 19.706-32.796 0.348-65.603 0.486-98.39-0.053-17.236-0.284-29.885-9.281-37.447-24.716-7.49-15.296-5.909-30.139 3.385-44.368 9.599-14.704 22.173-26.098 38.060-34.642-11.434-15.56-15.749-32.502-11.192-51.216 3.144-12.89 10.096-23.45 20.529-31.572 21.297-16.582 50.572-16.656 71.678-0.094 12.722 9.967 20.245 23.081 22.026 39.252 1.762 16.034-2.679 30.444-12.425 43.42 21.635 12.858 38.945 28.776 46.045 53.418 0 4.209 0 8.418 0 12.638l-0.010 0.010z"></path>
        <path fill="currentColor" d="M315.867 93.679c9.957 8.713 20.212 16.393 28.883 25.57 11.38 12.046 18.755 26.119 15.464 43.82-3.639 19.568-20.676 35.549-40.487 35.845-33.303 0.496-66.625 0.548-99.928-0.021-16.805-0.285-29.137-9.283-36.679-24.199-7.595-15.011-6.646-29.98 2.711-43.862 4.863-7.216 10.464-14.136 16.751-20.117s13.85-10.612 21.288-16.161c-11.352-15.37-15.423-32.839-10.275-52.027 3.492-13.017 10.971-23.355 21.762-31.309 21.446-15.802 51.499-14.821 71.594 2.373 11.985 10.243 19.106 23.176 20.55 38.947 1.435 15.654-2.859 29.79-11.645 41.141h0.010z"></path>
        <path fill="currentColor" d="M137.708 357.902c10.011 8.755 20.18 16.529 28.957 25.645 8.661 9.007 15.064 19.63 16.087 32.858 1.793 23.177-17.068 46.183-40.244 46.668-34.020 0.709-68.072 0.729-102.081-0.051-16.308-0.381-28.282-9.695-35.55-24.283-7.405-14.854-6.245-29.464 2.585-43.493 9.546-15.159 22.322-26.901 38.693-35.719-12.817-17.838-16.604-37.036-9.103-57.68 4.388-12.079 12.321-21.541 23.176-28.451 21.931-13.957 50.835-11.635 69.823 5.474 11.604 10.455 18.303 23.429 19.463 38.978 1.149 15.253-3.154 29.094-11.793 40.044l-0.011 0.010z"></path>
        <path fill="currentColor" d="M364.443 488.82c-63.123 30.972-126.628 30.951-190.322-0.305 6.551-5.296 13.999-9.368 18.63-15.56 6.012-8.036 11.308-6.719 19.294-3.838 38.271 13.808 76.816 13.543 115.256 0.178 2.48-0.865 4.969-1.741 7.322-2.889 2.943-1.446 4.694-0.77 7.121 1.635 7.142 7.090 14.822 13.639 22.7 20.781z"></path>
        <path fill="currentColor" d="M393.147 147.1c29.495 23.292 50.752 51.046 64.327 83.894-10.57 1.194-21.035 2.459-31.531 3.451-1.086 0.105-2.869-1.129-3.418-2.206-8.585-17.046-19.894-32.068-33.175-45.708-0.897-0.918-1.265-3.186-0.824-4.452 3.873-10.855 5.581-21.973 4.61-34.98h0.010z"></path>
        <path fill="currentColor" d="M146.061 147.080c-0.981 13.155 0.77 24.6 4.894 35.719 0.38 1.034-0.358 3.017-1.234 3.913-13.165 13.513-24.358 28.418-32.923 45.275-0.602 1.181-2.574 2.511-3.776 2.406-10.38-0.951-20.739-2.206-31.267-3.387 13.418-32.743 34.79-60.465 64.306-83.916v-0.011z"></path>
    </symbol>
    <symbol version="1.1" xmlns="http://www.w3.org/2000/svg" viewBox="0 0 512 512" id="prin-4">
        <path fill="currentColor" d="M499.278 136.983c-60.238-24.426-101.036-67.319-122.382-128.876-1.082-3.107-4.428-5.426-6.719-8.107h-233.541c-3.814 1.853-5.813 4.933-7.214 8.973-21.132 60.705-61.452 103.251-120.85 127.583-8.386 3.44-9.746 5.973-7.773 15.48 11.427 54.839 26.852 108.425 50.145 159.502 23.946 52.48 55.319 99.705 98.638 138.33 28.186 25.133 59.839 44.679 94.678 59.132 2.107 0.866 4.094 2.001 6.146 3.001h5.987c11.534-5.427 23.279-10.467 34.572-16.347 54.719-28.531 97.411-70.171 130.851-121.69 32.745-50.465 54.358-105.784 70.079-163.567 5.413-19.893 9.812-40.066 14.559-60.145 1.652-6.96-0.399-10.52-7.16-13.253l-0.014-0.013zM377.401 351.351h-247.553c-1.947 0-3.24-2.027-2.413-3.787l123.783-266.579c0.96-2.053 3.881-2.053 4.839 0l123.785 266.579c0.825 1.774-0.467 3.787-2.414 3.787h-0.026z"></path>
        <path fill="currentColor" d="M240.599 290.126c0-7.852 5.454-13.519 12.868-13.519 7.852 0 12.865 5.667 12.865 13.519 0 7.854-5.014 13.521-12.865 13.521-7.854 0-12.868-5.894-12.868-13.521zM246.053 258.941l-3.054-104.691h20.932l-3.051 104.691h-14.827z"></path>
    </symbol>
    <symbol version="1.1" xmlns="http://www.w3.org/2000/svg" viewBox="0 0 533 512" id="language-icon">
        <path fill="currentColor" d="M43.152 309.346h101.713c-0.315-5.99-0.631-11.666-0.946-17.38-0.197-4.098-0.631-8.198-0.591-12.257 0.118-9.969 8.039-17.812 17.734-17.851 9.498-0.041 17.3 7.33 17.931 17.103 0.631 10.009 1.182 20.019 1.813 30.659 7.803 0 15.014 0 22.227 0 9.497 0 18.995-0.078 28.492 0 10.642 0.119 18.445 7.529 18.641 17.459 0.196 9.969-7.883 18.010-18.68 18.127-13.951 0.158-27.941 0.041-41.892 0.041-1.103 0-2.167 0.116-4.335 0.236 1.655 8.433 3.074 16.591 4.847 24.632 4.256 19.663 9.734 39.012 19.034 56.983 3.154 6.068 7.095 11.782 11.154 17.3 3.625 4.928 8.472 7.883 15.014 8.514 8.315 0.788 14.62 8.591 14.858 17.025 0.236 8.315-5.794 16.668-14.189 17.496-8.078 0.827-16.392 0.631-24.471-0.276-82.049-9.142-143.683-49.731-183.998-121.692-18.719-33.339-27.428-69.714-27.507-108.058 0-11.27 6.936-19.073 17.221-19.269 10.364-0.196 17.458 7.211 18.561 18.245 1.615 15.882 3.784 31.685 5.793 47.526 0.236 1.813 0.986 3.547 1.537 5.401l0.039 0.039zM148.452 345.68h-90.442c13.714 38.976 86.305 98.56 117.752 97.733-5.359-15.683-11.507-31.447-16.040-47.644-4.571-16.394-7.566-33.26-11.31-50.088h0.040z"></path>
        <path fill="currentColor" d="M470.498 202.589h-102.818c0.315 5.202 0.709 10.127 0.946 15.054 0.354 8.55 0.827 17.103 0.866 25.694 0.041 10.285-7.408 18.088-17.103 18.404-9.892 0.315-17.695-6.66-18.404-17.025-0.827-11.901-1.223-23.802-1.853-35.703-0.116-2.011-0.313-4.020-0.551-6.661-4.020 0-7.684 0-11.35 0-12.651 0-25.34 0.078-37.988 0-11.823-0.079-19.784-7.527-19.706-18.167 0.080-10.482 7.883-17.537 19.548-17.576 14.699-0.040 29.358 0 45.122 0-1.378-7.606-2.521-14.66-4.020-21.674-4.255-20.256-9.654-40.157-18.954-58.758-2.996-5.951-6.582-11.665-10.443-17.103-3.942-5.517-8.945-9.379-16.433-10.246-9.814-1.143-15.724-9.931-14.661-19.783 0.985-9.064 8.671-15.606 18.76-15.409 73.654 1.38 134.107 30.542 180.529 87.605 30.976 38.068 47.448 82.166 50.207 131.229 0.551 9.734-5.556 17.421-14.463 19.075-8.237 1.497-16.984-3.193-19.743-11.114-1.143-3.27-1.183-6.934-1.695-10.404-1.932-12.452-3.822-24.905-5.753-37.437h-0.039zM454.734 166.411c-14.463-39.803-85.715-98.324-119.37-98.245 15.291 31.054 22.62 64.354 28.137 98.245h91.233z"></path>
        <path fill="currentColor" d="M225.968 134.333c0 18.995 0.157 37.99-0.119 56.984-0.080 4.965-0.867 10.049-2.286 14.817-4.77 16.118-19.784 23.763-35.625 17.93-5.359-1.97-10.404-5.006-15.212-8.077-7.96-5.124-15.803-10.523-23.409-16.197-7.054-5.281-14.817-7.291-23.487-7.251-19.349 0.118-38.739 0-58.088-0.197-25.655-0.237-45.517-10.838-58.679-33.221-5.439-9.221-8.315-19.31-8.434-29.792-0.236-23.803-0.985-47.724 0.828-71.448 2.522-31.96 28.216-56.433 60.295-57.3 33.655-0.906 67.428-0.867 101.004 0.946 38.148 2.049 59.507 24.552 61.911 63.014 1.417 23.212 1.458 46.502 2.128 69.792-0.276 0-0.553 0-0.827 0zM190.027 184.618c0.157-2.286 0.394-3.665 0.394-5.083-0.079-32 0-64.038-0.315-96.038-0.078-7.409-0.749-14.897-1.931-22.187-2.72-16.591-9.024-23.409-25.695-23.96-33.261-1.103-66.561-1.3-99.822-1.025-13.281 0.118-24.788 10.562-25.379 23.802-1.103 23.567-0.591 47.172-0.355 70.777 0 3.507 1.655 7.251 3.349 10.482 5.715 10.798 15.33 15.172 27.192 15.212 18.798 0.079 37.596 0.512 56.394 0.157 18.010-0.355 34.088 4.375 48.393 15.409 5.518 4.256 11.468 8.040 17.813 12.453h-0.040z"></path>
        <path fill="currentColor" d="M285.436 419.414c0.67-22.897 0.75-45.832 2.128-68.649 1.341-21.596 8.356-40.868 27.783-53.281 12.335-7.883 26.325-10.562 40.512-10.838 29.952-0.631 59.941-0.236 89.891-0.551 37.083-0.354 64.669 28.257 65.813 63.054 0.788 24.156 0.866 48.472-0.946 72.55-2.247 29.831-27.625 53.909-57.575 55.724-21.358 1.3-42.797 1.221-64.197 1.024-10.758-0.119-19.981 2.562-28.531 9.065-8 6.068-16.356 11.704-24.867 17.023-4.532 2.8-9.538 5.163-14.659 6.502-13.519 3.547-26.128-2.916-31.015-16.079-2.050-5.476-3.193-11.546-3.312-17.418-0.393-19.349-0.156-38.738-0.156-58.087h-0.829l-0.039-0.039zM321.772 470.921c4.61-3.231 8.276-5.401 11.505-8.118 18.445-15.528 39.606-21.519 63.646-20.257 17.772 0.946 35.705 0.119 53.517-0.827 12.728-0.67 23.959-10.758 24.474-23.409 1.024-23.724 1.26-47.606 0.116-71.33-0.709-14.856-12.374-24.51-27.349-24.906-22.147-0.551-44.294-0.827-66.402-0.592-12.257 0.158-24.512 1.223-36.69 2.523-11.704 1.262-18.010 8.788-20.138 20.019-0.59 3.113-1.3 6.226-1.339 9.38-0.551 27.349-0.985 54.698-1.339 82.047-0.158 11.35 0 22.661 0 35.428v0.041z"></path>
    </symbol>
</svg>