<!-- Generated by IcoMoon.io -->
<svg version="1.1" xmlns="http://www.w3.org/2000/svg" width="597" height="448" viewBox="0 0 597 448">
<g id="icomoon-ignore">
</g>
<path fill="#3c3c3f" d="M270.898 141.797h4.388c10.629 0.487 20.965 4.973 28.474 12.384-2.926 2.828-5.753 5.753-8.679 8.582-4.875-4.583-11.116-7.704-17.747-8.484-7.606-0.975-15.505 0.683-21.941 4.778-5.851 3.705-10.336 9.459-12.774 15.894-3.12 8.484-2.633 18.332 1.561 26.426 3.316 6.534 8.971 11.897 15.699 14.822s14.334 3.413 21.453 1.755c5.949-1.365 11.311-4.681 15.31-9.167 3.413-3.997 4.973-9.166 5.656-14.236-9.849 0-19.6 0-29.449 0 0-4.095 0-8.191 0-12.189 13.847 0 27.597 0 41.443 0 1.365 8.679 0.487 17.943-3.12 26.036-3.024 6.923-8.484 12.481-14.822 16.48-7.899 4.973-17.454 6.631-26.719 6.046-11.214-0.683-22.038-5.851-29.839-13.847-7.508-7.606-12.091-17.943-12.677-28.571v-4.291c0.585-10.141 4.681-19.99 11.604-27.499 8.289-8.776 19.99-14.334 32.179-14.92z"></path>
<path fill="#3c3c3f" d="M464.071 175.244c5.753-3.316 12.872-4.583 19.405-2.828 3.803 0.975 7.021 3.12 9.751 5.851 0.098-1.755 0-3.413 0-5.168 4.095 0 8.191 0 12.287 0 0 17.357 0 34.617 0 51.974 0 7.313-1.755 15.017-6.631 20.771-4.486 5.266-11.409 8.093-18.235 8.582-6.534 0.585-13.359-0.78-18.722-4.486-4.583-3.024-8.191-7.411-10.336-12.287 3.705-1.561 7.508-3.024 11.214-4.583 1.755 3.803 4.681 7.215 8.582 8.873 3.803 1.755 8.289 1.658 12.189 0.39 3.705-1.17 6.729-3.997 8.191-7.411 1.755-3.997 1.658-8.484 1.561-12.677-2.535 2.438-5.363 4.583-8.873 5.656-6.143 1.95-13.066 1.17-18.82-1.755-5.851-2.926-10.531-7.996-13.164-13.847-3.218-7.215-3.413-15.699-0.39-23.111 2.243-5.753 6.534-10.824 11.994-13.944zM474.993 183.337c-3.218 0.683-6.143 2.535-8.191 5.071-4.583 5.558-5.168 13.652-2.34 20.087 1.463 3.316 3.997 6.143 7.313 7.704 4.486 2.243 10.045 1.95 14.334-0.585 3.705-2.243 6.338-6.046 7.313-10.141 1.658-6.729-0.098-14.724-5.753-19.21-3.413-2.926-8.289-3.997-12.677-2.926z"></path>
<path fill="#3c3c3f" d="M514.095 143.942c4.291 0 8.582 0 12.872 0 0 29.059 0 58.118 0 87.177-4.291 0-8.582 0-12.872 0 0-29.059 0-58.118 0-87.177z"></path>
<path fill="#3c3c3f" d="M345.398 172.026c6.631-1.072 13.555 0 19.405 3.316 4.876 2.73 8.873 6.923 11.409 11.897 3.218 6.436 3.901 14.042 2.048 20.965-1.658 6.338-5.656 11.994-11.018 15.699-5.851 4.095-13.262 5.851-20.283 4.973-7.606-0.78-14.92-4.778-19.6-10.922-7.411-9.556-7.801-23.696-1.17-33.642 4.291-6.631 11.409-11.116 19.21-12.287zM346.666 183.337c-3.413 0.78-6.631 2.828-8.776 5.558-4.095 5.168-4.875 12.579-2.438 18.625 1.755 4.291 5.266 7.801 9.654 9.264 4.388 1.561 9.556 0.975 13.457-1.463 3.997-2.438 6.729-6.631 7.606-11.214 1.365-6.436-0.78-13.847-6.241-17.845-3.608-2.926-8.679-3.997-13.262-2.926z"></path>
<path fill="#3c3c3f" d="M549.492 176.414c6.143-4.193 14.042-5.753 21.257-4.095 6.241 1.365 11.701 5.46 15.31 10.629 2.243 3.12 3.608 6.729 5.071 10.239-12.969 5.266-25.841 10.531-38.81 15.894 1.755 3.316 4.486 6.338 8.093 7.704 4.973 1.755 10.922 1.268 15.212-1.755 2.048-1.365 3.608-3.218 4.973-5.168 3.316 2.145 6.631 4.388 9.947 6.534-3.803 5.46-9.361 9.751-15.894 11.507-7.411 2.145-15.699 1.365-22.428-2.34-5.168-2.73-9.361-7.215-11.799-12.384-3.218-6.534-3.608-14.236-1.755-21.257 1.755-6.241 5.558-11.897 10.824-15.505zM554.661 187.141c-3.12 3.316-4.388 7.899-4.388 12.287 8.776-3.51 17.454-7.119 26.231-10.726-0.975-2.34-2.926-4.095-5.266-5.168-5.46-2.438-12.481-0.78-16.577 3.608z"></path>
<path fill="#3c3c3f" d="M409.756 172.026c6.534-1.072 13.555 0.098 19.308 3.413 4.778 2.633 8.776 6.729 11.214 11.604 3.608 7.021 4.095 15.602 1.561 23.013-2.146 6.338-6.729 11.897-12.579 15.212-11.018 6.436-26.231 4.778-35.299-4.291-9.166-8.776-11.018-23.793-4.778-34.714 4.193-7.704 12.091-12.969 20.576-14.236zM411.804 183.142c-3.316 0.585-6.436 2.243-8.776 4.778-4.681 4.875-5.851 12.481-3.608 18.722 1.463 4.291 4.681 7.899 8.873 9.751 4.291 1.853 9.459 1.755 13.555-0.487 4.095-2.145 7.119-6.046 8.289-10.531 1.755-6.338 0.098-13.847-4.875-18.332-3.608-3.218-8.679-4.778-13.457-3.901z"></path>
<path fill="#3c3c3f" d="M199.030 223.61c0 54.997-44.661 99.561-99.658 99.561v-24.183c0.194 0 0.487 0 0.683 0 41.735 0 75.475-33.74 75.475-75.377h23.501z"></path>
<path fill="#3c3c3f" d="M-0.285 223.61h24.964c0 41.541 33.642 75.28 75.28 75.377v24.183c-0.194 0-0.292 0-0.487 0-55.192 0-99.756-44.564-99.756-99.561z"></path>
<path fill="#3c3c3f" d="M99.372 124.050c55.095 0 99.658 44.564 99.658 99.561 0 0.194 0 0.292 0 0.487h-23.501c0-0.194 0-0.292 0-0.487 0-41.638-33.837-75.377-75.475-75.377-0.194 0-0.487 0-0.683 0v-24.183z"></path>
<path fill="#3c3c3f" d="M-0.285 224.098c0-0.194 0-0.292 0-0.487 0-54.997 44.661-99.561 99.658-99.561 0.194 0 0.292 0 0.487 0v24.183c-41.541 0.098-75.28 33.837-75.28 75.377 0 0.194 0 0.292 0 0.487h-24.866z"></path>
<path fill="#010202" opacity="0.12" d="M179.137 164.029c11.799 16.285 19.893 35.592 19.893 58.703 0 37.347-19.893 69.625-49.829 87.079l-48.367-51.779 78.302-94.003z"></path>
<path fill="#3c3c3f" d="M50.519 207.813l13.555-15.212 34.52 20.673 92.248-89.224 12.189 11.116-102.193 122.867z"></path>
<path fill="#3c3c3f" opacity="0.54" d="M511.56 265.541c2.048-1.072 4.681 0.78 4.486 3.12-0.098 2.34-3.024 3.803-4.973 2.438-1.95-1.268-1.658-4.681 0.487-5.558zM232.575 269.538c6.241-5.46 16.48-5.363 22.526 0.39-0.683 0.975-1.268 2.048-2.243 2.828-0.78 0.194-1.365-0.39-2.048-0.683-3.705-2.633-8.971-2.926-12.969-0.78-3.12 1.658-5.071 5.071-5.656 8.484-0.683 3.997-0.292 8.386 2.048 11.897 1.755 2.73 4.875 4.583 8.093 4.778 3.12 0.194 6.436-0.194 8.873-2.34 0.585-0.39 1.17-1.17 1.95-1.072 0.975 0.683 1.658 1.658 2.438 2.438-2.73 3.12-6.729 4.973-10.824 5.168-4.291 0.39-8.873-0.78-12.189-3.705-3.024-2.535-4.681-6.338-5.363-10.141v-7.215c0.683-3.803 2.438-7.508 5.363-10.045zM436.377 265.931c3.803 0 7.704-0.098 11.507 0 3.413 0.194 7.215 1.17 9.361 4.095 2.535 3.803 1.95 9.459-1.365 12.579-1.463 1.365-3.316 2.243-5.266 2.73 1.268 0.975 2.048 2.243 2.926 3.51 2.828 3.901 5.558 7.704 8.386 11.604-1.658 0-3.218 0.098-4.875-0.098-0.78 0-1.268-0.585-1.658-1.17-2.73-3.901-5.558-7.801-8.289-11.701-1.268-1.95-3.901-0.975-5.753-1.17 0 4.778 0 9.459 0 14.236-1.658 0-3.316 0-4.875 0-0.098-11.604-0.098-23.11-0.098-34.617zM441.252 269.831c0 4.193 0 8.484 0 12.677 3.316-0.098 6.923 0.487 9.849-1.268 3.51-2.048 3.997-8.093 0.39-10.336-3.12-1.658-6.827-0.878-10.239-1.072zM306.977 268.368c0.975-0.292 1.95-0.098 2.926-0.194 0 2.73 0 5.46 0 8.191 2.243 0 4.583 0 6.827 0 0 1.072 0 2.243 0 3.316-2.243 0-4.583 0-6.827 0 0 4.973 0 9.849 0 14.822 0 1.268 0.975 2.438 2.34 2.438 1.268 0.194 2.146-0.683 3.218-1.072 0.975 0.585 1.268 1.853 1.95 2.73-2.438 2.048-6.046 2.828-8.971 1.561-2.146-0.878-3.12-3.413-3.024-5.558 0-4.973 0-9.947 0-14.92-1.072 0-2.243 0.098-3.316-0.098-0.78-0.683-0.292-1.853-0.487-2.73 1.268-0.194 2.633-0.39 3.901-0.487 0.292-2.243 0.585-4.486 0.878-6.631 0.194-0.487 0.194-1.072 0.585-1.365zM286.013 277.242c4.095-2.633 9.947-2.146 13.457 1.17-0.39 0.683-0.78 1.365-1.268 2.048-0.683 0.683-1.561-0.098-2.146-0.39-1.95-1.072-4.388-1.463-6.436-0.683-1.268 0.487-2.34 1.755-2.145 3.218 0.098 1.17 1.072 1.853 1.95 2.34 2.926 1.365 6.436 1.658 8.873 3.901 1.853 1.755 1.95 4.583 1.072 6.827-0.78 2.146-2.535 3.705-4.681 4.388-4.095 1.463-8.971 0.585-12.287-2.243 0.683-0.878 0.975-2.535 2.438-2.438 1.268 0.487 2.243 1.463 3.608 1.755 1.95 0.585 4.291 0.585 5.949-0.78 1.463-1.17 1.755-3.803 0.098-4.875-3.024-2.048-7.119-1.853-9.751-4.583s-1.755-7.606 1.268-9.654zM327.26 275.974c3.608-0.78 7.606-0.292 10.531 2.048 2.73 2.146 3.997 5.753 4.193 9.166 0.194 3.705-0.683 7.704-3.316 10.434-4.875 4.778-14.334 4.095-17.943-1.95-2.146-3.705-2.34-8.386-1.17-12.384 0.878-3.705 3.997-6.631 7.704-7.313zM328.333 279.387c-2.73 0.585-4.388 3.316-4.681 5.949-0.39 3.12-0.39 6.534 1.365 9.264 1.755 2.633 5.46 3.024 8.191 2.048 2.633-1.072 3.705-3.997 3.997-6.631 0.194-2.926 0.098-6.241-1.853-8.679-1.658-2.145-4.583-2.438-7.021-1.95zM350.663 279.29c1.853-2.145 4.486-3.997 7.411-3.608 2.73 0 4.778 2.34 5.46 4.875 1.853-4.973 8.776-6.338 12.872-3.316 2.243 1.755 3.024 4.778 2.926 7.508 0 5.266 0 10.434 0 15.699-1.561 0-3.024 0-4.583 0 0-5.266 0-10.434 0-15.699 0-1.658-0.39-3.608-1.853-4.681-2.146-1.365-5.363-0.878-6.827 1.268-0.78 1.072-0.975 2.535-0.975 3.803 0 5.071 0 10.141 0 15.31-1.561 0-3.024 0-4.583 0 0-5.363 0-10.726 0-16.089 0-1.95-0.78-4.388-2.926-4.875-2.633-0.78-5.168 0.78-6.729 2.828 0 6.046 0 12.091 0 18.137-1.561 0-3.024 0-4.583 0 0-8.093 0-16.285 0-24.378 1.17 0 2.243-0.194 3.413 0.098 0.975 0.683 0.683 2.048 0.975 3.12zM386.743 278.607c3.218-3.12 8.386-3.901 12.481-2.048s6.046 6.729 5.46 11.018c0 0.683-0.683 0.78-1.268 0.78-5.266 0-10.531 0-15.699 0 0.098 2.438 0.683 5.071 2.438 6.923 2.048 2.048 5.363 2.243 7.996 1.463 1.463-0.39 2.633-1.365 3.997-1.853 1.072 0.098 1.561 1.463 2.243 2.145-2.633 2.926-6.631 3.901-10.434 3.705-3.024-0.194-6.046-1.463-7.899-3.803-2.145-2.633-2.926-6.241-2.828-9.654 0.098-3.218 1.268-6.436 3.51-8.679zM391.229 279.777c-2.048 1.17-2.926 3.51-3.316 5.753 4.291 0 8.582 0 12.872 0-0.098-1.658-0.487-3.413-1.658-4.681-1.95-2.243-5.46-2.34-7.899-1.072zM416.777 276.267c1.755-0.975 3.901-0.878 5.753-0.194-0.098 1.365-0.098 2.73-0.39 3.997-1.072 0.585-2.34-0.194-3.51 0-2.73 0.098-4.583 2.633-5.266 5.071-0.098 5.071 0 10.141 0 15.31-1.561 0-3.024 0-4.583 0 0-8.093 0-16.285 0-24.378 1.17 0.098 2.438-0.194 3.51 0.194 0.878 1.268 0.487 3.024 0.683 4.583 0.975-1.853 2.048-3.608 3.803-4.583zM467.581 276.755c4.095-1.95 9.751-1.463 12.774 2.146 2.048 2.438 2.926 5.949 2.34 9.069-0.098 0.098-0.39 0.194-0.487 0.292-5.46 0.194-10.922 0-16.382 0.098 0.098 2.438 0.683 5.071 2.438 6.923 1.853 1.853 4.778 2.243 7.215 1.658 1.658-0.292 3.024-1.268 4.486-1.95 1.268-0.487 1.853 1.268 2.633 2.048-2.633 2.828-6.631 3.901-10.434 3.705-3.12-0.098-6.241-1.561-8.093-4.095-2.34-3.12-3.024-7.313-2.535-11.116 0.487-3.705 2.633-7.215 6.046-8.776zM469.336 279.777c-2.048 1.17-2.926 3.51-3.316 5.753 4.291 0 8.582 0 12.872 0-0.098-1.755-0.487-3.608-1.853-4.876-1.95-2.048-5.266-2.145-7.704-0.878zM522.578 278.997c3.316-3.608 9.167-4.486 13.457-2.146 3.705 2.048 5.363 6.631 4.875 10.726 0 0.683-0.683 0.78-1.17 0.683-5.266 0-10.531 0-15.797 0 0.098 2.438 0.683 5.071 2.438 6.923 2.048 2.048 5.363 2.243 7.996 1.463 1.463-0.39 2.633-1.463 4.095-1.853 1.072 0.098 1.561 1.463 2.243 2.146-2.633 2.828-6.631 3.901-10.434 3.705-3.024-0.098-6.046-1.463-7.899-3.803-2.145-2.535-2.828-5.949-2.828-9.264-0.098-3.024 0.878-6.241 3.024-8.582zM527.357 279.777c-2.048 1.17-2.926 3.51-3.316 5.656 4.291 0 8.582 0 12.872 0-0.098-1.658-0.487-3.413-1.658-4.681-1.95-2.145-5.363-2.243-7.899-0.975zM583.33 277.144c4.095-2.438 9.751-1.95 13.262 1.365-0.683 0.78-0.878 2.34-2.146 2.243-1.755-0.683-3.413-1.853-5.363-1.658-1.853-0.098-3.997 0.78-4.486 2.73-0.39 1.268 0.487 2.438 1.561 3.024 2.926 1.561 6.534 1.755 9.069 3.997 2.145 1.95 2.048 5.363 0.78 7.801-1.463 2.828-4.778 4.095-7.801 4.095-3.12 0.194-6.338-0.878-8.679-2.926 0.683-0.975 1.072-2.73 2.633-2.438 1.268 0.585 2.34 1.561 3.705 1.853 1.853 0.39 3.901 0.39 5.46-0.78 1.658-1.17 1.95-3.997 0.098-5.071-2.926-1.95-6.923-1.853-9.556-4.388-2.73-2.73-1.853-7.899 1.463-9.849zM258.221 275.877c1.561 0 3.024 0 4.583 0 0 5.266 0 10.531 0 15.797 0 2.048 0.878 4.486 3.024 5.071 3.024 0.975 6.143-0.683 8.191-2.926 0-5.949 0-11.994 0-17.943 1.561 0 3.024 0 4.583 0 0 8.093 0 16.285 0 24.378-1.072 0-2.243 0.194-3.413-0.098-0.878-0.78-0.585-2.146-0.975-3.218-1.561 1.561-3.413 3.024-5.656 3.51-2.535 0.487-5.46 0.194-7.508-1.561s-2.73-4.583-2.73-7.119c-0.098-5.363 0-10.629-0.098-15.894zM483.866 275.877c1.365 0 2.828-0.098 4.193 0.098 0.683 0.098 0.878 0.878 1.072 1.365 1.755 4.681 3.608 9.361 5.46 14.042 0.487 1.365 0.878 2.828 1.17 4.193 0.585-2.926 1.853-5.656 2.926-8.484 1.268-3.218 2.535-6.436 3.803-9.654 0.292-0.585 0.487-1.365 1.17-1.463 1.268-0.098 2.633 0 3.901 0-3.316 8.093-6.534 16.285-9.849 24.378-1.365 0-2.73 0-4.095 0-3.218-8.191-6.436-16.285-9.751-24.475zM510.584 275.974c1.561 0 3.024 0 4.583 0 0 8.093 0 16.285 0 24.378-1.561 0-3.024 0-4.583 0 0-8.093 0-16.188 0-24.378zM542.374 275.974c1.561 0.194 3.316-0.487 4.681 0.39 0.878 2.048 1.365 4.388 2.048 6.534 1.17 4.193 2.633 8.289 3.413 12.579 1.561-6.046 3.705-11.897 5.558-17.747 0.292-0.683 0.39-1.658 1.268-1.755 0.975-0.098 1.95-0.098 2.828 0.098 0.78 0.39 0.878 1.463 1.17 2.145 1.755 5.753 3.803 11.409 5.266 17.357 1.17-5.851 3.218-11.409 4.778-17.162 0.292-0.78 0.39-2.145 1.463-2.34 1.268-0.098 2.438 0 3.705 0-2.633 8.093-5.168 16.285-7.801 24.378-1.365 0-2.73 0.098-3.997-0.098-0.487-0.487-0.585-1.268-0.878-1.95-1.755-5.656-3.803-11.311-5.363-17.066-1.561 5.851-3.705 11.507-5.46 17.26-0.292 0.585-0.292 1.561-0.975 1.755-1.268 0.098-2.535 0-3.705 0.098-2.73-8.191-5.363-16.285-7.996-24.475z"></path>
</svg>
