<!-- Generated by IcoMoon.io -->
<svg version="1.1" xmlns="http://www.w3.org/2000/svg" width="597" height="448" viewBox="0 0 597 448">
<g id="icomoon-ignore">
</g>
<path fill="#196c6e" d="M587.483 278.278c4.675-0.259 8.7 3.376 8.96 8.181 0.259 4.675-3.376 8.7-8.181 8.96-4.675 0.259-8.7-3.376-8.96-8.181 0-0.13 0-0.259 0-0.39 0-4.675 3.636-8.44 8.181-8.571zM587.483 276.98c-5.454 0-9.739 4.415-9.739 9.739 0 5.454 4.415 9.739 9.739 9.739s9.739-4.415 9.739-9.739c0.13-5.324-4.285-9.739-9.739-9.739zM588.911 286.979c1.169-0.259 2.078-1.299 2.078-2.597 0-1.818-1.558-2.597-3.766-2.597h-2.856v9.739h1.688v-4.415h1.299l2.078 3.246c0.649 1.039 0.779 1.039 1.688 1.039h0.779v0.13l-2.987-4.545zM587.223 286.849h-1.169v-4.415h1.039c1.688 0 2.338 0.649 2.338 2.207s-0.519 2.207-2.207 2.207v0z"></path>
<path fill="#196c6e" d="M129.619 179.071h36.099v117.387h-36.099v-117.387z"></path>
<path fill="#196c6e" d="M363.486 284.771c-10.648 0-15.712-6.363-15.712-17.271v-78.691h28.827v-9.739h-28.698v-29.347h-34.671l-1.688 29.347h-15.453v9.739h15.453v77.392c0 19.998 11.427 32.983 34.801 32.983 17.53 0 27.918-7.142 32.204-16.751l-1.688-1.818c-3.896 2.727-8.571 4.285-13.375 4.155z"></path>
<path fill="#196c6e" d="M439.061 176.474c-38.567 0-62.979 26.88-62.979 61.94 0 34.801 22.855 60.771 62.2 60.771 40.125 0 62.979-26.88 62.979-61.94-0.13-34.801-24.023-60.771-62.2-60.771zM438.801 290.745c-19.348 0-22.075-15.712-22.075-53.24 0-36.879 2.597-52.85 21.815-52.85 19.348 0 22.075 15.972 22.075 53.37-0.13 36.748-2.468 52.721-21.815 52.721z"></path>
<path fill="#196c6e" d="M551.773 199.328l-0.779-20.257h-35.060v117.387h36.229v-94.014c2.207-0.649 4.415-1.039 6.752-1.039 6.493 0 13.894 2.597 36.489 13.245l2.078-0.779v-32.983c-4.155-2.987-9.219-4.545-14.284-4.545-10.259 0.13-22.075 6.493-31.424 22.984z"></path>
<path fill="#196c6e" d="M249.215 282.434l4.155 14.024h30.905v-90.378c0-19.998-15.712-29.736-41.423-29.736-17.271 0-38.566 4.805-53.11 9.609l-1.688 20.517 2.078 1.039c27.659-18.569 35.84-22.855 44.41-22.855 9.739 0 13.765 5.065 13.765 15.712v24.412c-40.904 8.44-65.836 14.674-65.836 42.462 0 19.089 12.726 31.944 33.243 31.944 15.712 0 27.399-7.402 33.502-16.751zM218.18 260.619c0-18.049 6.103-22.595 30.256-27.659v45.189c-4.415 3.506-9.869 5.324-15.453 5.065-10.258 0-14.803-5.843-14.803-22.595z"></path>
<path fill="#196c6e" d="M114.557 198.679c0 12.192-9.884 22.075-22.075 22.075s-22.075-9.884-22.075-22.075c0-12.192 9.884-22.075 22.075-22.075s22.075 9.884 22.075 22.075z"></path>
<path fill="#196c6e" d="M68.199 296.588l11.557-25.841-40.774-91.676h-38.696l52.331 117.518z"></path>
</svg>
