<svg width="1920" height="155" viewBox="0 0 1920 155" fill="none" xmlns="http://www.w3.org/2000/svg">
<g clip-path="url(#clip0_1_11332)">
<rect width="1920" height="246" fill="white"/>
<path d="M869.047 81.7361H960.5L914.785 -0.632812L869.047 81.7361Z" fill="#324259"/>
<path d="M960.508 81.7361H1052.25L1006.25 -0.632812L960.508 81.7361Z" fill="#2E3E54"/>
<path d="M868.867 -0.632812H914.796L869.057 81.7361L868.867 -0.632812Z" fill="#324259"/>
<path d="M914.789 -0.632812H1006.24L960.504 81.7361L914.789 -0.632812Z" fill="#2E3E54"/>
<path d="M1006.26 -0.632812H1052.26V81.7361L1006.26 -0.632812Z" fill="#324259"/>
<path d="M1051.59 81.7361H1143.04L1097.32 -0.632812L1051.59 81.7361Z" fill="#3C4F66"/>
<path d="M1143.04 81.7361H1234.52L1188.78 -0.632812L1143.04 81.7361Z" fill="#324259"/>
<path d="M1234.52 81.7361H1325.97L1280.23 -0.632812L1234.52 81.7361Z" fill="#3C4F66"/>
<path d="M1325.96 81.7361H1417.41L1371.68 -0.632812L1325.96 81.7361Z" fill="#324259"/>
<path d="M1417.42 81.7361H1508.87L1463.14 -0.632812L1417.42 81.7361Z" fill="#3C4F66"/>
<path d="M1874.71 81.7361H1966.16L1920.43 -0.632812L1874.71 81.7361Z" fill="#324259"/>
<path d="M1508.88 81.7361H1600.34L1554.62 -0.632812L1508.88 81.7361Z" fill="#2E3B4E"/>
<path d="M1600.33 81.7361H1691.78L1646.07 -0.632812L1600.33 81.7361Z" fill="#324259"/>
<path d="M1691.78 81.7361H1783.26L1737.52 -0.632812L1691.78 81.7361Z" fill="#3C4F66"/>
<path d="M1783.23 81.7361H1874.96L1828.96 -0.632812L1783.23 81.7361Z" fill="#324259"/>
<path d="M1051.59 -0.632812H1097.32L1051.59 81.7361V-0.632812Z" fill="#2E3E54"/>
<path d="M1097.33 -0.632812H1188.78L1143.04 81.7361L1097.33 -0.632812Z" fill="#2E3B4E"/>
<path d="M1188.78 -0.632812H1280.23L1234.5 81.7361L1188.78 -0.632812Z" fill="#3C4F66"/>
<path d="M1280.23 -0.632812H1371.68L1325.96 81.7361L1280.23 -0.632812Z" fill="#324259"/>
<path d="M1371.68 -0.632812H1463.13L1417.42 81.7361L1371.68 -0.632812Z" fill="#2E3B4E"/>
<path d="M1463.15 -0.632812H1554.63L1508.89 81.7361L1463.15 -0.632812Z" fill="#3C4F66"/>
<path d="M1828.98 -0.632812H1920.44L1874.72 81.7361L1828.98 -0.632812Z" fill="#2E3B4E"/>
<path d="M1554.61 -0.632812H1646.06L1600.32 81.7361L1554.61 -0.632812Z" fill="#324259"/>
<path d="M1646.06 -0.632812H1737.52L1691.78 81.7361L1646.06 -0.632812Z" fill="#2E3B4E"/>
<path d="M1737.52 -0.632812H1828.97L1783.23 81.7361L1737.52 -0.632812Z" fill="#3C4F66"/>
<path d="M1646.52 164.123H1737.97L1692.25 81.7539L1646.52 164.123Z" fill="#324259"/>
<path d="M1737.97 164.123H1829.42L1783.71 81.7539L1737.97 164.123Z" fill="#3C4F66"/>
<path d="M1600.77 81.7539H1692.25L1646.51 164.123L1600.77 81.7539Z" fill="#3C4F66"/>
<path d="M1692.25 81.7539H1783.7L1737.96 164.123L1692.25 81.7539Z" fill="#324259"/>
<path d="M1875.15 81.7539H1966.6L1920.89 164.123L1875.15 81.7539Z" fill="#324259"/>
<path d="M1783.7 81.7539H1875.15L1829.41 164.123L1783.7 81.7539Z" fill="#3C4F66"/>
<path d="M868.867 164.142H914.582L868.867 81.7734V164.142Z" fill="#3C4F66"/>
<path d="M914.57 164.142H1006.05L960.309 81.7734L914.57 164.142Z" fill="#324259"/>
<path d="M1006.06 164.142H1097.52L1051.78 81.7734L1006.06 164.142Z" fill="#324259"/>
<path d="M1097.5 164.142H1188.95L1143.21 81.7734L1097.5 164.142Z" fill="#2E3E54"/>
<path d="M1188.96 164.142H1280.41L1234.68 81.7734L1188.96 164.142Z" fill="#2E3B4E"/>
<path d="M1280.42 164.142H1371.87L1326.16 81.7734L1280.42 164.142Z" fill="#324259"/>
<path d="M1829.42 164.142H1920.9L1875.16 81.7734L1829.42 164.142Z" fill="#2E3B4E"/>
<path d="M1371.87 164.142H1463.32L1417.61 81.7734L1371.87 164.142Z" fill="#2E3E54"/>
<path d="M1463.32 164.142H1554.77L1509.06 81.7734L1463.32 164.142Z" fill="#324259"/>
<path d="M1646.51 164.135L1600.77 81.7422V81.766L1554.77 164.135H1600.77H1646.51Z" fill="#3C4F66"/>
<path d="M868.867 81.7734H960.32L914.582 164.142L868.867 81.7734Z" fill="#3C4F66"/>
<path d="M960.32 81.7734H1051.77L1006.06 164.142L960.32 81.7734Z" fill="#324259"/>
<path d="M1051.77 81.7734H1143.22L1097.5 164.142L1051.77 81.7734Z" fill="#3C4F66"/>
<path d="M1143.23 81.7734H1234.68L1188.96 164.142L1143.23 81.7734Z" fill="#324259"/>
<path d="M1234.68 81.7734H1326.16L1280.42 164.142L1234.68 81.7734Z" fill="#324259"/>
<path d="M1326.16 81.7734H1417.62L1371.88 164.142L1326.16 81.7734Z" fill="#2E3E54"/>
<path d="M1417.61 81.7734H1509.06L1463.32 164.142L1417.61 81.7734Z" fill="#324259"/>
<path d="M1509.06 81.7734H1600.78L1554.78 164.142L1509.06 81.7734Z" fill="#2E3B4E"/>
<path d="M-44.7188 81.7361H46.7342L0.995816 -0.632812L-44.7188 81.7361Z" fill="#324259"/>
<path d="M46.7422 81.7361H138.457L92.4567 -0.632812L46.7422 81.7361Z" fill="#2E3E54"/>
<path d="M-44.9297 -0.632812H0.998939L-44.7156 81.7361L-44.9297 -0.632812Z" fill="#324259"/>
<path d="M1 -0.632812H92.4529L46.7384 81.7361L1 -0.632812Z" fill="#2E3E54"/>
<path d="M92.4531 -0.632812H138.453V81.7361L92.4531 -0.632812Z" fill="#324259"/>
<path d="M137.781 81.7361H229.258L183.52 -0.632812L137.781 81.7361Z" fill="#324259"/>
<path d="M229.258 81.7361H320.711L274.972 -0.632812L229.258 81.7361Z" fill="#324259"/>
<path d="M320.711 81.7361H412.164L366.426 -0.632812L320.711 81.7361Z" fill="#3C4F66"/>
<path d="M412.156 81.7361H503.609L457.895 -0.632812L412.156 81.7361Z" fill="#324259"/>
<path d="M503.617 81.7361H595.07L549.356 -0.632812L503.617 81.7361Z" fill="#3C4F66"/>
<path d="M960.898 81.7361H1052.35L1006.64 -0.632812L960.898 81.7361Z" fill="#2E3E54"/>
<path d="M595.078 81.7361H686.531L640.816 -0.632812L595.078 81.7361Z" fill="#2E3B4E"/>
<path d="M686.516 81.7361H777.992L732.254 -0.632812L686.516 81.7361Z" fill="#324259"/>
<path d="M778 81.7361H869.453L823.715 -0.632812L778 81.7361Z" fill="#3C4F66"/>
<path d="M869.453 81.7361H961.168L915.168 -0.632812L869.453 81.7361Z" fill="#2E3B4E"/>
<path d="M137.781 -0.632812H183.52L137.781 81.7361V-0.632812Z" fill="#324259"/>
<path d="M183.523 -0.632812H274.976L229.262 81.7361L183.523 -0.632812Z" fill="#2E3B4E"/>
<path d="M274.977 -0.632812H366.429L320.715 81.7361L274.977 -0.632812Z" fill="#3C4F66"/>
<path d="M366.422 -0.632812H457.899L412.16 81.7361L366.422 -0.632812Z" fill="#324259"/>
<path d="M457.875 -0.632812H549.352L503.613 81.7361L457.875 -0.632812Z" fill="#2E3B4E"/>
<path d="M549.352 -0.632812H640.804L595.066 81.7361L549.352 -0.632812Z" fill="#3C4F66"/>
<path d="M915.172 -0.632812H1006.65L960.91 81.7361L915.172 -0.632812Z" fill="#2E3B4E"/>
<path d="M1006.23 -0.632812H1051.97V81.7361L1006.23 -0.632812Z" fill="#2E3E54"/>
<path d="M640.805 -0.632812H732.258L686.519 81.7361L640.805 -0.632812Z" fill="#324259"/>
<path d="M732.258 -0.632812H823.711L777.996 81.7361L732.258 -0.632812Z" fill="#2E3B4E"/>
<path d="M823.711 -0.632812H915.164L869.449 81.7361L823.711 -0.632812Z" fill="#3C4F66"/>
<path d="M732.719 164.123H824.195L778.457 81.7539L732.719 164.123Z" fill="#324259"/>
<path d="M824.172 164.123H915.649L869.91 81.7539L824.172 164.123Z" fill="#3C4F66"/>
<path d="M687.008 81.7539H778.461L732.722 164.123L687.008 81.7539Z" fill="#3C4F66"/>
<path d="M778.461 81.7539H869.914L824.199 164.123L778.461 81.7539Z" fill="#324259"/>
<path d="M961.375 81.7539H1052.85L1007.11 164.123L961.375 81.7539Z" fill="#324259"/>
<path d="M869.906 81.7539H961.359L915.645 164.123L869.906 81.7539Z" fill="#3C4F66"/>
<path d="M-44.9297 164.142H0.80866L-44.9297 81.7734V164.142Z" fill="#3C4F66"/>
<path d="M0.8125 164.142H92.2654L46.5271 81.7734L0.8125 164.142Z" fill="#324259"/>
<path d="M92.2656 164.142H183.719L137.98 81.7734L92.2656 164.142Z" fill="#3C4F66"/>
<path d="M183.711 164.142H275.164L229.449 81.7734L183.711 164.142Z" fill="#2E3E54"/>
<path d="M275.164 164.142H366.617L320.902 81.7734L275.164 164.142Z" fill="#2E3B4E"/>
<path d="M366.633 164.142H458.086L412.371 81.7734L366.633 164.142Z" fill="#324259"/>
<path d="M915.648 164.142H1007.1L961.363 81.7734L915.648 164.142Z" fill="#2E3B4E"/>
<path d="M1006.4 164.142H1052.26L1052.14 81.7734L1006.4 164.142Z" fill="#324259"/>
<path d="M458.07 164.142H549.547L503.809 81.7734L458.07 164.142Z" fill="#2E3E54"/>
<path d="M549.531 164.142H641.008L595.27 81.7734L549.531 164.142Z" fill="#324259"/>
<path d="M732.722 164.135L687.008 81.7422V81.766L641.008 164.135H687.008H732.722Z" fill="#3C4F66"/>
<path d="M-44.9297 81.7734H46.5232L0.808664 164.142L-44.9297 81.7734Z" fill="#3C4F66"/>
<path d="M46.5234 81.7734H137.976L92.2618 164.142L46.5234 81.7734Z" fill="#324259"/>
<path d="M137.969 81.7734H229.445L183.707 164.142L137.969 81.7734Z" fill="#3C4F66"/>
<path d="M229.445 81.7734H320.898L275.16 164.142L229.445 81.7734Z" fill="#324259"/>
<path d="M320.906 81.7734H412.359L366.621 164.142L320.906 81.7734Z" fill="#324259"/>
<path d="M412.367 81.7734H503.82L458.082 164.142L412.367 81.7734Z" fill="#2E3E54"/>
<path d="M503.805 81.7734H595.258L549.543 164.142L503.805 81.7734Z" fill="#324259"/>
<path d="M595.266 81.7734H687.004L641.004 164.142L595.266 81.7734Z" fill="#2E3B4E"/>
</g>
<defs>
<clipPath id="clip0_1_11332">
<rect width="1920" height="246" fill="white"/>
</clipPath>
</defs>
</svg>
