<svg width="1920" height="810" viewBox="0 0 1920 810" xmlns="http://www.w3.org/2000/svg">
    <rect width="1920" height="810" fill="#2E3B4E"/>
    <path fill="#324259" d="M-110 202H115L2 -2L-110 202Z M-111 -2H2L-110 202L-111 -2Z M228 -2H341V202L228 -2Z M340 202H565L452 -2L340 202Z M565 202H791L678 -2L565 202Z M1016 202H1242L1129 -2L1016 202Z M1692 202H1918L1805 -2L1692 202Z M340 -2H452L340 202V-2Z M903 -2H1129L1016 202L903 -2Z M1580 -2H1805L1692 202L1580 -2Z M1694 608H1919L1806 405L1694 608Z M1806 405H2032L1919 202L1806 405Z M1919 202H2145L2032 405L1919 202Z M-111 608H115L2 405L-111 608Z M340 608H566L453 405L340 608Z M566 608H791L678 405L566 608Z M1017 608H1242L1129 405L1017 608Z M-111 405H2L-111 608V405Z M227 405H453L340 608L227 405Z M1129 405H1355L1242 608L1129 405Z M2 405H227L115 202L2 405Z M904 405H1129L1017 202L904 405Z M1355 405H1580L1468 202L1355 405Z M1806 405H1694H1580L1694 608L1806 405Z M115 202H340L227 405L115 202Z M566 202H791L678 405L566 202Z M791 202H1017L904 405L791 202Z M1242 202H1467L1355 405L1242 202Z M-110 607H117L3 810L-110 607Z M228 810H453L340 607L228 810Z M453 810H679L566 607L453 810Z M904 810H1129L1017 607L904 810Z M1580 810H1806L1693 607L1580 810Z M115 607H340L228 810L115 607Z M566 607H791L679 810L566 607Z M1017 607H1242L1129 810L1017 607Z M1242 607H1468L1355 810L1242 607Z M1468 607H1693L1580 810L1468 607Z M1919 607H2145L2031 810L1919 607Z M904 810H1129L1017 607L904 810Z M1355 810H1580L1468 607L1355 810Z M1580 810H1806L1693 607L1580 810Z M566 607H791L679 810L566 607Z M791 607H1017L904 810L791 607Z M1242 607H1468L1355 810L1242 607Z"/>
    <path fill="#2E3E54" d="M115 202H341L228 -2L115 202Z M2 -2H228L115 202L2 -2Z M1919 608H2145L2032 405L1919 608Z M1806 405H2032L1919 608L1806 405Z M453 405H678L566 608L453 405Z M453 405H678L566 202L453 405Z M1129 405H1355L1242 202L1129 405Z M1017 202H1242L1129 405L1017 202Z M2 810H228L115 607L2 810Z M1129 810H1355L1242 607L1129 810Z M115 607H340L228 810L115 607Z M1017 607H1242L1129 810L1017 607Z"/>
    <path fill="#3C4F66" d="M791 202H1016L903 -2L791 202Z M1242 202H1467L1354 -2L1242 202Z M1918 202H2143L2031 -2L1918 202Z M678 -2H903L791 202L678 -2Z M1354 -2H1580L1467 202L1354 -2Z M1694 202H1919L1806 405L1694 202Z M115 608H340L227 405L115 608Z M791 608H1017L904 405L791 608Z M1242 608H1467L1355 405L1242 608Z M2 405H227L115 608L2 405Z M904 405H1129L1017 608L904 405Z M1355 405H1580L1468 608L1355 405Z M-111 405H2L-111 202V405Z M227 405H453L340 202L227 405Z M1806 405L1694 202V202L1580 405H1694H1806Z M-111 202H115L2 405L-111 202Z M340 202H566L453 405L340 202Z M3 810H117V607L3 810Z M115 810H228L115 607V810Z M679 810H904L791 607L679 810Z M1129 810H1355L1242 607L1129 810Z M1355 810H1580L1468 607L1355 810Z M340 607H566L453 810L340 607Z M791 607H1017L904 810L791 607Z M1693 607H1919L1806 810L1693 607Z M453 810H679L566 607L453 810Z M1806 810H2031L1919 607L1806 810Z M340 607H566L453 810L340 607Z M1693 607H1919L1806 810L1693 607Z"/>
    <path fill="#2E3B4E" d="M1467 202H1692L1580 -2L1467 202Z M452 -2H678L565 202L452 -2Z M1129 -2H1354L1242 202L1129 -2Z M1805 -2H2031L1918 202L1805 -2Z M1467 608H1694L1580 405L1467 608Z M678 405H904L791 608L678 405Z M678 405H904L791 202L678 405Z M1467 202H1694L1580 405L1467 202Z M-111 810H2L-111 607V810Z M228 810H453L340 607L228 810Z M679 810H904L791 607L679 810Z M-111 607H115L2 810L-111 607Z M1468 607L1580 601L1693 607L1580 810L1468 607Z"/>
</svg>