<svg width="375" height="613" viewBox="0 0 375 613" fill="none" xmlns="http://www.w3.org/2000/svg">
<g clip-path="url(#clip0_1565_2384)">
<rect width="613" height="375" transform="translate(0 613) rotate(-90)" fill="#3C4F66"/>
<path d="M93.2877 614.227L93.2877 502.427L-0.722659 558.341L93.2877 614.227Z" fill="#3C4F66"/>
<path d="M93.2877 55.2031L93.2877 -56.5964L-0.722659 -0.682002L93.2877 55.2031Z" fill="#324259"/>
<path d="M93.2877 502.414L93.2877 390.615L-0.722659 446.5L93.2877 502.414Z" fill="#2E3B4E"/>
<path d="M93.2877 390.625L93.2877 278.825L-0.722659 334.711L93.2877 390.625Z" fill="#324259"/>
<path d="M93.2877 278.828L93.2877 166.999L-0.722659 222.914L93.2877 278.828Z" fill="#2E3B4E"/>
<path d="M93.2877 167.039L93.2877 54.8906L-0.722659 111.125L93.2877 167.039Z" fill="#324259"/>
<path d="M-0.722656 670.148L-0.722661 558.349L93.2877 614.234L-0.722656 670.148Z" fill="#2E3B4E"/>
<path d="M-0.722656 558.328L-0.722661 446.499L93.2877 502.414L-0.722656 558.328Z" fill="#3C4F66"/>
<path d="M-0.722656 111.102L-0.722661 -0.697989L93.2877 55.1871L-0.722656 111.102Z" fill="#2E3B4E"/>
<path d="M-0.722656 446.516L-0.722661 334.716L93.2877 390.63L-0.722656 446.516Z" fill="#324259"/>
<path d="M-0.722656 334.719L-0.722661 222.919L93.2877 278.834L-0.722656 334.719Z" fill="#2E3B4E"/>
<path d="M-0.722656 222.914L-0.722661 111.115L93.2877 167.029L-0.722656 222.914Z" fill="#324259"/>
<path d="M281.331 390.086L281.331 278.257L187.32 334.172L281.331 390.086Z" fill="#324259"/>
<path d="M281.331 278.258L281.331 166.458L187.32 222.373L281.331 278.258Z" fill="#2E3E54"/>
<path d="M281.331 166.469L281.331 54.6692L187.32 110.584L281.331 166.469Z" fill="#324259"/>
<path d="M281.331 55.2109L281.331 -56.5886L187.32 -0.674189L281.331 55.2109Z" fill="#324259"/>
<path d="M187.32 334.164L187.32 222.365L281.331 278.25L187.32 334.164Z" fill="#2E3E54"/>
<path d="M187.32 111.109L187.32 -0.690177L281.331 55.195L187.32 111.109Z" fill="#2E3B4E"/>
<path d="M187.32 222.055L187.32 110.255L281.331 166.17L187.32 222.055Z" fill="#324259"/>
<path d="M187.323 334.164L187.323 222.365L93.3125 278.25L187.323 334.164Z" fill="#324259"/>
<path d="M187.323 222.367L187.323 110.568L93.3125 166.453L187.323 222.367Z" fill="#3C4F66"/>
<path d="M93.3125 390.086L93.3125 278.257L187.323 334.172L93.3125 390.086Z" fill="#3C4F66"/>
<path d="M93.3125 278.258L93.3125 166.458L187.323 222.373L93.3125 278.258Z" fill="#324259"/>
<path d="M93.3125 54.6719L93.3125 -57.1275L187.323 -1.24237L93.3125 54.6719Z" fill="#324259"/>
<path d="M93.3125 166.469L93.3125 54.6692L187.323 110.584L93.3125 166.469Z" fill="#3C4F66"/>
<path d="M281.346 613.992L281.346 502.193L187.336 558.107L281.346 613.992Z" fill="#3C4F66"/>
<path d="M281.346 502.195L281.346 390.076L187.336 446.31L281.346 502.195Z" fill="#2E3B4E"/>
<path d="M187.336 669.922L187.336 558.122L281.346 614.007L187.336 669.922Z" fill="#324259"/>
<path d="M187.336 558.109L187.336 446.31L281.346 502.195L187.336 558.109Z" fill="#3C4F66"/>
<path d="M187.342 110.563L187.342 -1.26615L93.332 54.6481L187.342 110.563Z" fill="#2E3B4E"/>
<path d="M187.342 669.922L187.342 558.122L93.332 614.007L187.342 669.922Z" fill="#2E3E54"/>
<path d="M187.342 558.109L187.342 446.31L93.332 502.195L187.342 558.109Z" fill="#324259"/>
<path d="M187.336 334.172L187.336 390.086L187.336 446.32L281.346 390.086L187.336 334.172Z" fill="#324259"/>
<path d="M187.334 334.172L93.2969 390.086L93.3241 390.086L187.334 446.32L187.334 390.086L187.334 334.172Z" fill="#3C4F66"/>
<path d="M93.3359 613.992L93.3359 502.193L187.346 558.107L93.3359 613.992Z" fill="#324259"/>
<path d="M93.3359 502.195L93.3359 390.076L187.346 446.31L93.3359 502.195Z" fill="#2E3B4E"/>
<path d="M375.159 669.828L375.159 558.029L281.148 613.943L375.159 669.828Z" fill="#3C4F66"/>
<path d="M375.159 558.031L375.159 446.232L281.148 502.146L375.159 558.031Z" fill="#3C4F66"/>
<path d="M375.159 446.227L375.159 334.427L281.148 390.312L375.159 446.227Z" fill="#324259"/>
<path d="M281.148 613.922L281.148 502.093L375.159 558.007L281.148 613.922Z" fill="#324259"/>
<path d="M281.148 502.141L281.148 390.312L375.159 446.226L281.148 502.141Z" fill="#324259"/>
<path d="M281.148 390.297L281.148 278.497L375.159 334.412L281.148 390.297Z" fill="#3C4F66"/>
<path d="M281.148 278.5L281.148 166.381L375.159 222.615L281.148 278.5Z" fill="#324259"/>
<path d="M281.148 167.523L281.148 55.375L375.159 111.609L281.148 167.523Z" fill="#3C4F66"/>
<path d="M281.148 55.8516L281.148 -56.2969L375.159 -0.0628425L281.148 55.8516Z" fill="#324259"/>
<path d="M375.147 669.844L375.147 558.044L281.137 613.959L375.147 669.844Z" fill="#2E3E54"/>
<path d="M375.147 558.031L375.147 446.232L281.137 502.146L375.147 558.031Z" fill="#324259"/>
<path d="M375.147 446.242L375.147 334.443L281.137 390.328L375.147 446.242Z" fill="#3C4F66"/>
<path d="M375.147 334.43L375.147 222.63L281.137 278.195L375.147 334.43Z" fill="#324259"/>
<path d="M375.147 222.383L375.147 110.583L281.137 166.149L375.147 222.383Z" fill="#3C4F66"/>
<path d="M375.147 111.594L375.147 -0.205806L281.137 55.3595L375.147 111.594Z" fill="#2E3B4E"/>
<path d="M281.137 613.961L281.137 502.132L375.147 558.047L281.137 613.961Z" fill="#324259"/>
<path d="M281.145 502.156L278.426 446.533L281.145 390.328L375.156 446.242L281.145 502.156Z" fill="#2E3B4E"/>
<path d="M281.137 390.32L281.137 278.201L375.147 334.435L281.137 390.32Z" fill="#3C4F66"/>
</g>
<defs>
<clipPath id="clip0_1565_2384">
<rect width="613" height="375" fill="white" transform="translate(0 613) rotate(-90)"/>
</clipPath>
</defs>
</svg>
