<svg width="0" height="0" class="hidden">
    <symbol version="1.1" xmlns="http://www.w3.org/2000/svg" viewBox="0 0 1536 512" id="logo">
        <path fill="currentColor" d="M0 9.12h181.167c108.106 0 200.977 39.508 200.977 164.077s-94.385 173.206-197.917 173.206h-53.281v156.489h-130.945v-493.772zM178.137 243.083c51.766 0 76.12-25.816 76.12-69.887s-28.928-60.758-79.178-60.758h-44.163v130.674l47.221-0.029z"></path>
        <path fill="currentColor" d="M417.529 259.786c0-165.618 114.195-259.808 239.024-259.808 65.455 0 118.737 30.38 153.751 65.323l-68.515 83.55c-24.355-21.28-48.71-36.455-82.211-36.455-57.85 0-108.103 53.171-108.103 142.827s42.62 144.338 106.562 144.338c38.074 0 68.515-19.74 89.838-42.531l68.52 82.038c-41.862 48.607-98.962 72.94-162.904 72.94-126.371 0-235.993-83.55-235.993-252.221z"></path>
        <path fill="currentColor" d="M826.758 259.786c0-165.618 114.193-259.808 239.023-259.808 65.455 0 118.737 30.38 153.781 65.323l-68.515 83.55c-24.355-21.28-48.71-36.455-82.211-36.455-57.85 0-108.102 53.171-108.102 142.827s42.618 144.338 106.56 144.338c38.074 0 68.515-19.74 89.81-42.531l68.521 82.038c-41.862 48.607-98.962 72.94-162.904 72.94-126.371 0-235.991-83.55-235.991-252.221z"></path>
        <path fill="currentColor" d="M1374.744 99.795l-161.245 160.909 161.245 160.908 161.239-160.908-161.239-160.909zM1272.664 260.704h204.154l-102.074 101.865-102.080-101.865z"></path>
    </symbol>
    <symbol version="1.1" xmlns="http://www.w3.org/2000/svg" viewBox="0 0 313 512" id="short-arrow-right">
        <path fill="none" stroke-linejoin="round" stroke-linecap="round" stroke-miterlimit="4" stroke-width="85.3333" stroke="currentColor" d="M42.666 42.666l212.947 212.947-212.947 212.946"></path>
    </symbol>
    <symbol version="1.1" xmlns="http://www.w3.org/2000/svg" viewBox="0 0 313 512" id="short-arrow-left">
        <path fill="none" stroke-linejoin="round" stroke-linecap="round" stroke-miterlimit="4" stroke-width="85.3333" stroke="currentColor" d="M255.667 468.563l-212.947-212.947 212.947-212.947"></path>
    </symbol>
    <symbol version="1.1" xmlns="http://www.w3.org/2000/svg" viewBox="0 0 478 512" id="arrow-right">
        <path fill="none" stroke-linejoin="round" stroke-linecap="round" stroke-miterlimit="4" stroke-width="65.6466" stroke="currentColor" d="M224.623 32.823l217.776 221.867M442.399 254.69l-217.776 221.867M442.399 254.69h-409.599"></path>
    </symbol>
    <symbol version="1.1" xmlns="http://www.w3.org/2000/svg" viewBox="0 0 512 512" id="stages">
        <path fill="none" stroke-linejoin="round" stroke-linecap="round" stroke-miterlimit="4" stroke-width="38.4" stroke="currentColor" d="M76.8 409.6h89.6v-102.4h89.6v-102.4h89.6v-102.4h89.6"></path>
    </symbol>
    <symbol version="1.1" xmlns="http://www.w3.org/2000/svg" viewBox="0 0 512 512" id="rooms">
        <path fill="none" stroke-linejoin="round" stroke-linecap="round" stroke-miterlimit="4" stroke-width="35.84" stroke="currentColor" d="M192 448h-85.333c-11.316 0-22.168-4.495-30.17-12.498-8.002-8-12.497-18.852-12.497-30.17v-298.666c0-11.316 4.495-22.168 12.497-30.17s18.854-12.497 30.17-12.497h298.665c11.318 0 22.169 4.495 30.169 12.497 8.002 8.002 12.498 18.854 12.498 30.17v298.666c0 11.318-4.495 22.169-12.498 30.169-8 8.002-18.852 12.498-30.169 12.498h-106.665M192 64v149.333M448 213.333h-149.332M64 320h192"></path>
    </symbol>
    <symbol version="1.1" xmlns="http://www.w3.org/2000/svg" viewBox="0 0 512 512" id="square">
        <path stroke-linejoin="miter" stroke-linecap="butt" stroke-miterlimit="4" stroke-width="14.2222" stroke="currentColor"  d="M333.363 184.499l122.339-121.588-0.397 68.921c-0.128 5.745 4.429 10.745 10.183 10.617l7.296-0.007c5.753-0.136 10.509-3.556 10.63-9.302l0.301-102.671c0-0.099-0.394-0.177-0.394-0.277l0.563-5.206c0.058-2.887-0.618-5.462-2.483-7.303-1.84-1.856-4.423-2.986-7.286-2.909l-5.2 0.121c-0.099 0-0.176 0.036-0.285 0.050l-101.993-0.448c-5.744 0.128-10.502 4.878-10.63 10.631l-0.016 7.297c0.877 6.777 6.202 10.738 11.949 10.61l67.219 0.178-121.904 121.166c-5.554 5.553-5.554 14.556 0 20.117 5.553 5.547 14.558 5.547 20.11 0zM179.223 299l-122.339 121.208 0.391-68.544c0.136-5.753-4.431-10.752-10.176-10.624l-7.743 0.016c-5.76 0.141-10.511 3.555-10.632 9.309l-0.299 102.669c0 0.099 0.391 0.163 0.391 0.279l-0.562 5.19c-0.064 2.887 0.611 5.475 2.482 7.303 1.835 1.863 4.423 2.986 7.281 2.915l5.206-0.128c0.099 0 0.17-0.041 0.285-0.041l102.442 0.448c5.745-0.144 10.496-4.893 10.631-10.64l0.014-7.303c-0.874-6.762-6.201-10.736-11.946-10.608l-67.221-0.179 121.899-121.151c5.554-5.554 5.554-14.557 0-20.111s-14.55-5.561-20.103-0.007h0zM483.721 453.027l-0.298-102.672c-0.128-5.753-4.887-9.165-10.634-9.309l-7.296-0.013c-5.75-0.128-10.304 4.877-10.183 10.624l0.4 68.918-122.349-121.577c-5.552-5.554-14.555-5.554-20.109 0s-5.554 14.557 0 20.11l121.898 121.154-67.213 0.176c-5.747-0.128-11.072 3.846-11.949 10.611l0.016 7.303c0.135 5.753 4.893 10.502 10.63 10.637l102.003-0.448c0.106 0 0.183 0.045 0.285 0.045l5.197 0.128c2.867 0.070 5.453-1.053 7.289-2.915 1.863-1.837 2.531-4.416 2.48-7.305l-0.56-5.19c0-0.112 0.39-0.176 0.39-0.275v0zM77.428 43.226l67.228-0.176c5.746 0.128 11.072-3.84 11.947-10.61l-0.014-7.303c-0.143-5.753-4.894-10.51-10.631-10.631l-102.45 0.441c-0.114-0.014-0.185-0.050-0.285-0.050l-5.206-0.121c-2.858-0.078-5.454 1.053-7.282 2.909-1.87 1.842-2.546 4.416-2.482 7.303l0.562 5.206c0 0.099-0.391 0.171-0.391 0.277l0.299 102.67c0.128 5.746 4.879 9.166 10.631 9.302l7.744 0.006c5.746 0.128 10.303-4.871 10.175-10.617l-0.391-68.544 122.339 121.209c5.547 5.554 14.557 5.554 20.111 0s5.554-14.564 0-20.118l-121.906-121.153z"></path>
    </symbol>
    <symbol version="1.1" xmlns="http://www.w3.org/2000/svg" viewBox="0 0 512 512" id="xmark">
        <path fill="none" stroke-linejoin="round" stroke-linecap="round" stroke-miterlimit="4" stroke-width="85.3333" stroke="currentColor" d="M42.666 42.666l212.947 212.947-212.947 212.947"></path>
        <path fill="none" stroke-linejoin="round" stroke-linecap="round" stroke-miterlimit="4" stroke-width="85.3333" stroke="currentColor" d="M465.25 468.582l-212.947-212.947 212.947-212.946"></path>
    </symbol>
    <symbol version="1.1" xmlns="http://www.w3.org/2000/svg" viewBox="0 0 512 512" id="copy">
        <path fill="currentColor" d="M406.69 163.595l-116.303-116.302c-2.954-2.959-6.966-4.623-11.147-4.627h-51.947c-15.339 0-30.050 6.093-40.896 16.94s-16.94 25.557-16.94 40.896v26.289h-26.289c-15.339 0-30.049 6.093-40.896 16.939s-16.939 25.557-16.939 40.896v210.31c0 15.341 6.094 30.050 16.939 40.896 10.847 10.848 25.557 16.941 40.896 16.941h147.218c15.339 0 30.050-6.093 40.896-16.941 10.846-10.846 16.938-25.555 16.938-40.896v-26.289h5.259c15.339 0 30.050-6.093 40.896-16.938s16.938-25.558 16.938-40.896v-136.702c-0.164-3.962-1.815-7.716-4.625-10.516zM295.646 96.507l61.83 61.831h-61.831v-61.832zM316.676 394.938c0 6.974-2.769 13.659-7.699 18.59s-11.618 7.699-18.59 7.699h-147.218c-6.972 0-13.659-2.769-18.589-7.699s-7.7-11.616-7.7-18.59v-210.31c0-6.972 2.769-13.659 7.7-18.589s11.617-7.7 18.589-7.7h26.289v152.476c0 15.339 6.094 30.050 16.94 40.896s25.557 16.938 40.896 16.938h89.382v26.289zM353.481 337.103h-126.186c-6.971 0-13.66-2.769-18.589-7.699s-7.7-11.618-7.7-18.59v-210.311c0-6.972 2.769-13.659 7.7-18.589 4.929-4.93 11.618-7.7 18.589-7.7h36.804v99.898c0.055 4.167 1.735 8.147 4.68 11.094s6.927 4.625 11.094 4.68h99.897v120.929c0 6.971-2.769 13.659-7.699 18.59s-11.618 7.699-18.59 7.699z"></path>
        <path fill="currentColor" d="M238.149 273.382h102.527c7.078 0 12.816 5.738 12.816 12.816v0c0 7.078-5.738 12.816-12.816 12.816h-102.527c-7.078 0-12.816-5.738-12.816-12.816v0c0-7.078 5.738-12.816 12.816-12.816z"></path>
        <path fill="currentColor" d="M238.149 222.117h102.527c7.078 0 12.816 5.738 12.816 12.816v0c0 7.078-5.738 12.816-12.816 12.816h-102.527c-7.078 0-12.816-5.738-12.816-12.816v0c0-7.078 5.738-12.816 12.816-12.816z"></path>
    </symbol>
</svg>