<svg width="0" height="0" class="hidden">
    <symbol version="1.1" xmlns="http://www.w3.org/2000/svg" viewBox="0 0 1536 512" id="logo">
        <path fill="currentColor" d="M0 9.12h181.167c108.106 0 200.977 39.508 200.977 164.077s-94.385 173.206-197.917 173.206h-53.281v156.489h-130.945v-493.772zM178.137 243.083c51.766 0 76.12-25.816 76.12-69.887s-28.928-60.758-79.178-60.758h-44.163v130.674l47.221-0.029z"></path>
        <path fill="currentColor" d="M417.529 259.786c0-165.618 114.195-259.808 239.024-259.808 65.455 0 118.737 30.38 153.751 65.323l-68.515 83.55c-24.355-21.28-48.71-36.455-82.211-36.455-57.85 0-108.103 53.171-108.103 142.827s42.62 144.338 106.562 144.338c38.074 0 68.515-19.74 89.838-42.531l68.52 82.038c-41.862 48.607-98.962 72.94-162.904 72.94-126.371 0-235.993-83.55-235.993-252.221z"></path>
        <path fill="currentColor" d="M826.758 259.786c0-165.618 114.193-259.808 239.023-259.808 65.455 0 118.737 30.38 153.781 65.323l-68.515 83.55c-24.355-21.28-48.71-36.455-82.211-36.455-57.85 0-108.102 53.171-108.102 142.827s42.618 144.338 106.56 144.338c38.074 0 68.515-19.74 89.81-42.531l68.521 82.038c-41.862 48.607-98.962 72.94-162.904 72.94-126.371 0-235.991-83.55-235.991-252.221z"></path>
        <path fill="currentColor" d="M1374.744 99.795l-161.245 160.909 161.245 160.908 161.239-160.908-161.239-160.909zM1272.664 260.704h204.154l-102.074 101.865-102.080-101.865z"></path>
    </symbol>
    <symbol version="1.1" xmlns="http://www.w3.org/2000/svg" viewBox="0 0 313 512" id="short-arrow-right">
        <path fill="none" stroke-linejoin="round" stroke-linecap="round" stroke-miterlimit="4" stroke-width="85.3333" stroke="currentColor" d="M42.666 42.666l212.947 212.947-212.947 212.946"></path>
    </symbol>
    <symbol version="1.1" xmlns="http://www.w3.org/2000/svg" viewBox="0 0 313 512" id="short-arrow-left">
        <path fill="none" stroke-linejoin="round" stroke-linecap="round" stroke-miterlimit="4" stroke-width="85.3333" stroke="currentColor" d="M255.667 468.563l-212.947-212.947 212.947-212.947"></path>
    </symbol>
    <symbol version="1.1" xmlns="http://www.w3.org/2000/svg" viewBox="0 0 478 512" id="arrow-right">
        <path fill="none" stroke-linejoin="round" stroke-linecap="round" stroke-miterlimit="4" stroke-width="65.6466" stroke="currentColor" d="M224.623 32.823l217.776 221.867M442.399 254.69l-217.776 221.867M442.399 254.69h-409.599"></path>
    </symbol>
</svg>