<svg width="0" height="0" class="hidden">
    <symbol version="1.1" xmlns="http://www.w3.org/2000/svg" viewBox="0 0 1536 512" id="logo">
        <path fill="currentColor" d="M0 9.12h181.167c108.106 0 200.977 39.508 200.977 164.077s-94.385 173.206-197.917 173.206h-53.281v156.489h-130.945v-493.772zM178.137 243.083c51.766 0 76.12-25.816 76.12-69.887s-28.928-60.758-79.178-60.758h-44.163v130.674l47.221-0.029z"></path>
        <path fill="currentColor" d="M417.529 259.786c0-165.618 114.195-259.808 239.024-259.808 65.455 0 118.737 30.38 153.751 65.323l-68.515 83.55c-24.355-21.28-48.71-36.455-82.211-36.455-57.85 0-108.103 53.171-108.103 142.827s42.62 144.338 106.562 144.338c38.074 0 68.515-19.74 89.838-42.531l68.52 82.038c-41.862 48.607-98.962 72.94-162.904 72.94-126.371 0-235.993-83.55-235.993-252.221z"></path>
        <path fill="currentColor" d="M826.758 259.786c0-165.618 114.193-259.808 239.023-259.808 65.455 0 118.737 30.38 153.781 65.323l-68.515 83.55c-24.355-21.28-48.71-36.455-82.211-36.455-57.85 0-108.102 53.171-108.102 142.827s42.618 144.338 106.56 144.338c38.074 0 68.515-19.74 89.81-42.531l68.521 82.038c-41.862 48.607-98.962 72.94-162.904 72.94-126.371 0-235.991-83.55-235.991-252.221z"></path>
        <path fill="currentColor" d="M1374.744 99.795l-161.245 160.909 161.245 160.908 161.239-160.908-161.239-160.909zM1272.664 260.704h204.154l-102.074 101.865-102.080-101.865z"></path>
    </symbol>
    <symbol version="1.1" xmlns="http://www.w3.org/2000/svg" viewBox="0 0 313 512" id="short-arrow-right">
        <path fill="none" stroke-linejoin="round" stroke-linecap="round" stroke-miterlimit="4" stroke-width="85.3333" stroke="currentColor" d="M42.666 42.666l212.947 212.947-212.947 212.946"></path>
    </symbol>
    <symbol version="1.1" xmlns="http://www.w3.org/2000/svg" viewBox="0 0 313 512" id="short-arrow-left">
        <path fill="none" stroke-linejoin="round" stroke-linecap="round" stroke-miterlimit="4" stroke-width="85.3333" stroke="currentColor" d="M255.667 468.563l-212.947-212.947 212.947-212.947"></path>
    </symbol>
    <symbol version="1.1" xmlns="http://www.w3.org/2000/svg" viewBox="0 0 478 512" id="arrow-right">
        <path fill="none" stroke-linejoin="round" stroke-linecap="round" stroke-miterlimit="4" stroke-width="65.6466" stroke="currentColor" d="M224.623 32.823l217.776 221.867M442.399 254.69l-217.776 221.867M442.399 254.69h-409.599"></path>
    </symbol>
    <symbol version="1.1" xmlns="http://www.w3.org/2000/svg" viewBox="0 0 512 512" id="xmark">
        <path fill="none" stroke-linejoin="round" stroke-linecap="round" stroke-miterlimit="4" stroke-width="85.3333" stroke="currentColor" d="M42.666 42.666l212.947 212.947-212.947 212.947"></path>
        <path fill="none" stroke-linejoin="round" stroke-linecap="round" stroke-miterlimit="4" stroke-width="85.3333" stroke="currentColor" d="M465.25 468.582l-212.947-212.947 212.947-212.946"></path>
    </symbol>
    <symbol version="1.1" xmlns="http://www.w3.org/2000/svg" viewBox="0 0 512 512" id="stages">
        <path fill="none" stroke-linejoin="round" stroke-linecap="round" stroke-miterlimit="4" stroke-width="26.6667" stroke="currentColor" d="M106.666 384h80v-91.428h80v-91.43h80v-91.428h80"></path>
    </symbol>
    <symbol version="1.1" xmlns="http://www.w3.org/2000/svg" viewBox="0 0 512 512" id="square">
        <path fill="currentColor" d="M313.901 213.004l91.646-91.314-0.296 51.761c-0.098 4.315 3.317 8.070 7.627 7.974l5.466-0.006c4.31-0.101 7.874-2.671 7.964-6.986l0.224-77.106c0-0.075 0 0.075 0 0l0.128-4.117c0.043-2.168-0.463-4.102-1.858-5.484-1.38-1.394-3.313-2.243-5.462-2.184l-3.894 0.091c-0.075 0-0.132 0.026-0.214 0.038l-76.406-0.337c-4.305 0.096-7.868 3.663-7.964 7.984l-0.010 5.48c0.655 5.090 4.644 8.064 8.95 7.968l50.358 0.133-91.324 90.997c-4.16 4.171-4.16 10.932 0 15.108 4.16 4.165 10.906 4.165 15.065 0zM198.43 298.995l-91.647 91.029 0.293-51.478c0.102-4.32-3.319-8.075-7.623-7.978l-5.801 0.010c-4.315 0.106-7.873 2.671-7.964 6.991l-0.224 77.107c0 6.063 0.293 0.122 0.293 0.207l-0.421 3.899c-0.048 2.168 0.458 4.111 1.859 5.485 1.374 1.399 3.314 2.242 5.455 2.189l3.9-0.096c0.074 0 0.127-0.032 0.213-0.032l76.742 0.337c4.304-0.106 7.863-3.673 7.964-7.99l0.011-5.485c-0.655-5.079-4.645-8.064-8.95-7.968l-50.356-0.135 91.316-90.987c4.162-4.171 4.162-10.931 0-15.102-4.16-4.171-10.898-4.177-15.059-0.007zM426.536 414.671l-0.224-77.107c-0.096-4.32-3.659-6.882-7.964-6.989l-5.466-0.010c-4.31-0.098-7.719 3.663-7.629 7.976l0.298 51.761-91.652-91.307c-4.16-4.171-10.904-4.171-15.065 0-4.16 4.171-4.16 10.931 0 15.102l91.317 90.986-50.351 0.135c-4.305-0.096-8.295 2.889-8.95 7.968l0.010 5.485c0.101 4.32 3.665 7.889 7.964 7.99l76.411-0.337c0.079 0 0.139 0.032 0.214 0.032l3.894 0.096c2.146 0.053 4.086-0.789 5.462-2.189 1.395-1.378 1.897-3.317 1.858-5.485l-0.128-4.106c0 0.075 0-0.083 0 0zM122.174 106.907l50.362-0.132c4.304 0.096 8.294-2.884 8.95-7.969l-0.011-5.484c-0.107-4.32-3.666-7.894-7.964-7.984l-76.748 0.331c-0.085-0.010-0.138-0.037-0.213-0.037l-3.9-0.091c-2.141-0.058-4.085 0.791-5.455 2.184-1.401 1.383-1.907 3.317-1.859 5.484l0.421 3.909c0 0.075-0.293 0.128-0.293 0.208l0.224 77.106c0.096 4.315 3.654 6.884 7.964 6.986l5.801 0.005c4.305 0.096 7.719-3.658 7.623-7.974l-0.293-51.477 91.647 91.029c4.155 4.171 10.905 4.171 15.065 0 4.162-4.172 4.162-10.938 0-15.108l-91.322-90.987z"></path>
        <path fill="none" stroke-linejoin="miter" stroke-linecap="butt" stroke-miterlimit="4" stroke-width="5.3333" stroke="currentColor" d="M426.53 97.327l-0.224 77.106c-0.089 4.315-3.654 6.884-7.964 6.986l-5.466 0.006c-4.31 0.096-7.725-3.658-7.627-7.974l0.296-51.761-91.646 91.314c-4.16 4.165-10.906 4.165-15.065 0-4.16-4.177-4.16-10.938 0-15.108l91.323-90.997-50.358-0.133c-4.305 0.096-8.295-2.879-8.95-7.968l0.010-5.48c0.096-4.32 3.659-7.888 7.964-7.984l76.406 0.337c0.081-0.011 0.139-0.038 0.214-0.038l3.894-0.091c2.149-0.059 4.081 0.79 5.462 2.184 1.395 1.383 1.901 3.316 1.858 5.484l-0.128 4.117zM426.53 97.327c0-0.075 0 0.075 0 0zM426.536 414.671l-0.224-77.107c-0.096-4.32-3.659-6.882-7.964-6.989l-5.466-0.010c-4.31-0.098-7.719 3.663-7.629 7.976l0.298 51.761-91.652-91.307c-4.16-4.171-10.904-4.171-15.065 0-4.16 4.171-4.16 10.931 0 15.102l91.317 90.986-50.351 0.135c-4.305-0.096-8.295 2.889-8.95 7.968l0.010 5.485c0.101 4.32 3.665 7.889 7.964 7.99l76.411-0.337c0.079 0 0.139 0.032 0.214 0.032l3.894 0.096c2.146 0.053 4.086-0.789 5.462-2.189 1.395-1.378 1.897-3.317 1.858-5.485l-0.128-4.106zM426.536 414.671c0-0.083 0 0.075 0 0zM198.43 298.995l-91.647 91.029 0.293-51.478c0.102-4.32-3.319-8.075-7.623-7.978l-5.801 0.010c-4.315 0.106-7.873 2.671-7.964 6.991l-0.224 77.107c0 6.063 0.293 0.122 0.293 0.207l-0.421 3.899c-0.048 2.168 0.458 4.111 1.859 5.485 1.374 1.399 3.314 2.242 5.455 2.189l3.9-0.096c0.074 0 0.127-0.032 0.213-0.032l76.742 0.337c4.304-0.106 7.863-3.673 7.964-7.99l0.011-5.485c-0.655-5.079-4.645-8.064-8.95-7.968l-50.356-0.135 91.316-90.987c4.162-4.171 4.162-10.931 0-15.102-4.16-4.171-10.898-4.177-15.059-0.007zM122.174 106.907l50.362-0.132c4.304 0.096 8.294-2.884 8.95-7.969l-0.011-5.484c-0.107-4.32-3.666-7.894-7.964-7.984l-76.748 0.331c-0.085-0.010-0.138-0.037-0.213-0.037l-3.9-0.091c-2.141-0.058-4.085 0.791-5.455 2.184-1.401 1.383-1.907 3.317-1.859 5.484l0.421 3.909c0 0.075-0.293 0.128-0.293 0.208l0.224 77.106c0.096 4.315 3.654 6.884 7.964 6.986l5.801 0.005c4.305 0.096 7.719-3.658 7.623-7.974l-0.293-51.477 91.647 91.029c4.155 4.171 10.905 4.171 15.065 0 4.162-4.172 4.162-10.938 0-15.108l-91.322-90.987z"></path>
    </symbol>
    <symbol version="1.1" xmlns="http://www.w3.org/2000/svg" viewBox="0 0 512 512" id="rooms">
        <path fill="none" stroke-linejoin="round" stroke-linecap="round" stroke-miterlimit="4" stroke-width="26.6667" stroke="currentColor" d="M199.111 426.666h-75.852c-10.058 0-19.705-3.995-26.817-11.108s-11.109-16.76-11.109-26.818v-265.481c0-10.058 3.995-19.705 11.108-26.817s16.759-11.108 26.817-11.108h265.481c10.058 0 19.706 3.995 26.818 11.108s11.108 16.759 11.108 26.817v265.481c0 10.058-3.995 19.706-11.108 26.818s-16.76 11.108-26.818 11.108h-94.814M199.111 85.334v132.74M426.666 218.073h-132.74M85.334 312.889h170.666"></path>
    </symbol>
    <symbol version="1.1" xmlns="http://www.w3.org/2000/svg" viewBox="0 0 512 512" id="garage">
        <path fill="currentColor" d="M279.736 118.163l95.255 84.682c3.767 3.351 6.784 7.46 8.849 12.060 2.067 4.6 3.136 9.585 3.136 14.629v157.218h-23.813v-84.173c0-14.257 0-26.166-1.272-35.594-1.334-9.971-4.286-18.971-11.526-26.195-7.224-7.24-16.224-10.193-26.195-11.526-9.43-1.269-21.32-1.269-35.593-1.269h-65.156c-14.256 0-26.163 0-35.609 1.269-9.954 1.333-18.956 4.286-26.196 11.526-7.224 7.224-10.177 16.224-11.51 26.195-1.27 9.43-1.27 21.337-1.27 35.594v84.173h-23.814v-157.218c0.001-5.043 1.070-10.029 3.136-14.629s5.082-8.71 8.851-12.060l95.255-84.682c6.541-5.814 14.984-9.025 23.736-9.025s17.194 3.212 23.735 9.025zM410.791 386.752v-157.218c0-8.41-1.781-16.722-5.226-24.393s-8.476-14.524-14.76-20.109l-95.255-84.666c-10.897-9.684-24.969-15.032-39.548-15.032s-28.65 5.349-39.548 15.032l-95.255 84.666c-6.285 5.585-11.316 12.439-14.761 20.109s-5.227 15.982-5.227 24.392v157.218h-3.969c-3.158 0-6.186 1.255-8.419 3.488s-3.487 5.261-3.487 8.421c0 3.158 1.254 6.187 3.487 8.418 2.233 2.233 5.261 3.488 8.419 3.488h317.52c3.158 0 6.187-1.255 8.418-3.488 2.233-2.231 3.488-5.261 3.488-8.418 0-3.159-1.255-6.187-3.488-8.421-2.231-2.233-5.261-3.488-8.418-3.488h-3.97zM339.349 386.752h-166.698v-83.347c0-15.305 0.032-25.577 1.048-33.261 1-7.32 2.699-10.43 4.763-12.51s5.208-3.778 12.526-4.763c7.668-1.032 17.956-1.063 33.26-1.063h63.505c15.305 0 25.591 0.030 33.258 1.048 7.32 1 10.432 2.698 12.512 4.761 2.078 2.065 3.778 5.207 4.762 12.527 1.033 7.685 1.065 17.957 1.065 33.261v83.347zM196.465 351.614c0 3.158 1.255 6.187 3.488 8.418 2.233 2.233 5.262 3.488 8.419 3.488h95.257c3.158 0 6.187-1.255 8.418-3.488 2.233-2.231 3.488-5.261 3.488-8.418 0-3.159-1.255-6.187-3.488-8.421-2.231-2.233-5.261-3.488-8.418-3.488h-95.257c-3.158 0-6.186 1.255-8.419 3.488s-3.488 5.261-3.488 8.421z"></path>
    </symbol>
    <symbol version="1.1" xmlns="http://www.w3.org/2000/svg" viewBox="0 0 512 512" id="copy">
        <path fill="currentColor" d="M406.69 163.595l-116.303-116.302c-2.954-2.959-6.966-4.623-11.147-4.627h-51.947c-15.339 0-30.050 6.093-40.896 16.94s-16.94 25.557-16.94 40.896v26.289h-26.289c-15.339 0-30.049 6.093-40.896 16.939s-16.939 25.557-16.939 40.896v210.31c0 15.341 6.094 30.050 16.939 40.896 10.847 10.848 25.557 16.941 40.896 16.941h147.218c15.339 0 30.050-6.093 40.896-16.941 10.846-10.846 16.938-25.555 16.938-40.896v-26.289h5.259c15.339 0 30.050-6.093 40.896-16.938s16.938-25.558 16.938-40.896v-136.702c-0.164-3.962-1.815-7.716-4.625-10.516zM295.646 96.507l61.83 61.831h-61.831v-61.832zM316.676 394.938c0 6.974-2.769 13.659-7.699 18.59s-11.618 7.699-18.59 7.699h-147.218c-6.972 0-13.659-2.769-18.589-7.699s-7.7-11.616-7.7-18.59v-210.31c0-6.972 2.769-13.659 7.7-18.589s11.617-7.7 18.589-7.7h26.289v152.476c0 15.339 6.094 30.050 16.94 40.896s25.557 16.938 40.896 16.938h89.382v26.289zM353.481 337.103h-126.186c-6.971 0-13.66-2.769-18.589-7.699s-7.7-11.618-7.7-18.59v-210.311c0-6.972 2.769-13.659 7.7-18.589 4.929-4.93 11.618-7.7 18.589-7.7h36.804v99.898c0.055 4.167 1.735 8.147 4.68 11.094s6.927 4.625 11.094 4.68h99.897v120.929c0 6.971-2.769 13.659-7.699 18.59s-11.618 7.699-18.59 7.699z"></path>
        <path fill="currentColor" d="M238.128 273.382h102.527c7.078 0 12.816 5.738 12.816 12.816v0c0 7.078-5.738 12.816-12.816 12.816h-102.527c-7.078 0-12.816-5.738-12.816-12.816v0c0-7.078 5.738-12.816 12.816-12.816z"></path>
        <path fill="currentColor" d="M238.128 222.117h102.527c7.078 0 12.816 5.738 12.816 12.816v0c0 7.078-5.738 12.816-12.816 12.816h-102.527c-7.078 0-12.816-5.738-12.816-12.816v0c0-7.078 5.738-12.816 12.816-12.816z"></path>
    </symbol>
    <symbol version="1.1" xmlns="http://www.w3.org/2000/svg" viewBox="0 0 512 512" id="terrace">
        <path fill="none" stroke-linejoin="round" stroke-linecap="round" stroke-miterlimit="4" stroke-width="26.6667" stroke="currentColor" d="M85.334 291.557l18.963 94.814M104.296 386.37l-18.963 56.889M104.296 386.37h50.308c13.35 0 16.498 2.656 18.697 15.853l6.845 41.037M426.666 291.557l-18.963 94.814M407.704 386.37l18.963 56.889M407.704 386.37h-50.308c-13.351 0-16.497 2.656-18.699 15.853l-6.844 41.037M256 215.703v227.556M237.037 443.26h37.927M199.111 310.519h113.779M115.674 166.532c39.254-18.375 78.754-47.54 107.9-76.668 17.238-17.256 25.864-25.865 32.426-25.865s15.17 8.628 32.446 25.865c29.127 29.109 68.627 58.293 107.861 76.668 13.351 6.258 21.504 13.957 27.951 28.976 4.93 11.472 2.712 20.196-10.733 20.196h-315.050c-13.463 0-15.663-8.723-10.733-20.196 6.448-15.018 14.602-22.718 27.933-28.976z"></path>
    </symbol>
    <symbol version="1.1" xmlns="http://www.w3.org/2000/svg" viewBox="0 0 512 512" id="tip">
        <path fill="currentColor" d="M256 469.334c-117.824 0-213.333-95.51-213.333-213.334s95.51-213.333 213.333-213.333c117.824 0 213.333 95.51 213.333 213.333s-95.51 213.333-213.333 213.333zM256 426.666c45.263 0 88.674-17.982 120.68-49.986 32.005-32.007 49.986-75.418 49.986-120.68s-17.982-88.673-49.986-120.68c-32.007-32.007-75.418-49.987-120.68-49.987s-88.673 17.981-120.68 49.987-49.987 75.416-49.987 120.68c0 45.263 17.981 88.674 49.987 120.68 32.006 32.005 75.416 49.986 120.68 49.986zM256 213.333c5.658 0 11.085 2.249 15.085 6.249s6.248 9.427 6.248 15.085v106.667c0 5.658-2.248 11.085-6.248 15.085s-9.427 6.248-15.085 6.248c-5.657 0-11.085-2.248-15.085-6.248s-6.249-9.427-6.249-15.085v-106.666c0-5.657 2.249-11.085 6.249-15.085s9.427-6.249 15.085-6.249zM256 192c-5.657 0-11.085-2.248-15.085-6.249s-6.249-9.427-6.249-15.085c0-5.658 2.249-11.084 6.249-15.085s9.427-6.249 15.085-6.249c5.658 0 11.085 2.248 15.085 6.249s6.248 9.427 6.248 15.085c0 5.658-2.248 11.084-6.248 15.085s-9.427 6.249-15.085 6.249z"></path>
    </symbol>
</svg>