<svg width="20" height="20" viewBox="0 0 20 20" fill="none" xmlns="http://www.w3.org/2000/svg">
<path d="M4.32409 5.31662C4.16576 5.31662 3.99909 5.24995 3.88242 5.13328C3.64076 4.89162 3.64076 4.49162 3.88242 4.24995L6.90742 1.22495C7.14909 0.983285 7.54909 0.983285 7.79076 1.22495C8.03242 1.46662 8.03242 1.86662 7.79076 2.10828L4.76576 5.13328C4.64076 5.24995 4.48242 5.31662 4.32409 5.31662Z" fill="black"/>
<path d="M15.6753 5.31662C15.5169 5.31662 15.3586 5.25828 15.2336 5.13328L12.2086 2.10828C11.9669 1.86662 11.9669 1.46662 12.2086 1.22495C12.4503 0.983285 12.8503 0.983285 13.0919 1.22495L16.1169 4.24995C16.3586 4.49162 16.3586 4.89162 16.1169 5.13328C16.0003 5.24995 15.8336 5.31662 15.6753 5.31662Z" fill="black"/>
<path d="M16.843 8.83333C16.7846 8.83333 16.7263 8.83333 16.668 8.83333H16.4763H3.33464C2.7513 8.84167 2.08464 8.84167 1.6013 8.35833C1.21797 7.98333 1.04297 7.4 1.04297 6.54167C1.04297 4.25 2.71797 4.25 3.51797 4.25H16.4846C17.2846 4.25 18.9596 4.25 18.9596 6.54167C18.9596 7.40833 18.7846 7.98333 18.4013 8.35833C17.968 8.79167 17.3846 8.83333 16.843 8.83333ZM3.51797 7.58333H16.6763C17.0513 7.59167 17.4013 7.59167 17.518 7.475C17.5763 7.41667 17.7013 7.21667 17.7013 6.54167C17.7013 5.6 17.468 5.5 16.4763 5.5H3.51797C2.5263 5.5 2.29297 5.6 2.29297 6.54167C2.29297 7.21667 2.4263 7.41667 2.4763 7.475C2.59297 7.58333 2.9513 7.58333 3.31797 7.58333H3.51797Z" fill="black"/>
<path d="M8.13281 15.2501C7.79115 15.2501 7.50781 14.9667 7.50781 14.6251V11.6667C7.50781 11.3251 7.79115 11.0417 8.13281 11.0417C8.47448 11.0417 8.75781 11.3251 8.75781 11.6667V14.6251C8.75781 14.9751 8.47448 15.2501 8.13281 15.2501Z" fill="black"/>
<path d="M11.9668 15.25C11.6251 15.25 11.3418 14.9667 11.3418 14.625V11.6667C11.3418 11.325 11.6251 11.0417 11.9668 11.0417C12.3085 11.0417 12.5918 11.325 12.5918 11.6667V14.625C12.5918 14.975 12.3085 15.25 11.9668 15.25Z" fill="black"/>
<path d="M12.4083 18.9583H7.38329C4.39996 18.9583 3.73329 17.1833 3.47496 15.6416L2.29996 8.43331C2.24162 8.09164 2.47496 7.77498 2.81662 7.71665C3.15829 7.65831 3.47496 7.89165 3.53329 8.23331L4.70829 15.4333C4.94996 16.9083 5.44996 17.7083 7.38329 17.7083H12.4083C14.55 17.7083 14.7916 16.9583 15.0666 15.5083L16.4666 8.21664C16.5333 7.87498 16.8583 7.64998 17.2 7.72498C17.5416 7.79165 17.7583 8.11664 17.6916 8.45831L16.2916 15.75C15.9666 17.4416 15.425 18.9583 12.4083 18.9583Z" fill="black"/>
</svg>
