<svg width="31" height="30" viewBox="0 0 31 30" fill="none" xmlns="http://www.w3.org/2000/svg">
<g clip-path="url(#clip0_127_1266)">
<path fill-rule="evenodd" clip-rule="evenodd" d="M28.2266 0.09767C26.6871 0.500948 24.408 2.11044 21.2762 5.00589C18.49 7.58192 14.3288 11.9791 10.8911 15.9801C10.4039 16.5472 9.99121 17.0044 9.9741 16.9961C9.95704 16.9877 9.35168 16.6826 8.62888 16.318C6.06689 15.0255 4.32623 14.3374 2.95517 14.0751C2.24482 13.9392 1.51176 13.9613 1.06653 14.1321C0.66315 14.2868 0.254566 14.6937 0.10723 15.0876C-0.0212124 15.4308 -0.0364867 15.9482 0.0748958 16.1829C0.116057 16.2697 0.531733 16.6971 0.998587 17.1326C2.28965 18.3371 3.58126 19.7527 4.70744 21.1975C6.25132 23.1782 7.72766 25.4635 9.79636 29.075C10.252 29.8703 10.4004 30 10.8549 30C11.296 30 11.5446 29.7993 11.7535 29.2744C15.6033 19.605 20.6614 11.738 27.0859 5.42742C27.6135 4.90918 28.4881 4.05051 29.0295 3.51928C30.3559 2.21781 30.5984 1.87081 30.5975 1.27572C30.596 0.311955 29.4957 -0.234791 28.2266 0.09767Z" fill="#006699"/>
</g>
<defs>
<clipPath id="clip0_127_1266">
<rect width="30.5417" height="30" fill="white"/>
</clipPath>
</defs>
</svg>
