<svg width="15" height="20" viewBox="0 0 15 20" fill="none" xmlns="http://www.w3.org/2000/svg">
<path d="M15.0002 20H13.3335V15.7975C13.3326 15.1442 13.0727 14.518 12.6108 14.056C12.1488 13.5941 11.5226 13.3342 10.8693 13.3333H4.13088C3.47761 13.3342 2.85134 13.5941 2.38941 14.056C1.92747 14.518 1.66757 15.1442 1.66669 15.7975V20H0V15.7975C0.0013232 14.7023 0.436965 13.6524 1.21137 12.878C1.98577 12.1036 3.03571 11.6679 4.13088 11.6666H10.8693C11.9645 11.6679 13.0144 12.1036 13.7888 12.878C14.5632 13.6524 14.9988 14.7023 15.0002 15.7975V20Z" fill="black"/>
<path d="M7.50006 10.0001C6.51114 10.0001 5.54443 9.70687 4.72218 9.15745C3.89992 8.60804 3.25905 7.82714 2.88061 6.9135C2.50217 5.99986 2.40315 4.99451 2.59608 4.0246C2.78901 3.05468 3.26521 2.16376 3.96449 1.46449C4.66376 0.765215 5.55468 0.289005 6.5246 0.0960769C7.49451 -0.0968514 8.49986 0.00216645 9.4135 0.380609C10.3271 0.759051 11.108 1.39992 11.6575 2.22218C12.2069 3.04443 12.5001 4.01114 12.5001 5.00006C12.4988 6.32575 11.9716 7.59677 11.0342 8.53417C10.0968 9.47158 8.82575 9.99879 7.50006 10.0001ZM7.50006 1.66669C6.84078 1.66669 6.19631 1.86219 5.64814 2.22846C5.09997 2.59474 4.67272 3.11534 4.42043 3.72443C4.16813 4.33353 4.10212 5.00376 4.23074 5.65037C4.35936 6.29698 4.67683 6.89093 5.14301 7.35711C5.60919 7.82329 6.20314 8.14076 6.84975 8.26938C7.49636 8.398 8.16659 8.33199 8.77569 8.07969C9.38478 7.8274 9.90538 7.40015 10.2717 6.85198C10.6379 6.30381 10.8334 5.65934 10.8334 5.00006C10.8334 4.11599 10.4822 3.26814 9.85711 2.64301C9.23198 2.01788 8.38412 1.66669 7.50006 1.66669Z" fill="black"/>
</svg>
