<svg width="55" height="59" viewBox="0 0 55 59" fill="none" xmlns="http://www.w3.org/2000/svg">
<path opacity="0.27" d="M24.9708 1.38998C26.3427 0.538631 28.0786 0.53863 29.4505 1.38998L48.7678 13.3777C50.0163 14.1525 50.7758 15.5176 50.7758 16.987V41.5081C50.7758 42.9775 50.0163 44.3426 48.7678 45.1174L29.4505 57.1051C28.0786 57.9565 26.3427 57.9565 24.9708 57.1051L5.65355 45.1174C4.40498 44.3426 3.64554 42.9775 3.64554 41.5081V16.987C3.64554 15.5176 4.40498 14.1525 5.65355 13.3777L24.9708 1.38998Z" fill="white"/>
<path d="M16.9814 19.3037C17.4437 19.2525 17.9332 19.4678 18.2578 19.8467C19.3223 21.0563 20.6054 21.5127 22.1084 21.5127C23.0131 21.5127 23.8755 21.3988 24.7246 21.2832C25.5697 21.1682 26.4057 21.0508 27.2383 21.0508C32.0647 21.0509 35.6094 24.1639 35.6094 28.5088C35.6093 29.6881 35.3667 30.7752 34.9248 31.7393C35.3813 32.3851 35.89 33.1538 36.3135 33.9209C36.5789 34.4017 36.8131 34.8847 36.9814 35.3379C37.149 35.7889 37.2548 36.2217 37.2549 36.5986C37.2549 37.5066 36.6053 38.3046 35.7402 38.3047C35.5355 38.3047 35.3265 38.2546 35.1445 38.126C34.9617 37.9967 34.8204 37.7983 34.7354 37.5264C34.5789 37.0269 34.4444 36.5478 34.3145 36.0928C34.1841 35.6365 34.0578 35.2034 33.917 34.791C33.7969 34.4392 33.6647 34.1043 33.5127 33.7832C32.012 35.2998 29.8018 36.1962 27.1982 36.1963C23.7003 36.1963 20.801 34.95 18.7783 32.7432C16.7571 30.5379 15.625 27.389 15.625 23.6094C15.625 23.0663 15.6841 21.3307 15.9307 20.334C16.0872 19.6923 16.502 19.357 16.9814 19.3037ZM17.5801 21.8203C17.5104 22.3316 17.5 22.997 17.5 23.6094C17.5 26.9032 18.4469 29.5801 20.123 31.4307C21.7974 33.279 24.2162 34.3213 27.1982 34.3213C29.1487 34.3212 30.7821 33.7201 31.9258 32.6992C32.103 32.541 32.2673 32.3707 32.4209 32.1924C31.7986 31.5783 30.9983 31.1404 30.1387 30.7383C29.1297 30.2663 28.0259 29.8388 27.1123 29.2314C24.7403 28.0461 22.9869 27.373 21.5566 26.082L21.2158 25.7754L21.6748 25.7686C21.9437 25.7649 22.3132 25.828 22.7334 25.9297C23.1579 26.0324 23.6481 26.1786 24.1631 26.3467C25.1888 26.6815 26.3224 27.1089 27.252 27.4766C30.3315 28.4596 32.1832 29.0813 33.5098 30.1543C33.6544 29.6408 33.7334 29.0908 33.7334 28.5088C33.7334 25.2692 31.0789 22.9269 27.2383 22.9268C26.5798 22.9268 25.8884 23.0154 25.084 23.126C24.2027 23.2461 23.2067 23.3887 22.1084 23.3887C20.5023 23.3886 18.7457 22.8254 17.5801 21.8203Z" fill="white" stroke="white" stroke-width="0.36"/>
</svg>
