<svg width="55" height="59" viewBox="0 0 55 59" fill="none" xmlns="http://www.w3.org/2000/svg">
<path opacity="0.27" d="M24.9708 1.38998C26.3427 0.538631 28.0786 0.53863 29.4505 1.38998L48.7678 13.3777C50.0163 14.1525 50.7758 15.5176 50.7758 16.987V41.5081C50.7758 42.9775 50.0163 44.3426 48.7678 45.1174L29.4505 57.1051C28.0786 57.9565 26.3427 57.9565 24.9708 57.1051L5.65355 45.1174C4.40498 44.3426 3.64554 42.9775 3.64554 41.5081V16.987C3.64554 15.5176 4.40498 14.1525 5.65355 13.3777L24.9708 1.38998Z" fill="white"/>
<rect x="13.8008" y="21.0742" width="26.4" height="17.6" rx="2.93333" stroke="white" stroke-width="2.2"/>
<path d="M16.7344 25.4766H21.1344" stroke="white" stroke-width="2.2" stroke-linecap="round"/>
<path d="M32.8672 34.2734H37.2672" stroke="white" stroke-width="2.2" stroke-linecap="round"/>
<circle cx="26.9997" cy="29.8747" r="2.93333" stroke="white" stroke-width="2.2"/>
</svg>
