<svg width="55" height="59" viewBox="0 0 55 59" fill="none" xmlns="http://www.w3.org/2000/svg">
<path opacity="0.27" d="M24.9708 1.38998C26.3427 0.538631 28.0786 0.53863 29.4505 1.38998L48.7678 13.3777C50.0163 14.1525 50.7758 15.5176 50.7758 16.987V41.5081C50.7758 42.9775 50.0163 44.3426 48.7678 45.1174L29.4505 57.1051C28.0786 57.9565 26.3427 57.9565 24.9708 57.1051L5.65355 45.1174C4.40498 44.3426 3.64554 42.9775 3.64554 41.5081V16.987C3.64554 15.5176 4.40498 14.1525 5.65355 13.3777L24.9708 1.38998Z" fill="white"/>
<path d="M19.8031 27.0758H20.7031C21.5316 27.0758 22.2031 27.7474 22.2031 28.5758V32.7758C22.2031 33.6042 21.5316 34.2758 20.7031 34.2758H19.8031C17.8149 34.2758 16.2031 32.664 16.2031 30.6758C16.2031 28.6876 17.8149 27.0758 19.8031 27.0758ZM19.8031 27.0758V25.8758C19.8031 21.8993 23.0267 18.6758 27.0031 18.6758C30.9796 18.6758 34.2031 21.8993 34.2031 25.8758V27.0758M34.2031 27.0758H33.3031C32.4747 27.0758 31.8031 27.7474 31.8031 28.5758V32.7758C31.8031 33.6042 32.4747 34.2758 33.3031 34.2758H34.2031M34.2031 27.0758C36.1914 27.0758 37.8031 28.6876 37.8031 30.6758C37.8031 32.664 36.1914 34.2758 34.2031 34.2758M34.2031 34.2758L33.4576 37.2579C33.1905 38.3263 32.2305 39.0758 31.1293 39.0758H28.2031" stroke="white" stroke-width="2.4" stroke-linecap="round" stroke-linejoin="round"/>
</svg>
