<svg width="55" height="59" viewBox="0 0 55 59" fill="none" xmlns="http://www.w3.org/2000/svg">
<path opacity="0.27" d="M24.9708 1.38998C26.3427 0.538631 28.0786 0.53863 29.4505 1.38998L48.7678 13.3777C50.0163 14.1525 50.7758 15.5176 50.7758 16.987V41.5081C50.7758 42.9775 50.0163 44.3426 48.7678 45.1174L29.4505 57.1051C28.0786 57.9565 26.3427 57.9565 24.9708 57.1051L5.65355 45.1174C4.40498 44.3426 3.64554 42.9775 3.64554 41.5081V16.987C3.64554 15.5176 4.40498 14.1525 5.65355 13.3777L24.9708 1.38998Z" fill="white"/>
<g clip-path="url(#clip0_3382_24544)">
<path opacity="0.953" d="M25.6143 26.8369C25.5998 28.033 25.616 29.2286 25.6641 30.4238C26.1106 30.6629 26.5557 30.9011 26.999 31.1387C28.0365 30.5555 29.1016 30.0238 30.1934 29.542C30.2402 28.6408 30.2568 27.7392 30.2432 26.8369H25.6143ZM19.8408 28.2783C19.8804 28.2825 19.9198 28.2869 19.959 28.293C21.5443 28.4909 23.1429 29.2562 24.3145 29.7578C24.3184 29.473 24.3289 28.8978 24.3389 28.3242C24.3496 27.7086 24.359 27.0944 24.3623 26.8369H19.8408V28.2783ZM22.0566 24.249C21.6499 24.6758 21.2356 25.0973 20.8145 25.5146C21.6745 25.5386 22.5345 25.5387 23.3945 25.5146C22.9633 25.0715 22.5176 24.6494 22.0566 24.249ZM27.7275 23.9746C26.3788 23.9358 25.0376 23.9422 23.7041 23.9922C24.2214 24.49 24.7343 24.9949 25.2412 25.5088C26.583 25.5401 27.9248 25.5408 29.2666 25.5127L29.2646 25.5117C29.2635 25.5106 29.2628 25.5089 29.2617 25.5078C29.2606 25.5067 29.2589 25.506 29.2578 25.5049C29.2567 25.5038 29.256 25.5021 29.2549 25.501C29.2538 25.4999 29.2521 25.4992 29.251 25.498L29.0352 25.2822C29.034 25.2811 29.0334 25.2794 29.0322 25.2783C29.0311 25.2772 29.0294 25.2765 29.0283 25.2754C29.0272 25.2743 29.0265 25.2726 29.0254 25.2715C29.0243 25.2704 29.0226 25.2697 29.0215 25.2686C29.0204 25.2674 29.0197 25.2658 29.0186 25.2646C29.0174 25.2635 29.0158 25.2629 29.0146 25.2617C29.0135 25.2606 29.0129 25.2589 29.0117 25.2578C29.0106 25.2567 29.009 25.256 29.0078 25.2549C29.0067 25.2537 29.006 25.2521 29.0049 25.251C29.0037 25.2498 29.0021 25.2492 29.001 25.248C28.9998 25.2469 28.9992 25.2453 28.998 25.2441C28.9969 25.243 28.9953 25.2423 28.9941 25.2412C28.993 25.2401 28.9923 25.2384 28.9912 25.2373C28.9901 25.2362 28.9884 25.2355 28.9873 25.2344C28.9862 25.2332 28.9855 25.2316 28.9844 25.2305C28.9832 25.2293 28.9816 25.2287 28.9805 25.2275L28.7646 25.0117C28.7635 25.0106 28.7628 25.0089 28.7617 25.0078C28.7606 25.0067 28.7589 25.006 28.7578 25.0049C28.7567 25.0038 28.756 25.0021 28.7549 25.001C28.7538 24.9998 28.7521 24.9992 28.751 24.998C28.7498 24.9969 28.7492 24.9953 28.748 24.9941C28.7469 24.993 28.7453 24.9923 28.7441 24.9912C28.743 24.9901 28.7423 24.9884 28.7412 24.9873C28.7401 24.9862 28.7384 24.9855 28.7373 24.9844C28.7362 24.9832 28.7355 24.9816 28.7344 24.9805C28.7332 24.9793 28.7316 24.9787 28.7305 24.9775C28.7293 24.9764 28.7287 24.9748 28.7275 24.9736C28.7264 24.9725 28.7248 24.9718 28.7236 24.9707C28.7225 24.9696 28.7218 24.9679 28.7207 24.9668C28.7196 24.9657 28.7179 24.965 28.7168 24.9639C28.7157 24.9627 28.715 24.9611 28.7139 24.96C28.7127 24.9588 28.7111 24.9582 28.71 24.957L28.4941 24.7412C28.493 24.7401 28.4923 24.7384 28.4912 24.7373C28.4901 24.7362 28.4884 24.7355 28.4873 24.7344C28.4862 24.7332 28.4855 24.7316 28.4844 24.7305C28.4832 24.7293 28.4816 24.7287 28.4805 24.7275C28.4793 24.7264 28.4787 24.7248 28.4775 24.7236C28.4764 24.7225 28.4748 24.7218 28.4736 24.7207C28.4725 24.7196 28.4718 24.7179 28.4707 24.7168C28.4696 24.7157 28.4679 24.715 28.4668 24.7139C28.4657 24.7127 28.465 24.7111 28.4639 24.71C28.4627 24.7088 28.4611 24.7082 28.46 24.707C28.4588 24.7059 28.4582 24.7043 28.457 24.7031C28.4559 24.702 28.4543 24.7013 28.4531 24.7002C28.452 24.6991 28.4513 24.6974 28.4502 24.6963C28.4491 24.6952 28.4474 24.6945 28.4463 24.6934C28.4452 24.6922 28.4445 24.6906 28.4434 24.6895C28.4422 24.6883 28.4406 24.6877 28.4395 24.6865C28.4383 24.6854 28.4376 24.6837 28.4365 24.6826C28.4354 24.6815 28.4337 24.6808 28.4326 24.6797L28.2168 24.4639C28.2157 24.4627 28.215 24.4611 28.2139 24.46C28.2127 24.4588 28.2111 24.4582 28.21 24.457C28.2088 24.4559 28.2082 24.4543 28.207 24.4531C28.2059 24.452 28.2043 24.4513 28.2031 24.4502C28.202 24.4491 28.2013 24.4474 28.2002 24.4463C28.1991 24.4452 28.1974 24.4445 28.1963 24.4434C28.1952 24.4422 28.1945 24.4406 28.1934 24.4395C28.1922 24.4383 28.1906 24.4377 28.1895 24.4365C28.1883 24.4354 28.1877 24.4338 28.1865 24.4326C28.1854 24.4315 28.1838 24.4308 28.1826 24.4297C28.1815 24.4286 28.1808 24.4269 28.1797 24.4258C28.1786 24.4246 28.1769 24.424 28.1758 24.4229C28.1747 24.4217 28.174 24.4201 28.1729 24.4189C28.1717 24.4178 28.1701 24.4171 28.1689 24.416C28.1678 24.4149 28.1671 24.4132 28.166 24.4121C28.1649 24.411 28.1632 24.4103 28.1621 24.4092L27.9463 24.1934C27.9452 24.1922 27.9445 24.1906 27.9434 24.1895C27.9422 24.1883 27.9406 24.1876 27.9395 24.1865C27.9383 24.1854 27.9377 24.1837 27.9365 24.1826C27.9354 24.1815 27.9337 24.1808 27.9326 24.1797C27.9315 24.1786 27.9308 24.1769 27.9297 24.1758C27.9286 24.1746 27.9269 24.174 27.9258 24.1729C27.9246 24.1717 27.924 24.1701 27.9229 24.1689C27.9217 24.1678 27.9201 24.1672 27.9189 24.166C27.9178 24.1649 27.9172 24.1632 27.916 24.1621C27.9149 24.161 27.9132 24.1603 27.9121 24.1592C27.911 24.158 27.9103 24.1564 27.9092 24.1553C27.908 24.1541 27.9064 24.1535 27.9053 24.1523C27.9041 24.1512 27.9035 24.1496 27.9023 24.1484C27.9012 24.1473 27.8996 24.1466 27.8984 24.1455C27.8973 24.1444 27.8966 24.1427 27.8955 24.1416C27.8944 24.1405 27.8927 24.1398 27.8916 24.1387L27.7275 23.9746ZM34.7881 16.4619C34.1476 17.0607 33.6214 17.7459 33.2119 18.5205C32.6587 19.8042 32.4779 21.0217 32.6631 22.1748C32.8352 23.2466 33.3244 24.2708 34.1367 25.2471C34.1423 23.9485 34.1755 22.6525 34.2383 21.3594L34.2402 21.3242L34.2617 21.2969C34.3354 21.2029 34.4274 21.1318 34.5361 21.084L34.5488 21.0781C34.7556 21.0165 34.9457 21.0156 35.1045 21.0977C35.2242 21.1595 35.3141 21.2624 35.3779 21.3955L35.4336 21.5381L35.4375 21.5537L35.4385 21.5693C35.4471 22.2225 35.4553 22.8762 35.4639 23.5293C35.4713 24.0915 35.478 24.6537 35.4854 25.2158C35.9438 24.7079 36.3045 24.1331 36.5664 23.4893C37.0435 22.0951 37.1251 20.8115 36.8184 19.6348C36.5182 18.4835 35.8438 17.4259 34.7881 16.4619ZM17.0605 18.3271C16.8626 18.5752 16.6572 18.8188 16.4424 19.0566C15.825 20.0021 15.5381 20.928 15.5713 21.8359C15.6013 22.655 15.8937 23.4686 16.4531 24.2783C16.4601 23.7879 16.4686 23.2971 16.4756 22.8066C16.4842 22.2052 16.4924 21.6034 16.501 21.002V20.9707L16.5186 20.9453C16.5874 20.8372 16.6761 20.7475 16.7842 20.6787L16.7969 20.6709L16.8115 20.666C16.9823 20.6156 17.1451 20.6098 17.2949 20.6562C17.4076 20.6912 17.5074 20.7543 17.5947 20.8418L17.6777 20.9375L17.7002 20.9658V21.002C17.7088 21.6034 17.718 22.2052 17.7266 22.8066C17.7336 23.3007 17.74 23.7951 17.7471 24.2891C18.1526 23.7149 18.426 23.0778 18.5654 22.375C18.7663 20.7424 18.2645 19.3983 17.0605 18.3271ZM40.3105 28.5889L40.2646 28.6211C40.1787 28.683 40.0986 28.7555 40.0244 28.8379L39.9932 28.873L39.9453 28.874C33.0455 29.0095 27.2379 31.565 22.5186 36.5449L22.5195 36.5459C21.2304 37.9943 20.1183 39.5689 19.1826 41.2695L19.1758 41.2812L19.167 41.29C19.0734 41.3929 18.9741 41.4842 18.8682 41.5625L18.8389 41.584H18.2842L18.251 41.541C18.184 41.4542 18.1104 41.3725 18.0303 41.2959L18.0137 41.2803L18.0049 41.2588C17.9206 41.0559 17.9198 40.8522 18.0059 40.6562L18.0107 40.6455L18.4355 39.9326C18.843 39.2641 19.2704 38.609 19.7168 37.9668C17.9729 37.2643 16.1556 36.9147 14.2646 36.918H14.2529L14.2402 36.915C14.0286 36.8672 13.8524 36.7594 13.7158 36.5938L13.6904 36.5635V36.0283L13.708 36.001C13.7947 35.8656 13.912 35.7582 14.0576 35.6797L14.0811 35.667H14.1064C16.3335 35.5936 18.4726 35.9891 20.5225 36.8545C21.1422 36.0941 21.7963 35.3592 22.4844 34.6494C20.5687 33.7149 18.5469 33.1295 16.418 32.8955V32.8945C15.6073 32.8438 14.7996 32.7763 13.9951 32.6895L13.96 32.6855L13.9336 32.6621C13.8466 32.5847 13.7719 32.5007 13.71 32.4102L13.6904 32.3818V31.8447L13.7158 31.8145C13.9398 31.5386 14.2398 31.4218 14.6016 31.4639H14.6025C17.7523 31.5367 20.7371 32.2703 23.5566 33.6621C24.2716 33.073 25.007 32.5103 25.7627 31.9736C22.1308 29.9516 18.2304 28.9172 14.0576 28.874H14.0225L13.9932 28.8525C13.8916 28.7779 13.7998 28.6955 13.7188 28.6055L13.6904 28.5742V28.0361L13.708 28.0088C13.7947 27.8734 13.912 27.766 14.0576 27.6875L14.0801 27.6758L14.1045 27.6748C14.8974 27.6353 15.6879 27.6577 16.4756 27.7402C16.4811 27.2296 16.4726 26.7192 16.4502 26.209C15.3397 25.1952 14.6527 24.0843 14.4004 22.875C14.1454 21.6529 14.3368 20.3426 14.9639 18.9482L14.9688 18.9365H14.9697C15.4214 18.1711 15.988 17.5001 16.6689 16.9238L16.6758 16.918L16.7783 16.8545C16.882 16.799 16.9896 16.7686 17.1006 16.7686C17.2485 16.7686 17.3909 16.822 17.5254 16.918L17.5332 16.9238H17.5322C18.6797 17.8919 19.4146 18.9752 19.7266 20.1748C20.0385 21.3744 19.9255 22.6792 19.3955 24.085L19.3916 24.0928C19.0026 24.9222 18.4543 25.6275 17.75 26.2109C17.7271 26.7638 17.7203 27.3169 17.7266 27.8701C18.0134 27.9149 18.3008 27.9555 18.5889 27.9932C18.5827 27.312 18.5909 26.631 18.6152 25.9502L18.6162 25.9082L18.6455 25.8779C19.6503 24.8215 20.6737 23.7808 21.7158 22.7559L21.7461 22.7266L21.7881 22.7246C23.3851 22.6605 24.985 22.6348 26.5869 22.6475L28.1895 22.6729L28.2314 22.6738L28.2627 22.7031C29.053 23.4546 29.8357 24.2185 30.6113 24.9941L31.3848 25.7734L31.3955 25.7852L31.4033 25.7979C31.4276 25.8425 31.449 25.8886 31.4678 25.9355L31.5156 26.0801L31.5186 26.0928L31.5195 26.1055C31.5441 27.0698 31.5515 28.0345 31.5449 28.999C32.4013 28.7153 33.2661 28.4616 34.1396 28.2393C34.1666 27.8557 34.1663 27.4724 34.1377 27.0889C32.922 26.0443 32.0948 24.8649 31.6621 23.5498C31.2252 22.2215 31.1922 20.7618 31.5596 19.1748L31.5625 19.165L31.6729 18.8496C32.2101 17.3967 33.0712 16.1779 34.2549 15.1943L34.543 14.9639H35.083L35.1133 14.9883C36.576 16.1629 37.537 17.4973 37.9873 18.9922C38.4375 20.4871 38.374 22.1329 37.8047 23.9248L37.8018 23.9355L37.7002 23.8916L37.8008 23.9355C37.2656 25.1608 36.4929 26.2105 35.4863 27.0869C35.466 27.3874 35.4601 27.6882 35.4639 27.9893C36.8538 27.7537 38.2516 27.6224 39.6572 27.5967H39.665L39.6729 27.5977C39.9269 27.6291 40.1341 27.748 40.2881 27.9502L40.3105 27.9795V28.5889Z" fill="white" stroke="white" stroke-width="0.22"/>
<path opacity="0.899" fill-rule="evenodd" clip-rule="evenodd" d="M34.5807 19.1988C35.2485 19.1596 35.4633 19.4518 35.2252 20.0754C34.9502 20.2816 34.6752 20.2816 34.4002 20.0754C34.1951 19.7244 34.2552 19.4322 34.5807 19.1988Z" fill="white"/>
</g>
<defs>
<clipPath id="clip0_3382_24544">
<rect width="28.8" height="28.8" fill="white" transform="translate(12.6016 15.0742)"/>
</clipPath>
</defs>
</svg>
