<svg width="55" height="59" viewBox="0 0 55 59" fill="none" xmlns="http://www.w3.org/2000/svg">
<path opacity="0.27" d="M24.9708 1.38998C26.3427 0.538631 28.0786 0.53863 29.4505 1.38998L48.7678 13.3777C50.0163 14.1525 50.7758 15.5176 50.7758 16.987V41.5081C50.7758 42.9775 50.0163 44.3426 48.7678 45.1174L29.4505 57.1051C28.0786 57.9565 26.3427 57.9565 24.9708 57.1051L5.65355 45.1174C4.40498 44.3426 3.64554 42.9775 3.64554 41.5081V16.987C3.64554 15.5176 4.40498 14.1525 5.65355 13.3777L24.9708 1.38998Z" fill="white"/>
<g clip-path="url(#clip0_3382_24543)">
<path d="M30.1543 16.9121C31.6508 16.9122 32.74 18.0328 32.7402 19.585C32.7402 20.687 32.2815 21.9114 31.8369 22.9795C31.612 23.5198 31.3915 24.0173 31.2256 24.4551C31.0582 24.8967 30.958 25.2494 30.958 25.499C30.958 25.5581 30.977 25.5877 31.001 25.6064C31.0308 25.6297 31.0889 25.6523 31.1865 25.6523H35.1543C36.8102 25.6523 38.1104 26.9649 38.1104 28.6191C38.1103 29.2382 37.9479 29.8324 37.666 30.2803C37.8598 30.6775 37.9697 31.1863 37.9697 31.6631C37.9697 32.422 37.7107 33.1558 37.2354 33.6855C37.3714 34.0269 37.4472 34.4329 37.4473 34.8369C37.4473 35.724 37.0508 36.534 36.3477 37.1045C36.4007 37.3207 36.4365 37.5438 36.4365 37.7939C36.4365 39.1688 35.4542 40.2324 33.9434 40.6045C33.1732 40.7942 32.0262 40.8701 30.7197 40.8701H29.2627C27.3854 40.8701 25.6989 40.447 24.3008 39.7178H20.8701C19.4232 39.7176 18.1131 38.9451 17.1699 37.7373C16.2267 36.5292 15.6426 34.8767 15.6426 33.0869C15.6426 31.2632 16.173 29.6016 17.04 28.3916C17.9069 27.1818 19.1201 26.4131 20.4795 26.4131H22.3906C24.8365 23.4265 26.3401 21.2534 27.5967 18.8369V18.8359C27.9443 18.1738 28.3033 17.6907 28.7188 17.374C29.1387 17.054 29.6067 16.9121 30.1543 16.9121ZM30.2197 18.8457C30.0612 18.8457 29.9411 18.8795 29.8145 18.9912C29.6775 19.1121 29.5256 19.3302 29.332 19.7227V19.7236C27.7473 22.8713 25.547 25.4126 23.9795 27.5098C23.2792 28.4526 22.8079 29.2744 22.5107 30.1367C22.2138 30.9985 22.0869 31.9091 22.0869 33.0322C22.0869 34.7494 22.8095 36.2233 24.0771 37.2705C25.3469 38.3194 27.1725 38.9472 29.3818 38.9473H30.7305C31.9129 38.9473 32.8842 38.8812 33.4834 38.7344C33.8457 38.6412 34.099 38.5026 34.2598 38.3418C34.4174 38.1841 34.4922 37.9999 34.4922 37.7939C34.4922 37.6691 34.4856 37.5923 34.4502 37.4707C34.4121 37.3401 34.3415 37.1608 34.21 36.832V36.8311C34.1519 36.6933 34.1323 36.5474 34.1787 36.4062C34.2256 36.2635 34.3318 36.1518 34.4746 36.0674L34.4824 36.0625L34.7402 35.9189C35.2928 35.5839 35.5146 35.2411 35.5146 34.8369C35.5146 34.5058 35.4082 34.3143 35.1328 33.8184L35.127 33.8076C35.0365 33.6137 35.0184 33.423 35.0723 33.2451C35.1253 33.0703 35.2426 32.9248 35.3906 32.8076L35.3945 32.8047C35.8398 32.4706 36.0361 32.0916 36.0361 31.6631C36.0361 31.2996 35.9169 31.0287 35.585 30.5361V30.5352C35.4892 30.4097 35.4374 30.2676 35.4512 30.1191C35.4654 29.9668 35.5454 29.8328 35.666 29.7256C35.8566 29.5288 35.9815 29.3638 36.0605 29.1963C36.1395 29.0289 36.1767 28.8498 36.1768 28.6191C36.1768 28.0229 35.7376 27.5859 35.1543 27.5859H31.415C30.7597 27.5859 30.1638 27.3942 29.7285 27.0342C29.2905 26.6718 29.0244 26.1452 29.0244 25.499C29.0244 25.0598 29.1425 24.5695 29.3115 24.0645C29.481 23.5583 29.7065 23.0234 29.9287 22.4951C30.152 21.9642 30.3724 21.4389 30.5371 20.9414C30.7022 20.4427 30.8076 19.9832 30.8076 19.585C30.8075 19.3183 30.7378 19.135 30.6387 19.0205C30.5418 18.9087 30.4019 18.8458 30.2197 18.8457ZM20.4795 28.3467C19.7526 28.3467 19.0291 28.8452 18.4795 29.708C17.9327 30.5665 17.5762 31.7613 17.5762 33.0869C17.5762 34.3703 17.9714 35.5493 18.585 36.4033C19.1998 37.259 20.0202 37.7723 20.8701 37.7725H21.8936C20.7726 36.4862 20.1533 34.8521 20.1533 33C20.1533 31.24 20.4606 29.7585 21.1602 28.3467H20.4795Z" fill="white" stroke="white" stroke-width="0.324674"/>
</g>
<defs>
<clipPath id="clip0_3382_24543">
<rect width="24.5531" height="26.9157" fill="white" transform="translate(14.2617 15.7031)"/>
</clipPath>
</defs>
</svg>
