<svg width="55" height="59" viewBox="0 0 55 59" fill="none" xmlns="http://www.w3.org/2000/svg">
<path opacity="0.27" d="M24.9708 1.38998C26.3427 0.538631 28.0786 0.53863 29.4505 1.38998L48.7678 13.3777C50.0163 14.1525 50.7758 15.5176 50.7758 16.987V41.5081C50.7758 42.9775 50.0163 44.3426 48.7678 45.1174L29.4505 57.1051C28.0786 57.9565 26.3427 57.9565 24.9708 57.1051L5.65355 45.1174C4.40498 44.3426 3.64554 42.9775 3.64554 41.5081V16.987C3.64554 15.5176 4.40498 14.1525 5.65355 13.3777L24.9708 1.38998Z" fill="white"/>
<path d="M27 17.4727C24.6266 17.4727 22.3066 18.1764 20.3332 19.495C18.3598 20.8136 16.8217 22.6877 15.9135 24.8805C15.0052 27.0732 14.7676 29.486 15.2306 31.8137C15.6936 34.1415 16.8365 36.2797 18.5147 37.9579C20.193 39.6362 22.3312 40.7791 24.6589 41.2421C26.9867 41.7051 29.3995 41.4675 31.5922 40.5592C33.7849 39.651 35.6591 38.1129 36.9776 36.1395C38.2962 34.1661 39 31.846 39 29.4727C38.9965 26.2911 37.7311 23.241 35.4814 20.9913C33.2317 18.7416 30.1815 17.4762 27 17.4727ZM27 39.0727C25.1013 39.0727 23.2452 38.5096 21.6665 37.4548C20.0878 36.3999 18.8574 34.9006 18.1308 33.1464C17.4042 31.3922 17.214 29.462 17.5845 27.5998C17.9549 25.7376 18.8692 24.027 20.2118 22.6844C21.5544 21.3418 23.2649 20.4275 25.1271 20.0571C26.9894 19.6867 28.9196 19.8768 30.6738 20.6034C32.4279 21.33 33.9273 22.5605 34.9821 24.1392C36.037 25.7179 36.6 27.574 36.6 29.4727C36.5971 32.0178 35.5847 34.4579 33.785 36.2577C31.9853 38.0574 29.5452 39.0697 27 39.0727Z" fill="white"/>
<path d="M32.5303 25.7549C32.81 25.7549 33.0784 25.8658 33.2764 26.0635C33.4744 26.2614 33.5858 26.5306 33.5859 26.8105C33.586 27.0903 33.475 27.3587 33.2773 27.5566L26.6621 34.1719C26.5642 34.2698 26.4473 34.3475 26.3193 34.4004C26.1912 34.4533 26.0536 34.4798 25.915 34.4795C25.7767 34.4797 25.6396 34.4532 25.5117 34.4004C25.3837 34.3475 25.2669 34.2698 25.1689 34.1719L21.2012 30.2031V30.2021C21.1013 30.1053 21.0208 29.9902 20.9658 29.8623C20.9104 29.7336 20.8812 29.5952 20.8799 29.4551C20.8786 29.3149 20.905 29.1756 20.958 29.0459C21.011 28.9162 21.0895 28.7984 21.1885 28.6992C21.2875 28.6001 21.4055 28.5219 21.5352 28.4688C21.6647 28.4157 21.8034 28.3886 21.9434 28.3896C22.0835 28.3908 22.2228 28.4194 22.3516 28.4746C22.4803 28.5298 22.5969 28.6102 22.6943 28.7109H22.6934L25.9141 31.9316L31.7832 26.0645C31.9811 25.8664 32.2503 25.755 32.5303 25.7549Z" fill="white" stroke="white" stroke-width="0.24"/>
</svg>
