<svg width="48" height="60" fill="none" xmlns="http://www.w3.org/2000/svg"><g clip-path="url(#a)"><path d="M44.408 27.04H27.871l3.828-3.828a2.96 2.96 0 0 0-4.186-4.186l-8.882 8.881a2.96 2.96 0 0 0 0 4.187l8.882 8.881a2.96 2.96 0 0 0 4.186-4.186l-3.828-3.828h16.537a2.96 2.96 0 1 0 0-5.921Z" fill="#1A3668"/><path d="m27.87 32.96 3.828 3.828a2.959 2.959 0 0 1-2.089 5.067 2.96 2.96 0 0 1-2.097-.88l-8.881-8.882a2.959 2.959 0 0 1 0-4.187l8.881-8.881a2.96 2.96 0 0 1 4.186 4.186l-3.827 3.828h13.576V9.276A8.892 8.892 0 0 0 32.566.395H8.882A8.891 8.891 0 0 0 0 9.276v41.447a8.891 8.891 0 0 0 8.882 8.882h23.684a8.892 8.892 0 0 0 8.881-8.881V32.96H27.871Z" fill="#648ACF"/></g><defs><clipPath id="a"><path fill="#fff" d="M0 0h47.368v60H0z"/></clipPath></defs></svg>