<svg width="410" height="179" fill="none" xmlns="http://www.w3.org/2000/svg"><g clip-path="url(#a)"><path d="M0 32c0-11.201 0-16.802 2.18-21.08a20 20 0 0 1 8.74-8.74C15.198 0 20.8 0 32 0h346c11.201 0 16.802 0 21.08 2.18a19.998 19.998 0 0 1 8.74 8.74C410 15.198 410 20.8 410 32v147H0V32Z" fill="#225A7F"/><g clip-path="url(#b)" fill="#fff"><path d="M407.622-10.762 602.607 231.94 246.389 518.124 51.403 275.42 407.622-10.763Z" fill-opacity=".03"/><path d="m433.927 10.761 194.985 242.704-356.219 286.182L77.708 296.943 433.927 10.761Z" fill-opacity=".04"/></g></g><defs><clipPath id="a"><path d="M0 32c0-11.201 0-16.802 2.18-21.08a20 20 0 0 1 8.74-8.74C15.198 0 20.8 0 32 0h346c11.201 0 16.802 0 21.08 2.18a19.998 19.998 0 0 1 8.74 8.74C410 15.198 410 20.8 410 32v147H0V32Z" fill="#fff"/></clipPath><clipPath id="b"><path fill="#fff" transform="matrix(-1 0 0 1 408.907 0)" d="M0 0h357.508v260.658H0z"/></clipPath></defs></svg>