<svg width="100" height="100" fill="none" xmlns="http://www.w3.org/2000/svg"><g filter="url(#a)"><path d="M70.96 22.79 52.21 4.04a3.124 3.124 0 0 0-4.42 0L29.04 22.79a3.124 3.124 0 0 0 2.21 5.335h6.25V43.75c0 1.727 1.4 3.125 3.125 3.125h18.75A3.123 3.123 0 0 0 62.5 43.75V28.125h6.25c1.263 0 2.405-.76 2.887-1.929a3.122 3.122 0 0 0-.677-3.405Z" fill="#F5821E" fill-opacity=".7"/></g><path d="M89.063 40.625H10.936c-4.307 0-7.812 3.503-7.812 7.813v40.624c0 4.31 3.505 7.813 7.813 7.813h78.124c4.31 0 7.813-3.503 7.813-7.813V48.438c0-4.31-3.503-7.813-7.813-7.813Z" fill="#F5821E"/><g filter="url(#b)"><path fill-rule="evenodd" clip-rule="evenodd" d="M32.17 88h35.76v-4.003H32.17V88Zm17.777-41 4.747 4.48-4.747 4.385-4.646-4.385L49.947 47ZM75 66.258c-6.364-5.244-14.648-8.578-23.839-8.864v24.889s6.868-.096 8.687 0c1.517 0 2.02-1.338 2.02-1.338l6.365-14.491c.605.382 1.21.764 1.718 1.146l-6.465 14.683h4.545L75 66.263v-.005ZM57.626 78.653c-.504.096-2.222 0-2.222 0V61.778c3.235.478 6.263 1.433 9.195 2.766l-5.96 13.54c-.403.67-1.013.574-1.013.574v-.005ZM25 66.258c6.364-5.244 14.748-8.578 23.839-8.864v24.889s-6.868-.096-8.687 0c-1.517 0-2.02-1.338-2.02-1.338l-6.365-14.491c-.604.382-1.214.764-1.718 1.146l6.565 14.683H31.97L25 66.263v-.005Zm17.374 12.395c.504.096 2.222 0 2.222 0V61.778a32.291 32.291 0 0 0-9.09 2.766l5.86 13.54c.408.67 1.008.574 1.008.574v-.005Z" fill="#fff" fill-opacity=".8"/></g><g filter="url(#c)"><path d="M14 73a5 5 0 1 0 0-10 5 5 0 0 0 0 10Z" fill="#fff" fill-opacity=".5"/></g><g filter="url(#d)"><path d="M86 73a5 5 0 1 0 0-10 5 5 0 0 0 0 10Z" fill="#fff" fill-opacity=".5"/></g><defs><filter id="a" x="24.125" y="-.875" width="51.751" height="51.75" filterUnits="userSpaceOnUse" color-interpolation-filters="sRGB"><feFlood flood-opacity="0" result="BackgroundImageFix"/><feGaussianBlur in="BackgroundImageFix" stdDeviation="2"/><feComposite in2="SourceAlpha" operator="in" result="effect1_backgroundBlur_3088_9200"/><feBlend in="SourceGraphic" in2="effect1_backgroundBlur_3088_9200" result="shape"/></filter><filter id="b" x="15" y="37" width="70" height="61" filterUnits="userSpaceOnUse" color-interpolation-filters="sRGB"><feFlood flood-opacity="0" result="BackgroundImageFix"/><feGaussianBlur in="BackgroundImageFix" stdDeviation="5"/><feComposite in2="SourceAlpha" operator="in" result="effect1_backgroundBlur_3088_9200"/><feBlend in="SourceGraphic" in2="effect1_backgroundBlur_3088_9200" result="shape"/></filter><filter id="c" x="5" y="59" width="18" height="18" filterUnits="userSpaceOnUse" color-interpolation-filters="sRGB"><feFlood flood-opacity="0" result="BackgroundImageFix"/><feGaussianBlur in="BackgroundImageFix" stdDeviation="2"/><feComposite in2="SourceAlpha" operator="in" result="effect1_backgroundBlur_3088_9200"/><feBlend in="SourceGraphic" in2="effect1_backgroundBlur_3088_9200" result="shape"/></filter><filter id="d" x="77" y="59" width="18" height="18" filterUnits="userSpaceOnUse" color-interpolation-filters="sRGB"><feFlood flood-opacity="0" result="BackgroundImageFix"/><feGaussianBlur in="BackgroundImageFix" stdDeviation="2"/><feComposite in2="SourceAlpha" operator="in" result="effect1_backgroundBlur_3088_9200"/><feBlend in="SourceGraphic" in2="effect1_backgroundBlur_3088_9200" result="shape"/></filter></defs></svg>