<svg width="410" height="179" fill="none" xmlns="http://www.w3.org/2000/svg"><g clip-path="url(#a)"><path d="M0 32c0-11.201 0-16.802 2.18-21.08a20 20 0 0 1 8.74-8.74C15.198 0 20.8 0 32 0h346c11.201 0 16.802 0 21.08 2.18a19.998 19.998 0 0 1 8.74 8.74C410 15.198 410 20.8 410 32v147H0V32Z" fill="#043FFF"/><path d="M410 90v89H0V90h410Z" fill="#0B0"/></g><defs><clipPath id="a"><path d="M0 32c0-11.201 0-16.802 2.18-21.08a20 20 0 0 1 8.74-8.74C15.198 0 20.8 0 32 0h346c11.201 0 16.802 0 21.08 2.18a19.998 19.998 0 0 1 8.74 8.74C410 15.198 410 20.8 410 32v147H0V32Z" fill="#fff"/></clipPath></defs></svg>