<svg width="410" height="179" fill="none" xmlns="http://www.w3.org/2000/svg"><path d="M0 32c0-11.201 0-16.802 2.18-21.08a20 20 0 0 1 8.74-8.74C15.198 0 20.8 0 32 0h346c11.201 0 16.802 0 21.08 2.18a19.998 19.998 0 0 1 8.74 8.74C410 15.198 410 20.8 410 32v147H0V32Z" fill="#0DB4C4"/><g clip-path="url(#a)" fill="#fff"><path d="M458.622-10.762 653.607 231.94 297.389 518.124 102.403 275.42 458.622-10.763Z" fill-opacity=".03"/><path d="m484.927 10.761 194.985 242.704-356.219 286.182-194.985-242.704L484.927 10.761Z" fill-opacity=".04"/><path d="m508.84 32.282 194.985 242.704-356.219 286.183-194.985-242.704L508.84 32.282Z" fill-opacity=".08"/></g><defs><clipPath id="a"><path fill="#fff" transform="matrix(-1 0 0 1 409 0)" d="M0 0h409v179H0z"/></clipPath></defs></svg>