<svg width="410" height="179" fill="none" xmlns="http://www.w3.org/2000/svg"><g clip-path="url(#a)"><path d="M0 32c0-11.201 0-16.802 2.18-21.08a20 20 0 0 1 8.74-8.74C15.198 0 20.8 0 32 0h346c11.201 0 16.802 0 21.08 2.18a19.998 19.998 0 0 1 8.74 8.74C410 15.198 410 20.8 410 32v147H0V32Z" fill="#E36924"/><g clip-path="url(#b)" fill="#fff"><path d="m407.68-10.5 190.23 236.785-347.53 279.202L60.15 268.703 407.68-10.499Z" fill-opacity=".03"/><path d="m433.343 10.499 190.23 236.784-347.531 279.202-190.23-236.784L433.343 10.499Z" fill-opacity=".04"/><path d="m456.673 31.495 190.23 236.784-347.531 279.202-190.23-236.784L456.673 31.495Z" fill-opacity=".08"/></g></g><defs><clipPath id="a"><path d="M0 32c0-11.201 0-16.802 2.18-21.08a20 20 0 0 1 8.74-8.74C15.198 0 20.8 0 32 0h346c11.201 0 16.802 0 21.08 2.18a19.998 19.998 0 0 1 8.74 8.74C410 15.198 410 20.8 410 32v147H0V32Z" fill="#fff"/></clipPath><clipPath id="b"><path fill="#fff" transform="matrix(-1 0 0 1 408.934 0)" d="M0 0h348.788v254.3H0z"/></clipPath></defs></svg>