<svg width="100" height="100" fill="none" xmlns="http://www.w3.org/2000/svg"><g clip-path="url(#a)"><g filter="url(#b)"><path d="M78.125 21.875v4.956L75 23.706l-4.419 4.419L81.25 38.794l10.669-10.669-4.419-4.419-3.125 3.125v-4.956c0-6.892-5.606-12.5-12.5-12.5h-12.5v6.25h12.5a6.257 6.257 0 0 1 6.25 6.25Z" fill="#21B262" fill-opacity=".7"/></g><path d="M18.751 75.001v-4.956l3.125 3.125 4.419-4.419-10.669-10.669L4.957 68.751l4.419 4.419 3.125-3.125V75c0 6.892 5.606 12.5 12.5 12.5h12.5v-6.25h-12.5a6.257 6.257 0 0 1-6.25-6.25Z" fill="#21B262"/><g filter="url(#c)"><path d="m43.731 11.768-16.54-9.452a2.398 2.398 0 0 0-2.38 0l-16.8 9.6A2.4 2.4 0 0 0 9.2 16.4h33.6a2.4 2.4 0 0 0 .93-4.632Z" fill="#21B262" fill-opacity=".7"/></g><g filter="url(#d)"><path d="M15 18.8H9c-1.104 0-2 1.075-2 2.4v19.048c0 1.326.896 2.4 2 2.4h6c1.105 0 2-1.074 2-2.4V21.201c0-1.326-.895-2.4-2-2.4Z" fill="#21B262" fill-opacity=".7"/></g><g filter="url(#e)"><path d="M29 18.8h-6c-1.105 0-2 1.075-2 2.4v19.048c0 1.326.895 2.4 2 2.4h6c1.105 0 2-1.074 2-2.4V21.201c0-1.326-.895-2.4-2-2.4Z" fill="#21B262" fill-opacity=".7"/></g><g filter="url(#f)"><path d="M43 18.8h-6c-1.105 0-2 1.075-2 2.4v19.048c0 1.326.895 2.4 2 2.4h6c1.105 0 2-1.074 2-2.4V21.201c0-1.326-.895-2.4-2-2.4Z" fill="#21B262" fill-opacity=".7"/></g><path d="M45.2 11.6H6.8A4.805 4.805 0 0 0 2 16.4v2.4c0 2.647 2.153 4.8 4.8 4.8h38.4c2.646 0 4.8-2.153 4.8-4.8v-2.4c0-2.648-2.154-4.8-4.8-4.8ZM42.8 38H9.2C5.23 38 2 41.23 2 45.2v2.4A2.4 2.4 0 0 0 4.4 50h43.2a2.4 2.4 0 0 0 2.4-2.4v-2.4c0-3.97-3.23-7.2-7.2-7.2Z" fill="#21B262"/><g filter="url(#g)"><path d="m92.816 53.192-18.952-10.83a2.749 2.749 0 0 0-2.728 0l-19.25 11A2.75 2.75 0 0 0 53.25 58.5h38.5a2.75 2.75 0 0 0 1.066-5.308Z" fill="#21B262" fill-opacity=".7"/></g><g filter="url(#h)"><path d="M61 61h-6c-1.105 0-2 1.262-2 2.818v22.364c0 1.556.895 2.818 2 2.818h6c1.105 0 2-1.262 2-2.818V63.818C63 62.262 62.105 61 61 61Z" fill="#21B262" fill-opacity=".7"/></g><g filter="url(#i)"><path d="M89 61h-6c-1.106 0-2 1.262-2 2.818v22.364c0 1.556.894 2.818 2 2.818h6c1.106 0 2-1.262 2-2.818V63.818C91 62.262 90.106 61 89 61Z" fill="#21B262" fill-opacity=".7"/></g><g filter="url(#j)"><path d="M75 62h-6c-1.106 0-2 1.262-2 2.818v22.364c0 1.556.894 2.818 2 2.818h6c1.106 0 2-1.262 2-2.818V64.818C77 63.262 76.106 62 75 62Z" fill="#21B262" fill-opacity=".7"/></g><path d="M94.5 53h-44a5.505 5.505 0 0 0-5.5 5.5v2.75c0 3.033 2.467 5.5 5.5 5.5h44c3.032 0 5.5-2.467 5.5-5.5V58.5c0-3.033-2.468-5.5-5.5-5.5Zm-2.75 30.25h-38.5c-4.55 0-8.25 3.7-8.25 8.25v2.75A2.75 2.75 0 0 0 47.75 97h49.5a2.75 2.75 0 0 0 2.75-2.75V91.5c0-4.55-3.7-8.25-8.25-8.25Z" fill="#21B262"/></g><defs><filter id="b" x="19.375" y="-30.625" width="112.543" height="109.418" filterUnits="userSpaceOnUse" color-interpolation-filters="sRGB"><feFlood flood-opacity="0" result="BackgroundImageFix"/><feGaussianBlur in="BackgroundImageFix" stdDeviation="20"/><feComposite in2="SourceAlpha" operator="in" result="effect1_backgroundBlur_1204_2615"/><feBlend in="SourceGraphic" in2="effect1_backgroundBlur_1204_2615" result="shape"/></filter><filter id="c" x="2.801" y="-2" width="46.445" height="22.4" filterUnits="userSpaceOnUse" color-interpolation-filters="sRGB"><feFlood flood-opacity="0" result="BackgroundImageFix"/><feGaussianBlur in="BackgroundImageFix" stdDeviation="2"/><feComposite in2="SourceAlpha" operator="in" result="effect1_backgroundBlur_1204_2615"/><feBlend in="SourceGraphic" in2="effect1_backgroundBlur_1204_2615" result="shape"/></filter><filter id="d" x="3" y="14.801" width="18" height="31.848" filterUnits="userSpaceOnUse" color-interpolation-filters="sRGB"><feFlood flood-opacity="0" result="BackgroundImageFix"/><feGaussianBlur in="BackgroundImageFix" stdDeviation="2"/><feComposite in2="SourceAlpha" operator="in" result="effect1_backgroundBlur_1204_2615"/><feBlend in="SourceGraphic" in2="effect1_backgroundBlur_1204_2615" result="shape"/></filter><filter id="e" x="17" y="14.801" width="18" height="31.848" filterUnits="userSpaceOnUse" color-interpolation-filters="sRGB"><feFlood flood-opacity="0" result="BackgroundImageFix"/><feGaussianBlur in="BackgroundImageFix" stdDeviation="2"/><feComposite in2="SourceAlpha" operator="in" result="effect1_backgroundBlur_1204_2615"/><feBlend in="SourceGraphic" in2="effect1_backgroundBlur_1204_2615" result="shape"/></filter><filter id="f" x="31" y="14.801" width="18" height="31.848" filterUnits="userSpaceOnUse" color-interpolation-filters="sRGB"><feFlood flood-opacity="0" result="BackgroundImageFix"/><feGaussianBlur in="BackgroundImageFix" stdDeviation="2"/><feComposite in2="SourceAlpha" operator="in" result="effect1_backgroundBlur_1204_2615"/><feBlend in="SourceGraphic" in2="effect1_backgroundBlur_1204_2615" result="shape"/></filter><filter id="g" x="46.5" y="38" width="52.055" height="24.5" filterUnits="userSpaceOnUse" color-interpolation-filters="sRGB"><feFlood flood-opacity="0" result="BackgroundImageFix"/><feGaussianBlur in="BackgroundImageFix" stdDeviation="2"/><feComposite in2="SourceAlpha" operator="in" result="effect1_backgroundBlur_1204_2615"/><feBlend in="SourceGraphic" in2="effect1_backgroundBlur_1204_2615" result="shape"/></filter><filter id="h" x="49" y="57" width="18" height="36" filterUnits="userSpaceOnUse" color-interpolation-filters="sRGB"><feFlood flood-opacity="0" result="BackgroundImageFix"/><feGaussianBlur in="BackgroundImageFix" stdDeviation="2"/><feComposite in2="SourceAlpha" operator="in" result="effect1_backgroundBlur_1204_2615"/><feBlend in="SourceGraphic" in2="effect1_backgroundBlur_1204_2615" result="shape"/></filter><filter id="i" x="77" y="57" width="18" height="36" filterUnits="userSpaceOnUse" color-interpolation-filters="sRGB"><feFlood flood-opacity="0" result="BackgroundImageFix"/><feGaussianBlur in="BackgroundImageFix" stdDeviation="2"/><feComposite in2="SourceAlpha" operator="in" result="effect1_backgroundBlur_1204_2615"/><feBlend in="SourceGraphic" in2="effect1_backgroundBlur_1204_2615" result="shape"/></filter><filter id="j" x="63" y="58" width="18" height="36" filterUnits="userSpaceOnUse" color-interpolation-filters="sRGB"><feFlood flood-opacity="0" result="BackgroundImageFix"/><feGaussianBlur in="BackgroundImageFix" stdDeviation="2"/><feComposite in2="SourceAlpha" operator="in" result="effect1_backgroundBlur_1204_2615"/><feBlend in="SourceGraphic" in2="effect1_backgroundBlur_1204_2615" result="shape"/></filter><clipPath id="a"><path fill="#fff" d="M0 0h100v100H0z"/></clipPath></defs></svg>