<svg width="410" height="179" fill="none" xmlns="http://www.w3.org/2000/svg"><g clip-path="url(#a)"><path d="M0 32c0-11.201 0-16.802 2.18-21.08a20 20 0 0 1 8.74-8.74C15.198 0 20.8 0 32 0h346c11.201 0 16.802 0 21.08 2.18a19.998 19.998 0 0 1 8.74 8.74C410 15.198 410 20.8 410 32v147H0V32Z" fill="#00717C"/><g clip-path="url(#b)"><path d="M410.622-26.762 605.607 215.94 249.389 502.124 54.403 259.42 410.622-26.763Z" fill="#fff" fill-opacity=".03"/><path d="m460.84 16.282 194.985 242.704-356.219 286.183-194.985-242.704L460.84 16.282Z" fill="#FECC00"/></g></g><defs><clipPath id="a"><path d="M0 32c0-11.201 0-16.802 2.18-21.08a20 20 0 0 1 8.74-8.74C15.198 0 20.8 0 32 0h346c11.201 0 16.802 0 21.08 2.18a19.998 19.998 0 0 1 8.74 8.74C410 15.198 410 20.8 410 32v147H0V32Z" fill="#fff"/></clipPath><clipPath id="b"><path fill="#fff" transform="matrix(-1 0 0 1 411.907 -16)" d="M0 0h357.508v260.658H0z"/></clipPath></defs></svg>