<svg width="415" height="47" fill="none" xmlns="http://www.w3.org/2000/svg"><path d="M6.55 37H.5V2h6.05v15.35L22.25 2h7.9l-15.9 15.7L31.3 37h-8.05L9.7 21.75 6.55 24.8V37Zm29.884-18.55-2.8-4.2c1.3-1.233 2.95-2.183 4.95-2.85 2-.667 3.984-1 5.95-1 3.434 0 6.067.933 7.9 2.8 1.834 1.833 2.75 4.467 2.75 7.9V37h-5.7v-2.85c-1.9 2.1-4.583 3.15-8.05 3.15-2.7 0-4.95-.7-6.75-2.1-1.8-1.433-2.7-3.467-2.7-6.1 0-1.6.367-2.967 1.1-4.1.734-1.133 1.734-1.983 3-2.55a16.574 16.574 0 0 1 3.85-1.2c1.3-.267 2.7-.4 4.2-.4 1.967 0 3.75.233 5.35.7.067-1.833-.333-3.283-1.2-4.35-.866-1-2.333-1.5-4.4-1.5-2.566 0-5.05.917-7.45 2.75Zm6.25 13.9a8.424 8.424 0 0 0 3.9-.95c1.234-.633 2.2-1.5 2.9-2.6v-2.5c-1.666-.467-3.25-.7-4.75-.7-4.566 0-6.85 1.15-6.85 3.45 0 1.133.484 1.967 1.45 2.5 1 .533 2.117.8 3.35.8ZM66.044 47h-5.7V11h5.7v2.35c.766-.967 1.8-1.7 3.1-2.2 1.333-.5 2.7-.75 4.1-.75 3.9 0 6.966 1.233 9.2 3.7 2.266 2.467 3.4 5.617 3.4 9.45 0 4-1.2 7.317-3.6 9.95-2.367 2.633-5.5 3.95-9.4 3.95-1.234 0-2.534-.167-3.9-.5-1.334-.367-2.3-.917-2.9-1.65V47Zm6.6-31.3a7.19 7.19 0 0 0-3.95 1.15c-1.167.767-2.05 1.8-2.65 3.1v9c1.3 2.133 3.35 3.2 6.15 3.2 2.366 0 4.25-.75 5.65-2.25 1.4-1.533 2.1-3.5 2.1-5.9 0-2.467-.617-4.467-1.85-6-1.234-1.533-3.05-2.3-5.45-2.3Zm23.115.6h-9.4V11h24.5v5.3h-9.4V37h-5.7V16.3Zm20.705 2.15-2.8-4.2c1.3-1.233 2.95-2.183 4.95-2.85 2-.667 3.983-1 5.95-1 3.433 0 6.066.933 7.9 2.8 1.833 1.833 2.75 4.467 2.75 7.9V37h-5.7v-2.85c-1.9 2.1-4.584 3.15-8.05 3.15-2.7 0-4.95-.7-6.75-2.1-1.8-1.433-2.7-3.467-2.7-6.1 0-1.6.366-2.967 1.1-4.1.733-1.133 1.733-1.983 3-2.55a16.565 16.565 0 0 1 3.85-1.2c1.3-.267 2.7-.4 4.2-.4 1.966 0 3.75.233 5.35.7.066-1.833-.334-3.283-1.2-4.35-.867-1-2.334-1.5-4.4-1.5-2.567 0-5.05.917-7.45 2.75Zm6.25 13.9a8.428 8.428 0 0 0 3.9-.95c1.233-.633 2.2-1.5 2.9-2.6v-2.5c-1.667-.467-3.25-.7-4.75-.7-4.567 0-6.85 1.15-6.85 3.45 0 1.133.483 1.967 1.45 2.5 1 .533 2.116.8 3.35.8Zm28.275-8.4c0-4.033 1.317-7.3 3.95-9.8 2.633-2.5 5.95-3.75 9.95-3.75 4.067 0 7.4 1.267 10 3.8 2.633 2.5 3.95 5.75 3.95 9.75s-1.333 7.25-4 9.75-5.983 3.75-9.95 3.75c-3.967 0-7.283-1.267-9.95-3.8-2.633-2.567-3.95-5.8-3.95-9.7Zm5.9 0c0 2.333.75 4.283 2.25 5.85 1.5 1.567 3.417 2.35 5.75 2.35 2.467 0 4.417-.75 5.85-2.25 1.467-1.5 2.2-3.483 2.2-5.95 0-2.4-.75-4.367-2.25-5.9-1.5-1.567-3.433-2.35-5.8-2.35-2.4 0-4.333.783-5.8 2.35-1.467 1.533-2.2 3.5-2.2 5.9Zm31.888-7.65h-9.4V11h24.5v5.3h-9.4V37h-5.7V16.3ZM229.648 37h-10.3V2h10.95c6 0 10.783 1.417 14.35 4.25 3.566 2.833 5.35 7.1 5.35 12.8 0 3.033-.534 5.717-1.6 8.05-1.067 2.333-2.55 4.217-4.45 5.65-1.867 1.4-4 2.467-6.4 3.2-2.4.7-5.034 1.05-7.9 1.05Zm.55-29.3h-4.8v23.6h4.7c4.266 0 7.6-1.017 10-3.05 2.4-2.067 3.6-5.133 3.6-9.2 0-7.567-4.5-11.35-13.5-11.35ZM281.939 27l3.55 3.9c-1.534 2.133-3.584 3.75-6.15 4.85-2.534 1.1-5.217 1.65-8.05 1.65-5.434 0-9.8-1.65-13.1-4.95-3.267-3.3-4.9-7.617-4.9-12.95 0-5.2 1.7-9.483 5.1-12.85 3.4-3.367 7.666-5.05 12.8-5.05 2.733 0 5.35.517 7.85 1.55 2.5 1 4.466 2.5 5.9 4.5l-4 3.8c-2.4-2.7-5.55-4.05-9.45-4.05-3.634 0-6.534 1.133-8.7 3.4-2.134 2.233-3.2 5.133-3.2 8.7 0 3.6 1.116 6.517 3.35 8.75 2.266 2.233 5.2 3.35 8.8 3.35 4.2 0 7.6-1.533 10.2-4.6Zm34.185 10h-14.55V2h14.85c1.734 0 3.267.133 4.6.4 1.334.233 2.6.667 3.8 1.3 1.234.6 2.167 1.5 2.8 2.7.667 1.2 1 2.667 1 4.4 0 3.467-1.4 6.067-4.2 7.8 3.6 1.167 5.4 3.9 5.4 8.2 0 1.933-.4 3.6-1.2 5a7.862 7.862 0 0 1-3.2 3.15 15.85 15.85 0 0 1-4.3 1.6c-1.533.3-3.2.45-5 .45Zm0-15.1h-8.5v9.4h8.1c1.067 0 1.984-.05 2.75-.15.767-.1 1.567-.3 2.4-.6.867-.3 1.517-.783 1.95-1.45.467-.7.7-1.583.7-2.65 0-1.3-.433-2.3-1.3-3-.833-.733-1.733-1.167-2.7-1.3-.933-.167-2.066-.25-3.4-.25Zm-.5-14.2h-8v8.7h8.65c1.634 0 3.05-.333 4.25-1 1.234-.667 1.85-1.75 1.85-3.25 0-.967-.183-1.767-.55-2.4-.366-.633-.916-1.083-1.65-1.35a9.77 9.77 0 0 0-2.1-.55c-.666-.1-1.483-.15-2.45-.15Zm21.64 10.75-2.8-4.2c1.3-1.233 2.95-2.183 4.95-2.85 2-.667 3.984-1 5.95-1 3.434 0 6.067.933 7.9 2.8 1.834 1.833 2.75 4.467 2.75 7.9V37h-5.7v-2.85c-1.9 2.1-4.583 3.15-8.05 3.15-2.7 0-4.95-.7-6.75-2.1-1.8-1.433-2.7-3.467-2.7-6.1 0-1.6.367-2.967 1.1-4.1.734-1.133 1.734-1.983 3-2.55a16.58 16.58 0 0 1 3.85-1.2c1.3-.267 2.7-.4 4.2-.4 1.967 0 3.75.233 5.35.7.067-1.833-.333-3.283-1.2-4.35-.866-1-2.333-1.5-4.4-1.5-2.566 0-5.05.917-7.45 2.75Zm6.25 13.9a8.422 8.422 0 0 0 3.9-.95c1.234-.633 2.2-1.5 2.9-2.6v-2.5c-1.666-.467-3.25-.7-4.75-.7-4.566 0-6.85 1.15-6.85 3.45 0 1.133.484 1.967 1.45 2.5 1 .533 2.117.8 3.35.8ZM366.873 37h-5.7V11h5.7v2.35c2.034-1.933 4.7-2.9 8-2.9 6.967 0 10.45 3.95 10.45 11.85V37h-5.7V22.75c0-2.333-.5-4.083-1.5-5.25-.966-1.167-2.6-1.75-4.9-1.75-1.366 0-2.633.417-3.8 1.25a6.945 6.945 0 0 0-2.55 3.15V37Zm29.297 0h-5.7V.5h5.7v20.75L406.67 11h7.35l-11.85 11.45L414.62 37h-7.25l-9.55-10.8-1.65 1.3V37Z" fill="#fff"/></svg>