<svg width="45" height="45" fill="none" xmlns="http://www.w3.org/2000/svg"><g clip-path="url(#a)"><path d="M22.5 45C34.926 45 45 34.926 45 22.5S34.926 0 22.5 0 0 10.074 0 22.5 10.074 45 22.5 45Z" fill="#338AF3"/><path d="M35.217 22.744H9.782c0 1.756 1.53 3.18 3.286 3.18h-.106a3.18 3.18 0 0 0 3.18 3.179 3.18 3.18 0 0 0 3.178 3.18h6.36a3.18 3.18 0 0 0 3.179-3.18 3.18 3.18 0 0 0 3.179-3.18h-.106c1.756 0 3.285-1.423 3.285-3.179Z" fill="#FFDA44"/><path d="M31.304 18.587a8.804 8.804 0 0 1-17.608 0" fill="#338AF3"/><path d="m29.225 18.587-2.748 1.292 1.463 2.662-2.983-.571-.379 3.014-2.078-2.217-2.078 2.217-.378-3.014-2.984.57 1.463-2.66-2.748-1.293 2.748-1.293-1.463-2.661 2.984.57.378-3.013 2.078 2.216 2.079-2.216.378 3.014 2.984-.571-1.464 2.661 2.748 1.293Z" fill="#FFDA44"/><g clip-path="url(#b)"><path d="M67.5 0h-90v45h90V0Z" fill="#F2A800"/><path d="M67.5 0h-90v30h90V0Z" fill="#0033A0"/><path d="M67.5 0h-90v15h90V0Z" fill="#D90012"/></g></g><defs><clipPath id="a"><rect width="45" height="45" rx="22.5" fill="#fff"/></clipPath><clipPath id="b"><path fill="#fff" transform="translate(-22.5)" d="M0 0h90v45H0z"/></clipPath></defs></svg>