<svg width="45" height="45" fill="none" xmlns="http://www.w3.org/2000/svg"><g clip-path="url(#a)"><path d="M22.5 45C34.926 45 45 34.926 45 22.5S34.926 0 22.5 0 0 10.074 0 22.5 10.074 45 22.5 45Z" fill="#0052B4"/><path d="m22.5 8.805.729 2.242h2.357l-1.907 1.385.729 2.242L22.5 13.29l-1.907 1.385.729-2.242-1.907-1.385h2.357l.728-2.242Zm-9.684 4.01 2.1 1.07 1.667-1.666-.369 2.328 2.1 1.07-2.328.369-.368 2.328-1.07-2.1-2.329.369 1.667-1.667-1.07-2.1ZM8.805 22.5l2.242-.729v-2.357l1.385 1.907 2.242-.728L13.29 22.5l1.385 1.907-2.242-.728-1.385 1.907v-2.358L8.805 22.5Zm4.011 9.684 1.07-2.1-1.667-1.667 2.329.369 1.07-2.1.368 2.328 2.329.369-2.1 1.07.368 2.328-1.667-1.667-2.1 1.07Zm9.684 4.012-.728-2.242h-2.357l1.907-1.386-.729-2.242 1.907 1.386 1.907-1.386-.728 2.242 1.907 1.386H23.23l-.729 2.242Zm9.684-4.012-2.1-1.07-1.667 1.667.369-2.328-2.1-1.07 2.328-.37.369-2.328 1.07 2.101 2.328-.369-1.667 1.667 1.07 2.1Zm4.012-9.684-2.242.728v2.358l-1.386-1.907-2.241.728 1.385-1.907-1.385-1.907 2.242.728 1.385-1.907v2.357l2.242.729Zm-4.012-9.685-1.07 2.1 1.667 1.668-2.328-.37-1.07 2.101-.37-2.328-2.328-.369 2.1-1.07-.368-2.328 1.667 1.667 2.1-1.07Z" fill="#FFDA44"/></g><defs><clipPath id="a"><path fill="#fff" d="M0 0h45v45H0z"/></clipPath></defs></svg>