<svg width="60" height="60" fill="none" xmlns="http://www.w3.org/2000/svg"><g clip-path="url(#a)"><path d="M2.977 16.956A29.881 29.881 0 0 0 0 30c0 4.674 1.07 9.1 2.977 13.043L30 45.652l27.023-2.609A29.881 29.881 0 0 0 60 30c0-4.675-1.07-9.1-2.977-13.044L30 14.348 2.977 16.956Z" fill="#F0F0F0"/><path d="M2.977 43.043c4.852 10.035 15.128 16.956 27.022 16.956 11.893 0 22.17-6.921 27.022-16.956H2.977Z" fill="#6DA544"/><path d="M2.977 16.957H57.02C52.169 6.922 41.892 0 29.999 0 18.105 0 7.829 6.922 2.977 16.957Z" fill="#D80027"/><path d="M24.781 37.827h10.435v-4.435l-2.087 1.043-3.13-3.13-3.13 3.13-2.088-1.043v4.434Zm-5.97-5.217.486 1.494h1.571l-1.271.924.486 1.494-1.272-.923-1.271.923.485-1.494-1.271-.924h1.571l.486-1.495Zm1.504-5.22.486 1.495h1.571l-1.271.924.485 1.495-1.271-.924-1.271.924.485-1.495-1.271-.924h1.571l.486-1.494Zm4.305-3.911.485 1.494h1.572l-1.271.924.485 1.495-1.271-.924-1.272.924.486-1.495-1.271-.924h1.571l.486-1.494Zm16.566 9.131-.486 1.494h-1.57l1.271.924-.485 1.494 1.271-.923 1.272.923-.486-1.494 1.271-.924h-1.571l-.486-1.495Zm-1.504-5.22-.486 1.495h-1.571l1.272.924-.486 1.495 1.271-.924 1.272.924-.486-1.495 1.271-.924h-1.571l-.486-1.494Zm-4.305-3.911-.485 1.494H33.32l1.272.924-.486 1.495 1.271-.924 1.272.924-.486-1.495 1.272-.924h-1.572l-.486-1.494Zm-5.378-1.958.485 1.495h1.572l-1.272.924.486 1.494-1.27-.923-1.272.924.486-1.495-1.272-.924h1.572L30 21.522Z" fill="#FFDA44"/></g><defs><clipPath id="a"><path fill="#fff" d="M0 0h60v60H0z"/></clipPath></defs></svg>