<svg xmlns="http://www.w3.org/2000/svg" width="45" height="46" fill="none"><g clip-path="url(#a)"><path fill="#D80027" d="M22.5 45.5C34.926 45.5 45 35.426 45 23S34.926.5 22.5.5 0 10.574 0 23s10.074 22.5 22.5 22.5Z"/><path fill="#F0F0F0" d="m21.579 18.885 1.846 2.544 2.99-.97-1.85 2.542 1.846 2.544-2.988-.973-1.85 2.542.003-3.143-2.99-.974 2.99-.969.003-3.143Z"/><path fill="#F0F0F0" d="M16.54 29.359a6.359 6.359 0 1 1 3.025-11.954 7.826 7.826 0 1 0 0 11.189c-.9.488-1.93.765-3.025.765Z"/></g><defs><clipPath id="a"><path fill="#fff" d="M0 .5h45v45H0z"/></clipPath></defs></svg>