<svg width="180" height="54" fill="none" xmlns="http://www.w3.org/2000/svg"><g clip-path="url(#a)"><mask id="b" style="mask-type:luminance" maskUnits="userSpaceOnUse" x="0" y="0" width="180" height="53"><path d="M180 .5H0v52.457h180V.5Z" fill="#fff"/></mask><g mask="url(#b)"><path d="M.5 13.176V1h45.84v12.176c0 15.791-5.799 25.613-11.567 31.487a36.113 36.113 0 0 1-7.94 6.123 28.415 28.415 0 0 1-2.606 1.31 17.832 17.832 0 0 1-.82.334 16.22 16.22 0 0 1-.814-.29 25.845 25.845 0 0 1-2.602-1.187c-2.16-1.125-5.043-2.966-7.929-5.828C6.302 39.413.5 29.596.5 13.176Z" stroke="#fff"/><path fill-rule="evenodd" clip-rule="evenodd" d="m23.377 52.944.043.013-.043-.013Zm-4.544-2.05C12.015 47.04 0 36.886 0 13.175V.5h46.84v3.227c-.035 5.266-2.448 9.45-9.87 9.562H18.106v10.525H36.97v3.17c0 5.319-1.577 9.62-9.87 9.62h-8.995v13.863c.249.15.492.292.728.426Z" fill="#fff"/><path d="M59.863 31.68h4.848c2.628 0 4.497 1.131 4.497 3.338 0 1.076-.526 2.15-1.519 2.717v.056c1.519.453 2.045 1.754 2.045 2.886 0 2.773-2.395 3.791-5.023 3.791h-4.848V31.68Zm4.906 4.923c.818 0 1.168-.566 1.168-1.189 0-.566-.35-1.075-1.226-1.075h-1.577v2.264h1.635Zm.234 5.15c.934 0 1.401-.623 1.401-1.359s-.467-1.301-1.401-1.301h-1.928v2.66h1.928Zm9.693-10.073h3.388l4.497 12.732h-3.33l-.817-2.66h-4.088l-.818 2.66H70.2l4.497-12.732Zm2.979 7.582-.76-2.49c-.233-.792-.525-2.206-.525-2.206h-.058s-.292 1.414-.526 2.207l-.76 2.49h2.629Zm6.192-7.582h3.27l3.622 5.941c.525.85 1.11 2.15 1.11 2.15h.058s-.175-1.357-.175-2.15V31.68h3.212v12.732h-3.212l-3.68-5.942c-.525-.849-1.11-2.15-1.11-2.15h-.058s.175 1.358.175 2.15v5.942h-3.212V31.68Zm17.113 0v4.923h1.343l2.745-4.923h3.446l-3.563 6.111v.057l3.738 6.62h-3.621l-2.804-5.149h-1.343v5.15h-3.212v-12.79h3.271Zm-41.117-5.77V8.026h11.33V9.33c0 1.358-1.11 2.433-2.51 2.433H64.36v3.735h5.607v1.245c0 1.358-1.168 2.49-2.57 2.49H64.36v6.62h-4.497v.057Zm18.396-9.79h1.985c.76 0 1.344-.17 1.752-.566.41-.396.643-.906.643-1.642 0-.962-.35-1.64-1.11-1.924-.409-.17-.993-.226-1.694-.226h-1.518v4.357h-.058Zm-4.556-8.093h6.424c1.636 0 2.804.17 3.563.453 1.051.396 1.928 1.019 2.511 1.924.585.905.877 1.98.877 3.282a6.21 6.21 0 0 1-.701 2.886 4.672 4.672 0 0 1-2.044 2.037v.057c.175.226.408.566.7 1.075l3.563 6.281h-4.964l-3.27-6.055h-2.103v6.055h-4.556V8.027ZM90.7 25.91V8.026h11.622v3.735h-7.067v3.282h5.606v3.735h-5.606v3.395h7.417v3.735H90.699Zm14.835 0V8.026h11.564v3.735h-7.008v3.282h5.606v3.735h-5.606v3.395h7.417v3.735h-11.973Zm19.332-3.736h1.868c1.577 0 2.804-.452 3.679-1.358.877-.905 1.344-2.207 1.344-3.904 0-1.641-.467-2.943-1.344-3.848-.875-.906-2.102-1.302-3.679-1.302h-1.868v10.412Zm-4.498 3.735V8.027h6.542c2.919 0 5.256.793 6.95 2.377 1.693 1.585 2.569 3.735 2.569 6.564 0 2.83-.876 4.98-2.569 6.564-1.694 1.585-4.031 2.377-6.95 2.377h-6.542Zm22.718-9.054c0 1.528.467 2.83 1.402 3.848.933 1.018 2.161 1.528 3.563 1.528 1.459 0 2.628-.51 3.561-1.528.935-1.019 1.402-2.32 1.402-3.848 0-1.472-.467-2.716-1.402-3.678-.933-.962-2.102-1.472-3.561-1.472-1.461 0-2.63.51-3.563 1.472-.935.962-1.402 2.207-1.402 3.678Zm-4.673 0c0-2.603.877-4.754 2.687-6.508 1.811-1.754 4.147-2.603 6.951-2.603 2.803 0 5.138.849 6.949 2.603 1.81 1.754 2.687 3.905 2.687 6.508 0 2.66-.877 4.923-2.687 6.677-1.811 1.811-4.146 2.66-6.949 2.66-2.804 0-5.14-.906-6.951-2.66-1.81-1.81-2.687-4.017-2.687-6.677Zm21.436 9.055 1.519-17.883h4.906l2.686 7.583.935 2.943h.058c.351-1.189.642-2.207.935-2.943l2.686-7.583h4.906l1.518 17.882h-4.496l-.584-8.035c-.06-.396-.06-.85-.06-1.358v-1.643h-.058c-.409 1.245-.759 2.264-1.051 3l-1.927 5.206h-3.855l-1.928-5.206-1.051-3h-.058a25.822 25.822 0 0 1 0 3l-.584 8.035h-4.497Z" fill="#fff"/></g></g><defs><clipPath id="a"><path fill="#fff" transform="translate(0 .5)" d="M0 0h180v53H0z"/></clipPath></defs></svg>