<svg width="240" height="41" fill="none" xmlns="http://www.w3.org/2000/svg"><g clip-path="url(#a)" fill-rule="evenodd" clip-rule="evenodd"><path d="M24.668 2.555c-1.55.851-1.81 1.483-5.01 12.09-2.555 8.473-2.797 9.597-2.39 11.12.266 1 .94 2.037 1.641 2.529 1.514 1.061 29.967 9.807 31.893 9.804 2.174-.004 3.825-1.076 4.568-2.965 1.415-3.592 5.565-18.116 5.565-19.474 0-2.175-1.066-3.846-2.936-4.602-3.928-1.588-29.362-9.145-30.724-9.13-.824.01-1.997.293-2.607.628ZM41.97 9.863c7.903 2.433 14.642 4.7 14.977 5.038.52.526.216 1.916-2.099 9.588-1.488 4.935-2.976 9.25-3.304 9.59-.512.53-2.76-.046-15.53-3.97-8.45-2.598-15.03-4.847-15.157-5.18-.266-.699 4.524-17.055 5.416-18.496.339-.546.776-.993.972-.993.196 0 6.822 1.99 14.725 4.423ZM7.628 8.42c-.241.667-.525 1.462-.63 1.765-.147.423 1.12.552 5.419.552h5.61l.444-1.765.443-1.766H8.067L7.628 8.42Zm1.485 8.936-.466 1.765h3.386c3.212 0 3.4-.054 3.65-1.062.145-.584.384-1.379.53-1.765.23-.607-.206-.703-3.183-.703H9.58l-.467 1.765ZM.641 25.629c-.242.667-.526 1.462-.631 1.765-.148.426 1.339.551 6.517.551h6.708l.264-1.062c.145-.584.384-1.378.53-1.765.238-.624-.475-.703-6.341-.703H1.079L.641 25.63Zm8.298 7.501c-.242.668-.526 1.462-.631 1.766-.149.427 1.513.551 7.39.551h7.582l.264-1.062a19.28 19.28 0 0 1 .531-1.765c.238-.626-.55-.703-7.216-.703H9.377L8.94 33.13Z" fill="#01C3F4"/><path d="M28.659 10.36c-.754 2.184-.625 2.396 1.875 3.099l2.354.662.515-1.735c.283-.955.452-1.787.375-1.85-.138-.113-4.353-1.565-4.542-1.565-.054 0-.314.625-.577 1.39Zm154.814 1.19c0 3.904-.002 3.908-.894 3.076-.584-.545-1.79-.9-3.488-1.026-2.205-.164-2.889-.017-4.528.973-4.756 2.872-4.777 10.885-.035 13.746 2.164 1.307 6.59 1.247 8.043-.108.882-.823.902-.82.902.133 0 .834.25.973 1.752.973h1.753V7.643h-3.505v3.908ZM81.45 14.248c-.8.42-1.983 1.478-2.629 2.35-1.018 1.376-1.174 2.012-1.174 4.782 0 3.76.971 5.587 3.744 7.045 2.925 1.538 8.342.995 9.944-.996.445-.552.352-.858-.516-1.698-.994-.963-1.12-.981-2.064-.3-.588.425-1.888.726-3.132.726-1.768 0-2.345-.224-3.409-1.32-.704-.726-1.28-1.539-1.28-1.806 0-.324 1.998-.486 5.97-.486h5.972l-.213-2.292c-.225-2.41-1.14-4.049-3.107-5.562-1.626-1.25-6.1-1.496-8.105-.443Zm15.587.014c-.903.387-1.643.898-1.643 1.136 0 .358.745 2.086 1.09 2.526.052.067.666-.186 1.365-.561 1.881-1.011 5.23-.898 6.309.215 1.507 1.552 1.135 2.255-1.205 2.277-4.893.046-7.654 1.393-8.132 3.967-.323 1.74.734 3.97 2.27 4.789 1.689.9 4.979.909 6.651.018 1.158-.618 1.293-.618 1.293 0 0 .503.473.689 1.752.689h1.753V23.65c0-6.374-.42-7.783-2.76-9.252-1.744-1.096-6.33-1.168-8.743-.137Zm17.155.284c-2.097 1.455-2.781 3.08-2.14 5.084.598 1.867 1.873 2.642 5.467 3.327 1.434.273 2.902.8 3.263 1.171 1.815 1.87-3.125 2.949-6.618 1.444-1.602-.69-1.606-.689-2.123.597-.67 1.667-.426 2.004 1.948 2.69 2.795.806 7.382.426 8.894-.737 2.198-1.691 2.431-5.334.428-6.686-.545-.368-2.317-.955-3.937-1.306-3.472-.75-4.428-1.387-3.825-2.547.589-1.136 2.992-1.477 5.317-.756 1.973.612 1.977.61 2.707-.698l.73-1.312-1.514-.652c-2.434-1.048-6.817-.854-8.597.381Zm11.546-.497c.124.327 1.568 3.801 3.212 7.722l2.987 7.128-1.409 2.944-1.408 2.943 2.084-.137 2.084-.138 4.45-10.386 4.451-10.386-1.31-.144c-.721-.08-1.538-.052-1.816.06-.278.113-1.492 2.563-2.697 5.445-1.205 2.881-2.296 5.241-2.423 5.245-.127.003-1.217-2.382-2.422-5.3l-2.19-5.306-1.908-.141c-1.436-.107-1.853.005-1.685.451Zm21.582.104c-.722.333-1.843 1.189-2.491 1.902-4.771 5.255-1.096 13.263 6.089 13.263 2.589 0 4.181-.665 5.758-2.406l1.031-1.136-1.375-.733c-1.302-.694-1.435-.683-2.513.191-3.772 3.058-9.034-1.457-6.956-5.97 1.206-2.618 4.738-3.465 6.956-1.667 1.078.875 1.211.885 2.513.191l1.375-.732-1.031-1.137c-.566-.625-1.561-1.422-2.212-1.77-1.485-.797-5.407-.794-7.144.005Zm13.366 7.236v7.929h3.505V24.33c0-4.655.071-5.06 1.048-6.066.574-.593 1.757-1.216 2.628-1.384 1.463-.283 1.583-.427 1.583-1.896v-1.59l-1.787.248c-.983.135-2.132.569-2.554.962-.998.932-1.425.907-1.265-.074.1-.617-.232-.821-1.515-.93l-1.643-.141v7.93Zm32.592-7.227c-2.794 1.254-3.684 4.585-1.809 6.775.729.85 1.902 1.363 4.49 1.96 2.662.617 3.539 1.007 3.655 1.632.084.451-.048 1.03-.295 1.284-.688.709-5.063.51-6.582-.3-1.334-.711-1.358-.704-2.02.617-.37.735-.672 1.426-.672 1.536 0 .636 3.927 1.652 6.385 1.652 4.475 0 6.761-1.702 6.761-5.035 0-2.25-1.312-3.252-5.509-4.215-3.514-.805-4.337-1.57-3.079-2.864.846-.87 4.395-.94 5.887-.117.802.441 1.004.336 1.591-.834.891-1.776.912-1.725-.971-2.264-2.27-.65-6.191-.563-7.832.174Zm19.992 7.254v7.902h3.427l.15-4.932c.134-4.479.244-5.038 1.203-6.09.581-.635 1.715-1.283 2.52-1.44 1.317-.254 1.464-.435 1.464-1.812 0-1.369-.127-1.53-1.206-1.528-.662 0-1.845.404-2.629.896-1.42.892-1.424.892-1.424-.002 0-.745-.296-.896-1.752-.896h-1.753v7.902Zm11.832-2.47c0 6.268.519 8.08 2.712 9.457 1.931 1.213 5.339 1.22 7.256.017 1.42-.893 1.425-.893 1.425.001 0 .745.296.897 1.752.897H240V13.513h-3.505v4.304c0 6.254-1.076 8.339-4.305 8.339-.713 0-1.76-.388-2.329-.862-.967-.806-1.045-1.22-1.182-6.322l-.145-5.46h-3.432v5.434ZM88.273 17.828c1.832 2.145 1.425 2.459-3.177 2.459-4.459 0-4.826-.23-3.386-2.125 1.666-2.19 4.84-2.352 6.563-.334Zm93.918.166c1.049 1.08 1.282 1.701 1.282 3.422 0 2.879-1.722 4.741-4.382 4.741-2.661 0-4.382-1.862-4.382-4.741 0-2.88 1.721-4.742 4.382-4.742 1.427 0 2.096.285 3.1 1.32Zm-77.156 5.646c0 1.516-1.917 2.968-3.916 2.968-1.841 0-2.657-.645-2.657-2.1 0-1.404 1.101-1.934 4.053-1.95 2.379-.013 2.52.048 2.52 1.082Zm101.613 1.01c-.388.107-.937.718-1.219 1.357-.71 1.604.357 3.31 2.066 3.31 1.541 0 2.269-.745 2.269-2.322 0-1.084-1.413-2.765-2.18-2.592-.127.029-.547.14-.936.247Z" fill="#18181A"/></g><defs><clipPath id="a"><path fill="#fff" transform="translate(0 .5)" d="M0 0h240v40H0z"/></clipPath></defs></svg>