<svg xmlns="http://www.w3.org/2000/svg" width="82" height="26" fill="none"><path fill="#fff" d="m32.964 1.35-4.12 24.18h6.59l4.123-24.18h-6.593Zm-9.646.026-6.454 16.49-.688-2.49c-1.273-3-4.887-7.308-9.13-10.023l5.903 20.164 6.973-.011L30.3 1.37l-6.982.005Z"/><path fill="#fff" d="M13.674 3.107c-.383-1.473-1.493-1.912-2.871-1.964H.586l-.085.48C8.452 3.554 13.713 8.2 15.896 13.79L13.674 3.107Zm39.24 2.878a12.166 12.166 0 0 1 4.932.925l.595.28.892-5.241c-1.305-.49-3.351-1.015-5.904-1.015-6.512 0-11.102 3.28-11.137 7.98-.043 3.472 3.27 5.411 5.77 6.569 2.569 1.186 3.43 1.94 3.418 3-.02 1.619-2.048 2.361-3.94 2.361-2.64 0-4.042-.364-6.206-1.266l-.85-.386-.926 5.412c1.542.676 4.388 1.257 7.342 1.288 6.927 0 11.43-3.241 11.477-8.263.029-2.748-1.73-4.844-5.538-6.565-2.305-1.122-3.715-1.868-3.701-3 0-1.005 1.196-2.08 3.776-2.08Zm23.331-4.61h-5.092c-1.581 0-2.758.43-3.453 2.007l-9.785 22.16h6.921s1.129-2.98 1.385-3.633c.757 0 7.481.01 8.439.01.197.845.803 3.623.803 3.623h6.114L76.245 1.375ZM68.117 16.96c.543-1.388 2.626-6.758 2.626-6.758-.036.066.537-1.398.878-2.308l.444 2.085 1.527 6.981h-5.475Z"/></svg>