<svg width="193" height="30" fill="none" xmlns="http://www.w3.org/2000/svg"><g clip-path="url(#a)" fill-rule="evenodd" clip-rule="evenodd"><path d="M19.823.58c-1.245.684-1.456 1.192-4.026 9.715-2.054 6.81-2.248 7.712-1.921 8.936.214.803.755 1.637 1.319 2.032 1.217.853 24.08 7.881 25.628 7.878 1.747-.003 3.073-.864 3.671-2.382 1.137-2.886 4.471-14.558 4.471-15.65 0-1.747-.856-3.09-2.359-3.697C43.45 6.136 23.012.063 21.917.076c-.662.008-1.605.235-2.095.504Zm13.903 5.873c6.35 1.955 11.766 3.777 12.035 4.048.418.423.174 1.54-1.687 7.705-1.195 3.965-2.39 7.433-2.655 7.707-.411.424-2.218-.038-12.48-3.192-6.79-2.087-12.077-3.894-12.179-4.162-.214-.561 3.635-13.705 4.353-14.862.272-.44.623-.798.78-.798.158 0 5.482 1.599 11.833 3.554ZM6.13 5.293c-.194.535-.422 1.174-.507 1.418-.118.34.9.443 4.355.443h4.509l.356-1.418.356-1.419H6.482l-.352.975Zm1.193 7.18-.375 1.418H9.67c2.582 0 2.732-.043 2.933-.853.117-.47.309-1.108.427-1.419.185-.487-.166-.564-2.558-.564H7.698l-.375 1.418ZM.515 19.122c-.194.536-.422 1.174-.507 1.418-.119.342 1.076.443 5.237.443h5.39l.212-.853c.117-.47.309-1.108.427-1.419.19-.501-.382-.564-5.096-.564H.868l-.353.975Zm6.668 6.028a161.17 161.17 0 0 0-.507 1.418c-.12.344 1.216.443 5.939.443h6.092l.212-.853c.117-.47.309-1.108.427-1.419.19-.503-.442-.564-5.798-.564H7.535l-.352.975Z" fill="#01C3F4"/><path d="M23.029 6.853c-.605 1.755-.502 1.925 1.507 2.49l1.892.532.413-1.394c.227-.768.363-1.437.301-1.487-.11-.09-3.497-1.258-3.649-1.258-.044 0-.252.503-.464 1.117Zm124.405.955c0 3.137-.001 3.14-.718 2.472-.47-.438-1.439-.723-2.804-.825-1.772-.132-2.321-.014-3.638.782-3.822 2.308-3.839 8.747-.028 11.046 1.739 1.05 5.295 1.002 6.463-.087.709-.661.725-.66.725.107 0 .67.2.782 1.408.782h1.409V4.668h-2.817v3.14ZM65.451 9.975c-.643.338-1.594 1.188-2.112 1.889-.818 1.105-.944 1.616-.944 3.842 0 3.022.78 4.49 3.009 5.661 2.35 1.236 6.703.8 7.99-.8.358-.444.283-.69-.414-1.365-.8-.773-.9-.788-1.659-.24-.472.34-1.517.583-2.517.583-1.42 0-1.884-.18-2.739-1.06-.566-.584-1.03-1.238-1.03-1.452 0-.26 1.607-.391 4.8-.391h4.798l-.172-1.841c-.18-1.937-.916-3.254-2.496-4.47-1.307-1.005-4.903-1.202-6.514-.356Zm12.526.012c-.727.31-1.321.72-1.321.912 0 .288.599 1.676.876 2.03.041.054.535-.15 1.096-.451 1.512-.813 4.203-.721 5.07.173 1.212 1.248.913 1.812-.968 1.83-3.932.037-6.15 1.12-6.535 3.188-.259 1.398.59 3.19 1.825 3.848 1.357.723 4 .73 5.344.014.931-.496 1.039-.496 1.039 0 0 .404.38.554 1.408.554h1.409V17.53c0-5.122-.338-6.254-2.218-7.435-1.402-.88-5.087-.938-7.025-.11Zm13.784.228c-1.684 1.169-2.234 2.475-1.719 4.085.48 1.5 1.505 2.123 4.393 2.674 1.153.22 2.332.643 2.622.94 1.458 1.503-2.511 2.37-5.318 1.16-1.287-.554-1.29-.553-1.706.48-.538 1.34-.342 1.61 1.566 2.161 2.246.648 5.931.343 7.146-.591 1.767-1.36 1.954-4.286.344-5.373-.438-.295-1.861-.768-3.164-1.05-2.79-.601-3.558-1.114-3.073-2.046.473-.913 2.404-1.187 4.272-.607 1.586.491 1.59.49 2.175-.562l.587-1.054-1.216-.523c-1.956-.843-5.478-.687-6.909.306Zm9.279-.4a694.4 694.4 0 0 0 2.58 6.205l2.401 5.728-1.132 2.366-1.132 2.365 1.675-.11 1.674-.111 3.577-8.346 3.576-8.346-1.053-.116c-.579-.064-1.235-.042-1.459.049-.224.09-1.199 2.06-2.167 4.375-.969 2.315-1.845 4.212-1.947 4.215-.102.002-.978-1.914-1.946-4.26l-1.76-4.263-1.534-.114c-1.154-.085-1.489.004-1.353.363Zm17.343.084c-.581.268-1.482.955-2.003 1.528-3.833 4.223-.88 10.658 4.893 10.658 2.081 0 3.36-.535 4.628-1.933l.828-.913-1.105-.589c-1.046-.558-1.153-.55-2.02.153-3.031 2.457-7.259-1.17-5.589-4.797.969-2.104 3.807-2.784 5.589-1.34.867.703.974.711 2.02.154l1.105-.589-.828-.913c-.455-.502-1.255-1.143-1.778-1.423-1.194-.64-4.345-.637-5.74.004Zm10.739 5.814v6.372h2.817v-4.008c0-3.741.057-4.066.842-4.874.462-.477 1.412-.978 2.112-1.113 1.176-.227 1.272-.343 1.272-1.523V9.29l-1.436.198c-.79.109-1.713.457-2.052.773-.802.75-1.145.729-1.017-.06.081-.495-.186-.66-1.217-.747l-1.321-.113v6.372Zm26.19-5.807c-2.245 1.007-2.959 3.684-1.453 5.444.586.683 1.528 1.095 3.608 1.576 2.139.495 2.844.809 2.937 1.31.068.363-.039.828-.237 1.032-.553.57-4.068.41-5.289-.241-1.072-.571-1.091-.565-1.623.496-.298.591-.54 1.146-.54 1.234 0 .511 3.156 1.328 5.131 1.328 3.596 0 5.433-1.367 5.433-4.046 0-1.807-1.054-2.613-4.427-3.387-2.824-.647-3.485-1.262-2.474-2.302.679-.699 3.531-.755 4.73-.094.645.355.807.27 1.279-.67.716-1.427.733-1.386-.781-1.819-1.824-.522-4.974-.452-6.294.14Zm16.065 5.829v6.35h2.755l.12-3.963c.108-3.6.196-4.049.967-4.893.467-.511 1.378-1.032 2.025-1.157 1.058-.205 1.176-.35 1.176-1.457 0-1.1-.102-1.23-.969-1.229-.532.001-1.482.325-2.112.72-1.141.718-1.145.718-1.145 0 0-.6-.238-.721-1.408-.721h-1.409v6.35Zm9.508-1.984c0 5.036.418 6.492 2.18 7.598 1.552.976 4.29.982 5.831.014 1.141-.717 1.144-.717 1.144.002 0 .598.239.72 1.408.72h1.409v-12.7h-2.817v3.459c0 5.025-.864 6.7-3.459 6.7-.572 0-1.414-.311-1.871-.692-.778-.648-.84-.98-.95-5.08l-.117-4.387h-2.758v4.366Zm-109.95-.899c1.47 1.723 1.144 1.976-2.554 1.976-3.583 0-3.878-.185-2.721-1.708 1.338-1.76 3.89-1.89 5.274-.268Zm75.469.133c.842.869 1.03 1.367 1.03 2.75 0 2.313-1.384 3.81-3.522 3.81s-3.521-1.497-3.521-3.81c0-2.314 1.383-3.81 3.521-3.81 1.147 0 1.685.229 2.492 1.06Zm-62.001 4.538c0 1.217-1.54 2.385-3.146 2.385-1.48 0-2.136-.519-2.136-1.688 0-1.128.885-1.554 3.257-1.567 1.912-.01 2.025.038 2.025.87Zm81.654.81c-.312.087-.753.578-.98 1.092-.571 1.288.287 2.66 1.661 2.66 1.237 0 1.823-.6 1.823-1.866 0-.872-1.136-2.223-1.752-2.084-.102.024-.44.113-.752.199Z" fill="#18181A"/></g><defs><clipPath id="a"><path fill="#fff" d="M0 0h192.857v30H0z"/></clipPath></defs></svg>