<svg xmlns="http://www.w3.org/2000/svg" width="69" height="53" fill="none"><path fill="#fff" d="M2.45 49.89H.898v-8.979h1.373l3.207 4.17 3.091-4.17h1.36v8.98H8.377v-6.222l-2.733 3.566h-.397L2.45 43.656v6.235Zm9.772-4.759-.718-1.077c.333-.317.756-.56 1.27-.731a4.806 4.806 0 0 1 1.526-.257c.88 0 1.556.24 2.027.718.47.47.705 1.147.705 2.027v4.08H15.57v-.732c-.488.54-1.176.809-2.065.809-.693 0-1.27-.18-1.732-.54-.462-.367-.693-.889-.693-1.564 0-.41.094-.761.282-1.052.188-.29.445-.509.77-.654.325-.146.654-.248.988-.308a5.362 5.362 0 0 1 1.077-.103c.505 0 .963.06 1.373.18.017-.47-.086-.843-.308-1.116-.222-.257-.598-.385-1.129-.385-.658 0-1.295.235-1.911.705Zm1.603 3.567c.351 0 .684-.082 1-.244.317-.163.565-.385.745-.667v-.642a4.524 4.524 0 0 0-1.219-.18c-1.171 0-1.757.296-1.757.886 0 .29.124.505.372.641.256.137.543.206.86.206Zm8.418-.706a.434.434 0 0 0-.116-.27 1.286 1.286 0 0 0-.423-.256 11.34 11.34 0 0 0-1.052-.333 14.773 14.773 0 0 1-.847-.27 5.76 5.76 0 0 1-.756-.385 1.777 1.777 0 0 1-.629-.602 1.55 1.55 0 0 1-.218-.822c0-.478.145-.872.436-1.18.29-.316.629-.53 1.014-.641a4.752 4.752 0 0 1 1.295-.167c.496 0 1 .107 1.514.32.513.206.906.493 1.18.86l-1 .95c-.428-.514-1.074-.77-1.938-.77-.444 0-.74.098-.885.295a.597.597 0 0 0-.102.308c0 .111.068.218.205.32.145.103.487.231 1.026.385.59.171.97.291 1.142.36.368.154.663.307.885.461.23.146.432.355.603.629.12.222.18.487.18.795 0 .48-.146.877-.437 1.193-.29.317-.633.535-1.026.655s-.82.18-1.283.18a4.23 4.23 0 0 1-1.821-.411c-.582-.283-1.005-.68-1.27-1.193l1.154-.796c.206.317.5.569.885.757.394.188.791.282 1.193.282.488 0 .817-.11.988-.333a.614.614 0 0 0 .103-.32Zm2.99-3.412h-1.155v-1.36h1.155v-1.373h1.462v1.373h2.155v1.36h-2.155v2.578c0 .197.009.364.026.5.017.137.051.287.103.45a.698.698 0 0 0 .256.372.836.836 0 0 0 .475.128c.333 0 .65-.188.95-.565l.871.821a2.068 2.068 0 0 1-.86.809 2.517 2.517 0 0 1-1.18.295c-.7 0-1.226-.219-1.577-.655-.35-.444-.526-1.026-.526-1.744v-2.99Zm9.59 3.181.898.885c-.667.907-1.57 1.36-2.707 1.36-1.069 0-1.932-.316-2.59-.95-.66-.632-.989-1.47-.989-2.514 0-1.051.313-1.894.937-2.527.633-.632 1.462-.949 2.489-.949.923 0 1.676.287 2.257.86.582.564.872 1.295.872 2.193 0 .223-.025.535-.076.937h-4.952c.06.521.282.919.667 1.193.393.265.864.397 1.411.397a2.32 2.32 0 0 0 1-.23c.326-.163.587-.381.783-.655Zm-2.027-3.374c-.462 0-.86.124-1.193.372-.325.248-.534.59-.628 1.027h3.502c-.128-.933-.689-1.399-1.68-1.399Zm5.713 5.504h-1.462v-6.67h1.462v.448a.782.782 0 0 1 .231-.256c.248-.223.573-.334.975-.334.23 0 .462.034.693.103.222.077.431.239.628.487l-.834 1.065c-.128-.197-.35-.295-.667-.295a.906.906 0 0 0-.667.27 1.4 1.4 0 0 0-.359.666v4.516Zm10.292-2.566.91 1a3.677 3.677 0 0 1-1.577 1.245 5.13 5.13 0 0 1-2.066.423c-1.394 0-2.514-.423-3.36-1.27-.839-.846-1.258-1.954-1.258-3.322 0-1.334.436-2.433 1.309-3.297.872-.864 1.967-1.296 3.284-1.296.701 0 1.372.133 2.014.398.641.257 1.146.641 1.514 1.155l-1.027.975c-.615-.693-1.424-1.04-2.424-1.04-.932 0-1.676.291-2.232.873-.548.573-.821 1.317-.821 2.232 0 .923.286 1.672.86 2.245.58.573 1.333.86 2.257.86 1.077 0 1.95-.394 2.617-1.181Zm2.506-2.194-.718-1.077c.333-.317.757-.56 1.27-.731a4.807 4.807 0 0 1 1.526-.257c.881 0 1.557.24 2.027.718.47.47.706 1.147.706 2.027v4.08h-1.463v-.732c-.487.54-1.176.809-2.065.809-.693 0-1.27-.18-1.732-.54-.462-.367-.693-.889-.693-1.564 0-.41.095-.761.283-1.052a1.74 1.74 0 0 1 .77-.654c.324-.146.654-.248.987-.308a5.362 5.362 0 0 1 1.078-.103c.504 0 .962.06 1.372.18.017-.47-.085-.843-.308-1.116-.222-.257-.598-.385-1.129-.385-.658 0-1.295.235-1.91.705Zm1.604 3.567c.35 0 .684-.082 1-.244.317-.163.565-.385.744-.667v-.642a4.523 4.523 0 0 0-1.218-.18c-1.172 0-1.758.296-1.758.886 0 .29.124.505.372.641.257.137.543.206.86.206Zm5.993 1.193H57.44v-6.67h1.463v.448a.782.782 0 0 1 .23-.256c.248-.223.574-.334.975-.334.231 0 .462.034.693.103.223.077.432.239.629.487l-.834 1.065c-.128-.197-.35-.295-.667-.295a.906.906 0 0 0-.667.27 1.4 1.4 0 0 0-.36.666v4.516Zm9.106 0h-1.462v-.732c-.257.343-.641.59-1.154.745-.24.06-.48.09-.719.09-1 0-1.787-.322-2.36-.963-.573-.65-.86-1.47-.86-2.463 0-.975.312-1.8.937-2.476.633-.684 1.428-1.026 2.386-1.026.795 0 1.385.167 1.77.5v-3.04h1.462v9.365Zm-3.066-1.258c.163 0 .355-.038.578-.115a1.51 1.51 0 0 0 .59-.346c.188-.18.333-.372.436-.578v-2.437c-.342-.487-.85-.731-1.526-.731-.616 0-1.112.2-1.489.603-.376.402-.564.906-.564 1.513 0 .616.175 1.12.526 1.514.36.385.842.578 1.45.578Z"/><ellipse cx="25.452" cy="17.912" fill="#EB001B" rx="17.93" ry="17.9"/><ellipse cx="47.103" cy="17.912" fill="#FA9B0F" rx="17.93" ry="17.9"/><ellipse cx="25.452" cy="17.912" fill="#EB001B" opacity=".5" rx="17.93" ry="17.9"/></svg>