<svg width="64" height="64" fill="none" xmlns="http://www.w3.org/2000/svg"><circle cx="32" cy="32" r="27" fill="#0089EE"/><path fill-rule="evenodd" clip-rule="evenodd" d="M20.04 31.21c6.04-2.536 10.06-4.22 12.078-5.037 5.745-2.319 6.953-2.719 7.729-2.735.172 0 .552.033.81.233.208.167.26.384.294.55.035.167.07.517.035.784-.31 3.169-1.657 10.857-2.347 14.393-.293 1.501-.862 2.002-1.414 2.052-1.208.1-2.123-.768-3.279-1.501-1.828-1.151-2.846-1.868-4.623-3.002-2.053-1.301-.725-2.018.448-3.186.31-.3 5.608-4.97 5.711-5.387.017-.05.017-.25-.103-.35-.121-.1-.294-.067-.432-.033-.19.033-3.088 1.9-8.73 5.587-.828.55-1.57.817-2.243.8-.742-.017-2.156-.4-3.226-.734-1.294-.4-2.33-.617-2.243-1.317.052-.367.57-.734 1.536-1.118Z" fill="#fff"/></svg>