<svg width="116" height="30" fill="none" xmlns="http://www.w3.org/2000/svg"><path d="M0 15.108C0 22.574 6.076 28.6 13.602 28.6c7.527 0 13.602-6.026 13.602-13.492 0-7.466-6.075-13.493-13.602-13.493C6.076 1.615 0 7.642 0 15.108Zm4.715 0c0-4.678 3.628-8.456 8.253-8.815v4.677a4.089 4.089 0 0 0-3.537 4.048 4.143 4.143 0 0 0 4.171 4.138c2.358 0 4.172-1.8 4.172-4.138a4.089 4.089 0 0 0-3.537-4.048V6.293c4.625.27 8.252 4.137 8.252 8.815 0 4.857-3.99 8.815-8.887 8.815s-8.887-3.958-8.887-8.815ZM11.79 3.954c0-.99.816-1.8 1.813-1.8.998 0 1.814.81 1.814 1.8s-.816 1.799-1.814 1.799c-.997 0-1.813-.81-1.813-1.8Zm27.81 14.86h-3.899c-.634 0-.997-.36-.997-.99v-3.868c0-.72.363-.99.997-.99h3.9c.634 0 .997.36.997.99v3.868c0 .63-.363.99-.997.99Zm3.356-5.038c0-2.159-1.088-3.238-3.174-3.238H35.52c-2.176 0-3.174 1.08-3.174 3.238v4.048c0 2.159 1.088 3.238 3.174 3.238h4.262c2.086 0 3.174-1.08 3.174-3.238v-4.048Zm11.789-3.238h-10.61v2.339h4.171v8.275h2.358v-8.275h4.08v-2.339Zm11.879 3.238c0-2.069-.998-3.148-2.993-3.148h-7.708v2.339h7.255c.725 0 1.088.27 1.088.9 0 .629-.363.899-1.088.899h-3.083v2.338h3.083c.725 0 1.088.27 1.088.9s-.363.9-1.088.9h-7.255v2.338h7.255c2.267 0 3.446-.9 3.446-2.788 0-.9-.181-1.8-.635-2.429.453-.9.635-1.62.635-2.249Zm8.433 5.038h-3.9c-.634 0-.997-.36-.997-.99v-3.868c0-.72.363-.99.998-.99h3.9c.634 0 .997.36.997.99v3.868c0 .63-.363.99-.998.99Zm3.355-5.038c0-2.159-1.088-3.238-3.173-3.238h-4.263c-2.176 0-3.173 1.08-3.173 3.238v4.048c0 2.159 1.088 3.238 3.174 3.238h4.262c2.085 0 3.173-1.08 3.173-3.238v-4.048Zm9.522 4.138c0-.63-.363-.9-.998-.9H82.04v1.8h4.896c.635 0 .998-.36.998-.9Zm0-4.138c0-.63-.363-.9-.998-.9H82.04v1.8h4.896c.635 0 .998-.27.998-.9Zm2.358 4.138c0 2.159-1.088 3.148-3.174 3.148h-7.436V10.538h7.436c2.086 0 3.174 1.08 3.174 3.148 0 .99-.272 1.71-.635 2.07.363.539.635 1.259.635 2.158Zm11.788 3.238h-2.357v-7.376l-5.895 7.376h-2.357V10.538h2.357v7.376l5.895-7.376h2.357v10.614Zm7.799-5.307 4.262-5.307h-2.72l-3.356 4.138h-2.448v-4.138h-2.358v10.614h2.358v-4.137h2.448l3.356 4.137h2.72l-4.262-5.307Z" fill="#B74746"/></svg>