<svg width="42" height="44" fill="none" xmlns="http://www.w3.org/2000/svg"><g clip-path="url(#a)"><path fill-rule="evenodd" clip-rule="evenodd" d="M20.808 0h-1.23l-.741.07-.302.023C12.339.795 6.655 4.57 6.655 11.217c0 5.026 2.715 9.298 12.157 13.638.556.298 1.137.572 1.74.868 4.781 2.376 9.165 4.295 9.165 8.361a6.538 6.538 0 0 1-.858 3.267c2.228-2.124 3.666-5.415 4.269-9.869-1.6-2.902-4.875-5.597-10.836-8.339-.557-.297-1.137-.571-1.74-.867-4.779-2.376-9.165-4.296-9.165-8.385.03-2.804 1.755-5.32 4.386-6.396a14.222 14.222 0 0 1 5.033-.845C30.992 2.65 34.59 11.056 34.59 22c0 10.988-3.598 19.349-13.784 19.349-10.184 0-13.804-8.361-13.804-19.35a40.864 40.864 0 0 1 .238-4.545 11.668 11.668 0 0 1-1.695-6.283 10.805 10.805 0 0 1 2.6-7.195C2.969 7.928 0 14.416 0 22c0 12.496 8.05 22 20.814 22 12.69 0 20.742-9.504 20.742-22C41.556 9.574 33.505.002 20.814.002" fill="#F0A02A"/></g><defs><clipPath id="a"><path fill="#fff" d="M0 0h41.556v44H0z"/></clipPath></defs></svg>