<svg width="730" height="471" viewBox="0 0 730 471" fill="none" xmlns="http://www.w3.org/2000/svg">
<line y1="425.259" x2="729.061" y2="425.259" stroke="#C4C4C4"/>
<path d="M1.96844 294V292.329L8.24515 285.458C8.98177 284.653 9.58839 283.954 10.065 283.359C10.5417 282.759 10.8945 282.196 11.1235 281.669C11.3588 281.137 11.4764 280.58 11.4764 279.998C11.4764 279.33 11.3154 278.751 10.9935 278.262C10.6778 277.773 10.2445 277.395 9.69363 277.129C9.14271 276.863 8.5237 276.73 7.83661 276.73C7.10618 276.73 6.46861 276.881 5.92388 277.185C5.38535 277.482 4.96752 277.9 4.6704 278.438C4.37946 278.977 4.234 279.608 4.234 280.332H2.04272C2.04272 279.218 2.29961 278.24 2.81338 277.398C3.32715 276.556 4.02663 275.9 4.91181 275.43C5.80318 274.959 6.80287 274.724 7.91089 274.724C9.0251 274.724 10.0124 274.959 10.8728 275.43C11.7332 275.9 12.408 276.535 12.897 277.333C13.386 278.132 13.6305 279.02 13.6305 279.998C13.6305 280.698 13.5036 281.382 13.2498 282.05C13.0022 282.712 12.5689 283.452 11.9499 284.269C11.3371 285.08 10.486 286.071 9.3965 287.24L5.12537 291.809V291.957H13.9648V294H1.96844ZM24.4848 274.984V294H22.1821V277.398H22.0706L17.4281 280.481V278.141L22.1821 274.984H24.4848ZM29.508 290.1V288.206L37.8646 274.984H39.2388V277.918H38.3102L31.9964 287.909V288.058H43.2499V290.1H29.508ZM38.4588 294V289.525V288.643V274.984H40.6501V294H38.4588Z" fill="black"/>
<path d="M8.21775 419.792C6.81879 419.792 5.62721 419.411 4.64299 418.65C3.65877 417.882 2.90668 416.771 2.38672 415.316C1.86675 413.855 1.60677 412.091 1.60677 410.024C1.60677 407.969 1.86675 406.214 2.38672 404.759C2.91287 403.298 3.66806 402.184 4.65228 401.417C5.64268 400.643 6.83117 400.256 8.21775 400.256C9.60432 400.256 10.7897 400.643 11.7739 401.417C12.7643 402.184 13.5195 403.298 14.0395 404.759C14.5656 406.214 14.8287 407.969 14.8287 410.024C14.8287 412.091 14.5687 413.855 14.0488 415.316C13.5288 416.771 12.7767 417.882 11.7925 418.65C10.8083 419.411 9.6167 419.792 8.21775 419.792ZM8.21775 417.749C9.60432 417.749 10.6814 417.08 11.449 415.743C12.2165 414.406 12.6003 412.5 12.6003 410.024C12.6003 408.377 12.4239 406.975 12.0711 405.818C11.7244 404.66 11.223 403.778 10.5669 403.171C9.91692 402.565 9.13388 402.261 8.21775 402.261C6.84355 402.261 5.76958 402.939 4.99582 404.295C4.22207 405.644 3.83519 407.554 3.83519 410.024C3.83519 411.67 4.00851 413.069 4.35515 414.221C4.7018 415.372 5.2001 416.248 5.85005 416.848C6.5062 417.449 7.29543 417.749 8.21775 417.749Z" fill="black"/>
<path d="M423.968 465V463.329L430.245 456.458C430.982 455.653 431.588 454.954 432.065 454.359C432.542 453.759 432.894 453.196 433.124 452.669C433.359 452.137 433.476 451.58 433.476 450.998C433.476 450.33 433.315 449.751 432.994 449.262C432.678 448.773 432.245 448.395 431.694 448.129C431.143 447.863 430.524 447.73 429.837 447.73C429.106 447.73 428.469 447.881 427.924 448.185C427.385 448.482 426.968 448.9 426.67 449.438C426.379 449.977 426.234 450.608 426.234 451.332H424.043C424.043 450.218 424.3 449.24 424.813 448.398C425.327 447.556 426.027 446.9 426.912 446.43C427.803 445.959 428.803 445.724 429.911 445.724C431.025 445.724 432.012 445.959 432.873 446.43C433.733 446.9 434.408 447.535 434.897 448.333C435.386 449.132 435.63 450.02 435.63 450.998C435.63 451.698 435.504 452.382 435.25 453.05C435.002 453.712 434.569 454.452 433.95 455.269C433.337 456.08 432.486 457.071 431.397 458.24L427.125 462.809V462.957H435.965V465H423.968ZM446.002 465.26C444.603 465.26 443.411 464.879 442.427 464.118C441.443 463.35 440.691 462.239 440.171 460.785C439.651 459.324 439.391 457.56 439.391 455.492C439.391 453.437 439.651 451.682 440.171 450.227C440.697 448.767 441.452 447.652 442.436 446.885C443.427 446.111 444.615 445.724 446.002 445.724C447.389 445.724 448.574 446.111 449.558 446.885C450.549 447.652 451.304 448.767 451.824 450.227C452.35 451.682 452.613 453.437 452.613 455.492C452.613 457.56 452.353 459.324 451.833 460.785C451.313 462.239 450.561 463.35 449.577 464.118C448.592 464.879 447.401 465.26 446.002 465.26ZM446.002 463.217C447.389 463.217 448.466 462.549 449.233 461.212C450.001 459.875 450.384 457.968 450.384 455.492C450.384 453.846 450.208 452.443 449.855 451.286C449.509 450.128 449.007 449.246 448.351 448.64C447.701 448.033 446.918 447.73 446.002 447.73C444.628 447.73 443.554 448.408 442.78 449.763C442.006 451.113 441.619 453.022 441.619 455.492C441.619 457.139 441.793 458.538 442.139 459.689C442.486 460.84 442.984 461.716 443.634 462.317C444.29 462.917 445.08 463.217 446.002 463.217ZM456.141 465V463.329L462.418 456.458C463.155 455.653 463.761 454.954 464.238 454.359C464.714 453.759 465.067 453.196 465.296 452.669C465.532 452.137 465.649 451.58 465.649 450.998C465.649 450.33 465.488 449.751 465.166 449.262C464.851 448.773 464.417 448.395 463.866 448.129C463.316 447.863 462.697 447.73 462.009 447.73C461.279 447.73 460.641 447.881 460.097 448.185C459.558 448.482 459.14 448.9 458.843 449.438C458.552 449.977 458.407 450.608 458.407 451.332H456.216C456.216 450.218 456.472 449.24 456.986 448.398C457.5 447.556 458.199 446.9 459.085 446.43C459.976 445.959 460.976 445.724 462.084 445.724C463.198 445.724 464.185 445.959 465.046 446.43C465.906 446.9 466.581 447.535 467.07 448.333C467.559 449.132 467.803 450.02 467.803 450.998C467.803 451.698 467.676 452.382 467.423 453.05C467.175 453.712 466.742 454.452 466.123 455.269C465.51 456.08 464.659 457.071 463.569 458.24L459.298 462.809V462.957H468.138V465H456.141ZM478.658 445.984V465H476.355V448.398H476.243L471.601 451.481V449.141L476.355 445.984H478.658Z" fill="black"/>
<path d="M62.9684 465V463.329L69.2452 456.458C69.9818 455.653 70.5884 454.954 71.065 454.359C71.5417 453.759 71.8945 453.196 72.1235 452.669C72.3588 452.137 72.4764 451.58 72.4764 450.998C72.4764 450.33 72.3154 449.751 71.9935 449.262C71.6778 448.773 71.2445 448.395 70.6936 448.129C70.1427 447.863 69.5237 447.73 68.8366 447.73C68.1062 447.73 67.4686 447.881 66.9239 448.185C66.3853 448.482 65.9675 448.9 65.6704 449.438C65.3795 449.977 65.234 450.608 65.234 451.332H63.0427C63.0427 450.218 63.2996 449.24 63.8134 448.398C64.3272 447.556 65.0266 446.9 65.9118 446.43C66.8032 445.959 67.8029 445.724 68.9109 445.724C70.0251 445.724 71.0124 445.959 71.8728 446.43C72.7332 446.9 73.408 447.535 73.897 448.333C74.386 449.132 74.6305 450.02 74.6305 450.998C74.6305 451.698 74.5036 452.382 74.2498 453.05C74.0022 453.712 73.5689 454.452 72.9499 455.269C72.3371 456.08 71.486 457.071 70.3965 458.24L66.1254 462.809V462.957H74.9648V465H62.9684ZM85.0019 465.26C83.603 465.26 82.4114 464.879 81.4272 464.118C80.443 463.35 79.6909 462.239 79.1709 460.785C78.6509 459.324 78.391 457.56 78.391 455.492C78.391 453.437 78.6509 451.682 79.1709 450.227C79.6971 448.767 80.4522 447.652 81.4365 446.885C82.4269 446.111 83.6154 445.724 85.0019 445.724C86.3885 445.724 87.5739 446.111 88.5581 446.885C89.5485 447.652 90.3037 448.767 90.8237 450.227C91.3498 451.682 91.6129 453.437 91.6129 455.492C91.6129 457.56 91.3529 459.324 90.833 460.785C90.313 462.239 89.5609 463.35 88.5767 464.118C87.5925 464.879 86.4009 465.26 85.0019 465.26ZM85.0019 463.217C86.3885 463.217 87.4656 462.549 88.2331 461.212C89.0007 459.875 89.3845 457.968 89.3845 455.492C89.3845 453.846 89.2081 452.443 88.8552 451.286C88.5086 450.128 88.0072 449.246 87.3511 448.64C86.7011 448.033 85.9181 447.73 85.0019 447.73C83.6277 447.73 82.5538 448.408 81.78 449.763C81.0063 451.113 80.6194 453.022 80.6194 455.492C80.6194 457.139 80.7927 458.538 81.1393 459.689C81.486 460.84 81.9843 461.716 82.6342 462.317C83.2904 462.917 84.0796 463.217 85.0019 463.217ZM101.827 445.984V465H99.5238V448.398H99.4124L94.7698 451.481V449.141L99.5238 445.984H101.827ZM113.386 465.26C112.111 465.26 110.985 465.034 110.007 464.582C109.035 464.124 108.277 463.496 107.732 462.697C107.187 461.893 106.918 460.976 106.924 459.949C106.918 459.144 107.076 458.401 107.398 457.72C107.719 457.033 108.159 456.461 108.716 456.003C109.279 455.539 109.908 455.244 110.601 455.121V455.009C109.691 454.774 108.967 454.263 108.428 453.477C107.89 452.685 107.623 451.784 107.63 450.775C107.623 449.81 107.868 448.946 108.363 448.185C108.858 447.423 109.539 446.823 110.406 446.383C111.279 445.944 112.272 445.724 113.386 445.724C114.488 445.724 115.472 445.944 116.339 446.383C117.206 446.823 117.887 447.423 118.382 448.185C118.883 448.946 119.137 449.81 119.143 450.775C119.137 451.784 118.862 452.685 118.317 453.477C117.778 454.263 117.063 454.774 116.172 455.009V455.121C116.859 455.244 117.478 455.539 118.029 456.003C118.58 456.461 119.019 457.033 119.347 457.72C119.676 458.401 119.843 459.144 119.849 459.949C119.843 460.976 119.564 461.893 119.013 462.697C118.468 463.496 117.71 464.124 116.738 464.582C115.773 465.034 114.655 465.26 113.386 465.26ZM113.386 463.217C114.247 463.217 114.99 463.078 115.615 462.799C116.24 462.521 116.723 462.128 117.063 461.62C117.404 461.113 117.577 460.518 117.583 459.837C117.577 459.119 117.391 458.485 117.026 457.934C116.661 457.383 116.163 456.95 115.531 456.634C114.906 456.318 114.191 456.161 113.386 456.161C112.576 456.161 111.851 456.318 111.214 456.634C110.582 456.95 110.084 457.383 109.719 457.934C109.36 458.485 109.183 459.119 109.19 459.837C109.183 460.518 109.347 461.113 109.682 461.62C110.022 462.128 110.508 462.521 111.139 462.799C111.771 463.078 112.52 463.217 113.386 463.217ZM113.386 454.192C114.067 454.192 114.671 454.056 115.197 453.784C115.729 453.511 116.147 453.131 116.451 452.642C116.754 452.153 116.909 451.58 116.915 450.924C116.909 450.28 116.757 449.72 116.46 449.243C116.163 448.76 115.751 448.389 115.225 448.129C114.699 447.863 114.086 447.73 113.386 447.73C112.675 447.73 112.052 447.863 111.52 448.129C110.988 448.389 110.576 448.76 110.285 449.243C109.994 449.72 109.852 450.28 109.858 450.924C109.852 451.58 109.997 452.153 110.294 452.642C110.598 453.131 111.016 453.511 111.548 453.784C112.08 454.056 112.693 454.192 113.386 454.192Z" fill="black"/>
<path d="M181.968 465V463.329L188.245 456.458C188.982 455.653 189.588 454.954 190.065 454.359C190.542 453.759 190.894 453.196 191.124 452.669C191.359 452.137 191.476 451.58 191.476 450.998C191.476 450.33 191.315 449.751 190.994 449.262C190.678 448.773 190.245 448.395 189.694 448.129C189.143 447.863 188.524 447.73 187.837 447.73C187.106 447.73 186.469 447.881 185.924 448.185C185.385 448.482 184.968 448.9 184.67 449.438C184.379 449.977 184.234 450.608 184.234 451.332H182.043C182.043 450.218 182.3 449.24 182.813 448.398C183.327 447.556 184.027 446.9 184.912 446.43C185.803 445.959 186.803 445.724 187.911 445.724C189.025 445.724 190.012 445.959 190.873 446.43C191.733 446.9 192.408 447.535 192.897 448.333C193.386 449.132 193.63 450.02 193.63 450.998C193.63 451.698 193.504 452.382 193.25 453.05C193.002 453.712 192.569 454.452 191.95 455.269C191.337 456.08 190.486 457.071 189.397 458.24L185.125 462.809V462.957H193.965V465H181.968ZM204.002 465.26C202.603 465.26 201.411 464.879 200.427 464.118C199.443 463.35 198.691 462.239 198.171 460.785C197.651 459.324 197.391 457.56 197.391 455.492C197.391 453.437 197.651 451.682 198.171 450.227C198.697 448.767 199.452 447.652 200.436 446.885C201.427 446.111 202.615 445.724 204.002 445.724C205.389 445.724 206.574 446.111 207.558 446.885C208.549 447.652 209.304 448.767 209.824 450.227C210.35 451.682 210.613 453.437 210.613 455.492C210.613 457.56 210.353 459.324 209.833 460.785C209.313 462.239 208.561 463.35 207.577 464.118C206.592 464.879 205.401 465.26 204.002 465.26ZM204.002 463.217C205.389 463.217 206.466 462.549 207.233 461.212C208.001 459.875 208.384 457.968 208.384 455.492C208.384 453.846 208.208 452.443 207.855 451.286C207.509 450.128 207.007 449.246 206.351 448.64C205.701 448.033 204.918 447.73 204.002 447.73C202.628 447.73 201.554 448.408 200.78 449.763C200.006 451.113 199.619 453.022 199.619 455.492C199.619 457.139 199.793 458.538 200.139 459.689C200.486 460.84 200.984 461.716 201.634 462.317C202.29 462.917 203.08 463.217 204.002 463.217ZM220.827 445.984V465H218.524V448.398H218.412L213.77 451.481V449.141L218.524 445.984H220.827ZM232.349 445.724C233.129 445.73 233.909 445.879 234.689 446.17C235.469 446.461 236.181 446.944 236.825 447.618C237.468 448.287 237.985 449.2 238.375 450.357C238.765 451.515 238.96 452.967 238.96 454.712C238.96 456.402 238.799 457.903 238.477 459.215C238.162 460.521 237.704 461.623 237.103 462.521C236.509 463.418 235.785 464.099 234.931 464.564C234.083 465.028 233.123 465.26 232.052 465.26C230.987 465.26 230.037 465.05 229.202 464.629C228.372 464.201 227.691 463.61 227.159 462.855C226.633 462.094 226.295 461.212 226.147 460.209H228.412C228.617 461.082 229.022 461.803 229.629 462.372C230.242 462.936 231.049 463.217 232.052 463.217C233.519 463.217 234.677 462.577 235.525 461.295C236.379 460.014 236.806 458.203 236.806 455.863H236.658C236.311 456.383 235.899 456.832 235.423 457.21C234.946 457.587 234.417 457.878 233.835 458.083C233.253 458.287 232.634 458.389 231.978 458.389C230.888 458.389 229.889 458.12 228.979 457.581C228.075 457.036 227.351 456.291 226.806 455.344C226.268 454.39 225.998 453.301 225.998 452.075C225.998 450.911 226.258 449.847 226.778 448.881C227.304 447.909 228.041 447.136 228.988 446.56C229.941 445.984 231.062 445.706 232.349 445.724ZM232.349 447.767C231.569 447.767 230.867 447.962 230.242 448.352C229.623 448.736 229.13 449.256 228.765 449.912C228.406 450.562 228.227 451.283 228.227 452.075C228.227 452.867 228.4 453.589 228.747 454.239C229.1 454.882 229.579 455.396 230.186 455.78C230.799 456.158 231.495 456.346 232.275 456.346C232.863 456.346 233.411 456.232 233.918 456.003C234.426 455.768 234.869 455.449 235.246 455.046C235.63 454.638 235.93 454.177 236.147 453.663C236.364 453.143 236.472 452.601 236.472 452.038C236.472 451.295 236.292 450.599 235.933 449.949C235.58 449.299 235.091 448.773 234.466 448.37C233.847 447.968 233.142 447.767 232.349 447.767Z" fill="black"/>
<path d="M300.968 465V463.329L307.245 456.458C307.982 455.653 308.588 454.954 309.065 454.359C309.542 453.759 309.894 453.196 310.124 452.669C310.359 452.137 310.476 451.58 310.476 450.998C310.476 450.33 310.315 449.751 309.994 449.262C309.678 448.773 309.245 448.395 308.694 448.129C308.143 447.863 307.524 447.73 306.837 447.73C306.106 447.73 305.469 447.881 304.924 448.185C304.385 448.482 303.968 448.9 303.67 449.438C303.379 449.977 303.234 450.608 303.234 451.332H301.043C301.043 450.218 301.3 449.24 301.813 448.398C302.327 447.556 303.027 446.9 303.912 446.43C304.803 445.959 305.803 445.724 306.911 445.724C308.025 445.724 309.012 445.959 309.873 446.43C310.733 446.9 311.408 447.535 311.897 448.333C312.386 449.132 312.63 450.02 312.63 450.998C312.63 451.698 312.504 452.382 312.25 453.05C312.002 453.712 311.569 454.452 310.95 455.269C310.337 456.08 309.486 457.071 308.397 458.24L304.125 462.809V462.957H312.965V465H300.968ZM323.002 465.26C321.603 465.26 320.411 464.879 319.427 464.118C318.443 463.35 317.691 462.239 317.171 460.785C316.651 459.324 316.391 457.56 316.391 455.492C316.391 453.437 316.651 451.682 317.171 450.227C317.697 448.767 318.452 447.652 319.436 446.885C320.427 446.111 321.615 445.724 323.002 445.724C324.389 445.724 325.574 446.111 326.558 446.885C327.549 447.652 328.304 448.767 328.824 450.227C329.35 451.682 329.613 453.437 329.613 455.492C329.613 457.56 329.353 459.324 328.833 460.785C328.313 462.239 327.561 463.35 326.577 464.118C325.592 464.879 324.401 465.26 323.002 465.26ZM323.002 463.217C324.389 463.217 325.466 462.549 326.233 461.212C327.001 459.875 327.384 457.968 327.384 455.492C327.384 453.846 327.208 452.443 326.855 451.286C326.509 450.128 326.007 449.246 325.351 448.64C324.701 448.033 323.918 447.73 323.002 447.73C321.628 447.73 320.554 448.408 319.78 449.763C319.006 451.113 318.619 453.022 318.619 455.492C318.619 457.139 318.793 458.538 319.139 459.689C319.486 460.84 319.984 461.716 320.634 462.317C321.29 462.917 322.08 463.217 323.002 463.217ZM333.141 465V463.329L339.418 456.458C340.155 455.653 340.761 454.954 341.238 454.359C341.714 453.759 342.067 453.196 342.296 452.669C342.532 452.137 342.649 451.58 342.649 450.998C342.649 450.33 342.488 449.751 342.166 449.262C341.851 448.773 341.417 448.395 340.866 448.129C340.316 447.863 339.697 447.73 339.009 447.73C338.279 447.73 337.641 447.881 337.097 448.185C336.558 448.482 336.14 448.9 335.843 449.438C335.552 449.977 335.407 450.608 335.407 451.332H333.216C333.216 450.218 333.472 449.24 333.986 448.398C334.5 447.556 335.199 446.9 336.085 446.43C336.976 445.959 337.976 445.724 339.084 445.724C340.198 445.724 341.185 445.959 342.046 446.43C342.906 446.9 343.581 447.535 344.07 448.333C344.559 449.132 344.803 450.02 344.803 450.998C344.803 451.698 344.676 452.382 344.423 453.05C344.175 453.712 343.742 454.452 343.123 455.269C342.51 456.08 341.659 457.071 340.569 458.24L336.298 462.809V462.957H345.138V465H333.141ZM355.175 465.26C353.776 465.26 352.584 464.879 351.6 464.118C350.616 463.35 349.864 462.239 349.344 460.785C348.824 459.324 348.564 457.56 348.564 455.492C348.564 453.437 348.824 451.682 349.344 450.227C349.87 448.767 350.625 447.652 351.609 446.885C352.6 446.111 353.788 445.724 355.175 445.724C356.561 445.724 357.747 446.111 358.731 446.885C359.721 447.652 360.477 448.767 360.996 450.227C361.523 451.682 361.786 453.437 361.786 455.492C361.786 457.56 361.526 459.324 361.006 460.785C360.486 462.239 359.734 463.35 358.75 464.118C357.765 464.879 356.574 465.26 355.175 465.26ZM355.175 463.217C356.561 463.217 357.638 462.549 358.406 461.212C359.174 459.875 359.557 457.968 359.557 455.492C359.557 453.846 359.381 452.443 359.028 451.286C358.681 450.128 358.18 449.246 357.524 448.64C356.874 448.033 356.091 447.73 355.175 447.73C353.801 447.73 352.727 448.408 351.953 449.763C351.179 451.113 350.792 453.022 350.792 455.492C350.792 457.139 350.966 458.538 351.312 459.689C351.659 460.84 352.157 461.716 352.807 462.317C353.463 462.917 354.252 463.217 355.175 463.217Z" fill="black"/>
<path d="M542.968 465V463.329L549.245 456.458C549.982 455.653 550.588 454.954 551.065 454.359C551.542 453.759 551.894 453.196 552.124 452.669C552.359 452.137 552.476 451.58 552.476 450.998C552.476 450.33 552.315 449.751 551.994 449.262C551.678 448.773 551.245 448.395 550.694 448.129C550.143 447.863 549.524 447.73 548.837 447.73C548.106 447.73 547.469 447.881 546.924 448.185C546.385 448.482 545.968 448.9 545.67 449.438C545.379 449.977 545.234 450.608 545.234 451.332H543.043C543.043 450.218 543.3 449.24 543.813 448.398C544.327 447.556 545.027 446.9 545.912 446.43C546.803 445.959 547.803 445.724 548.911 445.724C550.025 445.724 551.012 445.959 551.873 446.43C552.733 446.9 553.408 447.535 553.897 448.333C554.386 449.132 554.63 450.02 554.63 450.998C554.63 451.698 554.504 452.382 554.25 453.05C554.002 453.712 553.569 454.452 552.95 455.269C552.337 456.08 551.486 457.071 550.397 458.24L546.125 462.809V462.957H554.965V465H542.968ZM565.002 465.26C563.603 465.26 562.411 464.879 561.427 464.118C560.443 463.35 559.691 462.239 559.171 460.785C558.651 459.324 558.391 457.56 558.391 455.492C558.391 453.437 558.651 451.682 559.171 450.227C559.697 448.767 560.452 447.652 561.436 446.885C562.427 446.111 563.615 445.724 565.002 445.724C566.389 445.724 567.574 446.111 568.558 446.885C569.549 447.652 570.304 448.767 570.824 450.227C571.35 451.682 571.613 453.437 571.613 455.492C571.613 457.56 571.353 459.324 570.833 460.785C570.313 462.239 569.561 463.35 568.577 464.118C567.592 464.879 566.401 465.26 565.002 465.26ZM565.002 463.217C566.389 463.217 567.466 462.549 568.233 461.212C569.001 459.875 569.384 457.968 569.384 455.492C569.384 453.846 569.208 452.443 568.855 451.286C568.509 450.128 568.007 449.246 567.351 448.64C566.701 448.033 565.918 447.73 565.002 447.73C563.628 447.73 562.554 448.408 561.78 449.763C561.006 451.113 560.619 453.022 560.619 455.492C560.619 457.139 560.793 458.538 561.139 459.689C561.486 460.84 561.984 461.716 562.634 462.317C563.29 462.917 564.08 463.217 565.002 463.217ZM575.141 465V463.329L581.418 456.458C582.155 455.653 582.761 454.954 583.238 454.359C583.714 453.759 584.067 453.196 584.296 452.669C584.532 452.137 584.649 451.58 584.649 450.998C584.649 450.33 584.488 449.751 584.166 449.262C583.851 448.773 583.417 448.395 582.866 448.129C582.316 447.863 581.697 447.73 581.009 447.73C580.279 447.73 579.641 447.881 579.097 448.185C578.558 448.482 578.14 448.9 577.843 449.438C577.552 449.977 577.407 450.608 577.407 451.332H575.216C575.216 450.218 575.472 449.24 575.986 448.398C576.5 447.556 577.199 446.9 578.085 446.43C578.976 445.959 579.976 445.724 581.084 445.724C582.198 445.724 583.185 445.959 584.046 446.43C584.906 446.9 585.581 447.535 586.07 448.333C586.559 449.132 586.803 450.02 586.803 450.998C586.803 451.698 586.676 452.382 586.423 453.05C586.175 453.712 585.742 454.452 585.123 455.269C584.51 456.08 583.659 457.071 582.569 458.24L578.298 462.809V462.957H587.138V465H575.141ZM590.972 465V463.329L597.249 456.458C597.986 455.653 598.592 454.954 599.069 454.359C599.546 453.759 599.898 453.196 600.127 452.669C600.363 452.137 600.48 451.58 600.48 450.998C600.48 450.33 600.319 449.751 599.997 449.262C599.682 448.773 599.248 448.395 598.697 448.129C598.147 447.863 597.528 447.73 596.84 447.73C596.11 447.73 595.472 447.881 594.928 448.185C594.389 448.482 593.971 448.9 593.674 449.438C593.383 449.977 593.238 450.608 593.238 451.332H591.047C591.047 450.218 591.303 449.24 591.817 448.398C592.331 447.556 593.031 446.9 593.916 446.43C594.807 445.959 595.807 445.724 596.915 445.724C598.029 445.724 599.016 445.959 599.877 446.43C600.737 446.9 601.412 447.535 601.901 448.333C602.39 449.132 602.634 450.02 602.634 450.998C602.634 451.698 602.507 452.382 602.254 453.05C602.006 453.712 601.573 454.452 600.954 455.269C600.341 456.08 599.49 457.071 598.4 458.24L594.129 462.809V462.957H602.969V465H590.972Z" fill="black"/>
<path d="M665.015 464.532V462.86L671.292 455.989C672.029 455.185 672.635 454.485 673.112 453.891C673.589 453.291 673.941 452.727 674.17 452.201C674.406 451.669 674.523 451.112 674.523 450.53C674.523 449.861 674.362 449.283 674.04 448.794C673.725 448.305 673.291 447.927 672.741 447.661C672.19 447.395 671.571 447.261 670.883 447.261C670.153 447.261 669.515 447.413 668.971 447.716C668.432 448.014 668.014 448.431 667.717 448.97C667.426 449.508 667.281 450.14 667.281 450.864H665.09C665.09 449.75 665.346 448.772 665.86 447.93C666.374 447.088 667.074 446.432 667.959 445.962C668.85 445.491 669.85 445.256 670.958 445.256C672.072 445.256 673.059 445.491 673.92 445.962C674.78 446.432 675.455 447.066 675.944 447.865C676.433 448.664 676.677 449.552 676.677 450.53C676.677 451.229 676.55 451.913 676.297 452.582C676.049 453.244 675.616 453.984 674.997 454.801C674.384 455.612 673.533 456.602 672.443 457.772L668.172 462.34V462.489H677.012V464.532H665.015ZM687.049 464.792C685.65 464.792 684.458 464.411 683.474 463.65C682.49 462.882 681.738 461.771 681.218 460.316C680.698 458.855 680.438 457.091 680.438 455.024C680.438 452.969 680.698 451.214 681.218 449.759C681.744 448.298 682.499 447.184 683.483 446.417C684.474 445.643 685.662 445.256 687.049 445.256C688.435 445.256 689.621 445.643 690.605 446.417C691.595 447.184 692.351 448.298 692.871 449.759C693.397 451.214 693.66 452.969 693.66 455.024C693.66 457.091 693.4 458.855 692.88 460.316C692.36 461.771 691.608 462.882 690.624 463.65C689.639 464.411 688.448 464.792 687.049 464.792ZM687.049 462.749C688.435 462.749 689.512 462.08 690.28 460.743C691.048 459.406 691.431 457.5 691.431 455.024C691.431 453.377 691.255 451.975 690.902 450.818C690.555 449.66 690.054 448.778 689.398 448.171C688.748 447.565 687.965 447.261 687.049 447.261C685.675 447.261 684.601 447.939 683.827 449.295C683.053 450.644 682.666 452.554 682.666 455.024C682.666 456.67 682.84 458.069 683.186 459.221C683.533 460.372 684.031 461.248 684.681 461.848C685.337 462.449 686.126 462.749 687.049 462.749ZM697.188 464.532V462.86L703.465 455.989C704.201 455.185 704.808 454.485 705.285 453.891C705.761 453.291 706.114 452.727 706.343 452.201C706.578 451.669 706.696 451.112 706.696 450.53C706.696 449.861 706.535 449.283 706.213 448.794C705.898 448.305 705.464 447.927 704.913 447.661C704.362 447.395 703.743 447.261 703.056 447.261C702.326 447.261 701.688 447.413 701.144 447.716C700.605 448.014 700.187 448.431 699.89 448.97C699.599 449.508 699.454 450.14 699.454 450.864H697.262C697.262 449.75 697.519 448.772 698.033 447.93C698.547 447.088 699.246 446.432 700.131 445.962C701.023 445.491 702.023 445.256 703.131 445.256C704.245 445.256 705.232 445.491 706.093 445.962C706.953 446.432 707.628 447.066 708.117 447.865C708.606 448.664 708.85 449.552 708.85 450.53C708.85 451.229 708.723 451.913 708.469 452.582C708.222 453.244 707.789 453.984 707.17 454.801C706.557 455.612 705.706 456.602 704.616 457.772L700.345 462.34V462.489H709.184V464.532H697.188ZM719.444 464.792C718.219 464.792 717.126 464.581 716.167 464.16C715.214 463.739 714.455 463.154 713.892 462.405C713.335 461.65 713.032 460.774 712.982 459.778H715.322C715.371 460.391 715.582 460.92 715.953 461.366C716.325 461.805 716.811 462.145 717.411 462.387C718.011 462.628 718.677 462.749 719.407 462.749C720.224 462.749 720.949 462.607 721.58 462.322C722.211 462.037 722.707 461.641 723.066 461.133C723.425 460.626 723.604 460.038 723.604 459.369C723.604 458.67 723.431 458.054 723.084 457.522C722.738 456.983 722.23 456.562 721.561 456.259C720.893 455.955 720.076 455.804 719.11 455.804H717.587V453.761H719.11C719.865 453.761 720.528 453.625 721.097 453.352C721.673 453.08 722.122 452.696 722.444 452.201C722.772 451.706 722.936 451.124 722.936 450.456C722.936 449.812 722.793 449.252 722.509 448.775C722.224 448.298 721.821 447.927 721.301 447.661C720.788 447.395 720.181 447.261 719.482 447.261C718.825 447.261 718.206 447.382 717.625 447.624C717.049 447.859 716.578 448.202 716.213 448.654C715.848 449.1 715.65 449.638 715.619 450.27H713.391C713.428 449.273 713.728 448.4 714.291 447.651C714.855 446.896 715.591 446.308 716.501 445.887C717.417 445.466 718.423 445.256 719.519 445.256C720.695 445.256 721.704 445.494 722.546 445.971C723.388 446.441 724.034 447.063 724.486 447.837C724.938 448.611 725.164 449.447 725.164 450.344C725.164 451.415 724.882 452.328 724.319 453.083C723.762 453.838 723.004 454.361 722.044 454.652V454.801C723.245 454.999 724.183 455.51 724.858 456.333C725.532 457.15 725.87 458.162 725.87 459.369C725.87 460.403 725.588 461.331 725.025 462.155C724.468 462.972 723.706 463.616 722.741 464.086C721.775 464.556 720.676 464.792 719.444 464.792Z" fill="black"/>
<path d="M1.56963 150.632V148.738L9.9262 135.516H11.3004V138.45H10.3719L4.05803 148.441V148.589H15.3115V150.632H1.56963ZM10.5204 154.532V150.056V149.174V135.516H12.7117V154.532H10.5204ZM24.7336 154.792C23.6441 154.792 22.663 154.575 21.7902 154.142C20.9174 153.708 20.2179 153.114 19.6918 152.359C19.1656 151.604 18.8778 150.743 18.8283 149.778H21.0567C21.1434 150.638 21.5333 151.35 22.2266 151.913C22.9261 152.47 23.7617 152.749 24.7336 152.749C25.5135 152.749 26.2068 152.566 26.8134 152.201C27.4263 151.836 27.906 151.335 28.2526 150.697C28.6055 150.053 28.7819 149.326 28.7819 148.515C28.7819 147.686 28.5993 146.946 28.2341 146.296C27.875 145.64 27.3798 145.123 26.7484 144.745C26.1171 144.368 25.3959 144.176 24.585 144.17C24.0032 144.163 23.4058 144.253 22.793 144.439C22.1802 144.618 21.6757 144.85 21.2795 145.135L19.1254 144.875L20.2767 135.516H30.1561V137.559H22.208L21.5395 143.167H21.6509C22.0409 142.857 22.5299 142.6 23.118 142.396C23.706 142.192 24.3189 142.09 24.9564 142.09C26.1202 142.09 27.157 142.368 28.0669 142.925C28.9831 143.476 29.7011 144.231 30.2211 145.191C30.7472 146.15 31.0103 147.246 31.0103 148.478C31.0103 149.691 30.7379 150.774 30.1932 151.728C29.6547 152.675 28.9119 153.424 27.9648 153.975C27.0177 154.519 25.9406 154.792 24.7336 154.792ZM40.7527 135.256C41.5326 135.262 42.3126 135.411 43.0925 135.702C43.8725 135.993 44.5843 136.475 45.2281 137.15C45.8718 137.819 46.3887 138.732 46.7787 139.889C47.1687 141.047 47.3637 142.498 47.3637 144.244C47.3637 145.934 47.2027 147.435 46.8808 148.747C46.5651 150.053 46.1071 151.155 45.5066 152.053C44.9124 152.95 44.1882 153.631 43.3339 154.095C42.4859 154.56 41.5264 154.792 40.4556 154.792C39.3909 154.792 38.4407 154.581 37.605 154.16C36.7756 153.733 36.0947 153.142 35.5623 152.387C35.0362 151.626 34.6988 150.743 34.5502 149.741H36.8158C37.0201 150.613 37.4255 151.335 38.0321 151.904C38.645 152.467 39.4528 152.749 40.4556 152.749C41.9226 152.749 43.0801 152.108 43.9282 150.827C44.7824 149.546 45.2095 147.735 45.2095 145.395H45.061C44.7143 145.915 44.3027 146.364 43.826 146.742C43.3494 147.119 42.8202 147.41 42.2383 147.614C41.6564 147.819 41.0374 147.921 40.3813 147.921C39.2918 147.921 38.2921 147.651 37.3822 147.113C36.4784 146.568 35.7542 145.822 35.2095 144.875C34.6709 143.922 34.4017 142.833 34.4017 141.607C34.4017 140.443 34.6617 139.378 35.1816 138.413C35.7078 137.441 36.4444 136.667 37.3915 136.092C38.3447 135.516 39.4651 135.237 40.7527 135.256ZM40.7527 137.299C39.9727 137.299 39.2702 137.494 38.645 137.884C38.026 138.267 37.5338 138.787 37.1686 139.443C36.8096 140.093 36.6301 140.815 36.6301 141.607C36.6301 142.399 36.8034 143.12 37.1501 143.77C37.5029 144.414 37.9826 144.928 38.5892 145.312C39.2021 145.689 39.8984 145.878 40.6784 145.878C41.2664 145.878 41.8143 145.764 42.3219 145.534C42.8294 145.299 43.272 144.98 43.6496 144.578C44.0334 144.17 44.3336 143.708 44.5503 143.195C44.7669 142.675 44.8752 142.133 44.8752 141.57C44.8752 140.827 44.6957 140.131 44.3367 139.481C43.9839 138.831 43.4949 138.305 42.8697 137.902C42.2507 137.5 41.545 137.299 40.7527 137.299Z" fill="black"/>
<path d="M7.95776 26.7917C6.86832 26.7917 5.88719 26.5751 5.01439 26.1418C4.1416 25.7085 3.44212 25.1142 2.91597 24.359C2.38981 23.6038 2.10197 22.7434 2.05245 21.7778H4.28087C4.36753 22.6382 4.75751 23.3501 5.45079 23.9133C6.15027 24.4705 6.98593 24.749 7.95776 24.749C8.73771 24.749 9.431 24.5664 10.0376 24.2012C10.6504 23.836 11.1302 23.3346 11.4768 22.697C11.8296 22.0532 12.0061 21.3259 12.0061 20.515C12.0061 19.6855 11.8235 18.9458 11.4582 18.2959C11.0992 17.6397 10.604 17.1229 9.97263 16.7453C9.34124 16.3677 8.6201 16.1758 7.8092 16.1696C7.22734 16.1634 6.63 16.2532 6.01718 16.4389C5.40437 16.6184 4.89988 16.8505 4.50371 17.1352L2.34958 16.8753L3.50093 7.51589H13.3803V9.55861H5.43222L4.7637 15.1668H4.87512C5.26509 14.8573 5.75411 14.6004 6.34216 14.3961C6.93022 14.1919 7.54303 14.0897 8.18061 14.0897C9.34434 14.0897 10.3812 14.3683 11.2911 14.9254C12.2072 15.4763 12.9253 16.2315 13.4452 17.1909C13.9714 18.1504 14.2345 19.246 14.2345 20.4779C14.2345 21.6911 13.9621 22.7744 13.4174 23.7276C12.8789 24.6747 12.1361 25.4237 11.189 25.9746C10.2419 26.5194 9.16483 26.7917 7.95776 26.7917ZM23.9769 7.25591C24.7568 7.2621 25.5367 7.41066 26.3167 7.70159C27.0966 7.99252 27.8085 8.47535 28.4523 9.15007C29.096 9.81859 29.6129 10.7316 30.0029 11.8892C30.3928 13.0467 30.5878 14.4983 30.5878 16.2439C30.5878 17.9338 30.4269 19.4348 30.105 20.7471C29.7893 22.0532 29.3312 23.1551 28.7308 24.0526C28.1366 24.9502 27.4123 25.6311 26.5581 26.0953C25.7101 26.5596 24.7506 26.7917 23.6797 26.7917C22.615 26.7917 21.6649 26.5813 20.8292 26.1603C19.9997 25.7332 19.3188 25.1421 18.7865 24.3869C18.2603 23.6255 17.923 22.7434 17.7744 21.7406H20.04C20.2442 22.6134 20.6497 23.3346 21.2563 23.9041C21.8691 24.4674 22.6769 24.749 23.6797 24.749C25.1468 24.749 26.3043 24.1083 27.1523 22.827C28.0066 21.5456 28.4337 19.7351 28.4337 17.3952H28.2851C27.9385 17.9152 27.5268 18.364 27.0502 18.7416C26.5736 19.1191 26.0443 19.4101 25.4625 19.6144C24.8806 19.8186 24.2616 19.9208 23.6054 19.9208C22.516 19.9208 21.5163 19.6515 20.6064 19.113C19.7026 18.5682 18.9784 17.8223 18.4337 16.8753C17.8951 15.922 17.6259 14.8325 17.6259 13.6069C17.6259 12.4432 17.8858 11.3785 18.4058 10.4128C18.932 9.441 19.6686 8.66724 20.6157 8.09157C21.5689 7.51589 22.6893 7.23734 23.9769 7.25591ZM23.9769 9.29863C23.1969 9.29863 22.4943 9.49361 21.8691 9.88359C21.2501 10.2674 20.758 10.7873 20.3928 11.4435C20.0338 12.0934 19.8543 12.8146 19.8543 13.6069C19.8543 14.3992 20.0276 15.1204 20.3742 15.7703C20.7271 16.4141 21.2068 16.9279 21.8134 17.3117C22.4262 17.6892 23.1226 17.878 23.9026 17.878C24.4906 17.878 25.0384 17.7635 25.546 17.5345C26.0536 17.2993 26.4962 16.9805 26.8738 16.5781C27.2576 16.1696 27.5578 15.7084 27.7745 15.1947C27.9911 14.6747 28.0994 14.1331 28.0994 13.5698C28.0994 12.827 27.9199 12.1306 27.5609 11.4806C27.2081 10.8307 26.719 10.3045 26.0939 9.90216C25.4748 9.4998 24.7692 9.29863 23.9769 9.29863ZM34.3228 26.5317L42.8279 9.70717V9.55861H33.0228V7.51589H45.2049V9.67003L36.7369 26.5317H34.3228Z" fill="black"/>
<line x1="78" y1="283.5" x2="113" y2="283.5" stroke="#C4C4C4"/>
<line x1="386" y1="283.5" x2="421" y2="283.5" stroke="#C4C4C4"/>
<line x1="122" y1="283.5" x2="157" y2="283.5" stroke="#C4C4C4"/>
<line x1="430" y1="283.5" x2="465" y2="283.5" stroke="#C4C4C4"/>
<line x1="166" y1="283.5" x2="201" y2="283.5" stroke="#C4C4C4"/>
<line x1="474" y1="283.5" x2="509" y2="283.5" stroke="#C4C4C4"/>
<line x1="210" y1="283.5" x2="245" y2="283.5" stroke="#C4C4C4"/>
<line x1="518" y1="283.5" x2="553" y2="283.5" stroke="#C4C4C4"/>
<line x1="254" y1="283.5" x2="289" y2="283.5" stroke="#C4C4C4"/>
<line x1="562" y1="283.5" x2="597" y2="283.5" stroke="#C4C4C4"/>
<line x1="298" y1="283.5" x2="333" y2="283.5" stroke="#C4C4C4"/>
<line x1="606" y1="283.5" x2="641" y2="283.5" stroke="#C4C4C4"/>
<line x1="342" y1="283.5" x2="377" y2="283.5" stroke="#C4C4C4"/>
<line x1="650" y1="283.5" x2="685" y2="283.5" stroke="#C4C4C4"/>
<line x1="694" y1="283.5" x2="729" y2="283.5" stroke="#C4C4C4"/>
<line x1="78.0469" y1="147.032" x2="113.047" y2="147.032" stroke="#C4C4C4"/>
<line x1="386.047" y1="147.032" x2="421.047" y2="147.032" stroke="#C4C4C4"/>
<line x1="122.047" y1="147.032" x2="157.047" y2="147.032" stroke="#C4C4C4"/>
<line x1="430.047" y1="147.032" x2="465.047" y2="147.032" stroke="#C4C4C4"/>
<line x1="166.047" y1="147.032" x2="201.047" y2="147.032" stroke="#C4C4C4"/>
<line x1="474.047" y1="147.032" x2="509.047" y2="147.032" stroke="#C4C4C4"/>
<line x1="210.047" y1="147.032" x2="245.047" y2="147.032" stroke="#C4C4C4"/>
<line x1="518.047" y1="147.032" x2="553.047" y2="147.032" stroke="#C4C4C4"/>
<line x1="254.047" y1="147.032" x2="289.047" y2="147.032" stroke="#C4C4C4"/>
<line x1="562.047" y1="147.032" x2="597.047" y2="147.032" stroke="#C4C4C4"/>
<line x1="298.047" y1="147.032" x2="333.047" y2="147.032" stroke="#C4C4C4"/>
<line x1="606.047" y1="147.032" x2="641.047" y2="147.032" stroke="#C4C4C4"/>
<line x1="342.047" y1="147.032" x2="377.047" y2="147.032" stroke="#C4C4C4"/>
<line x1="650.047" y1="147.032" x2="685.047" y2="147.032" stroke="#C4C4C4"/>
<line x1="694.047" y1="147.032" x2="729.047" y2="147.032" stroke="#C4C4C4"/>
<line x1="78.0469" y1="16.0317" x2="113.047" y2="16.0317" stroke="#C4C4C4"/>
<line x1="386.047" y1="16.0317" x2="421.047" y2="16.0317" stroke="#C4C4C4"/>
<line x1="122.047" y1="16.0317" x2="157.047" y2="16.0317" stroke="#C4C4C4"/>
<line x1="430.047" y1="16.0317" x2="465.047" y2="16.0317" stroke="#C4C4C4"/>
<line x1="166.047" y1="16.0317" x2="201.047" y2="16.0317" stroke="#C4C4C4"/>
<line x1="474.047" y1="16.0317" x2="509.047" y2="16.0317" stroke="#C4C4C4"/>
<line x1="210.047" y1="16.0317" x2="245.047" y2="16.0317" stroke="#C4C4C4"/>
<line x1="518.047" y1="16.0317" x2="553.047" y2="16.0317" stroke="#C4C4C4"/>
<line x1="254.047" y1="16.0317" x2="289.047" y2="16.0317" stroke="#C4C4C4"/>
<line x1="562.047" y1="16.0317" x2="597.047" y2="16.0317" stroke="#C4C4C4"/>
<line x1="298.047" y1="16.0317" x2="333.047" y2="16.0317" stroke="#C4C4C4"/>
<line x1="606.047" y1="16.0317" x2="641.047" y2="16.0317" stroke="#C4C4C4"/>
<line x1="342.047" y1="16.0317" x2="377.047" y2="16.0317" stroke="#C4C4C4"/>
<line x1="650.047" y1="16.0317" x2="685.047" y2="16.0317" stroke="#C4C4C4"/>
<line x1="694.047" y1="16.0317" x2="729.047" y2="16.0317" stroke="#C4C4C4"/>
<circle cx="69.8222" cy="410.258" r="8" transform="rotate(-7.26272 69.8222 410.258)" fill="#006699"/>
<path d="M224.883 364.936C225.442 369.319 222.341 373.324 217.959 373.883C213.576 374.442 209.57 371.341 209.011 366.959C208.453 362.576 211.553 358.57 215.936 358.011C220.319 357.453 224.324 360.553 224.883 364.936Z" fill="#006699"/>
<circle cx="700.947" cy="15.9472" r="8" transform="rotate(-7.26272 700.947 15.9472)" fill="#006699"/>
<circle cx="331.947" cy="320.947" r="8" transform="rotate(-7.26272 331.947 320.947)" fill="#006699"/>
<circle cx="464.947" cy="283.947" r="8" transform="rotate(-7.26272 464.947 283.947)" fill="#006699"/>
<circle cx="580.947" cy="145.947" r="8" transform="rotate(-7.26272 580.947 145.947)" fill="#006699"/>
<path d="M79.7256 406.699L206 369" stroke="#006699" stroke-width="7"/>
<path d="M228.123 361.724L320.878 326.276" stroke="#006699" stroke-width="7"/>
<path d="M343 316.927L454 287.5" stroke="#006699" stroke-width="7"/>
<path d="M472.5 274L573 154" stroke="#006699" stroke-width="7"/>
<path d="M589 137L692.379 25.0001" stroke="#006699" stroke-width="7"/>
</svg>
