<svg width="30" height="30" viewBox="0 0 30 30" fill="none" xmlns="http://www.w3.org/2000/svg">
<g clip-path="url(#clip0_7_585)">
<path d="M21.01 16.2502H5.94C5.42 16.2502 5 15.8302 5 15.3102V9.68023C5 9.16023 5.42 8.74023 5.94 8.74023H24.06C24.58 8.74023 25 9.16023 25 9.68023V12.4902C25 13.0102 24.58 13.4302 24.06 13.4302C23.54 13.4302 23.12 13.0102 23.12 12.4902V10.6102H6.88V14.3602H21.02C21.54 14.3602 21.96 14.7802 21.96 15.3002C21.96 15.8202 21.54 16.2402 21.02 16.2402L21.01 16.2502Z" fill="white"/>
<path d="M17.2801 19.9899H6.00006C5.48006 19.9899 5.06006 19.5699 5.06006 19.0499C5.06006 18.5299 5.48006 18.1099 6.00006 18.1099H17.2801C17.8001 18.1099 18.2201 18.5299 18.2201 19.0499C18.2201 19.5699 17.8001 19.9899 17.2801 19.9899Z" fill="white"/>
<path d="M13.5501 23.7399H6.00006C5.48006 23.7399 5.06006 23.3199 5.06006 22.7999C5.06006 22.2799 5.48006 21.8599 6.00006 21.8599H13.5501C14.0701 21.8599 14.4901 22.2799 14.4901 22.7999C14.4901 23.3199 14.0701 23.7399 13.5501 23.7399Z" fill="white"/>
<path d="M15.66 30C15.41 30 15.17 29.9 15 29.73C14.78 29.51 14.69 29.21 14.74 28.9L15.4 25.14C15.43 24.95 15.52 24.78 15.66 24.64L24.94 15.36C25.33 14.96 25.75 14.72 26.18 14.63C26.78 14.51 27.35 14.69 27.81 15.14L29.36 16.69C30.21 17.54 30.21 18.93 29.36 19.78L20.08 29.06C19.94 29.2 19.77 29.29 19.58 29.32L15.82 29.98C15.76 29.98 15.71 29.99 15.66 29.99V30ZM17.2 25.76L16.82 27.91L18.97 27.53L28.04 18.46C28.16 18.34 28.16 18.14 28.04 18.02L26.51 16.49C26.51 16.49 26.4 16.57 26.28 16.7L17.21 25.77L17.2 25.76Z" fill="white"/>
<path d="M12.29 27.5H3.44C1.54 27.5 0 25.96 0 24.06V3.44C0 1.54 1.54 0 3.44 0H26.56C28.46 0 30 1.54 30 3.44V12.55C30 13.07 29.58 13.49 29.06 13.49C28.54 13.49 28.12 13.07 28.12 12.55V3.44C28.12 2.58 27.42 1.88 26.56 1.88H3.44C2.58 1.88 1.88 2.58 1.88 3.44V24.06C1.88 24.92 2.58 25.62 3.44 25.62H12.29C12.81 25.62 13.23 26.04 13.23 26.56C13.23 27.08 12.81 27.5 12.29 27.5Z" fill="white"/>
<path d="M29.06 6.25012H0.94C0.42 6.25012 0 5.83012 0 5.31012C0 4.79012 0.42 4.37012 0.94 4.37012H29.06C29.58 4.37012 30 4.79012 30 5.31012C30 5.83012 29.58 6.25012 29.06 6.25012Z" fill="white"/>
</g>
<defs>
<clipPath id="clip0_7_585">
<rect width="30" height="30" fill="white"/>
</clipPath>
</defs>
</svg>
