<svg width="26" height="23" viewBox="0 0 26 23" fill="none" xmlns="http://www.w3.org/2000/svg">
<g clip-path="url(#clip0_7_605)">
<path d="M25.17 8.85L19.17 12.05V8.85H17.62C18.58 7.91 19.17 6.61 19.17 5.16C19.17 2.31 16.85 0 14.01 0C12.13 0 10.49 1.01 9.59 2.51C8.69 1.01 7.04 0 5.17 0C2.32 0 0 2.32 0 5.16C0 6.6 0.6 7.91 1.55 8.85H0V22.22H19.17V19.02L25.17 22.22V8.85ZM14.01 1.47C16.04 1.47 17.7 3.12 17.7 5.16C17.7 7.2 16.05 8.85 14.01 8.85C11.97 8.85 10.32 7.2 10.32 5.16C10.32 3.12 11.97 1.47 14.01 1.47ZM10.4 8.84H8.77C9.08 8.53 9.36 8.19 9.59 7.81C9.82 8.19 10.09 8.53 10.41 8.84H10.4ZM1.47 5.16C1.47 3.13 3.12 1.47 5.16 1.47C7.2 1.47 8.85 3.12 8.85 5.16C8.85 7.2 7.2 8.85 5.16 8.85C3.12 8.85 1.47 7.2 1.47 5.16ZM17.69 20.75H1.47V10.32H17.7V20.74L17.69 20.75ZM23.69 19.77L19.17 17.36V13.72L23.69 11.31V19.77Z" fill="white"/>
<path d="M2.94995 19.2698H16.22V11.7998H2.94995V19.2698ZM4.41995 13.2698H14.75V17.7898H4.41995V13.2698Z" fill="white"/>
</g>
<defs>
<clipPath id="clip0_7_605">
<rect width="25.17" height="22.22" fill="white"/>
</clipPath>
</defs>
</svg>
