<svg width="35" height="35" viewBox="0 0 35 35" fill="none" xmlns="http://www.w3.org/2000/svg">
<g clip-path="url(#clip0_7_581)">
<path d="M30.57 5.10012C30.57 5.10012 30.48 5.10012 30.44 5.09012C30.4 5.09012 30.35 5.07012 30.31 5.05012C30.27 5.03012 30.23 5.01012 30.19 4.99012C30.15 4.96012 30.12 4.94012 30.09 4.90012C29.96 4.77012 29.89 4.60012 29.89 4.42012C29.89 4.37012 29.89 4.33012 29.9 4.29012C29.9 4.25012 29.92 4.20012 29.94 4.16012C29.96 4.12012 29.98 4.08012 30 4.04012C30.02 4.00012 30.05 3.97012 30.08 3.94012C30.11 3.91012 30.15 3.88012 30.18 3.86012C30.22 3.84012 30.26 3.81012 30.3 3.80012C30.34 3.78012 30.38 3.77012 30.43 3.76012C30.52 3.74012 30.61 3.74012 30.7 3.76012C30.74 3.76012 30.79 3.78012 30.83 3.80012C30.87 3.82012 30.91 3.84012 30.95 3.86012C30.99 3.88012 31.02 3.91012 31.05 3.94012C31.08 3.97012 31.11 4.01012 31.14 4.04012C31.16 4.08012 31.19 4.12012 31.2 4.16012C31.22 4.20012 31.23 4.24012 31.24 4.29012C31.24 4.33012 31.25 4.38012 31.25 4.42012C31.25 4.60012 31.18 4.78012 31.05 4.90012C31.02 4.93012 30.98 4.96012 30.95 4.99012C30.91 5.01012 30.87 5.04012 30.83 5.05012C30.79 5.07012 30.75 5.08012 30.7 5.09012C30.66 5.09012 30.61 5.10012 30.57 5.10012Z" fill="white"/>
<path d="M4.41999 5.10012C4.41999 5.10012 4.32999 5.10012 4.28999 5.09012C4.24999 5.09012 4.19999 5.07012 4.15999 5.05012C4.11999 5.03012 4.07999 5.01012 4.03999 4.99012C3.99999 4.96012 3.96999 4.94012 3.93999 4.90012C3.90999 4.87012 3.87999 4.83012 3.84999 4.80012C3.82999 4.76012 3.79999 4.72012 3.78999 4.68012C3.76999 4.64012 3.75999 4.60012 3.74999 4.55012C3.74999 4.51012 3.73999 4.46012 3.73999 4.42012C3.73999 4.38012 3.73999 4.33012 3.74999 4.29012C3.74999 4.25012 3.76999 4.20012 3.78999 4.16012C3.80999 4.12012 3.82999 4.08012 3.84999 4.04012C3.87999 4.00012 3.89999 3.97012 3.93999 3.94012C3.96999 3.91012 4.00999 3.88012 4.03999 3.86012C4.07999 3.84012 4.11999 3.81012 4.15999 3.80012C4.19999 3.78012 4.23999 3.77012 4.28999 3.76012C4.37999 3.74012 4.46999 3.74012 4.55999 3.76012C4.59999 3.76012 4.64999 3.78012 4.68999 3.80012C4.72999 3.82012 4.76999 3.84012 4.80999 3.86012C4.84999 3.89012 4.87999 3.91012 4.90999 3.94012C4.93999 3.97012 4.96999 4.01012 4.98999 4.04012C5.00999 4.08012 5.03999 4.12012 5.04999 4.16012C5.06999 4.20012 5.07999 4.24012 5.08999 4.29012C5.08999 4.33012 5.09999 4.38012 5.09999 4.42012C5.09999 4.46012 5.09999 4.51012 5.08999 4.55012C5.08999 4.59012 5.06999 4.64012 5.04999 4.68012C5.02999 4.72012 5.00999 4.76012 4.98999 4.80012C4.96999 4.84012 4.93999 4.87012 4.90999 4.90012C4.87999 4.93012 4.83999 4.96012 4.80999 4.99012C4.76999 5.01012 4.72999 5.04012 4.68999 5.05012C4.64999 5.07012 4.60999 5.08012 4.55999 5.09012C4.51999 5.09012 4.46999 5.10012 4.42999 5.10012H4.41999Z" fill="white"/>
<path d="M34.43 27.33L33.8 26.7C33.44 26.34 32.96 26.14 32.44 26.14C32.11 26.14 31.8 26.22 31.52 26.37L28.84 23.69L29.66 22.87C30.41 22.12 30.41 20.9 29.66 20.15L29.04 19.53C28.68 19.17 28.19 18.97 27.68 18.97C27.17 18.97 26.68 19.17 26.32 19.53L25.75 20.1L23.65 17.84L34.76 7.75C34.91 7.62 34.99 7.43 34.98 7.23L34.85 0.81C34.85 0.44 34.55 0.15 34.18 0.14L27.78 0C27.58 0 27.39 0.08 27.26 0.22L17.5 10.97L7.74004 0.22C7.60004 0.08 7.41004 0 7.22004 0L0.800039 0.13C0.430039 0.13 0.140039 0.43 0.130039 0.8L3.9041e-05 7.22C3.9041e-05 7.42 0.080039 7.61 0.220039 7.74L11.3 17.8L9.22004 20.09L8.65004 19.52C8.29004 19.16 7.81004 18.96 7.29004 18.96C6.77004 18.96 6.30004 19.16 5.93004 19.52L5.30004 20.15C4.55004 20.9 4.55004 22.12 5.30004 22.86L6.13004 23.69L3.45004 26.37C3.17004 26.22 2.86004 26.14 2.53004 26.14C2.02004 26.14 1.54004 26.34 1.17004 26.7L0.540039 27.33C-0.209961 28.08 -0.209961 29.3 0.540039 30.04L4.93004 34.43C5.29004 34.79 5.77004 34.99 6.29004 34.99C6.81004 34.99 7.28004 34.79 7.65004 34.43L8.28004 33.8C8.89004 33.19 9.00004 32.26 8.61004 31.53L11.29 28.85L12.12 29.68C12.48 30.04 12.96 30.24 13.48 30.24C14 30.24 14.47 30.04 14.84 29.68L15.47 29.05C16.22 28.3 16.22 27.08 15.47 26.34L14.9 25.77L17.45 23.46L20.06 25.78L19.5 26.34C18.75 27.09 18.75 28.31 19.5 29.06L20.12 29.68C20.48 30.04 20.97 30.24 21.48 30.24C21.99 30.24 22.48 30.04 22.84 29.68L23.66 28.86L26.34 31.54C25.95 32.27 26.06 33.2 26.67 33.81L27.3 34.44C27.66 34.8 28.14 35 28.66 35C29.18 35 29.65 34.8 30.02 34.44L34.41 30.05C35.16 29.3 35.16 28.08 34.41 27.34L34.43 27.33ZM24.79 21.05L23.4 22.44L21.1 20.14L22.64 18.74L24.78 21.05H24.79ZM1.37004 6.93L1.48004 1.48L6.93004 1.37L16.57 11.99L14.85 13.88L6.85004 5.88C6.58004 5.61 6.15004 5.61 5.88004 5.88C5.61004 6.15 5.61004 6.58 5.88004 6.85L13.93 14.9L12.22 16.78L1.37004 6.93ZM28.06 1.37L33.51 1.48L33.62 6.93L13.95 24.8L12.56 23.41L29.11 6.85C29.38 6.58 29.38 6.15 29.11 5.88C28.84 5.61 28.41 5.61 28.14 5.88L11.59 22.44L10.2 21.05L28.06 1.37ZM7.33004 32.84L6.70004 33.47C6.60004 33.57 6.46004 33.63 6.31004 33.63C6.16004 33.63 6.02004 33.57 5.92004 33.47L1.53004 29.08C1.31004 28.86 1.31004 28.51 1.53004 28.3L2.16004 27.67C2.26004 27.57 2.40004 27.51 2.55004 27.51C2.70004 27.51 2.84004 27.57 2.94004 27.67L3.04004 27.77L7.24004 31.97L7.34004 32.07C7.56004 32.29 7.56004 32.64 7.34004 32.85L7.33004 32.84ZM7.72004 30.51L4.49004 27.28L7.11004 24.66L10.34 27.89L7.72004 30.51ZM14.52 28.08L13.89 28.71C13.79 28.81 13.65 28.87 13.5 28.87C13.35 28.87 13.21 28.81 13.11 28.71L6.29004 21.89C6.07004 21.67 6.07004 21.32 6.29004 21.11L6.92004 20.48C7.02004 20.38 7.16004 20.32 7.31004 20.32C7.46004 20.32 7.60004 20.38 7.70004 20.48L14.52 27.3C14.74 27.52 14.74 27.87 14.52 28.08ZM18.49 22.53L20.1 21.06L22.44 23.4L21.04 24.8L18.48 22.52L18.49 22.53ZM21.9 28.71C21.79 28.82 21.65 28.87 21.51 28.87C21.37 28.87 21.22 28.81 21.12 28.71L20.5 28.09C20.28 27.87 20.28 27.52 20.5 27.3L27.31 20.49C27.42 20.38 27.56 20.33 27.7 20.33C27.84 20.33 27.99 20.39 28.09 20.49L28.71 21.11C28.93 21.33 28.93 21.68 28.71 21.9L21.9 28.71ZM27.89 24.65L30.51 27.27L27.28 30.5L24.66 27.88L27.89 24.65ZM33.47 29.07L29.08 33.46C28.98 33.56 28.84 33.62 28.69 33.62C28.54 33.62 28.4 33.56 28.3 33.46L27.67 32.83C27.45 32.61 27.45 32.26 27.67 32.05L27.77 31.95L32.07 27.65C32.17 27.55 32.31 27.49 32.46 27.49C32.61 27.49 32.75 27.55 32.85 27.65L33.48 28.28C33.7 28.5 33.7 28.85 33.48 29.06L33.47 29.07Z" fill="white"/>
</g>
<defs>
<clipPath id="clip0_7_581">
<rect width="34.99" height="35" fill="white"/>
</clipPath>
</defs>
</svg>
