<svg width="36" height="40" viewBox="0 0 36 40" fill="none" xmlns="http://www.w3.org/2000/svg">
<g clip-path="url(#clip0_7_567)">
<path d="M25.5401 9.73023C23.4301 7.64023 20.6401 6.49023 17.6701 6.49023H17.5901C14.3801 6.51023 11.3201 7.93023 9.21006 10.3802C8.93006 10.7102 8.96006 11.2002 9.29006 11.4802C9.62006 11.7602 10.1101 11.7302 10.3901 11.4002C12.2101 9.29023 14.8401 8.07023 17.6001 8.05023H17.6701C20.2201 8.05023 22.6301 9.04023 24.4401 10.8402C26.2701 12.6602 27.2801 15.0802 27.2801 17.6602C27.2801 20.2402 26.3501 22.4702 24.6601 24.2602C22.8801 26.1402 21.8401 28.5202 21.6901 31.0202H20.1701V22.7402H20.6601C21.7901 22.7402 22.7201 21.8202 22.7201 20.6802V20.5802C22.7201 19.4502 21.8001 18.5202 20.6601 18.5202C19.5201 18.5202 18.6001 19.4402 18.6001 20.5802V21.1802H16.7201V20.5802C16.7201 19.4502 15.8001 18.5202 14.6601 18.5202H14.5301C13.4001 18.5202 12.4701 19.4402 12.4701 20.5802V20.6802C12.4701 21.8102 13.3901 22.7402 14.5301 22.7402H15.1601V31.0202H13.6601C13.5101 28.4902 12.4901 26.1302 10.7501 24.3202C8.95006 22.4502 8.00006 19.9902 8.07006 17.3902C8.08006 16.9602 7.74006 16.6002 7.31006 16.5902C6.88006 16.5802 6.52006 16.9202 6.51006 17.3502C6.43006 20.3702 7.53006 23.2302 9.63006 25.4102C11.2401 27.0802 12.1301 29.3102 12.1301 31.6802V33.9402C12.1301 35.6102 13.4001 36.9902 15.0201 37.1702V37.3502C15.0201 38.8102 16.2101 40.0102 17.6801 40.0102C19.1501 40.0102 20.3401 38.8202 20.3401 37.3502V37.1802C21.9701 37.0102 23.2501 35.6202 23.2501 33.9502V31.6902C23.2501 29.3502 24.1601 27.1002 25.8201 25.3402C27.7901 23.2602 28.8701 20.5302 28.8701 17.6702C28.8701 14.8102 27.7001 11.8502 25.5701 9.74023L25.5401 9.73023ZM20.1601 20.5702C20.1601 20.3002 20.3801 20.0802 20.6501 20.0802C20.9201 20.0802 21.1401 20.3002 21.1401 20.5702V20.6702C21.1401 20.9402 20.9201 21.1602 20.6501 21.1602H20.1601V20.5602V20.5702ZM16.7201 22.7302H18.5901V31.0102H16.7201V22.7302ZM14.5301 21.1702C14.2601 21.1702 14.0401 20.9502 14.0401 20.6802V20.5802C14.0401 20.3102 14.2601 20.0902 14.5301 20.0902H14.6601C14.9301 20.0902 15.1501 20.3102 15.1501 20.5802V21.1802H14.5201L14.5301 21.1702ZM18.7501 37.3402C18.7501 37.9402 18.2601 38.4302 17.6601 38.4302C17.0601 38.4302 16.5701 37.9402 16.5701 37.3402V37.1802H18.7601V37.3402H18.7501ZM21.6601 33.9302C21.6601 34.8602 20.9001 35.6202 19.9701 35.6202H15.3601C14.4301 35.6202 13.6701 34.8602 13.6701 33.9302V32.5702H21.6601V33.9302Z" fill="white"/>
<path d="M17.66 0C17.23 0 16.88 0.35 16.88 0.78V3.7C16.88 4.13 17.23 4.48 17.66 4.48C18.09 4.48 18.44 4.13 18.44 3.7V0.78C18.44 0.35 18.09 0 17.66 0Z" fill="white"/>
<path d="M34.53 16.8799H31.61C31.18 16.8799 30.83 17.2299 30.83 17.6599C30.83 18.0899 31.18 18.4399 31.61 18.4399H34.53C34.96 18.4399 35.31 18.0899 35.31 17.6599C35.31 17.2299 34.96 16.8799 34.53 16.8799Z" fill="white"/>
<path d="M3.7 16.8799H0.78C0.35 16.8799 0 17.2299 0 17.6599C0 18.0899 0.35 18.4399 0.78 18.4399H3.7C4.13 18.4399 4.48 18.0899 4.48 17.6599C4.48 17.2299 4.13 16.8799 3.7 16.8799Z" fill="white"/>
<path d="M8.34001 7.23017L6.28001 5.17017C5.97001 4.87017 5.48001 4.86017 5.18001 5.17017C4.87001 5.48017 4.87001 5.97017 5.18001 6.27017L7.24001 8.33017C7.39001 8.48017 7.59001 8.56017 7.79001 8.56017C7.99001 8.56017 8.19001 8.48017 8.34001 8.33017C8.65001 8.02017 8.65001 7.53017 8.34001 7.23017Z" fill="white"/>
<path d="M30.1401 5.16982C29.8301 4.86982 29.3401 4.86982 29.0401 5.16982L26.9801 7.22982C26.6701 7.53982 26.6701 8.02982 26.9801 8.32982C27.1301 8.47982 27.3301 8.55982 27.5301 8.55982C27.7301 8.55982 27.9301 8.47982 28.0801 8.32982L30.1401 6.26982C30.4501 5.95982 30.4501 5.46982 30.1401 5.16982Z" fill="white"/>
<path d="M24.97 14.7098C24.38 13.2598 23.39 12.0198 22.09 11.1298C20.77 10.2298 19.24 9.75977 17.64 9.75977H17.58C17.15 9.75977 16.8 10.1198 16.8 10.5498C16.8 10.9798 17.15 11.3298 17.58 11.3298H17.63C20.23 11.3298 22.54 12.8798 23.51 15.2998C23.63 15.5998 23.93 15.7898 24.23 15.7898C24.33 15.7898 24.43 15.7698 24.5201 15.7298C24.92 15.5698 25.1101 15.1098 24.9501 14.7098H24.97Z" fill="white"/>
<path d="M25.31 17.1099C25.16 16.9599 24.96 16.8799 24.76 16.8799C24.56 16.8799 24.35 16.9599 24.21 17.1099C24.06 17.2599 23.98 17.4599 23.98 17.6599C23.98 17.8599 24.06 18.0699 24.21 18.2099C24.36 18.3599 24.56 18.4399 24.76 18.4399C24.96 18.4399 25.17 18.3599 25.31 18.2099C25.46 18.0599 25.54 17.8599 25.54 17.6599C25.54 17.4599 25.46 17.2499 25.31 17.1099Z" fill="white"/>
<path d="M8.64006 13.0801C8.49006 12.9301 8.29006 12.8501 8.09006 12.8501C7.89006 12.8501 7.68006 12.9301 7.54006 13.0801C7.39006 13.2301 7.31006 13.4301 7.31006 13.6301C7.31006 13.8301 7.39006 14.0401 7.54006 14.1801C7.69006 14.3301 7.89006 14.4101 8.09006 14.4101C8.29006 14.4101 8.50006 14.3301 8.64006 14.1801C8.79006 14.0301 8.87006 13.8301 8.87006 13.6301C8.87006 13.4301 8.79006 13.2201 8.64006 13.0801Z" fill="white"/>
</g>
<defs>
<clipPath id="clip0_7_567">
<rect width="35.32" height="40" fill="white"/>
</clipPath>
</defs>
</svg>
