<svg width="35" height="35" viewBox="0 0 35 35" fill="none" xmlns="http://www.w3.org/2000/svg">
<g clip-path="url(#clip0_7_577)">
<path d="M21.6 23.6499C21.22 23.6499 20.92 23.9599 20.92 24.3299C20.92 24.6999 21.23 25.0099 21.6 25.0099C21.97 25.0099 22.28 24.6999 22.28 24.3299C22.28 23.9599 21.97 23.6499 21.6 23.6499Z" fill="white"/>
<path d="M31.58 0H3.42C1.53 0 0 1.53 0 3.42V24.34C0 26.22 1.53 27.76 3.42 27.76H14.08V30.9H13.4C12.49 30.9 11.63 31.26 10.98 31.9C10.33 32.55 9.98 33.4 9.98 34.32C9.98 34.7 10.29 35 10.66 35H24.33C24.71 35 25.01 34.69 25.01 34.32C25.01 32.44 23.48 30.9 21.59 30.9H20.91V27.76H31.57C33.45 27.76 34.99 26.23 34.99 24.34V3.42C34.99 1.54 33.46 0 31.57 0H31.58ZM3.42 1.37H31.58C32.71 1.37 33.63 2.29 33.63 3.42V20.92H30.49V5.2C30.49 4.82 30.18 4.52 29.81 4.52H24.34C23.96 4.52 23.66 4.83 23.66 5.2V20.92H20.24C20.24 20.21 20.21 19.52 20.18 18.84C20.06 16.06 19.79 14.19 19.65 13.37C21.06 12.33 21.45 10.41 20.58 8.91L18.21 4.81C18.09 4.6 17.86 4.47 17.62 4.47C17.38 4.47 17.15 4.6 17.03 4.81L14.66 8.91C13.85 10.32 14.14 12.15 15.41 13.22C15.26 14.04 14.96 15.97 14.83 18.83C14.8 19.51 14.78 20.21 14.77 20.91H11.35V10.66C11.35 10.55 11.32 10.45 11.28 10.36L8.55 4.88C8.43 4.65 8.2 4.5 7.94 4.5C7.68 4.5 7.44 4.65 7.33 4.88L4.6 10.35C4.56 10.45 4.53 10.55 4.53 10.66V20.91H1.37V3.42C1.37 2.29 2.29 1.37 3.42 1.37ZM25.02 20.92V5.88H29.12V7.25H28.44C28.06 7.25 27.76 7.56 27.76 7.93C27.76 8.3 28.07 8.61 28.44 8.61H29.12V10.66H28.44C28.06 10.66 27.76 10.97 27.76 11.34C27.76 11.71 28.07 12.02 28.44 12.02H29.12V14.07H28.44C28.06 14.07 27.76 14.38 27.76 14.75C27.76 15.12 28.07 15.43 28.44 15.43H29.12V18.16H28.44C28.06 18.16 27.76 18.47 27.76 18.84C27.76 19.21 28.07 19.52 28.44 19.52H29.12V20.89H25.02V20.92ZM17.61 14.04C17.86 14.04 18.11 14.01 18.35 13.96C18.48 14.77 18.66 16.21 18.77 18.19H16.23C16.35 16.21 16.54 14.75 16.68 13.91C16.98 14 17.3 14.04 17.62 14.04H17.61ZM17.61 12.67C16.05 12.67 15.04 10.97 15.83 9.6L17.61 6.52L19.39 9.6C20.18 10.97 19.19 12.67 17.61 12.67ZM16.16 19.55H18.83C18.84 20 18.85 20.46 18.86 20.92H16.13C16.13 20.46 16.15 20 16.16 19.55ZM8.61 20.92V11.35H9.98V20.92H8.61ZM5.88 20.92V11.35H7.25V20.92H5.88ZM6.3 9.98L7.93 6.72L9.56 9.98H6.3ZM23.53 33.63H11.46C11.56 33.35 11.72 33.08 11.94 32.86C12.33 32.47 12.84 32.26 13.39 32.26H21.59C22.48 32.26 23.24 32.83 23.52 33.63H23.53ZM19.55 30.9H15.45V27.76H19.55V30.9ZM31.58 26.39H3.42C2.29 26.39 1.37 25.47 1.37 24.34V22.29H33.63V24.34C33.63 25.47 32.71 26.39 31.58 26.39Z" fill="white"/>
<path d="M18.87 23.6499H14.77C14.39 23.6499 14.09 23.9599 14.09 24.3299C14.09 24.6999 14.4 25.0099 14.77 25.0099H18.87C19.25 25.0099 19.55 24.6999 19.55 24.3299C19.55 23.9599 19.24 23.6499 18.87 23.6499Z" fill="white"/>
</g>
<defs>
<clipPath id="clip0_7_577">
<rect width="35" height="35" fill="white"/>
</clipPath>
</defs>
</svg>
