<svg width="34" height="34" viewBox="0 0 34 34" fill="none" xmlns="http://www.w3.org/2000/svg">
<g clip-path="url(#clip0_7_608)">
<path d="M33.43 20.3998H30.6V7.3698C30.6 7.0598 30.35 6.7998 30.03 6.7998H3.97C3.66 6.7998 3.4 7.0498 3.4 7.3698V20.3998H0.57C0.25 20.3998 0 20.6498 0 20.9698V25.4998C0 25.8098 0.25 26.0698 0.57 26.0698H33.43C33.74 26.0698 34 25.8198 34 25.4998V20.9698C34 20.6598 33.75 20.3998 33.43 20.3998ZM4.53 7.9298H29.47V20.3998H4.53V7.9298ZM32.86 24.9298H1.13V21.5298H32.86V24.9298Z" fill="white"/>
<path d="M4.98002 2.48013C4.98002 2.48013 4.95002 2.45013 4.94002 2.43013L2.67002 0.170132C2.48002 -0.0198677 2.18002 -0.0498677 1.95002 0.100132L0.250022 1.23013C0.0400216 1.37013 -0.0499784 1.64013 0.0300216 1.88013L1.16002 5.28013C1.22002 5.46013 1.36002 5.59013 1.54002 5.64013C1.72002 5.69013 1.91002 5.65013 2.05002 5.54013L4.88002 3.27013C5.12002 3.07013 5.16002 2.72013 4.97002 2.47013L4.98002 2.48013ZM1.99002 4.15013L1.24002 1.93013L2.19002 1.29013L3.68002 2.78013L1.98002 4.14013L1.99002 4.15013Z" fill="white"/>
<path d="M8.11004 3.9899L6.41004 3.4199C6.11004 3.3199 5.79004 3.4799 5.69004 3.7799C5.59004 4.0799 5.75004 4.3999 6.05004 4.4999L7.75004 5.0699C8.05004 5.1699 8.37004 5.0099 8.47004 4.7099C8.57004 4.4099 8.41004 4.0899 8.11004 3.9899Z" fill="white"/>
<path d="M1.7 6.22998C1.39 6.22998 1.13 6.47998 1.13 6.79998V9.06998C1.13 9.37998 1.38 9.63998 1.7 9.63998C2.02 9.63998 2.27 9.38998 2.27 9.06998V6.79998C2.27 6.48998 2.02 6.22998 1.7 6.22998Z" fill="white"/>
<path d="M33.75 1.23013L32.05 0.100132C31.83 -0.0498677 31.53 -0.0198677 31.33 0.170132L29.06 2.44013C28.84 2.66013 28.84 3.02013 29.06 3.24013C29.07 3.25013 29.09 3.27013 29.11 3.28013L31.94 5.55013C32.18 5.75013 32.54 5.71013 32.74 5.46013C32.78 5.41013 32.81 5.35013 32.84 5.28013L33.97 1.88013C34.05 1.64013 33.96 1.37013 33.75 1.23013ZM32.02 4.15013L30.32 2.79013L31.81 1.30013L32.76 1.94013L32.02 4.16013V4.15013Z" fill="white"/>
<path d="M28.3 3.79015C28.2 3.49015 27.88 3.33015 27.58 3.43015L25.88 4.00015C25.58 4.10015 25.42 4.42015 25.52 4.71015C25.6 4.94015 25.82 5.10015 26.06 5.10015C26.12 5.10015 26.18 5.10015 26.24 5.07015L27.94 4.50015C28.24 4.40015 28.4 4.08015 28.3 3.78015V3.79015Z" fill="white"/>
<path d="M32.3 6.22998C31.99 6.22998 31.73 6.47998 31.73 6.79998V9.06998C31.73 9.37998 31.98 9.63998 32.3 9.63998C32.62 9.63998 32.87 9.38998 32.87 9.06998V6.79998C32.87 6.48998 32.62 6.22998 32.3 6.22998Z" fill="white"/>
<path d="M13.6 27.2002H12.47C10.91 27.2002 9.64001 28.4702 9.64001 30.0302V33.4302C9.64001 33.7402 9.89001 34.0002 10.21 34.0002H15.88C16.19 34.0002 16.45 33.7502 16.45 33.4302V30.0302C16.45 28.4702 15.18 27.2002 13.62 27.2002H13.6ZM15.3 32.8702H10.77V30.0402C10.77 29.1002 11.53 28.3402 12.47 28.3402H13.6C14.54 28.3402 15.3 29.1002 15.3 30.0402V32.8702Z" fill="white"/>
<path d="M5.66996 27.2002H4.53996C2.97996 27.2002 1.70996 28.4702 1.70996 30.0302V33.4302C1.70996 33.7402 1.95996 34.0002 2.27996 34.0002H7.92996C8.23996 34.0002 8.49996 33.7502 8.49996 33.4302V30.0302C8.49996 28.4702 7.22996 27.2002 5.66996 27.2002ZM7.36996 32.8702H2.82996V30.0402C2.82996 29.1002 3.58996 28.3402 4.52996 28.3402H5.65996C6.59996 28.3402 7.35996 29.1002 7.35996 30.0402V32.8702H7.36996Z" fill="white"/>
<path d="M29.47 27.2002H28.34C26.78 27.2002 25.51 28.4702 25.51 30.0302V33.4302C25.51 33.7402 25.76 34.0002 26.08 34.0002H31.75C32.06 34.0002 32.32 33.7502 32.32 33.4302V30.0302C32.32 28.4702 31.05 27.2002 29.49 27.2002H29.47ZM31.17 32.8702H26.64V30.0402C26.64 29.1002 27.4 28.3402 28.34 28.3402H29.47C30.41 28.3402 31.17 29.1002 31.17 30.0402V32.8702Z" fill="white"/>
<path d="M21.5299 27.2002H20.3999C18.8399 27.2002 17.5699 28.4702 17.5699 30.0302V33.4302C17.5699 33.7402 17.8199 34.0002 18.1399 34.0002H23.8099C24.1199 34.0002 24.3799 33.7502 24.3799 33.4302V30.0302C24.3799 28.4702 23.1099 27.2002 21.5499 27.2002H21.5299ZM23.2299 32.8702H18.6999V30.0402C18.6999 29.1002 19.4599 28.3402 20.3999 28.3402H21.5299C22.4699 28.3402 23.2299 29.1002 23.2299 30.0402V32.8702Z" fill="white"/>
</g>
<defs>
<clipPath id="clip0_7_608">
<rect width="34" height="34" fill="white"/>
</clipPath>
</defs>
</svg>
