<svg width="35" height="26" viewBox="0 0 35 26" fill="none" xmlns="http://www.w3.org/2000/svg">
<g clip-path="url(#clip0_7_563)">
<path d="M20.47 0.259767C19.76 -0.120233 18.9 -0.0802329 18.23 0.369767L8.84999 6.61977H5.28999C4.37999 6.61977 3.62999 7.31977 3.54999 8.21977H3.04999C1.35999 8.21977 -0.0100098 9.58977 -0.0100098 11.2798V14.5598C-0.0100098 16.2498 1.35999 17.6198 3.04999 17.6198H3.54999C3.61999 18.5098 4.36999 19.2198 5.28999 19.2198H8.84999L18.23 25.4698C18.6 25.7098 19.02 25.8398 19.44 25.8398C19.79 25.8398 20.15 25.7498 20.47 25.5798C21.18 25.1998 21.62 24.4598 21.62 23.6598V2.17977C21.62 1.36977 21.18 0.639767 20.47 0.259767ZM3.54999 15.8798H3.05999C2.32999 15.8798 1.72999 15.2798 1.72999 14.5498V11.2698C1.72999 10.5398 2.32999 9.93977 3.05999 9.93977H3.54999V15.8798ZM8.24999 17.4798H5.29999C5.29999 17.4798 5.28999 17.4798 5.28999 17.4698V8.35977C5.28999 8.35977 5.28999 8.34977 5.29999 8.34977H8.24999V17.4798ZM19.89 23.6498C19.89 23.8898 19.72 24.0098 19.65 24.0498C19.58 24.0898 19.39 24.1598 19.19 24.0298L9.97999 17.8898V7.94977L19.19 1.80977C19.39 1.66977 19.58 1.74977 19.65 1.78977C19.72 1.82977 19.89 1.93977 19.89 2.18977V23.6498Z" fill="white"/>
<path d="M30.46 1.93984C30.16 1.63984 29.66 1.63984 29.36 1.93984C29.06 2.23984 29.06 2.73984 29.36 3.03984C31.99 5.66984 33.44 9.17984 33.44 12.9098C33.44 16.6398 31.99 20.1498 29.36 22.7798C29.06 23.0798 29.06 23.5798 29.36 23.8798C29.51 24.0298 29.71 24.1098 29.91 24.1098C30.11 24.1098 30.31 24.0298 30.46 23.8798C33.39 20.9498 35 17.0598 35 12.9098C35 8.75984 33.39 4.85984 30.46 1.93984Z" fill="white"/>
<path d="M26.18 6.22012C25.88 5.92012 25.38 5.92012 25.08 6.22012C24.78 6.52012 24.78 7.02012 25.08 7.32012C26.57 8.81012 27.39 10.8001 27.39 12.9101C27.39 15.0201 26.57 17.0101 25.08 18.5001C24.78 18.8001 24.78 19.3001 25.08 19.6001C25.23 19.7501 25.43 19.8301 25.63 19.8301C25.83 19.8301 26.03 19.7501 26.18 19.6001C27.97 17.8101 28.95 15.4401 28.95 12.9101C28.95 10.3801 27.97 8.00012 26.18 6.22012Z" fill="white"/>
</g>
<defs>
<clipPath id="clip0_7_563">
<rect width="35" height="25.83" fill="white"/>
</clipPath>
</defs>
</svg>
