<svg width="33" height="33" viewBox="0 0 33 33" fill="none" xmlns="http://www.w3.org/2000/svg">
<g clip-path="url(#clip0_7_594)">
<path d="M16.6599 27.0702C16.7199 27.0502 16.7799 27.0302 16.8299 27.0002L21.2899 24.3102L23.2099 26.2202C23.3299 26.3402 23.4899 26.4102 23.6599 26.4102H28.6599C29.0199 26.4102 29.2999 26.1202 29.2999 25.7702C29.2999 25.4202 29.0099 25.1302 28.6599 25.1302H23.9199L22.4199 23.6402L25.1699 21.9802C25.3599 21.8602 25.4799 21.6502 25.4799 21.4302V11.5802C25.4799 11.3602 25.3599 11.1402 25.1699 11.0302L16.8199 6.00016C16.6199 5.88016 16.3599 5.88016 16.1499 6.00016L11.6899 8.69016L9.76994 6.78016C9.64994 6.66016 9.48994 6.59016 9.31994 6.59016H4.32994C3.96994 6.59016 3.68994 6.88016 3.68994 7.23016C3.68994 7.58016 3.97994 7.87016 4.32994 7.87016H9.05994L10.5599 9.36016L7.80994 11.0202C7.61994 11.1302 7.49994 11.3502 7.49994 11.5702V13.5902C7.49994 13.9502 7.78994 14.2302 8.13994 14.2302C8.48994 14.2302 8.77994 13.9402 8.77994 13.5902V12.7102L15.8399 16.9602V25.2902L8.77994 21.0402V19.3802C8.77994 19.0202 8.48994 18.7402 8.13994 18.7402C7.78994 18.7402 7.49994 19.0302 7.49994 19.3802V21.4002C7.49994 21.6302 7.61994 21.8402 7.80994 21.9502L16.1599 26.9802C16.3099 27.0702 16.4899 27.0902 16.6499 27.0502L16.6599 27.0702ZM24.1999 21.0502L21.4799 22.6902L19.5999 20.8202C19.3499 20.5702 18.9399 20.5702 18.6899 20.8202C18.4399 21.0702 18.4399 21.4802 18.6899 21.7302L20.3399 23.3702L17.1299 25.3002V16.9702L24.1899 12.7202V21.0502H24.1999ZM14.2999 11.2702L12.6499 9.63016L16.4999 7.31016L23.5999 11.5902L16.4999 15.8702L9.39994 11.5902L11.5099 10.3202L13.3899 12.1902C13.5199 12.3102 13.6799 12.3802 13.8399 12.3802C13.9999 12.3802 14.1699 12.3202 14.2999 12.1902C14.5499 11.9402 14.5499 11.5302 14.2999 11.2802V11.2702Z" fill="white"/>
<path d="M5.83994 10.5998C6.19994 10.5998 6.47994 10.3098 6.47994 9.95982C6.47994 9.60982 6.18994 9.31982 5.83994 9.31982H4.32994C3.96994 9.31982 3.68994 9.60982 3.68994 9.95982C3.68994 10.3098 3.97994 10.5998 4.32994 10.5998H5.83994Z" fill="white"/>
<path d="M3.68005 4.51988C3.68005 4.87988 3.97005 5.15988 4.32005 5.15988H9.32005C9.68005 5.15988 9.96005 4.86988 9.96005 4.51988C9.96005 4.16988 9.67005 3.87988 9.32005 3.87988H4.33005C3.97005 3.87988 3.69005 4.16988 3.69005 4.51988H3.68005Z" fill="white"/>
<path d="M28.67 23.6799C29.03 23.6799 29.31 23.3899 29.31 23.0399C29.31 22.6899 29.02 22.3999 28.67 22.3999H27.16C26.8 22.3999 26.52 22.6899 26.52 23.0399C26.52 23.3899 26.81 23.6799 27.16 23.6799H28.67Z" fill="white"/>
<path d="M29.31 28.4798C29.31 28.1198 29.02 27.8398 28.67 27.8398H23.67C23.31 27.8398 23.03 28.1298 23.03 28.4798C23.03 28.8298 23.32 29.1198 23.67 29.1198H28.67C29.03 29.1198 29.31 28.8298 29.31 28.4798Z" fill="white"/>
<path d="M0.64 8.74002C1 8.74002 1.28 8.45002 1.28 8.10002V1.29002H8.09C8.45 1.29002 8.73 1.00002 8.73 0.650017C8.73 0.300017 8.44 0.0100167 8.09 0.0100167H0.64C0.29 1.6748e-05 0 0.290017 0 0.640017V8.09002C0 8.45002 0.29 8.73002 0.64 8.73002V8.74002Z" fill="white"/>
<path d="M32.36 0H24.91C24.55 0 24.27 0.29 24.27 0.64C24.27 0.99 24.56 1.28 24.91 1.28H31.72V8.09C31.72 8.45 32.01 8.73 32.36 8.73C32.71 8.73 33 8.44 33 8.09V0.64C33 0.28 32.71 0 32.36 0Z" fill="white"/>
<path d="M8.09001 31.7098H1.29001V24.8998C1.29001 24.5398 1.00001 24.2598 0.65001 24.2598C0.30001 24.2598 0.0100098 24.5498 0.0100098 24.8998V32.3498C0.0100098 32.7098 0.30001 32.9898 0.65001 32.9898H8.10001C8.46001 32.9898 8.74001 32.6998 8.74001 32.3498C8.74001 31.9998 8.45001 31.7098 8.10001 31.7098H8.09001Z" fill="white"/>
<path d="M32.36 24.2598C32 24.2598 31.72 24.5498 31.72 24.8998V31.7098H24.91C24.55 31.7098 24.27 31.9998 24.27 32.3498C24.27 32.6998 24.56 32.9898 24.91 32.9898H32.36C32.72 32.9898 33 32.6998 33 32.3498V24.8998C33 24.5398 32.71 24.2598 32.36 24.2598Z" fill="white"/>
<path d="M8.15001 17.1499C8.51001 17.1499 8.79001 16.8599 8.79001 16.4999C8.79001 16.1399 8.50001 15.8599 8.15001 15.8599C7.80001 15.8599 7.51001 16.1499 7.51001 16.4999C7.51001 16.8599 7.80001 17.1499 8.15001 17.1499Z" fill="white"/>
</g>
<defs>
<clipPath id="clip0_7_594">
<rect width="33" height="33" fill="white"/>
</clipPath>
</defs>
</svg>
