<svg width="33" height="28" viewBox="0 0 33 28" fill="none" xmlns="http://www.w3.org/2000/svg">
<g clip-path="url(#clip0_7_592)">
<path d="M30.45 13.63V7.67H26.56V0H3.89V4.26H0V27.26H28.93L33 13.63H30.45ZM28.51 9.37V13.63H26.57V9.37H28.51ZM24.62 1.7V13.63H17.49V11.99C17.49 11.16 17.08 10.37 16.37 9.82L15.29 8.99C15.65 8.53 15.87 7.97 15.87 7.37V6.23C15.87 4.66 14.42 3.39 12.63 3.39C10.84 3.39 9.39 4.66 9.39 6.23V7.37C9.39 7.97 9.6 8.53 9.97 8.99L8.89 9.82C8.18 10.37 7.77 11.16 7.77 11.99V13.63H5.83V1.7H24.62ZM13.93 7.38C13.93 8.01 13.35 8.52 12.63 8.52C11.91 8.52 11.33 8.01 11.33 7.38V6.24C11.33 5.61 11.91 5.1 12.63 5.1C13.35 5.1 13.93 5.61 13.93 6.24V7.38ZM10.18 11.11L11.55 10.06C11.89 10.17 12.26 10.22 12.64 10.22C13.02 10.22 13.39 10.16 13.73 10.06L15.1 11.11C15.39 11.33 15.56 11.65 15.56 11.99V13.63H9.73V11.99C9.73 11.65 9.9 11.33 10.19 11.11H10.18ZM1.94 5.96H3.88V14.36L1.94 20.32V5.96ZM27.43 25.56H2.26L5.59 15.34H30.48L27.43 25.56Z" fill="white"/>
</g>
<defs>
<clipPath id="clip0_7_592">
<rect width="33" height="27.26" fill="white"/>
</clipPath>
</defs>
</svg>
