<svg width="38" height="24" viewBox="0 0 38 24" fill="none" xmlns="http://www.w3.org/2000/svg">
<g clip-path="url(#clip0_7_620)">
<path d="M21.5365 2.59766H16.473V3.89154H21.5365V2.59766Z" fill="white"/>
<path d="M21.5365 5.18506H16.473V6.47894H21.5365V5.18506Z" fill="white"/>
<path d="M21.5365 17.5112H16.473V18.8051H21.5365V17.5112Z" fill="white"/>
<path d="M21.5365 20.1084H16.473V21.4023H21.5365V20.1084Z" fill="white"/>
<path fill-rule="evenodd" clip-rule="evenodd" d="M28.5 24H37.3635C37.715 24 38 23.7081 38 23.3482V15.5655C38 15.2055 37.715 14.9137 37.3635 14.9137H28.5C28.1485 14.9137 27.8635 15.2055 27.8635 15.5655V18.805H24.0635V15.5655C24.0635 15.2055 23.7785 14.9137 23.427 14.9137H19.627V9.07661H23.427C23.7785 9.07661 24.0635 8.78476 24.0635 8.42481V0.651804C24.0635 0.291852 23.7785 0 23.427 0H14.5635C14.212 0 13.927 0.291852 13.927 0.651804V8.43454C13.927 8.79449 14.212 9.08634 14.5635 9.08634H18.3635V14.9234H14.5635C14.212 14.9234 13.927 15.2152 13.927 15.5752V18.8148H10.127V15.5752C10.127 15.2152 9.842 14.9234 9.4905 14.9234H0.6365C0.285 14.9234 0 15.2152 0 15.5752V23.3579C0 23.7179 0.285 24.0097 0.6365 24.0097H9.5C9.8515 24.0097 10.1365 23.7179 10.1365 23.3579V20.1184H13.9365V23.3579C13.9365 23.7179 14.2215 24.0097 14.573 24.0097H23.4365C23.788 24.0097 24.073 23.7179 24.073 23.3579V20.1184H27.873V23.3579C27.873 23.7179 28.158 24.0097 28.5095 24.0097L28.5 24ZM36.7365 16.2173H29.1365V22.7061H36.7365V16.2173ZM1.2635 22.6964H8.8635V16.2075H1.2635V22.6964ZM15.2 1.29388V7.78273H22.8V1.29388H15.2ZM19.6365 22.6964H22.8V16.2075H15.2V22.6964H19.6365Z" fill="white"/>
<path d="M35.4635 17.5112H30.4V18.8051H35.4635V17.5112Z" fill="white"/>
<path d="M35.4635 20.1084H30.4V21.4023H35.4635V20.1084Z" fill="white"/>
<path d="M7.6 17.5112H2.5365V18.8051H7.6V17.5112Z" fill="white"/>
<path d="M7.6 20.1084H2.5365V21.4023H7.6V20.1084Z" fill="white"/>
</g>
<defs>
<clipPath id="clip0_7_620">
<rect width="38" height="24" fill="white"/>
</clipPath>
</defs>
</svg>
