<svg width="60" height="60" viewBox="0 0 60 60" fill="none" xmlns="http://www.w3.org/2000/svg">
<g clip-path="url(#clip0_91_58960)">
<path d="M56.25 0H10C9.00544 0 8.05161 0.395088 7.34835 1.09835C6.64509 1.80161 6.25 2.75544 6.25 3.75V8.75C6.25 9.08152 6.3817 9.39946 6.61612 9.63388C6.85054 9.8683 7.16848 10 7.5 10H17.8237C18.2645 9.99998 18.6974 10.1165 19.0787 10.3377C19.4599 10.559 19.7758 10.8771 19.9945 11.2598L22.475 15.6009C23.0217 16.5575 23.8115 17.3527 24.7645 17.9057C25.7175 18.4588 26.7998 18.75 27.9016 18.75H48.75C49.0815 18.75 49.3995 18.8817 49.6339 19.1161C49.8683 19.3505 50 19.6685 50 20V47.5C50 47.8315 50.1317 48.1495 50.3661 48.3839C50.6005 48.6183 50.9185 48.75 51.25 48.75H56.25C57.2446 48.75 58.1984 48.3549 58.9016 47.6516C59.6049 46.9484 60 45.9946 60 45V3.75C60 2.75544 59.6049 1.80161 58.9016 1.09835C58.1984 0.395088 57.2446 0 56.25 0Z" fill="#21B262"/>
<path d="M52.5 45V20C52.5 19.0054 52.1049 18.0516 51.4016 17.3483C50.6984 16.6451 49.7446 16.25 48.75 16.25H27.9016C27.2405 16.25 26.591 16.0753 26.0192 15.7434C25.4473 15.4116 24.9734 14.9344 24.6454 14.3604L21.8049 9.3895C21.4769 8.81551 21.003 8.33843 20.4312 8.00661C19.8594 7.67478 19.2101 7.50001 18.549 7.5H3.75C2.75544 7.5 1.80161 7.89509 1.09835 8.59835C0.395088 9.30161 0 10.2554 0 11.25L0 45C0 45.9946 0.395088 46.9484 1.09835 47.6516C1.80161 48.3549 2.75544 48.75 3.75 48.75H56.25C55.2554 48.75 54.3016 48.3549 53.5984 47.6516C52.8951 46.9484 52.5 45.9946 52.5 45Z" fill="#4DDB8D"/>
<path d="M32.5 38.75H20C19.6685 38.75 19.3505 38.6183 19.1161 38.3839C18.8817 38.1495 18.75 37.8315 18.75 37.5V31.25C18.75 29.2609 19.5402 27.3532 20.9467 25.9467C22.3532 24.5402 24.2609 23.75 26.25 23.75C28.2391 23.75 30.1468 24.5402 31.5533 25.9467C32.9598 27.3532 33.75 29.2609 33.75 31.25V37.5C33.75 37.8315 33.6183 38.1495 33.3839 38.3839C33.1495 38.6183 32.8315 38.75 32.5 38.75ZM21.25 36.25H31.25V31.25C31.25 29.9239 30.7232 28.6521 29.7855 27.7145C28.8479 26.7768 27.5761 26.25 26.25 26.25C24.9239 26.25 23.6521 26.7768 22.7145 27.7145C21.7768 28.6521 21.25 29.9239 21.25 31.25V36.25Z" fill="#21B262"/>
<path d="M35 36.25H17.5C15.4289 36.25 13.75 37.9289 13.75 40V56.25C13.75 58.3211 15.4289 60 17.5 60H35C37.0711 60 38.75 58.3211 38.75 56.25V40C38.75 37.9289 37.0711 36.25 35 36.25Z" fill="#3ED180"/>
<path d="M29.9375 49.6106C30.7841 48.6966 31.2531 47.4959 31.25 46.25C31.25 44.9239 30.7232 43.6521 29.7855 42.7145C28.8479 41.7768 27.5761 41.25 26.25 41.25C24.9239 41.25 23.6522 41.7768 22.7145 42.7145C21.7768 43.6521 21.25 44.9239 21.25 46.25C21.2469 47.4959 21.7159 48.6966 22.5625 49.6106L21.3144 53.3545C21.2519 53.5424 21.2349 53.7425 21.2648 53.9382C21.2947 54.134 21.3706 54.3198 21.4864 54.4805C21.6021 54.6411 21.7544 54.772 21.9306 54.8623C22.1068 54.9527 22.302 54.9998 22.5 55H30C30.1981 54.9999 30.3932 54.9527 30.5695 54.8624C30.7458 54.7721 30.898 54.6412 31.0138 54.4806C31.1296 54.3199 31.2056 54.134 31.2355 53.9383C31.2654 53.7425 31.2484 53.5424 31.1859 53.3545L29.9375 49.6106Z" fill="#21B262"/>
</g>
<defs>
<clipPath id="clip0_91_58960">
<rect width="60" height="60" fill="white"/>
</clipPath>
</defs>
</svg>
