<svg width="60" height="60" viewBox="0 0 60 60" fill="none" xmlns="http://www.w3.org/2000/svg">
<g clip-path="url(#clip0_91_58938)">
<path d="M4.6875 0.9375C3.69294 0.9375 2.73911 1.33259 2.03585 2.03585C1.33259 2.73911 0.9375 3.69294 0.9375 4.6875V26.25C0.9375 26.4986 1.03627 26.7371 1.21209 26.9129C1.3879 27.0887 1.62636 27.1875 1.875 27.1875H11.25V0.9375H4.6875Z" fill="#3ED180"/>
<path d="M41.25 0.9375H3.75C4.74456 0.9375 5.69839 1.33259 6.40165 2.03585C7.10491 2.73911 7.5 3.69294 7.5 4.6875V58.125C7.5 58.3736 7.59877 58.6121 7.77459 58.7879C7.9504 58.9637 8.18886 59.0625 8.4375 59.0625H45V50.625V4.6875C45 3.69294 44.6049 2.73911 43.9016 2.03585C43.1984 1.33259 42.2446 0.9375 41.25 0.9375Z" fill="#4DDB8D"/>
<path d="M39.375 14.0625H13.125C12.8764 14.0625 12.6379 13.9637 12.4621 13.7879C12.2863 13.6121 12.1875 13.3736 12.1875 13.125C12.1875 12.8764 12.2863 12.6379 12.4621 12.4621C12.6379 12.2863 12.8764 12.1875 13.125 12.1875H39.375C39.6236 12.1875 39.8621 12.2863 40.0379 12.4621C40.2137 12.6379 40.3125 12.8764 40.3125 13.125C40.3125 13.3736 40.2137 13.6121 40.0379 13.7879C39.8621 13.9637 39.6236 14.0625 39.375 14.0625Z" fill="#21B262"/>
<path d="M39.375 19.6875H13.125C12.8764 19.6875 12.6379 19.5887 12.4621 19.4129C12.2863 19.2371 12.1875 18.9986 12.1875 18.75C12.1875 18.5014 12.2863 18.2629 12.4621 18.0871C12.6379 17.9113 12.8764 17.8125 13.125 17.8125H39.375C39.6236 17.8125 39.8621 17.9113 40.0379 18.0871C40.2137 18.2629 40.3125 18.5014 40.3125 18.75C40.3125 18.9986 40.2137 19.2371 40.0379 19.4129C39.8621 19.5887 39.6236 19.6875 39.375 19.6875Z" fill="#21B262"/>
<path d="M34.6875 25.3125H13.125C12.8764 25.3125 12.6379 25.2137 12.4621 25.0379C12.2863 24.8621 12.1875 24.6236 12.1875 24.375C12.1875 24.1264 12.2863 23.8879 12.4621 23.7121C12.6379 23.5363 12.8764 23.4375 13.125 23.4375H34.6875C34.9361 23.4375 35.1746 23.5363 35.3504 23.7121C35.5262 23.8879 35.625 24.1264 35.625 24.375C35.625 24.6236 35.5262 24.8621 35.3504 25.0379C35.1746 25.2137 34.9361 25.3125 34.6875 25.3125Z" fill="#21B262"/>
<path d="M29.0625 30.9375H13.125C12.8764 30.9375 12.6379 30.8387 12.4621 30.6629C12.2863 30.4871 12.1875 30.2486 12.1875 30C12.1875 29.7514 12.2863 29.5129 12.4621 29.3371C12.6379 29.1613 12.8764 29.0625 13.125 29.0625H29.0625C29.3111 29.0625 29.5496 29.1613 29.7254 29.3371C29.9012 29.5129 30 29.7514 30 30C30 30.2486 29.9012 30.4871 29.7254 30.6629C29.5496 30.8387 29.3111 30.9375 29.0625 30.9375Z" fill="#21B262"/>
<path d="M23.4375 36.5625H13.125C12.8764 36.5625 12.6379 36.4637 12.4621 36.2879C12.2863 36.1121 12.1875 35.8736 12.1875 35.625C12.1875 35.3764 12.2863 35.1379 12.4621 34.9621C12.6379 34.7863 12.8764 34.6875 13.125 34.6875H23.4375C23.6861 34.6875 23.9246 34.7863 24.1004 34.9621C24.2762 35.1379 24.375 35.3764 24.375 35.625C24.375 35.8736 24.2762 36.1121 24.1004 36.2879C23.9246 36.4637 23.6861 36.5625 23.4375 36.5625Z" fill="#21B262"/>
<path d="M19.6875 42.1875H13.125C12.8764 42.1875 12.6379 42.0887 12.4621 41.9129C12.2863 41.7371 12.1875 41.4986 12.1875 41.25C12.1875 41.0014 12.2863 40.7629 12.4621 40.5871C12.6379 40.4113 12.8764 40.3125 13.125 40.3125H19.6875C19.9361 40.3125 20.1746 40.4113 20.3504 40.5871C20.5262 40.7629 20.625 41.0014 20.625 41.25C20.625 41.4986 20.5262 41.7371 20.3504 41.9129C20.1746 42.0887 19.9361 42.1875 19.6875 42.1875Z" fill="#21B262"/>
<path d="M19.6875 47.8125H13.125C12.8764 47.8125 12.6379 47.7137 12.4621 47.5379C12.2863 47.3621 12.1875 47.1236 12.1875 46.875C12.1875 46.6264 12.2863 46.3879 12.4621 46.2121C12.6379 46.0363 12.8764 45.9375 13.125 45.9375H19.6875C19.9361 45.9375 20.1746 46.0363 20.3504 46.2121C20.5262 46.3879 20.625 46.6264 20.625 46.875C20.625 47.1236 20.5262 47.3621 20.3504 47.5379C20.1746 47.7137 19.9361 47.8125 19.6875 47.8125Z" fill="#21B262"/>
<path d="M57.6188 11.7563C57.1634 11.2987 56.6222 10.9356 56.0261 10.6878C55.43 10.44 54.7908 10.3125 54.1453 10.3125C53.4998 10.3125 52.8606 10.44 52.2645 10.6878C51.6685 10.9356 51.1272 11.2987 50.6719 11.7563L23.5313 38.8969L21.5906 46.65C21.5721 46.7236 21.5626 46.7991 21.5625 46.875C21.5618 47.1241 21.6595 47.3633 21.8344 47.5406C22.0117 47.7155 22.2509 47.8133 22.5 47.8125C22.5759 47.8124 22.6514 47.803 22.725 47.7844L30.4781 45.8438L57.6188 18.7031C58.0763 18.2478 58.4394 17.7066 58.6872 17.1105C58.935 16.5144 59.0625 15.8752 59.0625 15.2297C59.0625 14.5842 58.935 13.945 58.6872 13.3489C58.4394 12.7528 58.0763 12.2116 57.6188 11.7563Z" fill="#21B262"/>
<path d="M57.6183 11.7563C57.1629 11.2987 56.6217 10.9356 56.0256 10.6878C55.4295 10.44 54.7904 10.3125 54.1448 10.3125C53.4993 10.3125 52.8602 10.44 52.2641 10.6878C51.668 10.9356 51.1267 11.2987 50.6714 11.7563L48.832 13.5956L55.7789 20.5425L57.6183 18.7031C58.0759 18.2478 58.439 17.7066 58.6867 17.1105C58.9345 16.5144 59.062 15.8752 59.062 15.2297C59.062 14.5842 58.9345 13.945 58.6867 13.3489C58.439 12.7528 58.0759 12.2116 57.6183 11.7563Z" fill="#21B262"/>
<path d="M21.5625 46.8766C21.5618 47.1256 21.6595 47.3649 21.8344 47.5422C22.0117 47.7171 22.2509 47.8148 22.5 47.8141C22.5759 47.814 22.6514 47.8045 22.725 47.7859L30.4781 45.8453L23.5313 38.8984L21.5906 46.6516C21.5721 46.7251 21.5626 46.8007 21.5625 46.8766Z" fill="#21B262"/>
<path d="M37.5 50.625C37.2514 50.625 37.0129 50.7238 36.8371 50.8996C36.6613 51.0754 36.5625 51.3139 36.5625 51.5625V59.0625L45 50.625H37.5Z" fill="#4DDB8D"/>
<path d="M48.2288 48.4306L51.7571 44.9022C51.9559 44.7009 52.067 44.4291 52.0661 44.1461C52.0652 43.8631 51.9524 43.592 51.7523 43.3919C51.5522 43.1918 51.2811 43.079 50.9981 43.0781C50.7152 43.0772 50.4433 43.1883 50.242 43.3872L46.7136 46.9155L43.1853 43.3872C42.9838 43.1893 42.7122 43.079 42.4298 43.0802C42.1473 43.0815 41.8768 43.1943 41.6771 43.394C41.4773 43.5937 41.3646 43.8643 41.3633 44.1467C41.362 44.4292 41.4723 44.7007 41.6702 44.9022L45.1985 48.4306L41.6702 51.9589C41.4723 52.1605 41.362 52.432 41.3633 52.7145C41.3646 52.9969 41.4773 53.2674 41.6771 53.4672C41.8768 53.6669 42.1473 53.7797 42.4298 53.7809C42.7122 53.7822 42.9838 53.6719 43.1853 53.474L46.7136 49.9457L50.242 53.4741C50.4433 53.6729 50.7152 53.784 50.9982 53.7831C51.2811 53.7822 51.5522 53.6694 51.7523 53.4693C51.9524 53.2692 52.0652 52.998 52.0661 52.7151C52.067 52.4321 51.9559 52.1603 51.7571 51.9589L48.2288 48.4306Z" fill="#4DDB8D"/>
<path d="M54.2904 40.8569C52.2811 38.8476 49.5559 37.7188 46.7143 37.7188C43.8727 37.7188 41.1475 38.8476 39.1381 40.8569C37.1288 42.8662 36 45.5914 36 48.433C36 51.2746 37.1288 53.9999 39.1381 56.0092C41.1475 58.0185 43.8727 59.1473 46.7143 59.1473C49.5559 59.1473 52.2811 58.0185 54.2904 56.0092C56.2998 53.9999 57.4286 51.2746 57.4286 48.433C57.4286 45.5914 56.2998 42.8662 54.2904 40.8569ZM51.7577 51.9614C51.8587 52.0605 51.939 52.1787 51.994 52.3091C52.0491 52.4394 52.0777 52.5794 52.0784 52.7209C52.079 52.8624 52.0516 53.0027 51.9978 53.1335C51.9439 53.2644 51.8646 53.3833 51.7646 53.4833C51.6645 53.5834 51.5456 53.6626 51.4148 53.7165C51.2839 53.7704 51.1437 53.7978 51.0022 53.7971C50.8607 53.7965 50.7207 53.7678 50.5903 53.7128C50.46 53.6577 50.3418 53.5774 50.2426 53.4764L46.7143 49.9482L43.1859 53.4764C42.9844 53.6744 42.7129 53.7847 42.4304 53.7834C42.148 53.7821 41.8774 53.6693 41.6777 53.4696C41.478 53.2699 41.3652 52.9994 41.3639 52.7169C41.3627 52.4344 41.473 52.1629 41.6709 51.9614L45.1992 48.433L41.6709 44.9047C41.473 44.7032 41.3627 44.4316 41.3639 44.1492C41.3652 43.8667 41.478 43.5962 41.6777 43.3965C41.8774 43.1967 42.148 43.084 42.4304 43.0827C42.7129 43.0814 42.9844 43.1917 43.1859 43.3896L46.7143 46.9179L50.2426 43.3896C50.444 43.1907 50.7158 43.0797 50.9988 43.0805C51.2818 43.0814 51.5529 43.1943 51.753 43.3944C51.9531 43.5944 52.0659 43.8656 52.0667 44.1485C52.0676 44.4315 51.9565 44.7033 51.7577 44.9047L48.2294 48.433L51.7577 51.9614Z" fill="#21B262"/>
</g>
<defs>
<clipPath id="clip0_91_58938">
<rect width="60" height="60" fill="white"/>
</clipPath>
</defs>
</svg>
