<svg width="60" height="60" viewBox="0 0 60 60" fill="none" xmlns="http://www.w3.org/2000/svg">
<g clip-path="url(#clip0_91_58974)">
<path d="M59.6058 24.0748H0.394531V50.7196C0.394531 55.6247 4.37096 59.6012 9.27611 59.6012H50.7249C55.63 59.6012 59.6065 55.6247 59.6065 50.7196L59.6058 24.0748ZM15.1979 18.1538C13.5628 18.1538 12.2373 16.8283 12.2373 15.1933V3.35115C12.2373 1.71611 13.5628 0.390625 15.1979 0.390625C16.8329 0.390625 18.1584 1.71611 18.1584 3.35115V15.1933C18.1584 16.8283 16.8329 18.1538 15.1979 18.1538ZM44.8031 18.1538C43.1681 18.1538 41.8426 16.8283 41.8426 15.1933V3.35115C41.8426 1.71611 43.1681 0.390625 44.8031 0.390625C46.4382 0.390625 47.7637 1.71611 47.7637 3.35115V15.1933C47.7637 16.8283 46.4382 18.1538 44.8031 18.1538Z" fill="#4DDB8D"/>
<path d="M50.7249 6.3125H47.7644V15.1941C47.7644 16.8291 46.4389 18.1546 44.8039 18.1546C43.1688 18.1546 41.8434 16.8291 41.8434 15.1941V6.3125H18.1591V15.1941C18.1591 16.8291 16.8337 18.1546 15.1986 18.1546C13.5636 18.1546 12.2381 16.8291 12.2381 15.1941V6.3125H9.27611C4.37096 6.3125 0.394531 10.2889 0.394531 15.1941V24.0757H59.6065V15.1941C59.6065 10.2889 55.6301 6.3125 50.7249 6.3125Z" fill="#21B262"/>
<path d="M23.6705 43.1746H20.5703V38.8889H23.6705V30.0635L29.9974 30C31.1362 30 32.1907 30.1164 33.1608 30.3492C34.1309 30.5608 35.0378 30.9101 35.8814 31.3968C36.725 31.8624 37.3787 32.5291 37.8427 33.3968C38.3278 34.2646 38.5703 35.2804 38.5703 36.4444C38.5703 37.6508 38.3278 38.709 37.8427 39.619C37.3577 40.5079 36.6933 41.2063 35.8498 41.7143C35.0273 42.2222 34.1204 42.5926 33.1292 42.8254C32.1591 43.0582 31.1151 43.1746 29.9974 43.1746H28.4157V44.5079H33.4772V48.7937H28.4157V52.2857H23.6705V48.7937H20.5703V44.5079H23.6705V43.1746ZM30.1555 34.2857H28.4157V38.8889H29.9341C32.4227 38.8889 33.667 38.1058 33.667 36.5397C33.667 35.6296 33.3401 35.0265 32.6863 34.7302C32.0536 34.4339 31.21 34.2857 30.1555 34.2857Z" fill="#21B262"/>
</g>
<defs>
<clipPath id="clip0_91_58974">
<rect width="60" height="60" fill="white"/>
</clipPath>
</defs>
</svg>
