<svg width="299" height="51" viewBox="0 0 299 51" fill="none" xmlns="http://www.w3.org/2000/svg">
<path fill-rule="evenodd" clip-rule="evenodd" d="M220.562 46.6253C236.008 31.8591 248.238 25.7908 259.56 24.5097C260.538 23.1612 264.032 18.4414 265.081 16.8906C240.55 20.7339 226.992 39.3433 220.562 46.6253Z" fill="white" stroke="white" stroke-width="0.5" stroke-miterlimit="10"/>
<path d="M220.562 46.6253C236.008 31.8591 248.238 25.7908 259.56 24.5097C260.538 23.1612 264.032 18.4414 265.081 16.8906C240.55 20.7339 226.992 39.3433 220.562 46.6253Z" stroke="white" stroke-width="0.5"/>
<path fill-rule="evenodd" clip-rule="evenodd" d="M280.598 6.847C280.598 6.847 275.566 6.847 272.63 8.86976C269.695 10.7577 266.201 15.3426 264.523 17.7025C266.131 15.9494 268.227 15.41 271.372 15.0729C274.517 14.7358 278.99 14.7358 282.205 14.3312C285.28 13.9267 288.635 13.2524 292.618 7.65611L298 0.171875C292.409 5.90304 285.839 6.10532 280.598 6.847Z" fill="white" stroke="white" stroke-width="0.5" stroke-miterlimit="10"/>
<path d="M272.63 8.86976C269.695 10.7577 266.201 15.3426 264.523 17.7025C266.131 15.9494 268.227 15.41 271.372 15.0729C274.517 14.7358 278.99 14.7358 282.205 14.3312C285.28 13.9267 288.635 13.2524 292.618 7.65611L298 0.171875C292.409 5.90304 285.839 6.10532 280.598 6.847C277.243 7.25155 274.937 6.98185 272.63 8.86976Z" stroke="white" stroke-width="0.5"/>
<path d="M264.594 17.6386C262.707 20.0659 261.24 22.291 259.562 24.6509C262.638 23.1675 263.826 23.2349 267.25 23.0327C270.395 22.8978 273.61 22.4933 276.825 22.0887C279.9 21.6841 284.373 19.6614 286.19 17.1666L292.13 8.46875C287.308 16.2901 276.964 14.3348 271.723 15.0764C268.368 15.481 267.04 15.7507 264.734 17.6386H264.594Z" stroke="white" stroke-width="0.5"/>
<path d="M220.567 46.6254C233.636 36.7813 241.813 31.9266 255.091 30.5781C254.322 31.7244 253.763 32.466 254.392 32.938C256.209 33.6123 257.188 34.2865 257.817 34.7585C258.446 35.2305 258.446 36.107 257.817 36.579C257.188 37.051 256.279 37.1858 255.441 37.1184C242.372 36.9835 233.286 37.9949 217.422 49.9292L220.567 46.558V46.6254Z" stroke="white" stroke-width="0.5"/>
<path d="M258.028 36.3122C258.168 35.7053 258.727 35.3008 256.84 34.1546C254.604 32.8061 253.765 33.3455 254.324 31.9969C254.673 30.9181 258.308 30.7833 262.641 30.6484C262.641 30.6484 259.845 33.8174 258.098 36.3796L258.028 36.3122Z" stroke="white" stroke-width="0.5"/>
<path d="M274.657 22.3579C270.883 22.8973 266.55 23.0995 265.292 23.167C263.196 23.167 260.33 23.9761 259.561 24.92C257.185 27.9542 254.879 30.8535 254.25 31.9997C255.718 30.5838 260.47 30.7861 266.341 30.4489C272.141 30.1792 278.012 27.5496 282.694 22.0882L286.189 17.0312C283.812 20.1328 279.689 21.5488 274.657 22.2904V22.3579Z" stroke="white" stroke-width="0.5"/>
<path d="M277.104 26.9375C269.696 31.3202 256.348 27.5443 254.461 31.6573" stroke="white" stroke-width="0.5"/>
<path d="M280.95 23.9766C272.353 31.5956 257.817 25.0554 254.672 31.3259" stroke="white" stroke-width="0.5"/>
<path d="M282.697 22.0859C276.966 29.6376 258.795 24.2436 255.93 29.6376" stroke="white" stroke-width="0.5"/>
<path d="M283.815 20.3984C278.084 27.9501 260.123 22.4886 257.258 27.8152" stroke="white" stroke-width="0.5"/>
<path d="M284.792 19.0547C279.061 26.6063 261.1 21.2797 258.234 26.6738" stroke="white" stroke-width="0.5"/>
<path d="M235.797 36.377C244.183 33.208 252.081 32.264 254.177 32.3315" stroke="white" stroke-width="0.5"/>
<path d="M229.164 40.4235C240.346 34.3552 248.104 33.6135 256.141 33.7483" stroke="white" stroke-width="0.5"/>
<path d="M222.242 45.1412C235.661 35.2297 249.079 34.3531 257.955 34.96" stroke="white" stroke-width="0.5"/>
<path d="M218.398 48.9243C234.682 35.0347 249.149 35.6415 258.094 36.2483" stroke="white" stroke-width="0.5"/>
<path fill-rule="evenodd" clip-rule="evenodd" d="M153.4 36.0444L160.878 21.1434H161.018L169.194 36.0444H177.651L166.748 16.8281H159.62L149.766 36.0444H153.4Z" fill="white"/>
<path fill-rule="evenodd" clip-rule="evenodd" d="M36.3415 27.684L48.0127 27.5491C47.8729 30.2461 46.4053 31.7295 45.5666 32.4038C43.6098 33.8871 40.8842 34.022 39.5563 34.022C37.5995 34.022 35.992 33.7523 34.2449 32.7409C33.1267 32.1341 31.9386 31.0552 31.3096 30.1113L30.7505 29.3696L26.9766 31.5272C28.0948 32.8083 29.8419 34.0894 31.659 34.9659C34.4545 36.3144 37.0404 36.6516 40.1853 36.6516C43.3302 36.6516 48.7814 36.1796 52.5554 33.4151C55.2111 31.4598 56.3992 28.8302 56.3992 26.4703C56.3992 24.1104 55.2111 21.4808 52.5554 19.5255C49.3405 17.0982 44.5882 16.2891 40.3251 16.2891C36.0619 16.2891 35.0835 16.5588 32.4977 17.5027C30.3312 18.2444 28.6539 19.2558 26.9766 20.7391L30.7505 22.8293L31.659 21.8854C32.4278 21.0763 33.6858 20.2672 34.8738 19.7952C36.4114 19.1209 38.0188 18.9187 39.6961 18.9187C43.0507 18.9187 45.0075 19.9975 46.1257 21.0088C46.8246 21.6831 47.803 22.9642 48.0127 24.9195L36.3415 24.7173V27.684Z" fill="white"/>
<path fill-rule="evenodd" clip-rule="evenodd" d="M191.139 18.649C193.026 18.649 195.193 19.0535 196.87 21.1437C198.198 22.8293 198.407 24.7847 198.407 26.4703C198.407 28.156 198.198 30.1113 196.87 31.7969C195.193 33.8871 193.026 34.2917 191.139 34.2917C189.252 34.2917 187.086 33.8871 185.408 31.7969C184.081 30.1113 183.801 28.156 183.801 26.4703C183.801 24.7847 184.011 22.8293 185.408 21.1437C187.086 19.0535 189.252 18.649 191.139 18.649ZM191.139 36.6516C194.703 36.6516 199.596 35.8425 202.95 33.4151C205.606 31.5272 206.794 28.7628 206.794 26.4703C206.794 24.1778 205.536 21.4808 202.95 19.5255C199.665 17.0982 194.703 16.2891 191.139 16.2891C187.575 16.2891 182.613 17.0982 179.328 19.5255C176.672 21.4134 175.484 24.1778 175.484 26.4703C175.484 28.7628 176.672 31.5272 179.328 33.4151C182.683 35.8425 187.645 36.6516 191.139 36.6516Z" fill="white"/>
<path fill-rule="evenodd" clip-rule="evenodd" d="M127.333 21.6802C128.032 21.4779 128.94 21.3431 129.779 21.3431H130.688V31.3895H129.779C128.94 31.3895 128.102 31.2546 127.333 31.0524C126.704 30.8501 126.075 30.5804 125.656 30.1758C124.747 29.5016 124.048 28.2879 124.048 26.4C124.048 24.5121 124.747 23.3659 125.656 22.6242C126.145 22.2196 126.704 21.9499 127.333 21.7476M141.031 33.7494C145.294 33.4797 147.461 32.4683 148.649 31.7266C150.885 30.3781 151.863 28.4228 151.863 26.2652C151.863 24.1075 150.046 21.7476 148.649 20.8711C146.622 19.59 143.826 19.0506 141.031 18.8483H137.956V16.2188H130.408V18.8483H127.403C124.537 19.0506 121.742 19.59 119.785 20.8711C118.318 21.8151 116.57 23.5007 116.57 26.2652C116.57 29.0296 117.619 30.3781 119.785 31.7266C120.973 32.4683 123.14 33.4797 127.403 33.7494H130.408V36.5813H137.956V33.7494H141.031ZM141.031 21.6802C141.66 21.8825 142.289 22.1522 142.708 22.5567C143.617 23.231 144.316 24.4447 144.316 26.3326C144.316 28.2205 143.617 29.4342 142.708 30.1084C142.219 30.513 141.66 30.7827 141.031 30.9849C140.262 31.1872 139.424 31.3221 138.585 31.3221H137.746V21.2757H138.585C139.493 21.2757 140.262 21.4105 141.031 21.6128" fill="white"/>
<path fill-rule="evenodd" clip-rule="evenodd" d="M99.1001 18.649C100.987 18.649 103.154 19.0535 104.831 21.1437C106.159 22.8293 106.438 24.7847 106.438 26.4703C106.438 28.156 106.229 30.1113 104.831 31.7969C103.154 33.8871 100.987 34.2917 99.1001 34.2917C97.2131 34.2917 94.9767 33.8871 93.3693 31.7969C92.0415 30.1113 91.8318 28.156 91.8318 26.4703C91.8318 24.7847 92.0415 22.8293 93.3693 21.1437C95.0466 19.0535 97.2131 18.649 99.1001 18.649ZM99.1001 36.6516C102.594 36.6516 107.626 35.8425 110.911 33.4151C113.497 31.5272 114.755 28.7628 114.755 26.4703C114.755 24.1778 113.567 21.4808 110.911 19.5255C107.626 17.0982 102.594 16.2891 99.1001 16.2891C95.6057 16.2891 90.5738 17.0982 87.2891 19.5255C84.7033 21.4134 83.4453 24.1778 83.4453 26.4703C83.4453 28.7628 84.6334 31.5272 87.2891 33.4151C90.5738 35.8425 95.6057 36.6516 99.1001 36.6516Z" fill="white"/>
<path fill-rule="evenodd" clip-rule="evenodd" d="M70.5137 29.0321H71.9114C75.5456 29.0321 78.0615 28.6276 79.8786 27.5488C82.115 26.2003 82.6741 24.3124 82.6741 22.829C82.6741 21.3456 82.1849 19.5251 79.8786 18.1766C78.0615 17.0978 75.6853 16.8281 71.562 16.8281H58.6328V36.1118H66.1807V29.0321H70.5137ZM70.5137 19.7948C71.4222 19.7948 72.6103 19.9971 73.4489 20.5365C74.5671 21.2782 74.7768 22.2896 74.7768 22.8964C74.7768 23.5033 74.637 24.5821 73.3791 25.3237C72.5404 25.8631 71.4921 26.0654 70.5137 26.1328H66.2505V19.7274H70.5137" fill="white"/>
<path fill-rule="evenodd" clip-rule="evenodd" d="M11.8809 21.3427L15.6548 27.883H8.10694L11.6712 21.2079H11.7411V21.3427H11.8809ZM17.1923 30.5126L20.4071 36.0415H28.8635L17.402 16.7578H10.4132L0 36.0415H3.77392L6.77908 30.5126H17.2622H17.1923Z" fill="white"/>
<path fill-rule="evenodd" clip-rule="evenodd" d="M205.609 19.7274H213.716V36.0444H221.334V19.7274H229.511V16.8281H205.609V19.7274Z" fill="white"/>
</svg>
