<svg width="298" height="36" viewBox="0 0 298 36" fill="none" xmlns="http://www.w3.org/2000/svg">
<path fill-rule="evenodd" clip-rule="evenodd" d="M149.261 16.6547C149.146 17.258 148.891 17.6968 148.537 17.9173C145.138 20.0366 144.461 14.0017 147.866 14.2562C148.847 14.3297 149.465 15.5819 149.261 16.6547ZM143.486 19.4487L142.971 19.605C142.512 19.0708 141.937 17.7385 141.528 17.4648L141.966 19.9511L141.175 20.1644L140.526 16.2543L141.536 15.9817L143.012 18.293C143.404 17.5657 143.379 16.064 143.753 15.3339L144.724 15.0608L145.333 18.9419L144.521 19.2178C144.472 18.6523 144.285 16.9618 144.086 16.596C143.904 17.3579 143.781 18.7713 143.486 19.4487ZM152.528 15.5095L153.308 15.2577C153.138 17.5772 150.111 17.9475 149.774 15.6493C149.667 14.9248 149.763 14.1662 150.302 13.6693C150.47 13.5141 150.602 13.3605 150.818 13.2431C151.771 12.7232 152.899 13.0835 153.116 13.9852L152.245 14.2968C151.88 13.2881 150.365 13.8838 150.598 15.402C150.676 15.9126 150.94 16.3953 151.5 16.4002C151.784 16.4024 151.993 16.2965 152.163 16.1506C152.39 15.9559 152.378 15.8144 152.528 15.5106V15.5095ZM162.119 13.0912L161.877 14.011C161.817 14.124 161.247 14.2408 161.097 14.2852C161.107 13.7104 161.299 12.7769 161.403 12.1878L161.719 10.3521C161.808 9.944 161.756 10.0636 162.797 9.75423C163.127 10.1667 163.481 11.0146 163.765 11.4617C163.981 11.8028 164.615 12.8449 164.728 13.2217L163.917 13.4916L163.456 12.7182L162.12 13.0907L162.119 13.0912ZM157.185 11.3953C157.821 11.2329 158.795 10.7717 159.464 10.8676C159.885 10.928 160.109 11.205 160.16 11.5626C160.238 12.0952 160.004 12.3266 159.82 12.6113C160.185 12.8526 160.533 12.783 160.619 13.377C160.689 13.8585 160.407 14.3017 160.156 14.4811C159.881 14.6769 158.588 15.1277 158.141 15.2237C158.05 15.2434 158.047 15.2478 157.963 15.244C157.808 15.2369 157.883 15.2456 157.797 15.2023L157.185 11.3947V11.3953ZM155.564 13.7521C155.863 14.0944 156.102 14.2902 156.438 14.56C156.745 14.8063 157.052 15.0992 157.34 15.3592C157.144 15.5495 156.703 15.6647 156.401 15.7212C155.476 15.1146 155.129 14.175 154.769 14.5491C154.512 14.8677 154.956 15.7634 154.845 16.1463L154.103 16.415L153.498 12.5405L154.298 12.2608L154.562 13.7763C154.894 13.66 154.876 13.5382 155.028 13.1971C155.504 12.1346 155.613 11.7463 156.629 11.5949L155.564 13.7527L155.564 13.7521ZM164.949 11.4962L164.873 10.934C164.962 10.8709 164.939 10.8803 165.06 10.8232C165.126 10.792 165.222 10.7596 165.304 10.7355C165.591 10.651 166.389 10.3691 166.639 10.4749L166.724 11.0053C166.388 11.1797 165.316 11.5077 164.949 11.4962H164.949ZM168.851 8.76038L169.365 11.9114L168.661 12.1325C168.293 11.5072 168.287 9.86283 168.023 9.03571L166.862 9.33299L166.715 8.64794C167.051 8.44555 169.507 7.74788 169.914 7.71003L169.975 8.33804L169.451 8.58322C169.247 8.64574 169.064 8.70004 168.85 8.76038H168.851ZM179.065 9.06972L178.199 9.28637L178.883 5.11406C179.174 4.93416 179.618 4.81239 180.005 4.77016C180.203 5.45247 181.681 7.53122 181.835 8.18557L181.076 8.45432L180.6 7.68535C180.424 7.70948 179.622 7.92504 179.444 7.99798C179.131 8.12523 179.138 8.37973 179.065 9.06972ZM171.43 11.3075L171.36 10.7037C171.732 10.3751 172.283 10.2835 171.798 9.7268C171.67 9.58036 171.676 9.59462 171.554 9.42953C171.374 9.18435 171.274 9.04888 171.134 8.84375C170.841 8.41373 170.473 8.03967 170.241 7.65189C170.293 7.60362 170.278 7.60692 170.381 7.55097L171.058 7.34584C171.409 7.79011 171.808 8.58486 172.213 8.93095C172.764 8.01883 172.056 6.73208 173.539 6.65914C173.43 7.48241 173.067 8.48175 172.886 9.36151C172.664 10.4453 172.562 11.1748 171.43 11.3081V11.3075ZM174.537 6.35473C174.893 6.12437 176.718 5.58246 177.156 5.59563L177.741 9.40265L176.973 9.6204L176.399 6.4902L175.382 6.8171C175.465 8.2651 176.084 10.1519 174.318 10.4415L174.355 9.64837C174.369 9.63575 174.386 9.6204 174.4 9.60778C174.419 9.59023 174.526 9.50247 174.528 9.50028C174.628 9.40704 174.695 9.33793 174.736 9.17064C174.881 8.57663 174.51 7.07105 174.537 6.35528V6.35473ZM134.453 16.5088L134.459 23.632L190.908 7.00304L190.955 0L134.453 16.5088Z" fill="#FDFDFD"/>
<path fill-rule="evenodd" clip-rule="evenodd" d="M0 35.2228L4.41593 35.2584L4.44548 19.9771C5.56964 20.3221 11.1592 23.2242 11.5695 23.2154C11.9724 23.2072 18.1366 20.0775 18.6782 19.998L18.6804 35.237C19.5074 35.2793 22.5002 35.3517 23.1356 35.2151L23.1447 14.1128C22.0995 14.0113 20.4423 14.0069 19.3943 14.0771C18.427 14.1418 17.5262 14.732 16.7032 15.1296C16.1889 15.3781 11.6849 17.4815 11.5684 17.4843C11.3183 17.4914 7.06832 15.4236 6.42611 15.1406C5.70206 14.8219 4.54039 14.116 3.74871 14.0766C2.75697 14.0266 0.946838 13.9762 0.00227332 14.1045L0 35.2222L0 35.2228Z" fill="#FEFEFE"/>
<path fill-rule="evenodd" clip-rule="evenodd" d="M136.006 24.7372C135.726 27.2926 137.528 30.21 138.664 31.5543C139.927 33.0468 142.094 34.4514 144.806 35.001C153.106 36.6832 160.347 28.9556 157.241 20.5622C156.398 18.2838 156.242 18.7697 154.72 19.2332L143.483 22.5011C141.762 22.9804 137.494 24.1948 136.006 24.7367V24.7372Z" fill="#CC3231"/>
<path fill-rule="evenodd" clip-rule="evenodd" d="M171.836 31.2102C170.766 31.2596 166.668 31.349 165.754 31.2563L165.758 25.9058C166.806 25.716 171.138 25.8433 172.235 26.0155C172.896 26.2157 173.412 26.5097 173.713 26.9556C174.044 27.4476 174.204 28.1146 174.163 28.7843C174.075 30.1977 173.245 30.9563 171.836 31.2102ZM161.073 17.6462L161.055 35.2339C162.521 35.2849 171.023 35.3107 172.139 35.2119C173.853 35.06 175.152 34.6234 176.357 33.8495C178.867 32.237 179.461 28.5791 178.438 25.9683C177.992 24.8297 176.908 23.6801 175.827 23.0861C173.572 21.847 171.12 21.9699 168.573 21.9732C167.751 21.9743 166.526 22.0516 165.755 21.9672L165.727 18.0406C167.599 17.9841 169.547 18.0499 171.419 18.0471C172.474 18.0455 176.418 18.1722 177.144 17.9983L177.139 14.1134C173.407 13.696 172.004 14.4979 168.71 15.4216C167.423 15.7825 166.17 16.1691 164.883 16.5361C163.663 16.8838 162.285 17.3807 161.073 17.6462Z" fill="#FEFEFE"/>
<path fill-rule="evenodd" clip-rule="evenodd" d="M91.9303 35.2021C92.4554 35.3606 95.663 35.2476 96.4689 35.2405L96.4951 18.0719L106.113 18.0494C106.275 18.5551 106.168 28.9066 106.166 30.9245C106.165 32.2633 106.078 33.9274 106.182 35.2279C106.549 35.3107 108.935 35.2641 109.602 35.2575C109.88 35.2548 110.511 35.3003 110.702 35.1637L110.74 14.1118C107.83 13.8974 104.353 14.0575 101.38 14.0564C99.6101 14.0559 93.1777 13.9747 91.9359 14.1063L91.9297 35.2016L91.9303 35.2021Z" fill="#FEFEFE"/>
<path fill-rule="evenodd" clip-rule="evenodd" d="M36.3898 17.8963C43.7258 17.299 45.7848 25.4061 42.4914 29.0936C39.0956 32.8951 33.2861 31.8881 31.1986 27.9939C28.794 23.5078 31.8369 18.2671 36.3892 17.8963H36.3898ZM36.4074 14.0317C33.876 14.1365 30.9167 15.3618 29.3265 17.1542C28.4854 18.1025 28.6883 17.7345 27.8557 19.0075C27.4698 19.5972 27.2186 20.1445 26.9771 20.8247C25.7211 24.3564 26.1536 28.3904 28.532 31.2623C28.7463 31.5212 28.9463 31.6775 29.1617 31.9485C30.7303 33.9197 34.4705 35.665 38.0589 35.331C41.3507 35.0244 43.2751 33.9192 45.3904 31.8196C45.5467 31.6643 45.8428 31.2892 45.986 31.0983C46.1883 30.8285 46.3304 30.6036 46.5208 30.3189C46.8646 29.8039 47.188 29.1391 47.4262 28.5276C48.7782 25.0579 48.1684 20.9876 45.8479 18.0537C45.5899 17.7274 45.5433 17.6243 45.2262 17.3577C44.4629 16.7143 45.0051 17.0089 43.7712 16.0967C42.9051 15.4567 42.2458 15.0815 41.1285 14.6893C39.5536 14.1365 38.1743 13.9582 36.4068 14.0312L36.4074 14.0317Z" fill="#FDFDFD"/>
<path fill-rule="evenodd" clip-rule="evenodd" d="M76.6757 17.9396C80.6796 17.5008 83.752 20.105 84.2481 23.8231C84.7369 27.4848 82.1942 31.0818 78.4114 31.4388C74.2239 31.8337 71.1413 29.1687 70.7275 25.558C70.3036 21.8596 72.715 18.374 76.6751 17.9401L76.6757 17.9396ZM76.7325 14.0382C74.4984 14.1331 72.3512 14.958 70.7253 16.2173C70.1524 16.6605 69.8085 17.0757 69.3147 17.5222C67.687 18.9943 66.3468 22.5688 66.6117 25.5092C66.8237 27.8605 67.7887 30.3589 69.4522 31.9857L70.5207 32.9351C71.5363 33.6838 72.0927 34.1878 73.5925 34.699C77.2366 35.9413 81.2689 35.4603 84.2436 33.1501C84.3873 33.0388 84.4322 32.9729 84.5732 32.8605C85.5399 32.0904 86.1185 31.4207 86.792 30.3528C88.0303 28.3909 88.4896 26.2908 88.3736 23.9241C88.2401 21.2003 87.1597 19.3711 85.5672 17.4223C85.3183 17.1174 85.179 16.9737 84.867 16.7252C82.7284 15.0211 80.4727 13.8791 76.7319 14.0382H76.7325Z" fill="#FDFDFD"/>
<path fill-rule="evenodd" clip-rule="evenodd" d="M182.204 35.22L197.524 35.265L197.544 31.3104L186.781 31.2967L186.765 26.5282L196.432 26.5474L196.433 22.6202L186.778 22.5944L186.761 18.0579L197.378 18.0376L197.377 14.099C194.821 14.0787 192.3 14.054 189.764 14.0529C187.415 14.0518 184.49 13.9081 182.209 14.099L182.203 35.2205L182.204 35.22Z" fill="#FEFEFE"/>
<path fill-rule="evenodd" clip-rule="evenodd" d="M251.08 17.5647C254.641 17.0047 255.582 20.8989 255.742 23.9754C255.906 27.1303 255.288 31.2219 252.363 31.7545C248.697 32.422 247.661 28.4093 247.574 25.2725C247.51 22.9799 247.779 18.0841 251.08 17.5647ZM250.404 13.9518C249.001 14.0884 247.728 14.6791 246.843 15.2803C245.926 15.9034 245.106 16.9372 244.571 17.8823C243.335 20.0636 242.834 23.2481 243.074 25.9614C243.334 28.8986 244.091 31.1512 245.657 32.9815C248.025 35.7519 253.158 36.4451 256.455 34.0878C259.741 31.7386 260.381 27.3387 260.23 23.4675C260.081 19.6572 258.404 15.7191 254.792 14.4082C253.346 13.8833 252.007 13.7966 250.404 13.9524V13.9518Z" fill="#FDFDFD"/>
<path fill-rule="evenodd" clip-rule="evenodd" d="M119.998 24.3177C119.994 23.2646 120.007 22.2087 120.006 21.1551C120.004 20.413 119.922 18.688 120.061 18.0556C121.201 18.0167 124.294 17.9207 125.244 18.1774C126.584 18.5388 127.444 19.5848 127.465 21.1546C127.521 25.2737 122.559 24.174 119.998 24.3177H119.998ZM115.32 35.2182L119.967 35.2319L120.012 28.2678C123.422 28.1883 127.882 28.666 130.136 26.1671C130.359 25.9192 130.565 25.7892 130.786 25.5029C132.47 23.3238 132.569 19.6089 131.064 17.2987C129.981 15.6363 128.246 14.6221 126.018 14.2541C124.584 14.0171 116.696 13.9047 115.339 14.0994L115.32 35.2182Z" fill="#FEFEFE"/>
<path fill-rule="evenodd" clip-rule="evenodd" d="M283.754 14.1012L282.587 25.1214C282.874 25.2711 283.261 25.3144 283.587 25.3676C284.124 25.4554 286.61 25.9457 286.767 25.8733C287.014 25.6199 286.904 25.683 287.166 25.508C287.324 25.4027 287.458 25.2985 287.624 25.185C288.652 24.484 290.281 24.3211 291.459 24.7808C294.617 26.0137 294.473 31.5556 290.328 31.8754C288.227 32.0372 286.937 30.881 286.535 29.2421L282.19 29.2674C282.033 30.6572 282.932 31.9571 283.664 32.9285C284.24 33.6942 285.868 34.6019 286.947 34.9359C291.819 36.4421 298.006 34.2893 298.003 28.177C298.001 26.4098 297.527 24.891 296.474 23.613C295.924 22.945 296.243 23.2099 295.538 22.6888C292.965 20.7889 288.922 20.6084 286.904 23.0377C286.655 22.7722 286.816 22.3153 286.888 21.7433C287.027 20.6529 287.347 18.6558 287.345 17.7366L296.67 17.7536L296.682 14.1215C292.615 14.0316 287.657 13.9647 283.756 14.1012H283.754Z" fill="#FEFEFE"/>
<path fill-rule="evenodd" clip-rule="evenodd" d="M263.369 20.6053L267.607 20.6256C267.761 19.0926 268.24 18.1585 269.387 17.6501C270.845 17.0034 272.313 17.4104 273.257 18.1618C274.099 18.8315 274.413 20.3239 273.899 21.6266C273.235 23.3055 271.343 24.8379 270.011 26.0468L267.496 28.3499C267.371 28.4623 267.28 28.5276 267.163 28.6411L266.215 29.4814C266.045 29.6591 266.096 29.6465 265.915 29.8006L264.327 31.2437C263.532 31.8388 263.6 31.6035 263.609 32.9034C263.614 33.5012 263.515 34.7304 263.661 35.2065C264.211 35.3513 273.258 35.2482 275.139 35.2482C276.33 35.2482 277.803 35.3096 278.963 35.2191L278.969 31.5064L269.74 31.519C269.83 31.2354 269.821 31.3221 270.062 31.1307L274.375 27.1311C275.796 25.8406 277.682 23.7349 278.237 21.9436C279.889 16.609 274.744 12.9413 268.918 14.0959C267.543 14.3679 266.789 14.7393 265.762 15.4644C265.496 15.6525 265.572 15.658 265.37 15.8477C265.17 16.0364 265.152 15.9635 264.958 16.2114C264.186 17.197 263.213 18.8556 263.368 20.6069L263.369 20.6053Z" fill="#FDFDFD"/>
<path fill-rule="evenodd" clip-rule="evenodd" d="M224.567 20.5913L228.737 20.6297C229.099 19.0149 229.22 18.263 230.504 17.6629C231.782 17.0656 233.544 17.3645 234.381 18.1494C235.28 18.9935 235.578 20.1821 235.012 21.6317C234.462 23.0381 232.839 24.4685 231.716 25.4799C231.497 25.6774 231.348 25.8935 231.141 26.069L225.402 31.2121C224.625 31.8994 224.743 31.5576 224.745 32.9047C224.746 33.6199 224.695 34.5321 224.763 35.2226L240.029 35.2495L240.053 31.5006L230.951 31.5193C231.12 31.1589 232.152 30.2429 232.465 29.9413L234.049 28.4938C235.144 27.5263 236.099 26.4518 237.06 25.5271L237.751 24.7455C238.007 24.4296 238.148 24.214 238.375 23.8997C239.855 21.8511 240.141 19.0018 238.806 17.002C238.624 16.7299 238.342 16.3493 238.17 16.1683C235.67 13.5482 231.059 13.2926 227.833 14.8695C226.562 15.4909 225.475 16.7585 224.975 18.0502C224.734 18.671 224.449 19.9073 224.566 20.5902L224.567 20.5913Z" fill="#FDFDFD"/>
<path fill-rule="evenodd" clip-rule="evenodd" d="M48.5709 18.021C49.9764 18.1571 54.3377 17.845 55.2198 18.1061L55.2084 30.9236C55.2084 31.7935 55.097 34.5633 55.2635 35.2176L59.8215 35.2593L59.8193 18.0304L66.4551 18.0402C66.5557 17.7962 66.5415 14.5278 66.4829 14.1093C63.5811 13.9656 60.503 14.055 57.5823 14.0555C54.6298 14.0561 51.5171 13.9639 48.584 14.0895L48.5703 18.0205L48.5709 18.021Z" fill="#FEFEFE"/>
<path fill-rule="evenodd" clip-rule="evenodd" d="M201.355 35.2172L205.854 35.2375L205.884 18.0475L216.187 18.0337L216.2 14.1335C215.425 13.9327 207.066 14.049 205.1 14.0501C203.904 14.0507 202.51 13.9881 201.337 14.0891C201.218 15.6895 201.313 17.6811 201.315 19.3221C201.318 21.102 201.315 22.8823 201.314 24.6627C201.314 26.1529 201.2 34.491 201.355 35.2172Z" fill="#FEFEFE"/>
<path fill-rule="evenodd" clip-rule="evenodd" d="M134.453 12.4664L134.458 14.9346C135.009 14.8973 154.615 9.04823 154.692 8.99667L154.698 6.5625C154.145 6.60857 152.845 7.05723 152.241 7.23713C151.398 7.48779 150.528 7.71925 149.693 7.98252C145.694 9.24404 141.106 10.4853 136.973 11.7248C136.194 11.9585 135.158 12.1976 134.453 12.4658V12.4664Z" fill="#FDFDFD"/>
<path fill-rule="evenodd" clip-rule="evenodd" d="M147.087 15.1196C145.925 15.6582 146.464 18.1423 147.867 17.494C148.922 17.007 148.54 14.4472 147.087 15.1196Z" fill="#F9FDFD"/>
<path fill-rule="evenodd" clip-rule="evenodd" d="M171.84 31.211C170.464 30.7574 167.357 31.3673 165.964 30.9658L165.968 26.1024C166.799 25.984 168.228 26.0618 169.131 26.0558L171.574 26.1123C172.377 26.1732 172.112 26.2522 172.239 26.0169C171.142 25.8446 166.81 25.7168 165.761 25.9072L165.758 31.2576C166.671 31.3503 170.77 31.2609 171.84 31.2116L171.84 31.211Z" fill="#0B3C82"/>
<path fill-rule="evenodd" clip-rule="evenodd" d="M186.789 18.1808C186.983 18.8598 186.944 21.8359 186.81 22.5807C188.962 22.2615 195.314 22.6345 196.213 22.454C195.632 22.1524 190.622 22.2944 189.291 22.301C188.65 22.3043 187.547 22.4716 187.095 22.1485C186.936 21.7487 186.94 18.9366 187.041 18.3766C187.971 18.2115 193.181 18.3163 194.826 18.3146C195.274 18.3141 195.721 18.3174 196.17 18.3196C196.528 18.3212 197.162 18.4265 197.386 18.1808L186.79 18.1797L186.789 18.1808Z" fill="#124182"/>
<path fill-rule="evenodd" clip-rule="evenodd" d="M158.536 14.3657C160.166 14.2796 160.239 12.6194 158.386 13.3774C158.329 13.6922 158.408 14.0739 158.536 14.3657Z" fill="#FDFDFD"/>
<path fill-rule="evenodd" clip-rule="evenodd" d="M158.208 12.7766C158.957 12.6691 159.657 12.4376 159.25 11.7016C158.766 11.5869 158.472 11.6555 158.117 11.9297L158.208 12.776V12.7766Z" fill="#FDFDFD"/>
<path fill-rule="evenodd" clip-rule="evenodd" d="M162.195 12.3493L163.126 12.1075L162.505 10.8438C162.452 10.8975 162.448 10.8723 162.403 10.994L162.195 12.3493Z" fill="#F9FDFD"/>
<path fill-rule="evenodd" clip-rule="evenodd" d="M179.328 7.35716L180.286 7.09444L179.6 5.82031L179.328 7.35716Z" fill="#F6FBFC"/>
</svg>
