<svg width="24" height="21" viewBox="0 0 24 21" fill="none" xmlns="http://www.w3.org/2000/svg">
<path fill-rule="evenodd" clip-rule="evenodd" d="M10.6508 7.09432C10.6508 9.62141 10.8199 9.28984 10.0708 9.28883L7.96381 9.43506C7.36606 9.5229 5.11187 9.56454 4.38153 9.67066C3.90281 9.74022 3.90177 9.66253 3.481 9.11365C3.35623 8.95066 3.24712 8.8222 3.12549 8.67089L1.79427 6.98211H0.0579471L1.44711 10.3038C1.44711 10.9796 1.51341 10.8954 1.30459 11.2909L0.733474 12.4242C0.577382 12.7283 0.0240141 13.6844 0 13.9632C0.4594 13.9632 1.19757 14.0074 1.62304 13.9652C1.90964 13.9368 2.15709 13.5133 2.45622 13.1432C2.71255 12.8258 2.93703 12.54 3.20171 12.2353C3.40687 11.9992 3.79997 11.5676 3.93622 11.3173C4.53449 11.3173 5.09934 11.365 5.62348 11.4214L7.3598 11.5341C7.95493 11.5991 8.47959 11.5366 9.06323 11.6225C10.9854 11.9043 10.6503 11.0055 10.6503 13.6819C10.6503 14.1079 6.99019 20.4812 6.94582 21.0012H7.00898H7.44802C8.38249 20.9966 8.63046 20.9326 9.17913 20.2456C10.0154 19.1986 11.07 18.0684 11.899 17.0356C12.0358 16.865 12.1021 16.8046 12.2388 16.634C12.3986 16.4349 13.1138 15.4834 13.3132 15.4834H15.2813V14.8076H13.9501C14.0138 14.5745 16.2951 11.9291 16.3515 11.9073C16.4434 11.8723 17.9046 11.824 18.1192 11.8245L21.5824 11.6463C22.2522 11.5768 24.1399 11.1726 23.9916 10.5039C23.8189 9.726 21.5386 9.40764 20.6693 9.34163C20.4402 9.32437 20.0815 9.31066 19.8054 9.28121L16.352 9.09283C16.2393 9.05018 15.6008 8.29312 15.4734 8.14588C15.3836 8.04179 15.3904 8.02859 15.2954 7.925C15.0579 7.66554 13.8942 6.40987 13.8347 6.19306C15.488 6.19306 15.2818 6.37128 15.2818 5.51724L13.4275 5.46291C13.131 5.43397 12.7504 4.85208 12.5615 4.61649C12.0619 3.99449 11.5341 3.42581 11.024 2.79061L9.4793 0.971331C9.23916 0.720501 8.91758 0.245245 8.61845 0.119322C8.43991 0.0441745 8.21491 0.0121861 7.97007 0H7.01786H7.00481C7.31908 0.577823 7.60203 1.16174 7.9116 1.76393C8.22274 2.36917 8.47906 2.93989 8.83249 3.51416L9.76382 5.25422C9.91521 5.55126 10.6513 6.86126 10.6513 7.0933L10.6508 7.09432Z" fill="white"/>
</svg>
