<svg width="0" height="0" class="hidden">
    <symbol version="1.1" xmlns="http://www.w3.org/2000/svg" viewBox="0 0 448 448" id="arrow">
        <path fill="currentColor"  d="M84.786 147.742c7.29-7.29 19.109-7.29 26.399 0l112.801 112.801 112.801-112.801c7.289-7.29 19.11-7.29 26.398 0s7.289 19.109 0 26.399l-126 126.001c-7.289 7.289-19.109 7.289-26.399 0l-126-126.001c-7.29-7.29-7.29-19.109 0-26.399z"></path>
    </symbol>
    <symbol version="1.1" xmlns="http://www.w3.org/2000/svg" viewBox="0 0 448 448" id="edit">
        <path fill="currentColor"  d="M222.929 23.333c-43.089 0-76.858-0-103.206 3.542-26.968 3.626-48.249 11.192-64.952 27.895s-24.269 37.983-27.895 64.952c-3.542 26.348-3.542 60.116-3.542 103.206v2.143c0 43.090-0 76.858 3.542 103.206 3.626 26.968 11.192 48.25 27.895 64.953s37.983 24.269 64.952 27.895c26.348 3.541 60.116 3.541 103.206 3.541h2.143c43.090 0 76.858 0 103.206-3.541 26.968-3.627 48.25-11.193 64.953-27.895s24.269-37.985 27.895-64.953c3.541-26.348 3.541-60.116 3.541-103.206v-29.071c0-7.732-6.268-14-14-14s-14 6.268-14 14v28c0 44.393-0.030 76.279-3.293 100.546-3.207 23.863-9.309 38.25-19.943 48.884s-25.021 16.737-48.884 19.943c-24.267 3.263-56.153 3.293-100.546 3.293s-76.28-0.030-100.547-3.293c-23.863-3.207-38.251-9.309-48.884-19.943s-16.736-25.021-19.944-48.884c-3.262-24.267-3.292-56.153-3.292-100.546s0.030-76.28 3.292-100.547c3.209-23.863 9.31-38.251 19.944-48.884s25.020-16.736 48.884-19.944c24.266-3.262 56.153-3.292 100.547-3.292h28c7.732 0 14-6.268 14-14s-6.268-14-14-14h-29.071zM313.049 42.484c25.534-25.534 66.933-25.534 92.467 0s25.534 66.932 0 92.466l-124.098 124.099c-6.931 6.931-11.273 11.273-16.117 15.053-5.706 4.45-11.881 8.266-18.415 11.379-5.546 2.643-11.372 4.585-20.67 7.683l-54.218 18.073c-10.010 3.336-21.046 0.732-28.507-6.729s-10.066-18.497-6.73-28.508l18.073-54.217c3.099-9.298 5.040-15.124 7.684-20.67 3.113-6.533 6.929-12.708 11.38-18.414 3.779-4.845 8.121-9.187 15.052-16.117l124.098-124.097zM385.717 62.283c-14.599-14.599-38.269-14.599-52.868 0l-7.030 7.030c0.424 1.789 1.015 3.921 1.841 6.299 2.675 7.71 7.737 17.865 17.3 27.427s19.718 14.625 27.427 17.3c2.378 0.825 4.51 1.418 6.3 1.841l7.030-7.030c14.599-14.599 14.599-38.269 0-52.868zM356.629 144.239c-9.63-4.142-20.849-10.783-31.468-21.4-10.618-10.618-17.257-21.837-21.399-31.468l-94.367 94.367c-7.775 7.775-10.825 10.859-13.416 14.18-3.199 4.103-5.943 8.544-8.182 13.24-1.813 3.804-3.207 7.909-6.685 18.34l-8.062 24.186 19.266 19.266 24.186-8.062c10.431-3.478 14.536-4.872 18.34-6.685 4.697-2.238 9.137-4.982 13.24-8.182 3.321-2.591 6.405-5.641 14.179-13.416l94.367-94.367z"></path>
    </symbol>
    <symbol version="1.1" xmlns="http://www.w3.org/2000/svg" viewBox="0 0 448 448" id="calendar">
        <path fill="currentColor"  d="M317.333 261.333c10.31 0 18.667-8.357 18.667-18.667s-8.357-18.667-18.667-18.667c-10.31 0-18.667 8.357-18.667 18.667s8.357 18.667 18.667 18.667z"></path>
        <path fill="currentColor"  d="M317.333 336c10.31 0 18.667-8.357 18.667-18.667s-8.357-18.667-18.667-18.667c-10.31 0-18.667 8.357-18.667 18.667s8.357 18.667 18.667 18.667z"></path>
        <path fill="currentColor"  d="M242.667 242.667c0 10.31-8.357 18.667-18.667 18.667s-18.667-8.357-18.667-18.667c0-10.31 8.357-18.667 18.667-18.667s18.667 8.357 18.667 18.667z"></path>
        <path fill="currentColor"  d="M242.667 317.333c0 10.31-8.357 18.667-18.667 18.667s-18.667-8.357-18.667-18.667c0-10.31 8.357-18.667 18.667-18.667s18.667 8.357 18.667 18.667z"></path>
        <path fill="currentColor"  d="M130.667 261.333c10.309 0 18.667-8.357 18.667-18.667s-8.357-18.667-18.667-18.667c-10.309 0-18.667 8.357-18.667 18.667s8.358 18.667 18.667 18.667z"></path>
        <path fill="currentColor"  d="M130.667 336c10.309 0 18.667-8.357 18.667-18.667s-8.357-18.667-18.667-18.667c-10.309 0-18.667 8.357-18.667 18.667s8.358 18.667 18.667 18.667z"></path>
        <path fill="currentColor"  d="M130.667 32.667c-7.732 0-14 6.268-14 14v15.439c-4.852 0.37-9.447 0.835-13.795 1.419-21.885 2.943-39.599 9.142-53.568 23.111s-20.169 31.683-23.111 53.568c-2.859 21.265-2.859 48.436-2.859 82.742v39.439c-0 34.306-0 61.477 2.859 82.742 2.942 21.885 9.142 39.599 23.111 53.57 13.969 13.968 31.683 20.167 53.568 23.111 21.265 2.858 48.437 2.858 82.742 2.858h76.774c34.304 0 61.475 0 82.74-2.858 21.885-2.944 39.599-9.143 53.57-23.111 13.968-13.97 20.167-31.685 23.111-53.57 2.858-21.265 2.858-48.438 2.858-82.742v-39.441c0-34.304 0-61.475-2.858-82.74-2.944-21.886-9.143-39.599-23.111-53.568-13.97-13.969-31.685-20.169-53.57-23.111-4.347-0.585-8.943-1.050-13.795-1.419v-15.439c0-7.732-6.268-14-14-14s-14 6.268-14 14v14.238c-12.357-0.238-25.973-0.238-40.947-0.238h-76.775c-14.973 0-28.587 0-40.945 0.238v-14.238c0-7.732-6.268-14-14-14zM106.603 91.276c19.183-2.579 44.47-2.609 80.064-2.609h74.667c35.594 0 60.881 0.030 80.065 2.609 18.779 2.525 29.6 7.26 37.499 15.16s12.635 18.72 15.159 37.5c0.427 3.181 0.786 6.529 1.085 10.064h-342.283c0.299-3.535 0.657-6.884 1.084-10.064 2.525-18.781 7.26-29.6 15.16-37.5s18.72-12.635 37.5-15.16zM51.333 224c0-15.941 0.006-29.816 0.245-42h344.844c0.239 12.184 0.245 26.059 0.245 42v37.333c0 35.594-0.030 60.881-2.61 80.065-2.524 18.779-7.259 29.6-15.159 37.499s-18.721 12.635-37.499 15.159c-19.184 2.58-44.471 2.61-80.065 2.61h-74.667c-35.594 0-60.881-0.030-80.064-2.61-18.781-2.524-29.6-7.259-37.5-15.159s-12.635-18.721-15.16-37.499c-2.579-19.184-2.609-44.471-2.609-80.065v-37.333z"></path>
    </symbol>
    <symbol version="1.1" xmlns="http://www.w3.org/2000/svg" viewBox="0 0 448 448" id="star">
        <path fill="currentColor"  d="M210.793 61.751c-7.351 9.597-15.646 24.405-27.696 46.022l-6.117 10.973c-0.369 0.662-0.733 1.316-1.093 1.965-5.614 10.102-10.352 18.629-17.987 24.425-7.717 5.858-17.125 7.973-28.058 10.43-0.703 0.158-1.411 0.317-2.127 0.479l-11.879 2.688c-23.433 5.302-39.374 8.95-50.292 13.253-10.655 4.199-12.904 7.639-13.761 10.396-0.905 2.909-0.932 7.36 5.438 17.479 6.465 10.27 17.372 23.079 33.323 41.733l8.098 9.47c0.471 0.551 0.937 1.094 1.399 1.633 7.523 8.775 13.796 16.091 16.673 25.344 2.86 9.197 1.912 18.861 0.763 30.578-0.070 0.719-0.142 1.445-0.213 2.18l-1.225 12.634c-2.41 24.868-4.035 41.991-3.485 54.324 0.549 12.313 3.149 15.715 5.216 17.283 1.839 1.396 5.238 2.942 16.311-0.231 11.253-3.224 26.21-10.067 48.151-20.169l11.122-5.12c0.685-0.315 1.365-0.629 2.037-0.941 10.17-4.7 18.991-8.781 28.618-8.781s18.448 4.081 28.618 8.781c0.672 0.312 1.351 0.625 2.037 0.941l11.122 5.12c21.941 10.102 36.898 16.946 48.151 20.169 11.075 3.173 14.474 1.628 16.313 0.231 2.066-1.568 4.667-4.971 5.215-17.283 0.549-12.333-1.075-29.456-3.485-54.324l-1.225-12.634c-0.071-0.735-0.142-1.462-0.213-2.18-1.15-11.717-2.096-21.381 0.763-30.578 2.877-9.253 9.149-16.569 16.673-25.346 0.461-0.538 0.928-1.081 1.398-1.631l8.098-9.47c15.951-18.654 26.858-31.463 33.324-41.733 6.369-10.119 6.343-14.569 5.438-17.479-0.857-2.757-3.106-6.197-13.761-10.396-10.918-4.303-26.859-7.951-50.292-13.253l-11.879-2.688c-0.715-0.162-1.424-0.321-2.126-0.479-10.933-2.457-20.341-4.571-28.058-10.429-7.635-5.796-12.374-14.322-17.987-24.425-0.36-0.649-0.724-1.304-1.094-1.965l-6.117-10.973c-12.049-21.617-20.345-36.425-27.696-46.022-7.342-9.588-11.092-10.418-13.216-10.418s-5.874 0.83-13.216 10.418zM188.563 44.727c8.897-11.62 19.895-21.394 35.446-21.394s26.55 9.775 35.448 21.394c8.742 11.417 18.013 28.049 29.344 48.377l6.694 12.008c7.329 13.145 9.203 15.937 11.553 17.722 2.264 1.718 5.184 2.676 19.434 5.901l13.067 2.957c21.946 4.965 40.025 9.055 53.193 14.243 13.668 5.386 25.627 13.325 30.233 28.132 4.557 14.655-0.566 28.136-8.48 40.71-7.691 12.217-19.975 26.579-34.979 44.126l-8.857 10.358c-9.651 11.284-11.667 14.047-12.615 17.093-0.965 3.108-0.875 6.698 0.582 21.743l1.337 13.778c2.272 23.447 4.125 42.566 3.476 57.127-0.661 14.821-4.026 29.053-16.259 38.339-12.46 9.458-26.958 8.393-40.953 4.383-13.571-3.888-30.49-11.68-51.033-21.138l-12.24-5.635c-13.39-6.166-16.257-7.155-18.943-7.155s-5.553 0.989-18.943 7.155l-12.24 5.635c-20.543 9.458-37.461 17.25-51.032 21.138-13.996 4.010-28.493 5.075-40.954-4.383-12.232-9.287-15.598-23.518-16.258-38.339-0.649-14.562 1.204-33.682 3.477-57.127l1.335-13.778c1.458-15.045 1.549-18.635 0.583-21.743-0.948-3.046-2.964-5.809-12.614-17.093l-8.857-10.358c-15.005-17.545-27.289-31.909-34.98-44.126-7.915-12.574-13.037-26.055-8.48-40.71 4.605-14.807 16.565-22.746 30.233-28.132 13.167-5.189 31.246-9.279 53.191-14.243l13.067-2.957c14.251-3.224 17.171-4.183 19.433-5.901 2.351-1.785 4.226-4.577 11.553-17.722l6.694-12.009c11.331-20.328 20.602-36.96 29.346-48.377z"></path>
    </symbol>
    <symbol version="1.1" xmlns="http://www.w3.org/2000/svg" viewBox="0 0 448 448" id="users">
        <path fill="currentColor"  d="M168 23.333c-48.969 0-88.667 39.697-88.667 88.667s39.697 88.667 88.667 88.667c48.97 0 88.667-39.697 88.667-88.667s-39.697-88.667-88.667-88.667zM107.333 112c0-33.505 27.161-60.667 60.667-60.667s60.667 27.161 60.667 60.667-27.162 60.667-60.667 60.667c-33.506 0-60.667-27.161-60.667-60.667z"></path>
        <path fill="currentColor"  d="M280 42c-7.732 0-14 6.268-14 14s6.268 14 14 14c23.195 0 42 18.804 42 42s-18.805 42-42 42c-7.732 0-14 6.268-14 14s6.268 14 14 14c38.661 0 70-31.34 70-70s-31.339-70-70-70z"></path>
        <path fill="currentColor"  d="M68.659 252.381c26.121-14.926 61.274-23.714 99.341-23.714s73.22 8.788 99.342 23.714c25.725 14.7 45.325 37.141 45.325 64.953s-19.6 50.253-45.325 64.953c-26.122 14.926-61.275 23.714-99.342 23.714s-73.22-8.788-99.341-23.714c-25.725-14.7-45.325-37.141-45.325-64.953s19.6-50.253 45.325-64.953zM82.551 276.692c-21.567 12.324-31.217 27.214-31.217 40.641s9.651 28.317 31.217 40.641c21.171 12.098 51.352 20.026 85.449 20.026s64.279-7.928 85.449-20.026c21.567-12.324 31.218-27.214 31.218-40.641s-9.651-28.317-31.218-40.641c-21.17-12.098-51.35-20.026-85.449-20.026s-64.279 7.928-85.449 20.026z"></path>
        <path fill="currentColor"  d="M339 247.658c-7.553-1.656-15.019 3.123-16.675 10.675s3.123 15.019 10.675 16.675c14.791 3.244 26.611 8.814 34.414 15.198 7.812 6.391 10.586 12.635 10.586 17.793 0 4.68-2.251 10.173-8.458 15.939-6.251 5.807-15.855 11.172-28.245 14.903-7.405 2.229-11.599 10.037-9.371 17.442 2.231 7.403 10.039 11.598 17.442 9.369 15.355-4.624 29.085-11.775 39.23-21.2 10.19-9.468 17.401-21.92 17.401-36.454 0-16.143-8.852-29.643-20.854-39.463-12.012-9.83-28.192-16.942-46.146-20.879z"></path>
    </symbol>
    <symbol version="1.1" xmlns="http://www.w3.org/2000/svg" viewBox="0 0 448 448" id="location">
        <path fill="currentColor"  d="M60.667 189.342c0-91.448 72.894-166.008 163.333-166.008s163.333 74.56 163.333 166.008c0 44.149-12.581 91.553-34.825 132.507-22.213 40.902-54.671 76.446-95.273 95.424-21.091 9.858-45.381 9.858-66.472 0-40.603-18.978-73.059-54.522-95.273-95.424-22.242-40.955-34.824-88.359-34.824-132.507zM224 51.333c-74.509 0-135.333 61.553-135.333 138.008 0 39.146 11.249 81.986 31.429 119.144 20.207 37.206 48.763 67.641 82.523 83.421 13.58 6.347 29.182 6.347 42.762 0 33.761-15.781 62.317-46.215 82.523-83.421 20.181-37.158 31.429-79.998 31.429-119.144 0-76.455-60.823-138.008-135.333-138.008zM224 144.667c-23.195 0-42 18.804-42 42s18.805 42 42 42 42-18.805 42-42c0-23.196-18.805-42-42-42zM154 186.667c0-38.66 31.34-70 70-70s70 31.34 70 70c0 38.661-31.339 70-70 70s-70-31.339-70-70z"></path>
    </symbol>
    <symbol version="1.1" xmlns="http://www.w3.org/2000/svg" viewBox="0 0 448 448" id="play">
        <path fill="currentColor" d="M135.116 56.841c-29.612-16.103-65.116 5.136-65.116 37.119v260.106c0 31.984 35.503 53.222 65.116 37.119l239.156-130.052c29.86-16.238 29.86-58.002 0-74.239l-239.156-130.053zM42 93.96c0-54.227 59.112-87.482 106.492-61.718l239.156 130.052c49.358 26.841 49.358 96.594 0 123.435l-239.156 130.053c-47.379 25.764-106.492-7.49-106.492-61.718v-260.106z"></path>
    </symbol>
    <symbol version="1.1" xmlns="http://www.w3.org/2000/svg" viewBox="0 0 448 448" id="check">
        <path fill="currentColor" d="M195.726 312.319c-2.451 0.004-4.878-0.474-7.144-1.409-2.264-0.935-4.322-2.309-6.055-4.041l-79.184-79.203c-1.784-1.721-3.208-3.78-4.187-6.057-0.98-2.275-1.497-4.725-1.52-7.203s0.448-4.937 1.384-7.231c0.937-2.296 2.321-4.381 4.073-6.134 1.751-1.755 3.835-3.142 6.128-4.082 2.293-0.939 4.751-1.413 7.229-1.394 2.478 0.021 4.928 0.534 7.206 1.51s4.339 2.397 6.062 4.179l65.987 65.987 118.813-118.777c3.5-3.503 8.247-5.471 13.199-5.473s9.701 1.964 13.205 5.464c3.502 3.5 5.471 8.249 5.473 13.2s-1.964 9.701-5.464 13.204l-132.011 132.011c-1.734 1.732-3.791 3.106-6.055 4.041-2.266 0.935-4.693 1.413-7.142 1.409z"></path>
    </symbol>
    <symbol version="1.1" xmlns="http://www.w3.org/2000/svg" viewBox="0 0 448 448" id="phone">
        <path fill="currentColor" d="M84.861 53.346c23.304-24.426 61.676-20.078 81.19 7.399l24.139 33.991c15.878 22.357 14.478 53.603-4.37 73.358l-4.571 4.791c-0.2 0.611-0.684 2.533-0.147 6.184 1.211 8.224 7.725 25.666 35.071 54.331 27.339 28.653 44.005 35.513 51.916 36.792 3.586 0.581 5.46 0.039 6.041-0.174l7.812-8.187c16.755-17.562 42.5-20.843 63.245-8.956l36.575 20.957c31.319 17.946 39.23 62.821 13.573 89.716l-27.195 28.502c-8.568 8.981-20.091 16.47-34.154 17.853-34.63 3.403-115.384-0.941-200.232-89.871-79.216-83.029-94.417-155.434-96.341-191.108v0c-0.973-18.039 7.114-33.301 17.401-44.082l30.048-31.494zM143.063 78.885c-9.699-13.657-27.776-14.742-37.954-4.074l-30.048 31.494c-6.316 6.62-9.355 13.916-8.978 20.9 1.528 28.344 13.805 93.679 87.918 171.361 77.752 81.493 149.564 83.923 177.32 81.196 5.671-0.558 11.312-3.662 16.572-9.178l27.195-28.502c11.054-11.588 8.617-32.685-7.039-41.657l-36.575-20.957c-10.099-5.789-21.931-3.879-29.282 3.827l-8.719 9.139-10.125-10.733c10.125 10.733 10.11 10.746 10.097 10.761l-0.028 0.030-0.058 0.060-0.125 0.125-0.28 0.276c-0.202 0.192-0.431 0.405-0.693 0.633-0.519 0.454-1.159 0.967-1.923 1.506-1.533 1.083-3.558 2.261-6.1 3.259-5.186 2.037-12.023 3.13-20.5 1.758-16.595-2.682-38.577-14.607-67.809-45.246-29.224-30.63-40.632-53.695-43.202-71.155-1.314-8.929-0.266-16.139 1.689-21.609 0.959-2.681 2.087-4.812 3.124-6.424 0.517-0.804 1.009-1.477 1.443-2.023 0.217-0.273 0.42-0.515 0.605-0.726l0.263-0.294 0.12-0.13 0.057-0.061 0.028-0.029c0.014-0.014 0.028-0.029 10.151 10.703l-10.124-10.732 5.491-5.755c8.205-8.6 9.355-22.876 1.63-33.753l-24.14-33.991z"></path>
    </symbol>
    <symbol version="1.1" xmlns="http://www.w3.org/2000/svg" viewBox="0 0 448 448" id="mail">
        <path fill="currentColor" d="M185.613 60.667h76.773c34.306-0 61.477-0 82.742 2.859 21.885 2.942 39.599 9.142 53.57 23.111 13.968 13.969 20.167 31.683 23.111 53.568 2.858 21.265 2.858 48.436 2.858 82.742v2.106c0 34.306 0 61.477-2.858 82.742-2.944 21.885-9.143 39.599-23.111 53.57-13.97 13.968-31.685 20.167-53.57 23.111-21.265 2.858-48.436 2.858-82.742 2.858h-76.773c-34.305 0-61.477 0-82.742-2.858-21.885-2.944-39.599-9.143-53.568-23.111-13.969-13.97-20.169-31.685-23.111-53.57-2.859-21.265-2.859-48.436-2.859-82.742v-2.106c-0-34.306-0-61.477 2.859-82.742 2.942-21.885 9.142-39.599 23.111-53.568s31.683-20.169 53.568-23.111c21.265-2.859 48.437-2.859 82.742-2.859zM106.603 91.276c-18.781 2.525-29.6 7.26-37.5 15.16s-12.635 18.72-15.16 37.5c-2.579 19.183-2.609 44.471-2.609 80.064s0.030 60.881 2.609 80.065c2.525 18.779 7.26 29.6 15.16 37.499s18.72 12.635 37.5 15.159c19.183 2.58 44.47 2.61 80.064 2.61h74.667c35.594 0 60.881-0.030 80.065-2.61 18.779-2.524 29.6-7.259 37.499-15.159s12.635-18.721 15.159-37.499c2.58-19.184 2.61-44.471 2.61-80.065s-0.030-60.881-2.61-80.064c-2.524-18.781-7.259-29.6-15.159-37.5s-18.721-12.635-37.499-15.16c-19.184-2.579-44.471-2.609-80.065-2.609h-74.667c-35.594 0-60.881 0.030-80.064 2.609zM101.245 140.371c-4.95 5.94-4.147 14.768 1.792 19.718l41.001 34.168c16.545 13.787 29.956 24.963 41.791 32.575 12.33 7.93 24.336 12.94 38.17 12.94s25.84-5.010 38.17-12.94c11.837-7.612 25.247-18.788 41.791-32.575l41.001-34.168c5.94-4.95 6.742-13.778 1.794-19.718-4.95-5.94-13.778-6.742-19.718-1.792l-40.299 33.583c-17.416 14.513-29.506 24.556-39.715 31.121-9.88 6.356-16.582 8.49-23.023 8.49s-13.143-2.134-23.023-8.49c-10.209-6.565-22.299-16.608-39.715-31.121l-40.299-33.583c-5.94-4.95-14.768-4.148-19.718 1.792z"></path>
    </symbol>
    <symbol version="1.1" xmlns="http://www.w3.org/2000/svg" viewBox="0 0 448 448" id="arrowup">
        <path fill="currentColor" d="M210.808 74.33c7.29-7.29 19.11-7.29 26.4 0l126 126c7.289 7.29 7.289 19.108 0 26.398-7.29 7.29-19.11 7.29-26.4 0l-112.8-112.801-112.801 112.801c-7.29 7.29-19.109 7.29-26.399 0s-7.29-19.108 0-26.398l126-126z"></path>
        <path fill="currentColor" d="M224.008 86.353c10.308 0 18.666 8.358 18.666 18.667v255.509c0 10.31-8.358 18.667-18.666 18.667-10.31 0-18.667-8.358-18.667-18.667v-255.509c0-10.309 8.358-18.667 18.667-18.667z"></path>
    </symbol>
</svg>