<svg width="20" height="20" viewBox="0 0 20 20" fill="none" xmlns="http://www.w3.org/2000/svg">
<g clip-path="url(#clip0_187_949)">
<path d="M15.0064 0H4.99362C2.23572 0 0 2.23572 0 4.99362V15.0064C0 17.7643 2.23572 20 4.99362 20H15.0064C17.7643 20 20 17.7643 20 15.0064V4.99362C20 2.23572 17.7643 0 15.0064 0Z" fill="url(#paint0_linear_187_949)"/>
<path d="M15.0064 0H4.99362C2.23572 0 0 2.23572 0 4.99362V15.0064C0 17.7643 2.23572 20 4.99362 20H15.0064C17.7643 20 20 17.7643 20 15.0064V4.99362C20 2.23572 17.7643 0 15.0064 0Z" fill="url(#paint1_radial_187_949)"/>
<path fill-rule="evenodd" clip-rule="evenodd" d="M10.1642 17.5667C8.66407 17.5667 7.96693 17.3477 6.75515 16.4717C5.98865 17.4572 3.56143 18.2274 3.45557 16.9097C3.45557 15.9206 3.23657 15.0847 2.98837 14.1722C2.69273 13.048 2.35693 11.7961 2.35693 9.98208C2.35693 5.64956 5.91201 2.39014 10.1241 2.39014C14.3398 2.39014 17.643 5.81016 17.643 10.0222C17.6572 14.1691 14.3111 17.5446 10.1642 17.5667ZM10.2263 6.135C8.17499 6.02916 6.57629 7.449 6.22225 9.67548C5.93025 11.5187 6.44855 13.7634 6.89019 13.8802C7.10189 13.9313 7.63479 13.5006 7.96693 13.1685C8.51616 13.5479 9.15573 13.7758 9.82113 13.8291C11.9466 13.9314 13.7627 12.3133 13.9054 10.1901C13.9885 8.0625 12.352 6.26042 10.2263 6.13866V6.135Z" fill="white"/>
</g>
<defs>
<linearGradient id="paint0_linear_187_949" x1="2.35694" y1="15.2107" x2="20" y2="10" gradientUnits="userSpaceOnUse">
<stop stop-color="#44CCFF"/>
<stop offset="0.662" stop-color="#5533EE"/>
<stop offset="1" stop-color="#9933DD"/>
</linearGradient>
<radialGradient id="paint1_radial_187_949" cx="0" cy="0" r="1" gradientUnits="userSpaceOnUse" gradientTransform="translate(-0.475816 -8.78371) rotate(51.356) scale(24.2703 10)">
<stop stop-color="#0000FF"/>
<stop offset="1" stop-opacity="0"/>
</radialGradient>
<clipPath id="clip0_187_949">
<rect width="20" height="20" fill="white"/>
</clipPath>
</defs>
</svg>
