<svg width="24" height="24" viewBox="0 0 24 24" fill="none" xmlns="http://www.w3.org/2000/svg">
<path fill-rule="evenodd" clip-rule="evenodd" d="M4.54616 2.85781C5.79461 1.54928 7.85023 1.78219 8.89561 3.25415L10.1888 5.07509C11.0394 6.27278 10.9644 7.9467 9.9547 9.00497L9.70982 9.26162C9.69913 9.29437 9.67319 9.3973 9.70198 9.59292C9.76682 10.0335 10.1158 10.9679 11.5808 12.5035C13.0454 14.0385 13.9382 14.406 14.362 14.4745C14.5541 14.5056 14.6545 14.4766 14.6856 14.4652L15.1041 14.0266C16.0017 13.0858 17.3809 12.91 18.4922 13.5468L20.4516 14.6695C22.1294 15.6309 22.5532 18.0349 21.1787 19.4757L19.7218 21.0026C19.2628 21.4837 18.6455 21.8849 17.8921 21.959C16.0369 22.1413 11.7108 21.9086 7.16536 17.1445C2.92165 12.6965 2.10729 8.81769 2.00425 6.90657L2.77219 6.86056L2.00425 6.90656C1.95215 5.94019 2.38537 5.12259 2.93643 4.54501L4.54616 2.85781ZM7.66412 4.22596C7.14454 3.49436 6.17611 3.43619 5.63084 4.00771L4.02111 5.69491C3.68275 6.04955 3.51995 6.44038 3.54013 6.81456C3.62199 8.33301 4.27969 11.8331 8.25004 15.9946C12.4153 20.3603 16.2624 20.4905 17.7493 20.3444C18.0531 20.3145 18.3553 20.1482 18.6371 19.8527L20.094 18.3258C20.6862 17.705 20.5556 16.5748 19.7169 16.0942L17.7575 14.9715C17.2165 14.6614 16.5826 14.7637 16.1888 15.1765L15.7217 15.6661L15.1793 15.0911C15.7217 15.6661 15.7209 15.6668 15.7202 15.6676L15.7187 15.6692L15.7156 15.6724L15.7089 15.6791L15.6939 15.6939C15.6831 15.7042 15.6708 15.7156 15.6568 15.7278C15.629 15.7521 15.5947 15.7796 15.5538 15.8085C15.4717 15.8665 15.3632 15.9296 15.227 15.9831C14.9492 16.0922 14.5829 16.1508 14.1288 16.0773C13.2398 15.9336 12.0622 15.2948 10.4962 13.6534C8.93065 12.0125 8.31949 10.7769 8.18181 9.84152C8.11142 9.3632 8.16757 8.97694 8.2723 8.68391C8.32364 8.5403 8.38413 8.42611 8.43964 8.33975C8.46733 8.29667 8.49368 8.26066 8.51693 8.23141C8.52856 8.21679 8.53942 8.20383 8.54931 8.19252L8.56339 8.17675L8.56984 8.16976L8.57291 8.16649L8.5744 8.16492C8.57514 8.16414 8.57587 8.16337 9.11821 8.73832L8.57587 8.16337L8.87002 7.85507C9.30958 7.39436 9.37115 6.62956 8.95734 6.0469L7.66412 4.22596Z" fill="white"/>
</svg>
