<svg width="40" height="40" viewBox="0 0 40 40" fill="none" xmlns="http://www.w3.org/2000/svg">
<path fill-rule="evenodd" clip-rule="evenodd" d="M20 40C31.0457 40 40 31.0457 40 20C40 8.9543 31.0457 0 20 0C8.9543 0 0 8.9543 0 20C0 31.0457 8.9543 40 20 40Z" fill="url(#paint0_linear_0_785)"/>
<path d="M10.302 19.3713C12.348 18.2443 14.632 17.3036 16.766 16.3582C20.4373 14.8097 24.1232 13.2879 27.8463 11.8712C28.5707 11.6299 29.8723 11.3938 29.9999 12.4673C29.93 13.9868 29.6425 15.4974 29.4453 17.0081C28.9449 20.3301 28.3664 23.6407 27.8023 26.9518C27.6079 28.0547 26.2263 28.6256 25.3423 27.9198C23.2177 26.4848 21.0769 25.0637 18.9795 23.5953C18.2924 22.8972 18.9295 21.8947 19.5431 21.3961C21.293 19.6717 23.1487 18.2066 24.8071 16.393C25.2544 15.3128 23.9326 16.2231 23.4967 16.5021C21.1011 18.1529 18.7642 19.9045 16.2386 21.3553C14.9485 22.0655 13.4449 21.4586 12.1554 21.0623C10.9992 20.5836 9.30504 20.1012 10.302 19.3713Z" fill="white"/>
<defs>
<linearGradient id="paint0_linear_0_785" x1="26.6683" y1="6.668" x2="16.6683" y2="30" gradientUnits="userSpaceOnUse">
<stop stop-color="#37AEE2"/>
<stop offset="1" stop-color="#1E96C8"/>
</linearGradient>
</defs>
</svg>
