<svg width="0" height="0" class="hidden">
  <symbol version="1.1" xmlns="http://www.w3.org/2000/svg" viewBox="0 0 523 448" id="arrow-right">
    <path fill="currentColor" d="M522.599 223.513c-0.134-8.243-4.084-15.976-10.726-20.996l-192.705-194.306c-5.091-5.129-12.043-8.058-19.331-8.144-7.284-0.087-14.311 2.677-19.524 7.683-5.215 5.006-8.195 11.843-8.282 19.011s2.723 14.072 7.813 19.2l149.737 150.966h-400.993c-7.349-0.104-14.439 2.699-19.672 7.773-5.238 5.079-8.184 12.006-8.185 19.236s2.947 14.162 8.186 19.237c5.232 5.077 12.323 7.877 19.671 7.777h400.994l-149.737 150.964c-5.091 5.13-7.9 12.036-7.813 19.204 0.088 7.164 3.063 14.004 8.281 19.010 5.215 5.003 12.237 7.769 19.525 7.683 7.288-0.090 14.241-3.020 19.331-8.15l192.81-194.4c6.813-5.204 10.752-13.254 10.621-21.737v-0.010z"></path>
  </symbol>
  <symbol version="1.1" xmlns="http://www.w3.org/2000/svg" viewBox="0 0 448 448" id="top-chevron">
    <path fill="currentColor" d="M442.526 339.858c-7.3 7.297-19.096 7.297-26.393 0l-192.134-192.133-192.132 192.133c-7.298 7.297-19.096 7.297-26.394 0-7.298-7.3-7.298-19.096 0-26.396l205.329-205.328c3.64-3.64 8.418-5.47 13.198-5.47s9.557 1.83 13.197 5.47l205.328 205.328c7.297 7.3 7.297 19.096 0 26.396z"></path>
  </symbol>
  <symbol version="1.1" xmlns="http://www.w3.org/2000/svg" viewBox="0 0 656 448" id="yt">
    <path fill="currentColor" d="M642.251 70.117c-7.375-27.418-28.992-49.032-56.406-56.414-50.081-13.703-250.414-13.703-250.414-13.703s-200.325 0-250.407 13.184c-26.887 7.375-49.031 29.519-56.406 56.934-13.18 50.078-13.18 153.934-13.18 153.934s0 104.379 13.18 153.934c7.383 27.414 28.992 49.027 56.41 56.409 50.606 13.707 250.411 13.707 250.411 13.707s200.325 0 250.406-13.184c27.418-7.379 49.032-28.992 56.414-56.406 13.176-50.082 13.176-153.933 13.176-153.933s0.526-104.384-13.184-154.462zM271.649 319.997v-191.891l166.586 95.946-166.586 95.945z"></path>
  </symbol>
  <symbol version="1.1" xmlns="http://www.w3.org/2000/svg" viewBox="0 0 448 448" id="insta">
    <path fill="currentColor" d="M447.562 131.713c-1.050-23.804-4.899-40.169-10.413-54.349-5.688-15.052-14.44-28.528-25.907-39.732-11.203-11.377-24.768-20.218-39.646-25.818-14.263-5.514-30.542-9.364-54.346-10.413-23.982-1.138-31.595-1.402-92.42-1.402s-68.438 0.263-92.33 1.313c-23.804 1.050-40.169 4.902-54.346 10.413-15.056 5.688-28.532 14.44-39.735 25.907-11.377 11.203-20.214 24.768-25.817 39.646-5.514 14.266-9.364 30.542-10.413 54.346-1.138 23.982-1.402 31.595-1.402 92.419s0.263 68.438 1.313 92.33c1.050 23.804 4.902 40.169 10.416 54.349 5.688 15.053 14.526 28.528 25.903 39.732 11.203 11.377 24.768 20.217 39.646 25.817 14.266 5.515 30.542 9.364 54.35 10.414 23.89 1.053 31.506 1.313 92.33 1.313s68.438-0.26 92.33-1.313c23.804-1.050 40.169-4.899 54.346-10.414 30.108-11.64 53.912-35.445 65.552-65.549 5.51-14.266 9.363-30.545 10.414-54.349 1.050-23.893 1.312-31.506 1.312-92.33s-0.090-68.438-1.139-92.33zM407.218 314.624c-0.963 21.879-4.639 33.694-7.702 41.571-7.528 19.517-23.017 35.007-42.534 42.534-7.877 3.063-19.777 6.738-41.571 7.699-23.628 1.053-30.716 1.313-90.49 1.313-59.776 0-66.952-0.26-90.495-1.313-21.879-0.961-33.695-4.636-41.571-7.699-9.713-3.59-18.553-9.278-25.728-16.717-7.439-7.264-13.128-16.016-16.717-25.728-3.063-7.876-6.738-19.78-7.699-41.57-1.053-23.63-1.313-30.72-1.313-90.495 0-59.776 0.26-66.952 1.313-90.492 0.961-21.879 4.636-33.694 7.699-41.571 3.59-9.716 9.278-18.553 16.806-25.732 7.261-7.439 16.013-13.128 25.728-16.714 7.877-3.063 19.78-6.738 41.57-7.702 23.63-1.050 30.72-1.313 90.492-1.313 59.864 0 66.95 0.263 90.495 1.313 21.879 0.964 33.694 4.639 41.57 7.702 9.713 3.586 18.554 9.275 25.728 16.714 7.439 7.265 13.128 16.016 16.717 25.732 3.063 7.876 6.739 19.777 7.702 41.571 1.050 23.63 1.313 30.716 1.313 90.492 0 59.774-0.263 66.776-1.313 90.405z"></path>
    <path fill="currentColor" d="M224.832 108.959c-63.535 0-115.085 51.547-115.085 115.085s51.55 115.084 115.085 115.084c63.539 0 115.084-51.546 115.084-115.084s-51.546-115.085-115.084-115.085zM224.832 298.697c-41.22 0-74.654-33.431-74.654-74.652s33.434-74.654 74.654-74.654c41.222 0 74.652 33.431 74.652 74.654 0 41.222-33.431 74.652-74.652 74.652z"></path>
    <path fill="currentColor" d="M371.34 104.409c0 14.837-12.030 26.867-26.87 26.867-14.838 0-26.868-12.030-26.868-26.867 0-14.84 12.030-26.867 26.868-26.867 14.84 0 26.87 12.027 26.87 26.867z"></path>
  </symbol>
  <symbol version="1.1" xmlns="http://www.w3.org/2000/svg" viewBox="0 0 448 448" id="profile">
    <path fill="transparent" d="M224 16c-114.691 0-208 93.309-208 208 0 50.232 17.902 96.36 47.66 132.344 0.076 0.104 0.083 0.235 0.166 0.333 21.486 25.909 48.471 45.773 78.541 58.606 0.347 0.146 0.686 0.306 1.033 0.451 2.434 1.026 4.895 1.976 7.363 2.905 0.971 0.366 1.941 0.741 2.926 1.094 2.128 0.763 4.271 1.485 6.428 2.177 1.379 0.443 2.758 0.88 4.152 1.296 1.907 0.57 3.821 1.117 5.749 1.637 1.691 0.458 3.397 0.88 5.103 1.29 1.726 0.416 3.459 0.832 5.2 1.2 1.941 0.416 3.904 0.782 5.872 1.144 1.581 0.291 3.155 0.595 4.75 0.853 2.184 0.353 4.381 0.63 6.586 0.915 1.422 0.179 2.837 0.387 4.264 0.541 2.496 0.262 5.013 0.45 7.538 0.624 1.171 0.083 2.336 0.208 3.515 0.27 3.682 0.208 7.405 0.318 11.155 0.318s7.474-0.11 11.17-0.306c1.179-0.063 2.344-0.187 3.515-0.27 2.523-0.179 5.040-0.36 7.536-0.624 1.429-0.152 2.843-0.36 4.264-0.541 2.205-0.283 4.403-0.562 6.587-0.915 1.587-0.256 3.168-0.562 4.749-0.853 1.963-0.36 3.925-0.728 5.873-1.144 1.739-0.375 3.465-0.782 5.2-1.198 1.706-0.416 3.411-0.84 5.103-1.29 1.928-0.514 3.842-1.069 5.747-1.637 1.393-0.416 2.774-0.853 4.154-1.296 2.157-0.694 4.299-1.414 6.427-2.177 0.978-0.353 1.949-0.728 2.926-1.096 2.475-0.928 4.93-1.885 7.363-2.904 0.346-0.146 0.686-0.306 1.032-0.451 30.064-12.834 57.054-32.697 78.541-58.608 0.083-0.096 0.091-0.235 0.166-0.333 29.744-35.997 47.646-82.125 47.646-132.357 0-114.691-93.309-208-208-208zM308.288 398.859c-0.104 0.048-0.2 0.104-0.304 0.152-2.475 1.192-4.992 2.315-7.53 3.411-0.576 0.243-1.144 0.493-1.72 0.735-2.219 0.93-4.466 1.81-6.725 2.656-0.944 0.353-1.887 0.701-2.837 1.034-2.003 0.714-4.014 1.4-6.045 2.051-1.262 0.403-2.531 0.784-3.8 1.159-1.803 0.541-3.613 1.061-5.443 1.546-1.539 0.41-3.091 0.784-4.645 1.152-1.629 0.387-3.251 0.782-4.894 1.13-1.797 0.381-3.606 0.707-5.408 1.034-1.464 0.27-2.92 0.553-4.397 0.791-2.030 0.318-4.083 0.574-6.128 0.832-1.298 0.166-2.587 0.36-3.898 0.499-2.336 0.25-4.693 0.408-7.043 0.574-1.048 0.070-2.088 0.187-3.149 0.243-3.432 0.181-6.87 0.277-10.323 0.277s-6.891-0.096-10.317-0.277c-1.054-0.056-2.094-0.166-3.147-0.243-2.359-0.158-4.709-0.325-7.045-0.574-1.31-0.139-2.6-0.333-3.896-0.499-2.046-0.258-4.098-0.514-6.13-0.832-1.477-0.237-2.933-0.52-4.395-0.791-1.81-0.326-3.619-0.659-5.408-1.034-1.643-0.347-3.274-0.742-4.896-1.13-1.552-0.375-3.106-0.742-4.645-1.152-1.824-0.485-3.64-1.011-5.443-1.546-1.269-0.375-2.538-0.755-3.798-1.159-2.032-0.651-4.049-1.337-6.046-2.051-0.95-0.341-1.893-0.686-2.836-1.034-2.26-0.847-4.507-1.726-6.725-2.656-0.575-0.235-1.137-0.485-1.712-0.728-2.538-1.088-5.054-2.218-7.536-3.411-0.104-0.048-0.201-0.096-0.305-0.152-24.19-11.704-45.559-28.315-62.899-48.491 13.402-49.352 51.341-89.136 100.152-104.965 0.963 0.59 1.97 1.117 2.96 1.672 0.582 0.325 1.159 0.672 1.747 0.984 2.067 1.096 4.16 2.121 6.302 3.043 1.643 0.721 3.343 1.331 5.033 1.955 0.333 0.119 0.665 0.25 0.998 0.368 9.401 3.328 19.462 5.235 29.987 5.235s20.586-1.907 29.979-5.235c0.333-0.119 0.665-0.25 0.998-0.368 1.693-0.624 3.39-1.234 5.033-1.955 2.142-0.922 4.237-1.947 6.302-3.043 0.59-0.318 1.165-0.659 1.747-0.984 0.992-0.555 2.005-1.082 2.975-1.678 48.811 15.835 86.744 55.619 100.152 104.963-17.339 20.17-38.709 36.782-62.899 48.493zM147.733 168.533c0-42.050 34.216-76.266 76.267-76.266s76.267 34.216 76.267 76.266c0 26.749-13.874 50.288-34.778 63.906-2.733 1.775-5.574 3.362-8.495 4.749-0.346 0.166-0.686 0.339-1.032 0.499-20.080 9.131-43.846 9.131-63.926 0-0.346-0.16-0.693-0.333-1.032-0.499-2.926-1.387-5.761-2.975-8.495-4.749-20.904-13.618-34.777-37.157-34.777-63.906zM381.587 337.173c-15.717-46.411-51.576-83.922-97.392-101.739 18.325-16.509 29.938-40.346 29.938-66.901 0-49.698-40.435-90.133-90.133-90.133s-90.133 40.435-90.133 90.133c0 26.555 11.613 50.392 29.945 66.901-45.815 17.826-81.674 55.328-97.392 101.739-22.97-31.886-36.553-70.963-36.553-113.173 0-107.044 87.090-194.133 194.133-194.133s194.133 87.090 194.133 194.133c0 42.21-13.582 81.286-36.546 113.173z"></path>
    <path fill="none" stroke-linejoin="miter" stroke-linecap="butt" stroke-miterlimit="4" stroke-width="11.2" stroke="currentColor" d="M224 16c-114.691 0-208 93.309-208 208 0 50.232 17.902 96.36 47.66 132.344 0.076 0.104 0.083 0.235 0.166 0.333 21.486 25.909 48.471 45.773 78.541 58.606 0.347 0.146 0.686 0.306 1.033 0.451 2.434 1.026 4.895 1.976 7.363 2.905 0.971 0.366 1.941 0.741 2.926 1.094 2.128 0.763 4.271 1.485 6.428 2.177 1.379 0.443 2.758 0.88 4.152 1.296 1.907 0.57 3.821 1.117 5.749 1.637 1.691 0.458 3.397 0.88 5.103 1.29 1.726 0.416 3.459 0.832 5.2 1.2 1.941 0.416 3.904 0.782 5.872 1.144 1.581 0.291 3.155 0.595 4.75 0.853 2.184 0.353 4.381 0.63 6.586 0.915 1.422 0.179 2.837 0.387 4.264 0.541 2.496 0.262 5.013 0.45 7.538 0.624 1.171 0.083 2.336 0.208 3.515 0.27 3.682 0.208 7.405 0.318 11.155 0.318s7.474-0.11 11.17-0.306c1.179-0.063 2.344-0.187 3.515-0.27 2.523-0.179 5.040-0.36 7.536-0.624 1.429-0.152 2.843-0.36 4.264-0.541 2.205-0.283 4.403-0.562 6.587-0.915 1.587-0.256 3.168-0.562 4.749-0.853 1.963-0.36 3.925-0.728 5.873-1.144 1.739-0.375 3.465-0.782 5.2-1.198 1.706-0.416 3.411-0.84 5.103-1.29 1.928-0.514 3.842-1.069 5.747-1.637 1.393-0.416 2.774-0.853 4.154-1.296 2.157-0.694 4.299-1.414 6.427-2.177 0.978-0.353 1.949-0.728 2.926-1.096 2.475-0.928 4.93-1.885 7.363-2.904 0.346-0.146 0.686-0.306 1.032-0.451 30.064-12.834 57.054-32.697 78.541-58.608 0.083-0.096 0.091-0.235 0.166-0.333 29.744-35.997 47.646-82.125 47.646-132.357 0-114.691-93.309-208-208-208zM308.288 398.859c-0.104 0.048-0.2 0.104-0.304 0.152-2.475 1.192-4.992 2.315-7.53 3.411-0.576 0.243-1.144 0.493-1.72 0.735-2.219 0.93-4.466 1.81-6.725 2.656-0.944 0.353-1.887 0.701-2.837 1.034-2.003 0.714-4.014 1.4-6.045 2.051-1.262 0.403-2.531 0.784-3.8 1.159-1.803 0.541-3.613 1.061-5.443 1.546-1.539 0.41-3.091 0.784-4.645 1.152-1.629 0.387-3.251 0.782-4.894 1.13-1.797 0.381-3.606 0.707-5.408 1.034-1.464 0.27-2.92 0.553-4.397 0.791-2.030 0.318-4.083 0.574-6.128 0.832-1.298 0.166-2.587 0.36-3.898 0.499-2.336 0.25-4.693 0.408-7.043 0.574-1.048 0.070-2.088 0.187-3.149 0.243-3.432 0.181-6.87 0.277-10.323 0.277s-6.891-0.096-10.317-0.277c-1.054-0.056-2.094-0.166-3.147-0.243-2.359-0.158-4.709-0.325-7.045-0.574-1.31-0.139-2.6-0.333-3.896-0.499-2.046-0.258-4.098-0.514-6.13-0.832-1.477-0.237-2.933-0.52-4.395-0.791-1.81-0.326-3.619-0.659-5.408-1.034-1.643-0.347-3.274-0.742-4.896-1.13-1.552-0.375-3.106-0.742-4.645-1.152-1.824-0.485-3.64-1.011-5.443-1.546-1.269-0.375-2.538-0.755-3.798-1.159-2.032-0.651-4.049-1.337-6.046-2.051-0.95-0.341-1.893-0.686-2.836-1.034-2.26-0.847-4.507-1.726-6.725-2.656-0.575-0.235-1.137-0.485-1.712-0.728-2.538-1.088-5.054-2.218-7.536-3.411-0.104-0.048-0.201-0.096-0.305-0.152-24.19-11.704-45.559-28.315-62.899-48.491 13.402-49.352 51.341-89.136 100.152-104.965 0.963 0.59 1.97 1.117 2.96 1.672 0.582 0.325 1.159 0.672 1.747 0.984 2.067 1.096 4.16 2.121 6.302 3.043 1.643 0.721 3.343 1.331 5.033 1.955 0.333 0.119 0.665 0.25 0.998 0.368 9.401 3.328 19.462 5.235 29.987 5.235s20.586-1.907 29.979-5.235c0.333-0.119 0.665-0.25 0.998-0.368 1.693-0.624 3.39-1.234 5.033-1.955 2.142-0.922 4.237-1.947 6.302-3.043 0.59-0.318 1.165-0.659 1.747-0.984 0.992-0.555 2.005-1.082 2.975-1.678 48.811 15.835 86.744 55.619 100.152 104.963-17.339 20.17-38.709 36.782-62.899 48.493zM147.733 168.533c0-42.050 34.216-76.266 76.267-76.266s76.267 34.216 76.267 76.266c0 26.749-13.874 50.288-34.778 63.906-2.733 1.775-5.574 3.362-8.495 4.749-0.346 0.166-0.686 0.339-1.032 0.499-20.080 9.131-43.846 9.131-63.926 0-0.346-0.16-0.693-0.333-1.032-0.499-2.926-1.387-5.761-2.975-8.495-4.749-20.904-13.618-34.777-37.157-34.777-63.906zM381.587 337.173c-15.717-46.411-51.576-83.922-97.392-101.739 18.325-16.509 29.938-40.346 29.938-66.901 0-49.698-40.435-90.133-90.133-90.133s-90.133 40.435-90.133 90.133c0 26.555 11.613 50.392 29.945 66.901-45.815 17.826-81.674 55.328-97.392 101.739-22.97-31.886-36.553-70.963-36.553-113.173 0-107.044 87.090-194.133 194.133-194.133s194.133 87.090 194.133 194.133c0 42.21-13.582 81.286-36.546 113.173z"></path>
  </symbol>
  <symbol version="1.1" xmlns="http://www.w3.org/2000/svg" viewBox="0 0 448 448" id="language">
    <path fill="currentColor" d="M224 448c59.408 0 116.383-23.599 158.392-65.608s65.608-98.984 65.608-158.392c0-59.409-23.599-116.384-65.608-158.392s-98.984-65.608-158.392-65.608c-59.409 0-116.384 23.6-158.392 65.608s-65.608 98.984-65.608 158.392c0 59.408 23.6 116.383 65.608 158.392s98.984 65.608 158.392 65.608zM224 28c18.396 0 39.396 16.52 56.617 53.424 6.076 13.048 11.367 28.056 15.651 44.576h-144.536c4.284-16.52 9.576-31.528 15.68-44.576 17.164-36.904 38.163-53.424 56.588-53.424zM142.016 69.58c-8.268 18.111-14.676 37.014-19.124 56.42h-68.684c23.635-40.859 61.184-71.848 105.784-87.304-6.748 9.24-12.768 19.712-17.976 30.884zM117.376 154c-3.62 23.156-5.418 46.563-5.376 70 0 24.359 1.876 47.936 5.404 70h-76.524c-8.529-22.352-12.895-46.077-12.88-70 0-24.64 4.564-48.272 12.88-70h76.496zM122.892 322c4.928 20.804 11.396 39.817 19.124 56.42 5.208 11.172 11.228 21.644 17.976 30.883-44.6-15.454-82.149-46.444-105.784-87.303h68.684zM151.732 322h144.536c-3.865 15.302-9.114 30.223-15.68 44.576-17.164 36.905-38.163 53.424-56.588 53.424s-39.396-16.519-56.616-53.424c-6.548-14.355-11.805-29.275-15.652-44.576zM302.26 294h-156.492c-3.874-23.131-5.803-46.547-5.768-70 0-24.724 2.044-48.3 5.768-70h156.463c3.725 21.7 5.769 45.276 5.769 70s-2.044 48.3-5.769 70zM325.108 322h68.684c-23.636 40.859-61.183 71.849-105.783 87.303 6.748-9.239 12.768-19.71 17.975-30.883 7.728-16.604 14.196-35.616 19.124-56.42zM407.148 294h-76.551c3.527-22.064 5.404-45.641 5.404-70s-1.876-47.936-5.404-70h76.524c8.316 21.728 12.88 45.36 12.88 70s-4.537 48.272-12.852 70zM287.98 38.696c44.611 15.45 82.17 46.44 105.812 87.304h-68.713c-4.447-19.406-10.855-38.309-19.123-56.42-4.981-10.851-11-21.194-17.977-30.884z"></path>
  </symbol>
  <symbol version="1.1" xmlns="http://www.w3.org/2000/svg" viewBox="0 0 396 448" id="shop">
    <path  fill="currentColor" d="M396.234 433.275l-34.801-324.252c-0.731-6.788-6.579-11.942-13.556-11.942h-65.412v-14.591c0-45.483-37.823-82.489-84.31-82.489-46.49 0-84.314 37.006-84.314 82.489v14.591h-65.411c-6.976 0-12.824 5.154-13.555 11.942l-34.802 324.252c-0.402 3.756 0.845 7.507 3.427 10.316 2.585 2.807 6.267 4.41 10.128 4.41h369.046c3.865 0 7.547-1.603 10.128-4.41 2.588-2.809 3.832-6.56 3.43-10.316zM141.097 82.489c0-30.779 25.596-55.822 57.058-55.822 31.458 0 57.054 25.043 57.054 55.822v14.592h-114.113v-14.592zM28.762 421.334l31.941-297.586h53.139v29.384c0 7.362 6.103 13.333 13.628 13.333s13.628-5.971 13.628-13.333v-29.384h114.113v29.384c0 7.362 6.103 13.333 13.628 13.333s13.628-5.971 13.628-13.333v-29.384h53.14l31.941 297.586h-338.784z"></path>
  </symbol>
</svg>