<svg width="137" height="151" viewBox="0 0 137 151" fill="none" xmlns="http://www.w3.org/2000/svg">
<g opacity="0.25">
<path fill-rule="evenodd" clip-rule="evenodd" d="M48.6129 2.19231C48.6129 1.61087 48.8457 1.05325 49.2601 0.642112C49.6745 0.230975 50.2365 0 50.8226 0H112.694C119.14 0 125.322 2.54072 129.881 7.06323C134.439 11.5857 137 17.7196 137 24.1154V146.885C137 153.28 134.439 159.414 129.881 163.937C125.322 168.459 119.14 171 112.694 171H24.3064C17.86 171 11.6775 168.459 7.11919 163.937C2.56085 159.414 0 153.28 0 146.885V60.4814C0 59.9 0.232803 59.3423 0.647202 58.9312C1.06158 58.5201 1.62363 58.2891 2.20967 58.2891H41.9839C43.742 58.2891 45.4281 57.5962 46.6713 56.3627C47.9145 55.1293 48.6129 53.4565 48.6129 51.7122V2.19231ZM41.9839 87.6923C40.2257 87.6923 38.5396 88.3852 37.2964 89.6186C36.0533 90.8521 35.3548 92.5249 35.3548 94.2692C35.3548 96.0135 36.0533 97.6864 37.2964 98.9198C38.5396 100.153 40.2257 100.846 41.9839 100.846H95.0161C96.7743 100.846 98.4604 100.153 99.7036 98.9198C100.947 97.6864 101.645 96.0135 101.645 94.2692C101.645 92.5249 100.947 90.8521 99.7036 89.6186C98.4604 88.3852 96.7743 87.6923 95.0161 87.6923H41.9839ZM41.9839 122.769C40.2257 122.769 38.5396 123.462 37.2964 124.696C36.0533 125.929 35.3548 127.602 35.3548 129.346C35.3548 131.09 36.0533 132.763 37.2964 133.997C38.5396 135.23 40.2257 135.923 41.9839 135.923H95.0161C96.7743 135.923 98.4604 135.23 99.7036 133.997C100.947 132.763 101.645 131.09 101.645 129.346C101.645 127.602 100.947 125.929 99.7036 124.696C98.4604 123.462 96.7743 122.769 95.0161 122.769H41.9839Z" fill="#F7F7F7"/>
<path d="M35.3548 5.03316C35.3548 3.41962 33.649 2.39362 32.385 3.40208C31.3126 4.26147 30.361 5.26116 29.5301 6.40116L2.89909 43.2056C2.29805 44.0475 2.95212 45.1348 3.99509 45.1348H33.1452C33.7312 45.1348 34.2932 44.9039 34.7076 44.4927C35.122 44.0816 35.3548 43.524 35.3548 42.9425V5.03316Z" fill="#F7F7F7"/>
</g>
</svg>
