<svg width="13" height="15" viewBox="0 0 13 15" fill="none" xmlns="http://www.w3.org/2000/svg">
<path d="M10.6059 0.383548C10.3806 0.117861 10.0495 -0.0340096 9.70065 0.00648926C9.24902 0.0588585 8.5232 0.256116 8.21285 0.980556C8.05818 1.3419 8.18606 1.72769 8.31764 2.01293C8.45624 2.31318 8.57978 2.65183 8.68256 3.01772C7.91589 2.08485 6.81376 0.961354 5.54156 0.237961C5.20343 0.0459407 4.77691 0.0138209 4.43341 0.254719C4.1013 0.488286 3.68616 0.899559 3.5489 1.55173C3.44177 2.06006 3.7625 2.49542 4.0859 2.76949C4.722 3.30924 5.28177 3.99039 5.76253 4.74555C4.53084 4.35313 3.25429 4.36431 2.06645 4.9662C1.28974 5.35932 0.995128 6.35119 1.43839 7.1273C1.5097 7.25229 1.58235 7.3682 1.65332 7.47469C2.03666 8.049 2.74038 8.09613 3.31287 7.94147C3.89172 7.78541 4.40797 7.81509 4.83282 7.99384C5.25599 8.17259 5.59948 8.50426 5.82714 8.97349C6.05413 9.44028 5.88472 10.0198 5.45619 10.341C5.28512 10.4695 5.09797 10.5861 4.91049 10.6626C4.00756 10.9398 3.0504 10.2876 2.69753 9.18227C2.60881 8.90471 2.45849 8.62821 2.25193 8.43095C2.04235 8.23125 1.76782 8.10835 1.4491 8.16701C1.3018 8.19424 1.16252 8.2288 1.03329 8.26756C0.30178 8.48751 -0.0852362 9.2521 0.0158702 10.0101C0.277006 11.9673 1.22781 13.3544 2.57868 14.2362C3.2496 14.6741 4.02631 14.8811 4.799 14.9478C6.66445 15.1084 8.41975 14.8664 9.49275 14.6569C10.2336 14.5124 10.9357 14.1479 11.4057 13.5059C12.0746 12.5922 12.9458 10.9489 12.9966 8.55C13.0726 4.9854 11.8433 1.8429 10.6059 0.383548Z" fill="#F7F7F7"/>
</svg>
