<svg width="33" height="33" viewBox="0 0 33 33" fill="none" xmlns="http://www.w3.org/2000/svg">
<path d="M31.5 31.5L24.2617 24.2617M24.2617 24.2617C25.4999 23.0236 26.482 21.5537 27.1521 19.936C27.8222 18.3183 28.167 16.5845 28.167 14.8335C28.167 13.0825 27.8222 11.3487 27.1521 9.73101C26.482 8.11331 25.4999 6.64343 24.2617 5.4053C23.0236 4.16717 21.5537 3.18503 19.936 2.51495C18.3183 1.84488 16.5845 1.5 14.8335 1.5C13.0825 1.5 11.3487 1.84488 9.73101 2.51495C8.11331 3.18503 6.64343 4.16717 5.4053 5.4053C2.90478 7.90582 1.5 11.2973 1.5 14.8335C1.5 18.3698 2.90478 21.7612 5.4053 24.2617C7.90582 26.7623 11.2973 28.167 14.8335 28.167C18.3698 28.167 21.7612 26.7623 24.2617 24.2617ZM14.8335 9.83358V19.8335M9.83358 14.8335H19.8335" stroke="#F7F7F7" stroke-width="3" stroke-linecap="round" stroke-linejoin="round"/>
</svg>
