<svg width="70" height="70" viewBox="0 0 70 70" fill="none" xmlns="http://www.w3.org/2000/svg">
<rect width="70" height="70" rx="35" fill="url(#paint0_linear_64_127)"/>
<path fill-rule="evenodd" clip-rule="evenodd" d="M47.3746 21.2052C47.8049 21.0235 48.2759 20.9608 48.7386 21.0237C49.2013 21.0866 49.6387 21.2728 50.0053 21.5629C50.3719 21.8529 50.6544 22.2363 50.8232 22.6731C50.9921 23.1098 51.0411 23.584 50.9654 24.0462L47.0159 48.083C46.6328 50.4016 44.0973 51.7312 41.978 50.5763C40.2053 49.6101 37.5723 48.1214 35.204 46.5681C34.0198 45.7906 30.3925 43.3008 30.8383 41.5291C31.2214 40.0142 37.3163 34.3217 40.7991 30.9373C42.1661 29.6077 41.5427 28.8407 39.9284 30.0637C35.9197 33.1004 29.4835 37.7184 27.3555 39.0183C25.4782 40.1645 24.4996 40.3602 23.3294 40.1645C21.1944 39.8081 19.2144 39.2559 17.5984 38.5833C15.4147 37.6747 15.5209 34.6625 17.5967 33.7853L47.3746 21.2052Z" fill="white"/>
<defs>
<linearGradient id="paint0_linear_64_127" x1="35" y1="0" x2="35" y2="70" gradientUnits="userSpaceOnUse">
<stop stop-color="#29AAEC"/>
<stop offset="1" stop-color="#239FDB"/>
</linearGradient>
</defs>
</svg>
