<svg width="30" height="40" viewBox="0 0 30 40" fill="none" xmlns="http://www.w3.org/2000/svg">
<g clip-path="url(#clip0_30_49)">
<path d="M0 3.00001C0 1.34315 1.34315 0 3 0H19.5193L29.9972 10.2524V36.9996C29.9972 38.6564 28.654 39.9996 26.9972 39.9996H3C1.34315 39.9996 0 38.6564 0 36.9996V3.00001Z" fill="#F7F7F7"/>
<path d="M2.90039 29.2965L6.02974 24.9451L3.00053 20.6181H5.7168L7.45672 23.3761L9.15908 20.6181H11.8128L8.79608 24.9573L11.9004 29.2965H9.1716L7.35658 26.5386L5.46645 29.2965H2.90039Z" fill="#3B9469"/>
<path d="M12.6107 29.2965V20.6181H14.8764V27.2495H19.1198V29.2965H12.6107Z" fill="#3B9469"/>
<path d="M23.5312 29.3946C22.8803 29.3946 22.2753 29.2884 21.7162 29.0759C21.1654 28.8634 20.7106 28.5325 20.3518 28.083C20.0013 27.6336 19.7885 27.0616 19.7134 26.367H21.9915C22.05 26.5958 22.1584 26.7837 22.317 26.9308C22.4755 27.0697 22.6717 27.1719 22.9053 27.2372C23.1473 27.3026 23.406 27.3353 23.6814 27.3353C23.8483 27.3353 24.0194 27.319 24.1946 27.2863C24.3698 27.2536 24.5159 27.1923 24.6327 27.1024C24.7579 27.0125 24.8205 26.8818 24.8205 26.7102C24.8205 26.5876 24.7829 26.4895 24.7078 26.416C24.6411 26.3343 24.5409 26.2689 24.4074 26.2199C24.2822 26.1627 24.1237 26.1136 23.9317 26.0728C23.8566 26.0564 23.7774 26.0401 23.6939 26.0237C23.6188 26.0074 23.5437 25.9911 23.4686 25.9747C23.3935 25.9584 23.3142 25.942 23.2308 25.9257C22.8052 25.8358 22.3963 25.7336 22.0041 25.6192C21.6119 25.4967 21.2655 25.3373 20.9651 25.1412C20.6647 24.9451 20.4269 24.6836 20.2516 24.3567C20.0764 24.0298 19.9888 23.6172 19.9888 23.1187C19.9888 22.6611 20.0722 22.277 20.2391 21.9665C20.406 21.6478 20.6271 21.3944 20.9025 21.2065C21.1779 21.0104 21.4783 20.8633 21.8038 20.7652C22.1292 20.6672 22.4505 20.6018 22.7676 20.5691C23.0847 20.5282 23.3685 20.5078 23.6188 20.5078C24.2363 20.5078 24.7787 20.6222 25.2461 20.851C25.7134 21.0717 26.0889 21.3985 26.3726 21.8316C26.6647 22.2647 26.8399 22.7877 26.8984 23.4006H24.7078C24.6828 23.2208 24.6077 23.0697 24.4825 22.9471C24.3573 22.8163 24.1946 22.7183 23.9943 22.6529C23.8024 22.5793 23.5771 22.5426 23.3184 22.5426C23.1682 22.5426 23.0263 22.5548 22.8928 22.5793C22.7593 22.6039 22.6424 22.6406 22.5423 22.6897C22.4505 22.7387 22.3754 22.8 22.317 22.8735C22.2586 22.9471 22.2294 23.0329 22.2294 23.1309C22.2294 23.2617 22.2794 23.372 22.3796 23.4619C22.4881 23.5518 22.6424 23.6294 22.8427 23.6948C23.0513 23.7602 23.3059 23.8296 23.6063 23.9032C23.7481 23.9359 23.8858 23.9685 24.0194 24.0012C24.1529 24.0257 24.2864 24.0543 24.4199 24.087C24.7871 24.1688 25.1292 24.2627 25.4463 24.369C25.7718 24.4752 26.0555 24.6141 26.2975 24.7857C26.5479 24.9573 26.744 25.1902 26.8858 25.4844C27.0277 25.7704 27.0986 26.1381 27.0986 26.5876C27.0986 27.1024 26.9985 27.5396 26.7982 27.8992C26.5979 28.2505 26.3267 28.5366 25.9846 28.7572C25.6424 28.9778 25.2586 29.1413 24.833 29.2475C24.4074 29.3456 23.9735 29.3946 23.5312 29.3946Z" fill="#3B9469"/>
<path d="M30 10.2598H19.5207V0.00121307L30 10.2598Z" fill="#BFC2C5"/>
</g>
<defs>
<clipPath id="clip0_30_49">
<rect width="30" height="39.9996" fill="white"/>
</clipPath>
</defs>
</svg>
