<svg width="80" height="78" viewBox="0 0 80 78" fill="none" xmlns="http://www.w3.org/2000/svg">
<path d="M29.0815 77.5793C26.6638 77.5793 24.2735 76.7688 22.3228 75.2027C18.7374 72.3317 17.2538 67.5649 18.2291 62.1249C18.7786 59.0478 19.5342 56.3965 20.5232 54.1299C18.9984 54.5558 17.3087 54.8855 15.5366 55.064C12.7755 55.3525 7.58283 55.5311 3.86006 53.4156C1.01646 51.7946 -0.329779 49.1571 0.0685987 45.97C0.466976 42.783 2.1017 40.2416 4.79418 38.6756C10.1379 35.5847 18.2429 36.9722 22.0893 38.5932L22.2816 38.6756C24.4109 39.5685 28.01 41.0659 31.4855 43.6622C32.9142 43.0852 34.3566 42.6044 35.799 42.1236C36.5133 41.8901 37.2414 41.6428 37.9694 41.3956C38.0793 41.3543 38.1892 41.3131 38.3129 41.2857C39.508 40.8598 40.607 40.5026 41.5411 40.1867C40.6619 35.6397 41.1977 30.6806 41.8983 27.0814C42.9423 21.6553 44.9204 16.2153 47.3382 12.1354C50.8137 6.26963 54.9623 2.47817 59.6742 0.857182C63.9602 -0.612695 68.5072 -0.186843 72.8069 2.09353C76.3648 3.98926 78.6589 7.24496 79.2496 11.2837C79.6755 14.1685 79.1809 17.3555 77.8484 20.5151C76.4335 23.8532 74.0982 27.1501 70.9112 30.2959C66.7488 34.4171 60.4434 37.714 55.1958 39.9806C59.001 40.2691 62.5178 40.7911 65.1416 41.2582C68.2462 41.8077 71.0073 43.1127 72.9443 44.926C75.3345 47.1652 76.3786 50.0362 75.9802 53.2233C75.7466 55.1465 74.7164 56.7812 72.9992 57.9763C68.988 60.765 62.2018 60.5314 58.6164 59.6935C53.5474 58.5121 46.2942 52.2342 42.9698 44.665C41.8433 44.8573 40.7718 45.1046 39.7827 45.4343C38.3403 45.9426 36.8155 46.492 35.3044 47.0827C39.7003 51.8908 41.5823 57.8527 40.8955 64.8037C40.3185 70.6008 37.5436 74.9555 33.2576 76.755C31.9113 77.3182 30.4964 77.593 29.0952 77.593L29.0815 77.5793ZM29.8233 49.4043C26.444 51.6023 23.9438 55.2151 22.5701 62.8942C21.8832 66.7132 22.8036 69.9414 25.084 71.7684C26.9248 73.2383 29.3974 73.5955 31.5542 72.6888C34.3428 71.5074 36.1149 68.5539 36.527 64.3504C37.2414 57.0971 34.5077 52.2204 30.9635 48.8686C30.5788 49.0472 30.2079 49.212 29.837 49.3906L29.8233 49.4043ZM47.6129 44.1842C50.6901 50.1049 56.3635 54.6244 59.6192 55.3937C62.9986 56.1905 68.1775 55.957 70.4853 54.3497C71.392 53.7178 71.5568 53.0859 71.6118 52.66C72.1338 48.4702 68.0401 46.231 64.3585 45.5717C60.938 44.9672 54.0419 43.9369 47.5992 44.1979L47.6129 44.1842ZM12.7617 41.2444C10.6187 41.2444 8.54443 41.6016 7.00587 42.4808C5.50852 43.3462 4.67055 44.665 4.43702 46.5195C4.25843 47.9345 4.73924 48.8548 6.04427 49.5966C7.95373 50.6819 11.3331 51.094 15.0833 50.6956C19.0259 50.2835 22.0206 49.1296 23.2432 48.1817C24.2185 47.4262 25.5236 46.6569 27.0209 45.8876C24.6169 44.404 22.2541 43.4149 20.5919 42.7143L20.3996 42.6319C18.5039 41.8351 15.5779 41.2307 12.7617 41.2307V41.2444ZM64.8256 4.3739C59.7978 4.3739 55.0035 7.79445 51.1159 14.3471C47.3107 20.7623 44.5633 31.4773 45.7722 38.813C49.646 37.5217 61.6935 33.1945 67.834 27.1364C73.013 22.0262 75.5818 16.4626 74.9087 11.8881C74.524 9.27806 73.0542 7.16254 70.7463 5.93993C68.7682 4.88217 66.7763 4.3739 64.8119 4.3739H64.8256Z" fill="black"/>
</svg>
