<svg width="87" height="63" viewBox="0 0 87 63" fill="none" xmlns="http://www.w3.org/2000/svg">
<path d="M29.764 36.5074C29.9813 34.9397 30.1521 33.434 30.416 31.9439C31.7974 24.369 34.5604 17.3995 39.4655 11.3924C43.5478 6.3942 48.4994 2.54467 54.848 0.899311C63.9751 -1.46008 71.8915 0.8217 78.3177 7.76016C82.7726 12.5876 85.2407 18.4395 86.4514 24.8502C87.3207 29.5069 87.212 34.1481 85.7684 38.6961C83.7661 45.0447 79.544 49.5151 73.7852 52.6351C69.1285 55.1497 64.1459 56.2518 58.8838 55.8016C53.5907 55.3515 49.8343 52.5109 47.3973 47.8853C45.6278 44.5169 45.1621 40.8847 45.4105 37.1283C45.5968 34.3654 46.109 31.6955 47.506 29.2585C49.1979 26.2938 51.5728 24.1517 55.0033 23.4222C58.8528 22.615 64.2235 24.1207 66.4277 28.3272C67.3745 30.1433 67.716 32.0681 67.002 34.0394C66.2569 36.1194 64.7202 37.3146 62.516 37.5474C60.8707 37.7337 59.6444 36.6161 59.7065 35.1104C59.7531 34.0549 60.4671 33.2478 61.6158 32.9528C62.5937 32.7045 62.8265 32.3319 62.5471 31.323C62.159 29.9415 61.1967 29.0878 59.9393 28.5445C56.3537 26.9923 52.8922 28.4824 51.2469 32.2854C50.0517 35.0483 49.9275 37.951 50.1914 40.9002C50.3931 43.1975 51.1072 45.3551 52.5042 47.2178C54.3048 49.6082 56.6486 51.0363 59.722 51.145C67.1262 51.3778 73.304 48.77 78.1315 43.151C80.8013 40.031 82.012 36.2746 82.2138 32.2233C82.5709 25.0209 80.5219 18.5016 76.2998 12.6963C73.661 9.06404 70.2306 6.44077 65.8068 5.32316C60.9483 4.0969 56.2916 4.77988 51.8988 7.10823C46.3263 10.0419 42.3371 14.5434 39.4189 20.0538C36.4697 25.6418 34.9019 31.6179 34.4673 37.92C34.2655 40.9313 34.4052 43.9116 34.964 46.8918C35.1347 47.7456 35.1503 48.5993 34.5604 49.3288C34.0171 50.0274 33.2721 50.3223 32.4028 50.1826C31.3473 50.0118 30.6177 49.3599 30.3228 48.3509C30.1055 47.6214 30.0589 46.8453 29.9503 46.0692C29.5157 43.1044 27.9945 40.7916 25.4954 39.1928C21.1957 36.4453 16.5235 35.5451 11.5719 36.911C8.0173 37.8889 5.62686 40.1862 4.88179 43.9116C4.35404 46.5659 5.13015 48.9874 6.65134 51.1605C8.90207 54.3581 12.0686 56.2518 15.7474 57.3073C17.2531 57.7419 18.8363 57.9592 20.3886 58.1921C21.7856 58.3939 22.7169 59.2631 22.7169 60.5515C22.7169 61.7932 21.7545 62.9108 20.3886 62.8643C18.8208 62.8022 17.2375 62.5694 15.7164 62.2123C11.2149 61.1258 7.22566 59.0768 4.1212 55.5688C1.1254 52.1849 -0.519962 48.2423 0.147497 43.6632C0.970178 38.0752 4.27642 34.3343 9.58505 32.6424C16.6632 30.3761 23.2447 31.7887 29.2363 36.1039C29.407 36.228 29.5778 36.3677 29.7951 36.523L29.764 36.5074Z" fill="black"/>
</svg>
