<svg width="82" height="81" viewBox="0 0 82 81" fill="none" xmlns="http://www.w3.org/2000/svg">
<path d="M26.2655 38.4078C25.6556 38.9708 25.0457 39.5025 24.4827 40.0811C23.4506 41.1601 22.4655 42.286 21.449 43.3807C19.5881 45.4136 17.7272 47.4309 15.8663 49.4638C14.9436 50.4647 14.0054 51.4342 13.0827 52.4194C11.2062 54.4367 9.3609 56.4696 7.48435 58.4869C6.2646 59.8005 5.06048 61.1453 3.80945 62.4277C3.05883 63.1939 1.55759 63.2721 0.838249 62.6466C0.103268 62.0054 -0.428421 60.7231 0.478577 59.6441C1.04154 58.9873 1.57323 58.3149 2.16747 57.6894C4.38805 55.2968 6.63991 52.9198 8.86049 50.5272C10.4556 48.8227 12.035 47.1025 13.6144 45.398C15.6161 43.24 17.6177 41.0819 19.6037 38.9239C21.1675 37.235 22.7313 35.5305 24.3107 33.8416C26.3749 31.621 28.4548 29.4004 30.519 27.1798C32.0515 25.5222 33.584 23.849 35.1165 22.1913C37.2745 19.8457 39.4326 17.4843 41.6062 15.1387C42.5914 14.0753 43.6079 13.0432 44.5774 11.9798C46.3758 10.0251 48.1585 8.05469 49.9569 6.09995C50.9108 5.06785 51.8803 4.06703 52.8342 3.03493C53.4754 2.34686 54.1009 1.67443 54.7108 0.955086C55.6022 -0.108291 56.9314 -0.311583 57.9635 0.485949C58.8392 1.15838 58.9643 2.76908 58.1511 3.70736C57.1972 4.80201 56.1808 5.81847 55.1956 6.88185C52.8342 9.43083 50.4729 11.9954 48.1116 14.5288C46.6573 16.0769 45.1717 17.6094 43.733 19.1576C41.9972 21.0341 40.277 22.942 38.5412 24.8342C37.6655 25.8037 36.7585 26.742 35.8671 27.6959C35.2416 28.3527 34.6005 29.0095 33.9906 29.6819C33.8655 29.8226 33.7873 30.0259 33.5996 30.37C34.5066 30.2449 35.226 30.151 35.961 30.0572C36.1173 30.0416 36.2737 29.9947 36.4457 29.9634C39.0885 29.6193 41.7157 29.291 44.3585 28.9626C45.8128 28.7905 47.2828 28.6498 48.7371 28.4621C50.7857 28.1807 52.8343 27.8523 54.8985 27.5708C56.3059 27.3831 57.7289 27.2424 59.1363 27.0547C61.31 26.7733 63.468 26.4449 65.6261 26.1634C67.0804 25.9757 68.5503 25.835 70.0203 25.663C71.8968 25.444 73.7734 25.2095 75.6499 24.9749C76.6977 24.8498 77.7298 24.6778 78.7775 24.5839C79.6063 24.5058 80.2475 24.9749 80.6541 25.616C81.045 26.2572 81.2639 27.0391 80.7166 27.7272C80.0442 28.556 79.3249 29.3535 78.5586 30.1198C76.6977 31.9963 74.7899 33.8259 72.9133 35.6869C70.6458 37.9074 68.394 40.1437 66.1421 42.3799C65.11 43.3963 64.031 44.3659 63.0145 45.398C61.1223 47.2902 59.2458 49.2136 57.3536 51.1215C56.4622 52.0128 55.5396 52.8729 54.6482 53.7643C52.1775 56.1725 49.7067 58.5964 47.2359 61.0046C46.1569 62.0523 45.0622 63.0532 43.9988 64.1009C42.1692 65.8993 40.3708 67.7445 38.5412 69.5429C37.0087 71.0598 35.4606 72.5454 33.9437 74.0622C32.0828 75.8919 30.2375 77.7372 28.3766 79.5824C27.7511 80.2079 27.0161 80.6614 26.1404 80.8022C25.249 80.9429 24.0918 79.8952 24.0136 78.8631C23.9823 78.3939 23.9511 77.9248 23.9823 77.4557C24.0449 76.2672 24.17 75.0944 24.2325 73.9059C24.3264 72.1231 24.3889 70.3404 24.4827 68.5577C24.5453 67.4318 24.6704 66.3215 24.733 65.1956C24.8424 63.319 24.905 61.4425 24.9988 59.5659C25.0457 58.612 25.1239 57.6581 25.1865 56.7042C25.3116 54.9058 25.4679 53.1231 25.5774 51.3247C25.7025 49.3075 25.7651 47.2745 25.8902 45.2572C25.9996 43.4902 26.156 41.7231 26.2655 39.956C26.2967 39.4556 26.2655 38.9395 26.2655 38.4235V38.4078ZM72.6787 29.807C72.6631 29.7601 72.6475 29.6975 72.6318 29.6506C72.0845 29.7445 71.5372 29.8696 70.9898 29.9477C69.5042 30.1354 68.0186 30.2918 66.533 30.4638C65.6104 30.5733 64.6721 30.6827 63.7495 30.8078C62.4672 30.9955 61.1692 31.1988 59.8869 31.3708C58.589 31.5428 57.291 31.6523 55.9931 31.8243C53.8507 32.1058 51.7083 32.4342 49.5503 32.7313C47.8927 32.9659 46.2351 33.2004 44.5618 33.4194C42.7634 33.6539 40.9495 33.8885 39.1511 34.1074C36.7429 34.3889 34.319 34.6391 31.9107 34.9206C31.035 35.0144 30.7848 35.2646 30.7379 36.0622C30.6754 36.8597 30.6441 37.6416 30.6128 38.4391C30.4877 40.9255 30.3939 43.412 30.2531 45.8984C30.128 48.1659 30.0029 50.449 29.8622 52.7165C29.7527 54.5305 29.5807 56.3289 29.4869 58.1429C29.3305 60.7857 29.2367 63.4441 29.0803 66.0869C28.9708 68.026 28.7988 69.9495 28.6737 71.8886C28.6581 72.217 28.6737 72.561 28.6737 73.0458C31.3321 70.4655 33.8655 68.026 36.3832 65.5865C37.9783 64.0384 39.542 62.4902 41.1215 60.9421C42.1067 59.9725 43.1075 59.0342 44.077 58.049C45.9379 56.1881 47.7832 54.2959 49.6441 52.435C51.0984 50.9807 52.5997 49.5889 54.0696 48.1503C55.9305 46.3206 57.7915 44.4753 59.6524 42.6457C61.0754 41.2539 62.5141 39.8778 63.9215 38.486C66.0483 36.3906 68.1594 34.2794 70.2861 32.1683C71.0837 31.3864 71.8656 30.6045 72.6631 29.8226L72.6787 29.807Z" fill="black"/>
</svg>
