<?xml version="1.0" standalone="no"?>
<!DOCTYPE svg PUBLIC "-//W3C//DTD SVG 20010904//EN"
 "http://www.w3.org/TR/2001/REC-SVG-20010904/DTD/svg10.dtd">
<svg version="1.0" xmlns="http://www.w3.org/2000/svg"
 width="214.000000pt" height="214.000000pt" viewBox="0 0 214.000000 214.000000"
 preserveAspectRatio="xMidYMid meet">

<g transform="translate(0.000000,214.000000) scale(0.100000,-0.100000)"
fill="#000000" stroke="none">
<path d="M195 1541 c-111 -27 -167 -115 -167 -262 -1 -141 51 -213 202 -281
78 -35 99 -59 100 -114 0 -122 -140 -107 -156 17 l-7 49 -36 -5 c-20 -2 -57
-7 -82 -10 l-46 -6 8 -54 c24 -179 95 -255 240 -255 85 0 126 17 172 70 48 57
72 130 72 225 0 157 -48 237 -177 294 -115 50 -122 55 -132 84 -8 22 -6 33 11
55 11 15 28 28 37 30 31 6 66 -26 78 -73 l12 -45 71 6 c38 4 74 10 79 15 12
11 -9 112 -35 163 -41 83 -140 122 -244 97z"/>
<path d="M726 1513 c-11 -36 -196 -858 -196 -870 0 -10 24 -13 85 -13 l84 0 7
38 c3 20 9 53 13 72 l7 35 94 0 94 0 7 -35 c4 -19 10 -52 13 -72 l7 -38 90 0
c81 0 90 2 85 18 -3 9 -49 212 -102 450 l-98 432 -92 0 c-80 0 -93 -2 -98 -17z
m125 -393 l25 -140 -56 0 -56 0 25 140 c14 77 28 140 31 140 4 0 17 -63 31
-140z"/>
<path d="M1170 1080 l0 -450 215 0 215 0 0 110 0 109 -127 3 -128 3 -3 338 -2
337 -85 0 -85 0 0 -450z"/>
<path d="M1670 1080 l0 -450 230 0 230 0 0 105 0 105 -140 0 -140 0 0 85 0 85
125 0 125 0 0 95 0 95 -125 0 -125 0 0 70 0 70 140 0 140 0 0 95 0 95 -230 0
-230 0 0 -450z"/>
</g>
</svg>
