<svg width="297" height="291" viewBox="0 0 297 291" fill="none" xmlns="http://www.w3.org/2000/svg">
<path opacity="0.5" d="M296 142.969C296 224.475 229.962 290.549 148.5 290.549C67.038 290.549 1 224.475 1 142.969C1 94.627 24.2311 51.7134 60.1329 24.7949" stroke="white" stroke-width="0.635776" stroke-dasharray="6.36 6.36"/>
<circle cx="148.5" cy="143.686" r="128.427" fill="url(#paint0_linear_7105_5740)"/>
<g clip-path="url(#clip0_7105_5740)">
<path d="M87.0855 6.24013C86.2192 5.82921 84.226 6.27134 82.6343 7.22931L74.5782 12.0761C74.2603 12.2684 73.75 12.2571 73.4399 12.0524L62.2611 4.67811C61.9507 4.47391 61.4275 4.43694 61.0924 4.59815L58.2813 5.94214C57.9463 6.10274 57.8954 6.43743 58.1682 6.69014L67.9718 15.7715C68.2442 16.0236 68.1701 16.2881 67.8143 16.3958C66.4851 17.4837 64.2599 19.0731 59.9493 21.8344C59.6744 22.0844 59.2351 22.2505 58.8846 22.1269L56.153 21.1563C55.8026 21.0324 55.2795 21.1141 54.9847 21.3397L53.8034 22.2435C53.5084 22.4691 53.5059 22.8383 53.798 23.0681L56.043 24.8301C56.3356 25.0593 56.3839 25.4816 56.1952 25.8022C55.9955 26.1414 55.7691 26.6067 55.6541 27.1232C55.5732 27.4858 55.8507 27.9267 56.2098 28.0221C56.7089 28.1548 57.4499 28.2466 58.2334 27.9755C58.5846 27.8531 58.9074 27.9833 58.9903 28.3452L59.7848 31.835C59.8677 32.1976 60.2049 32.3582 60.5387 32.1941L61.3075 31.8171C61.6414 31.6535 61.9526 31.2223 62.0032 30.8537L62.4591 27.5398C62.5096 27.1724 62.8371 26.7808 63.1876 26.6566C64.5778 25.8022 68.3925 23.8415 71.2683 22.3575C71.5382 22.1012 71.8366 22.1549 71.963 22.5041L76.2475 34.3403C76.3738 34.69 76.7276 34.806 77.0367 34.6002L78.6694 33.5128C78.9791 33.3067 79.1975 32.8414 79.1574 32.4717L77.6564 18.6537C77.6161 18.285 77.8292 17.8108 78.1327 17.5967L85.4417 12.4333C86.9589 11.361 88.2931 9.70788 88.4212 8.73942C88.55 7.77022 87.9517 6.65151 87.0855 6.24013Z" fill="white"/>
</g>
<defs>
<linearGradient id="paint0_linear_7105_5740" x1="35.014" y1="78.8364" x2="216.528" y2="205.356" gradientUnits="userSpaceOnUse">
<stop stop-color="#38BEF7"/>
<stop offset="1" stop-color="#46AFF7"/>
</linearGradient>
<clipPath id="clip0_7105_5740">
<rect width="31.153" height="31.153" fill="white" transform="translate(58.4626) rotate(12.2325)"/>
</clipPath>
</defs>
</svg>
