<svg width="253" height="312" viewBox="0 0 253 312" fill="none" xmlns="http://www.w3.org/2000/svg">
<path opacity="0.5" d="M465 224.874C465 353.074 361.13 457 233 457C104.87 457 1 353.074 1 224.874C1 148.838 37.5398 81.3395 94.009 39" stroke="white" stroke-dasharray="10 10"/>
<circle cx="233" cy="226" r="202" fill="url(#paint0_linear_7105_2995)"/>
<g clip-path="url(#clip0_7105_2995)">
<path d="M136.402 9.81519C135.039 9.16885 131.904 9.86428 129.401 11.3711L116.729 18.9944C116.229 19.297 115.427 19.2792 114.939 18.9572L97.3562 7.35831C96.8679 7.03713 96.045 6.97899 95.5179 7.23254L91.0963 9.34648C90.5694 9.5991 90.4893 10.1255 90.9184 10.523L106.338 24.807C106.767 25.2034 106.65 25.6195 106.091 25.7889C104 27.5 100.5 30 93.7199 34.3432C93.2875 34.7363 92.5965 34.9976 92.0453 34.8032L87.7488 33.2765C87.1976 33.0817 86.3749 33.2101 85.9112 33.565L84.0532 34.9866C83.5891 35.3414 83.5852 35.9221 84.0447 36.2837L87.5758 39.0551C88.0359 39.4156 88.112 40.0798 87.8151 40.584C87.5011 41.1175 87.145 41.8494 86.9641 42.6618C86.8368 43.2321 87.2733 43.9256 87.8381 44.0756C88.6231 44.2844 89.7886 44.4288 91.0209 44.0024C91.5734 43.8099 92.0811 44.0146 92.2115 44.5839L93.4611 50.073C93.5915 50.6432 94.1219 50.8958 94.647 50.6377L95.8563 50.0447C96.3814 49.7874 96.8709 49.1092 96.9504 48.5293L97.6675 43.3171C97.7469 42.7392 98.2621 42.1233 98.8134 41.9279C101 40.584 107 37.5 111.523 35.1659C111.948 34.7627 112.417 34.8472 112.616 35.3965L119.355 54.0134C119.554 54.5634 120.11 54.7458 120.596 54.4222L123.164 52.7119C123.652 52.3877 123.995 51.6559 123.932 51.0744L121.571 29.3403C121.508 28.7603 121.843 28.0145 122.32 27.6777L133.816 19.5563C136.203 17.8696 138.301 15.2696 138.503 13.7463C138.705 12.2218 137.764 10.4622 136.402 9.81519Z" fill="white"/>
</g>
<defs>
<linearGradient id="paint0_linear_7105_2995" x1="54.5" y1="124" x2="340" y2="323" gradientUnits="userSpaceOnUse">
<stop stop-color="#38BEF7"/>
<stop offset="1" stop-color="#46AFF7"/>
</linearGradient>
<clipPath id="clip0_7105_2995">
<rect width="49" height="49" fill="white" transform="translate(91.3821) rotate(12.2325)"/>
</clipPath>
</defs>
</svg>
