<svg width="304" height="31" viewBox="0 0 304 31" fill="none" xmlns="http://www.w3.org/2000/svg">
<path d="M18.3074 18.6C19.3163 18.6 20.1788 18.3094 20.8948 17.7281C21.6108 17.1146 21.9688 16.3719 21.9688 15.5C21.9688 14.6604 21.6108 13.9339 20.8948 13.3203C20.1788 12.7068 19.3163 12.4 18.3074 12.4H7.32295V18.6H18.3074ZM0 31V6.2H21.9688C23.9867 6.2 25.7117 6.81354 27.1437 8.04062C28.5758 9.26771 29.2918 10.7208 29.2918 12.4V18.6C29.2918 20.0208 28.8036 21.2641 27.8272 22.3297C27.9574 22.4266 28.0876 22.5234 28.2178 22.6203C28.9338 23.2339 29.2918 23.9604 29.2918 24.8V31H21.9688V27.9C21.9688 27.0604 21.6108 26.3339 20.8948 25.7203C20.1788 25.1068 19.3163 24.8 18.3074 24.8H7.32295V31H0Z" fill="white"/>
<path d="M50.9189 24.8C51.9278 24.8 52.7903 24.5094 53.5063 23.9281C54.2224 23.3146 54.5804 22.5719 54.5804 21.7V15.5C54.5804 14.6604 54.2224 13.9339 53.5063 13.3203C52.7903 12.7068 51.9278 12.4 50.9189 12.4H39.9345V24.8H50.9189ZM32.6115 31V6.2H54.5804C56.5983 6.2 58.3232 6.81354 59.7553 8.04062C61.1873 9.26771 61.9033 10.7208 61.9033 12.4V24.8C61.9033 26.5438 61.1873 28.013 59.7553 29.2078C58.3232 30.4026 56.5983 31 54.5804 31H32.6115Z" fill="white"/>
<path d="M65.2231 31V24.8H87.1919V21.7H68.8845C67.843 21.7 66.9643 21.4094 66.2483 20.8281C65.5648 20.2146 65.2231 19.4719 65.2231 18.6V12.4C65.2231 10.6885 65.9228 9.23542 67.3223 8.04062C68.7543 6.81354 70.4956 6.2 72.546 6.2H94.5149V12.4H72.546V15.5H90.8534C91.8623 15.5 92.7248 15.8068 93.4408 16.4203C94.1568 17.0339 94.5149 17.7604 94.5149 18.6V24.8C94.5149 26.5438 93.7988 28.013 92.3668 29.2078C90.9347 30.4026 89.2098 31 87.1919 31H65.2231Z" fill="white"/>
<path d="M97.8346 31V24.8H105.158V31H97.8346Z" fill="white"/>
<path d="M108.428 31V24.8H130.397V21.7H112.09C111.048 21.7 110.17 21.4094 109.454 20.8281C108.77 20.2146 108.428 19.4719 108.428 18.6V12.4C108.428 10.6885 109.128 9.23542 110.528 8.04062C111.96 6.81354 113.701 6.2 115.751 6.2H137.72V12.4H115.751V15.5H134.059C135.068 15.5 135.93 15.8068 136.646 16.4203C137.362 17.0339 137.72 17.7604 137.72 18.6V24.8C137.72 26.5438 137.004 28.013 135.572 29.2078C134.14 30.4026 132.415 31 130.397 31H108.428Z" fill="white"/>
<path d="M163.009 15.5V12.4H148.363V15.5H163.009ZM148.363 31C146.312 31 144.571 30.4026 143.139 29.2078C141.74 27.9807 141.04 26.5115 141.04 24.8V12.4C141.04 10.6885 141.74 9.23542 143.139 8.04062C144.571 6.81354 146.312 6.2 148.363 6.2H163.009C165.027 6.2 166.752 6.81354 168.184 8.04062C169.616 9.26771 170.332 10.7208 170.332 12.4V18.6C170.332 19.4719 169.974 20.2146 169.258 20.8281C168.542 21.4094 167.679 21.7 166.67 21.7H148.363V24.8H170.332V31H148.363Z" fill="white"/>
<path d="M173.652 31V12.4C173.652 10.6885 174.351 9.23542 175.751 8.04062C177.183 6.81354 178.924 6.2 180.974 6.2H188.297V12.4H184.636C183.627 12.4 182.748 12.7068 182 13.3203C181.316 13.9339 180.974 14.6604 180.974 15.5V31H173.652Z" fill="white"/>
<path d="M206.214 31L191.568 6.2H198.891L209.876 24.8L220.86 6.2H228.183L213.537 31H206.214Z" fill="white"/>
<path d="M231.503 31V6.2H238.826V31H231.503ZM231.503 3.1V0H238.826V3.1H231.503Z" fill="white"/>
<path d="M249.42 31C247.369 31 245.628 30.4026 244.196 29.2078C242.796 27.9807 242.097 26.5115 242.097 24.8V12.4C242.097 10.6885 242.796 9.23542 244.196 8.04062C245.628 6.81354 247.369 6.2 249.42 6.2H271.388V12.4H253.081C252.072 12.4 251.193 12.7068 250.445 13.3203C249.761 13.9339 249.42 14.6604 249.42 15.5V21.7C249.42 22.5719 249.761 23.3146 250.445 23.9281C251.193 24.5094 252.072 24.8 253.081 24.8H271.388V31H249.42Z" fill="white"/>
<path d="M296.677 15.5V12.4H282.031V15.5H296.677ZM282.031 31C279.981 31 278.239 30.4026 276.807 29.2078C275.408 27.9807 274.708 26.5115 274.708 24.8V12.4C274.708 10.6885 275.408 9.23542 276.807 8.04062C278.239 6.81354 279.981 6.2 282.031 6.2H296.677C298.695 6.2 300.42 6.81354 301.852 8.04062C303.284 9.26771 304 10.7208 304 12.4V18.6C304 19.4719 303.642 20.2146 302.926 20.8281C302.21 21.4094 301.347 21.7 300.339 21.7H282.031V24.8H304V31H282.031Z" fill="white"/>
</svg>
