<svg width="244" height="25" viewBox="0 0 244 25" fill="none" xmlns="http://www.w3.org/2000/svg">
<path d="M14.6941 15C15.5039 15 16.1961 14.7656 16.7708 14.2969C17.3455 13.8021 17.6329 13.2031 17.6329 12.5C17.6329 11.8229 17.3455 11.237 16.7708 10.7422C16.1961 10.2474 15.5039 10 14.6941 10H5.87763V15H14.6941ZM0 25V5H17.6329C19.2525 5 20.637 5.49479 21.7864 6.48438C22.9358 7.47396 23.5105 8.64583 23.5105 10V15C23.5105 16.1458 23.1187 17.1484 22.335 18.0078C22.4395 18.0859 22.544 18.1641 22.6485 18.2422C23.2232 18.737 23.5105 19.3229 23.5105 20V25H17.6329V22.5C17.6329 21.8229 17.3455 21.237 16.7708 20.7422C16.1961 20.2474 15.5039 20 14.6941 20H5.87763V25H0Z" fill="#1C2125"/>
<path d="M40.8691 20C41.6789 20 42.3712 19.7656 42.9459 19.2969C43.5206 18.8021 43.8079 18.2031 43.8079 17.5V12.5C43.8079 11.8229 43.5206 11.237 42.9459 10.7422C42.3712 10.2474 41.6789 10 40.8691 10H32.0527V20H40.8691ZM26.175 25V5H43.8079C45.4275 5 46.8121 5.49479 47.9615 6.48438C49.1109 7.47396 49.6856 8.64583 49.6856 10V20C49.6856 21.4062 49.1109 22.5911 47.9615 23.5547C46.8121 24.5182 45.4275 25 43.8079 25H26.175Z" fill="#1C2125"/>
<path d="M52.3501 25V20H69.983V17.5H55.2889C54.453 17.5 53.7477 17.2656 53.173 16.7969C52.6244 16.3021 52.3501 15.7031 52.3501 15V10C52.3501 8.61979 52.9117 7.44792 54.035 6.48438C55.1844 5.49479 56.582 5 58.2277 5H75.8606V10H58.2277V12.5H72.9218C73.7316 12.5 74.4239 12.7474 74.9986 13.2422C75.5732 13.737 75.8606 14.3229 75.8606 15V20C75.8606 21.4062 75.2859 22.5911 74.1365 23.5547C72.9871 24.5182 71.6026 25 69.983 25H52.3501Z" fill="#1C2125"/>
<path d="M78.5251 25V20H84.4028V25H78.5251Z" fill="#1C2125"/>
<path d="M87.0281 25V20H104.661V17.5H89.9669C89.131 17.5 88.4257 17.2656 87.851 16.7969C87.3024 16.3021 87.0281 15.7031 87.0281 15V10C87.0281 8.61979 87.5897 7.44792 88.713 6.48438C89.8624 5.49479 91.26 5 92.9057 5H110.539V10H92.9057V12.5H107.6C108.41 12.5 109.102 12.7474 109.677 13.2422C110.251 13.737 110.539 14.3229 110.539 15V20C110.539 21.4062 109.964 22.5911 108.815 23.5547C107.665 24.5182 106.281 25 104.661 25H87.0281Z" fill="#1C2125"/>
<path d="M130.836 12.5V10H119.081V12.5H130.836ZM119.081 25C117.435 25 116.037 24.5182 114.888 23.5547C113.765 22.5651 113.203 21.3802 113.203 20V10C113.203 8.61979 113.765 7.44792 114.888 6.48438C116.037 5.49479 117.435 5 119.081 5H130.836C132.456 5 133.84 5.49479 134.99 6.48438C136.139 7.47396 136.714 8.64583 136.714 10V15C136.714 15.7031 136.426 16.3021 135.852 16.7969C135.277 17.2656 134.585 17.5 133.775 17.5H119.081V20H136.714V25H119.081Z" fill="#1C2125"/>
<path d="M139.378 25V10C139.378 8.61979 139.94 7.44792 141.063 6.48438C142.213 5.49479 143.61 5 145.256 5H151.133V10H148.195C147.385 10 146.68 10.2474 146.079 10.7422C145.53 11.237 145.256 11.8229 145.256 12.5V25H139.378Z" fill="#1C2125"/>
<path d="M165.514 25L153.759 5H159.636L168.453 20L177.269 5H183.147L171.392 25H165.514Z" fill="#1C2125"/>
<path d="M185.811 25V5H191.689V25H185.811ZM185.811 2.5V0H191.689V2.5H185.811Z" fill="#1C2125"/>
<path d="M200.192 25C198.546 25 197.149 24.5182 195.999 23.5547C194.876 22.5651 194.314 21.3802 194.314 20V10C194.314 8.61979 194.876 7.44792 195.999 6.48438C197.149 5.49479 198.546 5 200.192 5H217.825V10H203.131C202.321 10 201.616 10.2474 201.015 10.7422C200.466 11.237 200.192 11.8229 200.192 12.5V17.5C200.192 18.2031 200.466 18.8021 201.015 19.2969C201.616 19.7656 202.321 20 203.131 20H217.825V25H200.192Z" fill="#1C2125"/>
<path d="M238.122 12.5V10H226.367V12.5H238.122ZM226.367 25C224.721 25 223.324 24.5182 222.174 23.5547C221.051 22.5651 220.489 21.3802 220.489 20V10C220.489 8.61979 221.051 7.44792 222.174 6.48438C223.324 5.49479 224.721 5 226.367 5H238.122C239.742 5 241.126 5.49479 242.276 6.48438C243.425 7.47396 244 8.64583 244 10V15C244 15.7031 243.713 16.3021 243.138 16.7969C242.563 17.2656 241.871 17.5 241.061 17.5H226.367V20H244V25H226.367Z" fill="#1C2125"/>
</svg>
