<svg width="0" height="0" class="hidden">
    <symbol version="1.1" xmlns="http://www.w3.org/2000/svg" viewBox="0 0 448 448" id="icon-phone">
        <path fill="currentColor" d="M433.168 322.36c-1.221-0.968-89.94-64.917-114.294-60.327-11.624 2.057-18.273 9.985-31.61 25.857-2.146 2.563-7.303 8.704-11.312 13.070-8.429-2.75-16.652-6.097-24.605-10.015-41.051-19.985-74.218-53.152-94.203-94.203-3.921-7.952-7.269-16.175-10.015-24.605 4.382-4.024 10.521-9.18 13.145-11.386 15.797-13.264 23.741-19.911 25.797-31.565 4.218-24.143-59.687-113.473-60.358-114.278-2.899-4.142-6.683-7.588-11.078-10.088s-9.29-3.992-14.332-4.368c-25.902 0-99.851 95.932-99.851 112.087 0 0.939 1.356 96.379 119.047 216.096 119.599 117.558 215.023 118.914 215.964 118.914 16.17 0 112.087-73.95 112.087-99.853-0.373-5.023-1.855-9.904-4.343-14.285s-5.917-8.154-10.038-11.051z"></path>
    </symbol>
    <symbol version="1.1" xmlns="http://www.w3.org/2000/svg" viewBox="0 0 420 448" id="icon-place">
        <path fill="currentColor" d="M369.001 132.5c-21-70.5-85.501-118.5-159.001-118.5s-138 48-159 118.5c-7.5 27-7.5 55.5-1.5 84 10.5 34.5 40.5 94.499 118.5 187.501 3 4.5 7.5 8.999 10.5 11.998 4.5 6 10.5 10.5 16.5 15.002 9 4.5 19.5 4.5 28.5 0 6-4.502 12-9.002 16.5-15.002 3-4.5 7.5-8.999 10.5-11.998 77.999-91.501 108.001-153.001 117-187.501 8.999-28.5 8.999-57 1.501-84zM285.001 179c0 42-33.001 75-75.001 75s-75-33-75-75c0-42 33-75 75-75s75.001 33 75.001 75z"></path>
    </symbol>
    <symbol version="1.1" xmlns="http://www.w3.org/2000/svg" viewBox="0 0 448 448" id="insta">
        <path fill="currentColor" d="M320 10.667h-192c-31.119 0-60.963 12.362-82.967 34.366s-34.366 51.849-34.366 82.967v192c0 31.119 12.362 60.962 34.366 82.967 22.004 22.003 51.849 34.366 82.967 34.366h192c31.119 0 60.962-12.363 82.968-34.366 22.003-22.005 34.366-51.849 34.366-82.967v-192c0-31.119-12.363-60.963-34.366-82.967-22.005-22.004-51.849-34.366-82.968-34.366zM400 303.147c0 25.687-10.204 50.321-28.367 68.486-18.165 18.163-42.799 28.367-68.486 28.367h-158.293c-25.687 0-50.322-10.204-68.486-28.367-18.163-18.165-28.368-42.799-28.368-68.486v-158.293c0-25.687 10.204-50.322 28.368-68.486s42.799-28.367 68.486-28.367h158.293c25.687 0 50.321 10.204 68.486 28.367 18.163 18.164 28.367 42.799 28.367 68.486v158.293z"></path>
        <path fill="currentColor" d="M301.816 146.992l-1.867-1.867c-20.164-20.096-47.478-31.374-75.947-31.36-14.376 0.098-28.592 3.027-41.836 8.621s-25.256 13.742-35.35 23.979c-10.094 10.238-18.072 22.364-23.478 35.685s-8.134 27.578-8.029 41.954c-0.022 29.178 11.479 57.182 32 77.92 10.052 10.176 22.029 18.244 35.234 23.74 13.205 5.493 27.371 8.303 41.672 8.26 21.453-0.448 42.312-7.132 60.032-19.232s31.535-29.096 39.761-48.913c8.228-19.819 10.509-41.602 6.569-62.694s-13.933-40.582-28.762-56.093zM224.002 296.324c-14.344 0.203-28.425-3.868-40.45-11.691-12.026-7.825-21.452-19.049-27.082-32.243-5.629-13.197-7.207-27.767-4.532-41.863s9.482-27.076 19.554-37.291c10.073-10.216 22.956-17.205 37.012-20.079s28.648-1.502 41.922 3.941 24.63 14.711 32.623 26.624c7.991 11.914 12.26 25.936 12.26 40.281 0.070 9.434-1.717 18.786-5.265 27.526-3.546 8.74-8.779 16.695-15.4 23.411s-14.504 12.062-23.194 15.731c-8.689 3.669-18.016 5.589-27.447 5.651zM364.962 108.699c0.030 3.422-0.619 6.817-1.903 9.989-1.286 3.172-3.185 6.059-5.587 8.497s-5.263 4.377-8.416 5.708c-3.153 1.331-6.537 2.026-9.961 2.048-3.392-0.002-6.752-0.676-9.884-1.986s-5.971-3.227-8.356-5.641c-3.612-3.666-6.069-8.312-7.068-13.362s-0.491-10.281 1.457-15.045c1.948-4.764 5.25-8.852 9.5-11.757s9.259-4.498 14.404-4.583c6.024-0.001 11.857 2.113 16.48 5.973l0.533 0.533c0.862 0.7 1.647 1.487 2.347 2.347l0.587 0.64c3.818 4.703 5.892 10.582 5.867 16.64z"></path>
    </symbol>
    <symbol version="1.1" xmlns="http://www.w3.org/2000/svg" viewBox="0 0 724 448" id="vk">
        <path fill="currentColor" d="M702.809 382.52c-0.834-1.799-1.613-3.291-2.337-4.487-11.958-21.535-34.81-47.972-68.541-79.313l-0.714-0.717-0.358-0.352-0.358-0.361h-0.362c-15.311-14.594-25.005-24.407-29.065-29.431-7.43-9.57-9.094-19.257-5.031-29.072 2.867-7.416 13.64-23.077 32.298-47.005 9.811-12.681 17.582-22.845 23.324-30.502 41.388-55.028 59.336-90.191 53.829-105.504l-2.137-3.578c-1.437-2.155-5.145-4.125-11.121-5.922-5.986-1.794-13.64-2.090-22.972-0.895l-103.35 0.714c-1.675-0.593-4.063-0.538-7.178 0.181l-4.666 1.080-1.799 0.899-1.43 1.080c-1.196 0.714-2.512 1.97-3.949 3.765-1.427 1.788-2.622 3.888-3.577 6.279-11.252 28.948-24.047 55.863-38.404 80.742-8.853 14.835-16.982 27.692-24.406 38.579-7.416 10.882-13.636 18.9-18.654 24.040-5.028 5.145-9.566 9.266-13.643 12.379-4.067 3.115-7.172 4.431-9.322 3.949-2.157-0.481-4.187-0.959-6.11-1.437-3.346-2.154-6.038-5.084-8.068-8.792-2.040-3.708-3.412-8.375-4.129-13.997-0.717-5.626-1.137-10.465-1.258-14.534-0.114-4.064-0.062-9.811 0.182-17.227 0.248-7.42 0.358-12.439 0.358-15.071 0-9.093 0.179-18.961 0.534-29.607 0.362-10.646 0.655-19.081 0.899-25.295 0.245-6.221 0.358-12.802 0.358-19.74s-0.424-12.379-1.258-16.328c-0.834-3.953-2.095-7.804-3.756-11.485-1.678-3.708-4.135-6.576-7.357-8.612-3.229-2.034-7.244-3.647-12.020-4.847-12.682-2.87-28.83-4.422-48.453-4.663-44.495-0.478-73.086 2.396-85.766 8.616-5.024 2.628-9.57 6.219-13.635 10.762-4.307 5.265-4.908 8.138-1.799 8.611 14.356 2.15 24.52 7.295 30.502 15.428l2.156 4.31c1.677 3.109 3.351 8.615 5.026 16.508 1.673 7.893 2.753 16.625 3.228 26.191 1.194 17.468 1.194 32.42 0 44.858-1.197 12.443-2.329 22.131-3.409 29.069s-2.694 12.56-4.845 16.865c-2.156 4.306-3.59 6.938-4.309 7.893-0.718 0.955-1.316 1.558-1.791 1.794-3.091 1.192-6.377 1.801-9.691 1.799-3.353 0-7.417-1.677-12.201-5.028s-9.746-7.954-14.89-13.816c-5.145-5.864-10.946-14.058-17.408-24.583-6.457-10.525-13.156-22.965-20.094-37.319l-5.74-10.41c-3.588-6.697-8.49-16.448-14.711-29.245-6.224-12.801-11.725-25.185-16.508-37.147-1.912-5.024-4.784-8.849-8.611-11.48l-1.796-1.080c-1.194-0.955-3.111-1.97-5.74-3.051-2.655-1.085-5.424-1.867-8.254-2.33l-98.327 0.714c-10.048 0-16.866 2.276-20.455 6.823l-1.437 2.15c-0.717 1.198-1.080 3.111-1.080 5.744 0 2.632 0.718 5.862 2.154 9.687 14.354 33.736 29.963 66.271 46.829 97.611s31.521 56.585 43.958 75.713c12.44 19.142 25.119 37.207 38.039 54.188 12.92 16.988 21.472 27.874 25.656 32.656 4.189 4.791 7.48 8.373 9.872 10.766l8.973 8.612c5.742 5.741 14.173 12.62 25.298 20.632 11.127 8.019 23.446 15.911 36.963 23.692 13.519 7.771 29.247 14.108 47.192 19.012 17.942 4.907 35.406 6.878 52.393 5.927h41.271c8.367-0.724 14.708-3.353 19.019-7.895l1.427-1.799c0.962-1.43 1.861-3.646 2.688-6.634 0.841-2.988 1.258-6.282 1.258-9.867-0.245-10.287 0.538-19.557 2.33-27.807 1.788-8.25 3.825-14.474 6.107-18.661 2.278-4.186 4.849-7.718 7.713-10.581 2.867-2.87 4.911-4.608 6.11-5.206 1.192-0.602 2.143-1.011 2.86-1.256 5.741-1.913 12.499-0.060 20.284 5.567 7.774 5.622 15.070 12.565 21.89 20.815 6.82 8.257 15.011 17.52 24.581 27.807 9.573 10.29 17.944 17.937 25.119 22.969l7.175 4.308c4.79 2.87 11.011 5.503 18.668 7.895 7.644 2.392 14.34 2.991 20.091 1.796l91.864-1.434c9.087 0 16.156-1.506 21.17-4.49 5.028-2.991 8.012-6.286 8.974-9.866 0.962-3.588 1.013-7.658 0.182-12.21-0.851-4.539-1.689-7.713-2.523-9.505z"></path>
    </symbol>
    <symbol version="1.1" xmlns="http://www.w3.org/2000/svg" viewBox="0 0 627 448" id="yt">
        <path fill="currentColor" d="M598.298 80.294c-11.947-36.761-51.475-59.024-87.856-64.129-130.858-13.901-262.821-13.901-393.679 0-36.381 5.104-76.020 27.15-87.858 64.129-18.625 94.899-18.625 192.513 0 287.413 11.946 36.706 51.477 59.023 87.858 64.127 130.858 13.903 262.821 13.903 393.679 0 36.381-5.104 76.020-27.149 87.856-64.127 18.625-94.899 18.625-192.514 0-287.413zM242.143 338.437v-228.929l186.36 114.465c-62.828 38.608-123.806 76.020-186.36 114.464z"></path>
    </symbol>
    <symbol version="1.1" xmlns="http://www.w3.org/2000/svg" viewBox="0 0 448 448" id="icon-arrow">
        <path  fill="currentColor" d="M33.488 434.874c16.425 16.425 42.433 17.427 60.057 3.063l0.438-0.358 2.585-2.387 0.358-0.318 261.346-261.387v203.756c0.003 24.767 20.106 44.852 44.863 44.864 24.77 0 44.861-20.093 44.865-44.864v-312.017c0-4.452-0.68-8.851-1.951-13.045 0.216 0.719 0.318 1.332 0.358 1.671 0.021 0.168 0.041 0.398 0.041 0.398v0.080l-0.041-0.159c-0.008-0.102-0.016-0.28-0.041-0.477-0.041-0.334-0.183-0.846-0.358-1.471-0.028-0.109-0.004-0.243-0.037-0.358-0.411-1.312-0.871-2.72-1.474-4.137-0.875-2.067-1.947-3.88-2.704-5.17l-4.057-5.846c-2.773-3.364-6.036-6.338-9.705-8.79-0.407-0.273-0.766-0.527-0.953-0.637-0.139-0.081-0.159-0.073-0.24-0.119 0 0-1.356-0.875-2.305-1.392-1.234-0.669-2.537-1.334-3.898-1.909-0.469-0.199-0.912-0.305-1.234-0.398-0.090-0.032-0.277-0.080-0.277-0.080-0.24-0.085-0.277-0.159-0.277-0.159l-2.627-0.915c-0.582-0.177-1.112-0.312-1.47-0.398-0.489-0.116-0.546-0.097-0.798-0.159-0.167-0.042-0.216-0.088-0.635-0.199-0.33-0.087-0.875-0.201-1.47-0.318-0.338-0.066-0.623-0.132-0.835-0.159-0.208-0.026-0.476-0.040-0.476-0.040l-3.343-0.477c-1.285-0.131-2.652-0.199-4.057-0.199h-312.017c-24.762 0.009-44.863 20.093-44.863 44.863 0.010 24.761 20.106 44.855 44.863 44.863h203.756l-264.449 264.688c-14.366 17.624-13.358 43.672 3.063 60.098z"></path>
    </symbol>
    <symbol version="1.1" xmlns="http://www.w3.org/2000/svg" viewBox="0 0 448 448" id="icon-cross">
        <path fill="currentColor" d="M20.099 427.901c-26.799-26.799-26.799-70.248 0-97.047l108.4-108.4-107.884-107.884c-25.945-25.945-25.945-68.010 0-93.954s68.010-25.945 93.954 0l107.884 107.884 108.401-108.4c26.798-26.799 70.248-26.799 97.046 0s26.799 70.248 0 97.046l-108.4 108.401 108.917 108.916c25.945 25.945 25.945 68.010 0 93.954s-68.010 25.945-93.954 0l-108.917-108.917-108.401 108.4c-26.798 26.799-70.248 26.799-97.046 0z"></path>
    </symbol>
</svg>