<svg width="0" height="0" class="hidden">
    <symbol version="1.1" xmlns="http://www.w3.org/2000/svg" viewBox="0 0 448 448" id="icon-phone">
        <path fill="currentColor" d="M433.168 322.36c-1.221-0.968-89.94-64.917-114.294-60.327-11.624 2.057-18.273 9.985-31.61 25.857-2.146 2.563-7.303 8.704-11.312 13.070-8.429-2.75-16.652-6.097-24.605-10.015-41.051-19.985-74.218-53.152-94.203-94.203-3.921-7.952-7.269-16.175-10.015-24.605 4.382-4.024 10.521-9.18 13.145-11.386 15.797-13.264 23.741-19.911 25.797-31.565 4.218-24.143-59.687-113.473-60.358-114.278-2.899-4.142-6.683-7.588-11.078-10.088s-9.29-3.992-14.332-4.368c-25.902 0-99.851 95.932-99.851 112.087 0 0.939 1.356 96.379 119.047 216.096 119.599 117.558 215.023 118.914 215.964 118.914 16.17 0 112.087-73.95 112.087-99.853-0.373-5.023-1.855-9.904-4.343-14.285s-5.917-8.154-10.038-11.051z"></path>
    </symbol>
    <symbol version="1.1" xmlns="http://www.w3.org/2000/svg" viewBox="0 0 420 448" id="icon-place">
        <path fill="currentColor" d="M369.001 132.5c-21-70.5-85.501-118.5-159.001-118.5s-138 48-159 118.5c-7.5 27-7.5 55.5-1.5 84 10.5 34.5 40.5 94.499 118.5 187.501 3 4.5 7.5 8.999 10.5 11.998 4.5 6 10.5 10.5 16.5 15.002 9 4.5 19.5 4.5 28.5 0 6-4.502 12-9.002 16.5-15.002 3-4.5 7.5-8.999 10.5-11.998 77.999-91.501 108.001-153.001 117-187.501 8.999-28.5 8.999-57 1.501-84zM285.001 179c0 42-33.001 75-75.001 75s-75-33-75-75c0-42 33-75 75-75s75.001 33 75.001 75z"></path>
    </symbol>
    <symbol version="1.1" xmlns="http://www.w3.org/2000/svg" viewBox="0 0 448 448" id="insta">
        <path fill="currentColor" d="M320 10.667h-192c-31.119 0-60.963 12.362-82.967 34.366s-34.366 51.849-34.366 82.967v192c0 31.119 12.362 60.962 34.366 82.967 22.004 22.003 51.849 34.366 82.967 34.366h192c31.119 0 60.962-12.363 82.968-34.366 22.003-22.005 34.366-51.849 34.366-82.967v-192c0-31.119-12.363-60.963-34.366-82.967-22.005-22.004-51.849-34.366-82.968-34.366zM400 303.147c0 25.687-10.204 50.321-28.367 68.486-18.165 18.163-42.799 28.367-68.486 28.367h-158.293c-25.687 0-50.322-10.204-68.486-28.367-18.163-18.165-28.368-42.799-28.368-68.486v-158.293c0-25.687 10.204-50.322 28.368-68.486s42.799-28.367 68.486-28.367h158.293c25.687 0 50.321 10.204 68.486 28.367 18.163 18.164 28.367 42.799 28.367 68.486v158.293z"></path>
        <path fill="currentColor" d="M301.816 146.992l-1.867-1.867c-20.164-20.096-47.478-31.374-75.947-31.36-14.376 0.098-28.592 3.027-41.836 8.621s-25.256 13.742-35.35 23.979c-10.094 10.238-18.072 22.364-23.478 35.685s-8.134 27.578-8.029 41.954c-0.022 29.178 11.479 57.182 32 77.92 10.052 10.176 22.029 18.244 35.234 23.74 13.205 5.493 27.371 8.303 41.672 8.26 21.453-0.448 42.312-7.132 60.032-19.232s31.535-29.096 39.761-48.913c8.228-19.819 10.509-41.602 6.569-62.694s-13.933-40.582-28.762-56.093zM224.002 296.324c-14.344 0.203-28.425-3.868-40.45-11.691-12.026-7.825-21.452-19.049-27.082-32.243-5.629-13.197-7.207-27.767-4.532-41.863s9.482-27.076 19.554-37.291c10.073-10.216 22.956-17.205 37.012-20.079s28.648-1.502 41.922 3.941 24.63 14.711 32.623 26.624c7.991 11.914 12.26 25.936 12.26 40.281 0.070 9.434-1.717 18.786-5.265 27.526-3.546 8.74-8.779 16.695-15.4 23.411s-14.504 12.062-23.194 15.731c-8.689 3.669-18.016 5.589-27.447 5.651zM364.962 108.699c0.030 3.422-0.619 6.817-1.903 9.989-1.286 3.172-3.185 6.059-5.587 8.497s-5.263 4.377-8.416 5.708c-3.153 1.331-6.537 2.026-9.961 2.048-3.392-0.002-6.752-0.676-9.884-1.986s-5.971-3.227-8.356-5.641c-3.612-3.666-6.069-8.312-7.068-13.362s-0.491-10.281 1.457-15.045c1.948-4.764 5.25-8.852 9.5-11.757s9.259-4.498 14.404-4.583c6.024-0.001 11.857 2.113 16.48 5.973l0.533 0.533c0.862 0.7 1.647 1.487 2.347 2.347l0.587 0.64c3.818 4.703 5.892 10.582 5.867 16.64z"></path>
    </symbol>
    <symbol version="1.1" xmlns="http://www.w3.org/2000/svg" viewBox="0 0 724 448" id="vk">
        <path fill="currentColor" d="M702.809 382.52c-0.834-1.799-1.613-3.291-2.337-4.487-11.958-21.535-34.81-47.972-68.541-79.313l-0.714-0.717-0.358-0.352-0.358-0.361h-0.362c-15.311-14.594-25.005-24.407-29.065-29.431-7.43-9.57-9.094-19.257-5.031-29.072 2.867-7.416 13.64-23.077 32.298-47.005 9.811-12.681 17.582-22.845 23.324-30.502 41.388-55.028 59.336-90.191 53.829-105.504l-2.137-3.578c-1.437-2.155-5.145-4.125-11.121-5.922-5.986-1.794-13.64-2.090-22.972-0.895l-103.35 0.714c-1.675-0.593-4.063-0.538-7.178 0.181l-4.666 1.080-1.799 0.899-1.43 1.080c-1.196 0.714-2.512 1.97-3.949 3.765-1.427 1.788-2.622 3.888-3.577 6.279-11.252 28.948-24.047 55.863-38.404 80.742-8.853 14.835-16.982 27.692-24.406 38.579-7.416 10.882-13.636 18.9-18.654 24.040-5.028 5.145-9.566 9.266-13.643 12.379-4.067 3.115-7.172 4.431-9.322 3.949-2.157-0.481-4.187-0.959-6.11-1.437-3.346-2.154-6.038-5.084-8.068-8.792-2.040-3.708-3.412-8.375-4.129-13.997-0.717-5.626-1.137-10.465-1.258-14.534-0.114-4.064-0.062-9.811 0.182-17.227 0.248-7.42 0.358-12.439 0.358-15.071 0-9.093 0.179-18.961 0.534-29.607 0.362-10.646 0.655-19.081 0.899-25.295 0.245-6.221 0.358-12.802 0.358-19.74s-0.424-12.379-1.258-16.328c-0.834-3.953-2.095-7.804-3.756-11.485-1.678-3.708-4.135-6.576-7.357-8.612-3.229-2.034-7.244-3.647-12.020-4.847-12.682-2.87-28.83-4.422-48.453-4.663-44.495-0.478-73.086 2.396-85.766 8.616-5.024 2.628-9.57 6.219-13.635 10.762-4.307 5.265-4.908 8.138-1.799 8.611 14.356 2.15 24.52 7.295 30.502 15.428l2.156 4.31c1.677 3.109 3.351 8.615 5.026 16.508 1.673 7.893 2.753 16.625 3.228 26.191 1.194 17.468 1.194 32.42 0 44.858-1.197 12.443-2.329 22.131-3.409 29.069s-2.694 12.56-4.845 16.865c-2.156 4.306-3.59 6.938-4.309 7.893-0.718 0.955-1.316 1.558-1.791 1.794-3.091 1.192-6.377 1.801-9.691 1.799-3.353 0-7.417-1.677-12.201-5.028s-9.746-7.954-14.89-13.816c-5.145-5.864-10.946-14.058-17.408-24.583-6.457-10.525-13.156-22.965-20.094-37.319l-5.74-10.41c-3.588-6.697-8.49-16.448-14.711-29.245-6.224-12.801-11.725-25.185-16.508-37.147-1.912-5.024-4.784-8.849-8.611-11.48l-1.796-1.080c-1.194-0.955-3.111-1.97-5.74-3.051-2.655-1.085-5.424-1.867-8.254-2.33l-98.327 0.714c-10.048 0-16.866 2.276-20.455 6.823l-1.437 2.15c-0.717 1.198-1.080 3.111-1.080 5.744 0 2.632 0.718 5.862 2.154 9.687 14.354 33.736 29.963 66.271 46.829 97.611s31.521 56.585 43.958 75.713c12.44 19.142 25.119 37.207 38.039 54.188 12.92 16.988 21.472 27.874 25.656 32.656 4.189 4.791 7.48 8.373 9.872 10.766l8.973 8.612c5.742 5.741 14.173 12.62 25.298 20.632 11.127 8.019 23.446 15.911 36.963 23.692 13.519 7.771 29.247 14.108 47.192 19.012 17.942 4.907 35.406 6.878 52.393 5.927h41.271c8.367-0.724 14.708-3.353 19.019-7.895l1.427-1.799c0.962-1.43 1.861-3.646 2.688-6.634 0.841-2.988 1.258-6.282 1.258-9.867-0.245-10.287 0.538-19.557 2.33-27.807 1.788-8.25 3.825-14.474 6.107-18.661 2.278-4.186 4.849-7.718 7.713-10.581 2.867-2.87 4.911-4.608 6.11-5.206 1.192-0.602 2.143-1.011 2.86-1.256 5.741-1.913 12.499-0.060 20.284 5.567 7.774 5.622 15.070 12.565 21.89 20.815 6.82 8.257 15.011 17.52 24.581 27.807 9.573 10.29 17.944 17.937 25.119 22.969l7.175 4.308c4.79 2.87 11.011 5.503 18.668 7.895 7.644 2.392 14.34 2.991 20.091 1.796l91.864-1.434c9.087 0 16.156-1.506 21.17-4.49 5.028-2.991 8.012-6.286 8.974-9.866 0.962-3.588 1.013-7.658 0.182-12.21-0.851-4.539-1.689-7.713-2.523-9.505z"></path>
    </symbol>
    <symbol version="1.1" xmlns="http://www.w3.org/2000/svg" viewBox="0 0 627 448" id="yt">
        <path fill="currentColor" d="M598.298 80.294c-11.947-36.761-51.475-59.024-87.856-64.129-130.858-13.901-262.821-13.901-393.679 0-36.381 5.104-76.020 27.15-87.858 64.129-18.625 94.899-18.625 192.513 0 287.413 11.946 36.706 51.477 59.023 87.858 64.127 130.858 13.903 262.821 13.903 393.679 0 36.381-5.104 76.020-27.149 87.856-64.127 18.625-94.899 18.625-192.514 0-287.413zM242.143 338.437v-228.929l186.36 114.465c-62.828 38.608-123.806 76.020-186.36 114.464z"></path>
    </symbol>
    <symbol version="1.1" xmlns="http://www.w3.org/2000/svg" viewBox="0 0 448 448" id="icon-arrow">
        <path  fill="currentColor" d="M33.488 434.874c16.425 16.425 42.433 17.427 60.057 3.063l0.438-0.358 2.585-2.387 0.358-0.318 261.346-261.387v203.756c0.003 24.767 20.106 44.852 44.863 44.864 24.77 0 44.861-20.093 44.865-44.864v-312.017c0-4.452-0.68-8.851-1.951-13.045 0.216 0.719 0.318 1.332 0.358 1.671 0.021 0.168 0.041 0.398 0.041 0.398v0.080l-0.041-0.159c-0.008-0.102-0.016-0.28-0.041-0.477-0.041-0.334-0.183-0.846-0.358-1.471-0.028-0.109-0.004-0.243-0.037-0.358-0.411-1.312-0.871-2.72-1.474-4.137-0.875-2.067-1.947-3.88-2.704-5.17l-4.057-5.846c-2.773-3.364-6.036-6.338-9.705-8.79-0.407-0.273-0.766-0.527-0.953-0.637-0.139-0.081-0.159-0.073-0.24-0.119 0 0-1.356-0.875-2.305-1.392-1.234-0.669-2.537-1.334-3.898-1.909-0.469-0.199-0.912-0.305-1.234-0.398-0.090-0.032-0.277-0.080-0.277-0.080-0.24-0.085-0.277-0.159-0.277-0.159l-2.627-0.915c-0.582-0.177-1.112-0.312-1.47-0.398-0.489-0.116-0.546-0.097-0.798-0.159-0.167-0.042-0.216-0.088-0.635-0.199-0.33-0.087-0.875-0.201-1.47-0.318-0.338-0.066-0.623-0.132-0.835-0.159-0.208-0.026-0.476-0.040-0.476-0.040l-3.343-0.477c-1.285-0.131-2.652-0.199-4.057-0.199h-312.017c-24.762 0.009-44.863 20.093-44.863 44.863 0.010 24.761 20.106 44.855 44.863 44.863h203.756l-264.449 264.688c-14.366 17.624-13.358 43.672 3.063 60.098z"></path>
    </symbol>
    <symbol version="1.1" xmlns="http://www.w3.org/2000/svg" viewBox="0 0 448 448" id="icon-cross">
        <path fill="currentColor" d="M20.099 427.901c-26.799-26.799-26.799-70.248 0-97.047l108.4-108.4-107.884-107.884c-25.945-25.945-25.945-68.010 0-93.954s68.010-25.945 93.954 0l107.884 107.884 108.401-108.4c26.798-26.799 70.248-26.799 97.046 0s26.799 70.248 0 97.046l-108.4 108.401 108.917 108.916c25.945 25.945 25.945 68.010 0 93.954s-68.010 25.945-93.954 0l-108.917-108.917-108.401 108.4c-26.798 26.799-70.248 26.799-97.046 0z"></path>
    </symbol>
    <symbol version="1.1" xmlns="http://www.w3.org/2000/svg" viewBox="0 0 448 448" id="icon-arrow-clear">
        <path fill="currentColor" d="M28.872 233.901c0 15.97 12.156 29.1 27.707 30.685l0.387 0.038 2.417 0.097 0.329 0.019 254.118-0.019-99.052 99.053c-12.039 12.043-12.029 31.578 0 43.621 12.042 12.040 31.577 12.040 43.62 0l151.682-151.684c2.164-2.164 3.973-4.633 5.396-7.289-0.244 0.455-0.493 0.801-0.638 0.986-0.073 0.091-0.174 0.213-0.174 0.213l-0.039 0.038 0.059-0.097c0.045-0.053 0.129-0.144 0.213-0.251 0.14-0.182 0.319-0.502 0.54-0.889 0.039-0.067 0.115-0.121 0.154-0.193 0.44-0.837 0.899-1.746 1.296-2.726 0.58-1.431 0.941-2.833 1.198-3.828l0.871-4.815c0.286-2.985 0.146-6.015-0.445-8.991-0.067-0.332-0.118-0.63-0.154-0.774-0.028-0.106-0.042-0.112-0.059-0.174 0 0-0.235-1.085-0.445-1.798-0.274-0.924-0.585-1.881-0.966-2.823-0.132-0.325-0.294-0.591-0.406-0.793-0.028-0.059-0.098-0.174-0.098-0.174-0.073-0.158-0.056-0.213-0.056-0.213l-0.832-1.721c-0.199-0.37-0.389-0.692-0.524-0.909-0.179-0.294-0.218-0.313-0.308-0.464-0.062-0.103-0.064-0.148-0.213-0.406-0.118-0.203-0.328-0.522-0.56-0.87-0.132-0.195-0.241-0.367-0.33-0.483-0.087-0.112-0.213-0.252-0.213-0.252l-1.392-1.856c-0.56-0.689-1.193-1.386-1.876-2.069l-151.682-151.683c-12.042-12.033-31.577-12.042-43.62 0-12.033 12.042-12.031 31.58 0 43.62l99.052 99.053-257.231 0.116c-15.551 1.584-27.724 14.737-27.726 30.704z"></path>
    </symbol>
    <symbol version="1.1" xmlns="http://www.w3.org/2000/svg" viewBox="0 0 448 448" id="icon-check">
        <path fill="currentColor" d="M171.548 391.238c-4.277 4.302-10.112 6.702-16.172 6.702s-11.896-2.4-16.172-6.702l-129.152-129.173c-13.403-13.403-13.403-35.138 0-48.515l16.172-16.176c13.408-13.403 35.116-13.403 48.519 0l80.634 80.637 217.879-217.884c13.408-13.403 35.136-13.403 48.519 0l16.173 16.176c13.403 13.403 13.403 35.133 0 48.515l-266.4 266.421z"></path>
    </symbol>
    <symbol version="1.1" xmlns="http://www.w3.org/2000/svg" viewBox="0 0 364 448" id="icon-pdf">
        <path d="M224.055 13.672h-168.263c-11.157 0-21.856 4.432-29.745 12.321s-12.321 18.589-12.321 29.745v336.525c0 11.158 4.432 21.857 12.321 29.744 7.889 7.89 18.588 12.323 29.745 12.323h252.395c11.155 0 21.854-4.432 29.744-12.323 7.888-7.888 12.32-18.586 12.32-29.744v-252.394l-126.197-126.197zM129.365 312.127c-6.499 6.101-16.090 8.834-27.258 8.834-2.166 0.025-4.33-0.104-6.478-0.378v29.994h-18.803v-82.786c8.476-1.262 17.058-1.851 25.639-1.725 11.715 0 20.044 2.23 25.66 6.709 5.342 4.249 8.96 11.211 8.96 19.413-0.021 8.246-2.755 15.207-7.719 19.939zM209.437 340.628c-8.834 7.339-22.274 10.83-38.7 10.83-9.843 0-16.805-0.63-21.538-1.26v-82.387c8.489-1.239 17.061-1.823 25.639-1.746 15.921 0 26.27 2.86 34.346 8.96 8.729 6.477 14.197 16.807 14.197 31.633 0 16.050-5.868 27.132-13.944 33.97zM287.154 282.262h-32.222v19.16h30.12v15.439h-30.12v33.734h-19.056v-83.899h51.278v15.565zM224.055 160.902h-21.033v-105.165l105.165 105.165h-84.133z"></path>
    </symbol>
    <symbol version="1.1" xmlns="http://www.w3.org/2000/svg" viewBox="0 0 326 448" id="icon-play">
        <path fill="currentColor" d="M302.13 178.296l-226.82-149.99c-32.984-21.812-75.311 3.875-75.311 45.704l0.001 299.98c0 41.827 42.327 67.514 75.311 45.705l226.819-149.991c31.584-20.885 31.584-70.522 0-91.407z"></path>
    </symbol>
    <symbol version="1.1" xmlns="http://www.w3.org/2000/svg" viewBox="0 0 448 448" id="wa">
        <path fill="currentColor" d="M224.056 0h-0.112c-123.508 0-223.944 100.464-223.944 224 0 49 15.792 94.416 42.644 131.292l-27.916 83.218 86.1-27.524c35.42 23.465 77.672 37.015 123.228 37.015 123.509 0 223.944-100.493 223.944-224 0-123.508-100.435-224-223.944-224zM354.396 316.316c-5.404 15.26-26.852 27.916-43.96 31.611-11.704 2.492-26.992 4.48-78.456-16.855-65.828-27.272-108.22-94.164-111.524-98.504-3.164-4.34-26.6-35.42-26.6-67.564s16.324-47.796 22.904-54.516c5.404-5.516 14.336-8.036 22.904-8.036 2.772 0 5.264 0.14 7.504 0.252 6.58 0.28 9.884 0.672 14.224 11.060 5.404 13.020 18.564 45.164 20.132 48.468 1.596 3.304 3.192 7.784 0.952 12.124-2.1 4.48-3.948 6.468-7.252 10.276s-6.44 6.72-9.744 10.808c-3.024 3.556-6.44 7.364-2.632 13.944 3.808 6.44 16.968 27.916 36.344 45.164 25.004 22.26 45.276 29.372 52.528 32.396 5.404 2.24 11.844 1.708 15.792-2.492 5.012-5.404 11.2-14.364 17.5-23.184 4.48-6.328 10.136-7.112 16.072-4.872 6.048 2.1 38.052 17.92 44.631 21.196 6.582 3.304 10.921 4.872 12.516 7.644 1.568 2.772 1.568 15.792-3.836 31.080z"></path>
    </symbol>
</svg>