<svg width="199" height="44" viewBox="0 0 199 44" fill="none" xmlns="http://www.w3.org/2000/svg">
<path d="M198.37 43.2031H196.406V-0.000216961H198.37V43.2031Z" fill="#E2051B" fill-opacity="0.5"/>
<path d="M194.443 43.2031H192.479V-0.000216961H194.443V43.2031Z" fill="#E2051B" fill-opacity="0.5"/>
<path d="M188.059 43.2031H185.113V-0.000216961H188.059V43.2031Z" fill="#E2051B" fill-opacity="0.5"/>
<path d="M180.202 43.2031H177.256V-0.000216961H180.202V43.2031Z" fill="#E2051B" fill-opacity="0.5"/>
<path d="M170.382 43.2031H167.436V-0.000216961H170.382V43.2031Z" fill="#E2051B" fill-opacity="0.5"/>
<path d="M165.964 43.2031H164V-0.000216961H165.964V43.2031Z" fill="#E2051B" fill-opacity="0.5"/>
<path d="M107.042 43.2031H105.078V-0.000216961H107.042V43.2031Z" fill="#E2051B" fill-opacity="0.5"/>
<path d="M103.112 43.2031H101.148V-0.000216961H103.112V43.2031Z" fill="#E2051B" fill-opacity="0.5"/>
<path d="M98.2023 43.2031H96.2383V-0.000216961H98.2023V43.2031Z" fill="#E2051B" fill-opacity="0.5"/>
<path d="M84.4543 43.2031H82.4902V-0.000216961H84.4543V43.2031Z" fill="#E2051B" fill-opacity="0.5"/>
<path d="M51.0656 43.2031H49.1016V-0.000216961H51.0656V43.2031Z" fill="#E2051B" fill-opacity="0.5"/>
<path d="M1.96406 43.2031H0V-0.000216961H1.96406V43.2031Z" fill="#E2051B" fill-opacity="0.5"/>
<path d="M5.8918 43.2031H3.92773V-0.000216961H5.8918V43.2031Z" fill="#E2051B" fill-opacity="0.5"/>
<path d="M28.4797 43.2031H26.5156V-0.000216961H28.4797V43.2031Z" fill="#E2051B" fill-opacity="0.5"/>
<path d="M158.598 43.2031H155.652V-0.000216961H158.598V43.2031Z" fill="#E2051B" fill-opacity="0.5"/>
<path d="M153.198 43.2031H149.27V-0.000216961H153.198V43.2031Z" fill="#E2051B" fill-opacity="0.5"/>
<path d="M146.323 43.2031H142.395V-0.000216961H146.323V43.2031Z" fill="#E2051B" fill-opacity="0.5"/>
<path d="M137.975 43.2031H133.064V-0.000216961H137.975V43.2031Z" fill="#E2051B" fill-opacity="0.5"/>
<path d="M129.627 43.2031H125.699V-0.000216961H129.627V43.2031Z" fill="#E2051B" fill-opacity="0.5"/>
<path d="M123.737 43.2031H119.809V-0.000216961H123.737V43.2031Z" fill="#E2051B" fill-opacity="0.5"/>
<path d="M114.897 43.2031H110.969V-0.000216961H114.897V43.2031Z" fill="#E2051B" fill-opacity="0.5"/>
<path d="M93.7844 43.2031H86.9102V-0.000216961H93.7844V43.2031Z" fill="#E2051B" fill-opacity="0.5"/>
<path d="M80.0363 43.2031H73.1621V-0.000216961H80.0363V43.2031Z" fill="#E2051B" fill-opacity="0.5"/>
<path d="M70.2156 43.2031H67.2695V-0.000216961H70.2156V43.2031Z" fill="#E2051B" fill-opacity="0.5"/>
<path d="M57.448 43.2031H54.502V-0.000216961H57.448V43.2031Z" fill="#E2051B" fill-opacity="0.5"/>
<path d="M36.827 43.2031H33.8809V-0.000216961H36.827V43.2031Z" fill="#E2051B" fill-opacity="0.5"/>
<path d="M12.766 43.2031H8.83789V-0.000216961H12.766V43.2031Z" fill="#E2051B" fill-opacity="0.5"/>
<path d="M64.8148 43.2031H60.8867V-0.000216961H64.8148V43.2031Z" fill="#E2051B" fill-opacity="0.5"/>
<path d="M46.6465 43.2031H41.7363V-0.000216961H46.6465V43.2031Z" fill="#E2051B" fill-opacity="0.5"/>
<path d="M22.0949 43.2031H15.2207V-0.000216961H22.0949V43.2031Z" fill="#E2051B" fill-opacity="0.5"/>
</svg>
