<svg width="134" height="1262" viewBox="0 0 134 1262" fill="none" xmlns="http://www.w3.org/2000/svg">
<path d="M121.572 1.30648L121.572 251.619L132.43 251.619L132.43 1.30648L121.572 1.30648ZM120.266 252.924L120.266 0L133.736 5.88827e-07L133.736 252.924L120.266 252.924Z" fill="#E2051B"/>
<path d="M72 1141.44L87.6376 1156.36L87.6376 1150.97L72 1136.05L72 1141.44ZM72 1129.22L87.6376 1144.13L87.6376 1138.74L72 1123.83L72 1129.22ZM72 1153.67L87.6376 1168.58L87.6376 1163.19L72 1148.28L72 1153.67ZM72 1104.77L87.6376 1119.68L87.6376 1114.29L72 1099.38L72 1104.77ZM72 1092.54L87.6376 1107.46L87.6376 1102.06L72 1087.15L72 1092.54ZM72 1165.9L87.6376 1180.81L87.6376 1175.42L72 1160.5L72 1165.9ZM72 1116.99L87.6376 1131.91L87.6376 1126.52L72 1111.6L72 1116.99ZM87.6376 1089.84L83.6119 1086L77.9581 1086L87.6376 1095.23L87.6376 1089.84ZM72 1251.47L82.6614 1261.64L87.6376 1261.64L87.6376 1261L72 1246.08L72 1251.47ZM72 1258.31L72 1261.64L75.4985 1261.64L72 1258.31ZM72 1239.25L87.6376 1254.16L87.6376 1248.77L72 1233.86L72 1239.25ZM72 1227.02L87.6376 1241.94L87.6376 1236.54L72 1221.63L72 1227.02ZM72 1178.12L87.6376 1193.04L87.6376 1187.64L72 1172.73L72 1178.12ZM72 1190.35L87.6376 1205.26L87.6376 1199.87L72 1184.95L72 1190.35ZM72 1202.57L87.6376 1217.49L87.6376 1212.09L72 1197.18L72 1202.57ZM72 1209.4L87.6376 1224.32L87.6376 1229.71L72 1214.8L72 1209.4Z" fill="white" fill-opacity="0.5"/>
<path d="M115.306 252.924L115.306 384.339L120.266 384.339L120.266 252.924L115.306 252.924ZM114 385.645L114 251.617L121.573 251.617L121.573 385.645L114 385.645Z" fill="#E2051B"/>
<path d="M43.2031 650.001L43.2031 651.965L-0.000216961 651.965L-0.000217047 650.001L43.2031 650.001Z" fill="#E2051B" fill-opacity="0.5"/>
<path d="M43.2031 653.929L43.2031 655.893L-0.000216961 655.893L-0.000217047 653.929L43.2031 653.929Z" fill="#E2051B" fill-opacity="0.5"/>
<path d="M43.2031 660.312L43.2031 663.258L-0.000216961 663.258L-0.00021709 660.312L43.2031 660.312Z" fill="#E2051B" fill-opacity="0.5"/>
<path d="M43.2031 668.169L43.2031 671.115L-0.000216961 671.115L-0.00021709 668.169L43.2031 668.169Z" fill="#E2051B" fill-opacity="0.5"/>
<path d="M43.2031 677.989L43.2031 680.936L-0.000216961 680.936L-0.00021709 677.989L43.2031 677.989Z" fill="#E2051B" fill-opacity="0.5"/>
<path d="M43.2031 682.407L43.2031 684.371L-0.000216961 684.371L-0.000217047 682.407L43.2031 682.407Z" fill="#E2051B" fill-opacity="0.5"/>
<path d="M43.2031 741.329L43.2031 743.293L-0.000216961 743.293L-0.000217047 741.329L43.2031 741.329Z" fill="#E2051B" fill-opacity="0.5"/>
<path d="M43.2031 745.259L43.2031 747.223L-0.000216961 747.223L-0.000217047 745.259L43.2031 745.259Z" fill="#E2051B" fill-opacity="0.5"/>
<path d="M43.2031 750.169L43.2031 752.133L-0.000216961 752.133L-0.000217047 750.169L43.2031 750.169Z" fill="#E2051B" fill-opacity="0.5"/>
<path d="M43.2031 763.917L43.2031 765.881L-0.000216961 765.881L-0.000217047 763.917L43.2031 763.917Z" fill="#E2051B" fill-opacity="0.5"/>
<path d="M43.2031 797.305L43.2031 799.27L-0.000216961 799.27L-0.000217047 797.305L43.2031 797.305Z" fill="#E2051B" fill-opacity="0.5"/>
<path d="M43.2031 846.407L43.2031 848.371L-0.000216961 848.371L-0.000217047 846.407L43.2031 846.407Z" fill="#E2051B" fill-opacity="0.5"/>
<path d="M43.2031 842.479L43.2031 844.443L-0.000216961 844.443L-0.000217047 842.479L43.2031 842.479Z" fill="#E2051B" fill-opacity="0.5"/>
<path d="M43.2031 819.891L43.2031 821.855L-0.000216961 821.855L-0.000217047 819.891L43.2031 819.891Z" fill="#E2051B" fill-opacity="0.5"/>
<path d="M43.2031 689.773L43.2031 692.719L-0.000216961 692.719L-0.00021709 689.773L43.2031 689.773Z" fill="#E2051B" fill-opacity="0.5"/>
<path d="M43.2031 695.173L43.2031 699.102L-0.000216961 699.102L-0.000217133 695.173L43.2031 695.173Z" fill="#E2051B" fill-opacity="0.5"/>
<path d="M43.2031 702.048L43.2031 705.977L-0.000216961 705.977L-0.000217133 702.048L43.2031 702.048Z" fill="#E2051B" fill-opacity="0.5"/>
<path d="M43.2031 710.396L43.2031 715.307L-0.000216961 715.307L-0.000217176 710.396L43.2031 710.396Z" fill="#E2051B" fill-opacity="0.5"/>
<path d="M43.2031 718.744L43.2031 722.672L-0.000216961 722.672L-0.000217133 718.744L43.2031 718.744Z" fill="#E2051B" fill-opacity="0.5"/>
<path d="M43.2031 724.634L43.2031 728.562L-0.000216961 728.563L-0.000217133 724.634L43.2031 724.634Z" fill="#E2051B" fill-opacity="0.5"/>
<path d="M43.2031 733.474L43.2031 737.402L-0.000216961 737.402L-0.000217133 733.474L43.2031 733.474Z" fill="#E2051B" fill-opacity="0.5"/>
<path d="M43.2031 754.587L43.2031 761.461L-0.000216961 761.461L-0.000217261 754.587L43.2031 754.587Z" fill="#E2051B" fill-opacity="0.5"/>
<path d="M43.2031 768.335L43.2031 775.209L-0.000216961 775.209L-0.000217261 768.335L43.2031 768.335Z" fill="#E2051B" fill-opacity="0.5"/>
<path d="M43.2031 778.155L43.2031 781.102L-0.000216961 781.102L-0.00021709 778.155L43.2031 778.155Z" fill="#E2051B" fill-opacity="0.5"/>
<path d="M43.2031 790.923L43.2031 793.869L-0.000216961 793.869L-0.00021709 790.923L43.2031 790.923Z" fill="#E2051B" fill-opacity="0.5"/>
<path d="M43.2031 811.544L43.2031 814.49L-0.000216961 814.49L-0.00021709 811.544L43.2031 811.544Z" fill="#E2051B" fill-opacity="0.5"/>
<path d="M43.2031 835.605L43.2031 839.533L-0.000216961 839.533L-0.000217133 835.605L43.2031 835.605Z" fill="#E2051B" fill-opacity="0.5"/>
<path d="M43.2031 783.556L43.2031 787.484L-0.000216961 787.484L-0.000217133 783.556L43.2031 783.556Z" fill="#E2051B" fill-opacity="0.5"/>
<path d="M43.2031 801.725L43.2031 806.635L-0.000216961 806.635L-0.000217176 801.725L43.2031 801.725Z" fill="#E2051B" fill-opacity="0.5"/>
<path d="M43.2031 826.276L43.2031 833.15L-0.000216961 833.15L-0.000217261 826.276L43.2031 826.276Z" fill="#E2051B" fill-opacity="0.5"/>
<path d="M34 136.955H51.9565V119H34V136.955Z" fill="white" fill-opacity="0.5"/>
<path d="M34 190.535H51.9565V149.389H34V190.535Z" fill="white" fill-opacity="0.5"/>
<path d="M34 339.158H51.9565V202.13H34V339.158Z" fill="white" fill-opacity="0.5"/>
</svg>
