<svg width="578" height="433" viewBox="0 0 578 433" fill="none" xmlns="http://www.w3.org/2000/svg">
<path d="M568.37 43.2031H566.406V-0.000216961H568.37V43.2031Z" fill="#E2051B" fill-opacity="0.5"/>
<path d="M564.443 43.2031H562.479V-0.000216961H564.443V43.2031Z" fill="#E2051B" fill-opacity="0.5"/>
<path d="M558.059 43.2031H555.113V-0.000216961H558.059V43.2031Z" fill="#E2051B" fill-opacity="0.5"/>
<path d="M550.202 43.2031H547.256V-0.000216961H550.202V43.2031Z" fill="#E2051B" fill-opacity="0.5"/>
<path d="M540.382 43.2031H537.436V-0.000216961H540.382V43.2031Z" fill="#E2051B" fill-opacity="0.5"/>
<path d="M535.964 43.2031H534V-0.000216961H535.964V43.2031Z" fill="#E2051B" fill-opacity="0.5"/>
<path d="M477.042 43.2031H475.078V-0.000216961H477.042V43.2031Z" fill="#E2051B" fill-opacity="0.5"/>
<path d="M473.112 43.2031H471.148V-0.000216961H473.112V43.2031Z" fill="#E2051B" fill-opacity="0.5"/>
<path d="M468.202 43.2031H466.238V-0.000216961H468.202V43.2031Z" fill="#E2051B" fill-opacity="0.5"/>
<path d="M454.454 43.2031H452.49V-0.000216961H454.454V43.2031Z" fill="#E2051B" fill-opacity="0.5"/>
<path d="M421.066 43.2031H419.102V-0.000216961H421.066V43.2031Z" fill="#E2051B" fill-opacity="0.5"/>
<path d="M371.964 43.2031H370V-0.000216961H371.964V43.2031Z" fill="#E2051B" fill-opacity="0.5"/>
<path d="M375.892 43.2031H373.928V-0.000216961H375.892V43.2031Z" fill="#E2051B" fill-opacity="0.5"/>
<path d="M398.48 43.2031H396.516V-0.000216961H398.48V43.2031Z" fill="#E2051B" fill-opacity="0.5"/>
<path d="M528.598 43.2031H525.652V-0.000216961H528.598V43.2031Z" fill="#E2051B" fill-opacity="0.5"/>
<path d="M523.198 43.2031H519.27V-0.000216961H523.198V43.2031Z" fill="#E2051B" fill-opacity="0.5"/>
<path d="M516.323 43.2031H512.395V-0.000216961H516.323V43.2031Z" fill="#E2051B" fill-opacity="0.5"/>
<path d="M507.975 43.2031H503.064V-0.000216961H507.975V43.2031Z" fill="#E2051B" fill-opacity="0.5"/>
<path d="M499.627 43.2031H495.699V-0.000216961H499.627V43.2031Z" fill="#E2051B" fill-opacity="0.5"/>
<path d="M493.737 43.2031H489.809V-0.000216961H493.737V43.2031Z" fill="#E2051B" fill-opacity="0.5"/>
<path d="M484.897 43.2031H480.969V-0.000216961H484.897V43.2031Z" fill="#E2051B" fill-opacity="0.5"/>
<path d="M463.784 43.2031H456.91V-0.000216961H463.784V43.2031Z" fill="#E2051B" fill-opacity="0.5"/>
<path d="M450.036 43.2031H443.162V-0.000216961H450.036V43.2031Z" fill="#E2051B" fill-opacity="0.5"/>
<path d="M440.216 43.2031H437.27V-0.000216961H440.216V43.2031Z" fill="#E2051B" fill-opacity="0.5"/>
<path d="M427.448 43.2031H424.502V-0.000216961H427.448V43.2031Z" fill="#E2051B" fill-opacity="0.5"/>
<path d="M406.827 43.2031H403.881V-0.000216961H406.827V43.2031Z" fill="#E2051B" fill-opacity="0.5"/>
<path d="M382.766 43.2031H378.838V-0.000216961H382.766V43.2031Z" fill="#E2051B" fill-opacity="0.5"/>
<path d="M434.815 43.2031H430.887V-0.000216961H434.815V43.2031Z" fill="#E2051B" fill-opacity="0.5"/>
<path d="M416.646 43.2031H411.736V-0.000216961H416.646V43.2031Z" fill="#E2051B" fill-opacity="0.5"/>
<path d="M392.095 43.2031H385.221V-0.000216961H392.095V43.2031Z" fill="#E2051B" fill-opacity="0.5"/>
<path d="M245.15 331.991C245.15 333.885 246.685 335.42 248.58 335.42C250.474 335.42 252.009 333.885 252.009 331.991C252.009 330.097 250.474 328.562 248.58 328.562C246.685 328.562 245.15 330.097 245.15 331.991Z" fill="white" fill-opacity="0.5"/>
<path d="M230.574 331.991C230.574 333.885 232.109 335.42 234.003 335.42C235.898 335.42 237.433 333.885 237.433 331.991C237.433 330.097 235.898 328.562 234.003 328.562C232.109 328.562 230.574 330.097 230.574 331.991Z" fill="white" fill-opacity="0.5"/>
<path d="M215.998 331.991C215.998 333.885 217.533 335.42 219.427 335.42C221.322 335.42 222.857 333.885 222.857 331.991C222.857 330.097 221.322 328.562 219.427 328.562C217.533 328.562 215.998 330.097 215.998 331.991Z" fill="white" fill-opacity="0.5"/>
<path d="M201.422 331.991C201.422 333.885 202.957 335.42 204.85 335.42C206.744 335.42 208.279 333.885 208.279 331.991C208.279 330.097 206.744 328.562 204.85 328.562C202.957 328.562 201.422 330.097 201.422 331.991Z" fill="white" fill-opacity="0.5"/>
<path d="M259.727 331.991C259.727 333.885 261.261 335.42 263.156 335.42C265.05 335.42 266.585 333.885 266.585 331.991C266.585 330.097 265.05 328.562 263.156 328.562C261.261 328.562 259.727 330.097 259.727 331.991Z" fill="white" fill-opacity="0.5"/>
<path d="M366.221 410.894L362.253 406.926L353.211 415.967L344.17 406.926L340.201 410.894L349.243 419.935L340.201 428.976L344.17 432.943L353.211 423.902L362.253 432.943L366.221 428.976L357.18 419.935L366.221 410.894Z" fill="white" fill-opacity="0.5"/>
<path d="M334.243 410.894L330.275 406.926L321.233 415.967L312.191 406.926L308.223 410.894L317.265 419.935L308.223 428.976L312.191 432.943L321.233 423.902L330.275 432.943L334.243 428.976L325.201 419.935L334.243 410.894Z" fill="white" fill-opacity="0.5"/>
<path d="M202.308 375.619H360.575V359.432H202.308V375.619ZM362.343 377.387H200.539V357.665H362.343V377.387Z" fill="#E2051B" fill-opacity="0.5"/>
<path d="M362.343 357.664L575.614 357.664V293.972H362.343V357.664ZM577.382 359.432L360.574 359.432V292.205H577.382V359.432Z" fill="#E2051B" fill-opacity="0.5"/>
<path d="M0 415.031H99.5122V398.199H0L0 415.031Z" fill="white" fill-opacity="0.5"/>
<path d="M99.5117 425.504L286.191 425.504V415.03L99.5117 415.03V425.504Z" fill="white" fill-opacity="0.5"/>
<path d="M459.262 320.77H406.236" stroke="white" stroke-opacity="0.5" stroke-width="2.66667" stroke-miterlimit="10"/>
<path d="M459.262 316.842H406.236" stroke="white" stroke-opacity="0.5" stroke-width="2.66667" stroke-miterlimit="10"/>
<path d="M459.262 311.932H406.236" stroke="white" stroke-opacity="0.5" stroke-width="5.33333" stroke-miterlimit="10"/>
<path d="M459.262 304.076H406.236" stroke="white" stroke-opacity="0.5" stroke-width="9.33333" stroke-miterlimit="10"/>
<path d="M459.262 296.221H406.236" stroke="white" stroke-opacity="0.5" stroke-width="2.66667" stroke-miterlimit="10"/>
<path d="M459.262 287.385H406.236" stroke="white" stroke-opacity="0.5" stroke-width="4" stroke-miterlimit="10"/>
<path d="M459.262 278.547H406.236" stroke="white" stroke-opacity="0.5" stroke-width="6.66667" stroke-miterlimit="10"/>
<path d="M459.262 272.656H406.236" stroke="white" stroke-opacity="0.5" stroke-width="4" stroke-miterlimit="10"/>
<path d="M459.262 268.238H406.236V265.293H459.262V268.238Z" fill="white" fill-opacity="0.5"/>
<path d="M459.262 259.891H406.236" stroke="white" stroke-opacity="0.5" stroke-width="6.66667" stroke-miterlimit="10"/>
<path d="M459.262 254H406.236" stroke="white" stroke-opacity="0.5" stroke-width="4" stroke-miterlimit="10"/>
</svg>
