<svg width="94" height="740" viewBox="0 0 94 740" fill="none" xmlns="http://www.w3.org/2000/svg">
<path d="M73.7677 53.4914H91.454V1.76912H73.7677V53.4914ZM93.2207 55.2578H72V0.000737173H93.2207V55.2578Z" fill="white" fill-opacity="0.5"/>
<path d="M73.7677 106.606H91.454V84.8076H73.7677V106.606ZM93.2207 108.373H72V83.0402H93.2207V108.373Z" fill="white" fill-opacity="0.5"/>
<path d="M73.7677 156.729H91.454V131.565H73.7677V156.729ZM93.2207 158.496H72V129.796H93.2207V158.496Z" fill="white" fill-opacity="0.5"/>
<path d="M73.7677 365.077H91.454V188.048H73.7677V365.077ZM93.2207 366.846H72V186.279H93.2207V366.846Z" fill="white" fill-opacity="0.5"/>
<path d="M3.42865 444.162C5.32272 444.162 6.85742 442.627 6.85742 440.733C6.85742 438.839 5.32272 437.304 3.42865 437.304C1.53457 437.304 -0.000127618 438.839 -0.000127536 440.733C-0.000127453 442.627 1.53457 444.162 3.42865 444.162Z" fill="white" fill-opacity="0.5"/>
<path d="M3.42865 458.738C5.32272 458.738 6.85742 457.203 6.85742 455.309C6.85742 453.415 5.32272 451.88 3.42865 451.88C1.53457 451.88 -0.000127618 453.415 -0.000127536 455.309C-0.000127453 457.203 1.53457 458.738 3.42865 458.738Z" fill="white" fill-opacity="0.5"/>
<path d="M3.42865 473.314C5.32272 473.314 6.85742 471.78 6.85742 469.885C6.85742 467.991 5.32272 466.456 3.42865 466.456C1.53457 466.456 -0.000127618 467.991 -0.000127536 469.885C-0.000127453 471.78 1.53457 473.314 3.42865 473.314Z" fill="white" fill-opacity="0.5"/>
<path d="M3.42865 487.891C5.32272 487.891 6.85742 486.356 6.85742 484.461C6.85742 482.567 5.32272 481.032 3.42865 481.032C1.53457 481.032 -0.000127618 482.567 -0.000127536 484.461C-0.000127453 486.356 1.53457 487.891 3.42865 487.891Z" fill="white" fill-opacity="0.5"/>
<path d="M3.42865 502.467C5.32272 502.467 6.85742 500.932 6.85742 499.038C6.85742 497.143 5.32272 495.608 3.42865 495.608C1.53457 495.608 -0.000127618 497.143 -0.000127536 499.038C-0.000127453 500.932 1.53457 502.467 3.42865 502.467Z" fill="white" fill-opacity="0.5"/>
<path d="M3.42865 517.041C5.32272 517.041 6.85742 515.506 6.85742 513.613C6.85742 511.718 5.32272 510.183 3.42865 510.183C1.53457 510.183 -0.000127618 511.718 -0.000127536 513.613C-0.000127453 515.506 1.53457 517.041 3.42865 517.041Z" fill="white" fill-opacity="0.5"/>
<path d="M3.42865 531.617C5.32272 531.617 6.85742 530.082 6.85742 528.188C6.85742 526.295 5.32272 524.76 3.42865 524.76C1.53457 524.76 -0.000127618 526.295 -0.000127536 528.188C-0.000127453 530.082 1.53457 531.617 3.42865 531.617Z" fill="white" fill-opacity="0.5"/>
<path d="M3.42865 429.586C5.32272 429.586 6.85742 428.051 6.85742 426.157C6.85742 424.262 5.32272 422.728 3.42865 422.728C1.53457 422.728 -0.000127618 424.262 -0.000127536 426.157C-0.000127453 428.051 1.53457 429.586 3.42865 429.586Z" fill="white" fill-opacity="0.5"/>
<path d="M3.42865 546.193C5.32272 546.193 6.85742 544.658 6.85742 542.764C6.85742 540.87 5.32272 539.335 3.42865 539.335C1.53457 539.335 -0.000127618 540.87 -0.000127536 542.764C-0.000127453 544.658 1.53457 546.193 3.42865 546.193Z" fill="white" fill-opacity="0.5"/>
<path d="M3.42865 385.857C5.32272 385.857 6.85742 384.323 6.85742 382.428C6.85742 380.534 5.32272 378.999 3.42865 378.999C1.53457 378.999 -0.000127618 380.534 -0.000127536 382.428C-0.000127453 384.323 1.53457 385.857 3.42865 385.857Z" fill="white" fill-opacity="0.5"/>
<path d="M3.42865 400.434C5.32272 400.434 6.85742 398.899 6.85742 397.004C6.85742 395.11 5.32272 393.575 3.42865 393.575C1.53457 393.575 -0.000127618 395.11 -0.000127536 397.004C-0.000127453 398.899 1.53457 400.434 3.42865 400.434Z" fill="white" fill-opacity="0.5"/>
<path d="M3.42865 415.01C5.32272 415.01 6.85742 413.475 6.85742 411.581C6.85742 409.687 5.32272 408.152 3.42865 408.152C1.53457 408.152 -0.000127618 409.687 -0.000127536 411.581C-0.000127453 413.475 1.53457 415.01 3.42865 415.01Z" fill="white" fill-opacity="0.5"/>
<path d="M27 591.086H44.9574V575.999H27V591.086Z" fill="white" fill-opacity="0.5"/>
<path d="M27 623.504H44.9574V605.549H27V623.504Z" fill="white" fill-opacity="0.5"/>
<path d="M27 642.707H44.9574V739.711H27V642.707Z" fill="white" fill-opacity="0.5"/>
</svg>
