<svg width="199" height="281" viewBox="0 0 199 281" fill="none" xmlns="http://www.w3.org/2000/svg">
<path d="M129.429 65.1621C131.323 65.1621 132.857 63.6272 132.857 61.7329C132.857 59.8385 131.323 58.3036 129.429 58.3036C127.535 58.3036 126 59.8385 126 61.7329C126 63.6272 127.535 65.1621 129.429 65.1621Z" fill="white" fill-opacity="0.3"/>
<path d="M129.429 79.7383C131.323 79.7383 132.857 78.2034 132.857 76.309C132.857 74.4147 131.323 72.8798 129.429 72.8798C127.535 72.8798 126 74.4147 126 76.309C126 78.2034 127.535 79.7383 129.429 79.7383Z" fill="white" fill-opacity="0.3"/>
<path d="M129.429 94.3145C131.323 94.3145 132.857 92.7795 132.857 90.8852C132.857 88.9909 131.323 87.4559 129.429 87.4559C127.535 87.4559 126 88.9909 126 90.8852C126 92.7795 127.535 94.3145 129.429 94.3145Z" fill="white" fill-opacity="0.3"/>
<path d="M129.429 108.891C131.323 108.891 132.857 107.356 132.857 105.461C132.857 103.567 131.323 102.032 129.429 102.032C127.535 102.032 126 103.567 126 105.461C126 107.356 127.535 108.891 129.429 108.891Z" fill="white" fill-opacity="0.3"/>
<path d="M129.429 123.467C131.323 123.467 132.857 121.932 132.857 120.038C132.857 118.143 131.323 116.608 129.429 116.608C127.535 116.608 126 118.143 126 120.038C126 121.932 127.535 123.467 129.429 123.467Z" fill="white" fill-opacity="0.3"/>
<path d="M129.429 138.041C131.323 138.041 132.857 136.506 132.857 134.613C132.857 132.718 131.323 131.183 129.429 131.183C127.535 131.183 126 132.718 126 134.613C126 136.506 127.535 138.041 129.429 138.041Z" fill="white" fill-opacity="0.3"/>
<path d="M129.429 152.617C131.323 152.617 132.857 151.082 132.857 149.188C132.857 147.295 131.323 145.76 129.429 145.76C127.535 145.76 126 147.295 126 149.188C126 151.082 127.535 152.617 129.429 152.617Z" fill="white" fill-opacity="0.3"/>
<path d="M129.429 50.5859C131.323 50.5859 132.857 49.051 132.857 47.1567C132.857 45.2623 131.323 43.7284 129.429 43.7284C127.535 43.7284 126 45.2623 126 47.1567C126 49.051 127.535 50.5859 129.429 50.5859Z" fill="white" fill-opacity="0.3"/>
<path d="M129.429 167.193C131.323 167.193 132.857 165.658 132.857 163.764C132.857 161.87 131.323 160.335 129.429 160.335C127.535 160.335 126 161.87 126 163.764C126 165.658 127.535 167.193 129.429 167.193Z" fill="white" fill-opacity="0.3"/>
<path d="M129.429 6.85742C131.323 6.85742 132.857 5.32251 132.857 3.42817C132.857 1.53383 131.323 -0.00108434 129.429 -0.00108426C127.535 -0.00108418 126 1.53383 126 3.42817C126 5.32251 127.535 6.85742 129.429 6.85742Z" fill="white" fill-opacity="0.3"/>
<path d="M129.429 21.4336C131.323 21.4336 132.857 19.8987 132.857 18.0043C132.857 16.11 131.323 14.5751 129.429 14.5751C127.535 14.5751 126 16.11 126 18.0043C126 19.8987 127.535 21.4336 129.429 21.4336Z" fill="white" fill-opacity="0.3"/>
<path d="M129.429 36.0098C131.323 36.0098 132.857 34.4749 132.857 32.5815C132.857 30.6872 131.323 29.1522 129.429 29.1522C127.535 29.1522 126 30.6872 126 32.5815C126 34.4749 127.535 36.0098 129.429 36.0098Z" fill="white" fill-opacity="0.3"/>
<path d="M198.37 280.203H196.406V237H198.37V280.203Z" fill="#E2051B" fill-opacity="0.5"/>
<path d="M194.443 280.203H192.479V237H194.443V280.203Z" fill="#E2051B" fill-opacity="0.5"/>
<path d="M188.059 280.203H185.113V237H188.059V280.203Z" fill="#E2051B" fill-opacity="0.5"/>
<path d="M180.202 280.203H177.256V237H180.202V280.203Z" fill="#E2051B" fill-opacity="0.5"/>
<path d="M170.382 280.203H167.436V237H170.382V280.203Z" fill="#E2051B" fill-opacity="0.5"/>
<path d="M165.964 280.203H164V237H165.964V280.203Z" fill="#E2051B" fill-opacity="0.5"/>
<path d="M107.042 280.203H105.078V237H107.042V280.203Z" fill="#E2051B" fill-opacity="0.5"/>
<path d="M103.112 280.203H101.148V237H103.112V280.203Z" fill="#E2051B" fill-opacity="0.5"/>
<path d="M98.2023 280.203H96.2383V237H98.2023V280.203Z" fill="#E2051B" fill-opacity="0.5"/>
<path d="M84.4543 280.203H82.4902V237H84.4543V280.203Z" fill="#E2051B" fill-opacity="0.5"/>
<path d="M51.0656 280.203H49.1016V237H51.0656V280.203Z" fill="#E2051B" fill-opacity="0.5"/>
<path d="M1.96406 280.203H0V237H1.96406V280.203Z" fill="#E2051B" fill-opacity="0.5"/>
<path d="M5.8918 280.203H3.92773V237H5.8918V280.203Z" fill="#E2051B" fill-opacity="0.5"/>
<path d="M28.4797 280.203H26.5156V237H28.4797V280.203Z" fill="#E2051B" fill-opacity="0.5"/>
<path d="M158.598 280.203H155.652V237H158.598V280.203Z" fill="#E2051B" fill-opacity="0.5"/>
<path d="M153.198 280.203H149.27V237H153.198V280.203Z" fill="#E2051B" fill-opacity="0.5"/>
<path d="M146.323 280.203H142.395V237H146.323V280.203Z" fill="#E2051B" fill-opacity="0.5"/>
<path d="M137.975 280.203H133.064V237H137.975V280.203Z" fill="#E2051B" fill-opacity="0.5"/>
<path d="M129.627 280.203H125.699V237H129.627V280.203Z" fill="#E2051B" fill-opacity="0.5"/>
<path d="M123.737 280.203H119.809V237H123.737V280.203Z" fill="#E2051B" fill-opacity="0.5"/>
<path d="M114.897 280.203H110.969V237H114.897V280.203Z" fill="#E2051B" fill-opacity="0.5"/>
<path d="M93.7844 280.203H86.9102V237H93.7844V280.203Z" fill="#E2051B" fill-opacity="0.5"/>
<path d="M80.0363 280.203H73.1621V237H80.0363V280.203Z" fill="#E2051B" fill-opacity="0.5"/>
<path d="M70.2156 280.203H67.2695V237H70.2156V280.203Z" fill="#E2051B" fill-opacity="0.5"/>
<path d="M57.448 280.203H54.502V237H57.448V280.203Z" fill="#E2051B" fill-opacity="0.5"/>
<path d="M36.827 280.203H33.8809V237H36.827V280.203Z" fill="#E2051B" fill-opacity="0.5"/>
<path d="M12.766 280.203H8.83789V237H12.766V280.203Z" fill="#E2051B" fill-opacity="0.5"/>
<path d="M64.8148 280.203H60.8867V237H64.8148V280.203Z" fill="#E2051B" fill-opacity="0.5"/>
<path d="M46.6465 280.203H41.7363V237H46.6465V280.203Z" fill="#E2051B" fill-opacity="0.5"/>
<path d="M22.0949 280.203H15.2207V237H22.0949V280.203Z" fill="#E2051B" fill-opacity="0.5"/>
</svg>
