<svg width="120" height="368" viewBox="0 0 120 368" fill="none" xmlns="http://www.w3.org/2000/svg">
<path d="M18.248 55.4445L33.8857 70.3596L33.8857 64.9663L18.248 50.0512L18.248 55.4445ZM18.248 43.2192L33.8857 58.1343L33.8857 52.741L18.248 37.8259L18.248 43.2192ZM18.248 67.6698L33.8857 82.5849L33.8857 77.1926L18.248 62.2765L18.248 67.6698ZM18.248 18.7686L33.8857 33.6837L33.8857 28.2904L18.248 13.3753L18.248 18.7686ZM18.248 6.54327L33.8857 21.4584L33.8857 16.0641L18.248 1.14897L18.248 6.54327ZM18.248 79.8951L33.8857 94.8102L33.8857 89.4179L18.248 74.5018L18.248 79.8951ZM18.248 30.9939L33.8857 45.909L33.8857 40.5157L18.248 25.6006L18.248 30.9939ZM33.8857 3.83876L29.8599 5.07571e-07L24.2062 2.60438e-07L33.8857 9.23208L33.8857 3.83876ZM18.248 165.473L28.9094 175.643L33.8857 175.643L33.8857 174.996L18.248 160.081L18.248 165.473ZM18.248 172.306L18.248 175.643L21.7465 175.643L18.248 172.306ZM18.248 153.248L33.8857 168.164L33.8857 162.771L18.248 147.856L18.248 153.248ZM18.248 141.023L33.8857 155.939L33.8857 150.544L18.248 135.629L18.248 141.023ZM18.248 92.1214L33.8857 107.036L33.8857 101.643L18.248 86.7271L18.248 92.1214ZM18.248 104.347L33.8857 119.262L33.8857 113.868L18.248 98.9534L18.248 104.347ZM18.248 116.572L33.8857 131.487L33.8857 126.094L18.248 111.179L18.248 116.572ZM18.248 123.404L33.8857 138.319L33.8857 143.712L18.248 128.797L18.248 123.404Z" fill="white" fill-opacity="0.5"/>
<path d="M18.2475 175.643L18.2377 175.643L18.2475 175.651L18.2475 175.643ZM-0.00195343 182.697L18.2475 200.103L18.2475 194.71L-0.0019532 177.303L-0.00195343 182.697ZM18.2475 182.483L11.0738 175.643L5.42007 175.643L18.2475 187.877L18.2475 182.483ZM-0.00195397 194.922L18.2475 212.328L18.2475 206.935L-0.00195373 189.528L-0.00195397 194.922ZM10.0546 223.572L-0.0019548 213.98L-0.00195504 219.372L4.39988 223.572L10.0546 223.572ZM-0.00195427 201.754L18.2475 219.16L18.2475 223.572L17.2175 223.572L-0.0019545 207.147L-0.00195427 201.754Z" fill="white" fill-opacity="0.5"/>
<path d="M114.964 345.832C113.07 345.832 111.535 347.367 111.535 349.261C111.535 351.156 113.07 352.691 114.964 352.691C116.858 352.691 118.393 351.156 118.393 349.261C118.393 347.367 116.858 345.832 114.964 345.832Z" fill="white" fill-opacity="0.5"/>
<path d="M114.964 331.256C113.07 331.256 111.535 332.791 111.535 334.685C111.535 336.579 113.07 338.114 114.964 338.114C116.858 338.114 118.393 336.579 118.393 334.685C118.393 332.791 116.858 331.256 114.964 331.256Z" fill="white" fill-opacity="0.5"/>
<path d="M114.964 316.682C113.07 316.682 111.535 318.217 111.535 320.111C111.535 322.004 113.07 323.54 114.964 323.54C116.858 323.54 118.393 322.004 118.393 320.111C118.393 318.217 116.858 316.682 114.964 316.682Z" fill="white" fill-opacity="0.5"/>
<path d="M114.964 302.105C113.07 302.105 111.535 303.64 111.535 305.535C111.535 307.429 113.07 308.964 114.964 308.964C116.858 308.964 118.393 307.429 118.393 305.535C118.393 303.64 116.858 302.105 114.964 302.105Z" fill="white" fill-opacity="0.5"/>
<path d="M114.964 287.529C113.07 287.529 111.535 289.064 111.535 290.959C111.535 292.853 113.07 294.388 114.964 294.388C116.858 294.388 118.393 292.853 118.393 290.959C118.393 289.064 116.858 287.529 114.964 287.529Z" fill="white" fill-opacity="0.5"/>
<path d="M114.964 272.953C113.07 272.953 111.535 274.488 111.535 276.382C111.535 278.276 113.07 279.812 114.964 279.812C116.858 279.812 118.393 278.276 118.393 276.382C118.393 274.488 116.858 272.953 114.964 272.953Z" fill="white" fill-opacity="0.5"/>
<path d="M114.964 258.377C113.07 258.377 111.535 259.912 111.535 261.806C111.535 263.7 113.07 265.235 114.964 265.235C116.858 265.235 118.393 263.7 118.393 261.806C118.393 259.912 116.858 258.377 114.964 258.377Z" fill="white" fill-opacity="0.5"/>
<path d="M114.964 360.408C113.07 360.408 111.535 361.943 111.535 363.837C111.535 365.732 113.07 367.267 114.964 367.267C116.858 367.267 118.393 365.732 118.393 363.837C118.393 361.943 116.858 360.408 114.964 360.408Z" fill="white" fill-opacity="0.5"/>
<path d="M114.964 243.801C113.07 243.801 111.535 245.336 111.535 247.23C111.535 249.124 113.07 250.659 114.964 250.659C116.858 250.659 118.393 249.124 118.393 247.23C118.393 245.336 116.858 243.801 114.964 243.801Z" fill="white" fill-opacity="0.5"/>
<path d="M115.377 199.252L119.344 195.284L110.304 186.242L119.344 177.2L115.377 173.232L106.336 182.274L97.296 173.232L93.3281 177.2L102.368 186.242L93.3281 195.284L97.296 199.252L106.336 190.21L115.377 199.252Z" fill="white" fill-opacity="0.5"/>
</svg>
