<svg width="72" height="255" viewBox="0 0 72 255" fill="none" xmlns="http://www.w3.org/2000/svg">
<path d="M71.6312 232.361L67.6628 228.393L58.6213 237.434L49.5797 228.393L45.6113 232.361L54.6529 241.402L45.6113 250.442L49.5797 254.41L58.6213 245.369L67.6628 254.41L71.6312 250.442L62.5897 241.402L71.6312 232.361Z" fill="white" fill-opacity="0.5"/>
<path d="M50.9015 209.719H66.342V178.882H50.9015V209.719ZM68.1096 211.486H49.1328V177.114H68.1096V211.486Z" fill="white" fill-opacity="0.5"/>
<path d="M50.9015 149.529H66.342V123.71H50.9015V149.529ZM68.1096 151.295H49.1328V121.941H68.1096V151.295Z" fill="white" fill-opacity="0.5"/>
<path d="M50.9015 85.0353H66.342V1.76773H50.9015V85.0353ZM68.1096 86.8027H49.1328V0.000337523H68.1096V86.8027Z" fill="white" fill-opacity="0.5"/>
<path d="M1.76669 147.004H17.2081V1.76819H1.76669V147.004ZM18.9758 148.771H0V0.000789835H18.9758V148.771Z" fill="white" fill-opacity="0.5"/>
</svg>
