<svg width="99" height="473" viewBox="0 0 99 473" fill="none" xmlns="http://www.w3.org/2000/svg">
<path d="M36.6885 171.663L-5.974e-06 136.669L-6.20975e-06 142.063L35.4022 175.83L36.6885 175.83L36.6885 171.663ZM36.6885 159.438L-5.43962e-06 124.444L-5.67537e-06 129.837L36.6885 164.831L36.6885 159.438ZM36.6885 147.212L-4.90523e-06 112.219L-5.14098e-06 117.612L36.6885 152.606L36.6885 147.212ZM36.6885 134.987L-4.37085e-06 99.9934L-4.6066e-06 105.387L36.6885 140.38L36.6885 134.987ZM36.6885 122.761L-3.83642e-06 87.7671L-4.07221e-06 93.1614L36.6885 128.155L36.6885 122.761ZM36.6885 110.535L-3.30204e-06 75.5418L-3.53778e-06 80.9351L36.6885 115.929L36.6885 110.535ZM36.6885 98.3102L-2.76765e-06 63.3165L-3.0034e-06 68.7098L36.6885 103.703L36.6885 98.3102ZM36.6885 86.0849L-2.23327e-06 51.0912L-2.46901e-06 56.4845L36.6885 91.4782L36.6885 86.0849ZM36.6885 73.8595L-1.69888e-06 38.8658L-1.93463e-06 44.2592L36.6885 79.2529L36.6885 73.8595ZM36.6885 61.6333L-1.1645e-06 26.6405L-1.40024e-06 32.0339L36.6885 67.0276L36.6885 61.6333ZM36.6885 49.408L-6.3011e-07 14.4152L-8.65859e-07 19.8086L36.6885 54.8013L36.6885 49.408ZM36.6885 37.1836L-9.57247e-08 2.18993L-3.31432e-07 7.58227L36.6885 42.576L36.6885 37.1836ZM36.6885 24.9573L10.521 4.59887e-07L4.86725 2.12754e-07L36.6885 30.3516L36.6885 24.9573ZM36.6885 12.732L23.3386 1.02016e-06L17.6839 7.72988e-07L36.6885 18.1254L36.6885 12.732ZM36.6885 0.506736L36.1563 1.58044e-06L30.5016 1.33327e-06L36.6885 5.90004L36.6885 0.506736ZM-6.50843e-06 148.896L-6.74414e-06 154.288L22.5845 175.83L28.2383 175.83L-6.50843e-06 148.896ZM-7.04277e-06 161.12L-7.27857e-06 166.514L9.76591 175.83L15.4216 175.83L-7.04277e-06 161.12ZM-7.57716e-06 173.345L-7.68576e-06 175.83L2.60398 175.83L-7.57716e-06 173.345Z" fill="white" fill-opacity="0.5"/>
<path d="M36.6875 231.275L52.3251 246.19L52.3251 240.796L36.6875 225.881L36.6875 231.275ZM36.6875 219.049L52.3251 233.964L52.3251 228.571L36.6875 213.656L36.6875 219.049ZM36.6875 243.5L52.3251 258.415L52.3251 253.023L36.6875 238.107L36.6875 243.5ZM36.6875 194.599L52.3251 209.514L52.3251 204.12L36.6875 189.205L36.6875 194.599ZM36.6875 182.373L52.3251 197.288L52.3251 191.894L36.6875 176.979L36.6875 182.373ZM36.6875 255.725L52.3251 270.64L52.3251 265.248L36.6875 250.332L36.6875 255.725ZM36.6875 206.824L52.3251 221.739L52.3251 216.346L36.6875 201.431L36.6875 206.824ZM52.3251 179.669L48.2994 175.83L42.6456 175.83L52.3251 185.062L52.3251 179.669ZM36.6875 341.303L47.3489 351.473L52.3251 351.473L52.3251 350.826L36.6875 335.911L36.6875 341.303ZM36.6875 348.136L36.6875 351.473L40.186 351.473L36.6875 348.136ZM36.6875 329.078L52.3251 343.994L52.3251 338.601L36.6875 323.686L36.6875 329.078ZM36.6875 316.853L52.3251 331.769L52.3251 326.374L36.6875 311.459L36.6875 316.853ZM36.6875 267.951L52.3251 282.867L52.3251 277.473L36.6875 262.557L36.6875 267.951ZM36.6875 280.177L52.3251 295.092L52.3251 289.699L36.6875 274.783L36.6875 280.177ZM36.6875 292.402L52.3251 307.317L52.3251 301.924L36.6875 287.009L36.6875 292.402ZM36.6875 299.234L52.3251 314.149L52.3251 319.542L36.6875 304.627L36.6875 299.234Z" fill="white" fill-opacity="0.5"/>
<path d="M36.687 351.473L36.6772 351.473L36.687 351.481L36.687 351.473ZM18.4375 358.527L36.687 375.933L36.687 370.54L18.4375 353.133L18.4375 358.527ZM36.687 358.313L29.5133 351.473L23.8595 351.473L36.687 363.707L36.687 358.313ZM18.4375 370.752L36.687 388.158L36.687 382.765L18.4375 365.359L18.4375 370.752ZM28.4941 399.402L18.4375 389.81L18.4375 395.202L22.8393 399.402L28.4941 399.402ZM18.4375 377.584L36.687 394.99L36.687 399.402L35.657 399.402L18.4375 382.977L18.4375 377.584Z" fill="white" fill-opacity="0.5"/>
<path d="M93.9639 205.834C92.0699 205.834 90.5352 207.369 90.5352 209.263C90.5352 211.158 92.0699 212.692 93.9639 212.692C95.858 212.692 97.3927 211.158 97.3927 209.263C97.3927 207.369 95.858 205.834 93.9639 205.834Z" fill="white" fill-opacity="0.5"/>
<path d="M93.9639 191.258C92.0699 191.258 90.5352 192.793 90.5352 194.687C90.5352 196.581 92.0699 198.116 93.9639 198.116C95.858 198.116 97.3927 196.581 97.3927 194.687C97.3927 192.793 95.858 191.258 93.9639 191.258Z" fill="white" fill-opacity="0.5"/>
<path d="M93.9639 176.682C92.0699 176.682 90.5352 178.217 90.5352 180.111C90.5352 182.004 92.0699 183.54 93.9639 183.54C95.858 183.54 97.3927 182.004 97.3927 180.111C97.3927 178.217 95.858 176.682 93.9639 176.682Z" fill="white" fill-opacity="0.5"/>
<path d="M93.9639 162.107C92.0699 162.107 90.5352 163.642 90.5352 165.537C90.5352 167.431 92.0699 168.966 93.9639 168.966C95.858 168.966 97.3927 167.431 97.3927 165.537C97.3927 163.642 95.858 162.107 93.9639 162.107Z" fill="white" fill-opacity="0.5"/>
<path d="M93.9639 147.531C92.0699 147.531 90.5352 149.066 90.5352 150.961C90.5352 152.855 92.0699 154.39 93.9639 154.39C95.858 154.39 97.3927 152.855 97.3927 150.961C97.3927 149.066 95.858 147.531 93.9639 147.531Z" fill="white" fill-opacity="0.5"/>
<path d="M93.9639 132.955C92.0699 132.955 90.5352 134.49 90.5352 136.384C90.5352 138.278 92.0699 139.814 93.9639 139.814C95.858 139.814 97.3927 138.278 97.3927 136.384C97.3927 134.49 95.858 132.955 93.9639 132.955Z" fill="white" fill-opacity="0.5"/>
<path d="M93.9639 118.379C92.0699 118.379 90.5352 119.914 90.5352 121.808C90.5352 123.702 92.0699 125.237 93.9639 125.237C95.858 125.237 97.3927 123.702 97.3927 121.808C97.3927 119.914 95.858 118.379 93.9639 118.379Z" fill="white" fill-opacity="0.5"/>
<path d="M93.9639 220.41C92.0699 220.41 90.5352 221.945 90.5352 223.839C90.5352 225.734 92.0699 227.269 93.9639 227.269C95.858 227.269 97.3927 225.734 97.3927 223.839C97.3927 221.945 95.858 220.41 93.9639 220.41Z" fill="white" fill-opacity="0.5"/>
<path d="M93.9639 103.803C92.0699 103.803 90.5352 105.338 90.5352 107.232C90.5352 109.126 92.0699 110.661 93.9639 110.661C95.858 110.661 97.3927 109.126 97.3927 107.232C97.3927 105.338 95.858 103.803 93.9639 103.803Z" fill="white" fill-opacity="0.5"/>
<path d="M31.0605 469.503C31.0605 471.398 32.5952 472.933 34.4893 472.933C36.3834 472.933 37.9181 471.398 37.9181 469.503C37.9181 467.609 36.3834 466.074 34.4893 466.074C32.5952 466.074 31.0605 467.609 31.0605 469.503Z" fill="white" fill-opacity="0.5"/>
<path d="M16.4863 469.503C16.4863 471.398 18.021 472.933 19.9151 472.933C21.8092 472.933 23.3439 471.398 23.3439 469.503C23.3439 467.609 21.8092 466.074 19.9151 466.074C18.021 466.074 16.4863 467.609 16.4863 469.503Z" fill="white" fill-opacity="0.5"/>
<path d="M1.91211 469.503C1.91211 471.398 3.44681 472.933 5.3399 472.933C7.23398 472.933 8.76868 471.398 8.76868 469.503C8.76868 467.609 7.23398 466.074 5.3399 466.074C3.44681 466.074 1.91211 467.609 1.91211 469.503Z" fill="white" fill-opacity="0.5"/>
<path d="M45.6348 469.503C45.6348 471.398 47.1695 472.933 49.0635 472.933C50.9576 472.933 52.4923 471.398 52.4923 469.503C52.4923 467.609 50.9576 466.074 49.0635 466.074C47.1695 466.074 45.6348 467.609 45.6348 469.503Z" fill="white" fill-opacity="0.5"/>
<path d="M94.3766 59.2523L98.3444 55.2839L89.3041 46.2424L98.3444 37.1998L94.3766 33.2324L85.3363 42.274L76.296 33.2324L72.3281 37.1998L81.3684 46.2424L72.3281 55.2839L76.296 59.2523L85.3363 50.2098L94.3766 59.2523Z" fill="white" fill-opacity="0.5"/>
</svg>
