<svg width="133" height="727" viewBox="0 0 133 727" fill="none" xmlns="http://www.w3.org/2000/svg">
<path d="M36.6885 171.663L-5.974e-06 136.669L-6.20975e-06 142.063L35.4022 175.83L36.6885 175.83L36.6885 171.663ZM36.6885 159.438L-5.43962e-06 124.444L-5.67537e-06 129.837L36.6885 164.831L36.6885 159.438ZM36.6885 147.212L-4.90523e-06 112.219L-5.14098e-06 117.612L36.6885 152.606L36.6885 147.212ZM36.6885 134.987L-4.37085e-06 99.9934L-4.6066e-06 105.387L36.6885 140.38L36.6885 134.987ZM36.6885 122.761L-3.83642e-06 87.7671L-4.07221e-06 93.1614L36.6885 128.155L36.6885 122.761ZM36.6885 110.535L-3.30204e-06 75.5418L-3.53778e-06 80.9351L36.6885 115.929L36.6885 110.535ZM36.6885 98.3102L-2.76765e-06 63.3165L-3.0034e-06 68.7098L36.6885 103.703L36.6885 98.3102ZM36.6885 86.0849L-2.23327e-06 51.0912L-2.46901e-06 56.4845L36.6885 91.4782L36.6885 86.0849ZM36.6885 73.8595L-1.69888e-06 38.8658L-1.93463e-06 44.2592L36.6885 79.2529L36.6885 73.8595ZM36.6885 61.6333L-1.1645e-06 26.6405L-1.40024e-06 32.0339L36.6885 67.0276L36.6885 61.6333ZM36.6885 49.408L-6.3011e-07 14.4152L-8.65859e-07 19.8086L36.6885 54.8013L36.6885 49.408ZM36.6885 37.1836L-9.57247e-08 2.18993L-3.31432e-07 7.58227L36.6885 42.576L36.6885 37.1836ZM36.6885 24.9573L10.521 4.59887e-07L4.86725 2.12754e-07L36.6885 30.3516L36.6885 24.9573ZM36.6885 12.732L23.3386 1.02016e-06L17.6839 7.72988e-07L36.6885 18.1254L36.6885 12.732ZM36.6885 0.506736L36.1563 1.58044e-06L30.5016 1.33327e-06L36.6885 5.90004L36.6885 0.506736ZM-6.50843e-06 148.896L-6.74414e-06 154.288L22.5845 175.83L28.2383 175.83L-6.50843e-06 148.896ZM-7.04277e-06 161.12L-7.27857e-06 166.514L9.76591 175.83L15.4216 175.83L-7.04277e-06 161.12ZM-7.57716e-06 173.345L-7.68576e-06 175.83L2.60398 175.83L-7.57716e-06 173.345Z" fill="white" fill-opacity="0.5"/>
<path d="M103.248 558.444L118.886 573.36L118.886 567.966L103.248 553.051L103.248 558.444ZM103.248 546.219L118.886 561.134L118.886 555.741L103.248 540.826L103.248 546.219ZM103.248 570.67L118.886 585.585L118.886 580.193L103.248 565.276L103.248 570.67ZM103.248 521.769L118.886 536.684L118.886 531.29L103.248 516.375L103.248 521.769ZM103.248 509.543L118.886 524.458L118.886 519.064L103.248 504.149L103.248 509.543ZM103.248 582.895L118.886 597.81L118.886 592.418L103.248 577.502L103.248 582.895ZM103.248 533.994L118.886 548.909L118.886 543.516L103.248 528.601L103.248 533.994ZM118.886 506.839L114.86 503L109.206 503L118.886 512.232L118.886 506.839ZM103.248 668.473L113.909 678.643L118.886 678.643L118.886 677.996L103.248 663.081L103.248 668.473ZM103.248 675.306L103.248 678.643L106.747 678.643L103.248 675.306ZM103.248 656.248L118.886 671.164L118.886 665.771L103.248 650.856L103.248 656.248ZM103.248 644.023L118.886 658.939L118.886 653.544L103.248 638.629L103.248 644.023ZM103.248 595.121L118.886 610.036L118.886 604.643L103.248 589.727L103.248 595.121ZM103.248 607.347L118.886 622.262L118.886 616.868L103.248 601.953L103.248 607.347ZM103.248 619.572L118.886 634.487L118.886 629.094L103.248 614.179L103.248 619.572ZM103.248 626.404L118.886 641.319L118.886 646.712L103.248 631.797L103.248 626.404Z" fill="white" fill-opacity="0.5"/>
<path d="M103.248 678.643L103.238 678.643L103.248 678.651L103.248 678.643ZM84.998 685.697L103.248 703.103L103.248 697.71L84.998 680.303L84.998 685.697ZM103.248 685.483L96.0738 678.643L90.4201 678.643L103.248 690.877L103.248 685.483ZM84.998 697.922L103.248 715.328L103.248 709.935L84.998 692.528L84.998 697.922ZM95.0546 726.572L84.998 716.98L84.998 722.372L89.3999 726.572L95.0546 726.572ZM84.998 704.754L103.248 722.16L103.248 726.572L102.218 726.572L84.998 710.147L84.998 704.754Z" fill="white" fill-opacity="0.5"/>
<path d="M93.9639 272.834C92.0699 272.834 90.5352 274.369 90.5352 276.263C90.5352 278.158 92.0699 279.692 93.9639 279.692C95.858 279.692 97.3927 278.158 97.3927 276.263C97.3927 274.369 95.858 272.834 93.9639 272.834Z" fill="white" fill-opacity="0.5"/>
<path d="M93.9639 258.258C92.0699 258.258 90.5352 259.793 90.5352 261.687C90.5352 263.581 92.0699 265.116 93.9639 265.116C95.858 265.116 97.3927 263.581 97.3927 261.687C97.3927 259.793 95.858 258.258 93.9639 258.258Z" fill="white" fill-opacity="0.5"/>
<path d="M93.9639 243.682C92.0699 243.682 90.5352 245.217 90.5352 247.111C90.5352 249.004 92.0699 250.54 93.9639 250.54C95.858 250.54 97.3927 249.004 97.3927 247.111C97.3927 245.217 95.858 243.682 93.9639 243.682Z" fill="white" fill-opacity="0.5"/>
<path d="M93.9639 229.107C92.0699 229.107 90.5352 230.642 90.5352 232.537C90.5352 234.431 92.0699 235.966 93.9639 235.966C95.858 235.966 97.3927 234.431 97.3927 232.537C97.3927 230.642 95.858 229.107 93.9639 229.107Z" fill="white" fill-opacity="0.5"/>
<path d="M93.9639 214.531C92.0699 214.531 90.5352 216.066 90.5352 217.961C90.5352 219.855 92.0699 221.39 93.9639 221.39C95.858 221.39 97.3927 219.855 97.3927 217.961C97.3927 216.066 95.858 214.531 93.9639 214.531Z" fill="white" fill-opacity="0.5"/>
<path d="M93.9639 199.955C92.0699 199.955 90.5352 201.49 90.5352 203.384C90.5352 205.278 92.0699 206.814 93.9639 206.814C95.858 206.814 97.3927 205.278 97.3927 203.384C97.3927 201.49 95.858 199.955 93.9639 199.955Z" fill="white" fill-opacity="0.5"/>
<path d="M93.9639 185.379C92.0699 185.379 90.5352 186.914 90.5352 188.808C90.5352 190.702 92.0699 192.237 93.9639 192.237C95.858 192.237 97.3927 190.702 97.3927 188.808C97.3927 186.914 95.858 185.379 93.9639 185.379Z" fill="white" fill-opacity="0.5"/>
<path d="M93.9639 287.41C92.0699 287.41 90.5352 288.945 90.5352 290.839C90.5352 292.734 92.0699 294.269 93.9639 294.269C95.858 294.269 97.3927 292.734 97.3927 290.839C97.3927 288.945 95.858 287.41 93.9639 287.41Z" fill="white" fill-opacity="0.5"/>
<path d="M93.9639 170.803C92.0699 170.803 90.5352 172.338 90.5352 174.232C90.5352 176.126 92.0699 177.661 93.9639 177.661C95.858 177.661 97.3927 176.126 97.3927 174.232C97.3927 172.338 95.858 170.803 93.9639 170.803Z" fill="white" fill-opacity="0.5"/>
<path d="M31.0605 536.503C31.0605 538.398 32.5952 539.933 34.4893 539.933C36.3834 539.933 37.9181 538.398 37.9181 536.503C37.9181 534.609 36.3834 533.074 34.4893 533.074C32.5952 533.074 31.0605 534.609 31.0605 536.503Z" fill="white" fill-opacity="0.5"/>
<path d="M16.4863 536.503C16.4863 538.398 18.021 539.933 19.9151 539.933C21.8092 539.933 23.3439 538.398 23.3439 536.503C23.3439 534.609 21.8092 533.074 19.9151 533.074C18.021 533.074 16.4863 534.609 16.4863 536.503Z" fill="white" fill-opacity="0.5"/>
<path d="M1.91211 536.503C1.91211 538.398 3.44681 539.933 5.3399 539.933C7.23398 539.933 8.76868 538.398 8.76868 536.503C8.76868 534.609 7.23398 533.074 5.3399 533.074C3.44681 533.074 1.91211 534.609 1.91211 536.503Z" fill="white" fill-opacity="0.5"/>
<path d="M45.6348 536.503C45.6348 538.398 47.1695 539.933 49.0635 539.933C50.9576 539.933 52.4923 538.398 52.4923 536.503C52.4923 534.609 50.9576 533.074 49.0635 533.074C47.1695 533.074 45.6348 534.609 45.6348 536.503Z" fill="white" fill-opacity="0.5"/>
<path d="M128.048 117.02L132.016 113.052L122.976 104.01L132.016 94.9674L128.048 91L119.008 100.042L109.968 91L106 94.9674L115.04 104.01L106 113.052L109.968 117.02L119.008 107.977L128.048 117.02Z" fill="white" fill-opacity="0.5"/>
</svg>
