<svg width="81" height="353" viewBox="0 0 81 353" fill="none" xmlns="http://www.w3.org/2000/svg">
<path d="M36.6885 171.663L-5.974e-06 136.669L-6.20975e-06 142.063L35.4022 175.83L36.6885 175.83L36.6885 171.663ZM36.6885 159.438L-5.43962e-06 124.444L-5.67537e-06 129.837L36.6885 164.831L36.6885 159.438ZM36.6885 147.212L-4.90523e-06 112.219L-5.14098e-06 117.612L36.6885 152.606L36.6885 147.212ZM36.6885 134.987L-4.37085e-06 99.9934L-4.6066e-06 105.387L36.6885 140.38L36.6885 134.987ZM36.6885 122.761L-3.83642e-06 87.7671L-4.07221e-06 93.1614L36.6885 128.155L36.6885 122.761ZM36.6885 110.535L-3.30204e-06 75.5418L-3.53778e-06 80.9351L36.6885 115.929L36.6885 110.535ZM36.6885 98.3102L-2.76765e-06 63.3165L-3.0034e-06 68.7098L36.6885 103.703L36.6885 98.3102ZM36.6885 86.0849L-2.23327e-06 51.0912L-2.46901e-06 56.4845L36.6885 91.4782L36.6885 86.0849ZM36.6885 73.8595L-1.69888e-06 38.8658L-1.93463e-06 44.2592L36.6885 79.2529L36.6885 73.8595ZM36.6885 61.6333L-1.1645e-06 26.6405L-1.40024e-06 32.0339L36.6885 67.0276L36.6885 61.6333ZM36.6885 49.408L-6.3011e-07 14.4152L-8.65859e-07 19.8086L36.6885 54.8013L36.6885 49.408ZM36.6885 37.1836L-9.57247e-08 2.18993L-3.31432e-07 7.58227L36.6885 42.576L36.6885 37.1836ZM36.6885 24.9573L10.521 4.59887e-07L4.86725 2.12754e-07L36.6885 30.3516L36.6885 24.9573ZM36.6885 12.732L23.3386 1.02016e-06L17.6839 7.72988e-07L36.6885 18.1254L36.6885 12.732ZM36.6885 0.506736L36.1563 1.58044e-06L30.5016 1.33327e-06L36.6885 5.90004L36.6885 0.506736ZM-6.50843e-06 148.896L-6.74414e-06 154.288L22.5845 175.83L28.2383 175.83L-6.50843e-06 148.896ZM-7.04277e-06 161.12L-7.27857e-06 166.514L9.76591 175.83L15.4216 175.83L-7.04277e-06 161.12ZM-7.57716e-06 173.345L-7.68576e-06 175.83L2.60398 175.83L-7.57716e-06 173.345Z" fill="white" fill-opacity="0.5"/>
<path d="M63 149.955H80.9565V132H63V149.955Z" fill="white" fill-opacity="0.5"/>
<path d="M63 203.535H80.9565V162.389H63V203.535Z" fill="white" fill-opacity="0.5"/>
<path d="M63 352.158H80.9565V215.13H63V352.158Z" fill="white" fill-opacity="0.5"/>
</svg>
