<svg width="106" height="648" viewBox="0 0 106 648" fill="none" xmlns="http://www.w3.org/2000/svg">
<path d="M78.0605 39.5015C78.0605 41.3959 79.5952 42.9308 81.4893 42.9308C83.3834 42.9308 84.9181 41.3959 84.9181 39.5015C84.9181 37.6072 83.3834 36.0723 81.4893 36.0723C79.5952 36.0723 78.0605 37.6072 78.0605 39.5015Z" fill="white" fill-opacity="0.5"/>
<path d="M63.4863 39.5015C63.4863 41.3959 65.021 42.9308 66.9151 42.9308C68.8092 42.9308 70.3439 41.3959 70.3439 39.5015C70.3439 37.6072 68.8092 36.0723 66.9151 36.0723C65.021 36.0723 63.4863 37.6072 63.4863 39.5015Z" fill="white" fill-opacity="0.5"/>
<path d="M48.9121 39.5015C48.9121 41.3959 50.4468 42.9308 52.3399 42.9308C54.234 42.9308 55.7687 41.3959 55.7687 39.5015C55.7687 37.6072 54.234 36.0723 52.3399 36.0723C50.4468 36.0723 48.9121 37.6072 48.9121 39.5015Z" fill="white" fill-opacity="0.5"/>
<path d="M92.6348 39.5015C92.6348 41.3959 94.1695 42.9308 96.0635 42.9308C97.9576 42.9308 99.4923 41.3959 99.4923 39.5015C99.4923 37.6072 97.9576 36.0723 96.0635 36.0723C94.1695 36.0723 92.6348 37.6072 92.6348 39.5015Z" fill="white" fill-opacity="0.5"/>
<path d="M36.6885 469.833L-5.974e-06 434.839L-6.20975e-06 440.233L35.4022 474L36.6885 474L36.6885 469.833ZM36.6885 457.608L-5.43962e-06 422.614L-5.67537e-06 428.007L36.6885 463.001L36.6885 457.608ZM36.6885 445.382L-4.90523e-06 410.389L-5.14098e-06 415.782L36.6885 450.776L36.6885 445.382ZM36.6885 433.157L-4.37085e-06 398.163L-4.6066e-06 403.557L36.6885 438.55L36.6885 433.157ZM36.6885 420.931L-3.83642e-06 385.937L-4.07221e-06 391.331L36.6885 426.325L36.6885 420.931ZM36.6885 408.705L-3.30204e-06 373.712L-3.53778e-06 379.105L36.6885 414.099L36.6885 408.705ZM36.6885 396.48L-2.76765e-06 361.486L-3.0034e-06 366.88L36.6885 401.873L36.6885 396.48ZM36.6885 384.255L-2.23327e-06 349.261L-2.46901e-06 354.654L36.6885 389.648L36.6885 384.255ZM36.6885 372.029L-1.69888e-06 337.036L-1.93463e-06 342.429L36.6885 377.423L36.6885 372.029ZM36.6885 359.803L-1.1645e-06 324.81L-1.40024e-06 330.204L36.6885 365.197L36.6885 359.803ZM36.6885 347.578L-6.3011e-07 312.585L-8.65859e-07 317.978L36.6885 352.971L36.6885 347.578ZM36.6885 335.354L-9.57247e-08 300.36L-3.31432e-07 305.752L36.6885 340.746L36.6885 335.354ZM36.6885 323.127L10.521 298.17L4.86725 298.17L36.6885 328.522L36.6885 323.127ZM36.6885 310.902L23.3386 298.17L17.6839 298.17L36.6885 316.295L36.6885 310.902ZM36.6885 298.677L36.1563 298.17L30.5016 298.17L36.6885 304.07L36.6885 298.677ZM-6.50843e-06 447.065L-6.74414e-06 452.458L22.5845 474L28.2383 474L-6.50843e-06 447.065ZM-7.04277e-06 459.29L-7.27857e-06 464.684L9.76591 474L15.4216 474L-7.04277e-06 459.29ZM-7.57716e-06 471.515L-7.68576e-06 474L2.60398 474L-7.57716e-06 471.515Z" fill="white" fill-opacity="0.5"/>
<path d="M42.1644 646.617L42.1644 396.305L31.3062 396.305L31.3062 646.617L42.1644 646.617ZM43.4707 395L43.4707 647.924L29.9999 647.924L29.9999 395L43.4707 395Z" fill="#E2051B"/>
<path d="M104.431 132.721L104.431 1.30572L99.4704 1.30572L99.4704 132.721L104.431 132.721ZM105.736 -0.000773506L105.736 134.027L98.1634 134.027L98.1634 -0.000773175L105.736 -0.000773506Z" fill="#E2051B"/>
</svg>
