<svg width="27" height="319" viewBox="0 0 27 319" fill="none" xmlns="http://www.w3.org/2000/svg">
<path d="M22.0484 26.0199L26.0163 22.0515L16.976 13.01L26.0163 3.96839L22.0484 9.63768e-07L13.0081 9.04156L3.96783 1.7344e-07L-1.73464e-07 3.96839L9.0403 13.01L-9.63902e-07 22.0515L3.96783 26.0199L13.0081 16.9783L22.0484 26.0199Z" fill="white" fill-opacity="0.5"/>
<path d="M4.95312 46.9609L4.95312 63.075L21.064 63.075L21.064 46.9609L4.95312 46.9609Z" fill="white" fill-opacity="0.5"/>
<path d="M4.95312 81.0781L4.95312 101.937L21.064 101.937L21.064 81.0781L4.95312 81.0781Z" fill="white" fill-opacity="0.5"/>
<path d="M4.95312 124.807L4.95312 318.92L21.064 318.92L21.064 124.807L4.95312 124.807Z" fill="white" fill-opacity="0.5"/>
</svg>
