<svg width="517" height="826" viewBox="0 0 517 826" fill="none" xmlns="http://www.w3.org/2000/svg">
<g opacity="0.05">
<path d="M5.91113 813.479L5.92383 745.35L5.9248 739.433L11.8418 739.441L27.8564 739.466L33.7168 739.475L33.7568 745.334C33.7661 746.678 33.7606 748.02 33.7412 749.362L33.6582 755.114L27.9062 755.186C25.8022 755.212 23.6991 755.224 21.5977 755.222C21.6037 755.965 21.611 756.722 21.6113 757.486L21.6182 771.586L21.6182 771.589C21.6186 782.28 21.5166 793.011 21.584 803.614L27.8408 803.611L33.7402 803.609L33.752 809.509L33.7607 813.447L33.7725 819.361L27.8584 819.369L11.8281 819.389L5.91016 819.396L5.91113 813.479Z" fill="#3B454C" stroke="#3B454C" stroke-width="11.8185"/>
<path d="M5.91113 708.69L5.92383 640.562L5.9248 634.645L11.8418 634.653L27.8564 634.678L33.7168 634.687L33.7568 640.546C33.7661 641.89 33.7606 643.232 33.7412 644.574L33.6582 650.326L27.9062 650.397C25.8022 650.424 23.6991 650.435 21.5977 650.434C21.6037 651.177 21.611 651.934 21.6113 652.698L21.6182 666.798L21.6182 666.801C21.6186 677.492 21.5166 688.223 21.584 698.826L27.8408 698.823L33.7402 698.821L33.752 704.721L33.7607 708.659L33.7725 714.573L27.8584 714.581L11.8281 714.601L5.91016 714.608L5.91113 708.69Z" fill="#3B454C" stroke="#3B454C" stroke-width="11.8185"/>
<path d="M5.91113 603.903L5.92383 535.774L5.9248 529.857L11.8418 529.866L27.8564 529.891L33.7168 529.899L33.7568 535.759C33.7661 537.103 33.7606 538.445 33.7412 539.787L33.6582 545.539L27.9062 545.61C25.8022 545.636 23.6991 545.648 21.5977 545.646C21.6037 546.389 21.611 547.147 21.6113 547.911L21.6182 562.011L21.6182 562.014C21.6186 572.705 21.5166 583.436 21.584 594.039L27.8408 594.036L33.7402 594.034L33.752 599.934L33.7607 603.872L33.7725 609.786L27.8584 609.794L11.8281 609.813L5.91016 609.821L5.91113 603.903Z" fill="#3B454C" stroke="#3B454C" stroke-width="11.8185"/>
<path d="M5.91113 499.115L5.92383 430.986L5.9248 425.069L11.8418 425.078L27.8564 425.103L33.7168 425.111L33.7568 430.971C33.7661 432.315 33.7606 433.657 33.7412 434.999L33.6582 440.751L27.9062 440.822C25.8022 440.848 23.6991 440.86 21.5977 440.858C21.6037 441.601 21.611 442.359 21.6113 443.123L21.6182 457.223L21.6182 457.226C21.6186 467.916 21.5166 478.648 21.584 489.251L27.8408 489.248L33.7402 489.246L33.752 495.146L33.7607 499.084L33.7725 504.998L27.8584 505.006L11.8281 505.025L5.91016 505.033L5.91113 499.115Z" fill="#3B454C" stroke="#3B454C" stroke-width="11.8185"/>
<path d="M5.91113 394.327L5.92383 326.198L5.9248 320.281L11.8418 320.29L27.8564 320.314L33.7168 320.323L33.7568 326.183C33.7661 327.526 33.7606 328.869 33.7412 330.211L33.6582 335.963L27.9062 336.034C25.8022 336.06 23.6991 336.072 21.5977 336.07C21.6037 336.813 21.611 337.57 21.6113 338.335L21.6182 352.435L21.6182 352.437C21.6186 363.128 21.5166 373.86 21.584 384.463L27.8408 384.46L33.7402 384.458L33.752 390.357L33.7607 394.296L33.7725 400.21L27.8584 400.218L11.8281 400.237L5.91016 400.245L5.91113 394.327Z" fill="#3B454C" stroke="#3B454C" stroke-width="11.8185"/>
<path d="M5.91113 289.539L5.92383 221.41L5.9248 215.493L11.8418 215.502L27.8564 215.526L33.7168 215.535L33.7568 221.395C33.7661 222.738 33.7606 224.081 33.7412 225.423L33.6582 231.175L27.9062 231.246C25.8022 231.272 23.6991 231.284 21.5977 231.282C21.6037 232.025 21.611 232.782 21.6113 233.547L21.6182 247.646L21.6182 247.649C21.6186 258.34 21.5166 269.072 21.584 279.675L27.8408 279.672L33.7402 279.67L33.752 285.569L33.7607 289.508L33.7725 295.422L27.8584 295.43L11.8281 295.449L5.91016 295.457L5.91113 289.539Z" fill="#3B454C" stroke="#3B454C" stroke-width="11.8185"/>
<path d="M5.91113 184.752L5.92383 116.623L5.9248 110.706L11.8418 110.715L27.8564 110.739L33.7168 110.748L33.7568 116.607C33.7661 117.951 33.7606 119.294 33.7412 120.636L33.6582 126.388L27.9062 126.459C25.8022 126.485 23.6991 126.497 21.5977 126.495C21.6037 127.238 21.611 127.995 21.6113 128.76L21.6182 142.859L21.6182 142.862C21.6186 153.553 21.5166 164.284 21.584 174.888L27.8408 174.885L33.7402 174.883L33.752 180.782L33.7607 184.721L33.7725 190.635L27.8584 190.643L11.8281 190.662L5.91016 190.67L5.91113 184.752Z" fill="#3B454C" stroke="#3B454C" stroke-width="11.8185"/>
<path d="M5.91113 79.9639L5.92383 11.835L5.9248 5.91797L11.8418 5.92676L27.8564 5.95117L33.7168 5.95996L33.7568 11.8193C33.7661 13.1631 33.7606 14.5057 33.7412 15.8477L33.6582 21.5996L27.9062 21.6709C25.8022 21.697 23.6991 21.7089 21.5977 21.707C21.6037 22.45 21.611 23.2072 21.6113 23.9717L21.6182 38.0713L21.6182 38.0742C21.6186 48.7651 21.5166 59.4963 21.584 70.0996L27.8408 70.0967L33.7402 70.0947L33.752 75.9941L33.7607 79.9326L33.7725 85.8467L27.8584 85.8545L11.8281 85.874L5.91016 85.8818L5.91113 79.9639Z" fill="#3B454C" stroke="#3B454C" stroke-width="11.8185"/>
<path d="M58.9141 813.442L58.9189 809.512L58.9258 803.619L64.8184 803.61L70.9922 803.601C70.9979 803.011 71.0037 802.484 71.0039 802.062L71.0039 789.008L71.0186 755.234C68.8974 755.228 66.7955 755.208 64.8008 755.198L58.9678 755.17L58.9199 749.338C58.909 748.008 58.9058 746.679 58.9082 745.353L58.9189 739.465L64.8057 739.454L68.5928 739.446L68.6016 739.446L80.8369 739.441L86.8096 739.439L86.749 745.412C86.6788 752.252 86.7568 759.162 86.7568 766.143L86.7568 766.145L86.749 813.48L86.748 819.479L80.751 819.388C75.3639 819.306 70.405 819.4 64.7793 819.358L58.9063 819.314L58.9141 813.442Z" fill="#3B454C" stroke="#3B454C" stroke-width="11.8185"/>
<path d="M58.9141 708.654L58.9189 704.724L58.9258 698.831L64.8184 698.822L70.9922 698.812C70.9979 698.223 71.0037 697.696 71.0039 697.274L71.0039 684.22L71.0186 650.446C68.8974 650.44 66.7955 650.42 64.8008 650.41L58.9678 650.382L58.9199 644.55C58.909 643.22 58.9058 641.891 58.9082 640.564L58.9189 634.677L64.8057 634.666L68.5928 634.658L68.6016 634.658L80.8369 634.653L86.8096 634.651L86.749 640.624C86.6788 647.464 86.7568 654.374 86.7568 661.354L86.7568 661.356L86.749 708.692L86.748 714.69L80.751 714.6C75.3639 714.518 70.405 714.612 64.7793 714.57L58.9063 714.526L58.9141 708.654Z" fill="#3B454C" stroke="#3B454C" stroke-width="11.8185"/>
<path d="M58.9141 603.867L58.9189 599.937L58.9258 594.044L64.8184 594.035L70.9922 594.025C70.9979 593.436 71.0037 592.909 71.0039 592.487L71.0039 579.433L71.0186 545.659C68.8974 545.653 66.7955 545.633 64.8008 545.623L58.9678 545.595L58.9199 539.763C58.909 538.433 58.9058 537.104 58.9082 535.777L58.9189 529.89L64.8057 529.879L68.5928 529.871L68.6016 529.871L80.8369 529.866L86.8096 529.864L86.749 535.837C86.6788 542.677 86.7568 549.587 86.7568 556.567L86.7568 556.569L86.749 603.905L86.748 609.903L80.751 609.812C75.3639 609.731 70.405 609.825 64.7793 609.783L58.9063 609.739L58.9141 603.867Z" fill="#3B454C" stroke="#3B454C" stroke-width="11.8185"/>
<path d="M58.9141 499.079L58.9189 495.148L58.9258 489.256L64.8184 489.247L70.9922 489.237C70.9979 488.648 71.0037 488.121 71.0039 487.699L71.0039 474.645L71.0186 440.871C68.8974 440.865 66.7955 440.845 64.8008 440.835L58.9678 440.807L58.9199 434.975C58.909 433.644 58.9058 432.316 58.9082 430.989L58.9189 425.102L64.8057 425.091L68.5928 425.083L68.6016 425.083L80.8369 425.078L86.8096 425.076L86.749 431.049C86.6788 437.889 86.7568 444.798 86.7568 451.779L86.7568 451.781L86.749 499.117L86.748 505.115L80.751 505.024C75.3639 504.943 70.405 505.037 64.7793 504.995L58.9063 504.951L58.9141 499.079Z" fill="#3B454C" stroke="#3B454C" stroke-width="11.8185"/>
<path d="M58.9141 394.291L58.9189 390.36L58.9258 384.468L64.8184 384.459L70.9922 384.449C70.9979 383.86 71.0037 383.333 71.0039 382.911L71.0039 369.856L71.0186 336.083C68.8974 336.076 66.7955 336.056 64.8008 336.047L58.9678 336.019L58.9199 330.187C58.909 328.856 58.9058 327.528 58.9082 326.201L58.9189 320.313L64.8057 320.303L68.5928 320.295L68.6016 320.295L80.8369 320.29L86.8096 320.288L86.749 326.261C86.6788 333.101 86.7568 340.01 86.7568 346.991L86.7568 346.993L86.749 394.329L86.748 400.327L80.751 400.236C75.3639 400.155 70.405 400.249 64.7793 400.207L58.9063 400.163L58.9141 394.291Z" fill="#3B454C" stroke="#3B454C" stroke-width="11.8185"/>
<path d="M58.9141 289.503L58.9189 285.572L58.9258 279.68L64.8184 279.671L70.9922 279.661C70.9979 279.071 71.0037 278.545 71.0039 278.123L71.0039 265.068L71.0186 231.295C68.8974 231.288 66.7955 231.268 64.8008 231.259L58.9678 231.23L58.9199 225.398C58.909 224.068 58.9058 222.74 58.9082 221.413L58.9189 215.525L64.8057 215.515L68.5928 215.507L68.6016 215.507L80.8369 215.502L86.8096 215.5L86.749 221.473C86.6788 228.312 86.7568 235.222 86.7568 242.203L86.7568 242.205L86.749 289.541L86.748 295.539L80.751 295.448C75.3639 295.367 70.405 295.461 64.7793 295.419L58.9063 295.375L58.9141 289.503Z" fill="#3B454C" stroke="#3B454C" stroke-width="11.8185"/>
<path d="M58.9141 184.716L58.9189 180.785L58.9258 174.893L64.8184 174.884L70.9922 174.874C70.9979 174.284 71.0037 173.758 71.0039 173.336L71.0039 160.281L71.0186 126.508C68.8974 126.501 66.7955 126.481 64.8008 126.472L58.9678 126.443L58.9199 120.611C58.909 119.281 58.9058 117.953 58.9082 116.626L58.9189 110.738L64.8057 110.728L68.5928 110.72L68.6016 110.72L80.8369 110.715L86.8096 110.713L86.749 116.686C86.6788 123.525 86.7568 130.435 86.7568 137.416L86.7568 137.418L86.749 184.754L86.748 190.752L80.751 190.661C75.3639 190.58 70.405 190.674 64.7793 190.632L58.9063 190.588L58.9141 184.716Z" fill="#3B454C" stroke="#3B454C" stroke-width="11.8185"/>
<path d="M58.9141 79.9277L58.9189 75.9971L58.9258 70.1045L64.8184 70.0957L70.9922 70.0859C70.9979 69.4962 71.0037 68.9697 71.0039 68.5479L71.0039 55.4932L71.0186 21.7197C68.8974 21.7132 66.7955 21.6932 64.8008 21.6836L58.9678 21.6553L58.9199 15.8232C58.909 14.4931 58.9058 13.1645 58.9082 11.8379L58.9189 5.9502L64.8057 5.93945L68.5928 5.93164L68.6016 5.93164L80.8369 5.92676L86.8096 5.9248L86.749 11.8975C86.6788 18.7373 86.7568 25.6471 86.7568 32.6279L86.7568 32.6299L86.749 79.9658L86.748 85.9639L80.751 85.873C75.3639 85.7918 70.405 85.8858 64.7793 85.8438L58.9063 85.7998L58.9141 79.9277Z" fill="#3B454C" stroke="#3B454C" stroke-width="11.8185"/>
<path d="M111.904 813.479L111.917 745.35L111.918 739.433L117.835 739.441L133.85 739.466L139.71 739.475L139.75 745.334C139.759 746.678 139.754 748.02 139.734 749.362L139.651 755.114L133.899 755.186C131.795 755.212 129.692 755.224 127.591 755.222C127.597 755.965 127.604 756.722 127.604 757.486L127.611 771.586L127.611 771.589C127.612 782.28 127.51 793.011 127.577 803.614L133.834 803.611L139.733 803.609L139.745 809.509L139.754 813.447L139.766 819.361L133.852 819.369L117.821 819.389L111.903 819.396L111.904 813.479Z" fill="#3B454C" stroke="#3B454C" stroke-width="11.8185"/>
<path d="M111.904 708.69L111.917 640.562L111.918 634.645L117.835 634.653L133.85 634.678L139.71 634.687L139.75 640.546C139.759 641.89 139.754 643.232 139.734 644.574L139.651 650.326L133.899 650.397C131.795 650.424 129.692 650.435 127.591 650.434C127.597 651.177 127.604 651.934 127.604 652.698L127.611 666.798L127.611 666.801C127.612 677.492 127.51 688.223 127.577 698.826L133.834 698.823L139.733 698.821L139.745 704.721L139.754 708.659L139.766 714.573L133.852 714.581L117.821 714.601L111.903 714.608L111.904 708.69Z" fill="#3B454C" stroke="#3B454C" stroke-width="11.8185"/>
<path d="M111.904 603.903L111.917 535.774L111.918 529.857L117.835 529.866L133.85 529.891L139.71 529.899L139.75 535.759C139.759 537.103 139.754 538.445 139.734 539.787L139.651 545.539L133.899 545.61C131.795 545.636 129.692 545.648 127.591 545.646C127.597 546.389 127.604 547.147 127.604 547.911L127.611 562.011L127.611 562.014C127.612 572.705 127.51 583.436 127.577 594.039L133.834 594.036L139.733 594.034L139.745 599.934L139.754 603.872L139.766 609.786L133.852 609.794L117.821 609.813L111.903 609.821L111.904 603.903Z" fill="#3B454C" stroke="#3B454C" stroke-width="11.8185"/>
<path d="M111.904 499.115L111.917 430.986L111.918 425.069L117.835 425.078L133.85 425.103L139.71 425.111L139.75 430.971C139.759 432.315 139.754 433.657 139.734 434.999L139.651 440.751L133.899 440.822C131.795 440.848 129.692 440.86 127.591 440.858C127.597 441.601 127.604 442.359 127.604 443.123L127.611 457.223L127.611 457.226C127.612 467.916 127.51 478.648 127.577 489.251L133.834 489.248L139.733 489.246L139.745 495.146L139.754 499.084L139.766 504.998L133.852 505.006L117.821 505.025L111.903 505.033L111.904 499.115Z" fill="#3B454C" stroke="#3B454C" stroke-width="11.8185"/>
<path d="M111.904 394.327L111.917 326.198L111.918 320.281L117.835 320.29L133.85 320.314L139.71 320.323L139.75 326.183C139.759 327.526 139.754 328.869 139.734 330.211L139.651 335.963L133.899 336.034C131.795 336.06 129.692 336.072 127.591 336.07C127.597 336.813 127.604 337.57 127.604 338.335L127.611 352.435L127.611 352.437C127.612 363.128 127.51 373.86 127.577 384.463L133.834 384.46L139.733 384.458L139.745 390.357L139.754 394.296L139.766 400.21L133.852 400.218L117.821 400.237L111.903 400.245L111.904 394.327Z" fill="#3B454C" stroke="#3B454C" stroke-width="11.8185"/>
<path d="M111.904 289.539L111.917 221.41L111.918 215.493L117.835 215.502L133.85 215.526L139.71 215.535L139.75 221.395C139.759 222.738 139.754 224.081 139.734 225.423L139.651 231.175L133.899 231.246C131.795 231.272 129.692 231.284 127.591 231.282C127.597 232.025 127.604 232.782 127.604 233.547L127.611 247.646L127.611 247.649C127.612 258.34 127.51 269.072 127.577 279.675L133.834 279.672L139.733 279.67L139.745 285.569L139.754 289.508L139.766 295.422L133.852 295.43L117.821 295.449L111.903 295.457L111.904 289.539Z" fill="#3B454C" stroke="#3B454C" stroke-width="11.8185"/>
<path d="M111.904 184.752L111.917 116.623L111.918 110.706L117.835 110.715L133.85 110.739L139.71 110.748L139.75 116.607C139.759 117.951 139.754 119.294 139.734 120.636L139.651 126.388L133.899 126.459C131.795 126.485 129.692 126.497 127.591 126.495C127.597 127.238 127.604 127.995 127.604 128.76L127.611 142.859L127.611 142.862C127.612 153.553 127.51 164.284 127.577 174.888L133.834 174.885L139.733 174.883L139.745 180.782L139.754 184.721L139.766 190.635L133.852 190.643L117.821 190.662L111.903 190.67L111.904 184.752Z" fill="#3B454C" stroke="#3B454C" stroke-width="11.8185"/>
<path d="M111.904 79.9639L111.917 11.835L111.918 5.91797L117.835 5.92676L133.85 5.95117L139.71 5.95996L139.75 11.8193C139.759 13.1631 139.754 14.5057 139.734 15.8477L139.651 21.5996L133.899 21.6709C131.795 21.697 129.692 21.7089 127.591 21.707C127.597 22.45 127.604 23.2072 127.604 23.9717L127.611 38.0713L127.611 38.0742C127.612 48.7651 127.51 59.4963 127.577 70.0996L133.834 70.0967L139.733 70.0947L139.745 75.9941L139.754 79.9326L139.766 85.8467L133.852 85.8545L117.821 85.874L111.903 85.8818L111.904 79.9639Z" fill="#3B454C" stroke="#3B454C" stroke-width="11.8185"/>
<path d="M164.907 813.442L164.912 809.512L164.919 803.619L170.812 803.61L176.985 803.601C176.991 803.011 176.997 802.484 176.997 802.062L176.997 789.008L177.012 755.234C174.891 755.228 172.789 755.208 170.794 755.198L164.961 755.17L164.913 749.338C164.902 748.008 164.899 746.679 164.901 745.353L164.912 739.465L170.799 739.454L174.586 739.446L174.595 739.446L186.83 739.441L192.803 739.439L192.742 745.412C192.672 752.252 192.75 759.162 192.75 766.143L192.75 766.145L192.742 813.48L192.741 819.479L186.744 819.388C181.357 819.306 176.398 819.4 170.772 819.358L164.899 819.314L164.907 813.442Z" fill="#3B454C" stroke="#3B454C" stroke-width="11.8185"/>
<path d="M164.907 708.654L164.912 704.724L164.919 698.831L170.812 698.822L176.985 698.812C176.991 698.223 176.997 697.696 176.997 697.274L176.997 684.22L177.012 650.446C174.891 650.44 172.789 650.42 170.794 650.41L164.961 650.382L164.913 644.55C164.902 643.22 164.899 641.891 164.901 640.564L164.912 634.677L170.799 634.666L174.586 634.658L174.595 634.658L186.83 634.653L192.803 634.651L192.742 640.624C192.672 647.464 192.75 654.374 192.75 661.354L192.75 661.356L192.742 708.692L192.741 714.69L186.744 714.6C181.357 714.518 176.398 714.612 170.772 714.57L164.899 714.526L164.907 708.654Z" fill="#3B454C" stroke="#3B454C" stroke-width="11.8185"/>
<path d="M164.907 603.867L164.912 599.937L164.919 594.044L170.812 594.035L176.985 594.025C176.991 593.436 176.997 592.909 176.997 592.487L176.997 579.433L177.012 545.659C174.891 545.653 172.789 545.633 170.794 545.623L164.961 545.595L164.913 539.763C164.902 538.433 164.899 537.104 164.901 535.777L164.912 529.89L170.799 529.879L174.586 529.871L174.595 529.871L186.83 529.866L192.803 529.864L192.742 535.837C192.672 542.677 192.75 549.587 192.75 556.567L192.75 556.569L192.742 603.905L192.741 609.903L186.744 609.812C181.357 609.731 176.398 609.825 170.772 609.783L164.899 609.739L164.907 603.867Z" fill="#3B454C" stroke="#3B454C" stroke-width="11.8185"/>
<path d="M164.907 499.079L164.912 495.148L164.919 489.256L170.812 489.247L176.985 489.237C176.991 488.648 176.997 488.121 176.997 487.699L176.997 474.645L177.012 440.871C174.891 440.865 172.789 440.845 170.794 440.835L164.961 440.807L164.913 434.975C164.902 433.644 164.899 432.316 164.901 430.989L164.912 425.102L170.799 425.091L174.586 425.083L174.595 425.083L186.83 425.078L192.803 425.076L192.742 431.049C192.672 437.889 192.75 444.798 192.75 451.779L192.75 451.781L192.742 499.117L192.741 505.115L186.744 505.024C181.357 504.943 176.398 505.037 170.772 504.995L164.899 504.951L164.907 499.079Z" fill="#3B454C" stroke="#3B454C" stroke-width="11.8185"/>
<path d="M164.907 394.291L164.912 390.36L164.919 384.468L170.812 384.459L176.985 384.449C176.991 383.86 176.997 383.333 176.997 382.911L176.997 369.856L177.012 336.083C174.891 336.076 172.789 336.056 170.794 336.047L164.961 336.019L164.913 330.187C164.902 328.856 164.899 327.528 164.901 326.201L164.912 320.313L170.799 320.303L174.586 320.295L174.595 320.295L186.83 320.29L192.803 320.288L192.742 326.261C192.672 333.101 192.75 340.01 192.75 346.991L192.75 346.993L192.742 394.329L192.741 400.327L186.744 400.236C181.357 400.155 176.398 400.249 170.772 400.207L164.899 400.163L164.907 394.291Z" fill="#3B454C" stroke="#3B454C" stroke-width="11.8185"/>
<path d="M164.907 289.503L164.912 285.572L164.919 279.68L170.812 279.671L176.985 279.661C176.991 279.071 176.997 278.545 176.997 278.123L176.997 265.068L177.012 231.295C174.891 231.288 172.789 231.268 170.794 231.259L164.961 231.23L164.913 225.398C164.902 224.068 164.899 222.74 164.901 221.413L164.912 215.525L170.799 215.515L174.586 215.507L174.595 215.507L186.83 215.502L192.803 215.5L192.742 221.473C192.672 228.312 192.75 235.222 192.75 242.203L192.75 242.205L192.742 289.541L192.741 295.539L186.744 295.448C181.357 295.367 176.398 295.461 170.772 295.419L164.899 295.375L164.907 289.503Z" fill="#3B454C" stroke="#3B454C" stroke-width="11.8185"/>
<path d="M164.907 184.716L164.912 180.785L164.919 174.893L170.812 174.884L176.985 174.874C176.991 174.284 176.997 173.758 176.997 173.336L176.997 160.281L177.012 126.508C174.891 126.501 172.789 126.481 170.794 126.472L164.961 126.443L164.913 120.611C164.902 119.281 164.899 117.953 164.901 116.626L164.912 110.738L170.799 110.728L174.586 110.72L174.595 110.72L186.83 110.715L192.803 110.713L192.742 116.686C192.672 123.525 192.75 130.435 192.75 137.416L192.75 137.418L192.742 184.754L192.741 190.752L186.744 190.661C181.357 190.58 176.398 190.674 170.772 190.632L164.899 190.588L164.907 184.716Z" fill="#3B454C" stroke="#3B454C" stroke-width="11.8185"/>
<path d="M164.907 79.9277L164.912 75.9971L164.919 70.1045L170.812 70.0957L176.985 70.0859C176.991 69.4962 176.997 68.9697 176.997 68.5479L176.997 55.4932L177.012 21.7197C174.891 21.7132 172.789 21.6932 170.794 21.6836L164.961 21.6553L164.913 15.8232C164.902 14.4931 164.899 13.1645 164.901 11.8379L164.912 5.9502L170.799 5.93945L174.586 5.93164L174.595 5.93164L186.83 5.92676L192.803 5.9248L192.742 11.8975C192.672 18.7373 192.75 25.6471 192.75 32.6279L192.75 32.6299L192.742 79.9658L192.741 85.9639L186.744 85.873C181.357 85.7918 176.398 85.8858 170.772 85.8438L164.899 85.7998L164.907 79.9277Z" fill="#3B454C" stroke="#3B454C" stroke-width="11.8185"/>
<path d="M217.897 813.479L217.91 745.35L217.911 739.433L223.828 739.441L239.843 739.466L245.703 739.475L245.743 745.334C245.752 746.678 245.747 748.02 245.728 749.362L245.645 755.114L239.893 755.186C237.789 755.212 235.685 755.224 233.584 755.222C233.59 755.965 233.597 756.722 233.598 757.486L233.604 771.586L233.604 771.589C233.605 782.28 233.503 793.011 233.57 803.614L239.827 803.611L245.727 803.609L245.738 809.509L245.747 813.447L245.759 819.361L239.845 819.369L223.814 819.389L217.896 819.396L217.897 813.479Z" fill="#3B454C" stroke="#3B454C" stroke-width="11.8185"/>
<path d="M217.897 708.69L217.91 640.562L217.911 634.645L223.828 634.653L239.843 634.678L245.703 634.687L245.743 640.546C245.752 641.89 245.747 643.232 245.728 644.574L245.645 650.326L239.893 650.397C237.789 650.424 235.685 650.435 233.584 650.434C233.59 651.177 233.597 651.934 233.598 652.698L233.604 666.798L233.604 666.801C233.605 677.492 233.503 688.223 233.57 698.826L239.827 698.823L245.727 698.821L245.738 704.721L245.747 708.659L245.759 714.573L239.845 714.581L223.814 714.601L217.896 714.608L217.897 708.69Z" fill="#3B454C" stroke="#3B454C" stroke-width="11.8185"/>
<path d="M217.897 603.903L217.91 535.774L217.911 529.857L223.828 529.866L239.843 529.891L245.703 529.899L245.743 535.759C245.752 537.103 245.747 538.445 245.728 539.787L245.645 545.539L239.893 545.61C237.789 545.636 235.685 545.648 233.584 545.646C233.59 546.389 233.597 547.147 233.598 547.911L233.604 562.011L233.604 562.014C233.605 572.705 233.503 583.436 233.57 594.039L239.827 594.036L245.727 594.034L245.738 599.934L245.747 603.872L245.759 609.786L239.845 609.794L223.814 609.813L217.896 609.821L217.897 603.903Z" fill="#3B454C" stroke="#3B454C" stroke-width="11.8185"/>
<path d="M217.897 499.115L217.91 430.986L217.911 425.069L223.828 425.078L239.843 425.103L245.703 425.111L245.743 430.971C245.752 432.315 245.747 433.657 245.728 434.999L245.645 440.751L239.893 440.822C237.789 440.848 235.685 440.86 233.584 440.858C233.59 441.601 233.597 442.359 233.598 443.123L233.604 457.223L233.604 457.226C233.605 467.916 233.503 478.648 233.57 489.251L239.827 489.248L245.727 489.246L245.738 495.146L245.747 499.084L245.759 504.998L239.845 505.006L223.814 505.025L217.896 505.033L217.897 499.115Z" fill="#3B454C" stroke="#3B454C" stroke-width="11.8185"/>
<path d="M217.897 394.327L217.91 326.198L217.911 320.281L223.828 320.29L239.843 320.314L245.703 320.323L245.743 326.183C245.752 327.526 245.747 328.869 245.728 330.211L245.645 335.963L239.893 336.034C237.789 336.06 235.685 336.072 233.584 336.07C233.59 336.813 233.597 337.57 233.598 338.335L233.604 352.435L233.604 352.437C233.605 363.128 233.503 373.86 233.57 384.463L239.827 384.46L245.727 384.458L245.738 390.357L245.747 394.296L245.759 400.21L239.845 400.218L223.814 400.237L217.896 400.245L217.897 394.327Z" fill="#3B454C" stroke="#3B454C" stroke-width="11.8185"/>
<path d="M217.897 289.539L217.91 221.41L217.911 215.493L223.828 215.502L239.843 215.526L245.703 215.535L245.743 221.395C245.752 222.738 245.747 224.081 245.728 225.423L245.645 231.175L239.893 231.246C237.789 231.272 235.685 231.284 233.584 231.282C233.59 232.025 233.597 232.782 233.598 233.547L233.604 247.646L233.604 247.649C233.605 258.34 233.503 269.072 233.57 279.675L239.827 279.672L245.727 279.67L245.738 285.569L245.747 289.508L245.759 295.422L239.845 295.43L223.814 295.449L217.896 295.457L217.897 289.539Z" fill="#3B454C" stroke="#3B454C" stroke-width="11.8185"/>
<path d="M217.897 184.752L217.91 116.623L217.911 110.706L223.828 110.715L239.843 110.739L245.703 110.748L245.743 116.607C245.752 117.951 245.747 119.294 245.728 120.636L245.645 126.388L239.893 126.459C237.789 126.485 235.685 126.497 233.584 126.495C233.59 127.238 233.597 127.995 233.598 128.76L233.604 142.859L233.604 142.862C233.605 153.553 233.503 164.284 233.57 174.888L239.827 174.885L245.727 174.883L245.738 180.782L245.747 184.721L245.759 190.635L239.845 190.643L223.814 190.662L217.896 190.67L217.897 184.752Z" fill="#3B454C" stroke="#3B454C" stroke-width="11.8185"/>
<path d="M217.896 79.9639L217.909 11.835L217.91 5.91797L223.827 5.92676L239.842 5.95117L245.702 5.95996L245.742 11.8193C245.751 13.1631 245.746 14.5057 245.727 15.8477L245.644 21.5996L239.892 21.6709C237.788 21.697 235.684 21.7089 233.583 21.707C233.589 22.45 233.596 23.2072 233.597 23.9717L233.604 38.0713L233.604 38.0742C233.604 48.7651 233.502 59.4963 233.569 70.0996L239.826 70.0967L245.726 70.0947L245.737 75.9941L245.746 79.9326L245.758 85.8467L239.844 85.8545L223.813 85.874L217.896 85.8818L217.896 79.9639Z" fill="#3B454C" stroke="#3B454C" stroke-width="11.8185"/>
<path d="M270.9 813.442L270.905 809.512L270.912 803.619L276.805 803.61L282.979 803.601C282.984 803.011 282.99 802.484 282.99 802.062L282.99 789.008L283.005 755.234C280.884 755.228 278.782 755.208 276.787 755.198L270.954 755.17L270.906 749.338C270.895 748.008 270.892 746.679 270.895 745.353L270.905 739.465L276.792 739.454L280.579 739.446L280.588 739.446L292.823 739.441L298.796 739.439L298.735 745.412C298.665 752.252 298.743 759.162 298.743 766.143L298.743 766.145L298.735 813.48L298.734 819.479L292.737 819.388C287.35 819.306 282.391 819.4 276.766 819.358L270.893 819.314L270.9 813.442Z" fill="#3B454C" stroke="#3B454C" stroke-width="11.8185"/>
<path d="M270.9 708.654L270.905 704.724L270.912 698.831L276.805 698.822L282.979 698.812C282.984 698.223 282.99 697.696 282.99 697.274L282.99 684.22L283.005 650.446C280.884 650.44 278.782 650.42 276.787 650.41L270.954 650.382L270.906 644.55C270.895 643.22 270.892 641.891 270.895 640.564L270.905 634.677L276.792 634.666L280.579 634.658L280.588 634.658L292.823 634.653L298.796 634.651L298.735 640.624C298.665 647.464 298.743 654.374 298.743 661.354L298.743 661.356L298.735 708.692L298.734 714.69L292.737 714.6C287.35 714.518 282.391 714.612 276.766 714.57L270.893 714.526L270.9 708.654Z" fill="#3B454C" stroke="#3B454C" stroke-width="11.8185"/>
<path d="M270.9 603.867L270.905 599.937L270.912 594.044L276.805 594.035L282.979 594.025C282.984 593.436 282.99 592.909 282.99 592.487L282.99 579.433L283.005 545.659C280.884 545.653 278.782 545.633 276.787 545.623L270.954 545.595L270.906 539.763C270.895 538.433 270.892 537.104 270.895 535.777L270.905 529.89L276.792 529.879L280.579 529.871L280.588 529.871L292.823 529.866L298.796 529.864L298.735 535.837C298.665 542.677 298.743 549.587 298.743 556.567L298.743 556.569L298.735 603.905L298.734 609.903L292.737 609.812C287.35 609.731 282.391 609.825 276.766 609.783L270.893 609.739L270.9 603.867Z" fill="#3B454C" stroke="#3B454C" stroke-width="11.8185"/>
<path d="M270.9 499.079L270.905 495.148L270.912 489.256L276.805 489.247L282.979 489.237C282.984 488.648 282.99 488.121 282.99 487.699L282.99 474.645L283.005 440.871C280.884 440.865 278.782 440.845 276.787 440.835L270.954 440.807L270.906 434.975C270.895 433.644 270.892 432.316 270.895 430.989L270.905 425.102L276.792 425.091L280.579 425.083L280.588 425.083L292.823 425.078L298.796 425.076L298.735 431.049C298.665 437.889 298.743 444.798 298.743 451.779L298.743 451.781L298.735 499.117L298.734 505.115L292.737 505.024C287.35 504.943 282.391 505.037 276.766 504.995L270.893 504.951L270.9 499.079Z" fill="#3B454C" stroke="#3B454C" stroke-width="11.8185"/>
<path d="M270.9 394.291L270.905 390.36L270.912 384.468L276.805 384.459L282.979 384.449C282.984 383.86 282.99 383.333 282.99 382.911L282.99 369.856L283.005 336.083C280.884 336.076 278.782 336.056 276.787 336.047L270.954 336.019L270.906 330.187C270.895 328.856 270.892 327.528 270.895 326.201L270.905 320.313L276.792 320.303L280.579 320.295L280.588 320.295L292.823 320.29L298.796 320.288L298.735 326.261C298.665 333.101 298.743 340.01 298.743 346.991L298.743 346.993L298.735 394.329L298.734 400.327L292.737 400.236C287.35 400.155 282.391 400.249 276.766 400.207L270.893 400.163L270.9 394.291Z" fill="#3B454C" stroke="#3B454C" stroke-width="11.8185"/>
<path d="M270.9 289.503L270.905 285.572L270.912 279.68L276.805 279.671L282.979 279.661C282.984 279.071 282.99 278.545 282.99 278.123L282.99 265.068L283.005 231.295C280.884 231.288 278.782 231.268 276.787 231.259L270.954 231.23L270.906 225.398C270.895 224.068 270.892 222.74 270.895 221.413L270.905 215.525L276.792 215.515L280.579 215.507L280.588 215.507L292.823 215.502L298.796 215.5L298.735 221.473C298.665 228.312 298.743 235.222 298.743 242.203L298.743 242.205L298.735 289.541L298.734 295.539L292.737 295.448C287.35 295.367 282.391 295.461 276.766 295.419L270.893 295.375L270.9 289.503Z" fill="#3B454C" stroke="#3B454C" stroke-width="11.8185"/>
<path d="M270.9 184.716L270.905 180.785L270.912 174.893L276.805 174.884L282.979 174.874C282.984 174.284 282.99 173.758 282.99 173.336L282.99 160.281L283.005 126.508C280.884 126.501 278.782 126.481 276.787 126.472L270.954 126.443L270.906 120.611C270.895 119.281 270.892 117.953 270.895 116.626L270.905 110.738L276.792 110.728L280.579 110.72L280.588 110.72L292.823 110.715L298.796 110.713L298.735 116.686C298.665 123.525 298.743 130.435 298.743 137.416L298.743 137.418L298.735 184.754L298.734 190.752L292.737 190.661C287.35 190.58 282.391 190.674 276.766 190.632L270.893 190.588L270.9 184.716Z" fill="#3B454C" stroke="#3B454C" stroke-width="11.8185"/>
<path d="M270.9 79.9277L270.905 75.9971L270.912 70.1045L276.805 70.0957L282.979 70.0859C282.984 69.4962 282.99 68.9697 282.99 68.5479L282.99 55.4932L283.005 21.7197C280.884 21.7132 278.782 21.6932 276.787 21.6836L270.954 21.6553L270.906 15.8232C270.895 14.4931 270.892 13.1645 270.895 11.8379L270.905 5.9502L276.792 5.93945L280.579 5.93164L280.588 5.93164L292.823 5.92676L298.796 5.9248L298.735 11.8975C298.665 18.7373 298.743 25.6471 298.743 32.6279L298.743 32.6299L298.735 79.9658L298.734 85.9639L292.737 85.873C287.35 85.7918 282.391 85.8858 276.766 85.8438L270.893 85.7998L270.9 79.9277Z" fill="#3B454C" stroke="#3B454C" stroke-width="11.8185"/>
<path d="M323.89 813.479L323.902 745.35L323.903 739.433L329.82 739.441L345.835 739.466L351.695 739.475L351.735 745.334C351.745 746.678 351.739 748.02 351.72 749.362L351.637 755.114L345.885 755.186C343.781 755.212 341.678 755.224 339.576 755.222C339.582 755.965 339.589 756.722 339.59 757.486L339.597 771.586L339.597 771.589C339.597 782.28 339.495 793.011 339.562 803.614L345.819 803.611L351.719 803.609L351.73 809.509L351.739 813.447L351.751 819.361L345.837 819.369L329.807 819.389L323.889 819.396L323.89 813.479Z" fill="#3B454C" stroke="#3B454C" stroke-width="11.8185"/>
<path d="M323.89 708.69L323.902 640.562L323.903 634.645L329.82 634.653L345.835 634.678L351.695 634.687L351.735 640.546C351.745 641.89 351.739 643.232 351.72 644.574L351.637 650.326L345.885 650.397C343.781 650.424 341.678 650.435 339.576 650.434C339.582 651.177 339.589 651.934 339.59 652.698L339.597 666.798L339.597 666.801C339.597 677.492 339.495 688.223 339.562 698.826L345.819 698.823L351.719 698.821L351.73 704.721L351.739 708.659L351.751 714.573L345.837 714.581L329.807 714.601L323.889 714.608L323.89 708.69Z" fill="#3B454C" stroke="#3B454C" stroke-width="11.8185"/>
<path d="M323.89 603.903L323.902 535.774L323.903 529.857L329.82 529.866L345.835 529.891L351.695 529.899L351.735 535.759C351.745 537.103 351.739 538.445 351.72 539.787L351.637 545.539L345.885 545.61C343.781 545.636 341.678 545.648 339.576 545.646C339.582 546.389 339.589 547.147 339.59 547.911L339.597 562.011L339.597 562.014C339.597 572.705 339.495 583.436 339.562 594.039L345.819 594.036L351.719 594.034L351.73 599.934L351.739 603.872L351.751 609.786L345.837 609.794L329.807 609.813L323.889 609.821L323.89 603.903Z" fill="#3B454C" stroke="#3B454C" stroke-width="11.8185"/>
<path d="M323.89 499.115L323.902 430.986L323.903 425.069L329.82 425.078L345.835 425.103L351.695 425.111L351.735 430.971C351.745 432.315 351.739 433.657 351.72 434.999L351.637 440.751L345.885 440.822C343.781 440.848 341.678 440.86 339.576 440.858C339.582 441.601 339.589 442.359 339.59 443.123L339.597 457.223L339.597 457.226C339.597 467.916 339.495 478.648 339.562 489.251L345.819 489.248L351.719 489.246L351.73 495.146L351.739 499.084L351.751 504.998L345.837 505.006L329.807 505.025L323.889 505.033L323.89 499.115Z" fill="#3B454C" stroke="#3B454C" stroke-width="11.8185"/>
<path d="M323.89 394.327L323.902 326.198L323.903 320.281L329.82 320.29L345.835 320.314L351.695 320.323L351.735 326.183C351.745 327.526 351.739 328.869 351.72 330.211L351.637 335.963L345.885 336.034C343.781 336.06 341.678 336.072 339.576 336.07C339.582 336.813 339.589 337.57 339.59 338.335L339.597 352.435L339.597 352.437C339.597 363.128 339.495 373.86 339.562 384.463L345.819 384.46L351.719 384.458L351.73 390.357L351.739 394.296L351.751 400.21L345.837 400.218L329.807 400.237L323.889 400.245L323.89 394.327Z" fill="#3B454C" stroke="#3B454C" stroke-width="11.8185"/>
<path d="M323.89 289.539L323.902 221.41L323.903 215.493L329.82 215.502L345.835 215.526L351.695 215.535L351.735 221.395C351.745 222.738 351.739 224.081 351.72 225.423L351.637 231.175L345.885 231.246C343.781 231.272 341.678 231.284 339.576 231.282C339.582 232.025 339.589 232.782 339.59 233.547L339.597 247.646L339.597 247.649C339.597 258.34 339.495 269.072 339.562 279.675L345.819 279.672L351.719 279.67L351.73 285.569L351.739 289.508L351.751 295.422L345.837 295.43L329.807 295.449L323.889 295.457L323.89 289.539Z" fill="#3B454C" stroke="#3B454C" stroke-width="11.8185"/>
<path d="M323.89 184.752L323.902 116.623L323.903 110.706L329.82 110.715L345.835 110.739L351.695 110.748L351.735 116.607C351.745 117.951 351.739 119.294 351.72 120.636L351.637 126.388L345.885 126.459C343.781 126.485 341.678 126.497 339.576 126.495C339.582 127.238 339.589 127.995 339.59 128.76L339.597 142.859L339.597 142.862C339.597 153.553 339.495 164.284 339.562 174.888L345.819 174.885L351.719 174.883L351.73 180.782L351.739 184.721L351.751 190.635L345.837 190.643L329.807 190.662L323.889 190.67L323.89 184.752Z" fill="#3B454C" stroke="#3B454C" stroke-width="11.8185"/>
<path d="M323.89 79.9639L323.902 11.835L323.903 5.91797L329.82 5.92676L345.835 5.95117L351.695 5.95996L351.735 11.8193C351.745 13.1631 351.739 14.5057 351.72 15.8477L351.637 21.5996L345.885 21.6709C343.781 21.697 341.678 21.7089 339.576 21.707C339.582 22.45 339.589 23.2072 339.59 23.9717L339.597 38.0713L339.597 38.0742C339.597 48.7651 339.495 59.4963 339.562 70.0996L345.819 70.0967L351.719 70.0947L351.73 75.9941L351.739 79.9326L351.751 85.8467L345.837 85.8545L329.807 85.874L323.889 85.8818L323.89 79.9639Z" fill="#3B454C" stroke="#3B454C" stroke-width="11.8185"/>
<path d="M376.894 813.442L376.898 809.512L376.905 803.619L382.798 803.61L388.972 803.601C388.977 803.011 388.983 802.484 388.983 802.062L388.983 789.008L388.998 755.234C386.877 755.228 384.775 755.208 382.78 755.198L376.947 755.17L376.899 749.338C376.888 748.008 376.885 746.679 376.888 745.353L376.898 739.465L382.785 739.454L386.572 739.446L386.581 739.446L398.816 739.441L404.789 739.439L404.729 745.412C404.658 752.252 404.736 759.162 404.736 766.143L404.736 766.145L404.729 813.48L404.728 819.479L398.73 819.388C393.343 819.306 388.385 819.4 382.759 819.358L376.886 819.314L376.894 813.442Z" fill="#3B454C" stroke="#3B454C" stroke-width="11.8185"/>
<path d="M376.894 708.654L376.898 704.724L376.905 698.831L382.798 698.822L388.972 698.812C388.977 698.223 388.983 697.696 388.983 697.274L388.983 684.22L388.998 650.446C386.877 650.44 384.775 650.42 382.78 650.41L376.947 650.382L376.899 644.55C376.888 643.22 376.885 641.891 376.888 640.564L376.898 634.677L382.785 634.666L386.572 634.658L386.581 634.658L398.816 634.653L404.789 634.651L404.729 640.624C404.658 647.464 404.736 654.374 404.736 661.354L404.736 661.356L404.729 708.692L404.728 714.69L398.73 714.6C393.343 714.518 388.385 714.612 382.759 714.57L376.886 714.526L376.894 708.654Z" fill="#3B454C" stroke="#3B454C" stroke-width="11.8185"/>
<path d="M376.894 603.867L376.898 599.937L376.905 594.044L382.798 594.035L388.972 594.025C388.977 593.436 388.983 592.909 388.983 592.487L388.983 579.433L388.998 545.659C386.877 545.653 384.775 545.633 382.78 545.623L376.947 545.595L376.899 539.763C376.888 538.433 376.885 537.104 376.888 535.777L376.898 529.89L382.785 529.879L386.572 529.871L386.581 529.871L398.816 529.866L404.789 529.864L404.729 535.837C404.658 542.677 404.736 549.587 404.736 556.567L404.736 556.569L404.729 603.905L404.728 609.903L398.73 609.812C393.343 609.731 388.385 609.825 382.759 609.783L376.886 609.739L376.894 603.867Z" fill="#3B454C" stroke="#3B454C" stroke-width="11.8185"/>
<path d="M376.894 499.079L376.898 495.148L376.905 489.256L382.798 489.247L388.972 489.237C388.977 488.648 388.983 488.121 388.983 487.699L388.983 474.645L388.998 440.871C386.877 440.865 384.775 440.845 382.78 440.835L376.947 440.807L376.899 434.975C376.888 433.644 376.885 432.316 376.888 430.989L376.898 425.102L382.785 425.091L386.572 425.083L386.581 425.083L398.816 425.078L404.789 425.076L404.729 431.049C404.658 437.889 404.736 444.798 404.736 451.779L404.736 451.781L404.729 499.117L404.728 505.115L398.73 505.024C393.343 504.943 388.385 505.037 382.759 504.995L376.886 504.951L376.894 499.079Z" fill="#3B454C" stroke="#3B454C" stroke-width="11.8185"/>
<path d="M376.894 394.291L376.898 390.36L376.905 384.468L382.798 384.459L388.972 384.449C388.977 383.86 388.983 383.333 388.983 382.911L388.983 369.856L388.998 336.083C386.877 336.076 384.775 336.056 382.78 336.047L376.947 336.019L376.899 330.187C376.888 328.856 376.885 327.528 376.888 326.201L376.898 320.313L382.785 320.303L386.572 320.295L386.581 320.295L398.816 320.29L404.789 320.288L404.729 326.261C404.658 333.101 404.736 340.01 404.736 346.991L404.736 346.993L404.729 394.329L404.728 400.327L398.73 400.236C393.343 400.155 388.385 400.249 382.759 400.207L376.886 400.163L376.894 394.291Z" fill="#3B454C" stroke="#3B454C" stroke-width="11.8185"/>
<path d="M376.894 289.504L376.898 285.573L376.905 279.681L382.798 279.672L388.972 279.662C388.977 279.072 388.983 278.546 388.983 278.124L388.983 265.069L388.998 231.296C386.877 231.289 384.775 231.269 382.78 231.26L376.947 231.231L376.899 225.399C376.888 224.069 376.885 222.741 376.888 221.414L376.898 215.526L382.785 215.516L386.572 215.508L386.581 215.508L398.816 215.503L404.789 215.501L404.729 221.474C404.658 228.313 404.736 235.223 404.736 242.204L404.736 242.206L404.729 289.542L404.728 295.54L398.73 295.449C393.343 295.368 388.385 295.462 382.759 295.42L376.886 295.376L376.894 289.504Z" fill="#3B454C" stroke="#3B454C" stroke-width="11.8185"/>
<path d="M376.894 184.716L376.898 180.785L376.905 174.893L382.798 174.884L388.972 174.874C388.977 174.284 388.983 173.758 388.983 173.336L388.983 160.281L388.998 126.508C386.877 126.501 384.775 126.481 382.78 126.472L376.947 126.443L376.899 120.611C376.888 119.281 376.885 117.953 376.888 116.626L376.898 110.738L382.785 110.728L386.572 110.72L386.581 110.72L398.816 110.715L404.789 110.713L404.729 116.686C404.658 123.525 404.736 130.435 404.736 137.416L404.736 137.418L404.729 184.754L404.728 190.752L398.73 190.661C393.343 190.58 388.385 190.674 382.759 190.632L376.886 190.588L376.894 184.716Z" fill="#3B454C" stroke="#3B454C" stroke-width="11.8185"/>
<path d="M376.894 79.9277L376.898 75.9971L376.905 70.1045L382.798 70.0957L388.972 70.0859C388.977 69.4962 388.983 68.9697 388.983 68.5479L388.983 55.4932L388.998 21.7197C386.877 21.7132 384.775 21.6932 382.78 21.6836L376.947 21.6553L376.899 15.8232C376.888 14.4931 376.885 13.1645 376.888 11.8379L376.898 5.9502L382.785 5.93945L386.572 5.93164L386.581 5.93164L398.816 5.92676L404.789 5.9248L404.729 11.8975C404.658 18.7373 404.736 25.6471 404.736 32.6279L404.736 32.6299L404.729 79.9658L404.728 85.9639L398.73 85.873C393.343 85.7918 388.385 85.8858 382.759 85.8438L376.886 85.7998L376.894 79.9277Z" fill="#3B454C" stroke="#3B454C" stroke-width="11.8185"/>
<path d="M429.883 813.479L429.896 745.35L429.896 739.433L435.813 739.441L451.828 739.466L457.688 739.475L457.729 745.334C457.738 746.678 457.732 748.02 457.713 749.362L457.63 755.114L451.878 755.186C449.774 755.212 447.671 755.224 445.569 755.222C445.575 755.965 445.583 756.722 445.583 757.486L445.59 771.586L445.59 771.589C445.59 782.28 445.488 793.011 445.556 803.614L451.812 803.611L457.712 803.609L457.724 809.509L457.732 813.447L457.744 819.361L451.83 819.369L435.8 819.389L429.882 819.396L429.883 813.479Z" fill="#3B454C" stroke="#3B454C" stroke-width="11.8185"/>
<path d="M429.883 708.69L429.896 640.562L429.896 634.645L435.813 634.653L451.828 634.678L457.688 634.687L457.729 640.546C457.738 641.89 457.732 643.232 457.713 644.574L457.63 650.326L451.878 650.397C449.774 650.424 447.671 650.435 445.569 650.434C445.575 651.177 445.583 651.934 445.583 652.698L445.59 666.798L445.59 666.801C445.59 677.492 445.488 688.223 445.556 698.826L451.812 698.823L457.712 698.821L457.724 704.721L457.732 708.659L457.744 714.573L451.83 714.581L435.8 714.601L429.882 714.608L429.883 708.69Z" fill="#3B454C" stroke="#3B454C" stroke-width="11.8185"/>
<path d="M429.883 603.903L429.896 535.774L429.896 529.857L435.813 529.866L451.828 529.891L457.688 529.899L457.729 535.759C457.738 537.103 457.732 538.445 457.713 539.787L457.63 545.539L451.878 545.61C449.774 545.636 447.671 545.648 445.569 545.646C445.575 546.389 445.583 547.147 445.583 547.911L445.59 562.011L445.59 562.014C445.59 572.705 445.488 583.436 445.556 594.039L451.812 594.036L457.712 594.034L457.724 599.934L457.732 603.872L457.744 609.786L451.83 609.794L435.8 609.813L429.882 609.821L429.883 603.903Z" fill="#3B454C" stroke="#3B454C" stroke-width="11.8185"/>
<path d="M429.883 499.115L429.896 430.986L429.896 425.069L435.813 425.078L451.828 425.103L457.688 425.111L457.729 430.971C457.738 432.315 457.732 433.657 457.713 434.999L457.63 440.751L451.878 440.822C449.774 440.848 447.671 440.86 445.569 440.858C445.575 441.601 445.583 442.359 445.583 443.123L445.59 457.223L445.59 457.226C445.59 467.916 445.488 478.648 445.556 489.251L451.812 489.248L457.712 489.246L457.724 495.146L457.732 499.084L457.744 504.998L451.83 505.006L435.8 505.025L429.882 505.033L429.883 499.115Z" fill="#3B454C" stroke="#3B454C" stroke-width="11.8185"/>
<path d="M429.883 394.327L429.896 326.198L429.896 320.281L435.813 320.29L451.828 320.314L457.688 320.323L457.729 326.183C457.738 327.526 457.732 328.869 457.713 330.211L457.63 335.963L451.878 336.034C449.774 336.06 447.671 336.072 445.569 336.07C445.575 336.813 445.583 337.57 445.583 338.335L445.59 352.435L445.59 352.437C445.59 363.128 445.488 373.86 445.556 384.463L451.812 384.46L457.712 384.458L457.724 390.357L457.732 394.296L457.744 400.21L451.83 400.218L435.8 400.237L429.882 400.245L429.883 394.327Z" fill="#3B454C" stroke="#3B454C" stroke-width="11.8185"/>
<path d="M429.883 289.539L429.896 221.41L429.896 215.493L435.813 215.502L451.828 215.526L457.688 215.535L457.729 221.395C457.738 222.738 457.732 224.081 457.713 225.423L457.63 231.175L451.878 231.246C449.774 231.272 447.671 231.284 445.569 231.282C445.575 232.025 445.583 232.782 445.583 233.547L445.59 247.646L445.59 247.649C445.59 258.34 445.488 269.072 445.556 279.675L451.812 279.672L457.712 279.67L457.724 285.569L457.732 289.508L457.744 295.422L451.83 295.43L435.8 295.449L429.882 295.457L429.883 289.539Z" fill="#3B454C" stroke="#3B454C" stroke-width="11.8185"/>
<path d="M429.883 184.752L429.896 116.623L429.896 110.706L435.813 110.715L451.828 110.739L457.688 110.748L457.729 116.607C457.738 117.951 457.732 119.294 457.713 120.636L457.63 126.388L451.878 126.459C449.774 126.485 447.671 126.497 445.569 126.495C445.575 127.238 445.583 127.995 445.583 128.76L445.59 142.859L445.59 142.862C445.59 153.553 445.488 164.284 445.556 174.888L451.812 174.885L457.712 174.883L457.724 180.782L457.732 184.721L457.744 190.635L451.83 190.643L435.8 190.662L429.882 190.67L429.883 184.752Z" fill="#3B454C" stroke="#3B454C" stroke-width="11.8185"/>
<path d="M429.883 79.9639L429.896 11.835L429.896 5.91797L435.813 5.92676L451.828 5.95117L457.688 5.95996L457.729 11.8193C457.738 13.1631 457.732 14.5057 457.713 15.8477L457.63 21.5996L451.878 21.6709C449.774 21.697 447.671 21.7089 445.569 21.707C445.575 22.45 445.583 23.2072 445.583 23.9717L445.59 38.0713L445.59 38.0742C445.59 48.7651 445.488 59.4963 445.556 70.0996L451.812 70.0967L457.712 70.0947L457.724 75.9941L457.732 79.9326L457.744 85.8467L451.83 85.8545L435.8 85.874L429.882 85.8818L429.883 79.9639Z" fill="#3B454C" stroke="#3B454C" stroke-width="11.8185"/>
<path d="M482.887 813.442L482.892 809.512L482.898 803.619L488.791 803.61L494.965 803.601C494.971 803.011 494.976 802.484 494.977 802.062L494.977 789.008L494.991 755.234C492.87 755.228 490.768 755.208 488.773 755.198L482.94 755.17L482.893 749.338C482.882 748.008 482.878 746.679 482.881 745.353L482.892 739.465L488.778 739.454L492.565 739.446L492.574 739.446L504.81 739.441L510.782 739.439L510.722 745.412C510.651 752.252 510.729 759.162 510.729 766.143L510.729 766.145L510.722 813.48L510.721 819.479L504.724 819.388C499.337 819.306 494.378 819.4 488.752 819.358L482.879 819.314L482.887 813.442Z" fill="#3B454C" stroke="#3B454C" stroke-width="11.8185"/>
<path d="M482.887 708.654L482.892 704.724L482.898 698.831L488.791 698.822L494.965 698.812C494.971 698.223 494.976 697.696 494.977 697.274L494.977 684.22L494.991 650.446C492.87 650.44 490.768 650.42 488.773 650.41L482.94 650.382L482.893 644.55C482.882 643.22 482.878 641.891 482.881 640.564L482.892 634.677L488.778 634.666L492.565 634.658L492.574 634.658L504.81 634.653L510.782 634.651L510.722 640.624C510.651 647.464 510.729 654.374 510.729 661.354L510.729 661.356L510.722 708.692L510.721 714.69L504.724 714.6C499.337 714.518 494.378 714.612 488.752 714.57L482.879 714.526L482.887 708.654Z" fill="#3B454C" stroke="#3B454C" stroke-width="11.8185"/>
<path d="M482.887 603.867L482.892 599.937L482.898 594.044L488.791 594.035L494.965 594.025C494.971 593.436 494.976 592.909 494.977 592.487L494.977 579.433L494.991 545.659C492.87 545.653 490.768 545.633 488.773 545.623L482.94 545.595L482.893 539.763C482.882 538.433 482.878 537.104 482.881 535.777L482.892 529.89L488.778 529.879L492.565 529.871L492.574 529.871L504.81 529.866L510.782 529.864L510.722 535.837C510.651 542.677 510.729 549.587 510.729 556.567L510.729 556.569L510.722 603.905L510.721 609.903L504.724 609.812C499.337 609.731 494.378 609.825 488.752 609.783L482.879 609.739L482.887 603.867Z" fill="#3B454C" stroke="#3B454C" stroke-width="11.8185"/>
<path d="M482.887 499.079L482.892 495.148L482.898 489.256L488.791 489.247L494.965 489.237C494.971 488.648 494.976 488.121 494.977 487.699L494.977 474.645L494.991 440.871C492.87 440.865 490.768 440.845 488.773 440.835L482.94 440.807L482.893 434.975C482.882 433.644 482.878 432.316 482.881 430.989L482.892 425.102L488.778 425.091L492.565 425.083L492.574 425.083L504.81 425.078L510.782 425.076L510.722 431.049C510.651 437.889 510.729 444.798 510.729 451.779L510.729 451.781L510.722 499.117L510.721 505.115L504.724 505.024C499.337 504.943 494.378 505.037 488.752 504.995L482.879 504.951L482.887 499.079Z" fill="#3B454C" stroke="#3B454C" stroke-width="11.8185"/>
<path d="M482.887 394.291L482.892 390.36L482.898 384.468L488.791 384.459L494.965 384.449C494.971 383.86 494.976 383.333 494.977 382.911L494.977 369.856L494.991 336.083C492.87 336.076 490.768 336.056 488.773 336.047L482.94 336.019L482.893 330.187C482.882 328.856 482.878 327.528 482.881 326.201L482.892 320.313L488.778 320.303L492.565 320.295L492.574 320.295L504.81 320.29L510.782 320.288L510.722 326.261C510.651 333.101 510.729 340.01 510.729 346.991L510.729 346.993L510.722 394.329L510.721 400.327L504.724 400.236C499.337 400.155 494.378 400.249 488.752 400.207L482.879 400.163L482.887 394.291Z" fill="#3B454C" stroke="#3B454C" stroke-width="11.8185"/>
<path d="M482.887 289.503L482.892 285.572L482.898 279.68L488.791 279.671L494.965 279.661C494.971 279.071 494.976 278.545 494.977 278.123L494.977 265.068L494.991 231.295C492.87 231.288 490.768 231.268 488.773 231.259L482.94 231.23L482.893 225.398C482.882 224.068 482.878 222.74 482.881 221.413L482.892 215.525L488.778 215.515L492.565 215.507L492.574 215.507L504.81 215.502L510.782 215.5L510.722 221.473C510.651 228.312 510.729 235.222 510.729 242.203L510.729 242.205L510.722 289.541L510.721 295.539L504.724 295.448C499.337 295.367 494.378 295.461 488.752 295.419L482.879 295.375L482.887 289.503Z" fill="#3B454C" stroke="#3B454C" stroke-width="11.8185"/>
<path d="M482.887 184.716L482.892 180.785L482.898 174.893L488.791 174.884L494.965 174.874C494.971 174.284 494.976 173.758 494.977 173.336L494.977 160.281L494.991 126.508C492.87 126.501 490.768 126.481 488.773 126.472L482.94 126.443L482.893 120.611C482.882 119.281 482.878 117.953 482.881 116.626L482.892 110.738L488.778 110.728L492.565 110.72L492.574 110.72L504.81 110.715L510.782 110.713L510.722 116.686C510.651 123.525 510.729 130.435 510.729 137.416L510.729 137.418L510.722 184.754L510.721 190.752L504.724 190.661C499.337 190.58 494.378 190.674 488.752 190.632L482.879 190.588L482.887 184.716Z" fill="#3B454C" stroke="#3B454C" stroke-width="11.8185"/>
<path d="M482.887 79.9277L482.892 75.9971L482.898 70.1045L488.791 70.0957L494.965 70.0859C494.971 69.4962 494.976 68.9697 494.977 68.5479L494.977 55.4932L494.991 21.7197C492.87 21.7132 490.768 21.6932 488.773 21.6836L482.94 21.6553L482.893 15.8232C482.882 14.4931 482.878 13.1645 482.881 11.8379L482.892 5.9502L488.778 5.93945L492.565 5.93164L492.574 5.93164L504.81 5.92676L510.782 5.9248L510.722 11.8975C510.651 18.7373 510.729 25.6471 510.729 32.6279L510.729 32.6299L510.722 79.9658L510.721 85.9639L504.724 85.873C499.337 85.7918 494.378 85.8858 488.752 85.8438L482.879 85.7998L482.887 79.9277Z" fill="#3B454C" stroke="#3B454C" stroke-width="11.8185"/>
</g>
</svg>
