<svg width="1920" height="376" viewBox="0 0 1920 376" fill="none" xmlns="http://www.w3.org/2000/svg">
<path d="M1920 16.7064H1713.93V174.939H1908.55V186.428H1713.93V359.284H1920V370.772H1701.96V5.21746H1920V16.7064Z" fill="#476899"/>
<path d="M1395.63 5.21746H1598.07V370.772H1586.09V16.7064H1405.51L1364.92 260.062C1350.36 348.317 1332.66 375.995 1293.63 375.995H1272.82V364.506H1292.59C1325.38 364.506 1339.42 342.05 1352.95 261.106L1395.63 5.21746Z" fill="#476899"/>
<path d="M1055.47 0C1160.07 0 1241.26 80.4221 1241.26 188C1241.26 295.578 1160.07 376 1054.95 376C950.352 376 868.648 295.578 868.648 188C868.648 80.4221 950.352 0 1055.47 0ZM1054.95 11.4889C957.643 11.4889 881.141 87.7329 881.141 188C881.141 288.266 957.643 364.511 1054.95 364.511C1152.27 364.511 1229.28 288.788 1229.28 188C1229.28 87.211 1152.27 11.4889 1054.95 11.4889Z" fill="#476899"/>
<path d="M780.152 5.21746V370.772H768.183V16.7064H507.464V370.772H495.495V5.21746H780.152Z" fill="#476899"/>
<path d="M189.945 178.073C237.821 190.084 261.239 222.462 261.239 273.117C261.239 330.561 228.974 370.772 145.711 370.772H0V5.21746H140.507C222.729 5.21746 250.311 42.8175 250.311 96.0839C250.311 135.251 234.178 165.54 189.945 178.073ZM238.342 95.562C238.342 49.0841 215.964 16.7064 140.507 16.7064H11.9691V173.373H135.823C215.444 173.373 238.342 141.517 238.342 95.562ZM145.711 359.284C222.209 359.284 249.269 324.295 249.269 273.117C249.269 219.329 220.648 184.862 144.149 184.862H11.9691V359.284H145.711Z" fill="#476899"/>
</svg>
