<svg width="100" height="100" viewBox="0 0 100 100" fill="none" xmlns="http://www.w3.org/2000/svg">
<g opacity="0.5">
<path d="M50.001 0C77.5588 0.000205966 100.001 22.4316 100.001 50.0244C100.001 77.5691 77.5589 100.001 50.001 100.001C22.4429 100.001 0 77.5692 0 50.0244C0.000163496 22.4315 22.443 0 50.001 0ZM42.6572 30C41.5635 30 40.5187 30.2483 39.5244 30.7295C38.2817 31.4099 37.288 32.4845 36.7412 33.7432C36.3932 34.6181 35.8457 37.2424 35.8457 37.291C35.2988 40.1586 35.001 44.8296 35.001 49.9766C35.001 54.8851 35.2987 59.3563 35.7461 62.2773C35.7958 62.3211 36.3429 65.5771 36.9395 66.7002C38.0332 68.7415 40.1711 70.0009 42.458 70.001H42.6572C44.1488 69.9571 47.2803 68.6882 47.2803 68.6396C52.5501 66.506 62.9409 59.8477 67.1172 55.4199L67.416 55.1279C67.9626 54.5935 68.6581 53.7729 68.8076 53.5732C69.603 52.5576 70.0009 51.2889 70.001 50.0254C70.001 48.6159 69.5532 47.3027 68.708 46.2334C68.5086 46.0431 67.7629 45.2132 67.0674 44.5332C62.9907 40.2561 52.3514 33.2567 46.7832 31.1182C45.9379 30.7779 43.8006 30.0535 42.6572 30Z" fill="white"/>
</g>
</svg>
