<svg width="195" height="225" viewBox="0 0 195 225" fill="none" xmlns="http://www.w3.org/2000/svg">
<g opacity="0.25">
<path d="M99.8624 144.232C98.8184 146.32 99.3404 148.93 101.428 149.974C102.472 151.018 103.516 151.54 105.082 151.54C106.126 151.54 106.648 151.54 107.692 151.018L141.099 131.704L113.956 111.347L99.8624 144.232ZM148.929 124.397L222.007 37.747C224.617 34.6151 226.183 30.4392 225.661 25.7413C224.617 18.4335 215.221 11.6477 215.221 11.6477C208.957 7.99382 201.128 6.94985 193.298 14.7796L119.698 102.473L148.929 124.397ZM31.4822 151.54V15.8236C7.47089 15.8236 0.163086 38.791 0.163086 47.1428V167.199C8.51486 155.194 31.4822 151.54 31.4822 151.54Z" fill="#F7F7F7"/>
<path d="M224.617 73.2422H205.304L153.105 135.359C152.061 136.924 150.495 137.968 148.929 139.012L112.39 159.892C106.648 163.024 99.3404 162.502 94.1205 157.804C88.9007 153.106 87.3347 146.32 89.9446 140.056L105.604 103.517C106.126 102.473 130.66 73.2422 130.66 73.2422H41.922V161.98H31.4822C14.7787 163.024 1.20706 176.595 0.163086 193.821C0.163086 218.354 15.3007 229.838 34.0922 229.838H224.617C227.749 229.838 229.837 227.75 229.837 224.618V78.4621C229.837 75.3302 227.749 73.2422 224.617 73.2422Z" fill="#F7F7F7"/>
</g>
</svg>
