<svg width="126" height="59" viewBox="0 0 126 59" fill="none" xmlns="http://www.w3.org/2000/svg">
<g clip-path="url(#clip0_40000002_1421)">
<path d="M0.935303 24.468H3.91092V35.9382H0.935303V24.468ZM2.29091 29.4078H7.33981C7.69235 29.4078 8.00712 29.349 8.27992 29.2315C8.55272 29.114 8.76256 28.9461 8.91365 28.7321C9.06474 28.518 9.14029 28.2704 9.14029 27.9892C9.14029 27.708 9.06474 27.4562 8.91785 27.238C8.77096 27.0197 8.56111 26.8519 8.28831 26.7344C8.01551 26.6168 7.70074 26.5581 7.33981 26.5581H2.29091V24.4764H7.26426C8.24634 24.4764 9.1151 24.6233 9.86635 24.9129C10.6134 25.2067 11.1968 25.618 11.6081 26.1468C12.0194 26.6798 12.225 27.2925 12.225 27.9934C12.225 28.6943 12.0194 29.3071 11.6081 29.8359C11.1968 30.3647 10.6134 30.7718 9.86635 31.0614C9.1151 31.351 8.25054 31.4937 7.26426 31.4937H2.29091V29.412V29.4078Z" fill="white" stroke="white" stroke-width="0.839384" stroke-miterlimit="10"/>
<path d="M14.5582 24.4596H17.5338V35.9382H14.5582V24.4596ZM15.7418 29.2399H21.2355C21.5377 29.2399 21.8063 29.1854 22.0371 29.0763C22.268 28.9671 22.4484 28.8077 22.5743 28.602C22.7003 28.3964 22.7674 28.1613 22.7758 27.8927C22.7758 27.6241 22.7128 27.3891 22.5869 27.1834C22.461 26.9778 22.2806 26.8225 22.0497 26.7092C21.8189 26.6001 21.5461 26.5455 21.2355 26.5455H15.7418V24.4638H21.4748C22.3435 24.4638 23.1074 24.6065 23.7663 24.8877C24.4252 25.1731 24.933 25.5718 25.2982 26.0922C25.6591 26.6085 25.8396 27.2128 25.8396 27.8927C25.8396 28.5726 25.6591 29.177 25.2982 29.6932C24.9372 30.2094 24.4252 30.6123 23.7621 30.8977C23.099 31.1831 22.3393 31.3216 21.479 31.3216H15.746V29.2399H15.7418ZM19.0657 30.9691L22.247 30.6081L26.5027 35.9424H22.8975L19.0657 30.9733V30.9691Z" fill="white" stroke="white" stroke-width="0.839384" stroke-miterlimit="10"/>
<path d="M31.9212 35.9382H28.8364V24.468H31.9212V35.9382Z" fill="white" stroke="white" stroke-width="0.839384" stroke-miterlimit="10"/>
<path d="M35.1786 24.468H38.8173L44.6888 33.2564L44.4286 33.462V24.468H47.2741V35.9298H43.6144L37.7639 27.2758L38.0241 27.0701V35.9298H35.1786V24.468Z" fill="white" stroke="white" stroke-width="0.839384" stroke-miterlimit="10"/>
<path d="M49.4434 24.468H61.0185V26.5497H49.4434V24.468ZM53.741 25.4081H56.7166V35.9382H53.741V25.4081Z" fill="white" stroke="white" stroke-width="0.839384" stroke-miterlimit="10"/>
<path d="M65.069 35.892C64.3471 35.7829 63.6714 35.6192 63.0376 35.4052C62.4039 35.1912 61.8373 34.9351 61.3379 34.6372L62.7187 32.8535C63.3272 33.2144 64.0281 33.4956 64.8255 33.6929C65.623 33.8901 66.4413 33.9866 67.2807 33.9866C68.2502 33.9866 69.0015 33.8691 69.5387 33.6257C70.0759 33.3865 70.3403 33.0507 70.3403 32.6143V32.6059C70.3403 32.2995 70.2228 32.0603 69.9836 31.8798C69.7443 31.6993 69.4338 31.5692 69.0518 31.4853C68.6699 31.4013 68.1747 31.3258 67.5745 31.2544C67.5535 31.2503 67.5325 31.2461 67.5158 31.2461C67.499 31.2461 67.478 31.2461 67.457 31.2377L67.2178 31.2125C66.1602 31.0908 65.2872 30.9397 64.5905 30.7592C63.8938 30.5787 63.3062 30.2598 62.8194 29.8065C62.3326 29.3532 62.0933 28.7069 62.0933 27.8717V27.8633C62.0933 27.1205 62.32 26.4867 62.7774 25.9621C63.2349 25.4375 63.8938 25.0346 64.7626 24.7576C65.6313 24.4806 66.6806 24.3421 67.9103 24.3421C68.4769 24.3421 69.0518 24.3883 69.6436 24.4848C70.2312 24.5813 70.8103 24.7156 71.3769 24.8961C71.9435 25.0766 72.4765 25.2906 72.9843 25.5424L71.7253 27.3723C71.1167 27.0659 70.483 26.8309 69.8199 26.663C69.1568 26.4951 68.523 26.4112 67.9145 26.4112C67.0037 26.4112 66.2987 26.5203 65.7992 26.7386C65.2998 26.9568 65.0522 27.2632 65.0522 27.6577V27.6661C65.0522 27.9976 65.1823 28.2578 65.4425 28.4509C65.7027 28.644 66.0259 28.7825 66.4078 28.8748C66.7897 28.9629 67.3311 29.0595 68.0236 29.1602C68.053 29.1644 68.0823 29.1686 68.1117 29.1728C68.1411 29.1728 68.1705 29.1812 68.1999 29.1854C68.2418 29.1896 68.2838 29.198 68.3258 29.2063C68.3635 29.2147 68.4055 29.2189 68.4517 29.2273C69.4505 29.37 70.2857 29.5421 70.953 29.7436C71.6204 29.945 72.1827 30.2724 72.6318 30.7214C73.0809 31.1705 73.3033 31.7833 73.3033 32.5639V32.5807C73.3033 33.3109 73.0683 33.9363 72.5982 34.4567C72.1282 34.9771 71.4399 35.3758 70.5417 35.6486C69.6394 35.9214 68.5566 36.0599 67.2891 36.0599C66.5379 36.0599 65.7992 36.0054 65.0816 35.8962L65.069 35.892Z" fill="white" stroke="white" stroke-width="0.839384" stroke-miterlimit="10"/>
<path d="M73.8362 24.468H85.4113V26.5497H73.8362V24.468ZM78.1338 25.4081H81.1094V35.9382H78.1338V25.4081Z" fill="white" stroke="white" stroke-width="0.839384" stroke-miterlimit="10"/>
<path d="M89.1295 35.5311C88.2565 35.1828 87.5808 34.6875 87.1066 34.0496C86.6281 33.4117 86.3889 32.6688 86.3889 31.8294V28.581C86.3889 27.7416 86.6281 26.9988 87.1066 26.3608C87.585 25.7229 88.2607 25.2277 89.1295 24.8793C90.0025 24.531 91.0097 24.3547 92.1513 24.3547C93.2929 24.3547 94.3043 24.531 95.1731 24.8793C96.0418 25.2277 96.7217 25.7229 97.196 26.3608C97.6744 26.9988 97.9137 27.7416 97.9137 28.581V31.8294C97.9137 32.6688 97.6744 33.4117 97.196 34.0496C96.7175 34.6875 96.0418 35.1828 95.1731 35.5311C94.3001 35.8795 93.2929 36.0557 92.1513 36.0557C91.0097 36.0557 89.9983 35.8795 89.1295 35.5311ZM93.5657 33.6467C93.9728 33.483 94.2833 33.2438 94.5058 32.9416C94.7282 32.6394 94.8373 32.2827 94.8373 31.884V28.5222C94.8373 28.1235 94.7282 27.771 94.5058 27.4646C94.2833 27.1583 93.9728 26.9232 93.5657 26.7595C93.1586 26.5959 92.6885 26.5119 92.1555 26.5119C91.6225 26.5119 91.1482 26.5959 90.7453 26.7595C90.3382 26.9232 90.0276 27.1624 89.8052 27.4646C89.5828 27.771 89.4737 28.1235 89.4737 28.5222V31.884C89.4737 32.2827 89.5828 32.6352 89.8052 32.9416C90.0276 33.248 90.3382 33.483 90.7453 33.6467C91.1524 33.8104 91.6225 33.8943 92.1555 33.8943C92.6885 33.8943 93.1628 33.8104 93.5657 33.6467Z" fill="white" stroke="white" stroke-width="0.839384" stroke-miterlimit="10"/>
<path d="M100.847 24.4596H103.823V35.9382H100.847V24.4596ZM102.031 29.2399H107.525C107.827 29.2399 108.095 29.1854 108.326 29.0763C108.557 28.9671 108.738 28.8077 108.864 28.602C108.989 28.3964 109.057 28.1613 109.065 27.8927C109.065 27.6241 109.002 27.3891 108.876 27.1834C108.75 26.9778 108.57 26.8225 108.339 26.7092C108.108 26.6001 107.835 26.5455 107.525 26.5455H102.031V24.4638H107.764C108.633 24.4638 109.397 24.6065 110.055 24.8877C110.714 25.1731 111.222 25.5718 111.587 26.0922C111.948 26.6085 112.129 27.2128 112.129 27.8927C112.129 28.5726 111.948 29.177 111.587 29.6932C111.226 30.2094 110.714 30.6123 110.051 30.8977C109.388 31.1831 108.629 31.3216 107.768 31.3216H102.035V29.2399H102.031ZM105.355 30.9691L108.536 30.6081L112.792 35.9424H109.187L105.355 30.9733V30.9691Z" fill="white" stroke="white" stroke-width="0.839384" stroke-miterlimit="10"/>
<path d="M120.572 31.5147V35.9382H117.597V31.5147L112.951 24.4722H116.065L119.083 29.412L122.1 24.4722H125.214L120.568 31.5147H120.572Z" fill="white" stroke="white" stroke-width="0.839384" stroke-miterlimit="10"/>
<path d="M57.3629 44.374V57.3761H1.04858V44.374" stroke="white" stroke-width="2.09846" stroke-miterlimit="10"/>
<path d="M1.04858 16.1203V1.04919H57.3629V16.1371" stroke="white" stroke-width="2.09846" stroke-miterlimit="10"/>
</g>
<defs>
<clipPath id="clip0_40000002_1421">
<rect width="126" height="58.4254" fill="white"/>
</clipPath>
</defs>
</svg>
