<svg width="0" height="0" class="hidden">
    <symbol version="1.1" xmlns="http://www.w3.org/2000/svg" viewBox="0 0 1094 512" id="logo">
        <path fill="currentColor" d="M8.117 212.333h25.822v99.538h-25.823v-99.538zM19.881 255.2h43.814c3.059 0 5.791-0.511 8.158-1.53s4.189-2.476 5.499-4.334c1.311-1.858 1.967-4.006 1.967-6.447s-0.656-4.625-1.93-6.519c-1.275-1.894-3.096-3.351-5.463-4.37-2.368-1.020-5.099-1.53-8.231-1.53h-43.814v-18.065h43.158c8.523 0 16.062 1.275 22.581 3.788 6.483 2.549 11.546 6.119 15.115 10.708 3.569 4.625 5.353 9.942 5.353 16.024s-1.784 11.4-5.353 15.989c-3.569 4.589-8.632 8.122-15.115 10.635-6.519 2.513-14.022 3.752-22.581 3.752h-43.158v-18.101z"></path>
        <path fill="currentColor" d="M126.335 212.26h25.822v99.611h-25.822v-99.611zM136.607 253.743h47.674c2.623 0 4.953-0.473 6.957-1.419 2.004-0.947 3.569-2.331 4.662-4.116 1.094-1.784 1.675-3.825 1.749-6.155 0-2.331-0.547-4.37-1.639-6.155-1.093-1.784-2.658-3.132-4.662-4.115-2.003-0.947-4.37-1.421-7.066-1.421h-47.674v-18.065h49.751c7.538 0 14.167 1.238 19.886 3.679 5.718 2.476 10.125 5.936 13.294 10.453 3.132 4.481 4.698 9.725 4.698 15.625s-1.566 11.145-4.698 15.625c-3.132 4.479-7.576 7.976-13.33 10.452s-12.347 3.678-19.813 3.678h-49.751v-18.065h-0.036zM165.452 268.749l27.607-3.132 36.931 46.291h-31.286l-33.252-43.121v-0.036z"></path>
        <path fill="currentColor" d="M277.011 311.87h-26.77v-99.538h26.77v99.538z"></path>
        <path fill="currentColor" d="M305.279 212.333h31.577l50.952 76.266-2.258 1.784v-78.049h24.693v99.465h-31.759l-50.771-75.099 2.258-1.785v76.884h-24.693v-99.465z"></path>
        <path fill="currentColor" d="M429.068 212.333h100.448v18.065h-100.448v-18.065zM466.363 220.49h25.822v91.38h-25.822v-91.38z"></path>
        <path fill="currentColor" d="M564.667 311.469c-6.264-0.947-12.129-2.368-17.629-4.224s-10.416-4.079-14.75-6.664l11.982-15.479c5.28 3.132 11.363 5.572 18.283 7.284s14.022 2.548 21.306 2.548c8.413 0 14.933-1.019 19.595-3.132 4.662-2.076 6.957-4.99 6.957-8.777v-0.073c0-2.659-1.019-4.735-3.096-6.301s-4.771-2.695-8.086-3.423c-3.314-0.729-7.611-1.384-12.82-2.003-0.182-0.036-0.365-0.072-0.51-0.072s-0.328 0-0.51-0.073l-2.076-0.219c-9.178-1.056-16.754-2.368-22.799-3.933s-11.145-4.334-15.37-8.267c-4.225-3.934-6.301-9.542-6.301-16.79v-0.073c0-6.446 1.967-11.946 5.937-16.499s9.688-8.049 17.227-10.453c7.538-2.404 16.644-3.606 27.316-3.606 4.917 0 9.906 0.401 15.042 1.238 5.099 0.838 10.125 2.003 15.042 3.569s9.543 3.423 13.949 5.608l-10.925 15.88c-5.282-2.659-10.78-4.698-16.535-6.155s-11.255-2.185-16.535-2.185c-7.904 0-14.022 0.947-18.356 2.841s-6.482 4.553-6.482 7.976v0.073c0 2.876 1.129 5.135 3.387 6.81s5.063 2.877 8.377 3.679c3.314 0.764 8.013 1.603 14.022 2.476 0.255 0.036 0.51 0.073 0.764 0.109 0.255 0 0.51 0.073 0.765 0.109 0.364 0.036 0.728 0.109 1.092 0.181 0.327 0.073 0.692 0.109 1.092 0.182 8.668 1.238 15.915 2.732 21.706 4.481s10.672 4.589 14.568 8.486c3.898 3.897 5.827 9.215 5.827 15.989v0.146c0 6.337-2.039 11.764-6.119 16.28-4.078 4.516-10.052 7.976-17.846 10.344-7.83 2.368-17.226 3.569-28.226 3.569-6.519 0-12.929-0.473-19.157-1.421l-0.11-0.036z"></path>
        <path fill="currentColor" d="M640.748 212.333h100.448v18.065h-100.448v-18.065zM678.043 220.49h25.822v91.38h-25.822v-91.38z"></path>
        <path fill="currentColor" d="M773.463 308.337c-7.576-3.022-13.439-7.32-17.554-12.856-4.153-5.536-6.228-11.983-6.228-19.267v-28.19c0-7.285 2.076-13.731 6.228-19.267s10.015-9.833 17.554-12.857c7.576-3.023 16.317-4.553 26.223-4.553s18.683 1.53 26.223 4.553c7.538 3.024 13.438 7.321 17.554 12.857 4.152 5.536 6.228 11.982 6.228 19.267v28.19c0 7.284-2.077 13.731-6.228 19.267-4.153 5.536-10.016 9.834-17.554 12.856-7.576 3.024-16.317 4.553-26.223 4.553s-18.683-1.529-26.223-4.553zM811.96 291.985c3.533-1.421 6.227-3.497 8.158-6.119s2.876-5.718 2.876-9.178v-29.173c0-3.46-0.947-6.519-2.876-9.178-1.931-2.658-4.625-4.698-8.158-6.119-3.533-1.419-7.612-2.149-12.237-2.149s-8.741 0.729-12.237 2.149c-3.533 1.421-6.228 3.496-8.158 6.119-1.93 2.659-2.876 5.718-2.876 9.178v29.173c0 3.46 0.947 6.519 2.876 9.178s4.625 4.699 8.158 6.119c3.533 1.421 7.612 2.149 12.237 2.149s8.741-0.728 12.237-2.149z"></path>
        <path fill="currentColor" d="M875.147 212.26h25.826v99.611h-25.826v-99.611zM885.422 253.743h47.677c2.62 0 4.947-0.473 6.951-1.419 2.005-0.947 3.576-2.331 4.668-4.116 1.085-1.784 1.675-3.825 1.745-6.155 0-2.331-0.547-4.37-1.64-6.155-1.093-1.784-2.655-3.132-4.66-4.115-2.005-0.947-4.374-1.421-7.064-1.421h-47.677v-18.065h49.751c7.541 0 14.171 1.238 19.881 3.679 5.719 2.476 10.127 5.936 13.294 10.453 3.133 4.481 4.703 9.725 4.703 15.625s-1.571 11.145-4.703 15.625c-3.133 4.479-7.576 7.976-13.33 10.452s-12.34 3.678-19.812 3.678h-49.751v-18.065h-0.034zM914.267 268.749l27.605-3.132 36.933 46.291h-31.284l-33.254-43.121v-0.036z"></path>
        <path fill="currentColor" d="M1046.32 273.483v38.387h-25.817v-38.387l-40.318-61.114h27.023l26.19 42.868 26.181-42.868h27.023l-40.318 61.114h0.034z"></path>
        <path fill="none" stroke-linejoin="miter" stroke-linecap="butt" stroke-miterlimit="10" stroke-width="18.2104" stroke="currentColor" d="M497.793 385.076v112.832h-488.694v-112.832"></path>
        <path fill="none" stroke-linejoin="miter" stroke-linecap="butt" stroke-miterlimit="10" stroke-width="18.2104" stroke="currentColor" d="M9.1 139.892v-130.786h488.694v130.933"></path>
    </symbol>
    <symbol version="1.1" xmlns="http://www.w3.org/2000/svg" viewBox="0 0 492 512" id="settings">
        <path fill="none" stroke-linejoin="round" stroke-linecap="round" stroke-miterlimit="4" stroke-width="30.72" stroke="currentColor" d="M249.451 81.921h-7.399c-8.921 0-17.477 3.544-23.787 9.852-6.308 6.308-9.851 14.864-9.851 23.787v3.028c-0.006 5.899-1.565 11.693-4.516 16.8s-7.195 9.349-12.304 12.298l-7.232 4.204c-5.113 2.952-10.915 4.507-16.82 4.507s-11.706-1.554-16.82-4.507l-2.523-1.345c-7.719-4.453-16.889-5.661-25.498-3.358s-15.953 7.926-20.419 15.637l-3.701 6.392c-4.453 7.719-5.66 16.889-3.359 25.499s7.926 15.953 15.637 20.418l2.523 1.684c5.084 2.935 9.311 7.149 12.262 12.225s4.522 10.834 4.557 16.703v8.579c0.024 5.927-1.519 11.756-4.473 16.896-2.954 5.139-7.213 9.406-12.346 12.37l-2.523 1.514c-7.711 4.466-13.335 11.811-15.637 20.418-2.302 8.61-1.094 17.781 3.359 25.5l3.701 6.39c4.466 7.713 11.81 13.337 20.419 15.639s17.779 1.094 25.498-3.358l2.523-1.346c5.114-2.953 10.915-4.507 16.82-4.507s11.706 1.555 16.82 4.507l7.232 4.204c5.108 2.949 9.352 7.19 12.304 12.298 2.952 5.106 4.51 10.899 4.516 16.8v3.027c0 8.921 3.543 17.478 9.851 23.786 6.31 6.31 14.867 9.853 23.787 9.853h7.399c8.923 0 17.48-3.543 23.787-9.853 6.308-6.308 9.853-14.865 9.853-23.786v-3.027c0.006-5.901 1.563-11.694 4.516-16.8 2.951-5.108 7.195-9.349 12.303-12.298l7.233-4.204c5.114-2.953 10.914-4.507 16.82-4.507 5.904 0 11.704 1.555 16.818 4.507l2.523 1.346c7.719 4.452 16.89 5.661 25.498 3.358 8.61-2.302 15.954-7.926 20.421-15.639l3.699-6.56c4.454-7.719 5.661-16.888 3.358-25.498-2.302-8.608-7.926-15.952-15.637-20.418l-2.523-1.346c-5.132-2.964-9.392-7.231-12.346-12.37-2.953-5.14-4.498-10.969-4.473-16.896v-8.409c-0.024-5.929 1.519-11.757 4.473-16.896s7.213-9.406 12.346-12.37l2.523-1.516c7.711-4.464 13.334-11.809 15.637-20.418s1.096-17.78-3.358-25.499l-3.699-6.392c-4.466-7.711-11.811-13.335-20.421-15.637-8.608-2.302-17.779-1.094-25.498 3.358l-2.523 1.345c-5.114 2.952-10.914 4.507-16.818 4.507-5.906 0-11.707-1.554-16.82-4.507l-7.233-4.204c-5.108-2.95-9.351-7.191-12.303-12.298-2.953-5.107-4.51-10.901-4.516-16.8v-3.028c0-8.921-3.545-17.478-9.853-23.787s-14.865-9.852-23.787-9.852z"></path>
        <path fill="none" stroke-linejoin="round" stroke-linecap="round" stroke-miterlimit="4" stroke-width="30.72" stroke="currentColor" d="M245.758 300.575c27.867 0 50.458-22.591 50.458-50.459s-22.591-50.459-50.459-50.459c-27.867 0-50.458 22.592-50.458 50.459s22.591 50.459 50.458 50.459z"></path>
    </symbol>
    <symbol version="1.1" xmlns="http://www.w3.org/2000/svg" viewBox="0 0 492 512" id="image">
        <path fill="none" stroke-linejoin="round" stroke-linecap="round" stroke-miterlimit="4" stroke-width="30.72" stroke="currentColor" d="M98.040 161.487c0-15.671 6.225-30.7 17.306-41.78s26.109-17.306 41.78-17.306h177.257c15.671 0 30.7 6.225 41.781 17.306 11.079 11.081 17.305 26.109 17.305 41.78v177.258c0 15.669-6.226 30.7-17.305 41.779-11.082 11.082-26.11 17.305-41.781 17.305h-177.257c-15.671 0-30.7-6.224-41.78-17.305-11.081-11.079-17.306-26.11-17.306-41.779v-177.258z"></path>
        <path fill="none" stroke-linejoin="round" stroke-linecap="round" stroke-miterlimit="4" stroke-width="30.72" stroke="currentColor" d="M194.049 235.344c20.395 0 36.929-16.534 36.929-36.929s-16.534-36.929-36.928-36.929c-20.395 0-36.928 16.534-36.928 36.928s16.534 36.929 36.928 36.929z"></path>
        <path fill="none" stroke-linejoin="round" stroke-linecap="round" stroke-miterlimit="4" stroke-width="30.72" stroke="currentColor" d="M283.063 259.289l-125.942 138.541h179.223c15.149 0 29.678-6.017 40.391-16.73s16.73-25.241 16.73-40.391v-1.964c0-6.885-2.584-9.529-7.238-14.625l-59.529-64.921c-2.775-3.025-6.15-5.441-9.911-7.090-3.758-1.649-7.822-2.496-11.928-2.488-4.104 0.008-8.163 0.873-11.918 2.537-3.752 1.665-7.119 4.092-9.88 7.131z"></path>
    </symbol>
    <symbol version="1.1" xmlns="http://www.w3.org/2000/svg" viewBox="0 0 492 512" id="user">
        <path fill="none" stroke-linejoin="round" stroke-linecap="round" stroke-miterlimit="4" stroke-width="30.72" stroke="currentColor" d="M368.64 393.476v-25.6c0-42.414-39.301-76.8-87.778-76.8h-70.206c-48.476 0-87.778 34.386-87.778 76.8v25.6M307.2 168.196c0 16.295-6.474 31.922-17.996 43.445s-27.151 17.996-43.444 17.996c-16.294 0-31.922-6.474-43.445-17.996s-17.995-27.149-17.995-43.445c0-16.295 6.473-31.922 17.995-43.445s27.15-17.995 43.445-17.995c16.294 0 31.922 6.473 43.444 17.995s17.996 27.149 17.996 43.445z"></path>
    </symbol>

    <symbol version="1.1" xmlns="http://www.w3.org/2000/svg" viewBox="0 0 512 512" id="cover">
        <path fill="none" stroke-linejoin="round" stroke-linecap="butt" stroke-miterlimit="4" stroke-width="32" stroke="currentColor" d="M384 341.334v-256h-213.333c-11.316 0-22.169 4.495-30.171 12.497s-12.497 18.854-12.497 30.17v255.999"></path>
        <path fill="none" stroke-linejoin="round" stroke-linecap="butt" stroke-miterlimit="4" stroke-width="32" stroke="currentColor" d="M384 426.667h-213.333c-11.316 0-22.169-4.495-30.171-12.496s-12.497-18.854-12.497-30.171c0-11.315 4.495-22.168 12.497-30.169s18.854-12.496 30.171-12.496h213.333c-14.357 34.409-14.080 53.077 0 85.333z"></path>
    </symbol>
    <symbol version="1.1" xmlns="http://www.w3.org/2000/svg" viewBox="0 0 512 512" id="basket">
        <path fill="none" stroke-linejoin="round" stroke-linecap="round" stroke-miterlimit="4" stroke-width="32" stroke="currentColor" d="M390.667 211.093h-269.303c-5.45 0.005-10.828 1.243-15.733 3.621-4.904 2.376-9.208 5.832-12.589 10.106-3.367 4.262-5.72 9.235-6.88 14.542-1.16 5.305-1.098 10.806 0.183 16.085l28.875 118.232c4.181 15.232 13.258 28.666 25.831 38.229 12.584 9.576 27.989 14.76 43.839 14.76h142.216c15.849 0 31.256-5.184 43.839-14.76 12.573-9.563 21.649-22.997 25.83-38.229l28.875-118.213c1.944-7.97 1.091-16.365-2.414-23.781-3.507-7.416-9.454-13.403-16.848-16.958-4.918-2.362-10.299-3.601-15.757-3.633M183.819 282.938v71.865M256.016 282.938v71.865M328.213 282.938v71.865M382.365 211.093c-0.007-16.531-3.279-32.898-9.63-48.16s-15.658-29.118-27.381-40.772c-23.738-23.608-55.859-36.85-89.337-36.827-33.477-0.022-65.6 13.219-89.338 36.827-11.72 11.655-21.022 25.512-27.37 40.775-6.349 15.261-9.619 31.627-9.623 48.157"></path>
    </symbol>
    <symbol version="1.1" xmlns="http://www.w3.org/2000/svg" viewBox="0 0 512 512" id="time">
        <path fill="none" stroke-linejoin="round" stroke-linecap="round" stroke-miterlimit="4" stroke-width="32" stroke="currentColor" d="M256.003 426.667c94.256 0 170.666-76.409 170.666-170.667 0-94.256-76.409-170.666-170.666-170.666-94.257 0-170.667 76.41-170.667 170.666 0 94.257 76.41 170.667 170.667 170.667z"></path>
        <path fill="none" stroke-linejoin="round" stroke-linecap="round" stroke-miterlimit="4" stroke-width="32" stroke="currentColor" d="M256 180.149v71.376c0 7.045 1.963 13.951 5.667 19.943s9.005 10.834 15.305 13.983l54.879 27.44"></path>
    </symbol>
    <symbol version="1.1" xmlns="http://www.w3.org/2000/svg" viewBox="0 0 512 512" id="book">
        <path fill="none" stroke-linejoin="round" stroke-linecap="round" stroke-miterlimit="4" stroke-width="32" stroke="currentColor" d="M256 405.334c-29.187-16.853-62.298-25.723-96-25.723s-66.813 8.87-96 25.723v-277.334c29.188-16.852 62.297-25.723 96-25.723s66.813 8.871 96 25.723M256 405.334c29.187-16.853 62.298-25.723 96-25.723s66.813 8.87 96 25.723v-277.334c-29.187-16.852-62.298-25.723-96-25.723s-66.813 8.871-96 25.723M256 405.334v-277.334"></path>
    </symbol>
    <symbol version="1.1" xmlns="http://www.w3.org/2000/svg" viewBox="0 0 512 512" id="faq">
        <path fill="none" stroke-linejoin="round" stroke-linecap="round" stroke-miterlimit="4" stroke-width="32" stroke="currentColor" d="M256.016 426.666c37.074-0.007 73.136-12.087 102.736-34.413 29.597-22.327 51.123-53.683 61.315-89.327 10.195-35.645 8.502-73.641-4.816-108.239s-37.543-63.92-69.005-83.528c-31.464-19.609-68.458-28.439-105.387-25.154s-71.782 18.504-99.292 43.358c-27.51 24.854-46.178 57.989-53.182 94.396s-1.962 74.103 14.362 107.391c1.993 4.058 2.657 8.634 1.642 13.024l-15.055 65.241c-0.424 1.83-0.376 3.741 0.141 5.546 0.517 1.808 1.486 3.453 2.815 4.784 1.329 1.328 2.975 2.298 4.781 2.813 1.807 0.519 3.716 0.567 5.546 0.141l65.223-15.072c4.404-0.963 9.005-0.377 13.026 1.661 23.384 11.481 49.097 17.43 75.149 17.379z"></path>
        <path fill="none" stroke-linejoin="round" stroke-linecap="round" stroke-miterlimit="4" stroke-width="32" stroke="currentColor" d="M206.25 213.73c-0-7.901 1.879-15.69 5.483-22.721s8.83-13.105 15.245-17.717c6.416-4.612 13.837-7.632 21.649-8.81s15.794-0.478 23.284 2.038c7.49 2.517 14.273 6.78 19.789 12.438s9.607 12.546 11.935 20.096c2.327 7.551 2.825 15.547 1.451 23.328s-4.58 15.123-9.353 21.421c-1.856 2.059-3.828 4.012-5.904 5.849-1.697 1.439-2.527 2.030-4.188 3.155l-18.063 12.454c-4.466 3.073-8.116 7.187-10.637 11.986s-3.834 10.14-3.828 15.56"></path>
        <path fill="currentColor" d="M252.888 361.907c10.19 0 18.45-8.262 18.45-18.451 0-10.192-8.26-18.451-18.45-18.451s-18.451 8.259-18.451 18.451c0 10.189 8.261 18.451 18.451 18.451z"></path>
    </symbol>
    <symbol version="1.1" xmlns="http://www.w3.org/2000/svg" viewBox="0 0 512 512" id="colors">
        <g id="icomoon-ignore"></g>
        <path fill="none" stroke-linejoin="round" stroke-linecap="round" stroke-miterlimit="4" stroke-width="32" stroke="currentColor" d="M388.74 85.334h-75.851c-10.058 0-19.706 3.996-26.818 11.109s-11.108 16.759-11.108 26.817v227.554c0 20.118 7.991 39.411 22.216 53.637s33.519 22.216 53.637 22.216c20.118 0 39.409-7.991 53.634-22.216s22.216-33.519 22.216-53.637v-227.554c0-10.058-3.995-19.705-11.108-26.817s-16.76-11.108-26.818-11.108z"></path>
        <path fill="none" stroke-linejoin="round" stroke-linecap="round" stroke-miterlimit="4" stroke-width="32" stroke="currentColor" d="M274.966 167.822l-37.927-37.926c-7.113-7.11-16.757-11.104-26.814-11.104s-19.702 3.994-26.814 11.104l-53.627 53.627c-7.11 7.112-11.104 16.757-11.104 26.814 0 10.055 3.994 19.701 11.104 26.813l170.666 170.667"></path>
        <path fill="none" stroke-linejoin="round" stroke-linecap="round" stroke-miterlimit="4" stroke-width="32" stroke="currentColor" d="M166.874 274.963h-43.614c-10.058 0-19.705 3.995-26.817 11.108s-11.108 16.76-11.108 26.818v75.851c0 10.058 3.995 19.706 11.108 26.818s16.759 11.108 26.817 11.108h227.554M350.814 350.816v0.19"></path>
    </symbol>
    <symbol version="1.1" xmlns="http://www.w3.org/2000/svg" viewBox="0 0 512 512" id="stars">
        <g id="icomoon-ignore"></g>
        <path fill="none" stroke-linejoin="round" stroke-linecap="round" stroke-miterlimit="4" stroke-width="32" stroke="currentColor" d="M165.885 259.574l-8.742 26.208c-3.258 9.965-8.791 19.019-16.154 26.44-7.363 7.42-16.351 12.998-26.243 16.29l-26.364 8.822c-0.663 0.217-1.266 0.589-1.76 1.086s-0.862 1.105-1.076 1.773c-0.214 0.67-0.268 1.38-0.157 2.074s0.384 1.351 0.796 1.916c0.546 0.762 1.313 1.336 2.195 1.639l26.364 8.802c9.802 3.288 18.707 8.832 26.009 16.19 7.302 7.36 12.799 16.33 16.054 26.204l8.742 26.567c0.288 0.896 0.852 1.677 1.609 2.231s1.669 0.853 2.605 0.853c0.936 0 1.849-0.298 2.606-0.853s1.321-1.336 1.609-2.231l9.055-26.231c3.269-9.865 8.771-18.829 16.071-26.187s16.198-12.904 25.992-16.205l26.363-8.805c0.892-0.29 1.668-0.858 2.219-1.619s0.847-1.681 0.847-2.624c0-0.943-0.297-1.861-0.847-2.622-0.55-0.764-1.327-1.331-2.219-1.622l-26.029-9.156c-9.901-3.277-18.895-8.851-26.261-16.273-7.365-7.424-12.893-16.486-16.137-26.457l-8.742-26.545c-0.322-0.885-0.916-1.647-1.695-2.174-0.779-0.525-1.704-0.789-2.642-0.751-0.937 0.036-1.839 0.373-2.574 0.958-0.736 0.587-1.267 1.393-1.518 2.304M323.889 89.821l-12.231 36.709c-4.55 13.958-12.293 26.643-22.607 37.035-10.313 10.391-22.906 18.196-36.766 22.786l-36.889 12.335c-1.25 0.403-2.341 1.195-3.115 2.262s-1.191 2.356-1.191 3.678c0 1.322 0.417 2.61 1.191 3.678s1.865 1.86 3.115 2.262l36.889 12.336c13.73 4.591 26.203 12.347 36.429 22.651 10.227 10.302 17.922 22.867 22.473 36.694l12.252 37.184c0.418 1.235 1.212 2.308 2.265 3.067s2.319 1.167 3.614 1.167c1.297 0 2.56-0.408 3.616-1.167 1.054-0.76 1.846-1.832 2.265-3.067l12.721-36.711c4.565-13.817 12.264-26.377 22.488-36.678 10.225-10.299 22.692-18.061 36.414-22.666l36.868-12.336c1.252-0.403 2.342-1.195 3.117-2.263s1.192-2.356 1.192-3.678c0-1.322-0.418-2.61-1.192-3.678s-1.865-1.861-3.117-2.263l-36.418-12.809c-13.863-4.579-26.459-12.38-36.772-22.773-10.31-10.393-18.046-23.084-22.579-37.047l-12.252-37.183c-0.465-1.221-1.299-2.264-2.385-2.984-1.084-0.719-2.366-1.078-3.663-1.025-1.299 0.052-2.547 0.513-3.571 1.317-1.026 0.804-1.794 1.911-2.161 3.165z"></path>
    </symbol>
    <symbol version="1.1" xmlns="http://www.w3.org/2000/svg" viewBox="0 0 512 512" id="arrow-left">
        <path fill="none" stroke-linejoin="round" stroke-linecap="round" stroke-miterlimit="4" stroke-width="32" stroke="currentColor" d="M309.335 352l-106.666-106.666 106.666-106.667"></path>
    </symbol>
    <symbol version="1.1" xmlns="http://www.w3.org/2000/svg" viewBox="0 0 512 512" id="arrow-down">
        <path fill="none" stroke-linejoin="round" stroke-linecap="round" stroke-miterlimit="4" stroke-width="32" stroke="currentColor" d="M362.683 213.333l-106.665 106.667-106.668-106.667"></path>
    </symbol>
</svg>