<svg width="28" height="28" viewBox="0 0 28 28" fill="none" xmlns="http://www.w3.org/2000/svg">
<path d="M28 14.0066C28.0004 13.1655 27.9253 12.3261 27.7758 11.4985L24.7617 13.7222C24.7617 13.8148 24.7664 13.9139 24.7664 14.0094C24.7668 16.4172 23.9609 18.7557 22.4774 20.6522C20.9939 22.5486 18.9181 23.8937 16.581 24.473C14.244 25.0522 11.7803 24.8323 9.58277 23.8482C7.38528 22.8642 5.58056 21.1726 4.45641 19.0434C3.33225 16.9142 2.95341 14.4698 3.38029 12.1002C3.80716 9.73058 5.01517 7.57212 6.81168 5.96902C8.60819 4.36593 10.8897 3.41052 13.2925 3.25516C15.6952 3.0998 18.0808 3.75344 20.0688 5.11183L22.7919 3.10495C20.3213 1.11121 17.2463 0.0164133 14.0716 0.000183085C10.8968 -0.0160471 7.81086 1.04725 5.31994 3.01563C2.82902 4.98401 1.08108 7.74056 0.362916 10.833C-0.355253 13.9255 -0.00100476 17.1703 1.36754 20.0349C2.73608 22.8996 5.03764 25.2141 7.89462 26.5986C10.7516 27.9831 13.9943 28.3554 17.0908 27.6546C20.1872 26.9537 22.9535 25.2212 24.9357 22.7413C26.918 20.2614 27.9985 17.1814 28 14.0066Z" fill="white"/>
<path d="M25.0808 5.44336C25.7464 6.30141 26.3095 7.23427 26.7587 8.22297L13.9994 17.6283L8.66992 14.2844V10.2669L13.9994 13.608L25.0808 5.44336Z" fill="white"/>
</svg>
