<svg width="36" height="36" fill="none" xmlns="http://www.w3.org/2000/svg"><rect width="36" height="36" rx="18" fill="#2C4867"/><path d="m10.58 17.975.008-.003.007-.003c4.06-1.727 6.762-2.865 8.112-3.413 1.935-.786 3.092-1.243 3.83-1.504.745-.264 1.01-.309 1.184-.312a.595.595 0 0 1 .195.037.17.17 0 0 1 .02.01c.002 0 .004.002.005.003l.001.002c.004.009.01.025.016.06l.49-.085-.49.086a1.802 1.802 0 0 1 .018.4c-.207 2.125-1.11 7.322-1.571 9.733-.184.961-.485.988-.505.99-.26.023-.51-.055-.819-.232a7.05 7.05 0 0 1-.584-.384 15.15 15.15 0 0 0-.488-.33c-.61-.39-1.086-.707-1.56-1.022l-.063-.042c-.454-.302-.912-.607-1.483-.975-.319-.204-.436-.344-.473-.415-.018-.032-.019-.037-.001-.076.033-.075.116-.183.285-.35.07-.07.148-.143.233-.224l.034-.031c.096-.092.202-.192.307-.298l.004-.004.013-.012.043-.04.142-.131.401-.365.053-.048c.364-.33.832-.756 1.296-1.184.463-.427.926-.86 1.279-1.207.175-.172.329-.328.442-.452a2.82 2.82 0 0 0 .152-.178c.02-.027.044-.06.066-.095a.627.627 0 0 0 .075-.179.808.808 0 0 0 .01-.299.715.715 0 0 0-.233-.435.71.71 0 0 0-.466-.17c-.111-.001-.21.021-.254.03l-.004.002a.69.69 0 0 0-.166.063l-.108.06c-.08.046-.186.11-.318.192-.264.164-.641.405-1.131.721-.981.633-2.42 1.576-4.317 2.826l-.003.002c-.51.342-.912.467-1.22.46-.19-.004-.507-.06-.895-.155a18.13 18.13 0 0 1-1.13-.322l-.34-.105c-.299-.092-.525-.162-.699-.244a1.233 1.233 0 0 1-.051-.026.744.744 0 0 1 .01-.008c.123-.09.33-.198.642-.319Z" fill="#fff" stroke="#fff"/></svg>