<svg width="36" height="36" fill="none" xmlns="http://www.w3.org/2000/svg"><rect width="36" height="36" rx="18" fill="#2C4867"/><path d="M16.532 20.441V13.46H18.2v4.33l.556-.063c.984-.11 1.925-.736 2.675-1.562a7.661 7.661 0 0 0 1.571-2.705h1.679c-.569 2.168-2.14 3.773-3.27 4.456l-.785.474.823.403c1.133.555 2.931 1.962 3.797 4.467h-1.904c-.743-2.031-2.39-3.628-4.59-3.857l-.552-.057V23.259c-2.61-.042-4.623-.998-6.016-2.687-1.361-1.652-2.17-4.053-2.308-7.112h1.834c.221 4.737 2.303 6.97 4.195 7.465l.627.163v-.647Z" fill="#fff" stroke="#fff"/></svg>