<svg width="311" height="58" viewBox="0 0 311 58" fill="none" xmlns="http://www.w3.org/2000/svg">
<path d="M347.495 20.2551L312.234 57.2253H317.626L351.124 22.104V20.2551H347.495ZM335.268 20.2551L300.007 57.2253H305.402L340.663 20.2551H335.268ZM323.044 20.2551L287.782 57.2253H293.175L328.436 20.2551H323.044ZM310.819 20.2551L275.556 57.2253H280.95L316.211 20.2551H310.819ZM298.593 20.2551L263.331 57.2253H268.724L303.986 20.2551H298.593ZM286.367 20.2551L251.105 57.2253H256.5L291.761 20.2551H286.367ZM274.142 20.2551L238.88 57.2253H244.273L279.535 20.2551H274.142ZM261.916 20.2551L226.654 57.2253H232.048L267.31 20.2551H261.916ZM249.691 20.2551L214.429 57.2253H219.822L255.084 20.2551H249.691ZM237.465 20.2551L202.204 57.2253H207.597L242.859 20.2551H237.465ZM225.239 20.2551L189.978 57.2253H195.372L230.633 20.2551H225.239ZM213.015 20.2551L177.752 57.2253H183.146L218.407 20.2551H213.015ZM200.789 20.2551L175.831 46.4216V52.0773L206.182 20.2551H200.789ZM188.564 20.2551L175.831 33.6039V39.2586L193.957 20.2551H188.564ZM176.337 20.2551L175.831 20.7872V26.442L181.732 20.2551H176.337ZM324.458 57.2253H329.851L351.124 34.9216V29.2679L324.458 57.2253ZM336.684 57.2253H342.077L351.124 47.7383V42.0845L336.684 57.2253ZM348.909 57.2253H351.124V54.9022L348.909 57.2253Z" fill="#E2051B"/>
<path d="M30.66 20.2555L49.9805 -1.90735e-06H44.5872L25.2667 20.2555H30.66ZM42.8853 20.2555L62.2048 -1.90735e-06H56.8125L37.492 20.2555H42.8853ZM55.1106 20.2555L74.4301 -1.90735e-06H69.0378L49.7173 20.2555H55.1106ZM67.3369 20.2555L86.6564 -1.90735e-06H81.2621L61.9426 20.2555H67.3369ZM7.91026 -1.90735e-06L0 8.29209V13.9468L13.3036 -1.90735e-06H7.91026ZM6.20938 20.2555L25.5289 -1.90735e-06H20.1356L0.815086 20.2555H6.20938ZM18.4347 20.2555L37.7552 -1.90735e-06H32.3609L13.0414 20.2555H18.4347ZM171.971 20.2555H175.831V16.2091L171.971 20.2555ZM152.914 20.2555L172.235 -1.90735e-06H166.841L147.522 20.2555H152.914ZM79.5622 20.2555L98.8817 -1.90735e-06H93.4884L74.1689 20.2555H79.5622ZM165.139 20.2555L175.831 9.04619V3.39244L159.747 20.2555H165.139ZM140.69 20.2555L160.009 -1.90735e-06H154.616L135.296 20.2555H140.69ZM91.7875 20.2555L111.107 -1.90735e-06H105.714L86.3942 20.2555H91.7875ZM128.464 20.2555L147.784 -1.90735e-06H142.39L123.071 20.2555H128.464ZM104.013 20.2555L123.332 -1.90735e-06H117.939L98.6195 20.2555H104.013ZM110.845 20.2555L130.164 -1.90735e-06H135.558L116.239 20.2555H110.845Z" fill="#E2051B"/>
</svg>
