<svg width="288" height="53" viewBox="0 0 288 53" fill="none" xmlns="http://www.w3.org/2000/svg">
<path d="M265.711 21.5433H287.257V-5.14984e-05H265.711V21.5433Z" fill="white"/>
<path d="M246 52.1021H267.546V34H246V52.1021Z" fill="white"/>
<path d="M233.017 52.8354H230.66V0.997475H233.017V52.8354Z" fill="#E2051B"/>
<path d="M228.303 52.8354H225.947V0.997475H228.303V52.8354Z" fill="#E2051B"/>
<path d="M220.644 52.8354H217.109V0.997475H220.644V52.8354Z" fill="#E2051B"/>
<path d="M211.218 52.8354H207.684V0.997475H211.218V52.8354Z" fill="#E2051B"/>
<path d="M199.435 52.8354H195.9V0.997475H199.435V52.8354Z" fill="#E2051B"/>
<path d="M194.132 52.8354H191.776V0.997475H194.132V52.8354Z" fill="#E2051B"/>
<path d="M123.435 52.8354H121.078V0.997475H123.435V52.8354Z" fill="#E2051B"/>
<path d="M118.722 52.8354H116.365V0.997475H118.722V52.8354Z" fill="#E2051B"/>
<path d="M112.83 52.8354H110.474V0.997475H112.83V52.8354Z" fill="#E2051B"/>
<path d="M96.3341 52.8354H93.9775V0.997475H96.3341V52.8354Z" fill="#E2051B"/>
<path d="M56.2716 52.8354H53.915V0.997475H56.2716V52.8354Z" fill="#E2051B"/>
<path d="M2.06998 52.8354H-0.286621V0.997475H2.06998V52.8354Z" fill="#E2051B"/>
<path d="M29.1701 52.8354H26.8135V0.997475H29.1701V52.8354Z" fill="#E2051B"/>
<path d="M185.295 52.8354H181.76V0.997475H185.295V52.8354Z" fill="#E2051B"/>
<path d="M178.815 52.8354H174.102V0.997475H178.815V52.8354Z" fill="#E2051B"/>
<path d="M170.567 52.8354H165.854V0.997475H170.567V52.8354Z" fill="#E2051B"/>
<path d="M160.551 52.8354H154.66V0.997475H160.551V52.8354Z" fill="#E2051B"/>
<path d="M150.536 52.8354H145.823V0.997475H150.536V52.8354Z" fill="#E2051B"/>
<path d="M143.466 52.8354H138.752V0.997475H143.466V52.8354Z" fill="#E2051B"/>
<path d="M132.862 52.8354H128.148V0.997475H132.862V52.8354Z" fill="#E2051B"/>
<path d="M107.527 52.8354H99.2793V0.997475H107.527V52.8354Z" fill="#E2051B"/>
<path d="M91.0313 52.8354H82.7832V0.997475H91.0313V52.8354Z" fill="#E2051B"/>
<path d="M79.2483 52.8354H75.7134V0.997475H79.2483V52.8354Z" fill="#E2051B"/>
<path d="M63.9309 52.8354H60.396V0.997475H63.9309V52.8354Z" fill="#E2051B"/>
<path d="M39.1863 52.8354H35.6514V0.997475H39.1863V52.8354Z" fill="#E2051B"/>
<path d="M10.3177 52.8354H5.60449V0.997475H10.3177V52.8354Z" fill="#E2051B"/>
<path d="M72.7674 52.8354H68.0542V0.997475H72.7674V52.8354Z" fill="#E2051B"/>
<path d="M50.9691 52.8354H45.0776V0.997475H50.9691V52.8354Z" fill="#E2051B"/>
<path d="M21.5123 52.8354H13.2642V0.997475H21.5123V52.8354Z" fill="#E2051B"/>
</svg>
