<svg width="208" height="72" viewBox="0 0 208 72" fill="none" xmlns="http://www.w3.org/2000/svg">
<path d="M207.661 35.8608L201.312 29.5129L201.308 29.5168L173.037 1.24908L166.688 7.59703L194.959 35.8648L166.688 64.1325L173.037 70.4805L201.308 42.2127L201.312 42.2166L207.661 35.8687L207.658 35.8648L207.661 35.8608Z" fill="#E2051B"/>
<path d="M178.38 35.8608L172.031 29.5129L172.027 29.5168L143.755 1.24908L137.406 7.59703L165.678 35.8648L137.406 64.1325L143.755 70.4805L172.027 42.2127L172.031 42.2166L178.38 35.8687L178.376 35.8648L178.38 35.8608Z" fill="white"/>
<path d="M149.098 35.8608L142.749 29.5129L142.746 29.5168L114.474 1.24908L108.125 7.59703L136.397 35.8648L108.125 64.1325L114.474 70.4805L142.746 42.2127L142.749 42.2166L149.098 35.8687L149.094 35.8648L149.098 35.8608Z" fill="#E2051B"/>
<path d="M119.817 35.8608L113.468 29.5129L113.464 29.5168L85.1931 1.24908L78.8442 7.59703L107.115 35.8648L78.8442 64.1325L85.1931 70.4805L113.464 42.2127L113.468 42.2166L119.817 35.8687L119.814 35.8648L119.817 35.8608Z" fill="#E2051B"/>
<path d="M50.8128 64.1325L55.9115 69.2304L84.1832 40.9627L84.1871 40.9666L89.2897 35.8647L55.9115 2.49798L50.8128 7.59695L79.0844 35.8647L50.8128 64.1325ZM55.9115 71.7294L48.3125 64.1325L76.5842 35.8647L48.3125 7.59695L55.9115 3.8147e-05L91.786 35.8608L84.1871 43.4655L84.1832 43.4616L55.9115 71.7294Z" fill="white"/>
<path d="M61.2545 35.8608L54.9057 29.5129L54.9018 29.5168L26.6301 1.24908L20.2812 7.59703L48.5529 35.8648L20.2812 64.1325L26.6301 70.4805L54.9018 42.2127L54.9057 42.2166L61.2545 35.8687L61.2506 35.8648L61.2545 35.8608Z" fill="#E2051B"/>
<path d="M31.9733 35.8608L25.6245 29.5129L25.6205 29.5168L-2.65117 1.24908L-9 7.59703L19.2717 35.8648L-9 64.1325L-2.65117 70.4805L25.6205 42.2127L25.6245 42.2166L31.9733 35.8687L31.9694 35.8648L31.9733 35.8608Z" fill="white"/>
</svg>
