<svg width="521" height="350" viewBox="0 0 521 350" fill="none" xmlns="http://www.w3.org/2000/svg">
<path d="M521 0H0V324.321H241.485L267.155 350L292.825 324.321H521V0Z" fill="#D9D9D9"/>
<path d="M38 142.356V34.1495H91.4324C104.725 34.1495 114.522 36.0884 120.823 39.9661C129.004 44.985 133.094 52.3174 133.094 61.963C133.094 71.2696 128.431 78.9265 119.105 84.9337C124.611 86.4227 128.989 89.3555 132.239 93.7318C135.489 98.1081 137.114 103.527 137.114 109.989C137.114 114.611 136.369 118.812 134.879 122.592C133.522 126.174 131.388 129.409 128.63 132.062C126.793 133.903 124.114 135.694 120.594 137.433C117.271 139.101 113.76 140.365 110.138 141.199C106.691 141.97 100.8 142.356 92.4672 142.356H38ZM72.2298 58.5329V77.6247H85.6252C91.0819 77.6247 94.8893 76.7384 97.0472 74.9657C98.0803 74.16 98.911 73.1232 99.4731 71.9384C100.035 70.7536 100.313 69.4535 100.284 68.1419C100.317 66.1027 99.6457 64.1148 98.3838 62.5148C97.1129 60.8917 95.3511 59.7254 93.3626 59.191C91.8149 58.7478 88.5404 58.5263 83.5391 58.5263L72.2298 58.5329ZM72.2298 97.0889V117.597H86.6665C93.5605 117.597 98.1483 116.677 100.43 114.838C102.712 112.999 103.853 110.438 103.853 107.157C103.853 103.921 102.737 101.435 100.506 99.6981C98.2755 97.9608 93.6622 97.0911 86.6665 97.0889H72.2298Z" fill="black"/>
<path d="M144.42 142.355V63.914H172.846V79.6488C175.373 73.3336 178.622 68.7468 182.593 65.8883C186.564 63.0299 191.525 61.6007 197.475 61.6007C198.721 61.5972 199.966 61.6972 201.196 61.8998V93.0702C198.122 92.5739 195.765 92.3258 194.125 92.3258C187.976 92.3258 183.363 93.9533 180.285 97.2084C177.207 100.463 175.67 105.842 175.672 113.345V142.355H144.42Z" fill="black"/>
<path d="M237.807 87.7656H207.593C207.991 82.7422 208.986 78.7537 210.578 75.7999C212.17 72.8462 214.551 70.3479 217.722 68.3048C221.938 65.6236 226.899 63.7224 232.603 62.6012C238.438 61.4691 244.37 60.907 250.313 60.9227C255.582 60.8783 260.845 61.2652 266.05 62.0794C270.693 62.8505 274.624 64.1058 277.844 65.8453C281.063 67.5847 283.544 69.5236 285.286 71.6619C287.022 73.8002 288.312 76.5345 289.156 79.8649C289.7 81.9013 289.972 85.9286 289.972 91.9469V132.441C289.972 136.017 291.336 138.8 294.065 140.79V142.359H261.901L260.339 133.857C256.611 137.383 252.24 140.156 247.464 142.023C242.85 143.796 237.592 144.682 231.691 144.682C221.868 144.682 214.624 142.346 209.961 137.672C205.298 132.999 202.967 127.431 202.967 120.967C202.964 117.255 203.817 113.594 205.461 110.268C206.993 107.015 209.339 104.214 212.27 102.138C215.144 100.123 219.199 98.5325 224.435 97.3648C229.67 96.197 237.248 95.0414 247.169 93.898C252.328 93.2997 255.601 92.6039 256.989 91.8106C257.921 91.3232 258.696 90.5814 259.224 89.6707C259.753 88.7601 260.013 87.718 259.974 86.6654C259.992 85.7211 259.781 84.7868 259.359 83.9422C258.937 83.0977 258.318 82.3681 257.553 81.816C255.941 80.5729 253.077 79.9514 248.96 79.9514C244.98 79.9514 242.178 80.6105 240.553 81.929C238.928 83.2474 238.012 85.1929 237.807 87.7656ZM259.606 107.376C258.107 108.093 256.555 108.691 254.963 109.164C253.053 109.763 249.493 110.608 244.284 111.7C240.715 112.449 238.322 113.494 237.104 114.834C235.888 116.179 235.236 117.94 235.283 119.754C235.254 120.723 235.451 121.686 235.857 122.566C236.264 123.447 236.869 124.22 237.624 124.826C239.19 126.118 241.633 126.764 244.954 126.764C247.405 126.771 249.829 126.249 252.061 125.235C254.176 124.328 256.031 122.906 257.457 121.097C258.467 119.631 259.105 117.942 259.318 116.174C259.51 114.887 259.606 111.955 259.606 107.379V107.376Z" fill="black"/>
<path d="M301.142 142.356V63.6781H329.863V75.9096C333.633 70.7888 337.613 67.1093 341.803 64.8713C345.993 62.6333 350.916 61.5155 356.574 61.5177C366.197 61.5177 373.65 64.19 378.934 69.5347C384.219 74.8793 386.86 82.8209 386.858 93.3595V142.356H355.46V99.0267C355.46 94.4531 354.481 91.1348 352.522 89.0718C350.563 87.0089 347.799 85.9774 344.23 85.9774C340.708 85.9774 337.856 87.1828 335.674 89.5936C333.491 92.0045 332.4 95.8701 332.4 101.19V142.356H301.142Z" fill="black"/>
<path d="M451.749 71.6585V34H483V142.356H454.945V131.766C451.972 136.198 448.623 139.454 444.9 141.534C441.176 143.615 436.465 144.659 430.765 144.665C420.395 144.665 411.875 141.086 405.205 133.926C398.534 126.767 395.197 116.923 395.195 104.395C395.195 95.8458 396.695 88.2399 399.696 81.5768C402.696 74.9137 406.938 69.9046 412.421 66.5498C417.905 63.1927 423.721 61.5154 429.869 61.5177C434.979 61.5177 439.494 62.5148 443.414 64.5091C446.189 65.945 448.967 68.328 451.749 71.6585ZM452.863 103.5C452.863 97.2961 451.66 92.7602 449.254 89.8929C446.849 87.0256 443.686 85.5962 439.766 85.6051C435.751 85.6051 432.489 87.0963 429.982 90.0789C427.475 93.0614 426.222 97.8589 426.225 104.471C426.225 110.636 427.378 115.097 429.684 117.856C431.99 120.615 435.029 121.994 438.801 121.994C442.966 121.994 446.351 120.515 448.956 117.557C451.56 114.599 452.863 109.913 452.863 103.5Z" fill="black"/>
<path d="M188.072 154.66H206.549V232.829H188.072V154.66Z" fill="black"/>
<path d="M431.448 232.856H417.668V154.683H431.448V232.856Z" fill="black"/>
<path d="M393.952 232.856H380.178V154.683H393.952V232.856Z" fill="black"/>
<path d="M225.572 154.654H239.349V232.856H225.579L225.572 154.654Z" fill="black"/>
<path d="M117.464 232.852H103.677V154.683H117.464V232.852Z" fill="black"/>
<path d="M131.526 232.852H122.422V154.683H131.526V232.852Z" fill="black"/>
<path d="M150.264 232.856H141.18V154.683H150.271L150.264 232.856Z" fill="black"/>
<path d="M183.068 232.856H173.977V154.683H183.068V232.856Z" fill="black"/>
<path d="M319.303 154.654H328.381V232.852H319.303V154.654Z" fill="black"/>
<path d="M314.282 232.856H305.198V154.657H314.282V232.856Z" fill="black"/>
<path d="M75.543 232.849V154.677H84.6766V232.849H75.543Z" fill="black"/>
<path d="M300.224 232.856H291.14V154.657H300.224V232.856Z" fill="black"/>
<path d="M281.489 232.852H272.385V154.68H281.489V232.852Z" fill="black"/>
<path d="M51.8564 285.917H47.4422V154.683H51.8564V285.917Z" fill="black"/>
<path d="M267.42 232.859H263.022V154.657H267.42V232.859Z" fill="black"/>
<path d="M258.051 232.859H253.646V154.657H258.051V232.859Z" fill="black"/>
<path d="M483 285.917H478.589V154.683H483V285.917Z" fill="black"/>
<path d="M38.1062 154.657H42.5271V285.88H38.1062V154.657Z" fill="black"/>
<path d="M455.198 154.657H459.605V232.856H455.198V154.657Z" fill="black"/>
<path d="M436.456 154.654H440.857V232.856H436.456V154.654Z" fill="black"/>
<path d="M403.642 154.657H408.06V232.829H403.642V154.657Z" fill="black"/>
<path d="M66.2269 154.657H70.6412V232.829H66.2269V154.657Z" fill="black"/>
<path d="M375.217 232.856H370.799V154.683H375.217V232.856Z" fill="black"/>
<path d="M348.774 154.654H365.874V232.856H348.774V154.654Z" fill="black"/>
<path d="M338.045 154.654H342.439V232.856H338.045V154.654Z" fill="black"/>
<path d="M248.672 232.859H244.281V154.657H248.672V232.859Z" fill="black"/>
<path d="M215.871 232.859H211.49V154.657H215.888L215.871 232.859Z" fill="black"/>
<path d="M89.6613 154.657H94.0856V232.856H89.6779L89.6613 154.657Z" fill="black"/>
<path d="M164.326 232.856H159.918V154.657H164.326V232.856Z" fill="black"/>
<path d="M64.5686 285.897V245.679H83.9902C88.8256 245.679 92.3887 246.4 94.6793 247.843C97.6509 249.708 99.1378 252.434 99.14 256.019C99.14 259.476 97.4452 262.322 94.0557 264.558C95.9801 265.054 97.6694 266.211 98.8282 267.829C100.013 269.455 100.605 271.468 100.603 273.868C100.622 275.467 100.347 277.056 99.79 278.554C99.2995 279.879 98.5252 281.079 97.5216 282.071C96.6604 282.888 95.6738 283.562 94.5997 284.065C93.3935 284.681 92.1173 285.149 90.799 285.458C89.542 285.757 87.3995 285.893 84.3748 285.893L64.5686 285.897ZM77.0155 254.736V261.832H81.8808C83.8707 261.832 85.2504 261.5 86.0364 260.852C86.4133 260.548 86.7154 260.161 86.9196 259.721C87.1237 259.281 87.2244 258.801 87.2138 258.316C87.2285 257.561 86.9838 256.824 86.5206 256.229C86.0687 255.624 85.4257 255.19 84.6965 254.999C84.1394 254.821 82.9487 254.734 81.1246 254.736H77.0155ZM77.0155 269.068V276.713H82.2589C84.7662 276.713 86.441 276.364 87.2635 275.679C87.679 275.333 88.0081 274.894 88.2245 274.398C88.441 273.902 88.539 273.362 88.5105 272.821C88.54 272.296 88.4455 271.771 88.2346 271.289C88.0237 270.808 87.7023 270.383 87.2967 270.049C86.4853 269.404 84.806 269.082 82.2589 269.082L77.0155 269.068Z" fill="black"/>
<path d="M99.8166 285.897L113.855 245.679H126.946L140.984 285.897H128.163L126.674 280.625H113.855L112.393 285.897H99.8166ZM120.269 257.767L116.237 272.372H124.428L120.269 257.767Z" fill="black"/>
<path d="M142.61 285.897V245.679H161.789C164.052 245.649 166.315 245.799 168.555 246.127C170.119 246.344 171.638 246.81 173.055 247.507C175.282 248.687 177.004 250.64 177.897 253.001C178.338 254.313 178.544 255.692 178.507 257.076C178.507 259.09 178.197 260.781 177.576 262.148C176.979 263.475 176.068 264.635 174.922 265.528C174.021 266.21 172.991 266.701 171.894 266.971C174.419 267.95 176.133 269.035 177.035 270.225C177.934 271.418 178.418 273.419 178.494 276.254L178.687 282.606C178.716 283.523 178.809 284.072 178.952 284.235C179.075 284.371 179.225 284.479 179.394 284.552C179.562 284.625 179.744 284.661 179.927 284.657V285.9H166.89C166.525 284.805 166.317 282.948 166.266 280.329L166.183 277.361C166.183 275.992 165.954 274.938 165.553 274.19C165.141 273.441 164.499 272.844 163.722 272.488C162.91 272.09 161.689 271.903 160.044 271.903H155.043V285.9L142.61 285.897ZM155.056 263.089H161.195C163.185 263.089 164.571 262.727 165.384 262.032C165.786 261.684 166.105 261.249 166.317 260.761C166.529 260.272 166.628 259.742 166.608 259.21C166.608 257.98 166.216 257.036 165.44 256.365C164.664 255.693 163.301 255.368 161.354 255.368H155.053L155.056 263.089Z" fill="black"/>
<path d="M182.753 285.897V245.679H202.174C207.014 245.679 210.578 246.4 212.867 247.843C215.834 249.708 217.32 252.434 217.324 256.019C217.324 259.476 215.629 262.322 212.24 264.558C214.164 265.054 215.853 266.211 217.012 267.829C218.199 269.454 218.787 271.485 218.787 273.868C218.806 275.467 218.531 277.056 217.974 278.554C217.485 279.879 216.71 281.08 215.705 282.071C214.844 282.888 213.858 283.562 212.784 284.065C211.577 284.681 210.301 285.149 208.983 285.458C207.726 285.757 205.587 285.893 202.559 285.893L182.753 285.897ZM195.199 254.736V261.832H200.068C202.058 261.832 203.434 261.5 204.22 260.852C204.598 260.548 204.9 260.161 205.105 259.721C205.31 259.282 205.411 258.801 205.401 258.316C205.415 257.561 205.169 256.824 204.705 256.229C204.254 255.623 203.61 255.189 202.881 254.999C202.323 254.821 201.133 254.734 199.309 254.736H195.199ZM195.199 269.068V276.713H200.446C202.95 276.713 204.625 276.364 205.448 275.679C205.863 275.333 206.192 274.894 206.409 274.398C206.625 273.902 206.723 273.362 206.695 272.821C206.724 272.296 206.629 271.771 206.419 271.289C206.208 270.808 205.886 270.383 205.481 270.049C204.667 269.404 202.989 269.082 200.446 269.082L195.199 269.068Z" fill="black"/>
<path d="M221.665 285.897V245.679H253.58V255.162H234.102V260.812H250.625V269.933H234.092V276.248H254.356V285.887L221.665 285.897Z" fill="black"/>
<path d="M258.827 285.897V245.679H278.006C280.27 245.649 282.532 245.799 284.772 246.128C286.336 246.345 287.855 246.81 289.272 247.507C291.5 248.687 293.221 250.64 294.115 253.001C294.554 254.313 294.759 255.693 294.721 257.076C294.721 259.09 294.412 260.781 293.793 262.148C293.197 263.475 292.286 264.636 291.14 265.529C290.24 266.211 289.211 266.701 288.115 266.971C290.638 267.95 292.351 269.035 293.256 270.225C294.154 271.418 294.639 273.419 294.711 276.254L294.904 282.606C294.937 283.524 295.03 284.072 295.173 284.235C295.295 284.371 295.445 284.479 295.613 284.552C295.78 284.624 295.962 284.66 296.144 284.657V285.9H283.127C282.762 284.805 282.553 282.949 282.5 280.329L282.421 277.361C282.401 275.992 282.192 274.938 281.787 274.19C281.377 273.441 280.736 272.844 279.96 272.489C279.147 272.09 277.927 271.904 276.282 271.904H271.277V285.9L258.827 285.897ZM271.27 263.089H277.409C279.399 263.089 280.789 262.727 281.601 262.032C282.003 261.684 282.321 261.249 282.533 260.76C282.744 260.272 282.843 259.742 282.822 259.21C282.822 257.98 282.434 257.036 281.658 256.365C280.882 255.693 279.519 255.368 277.572 255.368H271.27V263.089Z" fill="black"/>
<path d="M332.759 257.332H320.531C320.323 256.286 319.74 255.353 318.892 254.709C318.093 254.124 316.942 253.839 315.446 253.839C313.951 253.839 312.866 254.138 312.09 254.746C311.817 254.959 311.597 255.232 311.448 255.545C311.299 255.858 311.224 256.201 311.231 256.548C311.218 256.834 311.27 257.12 311.381 257.385C311.492 257.649 311.661 257.885 311.874 258.077C312.489 258.635 313.942 259.199 316.232 259.768L321.237 261.011C325.88 262.165 329.12 263.783 330.984 265.894C332.808 267.888 333.81 270.501 333.787 273.206C333.795 275.201 333.349 277.172 332.482 278.968C331.616 280.764 330.351 282.338 328.785 283.57C327.133 284.734 325.28 285.582 323.32 286.069C318.501 287.359 313.422 287.307 308.631 285.92C306.47 285.319 304.463 284.259 302.747 282.812C301.252 281.53 300.056 279.935 299.242 278.139C298.624 276.655 298.232 275.086 298.078 273.486H310.442C310.671 274.665 311.338 275.714 312.309 276.421C313.264 277.102 314.733 277.451 316.717 277.451C318.448 277.451 319.693 277.153 320.451 276.557C320.728 276.337 320.948 276.054 321.093 275.731C321.239 275.408 321.305 275.056 321.287 274.702C321.303 274.339 321.243 273.977 321.11 273.64C320.978 273.302 320.776 272.996 320.517 272.741C320.003 272.242 318.597 271.707 316.282 271.126L311.795 269.992C309.513 269.444 307.3 268.644 305.195 267.606C303.139 266.589 301.591 265.28 300.552 263.68C299.51 262.065 298.983 260.111 298.983 257.824C298.945 255.733 299.43 253.666 300.393 251.811C301.282 250.107 302.578 248.649 304.167 247.57C305.768 246.493 307.555 245.722 309.437 245.297C311.404 244.848 313.416 244.625 315.433 244.632C317.701 244.609 319.963 244.863 322.169 245.39C324.209 245.898 325.817 246.559 327.038 247.384C328.18 248.148 329.179 249.108 329.989 250.219C330.715 251.22 331.308 252.31 331.754 253.463C332.216 254.716 332.553 256.012 332.759 257.332Z" fill="black"/>
<path d="M336.901 285.897V245.679H349.789V259.29H361.851V245.679H374.756V285.897H361.851V270.321H349.789V285.897H336.901Z" fill="black"/>
<path d="M398.694 286.954C392.417 286.954 387.403 285.018 383.65 281.147C379.898 277.276 378.019 272.135 378.012 265.725C377.971 262.915 378.41 260.119 379.309 257.458C380.072 255.197 381.261 253.104 382.811 251.293C384.113 249.757 385.665 248.455 387.401 247.44C389.029 246.526 390.77 245.828 392.578 245.366C394.492 244.866 396.462 244.619 398.439 244.632C402.151 244.59 405.819 245.443 409.134 247.118C412.309 248.704 414.916 251.235 416.6 254.364C418.325 257.531 419.18 261.188 419.18 265.302C419.18 269.329 418.423 272.945 416.908 276.151C415.393 279.359 412.995 282.067 409.997 283.956C406.919 285.948 403.152 286.947 398.694 286.954ZM398.532 277.022C399.946 277.037 401.334 276.643 402.531 275.889C403.739 275.131 404.704 273.88 405.427 272.136C406.15 270.392 406.511 268.263 406.511 265.748C406.532 264.12 406.353 262.496 405.977 260.912C405.713 259.692 405.232 258.531 404.558 257.482C403.93 256.586 403.114 255.839 402.167 255.295C401.135 254.701 399.963 254.397 398.774 254.414C397.355 254.41 395.969 254.834 394.794 255.63C393.55 256.438 392.562 257.708 391.832 259.409C391.103 261.111 390.734 263.238 390.734 265.748C390.734 269.515 391.574 272.461 393.252 274.586C394.562 276.214 396.329 277.022 398.542 277.022H398.532Z" fill="black"/>
<path d="M422.683 285.897V245.679H438.724C442.459 245.679 445.278 245.852 447.195 246.214C448.824 246.474 450.406 246.972 451.891 247.693C453.17 248.381 454.311 249.299 455.257 250.402C456.27 251.568 457.058 252.912 457.579 254.367C458.121 255.972 458.386 257.658 458.362 259.353C458.39 261.266 458.064 263.167 457.4 264.96C456.887 266.417 456.114 267.769 455.118 268.949C454.325 269.864 453.394 270.649 452.359 271.275C451.396 271.796 450.378 272.205 449.324 272.495C447.17 273.129 444.936 273.442 442.691 273.426H435.362V285.907L422.683 285.897ZM435.186 255.408V263.833H439.809C441.626 263.833 442.9 263.724 443.623 263.501C444.361 263.255 444.988 262.758 445.397 262.095C445.875 261.333 446.116 260.445 446.087 259.546C446.087 257.981 445.56 256.9 444.505 256.302C443.444 255.72 441.713 255.421 439.295 255.421L435.186 255.408Z" fill="black"/>
<path d="M138.132 34.0996H157.199V39.5807H151.06V54.9133H144.271V39.5772H138.132V34.0996Z" fill="black"/>
<path d="M159.879 54.9133V34.0964H166.694V41.1427H173.082V34.0964H179.907V54.9133H173.082V46.8464H166.694V54.9133H159.879Z" fill="black"/>
<path d="M183.207 54.9133V34.0964H200.121V39.0056H189.81V41.9239H198.556V46.647H189.807V49.9276H200.532V54.9133H183.207Z" fill="black"/>
</svg>
