<svg width="13" height="13" viewBox="0 0 13 13" fill="none" xmlns="http://www.w3.org/2000/svg">
<g clip-path="url(#clip0_1_8506)">
<path d="M1.08325 6.49996C1.08325 4.45721 1.08325 3.43583 1.71785 2.80123C2.35246 2.16663 3.37383 2.16663 5.41659 2.16663H7.58325C9.62601 2.16663 10.6474 2.16663 11.282 2.80123C11.9166 3.43583 11.9166 4.45721 11.9166 6.49996V7.58329C11.9166 9.62605 11.9166 10.6474 11.282 11.282C10.6474 11.9166 9.62601 11.9166 7.58325 11.9166H5.41659C3.37383 11.9166 2.35246 11.9166 1.71785 11.282C1.08325 10.6474 1.08325 9.62605 1.08325 7.58329V6.49996Z" stroke="black" stroke-width="1.5"/>
<path d="M3.79175 2.16663V1.35413" stroke="black" stroke-width="1.5" stroke-linecap="round"/>
<path d="M9.20825 2.16663V1.35413" stroke="black" stroke-width="1.5" stroke-linecap="round"/>
<path d="M1.35425 4.875H11.6459" stroke="black" stroke-width="1.5" stroke-linecap="round"/>
<path d="M9.75008 9.20833C9.75008 9.50749 9.50757 9.75 9.20841 9.75C8.90926 9.75 8.66675 9.50749 8.66675 9.20833C8.66675 8.90918 8.90926 8.66667 9.20841 8.66667C9.50757 8.66667 9.75008 8.90918 9.75008 9.20833Z" fill="black"/>
<path d="M9.75008 7.04167C9.75008 7.34082 9.50757 7.58333 9.20841 7.58333C8.90926 7.58333 8.66675 7.34082 8.66675 7.04167C8.66675 6.74251 8.90926 6.5 9.20841 6.5C9.50757 6.5 9.75008 6.74251 9.75008 7.04167Z" fill="black"/>
<path d="M7.04158 9.20833C7.04158 9.50749 6.79907 9.75 6.49992 9.75C6.20076 9.75 5.95825 9.50749 5.95825 9.20833C5.95825 8.90918 6.20076 8.66667 6.49992 8.66667C6.79907 8.66667 7.04158 8.90918 7.04158 9.20833Z" fill="black"/>
<path d="M7.04158 7.04167C7.04158 7.34082 6.79907 7.58333 6.49992 7.58333C6.20076 7.58333 5.95825 7.34082 5.95825 7.04167C5.95825 6.74251 6.20076 6.5 6.49992 6.5C6.79907 6.5 7.04158 6.74251 7.04158 7.04167Z" fill="black"/>
<path d="M4.33333 9.20833C4.33333 9.50749 4.09082 9.75 3.79167 9.75C3.49251 9.75 3.25 9.50749 3.25 9.20833C3.25 8.90918 3.49251 8.66667 3.79167 8.66667C4.09082 8.66667 4.33333 8.90918 4.33333 9.20833Z" fill="black"/>
<path d="M4.33333 7.04167C4.33333 7.34082 4.09082 7.58333 3.79167 7.58333C3.49251 7.58333 3.25 7.34082 3.25 7.04167C3.25 6.74251 3.49251 6.5 3.79167 6.5C4.09082 6.5 4.33333 6.74251 4.33333 7.04167Z" fill="black"/>
</g>
<defs>
<clipPath id="clip0_1_8506">
<rect width="13" height="13" rx="5" fill="white"/>
</clipPath>
</defs>
</svg>
