<svg width="32" height="33" viewBox="0 0 32 33" fill="none" xmlns="http://www.w3.org/2000/svg">
<path d="M0 16.7847C0 7.94811 7.16344 0.784668 16 0.784668C24.8366 0.784668 32 7.94811 32 16.7847C32 25.6212 24.8366 32.7847 16 32.7847C7.16344 32.7847 0 25.6212 0 16.7847Z" fill="#E1EFFE"/>
<g clip-path="url(#clip0_39_1370)">
<path d="M21.098 10.3847H18.7451C18.7451 9.96032 18.5798 9.55336 18.2856 9.2533C17.9915 8.95324 17.5925 8.78467 17.1764 8.78467H14.8235C14.4075 8.78467 14.0085 8.95324 13.7143 9.2533C13.4201 9.55336 13.2549 9.96032 13.2549 10.3847H10.9019C10.4859 10.3847 10.0869 10.5532 9.79275 10.8533C9.49858 11.1534 9.33331 11.5603 9.33331 11.9847V23.1847C9.33331 23.609 9.49858 24.016 9.79275 24.316C10.0869 24.6161 10.4859 24.7847 10.9019 24.7847H21.098C21.514 24.7847 21.913 24.6161 22.2072 24.316C22.5014 24.016 22.6666 23.609 22.6666 23.1847V11.9847C22.6666 11.5603 22.5014 11.1534 22.2072 10.8533C21.913 10.5532 21.514 10.3847 21.098 10.3847ZM17.1764 10.3847V12.7847H14.8235V10.3847H17.1764ZM18.7451 20.7847H13.2549C13.0469 20.7847 12.8474 20.7004 12.7003 20.5504C12.5532 20.4003 12.4706 20.1968 12.4706 19.9847C12.4706 19.7725 12.5532 19.569 12.7003 19.419C12.8474 19.269 13.0469 19.1847 13.2549 19.1847H18.7451C18.9531 19.1847 19.1526 19.269 19.2997 19.419C19.4468 19.569 19.5294 19.7725 19.5294 19.9847C19.5294 20.1968 19.4468 20.4003 19.2997 20.5504C19.1526 20.7004 18.9531 20.7847 18.7451 20.7847ZM18.7451 17.5847H13.2549C13.0469 17.5847 12.8474 17.5004 12.7003 17.3504C12.5532 17.2003 12.4706 16.9968 12.4706 16.7847C12.4706 16.5725 12.5532 16.369 12.7003 16.219C12.8474 16.069 13.0469 15.9847 13.2549 15.9847H18.7451C18.9531 15.9847 19.1526 16.069 19.2997 16.219C19.4468 16.369 19.5294 16.5725 19.5294 16.7847C19.5294 16.9968 19.4468 17.2003 19.2997 17.3504C19.1526 17.5004 18.9531 17.5847 18.7451 17.5847Z" fill="#1C64F2"/>
</g>
<defs>
<clipPath id="clip0_39_1370">
<rect width="16" height="16" fill="white" transform="translate(8 8.78467)"/>
</clipPath>
</defs>
</svg>
