<svg width="32" height="33" viewBox="0 0 32 33" fill="none" xmlns="http://www.w3.org/2000/svg">
<path d="M0 16.7847C0 7.94811 7.16344 0.784668 16 0.784668C24.8366 0.784668 32 7.94811 32 16.7847C32 25.6212 24.8366 32.7847 16 32.7847C7.16344 32.7847 0 25.6212 0 16.7847Z" fill="#EDEBFE"/>
<g clip-path="url(#clip0_39_1421)">
<path d="M20.2857 8.78467H11.7143C11.2596 8.78467 10.8236 8.95324 10.5021 9.2533C10.1806 9.55336 10 9.96032 10 10.3847V23.1847C10 23.609 10.1806 24.016 10.5021 24.316C10.8236 24.6161 11.2596 24.7847 11.7143 24.7847H20.2857C20.7404 24.7847 21.1764 24.6161 21.4979 24.316C21.8194 24.016 22 23.609 22 23.1847V10.3847C22 9.96032 21.8194 9.55336 21.4979 9.2533C21.1764 8.95324 20.7404 8.78467 20.2857 8.78467ZM16.4286 22.3847H15.5714C15.4578 22.3847 15.3488 22.3425 15.2684 22.2675C15.188 22.1925 15.1429 22.0908 15.1429 21.9847C15.1429 21.8786 15.188 21.7768 15.2684 21.7018C15.3488 21.6268 15.4578 21.5847 15.5714 21.5847H16.4286C16.5422 21.5847 16.6512 21.6268 16.7316 21.7018C16.812 21.7768 16.8571 21.8786 16.8571 21.9847C16.8571 22.0908 16.812 22.1925 16.7316 22.2675C16.6512 22.3425 16.5422 22.3847 16.4286 22.3847ZM20.2857 19.9847H11.7143V11.9847H20.2857V19.9847Z" fill="#7E3AF2"/>
</g>
<defs>
<clipPath id="clip0_39_1421">
<rect width="16" height="16" fill="white" transform="translate(8 8.78467)"/>
</clipPath>
</defs>
</svg>
