<svg width="32" height="33" viewBox="0 0 32 33" fill="none" xmlns="http://www.w3.org/2000/svg">
<path d="M0 16.7847C0 7.94811 7.16344 0.784668 16 0.784668C24.8366 0.784668 32 7.94811 32 16.7847C32 25.6212 24.8366 32.7847 16 32.7847C7.16344 32.7847 0 25.6212 0 16.7847Z" fill="#D5F5F6"/>
<g clip-path="url(#clip0_39_1437)">
<path d="M15.8476 22.2934L15.9973 23.3386C16.0409 23.6478 16.17 23.9388 16.3699 24.1789C16.5699 24.419 16.8329 24.5987 17.1294 24.6978C17.4259 24.7969 17.7442 24.8115 18.0485 24.74C18.3529 24.6686 18.6313 24.5138 18.8525 24.293L20.6368 22.511C20.7773 22.371 20.8637 22.1859 20.8808 21.9884L21.1188 19.1888C19.4347 20.2601 17.4535 21.4002 15.8476 22.2934Z" fill="#0694A2"/>
<path d="M23.7805 10.023C23.7384 9.77261 23.6191 9.54161 23.4394 9.36211C23.2597 9.1826 23.0284 9.06352 22.7777 9.02143C21.9902 8.8827 21.1925 8.80935 20.3928 8.80214C19.2003 8.6997 18.0131 9.05046 17.0682 9.78434C15.5725 11.2782 12.4044 16.9471 11.4185 18.7418C11.3315 18.9007 11.2987 19.0835 11.325 19.2627C11.3512 19.4418 11.4351 19.6076 11.564 19.7349L13.0555 21.2221C13.1331 21.3012 13.2256 21.3642 13.3277 21.4074C13.4298 21.4507 13.5394 21.4734 13.6503 21.4741C13.79 21.4745 13.9276 21.4392 14.0499 21.3716C15.8468 20.3878 21.5226 17.2235 23.0183 15.7296C24.3357 14.408 24.0295 11.4664 23.7805 10.023ZM20.6368 14.5374C20.4015 14.7723 20.1017 14.9323 19.7753 14.9971C19.449 15.0619 19.1107 15.0286 18.8033 14.9014C18.4959 14.7741 18.2332 14.5588 18.0484 14.2824C17.8635 14.0061 17.7649 13.6812 17.7649 13.3489C17.7649 13.0166 17.8635 12.6917 18.0484 12.4154C18.2332 12.1391 18.4959 11.9237 18.8033 11.7965C19.1107 11.6693 19.449 11.636 19.7753 11.7007C20.1017 11.7655 20.4015 11.9255 20.6368 12.1604C20.7931 12.3165 20.9171 12.5018 21.0017 12.7057C21.0863 12.9096 21.1298 13.1282 21.1298 13.3489C21.1298 13.5697 21.0863 13.7882 21.0017 13.9921C20.9171 14.1961 20.7931 14.3813 20.6368 14.5374Z" fill="#0694A2"/>
<path d="M13.604 11.6798L10.8018 11.9176C10.6045 11.9346 10.4195 12.0206 10.2794 12.1604L8.49348 13.9425C8.27233 14.1631 8.11708 14.4409 8.04515 14.7448C7.97323 15.0486 7.98745 15.3664 8.08625 15.6626C8.18504 15.9587 8.36449 16.2216 8.60447 16.4216C8.84445 16.6216 9.13548 16.751 9.44492 16.795L10.4914 16.9446C11.3865 15.3406 12.5272 13.3619 13.604 11.6798Z" fill="#0694A2"/>
</g>
<defs>
<clipPath id="clip0_39_1437">
<rect width="16" height="16" fill="white" transform="translate(8 8.78467)"/>
</clipPath>
</defs>
</svg>
