<svg width="32" height="33" viewBox="0 0 32 33" fill="none" xmlns="http://www.w3.org/2000/svg">
<path d="M0 16.7847C0 7.94811 7.16344 0.784668 16 0.784668C24.8366 0.784668 32 7.94811 32 16.7847C32 25.6212 24.8366 32.7847 16 32.7847C7.16344 32.7847 0 25.6212 0 16.7847Z" fill="#FFEFEE"/>
<g clip-path="url(#clip0_39_1449)">
<path d="M16 8.78467C14.4178 8.78467 12.871 9.25386 11.5554 10.1329C10.2398 11.012 9.21447 12.2614 8.60897 13.7232C8.00347 15.185 7.84504 16.7935 8.15372 18.3454C8.4624 19.8972 9.22433 21.3227 10.3431 22.4415C11.462 23.5603 12.8874 24.3223 14.4393 24.6309C15.9911 24.9396 17.5997 24.7812 19.0615 24.1757C20.5233 23.5702 21.7727 22.5448 22.6518 21.2292C23.5308 19.9136 24 18.3669 24 16.7847C24 15.7341 23.7931 14.6938 23.391 13.7232C22.989 12.7526 22.3997 11.8707 21.6569 11.1278C20.914 10.3849 20.0321 9.79567 19.0615 9.39363C18.0909 8.99159 17.0506 8.78467 16 8.78467ZM14.6312 23.0191C13.7587 22.8198 12.9378 22.4394 12.2217 21.9027C11.5055 21.366 10.91 20.6849 10.4738 19.9034C10.0376 19.122 9.77041 18.2576 9.68948 17.3663C9.60854 16.4751 9.7157 15.5767 10.004 14.7295L10.2056 14.7455C10.6321 14.9489 11.0096 15.2421 11.3122 15.605C11.6149 15.9678 11.8356 16.3918 11.9592 16.8479C12.0922 17.3746 12.3476 17.8625 12.7047 18.2719C13.0618 18.6813 13.5106 19.0006 14.0144 19.2039C14.9808 19.6495 15.1832 20.8991 14.6312 23.0191ZM17.6632 15.5847C17.6631 15.5208 17.6553 15.4571 17.64 15.3951C17.4952 14.7392 17.2082 14.1231 16.7991 13.5903C16.3901 13.0576 15.869 12.6211 15.2728 12.3119C14.5728 11.8679 14.1384 11.5919 14.0216 10.7191C15.2671 10.2994 16.6117 10.274 17.8722 10.6462C19.1327 11.0184 20.2478 11.7702 21.0656 12.7991C19.8976 12.9743 19.2632 14.6831 19.2632 15.5839C19.1778 15.716 19.0585 15.8227 18.9178 15.8931C18.7771 15.9634 18.6201 15.9948 18.4632 15.9839C18.3064 15.9949 18.1494 15.9636 18.0087 15.8934C17.868 15.8232 17.7487 15.7166 17.6632 15.5847ZM19.0328 22.3631L18.4672 20.6679C18.4945 20.2827 18.6602 19.9204 18.9337 19.6478C19.2071 19.3752 19.57 19.2107 19.9552 19.1847L21.6664 19.7055C21.0749 20.8354 20.1573 21.7614 19.0328 22.3631Z" fill="#FEA19B"/>
</g>
<defs>
<clipPath id="clip0_39_1449">
<rect width="16" height="16" fill="white" transform="translate(8 8.78467)"/>
</clipPath>
</defs>
</svg>
