<svg width="32" height="33" viewBox="0 0 32 33" fill="none" xmlns="http://www.w3.org/2000/svg">
<path d="M0 16.7847C0 7.94811 7.16344 0.784668 16 0.784668C24.8366 0.784668 32 7.94811 32 16.7847C32 25.6212 24.8366 32.7847 16 32.7847C7.16344 32.7847 0 25.6212 0 16.7847Z" fill="#BEEAD5"/>
<g clip-path="url(#clip0_39_1455)">
<path d="M11.3766 14.6028H8.84414C8.62026 14.6028 8.40555 14.6863 8.24724 14.835C8.08894 14.9837 8 15.1854 8 15.3957V22.532C8 22.9526 8.17787 23.356 8.49448 23.6534C8.8111 23.9508 9.24052 24.1178 9.68828 24.1178H10.5324C10.9802 24.1178 11.4096 23.9508 11.7262 23.6534C12.0428 23.356 12.2207 22.9526 12.2207 22.532V15.3957C12.2207 15.1854 12.1318 14.9837 11.9734 14.835C11.8151 14.6863 11.6004 14.6028 11.3766 14.6028Z" fill="#27B973"/>
<path d="M22.3115 14.6028H18.9738L20.289 11.0347C20.3321 10.7081 20.2523 10.3777 20.0634 10.1007C19.8745 9.82361 19.5884 9.61732 19.2546 9.51755C18.9209 9.41778 18.5605 9.43081 18.2358 9.55438C17.9112 9.67795 17.6428 9.90428 17.4771 10.1942C16.5015 11.7582 15.3008 13.1884 13.909 14.4442V22.0451H14.0052C15.7855 22.5074 18.1423 23.3249 20.3244 23.3249C21.5062 23.3249 21.6683 22.9078 21.9114 22.2806L23.8985 16.7302C23.9912 16.4906 24.021 16.2336 23.9855 15.9809C23.9499 15.7283 23.8501 15.4873 23.6944 15.2786C23.5386 15.0699 23.3317 14.8995 23.0909 14.7818C22.8502 14.6642 22.5829 14.6028 22.3115 14.6028Z" fill="#27B973"/>
</g>
<defs>
<clipPath id="clip0_39_1455">
<rect width="16" height="16" fill="white" transform="translate(8 8.78467)"/>
</clipPath>
</defs>
</svg>
