<svg width="32" height="33" viewBox="0 0 32 33" fill="none" xmlns="http://www.w3.org/2000/svg">
<path d="M0 16.7847C0 7.94811 7.16344 0.784668 16 0.784668C24.8366 0.784668 32 7.94811 32 16.7847C32 25.6212 24.8366 32.7847 16 32.7847C7.16344 32.7847 0 25.6212 0 16.7847Z" fill="#FAE3C1"/>
<g clip-path="url(#clip0_39_1431)">
<path d="M16.3834 15.7703C15.3489 15.6034 14.4399 15.1546 13.8412 14.5151C13.7451 14.4138 13.6782 14.2993 13.6445 14.1786C13.6107 14.0578 13.6109 13.9332 13.6449 13.8125C13.9404 13.0319 15.6089 12.5971 17.223 12.8844C17.9758 13.0058 18.6582 13.2959 19.1753 13.7142C19.3111 13.8323 19.4775 13.9296 19.6649 14.0005C19.8523 14.0713 20.0569 14.1144 20.2672 14.1272C20.4774 14.14 20.689 14.1223 20.8898 14.075C21.0906 14.0277 21.2767 13.9519 21.4373 13.8518C21.5979 13.7517 21.7299 13.6294 21.8256 13.4919C21.9214 13.3543 21.979 13.2043 21.9953 13.0504C22.0115 12.8965 21.986 12.7418 21.9202 12.5952C21.8544 12.4485 21.7496 12.3128 21.6119 12.1959C20.6586 11.4032 19.3904 10.8486 17.9847 10.6097C17.8994 10.5941 17.8162 10.5925 17.7308 10.5801V9.95557C17.7308 9.64503 17.5622 9.3472 17.2621 9.12762C16.962 8.90803 16.555 8.78467 16.1306 8.78467C15.7062 8.78467 15.2992 8.90803 14.9991 9.12762C14.699 9.3472 14.5304 9.64503 14.5304 9.95557V10.5988C13.6109 10.7283 12.7565 11.0374 12.0576 11.4934C11.3587 11.9494 10.8415 12.5352 10.5608 13.1888C10.4117 13.6115 10.381 14.0518 10.4704 14.4833C10.5599 14.9149 10.7677 15.3287 11.0814 15.7C12.1136 16.8892 13.7471 17.7311 15.6249 18.0418C16.6599 18.2089 17.569 18.6583 18.1672 19.2986C18.2634 19.3998 18.3305 19.5143 18.3644 19.635C18.3983 19.7558 18.3984 19.8804 18.3645 20.0011C18.0669 20.7817 16.3973 21.215 14.7854 20.9293C14.0249 20.8079 13.3366 20.5133 12.8192 20.0878C12.5456 19.8524 12.156 19.7057 11.7352 19.6796C11.3144 19.6536 10.8966 19.7503 10.5729 19.9486C10.2491 20.147 10.0456 20.431 10.0068 20.7387C9.96795 21.0464 10.0969 21.3528 10.3656 21.5912C11.3225 22.3994 12.6052 22.9646 14.029 23.2055C14.1954 23.2352 14.3608 23.25 14.5272 23.2719V23.6138C14.5272 23.9243 14.6958 24.2221 14.9959 24.4417C15.296 24.6613 15.703 24.7847 16.1274 24.7847C16.5518 24.7847 16.9588 24.6613 17.2589 24.4417C17.559 24.2221 17.7276 23.9243 17.7276 23.6138V23.1805C18.5977 23.0281 19.3985 22.7125 20.0511 22.2648C20.7038 21.8171 21.1858 21.2527 21.4497 20.6272C21.5985 20.2045 21.6289 19.7641 21.5393 19.3326C21.4497 18.9011 21.2418 18.4873 20.9281 18.116C19.8963 16.9254 18.2624 16.0821 16.3834 15.7703Z" fill="#EFA22F"/>
</g>
<defs>
<clipPath id="clip0_39_1431">
<rect width="16" height="16" fill="white" transform="translate(8 8.78467)"/>
</clipPath>
</defs>
</svg>
