<svg width="32" height="33" viewBox="0 0 32 33" fill="none" xmlns="http://www.w3.org/2000/svg">
<path d="M0 16.7847C0 7.94811 7.16344 0.784668 16 0.784668C24.8366 0.784668 32 7.94811 32 16.7847C32 25.6212 24.8366 32.7847 16 32.7847C7.16344 32.7847 0 25.6212 0 16.7847Z" fill="#ECEBFF"/>
<g clip-path="url(#clip0_39_1443)">
<path d="M22.6808 11.2348L16.2808 8.83479C16.1001 8.76796 15.9015 8.76796 15.7208 8.83479L9.32079 11.2348C9.1679 11.2918 9.03608 11.3941 8.94299 11.5281C8.84991 11.6621 8.80001 11.8213 8.79999 11.9844C8.82288 14.4876 9.45109 16.9481 10.631 19.1559C11.8109 21.3637 13.5075 23.2531 15.576 24.6631C15.7031 24.7425 15.8501 24.7847 16 24.7847C16.1499 24.7847 16.2968 24.7425 16.424 24.6631C18.4924 23.2531 20.189 21.3637 21.369 19.1559C22.5489 16.9481 23.1771 14.4876 23.2 11.9844C23.2001 11.8215 23.1504 11.6624 23.0576 11.5284C22.9649 11.3945 22.8334 11.292 22.6808 11.2348ZM19.7656 14.9501L15.7656 18.9502C15.6156 19.1002 15.4121 19.1845 15.2 19.1846C15.1736 19.1846 15.148 19.1846 15.12 19.1806C15.0023 19.1689 14.8887 19.1313 14.7873 19.0704C14.6859 19.0095 14.5992 18.9269 14.5336 18.8286L12.9336 16.4285C12.8753 16.3411 12.8348 16.2431 12.8143 16.14C12.7939 16.0369 12.794 15.9309 12.8146 15.8278C12.8352 15.7248 12.8758 15.6268 12.9343 15.5395C12.9927 15.4522 13.0678 15.3772 13.1552 15.3189C13.2426 15.2606 13.3406 15.2201 13.4437 15.1997C13.5468 15.1792 13.6528 15.1793 13.7559 15.1999C13.8589 15.2205 13.9569 15.2611 14.0442 15.3196C14.1315 15.378 14.2065 15.4531 14.2648 15.5405L15.3232 17.1293L18.6336 13.8189C18.7845 13.6731 18.9866 13.5925 19.1963 13.5943C19.4061 13.5962 19.6067 13.6803 19.755 13.8286C19.9034 13.9769 19.9875 14.1776 19.9893 14.3874C19.9911 14.5971 19.9105 14.7992 19.7648 14.9501H19.7656Z" fill="#736CFB"/>
</g>
<defs>
<clipPath id="clip0_39_1443">
<rect width="16" height="16" fill="white" transform="translate(8 8.78467)"/>
</clipPath>
</defs>
</svg>
