<svg width="259" height="39" viewBox="0 0 259 39" fill="none" xmlns="http://www.w3.org/2000/svg">
<g clip-path="url(#clip0_7031_31114)">
<path d="M20.5239 5.85339L8.69027 5.81836L7.47351 9.83764L19.3071 9.87033L20.5239 5.85339Z" fill="#01C3F4"/>
<path d="M15.5167 23.9638L1.21688 23.8984L0.00012207 27.9154L14.3 27.9831L15.5167 23.9638Z" fill="#01C3F4"/>
<path d="M26.171 31.9955L10.0682 31.9277L8.85144 35.947L24.9542 36.0124L26.171 31.9955Z" fill="#01C3F4"/>
<path d="M16.6261 18.5876L17.8429 14.5683L10.505 14.5566L9.28821 18.5736L16.6261 18.5876Z" fill="#01C3F4"/>
<path d="M31.2715 7.86161L30.1085 11.6797L35.2805 13.255L36.4434 9.43691L31.2715 7.86161Z" fill="#18181A"/>
<path d="M29.4544 4.15031H29.4637C29.6062 4.15031 29.7486 4.17367 29.8864 4.2157L39.9171 7.27045L60.4666 13.5317C60.8519 13.6485 61.1578 13.9007 61.347 14.2557C61.5362 14.6107 61.5759 15.0031 61.4568 15.3907L55.8494 33.7963C55.6626 34.4082 55.0647 34.8519 54.4154 34.8519C54.273 34.8519 54.1305 34.8285 53.9927 34.7865L23.4126 25.4705C23.0273 25.3537 22.7213 25.1015 22.5321 24.7465C22.343 24.3915 22.3033 23.9991 22.4224 23.6115L28.0297 5.20593C28.2166 4.59404 28.8144 4.15031 29.4544 4.15031ZM29.4544 0.0703125C27.0232 0.0703125 24.8372 1.68877 24.1272 4.01719L18.5199 22.4227C18.0855 23.845 18.2326 25.3514 18.9332 26.6639C19.6339 27.9764 20.8016 28.9386 22.2239 29.3706L52.804 38.6867C53.3178 38.8431 53.8503 38.9249 54.3874 38.9296C54.4014 38.9296 54.4131 38.9296 54.4271 38.9296C56.8583 38.9296 59.0443 37.3111 59.7542 34.9827L65.3616 16.5771C65.796 15.1549 65.6489 13.6485 64.9482 12.336C64.2476 11.0235 63.0799 10.0613 61.6576 9.62923L41.1082 3.36794L31.0775 0.313197C30.5637 0.156723 30.0312 0.0749834 29.4941 0.0703125C29.48 0.0703125 29.466 0.0703125 29.4544 0.0703125Z" fill="#01C3F4"/>
</g>
<path d="M87.8366 21.2617H74.0437C74.2847 22.5581 74.9164 23.583 75.9362 24.3389C76.956 25.0975 78.2245 25.4755 79.739 25.4755C81.6695 25.4755 83.2601 24.8387 84.5133 23.5652L86.7179 26.0995C85.9289 27.0432 84.9294 27.7561 83.7218 28.2381C82.5143 28.7201 81.1545 28.9611 79.64 28.9611C77.7095 28.9611 76.0073 28.578 74.5384 27.8094C73.067 27.0407 71.9331 25.9727 71.1314 24.6002C70.3298 23.2303 69.929 21.6752 69.929 19.9426C69.929 18.2099 70.3171 16.6903 71.0984 15.3179C71.8773 13.9454 72.958 12.8774 74.3405 12.1088C75.7231 11.3401 77.2808 10.957 79.016 10.957C80.7512 10.957 82.2581 11.335 83.6077 12.0935C84.9573 12.8521 86.0101 13.915 86.7686 15.2874C87.5246 16.6599 87.9051 18.2454 87.9051 20.0441C87.9051 20.3307 87.8823 20.7341 87.8392 21.2617H87.8366ZM75.6724 15.4194C74.7617 16.1982 74.2086 17.2358 74.0108 18.5295H83.9857C83.8106 17.256 83.2728 16.2261 82.3722 15.4346C81.4716 14.6456 80.3529 14.2499 79.016 14.2499C77.6791 14.2499 76.5857 14.6405 75.6749 15.4194H75.6724Z" fill="#18181A"/>
<path d="M104.017 12.8163C105.389 14.0569 106.074 15.9265 106.074 18.4279V28.73H102.19V26.5915C101.685 27.3601 100.967 27.9462 100.034 28.3521C99.1003 28.7579 97.9765 28.9609 96.6599 28.9609C95.3432 28.9609 94.1915 28.7351 93.2021 28.2861C92.2153 27.8371 91.4517 27.2105 90.9139 26.4088C90.3761 25.6072 90.1072 24.7015 90.1072 23.6918C90.1072 22.1114 90.6932 20.8455 91.8677 19.8891C93.0423 18.9352 94.8917 18.4558 97.4159 18.4558H101.959V18.1919C101.959 16.9641 101.592 16.0204 100.856 15.3608C100.12 14.7012 99.0293 14.374 97.5808 14.374C96.5939 14.374 95.6223 14.5287 94.6684 14.8357C93.7146 15.1426 92.9079 15.5714 92.2483 16.1193L90.6348 13.1233C91.5557 12.4206 92.6643 11.8828 93.9607 11.5099C95.2545 11.1369 96.6269 10.9492 98.0754 10.9492C100.666 10.9492 102.644 11.5707 104.017 12.8087V12.8163ZM100.265 25.2596C101.066 24.7878 101.632 24.113 101.959 23.2352V21.193H97.7127C95.3432 21.193 94.1585 21.9719 94.1585 23.5295C94.1585 24.2753 94.4553 24.8689 95.0464 25.3078C95.6375 25.7467 96.462 25.9674 97.5148 25.9674C98.5676 25.9674 99.4631 25.7315 100.265 25.2596Z" fill="#18181A"/>
<path d="M112.591 28.4049C111.229 28.032 110.143 27.5602 109.332 26.9894L110.912 23.8614C111.701 24.3891 112.652 24.8102 113.758 25.1273C114.867 25.447 115.958 25.6043 117.033 25.6043C119.492 25.6043 120.719 24.9574 120.719 23.6636C120.719 23.0496 120.407 22.6209 119.781 22.3799C119.157 22.1389 118.152 21.9081 116.77 21.6899C115.321 21.4717 114.141 21.218 113.231 20.9314C112.32 20.6472 111.531 20.1475 110.861 19.4346C110.192 18.7218 109.857 17.7273 109.857 16.4564C109.857 14.7896 110.554 13.4553 111.947 12.4557C113.34 11.4562 115.222 10.959 117.592 10.959C118.799 10.959 120.007 11.096 121.214 11.37C122.422 11.6439 123.409 12.0118 124.177 12.4735L122.597 15.6014C121.105 14.7237 119.426 14.2848 117.561 14.2848C116.354 14.2848 115.438 14.4649 114.814 14.8277C114.187 15.1905 113.875 15.6674 113.875 16.261C113.875 16.9206 114.21 17.3848 114.88 17.6588C115.549 17.9328 116.587 18.1916 117.99 18.4326C119.395 18.6533 120.547 18.9044 121.445 19.1885C122.346 19.4752 123.119 19.9572 123.766 20.6371C124.413 21.317 124.738 22.2835 124.738 23.5342C124.738 25.1806 124.025 26.4972 122.599 27.4841C121.174 28.4709 119.23 28.9656 116.772 28.9656C115.346 28.9656 113.951 28.7779 112.591 28.4049Z" fill="#18181A"/>
<path d="M150.289 27.8139C148.841 27.0452 147.709 25.9772 146.9 24.6047C146.088 23.2348 145.682 21.6797 145.682 19.9471C145.682 18.2144 146.088 16.6669 146.9 15.3046C147.712 13.9449 148.835 12.8794 150.274 12.1107C151.71 11.342 153.351 10.959 155.195 10.959C156.928 10.959 158.448 11.3116 159.754 12.0118C161.061 12.7145 162.042 13.7242 162.699 15.0408L159.538 16.8851C159.034 16.0733 158.402 15.4644 157.646 15.0585C156.887 14.6526 156.06 14.4497 155.16 14.4497C153.622 14.4497 152.349 14.9495 151.342 15.9464C150.332 16.946 149.827 18.2778 149.827 19.9471C149.827 21.6163 150.327 22.9482 151.324 23.9477C152.324 24.9472 153.602 25.4444 155.16 25.4444C156.06 25.4444 156.887 25.2415 157.646 24.8356C158.404 24.4297 159.034 23.8208 159.538 23.0091L162.699 24.8508C162.019 26.1674 161.025 27.1822 159.721 27.895C158.415 28.6079 156.905 28.9656 155.195 28.9656C153.374 28.9656 151.74 28.5825 150.292 27.8139H150.289Z" fill="#18181A"/>
<path d="M176.426 10.959V14.8759C176.076 14.8099 175.756 14.777 175.472 14.777C173.869 14.777 172.618 15.2437 171.72 16.1748C170.82 17.1083 170.371 18.4529 170.371 20.2084V28.7347H166.256V11.1569H170.173V13.7242C171.357 11.8799 173.443 10.959 176.426 10.959Z" fill="#18181A"/>
<path d="M196.97 4.30859V28.7334H193.02V26.463C192.34 27.2976 191.5 27.9216 190.501 28.3402C189.501 28.7563 188.398 28.9643 187.193 28.9643C185.503 28.9643 183.983 28.5914 182.634 27.8455C181.284 27.0997 180.224 26.0418 179.458 24.6694C178.689 23.297 178.306 21.7241 178.306 19.9458C178.306 18.1674 178.689 16.5997 179.458 15.2374C180.226 13.8776 181.284 12.8223 182.634 12.0764C183.983 11.3306 185.503 10.9577 187.193 10.9577C188.357 10.9577 189.42 11.1556 190.386 11.5513C191.353 11.9471 192.175 12.5382 192.855 13.3297V4.30859H196.97ZM190.353 24.7658C191.142 24.3168 191.769 23.675 192.231 22.8403C192.692 22.0057 192.923 21.0417 192.923 19.9432C192.923 18.8448 192.692 17.8808 192.231 17.0461C191.769 16.2115 191.145 15.5697 190.353 15.1207C189.564 14.6716 188.674 14.4459 187.687 14.4459C186.7 14.4459 185.81 14.6716 185.021 15.1207C184.232 15.5697 183.605 16.2115 183.144 17.0461C182.682 17.8808 182.454 18.8448 182.454 19.9432C182.454 21.0417 182.685 22.0057 183.144 22.8403C183.605 23.675 184.229 24.3168 185.021 24.7658C185.81 25.2148 186.7 25.4406 187.687 25.4406C188.674 25.4406 189.564 25.2148 190.353 24.7658Z" fill="#18181A"/>
<path d="M203.619 28.4049C202.257 28.032 201.171 27.5602 200.359 26.9894L201.939 23.8614C202.728 24.3891 203.68 24.8102 204.786 25.1273C205.894 25.447 206.985 25.6043 208.061 25.6043C210.519 25.6043 211.747 24.9574 211.747 23.6636C211.747 23.0496 211.435 22.6209 210.808 22.3799C210.184 22.1389 209.18 21.9081 207.797 21.6899C206.349 21.4717 205.169 21.218 204.258 20.9314C203.347 20.6472 202.558 20.1475 201.889 19.4346C201.219 18.7218 200.884 17.7273 200.884 16.4564C200.884 14.7896 201.582 13.4553 202.975 12.4557C204.367 11.4562 206.25 10.959 208.619 10.959C209.827 10.959 211.034 11.096 212.242 11.37C213.449 11.6439 214.436 12.0118 215.205 12.4735L213.624 15.6014C212.133 14.7237 210.453 14.2848 208.589 14.2848C207.381 14.2848 206.465 14.4649 205.841 14.8277C205.215 15.1905 204.903 15.6674 204.903 16.261C204.903 16.9206 205.237 17.3848 205.907 17.6588C206.577 17.9328 207.614 18.1916 209.017 18.4326C210.423 18.6533 211.574 18.9044 212.472 19.1885C213.373 19.4752 214.147 19.9572 214.794 20.6371C215.441 21.317 215.765 22.2835 215.765 23.5342C215.765 25.1806 215.052 26.4972 213.627 27.4841C212.201 28.4709 210.258 28.9656 207.8 28.9656C206.374 28.9656 204.979 28.7779 203.619 28.4049Z" fill="#18181A"/>
<path d="M218.728 28.1906C218.201 27.6757 217.939 27.0212 217.939 26.2322C217.939 25.4432 218.198 24.7634 218.713 24.256C219.228 23.7511 219.87 23.5 220.639 23.5C221.407 23.5 222.049 23.7537 222.564 24.256C223.079 24.7608 223.338 25.4204 223.338 26.2322C223.338 27.044 223.074 27.6757 222.549 28.1906C222.021 28.7056 221.384 28.9644 220.639 28.9644C219.893 28.9644 219.256 28.7082 218.728 28.1906Z" fill="#18181A"/>
<path d="M237.524 10.959V14.8759C237.174 14.8099 236.854 14.777 236.57 14.777C234.966 14.777 233.716 15.2437 232.818 16.1748C231.917 17.1083 231.468 18.4529 231.468 20.2084V28.7347H227.353V11.1569H231.27V13.7242C232.455 11.8799 234.54 10.959 237.524 10.959Z" fill="#18181A"/>
<path d="M258.197 11.1543V28.7322H254.28V26.4947C253.62 27.2836 252.798 27.8925 251.812 28.3212C250.825 28.7499 249.759 28.963 248.618 28.963C246.269 28.963 244.422 28.3111 243.072 27.0046C241.723 25.7006 241.048 23.7625 241.048 21.1952V11.1543H245.163V20.6345C245.163 22.215 245.52 23.3946 246.233 24.1734C246.946 24.9523 247.961 25.3429 249.277 25.3429C250.746 25.3429 251.916 24.8888 252.783 23.9756C253.651 23.0648 254.085 21.7533 254.085 20.0434V11.1543H258.199H258.197Z" fill="#18181A"/>
<path d="M130.012 35.0692H134.439L145.055 11.1543H141.106L135.395 23.8081L130.012 11.1543H125.735L133.201 28.3314L130.012 35.0692Z" fill="#18181A"/>
<defs>
<clipPath id="clip0_7031_31114">
<rect width="65.6256" height="39.0017" fill="white"/>
</clipPath>
</defs>
</svg>
