<svg width="105" height="22" viewBox="0 0 105 22" fill="none" xmlns="http://www.w3.org/2000/svg">
<g clip-path="url(#clip0_7105_12704)">
<path d="M11.5696 22C17.5945 22 22.4787 17.0751 22.4787 11C22.4787 4.92487 17.5945 0 11.5696 0C5.5446 0 0.6604 4.92487 0.6604 11C0.6604 17.0751 5.5446 22 11.5696 22Z" fill="#CE2457"/>
<path fill-rule="evenodd" clip-rule="evenodd" d="M11.0319 4.38486C7.64975 4.66375 4.99121 7.51987 4.99121 11.0021C4.99121 14.669 7.93932 17.6417 11.5759 17.6417C15.2125 17.6417 18.1607 14.669 18.1607 11.0021C18.1607 7.51946 15.5015 4.66311 12.1188 4.38477L11.9414 8.74582C13.0196 8.92202 13.8428 9.86514 13.8428 11.0021C13.8428 12.2645 12.8279 13.2879 11.5759 13.2879C10.3239 13.2879 9.30895 12.2645 9.30895 11.0021C9.30895 9.86548 10.1316 8.92271 11.2093 8.74603L11.0319 4.38486Z" fill="white"/>
<path d="M11.5688 3.91899C12.3537 3.91899 12.99 3.27736 12.99 2.48586C12.99 1.69437 12.3537 1.05273 11.5688 1.05273C10.7838 1.05273 10.1475 1.69437 10.1475 2.48586C10.1475 3.27736 10.7838 3.91899 11.5688 3.91899Z" fill="white"/>
<path d="M37.3361 10.9968C37.3361 12.5118 36.7865 13.7355 35.7484 14.7262C34.7102 15.7168 33.4277 16.1829 31.901 16.1829C30.3743 16.1829 29.1529 15.7168 28.0537 14.7262C27.0765 13.7355 26.5269 12.5118 26.5269 10.9968C26.5269 9.48165 27.0765 8.25796 28.1147 7.26735C29.1529 6.27673 30.4353 5.81055 31.901 5.81055C33.3666 5.81055 34.7102 6.27673 35.7484 7.26735C36.7865 8.25796 37.3361 9.48165 37.3361 10.9968ZM35.3209 10.9968C35.3209 10.1227 35.0155 9.36511 34.3438 8.78239C33.7331 8.19966 32.8781 7.9083 31.901 7.9083C30.9239 7.9083 30.13 8.19966 29.4582 8.78239C28.7865 9.36511 28.4811 10.1227 28.4811 10.9968C28.4811 11.8708 28.7865 12.6283 29.4582 13.2111C30.0689 13.7938 30.9239 14.0851 31.901 14.0851C32.8781 14.0851 33.7331 13.7938 34.3438 13.2111C35.0155 12.6283 35.3209 11.8708 35.3209 10.9968Z" fill="#0A0D14"/>
<path d="M43.784 15.7194H41.5244V8.0857H38.0435V6.2793H47.2038V8.0857H43.784V15.7194Z" fill="#0A0D14"/>
<path d="M52.2643 15.955C50.6766 15.955 49.3941 15.722 48.356 15.2558V13.3911C49.5163 13.9155 50.7376 14.1486 51.959 14.1486C52.875 14.1486 53.5468 14.0321 54.0965 13.799C54.585 13.5659 54.8904 13.2162 54.8904 12.8083C54.8904 11.9926 54.1576 11.6429 52.6308 11.6429H50.7376V9.95302H52.6308C53.9133 9.95302 54.524 9.60342 54.524 8.90417C54.524 8.14661 53.669 7.79695 52.0201 7.79695C50.9208 7.79695 49.8216 8.03008 48.6613 8.49627V6.68981C49.6995 6.28191 50.9819 6.04883 52.5086 6.04883C53.73 6.04883 54.7683 6.28191 55.6232 6.74808C56.4171 7.21429 56.8446 7.85525 56.8446 8.5545C56.8446 9.60342 56.295 10.3027 55.2568 10.6523C56.5392 11.0602 57.211 11.8177 57.211 12.9832C57.211 13.8573 56.7835 14.6147 55.8675 15.1392C54.9515 15.722 53.73 15.955 52.2643 15.955Z" fill="#0A0D14"/>
<path d="M69.5332 10.9968C69.5332 12.5118 68.9837 13.7355 67.9456 14.7262C66.9074 15.7168 65.625 16.1829 64.0982 16.1829C62.5715 16.1829 61.3501 15.7168 60.2508 14.7262C59.2127 13.7355 58.6631 12.5118 58.6631 10.9968C58.6631 9.48165 59.2127 8.25796 60.2508 7.26735C61.3501 6.27673 62.6326 5.81055 64.1593 5.81055C65.686 5.81055 66.9685 6.27673 68.0067 7.26735C68.9837 8.25796 69.5332 9.48165 69.5332 10.9968ZM67.5792 10.9968C67.5792 10.1227 67.2738 9.36511 66.602 8.78239C65.9914 8.19966 65.1364 7.9083 64.1593 7.9083C63.1822 7.9083 62.3883 8.19966 61.7165 8.78239C61.0447 9.36511 60.7394 10.1227 60.7394 10.9968C60.7394 11.8708 61.0447 12.6283 61.7165 13.2111C62.3272 13.7938 63.1822 14.0851 64.1593 14.0851C65.1364 14.0851 65.9914 13.7938 66.602 13.2111C67.2127 12.6283 67.5792 11.8708 67.5792 10.9968Z" fill="#0A0D14"/>
<path d="M77.4725 15.7194H71.5488V6.2793H77.167C78.1441 6.2793 78.9377 6.51239 79.5486 6.92032C80.1595 7.32821 80.4036 7.96917 80.4036 8.66842C80.4036 9.13461 80.2816 9.54251 80.0368 9.89217C79.7927 10.2418 79.4872 10.5331 79.0597 10.708C80.4036 11.0576 81.0752 11.8734 81.0752 13.1554C81.0752 13.9712 80.7697 14.6121 80.0981 15.0783C79.4872 15.4862 78.6322 15.7194 77.4725 15.7194ZM73.8084 7.96917V10.0669H76.6175C77.1056 10.0669 77.4725 9.9504 77.7772 9.77564C78.022 9.60081 78.2047 9.30945 78.2047 9.01808C78.2047 8.31883 77.7166 7.96917 76.6781 7.96917H73.8084ZM73.8084 11.6986V14.0295H77.045C77.5945 14.0295 77.9606 13.9129 78.2661 13.7381C78.5716 13.505 78.6936 13.2719 78.6936 12.864C78.6936 12.5144 78.5716 12.223 78.2661 11.9899C77.9606 11.7569 77.5331 11.6986 77.045 11.6986H73.8084Z" fill="#0A0D14"/>
<path d="M85.2872 15.7135H83.1497V6.27344H85.4092V12.6833L90.9667 6.27344H93.1042V15.7135H90.8447V9.30359L85.2872 15.7135Z" fill="#0A0D14"/>
<path d="M97.7141 15.7135H95.4546V6.27344H97.7141V15.7135Z" fill="#0A0D14"/>
<path d="M100.098 10.819L104.624 15.6555H101.702L97.4038 10.9355L101.416 6.33203H104.223L100.098 10.819Z" fill="#0A0D14"/>
</g>
<defs>
<clipPath id="clip0_7105_12704">
<rect width="105" height="22" fill="white"/>
</clipPath>
</defs>
</svg>
